<?xml version="1.0" encoding="UTF-8"?><svg xmlns="http://www.w3.org/2000/svg" xmlns:xlink="http://www.w3.org/1999/xlink" version="1.1" viewBox="0 0 2469.8801 2460.5549"><defs id="defs4"><linearGradient id="linearGradient4087"><stop id="stop4089" stop-color="#fff" offset="0"/><stop id="stop4091" stop-color="#fff" stop-opacity="0" offset="1"/></linearGradient><radialGradient id="radialGradient4093" xlink:href="#linearGradient4087" gradientUnits="userSpaceOnUse" cy="999.63" cx="254.85" gradientTransform="matrix(14.346 -.57832 -4.0913 1.9025 688.56 -786.89)" r="248.45"/><radialGradient id="radialGradient4095" xlink:href="#linearGradient4087" gradientUnits="userSpaceOnUse" cy="999.76" cx="250.8" gradientTransform="matrix(17.554 -.59563 -6.3433 1.9969 2189.9 -879.37)" r="248.45"/><radialGradient id="radialGradient4097" xlink:href="#linearGradient4087" gradientUnits="userSpaceOnUse" cy="1000.8" cx="247.81" gradientTransform="matrix(12.436 -.78663 -1.5119 1.7471 -1320.9 -584.99)" r="248.45"/><radialGradient id="radialGradient4099" xlink:href="#linearGradient4087" gradientUnits="userSpaceOnUse" cy="1000.4" cx="245.22" gradientTransform="matrix(12.201 -.68213 -1.8514 1.763 -894.53 -628.26)" r="248.45"/><radialGradient id="radialGradient4101" xlink:href="#linearGradient4087" gradientUnits="userSpaceOnUse" cy="1002.3" cx="266.84" gradientTransform="matrix(9.129 -.46099 -.98563 1.7303 -1181.3 -641.39)" r="248.45"/><radialGradient id="radialGradient4103" xlink:href="#linearGradient4087" gradientUnits="userSpaceOnUse" cy="1001.4" cx="265.46" gradientTransform="matrix(9.9258 -.59198 -.92069 1.7687 -1447.5 -645)" r="248.45"/><radialGradient id="radialGradient4105" xlink:href="#linearGradient4087" gradientUnits="userSpaceOnUse" cy="1000.6" cx="263.25" gradientTransform="matrix(10.778 -1.0752 .69912 1.5908 -3273.6 -340.37)" r="248.45"/><radialGradient id="radialGradient4107" xlink:href="#linearGradient4087" gradientUnits="userSpaceOnUse" cy="1e3" cx="259.68" gradientTransform="matrix(14.479 -.64359 -3.7713 1.8864 271.24 -751.42)" r="248.45"/><radialGradient id="radialGradient4109" xlink:href="#linearGradient4087" gradientUnits="userSpaceOnUse" cy="1003.7" cx="257.8" gradientTransform="matrix(14.565 -1.6831 .077738 1.6602 -3575 -261.42)" r="248.45"/><radialGradient id="radialGradient4111" xlink:href="#linearGradient4087" gradientUnits="userSpaceOnUse" cy="1003.2" cx="262.42" gradientTransform="matrix(13.615 -1.6239 .62910 1.5268 -3941.6 -134.87)" r="248.45"/><radialGradient id="radialGradient4113" xlink:href="#linearGradient4087" gradientUnits="userSpaceOnUse" cy="1003" cx="265.38" gradientTransform="matrix(15.115 -1.3992 -.96116 1.7296 -2782 -393.03)" r="248.45"/><radialGradient id="radialGradient4115" xlink:href="#linearGradient4087" gradientUnits="userSpaceOnUse" cy="1002.6" cx="246.02" gradientTransform="matrix(11.938 -.77984 -1.055 1.6726 -1633.3 -515.03)" r="248.45"/><radialGradient id="radialGradient4117" xlink:href="#linearGradient4087" gradientUnits="userSpaceOnUse" cy="1003.4" cx="248.39" gradientTransform="matrix(14.026 -.88261 -2.3802 1.8552 -847.1 -671.53)" r="248.45"/><radialGradient id="radialGradient4119" xlink:href="#linearGradient4087" gradientUnits="userSpaceOnUse" cy="1003.8" cx="252.41" gradientTransform="matrix(14.938 -1.3312 -.90871 1.6787 -2606 -377.97)" r="248.45"/></defs><g transform="translate(850.62 248.88)"><path id="path3777" d="m256.58 969.53-245.42-432.07 496.9 3.49z" transform="matrix(.48747 .11210 -.71058 2.7807 949.68 -1744.6)" fill="url(#radialGradient4093)"/><path id="path3777-4" d="m256.58 969.53-245.42-432.07 496.9 3.49z" transform="matrix(.38792 .31577 -1.8651 2.1814 2093.9 -1215.7)" fill="url(#radialGradient4095)"/><path id="path3777-0" d="m256.58 969.53-245.42-432.07 496.9 3.49z" transform="matrix(.22313 .44767 -2.5988 1.2179 2848.2 -316.19)" fill="url(#radialGradient4097)"/><path id="path3777-4-9" d="m256.58 969.53-245.42-432.07 496.9 3.49z" transform="matrix(.014361 .49999 -2.87 .013088 3161.6 839.03)" fill="url(#radialGradient4099)"/><path id="path3777-5" d="m256.58 969.53-245.42-432.07 496.9 3.49z" transform="matrix(-.015030 -.49997 2.87 -.016930 -2392.9 1124.1)" fill="url(#radialGradient4101)"/><path id="path3777-4-5" d="m256.58 969.53-245.42-432.07 496.9 3.49z" transform="matrix(.20031 -.45833 2.6013 1.2125 -2187.6 -79.044)" fill="url(#radialGradient4103)"/><path id="path3777-0-1" d="m256.58 969.53-245.42-432.07 496.9 3.49z" transform="matrix(.37395 -.33219 1.8537 2.1911 -1507.1 -1060.1)" fill="url(#radialGradient4105)"/><path id="path3777-4-9-7" d="m256.58 969.53-245.42-432.07 496.9 3.49z" transform="matrix(.48085 -.13775 .72350 2.7774 -438.7 -1678)" fill="url(#radialGradient4107)"/><path id="path3777-7" d="m256.58 969.53-245.42-432.07 496.9 3.49z" transform="matrix(-.48990 -.10096 .64701 -2.7962 -115.58 3715.6)" fill="url(#radialGradient4109)"/><path id="path3777-4-95" d="m256.58 969.53-245.42-432.07 496.9 3.49z" transform="matrix(-.39502 -.30685 1.8149 -2.2234 -1271.5 3212.9)" fill="url(#radialGradient4111)"/><path id="path3777-0-4" d="m256.58 969.53-245.42-432.07 496.9 3.49z" transform="matrix(-.23328 -.44246 2.5704 -1.2768 -2046.1 2330.8)" fill="url(#radialGradient4113)"/><path id="path3777-4-5-3" d="m256.58 969.53-245.42-432.07 496.9 3.49z" transform="matrix(-.18981 .46278 -2.6283 -1.1529 2982.9 1978.9)" fill="url(#radialGradient4115)"/><path id="path3777-0-1-1" d="m256.58 969.53-245.42-432.07 496.9 3.49z" transform="matrix(-.36628 .34063 -1.9032 -2.1483 2325 2975.2)" fill="url(#radialGradient4117)"/><path id="path3777-4-9-7-2" d="m256.58 969.53-245.42-432.07 496.9 3.49z" transform="matrix(-.47759 .14867 -.78663 -2.7601 1270.9 3617.4)" fill="url(#radialGradient4119)"/></g></svg>