<?xml version="1.0" encoding="UTF-8"?><svg xmlns="http://www.w3.org/2000/svg" viewBox="0 0 747.2 747.19" version="1.1"><defs id="defs4"><linearGradient id="linearGradient3959" y2="361.04" gradientUnits="userSpaceOnUse" x2="478.83" y1="395.64" x1="548.83"><stop id="stop3955" stop-color="#fb9f20" offset="0"/><stop id="stop3957" stop-color="#f13f45" offset="1"/></linearGradient><filter id="filter4112" color-interpolation-filters="sRGB"><feBlend id="feBlend4114" mode="multiply" in2="BackgroundImage"/></filter><linearGradient id="linearGradient4127" y2="388.55" gradientUnits="userSpaceOnUse" x2="611.79" y1="394.56" x1="621.58"><stop id="stop4120" stop-color="#fb9f20" offset="0"/><stop id="stop4122" stop-color="#f13f45" offset="1"/></linearGradient></defs><g transform="translate(-3.7222 -91.55)" stroke="#d7c061" stroke-miterlimit="100" stroke-width="5" fill="#efeb87"><path id="path3791" d="m492.8 654.31c-4.032 44.851 0.87668 76.58 26.865 148.25 9.4996 26.198-63.765 21.277-67.832 7.3087-15.823-54.348-21.188-105.06-8.2576-150.01z"/><path id="path3793" d="m357.34 665.98c-29.656 67.979-18.211 122.77-14.691 134.47 4.6423 15.439 58.349 14.297 54.671-4.8341-12.419-64.591 5.227-114.48 14.315-127.87z"/></g><g transform="translate(-3.7222 -91.55)"><path id="path4071" fill="#f73656" d="m320 558.79c-15.002-37.234-29.379-59.692-55.886-76.142-49.017-30.419-106.29-27.618-146.32 2.0067-15.514 11.48-25.384 24.395-33.705 49.698-2.3402 7.116 3.0632 9.1587 8.4147 8.0086 10.855 0.54635 26.647-25.638 45-33.929-65.466 44.642-73.471 115.49-54.599 172.96 19.347 58.917 53.34 91.064 105.67 98.11 65.199 0.59776 68.681-52.883 54.089-88.28-8.6996-21.103-25.128-32.249-30.874-39.934 11.189 0.86372 23.584 5.2657 32.143-13.929-7.3516-13.739-17.313-24.052-20.795-33.145-10.433-27.25 18.699-42.774 42.231-41.666 14.93 0.70297 29.27 7.9851 38.564 17.668z"/></g><g transform="translate(-3.7222 -91.55)"><path id="path4058" fill="#c40f42" d="m192.91 458c-47.68-0.42-93.988 24.51-111.41 73.81-1.4077 3.9834-1.667 7.2607-0.3125 9.875s4.1902 3.7879 6.9688 3.9688c5.557 0.36175 12.274-2.2392 18.125-5.75l-1.7009-4.2812c-5.2509 3.1507-12.587 5.2919-16.112 5.0625-1.7623-0.11472-2.4521-0.55661-2.8438-1.3125-0.39164-0.75589-0.60457-2.6038 0.5625-5.9062 17.783-50.321 66.834-73.969 115.88-70.062 49.041 3.9069 97.712 35.356 114.47 95.906l4.8438-1.3438c-17.303-62.528-67.997-95.507-118.91-99.562-3.1818-0.25348-6.3844-0.37844-9.5625-0.40625z"/><path id="path4060" fill="#c40f42" d="m144.28 504.2c-16.159 6.6133-33.127 19.271-49.326 42.085-13.899 19.574-19.684 45.446-21.814 69.256-3.0016 33.553 3.9917 68.133 18.623 96.775 20.583 40.294 55.083 67.31 100.05 69.313 11.143 0.49612 23.724-2.1202 34.562-8.2812 10.839-6.1611 19.93-16.004 23.531-29.781 6.0064-22.982 2.2092-57.756-29.344-87.781 8.625-0.14448 16.034-3.1024 20.719-7.7188 2.9876-2.9441 4.9046-6.6011 5.125-10.5 0.22042-3.8989-1.38-7.9221-4.75-11.25l-0.0312-0.0312-0.0625-0.0625c-18.21-16.24-20.803-30.589-15.969-41.438 4.8342-10.849 17.879-18.681 32.719-20.156 15.359-1.5274 33.33 7.4074 44.5 18.531l3.5-3.5625c-12.09-12.04-30.921-21.686-48.5-19.938-16.271 1.618-30.976 10.065-36.781 23.094-5.795 13.005-1.9459 30.067 17.125 47.125 2.542 2.5103 3.3872 4.979 3.25 7.4062-0.13723 2.4273-1.3666 4.9624-3.6562 7.2188-4.5794 4.5128-13.327 7.6459-23.688 5.875l-8.9688-1.5312 6.9375 5.9062c35.12 29.903 38.931 65.107 33.062 87.562-3.2306 12.361-11.282 21.057-21.188 26.688-9.9059 5.631-21.683 8.0788-31.875 7.625-41.668-1.8552-75.368-29.443-95.025-66.954-30.604-58.402-23.17-130.34 9.1014-168.91 13.569-17.141 36.442-34.002 38.17-36.561z"/><path id="path4066" d="m198.93 778.43c-75.67-21.27-107.85-107.2-88.58-174.49 17.19-60.05 104.5-111.9 170.16-74.13 13.146 7.5624 28.841 23.852 34.131 32.194" stroke="#c40f42" stroke-miterlimit="100" stroke-width="3" fill="none"/><path id="path4068" d="m234.29 763.79c-73.625-14.959-109.66-97.934-91.435-157.45 9.3625-30.578 28.379-52.327 58.363-64.234 34.779-13.812 77.037-13.945 108.43 30.612" stroke="#c40f42" stroke-width="3" fill="none"/></g><g transform="translate(-3.7222 -91.55)"><path id="path3798" fill="#f7f68e" d="m363.99 675.27c-20.009 32.402-27.125 74.975-1.6429 144.71-24.006 18.732-80.859 10.201-92.464-11.393-4.0004-42.341 5.5517-90.781 27.25-124.61l18.893 0.53571c-19.911-37.385-18.274-69.827-15.413-92.141 3.4826-27.164 19.01-45.319 39.744-54.187 28.187-12.056 64.855-8.237 90.705 1.5067-25.18-76.103-47.872-159.23-44.585-219.66 2.8476-52.353 26.262-87.143 71.371-92.127 75.52-8.1748 130.11 6.4423 165.88 44.443 18.667 19.832 34.287 46.032 40.63 78.686 3.7008 19.05-1.6648 43.662-1.8518 67.052l-22.375-0.46608 27.011 1.8803c4.4344 15.365 0.86997 28.072-6.2289 39.297-28.194 44.582-126.91 58.403-143.76 51.462l8.2034-0.10301c6.2654 21.837 8.7674 45.846 9.4872 63.128 1.2124 29.113-2.761 53.054-13.008 70.52-17.439 29.725-49.507 41.206-81.099 43.972-35.074 3.0712-72.355-2.9963-92.149-22.82-6.6772-6.6873-8.7824-12.857-11.194-21.285 2.5985 6.4678 3.7672 10.72 9.8516 18.358 3.4599 4.3434 7.6533 10.5 16.743 13.234z"/><path id="path4080" d="m661.28 352.45c-3.2478-10.969-6.673-21.441-11.321-26.663-6.4817-7.2819-14.161-6.9537-16.593-6.5436-26.229 18.706-21.258 62.489-6.6074 86.261 3.7169 6.031 8.0568 10.774 12.668 13.492l21.213 0.50508c7.7463-30.878 3.7414-56.577 0.64024-67.051z" fill="#fff"/><path id="path4116" d="m614.83 364.35c14.706 26.895 31.091 41.66 49.144 3.5355l0.70711 28.284c-16.778 25.33-37.522 4.6932-49.321-16.087z" fill="url(#linearGradient4127)"/><path id="path4129" d="m682.27 359.93c0 20.991-12.11 38.007-27.049 38.007s-27.049-17.016-27.049-38.007 12.11-38.007 27.049-38.007 27.049 17.016 27.049 38.007z" transform="matrix(.91590 0 .071334 .91395 13.429 27.347)"/></g><g transform="translate(-3.7222 -91.55)"><path id="path3768" fill="#d7c061" d="m361.84 674.38c-10.46 23.165-18.104 39.318-19.469 59.812-1.3652 20.495 3.5469 44.959 17.594 84.906 0.10462 0.29752 0.10271 0.24943-0.0312 0.5-0.13396 0.25057-0.57613 0.7487-1.4062 1.2812-1.6602 1.0651-4.7674 2.1905-8.7188 3.0312-7.9028 1.6815-19.206 2.3963-30.719 1.7812-11.512-0.61506-23.27-2.5739-32.031-6-4.3806-1.713-7.983-3.797-10.469-6.125-2.4857-2.328-3.8481-4.7848-4.0938-7.6562-1.9791-23.137 1.7921-52.244 7.4688-75.812 2.8383-11.784 6.1453-22.218 9.375-29.781 1.6148-3.7815 3.0592-6.9431 4.6562-8.9375 6.2777-7.8394 27.468-0.54258 26.161-4.2059l-1.7711-4.9659c-2.0526 0.016-4.6484-0.19578-7.8815-0.52444-10.355-0.87405-14.494 0.0139-17.831 2.8251-2.6934 2.2689-5.1136 6.0691-7.9275 13.871-3.3947 7.9495-6.7369 18.54-9.625 30.531-5.7762 23.982-9.6799 53.383-7.625 77.406 0.36331 4.2473 2.5067 7.9566 5.6562 10.906 3.1495 2.9497 7.3152 5.2563 12.094 7.125 9.5572 3.7374 21.675 5.7087 33.562 6.3438 11.887 0.63508 23.503-0.0851 32.062-1.9062 4.2796-0.91059 7.7923-2.0306 10.375-3.6875 1.2914-0.82845 2.3849-1.8304 3.0938-3.1562 0.70881-1.3259 0.86286-3.0238 0.34375-4.5-13.956-39.687-18.638-63.472-17.344-82.906 1.2946-19.434 8.5563-34.895 19.031-58.094l-4.5312-2.0625z"/><path id="path3770" fill="#d7c061" d="m488.47 224.06c-45.058 0.61831-73.184 15.201-89.031 38.281-15.848 23.08-19.408 54.153-16.844 87.656 5.0012 65.35 31.217 140.66 40.73 185.16-38.31-4.2298-74.829-16.39-104.69 11.691-40.207 39.18-18.171 112.12-5.477 137.76 2.4937 5.038 5.3804 3.1915 7.0229 2.6659-0.52168-1.384-1.4142-4.1407-1.922-5.4161-3.6618-9.8428-8.481-19.724-11.202-31-8.294-34.378-8.7256-73.936 16.424-99.636 12.014-11.83 28.221-15.029 45.642-14.795 25.724 0.34552 46.349 5.583 62.851 7.4772l-0.9063-6.44c-8.94-44.99-38.42-122.01-43.46-187.84-2.5189-32.915 1.1172-62.839 15.969-84.469s40.946-35.49 84.969-36.094c78.846-1.082 125.71 30.838 150.81 70.906 25.099 40.068 28.159 88.61 18.469 120.09l4.7812 1.4688c10.197-33.13 6.9595-82.777-19-124.22-25.959-41.442-74.894-74.351-155.12-73.25z"/><path id="path3772" fill="#d7c061" d="m634.45 415.46c6.9022 9.8046 28.559 3.6405 30.166 8.0584 9.0847 24.97-21.947 55.944-48.522 67.389-32.695 14.08-78.007 20.121-104.29 18.755 13.861 11.106 75.616 0.56064 109.29-14.694 21.607-9.7872 46.027-30.749 49.963-56.966 0.81669-5.44 0.9164-10.984-1.4012-17.309-2.353-6.4211-19.85-3.9118-35.208-5.2335z"/><path id="path3774" fill="#d7c061" d="m520.47 511.11c14.006 57.669 15.177 106.39-1.81 133.95-21.116 34.252-68.112 44.457-108.54 41.884-19.916-1.2677-45.533-8.5855-61.087-26.058-7.0124-7.8777-11.41-18.021-13.307-30.254-2.263 45.017 40.918 58.589 77.7 62.205 45.389 1.4843 88.575-9.842 109.51-45.151 17.835-30.078 17.301-79.291 3.1613-137.51-2.5048 0.73034-3.0576 0.97278-5.6326 0.93502z"/><path id="path3800" d="m395.98 664.97c-14.365 50.75-13.328 104.22-17.173 156.83 5.5847 11.551 71.917 26.057 97.732 1.7678-14.269-43.302-40.126-95.921-23.246-153.69z" fill="#f7f68e"/><path id="path3776" fill="#d7c061" d="m463.78 830c-8.0459 2.8892-20.398 4.0893-33.062 3.6875-12.664-0.40178-25.693-2.3631-35.281-5.3438-4.7944-1.4903-8.72-3.267-11.219-5.0625-2.4987-1.7955-3.3567-3.316-3.2812-4.625 4.2744-74.139 9.6602-114.24 17.268-157.58-10.765 2.0711-20.861 117.6-22.268 157.3-0.20859 3.618 2.1288 6.6586 5.3438 8.9688 3.215 2.3101 7.5466 4.1929 12.656 5.7812 10.219 3.1766 23.565 5.1169 36.625 5.5312 13.06 0.41435 25.771-0.65714 34.906-3.9375 8.5917-2.4702 15.371-9.453 11.812-18.781-4.4842-11.753-8.4733-23.135-11.71-32.823-17.5-52.384-16.294-75.857-10.916-117.11-10.647 11.477-10.251 58.924-1.8564 94.293 5.2335 22.05 12.597 37.891 19.248 56.517 1.9562 8.143-1.9662 10.871-8.2662 13.183z"/><path id="path3804" fill="#d7c061" d="m637.08 436.88c-0.53545 4.3027 2.4468 7.2283 5.7777 7.0672 4.1132-0.1989 6.35-3.0024 6.0125-7.5359-1.4064 2.7095-3.3887 4.03-6.0655 4.0047-2.6213-0.0248-4.4329-1.0166-5.7247-3.536z"/><path id="path3806" fill="#d7c061" d="m623.81 447.71c0.14908 7.7387 2.0694 15.848 10.192 19.402 6.2329 2.7269 16.474 1.5175 24.022-0.39285l-0.14732-5.0223c-26.709 6.5423-31.556-9.7382-34.067-13.987z"/><path id="path4132" d="m633.57 358.25c0 12.057-6.8857 21.832-15.38 21.832-8.4939 0-15.38-9.7745-15.38-21.832 0-12.057 6.8857-21.832 15.38-21.832 8.4939 0 15.38 9.7745 15.38 21.832z" transform="matrix(.90310 .27655 -.22318 1.119 152.54 -221.45)" fill="#fff"/><path id="path4134" d="m659.25 364.42c0 3.8315-2.6583 6.9375-5.9375 6.9375s-5.9375-3.106-5.9375-6.9375 2.6583-6.9375 5.9375-6.9375 5.9375 3.106 5.9375 6.9375z" transform="matrix(.66737 -.50385 .60306 .94429 -3.8971 348.16)" fill="#fff"/><path id="path4136" d="m647.38 376.42c0 2.3127-1.567 4.1875-3.5 4.1875s-3.5-1.8748-3.5-4.1875 1.567-4.1875 3.5-4.1875 3.5 1.8748 3.5 4.1875z" transform="matrix(.44893 -.85203 .75930 .64531 68.248 679.93)" fill="#fff"/></g><g transform="translate(-3.7222 -91.55)"><path id="path3808" fill="#f46293" d="m92.5 263.08c3.2895 53.248 44.562 113.46 103.93 170.71 11.019 3.0291 18.976 6.8981 28.891 7.882 33.308 3.3052 62.985-5.7483 84.736-15.518 46.172-20.737 66.703-57.44 60.659-61.293l-4.4708-19.449-16.958-22.158c-21.331 7.1216-49.544 12.212-79.293 12.03-39.917-0.24458-82.885-8.9818-118.43-25.504-24.65-11.45-45.71-24.55-59.07-46.7z"/><path id="path3810" fill="#e24487" d="m92.934 263.69c5.4499 9.4507 15.83 21.49 33.305 32.763 21.863 14.105 53.833 27.153 89.69 34.071 38.73 7.4718 86.035 9.2222 132.83-6.9823-41.56-34.497-94.775-60.713-153.29-80.812-13.929-0.90045-33.54-4.4807-49.511-3.9421-28.135 0.94882-50.818 8.8369-53.019 24.903z"/><path id="path3812" fill="#f46293" d="m305.57 94.99c12.198 10.293 20.601 32.034 21.811 60.317 1.6844 39.373-9.3082 88.349-16.625 140.44l20.149 9.7109 73.912-25.103c4.73-76.6-34.55-175.06-99.25-185.37z"/><path id="path3814" fill="#e24487" d="m297.49 93.475c-3.0872 5.0129-7.5952 9.2186-10.024 14.592-24.966 55.241-15.25 128.2-12.957 168.25 1.1326-3.5835 35.284 23.429 35.947 19.178 6.0706-38.947 25.751-99.212 15.571-155.23-2.7839-15.319-9.6703-30.945-17.425-44.768z"/></g><g transform="translate(-3.7222 -91.55)" stroke="#bf1d61" stroke-miterlimit="100" fill="none"><path id="path3799" d="m275.41 275.62c-11.96-72.51 2.03-185.33 26.07-181.47 76.47 12.25 104.02 120.57 101.44 149.26" stroke-width="5"/><path id="path3801" d="m367.17 353.45c18.25-20.67-184.06-159.78-269.53-100.89-18 12.401 11.975 93.016 87.581 171.05 52.847 54.544 200.77-22.386 184.6-63.629z" stroke-width="5"/><path id="path3803" d="m92.5 260.93c17.416 46.892 148.71 98.104 255.55 63.066" stroke-width="4"/><path id="path3805" d="m305.08 94.61c41.751 39.526 16.157 144.32 5.9922 201.32" stroke-width="4"/></g><g transform="translate(-3.7222 -91.55)"><path id="path3949" fill="#fff" d="m450.15 400.72c1.1038-4.6809 2.6604-9.8017 4.1426-13.803 11.282-30.456 36.369-41.169 58.367-40.669 32.351 0.73534 59.384 26.625 64.517 53.81 9.1221 48.31-29.768 73.943-58.715 71.973-36.367-2.4749-50.597-18.82-58.682-31.641-11.293-17.908-11.2-33.011-9.63-39.671z"/><path id="path3951" d="m512.68 347.01c-41.689 28.51-22.36 62.499-10.492 71.311 30.736 22.823 64.618 7.3685 74.289-21.853 0.82525 3.6657 1.3324 6.975 1.694 10.42 0.045 0.45853 0.0933 0.93675 0.12761 1.4098 0.0284 0.39122 0.0647 0.81174 0.0914 1.2409 0.0779 1.2508 0.13364 2.605 0.14144 3.7552 0.0232 0.29629 0.0439 0.57252 0.01 0.85035-0.11633 0.95454-0.76293 1.8179-1.1602 2.5225-15.985 28.345-57.958 37.944-84.879 16.414-28.234-22.58-23.901-51.661-12.935-69.832 4.348-7.2047 10.258-11.747 15.614-15.883z" fill="url(#linearGradient3959)"/><path id="path3968" d="m513.92 346.87c-11.27 2.5504-18.569 11.66-23.058 21.448-1.7217 3.7539-3.0786 6.7786-3.7938 11.008-0.2794 1.6523 0.18898 3.3923-0.005 5.2759-0.13656 1.326-0.29242 2.8133-0.22031 3.9996 0.39187 6.4468 1.819 13.21 5.0025 19.141 8.4759 15.789 25.416 23.176 42.16 22.563 19.683-0.72088 40.134-16.318 43.169-30.185 0.0338-0.15418 0.0162-0.33251 0.008-0.4602-0.0133-0.20416-0.0377-0.34834-0.0529-0.58101 0.0166-0.83731-0.11084-1.7898-0.17622-2.787-0.0626-0.95498 0.0799-1.9663-0.024-2.6775-8.0828-24.888-34.695-53.151-63.008-46.744z"/><path id="path4000" d="m523.68 378.59c0 16.458-10.928 29.8-24.409 29.8s-24.409-13.342-24.409-29.8 10.928-29.8 24.409-29.8 24.409 13.342 24.409 29.8z" transform="matrix(.97312 .43383 -.47635 1.0916 208.33 -250.54)" fill="#fff"/><path id="path4003" d="m569.73 387.09c0 4.1914-3.7176 7.5893-8.3036 7.5893-4.5859 0-8.3036-3.3978-8.3036-7.5893 0-4.1914 3.7176-7.5893 8.3036-7.5893 4.5859 0 8.3036 3.3978 8.3036 7.5893z" transform="matrix(.78462 -.42609 .78612 .96445 -184.59 250.66)" fill="#fff"/></g><g transform="translate(-3.7222 -91.55)"><path id="path3816" d="m511.15 344.03c-33.794 1.3751-57.873 17.545-63.969 59.192l4.2455-1.7187c6.3598-37.763 30.776-51.149 60.156-51.759 24.234-0.50274 40.934 9.9327 51.683 22.933 10.089 12.202 13.597 26.67 13.902 27.416 1.4414-33.098-37.575-57.751-66.019-56.064z"/><path id="path3850" d="m449.34 396.41c-14.04 9.5189-17.969 7.0919-24.92 6.0714 7.1968 6.5136 16.142 6.7464 26.999-0.9726z"/><path id="path3898" d="m431.07 366.69c0.12718 12.114 12.498 19.285 23.197 17.914l1.4246-6.6102c-15.299 3.7481-21.206-6.7801-24.621-11.304z"/><path id="path3913" d="m450.99 347.12c-0.56137 12.634 5.0121 18.338 13.763 21.562l3.44-5.68c-11.846-3.349-13.557-6.6151-17.205-15.875z"/><path id="path3917" d="m634.4 317.85c-32.439 9.8911-24.433 73.081-5.9055 90.395 0.0971 0.0907 0.21791 0.25968 0.31558 0.34788-0.48983-0.73768-1.2-1.8126-1.8308-2.8484-10.537-17.303-19.5-73.409 6.6956-81.655 5.4563-0.52698 10.076-0.97929 13.35 1.6478 6.4291 5.1585 8.7928 16.53 9.5636 22.476l3.4164-0.10708c-0.65799-6.6439-3.4858-19.936-9.9097-26.814-3.7508-4.0161-8.3053-3.76-15.695-3.4427z"/><path id="path3921" d="m641.35 321.07 7.9491 2.9276c11.734-22.771 6.7741-27.991 5.4438-31.238 0.85025 4.3705-5.6095 21.818-13.393 28.311z"/><path id="path3923" d="m653.04 328.75 2.0268 4.9107c12.869-1.4833 22.522-15.448 19.781-25.062-3.4161 9.3166-9.4547 16.997-21.808 20.151z"/><path id="path3925" d="m658.16 342.08 0.98386 5.9956c8.93 0.41862 20.758-1.0413 23.052-9.8527-8.8916 4.5854-13.828 7.1961-24.036 3.8571z"/><path id="path4005" d="m549.91 404.1c0 2.8847-3.3978 5.2232-7.5893 5.2232-4.1914 0-7.5893-2.3385-7.5893-5.2232s3.3978-5.2232 7.5893-5.2232c4.1914 0 7.5893 2.3385 7.5893 5.2232z" transform="matrix(0.627 .63155 -.70907 .59521 488.11 -179.68)" fill="#fff"/></g><g transform="translate(-3.7222 -91.55)" fill="#f73656"><path id="path3910" d="m361.43 293.43-5 27.5c17.224-10.143 46.385-19.472 76.109-17.174 32.436 2.5072 66.031 17.439 70.32-4.9687l-5.7143-13.571c10.07 2.1859 15.888 4.5458 26.88 9.0738 25.105 10.342 36.902 18.475 49.282 23.924 50.459 22.206 77.438 9.6456 71.345-25.56-1.8979-10.967-8.8922-23.703-16.792-39.58 7.3925 1.9342 15.053 4.5296 18.046 2.767 11.009-6.4816-3.936-32.603-31.94-52.28-16.35-11.488-40.324-20.05-55.715-20.517-20.442-0.6196-43.446-5.4077-64.479 1.5771-13.483 4.4776-26.779 9.0791-39.007 15.813-25.281 13.923-47.168 33.454-64.909 55.271-10.381 12.766-21.006 25.623-28.425 37.725z"/><path id="path4051" d="m391.43 402.33c8.3096 27.808-2.6888 67.26-10.461 107.32-2.3231 11.972-1.0708 25.392-1.1554 36.63 41.463 103.89 168.48 74.086 114.65 3.0305-20.119-23.354-38.83-34.004-63.216-43.61l21.284 9.7339c8.4858-2.5431 16.714-4.3908 18.545-20.999-17.085-16.415-32.261-28.075-51.882-52.947-8.417-16.284-16.307-30.584-18.17-42.186z"/></g><g transform="translate(-3.7222 -91.55)"><path id="path3858" d="m360 295.93c31.24-40.662 51.713-68.332 82.898-88.508 67.098-43.411 135.19-27.588 172.44-3.0768 39.334 25.885 46.781 65.625 10.109 47.924" stroke="#c40f42" stroke-miterlimit="100" stroke-width="5" fill="none"/><path id="path3860" fill="#c40f42" d="m469.77 268.68c9.3163 5.3818 31.72 18.522 29.791 31.616-0.35112 2.3839-2.0909 4.7847-5.9959 6.5204-2.9788 1.1639-7.0784 1.5171-12 1.2188-9.8432-0.59671-22.828-3.6843-36.938-5.7812-28.448-4.2279-67.676 3.0563-95.844 19l2.4375 4.3438c26.985-15.274 65.725-22.409 92.656-18.406 13.836 2.0564 26.778 5.2014 37.375 5.8438 5.2984 0.3212 10.063 0.0247 14.125-1.5625 9.5205-4.3152 12.146-15.133 7.2188-23.188-2.5831-4.0964-6.0753-7.0739-10.119-10.31-8.9806-7.1876-21.059-10.139-22.708-9.2947z"/><path id="path3862" fill="#c40f42" d="m596.99 219.02c10.564 14.923 18.305 23.443 26.791 35.657 9.6353 13.868 19.327 31.418 18.91 49.04-0.28706 6.4327-2.3253 11.453-6.1875 15.031-7.7243 7.1559-17.628 8.8614-29.312 7.25-11.685-1.6114-24.895-6.6767-38.188-12.781-13.293-6.1045-26.691-13.228-38.938-18.938-12.246-5.7098-23.271-10.091-32.469-10.344l-0.15625 5c7.6625 0.21033 18.469 4.251 30.531 9.875s25.459 12.779 38.938 18.969 27.026 11.423 39.594 13.156c12.567 1.7332 25.412-0.0285 34.467-8.3545 5.0359-4.6307 8.3253-9.5407 8.1348-16.67 0.15981-12.152-3.5995-24.932-9.3891-36.799-3.0074-6.1645-7.6094-13.378-11.457-18.362-12.442-16.118-25.071-29.169-31.269-31.729z"/><path id="path3907" d="m420 225.22c74.76-26.747 171.91-11.061 224.29 74.643" stroke="#c40f42" stroke-miterlimit="100" stroke-width="3" fill="none"/><path id="path3905" d="m395.36 252.01c115.48-51.492 194.55 52.791 189.29 70.714" stroke="#c40f42" stroke-miterlimit="100" stroke-width="3" fill="none"/><path id="path3970" fill="#c40f42" d="m394.59 400.78-4.9062 1.0312c5.9678 27.872 0.37553 53.842-5.2812 78.562-5.6543 24.71-11.447 48.225-4.75 70.906 0.003 0.009-0.003 0.0219 0 0.0312 4.608 16.004 16.66 31.412 30.875 43.281 14.223 11.876 30.6 20.266 44.562 21.625 25.238 2.4574 41.807-3.9655 49.812-15.531 8.0052-11.566 7.0607-29.46-1.155-44.816-4.8553-9.0747-13.14-18.947-24.446-27.426-17.59-13.19-40.73-23.38-55.79-24.68-0.29724-0.52764 29.725 12.232 52.651 29.823 10.506 8.0611 18.525 17.336 23.224 26.458 7.5162 14.329 8.0961 28.192 1.4375 37.812-6.6586 9.6202-21.014 15.732-45.219 13.375-12.32-1.2-28.19-9.08-41.84-20.47s-25.09-26.26-29.28-40.84v-0.0312c-6.2175-21.023-0.85254-43.649 4.8125-68.406s11.547-51.568 5.3125-80.688z"/><path id="path3972" fill="#c40f42" d="m405.34 400.25-4.9688 0.625c5.5698 44.225 45.131 72.6 63.656 89.406 2.9287 2.6568 4.1616 5.2941 4.4062 7.7188 0.24469 2.4246-0.49103 4.7484-2.0938 6.8438-3.2054 4.1908-10.597 8.1607-18.194 6.7914l-0.21177 3.8961c9.3076 1.6775 17.856-1.7171 22.375-7.625 2.2594-2.954 3.5076-6.6151 3.125-10.406-0.3826-3.7911-2.3804-7.5943-6.0312-10.906-19.042-17.274-56.829-44.787-62.062-86.344z"/><path id="path3974" d="m387.14 482.72c29.989 47.971 79.076 84.729 117.5 81.964" stroke="#c40f42" stroke-miterlimit="100" stroke-width="3" fill="none"/><path id="path3976" d="m382.86 500.22c19.7 32.03 53.55 92.5 119.64 100.36" stroke="#c40f42" stroke-miterlimit="100" stroke-width="3" fill="none"/></g><g transform="translate(-3.7222 -91.55)"><path id="path3855" fill="#f7f68e" d="m408.81 405.93c-60.032-1.9293-93.017-59.584-90.01-99.461 1.3709-18.177 8.4244-33.151 15.49-43.753 33.844 3.4488 46.415 39.048 69.617 56.71z"/></g><g transform="translate(-3.7222 -91.55)" fill="#d7c061"><path id="path3813" d="m325.6 269.1c-32.354 58.464 22.05 142.25 84.584 136.59-35.349-1.6197-114.52-59.166-78.41-134.28 9.0149-18.752 58.891 35.038 62.882 41.798 0.68669-3.2896-10.385-22.237-21.153-32.518-16.639-15.888-36.744-31.759-47.904-11.592z"/><path id="path3815" d="m332 305.6c-6.0005 11.767 21.891 54.159 41.394 49.503-28.767-10.248-39.787-42.745-41.394-49.503z"/></g></svg>