<?xml version="1.0" encoding="UTF-8" standalone="no"?>
<!-- Created with Inkscape (http://www.inkscape.org/) -->

<svg
   xmlns:dc="http://purl.org/dc/elements/1.1/"
   xmlns:cc="http://creativecommons.org/ns#"
   xmlns:rdf="http://www.w3.org/1999/02/22-rdf-syntax-ns#"
   xmlns:svg="http://www.w3.org/2000/svg"
   xmlns="http://www.w3.org/2000/svg"
   xmlns:xlink="http://www.w3.org/1999/xlink"
   xmlns:sodipodi="http://sodipodi.sourceforge.net/DTD/sodipodi-0.dtd"
   xmlns:inkscape="http://www.inkscape.org/namespaces/inkscape"
   width="5764.0972"
   height="5764.0957"
   id="svg2"
   version="1.1"
   inkscape:version="0.48.4 r9939"
   sodipodi:docname="Babs Seed.svg">
  <title
     id="title3797">Babs Seed</title>
  <defs
     id="defs4">
    <linearGradient
       id="linearGradient3960">
      <stop
         style="stop-color:#cef879;stop-opacity:1;"
         offset="0"
         id="stop3962" />
      <stop
         id="stop4015"
         offset="0.5"
         style="stop-color:#7cc439;stop-opacity:1;" />
      <stop
         style="stop-color:#557a3e;stop-opacity:1;"
         offset="1"
         id="stop3964" />
    </linearGradient>
    <clipPath
       clipPathUnits="userSpaceOnUse"
       id="clipPath3928">
      <path
         inkscape:connector-curvature="0"
         style="opacity:0.5;color:#000000;fill:#00ff00;fill-opacity:1;fill-rule:nonzero;stroke:#ff0000;stroke-width:1.02121603;stroke-miterlimit:4;stroke-opacity:1;stroke-dasharray:none;marker:none;visibility:visible;display:inline;overflow:visible;enable-background:accumulate"
         d="m 3303.1836,2019.0526 c 54.9816,275.4277 -114.0437,537.6072 -377.5285,585.5941 -263.4849,47.9869 -521.653,-136.3904 -576.6346,-411.8183 -54.9817,-275.4278 114.0436,-537.6074 377.5285,-585.5942 263.4848,-47.9869 521.653,136.3904 576.6346,411.8184 z"
         id="path3930" />
    </clipPath>
    <clipPath
       clipPathUnits="userSpaceOnUse"
       id="clipPath3932">
      <path
         inkscape:connector-curvature="0"
         style="opacity:0.5;color:#000000;fill:#00ff00;fill-opacity:1;fill-rule:nonzero;stroke:#ff0000;stroke-width:0.99864405;stroke-miterlimit:4;stroke-opacity:1;stroke-dasharray:none;marker:none;visibility:visible;display:inline;overflow:visible;enable-background:accumulate"
         d="m 3300.719,2012.819 c 72.4857,268.7915 -70.8846,541.4953 -320.2266,609.1009 -249.3421,67.6055 -510.2351,-95.488 -582.7209,-364.2795 -72.4858,-268.7916 70.8845,-541.4955 320.2266,-609.101 249.342,-67.6056 510.2351,95.4879 582.7209,364.2796 z"
         id="path3934" />
    </clipPath>
    <clipPath
       clipPathUnits="userSpaceOnUse"
       id="clipPath3936">
      <path
         inkscape:connector-curvature="0"
         style="opacity:0.5;color:#000000;fill:#00ff00;fill-opacity:1;fill-rule:nonzero;stroke:#ff0000;stroke-width:1;stroke-miterlimit:4;stroke-opacity:1;stroke-dasharray:none;marker:none;visibility:visible;display:inline;overflow:visible;enable-background:accumulate"
         d="m 3253.1397,1981.0663 c 72.4857,269.5219 -70.8846,542.9667 -320.2266,610.756 -249.3421,67.7893 -510.2351,-95.7474 -582.7209,-365.2694 -72.4858,-269.522 70.8845,-542.9669 320.2266,-610.7561 249.342,-67.7893 510.2351,95.7474 582.7209,365.2695 z"
         id="path3938" />
    </clipPath>
    <clipPath
       clipPathUnits="userSpaceOnUse"
       id="clipPath3940">
      <path
         style="opacity:0.5;fill:#00ff00;fill-opacity:1;stroke:#ff0000;stroke-width:1.0054841px;stroke-linecap:butt;stroke-linejoin:miter;stroke-opacity:1"
         d="m 3768.7262,2194.6933 c -9.3124,-129.7208 -12.2871,-303.8724 56.7464,-441.468 48.322,-103.0074 184.1939,-212.6668 234.4009,-31.8208 34.5423,124.422 27.3393,395.6895 -43.0392,585.9766 -91.7823,0.1569 -179.9227,-14.8158 -248.1081,-112.6878 z"
         id="path3942"
         inkscape:connector-curvature="0"
         sodipodi:nodetypes="ccscc" />
    </clipPath>
    <clipPath
       clipPathUnits="userSpaceOnUse"
       id="clipPath3944">
      <path
         style="opacity:0.5;fill:#00ff00;fill-opacity:1;stroke:#ff0000;stroke-width:0.98145479px;stroke-linecap:butt;stroke-linejoin:miter;stroke-opacity:1"
         d="m 3687.7964,2222.7988 c -20.9412,-128.3265 -40.017,-301.4534 12.627,-444.5872 36.225,-106.8548 154.8804,-228.118 219.3864,-52.526 44.3801,120.8072 62.8654,391.5311 13.8633,587.246 -87.0515,8.318 -172.0603,1.2486 -245.8767,-90.1328 z"
         id="path3946"
         inkscape:connector-curvature="0"
         sodipodi:nodetypes="ccscc" />
    </clipPath>
    <clipPath
       clipPathUnits="userSpaceOnUse"
       id="clipPath3948">
      <path
         style="opacity:0.5;fill:#00ff00;fill-opacity:1;stroke:#ff0000;stroke-width:1px;stroke-linecap:butt;stroke-linejoin:miter;stroke-opacity:1"
         d="m 3728.7145,2213.8255 c -9.2111,-129.7208 -12.1534,-316.5293 56.1291,-454.1249 47.7963,-103.0074 182.1901,-212.6668 231.8509,-31.8208 34.1666,124.422 27.0419,395.6895 -42.571,585.9766 -90.7838,0.1569 -177.9654,-2.1589 -245.409,-100.0309 z"
         id="path3950"
         inkscape:connector-curvature="0"
         sodipodi:nodetypes="ccscc" />
    </clipPath>
    <linearGradient
       inkscape:collect="always"
       xlink:href="#linearGradient3960"
       id="linearGradient3966"
       x1="3109.1809"
       y1="2507.2148"
       x2="3109.1809"
       y2="1787.9379"
       gradientUnits="userSpaceOnUse" />
    <linearGradient
       inkscape:collect="always"
       xlink:href="#linearGradient3960"
       id="linearGradient3968"
       x1="3900.9111"
       y1="2296.7805"
       x2="3847.7495"
       y2="1729.6766"
       gradientUnits="userSpaceOnUse" />
  </defs>
  <sodipodi:namedview
     id="base"
     pagecolor="#ffffff"
     bordercolor="#666666"
     borderopacity="1.0"
     inkscape:pageopacity="0.0"
     inkscape:pageshadow="2"
     inkscape:zoom="0.088388348"
     inkscape:cx="2839.7638"
     inkscape:cy="2895.5202"
     inkscape:document-units="px"
     inkscape:current-layer="layer2"
     showgrid="false"
     fit-margin-top="0"
     fit-margin-left="651.44"
     fit-margin-right="651.44"
     fit-margin-bottom="0"
     inkscape:window-width="1280"
     inkscape:window-height="1002"
     inkscape:window-x="-8"
     inkscape:window-y="-2"
     inkscape:window-maximized="1"
     showguides="true"
     inkscape:guide-bbox="true"
     inkscape:object-nodes="false" />
  <metadata
     id="metadata7">
    <rdf:RDF>
      <cc:Work
         rdf:about="">
        <dc:format>image/svg+xml</dc:format>
        <dc:type
           rdf:resource="http://purl.org/dc/dcmitype/StillImage" />
        <dc:title>Babs Seed</dc:title>
      </cc:Work>
    </rdf:RDF>
  </metadata>
  <g
     inkscape:groupmode="layer"
     id="layer13"
     inkscape:label="Background"
     sodipodi:insensitive="true"
     style="display:none"
     transform="translate(559.16163,-71.388849)">
    <rect
       style="color:#000000;fill:#000000;fill-opacity:1;fill-rule:nonzero;stroke:#00ff00;stroke-width:1;stroke-linecap:butt;stroke-linejoin:miter;stroke-miterlimit:4;stroke-opacity:1;stroke-dasharray:none;stroke-dashoffset:0;marker:none;visibility:visible;display:inline;overflow:visible;enable-background:accumulate"
       id="rect4096"
       width="4768"
       height="6176"
       x="-64"
       y="-79.999985" />
  </g>
  <g
     inkscape:groupmode="layer"
     id="layer2"
     inkscape:label="Shadow"
     style="opacity:0.2;display:none"
     sodipodi:insensitive="true"
     transform="translate(559.16163,-71.388849)">
    <path
       sodipodi:type="arc"
       style="color:#000000;fill:#000000;fill-opacity:1;fill-rule:nonzero;stroke:none;stroke-width:1px;marker:none;visibility:visible;display:inline;overflow:visible;enable-background:accumulate"
       id="path3765"
       sodipodi:cx="2373.9565"
       sodipodi:cy="5654.4238"
       sodipodi:rx="1752.9215"
       sodipodi:ry="255.4257"
       d="m 4126.8781,5654.4238 c 0,141.0677 -784.8097,255.4257 -1752.9216,255.4257 -968.1118,0 -1752.92147,-114.358 -1752.92147,-255.4257 0,-141.0677 784.80967,-255.4257 1752.92147,-255.4257 968.1119,0 1752.9216,114.358 1752.9216,255.4257 z"
       transform="matrix(1.0114286,0,0,1,-117.28118,30.050083)" />
  </g>
  <g
     inkscape:groupmode="layer"
     id="layer3"
     inkscape:label="Rear Legs"
     sodipodi:insensitive="true"
     style="display:inline"
     transform="translate(559.16163,-71.388849)">
    <path
       style="fill:#c38f36;fill-opacity:1;stroke:none"
       d="m 2556.917,4388.6465 251.442,-329.3536 c 102.3605,24.7738 199.7859,28.8205 269.1491,-84.9945 111.9537,-87.3852 201.2881,-39.0542 286.8564,31.873 278.4527,470.2888 376.9271,908.0513 102.7016,1278.4585 -75.5836,91.8353 -162.9218,97.4704 -258.5248,42.4972 -131.8666,-72.989 -240.5925,-175.2253 -322.2707,-311.6464 -44.3311,-77.9116 -72.9745,-155.8232 -24.7901,-233.7348 61.5555,-58.6187 104.0853,-129.9211 146.032,-201.6123 -243.8044,85.9404 -373.1839,-11.199 -450.5955,-191.4871 z"
       id="path3801"
       inkscape:connector-curvature="0"
       sodipodi:nodetypes="cccccccccc" />
    <path
       style="fill:none;stroke:#a9781e;stroke-width:59;stroke-linecap:butt;stroke-linejoin:miter;stroke-miterlimit:4;stroke-opacity:1;stroke-dasharray:none"
       d="m 2801.2761,4054.5363 c 94.6993,23.0641 184.8668,39.0438 283.3149,-73.155 110.5922,-126.039 227.9985,-35.637 286.8564,46.0387 231.8616,321.7489 349.6273,865.8612 145.1988,1189.9225 -96.486,152.9502 -205.3329,155.0519 -293.9392,116.8675 -178.1337,-76.7656 -287.7605,-239.7407 -347.0607,-336.4365 -56.299,-91.8021 -55.8974,-166.5031 0,-230.1933 10.1749,-11.5934 19.9315,-23.1266 29.267,-34.6337"
       id="path3768"
       inkscape:connector-curvature="0"
       sodipodi:nodetypes="cssssssc" />
    <path
       style="fill:none;stroke:#a9781e;stroke-width:59;stroke-linecap:butt;stroke-linejoin:miter;stroke-miterlimit:4;stroke-opacity:1;stroke-dasharray:none"
       d="m 3010.0167,4570.1169 c -161.6849,71.7556 -358.7068,52.4606 -450.7513,-190.3172"
       id="path3773"
       inkscape:connector-curvature="0"
       sodipodi:nodetypes="cc" />
    <path
       style="font-size:medium;font-style:normal;font-variant:normal;font-weight:normal;font-stretch:normal;text-indent:0;text-align:start;text-decoration:none;line-height:normal;letter-spacing:normal;word-spacing:normal;text-transform:none;direction:ltr;block-progression:tb;writing-mode:lr-tb;text-anchor:start;baseline-shift:baseline;color:#000000;fill:#a9781e;fill-opacity:1;stroke:none;stroke-width:59;marker:none;visibility:visible;display:inline;overflow:visible;enable-background:accumulate;font-family:Sans;-inkscape-font-specification:Sans"
       d="m 2882,4714.375 c -9.0758,11.187 -18.5874,22.4198 -28.5312,33.75 l 44.3437,38.9062 c 10.4059,-11.8566 20.4048,-23.6727 30,-35.5 98.5546,-121.4799 183.8778,-294.6676 133.3143,-408.0452 -2.754,118.5865 -85.9068,255.9846 -179.1268,370.889 z"
       id="path3768-1"
       inkscape:connector-curvature="0"
       sodipodi:nodetypes="sccscs" />
    <path
       style="fill:#c38f36;fill-opacity:1;stroke:#a9781e;stroke-width:59;stroke-linecap:butt;stroke-linejoin:miter;stroke-miterlimit:4;stroke-opacity:1;stroke-dasharray:none"
       d="m 1477.4624,5549.2487 c 212.0201,67.8524 514.1904,68.0911 711.1854,25.0418 l -90.1503,-1307.1786 -726.2104,-30.0501 z"
       id="path3799"
       inkscape:connector-curvature="0"
       sodipodi:nodetypes="ccccc" />
  </g>
  <g
     inkscape:groupmode="layer"
     id="layer5"
     inkscape:label="Tail"
     style="display:inline"
     sodipodi:insensitive="true"
     transform="translate(559.16163,-71.388849)">
    <path
       style="fill:#e22c5e;fill-opacity:1;stroke:none;display:inline"
       d="M 1211.1712,3071.2322 C 1019.3316,2508.597 520.14416,2449.9222 191.23756,2745.42 c 146.37937,-18.9051 275.05155,-10.2312 421.43092,42.4973 -697.362164,318.2376 -495.56901,897.8376 -332.89501,1324.4972 105.53267,-274.4302 253.2849,-648.4178 637.45853,-733.0774 z"
       id="path3804-7"
       inkscape:connector-curvature="0"
       sodipodi:nodetypes="cccccc" />
    <path
       style="fill:#ee688a;fill-opacity:1;stroke:none"
       d="m 1191.9866,3045.0751 c -130.2258,-200.8962 -335.24577,-315.7456 -550.91815,-249.1652 -208.27261,62.2195 -276.55227,161.7006 -373.12187,258.0188 173.15675,-129.8911 421.80102,-133.5802 611.01836,-68.9537 -3.96174,-41.3993 -8.54076,-78.4254 -25.04173,-115.192 113.85042,35.8833 202.51269,115.0356 273.99219,212.1213 z m -172.0529,155.4195 c -244.97047,-137.7467 -658.05398,-177.6223 -887.12984,191.2376 -12.21821,114.4357 4.04183,217.4801 24.79006,318.7292 174.75441,-366.7151 559.52828,-559.3115 800.3646,-446.2209 z"
       id="path3806"
       inkscape:connector-curvature="0"
       sodipodi:nodetypes="cccccccccccc" />
    <path
       style="fill:none;stroke:#ae243c;stroke-width:59;stroke-linecap:butt;stroke-linejoin:miter;stroke-miterlimit:9;stroke-opacity:1;stroke-dasharray:none"
       d="M 1211.1712,3071.2322 C 1019.3316,2508.597 520.14416,2449.9222 191.23756,2745.42 c 146.37937,-18.9051 275.05155,-10.2312 421.43092,42.4973 -697.362164,318.2376 -495.56901,897.8376 -332.89501,1324.4972 105.53267,-274.4302 253.2849,-648.4178 637.45853,-733.0774 z"
       id="path3804"
       inkscape:connector-curvature="0"
       sodipodi:nodetypes="cccccc" />
  </g>
  <g
     inkscape:groupmode="layer"
     id="layer4"
     inkscape:label="Body + Forward Legs"
     style="display:inline"
     sodipodi:insensitive="true"
     transform="translate(559.16163,-71.388849)">
    <path
       style="fill:#d89f48;fill-opacity:1;stroke:none"
       d="m 1462.6132,4494.8896 53.1215,-1505.1105 177.0719,-407.2651 1278.4585,407.2651 c 32.1473,207.7643 62.29,479.2744 42.4972,704.7459 1.8379,386.9729 -128.932,717.1138 -587.8784,906.6077 l -524.1326,31.8729 c -146.3794,-28.8265 -292.7587,-62.7587 -439.1381,-138.116 z"
       id="path3858"
       inkscape:connector-curvature="0"
       sodipodi:nodetypes="cccccccc" />
    <path
       style="fill:none;stroke:#a9781e;stroke-width:59;stroke-linecap:butt;stroke-linejoin:miter;stroke-miterlimit:4;stroke-opacity:1;stroke-dasharray:none"
       d="m 2974.9583,3015.025 c 92.3137,793.3991 90.3423,1340.4992 -556.8769,1562.336"
       id="path3771"
       inkscape:connector-curvature="0"
       sodipodi:nodetypes="cc" />
    <path
       style="fill:#d89f48;fill-opacity:1;stroke:#a9781e;stroke-width:59;stroke-linecap:butt;stroke-linejoin:miter;stroke-miterlimit:4;stroke-opacity:1;stroke-dasharray:none"
       d="m 1687.8131,3027.546 c -378.4397,-129.6136 -791.51938,41.6955 -841.40242,413.1886 -46.8973,349.2575 128.90451,686.8396 282.97162,981.636 -103.9764,-25.8414 -219.04418,8.8549 -222.87145,175.2922 -6.48916,282.1952 3.59825,608.5007 55.09182,891.4858 15.30393,84.1034 80.72323,162.3573 175.29213,190.3172 177.2382,52.4017 353.1909,73.0232 530.8848,65.1085 121.7968,-5.425 153.8288,-40.3862 91.6172,-170.2838 -156.4694,-326.7073 -285.1049,-662.8274 -241.8676,-1056.7613"
       id="path3826"
       inkscape:connector-curvature="0"
       sodipodi:nodetypes="cscsssssc" />
    <path
       style="font-size:medium;font-style:normal;font-variant:normal;font-weight:normal;font-stretch:normal;text-indent:0;text-align:start;text-decoration:none;line-height:normal;letter-spacing:normal;word-spacing:normal;text-transform:none;direction:ltr;block-progression:tb;writing-mode:lr-tb;text-anchor:start;baseline-shift:baseline;color:#000000;fill:#a9781e;fill-opacity:1;stroke:none;stroke-width:59;marker:none;visibility:visible;display:inline;overflow:visible;enable-background:accumulate;font-family:Sans;-inkscape-font-specification:Sans"
       d="m 1229.029,3965.3515 c -64.097,316.381 101.9109,481.3564 245.971,569.0547 144.0601,87.6984 313.9758,99.9954 445.7812,111.9063 l 5.3126,-58.75 C 1793.701,4575.5986 1634.0118,4562.119 1505.6875,4484 1377.3632,4405.881 1245.5468,4275.0139 1229.029,3965.3515 z"
       id="path3828"
       inkscape:connector-curvature="0"
       sodipodi:nodetypes="csccsc" />
    <path
       style="fill:#d89f48;fill-opacity:1;stroke:#a9781e;stroke-width:59;stroke-linecap:butt;stroke-linejoin:miter;stroke-miterlimit:4;stroke-opacity:1;stroke-dasharray:none"
       d="m 2410.9515,4542.6377 c 0.9626,8.1887 1.9795,16.407 3.0501,24.6527 42.7647,329.4 171.0604,702.6797 338.0852,991.975 47.3477,82.0087 136.3144,202.0208 -57.596,225.3757 -171.1085,20.6086 -344.5443,30.6229 -515.8597,10.0167 -102.8342,-12.3691 -187.2532,-52.9749 -207.8464,-182.8047 -54.8145,-345.5786 -66.1512,-679.7846 -70.2352,-1016.7538 -0.071,-5.8688 -0.14,-11.7384 -0.2069,-17.6089"
       id="path3830"
       inkscape:connector-curvature="0"
       sodipodi:nodetypes="cssssssc" />
    <path
       style="font-size:medium;font-style:normal;font-variant:normal;font-weight:normal;font-stretch:normal;text-indent:0;text-align:start;text-decoration:none;line-height:normal;letter-spacing:normal;word-spacing:normal;text-transform:none;direction:ltr;block-progression:tb;writing-mode:lr-tb;text-anchor:start;baseline-shift:baseline;color:#000000;fill:#a9781e;fill-opacity:1;stroke:none;stroke-width:59;marker:none;visibility:visible;display:inline;overflow:visible;enable-background:accumulate;font-family:Sans;-inkscape-font-specification:Sans"
       d="m 2381.6562,4546.0938 c 0.9767,8.3082 2.0081,16.6376 3.0938,25 l 58.5,-7.5938 c -1.0555,-8.1291 -2.0515,-16.2434 -3,-24.3125 -9.2993,-79.1094 -41.7425,-181.7801 -55.344,-253.4391 -20.6844,68.2277 -12.8249,178.8895 -3.2498,260.3454 z m -473.9604,-236.0551 c -33.0416,65.7342 -37.8012,184.5059 -36.852,267.7738 0.067,5.8776 0.1476,11.7807 0.2187,17.6563 l 59,-0.7188 c -0.071,-5.8621 -0.1519,-11.7303 -0.2187,-17.5938 -0.9471,-83.0762 -12.1256,-198.2771 -22.148,-267.1175 z"
       id="path3830-4"
       inkscape:connector-curvature="0"
       sodipodi:nodetypes="sccscscsccsc" />
  </g>
  <g
     inkscape:groupmode="layer"
     id="layer6"
     inkscape:label="Rear Mane"
     style="display:inline"
     sodipodi:insensitive="true"
     transform="translate(559.16163,-71.388849)">
    <path
       style="fill:#d44671;fill-opacity:1;stroke:none"
       d="m 3700.8009,875.54167 343.5194,984.51933 c 147.0397,134.1229 240.713,291.1172 322.2707,453.3038 152.8048,-213.8075 132.478,-464.7147 162.906,-704.7458 -179.3166,-545.3071 -470.1975,-744.17761 -828.6961,-733.07733 z"
       id="path3865"
       inkscape:connector-curvature="0"
       sodipodi:nodetypes="ccccc" />
    <path
       style="fill:#cc2254;fill-opacity:1;stroke:none"
       d="m 3835.3755,864.91736 c 231.5282,269.24864 427.1088,611.44644 226.6519,966.81214 l -570.1712,-825.1547 z"
       id="path3863"
       inkscape:connector-curvature="0"
       sodipodi:nodetypes="cccc" />
    <path
       style="fill:none;stroke:#ae243c;stroke-width:59;stroke-linecap:butt;stroke-linejoin:miter;stroke-miterlimit:4;stroke-opacity:1;stroke-dasharray:none"
       d="m 3945.16,418.69639 c 282.2473,222.38114 460.4196,548.30904 536.3882,883.85371 82.6006,364.838 44.3738,741.0452 -112.2751,1007.8809 -103.9415,-223.8185 -248.4476,-440.0107 -523.2733,-553.0717"
       id="path3861"
       inkscape:connector-curvature="0"
       sodipodi:nodetypes="cscc" />
  </g>
  <!--S(i)g(m)a-->
  <g
     inkscape:groupmode="layer"
     id="layer7"
     inkscape:label="Head"
     style="display:inline"
     sodipodi:insensitive="true"
     transform="translate(559.16163,-71.388849)">
    <path
       style="fill:#d89f48;fill-opacity:1;stroke:none"
       d="m 3565.9432,891.48581 c 321.9845,333.72109 647.245,664.88819 425.7096,1422.37059 61.9687,13.9961 114.8002,39.9848 102.2476,151.7902 -17.1338,77.1696 -44.4388,151.7963 -99.1603,219.569 -67.8526,70.7732 -144.6569,90.8204 -226.6519,81.4531 -102.5963,-14.3081 -202.8916,-18.8374 -286.8563,46.0386 l -56.663,166.4475 371.8508,-21.2486 c -200.864,184.1058 -459.5132,165.9633 -711.8287,169.989 -215.1753,2.8652 -430.3506,-54.6383 -645.5259,-102.8535 l -681.1352,-80.1335 -75.1252,-1111.8531 250.4173,-826.3773 C 2469.081,708.4564 3016.948,782.48528 3565.9432,891.48581 z"
       id="path3880"
       inkscape:connector-curvature="0"
       sodipodi:nodetypes="cccccccccccccc" />
    <path
       style="fill:#c53474;stroke:none"
       d="m 3753.7563,2762.1035 c -31.2501,42.9883 -51.0034,129.7997 -47.5793,194.0735 -90.1503,5.7969 -189.0651,6.562 -279.2154,31.3021 6.8604,-80.1647 21.6469,-158.1953 113.9399,-215.3589 z"
       id="path3878"
       inkscape:connector-curvature="0"
       sodipodi:nodetypes="ccccc" />
    <path
       style="fill:#f67033;stroke:none"
       d="m 3434.4741,2926.1269 c 67.1311,-15.7953 158.6614,-28.024 191.5693,26.2938 l -191.5693,21.2855 z"
       id="path3876"
       inkscape:connector-curvature="0"
       sodipodi:nodetypes="cccc" />
    <path
       style="font-size:medium;font-style:normal;font-variant:normal;font-weight:normal;font-stretch:normal;text-indent:0;text-align:start;text-decoration:none;line-height:normal;letter-spacing:normal;word-spacing:normal;text-transform:none;direction:ltr;block-progression:tb;writing-mode:lr-tb;text-anchor:start;baseline-shift:baseline;color:#000000;fill:#a9781e;fill-opacity:1;stroke:none;stroke-width:59;marker:none;visibility:visible;display:inline;overflow:visible;enable-background:accumulate;font-family:Sans;-inkscape-font-specification:Sans"
       d="m 3709.8065,2186.1544 c 34.6439,111.6508 152.049,162.3886 277.5373,163.7831 26.2349,0.2915 45.4976,3.0792 54.8437,9.0625 9.3461,5.9833 17.1453,15.5313 18.6875,51.25 2.9743,68.8894 -17.814,148.2411 -58.8125,210.6875 -40.9985,62.4464 -100.2992,107.6754 -177.0937,116.4063 -64.6739,7.3528 -142.6057,-3.4602 -214.1563,0.069 -77.0775,3.8015 -124.0963,34.8837 -153.8354,82.3687 -29.7392,47.4851 -44.0723,91.8617 -56.8626,146.98 l -10,43.0938 43.625,-7.3438 c 88.7743,-14.9442 199.598,-23.0181 299.7694,-24.041 -117.8292,67.8049 -323.3666,119.1448 -523.8839,127.093 -248.1852,9.8376 -618.1753,-53.1537 -765.4512,-83.9895 128.9562,86.0316 511.8584,153.0706 767.7637,142.927 255.9053,-10.1436 484.4172,-56.4126 610.0625,-174.6569 l 57,-53.6563 -78.2188,2.6875 c -122.1607,4.1925 -235.8013,-4.8822 -343.8848,8.0836 9.6697,-39.0699 20.2244,-73.8678 36.2188,-99.4062 21.5404,-34.394 58.106,-62.5005 120.6036,-65.5829 60.3973,-2.9789 140.2949,22.823 217.9062,13.9993 96.3935,-10.9591 171.3803,-68.9514 219.75,-142.625 48.3697,-73.6737 72.0225,-163.3146 68.4688,-245.625 -2.0013,-46.3518 -18.327,-80.7904 -45.8438,-98.4063 -27.5168,-17.6159 -57.8267,-18.0619 -86,-18.375 -105.2046,-1.1691 -197.7407,-9.2599 -278.1935,-104.7831 z"
       id="path3868"
       inkscape:connector-curvature="0"
       sodipodi:nodetypes="csssssssscscscsccccsssssssc" />
    <path
       style="fill:#a9781e;fill-opacity:1;stroke:none"
       d="m 3844.2292,2488.6659 c 16.1863,45.9833 57.623,45.7104 106.243,40.7265 -50.0968,63.053 -157.6832,46.6787 -106.243,-40.7265 z"
       id="path3870"
       inkscape:connector-curvature="0"
       sodipodi:nodetypes="ccc" />
    <path
       sodipodi:type="arc"
       style="color:#000000;fill:#fffaa1;fill-opacity:1;fill-rule:nonzero;stroke:none;stroke-width:1px;marker:none;visibility:visible;display:inline;overflow:visible;enable-background:accumulate"
       id="path3882"
       sodipodi:cx="2331.3857"
       sodipodi:cy="2496.6611"
       sodipodi:rx="37.562603"
       sodipodi:ry="62.60434"
       d="m 2368.9483,2496.6611 c 0,34.5755 -16.8173,62.6044 -37.5626,62.6044 -20.7452,0 -37.5626,-28.0289 -37.5626,-62.6044 0,-34.5754 16.8174,-62.6043 37.5626,-62.6043 20.7453,0 37.5626,28.0289 37.5626,62.6043 z"
       transform="matrix(0.68842409,-0.67428727,0.69152775,0.67126099,-986.33386,2390.2695)" />
    <path
       sodipodi:type="arc"
       style="color:#000000;fill:#fffaa1;fill-opacity:1;fill-rule:nonzero;stroke:none;stroke-width:1px;marker:none;visibility:visible;display:inline;overflow:visible;enable-background:accumulate"
       id="path3884"
       sodipodi:cx="2525.459"
       sodipodi:cy="2639.3989"
       sodipodi:rx="36.310516"
       sodipodi:ry="60.100166"
       d="m 2561.7695,2639.3989 c 0,33.1924 -16.2568,60.1002 -36.3105,60.1002 -20.0538,0 -36.3105,-26.9078 -36.3105,-60.1002 0,-33.1924 16.2567,-60.1001 36.3105,-60.1001 20.0537,0 36.3105,26.9077 36.3105,60.1001 z"
       transform="matrix(0.60501804,-0.79621176,0.79621176,0.60501804,-1104.0097,3053.3151)" />
    <path
       sodipodi:type="arc"
       style="color:#000000;fill:#fffaa1;fill-opacity:1;fill-rule:nonzero;stroke:none;stroke-width:1px;marker:none;visibility:visible;display:inline;overflow:visible;enable-background:accumulate"
       id="path3886"
       sodipodi:cx="2373.9565"
       sodipodi:cy="2663.1887"
       sodipodi:rx="37.562603"
       sodipodi:ry="58.84808"
       d="m 2411.5191,2663.1887 c 0,32.5009 -16.8173,58.8481 -37.5626,58.8481 -20.7452,0 -37.5626,-26.3472 -37.5626,-58.8481 0,-32.5009 16.8174,-58.8481 37.5626,-58.8481 20.7453,0 37.5626,26.3472 37.5626,58.8481 z"
       transform="matrix(0.60182128,-0.7986308,0.7986308,0.60182128,-1181.6455,2951.3316)" />
  </g>
  <g
     inkscape:groupmode="layer"
     id="layer9"
     inkscape:label="Eyes"
     style="display:inline"
     sodipodi:insensitive="true"
     transform="translate(559.16163,-71.388849)">
    <path
       style="fill:#ffffff;fill-opacity:1;stroke:none"
       d="m 3661.8451,1612.1604 -21.2486,761.4088 417.8895,-3.5414 49.5801,-772.0331 c -143.2814,-52.5973 -284.7037,-124.7147 -446.221,14.1657 z"
       id="path3917"
       inkscape:connector-curvature="0"
       sodipodi:nodetypes="ccccc"
       clip-path="url(#clipPath3948)" />
    <path
       style="fill:#ffffff;fill-opacity:1;stroke:none"
       d="m 2780.0275,2702.9228 c 475.5725,-53.5785 521.5377,-368.6571 573.7127,-679.9558 -113.9713,-374.7456 -318.2979,-576.3103 -658.7072,-517.0497 -321.2884,80.7142 -515.9031,256.4336 -460.3867,619.7514 29.9923,401.7993 242.2346,552.2194 545.3812,577.2541 z"
       id="path3915"
       inkscape:connector-curvature="0"
       sodipodi:nodetypes="ccccc"
       clip-path="url(#clipPath3936)" />
    <path
       sodipodi:type="arc"
       style="color:#000000;fill:url(#linearGradient3966);fill-opacity:1;fill-rule:nonzero;stroke:none;stroke-width:1px;marker:none;visibility:visible;display:inline;overflow:visible;enable-background:accumulate"
       id="path3907"
       sodipodi:cx="3100.167"
       sodipodi:cy="2178.6311"
       sodipodi:rx="318.03006"
       sodipodi:ry="460.76794"
       d="m 3418.1971,2178.6311 c 0,254.4751 -142.387,460.7679 -318.0301,460.7679 -175.6432,0 -318.0301,-206.2928 -318.0301,-460.7679 0,-254.4751 142.3869,-460.7679 318.0301,-460.7679 175.6431,0 318.0301,206.2928 318.0301,460.7679 z"
       transform="matrix(1,0,0,1.0027174,-47.579299,-37.222364)"
       clip-path="url(#clipPath3932)" />
    <path
       sodipodi:type="arc"
       style="color:#000000;fill:url(#linearGradient3968);fill-opacity:1;fill-rule:nonzero;stroke:none;stroke-width:1px;marker:none;visibility:visible;display:inline;overflow:visible;enable-background:accumulate"
       id="path3909"
       sodipodi:cx="3907.7629"
       sodipodi:cy="1970.7847"
       sodipodi:rx="128.96494"
       sodipodi:ry="415.69281"
       d="m 4036.7279,1970.7847 c 0,229.5808 -57.7396,415.6928 -128.965,415.6928 -71.2253,0 -128.9649,-186.112 -128.9649,-415.6928 0,-229.5808 57.7396,-415.6928 128.9649,-415.6928 71.2254,0 128.965,186.112 128.965,415.6928 z"
       transform="matrix(1.0336167,0.09333294,-0.09689343,0.99563495,132.32119,-356.12045)"
       clip-path="url(#clipPath3944)" />
    <path
       sodipodi:type="arc"
       style="color:#000000;fill:#000000;fill-opacity:1;fill-rule:nonzero;stroke:none;stroke-width:1px;marker:none;visibility:visible;display:inline;overflow:visible;enable-background:accumulate"
       id="path3911"
       sodipodi:cx="3107.6794"
       sodipodi:cy="2134.8081"
       sodipodi:rx="230.38397"
       sodipodi:ry="369.3656"
       d="m 3338.0634,2134.8081 c 0,203.995 -103.1464,369.3656 -230.384,369.3656 -127.2375,0 -230.3839,-165.3706 -230.3839,-369.3656 0,-203.995 103.1464,-369.3656 230.3839,-369.3656 127.2376,0 230.384,165.3706 230.384,369.3656 z"
       transform="matrix(0.95937541,-0.07628732,0.07166218,0.99378623,-60.54315,226.55068)"
       clip-path="url(#clipPath3928)" />
    <path
       sodipodi:type="arc"
       style="color:#000000;fill:#000000;fill-opacity:1;fill-rule:nonzero;stroke:none;stroke-width:1px;marker:none;visibility:visible;display:inline;overflow:visible;enable-background:accumulate"
       id="path3913"
       sodipodi:cx="4017.9465"
       sodipodi:cy="2037.1453"
       sodipodi:rx="81.385643"
       sodipodi:ry="324.2905"
       d="m 4099.3322,2037.1453 c 0,179.1007 -36.4376,324.2905 -81.3857,324.2905 -44.948,0 -81.3856,-145.1898 -81.3856,-324.2905 0,-179.1007 36.4376,-324.2905 81.3856,-324.2905 44.9481,0 81.3857,145.1898 81.3857,324.2905 z"
       transform="matrix(0.98912143,0,0,1,0.98664099,6.4752587)"
       clip-path="url(#clipPath3940)" />
    <path
       sodipodi:type="arc"
       style="color:#000000;fill:#ffffff;fill-opacity:1;fill-rule:nonzero;stroke:none;stroke-width:1px;marker:none;visibility:visible;display:inline;overflow:visible;enable-background:accumulate"
       id="path3952"
       sodipodi:cx="2919.9143"
       sodipodi:cy="2065.4644"
       sodipodi:rx="88.535904"
       sodipodi:ry="173.53038"
       d="m 3008.4502,2065.4644 c 0,95.8381 -39.6389,173.5303 -88.5359,173.5303 -48.897,0 -88.5359,-77.6922 -88.5359,-173.5303 0,-95.8382 39.6389,-173.5304 88.5359,-173.5304 48.897,0 88.5359,77.6922 88.5359,173.5304 z"
       transform="matrix(0.94194408,0.24581222,-0.22285513,1.0389771,630.74606,-823.93181)" />
    <path
       sodipodi:type="arc"
       style="color:#000000;fill:#ffffff;fill-opacity:1;fill-rule:nonzero;stroke:none;stroke-width:1px;marker:none;visibility:visible;display:inline;overflow:visible;enable-background:accumulate"
       id="path3954"
       sodipodi:cx="3082.6377"
       sodipodi:cy="2191.1519"
       sodipodi:rx="50.083473"
       sodipodi:ry="100.16695"
       d="m 3132.7212,2191.1519 c 0,55.3206 -22.4232,100.1669 -50.0835,100.1669 -27.6603,0 -50.0835,-44.8463 -50.0835,-100.1669 0,-55.3207 22.4232,-100.167 50.0835,-100.167 27.6603,0 50.0835,44.8463 50.0835,100.167 z"
       transform="matrix(0.97788056,0.20916412,-0.20916412,0.97788056,526.4966,-591.30178)" />
    <path
       sodipodi:type="arc"
       style="color:#000000;fill:#ffffff;fill-opacity:1;fill-rule:nonzero;stroke:none;stroke-width:1px;marker:none;visibility:visible;display:inline;overflow:visible;enable-background:accumulate"
       id="path3956"
       sodipodi:cx="3945.3254"
       sodipodi:cy="1961.394"
       sodipodi:rx="27.54591"
       sodipodi:ry="113.31386"
       d="m 3972.8713,1961.394 c 0,62.5816 -12.3327,113.3139 -27.5459,113.3139 -15.2131,0 -27.5459,-50.7323 -27.5459,-113.3139 0,-62.5815 12.3328,-113.3138 27.5459,-113.3138 15.2132,0 27.5459,50.7323 27.5459,113.3138 z"
       transform="matrix(1.0689223,0.14240472,-0.15036456,1.0123368,29.263691,-584.77824)" />
    <path
       sodipodi:type="arc"
       style="color:#000000;fill:#ffffff;fill-opacity:1;fill-rule:nonzero;stroke:none;stroke-width:1px;marker:none;visibility:visible;display:inline;overflow:visible;enable-background:accumulate"
       id="path3958"
       sodipodi:cx="3994.783"
       sodipodi:cy="2085.9766"
       sodipodi:rx="16.903172"
       sodipodi:ry="62.60434"
       d="m 4011.6861,2085.9766 c 0,34.5754 -7.5678,62.6043 -16.9031,62.6043 -9.3354,0 -16.9032,-28.0289 -16.9032,-62.6043 0,-34.5755 7.5678,-62.6044 16.9032,-62.6044 9.3353,0 16.9031,28.0289 16.9031,62.6044 z"
       transform="matrix(0.98896472,0.14815123,-0.14815123,0.98896472,350.61938,-570.06476)" />
  </g>
  <g
     inkscape:groupmode="layer"
     id="layer8"
     inkscape:label="Eye Clipping"
     style="opacity:0.5;display:none"
     sodipodi:insensitive="true"
     transform="translate(559.16163,-71.388849)">
    <path
       transform="matrix(1.0016028,-0.27230832,0.25691842,0.95529291,-514.49717,782.24579)"
       style="color:#000000;fill:#00ff00;fill-opacity:1;fill-rule:nonzero;stroke:#ff0000;stroke-width:0.98687065;stroke-miterlimit:4;stroke-opacity:1;stroke-dasharray:none;marker:none;visibility:visible;display:inline;overflow:visible;enable-background:accumulate"
       d="m 3205.3423,2168.6143 c 0,282.1354 -201.8082,510.8514 -450.7512,510.8514 -248.9431,0 -450.7513,-228.716 -450.7513,-510.8514 0,-282.1355 201.8082,-510.8515 450.7513,-510.8515 248.943,0 450.7512,228.716 450.7512,510.8515 z"
       id="path3889"
       inkscape:connector-curvature="0" />
    <path
       style="fill:#00ff00;fill-opacity:1;stroke:#ff0000;stroke-width:1px;stroke-linecap:butt;stroke-linejoin:miter;stroke-opacity:1"
       d="m 3728.7145,2201.1686 c -9.2111,-129.7208 -12.1534,-303.8724 56.1291,-441.468 47.7963,-103.0074 182.1901,-212.6668 231.8509,-31.8208 34.1666,124.422 27.0419,395.6895 -42.571,585.9766 -90.7838,0.1569 -177.9654,-14.8158 -245.409,-112.6878 z"
       id="path3892"
       inkscape:connector-curvature="0"
       sodipodi:nodetypes="ccscc" />
  </g>
  <g
     inkscape:groupmode="layer"
     id="layer10"
     inkscape:label="Eyelashes"
     style="display:inline"
     sodipodi:insensitive="true"
     transform="translate(559.16163,-71.388849)">
    <path
       style="fill:none;stroke:#a9781e;stroke-width:59;stroke-linecap:butt;stroke-linejoin:miter;stroke-miterlimit:4;stroke-opacity:1;stroke-dasharray:none"
       d="m 3611.0184,911.5192 c 361.1928,342.7821 567.7361,803.3605 375.626,1404.8414"
       id="path4001"
       inkscape:connector-curvature="0"
       sodipodi:nodetypes="cc" />
    <path
       style="font-size:medium;font-style:normal;font-variant:normal;font-weight:normal;font-stretch:normal;text-indent:0;text-align:start;text-decoration:none;line-height:normal;letter-spacing:normal;word-spacing:normal;text-transform:none;direction:ltr;block-progression:tb;writing-mode:lr-tb;text-anchor:start;baseline-shift:baseline;color:#000000;fill:#000000;fill-opacity:1;stroke:none;stroke-width:49;marker:none;visibility:visible;display:inline;overflow:visible;enable-background:accumulate;font-family:Sans;-inkscape-font-specification:Sans"
       d="m 2818.25,1583.0625 c -9.701,-0.2602 -19.5088,-0.1707 -29.4375,0.125 -442.5142,13.1813 -616.0941,508.6846 -355.7233,819.2559 -188.55,-378.6053 -48.6519,-756.2122 357.4108,-770.2872 143.2691,-4.966 255.9722,58.2873 330.5625,163.4376 74.5903,105.1502 109.6656,253.2097 90,415.1562 l 48.6563,5.9062 c 20.9336,-172.3885 -15.7831,-332.5668 -98.6876,-449.4374 -77.7229,-109.5663 -197.2669,-180.2531 -342.7812,-184.1563 z"
       id="path3971"
       inkscape:connector-curvature="0"
       sodipodi:nodetypes="sscssccss" />
    <path
       style="fill:#000000;fill-opacity:1;stroke:none"
       d="m 2355.0551,1902.5582 c -57.8434,-21.3542 -109.4264,-18.9113 -173.5303,-5.3122 50.6262,-60.1406 140.3512,-56.9402 196.5497,-44.2679 z"
       id="path3977"
       inkscape:connector-curvature="0"
       sodipodi:nodetypes="cccc" />
    <path
       style="fill:#000000;fill-opacity:1;stroke:#000000;stroke-width:1px;stroke-linecap:butt;stroke-linejoin:miter;stroke-opacity:1"
       d="m 2333.8898,1988.3139 c -83.5491,-12.8268 -114.9138,20.0102 -142.7379,63.8564 41.4876,-21.4649 87.7682,-34.4316 137.7296,-10.0167 z"
       id="path3979"
       inkscape:connector-curvature="0"
       sodipodi:nodetypes="cccc" />
    <path
       style="fill:#000000;fill-opacity:1;stroke:none"
       d="m 2326.3773,2098.4975 c -53.1793,16.5623 -106.1412,54.0879 -103.9232,101.419 31.733,-30.3642 72.4316,-60.9894 115.192,-58.848 z"
       id="path3981"
       inkscape:connector-curvature="0"
       sodipodi:nodetypes="cccc" />
    <path
       style="font-size:medium;font-style:normal;font-variant:normal;font-weight:normal;font-stretch:normal;text-indent:0;text-align:start;text-decoration:none;line-height:normal;letter-spacing:normal;word-spacing:normal;text-transform:none;direction:ltr;block-progression:tb;writing-mode:lr-tb;text-anchor:start;baseline-shift:baseline;color:#000000;fill:#a9781e;fill-opacity:1;stroke:none;stroke-width:59;marker:none;visibility:visible;display:inline;overflow:visible;enable-background:accumulate;font-family:Sans;-inkscape-font-specification:Sans"
       d="m 3709.8065,2186.1544 c 34.6439,111.6508 152.049,162.3886 277.5373,163.7831 26.2349,0.2915 45.4976,3.0792 54.8437,9.0625 9.3461,5.9833 17.1453,15.5313 18.6875,51.25 l 58.9688,-2.5309 c -2.0013,-46.3518 -18.327,-80.7904 -45.8438,-98.4063 -27.5168,-17.6159 -57.8267,-18.0619 -86,-18.375 -105.2046,-1.1691 -197.7407,-9.2599 -278.1935,-104.7831 z"
       id="path3868-4"
       inkscape:connector-curvature="0"
       sodipodi:nodetypes="cssccsscc" />
    <path
       style="font-size:medium;font-style:normal;font-variant:normal;font-weight:normal;font-stretch:normal;text-indent:0;text-align:start;text-decoration:none;line-height:normal;letter-spacing:normal;word-spacing:normal;text-transform:none;direction:ltr;block-progression:tb;writing-mode:lr-tb;text-anchor:start;baseline-shift:baseline;color:#000000;fill:#000000;fill-opacity:1;stroke:none;stroke-width:44;marker:none;visibility:visible;display:inline;overflow:visible;enable-background:accumulate;font-family:Sans;-inkscape-font-specification:Sans"
       d="m 3929.3438,1599.6875 c -12.2871,-0.5073 -25.1456,1.1624 -36.5626,6.8125 -77.573,38.3901 -131.1691,140.6836 -134.5766,217.0064 35.4072,-66.4151 83.3558,-147.7859 151.2016,-176.2564 11.2934,-4.7391 19.1056,-4.6909 26.2188,-2.0312 14.2263,5.3193 44.6631,25.6387 56.3,82.1499 11.637,56.5112 23.2171,145.5987 15.5751,262.2875 l 16.3603,2.875 c 7.7973,-119.0602 11.6013,-208.5788 -1.3625,-271.5333 -12.9638,-62.9545 -33.9842,-102.983 -71.4667,-116.9979 -7.0279,-2.6278 -14.3152,-4.0081 -21.6874,-4.3125 z"
       id="path4003"
       inkscape:connector-curvature="0"
       sodipodi:nodetypes="sscsssccsss" />
    <path
       style="fill:#000000;fill-opacity:1;stroke:none"
       d="m 4012.9382,1825.5426 c 52.1703,-19.2268 115.6094,-10.7583 156.5109,5.0083 -28.8152,-55.5546 -102.2594,-61.5074 -159.015,-38.8147 z"
       id="path4009"
       inkscape:connector-curvature="0"
       sodipodi:nodetypes="cccc" />
    <path
       style="fill:#000000;fill-opacity:1;stroke:none"
       d="m 4017.9466,1900.6678 c 54.9554,-34.8099 118.1793,-7.8182 156.5109,35.0584 -42.1536,-12.6206 -105.5927,-34.3328 -156.5109,0 z"
       id="path4011"
       inkscape:connector-curvature="0"
       sodipodi:nodetypes="cccc" />
    <path
       style="fill:#000000;fill-opacity:1;stroke:none"
       d="m 4010.3201,2013.7451 c 43.5014,0.998 98.3166,23.6555 131.9185,37.5416 -22.0569,-34.1296 -80.3456,-69.4024 -128.9059,-69.0462 z"
       id="path4013"
       inkscape:connector-curvature="0"
       sodipodi:nodetypes="cccc" />
  </g>
  <g
     inkscape:groupmode="layer"
     id="layer11"
     inkscape:label="Front Mane"
     style="display:inline"
     sodipodi:insensitive="true"
     transform="translate(559.16163,-71.388849)">
    <path
       style="fill:#ee688a;fill-opacity:1;stroke:none;display:inline"
       d="M 4481.5482,1302.5501 C 4405.5796,967.00539 4226.2382,642.55333 3945.16,418.69635 3473.9464,43.41131 2532.7617,-63.707841 1987.9407,453.65537 c 34.1244,-79.0912 116.718,-206.92905 201.2619,-263.24473 64.389,-42.89028 59.7976,-93.564492 -56.5685,-45.25483 -554.9146,230.37402 -605.9501,630.35162 -565.6855,910.75349 l 401.6367,130.1077 c 212.5528,-149.8468 406.7982,-315.967 882.4692,-231.93099 261.0883,28.42387 445.7839,209.63309 633.5677,384.66609 67.3556,-173.9135 60.1419,-396.29702 412.9504,-384.66609 419.4409,205.95479 559.2386,674.60479 481.0519,1348.02799 119.6104,-122.7542 203.8597,-634.7259 102.9237,-999.5639 z"
       id="path3861-8-2"
       inkscape:connector-curvature="0"
       sodipodi:nodetypes="cscssccccccc" />
    <path
       style="fill:#e22c5e;fill-opacity:1;stroke:none"
       d="m 1764,2084 c 41.6073,271.272 123.4301,513.8495 330,702 -90,64.9121 -214,33.7456 -318,-30 64.6108,122.5481 216.9515,282.5862 396,354 -100.6667,47.4214 -224.3333,28.4045 -351,-36 144.2193,159.975 208.5416,259.524 171.1607,293.0354 C 1954.7798,3400.5468 1874.442,3371.2996 1776,3312 1340.194,3049.4787 1311.4711,2344 1524,1860 z"
       id="path4018-8"
       inkscape:connector-curvature="0"
       sodipodi:nodetypes="ccccczscc" />
    <path
       style="fill:#e22c5e;fill-opacity:1;stroke:none"
       d="m 2254.2564,261.12137 c -18.6241,258.65582 42.082,489.43888 220.6173,678.82251 l -164.0487,42.4264 C 2094.4729,845.19259 2037.9695,631.41881 2073.5802,374.25845 z"
       id="path4042"
       inkscape:connector-curvature="0"
       sodipodi:nodetypes="ccccc" />
    <path
       style="fill:#e22c5e;fill-opacity:1;stroke:none"
       d="m 2852,100 c -83.1249,41.88545 -117.6064,95.93172 -160,148 70.6048,56.27905 121.9329,116.41342 166,178 -164.2541,-5.68495 -233.9178,67.10894 -248,184 -12.7653,105.9598 40.198,207.13352 86,308 l 218,44 c 43.052,-82.16034 49.1636,-173.95732 -30,-288 110,-51.98453 220,-61.06951 330,-16 C 3173.3581,536.59827 3117.465,425.75497 3008,352 3147.9575,270.21141 3350.7393,236.49442 3560,228 3337.3029,129.90457 3106.5143,65.523553 2852,100 z"
       id="path4044"
       inkscape:connector-curvature="0"
       sodipodi:nodetypes="cccsccccccc" />
    <path
       style="fill:#e22c5e;fill-opacity:1;stroke:none"
       d="m 3208,1100 c -28.7025,-622.33398 603.9912,-691.28367 986,-416 257.9553,294.92408 487.2987,1064.6724 215.5179,1534.3929 -3.8982,-319.6938 -4.7336,-639.6939 -155.5635,-944.6946 C 3898.1639,842.28008 3626.5938,801.88543 3481.7938,1350.0658 3394.5299,1260.0428 3310.5021,1164.6261 3208,1100 z"
       id="path4046"
       inkscape:connector-curvature="0"
       sodipodi:nodetypes="cccccc" />
    <path
       style="fill:#ee688a;fill-opacity:1;stroke:none"
       d="m 1572.6055,1949.6924 c -20.4929,155.7718 -6.855,301.9169 76.3675,428.4356 -52.4845,-11.2623 -92.5293,13.9851 -65.0538,86.8528 39.984,106.0414 91.9282,198.1139 166.8772,271.1859 120.5648,164.6174 258.2425,294.1483 421.4356,378.8376 -129.7593,26.3586 -259.7387,22.9713 -390.3229,-62.2254 -183.094,-122.6566 -315.1478,-430.9325 -387.4945,-687.3078 14.2833,-170.2431 54.0082,-335.3978 121.6223,-494.9747 z"
       id="path4020"
       inkscape:connector-curvature="0"
       sodipodi:nodetypes="ccscccccc" />
    <path
       style="fill:none;stroke:#ae243c;stroke-width:59;stroke-linecap:butt;stroke-linejoin:miter;stroke-miterlimit:7;stroke-opacity:1;stroke-dasharray:none;display:inline"
       d="m 4211.4071,2041.1208 c 64.038,83.8129 114.485,175.8973 157.866,269.3102 156.6489,-266.8357 194.8757,-643.0429 112.2751,-1007.8809 C 4405.5796,967.00544 4226.2382,642.55338 3945.16,418.6964 3473.9464,43.41136 2532.7617,-63.707793 1987.9407,453.65542 c 34.1244,-79.0912 116.718,-206.92905 201.2619,-263.24473 64.389,-42.89028 59.7976,-93.564492 -56.5685,-45.25483 -554.9146,230.37402 -605.9501,630.35162 -565.6855,910.75354"
       id="path3861-8"
       inkscape:connector-curvature="0"
       sodipodi:nodetypes="cscscssc" />
    <path
       style="fill:none;stroke:#ae243c;stroke-width:59;stroke-linecap:butt;stroke-linejoin:miter;stroke-miterlimit:4;stroke-opacity:1;stroke-dasharray:none"
       d="m 1924.0167,1230.6445 c 501.7074,-461.35821 1143.0483,-377.27763 1557.7771,122.2498 19.6824,-243.7238 268.1918,-653.79578 659.0235,-214.9606 271.1457,304.4489 310.606,761.4057 228.4558,1172.4973"
       id="path4040"
       inkscape:connector-curvature="0"
       sodipodi:nodetypes="ccsc" />
    <path
       style="fill:none;stroke:#ae243c;stroke-width:59;stroke-linecap:butt;stroke-linejoin:miter;stroke-miterlimit:7;stroke-opacity:1;stroke-dasharray:none"
       d="m 1764,2084 c 41.6073,271.272 123.4301,513.8495 330,702 -90,64.9121 -214,33.7456 -318,-30 64.6108,122.5481 226.9515,286.5862 406,358 -100.6667,47.4214 -234.3333,32.4756 -361,-31.9289 137.1482,168.4602 209.9558,259.9382 164.0896,289.2069 C 1939.2235,3400.5468 1874.442,3371.2996 1776,3312 1340.194,3049.4787 1307.4711,2340 1520,1856"
       id="path4018"
       inkscape:connector-curvature="0"
       sodipodi:nodetypes="ccccczsc" />
  </g>
  <g
     inkscape:groupmode="layer"
     id="layer12"
     inkscape:label="Ear"
     sodipodi:insensitive="true"
     transform="translate(559.16163,-71.388849)">
    <path
       style="fill:#d89f48;fill-opacity:1;stroke:none"
       d="m 2108,1408 -188,904 c -125.1925,-62.7388 -241.4127,-158.3757 -344,-304 -162.1335,-233.4473 -283.207,-615.1222 0,-1123.99999 112,-106.14971 224,-187.7807 336,-12 101.6048,155.58479 177.098,327.78609 196,535.99999 z"
       id="path4093"
       inkscape:connector-curvature="0"
       sodipodi:nodetypes="cccccc" />
    <path
       style="font-size:medium;font-style:normal;font-variant:normal;font-weight:normal;font-stretch:normal;text-indent:0;text-align:start;text-decoration:none;line-height:normal;letter-spacing:normal;word-spacing:normal;text-transform:none;direction:ltr;block-progression:tb;writing-mode:lr-tb;text-anchor:start;baseline-shift:baseline;color:#000000;fill:#a9781e;fill-opacity:1;stroke:none;stroke-width:59;marker:none;visibility:visible;display:inline;overflow:visible;enable-background:accumulate;font-family:Sans;-inkscape-font-specification:Sans"
       d="m 1762.9062,737.40625 c -15.8106,-0.351 -31.694,1.59078 -47.4062,5.9375 -62.8488,17.3869 -119.7361,68.91973 -168.6875,149.3125 -156.5794,257.14995 -197.0467,518.70435 -155.0343,752.10365 55.3632,307.5692 285.9564,586.2459 547.9733,676.3625 -237.9831,-133.8834 -437.6374,-394.0053 -490.6488,-682.0614 -40.5476,-220.3299 -2.3226,-468.7036 148.0848,-715.71725 44.1189,-72.45635 91.8638,-111.45087 134.0625,-123.125 42.1987,-11.67413 82.0568,-0.46319 124.0625,40.8125 142.0723,139.60343 199.7981,407.96775 244.8936,577.09875 1.0955,-174.869 -43.0293,-461.46084 -203.5186,-619.16125 -39.5505,-38.86315 -86.3493,-60.50949 -133.7813,-61.5625 z"
       id="path4085"
       inkscape:connector-curvature="0"
       sodipodi:nodetypes="sssscsssscss" />
    <path
       style="fill:#a9781e;fill-opacity:1;stroke:none"
       d="m 1668.772,1160.5612 c -121.7947,263.0868 -80.8663,505.2918 98.995,692.9646 -99.8151,-200.8061 -127.3538,-446.9206 -98.995,-692.9646 z"
       id="path4087"
       inkscape:connector-curvature="0"
       sodipodi:nodetypes="ccc" />
  </g>
  <!--Created by Sigma
      http://90sigma.deviantart.com/-->
</svg>
