<?xml version="1.0" encoding="UTF-8"?><svg xmlns="http://www.w3.org/2000/svg" viewBox="0 0 5764.1 5764.1" version="1.1" xmlns:xlink="http://www.w3.org/1999/xlink"><defs id="defs4"><linearGradient id="linearGradient3960"><stop id="stop3962" stop-color="#DBFFA2" offset="0"/><stop id="stop3964" stop-color="#498625" offset="1"/></linearGradient><clipPath id="clipPath3928" clipPathUnits="userSpaceOnUse"><path id="path3930" opacity=".5" style="color:#000000" d="m3303.2 2019.1c54.982 275.43-114.04 537.61-377.53 585.59-263.48 47.987-521.65-136.39-576.63-411.82-54.982-275.43 114.04-537.61 377.53-585.59 263.48-47.987 521.65 136.39 576.63 411.82z" stroke="#f00" stroke-width="1.0212" fill="#0f0"/></clipPath><clipPath id="clipPath3932" clipPathUnits="userSpaceOnUse"><path id="path3934" opacity=".5" style="color:#000000" d="m3300.7 2012.8c72.486 268.79-70.885 541.5-320.23 609.1-249.34 67.606-510.24-95.488-582.72-364.28-72.486-268.79 70.884-541.5 320.23-609.1 249.34-67.606 510.24 95.488 582.72 364.28z" stroke="#f00" stroke-width=".99864" fill="#0f0"/></clipPath><clipPath id="clipPath3936" clipPathUnits="userSpaceOnUse"><path id="path3938" opacity=".5" style="color:#000000" d="m3253.1 1981.1c72.486 269.52-70.885 542.97-320.23 610.76-249.34 67.789-510.24-95.747-582.72-365.27-72.486-269.52 70.884-542.97 320.23-610.76 249.34-67.789 510.24 95.747 582.72 365.27z" stroke="#f00" fill="#0f0"/></clipPath><clipPath id="clipPath3940" clipPathUnits="userSpaceOnUse"><path id="path3942" opacity=".5" d="m3768.7 2194.7c-9.3124-129.72-12.287-303.87 56.746-441.47 48.322-103.01 184.19-212.67 234.4-31.821 34.542 124.42 27.339 395.69-43.039 585.98-91.782 0.1569-179.92-14.816-248.11-112.69z" stroke="#f00" stroke-width="1.0055px" fill="#0f0"/></clipPath><clipPath id="clipPath3944" clipPathUnits="userSpaceOnUse"><path id="path3946" opacity=".5" d="m3687.8 2222.8c-20.941-128.33-40.017-301.45 12.627-444.59 36.225-106.85 154.88-228.12 219.39-52.526 44.38 120.81 62.865 391.53 13.863 587.25-87.052 8.318-172.06 1.2486-245.88-90.133z" stroke="#f00" stroke-width=".98145px" fill="#0f0"/></clipPath><clipPath id="clipPath3948" clipPathUnits="userSpaceOnUse"><path id="path3950" opacity=".5" d="m3728.7 2213.8c-9.2111-129.72-12.153-316.53 56.129-454.12 47.796-103.01 182.19-212.67 231.85-31.821 34.167 124.42 27.042 395.69-42.571 585.98-90.784 0.1569-177.97-2.1589-245.41-100.03z" stroke="#f00" stroke-width="1px" fill="#0f0"/></clipPath><linearGradient id="linearGradient3966" y2="1787.9" xlink:href="#linearGradient3960" gradientUnits="userSpaceOnUse" x2="3109.2" y1="2507.2" x1="3109.2"/><linearGradient id="linearGradient3968" y2="1729.7" xlink:href="#linearGradient3960" gradientUnits="userSpaceOnUse" x2="3847.7" y1="2296.8" x1="3900.9"/></defs><g display="none" transform="translate(559.16 -71.389)"><rect id="rect4096" style="color:#000000" display="inline" height="6176" width="4768" stroke="#0f0" y="-80" x="-64"/></g><g opacity=".2" display="none" transform="translate(559.16 -71.389)"><path id="path3765" style="color:#000000" d="m4126.9 5654.4c0 141.07-784.81 255.43-1752.9 255.43-968.11 0-1752.9-114.36-1752.9-255.43s784.81-255.43 1752.9-255.43c968.11 0 1752.9 114.36 1752.9 255.43z" transform="matrix(1.0114 0 0 1 -117.28 30.05)" display="inline"/></g><g transform="translate(559.16 -71.389)"><path id="path3801" fill="#c38f36" d="m2556.9 4388.6 251.44-329.35c102.36 24.774 199.79 28.82 269.15-84.994 111.95-87.385 201.29-39.054 286.86 31.873 278.45 470.29 376.93 908.05 102.7 1278.5-75.584 91.835-162.92 97.47-258.52 42.497-131.87-72.989-240.59-175.23-322.27-311.65-44.331-77.912-72.974-155.82-24.79-233.73 61.556-58.619 104.09-129.92 146.03-201.61-243.8 85.94-373.18-11.199-450.6-191.49z"/><path id="path3768" d="m2801.3 4054.5c94.699 23.064 184.87 39.044 283.31-73.155 110.59-126.04 228-35.637 286.86 46.039 231.86 321.75 349.63 865.86 145.2 1189.9-96.486 152.95-205.33 155.05-293.94 116.87-178.13-76.766-287.76-239.74-347.06-336.44-56.299-91.802-55.897-166.5 0-230.19 10.175-11.593 19.932-23.127 29.267-34.634" stroke="#A57520" stroke-width="59" fill="none"/><path id="path3773" d="m3010 4570.1c-161.68 71.756-358.71 52.461-450.75-190.32" stroke="#A57520" stroke-width="59" fill="none"/><path id="path3768-1" fill="#A57520" d="m2882 4714.4c-9.0758 11.187-18.587 22.42-28.531 33.75l44.344 38.906c10.406-11.857 20.405-23.673 30-35.5 98.555-121.48 183.88-294.67 133.31-408.05-2.754 118.59-85.907 255.98-179.13 370.89z"/><path id="path3799" d="m1477.5 5549.2c212.02 67.852 514.19 68.091 711.19 25.042l-90.15-1307.2-726.21-30.05z" stroke="#A57520" stroke-width="59" fill="#c38f36"/></g><g transform="translate(559.16 -71.389)"><path id="path3804-7" d="m1211.2 3071.2c-191.9-562.6-691.06-621.3-1020-325.8 146.38-18.905 275.05-10.231 421.43 42.497-697.36 318.24-495.57 897.84-332.9 1324.5 105.53-274.43 253.28-648.42 637.46-733.08z" fill="#E22C5F"/><path id="path3806" fill="#EB698B" d="m1192 3045.1c-130.23-200.9-335.25-315.75-550.92-249.17-208.27 62.22-276.55 161.7-373.12 258.02 173.16-129.89 421.8-133.58 611.02-68.954-3.9617-41.399-8.5408-78.425-25.042-115.19 113.85 35.883 202.51 115.04 273.99 212.12zm-172.05 155.42c-244.97-137.75-658.05-177.62-887.13 191.24-12.218 114.44 4.0418 217.48 24.79 318.73 174.75-366.72 559.53-559.31 800.36-446.22z"/><path id="path3804" d="m1211.2 3071.2c-191.9-562.6-691.06-621.3-1020-325.8 146.38-18.905 275.05-10.231 421.43 42.497-697.36 318.24-495.57 897.84-332.9 1324.5 105.53-274.43 253.28-648.42 637.46-733.08z" stroke="#B51252" stroke-miterlimit="9" stroke-width="59" fill="none"/></g><g transform="translate(559.16 -71.389)"><path id="path3858" fill="#D79F48" d="m1462.6 4494.9 53.122-1505.1 177.07-407.27 1278.5 407.27c32.147 207.76 62.29 479.27 42.497 704.75 1.8379 386.97-128.93 717.11-587.88 906.61l-524.13 31.873c-146.38-28.826-292.76-62.759-439.14-138.12z"/><path id="path3771" d="m2975 3015c92.314 793.4 90.342 1340.5-556.88 1562.3" stroke="#A57520" stroke-width="59" fill="none"/><path id="path3826" d="m1687.8 3027.5c-378.44-129.61-791.52 41.696-841.4 413.19-46.897 349.26 128.9 686.84 282.97 981.64-103.98-25.841-219.04 8.8549-222.87 175.29-6.4892 282.2 3.5982 608.5 55.092 891.49 15.304 84.103 80.723 162.36 175.29 190.32 177.24 52.402 353.19 73.023 530.88 65.108 121.8-5.425 153.83-40.386 91.617-170.28-156.47-326.71-285.1-662.83-241.87-1056.8" stroke="#A57520" stroke-width="59" fill="#D79F48"/><path id="path3828" fill="#A57520" d="m1229 3965.4c-64.097 316.38 101.91 481.36 245.97 569.05 144.06 87.698 313.98 99.995 445.78 111.91l5.3126-58.75c-132.4-12-292.1-25.5-420.4-103.6s-260.2-209-276.7-518.6z"/><path id="path3830" d="m2411 4542.6c0.9626 8.1887 1.9795 16.407 3.0501 24.653 42.765 329.4 171.06 702.68 338.09 991.98 47.348 82.009 136.31 202.02-57.596 225.38-171.11 20.609-344.54 30.623-515.86 10.017-102.83-12.369-187.25-52.975-207.85-182.8-54.814-345.58-66.151-679.78-70.235-1016.8-0.071-5.8688-0.14-11.738-0.2069-17.609" stroke="#A57520" stroke-width="59" fill="#D79F48"/><path id="path3830-4" fill="#A57520" d="m2381.7 4546.1c0.9767 8.3082 2.0081 16.638 3.0938 25l58.5-7.5938c-1.0555-8.1291-2.0515-16.243-3-24.312-9.2993-79.109-41.742-181.78-55.344-253.44-20.684 68.228-12.825 178.89-3.2498 260.35zm-473.96-236.06c-33.042 65.734-37.801 184.51-36.852 267.77 0.067 5.8776 0.1476 11.781 0.2187 17.656l59-0.7188c-0.071-5.8621-0.1519-11.73-0.2187-17.594-0.9471-83.076-12.126-198.28-22.148-267.12z"/></g><g transform="translate(559.16 -71.389)"><path id="path3865" fill="#D44574" d="m3700.8 875.54 343.52 984.52c147.04 134.12 240.71 291.12 322.27 453.3 152.8-213.81 132.48-464.71 162.91-704.75-179.32-545.31-470.2-744.18-828.7-733.08z"/><path id="path3863" fill="#D12057" d="m3835.4 864.92c231.53 269.25 427.11 611.45 226.65 966.81l-570.17-825.15z"/><path id="path3861" d="m3945.2 418.7c282.25 222.38 460.42 548.31 536.39 883.85 82.601 364.84 44.374 741.05-112.28 1007.9-103.94-223.82-248.45-440.01-523.27-553.07" stroke="#B51252" stroke-width="59" fill="none"/></g><g transform="translate(559.16 -71.389)"><path id="path3880" fill="#D79F48" d="m3565.9 891.49c321.98 333.72 647.24 664.89 425.71 1422.4 61.969 13.996 114.8 39.985 102.25 151.79-17.134 77.17-44.439 151.8-99.16 219.57-67.853 70.773-144.66 90.82-226.65 81.453-102.6-14.308-202.89-18.837-286.86 46.039l-56.663 166.45 371.85-21.249c-200.86 184.11-459.51 165.96-711.83 169.99-215.18 2.8652-430.35-54.638-645.53-102.85l-681.14-80.134-75.125-1111.9 250.42-826.38c535.9-298.24 1083.7-224.21 1632.7-115.21z"/><path id="path3878" fill="#AD047A" d="m3753.8 2762.1c-31.25 42.988-51.003 129.8-47.579 194.07-90.15 5.7969-189.07 6.562-279.22 31.302 6.8604-80.165 21.647-158.2 113.94-215.36z"/><path id="path3876" fill="#FF6600" d="m3434.5 2926.1c67.131-15.795 158.66-28.024 191.57 26.294l-191.57 21.286z"/><path id="path3868" fill="#A57520" d="m3709.8 2186.2c34.644 111.65 152.05 162.39 277.54 163.78 26.235 0.2915 45.498 3.0792 54.844 9.0625 9.3461 5.9833 17.145 15.531 18.688 51.25 2.9743 68.889-17.814 148.24-58.812 210.69-40.998 62.446-100.3 107.68-177.09 116.41-64.674 7.3528-142.61-3.4602-214.16 0.069-77.078 3.8015-124.1 34.884-153.84 82.369-29.739 47.485-44.072 91.862-56.863 146.98l-10 43.094 43.625-7.3438c88.774-14.944 199.6-23.018 299.77-24.041-117.83 67.805-323.37 119.14-523.88 127.09-248.19 9.8376-618.18-53.154-765.45-83.99 128.96 86.032 511.86 153.07 767.76 142.93 255.91-10.144 484.42-56.413 610.06-174.66l57-53.656-78.219 2.6875c-122.16 4.1925-235.8-4.8822-343.88 8.0836 9.6697-39.07 20.224-73.868 36.219-99.406 21.54-34.394 58.106-62.5 120.6-65.583 60.397-2.9789 140.29 22.823 217.91 13.999 96.394-10.959 171.38-68.951 219.75-142.62 48.37-73.674 72.022-163.31 68.469-245.62-2.0013-46.352-18.327-80.79-45.844-98.406s-57.827-18.062-86-18.375c-105.2-1.1691-197.74-9.2599-278.19-104.78z"/><path id="path3870" fill="#A57520" d="m3844.2 2488.7c16.186 45.983 57.623 45.71 106.24 40.726-50.097 63.053-157.68 46.679-106.24-40.726z"/><path id="path3882" style="color:#000000" d="m2368.9 2496.7c0 34.576-16.817 62.604-37.563 62.604-20.745 0-37.563-28.029-37.563-62.604s16.817-62.604 37.563-62.604c20.745 0 37.563 28.029 37.563 62.604z" transform="matrix(.68842 -.67429 .69153 .67126 -986.33 2390.3)" fill="#FDFFB2"/><path id="path3884" style="color:#000000" d="m2561.8 2639.4c0 33.192-16.257 60.1-36.31 60.1-20.054 0-36.31-26.908-36.31-60.1s16.257-60.1 36.31-60.1c20.054 0 36.31 26.908 36.31 60.1z" transform="matrix(.60502 -.79621 .79621 .60502 -1104 3053.3)" fill="#FDFFB2"/><path id="path3886" style="color:#000000" d="m2411.5 2663.2c0 32.501-16.817 58.848-37.563 58.848-20.745 0-37.563-26.347-37.563-58.848s16.817-58.848 37.563-58.848c20.745 0 37.563 26.347 37.563 58.848z" transform="matrix(.60182 -.79863 .79863 .60182 -1181.6 2951.3)" fill="#FDFFB2"/></g><g transform="translate(559.16 -71.389)"><path id="path3917" d="m3661.8 1612.2-21.249 761.41 417.89-3.5414 49.58-772.03c-143.28-52.597-284.7-124.71-446.22 14.166z" clip-path="url(#clipPath3948)" fill="#fff"/><path id="path3915" d="m2780 2702.9c475.57-53.578 521.54-368.66 573.71-679.96-113.97-374.75-318.3-576.31-658.71-517.05-321.29 80.714-515.9 256.43-460.39 619.75 29.992 401.8 242.23 552.22 545.38 577.25z" clip-path="url(#clipPath3936)" fill="#fff"/><path id="path3907" style="color:#000000" d="m3418.2 2178.6c0 254.48-142.39 460.77-318.03 460.77s-318.03-206.29-318.03-460.77 142.39-460.77 318.03-460.77 318.03 206.29 318.03 460.77z" clip-path="url(#clipPath3932)" transform="matrix(1 0 0 1.0027 -47.579 -37.222)" fill="url(#linearGradient3966)"/><path id="path3909" style="color:#000000" d="m4036.7 1970.8c0 229.58-57.74 415.69-128.96 415.69-71.225 0-128.96-186.11-128.96-415.69s57.74-415.69 128.96-415.69c71.225 0 128.96 186.11 128.96 415.69z" clip-path="url(#clipPath3944)" transform="matrix(1.0336 .093333 -.096893 .99563 132.32 -356.12)" fill="url(#linearGradient3968)"/><path id="path3911" style="color:#000000" d="m3338.1 2134.8c0 204-103.15 369.37-230.38 369.37-127.24 0-230.38-165.37-230.38-369.37s103.15-369.37 230.38-369.37c127.24 0 230.38 165.37 230.38 369.37z" clip-path="url(#clipPath3928)" transform="matrix(.95938 -.076287 .071662 .99379 -60.543 226.55)"/><path id="path3913" style="color:#000000" d="m4099.3 2037.1c0 179.1-36.438 324.29-81.386 324.29s-81.386-145.19-81.386-324.29 36.438-324.29 81.386-324.29 81.386 145.19 81.386 324.29z" clip-path="url(#clipPath3940)" transform="matrix(.98912 0 0 1 .98664 6.4753)"/><path id="path3952" style="color:#000000" d="m3008.5 2065.5c0 95.838-39.639 173.53-88.536 173.53s-88.536-77.692-88.536-173.53 39.639-173.53 88.536-173.53 88.536 77.692 88.536 173.53z" transform="matrix(.94194 .24581 -.22286 1.039 630.75 -823.93)" fill="#fff"/><path id="path3954" style="color:#000000" d="m3132.7 2191.2c0 55.321-22.423 100.17-50.084 100.17-27.66 0-50.084-44.846-50.084-100.17 0-55.321 22.423-100.17 50.084-100.17 27.66 0 50.084 44.846 50.084 100.17z" transform="matrix(.97788 .20916 -.20916 .97788 526.5 -591.3)" fill="#fff"/><path id="path3956" style="color:#000000" d="m3972.9 1961.4c0 62.582-12.333 113.31-27.546 113.31s-27.546-50.732-27.546-113.31c0-62.582 12.333-113.31 27.546-113.31s27.546 50.732 27.546 113.31z" transform="matrix(1.0689 .14240 -.15036 1.0123 29.264 -584.78)" fill="#fff"/><path id="path3958" style="color:#000000" d="m4011.7 2086c0 34.575-7.5678 62.604-16.903 62.604-9.3354 0-16.903-28.029-16.903-62.604 0-34.576 7.5678-62.604 16.903-62.604 9.3353 0 16.903 28.029 16.903 62.604z" transform="matrix(.98896 .14815 -.14815 .98896 350.62 -570.06)" fill="#fff"/></g><g opacity=".5" transform="translate(559.16 -71.389)" stroke="#f00" display="none" fill="#0f0"><path id="path3889" style="color:#000000" d="m3205.3 2168.6c0 282.14-201.81 510.85-450.75 510.85s-450.75-228.72-450.75-510.85c0-282.14 201.81-510.85 450.75-510.85s450.75 228.72 450.75 510.85z" transform="matrix(1.0016 -.27231 .25692 .95529 -514.5 782.25)" display="inline" stroke-width=".98687"/><path id="path3892" d="m3728.7 2201.2c-9.2111-129.72-12.153-303.87 56.129-441.47 47.796-103.01 182.19-212.67 231.85-31.821 34.167 124.42 27.042 395.69-42.571 585.98-90.784 0.1569-177.97-14.816-245.41-112.69z" stroke-width="1px"/></g><g transform="translate(559.16 -71.389)"><path id="path4001" d="m3611 911.52c361.19 342.78 567.74 803.36 375.63 1404.8" stroke="#A57520" stroke-width="59" fill="none"/><path id="path3971" d="m2818.2 1583.1c-9.701-0.2602-19.509-0.1707-29.438 0.125-442.51 13.181-616.09 508.68-355.72 819.26-188.55-378.61-48.652-756.21 357.41-770.29 143.27-4.966 255.97 58.287 330.56 163.44s109.67 253.21 90 415.16l48.656 5.9062c20.934-172.39-15.783-332.57-98.688-449.44-77.723-109.57-197.27-180.25-342.78-184.16z"/><path id="path3977" d="m2355.1 1902.6c-57.843-21.354-109.43-18.911-173.53-5.3122 50.626-60.141 140.35-56.94 196.55-44.268z"/><path id="path3979" d="m2333.9 1988.3c-83.549-12.827-114.91 20.01-142.74 63.856 41.488-21.465 87.768-34.432 137.73-10.017z" stroke="#000" stroke-width="1px"/><path id="path3981" d="m2326.4 2098.5c-53.179 16.562-106.14 54.088-103.92 101.42 31.733-30.364 72.432-60.989 115.19-58.848z"/><path id="path3868-4" fill="#A57520" d="m3709.8 2186.2c34.644 111.65 152.05 162.39 277.54 163.78 26.235 0.2915 45.498 3.0792 54.844 9.0625 9.3461 5.9833 17.145 15.531 18.688 51.25l58.969-2.5309c-2.0013-46.352-18.327-80.79-45.844-98.406s-57.827-18.062-86-18.375c-105.2-1.1691-197.74-9.2599-278.19-104.78z"/><path id="path4003" d="m3929.3 1599.7c-12.287-0.5073-25.146 1.1624-36.563 6.8125-77.573 38.39-131.17 140.68-134.58 217.01 35.407-66.415 83.356-147.79 151.2-176.26 11.293-4.7391 19.106-4.6909 26.219-2.0312 14.226 5.3193 44.663 25.639 56.3 82.15s23.217 145.6 15.575 262.29l16.36 2.875c7.7973-119.06 11.601-208.58-1.3625-271.53-12.964-62.954-33.984-102.98-71.467-117-7.0279-2.6278-14.315-4.0081-21.687-4.3125z"/><path id="path4009" d="m4012.9 1825.5c52.17-19.227 115.61-10.758 156.51 5.0083-28.815-55.555-102.26-61.507-159.02-38.815z"/><path id="path4011" d="m4017.9 1900.7c54.955-34.81 118.18-7.8182 156.51 35.058-42.154-12.621-105.59-34.333-156.51 0z"/><path id="path4013" d="m4010.3 2013.7c43.501 0.998 98.317 23.656 131.92 37.542-22.057-34.13-80.346-69.402-128.91-69.046z"/></g><g transform="translate(559.16 -71.389)"><path id="path3861-8-2" d="m4481.5 1302.6c-75.9-335.59-255.3-660.05-536.3-883.9-471.3-375.29-1412.4-482.41-1957.3 34.96 34.124-79.091 116.72-206.93 201.26-263.24 64.389-42.89 59.798-93.564-56.568-45.255-554.91 230.37-605.95 630.35-565.69 910.75l401.64 130.11c212.55-149.85 406.8-315.97 882.47-231.93 261.09 28.424 445.78 209.63 633.57 384.67 67.356-173.91 60.142-396.3 412.95-384.67 419.44 205.95 559.24 674.6 481.05 1348 119.61-122.75 203.86-634.73 102.92-999.56z" fill="#EB698B"/><path id="path4018-8" fill="#E22C5F" d="m1764 2084c41.607 271.27 123.43 513.85 330 702-90 64.912-214 33.746-318-30 64.611 122.55 216.95 282.59 396 354-100.67 47.421-224.33 28.404-351-36 144.22 159.98 208.54 259.52 171.16 293.04-37.4 33.5-117.8 4.3-216.2-55-435.8-262.5-464.5-968-252-1452z"/><path id="path4042" fill="#E22C5F" d="m2254.3 261.12c-18.624 258.66 42.082 489.44 220.62 678.82l-164.05 42.426c-216.3-137.18-272.8-350.95-237.2-608.11z"/><path id="path4044" fill="#E22C5F" d="m2852 100c-83.125 41.885-117.61 95.932-160 148 70.605 56.279 121.93 116.41 166 178-164.25-5.685-233.92 67.109-248 184-12.765 105.96 40.198 207.13 86 308l218 44c43.052-82.16 49.164-173.96-30-288 110-51.985 220-61.07 330-16-40.6-121.4-96.5-232.25-206-306 140-81.79 342.7-115.51 552-124-222.7-98.1-453.5-162.48-708-128z"/><path id="path4046" fill="#E22C5F" d="m3208 1100c-28.702-622.33 603.99-691.28 986-416 257.96 294.92 487.3 1064.7 215.52 1534.4-3.8982-319.69-4.7336-639.69-155.56-944.69-355.7-431.42-627.3-471.81-772.1 76.4-87.3-90.1-171.3-185.5-273.8-250.1z"/><path id="path4020" fill="#EB698B" d="m1572.6 1949.7c-20.493 155.77-6.855 301.92 76.368 428.44-52.484-11.262-92.529 13.985-65.054 86.853 39.984 106.04 91.928 198.11 166.88 271.19 120.56 164.62 258.24 294.15 421.44 378.84-129.76 26.359-259.74 22.971-390.32-62.225-183.09-122.66-315.15-430.93-387.49-687.31 14.283-170.24 54.008-335.4 121.62-494.97z"/><path id="path3861-8" d="m4211.4 2041.1c64.038 83.813 114.48 175.9 157.87 269.31 156.65-266.84 194.88-643.04 112.28-1007.9-76-335.49-255.4-659.95-536.4-883.8-471.3-375.29-1412.4-482.41-1957.3 34.96 34.124-79.091 116.72-206.93 201.26-263.24 64.389-42.89 59.798-93.564-56.568-45.255-554.91 230.37-605.95 630.35-565.69 910.75" stroke="#B51252" stroke-miterlimit="7" stroke-width="59" fill="none"/><path id="path4040" d="m1924 1230.6c501.71-461.36 1143-377.28 1557.8 122.25 19.682-243.72 268.19-653.8 659.02-214.96 271.15 304.45 310.61 761.41 228.46 1172.5" stroke="#B51252" stroke-width="59" fill="none"/><path id="path4018" d="m1764 2084c41.607 271.27 123.43 513.85 330 702-90 64.912-214 33.746-318-30 64.611 122.55 226.95 286.59 406 358-100.67 47.421-234.33 32.476-361-31.929 137.15 168.46 209.96 259.94 164.09 289.21-45.9 29.2-110.7 0-209.1-59.3-435.8-262.5-468.5-972-256-1456" stroke="#B51252" stroke-miterlimit="7" stroke-width="59" fill="none"/></g><g transform="translate(559.16 -71.389)"><path id="path4093" fill="#D79F48" d="m2108 1408-188 904c-125.19-62.739-241.41-158.38-344-304-162.13-233.45-283.21-615.12 0-1124 112-106.15 224-187.78 336-12 101.6 155.58 177.1 327.79 196 536z"/><path id="path4085" fill="#A57520" d="m1762.9 737.41c-15.811-0.351-31.694 1.5908-47.406 5.9375-62.849 17.387-119.74 68.92-168.69 149.31-156.58 257.15-197.05 518.7-155.03 752.1 55.363 307.57 285.96 586.25 547.97 676.36-237.98-133.88-437.64-394.01-490.65-682.06-40.548-220.33-2.3226-468.7 148.08-715.72 44.119-72.456 91.864-111.45 134.06-123.12 42.199-11.674 82.057-0.46319 124.06 40.812 142.07 139.6 199.8 407.97 244.89 577.1 1.0955-174.87-43.029-461.46-203.52-619.16-39.55-38.863-86.349-60.509-133.78-61.562z"/><path id="path4087" fill="#A57520" d="m1668.8 1160.6c-121.79 263.09-80.866 505.29 98.995 692.96-99.815-200.81-127.35-446.92-98.995-692.96z"/></g></svg>