<?xml version="1.0" encoding="UTF-8" standalone="no"?>
<!-- Created with Inkscape (http://www.inkscape.org/) -->

<svg
   xmlns:dc="http://purl.org/dc/elements/1.1/"
   xmlns:cc="http://creativecommons.org/ns#"
   xmlns:rdf="http://www.w3.org/1999/02/22-rdf-syntax-ns#"
   xmlns:svg="http://www.w3.org/2000/svg"
   xmlns="http://www.w3.org/2000/svg"
   xmlns:sodipodi="http://sodipodi.sourceforge.net/DTD/sodipodi-0.dtd"
   xmlns:inkscape="http://www.inkscape.org/namespaces/inkscape"
   width="5860.4546"
   height="5860.4521"
   id="svg2"
   version="1.1"
   inkscape:version="0.48.4 r9939"
   sodipodi:docname="Braeburn.svg">
  <title
     id="title833">Braeburn</title>
  <defs
     id="defs4" />
  <sodipodi:namedview
     id="base"
     pagecolor="#ffffff"
     bordercolor="#666666"
     borderopacity="1.0"
     inkscape:pageopacity="0.0"
     inkscape:pageshadow="2"
     inkscape:zoom="0.099833333"
     inkscape:cx="2945.3754"
     inkscape:cy="2914.1706"
     inkscape:document-units="px"
     inkscape:current-layer="layer12"
     showgrid="false"
     fit-margin-top="0"
     fit-margin-left="638.76"
     fit-margin-right="638.76"
     fit-margin-bottom="0"
     inkscape:window-width="1280"
     inkscape:window-height="1002"
     inkscape:window-x="-8"
     inkscape:window-y="-2"
     inkscape:window-maximized="1"
     inkscape:snap-global="true"
     inkscape:object-paths="false"
     inkscape:object-nodes="false" />
  <metadata
     id="metadata7">
    <rdf:RDF>
      <cc:Work
         rdf:about="">
        <dc:format>image/svg+xml</dc:format>
        <dc:type
           rdf:resource="http://purl.org/dc/dcmitype/StillImage" />
        <dc:title>Braeburn</dc:title>
      </cc:Work>
    </rdf:RDF>
  </metadata>
  <g
     inkscape:groupmode="layer"
     id="layer2"
     inkscape:label="Background"
     sodipodi:insensitive="true"
     style="display:none"
     transform="translate(595.3754,-53.71875)">
    <rect
       style="color:#000000;fill:#000000;fill-opacity:1;fill-rule:nonzero;stroke:#00ff00;stroke-width:1;stroke-linecap:butt;stroke-linejoin:miter;stroke-miterlimit:4;stroke-opacity:1;stroke-dasharray:none;stroke-dashoffset:0;marker:none;visibility:visible;display:inline;overflow:visible;enable-background:accumulate"
       id="rect3794"
       width="4767.9468"
       height="6060.1001"
       x="-20.033388"
       y="-20.033388" />
  </g>
  <g
     inkscape:groupmode="layer"
     id="layer12"
     inkscape:label="Shadow"
     style="opacity:0.2;display:none"
     sodipodi:insensitive="true"
     transform="translate(595.3754,-53.71875)">
    <path
       sodipodi:type="arc"
       style="color:#000000;fill:#000000;fill-opacity:1;fill-rule:nonzero;stroke:none;stroke-width:1px;marker:none;visibility:visible;display:inline;overflow:visible;enable-background:accumulate"
       id="path3798"
       sodipodi:cx="2388.9817"
       sodipodi:cy="5794.6577"
       sodipodi:rx="1567.6127"
       sodipodi:ry="155.25876"
       d="m 3956.5944,5794.6577 c 0,85.7471 -701.8441,155.2588 -1567.6127,155.2588 -865.7686,0 -1567.61268,-69.5117 -1567.61268,-155.2588 0,-85.747 701.84408,-155.2587 1567.61268,-155.2587 865.7686,0 1567.6127,69.5117 1567.6127,155.2587 z"
       transform="matrix(1.0127796,0,0,1.0055346,-70.596896,-9.9632534)" />
  </g>
  <g
     inkscape:groupmode="layer"
     id="layer3"
     inkscape:label="Rear Legs"
     style="display:inline"
     sodipodi:insensitive="true"
     transform="translate(595.3754,-53.71875)">
    <path
       style="fill:#d8c373;fill-opacity:1;stroke:none"
       d="m 2739.5659,2511.6861 170.2839,-62.6043 5.0083,-305.5092 c 14.9849,-141.7925 124.8421,-150.7636 237.8965,-155.2587 398.2335,2.9053 766.0203,181.1494 999.1653,443.2387 58.2537,100.356 14.8891,157.9254 -52.5877,205.3422 -119.0833,69.4873 -270.0472,88.8765 -435.7262,85.1419 -62.0622,1.8589 -111.2587,-41.3125 -160.2671,-85.1419 l -150.2504,-172.788 c -48.5055,101.1879 -83.1991,210.2684 -85.1419,338.0635 l -438.2304,32.5542 z"
       id="path3810"
       inkscape:connector-curvature="0"
       sodipodi:nodetypes="cccccccccccc" />
    <path
       style="fill:#d8c373;fill-opacity:1;stroke:#d09f29;stroke-width:39;stroke-linecap:butt;stroke-linejoin:round;stroke-miterlimit:4;stroke-opacity:1;stroke-dasharray:none"
       d="m 2336.988,4001.0091 c -45.1202,411.7626 -29.7088,726.1533 30.3625,981.494 67.0813,285.1371 189.2351,497.8757 332.3773,715.5446 54.4095,82.7378 34.4666,95.5331 -36.3895,100.0762 -108.2467,6.9405 -237.8586,8.4255 -358.1702,2.472 -77.339,-3.8271 -103.4372,-11.6886 -131.5219,-86.9741 -126.7165,-339.6842 -240.261,-677.2192 -272.2361,-1042.2754 21.4699,-0.8001 47.9334,-1.253 69.418,-1.1483 36.566,0.1781 54.7607,-17.8873 33.9087,-64.7022 -25.0086,-56.1468 -82.5176,-105.2425 -140.0962,-147.6958 85.0394,-189.1949 278.023,-325.017 472.3474,-456.791 z"
       id="path3767"
       inkscape:connector-curvature="0"
       sodipodi:nodetypes="cssssscsscc" />
    <path
       style="font-size:medium;font-style:normal;font-variant:normal;font-weight:normal;font-stretch:normal;text-indent:0;text-align:start;text-decoration:none;line-height:normal;letter-spacing:normal;word-spacing:normal;text-transform:none;direction:ltr;block-progression:tb;writing-mode:lr-tb;text-anchor:start;baseline-shift:baseline;color:#000000;fill:#d09f29;fill-opacity:1;stroke:none;stroke-width:39;marker:none;visibility:visible;display:inline;overflow:visible;enable-background:accumulate;font-family:Sans;-inkscape-font-specification:Sans"
       d="m 3177.8125,1970.75 c -21.8855,-0.1464 -43.3773,0.4974 -64.3437,1.9375 -51.7511,3.5545 -107.7199,14.2401 -151.5626,46.3125 -43.8426,32.0724 -72.6813,86.8653 -68.25,166.5 8.3772,150.5438 -1.3613,314.0004 -33.3124,456.5 l 38.0624,8.5312 c 32.9689,-147.0387 42.744,-313.4511 34.1876,-467.2187 -3.8915,-69.9314 18.225,-107.8535 52.3437,-132.8125 34.1187,-24.959 83.1245,-35.6029 131.2187,-38.9062 318.4544,-21.8731 779.65,161.1696 994.9688,406.7187 30.8724,35.2068 46.9507,70.5557 47.2188,101.375 0.268,30.8193 -13.4903,59.1943 -50.9688,85.9063 -127.5001,90.8729 -282.7371,93.2652 -438.7188,95.5312 -52.1737,0.758 -105.1727,-25.7129 -161.9687,-92.3125 -116.4005,-136.4923 -271.0275,-280.566 -423.544,-325.2434 132.9594,73.0188 279.3436,216.2404 393.8877,350.5559 61.3995,71.9976 126.1307,106.9596 192.1876,106 155.8935,-2.2648 321.4399,-3.4688 460.7812,-102.7812 45.0562,-32.1129 67.7241,-74.2643 67.3438,-118 -0.3804,-43.7358 -22.0034,-86.9468 -56.9063,-126.75 -212.7373,-242.6053 -634.3423,-419.6479 -962.625,-421.8438 z"
       id="path3800"
       inkscape:connector-curvature="0"
       sodipodi:nodetypes="ssssccsssssssscssssss" />
    <path
       style="fill:none;stroke:#d09f29;stroke-width:39;stroke-linecap:butt;stroke-linejoin:miter;stroke-miterlimit:4;stroke-opacity:1;stroke-dasharray:none"
       d="m 3350.5843,2474.1235 c -50.7137,83.4692 -73.4159,199.3641 -80.1335,308.0134"
       id="path3802"
       inkscape:connector-curvature="0"
       sodipodi:nodetypes="cc" />
    <path
       style="fill:none;stroke:#d09f29;stroke-width:39;stroke-linecap:butt;stroke-linejoin:miter;stroke-miterlimit:4;stroke-opacity:1;stroke-dasharray:none"
       d="m 2909.8498,2446.5777 c -44.2404,17.5292 -88.4808,35.0584 -132.7212,52.5876"
       id="path3804"
       inkscape:connector-curvature="0"
       sodipodi:nodetypes="cc" />
  </g>
  <g
     inkscape:groupmode="layer"
     id="layer5"
     inkscape:label="Tail"
     style="display:inline"
     sodipodi:insensitive="true"
     transform="translate(595.3754,-53.71875)">
    <path
       style="fill:#e1ca6e;fill-opacity:1;stroke:none;display:inline"
       d="M 1330.5167,3737.525 C 1206.8043,3414.3675 715.07482,3138.6232 344.98748,3398.0209 394.68036,3393.6667 468.14002,3402.3333 516.5,3410.5 -33.703669,3560.2562 -84.015322,4429.1863 368.98748,4857.4791 535.94096,5015.3258 624.04305,5217.362 625,5410.5 c 99.2969,-69.3619 89.77906,-192.8807 82,-290 95.24295,147.3064 73.9418,342.7829 63,508 275.407,-140.6817 377.1626,-434.4978 289.5,-757 26.3333,0.4997 52.6667,0.3336 79,-0.5 -255.64714,-304.2251 -294.54101,-528.0661 -304,-757.5543 -9.45899,-229.4881 202.9715,-280.8224 505,-144.9457"
       id="path3773-1"
       inkscape:connector-curvature="0"
       sodipodi:nodetypes="cccsccccczc" />
    <path
       style="fill:#d99e42;fill-opacity:1;stroke:none"
       d="m 929.04842,5514.1903 c 9.39999,-257.8575 14.47511,-528.2569 -127.71286,-692.6478 -152.89989,-176.7755 -262.64722,-367.7068 -338.06344,-576.9682 -52.01326,96.313 -71.38258,231.7875 -57.59599,365.6094 -212.63567,-349.3058 -189.70066,-781.4216 165.27545,-873.9567 354.97611,-92.5351 611.01832,42.74 776.29382,180.3005 l -27.5459,37.5626 c -114.3573,-37.7677 -228.7145,-68.5349 -343.07179,-60.1001 -124.52504,29.8734 -135.97282,122.5675 -142.73789,217.8631 6.51379,234.4891 101.87855,562.913 308.01338,751.2521 l -72.6211,5.0083 c 60.2993,281.8 -7.3544,484.1808 -140.23368,646.0768 z"
       id="path3812"
       inkscape:connector-curvature="0"
       sodipodi:nodetypes="cscczccccccc" />
    <path
       style="fill:none;stroke:#ae7c25;stroke-width:39;stroke-linecap:butt;stroke-linejoin:miter;stroke-miterlimit:9;stroke-opacity:1;stroke-dasharray:none"
       d="M 1330.5167,3737.525 C 1206.8043,3414.3675 715.07482,3138.6232 344.98748,3398.0209 394.68036,3393.6667 468.14002,3402.3333 516.5,3410.5 -33.703668,3560.2562 -84.015323,4429.1863 368.98748,4857.4791 535.94096,5015.3258 624.04305,5217.362 625,5410.5 c 99.2969,-69.3619 89.77906,-192.8807 82,-290 95.24295,147.3064 73.9418,342.7829 63,508 275.407,-140.6817 377.1626,-434.4978 289.5,-757 26.3333,0.4997 52.6667,0.3336 79,-0.5 -255.64714,-304.2251 -294.54101,-528.0661 -304,-757.5543 -9.45899,-229.4881 202.9715,-280.8224 505,-144.9457"
       id="path3773"
       inkscape:connector-curvature="0"
       sodipodi:nodetypes="cccsccccczc" />
  </g>
  <g
     inkscape:groupmode="layer"
     id="layer4"
     inkscape:label="Body + Back Right Leg"
     style="display:inline"
     sodipodi:insensitive="true"
     transform="translate(595.3754,-53.71875)">
    <path
       style="fill:#99642f;fill-opacity:1;stroke:#50371b;stroke-width:39;stroke-linecap:butt;stroke-linejoin:miter;stroke-miterlimit:4;stroke-opacity:1;stroke-dasharray:none"
       d="m 2676.9616,2446.5776 c 372.1931,133.6756 465.3925,479.8618 212.8548,904.0067 l -313.0217,-738.7312 z"
       id="path3834"
       inkscape:connector-curvature="0"
       sodipodi:nodetypes="cccc" />
    <path
       style="fill:#ede58f;fill-opacity:1;stroke:#d09f29;stroke-width:39;stroke-linecap:butt;stroke-linejoin:round;stroke-miterlimit:4;stroke-opacity:1;stroke-dasharray:none"
       d="m 1621.5,3324.5 c -557.6314,358.4473 -274.0001,912.4955 -112.0835,1268.6937 26.6159,58.5519 24.5231,83.8026 -43.2835,79.0644 -29.2662,-2.045 -62.4615,-6.8847 -84.133,-7.2581 -79.7604,343.9297 -99.3742,686.5297 -103.5509,1018.2162 -1.3344,105.967 18.9303,202.2464 117.7584,206.5993 137.8995,6.0739 272.9606,7.3694 408.829,-1.4881 91.5298,-5.967 98.8061,-43.2636 82.2315,-94.0955 -115.4488,-354.0643 -163.4016,-784.4358 -24.7487,-1187.9394 88.3306,-257.0571 170.2901,-273.93 292.0351,-369.1097 228.2877,-178.4743 470.4851,-381.7419 609.2603,-661.6449"
       id="path3770"
       inkscape:connector-curvature="0"
       sodipodi:nodetypes="csscssssssc" />
    <path
       style="fill:#ede58f;fill-opacity:1;stroke:#d09f29;stroke-width:39;stroke-linecap:butt;stroke-linejoin:miter;stroke-miterlimit:4;stroke-opacity:1;stroke-dasharray:none"
       d="m 1957.9846,1798.2117 c 507.9224,183.2728 818.8284,561.5851 881.5659,1053.4514 l -1309.65,-258.5248 -230.1934,-835.779 z"
       id="path3832"
       inkscape:connector-curvature="0"
       sodipodi:nodetypes="ccccc" />
  </g>
  <g
     inkscape:groupmode="layer"
     id="layer13"
     inkscape:label="Cutie Mark"
     style="display:inline"
     sodipodi:insensitive="true"
     transform="translate(595.3754,-53.71875)">
    <path
       style="fill:#423415;fill-opacity:1;stroke:none"
       d="m 1480.3204,3852.1189 c -4.1356,-47.2192 -7.8176,-96.9719 -4.7936,-144.1617 1.5959,-24.9034 -25.8861,-29.2376 -26.5607,0 -1.1028,47.8014 2.8326,98.123 15.4178,145.9324 z"
       id="path3845"
       inkscape:connector-curvature="0"
       sodipodi:nodetypes="csscc" />
    <path
       style="fill:#df3825;fill-opacity:1;stroke:none"
       d="m 1478.7145,3847.6628 c -24.3512,-37.0825 -100.2962,-112.6512 -122.7045,-27.5459 -26.6036,101.0387 24.5879,231.3051 88.8981,304.2571 33.4818,37.9809 75.1724,66.0729 103.9233,-7.5126 5.359,-13.7159 14.3745,-11.5331 18.7813,-2.5041 24.5587,50.3179 63.5452,35.6416 75.1252,-31.3022 15.876,-91.7783 7.5653,-190.2827 -42.571,-259.182 -44.4237,-61.0488 -106.9826,-34.7593 -121.4524,23.7897 z"
       id="path3847"
       inkscape:connector-curvature="0"
       sodipodi:nodetypes="cssssssc" />
  </g>
  <g
     inkscape:groupmode="layer"
     id="layer6"
     inkscape:label="Vest"
     style="display:inline"
     sodipodi:insensitive="true"
     transform="translate(595.3754,-53.71875)">
    <path
       style="fill:#ede58f;fill-opacity:1;stroke:none"
       d="m 2176,2712 568,32 -12,544 -588,-28 z"
       id="path3879"
       inkscape:connector-curvature="0" />
    <path
       style="fill:#99642f;fill-opacity:1;stroke:#50371b;stroke-width:39;stroke-linecap:butt;stroke-linejoin:miter;stroke-miterlimit:4;stroke-opacity:1;stroke-dasharray:none"
       d="M 1917.6875,2351.3438 C 1858.2851,2516.0273 1805.8992,2684.9145 1710.5,2828 c -63.2321,146.6327 -127.4106,291.7681 -189,441 304.2625,179.8622 593.5593,376.8317 918.5,406 137.2627,12.3214 263.0491,-13.1505 338,-118 86.7403,-121.3417 132.4427,-261.1478 164.5,-401.5 l -40.4062,-298.6875 c -53.856,-157.9203 -652.3305,-440.7266 -984.4063,-505.4687 z m 535.9687,429.8124 c 125.7957,0 227.7813,98.8284 227.7813,220.7188 0,121.8903 -101.9856,220.6875 -227.7813,220.6875 -125.7956,0 -227.7812,-98.7972 -227.7812,-220.6875 0,-121.8904 101.9856,-220.7188 227.7812,-220.7188 z"
       id="path3776"
       inkscape:connector-curvature="0" />
    <path
       style="fill:none;stroke:#d09f29;stroke-width:27;stroke-linecap:round;stroke-linejoin:round;stroke-miterlimit:4;stroke-opacity:1;stroke-dasharray:none"
       d="m 2712.4616,2806.7058 c -15.8456,-18.1855 -34.2991,-36.2776 -54.9692,-54.1176 -21.1297,-18.2367 -44.5756,-36.21 -69.9196,-53.7504 m -75.138,-47.5849 c -23.465,-13.6564 -47.9532,-26.913 -73.2314,-39.6751 m -91.8569,-42.7247 c -24.1032,-10.3135 -48.6237,-20.1377 -73.3922,-29.404 m -82.9009,-28.6177 c -27.9958,-8.8611 -56.0667,-16.9342 -83.978,-24.1242 m -62.4541,-14.6516 c -31.5611,-6.6598 -62.6811,-12.0658 -93.0066,-16.0748 -10.5702,25.9927 -21.1339,51.9871 -31.723,77.9751 m -142.802,339.4121 c -15.4597,34.9173 -31.2198,69.7595 -47.359,104.5069 m -25.1328,53.366 c -15.0112,31.4263 -30.3677,62.7662 -46.1283,94.0051 m -37.3719,72.3911 c -3.8822,7.346 -7.7895,14.6857 -11.7227,22.019 23.3042,17.8465 46.3358,34.8867 69.1832,51.1725 m 64.1683,44.0712 c 23.5661,15.5626 47.0219,30.3567 70.4678,44.4414 m 80.4486,45.5732 c 25.9005,13.7905 51.9275,26.8049 78.2144,39.1217 m 76.3238,33.5231 c 29.2792,12.0277 59.0174,23.3184 89.3863,33.9733 m 67.1345,22.2171 c 15.3869,4.7993 30.9555,9.4634 46.7261,14.0041 15.1507,4.3622 30.7306,8.4222 46.6061,12.099 m 83.5824,15.124 c 30.181,3.8882 60.5848,6.0294 90.3934,5.9282 m 87.8401,-7.7141 c 27.6538,-5.128 53.8956,-12.9782 77.9168,-24.0402 m 74.2268,-53.1565 c 6.2167,-6.7844 12.0413,-14.0372 17.4386,-21.7795 12.8391,-18.4174 24.6192,-36.4616 35.3812,-54.153 m 48.9308,-93.3004 c 13.9474,-31.9596 24.3448,-62.7313 31.492,-92.464"
       id="path3849"
       inkscape:connector-curvature="0"
       sodipodi:nodetypes="csccccccccccccccccccccccccsccccccsccc" />
    <path
       style="fill:none;stroke:#d09f29;stroke-width:27;stroke-linecap:round;stroke-linejoin:round;stroke-miterlimit:4;stroke-opacity:1;stroke-dasharray:none"
       d="m 2308,2768 c -23.9509,13.6781 -46.9071,32.1839 -67.4965,54.3278 m -52.9062,75.3995 c -13.2622,25.6913 -23.4283,53.4255 -29.4589,82.3016 m -5.3073,82.2328 c 2.2128,26.7905 8.4308,53.8244 19.3783,80.4739 m 40.679,64.4133 c 21.2938,22.2254 47.2362,38.2342 75.4526,49.1425 m 75.2842,17.4323 c 29.45,2.9641 59.1436,2.0212 86.9147,-1.8106 m 68.5061,-16.542 C 2538.8082,3248.2 2555.6101,3239.5156 2568,3230"
       id="path3851"
       inkscape:connector-curvature="0"
       sodipodi:nodetypes="cccccccccccc" />
    <!--S%i%g%m%a-->
  </g>
  <g
     inkscape:groupmode="layer"
     id="layer7"
     inkscape:label="Front Right Leg"
     style="display:inline"
     sodipodi:insensitive="true"
     transform="translate(595.3754,-53.71875)">
    <path
       style="fill:#ede58f;fill-opacity:1;stroke:none;display:inline"
       d="m 3046.216,3164.5017 c 316.2439,119.4602 603.8405,183.0725 896.6114,209.3036 94.4243,8.4601 183.6957,12.3981 257.3869,-56.5685 148.4723,-138.9533 308.2426,-322.2007 389.6158,-490.7321 37.697,-78.0738 31.9264,-156.9695 -127.9863,-152.735 -211.2347,5.5935 -809.0904,92.008 -1202.7887,27.5771 -115.6068,-18.9197 -174.275,11.1618 -255.9726,34.6483 -201.7175,57.9899 -416.8249,76.8213 -622.8287,109.624 l 74.7162,355.6361 c 179.1686,45.5206 358.3373,29.3073 537.5059,24.0578 z"
       id="path3781-2"
       inkscape:connector-curvature="0"
       sodipodi:nodetypes="csssssscccc" />
    <path
       style="font-size:medium;font-style:normal;font-variant:normal;font-weight:normal;font-stretch:normal;text-indent:0;text-align:start;text-decoration:none;line-height:normal;letter-spacing:normal;word-spacing:normal;text-transform:none;direction:ltr;block-progression:tb;writing-mode:lr-tb;text-anchor:start;baseline-shift:baseline;color:#000000;fill:#d09f29;fill-opacity:1;stroke:none;stroke-width:39;marker:none;visibility:visible;display:inline;overflow:visible;enable-background:accumulate;font-family:Sans;-inkscape-font-specification:Sans"
       d="m 3052.8125,3157.2812 c -4.301,7.1462 -26.1758,21.3463 -60.5625,31.375 -34.3867,10.0288 -80.0743,17.787 -130.4375,22.9063 -100.7265,10.2385 -282.5554,12.1247 -406.8425,-10.3073 119.7128,55.5679 306.9643,59.6411 410.78,49.0886 51.9079,-5.2763 99.3593,-13.1538 137.4062,-24.25 38.047,-11.0963 67.926,-23.517 83.0938,-48.7188 z"
       id="path3859"
       inkscape:connector-curvature="0"
       sodipodi:nodetypes="csscsscc" />
    <path
       style="font-size:medium;font-style:normal;font-variant:normal;font-weight:normal;font-stretch:normal;text-indent:0;text-align:start;text-decoration:none;line-height:normal;letter-spacing:normal;word-spacing:normal;text-transform:none;direction:ltr;block-progression:tb;writing-mode:lr-tb;text-anchor:start;baseline-shift:baseline;color:#000000;fill:#d09f29;fill-opacity:1;stroke:none;stroke-width:39;marker:none;visibility:visible;display:inline;overflow:visible;enable-background:accumulate;font-family:Sans;-inkscape-font-specification:Sans"
       d="m 4493.4375,2662.5938 c -4.8834,-0.031 -9.9198,0.018 -15.125,0.1562 -107.5124,2.8469 -313.2078,23.7458 -541.9687,35.8438 -228.761,12.0979 -480.1092,15.2517 -674.125,-16.5 -119.8957,-19.6217 -184.7005,12.2064 -264.5313,35.1562 -199.4503,57.3382 -501.2634,101.6708 -608.9484,117.0554 108.315,13.3847 415.7449,-20.9136 619.7297,-79.5554 83.5643,-24.0232 136.1195,-52.374 247.4374,-34.1562 199.6825,32.6791 452.5834,29.0948 682.4688,16.9374 229.8854,-12.1573 437.2464,-33.0346 540.9688,-35.7812 38.3145,-1.0146 64.5122,3.4227 80.5,10.125 15.9877,6.7023 21.826,14.1239 25,23.7188 6.3479,19.1897 -4.7233,56.0046 -23.7188,93.4062 -85.4757,168.2995 -226.9862,336.1777 -374.25,474 -67.6842,63.3447 -148.4406,59.7855 -242.3125,51.375 -208.84,-18.7112 -414.8592,-56.5018 -630.8247,-120.2612 -85.0776,-25.1175 -251.6988,-84.265 -290.1214,-95.8382 21.5774,40.4268 193.2049,107.9005 279.3258,133.3098 218.3439,64.4206 427.003,102.7153 638.1516,121.6334 94.9766,8.5095 192.7393,12.8384 272.4374,-61.75 149.6808,-140.0843 293.7908,-310.3924 382.375,-484.8126 20.2637,-39.8985 39.3084,-82.9868 25.9688,-123.3124 -6.6698,-20.1629 -23.1364,-37.4468 -46.9688,-47.4376 -20.8533,-8.7419 -47.2851,-13.097 -81.4687,-13.3124 z"
       id="path3781"
       inkscape:connector-curvature="0"
       sodipodi:nodetypes="ccssscsssssssssscssssssc" />
  </g>
  <g
     inkscape:groupmode="layer"
     id="layer8"
     inkscape:label="Head + Eye"
     style="display:inline"
     sodipodi:insensitive="true"
     transform="translate(595.3754,-53.71875)">
    <path
       style="fill:#ede58f;fill-opacity:1;stroke:none"
       d="m 1504,496.00001 468,36 392,-72 100,296 c -60.9268,92.48778 -145.4162,156.70056 -244,204 123.0292,239.79829 271.1347,235.10349 424,183.99999 l 20,204 c -176.6311,186.0356 -369.1316,364.687 -590.8284,505.6569 L 1204,2092 836,1128 z"
       id="path3893"
       inkscape:connector-curvature="0"
       sodipodi:nodetypes="ccccccccccc" />
    <path
       style="fill:#000000;fill-opacity:1;stroke:none"
       d="M 2054.8522,1048.8385 C 1945.9375,920.97712 1640.2669,821.05557 1483.51,988.02727 c -143.029,152.34923 -37.0396,375.71043 82.0243,459.61943 35.3071,24.8823 24.1655,47.4126 -21.2131,21.2132 -96.0668,-55.4642 -262.9645,-329.7778 -74.9533,-509.1169 162.4111,-154.91985 511.5065,-67.77992 585.4843,89.0955 z"
       id="path3774"
       inkscape:connector-curvature="0"
       sodipodi:nodetypes="cssssc" />
    <path
       style="fill:#f67033;stroke:none"
       d="m 2315.0675,1103.9928 c 39.4374,48.4045 93.5461,67.4663 155.5635,70.7107 -25.0931,-83.5769 -96.709,-104.8418 -155.5635,-70.7107 z"
       id="path3777"
       inkscape:connector-curvature="0"
       sodipodi:nodetypes="ccc" />
    <path
       style="font-size:medium;font-style:normal;font-variant:normal;font-weight:normal;font-stretch:normal;text-indent:0;text-align:start;text-decoration:none;line-height:normal;letter-spacing:normal;word-spacing:normal;text-transform:none;direction:ltr;block-progression:tb;writing-mode:lr-tb;text-anchor:start;baseline-shift:baseline;color:#000000;fill:#d09f29;fill-opacity:1;stroke:none;stroke-width:39;marker:none;visibility:visible;display:inline;overflow:visible;enable-background:accumulate;font-family:Sans;-inkscape-font-specification:Sans"
       d="m 2375.6875,443.3125 -16.0937,3 c -134.8448,25.01184 -269.3659,47.80699 -403.5626,61.28125 l 3.9063,38.8125 c 130.5163,-13.10473 260.6603,-34.90474 390.5,-58.8125 32.7673,88.67614 63.2862,180.8566 89.6875,270.96875 -57.3496,86.54011 -141.932,138.92939 -235.7188,177.5 l -18.9374,7.78125 8.7187,18.53125 c 38.4563,81.7598 96.2848,153.5854 172.8125,194.8125 71.0404,38.271 158.1454,48.8605 255.5625,16.9375 8.3793,53.6884 16.342,106.6706 17.8125,160.2188 -113.5784,125.7292 -247.9906,239.8183 -381.9375,355.9687 -89.3043,77.4391 -168.5521,132.005 -256.75,157.4375 -88.1979,25.4325 -228.5774,18.6213 -315.9743,-2.0101 74.6031,43.3686 230.3191,67.3273 326.7868,39.5101 96.4677,-27.8172 180.4385,-86.506 271.5,-165.4688 135.7808,-117.7405 273.6665,-234.299 390.6562,-365.1874 3.1802,-3.558 5.0373,-9.0813 4.9688,-13.3126 -1.0986,-67.8175 -12.245,-132.596 -22.125,-196.4374 l -3.7188,-24 -22.6562,8.8124 c -97.7086,38.0928 -178.6312,29.2954 -245.6562,-6.8124 -61.6624,-33.2189 -111.4497,-90.9328 -146.9063,-159.1563 93.1488,-40.80027 180.3019,-97.95317 239.375,-191.53125 3.299,-5.226 3.8318,-10.31573 2.2187,-15.84375 -28.8571,-98.89347 -62.4367,-200.61457 -98.75,-297.65625 z"
       id="path3779"
       inkscape:connector-curvature="0"
       sodipodi:nodetypes="cccccccccsccsscsssscccscsscc" />
    <path
       style="fill:#d09f29;fill-opacity:1;stroke:none"
       d="m 2235.1645,628.10993 c 25.3264,19.08216 49.1519,21.65465 70.7107,-0.70711 -9.7394,74.07973 -71.7651,46.57754 -70.7107,0.70711 z"
       id="path3782"
       inkscape:connector-curvature="0"
       sodipodi:nodetypes="ccc" />
  </g>
  <g
     inkscape:groupmode="layer"
     id="layer11"
     inkscape:label="Mane"
     style="display:inline"
     sodipodi:insensitive="true"
     transform="translate(595.3754,-53.71875)">
    <path
       style="fill:#d99e42;fill-opacity:1;stroke:none"
       d="m 828.72915,1570.6831 c 94.69225,146.2925 165.37956,300.5974 149.90663,483.6611 -13.8286,125.0792 -72.00479,241.2888 -121.62236,359.2102 47.75805,-9.7861 92.70913,-30.8001 132.93607,-70.7107 -8.17493,121.9774 49.07821,219.4193 98.99491,319.6123 88.6241,84.6278 177.2481,100.7309 265.8722,87.6812 80.1388,2.7471 160.2775,-31.6865 240.4163,39.598 6.8275,52.5975 13.5982,105.2113 -31.1127,172.5341 162.4075,-2.9857 302.3076,-56.6131 404.4651,-195.1615 57.4603,-141.4044 -7.7293,-241.9254 -107.4803,-330.926 -69.7679,-37.1853 -139.5357,-70.6539 -209.3036,-144.2498 8.6521,-189.5973 -107.2779,-554.4841 -441.2346,-596.7981 l 65.0538,-113.1371 z"
       id="path3899"
       inkscape:connector-curvature="0"
       sodipodi:nodetypes="cccccccccccccc" />
    <path
       style="fill:#e1ca6e;fill-opacity:1;stroke:none"
       d="m 1420,2407.0001 c 238.5632,15.3444 420.6746,118.3554 571.9999,269 -0.5145,-72.4704 -41.2953,-143.1901 -103,-213 -148.5334,-75.8182 -319.0368,-105.8132 -468.9999,-56 z"
       id="path3803"
       inkscape:connector-curvature="0"
       sodipodi:nodetypes="cccc" />
    <path
       style="fill:#e1ca6e;fill-opacity:1;stroke:none"
       d="m 866.99998,1627.0001 c 217.69792,91.311 324.78772,236.1096 293.00002,407 -39.2314,210.9075 -35.8116,485.6277 287,534 -132.1319,27.6212 -281.1798,41.1407 -430,-59 l -31.00003,-166 c -42.1411,31.91 -85.55945,59.9883 -132.99999,76 103.7692,-192.6864 144.08236,-340.1378 124.99999,-500 -21.14255,-102.2125 -55.2417,-200.4384 -110.99999,-292 z"
       id="path3801"
       inkscape:connector-curvature="0"
       sodipodi:nodetypes="cscccccc" />
    <path
       style="font-size:medium;font-style:normal;font-variant:normal;font-weight:normal;font-stretch:normal;text-indent:0;text-align:start;text-decoration:none;line-height:normal;letter-spacing:normal;word-spacing:normal;text-transform:none;direction:ltr;block-progression:tb;writing-mode:lr-tb;text-anchor:start;baseline-shift:baseline;color:#000000;fill:#ae7c25;fill-opacity:1;stroke:none;stroke-width:39;marker:none;visibility:visible;display:inline;overflow:visible;enable-background:accumulate;font-family:Sans;-inkscape-font-specification:Sans"
       d="m 849.9375,1575.7812 -31.875,22.4376 c 123.13931,175.0387 155.78838,309.7088 144.71875,434.5624 -11.06963,124.8537 -67.43629,241.6477 -127.59375,376.25 l -17,38.0938 40.125,-11.375 c 92.21802,-26.1017 207.3751,-112.5491 209.6039,-197.0213 -45.7711,61.5278 -115.49143,115.5696 -178.2289,144.0838 52.81398,-117.2931 101.31282,-226.7587 111.9375,-346.5937 11.8997,-134.2164 -24.94209,-280.2729 -151.6875,-460.4376 z"
       id="path3797"
       inkscape:connector-curvature="0"
       sodipodi:nodetypes="ccscccccsc" />
    <path
       style="fill:none;stroke:#ae7c25;stroke-width:39;stroke-linecap:butt;stroke-linejoin:miter;stroke-miterlimit:19;stroke-opacity:1;stroke-dasharray:none"
       d="m 989.99997,2339.0001 c -0.55486,204.5889 112.21733,453.9463 361.00003,413 287.6203,-47.3384 294.1584,75.5022 205,214 509.317,-45.9314 525.7468,-388.7418 273,-546 -144.2646,-89.7609 -204.6826,-107.6501 -311.6152,-293.5442 47.8887,38.6096 94.118,98.2869 137.6152,131.5442 5.0573,-147.9409 -121.9965,-524.0342 -448,-567 28.1186,-29.0237 36.9706,-57.5941 52,-84"
       id="path3799"
       inkscape:connector-curvature="0"
       sodipodi:nodetypes="cscscccc" />
    <path
       style="fill:#d99e42;fill-opacity:1;stroke:#ae7c25;stroke-width:39;stroke-linecap:butt;stroke-linejoin:miter;stroke-miterlimit:4;stroke-opacity:1;stroke-dasharray:none"
       d="m 1493,704.00014 c 58.345,135.07448 61.9107,261.57865 45,370.99996 -37.3314,-32.3866 -58.0428,-66.2043 -79,-102.99996 -28.6611,155.16946 -79.6744,299.16276 -151,432.99996 -21.8304,-106.8588 -101.4563,-233.2631 -203,-308 l -35.8545,-49.576 322.4406,-387.49451 z"
       id="path3805"
       inkscape:connector-curvature="0"
       sodipodi:nodetypes="ccccc" />
    <path
       style="fill:#d99e42;fill-opacity:1;stroke:#ae7c25;stroke-width:39;stroke-linecap:butt;stroke-linejoin:miter;stroke-miterlimit:4;stroke-opacity:1;stroke-dasharray:none"
       d="m 1531,642.00014 c 241.2958,149.63815 455.0034,91.30133 592.9999,-29 -55.3738,-0.66667 -134.2671,8.66667 -187,8 140.1608,-114.60819 371.3568,-269.20356 150,-428.99998 z"
       id="path3807"
       inkscape:connector-curvature="0"
       sodipodi:nodetypes="ccccc" />
  </g>
  <g
     inkscape:groupmode="layer"
     id="layer10"
     inkscape:label="Hat"
     style="display:inline"
     sodipodi:insensitive="true"
     transform="translate(595.3754,-53.71875)">
    <path
       style="fill:#99642f;fill-opacity:1;stroke:none"
       d="m 2087.3792,85.758887 c 133.5921,-7.978885 102.0912,47.949153 2.8284,130.107643 -322.4407,280.55831 -644.8813,559.59899 -967.322,876.81237 -135.63638,152.7742 -281.01908,296.2724 -424.2641,463.8621 L 350.72496,2011.9178 C 208.37369,1750.2126 117.35485,1466.6638 325.26912,1055.9094 L 172.53405,911.65961 C 308.83859,808.28926 418.02548,664.24245 509.11688,493.05239 504.83915,407.18881 470.86121,310.48586 427.0925,210.20968 L 543.05801,74.445178 1213.3952,326.17519 C 1459.6797,124.41898 1766.3508,85.70668 2087.3792,85.758887 z"
       id="path3905"
       inkscape:connector-curvature="0"
       sodipodi:nodetypes="cccccccccccc" />
    <path
       style="fill:#4b2f17;fill-opacity:1;stroke:none"
       d="M 960.99997,242.00015 C 860.36249,381.46405 780.87843,519.62175 696.14212,669.68643 910.10917,535.84396 1134.8954,470.72634 1375,397.00015 z"
       id="path3809"
       inkscape:connector-curvature="0"
       sodipodi:nodetypes="cccc" />
    <path
       style="fill:none;stroke:#50371b;stroke-width:39;stroke-linecap:butt;stroke-linejoin:miter;stroke-miterlimit:4;stroke-opacity:1;stroke-dasharray:none"
       d="M 1208,326.00015 C 1445.8352,136.0729 1771.0297,78.17569 2136.9999,91.000159 c 68.7991,2.410887 36.3841,55.976181 -2,88.000001 -458.7044,382.69623 -880.7224,768.20155 -1275.99992,1182.99994 -172.64281,209.0358 -345.72385,417.4142 -507.99999,642 C 6.7382938,1437.2227 305.97265,829.37587 851.99998,584.00015 1255.2874,402.76938 1967.566,256.98733 2174.9999,121.00016"
       id="path3790"
       inkscape:connector-curvature="0"
       sodipodi:nodetypes="cssccsc" />
    <path
       style="font-size:medium;font-style:normal;font-variant:normal;font-weight:normal;font-stretch:normal;text-indent:0;text-align:start;text-decoration:none;line-height:normal;letter-spacing:normal;word-spacing:normal;text-transform:none;direction:ltr;block-progression:tb;writing-mode:lr-tb;text-anchor:start;baseline-shift:baseline;color:#000000;fill:#50371b;fill-opacity:1;stroke:none;stroke-width:39;marker:none;visibility:visible;display:inline;overflow:visible;enable-background:accumulate;font-family:Sans;-inkscape-font-specification:Sans"
       d="m 536.9375,53.71875 -8.96875,10.875 -114,138 -7.75,9.34375 5,11.09375 c 86.34743,191.25892 98.56751,402.09313 77.99977,536.47578 C 562.65077,635.88968 536.61302,413.00718 451.59375,218.25 l 97.46875,-118 c 275.65996,107.08643 557.0622,211.43404 831.5729,313.03751 l 13.5625,-36.5625 C 1115.2304,273.47197 829.61392,167.61586 550.0625,58.8125 z"
       id="path3792"
       inkscape:connector-curvature="0"
       sodipodi:nodetypes="cccccccccccc" />
    <path
       style="fill:none;stroke:#50371b;stroke-width:39;stroke-linecap:butt;stroke-linejoin:miter;stroke-miterlimit:4;stroke-opacity:1;stroke-dasharray:none"
       d="M 326.94072,1052.5231 175,916.00014 C 318.11258,802.04412 437.21838,655.62083 505.99999,480.00015"
       id="path3794"
       inkscape:connector-curvature="0"
       sodipodi:nodetypes="ccc" />
  </g>
  <g
     inkscape:groupmode="layer"
     id="layer9"
     inkscape:label="Ear"
     style="display:inline"
     sodipodi:insensitive="true"
     transform="translate(595.3754,-53.71875)">
    <path
       style="fill:#ede58f;fill-opacity:1;stroke:none"
       d="m 1274,1202 c -236,-31.0066 -472,-59.7076 -708,-2 -90.69812,15.3228 -155.88679,39.1488 -104,102 201.04757,295.4527 455.50879,343.5701 688,356 67.6688,-5.2766 136.615,-4.5319 200,-30 z"
       id="path3929"
       inkscape:connector-curvature="0"
       sodipodi:nodetypes="cccccc" />
    <path
       style="font-size:medium;font-style:normal;font-variant:normal;font-weight:normal;font-stretch:normal;text-indent:0;text-align:start;text-decoration:none;line-height:normal;letter-spacing:normal;word-spacing:normal;text-transform:none;direction:ltr;block-progression:tb;writing-mode:lr-tb;text-anchor:start;baseline-shift:baseline;color:#000000;fill:#d09f29;fill-opacity:1;stroke:none;stroke-width:39;marker:none;visibility:visible;display:inline;overflow:visible;enable-background:accumulate;font-family:Sans;-inkscape-font-specification:Sans"
       d="m 873.5,1145.5 c -129.24205,1.5363 -260.17217,19.638 -389.03125,57.8125 -28.32081,8.39 -50.19314,22.4853 -56.03125,45.875 -5.83811,23.3897 4.95771,45.5884 21.65625,69.0937 197.95207,278.6432 554.30445,449.1921 906.67725,308.1225 -363.62727,70.9304 -684.63678,-62.9145 -874.86475,-330.6849 -14.0689,-19.8039 -16.75132,-32.5813 -15.625,-37.0938 1.12632,-4.5125 6.6611,-11.2455 29.25,-17.9375 124.49199,-36.8807 251.17862,-54.4948 376.42283,-56.1538 126.61721,-1.6773 345.76022,20.9521 433.05422,39.7041 -76.706,-53.248 -302.2662,-80.2741 -431.5083,-78.7378 z"
       id="path3785"
       inkscape:connector-curvature="0"
       sodipodi:nodetypes="sssscsssscs" />
    <path
       style="fill:#d09f29;fill-opacity:1;stroke:none"
       d="m 688.99998,1369.0001 c 208.26801,113.816 426.40142,169.1903 656.00002,119 -156.1647,110.0438 -511.70586,37.8432 -656.00002,-119 z"
       id="path3787"
       inkscape:connector-curvature="0"
       sodipodi:nodetypes="ccc" />
    <path
       style="fill:#d99e42;fill-opacity:1;stroke:#ae7c25;stroke-width:39;stroke-linecap:butt;stroke-linejoin:miter;stroke-miterlimit:4;stroke-opacity:1;stroke-dasharray:none;display:inline"
       d="m 1524.0318,792.22603 c 27.8891,101.94106 27.1408,197.54021 13.9682,282.77407 -37.3314,-32.3866 -58.0428,-66.2043 -79,-102.99995 -28.6611,155.16945 -79.6744,299.16275 -151,432.99995 -18.656,-91.32 -79.5209,-196.9144 -160.203,-272.338"
       id="path3805-3"
       inkscape:connector-curvature="0"
       sodipodi:nodetypes="ccccc" />
  </g>
  <!--Created by Sigma
      http://90sigma.deviantart.com/-->
</svg>
