<?xml version="1.0" encoding="UTF-8"?><svg xmlns="http://www.w3.org/2000/svg" viewBox="0 0 5860.4546 5860.4521" version="1.1"><g display="none" transform="translate(595.38 -53.719)"><rect id="rect3794" style="color:#000000" display="inline" height="6060.1" width="4767.9" stroke="#0f0" y="-20.033" x="-20.033"/></g><g opacity=".2" display="none" transform="translate(595.38 -53.719)"><path id="path3798" style="color:#000000" d="m3956.6 5794.7c0 85.747-701.84 155.26-1567.6 155.26-865.77 0-1567.6-69.512-1567.6-155.26 0-85.747 701.84-155.26 1567.6-155.26 865.77 0 1567.6 69.512 1567.6 155.26z" transform="matrix(1.0128 0 0 1.0055 -70.597 -9.9633)" display="inline"/></g><g transform="translate(595.38 -53.719)"><path id="path3810" fill="#d8c373" d="m2739.6 2511.7 170.28-62.604 5.0083-305.51c14.985-141.79 124.84-150.76 237.9-155.26 398.23 2.9053 766.02 181.15 999.17 443.24 58.254 100.36 14.889 157.93-52.588 205.34-119.08 69.487-270.05 88.876-435.73 85.142-62.062 1.8589-111.26-41.312-160.27-85.142l-150.25-172.79c-48.506 101.19-83.199 210.27-85.142 338.06l-438.23 32.554z"/><path id="path3767" stroke-linejoin="round" d="m2337 4001c-45.12 411.76-29.709 726.15 30.362 981.49 67.081 285.14 189.24 497.88 332.38 715.54 54.41 82.738 34.467 95.533-36.39 100.08-108.25 6.9405-237.86 8.4255-358.17 2.472-77.339-3.8271-103.44-11.689-131.52-86.974-126.72-339.68-240.26-677.22-272.24-1042.3 21.47-0.8001 47.933-1.253 69.418-1.1483 36.566 0.1781 54.761-17.887 33.909-64.702-25.009-56.147-82.518-105.24-140.1-147.7 85.039-189.19 278.02-325.02 472.35-456.79z" stroke="#d09f29" stroke-width="39" fill="#d8c373"/><path id="path3800" fill="#d09f29" d="m3177.8 1970.8c-21.886-0.1464-43.377 0.4974-64.344 1.9375-51.751 3.5545-107.72 14.24-151.56 46.312-43.843 32.072-72.681 86.865-68.25 166.5 8.3772 150.54-1.3613 314-33.312 456.5l38.062 8.5312c32.969-147.04 42.744-313.45 34.188-467.22-3.8915-69.931 18.225-107.85 52.344-132.81 34.119-24.959 83.124-35.603 131.22-38.906 318.45-21.873 779.65 161.17 994.97 406.72 30.872 35.207 46.951 70.556 47.219 101.38 0.268 30.819-13.49 59.194-50.969 85.906-127.5 90.873-282.74 93.265-438.72 95.531-52.174 0.758-105.17-25.713-161.97-92.312-116.4-136.49-271.03-280.57-423.54-325.24 132.96 73.019 279.34 216.24 393.89 350.56 61.4 71.998 126.13 106.96 192.19 106 155.89-2.2648 321.44-3.4688 460.78-102.78 45.056-32.113 67.724-74.264 67.344-118-0.3804-43.736-22.003-86.947-56.906-126.75-212.74-242.61-634.34-419.65-962.62-421.84z"/><path id="path3802" d="m3350.6 2474.1c-50.714 83.469-73.416 199.36-80.134 308.01" stroke="#d09f29" stroke-width="39" fill="none"/><path id="path3804" d="m2909.8 2446.6c-44.24 17.529-88.481 35.058-132.72 52.588" stroke="#d09f29" stroke-width="39" fill="none"/></g><g transform="translate(595.38 -53.719)"><path id="path3773-1" d="m1330.5 3737.5c-123.7-323.1-615.43-598.9-985.51-339.5 49.69-4.3 123.15 4.3 171.51 12.5-550.2 149.8-600.52 1018.7-147.51 1447 166.95 157.8 255.05 359.9 256.01 553 99.297-69.362 89.779-192.88 82-290 95.243 147.31 73.942 342.78 63 508 275.41-140.68 377.16-434.5 289.5-757 26.333 0.4997 52.667 0.3336 79-0.5-255.65-304.23-294.54-528.07-304-757.55-9.459-229.49 202.97-280.82 505-144.95" fill="#e1ca6e"/><path id="path3812" fill="#d99e42" d="m929.05 5514.2c9.4-257.86 14.475-528.26-127.71-692.65-152.9-176.78-262.65-367.71-338.06-576.97-52.013 96.313-71.383 231.79-57.596 365.61-212.64-349.31-189.7-781.42 165.28-873.96 354.98-92.535 611.02 42.74 776.29 180.3l-27.546 37.563c-114.36-37.768-228.71-68.535-343.07-60.1-124.53 29.873-135.97 122.57-142.74 217.86 6.5138 234.49 101.88 562.91 308.01 751.25l-72.621 5.0083c60.299 281.8-7.3544 484.18-140.23 646.08z"/><path id="path3773" d="m1330.5 3737.5c-123.7-323.1-615.43-598.9-985.51-339.5 49.69-4.3 123.15 4.3 171.51 12.5-550.2 149.8-600.52 1018.7-147.51 1447 166.95 157.8 255.05 359.9 256.01 553 99.297-69.362 89.779-192.88 82-290 95.243 147.31 73.942 342.78 63 508 275.41-140.68 377.16-434.5 289.5-757 26.333 0.4997 52.667 0.3336 79-0.5-255.65-304.23-294.54-528.07-304-757.55-9.459-229.49 202.97-280.82 505-144.95" stroke="#ae7c25" stroke-miterlimit="9" stroke-width="39" fill="none"/></g><g transform="translate(595.38 -53.719)" stroke-width="39"><path id="path3834" d="m2677 2446.6c372.19 133.68 465.39 479.86 212.85 904.01l-313.02-738.73z" stroke="#50371b" fill="#99642f"/><path id="path3770" stroke-linejoin="round" d="m1621.5 3324.5c-557.63 358.45-274 912.5-112.08 1268.7 26.616 58.552 24.523 83.803-43.284 79.064-29.266-2.045-62.462-6.8847-84.133-7.2581-79.76 343.93-99.374 686.53-103.55 1018.2-1.3344 105.97 18.93 202.25 117.76 206.6 137.9 6.0739 272.96 7.3694 408.83-1.4881 91.53-5.967 98.806-43.264 82.232-94.096-115.45-354.06-163.4-784.44-24.749-1187.9 88.331-257.06 170.29-273.93 292.04-369.11 228.29-178.47 470.49-381.74 609.26-661.64" stroke="#d09f29" fill="#ede58f"/><path id="path3832" d="m1958 1798.2c507.92 183.27 818.83 561.59 881.57 1053.5l-1309.6-258.52-230.19-835.78z" stroke="#d09f29" fill="#ede58f"/></g><g transform="translate(595.38 -53.719)"><path id="path3845" fill="#423415" d="m1480.3 3852.1c-4.1356-47.219-7.8176-96.972-4.7936-144.16 1.5959-24.903-25.886-29.238-26.561 0-1.1028 47.801 2.8326 98.123 15.418 145.93z"/><path id="path3847" fill="#df3825" d="m1478.7 3847.7c-24.351-37.082-100.3-112.65-122.7-27.546-26.604 101.04 24.588 231.31 88.898 304.26 33.482 37.981 75.172 66.073 103.92-7.5126 5.359-13.716 14.374-11.533 18.781-2.5041 24.559 50.318 63.545 35.642 75.125-31.302 15.876-91.778 7.5653-190.28-42.571-259.18-44.424-61.049-106.98-34.759-121.45 23.79z"/></g><g transform="translate(595.38 -53.719)"><path id="path3879" fill="#ede58f" d="m2176 2712 568 32-12 544-588-28z"/><path id="path3776" d="m1917.7 2351.3c-59.4 164.7-111.8 333.6-207.2 476.7-63.232 146.63-127.41 291.77-189 441 304.26 179.86 593.56 376.83 918.5 406 137.26 12.321 263.05-13.15 338-118 86.74-121.34 132.44-261.15 164.5-401.5l-40.406-298.69c-53.856-157.92-652.33-440.73-984.41-505.47zm535.97 429.81c125.8 0 227.78 98.828 227.78 220.72s-101.99 220.69-227.78 220.69c-125.8 0-227.78-98.797-227.78-220.69s101.99-220.72 227.78-220.72z" stroke="#50371b" stroke-width="39" fill="#99642f"/><path id="path3849" stroke-linejoin="round" d="m2712.5 2806.7c-15.846-18.186-34.299-36.278-54.969-54.118-21.13-18.237-44.576-36.21-69.92-53.75m-75.138-47.585c-23.465-13.656-47.953-26.913-73.231-39.675m-91.857-42.725c-24.103-10.314-48.624-20.138-73.392-29.404m-82.901-28.618c-27.996-8.8611-56.067-16.934-83.978-24.124m-62.454-14.652c-31.561-6.6598-62.681-12.066-93.007-16.075-10.57 25.993-21.134 51.987-31.723 77.975m-142.8 339.41c-15.46 34.917-31.22 69.76-47.359 104.51m-25.133 53.366c-15.011 31.426-30.368 62.766-46.128 94.005m-37.372 72.391c-3.8822 7.346-7.7895 14.686-11.723 22.019 23.304 17.846 46.336 34.887 69.183 51.172m64.168 44.071c23.566 15.563 47.022 30.357 70.468 44.441m80.449 45.573c25.9 13.79 51.928 26.805 78.214 39.122m76.324 33.523c29.279 12.028 59.017 23.318 89.386 33.973m67.134 22.217c15.387 4.7993 30.956 9.4634 46.726 14.004 15.151 4.3622 30.731 8.4222 46.606 12.099m83.582 15.124c30.181 3.8882 60.585 6.0294 90.393 5.9282m87.84-7.7141c27.654-5.128 53.896-12.978 77.917-24.04m74.227-53.156c6.2167-6.7844 12.041-14.037 17.439-21.78 12.839-18.417 24.619-36.462 35.381-54.153m48.931-93.3c13.947-31.96 24.345-62.731 31.492-92.464" stroke="#d09f29" stroke-linecap="round" stroke-width="27" fill="none"/><path id="path3851" stroke-linejoin="round" d="m2308 2768c-23.951 13.678-46.907 32.184-67.496 54.328m-52.906 75.4c-13.262 25.691-23.428 53.426-29.459 82.302m-5.3073 82.233c2.2128 26.79 8.4308 53.824 19.378 80.474m40.679 64.413c21.294 22.225 47.236 38.234 75.453 49.142m75.284 17.432c29.45 2.9641 59.144 2.0212 86.915-1.8106m68.506-16.542c19.7-7.1 36.5-15.8 48.9-25.3" stroke="#d09f29" stroke-linecap="round" stroke-width="27" fill="none"/> </g><g transform="translate(595.38 -53.719)"><path id="path3781-2" d="m3046.2 3164.5c316.24 119.46 603.84 183.07 896.61 209.3 94.424 8.4601 183.7 12.398 257.39-56.568 148.47-138.95 308.24-322.2 389.62-490.73 37.697-78.074 31.926-156.97-127.99-152.74-211.23 5.5935-809.09 92.008-1202.8 27.577-115.61-18.92-174.28 11.162-255.97 34.648-201.72 57.99-416.82 76.821-622.83 109.62l74.716 355.64c179.17 45.521 358.34 29.307 537.51 24.058z" fill="#ede58f"/><path id="path3859" fill="#d09f29" d="m3052.8 3157.3c-4.301 7.1462-26.176 21.346-60.562 31.375-34.387 10.029-80.074 17.787-130.44 22.906-100.73 10.238-282.56 12.125-406.84-10.307 119.71 55.568 306.96 59.641 410.78 49.089 51.908-5.2763 99.359-13.154 137.41-24.25 38.047-11.096 67.926-23.517 83.094-48.719z"/><path id="path3781" fill="#d09f29" d="m4493.4 2662.6c-4.8834-0.031-9.9198 0.018-15.125 0.1562-107.51 2.8469-313.21 23.746-541.97 35.844s-480.11 15.252-674.12-16.5c-119.9-19.622-184.7 12.206-264.53 35.156-199.45 57.338-501.26 101.67-608.95 117.06 108.32 13.385 415.74-20.914 619.73-79.555 83.564-24.023 136.12-52.374 247.44-34.156 199.68 32.679 452.58 29.095 682.47 16.937 229.89-12.157 437.25-33.035 540.97-35.781 38.314-1.0146 64.512 3.4227 80.5 10.125s21.826 14.124 25 23.719c6.3479 19.19-4.7233 56.005-23.719 93.406-85.476 168.3-226.99 336.18-374.25 474-67.684 63.345-148.44 59.786-242.31 51.375-208.84-18.711-414.86-56.502-630.82-120.26-85.078-25.118-251.7-84.265-290.12-95.838 21.577 40.427 193.2 107.9 279.33 133.31 218.34 64.421 427 102.72 638.15 121.63 94.977 8.5095 192.74 12.838 272.44-61.75 149.68-140.08 293.79-310.39 382.38-484.81 20.264-39.898 39.308-82.987 25.969-123.31-6.6698-20.163-23.136-37.447-46.969-47.438-20.853-8.7419-47.285-13.097-81.469-13.312z"/></g><g transform="translate(595.38 -53.719)"><path id="path3893" fill="#ede58f" d="m1504 496 468 36 392-72 100 296c-60.927 92.488-145.42 156.7-244 204 123.03 239.8 271.13 235.1 424 184l20 204c-176.63 186.04-369.13 364.69-590.83 505.66l-869.2 238.3-368-964z"/><path id="path3774" d="m2054.9 1048.8c-109-127.82-414.6-227.74-571.4-60.77-143.03 152.35-37.04 375.71 82.024 459.62 35.307 24.882 24.166 47.413-21.213 21.213-96.067-55.464-262.96-329.78-74.953-509.12 162.41-154.92 511.51-67.78 585.48 89.096z"/><path id="path3777" fill="#f67033" d="m2315.1 1104c39.437 48.404 93.546 67.466 155.56 70.711-25.093-83.577-96.709-104.84-155.56-70.711z"/><path id="path3779" fill="#d09f29" d="m2375.7 443.31-16.094 3c-134.84 25.012-269.37 47.807-403.56 61.281l3.9063 38.812c130.52-13.105 260.66-34.905 390.5-58.812 32.767 88.676 63.286 180.86 89.688 270.97-57.35 86.54-141.93 138.93-235.72 177.5l-18.937 7.7812 8.7187 18.531c38.456 81.76 96.285 153.59 172.81 194.81 71.04 38.271 158.15 48.86 255.56 16.938 8.3793 53.688 16.342 106.67 17.812 160.22-113.58 125.73-247.99 239.82-381.94 355.97-89.304 77.439-168.55 132-256.75 157.44-88.198 25.432-228.58 18.621-315.97-2.0101 74.603 43.369 230.32 67.327 326.79 39.51 96.468-27.817 180.44-86.506 271.5-165.47 135.78-117.74 273.67-234.3 390.66-365.19 3.1802-3.558 5.0373-9.0813 4.9688-13.313-1.0986-67.818-12.245-132.6-22.125-196.44l-3.7188-24-22.656 8.8124c-97.709 38.093-178.63 29.295-245.66-6.8124-61.662-33.219-111.45-90.933-146.91-159.16 93.149-40.8 180.3-97.953 239.38-191.53 3.299-5.226 3.8318-10.316 2.2187-15.844-28.857-98.893-62.437-200.61-98.75-297.66z"/><path id="path3782" fill="#d09f29" d="m2235.2 628.11c25.326 19.082 49.152 21.655 70.711-0.70711-9.7394 74.08-71.765 46.578-70.711 0.70711z"/></g><g transform="translate(595.38 -53.719)"><path id="path3899" fill="#d99e42" d="m828.73 1570.7c94.692 146.29 165.38 300.6 149.91 483.66-13.829 125.08-72.005 241.29-121.62 359.21 47.758-9.7861 92.709-30.8 132.94-70.711-8.1749 121.98 49.078 219.42 98.995 319.61 88.624 84.628 177.25 100.73 265.87 87.681 80.139 2.7471 160.28-31.686 240.42 39.598 6.8275 52.598 13.598 105.21-31.113 172.53 162.41-2.9857 302.31-56.613 404.47-195.16 57.46-141.4-7.7293-241.93-107.48-330.93-69.768-37.185-139.54-70.654-209.3-144.25 8.6521-189.6-107.28-554.48-441.23-596.8l65.054-113.14z"/><path id="path3803" fill="#e1ca6e" d="m1420 2407c238.56 15.344 420.67 118.36 572 269-0.5145-72.47-41.295-143.19-103-213-148.53-75.818-319.04-105.81-469-56z"/><path id="path3801" fill="#e1ca6e" d="m867 1627c217.7 91.311 324.79 236.11 293 407-39.231 210.91-35.812 485.63 287 534-132.13 27.621-281.18 41.141-430-59l-31-166c-42.141 31.91-85.559 59.988-133 76 103.77-192.69 144.08-340.14 125-500-21.143-102.21-55.242-200.44-111-292z"/><path id="path3797" fill="#ae7c25" d="m849.94 1575.8-31.875 22.438c123.14 175.04 155.79 309.71 144.72 434.56s-67.436 241.65-127.59 376.25l-17 38.094 40.125-11.375c92.218-26.102 207.38-112.55 209.6-197.02-45.771 61.528-115.49 115.57-178.23 144.08 52.814-117.29 101.31-226.76 111.94-346.59 11.9-134.22-24.942-280.27-151.69-460.44z"/><path id="path3799" d="m990 2339c-0.55486 204.59 112.22 453.95 361 413 287.62-47.338 294.16 75.502 205 214 509.32-45.931 525.75-388.74 273-546-144.26-89.761-204.68-107.65-311.62-293.54 47.889 38.61 94.118 98.287 137.62 131.54 5.0573-147.94-122-524.03-448-567 28.119-29.024 36.971-57.594 52-84" stroke="#ae7c25" stroke-miterlimit="19" stroke-width="39" fill="none"/><path id="path3805" d="m1493 704c58.345 135.07 61.911 261.58 45 371-37.331-32.387-58.043-66.204-79-103-28.661 155.17-79.674 299.16-151 433-21.83-106.86-101.46-233.26-203-308l-35.854-49.576 322.44-387.49z" stroke="#ae7c25" stroke-width="39" fill="#d99e42"/><path id="path3807" d="m1531 642c241.3 149.64 455 91.301 593-29-55.374-0.66667-134.27 8.6667-187 8 140.16-114.61 371.36-269.2 150-429z" stroke="#ae7c25" stroke-width="39" fill="#d99e42"/></g><g transform="translate(595.38 -53.719)"><path id="path3905" fill="#99642f" d="m2087.4 85.759c133.59-7.9789 102.09 47.949 2.8284 130.11-322.44 280.56-644.88 559.6-967.32 876.81-135.64 152.77-281.02 296.27-424.26 463.86l-347.88 455.3c-142.35-261.7-233.37-545.2-25.45-956l-152.74-144.24c136.31-103.37 245.5-247.42 336.59-418.61-4.28-85.86-38.26-182.56-82.03-282.84l115.97-135.76 670.34 251.73c246.3-201.76 553-240.47 874-240.42z"/><path id="path3809" fill="#4b2f17" d="m961 242c-100.64 139.46-180.12 277.62-264.86 427.69 213.97-133.85 438.76-198.96 678.86-272.69z"/><path id="path3790" d="m1208 326c237.8-189.93 563-247.82 929-235 68.799 2.4109 36.384 55.976-2 88-458.7 382.7-880.72 768.2-1276 1183-172.64 209.04-345.72 417.41-508 642-344.26-566.8-45.03-1174.6 501-1420 403.3-181.23 1115.6-327.01 1323-463" stroke="#50371b" stroke-width="39" fill="none"/><path id="path3792" fill="#50371b" d="m536.94 53.719-8.9688 10.875-114 138-7.75 9.3438 5 11.094c86.347 191.26 98.568 402.09 78 536.48 73.43-123.61 47.39-346.49-37.63-541.25l97.469-118c275.66 107.09 557.06 211.43 831.57 313.04l13.562-36.562c-279-103.26-564.59-209.11-844.14-317.92z"/><path id="path3794" d="m326.94 1052.5-151.94-136.5c143.11-113.96 262.22-260.38 331-436" stroke="#50371b" stroke-width="39" fill="none"/></g><g transform="translate(595.38 -53.719)"><path id="path3929" fill="#ede58f" d="m1274 1202c-236-31.007-472-59.708-708-2-90.698 15.323-155.89 39.149-104 102 201.05 295.45 455.51 343.57 688 356 67.669-5.2766 136.62-4.5319 200-30z"/><path id="path3785" fill="#d09f29" d="m873.5 1145.5c-129.24 1.5363-260.17 19.638-389.03 57.812-28.321 8.39-50.193 22.485-56.031 45.875-5.8381 23.39 4.9577 45.588 21.656 69.094 197.95 278.64 554.3 449.19 906.68 308.12-363.63 70.93-684.64-62.914-874.86-330.68-14.069-19.804-16.751-32.581-15.625-37.094 1.1263-4.5125 6.6611-11.246 29.25-17.938 124.49-36.881 251.18-54.495 376.42-56.154 126.62-1.6773 345.76 20.952 433.05 39.704-76.706-53.248-302.27-80.274-431.51-78.738z"/><path id="path3787" fill="#d09f29" d="m689 1369c208.27 113.82 426.4 169.19 656 119-156.16 110.04-511.71 37.843-656-119z"/><path id="path3805-3" d="m1524 792.23c27.889 101.94 27.141 197.54 13.968 282.77-37.331-32.387-58.043-66.204-79-103-28.661 155.17-79.674 299.16-151 433-18.656-91.32-79.521-196.91-160.2-272.34" stroke="#ae7c25" stroke-width="39" fill="#d99e42"/></g></svg>