<?xml version="1.0" encoding="UTF-8"?><svg xmlns="http://www.w3.org/2000/svg" xmlns:xlink="http://www.w3.org/1999/xlink" version="1.1" viewBox="0 0 5786.3008 5786.2994"><defs id="defs4"><linearGradient id="linearGradient4545"><stop id="stop4547" stop-color="#8fff4d" offset="0"/><stop id="stop4549" stop-color="#306309" offset="1"/></linearGradient><clipPath id="clipPath4249" clipPathUnits="userSpaceOnUse"><ellipse id="ellipse4251" opacity=".5" stroke="#f00" style="color:#000000" rx="229.83" ry="324.95" transform="matrix(.94581 -.32471 .31951 .94758 0 0)" cy="2612.8" cx="1974.7" stroke-width="1px" fill="#0f0"/></clipPath><clipPath id="clipPath4253" clipPathUnits="userSpaceOnUse"><ellipse id="ellipse4255" opacity=".5" stroke="#f00" style="color:#000000" rx="229.63" ry="325.23" transform="matrix(.93966 -.34212 .33914 .94074 0 0)" cy="2615.1" cx="1972.9" stroke-width="1px" fill="#0f0"/></clipPath><clipPath id="clipPath4257" clipPathUnits="userSpaceOnUse"><ellipse id="ellipse4259" opacity=".5" stroke="#f00" style="color:#000000" rx="229.63" ry="325.23" transform="matrix(.90678 -.42160 .41872 .90812 0 0)" cy="2615.1" cx="1972.9" stroke-width="1px" fill="#0f0"/></clipPath><clipPath id="clipPath4261" clipPathUnits="userSpaceOnUse"><path id="path4263" opacity=".5" d="m3525.6 1682.4c25.737-139.75 25.56-315.95-33.941-466.69-27.341-44.321-54.683-69.088-82.024-1.4142-20.872 87.21-27.68 174.42-18.385 261.63 26.728 89.137 77.732 150.96 134.35 206.48z" stroke="#f00" stroke-width="1px" fill="#0f0"/></clipPath><clipPath id="clipPath4265" clipPathUnits="userSpaceOnUse"><path id="path4267" opacity=".5" d="m3436.5 1865.1c32.736-138.21 41.425-314.17-10.416-467.83-25.077-45.695-51.138-71.863-81.85-5.7172-25.234 85.994-36.421 172.73-31.526 260.3 22.209 90.417 70.038 154.84 123.79 213.24z" stroke="#f00" stroke-width="1px" fill="#0f0"/></clipPath><clipPath id="clipPath4269" clipPathUnits="userSpaceOnUse"><path id="path4271" opacity=".5" d="m3424.5 1860.1c33.63-138.26 43.458-314.24-7.3893-467.82-24.781-45.659-50.673-71.789-81.813-5.5975-25.79 86.033-37.538 172.78-33.21 260.36 21.624 90.386 69.037 154.74 122.41 213.06z" stroke="#f00" stroke-width="1px" fill="#0f0"/></clipPath><clipPath id="clipPath4273" clipPathUnits="userSpaceOnUse"><path id="path4275" opacity=".5" d="m3525.6 1682.4c25.737-139.75 25.56-315.95-33.941-466.69-27.341-44.321-54.683-69.088-82.024-1.4142-20.872 87.21-27.68 174.42-18.385 261.63 26.728 89.137 77.732 150.96 134.35 206.48z" stroke="#f00" stroke-width="1px" fill="#0f0"/></clipPath><radialGradient id="radialGradient4327" xlink:href="#linearGradient4313" gradientUnits="userSpaceOnUse" cy="449.15" cx="349.66" gradientTransform="matrix(-.91939 .15992 -.26324 -1.5133 792 989.12)" r="186.35"/><linearGradient id="linearGradient4313"><stop id="stop4315" stop-color="#5a4d38" offset="0"/><stop id="stop4317" stop-color="#d4c6a9" offset="1"/></linearGradient><clipPath id="clipPath4300" clipPathUnits="userSpaceOnUse"><path id="path4302" opacity=".5" d="m848.57 183.86-441.43 547.14 200 194.29 354.29-375.71c35.07-137.7-26.49-258.39-112.86-365.72zm-552.86-158.57 105.72 682.85l-292.86 90-94.286-495.71c15.625-149.07 113.46-238.54 281.43-277.14z" stroke="#f00" stroke-width="1px" fill="#0f0"/></clipPath><radialGradient id="radialGradient4319" xlink:href="#linearGradient4313" gradientUnits="userSpaceOnUse" cy="491.54" cx="613.52" gradientTransform="matrix(.46201 .43619 -.72814 .77123 687.98 -170.56)" r="263.09"/><clipPath id="clipPath4296" clipPathUnits="userSpaceOnUse"><path id="path4298" opacity=".5" d="m848.57 183.86-441.43 547.14 200 194.29 354.29-375.71c35.07-137.7-26.49-258.39-112.86-365.72zm-552.86-158.57 105.72 682.85l-292.86 90-94.286-495.71c15.625-149.07 113.46-238.54 281.43-277.14z" stroke="#f00" stroke-width="1px" fill="#0f0"/></clipPath><clipPath id="clipPath4292" clipPathUnits="userSpaceOnUse"><path id="path4294" opacity=".5" d="m848.57 183.86-441.43 547.14 200 194.29 354.29-375.71c35.07-137.7-26.49-258.39-112.86-365.72zm-552.86-158.57 105.72 682.85l-292.86 90-94.286-495.71c15.625-149.07 113.46-238.54 281.43-277.14z" stroke="#f00" stroke-width="1px" fill="#0f0"/></clipPath><clipPath id="clipPath4288" clipPathUnits="userSpaceOnUse"><path id="path4290" opacity=".5" d="m848.57 183.86-441.43 547.14 200 194.29 354.29-375.71c35.07-137.7-26.49-258.39-112.86-365.72zm-552.86-158.57 105.72 682.85l-292.86 90-94.286-495.71c15.625-149.07 113.46-238.54 281.43-277.14z" stroke="#f00" stroke-width="1px" fill="#0f0"/></clipPath><radialGradient id="radialGradient4405" xlink:href="#linearGradient4313" gradientUnits="userSpaceOnUse" cy="395.91" cx="352.3" gradientTransform="matrix(-1.7201 .29920 -.49249 -2.8313 2046.2 3926.5)" r="99.602"/><radialGradient id="radialGradient4395" xlink:href="#linearGradient4313" gradientUnits="userSpaceOnUse" cy="485.46" cx="613.52" gradientTransform="matrix(.61702 .58254 -.97243 1.03 1600 2164.3)" r="197"/><filter id="filter4385" height="1.39" width="1.624" y="-0.195" x="-0.312" color-interpolation-filters="sRGB"><feGaussianBlur id="feGaussianBlur4387" stdDeviation="1.8571429"/></filter><filter id="filter4381" height="1.4" width="1.6" y="-.2" x="-0.3" color-interpolation-filters="sRGB"><feGaussianBlur id="feGaussianBlur4383" stdDeviation="1.7857143"/></filter><filter id="filter4377" height="1.4" width="1.6" y="-0.2" x="-0.3" color-interpolation-filters="sRGB"><feGaussianBlur id="feGaussianBlur4379" stdDeviation="1.6071429"/></filter><filter id="filter4369" height="1.4343" width="1.5365" y="-.21714" x="-.26824" color-interpolation-filters="sRGB"><feGaussianBlur id="feGaussianBlur4371" stdDeviation="1.3571429"/></filter><filter id="filter4361" height="1.4348" width="1.5357" y="-.21738" x="-.26787" color-interpolation-filters="sRGB"><feGaussianBlur id="feGaussianBlur4363" stdDeviation="1.9228175"/></filter><filter id="filter4357" height="1.4125" width="1.5739" y="-.20624" x="-.28697" color-interpolation-filters="sRGB"><feGaussianBlur id="feGaussianBlur4359" stdDeviation="2.0875235"/></filter><filter id="filter4353" height="1.452" width="1.5117" y="-0.226" x="-.25584" color-interpolation-filters="sRGB"><feGaussianBlur id="feGaussianBlur4355" stdDeviation="1.7243233"/></filter><filter id="filter4349" height="1.4118" width="1.5753" y="-.20589" x="-.28766" color-interpolation-filters="sRGB"><feGaussianBlur id="feGaussianBlur4351" stdDeviation="1.7965831"/></filter><filter id="filter4345" height="1.4347" width="1.5358" y="-.21736" x="-.26791" color-interpolation-filters="sRGB"><feGaussianBlur id="feGaussianBlur4347" stdDeviation="1.7582542"/></filter><filter id="filter4341" height="1.3762" width="1.6629" y="-.18811" x="-.33143" color-interpolation-filters="sRGB"><feGaussianBlur id="feGaussianBlur4343" stdDeviation="2.0714286"/></filter><linearGradient id="linearGradient4551" y2="1672.2" xlink:href="#linearGradient4545" gradientUnits="userSpaceOnUse" x2="2869.4" y1="2062.2" x1="2883.2"/><linearGradient id="linearGradient4559" y2="1525.4" xlink:href="#linearGradient4545" gradientUnits="userSpaceOnUse" x2="3429" y1="1827" x1="3407.7"/></defs><g display="none" transform="translate(525.07 -44.362)"><rect id="rect4562" style="color:#000000" display="inline" height="6064.1" width="4740.4" stroke="#0f0" y="-30.207" x="-11.314"/></g><g opacity=".2" display="none" transform="translate(525.07 -44.362)"><ellipse id="path4074" style="color:#000000" d="m 3588.062,5717.1572 c 0,131.6625 -676.582,238.396 -1511.1882,238.396 -834.6062,0 -1511.18825,-106.7335 -1511.18825,-238.396 0,-131.6624 676.58205,-238.396 1511.18825,-238.396 834.6062,0 1511.1882,106.7336 1511.1882,238.396 z" rx="1511.2" ry="238.4" display="inline" cy="5717.2" cx="2076.9"/></g><g transform="translate(525.07 -44.362)"><path id="path4077-0" fill="#E18B1E" d="m2051.4 3585.7c20.977 636.58 621.69 1687.2 748.57 1902.9 42.097 71.558 92.471 142.44-31.429 174.29-92.817 23.854-179.3 15.588-262.86 0-98.835-18.437-136.44-99.443-177.14-182.86-218.1-447-430.2-1027-508.5-1451.4-10.547-57.18 38.404-52.646 95.959-40.476l-292.44-420.54z"/><path id="path4077" fill="#AA5504" d="m2070.9 3585.1-38.978 1.2851c10.679 324.06 167.21 746.56 336.32 1116.7 169.11 370.17 351.29 687.2 414.93 795.37 21.345 36.283 42.192 71.566 43.898 93.65 0.8533 11.042-1.0054 18.017-9.3203 26.469-8.315 8.4519-25.078 17.946-54.055 25.393-88.938 22.857-172.03 15.088-254.43-0.2832-44.795-8.3564-74.058-29.77-98.824-60.201-24.767-30.431-43.966-70.221-64.371-112.04-217.4-445.53-429.2-1025.1-506.92-1446.4-2.0212-10.958-0.2485-14.69 1.125-16.535 1.3735-1.8449 4.6605-4.1676 12.57-5.5508 15.82-2.7663 45.05 1.1014 73.195 7.0528l-27.439-44.764c-18.031-2.6081-35.908-3.6012-52.473-0.7045-13.74 2.4026-27.846 8.1995-37.135 20.676-9.2887 12.476-11.448 29.268-8.1953 46.9 78.852 427.49 291.36 1007.9 510.22 1456.4 20.298 41.598 40.252 84.018 69.172 119.55 28.92 35.535 67.88 63.843 121.92 73.924 84.724 15.805 174.59 24.568 271.29-0.2832 32.973-8.4739 56.375-19.784 72.146-35.814 15.771-16.031 21.919-37.22 20.404-56.824-3.0299-39.209-28.418-75.147-49.17-110.42-63.242-107.5-244.86-423.61-413.07-791.8-168.21-368.2-322.52-789.29-332.82-1101.8z"/><path id="path4081" fill="#AA5504" d="m1652.5 3572.7-32.203 21.998c114.59 167.76 273.13 422.81 367.8 479.17-60.89-81.018-221.22-333.72-335.6-501.17z"/><path id="path4106" d="m3121.4 2642.9c414.31-161.5 951.82-405.74 1392.9-731.43 47.552-35.115 95.159-65.494 108.57-145.71 22.354-133.7 35.45-279.36 12.857-417.14-14.296-87.181-47.905-80.301-117.14-21.428-416.93 354.51-965.71 786.44-1524.3 1061.4" stroke="#AA5504" stroke-width="39" fill="#E18B1E"/><path id="path4108" d="m2928.6 2380 307.14-174.29c-7.7619 151.9-10.687 300.66 2.2832 452.56l-270.85-156.85" stroke="#AD9600" stroke-width="39" fill="#e1f00f"/><path id="path4121" d="m2949.6 2351.3c125.67 86.885 226.34 193.42 276.78 339.41l-127.28-18.183 84.853 131.32c-51.276 91.314-108.35 178.23-181.83 230.31l-113.14-14.142z" stroke="#AD9600" stroke-width="39" fill="#FFFB01"/></g><g transform="translate(525.07 -44.362)"><path id="path4111" d="m1324.3 2853.4c70.638-128.95 122.52-472.32-229.3-425.27 37.137-278.39-287.91-422.85-400.02-195.97-45.294 91.664-27.672 303.92 72.731 264.66 100.4-39.261-11.54-210.96-133.34-246.48-197.03-57.46-242.94 108.42-225.26 289.91-136.89-46.944-259.32 36.806-122.23 182.84-63.877 21.382-144.43-5.3378-195.97-45.457 1.5378 111.04 31.235 179.78 111.12 211.12-71.708 27.968-108.17 93.741-71.721 202.03 28.421 84.439 201.86 113.97 196.98 41.416-4.8845-72.552-148.67-57.211-204.05 57.579-86.939 180.2-13.373 359.87 261.63 304.06-59.961 240.15 272.05 335.94 308.1 93.944 234.53 102.08 353.99-149.29 211.12-401.03 84.899 24.171 194.5-32.227 86.873-161.62 166.9 11.504 148.56-106.22 40.406-188.9 65.709-61.255 163.07-104.74 285.87 22.223z" stroke="#1B0A03" stroke-width="39" fill="#562900"/><path id="path4113" fill="#1B0A03" d="m462.68 2641.7c-14.012 20.061-13.008 46.63-2.2969 70.053 5.4822 11.988 13.472 23.665 23.752 34.818-33.703 8.4859-62.104 26.496-83.404 50.02-30.576 33.767-47.226 78.313-48.377 123.14-1.1506 44.827 13.502 90.51 46.793 124.72 24.683 25.365 59.346 43.762 103.24 51.293-38.331 42.092-51.888 96.899-36.07 139.66 28.683 77.541 113.74 73.361 179.89 18.784-78.134 24.709-127.33 15.377-142.81-30.87-11.832-35.354 3.5066-92.491 58.363-126.77l58.877-36.793-69.422 0.7579c-59.509 0.6487-98.932-17.375-124.12-43.26-25.189-25.885-36.673-60.788-35.756-96.522 0.91715-35.734 14.539-71.724 38.299-97.963s56.984-43.246 100.76-42.547l65.145 1.0411-53.861-36.658c-23.956-16.304-39.066-34.271-45.834-49.07-6.7679-14.8-10.428-25.52 0.16406-35.533 37.099-35.069 90.154-23.623 148.19-15.835-49.822-30.783-142.22-58.738-181.53-2.4658z"/></g><g transform="translate(525.07 -44.362)"><path id="path4134-4" fill="#FFB22A" d="m1622.9 3668.5c-228.58 392.38-282.74 1436.4-220.84 2012.2 6.6912 62.248-16.182 88.508-101.02 105.06-95.215 18.573-190.39 33.545-290.92 20.203-54.091-7.1787-89.392-40.894-96.975-123.24-42.872-465.58 79.563-1157.6 246.48-1632.1 16-45.479 72.251-31.49 117.42-23.305-98.214-360.48-105.21-814.96-15.078-1081.4 28.203-96.661 85.856-127.88 162-118 145.13 11.533 286.16-13.879 426-50l540 862c-221.9 102.92-455.67 173.05-767.07 28.542z"/><path id="path4126" d="m2401.4 2387.1c85.145-106.7 98.396-237.36 92.857-374.29l447.14 58.572c44.492 300.94 152.72 742.08 41.428 1105.7l-580 460c-225.4 117-529 175.7-775.7 22.9" stroke="#AA5504" stroke-width="39" fill="#FFB22A"/><path id="path4128" fill="#AA5504" d="m1875.9 2748.7c-153.97 41.239-307.93 70.82-463.07 60.236-39.683-2.707-73.858 0.8262-102.36 19.449-28.505 18.623-48.41 50.349-64.494 97.035-130.19 377.9-41.212 1003 56.707 1192.8-43.509-204.46-144.29-818.84-19.834-1180.1 14.635-42.482 30.486-65.025 48.953-77.09s42.478-15.638 78.377-13.19c161.8 11.038 320.09-19.762 475.82-61.473z"/><path id="path4134" fill="#AA5504" d="m1492.2 3950.4c-44.76 163.38-77.312 358.09-99.094 562.6-43.564 409.03-44.023 856.99-10.393 1169.9 3.0622 28.487-0.3339 42.914-10.98 54.199-10.647 11.285-33.541 21.667-74.379 29.633-94.751 18.483-187.57 32.892-284.62 20.012-23.647-3.1383-40.478-11.117-53.584-26.668s-22.979-40.366-26.539-79.029c-42.399-460.44 79.52-1152.1 245.46-1623.8 2.7089-7.7002 5.8839-11.02 10.41-13.746 4.5263-2.7259 11.213-4.5594 20.01-5.0312 17.593-0.9437 42.024 4.0009 65.131 8.1875l6.9531-38.375c-22.065-3.998-48.346-10.141-74.172-8.7559-12.913 0.6926-26.11 3.3782-38.043 10.564-11.932 7.1863-21.789 19.174-27.08 34.213-167.89 477.24-290.84 1169.6-247.5 1640.3 4.0224 43.682 15.592 76.898 35.555 100.59 19.963 23.688 47.83 36.155 78.273 40.195 104.01 13.803 201.54-1.7308 297.22-20.395 43.996-8.5821 74.954-19.602 95.279-41.146 20.326-21.544 25.02-51.371 21.391-85.133-33.202-308.87-32.852-755.48 10.396-1161.6 21.624-203.04 53.981-396.02 97.926-556.43 43.944-160.41 102.98-285.29 156.8-379.85-77.612 87.585-149.65 206.16-194.41 369.54z"/><path id="path4155" d="m2440 2337.1c-178.06 162.42-383.4 314.7-620 428.57 132.24 291.41 352.06 679.44 611.43 927.14 261.66-131.91 548.96-400.42 615.71-610-168.2-65.5-495.6-406.2-607.1-745.7z" stroke="#AD9600" stroke-width="39" fill="#FFFB01"/><path id="path4163" d="m2332.9 2430.6c4.2182 141.2 24.409 275.75 74.246 397.95 59.23-20.631 121.25-37.415 184.29-31.429-24.168 70-38.392 145.71-51.429 215.71" stroke="#AD9600" stroke-width="39" fill="none"/><path id="path4564" fill="#FFFB01" d="m3054.7 2733.2c-16.846 83.677-48.602 161.39-84.146 237.59l94.752-3.5355z"/><path id="path4157" fill="#AD9600" d="m2937.4 3022.8 35.352 16.475c42.952-92.17 76.65-201.44 81.198-303.25-34.849 101.22-74.431 196.4-116.55 286.78z"/></g><g transform="translate(525.07 -44.362)"><g id="g4513" transform="matrix(.47457 0 -.023173 .47457 945.19 1679.5)"><path id="path4310" d="m1337 3036.6c-17.29-0.4348-30.367 13.012-10 25 22.442 13.209 45.805 19.997 69 23 20.424 2.6447 29.048-12.063 9-27-22.403-16.692-46.048-20.448-68-21zm26.731-112.35c-16.437-0.6595-35.859 8.5596-12.122 24.244 25.733 17.002 52.968 25.807 79.802 29.294 16.814 2.1853 30.789-5.6919 9.1117-23.274-17.636-14.304-49.522-29.17-76.792-30.264zm-30.305-156.57c-53.036 2.8545-76.089 35.441-22.223 56.568 75.261 29.52 152.66 52.12 229.3 62.63 41.973 5.7554 72.012-13.901 18.183-53.538-64.485-47.483-140.57-70.218-225.26-65.66zm-145.46-83.843c179.93-1.7162 385.3 49.219 493.96 142.43l-333.35 405.07c-15.425-24.586-41.173-30.245-72.731-25.254z" fill-rule="evenodd" fill="#F5F43F"/><path id="path4260" d="m322.86 52.429 92.85 617.14-254.28 90-58.57-377.14c-70.026-31.59-74.654-87.97-34.289-161.43 66.589-94.87 151.35-151.06 254.29-168.57z" clip-path="url(#clipPath4300)" transform="translate(892.96 2545.6)" fill="url(#radialGradient4327)"/><path id="path4258" d="m825.71 188.14-404.28 487.15 182.86 212.85 241.42-302.85c76.161 4.7814 113.79-43.424 98.571-164.29-7.3391-89.114-58.451-162.59-118.57-232.86z" clip-path="url(#clipPath4296)" transform="translate(892.96 2545.6)" fill="url(#radialGradient4319)"/><path id="path4241" d="m809.06 178.14c95.06 90.444 142.45 188.38 138.08 307.14-2.2527 61.291-40.95 117-101.43 98.571l-242.68 299.42-186.65-215.3-256.63 89.75-61.179-379.58c-76.423-16.24-67.351-108.23-15.714-177.14 52.703-70.34 144.65-154.07 278.57-150z" clip-path="url(#clipPath4292)" transform="translate(892.96 2545.6)" stroke="#704920" stroke-width="24" fill="none"/><path id="path4243" d="m162.14 238.14 187.86-59.28m-171.43 143.57 194.29-61.43m-172.14 207.14 205-55.714m-194.29 147.14 201.43-63.57m-190.71 140.71 195-60.714m436.42-144.29-138.57-156.42m81.43 219.28-142.86-162.14m52.143 280-154.29-165.71m100 236.43-127.86-140m79.286 202.14-150-165" clip-path="url(#clipPath4288)" transform="translate(892.96 2545.6)" stroke-dashoffset="21.6" stroke="#281d0a" stroke-width="24" fill="none"/><path id="path4253" d="m1067.7 2709.1 68.69 520.23m22.223-31.315-58.589-498.01m23.234 2.0203 75.762 499.02m35.355-31.315-67.68-474.77m23.392-5.4878 72.857 487.14" stroke="url(#radialGradient4405)" stroke-width="2" fill="none"/><path id="path4256" d="m1372.8 3225.3 318.2-372.75m25.304 29.754-321.28 376.33m31.315 15.152 321.23-361.63m16.162 21.213-311.13 380.83" stroke="url(#radialGradient4395)" stroke-width="2" fill="none"/><ellipse id="path4262" style="color:#000000" d="m 1151.4557,2699.5225 c 0,6.3118 -3.1979,11.4285 -7.1428,11.4285 -3.9449,0 -7.1429,-5.1167 -7.1429,-11.4285 0,-6.3119 3.198,-11.4286 7.1429,-11.4286 3.9449,0 7.1428,5.1167 7.1428,11.4286 z" rx="7.1429" ry="11.429" filter="url(#filter4385)" cy="2699.5" cx="1144.3" fill="#5a4d38"/><ellipse id="path4264" style="color:#000000" d="m 1044.3919,2783.7437 c 0,5.9173 -3.198,10.7142 -7.1429,10.7142 -3.9449,0 -7.1428,-4.7969 -7.1428,-10.7142 0,-5.9174 3.1979,-10.7143 7.1428,-10.7143 3.9449,0 7.1429,4.7969 7.1429,10.7143 z" rx="7.1429" ry="10.714" filter="url(#filter4381)" cy="2783.7" cx="1037.2" fill="#5a4d38"/><ellipse id="path4266" style="color:#000000" d="m 1003.6776,2819.8152 c 0,5.3256 -2.8782,9.6428 -6.42858,9.6428 -3.5504,0 -6.42857,-4.3172 -6.42857,-9.6428 0,-5.3256 2.87817,-9.6429 6.42857,-9.6429 3.55038,0 6.42858,4.3173 6.42858,9.6429 z" rx="6.4286" ry="9.6429" filter="url(#filter4377)" cy="2819.8" cx="997.25" fill="#5a4d38"/><ellipse id="path4268" style="color:#000000" d="m 1070.8205,3050.5293 c 0,4.1421 -2.7183,7.5 -6.0715,7.5 -3.3531,0 -6.0714,-3.3579 -6.0714,-7.5 0,-4.1421 2.7183,-7.5 6.0714,-7.5 3.3532,0 6.0715,3.3579 6.0715,7.5 z" rx="6.0714" ry="7.5" filter="url(#filter4369)" cy="3050.5" cx="1064.7" fill="#5a4d38"/><ellipse id="path4270" style="color:#000000" d="m 527.12421,494.50665 c 0,6.31183 -3.35787,11.42857 -7.5,11.42857 -4.14214,0 -7.5,-5.11674 -7.5,-11.42857 0,-6.31182 3.35786,-11.42857 7.5,-11.42857 4.14213,0 7.5,5.11675 7.5,11.42857 z" rx="7.5" transform="matrix(.87099 .49129 -.49129 .87099 892.96 2545.6)" ry="11.429" filter="url(#filter4361)" cy="494.51" cx="519.62" fill="#5a4d38"/><ellipse id="path4272" style="color:#000000" d="m 821.43505,564.1261 c 0,6.90356 -3.67766,12.5 -8.21429,12.5 -4.53662,0 -8.21428,-5.59644 -8.21428,-12.5 0,-6.90356 3.67766,-12.5 8.21428,-12.5 4.53663,0 8.21429,5.59644 8.21429,12.5 z" rx="8.2143" transform="matrix(.94958 .31352 -.31352 .94958 892.96 2545.6)" ry="12.5" filter="url(#filter4357)" cy="564.13" cx="813.22" fill="#5a4d38"/><ellipse id="path4274" style="color:#000000" d="m 956.54364,209.73802 c 0,5.32561 -3.35786,9.64286 -7.5,9.64286 -4.14214,0 -7.5,-4.31725 -7.5,-9.64286 0,-5.3256 3.35786,-9.64286 7.5,-9.64286 4.14214,0 7.5,4.31726 7.5,9.64286 z" rx="7.5" transform="matrix(.86639 .49938 -.49938 .86639 892.96 2545.6)" ry="9.6429" filter="url(#filter4353)" cy="209.74" cx="949.04" fill="#5a4d38"/><ellipse id="path4276" style="color:#000000" d="m 1000.6454,217.72833 c 0,5.91734 -3.19795,10.71429 -7.14284,10.71429 -3.94489,0 -7.14285,-4.79695 -7.14285,-10.71429 0,-5.91733 3.19796,-10.71428 7.14285,-10.71428 3.94489,0 7.14284,4.79695 7.14284,10.71428 z" rx="7.1429" transform="matrix(.95880 .28409 -.28409 .95880 892.96 2545.6)" ry="10.714" filter="url(#filter4349)" cy="217.73" cx="993.5" fill="#5a4d38"/><ellipse id="path4278" style="color:#000000" d="m 982.33569,92.450035 c 0,5.522848 -3.35786,10.000005 -7.5,10.000005 -4.14213,0 -7.5,-4.477157 -7.5,-10.000005 0,-5.522847 3.35787,-10 7.5,-10 4.14214,0 7.5,4.477153 7.5,10 z" rx="7.5" transform="matrix(.93167 .36329 -.36329 .93167 892.96 2545.6)" ry="10" filter="url(#filter4345)" cy="92.45" cx="974.84" fill="#5a4d38"/><ellipse id="path4280" style="color:#000000" d="m 1729.392,2866.2437 c 0,7.298 -3.3579,13.2142 -7.5,13.2142 -4.1422,0 -7.5,-5.9162 -7.5,-13.2142 0,-7.2981 3.3578,-13.2143 7.5,-13.2143 4.1421,0 7.5,5.9162 7.5,13.2143 z" rx="7.5" ry="13.214" filter="url(#filter4341)" cy="2866.2" cx="1721.9" fill="#5a4d38"/></g></g><g transform="translate(525.07 -44.362)"><path id="path4166" d="m2677.1 2962.9c558.84-19.852 1081.7 15.143 1595 122.51 91.942 19.232 135.52 50.339 142.16 126.06 9.7653 111.29 15.63 222.8-34.286 328.57-37.892 80.295-94.102 49.162-148.57 31.429-512.13-166.73-1057.4-298.88-1598-345.22" stroke="#AA5504" stroke-width="39" fill="#FFB22A"/><path id="path4541" fill="#FFFB01" d="m2214 2952c182.81 0.1763 364.48-6.4259 542-38-12.215 134.35-18.271 266.24-4 390-145.33-31.411-290.67-45.226-436-34z"/><path id="path4168" fill="#AD9600" d="m2771.4 2896-22.738 3.2715c-172.99 24.894-427.13 46.818-532.05 55.057 107.21 25.21 346.48 9.2999 514.76-13.45-2.6623 115.66-7.26 229.3-4.4179 340.5-136.24-35.467-305.89-29.599-407.52-10.187 102.01 5.2699 282.96 14.1 422.26 54.679l25.943 7.5567-1.0039-27.002c-4.6294-124.66 1.6006-253.94 4.2949-387.46z"/></g><g transform="translate(525.07 -44.362)"><path id="path4533" fill="#FFB22A" d="m3252.7 962.57c246.63 134.19 367.56 364.25 299.81 738.22l130.11 84.853-45.255 226.27-173.95 29.698c-72.96-36.912-153.75-76.822-219.2-140.01l-25.456 14.142c11.945 95.956 29.979 192.24 74.953 277.19 43.962 68.998 102.5 45.688 156.98 48.083l-144.25 152.74c-108.58-116.52-225.22-149.79-345.07-149.91-191.8 18.731-358.47-56.766-520.43-149.91l-299.81-526.09 367.7-599.63z"/><path id="path4207" fill="#AD047A" d="m3358 1984c14.267 98.4 37.434 185.9 90 248-51.992 2.2251-105.96 30.1-153-32-39.818-86.294-69.34-178.47-72-286l22-12z"/><path id="path4205" fill="#FF6600" d="m3304 2212c62.195-87.369 27.596-177.54-69-219 2.161 82.618 32.514 152.22 69 219z"/><path id="path4171" d="m3551.7 1706.9c53.554-264.07 19.176-572.33-262.64-719.23" stroke="#AA5504" stroke-width="39" fill="none"/><path id="path4173" d="m3374.4 1441.1c15.757 157.36 144.34 291.56 284.78 350.51-11.071 69.104-26.421 138.46-43.814 208.05-48.7 17.148-102.14 24.435-155.63 26.67-71.004-31.567-141.85-72.574-204.55-134.52l-18.976 19.205c66.569 65.77 141.67 108.77 215.47 141.32l2.8496 1.2578 3.1113-0.1192c61.258-2.3344 123.68-11.014 180.92-33.658 4.3171-1.7079 8.6995-3.2455 13.049-4.8682 0.2935-0.9789 0.6313-1.9455 0.8804-2.9365 19.156-76.218 36.189-152.73 47.771-229.54l2.3516-15.592-14.756-5.5625c-131.38-49.526-257.21-175.57-313.45-320.22z" transform="translate(-.000039167)" fill="#AA5504"/><path id="path4175" d="m3213.6 1909.9c-1.0229 103.16 18.081 197.94 64.482 283.7 18.346 33.91 38.624 52.762 66.83 58.432 20.018 4.0241 42.593 2.5751 72.379-0.5312-31.485 38.496-65.661 75.299-107.29 108.95-126.83-114.76-260.39-141.67-390.99-139.7-167.56 2.5277-322.5-43.746-468.96-151.76l-23.148 31.387c152.81 112.69 317.53 162.01 492.7 159.37 129.32-1.9507 253.21 22.97 376.16 140.41l12.057 11.518 13.248-10.121c62.438-47.692 109.69-100.86 150.72-155.92 6.3059-8.4628 13.292-19.039 18.523-28.205-10.84 0.7101-24.538 1.7763-35.349 2.8376-51.859 5.0908-84.293 9.3964-104.71 5.2929-20.414-4.1034-31.702-13.933-48.406-44.808-43.924-81.186-62.219-170.9-61.23-270.58z" transform="translate(-.000039167)" fill="#AA5504"/><path id="path4199" fill="#AA5504" d="m3177 1919.3c41.552-5.3319 71.725-30.886 86.974-64.347 17.272 59.242-38.98 86.377-86.974 64.347z"/><path id="path4201" fill="#AA5504" d="m3441 1821c-11.167 52.362 37.213 50.982 51.5 22.5-24.078 3.8094-42.079 1.1745-51.5-22.5z"/><path id="path4203" fill="#AA5504" d="m3586.5 1833c21.037 3.6274 35.46-2.2982 44.5-16 9.3405 36.045-32.584 37.899-44.5 16z"/></g><g transform="translate(525.07 -44.362)"><path id="path4237" clip-path="url(#clipPath4273)" fill="#fff" d="m3358 1258c60.982-138.17 125.71-104.19 192 2 13.498 156.1 18.788 311.18-10 462l-172-142z"/><path id="path4235" clip-path="url(#clipPath4257)" fill="#fff" d="m2944 1884c259.45-45.047 208.01-262.81 190-462-117.99-163.64-264.69-229.67-436-212-105.3 156-98.061 312-44 468 77.925 104.07 164.54 191.73 290 206z"/><ellipse id="path4225" style="color:#000000" d="m 3033.4131,1835.3551 c 0,145.275 -80.7286,263.0437 -180.3123,263.0437 -99.5837,0 -180.3122,-117.7687 -180.3122,-263.0437 0,-145.275 80.7285,-263.0437 180.3122,-263.0437 99.5837,0 180.3123,117.7687 180.3123,263.0437 z" clip-path="url(#clipPath4253)" rx="180.31" ry="263.04" transform="matrix(.99630 -.085926 .085926 .99630 0 0)" cy="1835.4" cx="2853.1" fill="url(#linearGradient4551)"/><ellipse id="path4227" style="color:#000000" d="m 2958.6336,1914.9872 c 0,110.9348 -54.1082,200.8652 -120.8541,200.8652 -66.7458,0 -120.854,-89.9304 -120.854,-200.8652 0,-110.9348 54.1082,-200.8653 120.854,-200.8653 66.7459,0 120.8541,89.9305 120.8541,200.8653 z" clip-path="url(#clipPath4249)" rx="120.85" ry="200.87" transform="matrix(.99458 -.10401 .10691 .99427 0 0)" cy="1915" cx="2837.8"/><ellipse id="path4229" style="color:#000000" d="m 3521.5505,1668.7683 c 0,114.0563 -44.6109,206.5171 -99.6413,206.5171 -55.0304,0 -99.6413,-92.4608 -99.6413,-206.5171 0,-114.0563 44.6109,-206.5171 99.6413,-206.5171 55.0304,0 99.6413,92.4608 99.6413,206.5171 z" clip-path="url(#clipPath4269)" rx="99.641" ry="206.52" transform="matrix(.99870 -.051021 .056777 .99839 0 0)" cy="1668.8" cx="3421.9" fill="url(#linearGradient4559)"/><ellipse id="path4231" style="color:#000000" d="m 3504.6579,1691.7954 c 0,88.6442 -29.4477,160.5045 -65.7734,160.5045 -36.3256,0 -65.7734,-71.8603 -65.7734,-160.5045 0,-88.6442 29.4478,-160.5045 65.7734,-160.5045 36.3257,0 65.7734,71.8603 65.7734,160.5045 z" clip-path="url(#clipPath4265)" rx="65.773" ry="160.5" transform="matrix(.99862 -.052484 .050317 .99873 0 0)" cy="1691.8" cx="3438.9"/><ellipse id="path4233" style="color:#000000" d="m 3559.5756,1569.2689 c 0,8.5916 -5.6985,15.5564 -12.7279,15.5564 -7.0295,0 -12.728,-6.9648 -12.728,-15.5564 0,-8.5915 5.6985,-15.5563 12.728,-15.5563 7.0294,0 12.7279,6.9648 12.7279,15.5563 z" clip-path="url(#clipPath4261)" rx="12.728" ry="15.556" cy="1569.3" cx="3546.8" fill="#fff"/><ellipse id="path4277" style="color:#000000" d="m 3269.8979,975.66144 c 0,51.82626 -23.3463,93.83976 -52.1455,93.83976 -28.7991,0 -52.1455,-42.0135 -52.1455,-93.83976 0,-51.82628 23.3464,-93.83978 52.1455,-93.83978 28.7992,0 52.1455,42.0135 52.1455,93.83978 z" rx="52.145" ry="93.84" transform="matrix(.98410 .17761 -.21431 .97677 0 0)" cy="975.66" cx="3217.8" fill="#fff"/><ellipse id="path4279" style="color:#000000" d="m 3470.0369,356.24976 c 0,12.15026 -7.1635,22 -16,22 -8.8366,0 -16,-9.84974 -16,-22 0,-12.15027 7.1634,-22 16,-22 8.8365,0 16,9.84973 16,22 z" rx="16" ry="22" transform="matrix(.92044 .39087 -.39087 .92044 0 0)" cy="356.25" cx="3454" fill="#fff"/><ellipse id="path4281" style="color:#000000" d="m 3705.1181,868.49371 c 0,35.05157 -16.1314,63.46648 -36.0305,63.46648 -19.899,0 -36.0304,-28.41491 -36.0304,-63.46648 0,-35.05156 16.1314,-63.46647 36.0304,-63.46647 19.8991,0 36.0305,28.41491 36.0305,63.46647 z" rx="36.03" ry="63.466" transform="matrix(.98638 .16446 -.15444 0.988 0 0)" cy="868.49" cx="3669.1" fill="#fff"/></g><g opacity=".5" transform="translate(525.07 -44.362)" stroke="#f00" stroke-width="1px" display="none" fill="#0f0"><ellipse id="path4210" style="color:#000000" d="m 2202.5644,2615.0681 c 0,179.6214 -102.8066,325.2334 -229.6251,325.2334 -126.8184,0 -229.6251,-145.612 -229.6251,-325.2334 0,-179.6214 102.8067,-325.2333 229.6251,-325.2333 126.8185,0 229.6251,145.6119 229.6251,325.2333 z" rx="229.63" ry="325.23" transform="matrix(.90678 -.42160 .41872 .90812 0 0)" cy="2615.1" cx="1972.9" display="inline"/><path id="path4212" d="m3525.6 1682.4c25.737-139.75 25.56-315.95-33.941-466.69-27.341-44.321-54.683-69.088-82.024-1.4142-20.872 87.21-27.68 174.42-18.385 261.63 26.728 89.137 77.732 150.96 134.35 206.48z"/></g><g transform="translate(525.07 -44.362)"><path id="path4301" d="m3447.9 1157.5c-10.326 0.021-19.949 5.5092-27.42 14.215-7.4708 8.7056-13.472 24.218-18.455 39.705-29.225 90.838-29.836 182.39-15.91 276.53l11.724 19.848c-13.539-91.531-4.9548-202.25 22.274-290.56 15.606-50.613 47.443-34.146 64.57-0.072 28.53 56.758 45.749 145.9 50.633 175.34 4.1769-29.955-6.4582-120.04-37.14-181.34-7.3645-14.713-13.685-29.672-21.723-40.359-7.1097-9.4541-18.227-13.324-28.553-13.303z"/><path id="path4173-5" fill="#AA5504" d="m3374.4 1441.1c15.757 157.36 144.34 291.56 284.78 350.51l41.074-9.1348 2.3516-15.592-14.756-5.5625c-131.38-49.526-257.21-175.57-313.45-320.22z"/><path id="path4299" d="m2820.6 1212.2c-43.688 0.2107-81.999 13.645-112.67 36.449-44.612 33.17-73.024 85.133-82.844 142.6-30.956 181.14 82.374 412.77 236 443.16-122.15-71.437-234.42-268.37-205.44-437.93 8.6683-50.722 33.597-95.293 70.783-122.94 37.186-27.649 86.669-39.406 149.01-23.068 61.424 16.097 112.88 60.958 151.26 115.86 38.382 54.903 71.239 98.476 92.077 153.28-3.162-63.199-25.393-112-66.669-171.04-41.276-59.043-97.917-109.51-168.81-128.09-21.868-5.7308-42.837-8.3673-62.695-8.2715z"/></g><g transform="translate(525.07 -44.362)"><path id="path4543" fill="#562900" d="m2236 1588c195.36 68.375 177.88 187.42 154 308 98.667-18.095 237.29 234.9 36 274 9.8236 85.078 55.539 86.409 96 100-31.276 151.08-145.69 101.64-266 38-206.43 227.13-448.73 4.7447-338-196-316.48-28.079-166.4-297.55-94-396-84.299-42.726-87.034-98.607-6-168-63.103-56.538-111.96-121.62-122-210 45.333 27.509 90.667 57.842 136 44-26.441-103.14 6.4498-180.85 92-236-129.82-186.53-165.64-342.19 60-412-73.016-269.05 79.256-351.65 314-366-40.373-256.56 342.06-503.91 632-82 105.96-70.651 212.76-111.21 324 8 198.8-189.26 484.52-136.67 378 298 164.55-80.506 386.63-76.824 422 284-44.038 176.49-125.51 309.92-276 364-167.43-20.918-184.06-89.456-150-174 58.287 66.593 112.37 65.898 160-38 16.4-115.31-69.7-306.01-278-226-128.8 87.21-219.6 202.9-242 370-87.46-66.756-180.11-126.25-294-156-93.602 158.75-181.55 63.097-270-10-31.666 98.464-118.38 138.82-246 136z"/><path id="path4318" fill="#1B0A03" d="m1944.3 1901.8c14.261 36.523 45.76 66.733 93.922 76.135-30.303 58.847-35.971 118.94-13.473 165.86 25.904 54.015 119.96 102.95 192.13 33.82-86.833 25.871-139.04-13.313-156.96-50.685-17.922-37.372-11.696-95.539 26.441-154.36l18.779-28.963-34.5-1.1347c-54.264-1.7834-80.584-22.598-92.006-51.85s-4.3247-83.162 13.595-128.03c-44.08 28.132-65.085 95.262-47.923 139.22z"/><path id="path4324" d="m2432.4 2168.9c0.3003 77.216 47.974 108.71 88.388 89.096 3.1332 126.87-160.38 146.07-255.27 43.84-64.321 94.473-181.21 119.78-266.4 84.144-85.189-35.636-136.88-135.73-73.013-282.13-265.55 24.113-245.09-273.73-90.51-376.18" stroke="#1B0A03" stroke-width="39" fill="none"/><path id="path4326" fill="#1B0A03" d="m1933.5 1127.3c-59.075 12.382-96.899 56.085-114.08 106.02-14.302 41.563-15.751 87.814-6.7773 129.55-34.734-1.3921-67.245-16.5-102.54-40.664l-35.539-24.33 5.1641 42.758c10.553 87.393 51.581 153.45 111.38 204.88-21.162 20.055-37.673 43.979-45.234 69.486-4.8377 16.32-5.8666 33.724-0.3574 50.193s17.507 31.545 35.148 41.125c34.592 18.785 57.026 43.222 52.569 85.646 36.044-37.576 8.4962-94.997-33.054-119.41-10.571-6.2113-15.268-12.524-17.68-19.732-2.4115-7.2088-2.3694-16.161 0.7656-26.736 6.27-21.151 25.6-46.953 49.996-65.318l20.537-15.459-20.422-15.613c-53.048-40.552-89.994-88.099-106.98-152.21 35.304 18.31 72.762 28.681 113.85 23.227l23.387-3.1055-7.4512-22.385c-12.94-38.872-13.828-88.682 0.1191-129.21 13.947-40.532 40.409-71.154 85.203-80.543z"/><path id="path4332" fill="#1B0A03" d="m2599.9 44.42c-5.0684-0.09548-10.169-0.07303-15.301 0.07227-80.423 2.277-159.45 24.66-217.48 77.234-54.045 48.967-87.902 123.92-87.264 226.29-79.051-6.579-167.13 16.3-234.51 66.664-74.068 55.359-121.78 146.99-96.504 263.05 2.4205 11.112 5.8741 23.145 10.02 35.463-14.302 2.8556-28.471 7.9937-41.926 16.098-95.588 57.573-123.15 152.81-104.89 242.6 18.26 89.793 99.669 213.21 176.98 214.09-52.688-44.127-122.93-144.01-138.76-221.86-15.831-77.85 4.0769-151.6 86.797-201.42 11.256-6.7793 23.783-10.456 36.549-11.984 7.9584 17.658 17.137 34.832 27.264 49.82 12.189 18.042 25.218 33.318 42.553 41.908 8.6675 4.2949 19.052 6.6886 29.58 4.8008s20.112-7.9742 27.516-16.236c15.25-17.018 16.246-41.85 6.8965-59.777-9.3491-17.928-25.916-31.746-45.936-42.225-18.021-9.4321-39.432-16.1-61.875-18.008-5.5574-14.841-9.9787-29.285-12.654-41.568-22.303-102.39 17.254-175.31 81.744-223.51s155.23-68.491 228.19-56.676l23.906 3.8711-1.3184-24.184c-5.759-105.6 24.866-173.94 73.84-218.31 48.974-44.372 118.52-65.061 192.4-67.152 144.39-4.0879 265.86 104.12 337.33 230.14l33.926-19.238c-73.7-130-200-247.02-357.1-249.98zm-581.2 709.61c8.8581 2.3654 17.23 5.6146 24.713 9.5312 14.856 7.7759 25.51 18.165 29.441 25.705 3.9319 7.5398 4.2694 9.4357-1.3594 15.717-3.0356 3.3874-4.4937 3.7224-5.3555 3.877-0.8617 0.15452-2.2171 0.21125-5.3828-1.3574-6.3314-3.1373-17.348-13.698-27.551-28.799-4.9817-7.3736-9.8612-15.765-14.506-24.674z"/><path id="path4338" fill="#1B0A03" d="m2952.1 900.87c20.838 73.951 8.8097 151.16-51.632 175.03-46.761 18.462-121.49-0.9763-180.14-91.412l-25.275-38.973-10.117 45.336c-12.277 55.013-40.437 87.775-82.191 107s-98.58 23.573-164.6 13.725l-5.7539 38.572c70.806 10.562 134.96 6.9357 186.67-16.871 40.913-18.838 73.05-51.2 91.871-95.971 63.145 75.92 144.13 100.56 203.54 74.996 89.82-38.65 100.23-140.42 37.634-211.43z"/><path id="path4344" fill="#1B0A03" d="m3481.6 164.13c-17.066-0.6191-34.651 1.2522-52.631 5.7363-47.947 11.958-98.807 41.292-156.12 88.523-4.5266 3.7306-8.9304 7.8163-13.23 12.141-5.4283-6.6452-11.294-12.895-17.725-18.543-56.779-49.868-126.21-66.588-190.19-50.93-63.978 15.658-151.52 77.823-143.32 155.21 26.577-56.256 100.92-104.68 152.6-117.33 51.673-12.647 106.81-0.13174 155.18 42.352 6.4393 5.6555 12.36 12.568 17.758 20.334-21.059 30.013-37.456 65.917-46.672 100.4-7.1638 26.809-10.131 52.704-4.8437 75.775 5.2874 23.072 23.047 44.284 48.881 48.625 26.292 4.4181 50.161-11.361 61.726-32.652 11.565-21.292 15.723-48.04 15.221-76.92-0.6386-36.74-8.99-77.302-26.629-112.23 5.3258-6.1026 10.7-11.728 16.055-16.141 54.634-45.027 101.2-70.915 140.75-80.779 39.553-9.8643 71.993-4.9077 104.25 13.555 44.541 25.49 75.148 70.436 88.781 133.89 13.633 63.451 9.4321 145.01-17.061 239.1l-13.242 47.029 41.984-24.988c94.536-56.266 172.84-58.444 235.32-30.334 62.477 28.11 110.48 88.675 137.14 163.86 25.582 72.154 9.9966 165.93-28.348 250.73-38.344 84.805-99.358 159.97-155.56 194.89-64.187 39.888-151.94 21.34-191.53-34.799-10.774-15.275-14.053-34.276-10.588-55.104 2.9882 3.2675 6.1649 6.3031 9.625 8.9101 16.998 12.807 37.899 17.623 58.342 17.119 40.885-1.0082 83.916-22.058 98.932-62.256 24.205-64.799 14.845-126.13-11.051-181.78-47.643-102.38-149.47-141.31-241.64-118.58-62.836 15.495-127.88 65.868-182.3 137.97-48.156 63.799-87.623 145.13-106.48 236.3-75.146-66.499-169.28-119.09-272.83-153.71l-12.367 36.988c111.12 37.154 210.49 95.92 284.45 169.34l27.586 27.391 5.4589-38.49c13.984-98.604 54.779-187.38 105.31-254.33 50.536-66.952 111.23-111.44 160.51-123.6 76.23-18.798 156.47 10.188 196.95 97.172 22.962 49.343 30.24 97.164 9.877 151.68-7.2687 19.459-36.254 36.246-63.361 36.914-13.554 0.3342-26.362-2.1979-33.91-9.2793-23.318-21.874-23.592-60.908-20.039-97.51-46.192 58.184-69.76 145.92-34.338 197.33 51.703 75.038 162.03 96.378 243.99 45.445 66.331-41.221 129.43-121.1 170.51-211.95 41.079-90.854 60.226-193.36 29.568-279.83-29.37-82.841-83.238-152.8-157.89-186.39-64.97-29.232-144.66-29.229-231.82 11.475 18.034-81.18 20.073-153.83 6.9493-214.91-15.402-71.685-52.336-127.95-107.54-159.54-24.989-14.301-51.989-22.249-80.432-23.281zm-226.9 178.29c8.9916 24.293 14.114 51.016 14.533 75.119 0.422 24.282-3.9907 45.651-10.496 57.627-6.5054 11.976-10.205 14.62-20.994 12.807-11.247-1.8899-14.348-5.8747-17.328-18.877-2.9797-13.002-1.6227-34.06 4.5059-56.994 6.1113-22.87 16.871-47.604 29.779-69.682z"/><path id="path4350" fill="#1B0A03" d="m2483 560.41c59.945-64.364 164.4-75.102 228.63-34.616 66.054 41.635 102.92 164.65 104.64 245.58 36.724-78.073-3.0523-228.12-83.843-278.57-91.644-57.233-236.37-21.026-249.43 67.61z"/><path id="path4356" fill="#1B0A03" d="m2795.5 627.98 19.047 34.031c87.309-48.863 213.31-26.285 281.24 27.063-30.072-86.651-197.79-117.18-300.28-61.095z"/></g><g transform="translate(525.07 -44.362)"><path id="path4535" fill="#FFB22A" d="m2498 1214-258 378c-88.956-218.58-124.83-447.04 14-708 44.466-67.46 86.861-81.048 126-10 79.36 113.33 95.122 226.67 118 340z"/><path id="path4378" fill="#AA5504" d="m2325.4 803.56c-1.7924 0.0173-3.5849 0.13363-5.3691 0.35547-28.548 3.5495-47.802 26.702-66.596 56.744-103.82 165.95-167.26 447.29-35.776 728.25l49.51 12.226c-143.91-277.59-81.233-559.05 19.328-719.79 16.574-26.493 31.597-37.885 38.346-38.725 3.3744-0.41957 6.5542 0.00035 12.834 4.7402 6.2798 4.7399 14.609 14.123 23.682 28.863 65.132 105.83 110.13 237.52 132.13 342.19 22-101.8-31.57-253.21-98.917-362.64-10.65-17.304-21.26-30.386-33.402-39.551-10.624-8.019-23.225-12.791-35.772-12.67z"/><path id="path4312" fill="#1B0A03" d="m2179.5 1583.8c69.798 19.89 153.79 66.051 184.15 120.66 30.357 54.614 33.176 124.84 1.6894 195.29l-17.445 39.031 40.91-12.414c35.443-10.756 59.859 0.9187 80.279 25.478 20.42 24.56 33.35 63.284 34.205 99.652 0.8553 36.369-10.227 68.771-30.463 85.047s-62.437 20.963-122.68 9.4819c48.753 43.519 113.57 47.903 147.13 20.909 33.561-26.994 46.057-71.831 45.01-116.36-1.0471-44.524-15.501-90.345-43.207-123.67-20.856-25.084-51.204-42.344-86.02-42.955 22.494-70.148 16.648-140.94-15.314-198.45-36.792-66.192-144.04-115.61-218.24-101.72z"/><path id="path4384" fill="#AA5504" d="m2257.8 1125.9c-20.996 132.09-0.3686 242.62 70.004 314.66-41.181-83.266-67.239-179.32-70.004-314.66z"/></g></svg>