<?xml version="1.0" encoding="UTF-8" standalone="no"?>
<!-- Created with Inkscape (http://www.inkscape.org/) -->

<svg
   xmlns:dc="http://purl.org/dc/elements/1.1/"
   xmlns:cc="http://creativecommons.org/ns#"
   xmlns:rdf="http://www.w3.org/1999/02/22-rdf-syntax-ns#"
   xmlns:svg="http://www.w3.org/2000/svg"
   xmlns="http://www.w3.org/2000/svg"
   xmlns:xlink="http://www.w3.org/1999/xlink"
   xmlns:sodipodi="http://sodipodi.sourceforge.net/DTD/sodipodi-0.dtd"
   xmlns:inkscape="http://www.inkscape.org/namespaces/inkscape"
   width="5786.3008"
   height="5786.2993"
   id="svg2"
   version="1.1"
   inkscape:version="0.48.4 r9939"
   viewBox="0 0 5786.3008 5786.2994"
   sodipodi:docname="Cheese Sandwich.svg"
   inkscape:export-filename="C:\Vectors\Vector All the Ponies\Cheese Sandwich.png"
   inkscape:export-xdpi="90"
   inkscape:export-ydpi="90">
  <title
     id="title4115">Cheese Sandwich</title>
  <defs
     id="defs4">
    <linearGradient
       id="linearGradient4545">
      <stop
         style="stop-color:#8fff4d;stop-opacity:1;"
         offset="0"
         id="stop4547" />
      <stop
         style="stop-color:#306309;stop-opacity:1;"
         offset="1"
         id="stop4549" />
    </linearGradient>
    <clipPath
       clipPathUnits="userSpaceOnUse"
       id="clipPath4249">
      <ellipse
         style="opacity:0.5;color:#000000;fill:#00ff00;fill-opacity:1;fill-rule:nonzero;stroke:#ff0000;stroke-width:1px;stroke-opacity:1;marker:none;visibility:visible;display:inline;overflow:visible;enable-background:accumulate"
         id="ellipse4251"
         cx="1974.7125"
         cy="2612.7573"
         rx="229.8315"
         ry="324.94592"
         transform="matrix(0.94581332,-0.3247109,0.31951209,0.9475822,0,0)"
         sodipodi:cx="1974.7125"
         sodipodi:cy="2612.7573"
         sodipodi:rx="229.8315"
         sodipodi:ry="324.94592" />
    </clipPath>
    <clipPath
       clipPathUnits="userSpaceOnUse"
       id="clipPath4253">
      <ellipse
         style="opacity:0.5;color:#000000;fill:#00ff00;fill-opacity:1;fill-rule:nonzero;stroke:#ff0000;stroke-width:1px;stroke-opacity:1;marker:none;visibility:visible;display:inline;overflow:visible;enable-background:accumulate"
         id="ellipse4255"
         cx="1972.9393"
         cy="2615.0681"
         rx="229.62511"
         ry="325.23334"
         transform="matrix(0.93965533,-0.34212257,0.33913706,0.94073698,0,0)"
         sodipodi:cx="1972.9393"
         sodipodi:cy="2615.0681"
         sodipodi:rx="229.62511"
         sodipodi:ry="325.23334" />
    </clipPath>
    <clipPath
       clipPathUnits="userSpaceOnUse"
       id="clipPath4257">
      <ellipse
         style="opacity:0.5;color:#000000;fill:#00ff00;fill-opacity:1;fill-rule:nonzero;stroke:#ff0000;stroke-width:1px;stroke-opacity:1;marker:none;visibility:visible;display:inline;overflow:visible;enable-background:accumulate"
         id="ellipse4259"
         cx="1972.9393"
         cy="2615.0681"
         rx="229.62511"
         ry="325.23334"
         transform="matrix(0.90678275,-0.4215982,0.41871667,0.90811693,0,0)"
         sodipodi:cx="1972.9393"
         sodipodi:cy="2615.0681"
         sodipodi:rx="229.62511"
         sodipodi:ry="325.23334" />
    </clipPath>
    <clipPath
       clipPathUnits="userSpaceOnUse"
       id="clipPath4261">
      <path
         style="opacity:0.5;fill:#00ff00;fill-opacity:1;stroke:#ff0000;stroke-width:1px;stroke-linecap:butt;stroke-linejoin:miter;stroke-opacity:1"
         d="m 3525.6344,1682.406 c 25.7367,-139.7524 25.5603,-315.9457 -33.9411,-466.6905 -27.3414,-44.3209 -54.6829,-69.0881 -82.0244,-1.4142 -20.872,87.2099 -27.6795,174.4197 -18.3848,261.6295 26.7282,89.1372 77.7323,150.9641 134.3503,206.4752 z"
         id="path4263"
         inkscape:connector-curvature="0"
         sodipodi:nodetypes="ccccc" />
    </clipPath>
    <clipPath
       clipPathUnits="userSpaceOnUse"
       id="clipPath4265">
      <path
         style="opacity:0.5;fill:#00ff00;fill-opacity:1;stroke:#ff0000;stroke-width:1px;stroke-linecap:butt;stroke-linejoin:miter;stroke-opacity:1"
         d="m 3436.5235,1865.1324 c 32.736,-138.2094 41.4253,-314.1695 -10.4158,-467.8298 -25.0768,-45.6949 -51.1375,-71.863 -81.8496,-5.7172 -25.2337,85.9944 -36.4207,172.7269 -31.5259,260.3046 22.2093,90.4173 70.038,154.8361 123.7913,213.2424 z"
         id="path4267"
         inkscape:connector-curvature="0"
         sodipodi:nodetypes="ccccc" />
    </clipPath>
    <clipPath
       clipPathUnits="userSpaceOnUse"
       id="clipPath4269">
      <path
         style="opacity:0.5;fill:#00ff00;fill-opacity:1;stroke:#ff0000;stroke-width:1px;stroke-linecap:butt;stroke-linejoin:miter;stroke-opacity:1"
         d="m 3424.4827,1860.1272 c 33.6304,-138.2596 43.4581,-314.2353 -7.3893,-467.8221 -24.7814,-45.659 -50.673,-71.7893 -81.8132,-5.5975 -25.7902,86.0329 -37.5384,172.7832 -33.2101,260.3551 21.6245,90.3863 69.0368,154.736 122.4126,213.0645 z"
         id="path4271"
         inkscape:connector-curvature="0"
         sodipodi:nodetypes="ccccc" />
    </clipPath>
    <clipPath
       clipPathUnits="userSpaceOnUse"
       id="clipPath4273">
      <path
         style="opacity:0.5;fill:#00ff00;fill-opacity:1;stroke:#ff0000;stroke-width:1px;stroke-linecap:butt;stroke-linejoin:miter;stroke-opacity:1"
         d="m 3525.6344,1682.406 c 25.7367,-139.7524 25.5603,-315.9457 -33.9411,-466.6905 -27.3414,-44.3209 -54.6829,-69.0881 -82.0244,-1.4142 -20.872,87.2099 -27.6795,174.4197 -18.3848,261.6295 26.7282,89.1372 77.7323,150.9641 134.3503,206.4752 z"
         id="path4275"
         inkscape:connector-curvature="0"
         sodipodi:nodetypes="ccccc" />
    </clipPath>
    <radialGradient
       inkscape:collect="always"
       xlink:href="#linearGradient4313"
       id="radialGradient4327"
       cx="349.65805"
       cy="449.15027"
       fx="349.65802"
       fy="449.15024"
       r="186.34813"
       gradientTransform="matrix(-0.9193896,0.15992362,-0.26323569,-1.5133232,791.99953,989.12196)"
       gradientUnits="userSpaceOnUse" />
    <linearGradient
       inkscape:collect="always"
       id="linearGradient4313">
      <stop
         style="stop-color:#5a4d38;stop-opacity:1"
         offset="0"
         id="stop4315" />
      <stop
         style="stop-color:#d4c6a9;stop-opacity:1"
         offset="1"
         id="stop4317" />
    </linearGradient>
    <clipPath
       clipPathUnits="userSpaceOnUse"
       id="clipPath4300">
      <path
         id="path4302"
         style="opacity:0.5;fill:#00ff00;fill-opacity:1;stroke:#ff0000;stroke-width:1px;stroke-linecap:butt;stroke-linejoin:miter;stroke-opacity:1"
         d="m 848.57144,183.85715 -441.42858,547.14287 200,194.28571 354.28572,-375.71429 C 996.49567,411.87609 934.94343,291.19273 848.57144,183.85715 z M 295.71429,25.285715 401.42857,708.14288 l -292.85715,90 -94.285717,-495.7143 C 29.904762,153.35953 127.73613,63.894411 295.71429,25.285715 z"
         inkscape:connector-curvature="0"
         sodipodi:nodetypes="cccccccccc" />
    </clipPath>
    <radialGradient
       inkscape:collect="always"
       xlink:href="#linearGradient4313"
       id="radialGradient4319"
       cx="613.52216"
       cy="491.53775"
       fx="613.52216"
       fy="491.53775"
       r="263.09357"
       gradientTransform="matrix(0.46201009,0.43619364,-0.72813813,0.77123354,687.9761,-170.56192)"
       gradientUnits="userSpaceOnUse" />
    <clipPath
       clipPathUnits="userSpaceOnUse"
       id="clipPath4296">
      <path
         id="path4298"
         style="opacity:0.5;fill:#00ff00;fill-opacity:1;stroke:#ff0000;stroke-width:1px;stroke-linecap:butt;stroke-linejoin:miter;stroke-opacity:1"
         d="m 848.57144,183.85715 -441.42858,547.14287 200,194.28571 354.28572,-375.71429 C 996.49567,411.87609 934.94343,291.19273 848.57144,183.85715 z M 295.71429,25.285715 401.42857,708.14288 l -292.85715,90 -94.285717,-495.7143 C 29.904762,153.35953 127.73613,63.894411 295.71429,25.285715 z"
         inkscape:connector-curvature="0"
         sodipodi:nodetypes="cccccccccc" />
    </clipPath>
    <clipPath
       clipPathUnits="userSpaceOnUse"
       id="clipPath4292">
      <path
         id="path4294"
         style="opacity:0.5;fill:#00ff00;fill-opacity:1;stroke:#ff0000;stroke-width:1px;stroke-linecap:butt;stroke-linejoin:miter;stroke-opacity:1"
         d="m 848.57144,183.85715 -441.42858,547.14287 200,194.28571 354.28572,-375.71429 C 996.49567,411.87609 934.94343,291.19273 848.57144,183.85715 z M 295.71429,25.285715 401.42857,708.14288 l -292.85715,90 -94.285717,-495.7143 C 29.904762,153.35953 127.73613,63.894411 295.71429,25.285715 z"
         inkscape:connector-curvature="0"
         sodipodi:nodetypes="cccccccccc" />
    </clipPath>
    <clipPath
       clipPathUnits="userSpaceOnUse"
       id="clipPath4288">
      <path
         id="path4290"
         style="opacity:0.5;fill:#00ff00;fill-opacity:1;stroke:#ff0000;stroke-width:1px;stroke-linecap:butt;stroke-linejoin:miter;stroke-opacity:1"
         d="m 848.57144,183.85715 -441.42858,547.14287 200,194.28571 354.28572,-375.71429 C 996.49567,411.87609 934.94343,291.19273 848.57144,183.85715 z M 295.71429,25.285715 401.42857,708.14288 l -292.85715,90 -94.285717,-495.7143 C 29.904762,153.35953 127.73613,63.894411 295.71429,25.285715 z"
         inkscape:connector-curvature="0"
         sodipodi:nodetypes="cccccccccc" />
    </clipPath>
    <radialGradient
       inkscape:collect="always"
       xlink:href="#linearGradient4313"
       id="radialGradient4405"
       cx="352.29514"
       cy="395.91437"
       fx="352.29514"
       fy="395.91437"
       r="99.602203"
       gradientTransform="matrix(-1.7201078,0.29920484,-0.4924937,-2.831312,2046.2295,3926.4806)"
       gradientUnits="userSpaceOnUse" />
    <radialGradient
       inkscape:collect="always"
       xlink:href="#linearGradient4313"
       id="radialGradient4395"
       cx="613.52216"
       cy="485.45749"
       fx="613.52216"
       fy="485.45749"
       r="196.9995"
       gradientTransform="matrix(0.61701624,0.5825383,-0.97243121,1.0299852,1600.0064,2164.3296)"
       gradientUnits="userSpaceOnUse" />
    <filter
       inkscape:collect="always"
       id="filter4385"
       x="-0.31200001"
       width="1.624"
       y="-0.19499999"
       height="1.39"
       color-interpolation-filters="sRGB">
      <feGaussianBlur
         inkscape:collect="always"
         stdDeviation="1.8571429"
         id="feGaussianBlur4387" />
    </filter>
    <filter
       inkscape:collect="always"
       id="filter4381"
       x="-0.30000001"
       width="1.6"
       y="-0.2"
       height="1.4"
       color-interpolation-filters="sRGB">
      <feGaussianBlur
         inkscape:collect="always"
         stdDeviation="1.7857143"
         id="feGaussianBlur4383" />
    </filter>
    <filter
       inkscape:collect="always"
       id="filter4377"
       x="-0.30000001"
       width="1.6"
       y="-0.19999999"
       height="1.4"
       color-interpolation-filters="sRGB">
      <feGaussianBlur
         inkscape:collect="always"
         stdDeviation="1.6071429"
         id="feGaussianBlur4379" />
    </filter>
    <filter
       inkscape:collect="always"
       id="filter4369"
       x="-0.2682353"
       width="1.5364707"
       y="-0.21714287"
       height="1.4342856"
       color-interpolation-filters="sRGB">
      <feGaussianBlur
         inkscape:collect="always"
         stdDeviation="1.3571429"
         id="feGaussianBlur4371" />
    </filter>
    <filter
       inkscape:collect="always"
       id="filter4361"
       x="-0.26786828"
       width="1.5357366"
       y="-0.21738397"
       height="1.4347678"
       color-interpolation-filters="sRGB">
      <feGaussianBlur
         inkscape:collect="always"
         stdDeviation="1.9228175"
         id="feGaussianBlur4363" />
    </filter>
    <filter
       inkscape:collect="always"
       id="filter4357"
       x="-0.28696817"
       width="1.5739363"
       y="-0.20624399"
       height="1.412488"
       color-interpolation-filters="sRGB">
      <feGaussianBlur
         inkscape:collect="always"
         stdDeviation="2.0875235"
         id="feGaussianBlur4359" />
    </filter>
    <filter
       inkscape:collect="always"
       id="filter4353"
       x="-0.25584412"
       width="1.5116882"
       y="-0.22600386"
       height="1.4520077"
       color-interpolation-filters="sRGB">
      <feGaussianBlur
         inkscape:collect="always"
         stdDeviation="1.7243233"
         id="feGaussianBlur4355" />
    </filter>
    <filter
       inkscape:collect="always"
       id="filter4349"
       x="-0.28766438"
       width="1.5753287"
       y="-0.20588587"
       height="1.4117717"
       color-interpolation-filters="sRGB">
      <feGaussianBlur
         inkscape:collect="always"
         stdDeviation="1.7965831"
         id="feGaussianBlur4351" />
    </filter>
    <filter
       inkscape:collect="always"
       id="filter4345"
       x="-0.26790583"
       width="1.5358117"
       y="-0.21735924"
       height="1.4347185"
       color-interpolation-filters="sRGB">
      <feGaussianBlur
         inkscape:collect="always"
         stdDeviation="1.7582542"
         id="feGaussianBlur4347" />
    </filter>
    <filter
       inkscape:collect="always"
       id="filter4341"
       x="-0.33142856"
       width="1.6628571"
       y="-0.18810812"
       height="1.3762162"
       color-interpolation-filters="sRGB">
      <feGaussianBlur
         inkscape:collect="always"
         stdDeviation="2.0714286"
         id="feGaussianBlur4343" />
    </filter>
    <linearGradient
       inkscape:collect="always"
       xlink:href="#linearGradient4545"
       id="linearGradient4551"
       x1="2883.1807"
       y1="2062.1616"
       x2="2869.3906"
       y2="1672.2483"
       gradientUnits="userSpaceOnUse" />
    <linearGradient
       inkscape:collect="always"
       xlink:href="#linearGradient4545"
       id="linearGradient4559"
       x1="3407.7151"
       y1="1827.0367"
       x2="3429.0388"
       y2="1525.4242"
       gradientUnits="userSpaceOnUse" />
  </defs>
  <sodipodi:namedview
     id="base"
     pagecolor="#ffffff"
     bordercolor="#666666"
     borderopacity="1.0"
     inkscape:pageopacity="0.0"
     inkscape:pageshadow="2"
     inkscape:zoom="0.088388348"
     inkscape:cx="2903.0746"
     inkscape:cy="2876.0715"
     inkscape:document-units="px"
     inkscape:current-layer="layer2"
     showgrid="false"
     fit-margin-top="0"
     fit-margin-left="594.26"
     fit-margin-right="594.26"
     fit-margin-bottom="0"
     inkscape:window-width="1280"
     inkscape:window-height="1002"
     inkscape:window-x="-8"
     inkscape:window-y="-2"
     inkscape:window-maximized="1"
     inkscape:snap-global="false"
     inkscape:object-paths="true"
     inkscape:object-nodes="true"
     showguides="false" />
  <metadata
     id="metadata7">
    <rdf:RDF>
      <cc:Work
         rdf:about="">
        <dc:format>image/svg+xml</dc:format>
        <dc:type
           rdf:resource="http://purl.org/dc/dcmitype/StillImage" />
        <dc:title>Cheese Sandwich</dc:title>
      </cc:Work>
    </rdf:RDF>
  </metadata>
  <g
     inkscape:groupmode="layer"
     id="layer14"
     inkscape:label="Background"
     sodipodi:insensitive="true"
     style="display:none"
     transform="translate(525.06602,-44.362267)">
    <rect
       style="color:#000000;fill:#000000;fill-opacity:1;fill-rule:nonzero;stroke:#00ff00;stroke-width:1;stroke-linecap:butt;stroke-linejoin:miter;stroke-miterlimit:4;stroke-opacity:1;stroke-dasharray:none;stroke-dashoffset:0;marker:none;visibility:visible;display:inline;overflow:visible;enable-background:accumulate"
       id="rect4562"
       width="4740.4438"
       height="6064.1479"
       x="-11.313747"
       y="-30.206619" />
  </g>
  <g
     inkscape:groupmode="layer"
     id="layer2"
     inkscape:label="Shadow"
     style="opacity:0.2;display:none"
     sodipodi:insensitive="true"
     transform="translate(525.06602,-44.362267)">
    <ellipse
       style="color:#000000;fill:#000000;fill-opacity:1;fill-rule:nonzero;stroke:none;stroke-width:1px;marker:none;visibility:visible;display:inline;overflow:visible;enable-background:accumulate"
       id="path4074"
       cx="2076.8738"
       cy="5717.1572"
       rx="1511.1882"
       ry="238.39598"
       sodipodi:cx="2076.8738"
       sodipodi:cy="5717.1572"
       sodipodi:rx="1511.1882"
       sodipodi:ry="238.39598"
       d="m 3588.062,5717.1572 c 0,131.6625 -676.582,238.396 -1511.1882,238.396 -834.6062,0 -1511.18825,-106.7335 -1511.18825,-238.396 0,-131.6624 676.58205,-238.396 1511.18825,-238.396 834.6062,0 1511.1882,106.7336 1511.1882,238.396 z" />
  </g>
  <g
     inkscape:groupmode="layer"
     id="layer3"
     inkscape:label="Rear Legs"
     style="display:inline"
     sodipodi:insensitive="true"
     transform="translate(525.06602,-44.362267)">
    <path
       style="fill:#dd9f3e;fill-opacity:1;stroke:none"
       d="m 2051.4286,3585.7144 c 20.9774,636.5766 621.6928,1687.1857 748.5714,1902.8571 42.0971,71.5577 92.4711,142.4438 -31.4286,174.2857 -92.8173,23.8538 -179.2955,15.5882 -262.8571,0 -98.8346,-18.4374 -136.4398,-99.4426 -177.1429,-182.8571 C 2110.442,5032.9782 1898.2871,4452.997 1820,4028.5715 c -10.547,-57.1797 38.4044,-52.6465 95.9594,-40.4763 l -292.4422,-420.5425 z"
       id="path4077-0"
       inkscape:connector-curvature="0"
       sodipodi:nodetypes="csssssccc" />
    <path
       style="font-style:normal;font-variant:normal;font-weight:normal;font-stretch:normal;text-indent:0;text-align:start;text-decoration:none;line-height:normal;letter-spacing:normal;word-spacing:normal;text-transform:none;direction:ltr;block-progression:tb;writing-mode:lr-tb;text-anchor:start;baseline-shift:baseline;color:#000000;fill:#a36600;fill-opacity:1;stroke:none;stroke-width:39;marker:none;visibility:visible;display:inline;overflow:visible;enable-background:accumulate;font-family:sans-serif;-inkscape-font-specification:sans-serif"
       d="m 2070.918,3585.0723 -38.9785,1.2851 c 10.6788,324.0592 167.2121,746.5576 336.3242,1116.7285 169.112,370.171 351.2933,687.2025 414.9297,795.3731 21.3452,36.2832 42.1919,71.5662 43.8984,93.6504 0.8533,11.0421 -1.0054,18.0168 -9.3203,26.4687 -8.315,8.4519 -25.0776,17.9456 -54.0547,25.3926 -88.9375,22.8567 -172.0268,15.0881 -254.4258,-0.2832 -44.7946,-8.3564 -74.0575,-29.7702 -98.8242,-60.2012 -24.7667,-30.4309 -43.9665,-70.2211 -64.3711,-112.0371 -217.3996,-445.5262 -429.1979,-1025.0523 -506.9199,-1446.414 -2.0212,-10.9578 -0.2485,-14.6903 1.125,-16.5352 1.3735,-1.8449 4.6605,-4.1676 12.5703,-5.5508 15.8195,-2.7663 45.0502,1.1014 73.1953,7.0528 l -27.4391,-44.7643 c -18.0306,-2.6081 -35.9081,-3.6012 -52.473,-0.7045 -13.7396,2.4026 -27.846,8.1995 -37.1348,20.6758 -9.2887,12.4763 -11.4476,29.2683 -8.1953,46.9004 78.8522,427.4893 291.3634,1007.9238 510.2227,1456.4414 20.2985,41.5985 40.2515,84.0181 69.1719,119.5527 28.9203,35.5346 67.8799,63.8428 121.9199,73.9238 84.7242,15.8051 174.59,24.5677 271.2871,-0.2832 32.9727,-8.4739 56.3753,-19.7835 72.1465,-35.8144 15.7712,-16.031 21.9192,-37.2199 20.4043,-56.8242 -3.0299,-39.2088 -28.4181,-75.1474 -49.17,-110.4219 -63.2422,-107.5008 -244.8587,-423.6091 -413.0683,-791.8047 -168.2096,-368.1956 -322.5218,-789.2892 -332.8203,-1101.8066 z"
       id="path4077"
       inkscape:connector-curvature="0"
       sodipodi:nodetypes="ccsssssssssssccsssssssssssc" />
    <path
       style="font-style:normal;font-variant:normal;font-weight:normal;font-stretch:normal;text-indent:0;text-align:start;text-decoration:none;line-height:normal;letter-spacing:normal;word-spacing:normal;text-transform:none;direction:ltr;block-progression:tb;writing-mode:lr-tb;text-anchor:start;baseline-shift:baseline;color:#000000;fill:#a36600;fill-opacity:1;stroke:none;stroke-width:39;marker:none;visibility:visible;display:inline;overflow:visible;enable-background:accumulate;font-family:sans-serif;-inkscape-font-specification:sans-serif"
       d="m 1652.5488,3572.7168 -32.2031,21.998 c 114.5887,167.7561 273.1292,422.8117 367.8023,479.1745 -60.8905,-81.0179 -221.2199,-333.7231 -335.5992,-501.1725 z"
       id="path4081"
       inkscape:connector-curvature="0"
       sodipodi:nodetypes="cccc" />
    <path
       style="fill:#dd9f3e;fill-opacity:1;stroke:#a36600;stroke-width:39;stroke-linecap:butt;stroke-linejoin:miter;stroke-miterlimit:4;stroke-opacity:1;stroke-dasharray:none"
       d="m 3121.4286,2642.8572 c 414.3139,-161.4992 951.8187,-405.7438 1392.8571,-731.4286 47.5518,-35.1146 95.1592,-65.4942 108.5714,-145.7143 22.3539,-133.7008 35.4502,-279.3633 12.8572,-417.1429 -14.2958,-87.1806 -47.9048,-80.3008 -117.1428,-21.4285 -416.9287,354.5099 -965.7096,786.4357 -1524.2858,1061.4285"
       id="path4106"
       inkscape:connector-curvature="0"
       sodipodi:nodetypes="cssssc" />
    <path
       style="fill:#e1f00f;fill-opacity:1;stroke:#8d8a04;stroke-width:39;stroke-linecap:butt;stroke-linejoin:miter;stroke-miterlimit:4;stroke-opacity:1;stroke-dasharray:none"
       d="m 2928.5714,2380 307.1429,-174.2857 c -7.7619,151.9048 -10.6871,300.6573 2.2832,452.562 l -270.8546,-156.8477"
       id="path4108"
       inkscape:connector-curvature="0"
       sodipodi:nodetypes="cccc" />
    <path
       style="fill:#fbff0f;fill-opacity:1;stroke:#8d8a04;stroke-width:39;stroke-linecap:butt;stroke-linejoin:miter;stroke-miterlimit:4;stroke-opacity:1;stroke-dasharray:none"
       d="m 2949.6454,2351.329 c 125.6724,86.885 226.3359,193.4198 276.7818,339.4113 l -127.2792,-18.1828 84.8528,131.3198 c -51.2756,91.3138 -108.3524,178.2323 -181.8275,230.3149 l -113.137,-14.1422 z"
       id="path4121"
       inkscape:connector-curvature="0"
       sodipodi:nodetypes="ccccccc" />
  </g>
  <g
     inkscape:groupmode="layer"
     id="layer4"
     inkscape:label="Tail"
     style="display:inline"
     sodipodi:insensitive="true"
     transform="translate(525.06602,-44.362267)">
    <path
       style="fill:#643f08;fill-opacity:1;stroke:#2a1e04;stroke-width:39;stroke-linecap:butt;stroke-linejoin:miter;stroke-miterlimit:4;stroke-opacity:1;stroke-dasharray:none"
       d="m 1324.31,2853.3748 c 70.6377,-128.9512 122.5233,-472.3179 -229.3046,-425.2742 37.1372,-278.3909 -287.91226,-422.8514 -400.02048,-195.9696 -45.29372,91.6643 -27.67241,303.9211 72.73098,264.66 100.4034,-39.2611 -11.54009,-210.9559 -133.34013,-246.4773 -197.02678,-57.4603 -242.94219,108.4227 -225.26402,289.9139 -136.89157,-46.9445 -259.32108,36.8055 -122.22846,182.8375 -63.87735,21.3817 -144.43156,-5.3378 -195.969599,-45.4568 1.53782,111.0409 31.235289,179.7755 111.116779,211.1219 -71.70809,27.9675 -108.17008,93.7412 -71.72083,202.0306 28.42149,84.4392 201.86424,113.968 196.97975,41.4163 -4.88449,-72.5518 -148.67135,-57.211 -204.05081,57.5786 -86.938559,180.2048 -13.37299,359.8715 261.62951,304.0559 -59.96089,240.1541 272.05131,335.9441 308.09653,93.9442 234.52957,102.0776 353.98688,-149.2896 211.12189,-401.0306 84.89904,24.1711 194.49989,-32.2269 86.87312,-161.6244 166.90167,11.5035 148.55567,-106.2198 40.40607,-188.8986 65.7093,-61.2547 163.0677,-104.7377 285.8732,22.2234 z"
       id="path4111"
       inkscape:connector-curvature="0"
       sodipodi:nodetypes="ccszsccccszsccccccc" />
    <path
       style="font-style:normal;font-variant:normal;font-weight:normal;font-stretch:normal;text-indent:0;text-align:start;text-decoration:none;line-height:normal;letter-spacing:normal;word-spacing:normal;text-transform:none;direction:ltr;block-progression:tb;writing-mode:lr-tb;text-anchor:start;baseline-shift:baseline;color:#000000;fill:#2a1e04;fill-opacity:1;stroke:none;stroke-width:39;marker:none;visibility:visible;display:inline;overflow:visible;enable-background:accumulate;font-family:sans-serif;-inkscape-font-specification:sans-serif"
       d="m 462.67969,2641.6895 c -14.01185,20.0608 -13.00829,46.6296 -2.29688,70.0527 5.48218,11.9881 13.47197,23.6648 23.75196,34.8183 -33.70256,8.4859 -62.10359,26.4962 -83.4043,50.0196 -30.57623,33.7667 -47.22641,78.3134 -48.37695,123.1406 -1.15055,44.8272 13.50165,90.5096 46.79296,124.7207 24.68288,25.3648 59.34593,43.7616 103.24219,51.293 -38.33125,42.092 -51.88811,96.8991 -36.07031,139.6601 28.68333,77.541 113.73673,73.361 179.88868,18.7841 -78.13376,24.7089 -127.3305,15.3774 -142.8086,-30.87 -11.83234,-35.3542 3.5066,-92.4913 58.36328,-126.7715 l 58.87695,-36.793 -69.42187,0.7579 c -59.50944,0.6487 -98.93186,-17.3747 -124.1211,-43.2598 -25.18923,-25.8852 -36.673,-60.788 -35.75586,-96.5215 0.91715,-35.7335 14.53925,-71.7241 38.29883,-97.9629 23.75959,-26.2388 56.9841,-43.2455 100.76367,-42.5469 l 65.14454,1.0411 -53.86133,-36.6582 c -23.95595,-16.3044 -39.06612,-34.2708 -45.83399,-49.0704 -6.76787,-14.7996 -10.42844,-25.5204 0.16406,-35.5332 37.09883,-35.0686 90.15388,-23.6234 148.18908,-15.8349 -49.82194,-30.783 -142.22054,-58.738 -181.52501,-2.4658 z"
       id="path4113"
       inkscape:connector-curvature="0"
       sodipodi:nodetypes="sscssscscssccsssccssscs" />
  </g>
  <g
     inkscape:groupmode="layer"
     id="layer5"
     inkscape:label="Body + Back Right Leg"
     style="display:inline"
     sodipodi:insensitive="true"
     transform="translate(525.06602,-44.362267)">
    <path
       style="fill:#f7b246;fill-opacity:1;stroke:none"
       d="m 1622.9305,3668.5421 c -228.583,392.3844 -282.7407,1436.3786 -220.8388,2012.2498 6.6912,62.2484 -16.1817,88.5077 -101.0152,105.0559 -95.2146,18.5732 -190.3948,33.5448 -290.924,20.203 -54.09105,-7.1787 -89.39206,-40.8938 -96.97462,-123.2386 -42.87179,-465.5774 79.56325,-1157.6055 246.47722,-1632.0599 15.9997,-45.4792 72.2511,-31.4897 117.4228,-23.3052 -98.2138,-360.4823 -105.2139,-814.9647 -15.0779,-1081.447 28.2026,-96.661 85.8556,-127.8765 162,-118.0001 145.1333,11.5334 286.1616,-13.8787 426,-50 l 540,862.0001 c -221.9031,102.9243 -455.67,173.0487 -767.0695,28.542 z"
       id="path4134-4"
       inkscape:connector-curvature="0"
       sodipodi:nodetypes="cssssscccccc" />
    <path
       id="path4126"
       style="fill:#f7b246;fill-opacity:1;stroke:#a36600;stroke-width:39;stroke-linecap:butt;stroke-linejoin:miter;stroke-miterlimit:4;stroke-opacity:1;stroke-dasharray:none"
       d="m 2401.4286,2387.1429 c 85.1448,-106.6977 98.3955,-237.3602 92.8571,-374.2858 l 447.1429,58.5715 c 44.4925,300.937 152.7231,742.0809 41.4285,1105.7144 l -580,459.9999 C 2177.442,3754.0584 1873.8121,3812.7774 1627.1429,3660"
       inkscape:connector-curvature="0"
       sodipodi:nodetypes="cccccc" />
    <path
       style="font-style:normal;font-variant:normal;font-weight:normal;font-stretch:normal;text-indent:0;text-align:start;text-decoration:none;line-height:normal;letter-spacing:normal;word-spacing:normal;text-transform:none;direction:ltr;block-progression:tb;writing-mode:lr-tb;text-anchor:start;baseline-shift:baseline;color:#000000;fill:#a36600;fill-opacity:1;stroke:none;stroke-width:39;marker:none;visibility:visible;display:inline;overflow:visible;enable-background:accumulate;font-family:sans-serif;-inkscape-font-specification:sans-serif"
       d="m 1875.8594,2748.6758 c -153.9724,41.2392 -307.9304,70.8199 -463.0742,60.2363 -39.6829,-2.707 -73.8584,0.8262 -102.3633,19.4492 -28.5049,18.6231 -48.4105,50.3486 -64.4942,97.0352 -130.1894,377.9046 -41.2124,1002.9761 56.7068,1192.7998 -43.5094,-204.462 -144.2867,-818.8433 -19.8337,-1180.0967 14.6353,-42.4824 30.4865,-65.0251 48.9531,-77.0898 18.4666,-12.0648 42.4778,-15.6384 78.377,-13.1895 161.7979,11.0376 320.0867,-19.7622 475.8183,-61.4726 z"
       id="path4128"
       inkscape:connector-curvature="0"
       sodipodi:nodetypes="cssscssscc" />
    <path
       style="font-style:normal;font-variant:normal;font-weight:normal;font-stretch:normal;text-indent:0;text-align:start;text-decoration:none;line-height:normal;letter-spacing:normal;word-spacing:normal;text-transform:none;direction:ltr;block-progression:tb;writing-mode:lr-tb;text-anchor:start;baseline-shift:baseline;color:#000000;fill:#a36600;fill-opacity:1;stroke:none;stroke-width:39;marker:none;visibility:visible;display:inline;overflow:visible;enable-background:accumulate;font-family:sans-serif;-inkscape-font-specification:sans-serif"
       d="m 1492.1895,3950.4199 c -44.7595,163.3825 -77.3116,358.0861 -99.0938,562.6035 -43.5643,409.0349 -44.0227,856.9932 -10.3926,1169.8536 3.0622,28.4868 -0.3339,42.9144 -10.9804,54.1992 -10.6466,11.2848 -33.5414,21.6667 -74.3789,29.6328 -94.7506,18.4827 -187.5731,32.892 -284.625,20.0117 -23.64727,-3.1383 -40.47814,-11.117 -53.58403,-26.668 -13.1059,-15.551 -22.97887,-40.3663 -26.53907,-79.0293 -42.39916,-460.4448 79.5204,-1152.1279 245.4551,-1623.7988 2.7089,-7.7002 5.8839,-11.0201 10.4101,-13.7461 4.5263,-2.7259 11.2133,-4.5594 20.0098,-5.0312 17.5931,-0.9437 42.0244,4.0009 65.1309,8.1875 l 6.9531,-38.375 c -22.0653,-3.998 -48.3464,-10.1411 -74.1719,-8.7559 -12.9127,0.6926 -26.1105,3.3782 -38.043,10.5645 -11.9324,7.1863 -21.7891,19.1735 -27.08,34.2128 -167.89325,477.238 -290.84445,1169.6084 -247.50003,1640.3184 4.02236,43.6819 15.59167,76.8985 35.55468,100.5859 19.96302,23.6875 47.82961,36.155 78.27345,40.1954 104.0065,13.8033 201.544,-1.7308 297.2226,-20.3946 43.996,-8.5821 74.9539,-19.6025 95.2793,-41.1465 20.3255,-21.5439 25.0198,-51.3713 21.3907,-85.1328 -33.2018,-308.8746 -32.8523,-755.4805 10.3965,-1161.5527 21.6243,-203.0361 53.9814,-396.0225 97.9257,-556.4297 43.9444,-160.4071 102.9786,-285.291 156.795,-379.8486 -77.6123,87.5851 -149.6488,206.1614 -194.4082,369.5439 z"
       id="path4134"
       inkscape:connector-curvature="0"
       sodipodi:nodetypes="ssssssssscsccssssssssssscs" />
    <path
       style="fill:#fbff0f;fill-opacity:1;stroke:#8d8a04;stroke-width:39;stroke-linecap:butt;stroke-linejoin:miter;stroke-miterlimit:4;stroke-opacity:1;stroke-dasharray:none"
       d="m 2440,2337.1429 c -178.0605,162.4157 -383.3957,314.6995 -620,428.5714 132.2373,291.4128 352.0633,679.4412 611.4285,927.1429 261.6643,-131.9057 548.9598,-400.4161 615.7144,-610 C 2878.8721,3017.3185 2551.5138,2676.5815 2440,2337.1429 z"
       id="path4155"
       inkscape:connector-curvature="0"
       sodipodi:nodetypes="ccccc" />
    <path
       style="fill:none;stroke:#8d8a04;stroke-width:39;stroke-linecap:butt;stroke-linejoin:miter;stroke-miterlimit:4;stroke-opacity:1;stroke-dasharray:none"
       d="m 2332.8972,2430.6209 c 4.2182,141.2045 24.4091,275.7537 74.2457,397.9505 59.2296,-20.6306 121.2536,-37.4153 184.2857,-31.4286 -24.1675,70 -38.392,145.7144 -51.4286,215.7144"
       id="path4163"
       inkscape:connector-curvature="0"
       sodipodi:nodetypes="cccc" />
    <path
       style="fill:#fbff0f;fill-opacity:1;stroke:none"
       d="m 3054.7013,2733.1667 c -16.8459,83.677 -48.6023,161.3898 -84.1457,237.5878 l 94.7523,-3.5355 z"
       id="path4564"
       inkscape:connector-curvature="0"
       sodipodi:nodetypes="cccc" />
    <path
       style="font-style:normal;font-variant:normal;font-weight:normal;font-stretch:normal;text-indent:0;text-align:start;text-decoration:none;line-height:normal;letter-spacing:normal;word-spacing:normal;text-transform:none;direction:ltr;block-progression:tb;writing-mode:lr-tb;text-anchor:start;baseline-shift:baseline;color:#000000;fill:#8d8a04;fill-opacity:1;stroke:none;stroke-width:39;marker:none;visibility:visible;display:inline;overflow:visible;enable-background:accumulate;font-family:sans-serif;-inkscape-font-specification:sans-serif"
       d="m 2937.375,3022.7734 35.3516,16.4746 c 42.9524,-92.1696 76.6503,-201.4359 81.1977,-303.2517 -34.8487,101.2249 -74.4313,196.398 -116.5493,286.7771 z"
       id="path4157"
       inkscape:connector-curvature="0"
       sodipodi:nodetypes="cccc" />
  </g>
  <g
     inkscape:groupmode="layer"
     id="layer13"
     inkscape:label="Cutie Mark"
     style="display:inline"
     sodipodi:insensitive="true"
     transform="translate(525.06602,-44.362267)">
    <g
       id="g4513"
       transform="matrix(0.47456659,0,-0.02317272,0.47456659,945.19048,1679.4538)">
      <path
         d="m 1336.9633,3036.6008 c -17.2902,-0.4348 -30.3669,13.0125 -10,25 22.4418,13.2088 45.8053,19.9966 69,23 20.4237,2.6447 29.0483,-12.0626 9,-27 -22.4031,-16.6919 -46.0477,-20.4479 -68,-21 z m 26.7311,-112.3503 c -16.4368,-0.6595 -35.8594,8.5596 -12.1218,24.2436 25.7331,17.0025 52.9676,25.8068 79.802,29.2944 16.8139,2.1853 30.7894,-5.6919 9.1117,-23.2741 -17.6357,-14.3038 -49.522,-29.1699 -76.7919,-30.2639 z m -30.3046,-156.5737 c -53.0356,2.8545 -76.0891,35.4407 -22.2233,56.5685 75.2612,29.5199 152.6598,52.1197 229.3046,62.6295 41.9726,5.7554 72.0123,-13.9013 18.1828,-53.5381 -64.4848,-47.4826 -140.5669,-70.2185 -225.2641,-65.6599 z m -145.4619,-83.8427 c 179.9325,-1.7162 385.3014,49.2188 493.9646,142.4315 l -333.3504,405.0712 c -15.4247,-24.586 -41.1733,-30.2448 -72.731,-25.2538 z"
         style="fill:#fbff0f;fill-opacity:1;fill-rule:evenodd;stroke:none;display:inline"
         id="path4310"
         inkscape:connector-curvature="0" />
      <path
         clip-path="url(#clipPath4300)"
         sodipodi:nodetypes="cccccc"
         inkscape:connector-curvature="0"
         id="path4260"
         d="M 322.85715,52.428572 415.71429,669.57144 161.42856,759.57145 102.85713,382.42858 C 32.83388,350.84462 28.205663,294.45565 68.57142,221 135.16291,126.13276 219.92483,69.942294 322.85715,52.428572 z"
         style="fill:url(#radialGradient4327);fill-opacity:1;stroke:none;display:inline"
         transform="translate(892.96332,2545.6008)" />
      <path
         clip-path="url(#clipPath4296)"
         sodipodi:nodetypes="cccccc"
         inkscape:connector-curvature="0"
         id="path4258"
         d="M 825.7143,188.14286 421.42857,675.28572 604.28571,888.14288 845.7143,585.28572 c 76.16135,4.78138 113.787,-43.42381 98.57142,-164.28571 -7.3391,-89.11359 -58.45061,-162.59417 -118.57142,-232.85715 z"
         style="fill:url(#radialGradient4319);fill-opacity:1;stroke:none;display:inline"
         transform="translate(892.96332,2545.6008)" />
      <path
         clip-path="url(#clipPath4292)"
         sodipodi:nodetypes="cscccccscc"
         inkscape:connector-curvature="0"
         id="path4241"
         d="m 809.06165,178.14286 c 95.06041,90.44394 142.44612,188.38305 138.08122,307.14286 -2.2527,61.2911 -40.94965,117.00159 -101.42857,98.57143 L 603.03046,883.26542 416.37781,667.96955 159.75489,757.72446 98.57142,378.14287 C 22.148495,361.90141 31.220079,269.91161 82.857133,201 135.56418,130.66043 227.50536,46.929328 361.42857,51 z"
         style="fill:none;stroke:#704920;stroke-width:24;stroke-linecap:butt;stroke-linejoin:miter;stroke-miterlimit:4;stroke-opacity:1;stroke-dasharray:none;display:inline"
         transform="translate(892.96332,2545.6008)" />
      <path
         clip-path="url(#clipPath4288)"
         sodipodi:nodetypes="cccccccccccccccccccc"
         inkscape:connector-curvature="0"
         id="path4243"
         d="M 162.14285,238.14287 350,178.85714 M 178.57142,322.42858 372.85714,261 m -172.14286,207.14287 205,-55.71429 M 211.42856,559.57144 412.85714,496.00001 m -190.71428,140.71429 195,-60.71429 M 853.57144,431.71429 715.00001,275.28572 M 796.42858,494.57144 653.57143,332.42858 m 52.14286,280 -154.28572,-165.71429 m 100.00001,236.42858 -127.85715,-140 m 79.28571,202.14286 -150,-165"
         style="fill:none;stroke:#281d0a;stroke-width:24;stroke-linecap:butt;stroke-linejoin:miter;stroke-miterlimit:4;stroke-opacity:1;stroke-dasharray:none;stroke-dashoffset:21.60002021;display:inline"
         transform="translate(892.96332,2545.6008)" />
      <path
         sodipodi:nodetypes="cccccccccc"
         inkscape:connector-curvature="0"
         d="m 1067.7197,2709.0879 68.6904,520.2286 m 22.2233,-31.3147 -58.5888,-498.0052 m 23.2335,2.0203 75.7615,499.0154 m 35.3553,-31.3148 -67.6802,-474.7717 m 23.3915,-5.4878 72.8571,487.1428"
         style="fill:none;stroke:url(#radialGradient4405);stroke-width:2;stroke-linecap:butt;stroke-linejoin:miter;stroke-miterlimit:4;stroke-opacity:1;stroke-dasharray:none;display:inline"
         id="path4253" />
      <path
         sodipodi:nodetypes="cccccccc"
         inkscape:connector-curvature="0"
         id="path4256"
         d="m 1372.7858,3225.2759 318.1981,-372.7463 m 25.3045,29.7538 -321.2792,376.3276 m 31.3147,15.1522 321.2285,-361.6346 m 16.1624,21.2132 -311.127,380.8275"
         style="fill:none;stroke:url(#radialGradient4395);stroke-width:2;stroke-linecap:butt;stroke-linejoin:miter;stroke-miterlimit:4;stroke-opacity:1;stroke-dasharray:none;display:inline" />
      <ellipse
         ry="11.428572"
         rx="7.1428571"
         cy="2699.5225"
         cx="1144.3129"
         id="path4262"
         style="color:#000000;fill:#5a4d38;fill-opacity:1;fill-rule:nonzero;stroke:none;stroke-width:1px;marker:none;visibility:visible;display:inline;overflow:visible;filter:url(#filter4385);enable-background:accumulate"
         d="m 1151.4557,2699.5225 c 0,6.3118 -3.1979,11.4285 -7.1428,11.4285 -3.9449,0 -7.1429,-5.1167 -7.1429,-11.4285 0,-6.3119 3.198,-11.4286 7.1429,-11.4286 3.9449,0 7.1428,5.1167 7.1428,11.4286 z"
         sodipodi:cx="1144.3129"
         sodipodi:cy="2699.5225"
         sodipodi:rx="7.1428571"
         sodipodi:ry="11.428572" />
      <ellipse
         ry="10.714286"
         rx="7.1428571"
         cy="2783.7437"
         cx="1037.249"
         id="path4264"
         style="color:#000000;fill:#5a4d38;fill-opacity:1;fill-rule:nonzero;stroke:none;stroke-width:1px;marker:none;visibility:visible;display:inline;overflow:visible;filter:url(#filter4381);enable-background:accumulate"
         d="m 1044.3919,2783.7437 c 0,5.9173 -3.198,10.7142 -7.1429,10.7142 -3.9449,0 -7.1428,-4.7969 -7.1428,-10.7142 0,-5.9174 3.1979,-10.7143 7.1428,-10.7143 3.9449,0 7.1429,4.7969 7.1429,10.7143 z"
         sodipodi:cx="1037.249"
         sodipodi:cy="2783.7437"
         sodipodi:rx="7.1428571"
         sodipodi:ry="10.714286" />
      <ellipse
         ry="9.6428576"
         rx="6.4285712"
         cy="2819.8152"
         cx="997.24902"
         id="path4266"
         style="color:#000000;fill:#5a4d38;fill-opacity:1;fill-rule:nonzero;stroke:none;stroke-width:1px;marker:none;visibility:visible;display:inline;overflow:visible;filter:url(#filter4377);enable-background:accumulate"
         d="m 1003.6776,2819.8152 c 0,5.3256 -2.8782,9.6428 -6.42858,9.6428 -3.5504,0 -6.42857,-4.3172 -6.42857,-9.6428 0,-5.3256 2.87817,-9.6429 6.42857,-9.6429 3.55038,0 6.42858,4.3173 6.42858,9.6429 z"
         sodipodi:cx="997.24902"
         sodipodi:cy="2819.8152"
         sodipodi:rx="6.4285712"
         sodipodi:ry="9.6428576" />
      <ellipse
         ry="7.5"
         rx="6.0714288"
         cy="3050.5293"
         cx="1064.749"
         id="path4268"
         style="color:#000000;fill:#5a4d38;fill-opacity:1;fill-rule:nonzero;stroke:none;stroke-width:1px;marker:none;visibility:visible;display:inline;overflow:visible;filter:url(#filter4369);enable-background:accumulate"
         d="m 1070.8205,3050.5293 c 0,4.1421 -2.7183,7.5 -6.0715,7.5 -3.3531,0 -6.0714,-3.3579 -6.0714,-7.5 0,-4.1421 2.7183,-7.5 6.0714,-7.5 3.3532,0 6.0715,3.3579 6.0715,7.5 z"
         sodipodi:cx="1064.749"
         sodipodi:cy="3050.5293"
         sodipodi:rx="6.0714288"
         sodipodi:ry="7.5" />
      <ellipse
         transform="matrix(0.87099489,0.49129205,-0.49129205,0.87099489,892.96332,2545.6008)"
         ry="11.428572"
         rx="7.5"
         cy="494.50665"
         cx="519.62421"
         id="path4270"
         style="color:#000000;fill:#5a4d38;fill-opacity:1;fill-rule:nonzero;stroke:none;stroke-width:1px;marker:none;visibility:visible;display:inline;overflow:visible;filter:url(#filter4361);enable-background:accumulate"
         d="m 527.12421,494.50665 c 0,6.31183 -3.35787,11.42857 -7.5,11.42857 -4.14214,0 -7.5,-5.11674 -7.5,-11.42857 0,-6.31182 3.35786,-11.42857 7.5,-11.42857 4.14213,0 7.5,5.11675 7.5,11.42857 z"
         sodipodi:cx="519.62421"
         sodipodi:cy="494.50665"
         sodipodi:rx="7.5"
         sodipodi:ry="11.428572" />
      <ellipse
         transform="matrix(0.94958256,0.31351708,-0.31351708,0.94958256,892.96332,2545.6008)"
         ry="12.5"
         rx="8.2142859"
         cy="564.1261"
         cx="813.22076"
         id="path4272"
         style="color:#000000;fill:#5a4d38;fill-opacity:1;fill-rule:nonzero;stroke:none;stroke-width:1px;marker:none;visibility:visible;display:inline;overflow:visible;filter:url(#filter4357);enable-background:accumulate"
         d="m 821.43505,564.1261 c 0,6.90356 -3.67766,12.5 -8.21429,12.5 -4.53662,0 -8.21428,-5.59644 -8.21428,-12.5 0,-6.90356 3.67766,-12.5 8.21428,-12.5 4.53663,0 8.21429,5.59644 8.21429,12.5 z"
         sodipodi:cx="813.22076"
         sodipodi:cy="564.1261"
         sodipodi:rx="8.2142859"
         sodipodi:ry="12.5" />
      <ellipse
         transform="matrix(0.86638584,0.49937517,-0.49937517,0.86638584,892.96332,2545.6008)"
         ry="9.6428576"
         rx="7.5"
         cy="209.73802"
         cx="949.04364"
         id="path4274"
         style="color:#000000;fill:#5a4d38;fill-opacity:1;fill-rule:nonzero;stroke:none;stroke-width:1px;marker:none;visibility:visible;display:inline;overflow:visible;filter:url(#filter4353);enable-background:accumulate"
         d="m 956.54364,209.73802 c 0,5.32561 -3.35786,9.64286 -7.5,9.64286 -4.14214,0 -7.5,-4.31725 -7.5,-9.64286 0,-5.3256 3.35786,-9.64286 7.5,-9.64286 4.14214,0 7.5,4.31726 7.5,9.64286 z"
         sodipodi:cx="949.04364"
         sodipodi:cy="209.73802"
         sodipodi:rx="7.5"
         sodipodi:ry="9.6428576" />
      <ellipse
         transform="matrix(0.95879811,0.28408832,-0.28408832,0.95879811,892.96332,2545.6008)"
         ry="10.714286"
         rx="7.1428571"
         cy="217.72833"
         cx="993.50256"
         id="path4276"
         style="color:#000000;fill:#5a4d38;fill-opacity:1;fill-rule:nonzero;stroke:none;stroke-width:1px;marker:none;visibility:visible;display:inline;overflow:visible;filter:url(#filter4349);enable-background:accumulate"
         d="m 1000.6454,217.72833 c 0,5.91734 -3.19795,10.71429 -7.14284,10.71429 -3.94489,0 -7.14285,-4.79695 -7.14285,-10.71429 0,-5.91733 3.19796,-10.71428 7.14285,-10.71428 3.94489,0 7.14284,4.79695 7.14284,10.71428 z"
         sodipodi:cx="993.50256"
         sodipodi:cy="217.72833"
         sodipodi:rx="7.1428571"
         sodipodi:ry="10.714286" />
      <ellipse
         transform="matrix(0.93167439,0.36329442,-0.36329442,0.93167439,892.96332,2545.6008)"
         ry="10"
         rx="7.5"
         cy="92.450035"
         cx="974.83569"
         id="path4278"
         style="color:#000000;fill:#5a4d38;fill-opacity:1;fill-rule:nonzero;stroke:none;stroke-width:1px;marker:none;visibility:visible;display:inline;overflow:visible;filter:url(#filter4345);enable-background:accumulate"
         d="m 982.33569,92.450035 c 0,5.522848 -3.35786,10.000005 -7.5,10.000005 -4.14213,0 -7.5,-4.477157 -7.5,-10.000005 0,-5.522847 3.35787,-10 7.5,-10 4.14214,0 7.5,4.477153 7.5,10 z"
         sodipodi:cx="974.83569"
         sodipodi:cy="92.450035"
         sodipodi:rx="7.5"
         sodipodi:ry="10" />
      <ellipse
         ry="13.214286"
         rx="7.5"
         cy="2866.2437"
         cx="1721.892"
         id="path4280"
         style="color:#000000;fill:#5a4d38;fill-opacity:1;fill-rule:nonzero;stroke:none;stroke-width:1px;marker:none;visibility:visible;display:inline;overflow:visible;filter:url(#filter4341);enable-background:accumulate"
         d="m 1729.392,2866.2437 c 0,7.298 -3.3579,13.2142 -7.5,13.2142 -4.1422,0 -7.5,-5.9162 -7.5,-13.2142 0,-7.2981 3.3578,-13.2143 7.5,-13.2143 4.1421,0 7.5,5.9162 7.5,13.2143 z"
         sodipodi:cx="1721.892"
         sodipodi:cy="2866.2437"
         sodipodi:rx="7.5"
         sodipodi:ry="13.214286" />
    </g>
  </g>
  <g
     inkscape:groupmode="layer"
     id="layer6"
     inkscape:label="Front Right Leg"
     style="display:inline"
     sodipodi:insensitive="true"
     transform="translate(525.06602,-44.362267)">
    <path
       style="fill:#f7b246;fill-opacity:1;stroke:#a36600;stroke-width:39;stroke-linecap:butt;stroke-linejoin:miter;stroke-miterlimit:4;stroke-opacity:1;stroke-dasharray:none"
       d="m 2677.1429,2962.8571 c 558.8393,-19.8523 1081.6871,15.1428 1594.9789,122.5107 91.9418,19.2319 135.5195,50.3391 142.1639,126.0609 9.7653,111.2888 15.6303,222.7954 -34.2857,328.5714 -37.8915,80.295 -94.1019,49.1617 -148.5714,31.4286 -512.1329,-166.7304 -1057.4269,-298.8824 -1597.9797,-345.2241"
       id="path4166"
       inkscape:connector-curvature="0"
       sodipodi:nodetypes="cssssc" />
    <path
       style="fill:#fbff0f;fill-opacity:1;stroke:none"
       d="m 2214,2952 c 182.8072,0.1763 364.4846,-6.4259 542,-38 -12.2152,134.3528 -18.2706,266.2416 -4,390.0001 -145.3333,-31.4109 -290.6667,-45.2257 -436,-34 z"
       id="path4541"
       inkscape:connector-curvature="0"
       sodipodi:nodetypes="ccccc" />
    <path
       style="font-style:normal;font-variant:normal;font-weight:normal;font-stretch:normal;text-indent:0;text-align:start;text-decoration:none;line-height:normal;letter-spacing:normal;word-spacing:normal;text-transform:none;direction:ltr;block-progression:tb;writing-mode:lr-tb;text-anchor:start;baseline-shift:baseline;color:#000000;fill:#8d8a04;fill-opacity:1;stroke:none;stroke-width:39;marker:none;visibility:visible;display:inline;overflow:visible;enable-background:accumulate;font-family:sans-serif;-inkscape-font-specification:sans-serif"
       d="m 2771.3887,2895.998 -22.7383,3.2715 c -172.99,24.8942 -427.1281,46.8181 -532.0479,55.0573 107.2123,25.2098 346.478,9.2999 514.7627,-13.4498 -2.6623,115.656 -7.26,229.3049 -4.4179,340.496 -136.2385,-35.4666 -305.8869,-29.5991 -407.519,-10.1871 102.0146,5.2699 282.9646,14.1001 422.2612,54.6793 l 25.9433,7.5567 -1.0039,-27.002 c -4.6294,-124.6615 1.6006,-253.9351 4.2949,-387.4551 z"
       id="path4168"
       inkscape:connector-curvature="0"
       sodipodi:nodetypes="ccccccccccc" />
  </g>
  <g
     inkscape:groupmode="layer"
     id="layer7"
     inkscape:label="Head"
     style="display:inline"
     sodipodi:insensitive="true"
     transform="translate(525.06602,-44.362267)">
    <path
       style="fill:#f7b246;fill-opacity:1;stroke:none"
       d="m 3252.6912,962.57131 c 246.6268,134.19169 367.5609,364.25069 299.8133,738.21949 l 130.1076,84.8528 -45.2548,226.2742 -173.9483,29.6985 c -72.9595,-36.9125 -153.7502,-76.8216 -219.2031,-140.0072 l -25.4558,14.1421 c 11.945,95.9561 29.9787,192.2397 74.9533,277.1859 43.9622,68.9976 102.4993,45.688 156.9777,48.0833 l -144.2498,152.735 c -108.5824,-116.5184 -225.2214,-149.7861 -345.0681,-149.9066 -191.7969,18.7311 -358.4662,-56.7661 -520.4306,-149.9067 l -299.8133,-526.0874 367.6956,-599.62653 z"
       id="path4533"
       inkscape:connector-curvature="0"
       sodipodi:nodetypes="ccccccccccccccc" />
    <path
       style="fill:#c53474;stroke:none"
       d="m 3358,1984 c 14.2666,98.4001 37.4336,185.8998 90,248 -51.9917,2.2251 -105.9564,30.1002 -153,-32 -39.8183,-86.2943 -69.34,-178.4723 -72,-286 l 22,-12 z"
       id="path4207"
       inkscape:connector-curvature="0"
       sodipodi:nodetypes="cccccc" />
    <path
       style="fill:#f67033;stroke:none"
       d="m 3304,2212 c 62.1948,-87.3692 27.596,-177.5411 -69,-219 2.161,82.618 32.5135,152.2246 69,219 z"
       id="path4205"
       inkscape:connector-curvature="0"
       sodipodi:nodetypes="ccc" />
    <path
       style="fill:none;stroke:#a36600;stroke-width:39;stroke-linecap:butt;stroke-linejoin:miter;stroke-miterlimit:4;stroke-opacity:1;stroke-dasharray:none"
       d="m 3551.6963,1706.8517 c 53.5535,-264.0745 19.1759,-572.3313 -262.6396,-719.22861"
       id="path4171"
       inkscape:connector-curvature="0"
       sodipodi:nodetypes="cc" />
    <path
       style="font-style:normal;font-variant:normal;font-weight:normal;font-stretch:normal;text-indent:0;text-align:start;text-decoration:none;line-height:normal;letter-spacing:normal;word-spacing:normal;text-transform:none;direction:ltr;block-progression:tb;writing-mode:lr-tb;text-anchor:start;baseline-shift:baseline;color:#000000;fill:#a36600;fill-opacity:1;stroke:none;stroke-width:39;marker:none;visibility:visible;display:inline;overflow:visible;enable-background:accumulate;font-family:sans-serif;-inkscape-font-specification:sans-serif"
       d="m 3374.4232,1441.1179 c 15.7573,157.3558 144.3381,291.5569 284.7799,350.5071 -11.0709,69.1043 -26.4207,138.4583 -43.8144,208.0527 -48.6995,17.1478 -102.1409,24.4352 -155.6328,26.67 -71.0035,-31.5667 -141.8527,-72.5736 -204.5528,-134.5215 l -18.9765,19.205 c 66.5689,65.7705 141.6738,108.7744 215.4687,141.3204 l 2.8496,1.2578 3.1113,-0.1192 c 61.2575,-2.3344 123.6804,-11.014 180.92,-33.6582 4.3171,-1.7079 8.6995,-3.2455 13.0493,-4.8682 0.2935,-0.9789 0.6313,-1.9455 0.8804,-2.9365 19.1557,-76.2176 36.1888,-152.7279 47.7714,-229.5371 l 2.3516,-15.5918 -14.7559,-5.5625 c -131.385,-49.5257 -257.207,-175.5738 -313.4498,-320.218 z"
       transform="translate(-3.9166667e-5,0)"
       id="path4173"
       inkscape:connector-curvature="0"
       sodipodi:nodetypes="cccccccccscscccc" />
    <path
       style="font-style:normal;font-variant:normal;font-weight:normal;font-stretch:normal;text-indent:0;text-align:start;text-decoration:none;line-height:normal;letter-spacing:normal;word-spacing:normal;text-transform:none;direction:ltr;block-progression:tb;writing-mode:lr-tb;text-anchor:start;baseline-shift:baseline;color:#000000;fill:#a36600;fill-opacity:1;stroke:none;stroke-width:39;marker:none;visibility:visible;display:inline;overflow:visible;enable-background:accumulate;font-family:sans-serif;-inkscape-font-specification:sans-serif"
       d="m 3213.6445,1909.8652 c -1.0229,103.163 18.0813,197.9366 64.4825,283.7012 18.3462,33.9098 38.6244,52.7619 66.83,58.4316 20.0185,4.0241 42.5931,2.5751 72.3789,-0.5312 -31.4848,38.4964 -65.6611,75.2991 -107.2949,108.9512 -126.8286,-114.7625 -260.3886,-141.6733 -390.9941,-139.7032 -167.5583,2.5277 -322.4971,-43.7455 -468.9649,-151.7597 l -23.1484,31.3867 c 152.8146,112.6948 317.5282,162.0117 492.7012,159.3691 129.3175,-1.9507 253.2082,22.9698 376.1562,140.4102 l 12.0567,11.5176 13.248,-10.1211 c 62.4381,-47.6918 109.6944,-100.8615 150.7168,-155.916 6.3059,-8.4628 13.2915,-19.0389 18.5231,-28.2048 -10.8403,0.7101 -24.5377,1.7763 -35.3493,2.8376 -51.8586,5.0908 -84.2933,9.3964 -104.707,5.2929 -20.4138,-4.1034 -31.7015,-13.9328 -48.4063,-44.8085 -43.924,-81.1863 -62.2189,-170.9018 -61.2304,-270.584 z"
       transform="translate(-3.9166667e-5,0)"
       id="path4175"
       inkscape:connector-curvature="0"
       sodipodi:nodetypes="cssccsccscccscssscc" />
    <path
       style="fill:#a36600;fill-opacity:1;stroke:none"
       d="m 3177.0308,1919.2868 c 41.5517,-5.3319 71.7253,-30.8865 86.9741,-64.3468 17.272,59.2423 -38.9795,86.3771 -86.9741,64.3468 z"
       id="path4199"
       inkscape:connector-curvature="0"
       sodipodi:nodetypes="ccc" />
    <path
       style="fill:#a36600;fill-opacity:1;stroke:none"
       d="m 3441,1821 c -11.167,52.3616 37.213,50.9823 51.5,22.5 -24.0779,3.8094 -42.0788,1.1745 -51.5,-22.5 z"
       id="path4201"
       inkscape:connector-curvature="0"
       sodipodi:nodetypes="ccc" />
    <path
       style="fill:#a36600;fill-opacity:1;stroke:none"
       d="m 3586.5,1833 c 21.0369,3.6274 35.4602,-2.2982 44.5,-16 9.3405,36.0447 -32.5844,37.899 -44.5,16 z"
       id="path4203"
       inkscape:connector-curvature="0"
       sodipodi:nodetypes="ccc" />
  </g>
  <g
     inkscape:groupmode="layer"
     id="layer9"
     inkscape:label="Eyes"
     style="display:inline"
     sodipodi:insensitive="true"
     transform="translate(525.06602,-44.362267)">
    <path
       style="fill:#ffffff;stroke:none"
       d="m 3358,1258 c 60.9818,-138.1735 125.7059,-104.1943 192,2 13.4982,156.104 18.7885,311.1819 -10,462 l -172,-142 z"
       id="path4237"
       inkscape:connector-curvature="0"
       sodipodi:nodetypes="ccccc"
       clip-path="url(#clipPath4273)" />
    <path
       style="fill:#ffffff;stroke:none"
       d="m 2944,1884 c 259.4493,-45.0466 208.0123,-262.808 190,-462 -117.9875,-163.6424 -264.6863,-229.6664 -436,-212 -105.2983,156 -98.0614,312 -44,468 77.9254,104.0669 164.5352,191.7299 290,206 z"
       id="path4235"
       inkscape:connector-curvature="0"
       sodipodi:nodetypes="ccccc"
       clip-path="url(#clipPath4257)" />
    <ellipse
       style="color:#000000;fill:url(#linearGradient4551);fill-opacity:1;fill-rule:nonzero;stroke:none;stroke-width:1px;marker:none;visibility:visible;display:inline;overflow:visible;enable-background:accumulate"
       id="path4225"
       cx="2853.1008"
       cy="1835.3551"
       rx="180.31224"
       ry="263.0437"
       transform="matrix(0.99630151,-0.08592615,0.08592615,0.99630151,0,0)"
       clip-path="url(#clipPath4253)"
       sodipodi:cx="2853.1008"
       sodipodi:cy="1835.3551"
       sodipodi:rx="180.31224"
       sodipodi:ry="263.0437"
       d="m 3033.4131,1835.3551 c 0,145.275 -80.7286,263.0437 -180.3123,263.0437 -99.5837,0 -180.3122,-117.7687 -180.3122,-263.0437 0,-145.275 80.7285,-263.0437 180.3122,-263.0437 99.5837,0 180.3123,117.7687 180.3123,263.0437 z" />
    <ellipse
       style="color:#000000;fill:#000000;fill-opacity:1;fill-rule:nonzero;stroke:none;stroke-width:1px;marker:none;visibility:visible;display:inline;overflow:visible;enable-background:accumulate"
       id="path4227"
       cx="2837.7795"
       cy="1914.9872"
       rx="120.85407"
       ry="200.86525"
       transform="matrix(0.99457672,-0.10400551,0.1069118,0.99426851,0,0)"
       clip-path="url(#clipPath4249)"
       sodipodi:cx="2837.7795"
       sodipodi:cy="1914.9872"
       sodipodi:rx="120.85407"
       sodipodi:ry="200.86525"
       d="m 2958.6336,1914.9872 c 0,110.9348 -54.1082,200.8652 -120.8541,200.8652 -66.7458,0 -120.854,-89.9304 -120.854,-200.8652 0,-110.9348 54.1082,-200.8653 120.854,-200.8653 66.7459,0 120.8541,89.9305 120.8541,200.8653 z" />
    <ellipse
       style="color:#000000;fill:url(#linearGradient4559);fill-opacity:1;fill-rule:nonzero;stroke:none;stroke-width:1px;marker:none;visibility:visible;display:inline;overflow:visible;enable-background:accumulate"
       id="path4229"
       cx="3421.9092"
       cy="1668.7683"
       rx="99.641319"
       ry="206.51714"
       transform="matrix(0.99869758,-0.05102103,0.05677666,0.9983869,0,0)"
       clip-path="url(#clipPath4269)"
       sodipodi:cx="3421.9092"
       sodipodi:cy="1668.7683"
       sodipodi:rx="99.641319"
       sodipodi:ry="206.51714"
       d="m 3521.5505,1668.7683 c 0,114.0563 -44.6109,206.5171 -99.6413,206.5171 -55.0304,0 -99.6413,-92.4608 -99.6413,-206.5171 0,-114.0563 44.6109,-206.5171 99.6413,-206.5171 55.0304,0 99.6413,92.4608 99.6413,206.5171 z" />
    <ellipse
       style="color:#000000;fill:#000000;fill-opacity:1;fill-rule:nonzero;stroke:none;stroke-width:1px;marker:none;visibility:visible;display:inline;overflow:visible;enable-background:accumulate"
       id="path4231"
       cx="3438.8845"
       cy="1691.7954"
       rx="65.773392"
       ry="160.50447"
       transform="matrix(0.99862174,-0.05248439,0.05031673,0.99873331,0,0)"
       clip-path="url(#clipPath4265)"
       sodipodi:cx="3438.8845"
       sodipodi:cy="1691.7954"
       sodipodi:rx="65.773392"
       sodipodi:ry="160.50447"
       d="m 3504.6579,1691.7954 c 0,88.6442 -29.4477,160.5045 -65.7734,160.5045 -36.3256,0 -65.7734,-71.8603 -65.7734,-160.5045 0,-88.6442 29.4478,-160.5045 65.7734,-160.5045 36.3257,0 65.7734,71.8603 65.7734,160.5045 z" />
    <ellipse
       style="color:#000000;fill:#ffffff;fill-opacity:1;fill-rule:nonzero;stroke:none;stroke-width:1px;marker:none;visibility:visible;display:inline;overflow:visible;enable-background:accumulate"
       id="path4233"
       cx="3546.8477"
       cy="1569.2689"
       rx="12.727922"
       ry="15.556349"
       clip-path="url(#clipPath4261)"
       sodipodi:cx="3546.8477"
       sodipodi:cy="1569.2689"
       sodipodi:rx="12.727922"
       sodipodi:ry="15.556349"
       d="m 3559.5756,1569.2689 c 0,8.5916 -5.6985,15.5564 -12.7279,15.5564 -7.0295,0 -12.728,-6.9648 -12.728,-15.5564 0,-8.5915 5.6985,-15.5563 12.728,-15.5563 7.0294,0 12.7279,6.9648 12.7279,15.5563 z" />
    <ellipse
       style="color:#000000;fill:#ffffff;fill-opacity:1;fill-rule:nonzero;stroke:none;stroke-width:1px;marker:none;visibility:visible;display:inline;overflow:visible;enable-background:accumulate"
       id="path4277"
       cx="3217.7524"
       cy="975.66144"
       rx="52.145496"
       ry="93.839783"
       transform="matrix(0.98410084,0.17761065,-0.21430889,0.97676594,0,0)"
       sodipodi:cx="3217.7524"
       sodipodi:cy="975.66144"
       sodipodi:rx="52.145496"
       sodipodi:ry="93.839783"
       d="m 3269.8979,975.66144 c 0,51.82626 -23.3463,93.83976 -52.1455,93.83976 -28.7991,0 -52.1455,-42.0135 -52.1455,-93.83976 0,-51.82628 23.3464,-93.83978 52.1455,-93.83978 28.7992,0 52.1455,42.0135 52.1455,93.83978 z" />
    <ellipse
       style="color:#000000;fill:#ffffff;fill-opacity:1;fill-rule:nonzero;stroke:none;stroke-width:1px;marker:none;visibility:visible;display:inline;overflow:visible;enable-background:accumulate"
       id="path4279"
       cx="3454.0369"
       cy="356.24976"
       rx="16"
       ry="22"
       transform="matrix(0.92044435,0.39087364,-0.39087364,0.92044435,0,0)"
       sodipodi:cx="3454.0369"
       sodipodi:cy="356.24976"
       sodipodi:rx="16"
       sodipodi:ry="22"
       d="m 3470.0369,356.24976 c 0,12.15026 -7.1635,22 -16,22 -8.8366,0 -16,-9.84974 -16,-22 0,-12.15027 7.1634,-22 16,-22 8.8365,0 16,9.84973 16,22 z" />
    <ellipse
       style="color:#000000;fill:#ffffff;fill-opacity:1;fill-rule:nonzero;stroke:none;stroke-width:1px;marker:none;visibility:visible;display:inline;overflow:visible;enable-background:accumulate"
       id="path4281"
       cx="3669.0876"
       cy="868.49371"
       rx="36.030464"
       ry="63.466473"
       transform="matrix(0.9863834,0.1644621,-0.15443642,0.98800273,0,0)"
       sodipodi:cx="3669.0876"
       sodipodi:cy="868.49371"
       sodipodi:rx="36.030464"
       sodipodi:ry="63.466473"
       d="m 3705.1181,868.49371 c 0,35.05157 -16.1314,63.46648 -36.0305,63.46648 -19.899,0 -36.0304,-28.41491 -36.0304,-63.46648 0,-35.05156 16.1314,-63.46647 36.0304,-63.46647 19.8991,0 36.0305,28.41491 36.0305,63.46647 z" />
  </g>
  <g
     inkscape:groupmode="layer"
     id="layer8"
     inkscape:label="Eye Clipping"
     style="opacity:0.5;display:none"
     sodipodi:insensitive="true"
     transform="translate(525.06602,-44.362267)">
    <ellipse
       style="color:#000000;fill:#00ff00;fill-opacity:1;fill-rule:nonzero;stroke:#ff0000;stroke-width:1px;stroke-opacity:1;marker:none;visibility:visible;display:inline;overflow:visible;enable-background:accumulate"
       id="path4210"
       cx="1972.9393"
       cy="2615.0681"
       rx="229.62511"
       ry="325.23334"
       transform="matrix(0.90678275,-0.4215982,0.41871667,0.90811693,0,0)"
       sodipodi:cx="1972.9393"
       sodipodi:cy="2615.0681"
       sodipodi:rx="229.62511"
       sodipodi:ry="325.23334"
       d="m 2202.5644,2615.0681 c 0,179.6214 -102.8066,325.2334 -229.6251,325.2334 -126.8184,0 -229.6251,-145.612 -229.6251,-325.2334 0,-179.6214 102.8067,-325.2333 229.6251,-325.2333 126.8185,0 229.6251,145.6119 229.6251,325.2333 z" />
    <path
       style="fill:#00ff00;fill-opacity:1;stroke:#ff0000;stroke-width:1px;stroke-linecap:butt;stroke-linejoin:miter;stroke-opacity:1"
       d="m 3525.6344,1682.406 c 25.7367,-139.7524 25.5603,-315.9457 -33.9411,-466.6905 -27.3414,-44.3209 -54.6829,-69.0881 -82.0244,-1.4142 -20.872,87.2099 -27.6795,174.4197 -18.3848,261.6295 26.7282,89.1372 77.7323,150.9641 134.3503,206.4752 z"
       id="path4212"
       inkscape:connector-curvature="0"
       sodipodi:nodetypes="ccccc" />
  </g>
  <g
     inkscape:groupmode="layer"
     id="layer10"
     inkscape:label="Eyelashes"
     style="display:inline"
     sodipodi:insensitive="true"
     transform="translate(525.06602,-44.362267)">
    <path
       style="font-style:normal;font-variant:normal;font-weight:normal;font-stretch:normal;text-indent:0;text-align:start;text-decoration:none;line-height:normal;letter-spacing:normal;word-spacing:normal;text-transform:none;direction:ltr;block-progression:tb;writing-mode:lr-tb;text-anchor:start;baseline-shift:baseline;color:#000000;fill:#000000;fill-opacity:1;stroke:none;stroke-width:19;marker:none;visibility:visible;display:inline;overflow:visible;enable-background:accumulate;font-family:sans-serif;-inkscape-font-specification:sans-serif"
       d="m 3447.9141,1157.4727 c -10.3258,0.021 -19.9491,5.5092 -27.42,14.2148 -7.4708,8.7056 -13.4724,24.2179 -18.455,39.7051 -29.2249,90.8379 -29.8355,182.3876 -15.9095,276.5349 l 11.7238,19.8481 c -13.539,-91.5312 -4.9548,-202.2548 22.2736,-290.5647 15.6055,-50.6133 47.4432,-34.1456 64.5703,-0.072 28.5297,56.7581 45.7486,145.8964 50.6327,175.338 4.1769,-29.9553 -6.4582,-120.0425 -37.1405,-181.3419 -7.3645,-14.7132 -13.6852,-29.6716 -21.7227,-40.3594 -7.1097,-9.4541 -18.227,-13.3236 -28.5527,-13.3027 z"
       id="path4301"
       inkscape:connector-curvature="0"
       sodipodi:nodetypes="cssccsscsssc" />
    <path
       style="font-style:normal;font-variant:normal;font-weight:normal;font-stretch:normal;text-indent:0;text-align:start;text-decoration:none;line-height:normal;letter-spacing:normal;word-spacing:normal;text-transform:none;direction:ltr;block-progression:tb;writing-mode:lr-tb;text-anchor:start;baseline-shift:baseline;color:#000000;fill:#a36600;fill-opacity:1;stroke:none;stroke-width:39;marker:none;visibility:visible;display:inline;overflow:visible;enable-background:accumulate;font-family:sans-serif;-inkscape-font-specification:sans-serif"
       d="m 3374.4231,1441.1179 c 15.7573,157.3558 144.3381,291.5569 284.7799,350.5071 l 41.0742,-9.1348 2.3516,-15.5918 -14.7559,-5.5625 c -131.385,-49.5257 -257.207,-175.5738 -313.4498,-320.218 z"
       id="path4173-5"
       inkscape:connector-curvature="0"
       sodipodi:nodetypes="cccccc" />
    <path
       style="font-style:normal;font-variant:normal;font-weight:normal;font-stretch:normal;text-indent:0;text-align:start;text-decoration:none;line-height:normal;letter-spacing:normal;word-spacing:normal;text-transform:none;direction:ltr;block-progression:tb;writing-mode:lr-tb;text-anchor:start;baseline-shift:baseline;color:#000000;fill:#000000;fill-opacity:1;stroke:none;stroke-width:31;marker:none;visibility:visible;display:inline;overflow:visible;enable-background:accumulate;font-family:sans-serif;-inkscape-font-specification:sans-serif"
       d="m 2820.5723,1212.25 c -43.6882,0.2107 -81.9989,13.6447 -112.67,36.4492 -44.6124,33.1702 -73.0235,85.1333 -82.8437,142.5957 -30.9564,181.1398 82.3742,412.7695 235.9951,443.1563 -122.1508,-71.4366 -234.4166,-268.3696 -205.4385,-437.9336 8.6683,-50.7216 33.5967,-95.2926 70.7832,-122.9414 37.1865,-27.6489 86.6689,-39.4062 149.0118,-23.0684 61.4241,16.0971 112.8795,60.958 151.2617,115.8613 38.3822,54.9034 71.2392,98.4756 92.0772,153.2765 -3.162,-63.1991 -25.393,-111.9953 -66.669,-171.0382 -41.2761,-59.0428 -97.9168,-109.5067 -168.8125,-128.0859 -21.8678,-5.7308 -42.8371,-8.3673 -62.6953,-8.2715 z"
       id="path4299"
       inkscape:connector-curvature="0"
       sodipodi:nodetypes="ssscsssscsss" />
  </g>
  <g
     inkscape:groupmode="layer"
     id="layer11"
     inkscape:label="Mane"
     style="display:inline"
     sodipodi:insensitive="true"
     transform="translate(525.06602,-44.362267)">
    <path
       style="fill:#643f08;fill-opacity:1;stroke:none"
       d="m 2236,1588 c 195.3584,68.375 177.8834,187.4246 154,308 98.6671,-18.0951 237.292,234.9014 36,274 9.8236,85.0783 55.5391,86.4087 96,100 -31.2759,151.0798 -145.6928,101.6428 -266,38 -206.4336,227.1327 -448.7272,4.7447 -338,-196 -316.4773,-28.079 -166.4029,-297.5547 -94,-396 -84.2988,-42.726 -87.0339,-98.6074 -6,-168 -63.1033,-56.538 -111.9601,-121.624 -122,-210 45.3333,27.5091 90.6667,57.8418 136,44 -26.4407,-103.1413 6.4498,-180.8549 92,-236 -129.8208,-186.52822 -165.6391,-342.18995 60,-411.99999 -73.0164,-269.04807 79.2561,-351.65016 314,-366 -40.3734,-256.56032 342.055,-503.91045 632,-82.00001 105.9634,-70.65107 212.7626,-111.21133 324,8 198.7971,-189.25532 484.5171,-136.66909 378,298.00001 164.5538,-80.50567 386.6276,-76.82441 422,284 -44.0376,176.49009 -125.5146,309.92489 -276,363.99999 -167.4269,-20.9178 -184.0559,-89.456 -150,-174 58.2871,66.5929 112.3686,65.8983 160,-38 C 3804.435,912.68628 3718.2723,721.98829 3510,802.00001 3381.1734,889.21342 3290.363,1004.939 3268,1172 c -87.4599,-66.7561 -180.1076,-126.2494 -294,-156 -93.6018,158.7464 -181.5503,63.0972 -270,-10 -31.6661,98.4636 -118.382,138.819 -246,136 z"
       id="path4543"
       inkscape:connector-curvature="0"
       sodipodi:nodetypes="cccccccccccccccccccccccccc" />
    <path
       style="font-style:normal;font-variant:normal;font-weight:normal;font-stretch:normal;text-indent:0;text-align:start;text-decoration:none;line-height:normal;letter-spacing:normal;word-spacing:normal;text-transform:none;direction:ltr;block-progression:tb;writing-mode:lr-tb;text-anchor:start;baseline-shift:baseline;color:#000000;fill:#2a1e04;fill-opacity:1;stroke:none;stroke-width:39;marker:none;visibility:visible;display:inline;overflow:visible;enable-background:accumulate;font-family:sans-serif;-inkscape-font-specification:sans-serif"
       d="m 1944.3066,1901.8457 c 14.2609,36.5234 45.7605,66.7333 93.9219,76.1348 -30.3031,58.8472 -35.9706,118.9422 -13.4726,165.8554 25.9035,54.0147 119.9616,102.9489 192.1286,33.8201 -86.833,25.8713 -139.042,-13.3129 -156.9646,-50.6853 -17.9225,-37.3724 -11.6957,-95.5389 26.4414,-154.3633 l 18.7793,-28.9629 -34.5,-1.1347 c -54.2644,-1.7834 -80.5841,-22.5976 -92.0058,-51.8496 -11.4218,-29.2521 -4.3247,-83.1621 13.595,-128.0305 -44.0803,28.1317 -65.0853,95.2623 -47.9232,139.216 z"
       id="path4318"
       inkscape:connector-curvature="0"
       sodipodi:nodetypes="scscscccscs" />
    <path
       style="fill:none;stroke:#2a1e04;stroke-width:39;stroke-linecap:butt;stroke-linejoin:miter;stroke-miterlimit:4;stroke-opacity:1;stroke-dasharray:none"
       d="m 2432.4473,2168.8955 c 0.3003,77.2156 47.9744,108.7085 88.3884,89.0955 3.1332,126.8651 -160.3768,146.0693 -255.2656,43.8405 -64.3206,94.4731 -181.2089,119.7797 -266.3983,84.1441 -85.1893,-35.6357 -136.8774,-135.7341 -73.0129,-282.1339 -265.5526,24.1134 -245.0888,-273.7342 -90.5097,-376.1808"
       id="path4324"
       inkscape:connector-curvature="0"
       sodipodi:nodetypes="ccczcc" />
    <path
       style="font-style:normal;font-variant:normal;font-weight:normal;font-stretch:normal;text-indent:0;text-align:start;text-decoration:none;line-height:normal;letter-spacing:normal;word-spacing:normal;text-transform:none;direction:ltr;block-progression:tb;writing-mode:lr-tb;text-anchor:start;baseline-shift:baseline;color:#000000;fill:#2a1e04;fill-opacity:1;stroke:none;stroke-width:39;marker:none;visibility:visible;display:inline;overflow:visible;enable-background:accumulate;font-family:sans-serif;-inkscape-font-specification:sans-serif"
       d="m 1933.4727,1127.334 c -59.0752,12.3816 -96.8986,56.0854 -114.0821,106.0234 -14.3015,41.5626 -15.7506,87.8139 -6.7773,129.5547 -34.7335,-1.3921 -67.2452,-16.4998 -102.541,-40.6641 l -35.5391,-24.33 5.1641,42.7578 c 10.5528,87.3932 51.5811,153.4548 111.3828,204.8789 -21.1616,20.0546 -37.6732,43.9792 -45.2344,69.4863 -4.8377,16.3196 -5.8666,33.724 -0.3574,50.1934 5.5092,16.4693 17.5073,31.5452 35.1484,41.125 34.5919,18.7846 57.0256,43.222 52.5692,85.6462 36.0436,-37.5758 8.4962,-94.997 -33.0536,-119.4118 -10.5706,-6.2113 -15.2682,-12.5236 -17.6796,-19.7325 -2.4115,-7.2088 -2.3694,-16.1607 0.7656,-26.7363 6.27,-21.1512 25.5998,-46.9534 49.9961,-65.3184 l 20.5371,-15.4589 -20.4219,-15.6133 c -53.0483,-40.5522 -89.9935,-88.0991 -106.9805,-152.209 35.3038,18.3102 72.7621,28.6808 113.8457,23.2266 l 23.3868,-3.1055 -7.4512,-22.3848 c -12.94,-38.8722 -13.828,-88.6823 0.1191,-129.2148 13.9471,-40.5325 40.4087,-71.1545 85.2032,-80.543 z"
       id="path4326"
       inkscape:connector-curvature="0"
       sodipodi:nodetypes="cscccccssscscscccccccscc" />
    <path
       style="font-style:normal;font-variant:normal;font-weight:normal;font-stretch:normal;text-indent:0;text-align:start;text-decoration:none;line-height:normal;letter-spacing:normal;word-spacing:normal;text-transform:none;direction:ltr;block-progression:tb;writing-mode:lr-tb;text-anchor:start;baseline-shift:baseline;color:#000000;fill:#2a1e04;fill-opacity:1;stroke:none;stroke-width:39;marker:none;visibility:visible;display:inline;overflow:visible;enable-background:accumulate;font-family:sans-serif;-inkscape-font-specification:sans-serif"
       d="m 2599.9062,44.419922 c -5.0684,-0.09548 -10.1687,-0.07303 -15.3007,0.07227 -80.4229,2.276966 -159.454,24.659748 -217.4805,77.234368 -54.0452,48.96739 -87.9017,123.91736 -87.2637,226.29492 -79.0509,-6.57899 -167.1268,16.30015 -234.5117,66.66407 -74.0682,55.35904 -121.7848,146.99111 -96.5039,263.05078 2.4205,11.11181 5.8741,23.14541 10.0195,35.46289 -14.3017,2.85561 -28.4709,7.99374 -41.9257,16.09766 -95.588,57.57313 -123.1526,152.80633 -104.8926,242.5996 18.2599,89.79332 99.6688,213.21452 176.9813,214.08752 -52.6875,-44.1271 -122.9334,-144.0093 -138.7645,-221.859 -15.8312,-77.84974 4.0769,-151.59721 86.7968,-201.41992 11.2556,-6.77926 23.7828,-10.45567 36.5489,-11.98438 7.9584,17.65767 17.1371,34.83157 27.2636,49.82032 12.1892,18.04168 25.2177,33.31831 42.5528,41.9082 8.6675,4.29494 19.0515,6.68856 29.5801,4.80078 10.5285,-1.88778 20.1116,-7.97417 27.5156,-16.23633 15.2504,-17.01796 16.2455,-41.8495 6.8965,-59.77734 -9.3491,-17.92785 -25.9156,-31.74605 -45.9356,-42.22461 -18.0207,-9.43212 -39.4315,-16.10008 -61.875,-18.00781 -5.5574,-14.84123 -9.9787,-29.28529 -12.6543,-41.56836 -22.3033,-102.39046 17.254,-175.30939 81.7442,-223.50977 64.4901,-48.20037 155.2285,-68.49148 228.1855,-56.67578 l 23.9063,3.87109 -1.3184,-24.18359 c -5.759,-105.60151 24.8661,-173.93622 73.8398,-218.30859 48.9738,-44.37237 118.5163,-65.060559 192.3985,-67.152344 144.3862,-4.087922 265.862,104.119694 337.3281,230.142574 l 33.9258,-19.23828 C 2883.2533,164.40189 2757.0275,47.37973 2599.9062,44.419922 z M 2018.6836,754.0332 c 8.8581,2.3654 17.2298,5.61456 24.7129,9.53125 14.8564,7.77594 25.5095,18.16525 29.4414,25.70508 3.9319,7.53983 4.2694,9.43567 -1.3594,15.7168 -3.0356,3.38738 -4.4937,3.72243 -5.3555,3.87695 -0.8617,0.15452 -2.2171,0.21125 -5.3828,-1.35742 -6.3314,-3.13734 -17.3483,-13.69767 -27.5507,-28.79883 -4.9817,-7.37356 -9.8612,-15.7653 -14.5059,-24.67383 z"
       id="path4332"
       inkscape:connector-curvature="0"
       sodipodi:nodetypes="ssscsscsscsscsssssscsscccssccscssscssc" />
    <path
       style="font-style:normal;font-variant:normal;font-weight:normal;font-stretch:normal;text-indent:0;text-align:start;text-decoration:none;line-height:normal;letter-spacing:normal;word-spacing:normal;text-transform:none;direction:ltr;block-progression:tb;writing-mode:lr-tb;text-anchor:start;baseline-shift:baseline;color:#000000;fill:#2a1e04;fill-opacity:1;stroke:none;stroke-width:39;marker:none;visibility:visible;display:inline;overflow:visible;enable-background:accumulate;font-family:sans-serif;-inkscape-font-specification:sans-serif"
       d="m 2952.1081,900.87341 c 20.8376,73.95086 8.8097,151.16399 -51.6315,175.02699 -46.7606,18.4617 -121.4886,-0.9763 -180.1387,-91.41212 l -25.2754,-38.97266 -10.1172,45.33594 c -12.2769,55.01274 -40.4374,87.77504 -82.1914,107.00004 -41.754,19.2249 -98.5801,23.5728 -164.6016,13.7246 l -5.7539,38.5722 c 70.8057,10.562 134.961,6.9357 186.6661,-16.8711 40.9127,-18.8375 73.0503,-51.2 91.871,-95.9707 63.1446,75.9204 144.1325,100.5595 203.5391,74.9961 89.8196,-38.6504 100.2345,-140.42325 37.6335,-211.42929 z"
       id="path4338"
       inkscape:connector-curvature="0"
       sodipodi:nodetypes="csscssccscsc" />
    <path
       style="font-style:normal;font-variant:normal;font-weight:normal;font-stretch:normal;text-indent:0;text-align:start;text-decoration:none;line-height:normal;letter-spacing:normal;word-spacing:normal;text-transform:none;direction:ltr;block-progression:tb;writing-mode:lr-tb;text-anchor:start;baseline-shift:baseline;color:#000000;fill:#2a1e04;fill-opacity:1;stroke:none;stroke-width:39;marker:none;visibility:visible;display:inline;overflow:visible;enable-background:accumulate;font-family:sans-serif;-inkscape-font-specification:sans-serif"
       d="m 3481.6348,164.12695 c -17.0655,-0.6191 -34.6509,1.25216 -52.6309,5.73633 -47.9467,11.95779 -98.8071,41.29159 -156.1172,88.52344 -4.5266,3.73062 -8.9304,7.81626 -13.2305,12.14062 -5.4283,-6.64519 -11.2938,-12.89493 -17.7246,-18.54296 -56.7792,-49.86843 -126.2117,-66.58775 -190.1894,-50.92969 -63.9778,15.65805 -151.5173,77.82307 -143.3248,155.21019 26.5773,-56.25607 100.9232,-104.68276 152.5963,-117.32933 51.673,-12.64657 106.8109,-0.13174 155.1816,42.35156 6.4393,5.65554 12.3602,12.56765 17.7578,20.33398 -21.0588,30.01271 -37.456,65.91677 -46.6719,100.4043 -7.1638,26.80865 -10.1311,52.70358 -4.8437,75.77539 5.2874,23.07181 23.0472,44.28388 48.8809,48.625 26.2916,4.41809 50.1611,-11.36059 61.7265,-32.65234 11.5654,-21.29176 15.7227,-48.03952 15.2207,-76.91992 -0.6386,-36.74035 -8.99,-77.30243 -26.6289,-112.23047 5.3258,-6.10261 10.7,-11.72755 16.0547,-16.14063 54.6343,-45.02659 101.1974,-70.91497 140.75,-80.7793 39.5526,-9.86432 71.9931,-4.90769 104.2539,13.55469 44.541,25.49018 75.1482,70.43579 88.7813,133.88672 13.633,63.45094 9.4321,145.01034 -17.0606,239.10352 l -13.2422,47.02929 41.9844,-24.98828 c 94.5357,-56.26635 172.8437,-58.44376 235.3203,-30.33398 62.4766,28.10978 110.4816,88.67507 137.1367,163.85742 25.5816,72.15434 9.9966,165.92744 -28.3476,250.7324 -38.3442,84.805 -99.3583,159.9666 -155.5606,194.8926 -64.1872,39.8881 -151.935,21.3396 -191.5293,-34.7988 -10.7736,-15.2754 -14.0533,-34.2761 -10.5879,-55.1035 2.9882,3.2675 6.1649,6.3031 9.625,8.9101 16.9983,12.8071 37.8993,17.6232 58.3418,17.1192 40.8852,-1.0082 83.9164,-22.0585 98.9317,-62.2559 24.205,-64.799 14.8447,-126.13237 -11.0508,-181.7793 -47.6426,-102.37894 -149.4707,-141.31286 -241.6426,-118.58399 -62.836,15.49487 -127.8803,65.86788 -182.3008,137.9668 -48.1556,63.79905 -87.6233,145.12989 -106.4765,236.30269 -75.1463,-66.4987 -169.2814,-119.0859 -272.834,-153.70894 l -12.3672,36.98824 c 111.1234,37.1544 210.4935,95.9195 284.4453,169.3438 l 27.586,27.3906 5.4589,-38.4902 c 13.9839,-98.6036 54.7789,-187.37798 105.3145,-254.3301 50.5356,-66.95211 111.2296,-111.44311 160.5117,-123.5957 76.2298,-18.79767 156.4671,10.18833 196.9453,97.17188 22.9622,49.34344 30.2402,97.16352 9.877,151.67772 -7.2687,19.4591 -36.2537,36.2457 -63.3613,36.9141 -13.5539,0.3342 -26.3615,-2.1979 -33.9102,-9.2793 -23.3176,-21.8741 -23.5918,-60.9081 -20.0391,-97.50979 -46.1925,58.18369 -69.7598,145.92119 -34.3379,197.33009 51.7032,75.0384 162.027,96.3776 243.9864,45.4453 66.3314,-41.2206 129.4327,-121.0976 170.5117,-211.9512 41.079,-90.85353 60.2256,-193.35943 29.5683,-279.83005 -29.3704,-82.84102 -83.2375,-152.80344 -157.8925,-186.39258 -64.9704,-29.23177 -144.6637,-29.22889 -231.8243,11.47461 18.0336,-81.17969 20.0734,-153.82815 6.9493,-214.91016 -15.4023,-71.6849 -52.3362,-127.95313 -107.5391,-159.54492 -24.989,-14.30082 -51.9891,-22.24941 -80.4316,-23.28125 z m -226.8965,178.28516 c 8.9916,24.29253 14.1142,51.0155 14.5332,75.11914 0.422,24.28234 -3.9907,45.6506 -10.4961,57.62695 -6.5054,11.97635 -10.2054,14.61959 -20.9942,12.80664 -11.2467,-1.88991 -14.3483,-5.87468 -17.3281,-18.87695 -2.9797,-13.00226 -1.6227,-34.05999 4.5059,-56.99414 6.1113,-22.86979 16.8707,-47.6037 29.7793,-69.68164 z"
       id="path4344"
       inkscape:connector-curvature="0"
       sodipodi:nodetypes="ssscsscsscssssscssssccsssssscsssssscccccssssssscssssscssscsssssc" />
    <path
       style="font-style:normal;font-variant:normal;font-weight:normal;font-stretch:normal;text-indent:0;text-align:start;text-decoration:none;line-height:normal;letter-spacing:normal;word-spacing:normal;text-transform:none;direction:ltr;block-progression:tb;writing-mode:lr-tb;text-anchor:start;baseline-shift:baseline;color:#000000;fill:#2a1e04;fill-opacity:1;stroke:none;stroke-width:39;marker:none;visibility:visible;display:inline;overflow:visible;enable-background:accumulate;font-family:sans-serif;-inkscape-font-specification:sans-serif"
       d="m 2483.0056,560.40676 c 59.9449,-64.36446 164.3979,-75.10214 228.6292,-34.61574 66.0537,41.6352 102.9155,164.65352 104.6398,245.58076 36.7243,-78.07276 -3.0523,-228.11992 -83.843,-278.5749 -91.6445,-57.23335 -236.3709,-21.02566 -249.426,67.60988 z"
       id="path4350"
       inkscape:connector-curvature="0"
       sodipodi:nodetypes="cscsc" />
    <path
       style="font-style:normal;font-variant:normal;font-weight:normal;font-stretch:normal;text-indent:0;text-align:start;text-decoration:none;line-height:normal;letter-spacing:normal;word-spacing:normal;text-transform:none;direction:ltr;block-progression:tb;writing-mode:lr-tb;text-anchor:start;baseline-shift:baseline;color:#000000;fill:#2a1e04;fill-opacity:1;stroke:none;stroke-width:39;marker:none;visibility:visible;display:inline;overflow:visible;enable-background:accumulate;font-family:sans-serif;-inkscape-font-specification:sans-serif"
       d="m 2795.4766,627.98438 19.0468,34.03124 c 87.3093,-48.86309 213.3092,-26.28537 281.237,27.06329 -30.0721,-86.65134 -197.7917,-117.18374 -300.2838,-61.09453 z"
       id="path4356"
       inkscape:connector-curvature="0"
       sodipodi:nodetypes="cccc" />
  </g>
  <g
     inkscape:groupmode="layer"
     id="layer12"
     inkscape:label="Ear"
     style="display:inline"
     sodipodi:insensitive="true"
     transform="translate(525.06602,-44.362267)">
    <path
       style="fill:#f7b246;fill-opacity:1;stroke:none"
       d="m 2498,1214 -258,378 c -88.9556,-218.5819 -124.8278,-447.0398 14,-707.99999 44.4664,-67.46041 86.8608,-81.04768 126,-10 79.3605,113.33333 95.1225,226.66669 118,339.99999 z"
       id="path4535"
       inkscape:connector-curvature="0"
       sodipodi:nodetypes="ccccc" />
    <path
       style="font-style:normal;font-variant:normal;font-weight:normal;font-stretch:normal;text-indent:0;text-align:start;text-decoration:none;line-height:normal;letter-spacing:normal;word-spacing:normal;text-transform:none;direction:ltr;block-progression:tb;writing-mode:lr-tb;text-anchor:start;baseline-shift:baseline;color:#000000;fill:#a36600;fill-opacity:1;stroke:none;stroke-width:39;marker:none;visibility:visible;display:inline;overflow:visible;enable-background:accumulate;font-family:sans-serif;-inkscape-font-specification:sans-serif"
       d="m 2325.4336,803.55859 c -1.7924,0.0173 -3.5849,0.13363 -5.3691,0.35547 -28.5481,3.54949 -47.8016,26.702 -66.5957,56.74414 -103.8164,165.949 -167.2585,447.2857 -35.7756,728.2514 l 49.5105,12.2256 c -143.9051,-277.5924 -81.2329,-559.0489 19.3275,-719.7934 16.5736,-26.49265 31.5968,-37.88548 38.3458,-38.72461 3.3744,-0.41957 6.5542,3.5e-4 12.8339,4.74023 6.2798,4.73988 14.6093,14.12251 23.6817,28.86328 65.1321,105.82692 110.1318,237.5227 132.1319,342.1939 22.0002,-101.8039 -31.5696,-253.20888 -98.9171,-362.6353 -10.6498,-17.30385 -21.2604,-30.38623 -33.4023,-39.55078 -10.6242,-8.01899 -23.2247,-12.791 -35.7715,-12.66993 z"
       id="path4378"
       inkscape:connector-curvature="0"
       sodipodi:nodetypes="sssccsssscsss" />
    <path
       style="font-style:normal;font-variant:normal;font-weight:normal;font-stretch:normal;text-indent:0;text-align:start;text-decoration:none;line-height:normal;letter-spacing:normal;word-spacing:normal;text-transform:none;direction:ltr;block-progression:tb;writing-mode:lr-tb;text-anchor:start;baseline-shift:baseline;color:#000000;fill:#2a1e04;fill-opacity:1;stroke:none;stroke-width:39;marker:none;visibility:visible;display:inline;overflow:visible;enable-background:accumulate;font-family:sans-serif;-inkscape-font-specification:sans-serif"
       d="m 2179.5284,1583.8453 c 69.7983,19.8898 153.7943,66.0507 184.1513,120.6645 30.357,54.6137 33.1756,124.8436 1.6894,195.291 l -17.4453,39.0312 40.9102,-12.414 c 35.4431,-10.7565 59.8591,0.9187 80.2793,25.4785 20.4201,24.5597 33.3498,63.2838 34.2051,99.6523 0.8553,36.3686 -10.2272,68.7706 -30.4629,85.0469 -20.2358,16.2763 -62.4367,20.9627 -122.6836,9.4819 48.7531,43.5192 113.566,47.903 147.1269,20.9087 33.561,-26.9942 46.0569,-71.8314 45.0098,-116.3554 -1.0471,-44.5241 -15.5006,-90.3449 -43.207,-123.668 -20.856,-25.0839 -51.204,-42.3442 -86.0196,-42.9551 22.4941,-70.1482 16.6485,-140.9423 -15.3144,-198.4453 -36.7925,-66.1915 -144.0374,-115.607 -218.2392,-101.7172 z"
       id="path4312"
       inkscape:connector-curvature="0"
       sodipodi:nodetypes="cssccssscssscsc" />
    <path
       style="fill:#a36600;fill-opacity:1;stroke:none"
       d="m 2257.792,1125.913 c -20.9963,132.0905 -0.3686,242.6245 70.0035,314.6625 -41.1807,-83.266 -67.2389,-179.3212 -70.0035,-314.6625 z"
       id="path4384"
       inkscape:connector-curvature="0"
       sodipodi:nodetypes="ccc" />
  </g>
</svg>
