<?xml version="1.0" encoding="UTF-8"?><svg xmlns="http://www.w3.org/2000/svg" viewBox="0 0 6239.6 6239.6" version="1.1" xmlns:xlink="http://www.w3.org/1999/xlink"><defs id="defs4"><linearGradient id="linearGradient4977"><stop id="stop4979" stop-color="#9bd753" offset="0"/><stop id="stop4981" stop-color="#44966f" offset="1"/></linearGradient><linearGradient id="linearGradient4842" y2="3776.6" gradientUnits="userSpaceOnUse" x2="2785.6" y1="3462.5" x1="1464.1"><stop id="stop4838" stop-color="#67ca6d" offset="0"/><stop id="stop6568" stop-color="#1c7f7c" offset=".62557"/><stop id="stop4840" stop-color="#10525a" offset="1"/></linearGradient><linearGradient id="linearGradient4850" y2="4007" gradientUnits="userSpaceOnUse" x2="2141.7" y1="3719.8" x1="2214.3"><stop id="stop6493" stop-color="#67ca6d" offset="0"/><stop id="stop6497" stop-color="#4e949e" offset=".44693"/><stop id="stop6495" stop-color="#10525a" offset="1"/></linearGradient><clipPath id="clipPath4939" clipPathUnits="userSpaceOnUse"><path id="path4941" d="m2619.6 2308.9 444.85-101.6c9.8849 290.63-141.09 361.09-295.26 359.47z" stroke="#000" stroke-width="1px" fill="#0f0"/></clipPath><clipPath id="clipPath4947" clipPathUnits="userSpaceOnUse"><path id="path4949" d="m2637.4 2322.7 400.33-133.05c33.483 264.91-99.366 342.96-241.2 355.38z" stroke="#000" stroke-width="1px" fill="#0f0"/></clipPath><clipPath id="clipPath4951" clipPathUnits="userSpaceOnUse"><path id="path4953" d="m2660.7 2297.1 414.35-86.322c-1.633 290.77-143.59 356.02-285.82 349.13z" stroke="#000" stroke-width="1px" fill="#0f0"/></clipPath><clipPath id="clipPath4955" clipPathUnits="userSpaceOnUse"><path id="path4957" d="m2174.8 2302.4c36.39 70.346 74.98 138.78 146.37 178.75 41.97-55.343 31.731-120.64 29.224-184.47z" stroke="#000" stroke-width="1px" fill="#0f0"/></clipPath><clipPath id="clipPath4959" clipPathUnits="userSpaceOnUse"><path id="path4961" d="m2196.4 2281.7c24.632 74.757 51.476 147.93 111.26 197.58 44.368-48.823 42.758-114.89 47.957-178.4z" stroke="#000" stroke-width="1px" fill="#0f0"/></clipPath><clipPath id="clipPath4967" clipPathUnits="userSpaceOnUse"><path id="path4969" d="m2198.9 2271.8c15.089 77.251 32.568 153.21 85.674 209.95 50.126-42.89 56.792-108.64 69.894-171z" stroke="#000" stroke-width="1px" fill="#0f0"/></clipPath><clipPath id="clipPath4971" clipPathUnits="userSpaceOnUse"><path id="path4973" d="m2196.4 2281.7c24.632 74.757 51.476 147.93 111.26 197.58 44.368-48.823 42.758-114.89 47.957-178.4z" stroke="#000" stroke-width="1px" fill="#0f0"/></clipPath><linearGradient id="linearGradient4983" y2="2286.3" xlink:href="#linearGradient4977" gradientUnits="userSpaceOnUse" x2="2849.3" y1="2495.4" x1="2893.4"/><linearGradient id="linearGradient4985" y2="2328.6" xlink:href="#linearGradient4977" gradientUnits="userSpaceOnUse" x2="2300.2" y1="2451.5" x1="2289.6"/><clipPath id="clipPath5006" clipPathUnits="userSpaceOnUse"><path id="path5008" opacity=".16667" d="m2544.6 2433.4 572.6-202.6c81.285 283.12-104.1 386.91-310.83 420.99z" stroke="#000" stroke-width="1px" fill="#0f0"/></clipPath><clipPath id="clipPath5029" clipPathUnits="userSpaceOnUse"><path id="path5031" opacity=".16667" d="m2209.8 2264.6c14.881 73.959 31.703 146.53 77.453 198.35 40.214-44.535 43.712-108.64 52.648-169.84z" stroke="#000" stroke-width="1px" fill="#0f0"/></clipPath><clipPath id="clipPath5060" clipPathUnits="userSpaceOnUse"><path id="path5062" d="m2719.5 1939.2c204.8-53.474 340.74 94.767 359.21 270.11l-377.6 87.681z" stroke="#000" stroke-width="1px" fill="none"/></clipPath><filter id="filter5720" color-interpolation-filters="sRGB"><feGaussianBlur id="feGaussianBlur5722" stdDeviation="2.9456715"/></filter><filter id="filter5724" color-interpolation-filters="sRGB"><feGaussianBlur id="feGaussianBlur5726" stdDeviation="2.9456715"/></filter><filter id="filter5728" height="1.0947" width="1.3467" y="-.047336" x="-.17334" color-interpolation-filters="sRGB"><feGaussianBlur id="feGaussianBlur5730" stdDeviation="2.9456715"/></filter><filter id="filter5732" height="1.0883" width="1.2479" y="-.044139" x="-.12395" color-interpolation-filters="sRGB"><feGaussianBlur id="feGaussianBlur5734" stdDeviation="2.9456715"/></filter><filter id="filter5736" color-interpolation-filters="sRGB"><feGaussianBlur id="feGaussianBlur5738" stdDeviation="2.9456715"/></filter><filter id="filter5740" color-interpolation-filters="sRGB"><feGaussianBlur id="feGaussianBlur5742" stdDeviation="2.9456715"/></filter><filter id="filter6514" height="1.1344" width="4.024" y="-0.0672" x="-1.512" color-interpolation-filters="sRGB"><feGaussianBlur id="feGaussianBlur6516" stdDeviation="1.781909"/></filter><filter id="filter6518" height="1.216" width="1.672" y="-0.108" x="-0.336" color-interpolation-filters="sRGB"><feGaussianBlur id="feGaussianBlur6520" stdDeviation="1.781909"/></filter><filter id="filter6522" height="1.1512" width="3.016" y="-0.0756" x="-1.008" color-interpolation-filters="sRGB"><feGaussianBlur id="feGaussianBlur6524" stdDeviation="1.781909"/></filter><filter id="filter6526" height="1.288" width="1.4032" y="-0.144" x="-.20160" color-interpolation-filters="sRGB"><feGaussianBlur id="feGaussianBlur6528" stdDeviation="1.781909"/></filter><filter id="filter6530" height="1.168" width="2.512" y="-0.084" x="-.75599" color-interpolation-filters="sRGB"><feGaussianBlur id="feGaussianBlur6532" stdDeviation="1.781909"/></filter><filter id="filter6556" color-interpolation-filters="sRGB"><feGaussianBlur id="feGaussianBlur6558" stdDeviation="1.18"/></filter></defs><g display="none" transform="translate(1096.9 -170.01)"><rect id="rect6484" style="color:#000000" display="inline" height="6478.4" width="3990.8" stroke="#0f0" y="10.815" x="10.815"/></g><g transform="translate(1096.9 -170.01)"><path id="path3776" d="m1716.2 3550-178.59 122.91c51.898 225.53 119.79 492.54 136.47 676.03-37.488 30.726-71.011 35.847-113.25 47.906 53.203 630.04 34.01 1156.8 4.125 1796.8 133.87 16.026 363.79 11.189 497.66-3.4375-22.121-124.57-45.855-250.21-70.875-377.19-191.18 238.16-255.93 68.982-56.563-279.53-84.333-336.21-168.15-661.36-247.91-1061.6 342.38-76.454 244.62-452.31 274.78-597.25zm74.562 1863.8c21.673-0.069 29.019 52.676 2.0938 129.59-71.175 203.33-113.72 118.49-69.313-20.094 24.817-77.454 50.362-109.45 67.219-109.5zm-48.25 297.75c24.218-1.254 25.519 70.978-7.875 158.28-80.356 210.08-145.78 166.06-73.625-24.938 35.836-94.864 64.386-132.46 81.5-133.34z" stroke="#181818" stroke-width="29" fill="#262626"/></g><g transform="translate(1096.9 -170.01)" stroke="#308aaf"><path id="path3815" d="m1412 3564.1c-119.6 589.2-537.64 1332.4-1147.6 1724.6 86.212-21.827 171.03-42.614 235.81-47.969 64.086-126.55 152.13-182.46 250.91-245.64-109.72 318.87-384.86 571.9-629.07 732.36l319.11-95.104c-77.408 100.69-183.56 154.84-276.93 229.7 68.31 5.296 135.3-4.0055 205.27 19.942-98.267 39.369-139.09 71.853-252.71 110.65 162.16 7.0291 218.39-28.655 369.21-97.38-70.377 62.935-151.33 109.57-237.29 148.48 474.43-29.59 685.36-272.04 854.62-546.46 179.4-290.83 283.91-1213.5 428.02-1860.1zm-412.4 1836.3c-91.849 253.45-275.76 349.26-154.13-56.317 101.58-338.71 284.75-304.13 154.13 56.317zm-285.22 238.75c-68.746 180.15-163.7 132.65-124.7-16.766 40.752-156.14 172.21-107.74 124.7 16.766zm109.55 132.6c-44.067 115.61-134.76 91.455-99.736-22.167 34.433-111.7 132.49-63.774 99.736 22.167z" stroke-miterlimit="9" stroke-width="29" fill="#1d5971"/><path id="path3823" d="m1185.1 4216.6c-121.53 420.49-379.48 895.65-642.63 1143.8" stroke-width="19" fill="none"/><path id="path3825" d="m1305 3928c-117.5 744.7-452.9 1333.3-945.09 1732" stroke-width="19" fill="none"/><path id="path3827" d="m1458.2 3568c-91.168 557.54-237.86 1145.7-429.23 1558.2m-219.74 444.21c-110.73 190.79-224.35 334.9-347.49 439.2" stroke-width="19" fill="none"/><path id="path3829" d="m1444.6 4060.5c-151.6 629.6-312.3 1324.5-614.26 1771.7" stroke-width="19" fill="none"/><path id="path6534" d="m1146 4695 38-80" filter="url(#filter6556)" stroke-linecap="round" stroke-width="11" fill="none"/></g><g transform="translate(1096.9 -170.01)" stroke="#308aaf" display="none"><path id="path4200" d="m3065.4 1834.8-764.9 58.8c-127.65 331.96-440.63 835.77 43.406 1795.9l-43.4 453c-58.92 182.16-166.92 319.97-313.16 412.34 165.07 122.67 396.45-27.174 491.06-297.47-1.342 101.03-38.615 231.88-78.969 319.34 57.587-0.1869 229.73-132.67 335.09-209.88 120.87-67.106 185.66-67.751 234.84-50.094 76.515 27.471 108.79 97.038 119.06 146 34.383 163.82-15.046 273-107.44 360.66 527.94-79.854 497.2-1243.3 387.5-1392.7l-303.09-1596zm8.9063 1917.6c66.462 0.51 118.76 69.065 94.688 273.09-35.046 296.98-312.51 385.65-287.75-65.219-15.708-81.474 101.98-208.57 193.06-207.88z" stroke-miterlimit="14" stroke-width="29" fill="#1d5971"/><path id="path4204" d="m3301.5 3600c-30.833 322.68-30.519 662.05-2.7128 963.06" stroke-width="19" fill="none"/><path id="path4206" d="m2862.1 4093.7c14.136 70.534 32.075 141.07 32.554 211.6" stroke-width="19" fill="none"/><path id="path4208" d="m3036.6 4255.6 0.0001 93.996" stroke-width="19" fill="none"/><path id="path6443" d="m2619.3 2584.4c6.8898 353.66-6.9837 700.4-30.59 1043.9" stroke-width="19" fill="none"/></g><g transform="translate(1096.9 -170.01)" stroke="#308aaf"><path id="path4200-6" d="m3065.4 1916.8-764.9-23.2c-127.65 331.96-440.63 835.77 43.406 1795.9l-43.4 453c-58.92 182.16-166.92 319.97-313.16 412.34 165.07 122.67 396.45-27.174 491.06-297.47-1.342 101.03-38.615 231.88-78.969 319.34 57.587-0.1869 229.73-132.67 335.09-209.88 120.87-67.106 185.66-67.751 234.84-50.094 76.515 27.471 108.79 97.038 119.06 146 34.383 163.82-15.046 273-107.44 360.66 527.94-79.854 497.2-1243.3 387.5-1392.7zm8.9063 1835.6c66.462 0.51 118.76 69.065 94.688 273.09-35.046 296.98-312.51 385.65-287.75-65.219-15.708-81.474 101.98-208.57 193.06-207.88z" stroke-miterlimit="14" stroke-width="29" fill="#1d5971"/><path id="path4204-1" d="m3301.5 3600c-30.833 322.68-30.519 662.05-2.7128 963.06" stroke-width="19" fill="none"/><path id="path4206-6" d="m2862.1 4093.7c14.136 70.534 32.075 141.07 32.554 211.6" stroke-width="19" fill="none"/><path id="path4208-6" d="m3036.6 4255.6 0.0001 93.996" stroke-width="19" fill="none"/><path id="path6443-7" d="m2619.3 2584.4c6.8898 353.66-6.9837 700.4-30.59 1043.9" stroke-width="19" fill="none"/></g><g display="none" transform="translate(1096.9 -170.01)"><path id="path4132" d="m2328.8 3645.6c-254.9-286.18-530.78-756.73-455.62-1357.9 94.038 207.69 174.12 335.25 298.32 429.42z" stroke="#000" stroke-width="29" fill="none"/></g><g fill-opacity=".50196" transform="translate(1096.9 -170.01)"><path id="path4132-4" fill="#2e6b77" d="m1882 2341.3c-50.53 545.05 188.34 977.5 423.84 1255.7l-147.06-868.03c-17.293-13.976-33.722-29.079-49.469-45.312-88.6-83.1-155.5-190.4-227.2-342.4z"/><path id="path4132-0" fill="#6aacb6" d="m1865.2 2234.9-6.375 51.031c-75.82 606.4 202.5 1081.1 459.19 1369.3l33.531 37.656-8.4062-49.719-157.31-928.47-0.9687-5.6563-4.5625-3.4687c-121.6-92.1-200.2-216.8-293.9-423.7l-21.219-46.844zm16.8 106.4c84.297 178.59 161.84 295.59 276.12 383.78l147.72 871.88c-235.5-278.2-474.3-710.7-423.8-1255.7z"/></g><g transform="translate(1096.9 -170.01)"><path id="path4218" fill="#2c2c2c" d="m2940.7 4055.7c175.73 28.036 340.77 88.156 510.02 135.64l241.44-496.45c86.324 65.064 213.18 67.083 241.44 222.45 3.992 74.276-41.179 132.16-78.673 192.61l-206.18 292.99c-70.534 106.42-141.07 63.812-211.6 54.257l-604.97-271.29z"/><path id="path4212" d="m2981 4059.7c160.12 42.677 321 84.975 474.14 131.14" stroke="#181818" stroke-width="29" fill="none"/><path id="path4214" d="m2839.1 4193c190.97 93.821 382.75 170.03 575.48 254.42 100.8 44.133 200.92 41.657 253.21-73.553 16.312-35.939 143.06-210.73 214.85-310.1 84.443-116.89 42.242-228.1-34.529-276-127.52-79.567-269.48-152.57-391.33-197.02" stroke="#181818" stroke-width="29" fill="none"/><path id="path4216" d="m3522.6 4036.7c-38.729 78.828-80.104 157.72-115.3 240.09" stroke="#181818" stroke-linecap="round" stroke-width="29" fill="none"/></g><g transform="translate(1096.9 -170.01)"><path id="path4224" fill="#2c2c2c" d="m1596 3599.6c183.01 228.78 379.7 443.88 663.72 571.65 286.07 144.51 496.43 124.99 659.89 3.8366 302.9-231.66 301.47-1128.2 364.47-1680.4l-314.6 19.183c-58.151 316.08-197.14 729.91-395.17 1062.7z"/><path id="path4220" d="m2578.2 3588.1c163.56-331.36 327.05-674.29 387.49-1070.4l320.22-23.678c-60.62 504.98-59.685 998.34-220.47 1470.1-55.288 162.21-201.45 293.47-417.06 301.96-155.13 6.1123-348.68-67.33-519.06-167.68-171.87-101.24-332.46-259.64-478.91-431.09" stroke="#181818" stroke-width="29" fill="none"/><path id="path4222" d="m2609.8 3524c239.3 141.1 337.48 395 350.92 508.89 31.497-22.9 57.915-22.605 82.18-16.578" stroke="#181818" stroke-width="29" fill="none"/><path id="path6489" d="m3112.6 2932.4c0 61.243-37.663 110.89-84.123 110.89s-84.123-49.647-84.123-110.89 37.663-110.89 84.123-110.89 84.123 49.647 84.123 110.89z" fill-opacity=".12549" fill-rule="evenodd" transform="translate(-7.6476 22.943)" fill="#fff"/></g><g transform="translate(1096.9 -170.01)"><path id="path4295" fill="#2c2c2c" d="m2585.8 4320.4c1.4388-1.9183 165.93-25.417 165.93-25.417l-51.794-125.65-140.03 23.978z"/><path id="path4227" d="m1684.2 3568.9-213.88 9.375c-167.94 4.5416-58.125 602.81-48.815 756.91-28.294 37.206-66.575 55.082-113 47.063-34.004 497.72-61.55 990.51-71.628 1474.8 185.49 116.89 140.55 268.78-10.031 246.81-15.016 77.78-28.044 174.76-30.976 256.88 163.69 24.21 433 24.16 550.58-14.219-124.89-625.06-268.68-1213.7-334.66-1872.2 317.29-67.051 313.77-517.36 272.41-905.44zm-215.03 2094.8c36.648-0.4563 70.64 43.821 56.156 92.469-29.853 100.27-146.01 66.497-116.81-29.219 11.921-39.086 31.473-57.68 51.375-62.156 0.6419-0.1443 1.264-0.2593 1.9063-0.375 2.4531-0.44 4.9317-0.6883 7.375-0.7187zm16.406 312.94c34.2 0.2335 70.868 21.318 71.406 101.28 1.1726 174.39-125.64 162.09-128.97 19.125-1.8268-78.541 21.577-113.76 48.938-119.53 2.8371-0.5982 5.7267-0.8947 8.625-0.875z" stroke="#181818" stroke-width="29" fill="#2c2c2c"/><path id="path4250" d="m2570.4 4252.9c1.4381 7.2555 2.8776 14.511 4.3184 21.766 67.78 341.31 149.11 682.24 200.27 1024.2 129.31 9.5107 295.79 288.25 23.077 219.2 6.0321 45.405 11.788 90.791 17.281 136.16 83.143-3.6721 150.55 236.63 38.938 379.03 9.3267 112.37 16.533 224.54 21.281 336.44 202.56 36.172 394.62 32.328 597.18-3.8437-21.893-87.299-45.043-173.71-69.281-259.38-187.2-24.1-192.1-235.8-66.2-223.5-172-556.7-380.4-1079.7-600.1-1621.6-2.4063-5.9353-4.8126-11.873-7.219-17.813m240.98 898.81c31.203-0.3963 73.092 36.863 102.47 117.38 58.864 161.33-50.769 252.8-125.22 47.062-35.6-98.378-18.69-155.75 15.062-163.53 2.4772-0.5711 5.0432-0.8727 7.6876-0.9063zm3.5 504.78c17.776-0.3045 42.758 15.465 66.781 51.812 63.408 95.938 0.4073 151.27-62.25 56.469-40.427-61.166-34.308-102.27-9.8125-107.69 1.6758-0.3707 3.4423-0.5623 5.2813-0.5937z" stroke="#181818" stroke-width="29" fill="#2c2c2c"/><path id="path4250-8" fill="#181818" d="m2568.4 4172.5c-19.972 20.082-15.363 67.269-12.19 83.276 1.4385 7.2574 2.8713 14.493 4.3124 21.75l28.438-5.6562c-1.4405-7.2534-2.8749-14.496-4.3126-21.75-3.171-15.999-11.621-57.418-16.247-77.619z"/><path id="path4250-2" fill="#181818" d="m2686.4 4157.9c1.9115 12.143 20.341 67.042 30.132 91.209 2.4069 5.9411 4.812 11.876 7.2187 17.812l26.875-10.875c-2.4058-5.9342-4.8128-11.874-7.2187-17.812-9.7866-24.158-34.94-77.131-57.007-80.334z"/></g><g opacity=".16667" transform="translate(1096.9 -170.01)" display="none"><path id="path3770" d="m2161.6 3790.3-20.031 77.656c-17.535 179.68-23.197 335.29-27.562 488.31-45.91 25.313-91.809 31.884-137.72 45.063-58.635 599.88-313.24 1491.6-400.69 1778 170.58 17.005 332.43 16.56 493.75 15.031l5.0313-275.47c-216.46 181.79-232.1-11.979 21.062-339.09-10.611-348.26 9.4855-719.48 3.5313-1118.3 276.31-56.798 312.19-276.04 348.09-475.78zm-194.66 1789c-144.74 223.33-171.55 109.42-77.859-43.977 119.69-195.96 175.2-106.21 77.859 43.977zm-164.68 374.64c-157.78 228.79-224.06 157.23-81.704-51.04 170.76-249.82 193.61-111.22 81.704 51.04z" display="inline" stroke="#121212" stroke-width="27" fill="#2f2f2f"/><path id="path4040" d="m2423.3 4160.9-10.624 95.619 173.53 7.0829-17.707-148.74z" display="inline" fill="#353535"/><path id="path3852" d="m1467 3623.5c-189.95 93.786-219.03 176.1-240.57 363.6-18.822 163.88-57.743 331.47-58.147 409.36-36.985 20.167-62.6 31.78-114.51 36.69-158.64 490.22-278.5 987.28-409.96 1482.3 23.954 19.38 183.55 227.5-58.641 243.95-37.195 108.57-42.862 185.31-51.718 266.52 181.44-32.52 362.66-66.43 541.79-112.69-52.196-589.81-32.56-1195.4 46.007-1804.6 160.93-29.85 303.55-226.47 360.87-430.85 28.956-103.25 89.412-234.07 65.878-348.59zm-630.11 2077.7c0.6482-0.1134 1.3003-0.2042 1.9474-0.2892 39.54-5.1647 76.985 43.594 59.084 94.691-34.591 98.736-149.01 59.467-115.29-34.751 13.767-38.474 34.171-56.126 54.263-59.65zm2.1887 313.17c36.639-5.921 77.753 40.321 75.143 104.12-7.1269 174.25-133.21 155.91-129.72 12.949 1.9128-78.539 26.976-112.61 54.581-117.07z" display="inline" stroke="#181818" stroke-width="24" fill="#353535"/><path id="path3858" d="m3622.2 4236.6c-1.9368 9.233-3.8571 18.413-5.7663 27.564-80.834 387.41-137.75 702.24-210.47 1056.1 70.732 19.393 230.13 379.76-43.562 234.74l-24.232 141.76c91.061 43.156 25.43 328.14-62.051 372.77-19.895 104.82-35.582 206.41-50.06 307.08 181.55 18.154 364.1 26.389 551.49-13.949l-0.6334-220.5c-124.01-47.133-162.47-279.76 3.9149-240.9 2.2984-531.58 6.6429-1043.2 6.5484-1612.9 0-8.2105 0.017-16.448 0.014-24.683m-125.96 956.12c32.332 3.6679 64.093 53.536 65.052 146.5 1.7715 171.72-132.06 221.45-133.74 2.6671-0.8019-104.62 34.269-153.07 68.687-149.17zm-162.46 477.63c18.171 2.2253 39.247 25.64 50.884 72.287 27.836 111.58-49.983 142.78-77.489 32.527-17.747-71.139 1.7034-107.86 26.605-104.81z" display="inline" stroke="#181818" stroke-width="24" fill="#353535"/><path id="path3858-1" fill="#181818" d="m2557.1 4085.9c5.7692 44.581 10.516 94.611 14.348 132.86 0.821 8.1928 1.652 16.363 2.4687 24.531l23.875-2.375c-0.8168-8.1705-1.6163-16.368-2.4374-24.562-3.8337-38.254-7.7242-107.74-38.255-130.45zm-152.65 119.83c-1.0104 9.384-2.0086 18.701-3 28l23.844 2.5624c0.9906-9.2909 1.9906-18.624 3-28 3.1803-29.54 8.2317-55.1 6.9326-91.812-19.006 17.294-27.593 59.684-30.776 89.25z"/></g><g transform="translate(1096.9 -170.01)"><path id="path4828" d="m1968.3 3651.5c-19.5 100.36-30.355 226.96-17.73 320.13 130.13 113.23 291.92 198.18 432.6 247.1-55.359-174.62-32.057-359.93 20.443-434.3z" stroke="#4e949e" stroke-width="29" fill="url(#linearGradient4850)"/><path id="path4830" d="m2128.2 3699c-74.08 91.836-58.575 297.41-47.475 366.24" stroke="#4e949e" stroke-width="24" fill="none"/><path id="path4832" d="m2266.6 3737c-68.472 117.93-51.98 289.53-25.772 423.21" stroke="#4e949e" stroke-width="24" fill="none"/><path id="path4834" d="m1413.4 3546.8 3.5074 143.12c224.68-81.568 442.46-35.002 680.13 51.079 279.06 101.07 524.37 181.42 854.55 78.673-117.64-100.83-263.11-233.45-366.24-292.99-30.504-17.612-47.3-14.723-65.767-9.7277-105.58 28.558-380.7 1.5274-533.77-34.007-214.88-49.882-393.25-33.053-572.41 63.848z" stroke="#10525a" stroke-width="29" fill="url(#linearGradient4842)"/></g><g transform="translate(1096.9 -170.01)" stroke="#000" display="none" fill="none"><path id="path6293" d="m1334.5 1710.7c213.14 186.81 425.06 437.56 550.62 720.78-176.5-124.09-344.27-255.58-510.47-403.41 81.564 132.67 137.14 240.99-89.875 227.5 155.53 140.16 321.64 266.99 439.75 462.69 97.322 161.26-13.114 201.21-152.97 110.88-152.18-98.293-296.7-202.37-435.91-309.72 210.27 555.98 624.59 965.88 1238.9 1166.2 61.961-377.37 11.789-718.11-154.84-1047.7-202.91-401.35-507.22-754.75-885.22-927.25zm389.34 739.91c28.558-0.2575 78.358 27.42 147.66 96.719 213.97 213.97 61.357 251.95-87.781 93.187-94.171-100.25-110.78-189.45-59.875-189.91zm372 273.22c35.137 0.4256 87.624 49.148 131.78 157.66 92.005 226.09 22.855 341.72-119.91 68.844-74.59-142.57-58.512-227.07-11.875-226.5zm-178.41 104.69c22.875-0.1925 59.991 28.893 87.688 80.781 68.106 127.6 6.4064 197.68-76.188 42.156-45.076-84.88-37.425-122.72-11.5-122.94zm-231.81 95.438c31.928 0.1427 86.071 29.48 157.25 101.62 130.84 132.61 111.57 297.45-97.781 88.094-103.51-103.51-114.49-189.96-59.469-189.72z" stroke-miterlimit="11" stroke-width="29"/><path id="path6303" d="m1917.6 2173.4c61.786 108.58 92.177 217.43 130.01 321.2" stroke-width="29"/><path id="path6305" d="m1404.3 2722.1c12.417 54.859 29.953 115.68 67.312 156.28-14.6-45.567-29.872-99.245-33.854-144.81z" stroke-width="1px"/><path id="path6307" d="m1494.3 2781.7c22.382 59.29 45.19 133.93 84.915 162.18-18.167-45.248-39.163-89.144-43.414-134.39z" stroke-width="1px"/><path id="path6309" d="m1400.6 2253.6c50.01 33.15 92.111 86.071 135.19 136.54-19.874-51.156-57.309-111.52-104.1-152.77z" stroke-width="1px"/><path id="path6311" d="m1443.8 2217.1c64.655 42.545 104.31 86.167 151.41 144.65-35.317-70.733-90.086-141.28-141.95-174.4z" stroke-width="1px"/></g><g fill-opacity=".50196" transform="translate(1096.9 -170.01)"><path id="path6293-4" fill="#6aacb6" d="m1250.7 1656.5 74.281 65.094c199.34 174.7 397.54 405.83 523.91 666.22-159.82-114.49-312.88-235.68-464.56-370.59l-73.5-65.375 51.531 83.812c40.629 66.086 72.038 126.69 68.688 159.5-1.6753 16.404-8.4518 26.878-30.375 35.781s-59.326 13.462-114.97 10.156l-41.312-2.4688 30.719 27.719c156.11 140.69 320.63 266.49 437.06 459.41 23.567 39.049 33.777 70.001 34.75 91.219 0.9733 21.218-5.2762 31.702-17.094 38.469-11.817 6.7663-32.128 8.943-58.437 3-26.31-5.9437-58.082-19.653-91.906-41.5-151.77-98.032-295.99-201.85-434.94-309l-40.5-31.25 18.094 47.844c211.66 559.67 629.94 973.32 1248 1174.9l16.062 5.25 2.75-16.688c62.39-379.98 11.701-724.44-156.22-1056.6-203.99-403.5-509.99-759.53-892.12-933.91l-89.875-41zm171.53 114.81c181.18 100.37 343.85 243.15 484.28 411.78 59.766 105.89 89.774 212.79 127.56 316.44l27.219-9.9375c-23.692-64.982-44.637-132.7-72.625-201.56 81.989 111.38 155.01 231.53 218.16 356.44 162.85 322.12 213.39 653.93 156.09 1021.9-583.78-195.08-982.43-581.01-1194.7-1103.8 78.006 59.325 157.74 117.59 239.59 174.34 12.248 50.744 29.785 104.48 63.813 141.47-11.875-37.063-24.204-79.496-30.531-118.56 19.92 13.614 39.974 27.138 60.156 40.562 20.321 55.454 42.348 118.15 78 143.5-16.148-40.22-34.504-79.361-41.375-119.34 8.5916 5.6183 17.203 11.231 25.844 16.813 36.103 23.32 70.591 38.473 101.28 45.406 30.69 6.9328 58.11 5.9932 79.219-6.0938 21.108-12.087 32.977-36.165 31.656-64.969-1.3216-28.804-13.812-63.326-38.906-104.91-112.17-185.85-266.27-309.86-412.66-439.53 35.424-0.2003 62.819-4.2231 84.094-12.219 46.629 33.319 86.582 83.327 127.41 131.16-19.118-49.21-54.5-106.93-98.812-147.97 6.4337-5.7425 11.605-12.255 15.406-19.375 59.686 40.759 97.879 83.067 142.88 138.94-33.74-67.575-85.214-134.96-134.97-169.72 1.077-28.949-10.708-60.635-28.375-94.625 144.85 124.76 291.61 238.18 444.88 345.94l42.813 30.094-21.219-47.844c-111.29-251.02-289.28-475.94-476.19-654.28zm301.53 664.78c-16.968 0.153-32.549 10.016-38.625 24.719-6.0766 14.703-4.969 31.883 0.3124 51.156 10.564 38.546 39.487 87.092 87.75 138.47 38.327 40.8 76.98 69.212 110.97 85.625 33.989 16.413 63.805 22.778 86.594 10.344 11.394-6.217 19.244-18.484 20.781-32.094 1.5369-13.61-1.7965-28.54-9.1562-45.594-14.72-34.108-46.34-77.403-100.59-131.66-35.195-35.195-65.642-60.099-91.625-76.469s-47.368-24.672-66.406-24.5zm0.25 29c9.519-0.086 27.307 5.3016 50.687 20.031 23.381 14.73 52.49 38.334 86.594 72.438 52.731 52.731 82.285 94.426 94.469 122.66 6.0914 14.115 7.6327 24.689 6.9374 30.844-0.6947 6.1547-2.1823 7.8939-5.8124 9.875-7.2609 3.9616-30.209 3.4308-60.094-11s-66.226-40.795-102.47-79.375c-45.907-48.869-72.348-95.051-80.906-126.28-4.2793-15.615-3.684-27.09-1.5-32.375 2.184-5.2845 3.6073-6.736 12.094-6.8125zm372.06 244.22c-16.047-0.1948-31.278 7.994-40.469 21.406-9.1908 13.412-13.462 31.118-13.75 52.469-0.5771 42.701 15.024 101.14 53.062 173.84 36.108 69.017 67.527 113.93 94.719 139.91 13.596 12.989 26.138 21.513 39.219 25.094 13.081 3.5807 27.711 0.4381 37.031-8.6563 18.64-18.188 20.772-48.751 16.344-88.969-4.4281-40.217-17.722-90.897-41.125-148.41-22.549-55.41-47.354-96.065-71.906-123.56-24.552-27.498-48.943-42.832-73.125-43.125zm-1.7187 29c0.4319-0.013 0.8893-0.01 1.3437 0 10.956 0.1323 30.36 9.3721 51.875 33.469s45.048 62.058 66.656 115.16c22.6 55.534 35.166 104.1 39.188 140.62 4.0214 36.523-2.7895 60.192-7.7812 65.062-2.4963 2.4357-3.3959 3.0055-9.125 1.4376-5.7293-1.5683-15.319-7.083-26.844-18.094-23.05-22.022-53.79-64.955-89.062-132.38-36.551-69.864-50.224-124.95-49.75-160 0.2368-17.524 4.0779-29.742 8.6875-36.469 4.3215-6.306 8.3343-8.6217 14.812-8.8124zm-177 75.687c-10.002 0.084-20.627 4.6856-26.969 13.188-6.3424 8.5018-8.5715 19.254-8.2813 31.375 0.5803 24.241 10.946 56.16 34.062 99.687 21.211 39.94 41.145 66.072 59.969 81.406 9.4117 7.667 18.678 12.767 28.469 14.656 9.7904 1.8885 20.498-0.3232 28.125-6.5313 15.253-12.416 18.061-33.31 15.281-57.844-2.7805-24.534-12.348-54.281-30.063-87.469-14.585-27.325-31.676-48.887-48.844-64-17.167-15.113-34.102-24.617-51.75-24.469zm0.25 29c5.2267-0.044 18.31 4.8961 32.344 17.25s29.326 31.28 42.438 55.844c16.338 30.61 24.588 57.46 26.812 77.094 2.2251 19.633-2.7982 30.48-4.7812 32.094-0.9915 0.8071-1.2319 1.1628-4.3438 0.5625-3.1114-0.6003-8.7017-3.0479-15.625-8.6875-13.846-11.279-32.57-34.709-52.656-72.531-21.96-41.351-30.306-70.796-30.688-86.75-0.191-7.9765 1.5559-12.037 2.5313-13.344 0.9747-1.307 1.0084-1.506 3.9687-1.5313zm-231.88 66.438c-17.551-0.079-33.805 8.3447-41.375 22.75-7.5698 14.405-7.4088 31.918-2.4687 51.281 9.8792 38.727 39.999 87.437 93 140.44 53.089 53.09 94.31 83.126 126.78 96.375 16.236 6.6245 30.598 9.243 43.688 6.6875s24.101-11.568 29.406-23.031c10.61-22.928 4.9866-52.166-9.1876-84.969s-38.455-69.245-72.344-103.59c-72.381-73.363-126.76-105.76-167.5-105.94zm-0.125 29c23.12 0.1032 77.022 26.385 147 97.312 31.529 31.957 53.906 65.861 66.375 94.719s13.49 52.593 9.4687 61.281c-2.01 4.3444-3.6434 5.8026-8.6562 6.7813s-14.221 0.1966-27.188-5.0937c-25.932-10.581-65.632-38.444-117.22-90.031-50.509-50.509-77.642-96.778-85.375-127.09-3.8671-15.158-2.6122-25.686 0-30.656 2.6115-4.9705 5.6322-7.2634 15.594-7.2187z"/><path id="path6293-2" fill="#2e6b77" d="m1422.2 1771.3c186.9 178.34 364.9 403.26 476.19 654.28l21.219 47.844-42.813-30.094c-153.27-107.76-300.03-221.18-444.88-345.94 17.667 33.99 29.452 65.676 28.375 94.625 49.755 34.761 101.23 102.14 134.97 169.72-44.996-55.87-83.189-98.178-142.88-138.94-3.8013 7.1201-8.9725 13.632-15.406 19.375 44.312 41.041 79.694 98.759 98.812 147.97-40.824-47.829-80.778-97.838-127.41-131.16-21.275 7.9957-48.669 12.018-84.094 12.219 146.39 129.67 300.49 253.68 412.66 439.53 25.094 41.58 37.585 76.103 38.906 104.91 1.3208 28.804-10.548 52.882-31.656 64.969s-48.529 13.027-79.219 6.0938c-30.69-6.9328-65.178-22.086-101.28-45.406-8.6411-5.5816-17.252-11.194-25.844-16.813 6.8714 39.983 25.227 79.124 41.375 119.34-35.652-25.353-57.679-88.046-78-143.5-20.182-13.424-40.236-26.948-60.156-40.562 6.3274 39.066 18.656 81.499 30.531 118.56-34.027-36.984-51.564-90.724-63.813-141.47-81.859-56.758-161.59-115.02-239.59-174.34 212.25 522.84 610.91 908.76 1194.7 1103.8 57.292-367.98 6.7548-699.79-156.09-1021.9-63.148-124.91-136.17-245.06-218.16-356.44 27.988 68.858 48.933 136.58 72.625 201.56l-27.219 9.9375c-37.788-103.64-67.797-210.54-127.56-316.44-140.43-168.63-303.1-311.41-484.28-411.78zm301.53 664.78c19.038-0.1717 40.423 8.1305 66.406 24.5s56.43 41.274 91.625 76.469c54.254 54.253 85.873 97.548 100.59 131.66 7.3596 17.054 10.693 31.984 9.1562 45.594-1.5369 13.61-9.3872 25.877-20.781 32.094-22.789 12.434-52.605 6.0691-86.594-10.344s-72.642-44.826-110.97-85.625c-48.263-51.377-77.186-99.922-87.75-138.47-5.2814-19.273-6.3891-36.454-0.3124-51.156 6.076-14.703 21.657-24.566 38.625-24.719zm372.31 273.22c24.182 0.2926 48.573 15.627 73.125 43.125s49.358 68.152 71.906 123.56c23.403 57.509 36.697 108.19 41.125 148.41 4.4281 40.217 2.2962 70.78-16.344 88.969-9.3201 9.0944-23.95 12.237-37.031 8.6563s-25.623-12.105-39.219-25.094c-27.192-25.978-58.611-70.889-94.719-139.91-38.039-72.707-53.64-131.14-53.062-173.84 0.2885-21.351 4.5592-39.057 13.75-52.469s24.422-21.601 40.469-21.406zm-178.72 104.69c17.648-0.1484 34.583 9.3562 51.75 24.469s34.259 36.675 48.844 64c17.715 33.188 27.282 62.934 30.063 87.469 2.7798 24.534-0.028 45.428-15.281 57.844-7.6265 6.2081-18.335 8.4198-28.125 6.5313-9.7904-1.8889-19.057-6.9893-28.469-14.656-18.824-15.334-38.758-41.466-59.969-81.406-23.116-43.528-33.482-75.447-34.062-99.687-0.2902-12.12 1.9389-22.873 8.2813-31.375 6.3419-8.5021 16.966-13.104 26.969-13.188zm-231.62 95.438c40.737 0.1818 95.119 32.574 167.5 105.94 33.889 34.349 58.17 70.791 72.344 103.59 14.174 32.803 19.797 62.041 9.1876 84.969-5.3053 11.464-16.317 20.476-29.406 23.031-13.09 2.5555-27.452-0.063-43.688-6.6875-32.472-13.249-73.692-43.285-126.78-96.375-53.001-53.001-83.121-101.71-93-140.44-4.9402-19.364-5.1011-36.876 2.4687-51.281s23.824-22.829 41.375-22.75z"/></g><g transform="translate(1096.9 -170.01)"><path id="path4878" fill="#fff" d="m2319.5 2643 35.422 35.448 1.2015-26.631 48.831 67.143c81.179-6.918 147.34-32.269 147.85-123.43l-90.202 27.807c-22.309 3.3867-37.665 17.202-52.901 31.198-30.974-11.097-61.037-14.901-90.202-11.53z"/><path id="path4872" d="m2441.6 2630.1 33.232 46.146 6.1039-52.928z" stroke="#b9dce6" stroke-width="14" fill="none"/><path id="path4874" d="m2319.5 2642.3 32.996 34.306 3.6275-35.662z" stroke="#b9dce6" stroke-width="14" fill="none"/><path id="path4876" d="m2355.3 2639.1c15.465 27.985 32.053 54.473 52.901 75.282" stroke="#b9dce6" stroke-width="14" fill="none"/><path id="path4884" fill="#2c2c2c" d="m2183.8 2159.4c24.143 126.87 39.177 262.85 132.93 320.12l-81.386 73.247 37.98 94.95c47.023-11.764 94.046-18.533 141.07 5.4257 21.032-26.868 44.987-39.114 73.247-29.841l67.821-32.554c-18.21 120.76-90.235 118.52-157.35 127.5l48.831 73.247c62.248-69.153 134.64-46.966 203.46-56.97 124.52 4.3921 208.54-64.116 298.41-122.08l238.73 2.7129 10.852-575.13-355.38-298.41c-197.7-30.737-393.36-39.781-569.7 157.35z"/><path id="path4853" fill="#181818" d="m2274.7 2504.3c-13.604 13.046-27.642 25.144-48.202 37.014-9.5264 5.5001-10.828 9.9579-6.7812 18.438 15.844 33.199 25.039 64.053 42.514 92.441 3.4181 5.5525 7.718 4.3108 13.938 4.0179 48.688-2.2925 90.439-5.8674 126.97 4.6121 9.6455 2.7668 12.108 4.4621 15.855-1.4654 13.872-21.943 33.125-28.363 58.308-28.609 25.665-0.2504 44.869-15.168 65.406-25.594-1.6532 37.935-18.798 64.164-44.4 78.258-36.544 20.117-67.219 22.132-100.46 22.407-23.006 0.1905-15.272 13.963-7.0918 28.073 13.08 22.562 33.015 45.543 46.641 57.637l8.5312 7.5626 9.3438-6.5c57.662-40.007 115.01-44.295 177.41-43.531 157.19 1.9226 377.72-141.61 375.56-202.15-65.464 67.026-231.11 174.91-375.22 173.15-60.808-0.7438-123.29 3.6406-184.56 42.344-14.154-12.826-25.487-24.145-34.25-37.156 36.862-3.0382 67.817-10.792 94.225-27.469 32.65-20.619 54.297-53.562 54.297-105.23 0-8.6888-6.8925-12.265-17.931-8.5624-22.239 7.4599-45.172 28.004-67.153 27.758-26.558-0.2971-49.905 8.1361-66.316 27.789-3.8277 4.5837-3.1019 3.2463-8.3101 2.0462-40.562-9.3467-81.615-8.6785-122.03-4.929-11.156-25.041-23.291-53.55-34.459-80.398 16.517-9.408 28.31-19.344 40.899-30.236 90.441-78.242 79.43-273.74 64.352-301.18-11.686 152.96-7.4703 212.7-77.083 279.46z"/><path id="path4880" d="m2339.2 2584.7c19.486 10.069 33.136 2.4804 48.948-5.9876-6.5695 18.67-35.666 31.588-48.948 5.9876z" stroke="#181818" stroke-miterlimit="24" fill="#181818"/><path id="path4882" d="m2259.1 2586.7c10.625 4.0978 27.355 3.0704 37.98 0-9.4254 8.6258-25.018 16.13-37.98 0z" stroke="#181818" stroke-miterlimit="24" fill="#181818"/></g><g transform="translate(1096.9 -170.01)"><path id="path4914" d="m2186.6 2262.5c34.246 84.293 64.409 175.39 119.37 225.17 65.787-46.429 48.934-123.85 62.396-189.9z" clip-path="url(#clipPath4971)" fill="#c5f8e7"/><path id="path4916" d="m2631.5 2292.4 141.07 311.98c240.24-12.809 327.4-165.57 314.69-409.64z" clip-path="url(#clipPath4951)" fill="#c5f8e7"/><path id="path4894" d="m2359.5 2351.7c0 69.923-25.121 126.61-56.11 126.61-30.988 0-56.11-56.684-56.11-126.61 0-69.923 25.121-126.61 56.11-126.61 30.988 0 56.11 56.684 56.11 126.61z" clip-path="url(#clipPath4967)" fill-rule="evenodd" transform="matrix(.99215 -.12507 .12507 .99215 -269.34 302.72)" fill="url(#linearGradient4985)"/><path id="path4900" d="m2346.6 2347.3c0 45.323-14.271 82.064-31.876 82.064s-31.876-36.741-31.876-82.064 14.271-82.064 31.876-82.064 31.876 36.741 31.876 82.064z" clip-path="url(#clipPath5029)" fill-rule="evenodd" transform="matrix(1.2039 -.077432 .090825 1.0264 -669.62 128.5)" fill="#09483b"/><path id="path4892" d="m2327.1 2286.7c0.7175 27.528-1.3171 60.102 3.2202 82.07 4.7578-21.572 11.66-49.297 12.7-77.104z" clip-path="url(#clipPath4959)" stroke="#000" stroke-width="1px"/><path id="path4896" d="m3121.1 2354.8c0 148.33-74.393 268.57-166.16 268.57-91.769 0-166.16-120.24-166.16-268.57s74.393-268.57 166.16-268.57c91.769 0 166.16 120.24 166.16 268.57z" clip-path="url(#clipPath4947)" fill-rule="evenodd" transform="matrix(.99132 .14316 -.13146 1.0796 351.49 -588)" fill="url(#linearGradient4983)"/><path id="path4898" d="m3121.1 2388.7c0 113.12-49.798 204.82-111.23 204.82-61.429 0-111.23-91.701-111.23-204.82s49.798-204.82 111.23-204.82c61.429 0 111.23 91.701 111.23 204.82z" clip-path="url(#clipPath5006)" fill-rule="evenodd" transform="matrix(.65550 .19404 -.19734 .97484 1472.9 -568.82)" fill="#09483b"/><path id="path4902" d="m2309.6 2327.7c0 26.486-9.2326 47.957-20.622 47.957s-20.622-21.471-20.622-47.957 9.2326-47.957 20.622-47.957 20.622 21.471 20.622 47.957z" clip-path="url(#clipPath4955)" fill-rule="evenodd" transform="matrix(.90295 .14151 -.11693 .98951 501.9 -304.28)" fill="#fff"/><path id="path4904" d="m2950.3 2289.4c0 75.75-30.918 137.16-69.058 137.16s-69.058-61.407-69.058-137.16c0-75.75 30.918-137.16 69.058-137.16s69.058 61.407 69.058 137.16z" clip-path="url(#clipPath4939)" fill-rule="evenodd" transform="matrix(.92298 .034183 -.037011 .99931 328.23 -99.8)" fill="#fff"/><path id="path4975" d="m3022.2 2211.7c-45.071 80.248-57.781 162.41-44.12 242.66 36.311-67.079 54.796-154.49 44.12-242.66z" stroke="#000" stroke-width="1px"/></g><g transform="translate(1096.9 -170.01)" stroke="#000" stroke-width="1px" display="none" fill="#0f0"><path id="path4887" d="m2196.4 2281.7c24.632 74.757 51.476 147.93 111.26 197.58 44.368-48.823 42.758-114.89 47.957-178.4z"/><path id="path4889" d="m2660.7 2297.1 414.35-86.322c-1.633 304.16-143.59 356.02-285.82 349.13z"/></g><g transform="translate(1096.9 -170.01)"><path id="path5034" fill="#0d3534" d="m2719.5 1939.2c204.8-53.474 340.74 94.767 359.21 270.11l-377.6 87.681z"/><path id="path5036" fill="#0d3534" d="m2356.1 2304-179.61-12.728 111.72-214.96c35.983 44.68 69.054 94.685 67.882 227.69z"/><path id="path5038" d="m2732.3 1910.9c82.137 76.284 188.72 256.84 186.68 340.83l77.782-21.213c-31.945-115.46-104.44-232.41-182.43-321.03z" fill-opacity=".12549" clip-path="url(#clipPath5060)" fill="#fff"/><path id="path5040" fill-opacity=".12549" fill="#fff" d="m2242.9 2166.8c4.1134 45.92 4.3625 97.637 18.385 128.69l-26.113-1.4142c-12.909-29.398-11.867-69.261-14.9-106.07z"/></g><g transform="translate(1096.9 -170.01)"><path id="path5065" d="m2198 2267c15.097 84.183 66.096 186.32 112 217" stroke="#181818" stroke-width="29" fill="none"/><path id="path5067" d="m2202 2289 153 19" stroke="#181818" stroke-width="11" fill="none"/><path id="path4853-6" fill="#181818" d="m2287.4 2526c90.441-78.242 77.402-291.31 62.324-318.75-6.2789 152.28-5.4425 230.27-75.055 297.03z"/><path id="path5087" fill="#181818" d="m3089.3 2197.7-14.344 2.5313c-112.07 19.69-246.83 51.211-367.81 81.156l5.75 23.312c107.7-26.658 230-52.452 329.93-69.873 12.485-2.1766 21.56-1.8233 22.329 16.795 1.5257 36.928-9.8935 122.35-41.582 196.61 45.284-67.341 64.045-160.44 65.451-235.97z"/></g><g transform="translate(1096.9 -170.01)" stroke="#308aaf"><path id="path5094" stroke-linejoin="round" d="m2736 1681.7c-108.71 63.907-195.97 141.85-277.11 213.21-260.31 228.92-362.07 587.68-360.43 860.31 2 339.6 156.7 779.1 277.5 996.8-254.1-256.5-397.2-758.1-388.4-1200.3 7.9-392.8 107.5-693.4 412.4-823.7 109.21-46.659 250.17-50.155 336-46.343z" stroke-width="29" fill="#1d5971"/><path id="path5096" d="m2554 1684c-349.76 147.57-548.14 444.95-564.82 1028" stroke-width="19" fill="none"/><path id="path5098" d="m2628 1678c-579.58 309.96-606.32 865.54-564 1474" stroke-width="19" fill="none"/></g><g transform="translate(1096.9 -170.01)"><path id="path5744" fill="#2c2c2c" d="m2377.3 1933.2 81.115 106.8 193.32-181.16-32.446-39.206z"/><path id="path3938" d="m2394.1 1955.9c-125.9-189.05-139.09-403.35-113.41-544.73 181.59 11.705 246.41-91.09 236.39-211.74-13.005-156.61-111.87-194.99-213.45-99.728-55.095-106.52-116.46-203.79-186.72-312.66 105.45-61.305 114.05-380.64 63.526-602.49 58.332 115.97 114.64 232.59 162.18 352.01-78.305 81.336-68.956 187.09-35.08 286.75 41.994 123.54 121.11 121.18 225.52 57.071 47.5 169.24 88.355 321.4 142.45 481.35-252.3 132.12-69.426 471.53-25.74 502.72" stroke="#181818" stroke-miterlimit="9" stroke-width="29" fill="#2c2c2c"/><path id="path3940" d="m2392.4 2472.6c26.332 9.6336 34.946 50.51 56.582 88.322 11.641-67.115 56.678-121.53 112.99-161.23" transform="matrix(-1.0707 -.16657 -.16657 1.0707 5518.4 -726.87)" filter="url(#filter5740)" stroke="#181818" stroke-width="19.38" fill="none"/><path id="path3942" d="m2418.8 2054.6 63.897 81.513" transform="matrix(-1.0707 -.16657 -.16657 1.0707 5518.4 -726.87)" filter="url(#filter5736)" stroke="#181818" stroke-width="17.535" fill="none"/><path id="path3944" d="m2482.4 1924.1 31.735 167.03" transform="matrix(-1.0707 -.16657 -.16657 1.0707 5518.4 -726.87)" filter="url(#filter5732)" stroke="#181818" stroke-width="17.535" fill="none"/><path id="path3946" d="m2629.1 1943.1 17.341 153.84" transform="matrix(-1.0707 -.16657 -.16657 1.0707 5518.4 -726.87)" filter="url(#filter5728)" stroke="#181818" stroke-width="17.535" fill="none"/><path id="path3948" d="m2670.4 1921.9 95.619 93.848" transform="matrix(-1.0707 -.16657 -.16657 1.0707 5518.4 -726.87)" filter="url(#filter5724)" stroke="#181818" stroke-width="17.535" fill="none"/><path id="path3950" d="m2730.6 1815.6 113.33 99.16" transform="matrix(-1.0707 -.16657 -.16657 1.0707 5518.4 -726.87)" filter="url(#filter5720)" stroke="#181818" stroke-width="17.535" fill="none"/><path id="path5694" d="m2359.8 1928.5c22.833 47.788 61.194 76.303 77.059 77.735 27.145 2.4497 46.473-15.044 65.568-38.53-42.792 19.19-81.312 13.656-116.26-50.021z" stroke="#181818" stroke-width="1px" fill="#181818"/></g><g transform="translate(1096.9 -170.01)"><path id="path5747" d="m2758.5 1692c67.176-111.35 88.607-263.29 79.995-420.6 26.517 72.977 17.282 193.68 15.991 267.04 43.078-87.744 69.896-200.22 98.062-296.07-3.0218 95.314-36.69 192.42-60.836 274.44l160.88-193.32c-38.942 78.572-107.36 162.22-155.47 229.1 69.53-43.19 148.13-77.274 217.66-84.447-109.06 53.169-216.38 109.8-287.96 237.94z" stroke="#181818" stroke-miterlimit="14" stroke-width="11" fill="#2c2c2c"/><path id="path6265" d="m2910.9 1273.4c0 38.805-37.663 70.262-84.123 70.262s-84.123-31.457-84.123-70.262 37.663-70.262 84.123-70.262 84.123 31.458 84.123 70.262z" fill-rule="evenodd" transform="matrix(.97738 0 0 .98652 65.852 24.809)" fill="#3b9f9c"/><path id="path6267" d="m2992.1 1213.6c0 24.286-19.046 43.974-42.54 43.974s-42.54-19.688-42.54-43.974 19.046-43.974 42.54-43.974 42.54 19.688 42.54 43.974z" fill-rule="evenodd" transform="matrix(1.0668 0 0 1.0429 -190.26 -47.231)" fill="#3b9f9c"/><path id="path6269" d="m3143.2 1317.8c0 28.51-29.318 51.621-65.482 51.621-36.165 0-65.482-23.112-65.482-51.621 0-28.51 29.318-51.621 65.482-51.621 36.165 0 65.482 23.112 65.482 51.621z" fill-rule="evenodd" transform="translate(-4.7797 -3.8238)" fill="#3b9f9c"/><path id="path6271" d="m3186.2 1460.7c0 28.246-22.042 51.143-49.231 51.143-27.19 0-49.231-22.898-49.231-51.143 0-28.246 22.042-51.143 49.231-51.143 27.19 0 49.231 22.898 49.231 51.143z" fill-rule="evenodd" transform="matrix(1.0578 0 0 1.0369 -181.23 -56.799)" fill="#3b9f9c"/><path id="path5749" d="m2875.5 1255.9c0 15.68-20.882 28.39-46.641 28.39s-46.641-12.711-46.641-28.39c0-15.68 20.882-28.39 46.641-28.39s46.641 12.711 46.641 28.39z" fill-opacity=".50196" fill-rule="evenodd" transform="matrix(1 0 0 .91582 2.5398 109.46)" fill="#fff"/><path id="path6259" d="m2982.6 1206.9c0 12.143-9.8438 21.987-21.987 21.987s-21.987-9.8438-21.987-21.987 9.8438-21.987 21.987-21.987 21.987 9.8438 21.987 21.987z" fill-opacity=".50196" fill-rule="evenodd" fill="#fff"/><path id="path6261" d="m3114.5 1301.6c0 12.671-15.194 22.943-33.936 22.943s-33.936-10.272-33.936-22.943 15.194-22.943 33.936-22.943 33.936 10.272 33.936 22.943z" fill-opacity=".50196" fill-rule="evenodd" transform="matrix(.98541 .17020 -.17020 .98541 266.48 -505.33)" fill="#fff"/><path id="path6263" d="m3173.7 1450.7c0 13.199-10.486 23.899-23.421 23.899s-23.421-10.7-23.421-23.899 10.486-23.899 23.421-23.899 23.421 10.7 23.421 23.899z" fill-opacity=".50196" fill-rule="evenodd" transform="translate(-.95595)" fill="#fff"/></g><g transform="translate(1096.9 -170.01)" stroke="#308aaf"><path id="path6274" d="m2858.7 1707.9c-9.7455 0.033-19.686 0.3101-29.781 0.875 8.8903 98.445 80.497 184.6 138.31 225.62 83.015 58.903 176.82 165.83 166.69 424-6.2581 159.44-27.862 339.51-63.342 487.37-38.832 161.83-29.088 353.22-19.219 518.72 12.976 217.62 87.194 449.59 137.66 592.69 198.5-183.21 131.59 323.51 133.38 446.25 130.93-172.33 58.303-581.63 65.469-1038.9 6.0524-386.24-22.206-821.23-86.031-1229.3-14.241-91.064-47.43-173.94-103.5-250.66-86.041-117.73-261.04-198.71-339.62-176.59zm306.31 1700.6c35.642 0.5913 70.177 97.187 66.063 200.75-5.7432 144.57-146.38 132.9-130-26.781 13.011-126.87 38.751-174.39 63.937-173.97zm160.73 275.97c15.463 210.3-66.015 119.16-58.328-2.5597 8.6136-136.4 52.59-75.484 58.328 2.5597z" stroke-width="29" fill="#1d5971"/><path id="path6276" stroke-linejoin="round" d="m2887 1697.3c-59.17-14.663-115.41-25.828-164.42-15.295-304.82 341.01-200.08 673.22-32.502 934.92 208.11 324.99 349.86 508.29 101.33 762.85 268.35-29.887 334.52-318.25 183.54-560.19-92.515-148.26-297.27-326.9-256.19-759.02 21.81-229.44 96.991-295.92 168.25-363.26z" stroke-width="29" fill="#1d5971"/><path id="path6278" d="m2843 1676.3c-254.78 265.34-204.75 718.68-40.15 890.94" stroke-width="14" fill="none"/><path id="path6280" d="m2556.2 1966.9c34.361 189.22 59.303 369.03 78.388 542.98" stroke-width="14" fill="none"/><path id="path6286" d="m3128.3 2218.5c153.58 217.45 120.45 540.76 74.915 767.94-31.9 159.15-57.955 296.22-61.396 439.28" stroke-width="19" fill="none"/><path id="path6288" d="m2886.3 1699.4c157.79 143.04 293.51 239.34 342.07 459.02 32.074 145.09 113.17 349.25 60.569 631.97-32.725 175.9-42.182 568.5 3.1677 803.83" stroke-width="19" fill="none"/><path id="path6504" d="m3156.5 2799-5.6569 50.912" filter="url(#filter6530)" stroke-linecap="round" stroke-width="11" fill="none"/><path id="path6506" d="m3125.4 2917.8 21.213-29.698" filter="url(#filter6526)" stroke-linecap="round" stroke-width="11" fill="none"/><path id="path6508" d="m3203.2 3210.5c0 5.6568 4.2427 56.568 4.2427 56.568" filter="url(#filter6522)" stroke-linecap="round" stroke-width="11" fill="none"/><path id="path6510" d="m3177.7 3337.8 12.728-39.598" filter="url(#filter6518)" stroke-linecap="round" stroke-width="11" fill="none"/><path id="path6512" d="m3296.5 3271.4 2.8284 63.64" filter="url(#filter6514)" stroke-linecap="round" stroke-width="11" fill="none"/></g><g transform="translate(1096.9 -170.01)" stroke="#181818" stroke-linecap="round" stroke-width="29"><path id="path4214-0" d="m3667.8 4373.9c16.312-35.939 143.06-210.72 214.84-310.09 84.443-116.89 42.24-228.1-34.531-276-127.52-79.567-269.47-152.55-391.31-197-9.937 213.33-201.41 267.58-326.97-102l-338.4-65c-23.3 191.45-25.413 380.76-1.9062 562.09l160.59-7.625c60.46-107.91 405.66-220.23 212.22 3.8124 157.71 9.3947 302.27 22.04 455.03 73.625m-536.8-356.4c126.19 72.854 36.867 134.54-50.281 87.719-116.17-62.418-42.638-141.37 50.281-87.719z" fill="#2c2c2c"/><path id="path4216-3" d="m3522.6 4036.7c-38.729 78.828-80.104 157.72-115.3 240.09" fill="none"/></g><g transform="translate(1096.9 -170.01)"><path id="path6487" d="m2993.1 2219.3c77.616-12.112 108.07-77.693 136.7-138.61-0.077 36.555-13.964 75.925-37.282 111.85 23.763 0.4795 59.977-40.03 83.167-69.784-5.5531 24.985-22.36 47.577-42.062 66.916 24.217-5.9536 50.347-22.949 71.696-42.062-27.858 44.664-100.61 81.079-166.33 86.991z" stroke="#181818" stroke-width="1px" fill="#181818"/></g><g transform="translate(1096.9 -170.01)"><path id="path6477" d="m3011.2 1840.7c133.83 34.685 416.79-12.172 542.98-95.595-4.2928 131.61-98.319 264.37-225.91 295.08-105.49 25.386-266.24-35.6-317.07-199.48z" stroke="#181818" stroke-width="29" fill="#2c2c2c"/></g></svg>