<?xml version="1.0" encoding="UTF-8"?><svg xmlns="http://www.w3.org/2000/svg" viewBox="0 0 9739.3 9739.3" version="1.1"><defs id="defs4"><clipPath id="clipPath3827" clipPathUnits="userSpaceOnUse"><path id="path3829" opacity=".5" d="m937.53 2515c-37.11 106.77-42.191 229.09-10.329 328.24 188.52-20.123 379.67-15.017 581.44 92.244 80.975-114.3 147.3-236.66 155.39-391z" stroke="#f00" stroke-width="1px" fill="#0f0"/></clipPath><clipPath id="clipPath3831" clipPathUnits="userSpaceOnUse"><path id="path3833" opacity=".5" d="m943.36 2509.6c-28.092 113.83-18.768 239.26 28.688 336.14 206.58-45.588 419.15-65.794 656 16.773 75.809-127.34 134.39-260.95 124.48-419.44z" stroke="#f00" stroke-width="1px" fill="#0f0"/></clipPath><clipPath id="clipPath3835" clipPathUnits="userSpaceOnUse"><path id="path3837" opacity=".5" d="m940.06 2568.2c-31.546 112.23-27.931 237.94 13.214 337.09 198.74-35.015 402.12-44.382 624.32 50.102 77.578-123.3 139-253.72 136.22-412.47z" stroke="#f00" stroke-width="1px" fill="#0f0"/></clipPath><clipPath id="clipPath3839" clipPathUnits="userSpaceOnUse"><path id="path3841" opacity=".5" d="m883.68 2675.6c-16.914 111.41 0.3798 230.24 49.647 318.08 181.02-63.739 369.21-103.83 586.4-48.196 58.514-128.99 101.21-262.26 81.029-412.59z" stroke="#f00" stroke-width="1px" fill="#0f0"/></clipPath><linearGradient id="linearGradient3851" y2="2602.3" gradientUnits="userSpaceOnUse" x2="1059.2" y1="2967" x1="1104.7"><stop id="stop3847" stop-color="#d995bc" offset="0"/><stop id="stop3849" stop-color="#6f3378" offset="1"/></linearGradient><clipPath id="clipPath3843" clipPathUnits="userSpaceOnUse"><path id="path3845" opacity=".5" d="m756.26 2539.2c457.8-325.07 1018.9-487.16 1622.7-510.85-80.713-276.55-291.7-402.79-530.88-510.85 79.206-155.12 208.26-280.37 340.57-395.66-165.97-46.093-338.01-71.886-490.82-50.084 30.051-160.27 95.566-320.53 150.25-480.8-571.6 280.98-1120.9 958-1337.2 1577.7z" stroke="#f00" stroke-width="1px" fill="#0f0"/></clipPath><clipPath id="clipPath3839-8" clipPathUnits="userSpaceOnUse"><path id="path3841-2" opacity=".5" d="m756.26 2539.2c457.8-325.07 1018.9-487.16 1622.7-510.85-80.713-276.55-291.7-402.79-530.88-510.85 79.206-155.12 208.26-280.37 340.57-395.66-165.97-46.093-338.01-71.886-490.82-50.084 30.051-160.27 95.566-320.53 150.25-480.8-571.6 280.98-1120.9 958-1337.2 1577.7z" stroke="#f00" stroke-width="1px" fill="#0f0"/></clipPath></defs><g display="none" transform="translate(-75.663 2853.1)"><rect id="rect4057" style="color:#000000" display="inline" height="4118.6" width="10160" stroke="#0f0" y="-54.487" x="-80.128"/></g><g transform="translate(-75.663 2853.1)" stroke="#726eca" stroke-width="54" fill="#ab9dd4"><path id="path3767" d="m455.24 2928.9c-98.414 284.63-7.0811 503.99 198.68 659.17 190.78 143.89 454.15 197.04 645.95 183.54l-11.702-789.19z"/><path id="path3769" d="m5142.1 2727.2c233.6-37.683 488.22 3.3885 791.96 90.225l5.6569 164.33-769.33 11.314z"/></g><g transform="translate(-75.663 2853.1)"><path id="path3774" d="m4463.3 1771.2c-13.857-240.29-45.707-570.41-350.72-616.6 92.058-242.21 149.48-507.72 166.89-674.64 35.635-341.64-161.93-330.47-523.27 284.32l-169.67-53.731c101.89-535.4-49.551-748.4-215.28-488.49-74.276 116.48-142.41 321.18-225.98 655.36l0.0001 1595.2 480.83 39.598z" stroke="#726eca" stroke-width="54" fill="#ab9dd4"/></g><g transform="translate(-75.663 2853.1)"><path id="path3795" fill="#bfaff0" d="m3660 2727.2-90.51 763.68-2163.7 14.142-551.54-31.113c-122.03-40.1-230.17-108.6-325.34-203.6l330.93 33.941c127.42 14.955 236.48-15.981 333.75-76.368-62.11-132.56-135.86-249.67-316.78-166.88-119.74 25.684-239.47 61.543-359.21 50.912-44.312-9.7322-88.624-26.447-132.94-73.539l-50.92-164c-8.0233-78.279 47.203-82.604 84.853-107.48l149.91-56.569c-23.22-390.2-18.43-770.6 299.49-1042.2l344-288 1044 300z"/><path id="path3793" fill="#bfecfb" d="m900 1636c-272.12 201-323.67 499-332 816-136.61-200.7-243.38-431.3-316-696l528-424z"/><path id="path3791" d="m564 2464c-129.29-186.8-223.74-430-304-668" stroke="#8ac5ed" stroke-width="54" fill="none"/><path id="path3787" fill="#fff" d="m478 3102c88.667 10.773 177.33 9.1886 266-12 115.84-24.761 229.28-99.773 350-22l104 160c-185.68 117.74-398.41 78.544-610 46z"/><path id="path3785" d="m462.45 3093.5 127.28 181.02" stroke="#b9dce6" stroke-width="34" fill="none"/><path id="path3777" fill="#726eca" d="m868.12 1630.2c-171.23 118.74-256.25 312.22-296.94 512.88-39.257 193.6-37.761 395.02-30.875 550.25-41.286 20.936-80.598 33.377-130.91 42.062-41.14 7.1027-73.237 26.328-89.969 56.188-16.731 29.86-17.927 65.45-12.156 104.38 18.256 123.15 86.237 221.57 207.78 234.88 119.33 13.063 253.37-16.17 359.84-53.344 107.6-37.567 163.12-20.74 205.66 14.25 36.443 29.98 62.479 77.971 90.5 124.06-100.76 62.284-196.22 75.377-294.84 71.562-105.68-4.0878-214.18-29.062-328.97-34.344l-67.812-3.125 47.125 48.844c130.61 135.33 278.09 189.2 428.16 210.38 150.06 21.172 303.32 11.22 452.25 20.031l3.1874-53.906c-153.39-9.0753-305.32 0.5228-447.91-19.594-120.86-17.052-268.46-71.502-374.38-159.22 82.914 9.3076 200.37 28.858 286.25 32.18 112.53 4.3528 218.6-0.7677 337.81-82.335l21.719-14.844-14.281-22.094c-30.658-47.411-54.452-104.97-110.16-150.8-55.704-45.824-128.98-62.248-247.88-20.734-101.79 35.539-233.33 62.377-340.4 50.656-96.985-10.617-144.46-94.105-160.22-200.44-4.8574-32.767-2.0916-55.956 5.8125-70.062s21.116-24.032 52.062-29.375c60.679-10.476 110.68-27.219 162.41-55.625l14.781-8.0938-0.8125-16.844c-7.422-155.66-9.9952-361.26 29.125-554.19 39.12-192.92 119.32-371.43 274.81-479.25z"/><path id="path3779" fill="#726eca" d="m501 2851c29 70.209-50 73.162-73 44 33.458 0.1498 60.11-10.752 73-44z"/><path id="path3789" fill="#726eca" d="m956.01 2898.3c68.815-24.85 139.11 33.055 207.89 53.74-73.636 4.901-139.32-44.957-207.89-53.74z"/></g><g transform="translate(-75.663 2853.1)"><path id="path3843" fill="#fff" d="m962 2496 2 330c294.96-34.253 461.34 29.221 626 94 119.09-114.56 146.53-253.23 166-394z"/><path id="path3812" style="color:#000000" d="m1253 2772.5c0 214.01-94.975 387.49-212.13 387.49s-212.13-173.49-212.13-387.49c0-214.01 94.975-387.49 212.13-387.49s212.13 173.49 212.13 387.49z" clip-path="url(#clipPath3839)" transform="matrix(1.1019 .24555 -.20863 1.0217 529.53 -457.26)" fill="url(#linearGradient3851)"/><path id="path3814" style="color:#000000" d="m1192 2723c0 151.88-67.157 275-150 275s-150-123.12-150-275 67.157-275 150-275 150 123.12 150 275z" clip-path="url(#clipPath3835)" transform="matrix(1.0572 .071726 -.076022 .99742 146.48 -135.73)"/><path id="path3816" style="color:#000000" d="m1296 2573c0 105.49-42.085 191-94 191s-94-85.514-94-191 42.085-191 94-191 94 85.514 94 191z" clip-path="url(#clipPath3831)" transform="matrix(1.0034 .11905 -.12031 .99289 300.43 -110.8)" fill="#fff"/><path id="path3818" style="color:#000000" d="m1054 2820c0 28.719-14.775 52-33 52s-33-23.281-33-52 14.775-52 33-52 33 23.281 33 52z" clip-path="url(#clipPath3827)" transform="matrix(1.1286 0 0 1.0272 -113.02 -90.108)" fill="#fff"/></g><g opacity=".5" display="none" transform="translate(-75.663 2853.1)"><path id="path3798" d="m945.04 2493.3c-41.881 109.68-47.616 235.32-11.657 337.17 212.76-20.67 428.48-15.425 656.2 94.752 91.385-117.41 166.24-243.09 175.36-401.64z" stroke="#f00" stroke-width="1px" fill="#0f0"/></g><g transform="translate(-75.663 2853.1)"><path id="path3856" fill="#000600" d="m1728 2542c-1.7054 144.27-73.87 268.98-168 362l50 26c111.36-108.09 194.84-229.48 171-420.66-309-13.6-613-28.9-922-46.3l100-137-59-4-128 160c-27.205 34.006-4.1244 41.914 16 42 313.33 1.3433 626.67 9.2172 940 18z"/><path id="path3858" fill="#000600" d="m1774 2633.9c64.883 27.195 191.76 88.681 181 105.18-10.759 16.502-135.58-35.742-195.71-67.861z"/><path id="path3860" fill="#000600" d="m1769.2 2615.6c78.253 0.9775 235.63 11.49 236.17-4.3607 0.5405-15.85-156.98-35.073-234.76-39.716z"/><path id="path3862" fill="#000600" d="m1739 2514c62.39-28.772 194.06-84.296 203-67 8.9434 17.296-111.2 80.337-171 112z"/><path id="path3854" fill="#726eca" d="m870 2840c154.9 0.3545 312.76-17.843 462 20 105.5 26.752 201.33 74.718 306 80-72.278-43.73-206.26-91.28-306-112-154.04-32.002-344-25.664-462 12z"/></g><g transform="translate(-75.663 2853.1)"><path id="path3867-7" fill="#bfecfb" d="m3512.9 526.69c-1092-521.32-2259.9-80.95-2166.6 1154 330.64-8.0732 687.55 111.22 936.21 229.1l135.85 472.63c265.16 151.77 578.47 366.32 760.76 556.43 6.0145-96.166-58.669-208.33-104.85-304.5 340.56 190.43 755.81 204.03 1049.5 47.598-332.47-340.49-701.61-632.24-1108.7-844.73 296.9 20.535 630.18 155.89 865.5 318.64-109.51-310.43-310.57-589.42-654.46-742.02 380.18-150.31 769.26-266.39 1124-247.93-333.3-268.88-1060.9-439.08-1612.2-486.47 198.9-125.66 507.2-154.73 775-152.74z"/><path id="path3871" fill="#fdfdfd" d="m1912 472c92.163 28.651 183.29 53.144 268 52-140.19 71.81-222.24 180.3-272 271.31 188.91-21.769 383.11-28.702 576 42.343 177.08 65.223 347.53 129.75 528 130.34-172.51 33.472-321.57 110.35-471.51 196.49 196.73 37.855 382.05 99.498 539.51 203.51-269.53-24.701-503.07 33.374-697.17 182.14 169.76 38.7 440.56 68.022 405.17 237.86l-156 732 536 408-112-316 188 108c67.266-30.367 122.87-66.566 160-112-107.05-27.716-267.17-79.269-334.63-173.17l4.4853-592.28c253.7 15.4 541.3 162.8 790.1 289.5-86.3-298.8-330.9-516.9-581-718.8 332.4-186.2 686.6-226.4 1041-265.2-482.5-311.54-1026.1-399.45-1576-464 193-151.2 475.5-141.42 740-164-492.9-223.6-1008-305.21-1576-48z"/><path id="path3867" d="m3512.9 526.69c-1092-521.32-2259.9-80.95-2166.6 1154 330.64-8.0732 687.55 111.22 936.21 229.1l135.85 472.63c265.16 151.77 578.47 366.32 760.76 556.43 6.0145-96.166-58.669-208.33-104.85-304.5 340.56 190.43 755.81 204.03 1049.5 47.598-332.47-340.49-701.61-632.24-1108.7-844.73 296.9 20.535 630.18 155.89 865.5 318.64-109.51-310.43-310.57-589.42-654.46-742.02 380.18-150.31 769.26-266.39 1124-247.93-333.3-268.88-1060.9-439.08-1612.2-486.47 198.9-125.66 507.2-154.73 775-152.74z" stroke="#8ac5ed" stroke-miterlimit="7" stroke-width="54" fill="none"/><path id="path3865-4" fill="#bfecfb" d="m1912 1239.5c-592.8 376.38 59.438 1047.9 368.67 1444.8-487.96-131.32-962.6-401.29-1071.1-1073.4-101.48 273.39-21.119 641.47 210.27 912.69-327-104.9-650.17-450.9-678.75-984.3-236.21 245.5-311.42 615-199.65 903.4-376.08-201.7-638.93-853.6-238.27-1293.1 399.65-438.31 1223.2-243.72 1608.9 89.9z"/><path id="path3869" fill="#fdfdfd" d="m825.17 903.31c-151.96 150.59-177.85 371.89-83.03 550.79 102.05-98 213.73-186.3 359.96-214.1 29.986 106.59 95.737 217.13 197.86 292 37.15-61.517 89.446-110.72 141.66-157.17 28.477 180.45 124.45 260.18 218.34 338.06-18.7-197.4 33.7-343.1 248-472.9-320.1-244.96-672.4-385.32-1082.8-336.69z"/><path id="path3865" d="m1912 1239.5c-592.8 376.38 59.438 1047.9 368.67 1444.8-487.96-131.32-962.6-401.29-1071.1-1073.4-101.48 273.39-21.119 641.47 210.27 912.69-327-104.9-650.17-450.9-678.75-984.3-236.21 245.5-311.42 615-199.65 903.4-376.08-201.7-638.93-853.6-238.27-1293.1 399.65-438.31 1223.2-243.72 1608.9 89.9z" stroke="#8ac5ed" stroke-miterlimit="7" stroke-width="54" fill="none"/></g><g transform="translate(-75.663 2853.1)"><path id="path3901" fill="#bfaff0" d="m2081.7 1904.1c52.797-46.476 105.59-68.238 158.39-84.853 188.35-44.405 379.37-75.528 582.66-45.255 231.84 52.122 436.43 186.01 630.74 350.72 56.732 66.542 31.734 114.22-8.4853 158.39-308.96 269.58-630.54 243.24-953.18 192.33l-217.79-82.024z"/><path id="path3895" fill="#726eca" d="m2631.1 1732.4c-204.32-2.5451-409.96 69.135-522.81 145.99 127.56-39.107 325.6-94.664 519.32-92.884 250.04 2.2968 522.04 94.259 767.34 335.86 47.349 46.637 65.819 77.264 67.812 91.531 0.9966 7.1338 0.078 11.167-4.5 18.469-4.5774 7.3017-13.767 16.88-27.437 27.969-342.02 277.42-705.76 276.23-1054.1 171.14 330.49 189.06 731.4 160.15 1088.1-129.2 15.881-12.882 29.357-25.587 39.156-41.219 9.7997-15.632 14.966-35.181 12.25-54.625-5.4326-38.889-33.505-73.381-83.437-122.56-254.24-250.42-539.02-347.2-801.72-350.47z"/></g><g transform="translate(-75.663 2853.1)"><path id="path3904-0" fill="#bfecfb" d="m4624 2576c720.92-463.05 1621.5-779.96 2408-960-85.333 83.185-190.67 150.85-292 240 523.97-140.16 1148.3-14.762 1460 124-117.65 30.454-282.62 53.364-414 84 348.43 134.46 707.45 168.11 1054 236-84.064 77.84-191.42 97.452-296 124 404.21 150.17 832.77 202.42 1244 184-751.6 750.82-2183.5 457.42-3173.4 237.49-560.26-124.48-1244.8-262.13-1824.7-96.402z"/><path id="path3906" fill="#fdfdfd" d="m6e3 1916c126.47-7.7641 252.88-19.874 380 24-66.901 31.883-130.21 65.561-176 108 252 7.77 504 21.256 756 92-155.32 25.683-305.86 58.545-440 116 196.13 31.784 375.87 90.884 540 176-306.9 19.068-611.68 46.629-908 108 55.312 99.355 131.92 177.41 208 256 264 56.087 528 110.46 792 156 316.29 75.63 634.24 105.23 952 140 149.45-29.333 279.83-58.667 380-88-79.683-9.7156-165.66-38.309-256-80 204-25.615 408-48.33 612-84-78.764-34.764-178.71-74.71-268-120 177.69-8.6184 356.59-14.822 524-44-140.61-49.575-280.04-104.33-412-192l-136-60c128.32-18.678 199.33-67.779 272-116-334.67-60.292-669.33-106.07-1004-248l352-84c-458.8-189.6-927.8-237-1408-128l252-220c-337.33 64.598-674.67 170.46-1012 288z"/><path id="path3908" fill="#8ac5ed" d="m7461.5 2120.3c188.18 35.007 444.97 176.29 584.53 378.87-144.63-2.6968-334.06-37.239-484.53-57.423 135.53 63.817 361.35 118.44 535.15 110.92l45.812-1.9688-23.969-39.094c-149.6-244.3-449.1-422.3-656.9-391.3z"/><path id="path3910" fill="#8ac5ed" d="m7239.5 2372.1c103.46 58.412 358.32 316.42 464.59 483.6-147.59 26.061-308.86 8.3311-466.59-5.4687l-4.7 53.8c171.49 15.003 351.38 34.857 520.56-3.0312l36.312-8.125-19-32c-110.12-185.58-386.61-487.16-531.16-488.75z"/><path id="path3904" d="m4624 2576c720.92-463.05 1621.5-779.96 2408-960-85.333 83.185-190.67 150.85-292 240 523.97-140.16 1148.3-14.762 1460 124-117.65 30.454-282.62 53.364-414 84 348.43 134.46 707.45 168.11 1054 236-84.064 77.84-191.42 97.452-296 124 404.21 150.17 832.77 202.42 1244 184-751.6 750.82-2183.5 457.42-3173.4 237.49-560.26-124.48-1244.8-262.13-1824.7-96.402z" stroke="#8ac5ed" stroke-miterlimit="9" stroke-width="54" fill="none"/></g><g transform="translate(-75.663 2853.1)"><path id="path3965" fill="#bfaff0" d="m3671.3 2574.5-186.68 791.96c-465.75 7.0065-931.5-27.63-1397.2-73.539l-922.1-147.2c-156.68-8.5466-321.13-27.957-322.44 181.02 25.249 189.85 102.16 347.9 265.87 452.55 173.48 112.24 346.95 121.79 520.43 141.42 610.61 33.738 1178.9-80.566 1748-192.33 307.36 59.984 614.71 52.5 922.07 56.568 282.39-45.921 601.72-67.171 709.94-280.01 338.47 64.706 662.79 38.181 1001.3-330.93l181.02 25.456-192.33-551.54c-98.296 11.825-209.26-6.9541-220.62 214.96-164.05-16.237-328.1-67.494-492.15-158.39-389.6-218.4-690.1-271.3-930.4-212.6z"/><path id="path3959" d="m5779.3 2864c5.3539-103.01 24.943-208.14 178.75-212 377.16-9.4574 749.3-21.475 1118.7-15.302 181.43 3.0323 324.13 84.298 418.61 186.68 94.854 102.79 171.35 232.98 212.13 339.41 66.145 172.63-25.716 267.53-200.82 271.53-393.05 8.9856-850.87-202.64-1503.3-254.56" stroke="#726eca" stroke-width="54" fill="#bfaff0"/><path id="path3939" fill="#726eca" d="m1055.2 3110.6c-35.731-0.4921-70.564 2.4781-102.78 11.187-42.956 11.612-82.098 35.043-107 74.719s-34.854 93.086-28.25 162.06c14.287 149.24 110.2 329.06 255.72 427.78 152.34 103.35 297.77 137.24 445.09 148.56 699.1 53.74 1597.1-53.454 2044.3-268.25-472.77 113.21-1348.1 267.64-2040.2 214.43-141.97-10.913-275.12-41.887-418.91-139.44-128.86-87.422-219.86-258.5-232.28-388.22-5.865-61.263 3.5218-101.57 20.25-128.22 16.728-26.653 41.531-42.172 75.344-51.313 67.626-18.282 167.94-4.4914 257.75 10.844 744.73 127.16 1935.6 272.37 2294.8 185.82-367.74-24.321-1542.3-112.12-2285.7-239.04-56.572-9.6593-118.6-20.117-178.16-20.937z"/><path id="path3945" fill="#726eca" d="m4983.1 3505.3c-39.079 65.625-127.19 121.1-248.53 161.81-121.34 40.716-274.43 67.109-438.94 80.875-299.08 25.026-636.31 8.4436-893.51-33.924l-85.178 39.518c270.56 53.406 648.34 76.238 983.19 48.219 167.42-14.01 323.99-40.682 451.59-83.5 127.61-42.818 227.73-101.38 277.75-185.38z"/><path id="path3947" fill="#726eca" d="m5393.6 3503.7c-245.49 42.947-633.41-63.016-793.17-169.77 128.75 167.6 543.35 267.11 803.24 221.19 361.16-63.811 668.13-333.07 713.91-522.92-118.27 121.28-387.64 412.66-723.98 471.5z"/><path id="path3953" fill="#726eca" d="m4540.8 2440.3c-71.183-0.7582-141.48 6.2399-208.59 23.156l13.187 52.375c282.27-71.151 649.3 52.443 859.41 178 213.09 127.34 488.93 212.23 627.8 165.14-132.65-4.6638-390.97-86.501-600.11-211.48-171.96-102.76-437.46-204.48-691.69-207.19z"/></g><g transform="translate(-75.663 2853.1)"><path id="path4002" fill="#bfaff0" d="m3606.2 2158.7c-15.578 246.93-24.715 492.56-76.368 746.7l172.53 192.33c318.31-63.227 602.55-170.26 763.68-435.58z"/><path id="path3976" d="m3597 2226.5c0.1392-10.341 0.2222-20.694 0.2489-31.058 0.4225-164.39-13.343-331.55-42.09-495.87-82.282-470.33-45.103-1024.4 171.08-1368.6 117.98-187.82 237.88-183.52 239.24 48.569 2.7041 458.31-114.03 913.58-214.96 1374.6 132.79-192.29 376.95-1108.6 630.74-1323.7 203.38-172.37 295.38-115.94 251.73 132.94-63.653 362.91-261.27 798.49-432.75 1202.1 129.04-143.64 274.55-302.76 427.09-384.67 226.5-121.61 242.87 38.718 172.53 220.62-121.4 313.95-342.37 586.27-613.77 837.21 299.19-120.06 401.32 46.701 268.7 251.73-7.5398 11.657-15.538 23.108-23.97 34.347" stroke="#726eca" stroke-miterlimit="24" stroke-width="54" fill="#bfaff0"/><path id="path4000-8" fill="#bfaff0" d="m3636.4 1955.9c-9.1974-68.775-60.764-143.85-58.075-217.57 2.4939-68.379 10.369-133.88 24.124-187.21 39.563-153.39 124.44-203.44 200.08-7.4841 67.915 175.94 39.96 394.32 32.77 654.68 107.47-224.72 326.06-557.61 395.98-178.19 46.152 250.43-166.43 495.79-349.41 677.51 284.4-65.43 274.35 219.43 183.71 297.47"/><path id="path3976-6" fill="#726eca" d="m3570.2 2195.4c-0.026 10.266-0.1122 20.507-0.25 30.75-3.0531 226.77-22.085 546.46-43.474 696.85 66.293-146.6 94.362-464.98 97.474-696.1 0.1405-10.439 0.223-20.913 0.25-31.375zm861.88 480.38c-7.1902 11.116-14.808 22.059-22.875 32.813-147.1 196.09-477.21 336.35-738.33 382.48 264.96 43.303 621.13-136.27 781.52-350.07 8.796-11.725 17.142-23.709 25.031-35.906z"/><path id="path4000" d="m3588.4 1957.9c-9.1974-68.775-12.764-145.85-10.075-219.57 2.4939-68.379 10.369-133.88 24.124-187.21 39.563-153.39 124.44-203.44 200.08-7.4841 67.915 175.94 39.96 394.32 32.77 654.68 107.47-224.72 326.06-557.61 395.98-178.19 46.152 250.43-166.43 495.79-349.41 677.51 284.4-65.43 274.35 219.43 183.71 297.47" stroke="#726eca" stroke-miterlimit="9" stroke-width="54" fill="none"/></g><g transform="translate(-75.663 2853.1)"><g id="g4048" transform="matrix(.20159 -.15050 .15050 .20159 3228.8 3389.4)"><path id="path3819" d="m2028.4 706.18c-557.4 406.02-1153.2 748.92-1532.6 1447.4l280.47 445.74 1662.8-560.93-140.23-946.58z" clip-path="url(#clipPath3843)" transform="translate(5102.4 1079.9)" fill="#86c3ec"/><path id="path3817" d="m1853.1 926.54c-520.9 303.36-949.81 721.76-1257.1 1292.2l-135.23-90.2c254.33-675.8 633.13-1276.4 1457.4-1607.6zm-1187 1397.4c374.69-410.4 878.99-947.7 1382.3-1001.7l230.38 400.67c-645.95 26.692-1171.8 269.25-1577.6 656.09z" clip-path="url(#clipPath3839-8)" transform="translate(5102.4 1079.9)" fill="#ddf1fd"/><path id="path3765" fill="#f5f0a9" d="m5488 2953 200.67 316.57 255.09-46.12-120.2 195.33 175.29 350.58-285.48-85.142-130.22 290.48-75.125-320.53-205.34-100.17 199.95-146.13z"/><path id="path3778" d="m5981.3 1776.8-13.857 116.85-4.5983 38.781-38.806 4.6107-116.84 13.869 116.84 13.857 38.806 4.6106 4.5983 38.794 13.857 116.84 13.869-116.84 4.5982-38.806 38.794-4.5982 116.85-13.857-116.85-13.869-38.794-4.5983-4.5982-38.794-13.869-116.85z" fill-rule="evenodd" fill="#fff"/><path id="path3778-1" d="m7095.7 1241.3-13.857 116.85-4.5982 38.781-38.806 4.6107-116.84 13.869 116.84 13.857 38.806 4.6106 4.5982 38.794 13.857 116.84 13.869-116.84 4.5982-38.806 38.794-4.5982 116.85-13.857-116.85-13.869-38.794-4.5983-4.5982-38.794-13.869-116.85z" fill-rule="evenodd" fill="#fff"/><path id="path3778-4" d="m7120.7 3329.8-13.857 116.85-4.5982 38.781-38.806 4.6107-116.84 13.869 116.84 13.857 38.806 4.6106 4.5982 38.794 13.857 116.84 13.869-116.84 4.5983-38.806 38.794-4.5982 116.85-13.857-116.85-13.869-38.794-4.5983-4.5983-38.794-13.869-116.85z" fill-rule="evenodd" fill="#fff"/></g></g></svg>