<?xml version="1.0" encoding="UTF-8"?><svg xmlns="http://www.w3.org/2000/svg" version="1.1" viewBox="0 0 5868.0552 5868.0713"><defs id="defs4"><clipPath id="clipPath3917" clipPathUnits="userSpaceOnUse"><path id="path3919" opacity=".5" d="m2342.7 2782.2c-44.934-5.9242-48.794-47.012-44.327-90.87 2.5039-24.584 13.476-28.744 27.704-29.921 126.58-10.47 247.38 10.171 367.91 33.245 23.396 4.4788 35.263 11.215 32.137 31.029-10.389 65.857-26.827 82.206-70.923 78.68z" stroke="#f00" stroke-width="1px" fill="#0f0"/></clipPath><clipPath id="clipPath3921" clipPathUnits="userSpaceOnUse"><path id="path3923" opacity=".5" d="m2045.2 3172.1c-14.94-3.5435-22.978-0.3678-25.075 12.538-2.2464 13.828-3.7854 28.237-0.9181 43.422 2.7565 14.598 12.856 18.46 21.941 20.564 145.67 33.738 294.59 62.897 436.6 83.33 13.895 1.9993 28.026 2.0145 35.032-12.711 7.1992-15.13 13.362-34.375 15.118-42.14 5.5395-24.498-11.028-25.167-21.941-26.642-150.39-20.337-306.69-41.82-460.75-78.36z" stroke="#f00" stroke-width="1px" fill="#0f0"/></clipPath><linearGradient id="linearGradient4182" y2="1420.6" gradientUnits="userSpaceOnUse" x2="5072.4" y1="1840.7" x1="5164.9"><stop id="stop4178" stop-color="#aae6f9" offset="0"/><stop id="stop4180" stop-color="#1f3b86" offset="1"/></linearGradient><clipPath id="clipPath4215" clipPathUnits="userSpaceOnUse"><path id="path4217" opacity=".5" d="m5014.6 1372.5c101.99 29.932 247.95 176 228.36 341.82-19.591 165.82-281.03 266.62-494.51 158.24z" stroke="#f00" stroke-width=".92888px" fill="#0f0"/></clipPath><clipPath id="clipPath4219" clipPathUnits="userSpaceOnUse"><path id="path4221" opacity=".5" d="m5162.9 1348.6c84.992 93.359 150.31 339.13 40.386 507.58-109.93 168.45-424.65 122-577.62-123.1z" stroke="#f00" stroke-width="1.1009px" fill="#0f0"/></clipPath><clipPath id="clipPath4223" clipPathUnits="userSpaceOnUse"><path id="path4225" opacity=".5" d="m5118 1336.4c99.285 62.289 216.33 266.22 155.61 445.01-60.719 178.79-358.33 216.5-555.06 35.273z" stroke="#f00" stroke-width="1.0305px" fill="#0f0"/></clipPath><clipPath id="clipPath4227" clipPathUnits="userSpaceOnUse"><path id="path4229" opacity=".5" d="m5114.8 1403.8c80.181 81.646 141.81 296.58 38.1 443.9-103.7 147.3-400.6 106.6-544.9-107.7z" stroke="#f00" stroke-width="1px" fill="#0f0"/></clipPath></defs><g display="none" transform="translate(-94.257 283.68)"><rect id="rect3775" style="color:#000000" fill-rule="evenodd" display="inline" height="5824" width="6120" stroke="#0f0" y="-44" x="-40" stroke-width="1px"/></g><g opacity=".2" display="none" transform="translate(-94.257 283.68)"><path id="path3791" style="color:#000000" d="m4832 5480c0 99.411-716.34 180-1600 180s-1600-80.589-1600-180 716.34-180 1600-180 1600 80.589 1600 180z" transform="matrix(1.0175 0 0 1.0444 -116.56 -243.56)" display="inline"/></g><g transform="translate(-94.257 283.68)" stroke="#99824f" stroke-width="39" fill="#ae9967"><path id="path3769" d="m2885 3547c-174.4 238.79-448.18 441.39-750.22 413.04-32.707-3.0701-41.74 4.9497-52.825 30.923-123.2 288.5-516.4 747.7-963 938-73.045 31.115-136.46 59.596-214-12-71.375-65.901-161.85-188.97-201-322-16.686-56.696-53.585-127.04 23-178 326.93-217.53 638.01-474.64 957-712l181.25-105.79c-37.4-429.3-13.4-633.3 382.8-963.2z"/><path id="path3771" d="m4501 5203c-69.152-6.8041-129.41-31.481-158-106-58.601-152.75-123.49-303.39-220-438-64.142-89.461-126.33-183.12-181-282-136.45-246.78-256.61-498.82-380-760l582.8 80.828c180.4 185.7 336.5 375.7 496.2 595.2 149.95 206.02 353.7 355.86 522 537 112.1 120.65 118.36 220.07-50 283-194.85 72.826-399.21 110.94-612 90z"/></g><g transform="translate(-94.257 283.68)"><path id="path3777-2" d="m2108 2777c-223.38-116.83-469.59 159.19-470 414-33.969-59.916-48.112-147.55-44-233-263.75 268.02-352.43 604.53-374 924-170.47-270.6-127.72-677.98-65-952-76.617 56.531-143.69 132.22-197 223-16.183-224.98 42.573-617.95 480-807-99.249-25.992-204.91-15.294-299 7 156.28-140.03 374.34-200.49 623-155-25.497-55.629-63.888-111.64-100-154 350.71-12.964 524.05 228.78 635 547" fill="#4f4223"/><path id="path3777" d="m2108 2777c-223.38-116.83-469.59 159.19-470 414-33.969-59.916-48.112-147.55-44-233-263.75 268.02-352.43 604.53-374 924-170.47-270.6-127.72-677.98-65-952-76.617 56.531-143.69 132.22-197 223-16.183-224.98 42.573-617.95 480-807-99.249-25.992-204.91-15.294-299 7 156.28-140.03 380.34-199.49 629-154m-79.967-122.54c-8.67-11.471-17.416-22.356-26.033-32.464 350.71-12.964 524.05 228.78 635 547" stroke="#342616" stroke-miterlimit="9" stroke-width="39" fill="none"/><path id="path3777-7" fill="#342616" d="m1676.8 2031.3-29.688 25.312c8.3592 9.8057 16.868 20.39 25.313 31.563 26.944 35.65 117.18 155.25 155.12 251.43-2.0606-107.83-95.606-237.37-123.99-274.93-8.896-11.77-17.876-22.966-26.75-33.375z"/></g><g transform="translate(-94.257 283.68)"><path id="path3998" fill="#bca97b" d="m2328 2592c-248.68 195.87-459.45 419.31-476 784-12.656 42.667-8.5016 85.333 0 128-7.3839 80.617-46.182 78.771-96 48-91.681-105.81-158.46-82.139-224-52-448.23 253.61-902.58 490.89-1336 784-72.155 65.426-108.76 137.32-64 224 83.637 145.09 185.79 234.62 296 300 188.67 99.238 264.46 8.3513 356-56 91.392-155.52 229.77-279.71 368-404 184.01-161.99 377.49-309.76 572-456 74.032-49.46 152.71-19.93 232 20 424.14 54.998 833.61-228.76 1020-424z"/><path id="path3996" fill="#bca97b" d="m3540 3376c8.3437 180.04 50.253 410.55 320 440l676 12c17.284 99.574 22.146 196.04 9.2824 288.08-1.3545 106.86-38.053 192.51-76.368 277.19-30.145 91.445-11.338 167.83 56.568 229.1 192.33 97.678 384.67 186.04 577 209.3 124.67 6.9815 235.25-10.952 263.04-175.36 37.296-260.79-35.846-491.46-164.05-707.11-134.64-203.83-276.49-400.45-478-537.4-182.39-108.56-401.4-91.604-636.4-19.799l-231.93-121.62z"/><path id="path3994" fill="#bca97b" d="m4808 2320-716-536c-68.546 214.3-151.46 419.03-252 612-89.456 105.24-198.58 125.25-320 92-222.67-52.673-445.33-105.7-668-148-195.44-6.1115-341.84 36.822-452 116-119.4 94.76-225.61 197.43-292 324-151.2 165.33-201.68 330.67-260 496l924 392c144 24 282.67 53.333 416 88 165.77 11.084 331.1 21.076 476-20l864-396c180.02-311.1 291.74-675.64 280-1020z"/><path id="path3992" fill="#bca97b" d="m5176 836c168.6 85.56 334.9 174.7 420 396l-440-20-960-20-76-260c305.18-195.86 665.66-198.18 1056-96z"/><path id="path39" d="m3851 2383c-166.07 156.08-256.68 124.89-384 91-162.56-43.263-335.39-81.405-496-115-455.88-95.358-709.04 146.01-913 465" stroke="#99824f" stroke-width="39" fill="none"/><path id="path3784" fill="#99824f" d="m1941.8 2979.5c-89.9 170.87-133.86 351.97-113.12 485.5 6.8207 43.926-3.0491 73.53-12.563 80.844-4.7567 3.657-9.6459 5.1571-20.687 1.875-11.042-3.2822-27.09-12.715-46-30.813-49.205-47.091-95.913-66.46-142.72-62.656-46.806 3.8035-90.592 28.323-141.16 60.281-327.06 206.71-819.86 448.41-1207.3 702.16-102.56 67.173-151.34 131.65-161.88 195.06-10.537 63.415 18.443 120.47 58.438 169.56 87.108 106.93 182.44 216.19 317.12 267.91 115.08 44.191 254.13 11.172 351.03-129.12 153.32-221.99 561.32-533.72 888.87-791.66 81.984-64.56 101.22-51.686 188.44-14.5 144.83 61.753 351.08 23.139 553.16-59.844s411.3-212.23 527.26-372.79c-164.06 142.08-344.88 255.71-542.07 336.69-197.2 80.979-397.73 116.84-523.03 60.062-104.57-47.389-126.9-57.878-227.56 19.5-330.62 254.14-735.53 566.38-897.13 800.34-88.61 128.6-204.94 153.1-304.7 114.8-123.18-47.3-214.41-150-300.88-256.1-36.551-44.871-58.244-90.234-50.219-138.53 8.0254-48.297 47.048-104.83 144.78-168.84 384.23-251.65 876.33-493.03 1206.7-701.84 49.352-31.192 88.709-51.517 123.5-54.344 34.791-2.8272 68.132 9.3867 112.62 51.969 21.783 20.847 41.921 34.118 61.813 40.031 19.891 5.9127 40.681 3.09 55.594-8.375 29.825-22.93 35.261-66.763 27.344-117.75-18.578-119.64 22.081-296.02 109.06-461.34 86.982-165.32 226.63-292.9 372.64-425.13-173.19 89.459-317.24 236.11-407.14 406.98z"/><path id="path3786" d="m2754.3 3671.4c130.24 4.9762 257.47 50.48 389.73 69.565 179.6 25.917 369.13 47.043 531-6" stroke="#99824f" stroke-width="39.1" fill="none"/><path id="path3788" fill="#99824f" d="m3603.6 3690.3c55.055 84.97 140.56 144.22 250.03 146.22 228.4 4.1726 452.33-6.6348 681.53 11.938l3.1563-38.875c-232.44-18.835-457.3-7.9211-684-12.062-96.028-1.7543-168.3-51.737-218-128.44-49.697-76.701-83.477-181.64-93.186-314.46-26.679 130.23 5.4119 250.71 60.467 335.68z"/><path id="path3790" fill="#99824f" d="m4405.9 3313.7c-140.47 1.4942-348.8 48.901-420.5 114.09 90.097-32.33 287.62-73.991 422.9-75.113 44.168-0.3664 88.788 2.644 133.76 9.5855 82.098 12.673 143.43 49.479 207.78 100.94 289.13 231.2 647.58 687.3 608.78 1115-11.447 126.2-51.208 185.23-105.66 212.56-54.448 27.332-129.86 22.887-213.06 6.0625-171.64-34.706-324.28-89.404-491.88-189.62-47.339-28.308-68.376-61.761-74.625-101.31-6.249-39.552 3.7643-86.612 25.531-137.25 79.882-185.84 109.92-435.95 17.172-616.05 33.579 178.95 24.529 420.35-52.984 600.68-23.467 54.594-36.17 108.39-28.219 158.72 7.9516 50.327 38.032 95.774 93.125 128.72 171.21 102.38 329.06 158.98 504.12 194.38 86.146 17.419 169.96 24.828 238.28-9.4688 68.324-34.297 114.89-110.38 127-243.91 40.941-451.38-326.98-912.08-623.22-1149-66.77-53.393-135.63-95.079-226.22-109.06-47.871-7.3896-95.27-10.498-142.09-10z"/><path id="path3792" fill="#99824f" d="m3842.2 3256.1c30.462 61.642 133.98 112.52 212.68 141.06l54.748-22.978c-73.756-21.736-197.64-72.452-267.43-118.08z"/><path id="path3794" d="m4525.1 3340.2c148.79-257.6 298.22-658.43 285.11-1025.8" stroke="#99824f" stroke-width="39" fill="none"/><path id="path3945" fill="#99824f" d="m5352.2 914.16-18.625 34.25c126.04 68.556 193.43 205.69 269.12 353.78 79.741 156.01 190.45 260.86 314.41 311.41-36.656 170.24-73.316 332.69-109.94 482.41-253.32 94.074-506.94 168.33-769.41 201.84-169.55 21.647-396.73-23.156-520.78-77.67 93.741 92.564 348.77 138.95 525.72 116.36 269.91-34.461 529.61-111.12 787.84-207.53l9.6563-3.625 2.4374-10c38.72-157.7 77.412-329.53 116.09-509.69l3.5625-16.562-15.906-5.8125c-119.77-43.959-229.4-143.2-308.97-298.88-75.45-147.61-145.32-294.19-285.22-370.28z"/></g><g transform="translate(-94.257 283.68)"><path id="path3882" fill="#f2e460" d="m2342.7 2782.2c-44.934-5.9242-48.794-47.012-44.327-90.87 2.5039-24.584 13.476-28.744 27.704-29.921 126.58-10.47 247.38 10.171 367.91 33.245 23.396 4.4788 35.263 11.215 32.137 31.029-10.389 65.857-26.827 82.206-70.923 78.68z"/><path id="path3894" d="m2557.7 2647.1c-2.0486 56.701-17.428 106.74-36.045 155.15l87.763 12.538c24.837-52.24 28.365-104.48 32.911-156.72z" clip-path="url(#clipPath3917)" fill="#f4ef9c"/><path id="path3884" fill="#bde7f4" d="m2349.2 2745.8c85.331-18.089 180.68-10.718 263.29 17.239 110.85 37.516 51.391 167.7-57.986 172.39-49.41 2.1199-182.63 63.351-90.897 122.24 105.99 68.04 77.101 175.54-26.642 200.6l-344.78-65.822c-28.247-93.258 37.35-155.41 153.58-170.82 120.32-15.958 139.12-51.494 65.822-103.43-58.598-41.526-71.281-149.31 37.613-172.39z"/><path id="path3886" fill="#dfd47b" d="m2438.6 3256.7c56.882-69.479 37.659-114.99-9.4031-181.79-27.076-38.437-35.578-97.946 25.075-120.67 87.283-32.707 165.72-54.711 94.032-123.81-31.406-30.272-112.25-38.041-166.12-34.478-72.121 4.7692-53.726 62.492-10.97 112.84 44.499 52.398 1.3871 102.21-89.33 130.08-77.536 23.818-153.48 57.926-167.69 153.58z"/><path id="path3888" style="color:#000000" d="m2590.6 2836.7c0 16.445-13.332 29.777-29.777 29.777s-29.777-13.331-29.777-29.777c0-16.445 13.332-29.777 29.777-29.777s29.777 13.331 29.777 29.777z" fill="#fff"/><path id="path3890" style="color:#000000" d="m2474.6 3125.1c0 14.714-11.928 26.642-26.642 26.642s-26.642-11.928-26.642-26.642 11.928-26.642 26.642-26.642 26.642 11.928 26.642 26.642z" fill="#fff"/><path id="path3880" fill="#f2e460" d="m2045.2 3172.1c-14.94-3.5435-22.978-0.3678-25.075 12.538-2.2464 13.828-3.7854 28.237-0.9181 43.422 2.7565 14.598 12.856 18.46 21.941 20.564 145.67 33.738 294.59 62.897 436.6 83.33 13.895 1.9993 28.026 2.0145 35.032-12.711 7.1992-15.13 13.362-34.375 15.118-42.14 5.5395-24.498-11.028-25.167-21.941-26.642-150.39-20.337-306.69-41.82-460.75-78.36z"/><path id="path3892" d="m2311.6 3197.2c-4.9831 38.135-16.503 76.27-42.314 114.41l126.94 18.806c16.402-35.34 22.227-73.325 21.941-112.84z" clip-path="url(#clipPath3921)" fill="#f4ef9c"/></g><g transform="translate(-94.257 283.68)"><path id="path3797-6" d="m3731 1807c-35.783 77.221-62.317 154.19-70 248-74.017-259.24-170.76-717.37 39-1059-61.172 59.368-109.9 116.25-158 173 43.981-227.28 178.32-441.95 502-605-113.5-3.3241-207.6 23.922-305.39 52 202.26-180.57 475.9-248.82 782-251m-10.6 0c-103.05-89.846-251.6-182.21-392-211 274.16-117.76 559.48-37.265 765 138-22.878-70.379-63.133-142.94-102-200 210.39 86.426 372.07 312.88 469 505-0.4722-84.618-18.089-211.77-32-299 223.23 243.33 259.1 511.01 166 766-222.24-248.25-874.18-335.06-1208 28l-16 680-223 523c-108 139.32-227.46 252.18-347.59 358 128.78-287.58 173.49-560.11 138.76-847.41" fill="#4f4223"/><path id="path3797" d="m3679.8 1945c-9.0899 34.559-15.59 70.811-18.799 110-74.017-259.24-170.76-717.37 39-1059-61.172 59.368-109.9 116.25-158 173 43.981-227.28 178.32-441.95 502-605-113.5-3.3241-207.6 23.922-305.39 52 202.26-180.57 470.25-250.23 776.34-252.41m-284.88-174.64c-37.3-15.3-75-27.35-112.1-34.96 274.16-117.76 559.48-37.265 765 138-22.878-70.379-63.133-142.94-102-200 210.39 86.426 372.07 312.88 469 505-0.4722-84.618-18.089-211.77-32-299 223.23 243.33 259.1 511.01 166 766-222.24-248.25-874.18-335.06-1208 28l-16 680-223 523c-108 139.32-227.46 252.18-347.59 358 128.78-287.58 174.9-553.04 140.17-840.34" stroke="#342616" stroke-miterlimit="24" stroke-width="39" fill="none"/><path id="path3797-1" fill="#342616" d="m4121.9 134.91-7.8124 38.188c35.695 7.3182 72.266 18.983 108.59 33.875 101.08 41.438 248.17 133.91 379.51 245.94-84.664-147.97-258.42-238.42-364.72-282-38.204-15.661-77.018-28.098-115.56-36zm-461 1805.1c-9.3615 35.592-16.07 73.026-19.375 113.38l38.875 3.1876c3.1146-38.03 9.4005-73.099 18.219-106.62 12.29-46.724 57.507-162.49 119.51-294.01-102 110.48-144.18 234.47-157.23 284.07z"/></g><g transform="translate(-94.257 283.68)"><path id="path4022" fill="#bca97b" d="m4176 1152 1384 36c96.209 199.58 214.66 354.67 380 416l-108 508c-302.65 81.929-673.89 251.76-1024 200-98.667-13.055-197.33-36.539-296-92l-682.88 275.96c77.2-229.4 156.7-458.7 270.9-688l52-152z"/><path id="path3945-8" fill="#99824f" d="m5508.9 1129.1c32.962 53.172 62.675 112.2 93.792 173.08 79.741 156.01 190.45 260.86 314.41 311.41-36.656 170.24-73.316 332.69-109.94 482.41-253.32 94.074-506.94 168.33-769.41 201.84-169.55 21.647-396.73-23.156-520.78-77.67 93.741 92.564 348.77 138.95 525.72 116.36 269.91-34.461 529.61-111.12 787.84-207.53l9.6563-3.625 2.4374-10c38.72-157.7 77.412-329.53 116.09-509.69l3.5625-16.562-15.906-5.8125c-119.77-43.959-229.4-143.2-308.97-298.88-31.111-60.866-61.273-121.56-95.788-177.2z"/><path id="path3780" fill="#99824f" d="m4109.7 1732.8c-120.11 268.58-308.2 705.18-318.18 898.6 57.898-185.59 234.54-616.05 353.78-882.66z"/><path id="path3825" d="m5876 1857c-129.1 77.603-293.89 116.77-408-3 33.238 131.77 265.46 149.97 399 53.657z" fill="#99824f"/><path id="path3827" d="m5648 1734c-38.141 3.4365-59.187-11.443-60-48-35.828 57.354 11.644 94.93 60 48z" fill="#99824f"/></g><g display="none" transform="translate(-94.257 283.68)"><path id="path4022-4" d="m4214 1060c352.56-357.65 883.35-249.37 1188.1 7.7463l87.9 0.3c128.21 265.58 284.66 474.67 450 536l-108 508c-302.65 81.929-673.89 251.76-1024 200-98.667-13.055-197.33-36.539-296-92l-702 358c74.379-256.67 162.58-513.33 290-770l52-152z" display="inline" fill="#bca97b"/><path id="path3825-5" d="m5876 1857c-129.1 77.603-293.89 116.77-408-3 33.238 131.77 265.46 149.97 399 53.657z" display="inline" fill="#99824f"/><path id="path3827-1" d="m5648 1734c-38.141 3.4365-59.187-11.443-60-48-35.828 57.354 11.644 94.93 60 48z" display="inline" fill="#99824f"/><path id="path3780-7" fill="#99824f" d="m4109.7 1732.8c-120.11 268.58-308.2 705.18-318.18 898.6 57.898-185.59 234.54-616.05 353.78-882.66z"/><path id="path4094" fill="#99824f" d="m4755 814.34c-208.09 0.69096-417.87 66.206-553.25 240.75l30.8 23.9c155.44-200.4 418.78-248.58 660.19-216.66 221.44 29.283 422.36 148.79 525.96 224.79-72.399-138-291.37-233.13-520.83-263.48-46.903-6.2023-94.854-9.472-142.88-9.3125z"/><path id="path3945-8-5" fill="#99824f" d="m5452 1048.7c58.251 70.35 102.84 159.71 150.76 253.46 79.741 156.01 190.45 260.86 314.41 311.41-36.656 170.24-73.316 332.69-109.94 482.41-253.32 94.074-506.94 168.33-769.41 201.84-169.55 21.647-396.73-23.156-520.78-77.67 93.741 92.564 348.77 138.95 525.72 116.36 269.91-34.461 529.61-111.12 787.84-207.53l9.6563-3.625 2.4374-10c38.72-157.7 77.412-329.53 116.09-509.69l3.5625-16.562-15.906-5.8125c-119.77-43.959-229.4-143.2-308.97-298.88-47.556-93.04-92.897-185.67-154.95-260.5z"/></g><g transform="translate(-94.257 283.68)"><path id="path4145" d="m5130 1352c175.96 251.21 128.27 429.09-20 574-226.46 93.252-401.38-2.4982-548-202z" clip-path="url(#clipPath4227)" fill="#fff"/><path id="path4137" style="color:#000000" d="m5346 1627c0 171.76-107.45 311-240 311s-240-139.24-240-311 107.45-311 240-311 240 139.24 240 311z" clip-path="url(#clipPath4223)" transform="matrix(.96572 .25175 -.25207 .90948 509.14 -1100.2)" fill="url(#linearGradient4182)"/><path id="path4139" style="color:#000000" d="m5232 1629c0 149.67-71.187 271-159 271s-159-121.33-159-271 71.187-271 159-271 159 121.33 159 271z" clip-path="url(#clipPath4219)" transform="matrix(.94340 0 0 .87454 244.15 224.38)"/><path id="path4143" style="color:#000000" d="m5010 1577c0 63.513-34.026 115-76 115s-76-51.487-76-115 34.026-115 76-115 76 51.487 76 115z" clip-path="url(#clipPath4215)" transform="matrix(.93726 .52172 -.51468 .95008 1121.2 -2516.5)" fill="#fff"/><path id="path4174" style="color:#000000" d="m5046 1719.5c0 22.368-13.879 40.5-31 40.5s-31-18.132-31-40.5 13.879-40.5 31-40.5 31 18.132 31 40.5z" transform="matrix(.86271 .53211 -.50570 .90775 1557.1 -2507.9)" fill="#fff"/></g><g opacity=".5" display="none" transform="translate(-94.257 283.68)"><path id="path4123" d="m5114.8 1403.8c80.181 81.646 141.81 296.58 38.1 443.9-103.7 147.3-400.6 106.6-544.9-107.7z" stroke="#f00" stroke-width="1px" fill="#0f0"/></g><g transform="translate(-94.257 283.68)"><path id="path4185" d="m5140.9 1299c9.0142 71.402-29.2 90.317-64.582 113.67l-475.75 314-11.094 7.3437 7.1562 11.219c59.352 92.896 179.84 182.13 260.15 175.3-69.594-23.089-173.67-97.234-229.93-178.83l464.34-306.47c52.937-34.939 113.53-54.192 49.707-136.23z"/><path id="path4191" d="m5148.2 1447.2c-12.199-11.671-26.208-25.111-42.176-33.013l22.627-18.385c10.865 14.904 16.175 34.621 19.549 51.398z"/></g><g transform="translate(-94.257 283.68)"><path id="path3818-1" d="m4211 1871c-307.21-291.05-487.77-735.48-284-1141 38.652-76.918 89.133-133.73 171-39 110.09 127.39 163.01 334.11 175 487z" fill="#bca97b"/><path id="path3818" fill="#99824f" d="m4017.9 622.09c-10.334 0.0784-20.294 2.1967-29.375 6.125-36.323 15.713-59.01 53.25-79 93.031-125.47 249.7-108.42 513.58-6.9791 748.5 67.058 155.29 206.99 361.91 328.8 424.03-84.191-95.88-225.8-285.78-290.61-433.24-99.792-227.06-117.07-481.53 3.661-721.79 18.661-37.137 40.546-66.479 59.594-74.719 9.5239-4.12 18.15-4.7433 30.844 0.375s29.187 17.141 48.375 39.344c105.29 121.83 158.57 327.99 189.76 523.36 23.195-208.62-45.369-415.91-160.26-548.86-21.746-25.163-42.277-41.563-63.281-50.031-10.502-4.2344-21.197-6.2034-31.531-6.125z"/><path id="path3820" fill="#99824f" d="m3996 1148c-26.394 146.68 73.264 348.3 187 370-78.099-59.45-166.85-225.58-187-370z"/></g></svg>