<?xml version="1.0" encoding="UTF-8"?><svg xmlns="http://www.w3.org/2000/svg" xmlns:xlink="http://www.w3.org/1999/xlink" version="1.1" viewBox="0 0 6427.0356 6427.0294"><title id="title4096">Flim</title><defs id="defs4"><linearGradient id="linearGradient4444"><stop id="stop4446" stop-color="#c0ff95" offset="0"/><stop id="stop4448" stop-color="#8bc05a" offset="1"/></linearGradient><clipPath id="clipPath4107" clipPathUnits="userSpaceOnUse"><path id="path4109" d="m488.57 293.86c-12.13-133.64-145.35-245.5-270-262.86-79.2-11.033-143.87 2.445-191.43 68.571 54.469 15.641 89.384 50.321 112.86 114.29 52.598 143.33 246.87 207.56 338.57 108.57z" stroke="#f00" stroke-width="1px" fill="#0f0"/></clipPath><clipPath id="clipPath4216" clipPathUnits="userSpaceOnUse"><path id="path4218" opacity=".5" d="m3750.6 673c-77.303-109.63-155.79-343.33-100.89-375.75 74.868-38.28 276.95 254.11 306.03 479.64-66.313-24.665-134.5-58.379-205.14-103.89z" stroke="#f00" stroke-width="1px" fill="#0f0"/></clipPath><clipPath id="clipPath4220" clipPathUnits="userSpaceOnUse"><path id="path4222" opacity=".5" d="m3306.7 1919.4c-36.447-129.77-32.935-376.82 29.466-388.55 83.128-10.403 176.49 334.3 129.18 556.73-54.238-45.962-107.24-101.09-158.65-168.18z" stroke="#f00" stroke-width="1px" fill="#0f0"/></clipPath><clipPath id="clipPath4224" clipPathUnits="userSpaceOnUse"><path id="path4226" opacity=".5" d="m3276.6 1927.7c-34.416-129.87-27.041-376.91 35.542-388.48 83.289-10.195 171.26 334.75 120.47 557.06-53.518-46.098-105.66-101.36-156.01-168.57z" stroke="#f00" stroke-width="1px" fill="#0f0"/></clipPath><clipPath id="clipPath4228" clipPathUnits="userSpaceOnUse"><path id="path4230" opacity=".5" d="m3530.5 1447.2c-53.4-123.6-82.7-369-22.5-389.2 80.953-21.753 219.28 307.04 202 534-59.835-38.088-119.67-85.431-179.5-144.84z" stroke="#f00" stroke-width="1px" fill="#0f0"/></clipPath><clipPath id="clipPath4233" clipPathUnits="userSpaceOnUse"><path id="path4235" opacity=".5" style="color:#000000" d="m3371.2 791.64a352.08 248.22 58.714 0 1 -1.5691 440.77 352.08 248.22 58.714 0 1 -396.04 -141.48 352.08 248.22 58.714 0 1 1.5692 -440.77 352.08 248.22 58.714 0 1 396.04 141.48z" stroke="#f00" stroke-width="1.0001" fill="#0f0"/></clipPath><clipPath id="clipPath4237" clipPathUnits="userSpaceOnUse"><path id="path4239" opacity=".5" style="color:#000000" d="m3375.7 819.77a354.3 246.63 58.245 0 1 1.0221 440.75 354.3 246.63 58.245 0 1 -396.86 -144.79 354.3 246.63 58.245 0 1 -1.0221 -440.75 354.3 246.63 58.245 0 1 396.86 144.79z" stroke="#f00" fill="#0f0"/></clipPath><clipPath id="clipPath4241" clipPathUnits="userSpaceOnUse"><path id="path4243" opacity=".5" style="color:#000000" d="m3201.6 1348.1a354.3 246.64 67.431 0 1 -69.35 435.26 354.3 246.64 67.431 0 1 -368.66 -206.28 354.3 246.64 67.431 0 1 69.35 -435.26 354.3 246.64 67.431 0 1 368.66 206.28z" stroke="#f00" fill="#0f0"/></clipPath><clipPath id="clipPath4377" clipPathUnits="userSpaceOnUse"><path id="path4379" d="m3194 326c-445.28 58.702-875.14 216.56-1267.8 613.31l132.94 166.88 1227.5-574.17z" stroke="#f00" stroke-width="1px" fill="#0f0"/></clipPath><linearGradient id="linearGradient4450" y2="900.25" xlink:href="#linearGradient4444" gradientUnits="userSpaceOnUse" x2="3318.7" y1="1272.2" x1="3298.5"/><linearGradient id="linearGradient4458" y2="1801.9" xlink:href="#linearGradient4444" gradientUnits="userSpaceOnUse" x2="3328" y1="2028.4" x1="3360.9"/></defs><g display="none" transform="translate(1174 -54.97)"><rect id="rect4499" style="color:#000000" display="inline" height="6624" width="4208" stroke="#0f0" y="-60" x="-48"/></g><g opacity=".2" display="none" transform="translate(1174 -54.97)"><ellipse id="path4074" style="color:#000000" d="m 3651.4286,6308.5718 c 0,156.2177 -669.0145,282.8571 -1494.2858,282.8571 -825.2712,0 -1494.28574,-126.6394 -1494.28574,-282.8571 0,-156.2177 669.01454,-282.8572 1494.28574,-282.8572 825.2713,0 1494.2858,126.6395 1494.2858,282.8572 z" rx="1494.3" ry="282.86" display="inline" cy="6308.6" cx="2157.1"/></g><g transform="translate(1174 -54.97)"><path id="path4079" d="m3057.1 3740c-44.587 780.64-22.911 1563.5 234.29 2342.9 40.047 121.34 26.502 172.27-117.14 185.71-128.2 11.999-259.5 12.826-380-11.428-92.634-18.645-143.79-73.542-154.29-162.86-69.969-595.54-18.114-1609.4 114.29-2342.9" stroke="#aaa658" stroke-width="49" fill="#d5d898"/><path id="path4083" d="m2034.3 3705.7c-294.23 787.94-242.46 1559.1-163.35 2315 10.836 103.53 30.69 194.94-122.37 210.74-121.14 12.5-263.72 22.193-376.86-13.102-77.816-24.276-132.43-58.53-120.29-169.75 88.692-812.32 152.85-1626.6 365.71-2428.6" stroke="#aaa658" stroke-width="49" fill="#d5d898"/><path id="path4085" fill="#aaa658" d="m1570.1 3935.5-48.996 0.627c2.0508 160.65 51.949 321.85 112.38 400.98-32.997-93.433-61.5-254.02-63.384-401.61z"/></g><g transform="translate(1174 -54.97)" stroke="#c4cae6" stroke-width="29" fill="#f8feff"><path id="path4094" d="m3080 4124.3c-10.179 57.143-5.9327 118.57 14.286 175.71-167.18 52.621-370.3 36.489-528.57-5.7143l8.5714-198.57"/><path id="path4092" d="m3093.1 3782.7c-1.4374 72.344-4.9305 144.21 30.305 204.05 28.957 49.176 26.514 99.673-40.406 135.36-177.79 3.0749-361.63 6.3286-529.32-28.284l-2.0203-321.23z"/></g><g transform="translate(1174 -54.97)"><path id="path4099-4" d="m2305.7 1297.1c-129.57 58.71-233.87 576.35 14.286 625.71 98.693 19.634 36.208 54.61 2.8571 77.143-103.9 70.196-44.38 165.51 40.144 183.2 89.104 18.656 58.139 99.677-1.0918 109.68-53.896 9.0979-127.29-28.289-159.05-70.022-65.336 261.91 192.72 470.44 411.43 174.29l-0.819-713.95z" fill="#c22339"/><path id="path4389" fill="#c22339" d="m3562 1092c103.96-48.969 252.25-62.47 258-190-59.028-109.71-140.32-119.23-220-136-140.3 85.76-103 203.38-38 326z"/><path id="path4161" fill="#fff" d="m3568.3 738.16c110.98 32.912 212.51 74.541 255.02 170.65-13.087 111.67-155.12 135.12-262.69 182.15l1.5841-72.868c198.58-64.551 177.3-144.99 4.1729-191.95z"/><path id="path4118" fill="#fff" d="m2547.6 2168.5c-88.69 136.89-175.74 286.08-274.76 345.47 165.43 91.298 246.19-23.025 339.41-107.08z"/><path id="path4116" fill="#fff" d="m2480.9 1681.6c-67.344 80.297-134.69 160.54-202.03 230.31 98.42 15.65 117.07 41.593 48.487 78.792-63.267 62.329-77.788 122.85 4.0406 179.81 73.197-87.197 125.65-189.95 177.79-292.94z"/><path id="path4099" d="m2305.7 1297.1c-129.57 58.71-233.87 576.35 14.286 625.71 98.693 19.634 36.208 54.61 2.8571 77.143-103.9 70.196-44.38 165.51 40.144 183.2 89.104 18.656 58.139 99.677-1.0918 109.68-53.896 9.0979-127.29-28.289-159.05-70.022-65.336 261.91 192.72 470.44 411.43 174.29" stroke="#7a121c" stroke-width="49" fill="none"/><path id="path4159" d="m3571.2 1084.9c401.83-125.01 257.69-256.42-5.4233-347.09" stroke="#7a121c" stroke-width="49" fill="none"/></g><g transform="translate(1174 -54.97)"><path id="path4121-6" d="m1359.5 2836.4c18.647-234.16-96.453-502.19-288.76-591.11-192.31-88.922-535.55-78.615-762 140.24-126.59 122.34-180.99 291.34-110.77 510.3 17.919 55.876 26.603 112.05-44.447 127.28-117.47 25.171-96.86 135.32-48.487 216.17 65.22 109.01 172.32 204.76 238.4 319.21 49.473 85.69-7.0145 271.22-189.91 290.92 124.75 106.57 277.5 91.144 404.06-8.0812-19.383 117.73-107.39 215.55-262.64 270.72 318.77 192.62 751.36-104.52 624.27-618.21-48.271-195.12-87.144-404.04-18.183-602.05 65.202-187.22 315.72-136.96 379.82 36.366z" fill="#c22339"/><path id="path4123" fill="#fff" d="m1333.4 2837.2c-15.437-212.75-122.33-399.9-315.17-468.71-208.44-74.38-395.14-5.9696-525.28 131.32-127.84 134.87-181.38 306.9-105.06 583.87 81.492 295.73 154.39 604.49-44.447 842.47l214.15-82.832c-30.264 131.31-131.89 211.09-258.6 272.74 54.386 51.251 114.19 56.64 189.91 54.548 199.72-197.1 293.36-456.1 202.04-735.5-81.45-249.3-60.86-609.9 49.06-763.8 141.88-198.6 574-138.3 541.3 213.5z"/><path id="path4121" d="m1359.5 2836.4c18.647-234.16-96.453-502.19-288.76-591.11-192.31-88.922-535.55-78.615-762 140.24-126.59 122.34-180.99 291.34-110.77 510.3 17.919 55.876 26.603 112.05-44.447 127.28-117.47 25.171-96.86 135.32-48.487 216.17 65.22 109.01 172.32 204.76 238.4 319.21 49.473 85.69-7.0145 271.22-189.91 290.92 124.75 106.57 277.5 91.144 404.06-8.0812-19.383 117.73-107.39 215.55-262.64 270.72 318.77 192.62 751.36-104.52 624.27-618.21-48.271-195.12-87.144-404.04-18.183-602.05 65.202-187.22 315.72-136.96 379.82 36.366z" stroke="#7a121c" stroke-width="49" fill="none"/></g><g transform="translate(1174 -54.97)"><path id="path4496" fill="#f3f7b2" d="m1578.3 4339.1c-134 664.65-88.112 1270.6-33.941 1872.4 25.546 86.955 24.421 162.24-118.79 175.36-118.79 11.312-237.59 14.027-356.38-16.97-72.568-23.241-146.36-45.408-135.76-141.42 39.243-646.77 113.08-1293.5 237.59-1940.3z"/><path id="path4494" fill="#f3f7b2" d="m2375.9 1476.7c82.463 444.84 199.35 901.15 197.99 1318l-984.29-56.569c-275.85-11.036-316.1 110.46-356.38 231.93-98.821 335.76-24.034 787.25 101.82 1272.8-113.14-52.797-173.48-15.085-181.02 113.14l407.29 73.539c25.094-148.38 61.751-285.2 101.82-418.61 316.78 59.905 633.57 58.62 950.35 28.284 498.86-26.799 705.13-326.67 752.36-774.99 22.772-361.06-71.023-802.17-79.196-1120.1z"/><path id="path4146-1" fill="#f3f7b2" d="m2282.9 3873.6c-193.9 750.49-214.46 1672.2-153.54 2379.9 11.922 138.51 53.982 156.14 115.16 171.73 150.2 38.277 302.98 40.947 454.57 16.162 130.76-21.378 93.761-129.21 68.69-224.25-182-690.3-257.7-1573.2-189.9-2359.8"/><path id="path4126" fill="#aaa658" d="m2400 1441.1-48.318 8.1465c62.609 371.39 157.33 740.75 186.16 1107.9 11.888 151.39 24.739 312.47 16.973 460.82 40.722-150.66 43.952-310.89 31.876-464.65-29.284-372.89-124.55-743.56-186.69-1112.2z"/><path id="path4132" d="m3272.9 2124c11.574 205.7 66.787 566.41 101.02 848.53 43.337 357.2-98.025 963.29-618.21 1038.4-357.78 51.688-720.45 74.949-1088.9-2.0204" stroke="#aaa658" stroke-width="49" fill="none"/><path id="path4134" fill="#aaa658" d="m1527.6 2717.7c-113.88-0.9539-190.44 26.364-240.04 81.742-49.596 55.379-70.487 133.24-87.348 229.45-76.757 438 48.418 1037.6 169.31 1305.8-64.827-286.05-195.37-873.21-121.04-1297.4 16.405-93.61 36.995-162.13 75.584-205.22 38.589-43.089 96.915-66.321 203.12-65.432 354.69 2.9709 704.36 22.828 1044.6 52.436l4.2481-48.814c-341.25-29.695-692.19-49.637-1048.4-52.621z"/><path id="path4140" fill="#aaa658" d="m1581.2 4211.7c-189.61 734.93-98.915 1647.9-58.037 2012.3 4.6429 41.387 6.5263 76.081-1.5058 96.199-4.0161 10.059-9.4622 17.144-20.26 23.707-10.798 6.5632-27.727 12.168-53.189 14.598-143.49 13.692-286.69 18.023-422.28-27.141-21.858-7.2812-39.433-17.607-51.313-33.785-11.879-16.178-19.622-39.598-16.846-78.611 46.092-647.66 122.28-1298 242.07-1928.6 3.882-20.436 10.711-28.908 18.584-34.088 7.873-5.1795 19.404-7.5183 34.5-6.461 30.192 2.1147 69.942 18.595 97.043 30.211l-14.867-59.334c-23.25-9.0514-50.825-17.802-78.752-19.758-21.75-1.5233-44.887 1.2706-64.854 14.406-19.967 13.136-34.148 36.162-39.793 65.879-120.23 632.92-196.61 1285.1-242.8 1934.2-3.3634 47.26 6.5348 84.274 26.225 111.09s47.612 42.045 75.322 51.275c146.24 48.712 296.89 43.314 442.42 29.428 30.388-2.8995 54.671-9.7632 73.986-21.504s32.883-28.796 40.314-47.41c14.863-37.229 9.384-78.017 4.6934-119.83-40.754-363.29-129.4-1272.9 56.791-1994.6 47.104-182.58 111.72-388.71 190.54-534.34-112.6 114.37-190.02 336.18-237.99 522.1z"/><path id="path4146" fill="#aaa658" d="m2534.3 4163.1c-27.684 705.63 50.28 1455.6 209.78 2060.3 12.71 48.187 26.598 97.567 23.391 131.18-1.6037 16.804-6.3742 28.842-16.338 38.856-9.9637 10.014-26.736 19.009-56.008 23.795-148.73 24.316-297.95 21.638-444.56-15.725-29.748-7.581-48.533-13.952-63.25-31.678-14.717-17.725-27.791-51.519-33.549-118.41-53.317-619.41-43.896-1404.3 89.816-2091.7 18.569-95.461 41.53-229.04 71.674-346.65-63.856 104.4-101.03 240.93-119.77 337.29-134.96 693.83-144.2 1481.8-90.537 2105.2 6.1646 71.618 20.081 115.89 44.668 145.51 24.587 29.613 57.421 39.85 88.848 47.859 153.79 39.192 310.12 41.852 464.57 16.6 36.108-5.9034 63.746-18.402 82.838-37.59 19.092-19.187 28.021-44.057 30.379-68.764 4.7157-49.412-12.429-101.47-24.789-148.33-157.96-598.83-235.69-1345.3-208.2-2045.9 4.0415-103.01-3.6473-219.03-36.091-348.73-4.4436 128.3-8.8019 243.08-12.872 346.81z"/></g><g transform="translate(1174 -54.97)"><g id="g4113" transform="matrix(.53880 -.020123 -.012975 .53486 467.42 1014.3)"><path id="path4090" d="m2159.8 3893.8c18-69.679 24.279-171.75 5.7142-250-2.2864-9.6378-0.5967-14.874 7.5-17.857 12.297-4.531 24.475-4.0371 37.5-2.1429 9.0639 1.3182 14.52 14.967 14.643 25.357 0.9717 82.464-1.1558 160.19-22.5 238.93z" fill="#34251a"/><path id="path4086" d="m2172.6 3879.5c12.131-133.64 145.35-245.49 270-262.86 79.2-11.033 143.87 2.4451 191.43 68.571-54.469 15.641-89.384 50.321-112.86 114.29-52.598 143.33-246.87 207.56-338.57 108.57z" fill="#a0ef63"/><path id="path4088" d="m497.14 319.57c-86.49-158.39-298.89-305.92-470-220l60.003 277.14 385.72 12.86z" clip-path="url(#clipPath4107)" transform="matrix(-1 0 0 1 2661.2 3585.6)" fill="#639830"/><path id="path4111" d="m2184 3908.1-287.14 577.14c-109.05-77.964-197.65-170.8-202.86-324.29-3.2954-189.56 89.458-345.49 207.14-367.14 122.5-26.18 228.49-14.743 282.86 114.29z" fill="#ffffd7"/><path id="path4078" d="m2086.9 4100.9c-35.673-90.507-148.47-85.682-181.45-5.7029-44.47 107.85-28.406 222.06 45.362 281.98" stroke="#a0ef63" stroke-width="4" fill="none"/><path id="path4074-9" d="m2182.6 3906.6-284.29 577.14" stroke="#aaa658" stroke-width="9" fill="none"/><path id="path4080" d="m1917.6 4172.3c-3.1666 29.112 4.5318 54.66 17.143 48.571 12.611-6.0882 6.7993-27.694-17.143-48.571z" fill="#716f40"/><path id="path4082" d="m1946.9 4091.6c-4.5381 28.83 0.8614 50.388 15 46.429 14.139-3.9593 8.5147-24.009-15-46.429z" fill="#716f40"/><path id="path4084" d="m1972.6 4170.2c-4.9042 31.333 3.0927 61.82 22.857 55.714 19.764-6.1062 5.0543-40.781-22.857-55.714z" fill="#716f40"/><path id="path4076" d="m2182.6 3906.6c-40.143-117.81-171.74-151.2-302.86-107.14-125.36 42.125-212.35 248.39-180 417.14 21.14 110.27 87.25 197.57 198.57 267.14" stroke="#8d1239" stroke-linecap="round" stroke-width="14" fill="none"/></g></g><g transform="translate(1174 -54.97)"><path id="path4141" d="m2151.7 4185.6c-5.3356 77.839-19.973 144.52-43.386 200.66 169.93 56.483 339.86 46.689 509.79 13.558-12.12-65.716-10.131-129.8-8.1349-188.46" stroke="#c4cae6" stroke-width="29" fill="#fff"/><path id="path4127-5" fill="#fff" d="m3378.3 3306.6c-106.2 760.1-585.8 761.2-1402.3 747.4-159.4-439-126.5-896.8 24-1300 189.5 6.7742 378.99 17.386 568.49 31.657l383.4 462.48 200.8-111.83z"/><path id="path4133" fill="#5977d1" d="m1965.4 2866.5 694.11 28.761 124.63 145.72-866.67-15.339zm-76.697 335.55 1062.3 24.926 103.54 159.15-1185 40.266zm-9.5871 406.49 1428.5-28.761-99.706 184.07-1315.3 7.6697zm61.357 345.14c384.12-41.846 768.25-50.986 1152.4-69.027-117.3 84.979-264.59 154.37-433.34 157.23l-678.77 11.504z"/><ellipse id="path4129" stroke="#c5c281" style="color:#000000" d="m 3429.0052,3340.3518 c 0,38.8689 -33.0279,70.3783 -73.7698,70.3783 -40.742,0 -73.7699,-31.5094 -73.7699,-70.3783 0,-38.8689 33.0279,-70.3783 73.7699,-70.3783 40.7419,0 73.7698,31.5094 73.7698,70.3783 z" rx="73.77" ry="70.378" transform="matrix(.99468 .10304 -.072260 .99739 0 0)" cy="3340.4" cx="3355.2" stroke-width="26.923" fill="#efe98c"/><ellipse id="path4131" stroke="#c5c281" style="color:#000000" d="m 4315.7661,2370.5186 c 0,34.7939 -31.7878,63 -71,63 -39.2122,0 -71,-28.2061 -71,-63 0,-34.794 31.7878,-63 71,-63 39.2122,0 71,28.206 71,63 z" rx="71" ry="63" transform="rotate(23.743)" cy="2370.5" cx="4244.8" stroke-width="29" fill="#efe98c"/><path id="path4127" d="m3378.3 3306.6c-106.2 760.1-585.8 781.2-1402.3 747.4-159.4-439-126.5-896.8 24-1300 189.5 6.7742 388.99 18.386 578.49 32.657l585.5 717.3z" stroke="#2f4ca4" stroke-width="49" fill="none"/><path id="path4492" fill="#fff" d="m2644 3876c-165.93-107.37-298.39-72.506-422 0 1.394 68.909-2.8481 133.87-54 166-29.176 47.954-48.858 96.77-20 150l444 22c95.27-17.698 83.249-89.042 52-170-21-58.451-27.071-114.88 0-168z"/><path id="path4137" fill="#c4cae6" d="m2358.1 3963c5.9464 86.225 139.5 136.78 199.74 117.2-82.915-14.563-145.64-59.41-199.74-117.2z"/><path id="path4139" d="m2642.9 3869.5c-12.839 36.795-21.946 131.61 8.095 189.82 26.278 50.924 28.256 115.27-43.539 155.64-155.37-4.5322-300.01-11.896-458.92-19.968-27.129-41.067-32.524-80.79 6.6429-124.4 58.27-64.88 69.625-129.02 69.589-201.99" stroke="#c4cae6" stroke-width="29" fill="none"/><path id="path4135" fill="#2f4ca4" d="m2684.4 3924.9c-41.483-192.47-490.43-174.29-529.21 17.257 143.84-143.52 405.44-134.64 529.21-17.257z"/></g><g transform="translate(1174 -54.97)"><path id="path4147" d="m3214.6 2968.1c73.242-114.43 226.28-232.29 280.65-89.484 50.16 131.73 43.053 331.15 1.3558 454.2-44.978 132.73-236.02 2.0666-296.92-89.484" stroke="#251f26" stroke-width="29" fill="#514e52"/><path id="path4149" d="m3100.8 2966.7c-112.92-109.78-279.79-240.65-311.84-116.6-35.82 138.64-23.529 336.58 51.521 500.3 58.466 127.54 176.38 1.1266 258.96-103.04" stroke="#251f26" stroke-width="29" fill="#514e52"/><path id="path4151" fill="#251f26" d="m3069.6 3057.6c-36.397 4.4476-60.136-14.89-77.282-43.386 2.8026 33.252 24.674 68.092 70.503 73.214z"/><path id="path4153" fill="#251f26" d="m3064.2 3164.7c-27.012 1.2514-56.884 25.425-63.046 52.877 19.523-16.332 37.971-31.019 68.469-27.794z"/><path id="path4155" fill="#251f26" d="m3240.4 3068.4c36.202 4.9633 70.37 4.5046 93.552-18.982-3.0804 38.026-61.567 51.951-89.484 48.132z"/><path id="path4157" fill="#251f26" d="m3237.7 3144.3c30.456 1.7575 55.745 23.192 68.469 44.064-20.928-14.809-46.952-21.441-74.57-15.592z"/><path id="path4144" d="m3077.5 3215.5c17.154 68.241 121.76 67.201 141.89 3.8349 25.043-78.838 29.778-147.34 15.339-220.5-12.829-65.002-127.44-66.383-147.64-9.5871-23.516 66.128-32.504 135.09-9.5871 226.26z" stroke="#251f26" stroke-width="29" fill="#514e52"/></g><g transform="translate(1174 -54.97)"><path id="path4475" fill="#f3f7b2" d="m2511.3 1644.5 59.048 184.64c-24.379 242.18 86.651 286.46 197.61 330.84 173.61 51.495 344.97 96.253 508 116 154.26 17.117 308.18 36.228 452 116 137.01-186.12 220.19-419.34 272-680l-260-88c-4.2229-234.39-22.293-468.09-236-692l-204-264c-438.4 91.61-817.4 267.28-1127.9 540.1 80.982 200.59 183.99 363.43 339.34 436.52z"/><path id="path4164" d="m3730.7 1606.8c23.923-259.98-59.197-528.26-248.9-729.73" stroke="#b0ac61" stroke-width="49" fill="none"/><path id="path4166" fill="#aaa658" d="m3530.5 1447.2c119.27 167.92 305.63 251.2 448.19 283.23-47.889 218.61-132.59 433.37-259.4 625.57-119.79-57.108-269.98-90.865-404.21-102.11-153.54-12.864-302.03-56.252-444.96-85.539-92.392-18.932-163.45-50.93-212.73-101.61-49.281-50.675-92.765-133.05-86.995-237.54-44.23 99.517-6.6119 211.56 51.866 271.7 58.478 60.133 139.84 95.328 238.02 115.45 140.07 28.701 290.71 72.961 450.7 86.365 136.23 11.414 291.53 47.947 405.69 106.59l19.295 9.9121 12.176-17.953c142.17-209.62 234.33-445.66 283.73-684.79l5.041-24.4-24.482-4.6289c-135.21-25.572-325.21-106.16-481.94-240.24z"/><path id="path4172" fill="#aaa658" d="m3872 2102c-230.75 80.569-371.07-14.078-434-140 11.474 145.8 200.21 256.94 422 186z"/><path id="path4174" fill="#aaa658" d="m3664.2 1828.6c7.1958 32.316 37.339 45.424 67.757 43.414-46.118 37.59-97.915 11.204-67.757-43.414z"/><path id="path4176" fill="#aaa658" d="m3890.5 1888.2c33.598 4.62 62.908-0.1949 77.782-36.77 9.4281 60.31-44.783 74.572-77.782 36.77z"/></g><g transform="translate(1174 -54.97)"><path id="path4204" clip-path="url(#clipPath4228)" fill="#fff" d="m3468 1452 284 186c-23.737-252.96-7.0548-535.07-250-630-83.247 124.03-94.753 271.97-34 444z"/><path id="path4198" clip-path="url(#clipPath4241)" fill="#fff" d="m3132 1844c199.72-166.15 122.97-362.34 88-554-94.036-238.86-269.12-252.6-458-228-133.76 162.5-100.8 356.27-68 550 119.79 211.66 276.09 236.2 438 232z"/><ellipse id="path4194" style="color:#000000" d="m 3550.7098,1086.6094 c 0,169.1028 -89.3066,306.1878 -199.4718,306.1878 -110.1652,0 -199.4717,-137.085 -199.4717,-306.1878 0,-169.10288 89.3065,-306.18783 199.4717,-306.18783 110.1652,0 199.4718,137.08495 199.4718,306.18783 z" clip-path="url(#clipPath4237)" rx="199.47" ry="306.19" transform="matrix(.98718 .15962 -.15964 .98718 0 0)" cy="1086.6" cx="3351.2" fill="url(#linearGradient4450)"/><ellipse id="path4196" style="color:#000000" d="m 3474.3845,1058.0847 c 0,114.2337 -57.8251,206.8385 -129.156,206.8385 -71.3309,0 -129.1559,-92.6048 -129.1559,-206.8385 0,-114.23372 57.825,-206.83845 129.1559,-206.83845 71.3309,0 129.156,92.60473 129.156,206.83845 z" clip-path="url(#clipPath4233)" rx="129.16" ry="206.84" transform="matrix(.98581 .16785 -.15383 .98810 0 0)" cy="1058.1" cx="3345.2"/><ellipse id="path4200" style="color:#000000" d="m 3409.2273,1934.4712 c 0,118.8507 -37.4579,215.1982 -83.6646,215.1982 -46.2066,0 -83.6645,-96.3475 -83.6645,-215.1982 0,-118.8507 37.4579,-215.1982 83.6645,-215.1982 46.2067,0 83.6646,96.3475 83.6646,215.1982 z" clip-path="url(#clipPath4224)" rx="83.665" ry="215.2" transform="matrix(.99013 -.14013 .14849 .98891 0 0)" cy="1934.5" cx="3325.6" fill="url(#linearGradient4458)"/><ellipse id="path4202" style="color:#000000" d="m 3411.7228,1941.1813 c 0,81.7342 -25.0584,147.9928 -55.9694,147.9928 -30.911,0 -55.9693,-66.2586 -55.9693,-147.9928 0,-81.7342 25.0583,-147.9929 55.9693,-147.9929 30.911,0 55.9694,66.2587 55.9694,147.9929 z" clip-path="url(#clipPath4220)" rx="55.969" ry="147.99" transform="matrix(.99048 -.13765 .13301 .99112 0 0)" cy="1941.2" cx="3355.8"/><ellipse id="path4206" style="color:#000000" d="m 3788.917,597.86621 c 0,35.74933 -18.3966,64.72989 -41.0901,64.72989 -22.6934,0 -41.0901,-28.98056 -41.0901,-64.72989 0,-35.74933 18.3967,-64.72989 41.0901,-64.72989 22.6935,0 41.0901,28.98056 41.0901,64.72989 z" clip-path="url(#clipPath4216)" rx="41.09" ry="64.73" transform="matrix(.97767 .21013 -.20264 .97925 0 0)" cy="597.87" cx="3747.8" fill="#fff"/><ellipse id="path4245" style="color:#000000" d="m 3441.0058,-393.99854 c 0,54.13936 -30.9881,98.02798 -69.2138,98.02798 -38.2257,0 -69.2138,-43.88862 -69.2138,-98.02798 0,-54.13935 30.9881,-98.02797 69.2138,-98.02797 38.2257,0 69.2138,43.88862 69.2138,98.02797 z" rx="69.214" ry="98.028" transform="matrix(.85324 .52151 -.58892 .80819 0 0)" cy="-394" cx="3371.8" fill="#fff"/></g><g opacity=".5" transform="translate(1174 -54.97)" stroke="#f00" display="none" fill="#0f0"><ellipse id="path4179" style="color:#000000" d="m 2333.7545,2680.6594 c 0,195.4868 -110.6418,353.9602 -247.1253,353.9602 -136.4836,0 -247.1254,-158.4734 -247.1254,-353.9602 0,-195.4868 110.6418,-353.9602 247.1254,-353.9602 136.4835,0 247.1253,158.4734 247.1253,353.9602 z" rx="247.13" ry="353.96" transform="matrix(.88621 -.46328 .42280 .90622 0 0)" cy="2680.7" cx="2086.6" display="inline" stroke-width="1.0005"/><path id="path4181" d="m3530.5 1447.2c-53.4-123.6-82.7-369-22.5-389.2 80.953-21.753 219.28 307.04 202 534-59.835-38.088-119.67-85.431-179.5-144.84z" stroke-width="1px"/></g><g transform="translate(1174 -54.97)"><path id="path4248" d="m2924.3 1105.5c-25.768 0.719-51.585 5.0961-76.779 12.717-84.232 25.478-130.95 106.1-144.18 196.13-13.224 90.03 8.1307 178.57 50.111 239.62-16.02-69.951-28.474-152.96-16.47-234.68 12.004-81.723 51.827-147.8 120.38-168.53 72.162-21.827 145.92-14.237 208.27 34.363 62.347 48.6 129.67 136.8 174.08 280.51-20.594-148.29-81.774-251.67-153.18-307.32-49.088-38.265-105.54-54.392-162.23-52.81z"/><path id="path4256" d="m3515.6 1047c-2.3363 0.089-4.6735 0.3377-7.0078 0.7578-10.489 1.8876-19.352 8.2969-25.537 16.43-6.1854 8.1328-10.31 17.992-13.406 29.141-6.1926 22.298-8.1922 50.165-7.8515 80.721 0.6813 61.111 14.266 119.58 39.648 185.53-9.618-68.045-12.001-127.62-12.65-185.84-0.3245-29.107 1.8742-55.21 6.8691-73.195 2.4975-8.9928 5.7148-15.854 8.8829-20.02 3.168-4.1655 5.671-5.6334 8.8261-6.2012 8.6131-1.55 19.462 1.5757 32.91 12.455s28.495 29.148 43.383 53.977c29.776 49.656 73.904 146.42 98.817 228.34-13.087-86.073-43.717-188.96-75.661-242.23-15.972-26.636-32.413-47.212-49.559-61.082-15.002-12.136-31.31-19.418-47.664-18.797z"/><path id="path4166-9" fill="#aaa658" d="m3530.5 1447.2c119.27 167.92 305.63 251.2 448.19 283.23l53.191-13.953 5.041-24.4-24.482-4.6289c-135.21-25.572-325.21-106.16-481.94-240.24z"/></g><g transform="translate(1174 -54.97)"><path id="path4305-2" d="m2288 1248c-173.33 88.921-426.67 168.3-636 216l-68-80c647-611.45 1615.1-971.15 2328-992l40 92c-136.22 145-310.7 236.61-488 320" stroke="#928a37" stroke-width="49" fill="#b1a037"/><path id="path4427" d="m2511.3 1644.5c-151.5-86.4-280.1-195.8-315.3-398.5l304-208 142 472z" fill="#f3f7b2"/><path id="path4292" fill="#aaa658" d="m2199.4 1120.8-48.777 4.6563c24.14 252.93 183.61 470.4 360.67 519.04-136.94-103.37-289.59-289.98-311.89-523.69z"/><path id="path4298" fill="#aaa658" d="m2364.6 1019.9c6.2831 132.28 38.162 313.8 125.86 394.57-123.8-58.201-168.45-258.11-125.86-394.57z"/></g><g transform="translate(1174 -54.97)"><path id="path4393" fill="#c22339" d="m2466.4 1052.4c-51.588 85.683-59.342 159.09 76.368 192.33 115.99 33.982 205.36 14.742 246.07-101.82 43.621-97.008 111.06-113.03 192.33-82.024 197.51 48.285 454.67-175.13 181.02-302.64-246.65 58.803-471.23 176.45-695.79 294.16z"/><path id="path4302" fill="#fff" d="m3286 896c-132.6-101.04-267.68-40.26-336 30-52.724 54.218-104.65 99.983-157.86 122.33-115.68 48.574-215.05 16.26-184.14-70.325l452-200c100.71-5.4017 216.74 18.224 226 118z"/><path id="path4300" d="m3044 783.81c147.71-23.052 322.4 46.872 197.76 196.27-50.914 61.03-143.36 92.35-283.19 75.196-131.57-16.141-153.76 56.008-186.68 115.97-53.816 98.036-159.37 94.332-261.04 63.397-137.95-41.971-72.986-170.31 31.941-235.93" stroke="#7a121c" stroke-width="49" fill="none"/></g><g transform="translate(1174 -54.97)"><path id="path4383" fill="#b1a037" d="m3484 804c174.17-87.915 358.34-166.82 460-320-440.34-2.5687-822.68 130.2-1196 284-410.3 179.4-792.9 384.8-1076 684 163.7-27.861 203.61-48.891 360-106l20.994-92.071 119.45 13.878c318.7-300.79 868.1-503.41 1263.6-519.8z"/><path id="path4315" d="m2067.6 1010-192.4-424.24c247.5-233.06 694.5-481.59 1139.9-506.29l186.68 427.09" stroke="#928a37" stroke-width="49" fill="#f0eb7a"/><path id="path4315-7" d="m2067.6 1010-192.4-424.24c247.5-233.06 694.5-481.59 1139.9-506.29l186.68 427.09" clip-path="url(#clipPath4377)" stroke="#284a9c" stroke-width="49" fill="#5977d1"/><path id="path4381" fill="#f0eb7a" d="m3911.7 387.77 36.77 98.995c-379.3 3.24-771.1 82.15-1182.3 277.19-436.5 175.66-822.7 398.05-1110.2 712.05l-68-92c303.3-296 700.4-515.19 1120-716 374-134.21 746.5-270.73 1203.7-280.23z"/><path id="path4305" d="m2061.6 1344.4c-133.8 48.5-280.1 90.1-409.6 119.6l-68-80c647-611.45 1615.1-971.15 2328-992l40 92c-136.22 145-310.7 236.61-488 320" stroke="#928a37" stroke-width="49" fill="none"/><path id="path4307" d="m3952 484c-587.1-17.58-1711.7 377.64-2300 980" stroke="#928a37" stroke-width="49" fill="none"/><path id="path4309" fill="#928a37" d="m3459.6 723.5c-301.75 5.1886-613.3 104.05-892.35 253.21-127.55 68.177-344.87 214.43-399.79 295.1 76.6-56.512 299.91-186.22 426.19-253.37 272.77-145.06 576.39-240.94 866.79-245.94z"/><path id="path4319" fill="#928a37" d="m2882.2 242.1c-35.024 11.645-81.668 73.896-39.598 100.41-4.4724-33.47 14.384-74.011 39.598-100.41z"/><path id="path4321" fill="#928a37" d="m2766.2 329.79c-0.8582-52.177 19.717-86.493 41.012-120.21-37.817 13.199-72.226 80.139-41.012 120.21z"/><path id="path4323" fill="#928a37" d="m2183.5 621.11c13.075-41.697 31.779-82.268 63.64-120.21-51.616 31.962-68.524 73.179-63.64 120.21z"/><path id="path4325" fill="#928a37" d="m2067.6 697.48c9.4838-62.835 35.908-120.02 67.882-175.36-43.997 10.371-92.265 116.91-67.882 175.36z"/><path id="path4327" fill="#928a37" d="m1994 691.82c-4.7552-27.813-3.6091-55.626 14.142-83.439-29.428 10.842-43.399 55.626-14.142 83.439z"/></g><g transform="translate(1174 -54.97)"><path id="path4425" fill="#f3f7b2" d="m3266.8 964.77 76.368 173.95 89.095 2.8284l375.7-769.5c16.054-99.354-14.739-107.94-84-42l-450 496z"/><path id="path4278" fill="#aaa658" d="m3799 260.29c-12.572-0.81727-25.607 3.3268-37.391 9.5234-18.854 9.9147-38.508 26.447-60.385 50.6l-500.63 552.71 36.316 32.895 500.63-552.71c19.358-21.372 36.005-34.41 46.873-40.125 3.5778-1.8815 5.7779-2.672 7.4277-3.168 0.1727 1.6781 0.2833 3.9372-0.094 7.75-1.1438 11.567-6.6843 30.36-17.978 53.527l-369.45 757.84c-29.783 0.067-53.713 6.409-80.279 11.646 30.002 10.894 65.41 18.846 101.65 18.2 8.9445-0.1602 17.591-5.6482 21.543-13.674l370.49-752.36c13.164-26.731 20.755-49.859 22.781-70.352 2.0263-20.492-1.5062-42.327-19.75-54.838-6.8415-4.6914-14.218-6.9686-21.762-7.459z"/><path id="path4284" d="m3541.2 533.43c9.6678 66.769 28.571 129.58 90.51 173.95" stroke="#aaa658" stroke-width="29" fill="none"/><path id="path4286" d="m3520 940.73c-75.1-50.99-121.8-131.85-118.8-247.49" stroke="#aaa658" stroke-width="29" fill="none"/><path id="path4288" d="m3457.8 1056.7c-80.3-14.2-159.5-117.53-181.1-230.52" stroke="#aaa658" stroke-width="29" fill="none"/><path id="path4391" fill="#c22339" d="m3244.2 833.25-63.64 36.77 82.024 79.196c9.7306-38.655 23.515-77.31-18.385-115.97z"/><path id="path4302-5" fill="#fff" d="m3286 896c-37.171-28.325-74.538-43.933-110.57-50.181 28.996-4.6327 57.993-10.945 86.99-9.3407 12.922 15.859 21.352 35.479 23.584 59.521z"/><path id="path4300-5" fill="#7a121c" d="m3230.7 837.21c18.944 13.539 28.165 28.054 28.971 46.979 0.8055 18.924-8.0333 45.734-36.787 80.201l37.625 31.391c33.565-40.234 49.63-78.19 48.119-113.68-1.5103-35.486-21.823-65.024-49.436-84.76z"/></g></svg>