<?xml version="1.0" encoding="UTF-8" standalone="no"?>
<!-- Created with Inkscape (http://www.inkscape.org/) -->

<svg
   xmlns:dc="http://purl.org/dc/elements/1.1/"
   xmlns:cc="http://creativecommons.org/ns#"
   xmlns:rdf="http://www.w3.org/1999/02/22-rdf-syntax-ns#"
   xmlns:svg="http://www.w3.org/2000/svg"
   xmlns="http://www.w3.org/2000/svg"
   xmlns:xlink="http://www.w3.org/1999/xlink"
   xmlns:sodipodi="http://sodipodi.sourceforge.net/DTD/sodipodi-0.dtd"
   xmlns:inkscape="http://www.inkscape.org/namespaces/inkscape"
   width="6427.0356"
   height="6427.0293"
   id="svg2"
   version="1.1"
   inkscape:version="0.48.4 r9939"
   viewBox="0 0 6427.0356 6427.0294"
   sodipodi:docname="Flim.svg">
  <title
     id="title4096">Flim</title>
  <defs
     id="defs4">
    <linearGradient
       id="linearGradient4444">
      <stop
         style="stop-color:#c0ff95;stop-opacity:1;"
         offset="0"
         id="stop4446" />
      <stop
         style="stop-color:#8bc05a;stop-opacity:1;"
         offset="1"
         id="stop4448" />
    </linearGradient>
    <clipPath
       clipPathUnits="userSpaceOnUse"
       id="clipPath4107">
      <path
         style="fill:#00ff00;fill-opacity:1;stroke:#ff0000;stroke-width:1px;stroke-linecap:butt;stroke-linejoin:miter;stroke-opacity:1"
         d="M 488.57144,293.85716 C 476.44088,160.22119 343.21966,48.363672 218.57142,30.999999 139.3716,19.967354 74.698645,33.445104 27.142847,99.57143 c 54.468684,15.64128 89.383733,50.32142 112.857143,114.28572 52.59757,143.32676 246.8705,207.5587 338.57145,108.57144 z"
         id="path4109"
         inkscape:connector-curvature="0"
         sodipodi:nodetypes="cscscc" />
    </clipPath>
    <clipPath
       clipPathUnits="userSpaceOnUse"
       id="clipPath4216">
      <path
         style="opacity:0.5;fill:#00ff00;fill-opacity:1;stroke:#ff0000;stroke-width:1.00001466px;stroke-linecap:butt;stroke-linejoin:miter;stroke-opacity:1"
         d="m 3750.6091,672.99742 c -77.3026,-109.63496 -155.7898,-343.32506 -100.8894,-375.7525 74.8676,-38.27951 276.954,254.11373 306.0263,479.645 -66.3134,-24.66467 -134.5023,-58.37854 -205.1369,-103.8925 z"
         id="path4218"
         inkscape:connector-curvature="0"
         sodipodi:nodetypes="cccc" />
    </clipPath>
    <clipPath
       clipPathUnits="userSpaceOnUse"
       id="clipPath4220">
      <path
         style="opacity:0.5;fill:#00ff00;fill-opacity:1;stroke:#ff0000;stroke-width:1px;stroke-linecap:butt;stroke-linejoin:miter;stroke-opacity:1"
         d="m 3306.6804,1919.3898 c -36.4466,-129.7743 -32.9347,-376.8205 29.4655,-388.5535 83.1279,-10.4028 176.4928,334.304 129.1805,556.7289 -54.2378,-45.9619 -107.2446,-101.0915 -158.646,-168.1754 z"
         id="path4222"
         inkscape:connector-curvature="0"
         sodipodi:nodetypes="cccc" />
    </clipPath>
    <clipPath
       clipPathUnits="userSpaceOnUse"
       id="clipPath4224">
      <path
         style="opacity:0.5;fill:#00ff00;fill-opacity:1;stroke:#ff0000;stroke-width:1.00001788px;stroke-linecap:butt;stroke-linejoin:miter;stroke-opacity:1"
         d="m 3276.5821,1927.6892 c -34.4161,-129.8669 -27.0407,-376.9067 35.5415,-388.4835 83.2886,-10.1947 171.2603,334.7492 120.4705,557.0578 -53.5177,-46.0982 -105.661,-101.361 -156.012,-168.5743 z"
         id="path4226"
         inkscape:connector-curvature="0"
         sodipodi:nodetypes="cccc" />
    </clipPath>
    <clipPath
       clipPathUnits="userSpaceOnUse"
       id="clipPath4228">
      <path
         style="opacity:0.5;fill:#00ff00;fill-opacity:1;stroke:#ff0000;stroke-width:1px;stroke-linecap:butt;stroke-linejoin:miter;stroke-opacity:1"
         d="M 3530.4956,1447.1572 C 3477.135,1323.553 3447.7544,1078.2184 3508,1058 c 80.9529,-21.7533 219.2777,307.0387 202,534.0001 -59.8348,-38.0875 -119.6696,-85.4306 -179.5044,-144.8429 z"
         id="path4230"
         inkscape:connector-curvature="0"
         sodipodi:nodetypes="cccc" />
    </clipPath>
    <clipPath
       clipPathUnits="userSpaceOnUse"
       id="clipPath4233">
      <path
         style="opacity:0.5;color:#000000;fill:#00ff00;fill-opacity:1;fill-rule:nonzero;stroke:#ff0000;stroke-width:1.00005043;stroke-miterlimit:4;stroke-opacity:1;marker:none;visibility:visible;display:inline;overflow:visible;enable-background:accumulate"
         d="m 3371.1897,791.63729 a 352.0816,248.21568 58.713507 0 1 -1.5691,440.76581 352.0816,248.21568 58.713507 0 1 -396.0433,-141.4841 352.0816,248.21568 58.713507 0 1 1.5692,-440.76579 352.0816,248.21568 58.713507 0 1 396.0432,141.48408 z"
         id="path4235"
         inkscape:connector-curvature="0" />
    </clipPath>
    <clipPath
       clipPathUnits="userSpaceOnUse"
       id="clipPath4237">
      <path
         style="opacity:0.5;color:#000000;fill:#00ff00;fill-opacity:1;fill-rule:nonzero;stroke:#ff0000;stroke-width:0.99999994;stroke-miterlimit:4;stroke-opacity:1;marker:none;visibility:visible;display:inline;overflow:visible;enable-background:accumulate"
         d="m 3375.7266,819.76968 a 354.3049,246.6332 58.244651 0 1 1.0221,440.74512 354.3049,246.6332 58.244651 0 1 -396.8612,-144.7882 354.3049,246.6332 58.244651 0 1 -1.0221,-440.74513 354.3049,246.6332 58.244651 0 1 396.8612,144.78821 z"
         id="path4239"
         inkscape:connector-curvature="0" />
    </clipPath>
    <clipPath
       clipPathUnits="userSpaceOnUse"
       id="clipPath4241">
      <path
         style="opacity:0.5;color:#000000;fill:#00ff00;fill-opacity:1;fill-rule:nonzero;stroke:#ff0000;stroke-width:0.99999994;stroke-miterlimit:4;stroke-opacity:1;marker:none;visibility:visible;display:inline;overflow:visible;enable-background:accumulate"
         d="m 3201.5808,1348.0818 a 354.3018,246.63536 67.430626 0 1 -69.3501,435.256 354.3018,246.63536 67.430626 0 1 -368.6596,-206.2773 354.3018,246.63536 67.430626 0 1 69.3502,-435.2562 354.3018,246.63536 67.430626 0 1 368.6595,206.2775 z"
         id="path4243"
         inkscape:connector-curvature="0" />
    </clipPath>
    <clipPath
       clipPathUnits="userSpaceOnUse"
       id="clipPath4377">
      <path
         style="fill:#00ff00;fill-opacity:1;stroke:#ff0000;stroke-width:1px;stroke-linecap:butt;stroke-linejoin:miter;stroke-opacity:1"
         d="m 3194,326.00001 c -445.2836,58.70232 -875.1425,216.5635 -1267.8411,613.31227 l 132.936,166.87722 1227.5374,-574.17072 z"
         id="path4379"
         inkscape:connector-curvature="0"
         sodipodi:nodetypes="ccccc" />
    </clipPath>
    <linearGradient
       inkscape:collect="always"
       xlink:href="#linearGradient4444"
       id="linearGradient4450"
       x1="3298.5051"
       y1="1272.2437"
       x2="3318.6677"
       y2="900.25354"
       gradientUnits="userSpaceOnUse" />
    <linearGradient
       inkscape:collect="always"
       xlink:href="#linearGradient4444"
       id="linearGradient4458"
       x1="3360.9175"
       y1="2028.4352"
       x2="3327.9839"
       y2="1801.8712"
       gradientUnits="userSpaceOnUse" />
  </defs>
  <sodipodi:namedview
     id="base"
     pagecolor="#ffffff"
     bordercolor="#666666"
     borderopacity="1.0"
     inkscape:pageopacity="0.0"
     inkscape:pageshadow="2"
     inkscape:zoom="0.088388348"
     inkscape:cx="3018.3389"
     inkscape:cy="2941.3219"
     inkscape:document-units="px"
     inkscape:current-layer="layer5"
     showgrid="false"
     fit-margin-top="0"
     fit-margin-left="1216.14"
     fit-margin-right="1216.14"
     fit-margin-bottom="0"
     inkscape:snap-global="false"
     inkscape:window-width="1920"
     inkscape:window-height="1028"
     inkscape:window-x="1272"
     inkscape:window-y="217"
     inkscape:window-maximized="1"
     inkscape:object-nodes="true"
     inkscape:object-paths="true" />
  <metadata
     id="metadata7">
    <rdf:RDF>
      <cc:Work
         rdf:about="">
        <dc:format>image/svg+xml</dc:format>
        <dc:type
           rdf:resource="http://purl.org/dc/dcmitype/StillImage" />
        <dc:title>Flim</dc:title>
      </cc:Work>
    </rdf:RDF>
  </metadata>
  <g
     inkscape:groupmode="layer"
     id="layer19"
     inkscape:label="Background"
     sodipodi:insensitive="true"
     style="display:none"
     transform="translate(1173.9796,-54.97043)">
    <rect
       style="color:#000000;fill:#000000;fill-opacity:1;fill-rule:nonzero;stroke:#00ff00;stroke-width:1;stroke-linecap:butt;stroke-linejoin:miter;stroke-miterlimit:4;stroke-opacity:1;stroke-dasharray:none;stroke-dashoffset:0;marker:none;visibility:visible;display:inline;overflow:visible;enable-background:accumulate"
       id="rect4499"
       width="4208"
       height="6624"
       x="-48.000031"
       y="-59.999989" />
  </g>
  <g
     inkscape:groupmode="layer"
     id="layer2"
     inkscape:label="Shadow"
     style="opacity:0.2;display:none"
     sodipodi:insensitive="true"
     transform="translate(1173.9796,-54.97043)">
    <ellipse
       style="color:#000000;fill:#000000;fill-opacity:1;fill-rule:nonzero;stroke:none;stroke-width:1px;marker:none;visibility:visible;display:inline;overflow:visible;enable-background:accumulate"
       id="path4074"
       cx="2157.1428"
       cy="6308.5718"
       rx="1494.2858"
       ry="282.85715"
       sodipodi:cx="2157.1428"
       sodipodi:cy="6308.5718"
       sodipodi:rx="1494.2858"
       sodipodi:ry="282.85715"
       d="m 3651.4286,6308.5718 c 0,156.2177 -669.0145,282.8571 -1494.2858,282.8571 -825.2712,0 -1494.28574,-126.6394 -1494.28574,-282.8571 0,-156.2177 669.01454,-282.8572 1494.28574,-282.8572 825.2713,0 1494.2858,126.6395 1494.2858,282.8572 z" />
  </g>
  <g
     inkscape:groupmode="layer"
     id="layer3"
     inkscape:label="Rear Legs"
     style="display:inline"
     sodipodi:insensitive="true"
     transform="translate(1173.9796,-54.97043)">
    <path
       style="fill:#d5d898;fill-opacity:1;stroke:#aaa658;stroke-width:49;stroke-linecap:butt;stroke-linejoin:miter;stroke-miterlimit:4;stroke-opacity:1;stroke-dasharray:none"
       d="m 3057.1429,3740.0001 c -44.5873,780.641 -22.9108,1563.5439 234.2857,2342.8571 40.0466,121.3423 26.5025,172.2699 -117.1429,185.7143 -128.202,11.999 -259.4965,12.8264 -380,-11.4285 -92.6335,-18.6453 -143.7921,-73.5415 -154.2857,-162.8572 -69.9692,-595.5359 -18.1138,-1609.386 114.2857,-2342.8571"
       id="path4079"
       inkscape:connector-curvature="0"
       sodipodi:nodetypes="cssssc" />
    <path
       style="fill:#d5d898;fill-opacity:1;stroke:#aaa658;stroke-width:49;stroke-linecap:butt;stroke-linejoin:miter;stroke-miterlimit:4;stroke-opacity:1;stroke-dasharray:none"
       d="m 2034.2857,3705.7144 c -294.2289,787.9407 -242.4613,1559.0828 -163.3474,2314.9789 10.8357,103.5302 30.6896,194.9422 -122.3669,210.7354 -121.1379,12.4997 -263.7187,22.193 -376.8557,-13.1023 -77.8158,-24.2762 -132.4311,-58.5297 -120.2872,-169.7549 88.6916,-812.3213 152.8457,-1626.6279 365.7144,-2428.5714"
       id="path4083"
       inkscape:connector-curvature="0"
       sodipodi:nodetypes="cssssc" />
    <path
       style="font-style:normal;font-variant:normal;font-weight:normal;font-stretch:normal;text-indent:0;text-align:start;text-decoration:none;line-height:normal;letter-spacing:normal;word-spacing:normal;text-transform:none;direction:ltr;block-progression:tb;writing-mode:lr-tb;text-anchor:start;baseline-shift:baseline;color:#000000;fill:#aaa658;fill-opacity:1;stroke:none;stroke-width:49;marker:none;visibility:visible;display:inline;overflow:visible;enable-background:accumulate;font-family:sans-serif;-inkscape-font-specification:sans-serif"
       d="m 1570.0969,3935.5227 -48.9961,0.627 c 2.0508,160.6549 51.9487,321.8451 112.3804,400.9836 -32.9969,-93.4329 -61.5003,-254.016 -63.3843,-401.6106 z"
       id="path4085"
       inkscape:connector-curvature="0"
       sodipodi:nodetypes="cccc" />
  </g>
  <g
     inkscape:groupmode="layer"
     id="layer4"
     inkscape:label="Rear Shirt"
     style="display:inline"
     sodipodi:insensitive="true"
     transform="translate(1173.9796,-54.97043)">
    <path
       style="fill:#f8feff;fill-opacity:1;stroke:#c4cae6;stroke-width:29;stroke-linecap:butt;stroke-linejoin:miter;stroke-miterlimit:4;stroke-opacity:1;stroke-dasharray:none"
       d="m 3080,4124.2858 c -10.1787,57.1429 -5.9327,118.5714 14.2857,175.7143 -167.1766,52.6211 -370.2974,36.4892 -528.5714,-5.7143 l 8.5714,-198.5714"
       id="path4094"
       inkscape:connector-curvature="0"
       sodipodi:nodetypes="cccc" />
    <path
       style="fill:#f8feff;fill-opacity:1;stroke:#c4cae6;stroke-width:29;stroke-linecap:butt;stroke-linejoin:miter;stroke-miterlimit:4;stroke-opacity:1;stroke-dasharray:none"
       d="m 3093.0871,3782.6898 c -1.4374,72.344 -4.9305,144.2121 30.3046,204.0508 28.9569,49.1765 26.5141,99.6729 -40.4061,135.3604 -177.7869,3.0749 -361.6347,6.3286 -529.32,-28.2843 l -2.0203,-321.2285 z"
       id="path4092"
       inkscape:connector-curvature="0"
       sodipodi:nodetypes="cscccc" />
  </g>
  <g
     inkscape:groupmode="layer"
     id="layer5"
     inkscape:label="Rear Mane"
     style="display:inline"
     sodipodi:insensitive="true"
     transform="translate(1173.9796,-54.97043)">
    <path
       style="fill:#c22339;fill-opacity:1;stroke:none;display:inline"
       d="m 2305.7143,1297.1429 c -129.5713,58.7103 -233.8707,576.3472 14.2857,625.7142 98.6928,19.6335 36.2081,54.6102 2.8571,77.1429 -103.8987,70.1964 -44.3802,165.5066 40.1437,183.2038 89.1045,18.6563 58.1393,99.6769 -1.0918,109.6753 -53.8961,9.0979 -127.2914,-28.2891 -159.0519,-70.022 -65.3357,261.9067 192.7213,470.4385 411.4286,174.2857 l -0.819,-713.9542 z"
       id="path4099-4"
       inkscape:connector-curvature="0"
       sodipodi:nodetypes="csssscc" />
    <path
       style="fill:#c22339;fill-opacity:1;stroke:none"
       d="m 3562,1092 c 103.9556,-48.9688 252.2456,-62.4702 258,-189.99999 -59.0278,-109.70801 -140.3187,-119.23232 -220,-136 C 3459.6925,851.75678 3496.9518,969.38452 3562,1092 z"
       id="path4389"
       inkscape:connector-curvature="0"
       sodipodi:nodetypes="cccc" />
    <path
       style="fill:#ffffff;stroke:none"
       d="m 3568.3171,738.15536 c 110.975,32.91168 212.5064,74.54053 255.0168,170.65031 -13.0872,111.67483 -155.1187,135.12463 -262.6865,182.15483 l 1.5841,-72.8685 c 198.5776,-64.55125 177.3006,-144.98521 4.1729,-191.95276 z"
       id="path4161"
       inkscape:connector-curvature="0"
       sodipodi:nodetypes="cccccc" />
    <path
       style="fill:#ffffff;stroke:none"
       d="m 2547.6047,2168.4659 c -88.69,136.8859 -175.739,286.08 -274.7615,345.4722 165.427,91.2978 246.1867,-23.0251 339.4113,-107.0762 z"
       id="path4118"
       inkscape:connector-curvature="0"
       sodipodi:nodetypes="cccc" />
    <path
       style="fill:#ffffff;stroke:none"
       d="m 2480.9347,1681.5724 c -67.3435,80.2974 -134.6871,160.5396 -202.0306,230.3147 98.4203,15.6501 117.0714,41.5929 48.4874,78.7919 -63.2674,62.3289 -77.7878,122.8523 4.0406,179.8072 73.1971,-87.1969 125.6548,-189.9484 177.7868,-292.9442 z"
       id="path4116"
       inkscape:connector-curvature="0"
       sodipodi:nodetypes="cccccc" />
    <path
       style="fill:none;stroke:#7a121c;stroke-width:49;stroke-linecap:butt;stroke-linejoin:miter;stroke-miterlimit:4;stroke-opacity:1;stroke-dasharray:none"
       d="m 2305.7143,1297.1429 c -129.5713,58.7103 -233.8707,576.3472 14.2857,625.7142 98.6928,19.6335 36.2081,54.6102 2.8571,77.1429 -103.8987,70.1964 -44.3802,165.5066 40.1437,183.2038 89.1045,18.6563 58.1393,99.6769 -1.0918,109.6753 -53.8961,9.0979 -127.2914,-28.2891 -159.0519,-70.022 -65.3357,261.9067 192.7213,470.4385 411.4286,174.2857"
       id="path4099"
       inkscape:connector-curvature="0"
       sodipodi:nodetypes="csssscc" />
    <path
       style="fill:none;stroke:#7a121c;stroke-width:49;stroke-linecap:butt;stroke-linejoin:miter;stroke-miterlimit:4;stroke-opacity:1;stroke-dasharray:none"
       d="m 3571.2302,1084.8545 c 401.8291,-125.01134 257.6861,-256.42053 -5.4233,-347.08994"
       id="path4159"
       inkscape:connector-curvature="0"
       sodipodi:nodetypes="cc" />
  </g>
  <g
     inkscape:groupmode="layer"
     id="layer6"
     inkscape:label="Tail"
     style="display:inline"
     sodipodi:insensitive="true"
     transform="translate(1173.9796,-54.97043)">
    <path
       style="fill:#c22339;fill-opacity:1;stroke:none;display:inline"
       d="m 1359.5218,2836.3501 c 18.6469,-234.1556 -96.4526,-502.1905 -288.7601,-591.1126 -192.30746,-88.9221 -535.55376,-78.6146 -762.00168,140.2378 -126.59105,122.345 -180.9867,291.3423 -110.77015,510.3004 17.91869,55.8763 26.60324,112.0548 -44.44671,127.2792 -117.470086,25.1713 -96.860421,135.3188 -48.48733,216.1727 65.21983,109.0126 172.31653,204.7553 238.39601,319.2083 49.47313,85.69 -7.0145,271.2206 -189.90868,290.9239 124.75429,106.5661 277.4955,91.1443 404.06103,-8.0812 -19.38328,117.7327 -107.3878,215.553 -262.63968,270.7209 318.77045,192.6225 751.35549,-104.5211 624.2743,-618.2134 -48.27065,-195.1214 -87.14438,-404.0355 -18.18275,-602.051 65.20207,-187.2203 315.72474,-136.9575 379.81734,36.3655 z"
       id="path4121-6"
       inkscape:connector-curvature="0"
       sodipodi:nodetypes="czssssscccsscc" />
    <path
       style="fill:#ffffff;stroke:none"
       d="m 1333.4014,2837.1868 c -15.4366,-212.7482 -122.3311,-399.8979 -315.1676,-468.7107 -208.43854,-74.3803 -395.14432,-5.9696 -525.27938,131.3198 -127.83844,134.8665 -181.37947,306.8963 -105.05587,583.8682 81.4925,295.7294 154.38944,604.4899 -44.44671,842.4673 l 214.15234,-82.8325 c -30.26405,131.3117 -131.88797,211.0857 -258.59906,272.7412 54.38564,51.2508 114.18595,56.6401 189.90869,54.5482 C 688.62036,3973.59 782.25606,3714.627 690.94432,3435.1973 609.48574,3185.92 630.08409,2825.2907 739.99998,2671.4286 881.88041,2472.822 1314.0459,2533.0968 1281.3271,2884.8774 z"
       id="path4123"
       inkscape:connector-curvature="0"
       sodipodi:nodetypes="csssccccsscc" />
    <path
       style="fill:none;stroke:#7a121c;stroke-width:49;stroke-linecap:butt;stroke-linejoin:miter;stroke-miterlimit:4;stroke-opacity:1;stroke-dasharray:none"
       d="m 1359.5218,2836.3501 c 18.6469,-234.1556 -96.4526,-502.1905 -288.7601,-591.1126 -192.30747,-88.9221 -535.55377,-78.6146 -762.00168,140.2378 -126.59105,122.345 -180.9867,291.3423 -110.77015,510.3004 17.91869,55.8763 26.60324,112.0548 -44.44671,127.2792 -117.470086,25.1713 -96.860422,135.3188 -48.48733,216.1727 65.21983,109.0126 172.31653,204.7553 238.39601,319.2083 49.47313,85.69 -7.0145,271.2206 -189.90868,290.9239 124.75429,106.5661 277.4955,91.1443 404.06102,-8.0812 -19.38328,117.7327 -107.38779,215.553 -262.63967,270.7209 318.77044,192.6225 751.35549,-104.5211 624.27429,-618.2134 -48.27065,-195.1214 -87.14438,-404.0355 -18.18275,-602.051 65.20207,-187.2203 315.72475,-136.9575 379.81735,36.3655 z"
       id="path4121"
       inkscape:connector-curvature="0"
       sodipodi:nodetypes="czssssscccsscc" />
  </g>
  <g
     inkscape:groupmode="layer"
     id="layer7"
     inkscape:label="Body + Forward Legs"
     style="display:inline"
     sodipodi:insensitive="true"
     transform="translate(1173.9796,-54.97043)">
    <path
       style="fill:#f3f7b2;fill-opacity:1;stroke:none"
       d="m 1578.2623,4339.0818 c -134.0035,664.6515 -88.1119,1270.613 -33.9411,1872.4187 25.5464,86.9548 24.4212,162.2408 -118.7939,175.3625 -118.7939,11.3116 -237.5879,14.027 -356.3818,-16.9705 -72.56819,-23.2413 -146.36445,-45.408 -135.76457,-141.4214 39.24277,-646.767 113.08187,-1293.534 237.58787,-1940.301 z"
       id="path4496"
       inkscape:connector-curvature="0"
       sodipodi:nodetypes="ccccccc" />
    <path
       style="fill:#f3f7b2;fill-opacity:1;stroke:none"
       d="m 2375.8788,1476.7134 c 82.4631,444.8379 199.3522,901.151 197.9899,1318.0471 l -984.2927,-56.5686 c -275.8548,-11.0364 -316.1024,110.4563 -356.3818,231.9311 -98.8206,335.7563 -24.0335,787.251 101.8234,1272.7923 -113.1371,-52.7973 -173.4768,-15.085 -181.0193,113.137 l 407.2935,73.5391 c 25.0936,-148.3832 61.7506,-285.2031 101.8233,-418.6072 316.7839,59.905 633.5677,58.6198 950.3516,28.2843 498.8562,-26.7986 705.1307,-326.6735 752.3616,-774.989 22.772,-361.0598 -71.0227,-802.1729 -79.196,-1120.0573 z"
       id="path4494"
       inkscape:connector-curvature="0"
       sodipodi:nodetypes="cccccccccccc" />
    <path
       style="fill:#f3f7b2;fill-opacity:1;stroke:none"
       d="m 2282.9448,3873.6035 c -193.9025,750.49 -214.4607,1672.2095 -153.5432,2379.9195 11.9223,138.5071 53.9824,156.1361 115.1573,171.7259 150.2006,38.277 302.977,40.9468 454.5687,16.1624 130.7584,-21.3782 93.7608,-129.2089 68.6904,-224.2538 C 2585.7529,5526.9258 2510.0985,4644.0131 2577.9093,3857.441"
       id="path4146-1"
       inkscape:connector-curvature="0"
       sodipodi:nodetypes="cssssc" />
    <path
       style="font-style:normal;font-variant:normal;font-weight:normal;font-stretch:normal;text-indent:0;text-align:start;text-decoration:none;line-height:normal;letter-spacing:normal;word-spacing:normal;text-transform:none;direction:ltr;block-progression:tb;writing-mode:lr-tb;text-anchor:start;baseline-shift:baseline;color:#000000;fill:#aaa658;fill-opacity:1;stroke:none;stroke-width:49;marker:none;visibility:visible;display:inline;overflow:visible;enable-background:accumulate;font-family:sans-serif;-inkscape-font-specification:sans-serif"
       d="m 2400.0371,1441.123 -48.3183,8.1465 c 62.6094,371.3905 157.3315,740.7489 186.1621,1107.875 11.8885,151.3864 24.7389,312.4698 16.9732,460.8178 40.7216,-150.6572 43.9517,-310.8889 31.8764,-464.6537 -29.2835,-372.8939 -124.5494,-743.5561 -186.6934,-1112.1856 z"
       id="path4126"
       inkscape:connector-curvature="0"
       sodipodi:nodetypes="ccscsc" />
    <path
       style="fill:none;stroke:#aaa658;stroke-width:49;stroke-linecap:butt;stroke-linejoin:miter;stroke-miterlimit:4;stroke-opacity:1;stroke-dasharray:none"
       d="m 3272.8942,2124.0192 c 11.5743,205.6998 66.7873,566.4093 101.0153,848.5281 43.3366,357.1954 -98.0254,963.2856 -618.2134,1038.437 -357.7752,51.6876 -720.4467,74.9494 -1088.9444,-2.0204"
       id="path4132"
       inkscape:connector-curvature="0"
       sodipodi:nodetypes="cssc" />
    <path
       style="font-style:normal;font-variant:normal;font-weight:normal;font-stretch:normal;text-indent:0;text-align:start;text-decoration:none;line-height:normal;letter-spacing:normal;word-spacing:normal;text-transform:none;direction:ltr;block-progression:tb;writing-mode:lr-tb;text-anchor:start;baseline-shift:baseline;color:#000000;fill:#aaa658;fill-opacity:1;stroke:none;stroke-width:49;marker:none;visibility:visible;display:inline;overflow:visible;enable-background:accumulate;font-family:sans-serif;-inkscape-font-specification:sans-serif"
       d="m 1527.5566,2717.7324 c -113.8776,-0.9539 -190.4411,26.3636 -240.0371,81.7422 -49.5959,55.3786 -70.4868,133.2403 -87.3476,229.4531 -76.7566,437.9965 48.4182,1037.5902 169.3057,1305.8241 -64.8267,-286.0518 -195.3715,-873.2093 -121.0401,-1297.367 16.4047,-93.61 36.9948,-162.1322 75.584,-205.2207 38.5892,-43.0886 96.9154,-66.3213 203.123,-65.4317 354.687,2.9709 704.3565,22.828 1044.5996,52.4356 l 4.2481,-48.8145 c -341.2464,-29.6948 -692.1897,-49.6371 -1048.4356,-52.6211 z"
       id="path4134"
       inkscape:connector-curvature="0"
       sodipodi:nodetypes="ssscsssccs" />
    <path
       style="font-style:normal;font-variant:normal;font-weight:normal;font-stretch:normal;text-indent:0;text-align:start;text-decoration:none;line-height:normal;letter-spacing:normal;word-spacing:normal;text-transform:none;direction:ltr;block-progression:tb;writing-mode:lr-tb;text-anchor:start;baseline-shift:baseline;color:#000000;fill:#aaa658;fill-opacity:1;stroke:none;stroke-width:49;marker:none;visibility:visible;display:inline;overflow:visible;enable-background:accumulate;font-family:sans-serif;-inkscape-font-specification:sans-serif"
       d="m 1581.2441,4211.6582 c -189.6078,734.9288 -98.9152,1647.8773 -58.0371,2012.2715 4.6429,41.3871 6.5263,76.0807 -1.5058,96.1992 -4.0161,10.0593 -9.4622,17.1438 -20.2598,23.707 -10.7976,6.5632 -27.7266,12.168 -53.1894,14.5977 -143.4874,13.6915 -286.6922,18.0228 -422.2754,-27.1406 -21.8585,-7.2812 -39.43324,-17.6067 -51.31254,-33.7852 -11.8793,-16.1785 -19.62222,-39.5975 -16.8457,-78.6113 46.09224,-647.6568 122.28204,-1297.9862 242.06834,-1928.5781 3.882,-20.4361 10.711,-28.9085 18.584,-34.0879 7.873,-5.1795 19.4039,-7.5183 34.5,-6.461 30.1923,2.1147 69.9417,18.5949 97.043,30.211 l -14.8674,-59.3339 c -23.2498,-9.0514 -50.8254,-17.802 -78.7518,-19.7579 -21.7496,-1.5233 -44.8868,1.2706 -64.8535,14.4062 -19.9666,13.1356 -34.148,36.1622 -39.793,65.8789 -120.228,632.9173 -196.60588,1285.0906 -242.80464,1934.2442 -3.36335,47.2595 6.53479,84.2742 26.22461,111.0898 19.68981,26.8156 47.61156,42.0448 75.32223,51.2754 146.2358,48.7118 296.887,43.314 442.416,29.4277 30.3876,-2.8995 54.671,-9.7632 73.9864,-21.5039 19.3154,-11.7406 32.8828,-28.7956 40.3144,-47.4101 14.8634,-37.2291 9.384,-78.0173 4.6934,-119.8301 -40.7541,-363.288 -129.4049,-1272.8642 56.791,-1994.5684 47.1039,-182.5771 111.7162,-388.7113 190.54,-534.3393 -112.6047,114.372 -190.0202,336.1764 -237.9873,522.0991 z"
       id="path4140"
       inkscape:connector-curvature="0"
       sodipodi:nodetypes="sssssssssssccssssssssssscs" />
    <path
       style="font-style:normal;font-variant:normal;font-weight:normal;font-stretch:normal;text-indent:0;text-align:start;text-decoration:none;line-height:normal;letter-spacing:normal;word-spacing:normal;text-transform:none;direction:ltr;block-progression:tb;writing-mode:lr-tb;text-anchor:start;baseline-shift:baseline;color:#000000;fill:#aaa658;fill-opacity:1;stroke:none;stroke-width:49;marker:none;visibility:visible;display:inline;overflow:visible;enable-background:accumulate;font-family:sans-serif;-inkscape-font-specification:sans-serif"
       d="m 2534.3457,4163.0723 c -27.6845,705.6308 50.2804,1455.6388 209.7832,2060.3339 12.7105,48.187 26.5981,97.5672 23.3906,131.1758 -1.6037,16.8044 -6.3742,28.8418 -16.3379,38.8555 -9.9637,10.0137 -26.7364,19.0092 -56.0078,23.7949 -148.7283,24.3163 -297.9521,21.638 -444.5644,-15.7246 -29.748,-7.581 -48.533,-13.9523 -63.25,-31.6777 -14.717,-17.7254 -27.7912,-51.5188 -33.5489,-118.4082 -53.3169,-619.4105 -43.8962,-1404.2581 89.8165,-2091.6582 18.5691,-95.4614 41.5301,-229.0414 71.674,-346.6462 -63.8561,104.3952 -101.029,240.9349 -119.7717,337.2887 -134.9627,693.8265 -144.1987,1481.8021 -90.5371,2105.2168 6.1646,71.6178 20.0806,115.8945 44.668,145.5079 24.5873,29.6133 57.4207,39.8505 88.8476,47.8593 153.7889,39.1915 310.1172,41.8522 464.5723,16.5996 36.1078,-5.9034 63.7463,-18.4025 82.8379,-37.5898 19.0916,-19.1873 28.021,-44.0574 30.3789,-68.7637 4.7157,-49.4124 -12.4292,-101.4702 -24.7891,-148.3281 -157.9558,-598.8301 -235.6887,-1345.2542 -208.1992,-2045.916 4.0415,-103.0089 -3.6473,-219.0295 -36.0909,-348.7345 -4.4436,128.295 -8.8019,243.0752 -12.872,346.8146 z"
       id="path4146"
       inkscape:connector-curvature="0"
       sodipodi:nodetypes="ssssssssscssssssssscs" />
  </g>
  <g
     inkscape:groupmode="layer"
     id="layer8"
     inkscape:label="Cutie Mark"
     style="display:inline"
     sodipodi:insensitive="true"
     transform="translate(1173.9796,-54.97043)">
    <g
       id="g4113"
       transform="matrix(0.53879823,-0.02012255,-0.01297508,0.5348627,467.41614,1014.3416)">
      <path
         sodipodi:nodetypes="csssscc"
         inkscape:connector-curvature="0"
         id="path4090"
         d="m 2159.7637,3893.7716 c 18.0005,-69.6787 24.2786,-171.7485 5.7142,-250 -2.2864,-9.6378 -0.5967,-14.8737 7.5,-17.8571 12.2967,-4.531 24.4754,-4.0371 37.5,-2.1429 9.0639,1.3182 14.5205,14.9674 14.6429,25.3572 0.9717,82.4645 -1.1558,160.1903 -22.5,238.9286 z"
         style="fill:#34251a;fill-opacity:1;stroke:none;display:inline" />
      <path
         sodipodi:nodetypes="cscscc"
         inkscape:connector-curvature="0"
         id="path4086"
         d="m 2172.6208,3879.4859 c 12.1306,-133.6359 145.3518,-245.4935 270,-262.8571 79.1998,-11.0327 143.8728,2.4451 191.4286,68.5714 -54.4687,15.6413 -89.3837,50.3214 -112.8571,114.2857 -52.5976,143.3268 -246.8705,207.5587 -338.5715,108.5715 z"
         style="fill:#a0ef63;fill-opacity:1;stroke:none;display:inline" />
      <path
         clip-path="url(#clipPath4107)"
         sodipodi:nodetypes="ccccc"
         inkscape:connector-curvature="0"
         id="path4088"
         d="M 497.14286,319.57144 C 410.64503,161.17649 198.24633,13.653878 27.142847,99.57143 L 87.142848,376.7143 472.85714,389.57144 z"
         style="fill:#639830;fill-opacity:1;stroke:none;display:inline"
         transform="matrix(-1,0,0,1,2661.1922,3585.6288)" />
      <path
         sodipodi:nodetypes="ccccc"
         inkscape:connector-curvature="0"
         id="path4111"
         d="m 2184.0494,3908.0574 -287.1429,577.1428 c -109.0498,-77.9637 -197.6532,-170.7976 -202.8572,-324.2857 -3.2954,-189.5566 89.4585,-345.4859 207.1429,-367.1429 122.504,-26.1796 228.4934,-14.7429 282.8572,114.2858 z"
         style="fill:#ffffd7;fill-opacity:1;stroke:none;display:inline" />
      <path
         sodipodi:nodetypes="csc"
         inkscape:connector-curvature="0"
         id="path4078"
         d="m 2086.9263,4100.9031 c -35.6731,-90.5071 -148.4697,-85.6816 -181.4484,-5.7029 -44.4704,107.8481 -28.4057,222.0562 45.3615,281.9797"
         style="fill:none;stroke:#a0ef63;stroke-width:4;stroke-linecap:butt;stroke-linejoin:miter;stroke-miterlimit:4;stroke-opacity:1;stroke-dasharray:none;display:inline" />
      <path
         inkscape:connector-curvature="0"
         id="path4074-9"
         d="m 2182.6208,3906.6288 -284.2857,577.1429"
         style="fill:none;stroke:#aaa658;stroke-width:9;stroke-linecap:butt;stroke-linejoin:miter;stroke-miterlimit:4;stroke-opacity:1;stroke-dasharray:none;display:inline" />
      <!--S+i+g+m+a-->
      <path
         sodipodi:nodetypes="czc"
         inkscape:connector-curvature="0"
         id="path4080"
         d="m 1917.6208,4172.3431 c -3.1666,29.1122 4.5318,54.6596 17.1429,48.5714 12.6111,-6.0882 6.7993,-27.6937 -17.1429,-48.5714 z"
         style="fill:#716f40;fill-opacity:1;stroke:none;display:inline" />
      <path
         sodipodi:nodetypes="czc"
         inkscape:connector-curvature="0"
         id="path4082"
         d="m 1946.9065,4091.6288 c -4.5381,28.8295 0.8614,50.3879 15,46.4286 14.1387,-3.9593 8.5147,-24.0094 -15,-46.4286 z"
         style="fill:#716f40;fill-opacity:1;stroke:none;display:inline" />
      <path
         sodipodi:nodetypes="czc"
         inkscape:connector-curvature="0"
         id="path4084"
         d="m 1972.6208,4170.2002 c -4.9042,31.3332 3.0927,61.8205 22.8571,55.7143 19.7645,-6.1062 5.0543,-40.7811 -22.8571,-55.7143 z"
         style="fill:#716f40;fill-opacity:1;stroke:none;display:inline" />
      <path
         sodipodi:nodetypes="cssc"
         inkscape:connector-curvature="0"
         id="path4076"
         d="m 2182.6208,3906.6288 c -40.1428,-117.8072 -171.738,-151.2043 -302.8572,-107.1429 -125.3553,42.1246 -212.352,248.3859 -180,417.1429 21.1405,110.2746 87.2501,197.5678 198.5715,267.1429"
         style="fill:none;stroke:#8d1239;stroke-width:14;stroke-linecap:round;stroke-linejoin:miter;stroke-miterlimit:4;stroke-opacity:1;stroke-dasharray:none;display:inline" />
    </g>
  </g>
  <g
     inkscape:groupmode="layer"
     id="layer9"
     inkscape:label="Shirt"
     style="display:inline"
     sodipodi:insensitive="true"
     transform="translate(1173.9796,-54.97043)">
    <path
       style="fill:#ffffff;stroke:#c4cae6;stroke-width:29;stroke-linecap:butt;stroke-linejoin:miter;stroke-miterlimit:4;stroke-opacity:1;stroke-dasharray:none"
       d="m 2151.6865,4185.6152 c -5.3356,77.8389 -19.9734,144.5152 -43.3862,200.6614 169.9294,56.4826 339.8589,46.6891 509.7883,13.5582 -12.1204,-65.7163 -10.1309,-129.8009 -8.1349,-188.459"
       id="path4141"
       inkscape:connector-curvature="0"
       sodipodi:nodetypes="cccc" />
    <path
       style="fill:#ffffff;stroke:none;display:inline"
       d="M 3378.3431,3306.6275 C 3272.0655,4066.7132 2792.511,4067.7895 1976,4054.0001 1816.6349,3615.042 1849.5113,3157.164 2000,2754 c 189.4951,6.7742 378.9902,17.3865 568.4853,31.6569 l 383.3982,462.4764 200.8028,-111.8287 z"
       id="path4127-5"
       inkscape:connector-curvature="0"
       sodipodi:nodetypes="ccccccc" />
    <path
       style="fill:#5977d1;fill-opacity:1;stroke:none"
       d="m 1965.3547,2866.4906 694.1057,28.7613 124.6323,145.7239 -866.6735,-15.3394 z m -76.6968,335.5485 1062.2502,24.9264 103.5407,159.1458 -1184.9651,40.2658 z m -9.5871,406.4928 1428.4773,-28.7613 -99.7058,184.0723 -1315.3496,7.6697 z m 61.3574,345.1355 c 384.123,-41.8464 768.246,-50.9857 1152.369,-69.0271 -117.3047,84.9786 -264.5897,154.3683 -433.3368,157.2284 l -678.7664,11.5045 z"
       id="path4133"
       inkscape:connector-curvature="0"
       sodipodi:nodetypes="cccccccccccccccccscc" />
    <ellipse
       style="color:#000000;fill:#efe98c;fill-opacity:1;fill-rule:nonzero;stroke:#c5c281;stroke-width:26.92339325;stroke-miterlimit:4;stroke-opacity:1;stroke-dasharray:none;marker:none;visibility:visible;display:inline;overflow:visible;enable-background:accumulate"
       id="path4129"
       cx="3355.2354"
       cy="3340.3518"
       rx="73.769859"
       ry="70.378296"
       transform="matrix(0.99467685,0.10304346,-0.07226029,0.99738581,0,0)"
       sodipodi:cx="3355.2354"
       sodipodi:cy="3340.3518"
       sodipodi:rx="73.769859"
       sodipodi:ry="70.378296"
       d="m 3429.0052,3340.3518 c 0,38.8689 -33.0279,70.3783 -73.7698,70.3783 -40.742,0 -73.7699,-31.5094 -73.7699,-70.3783 0,-38.8689 33.0279,-70.3783 73.7699,-70.3783 40.7419,0 73.7698,31.5094 73.7698,70.3783 z" />
    <ellipse
       style="color:#000000;fill:#efe98c;fill-opacity:1;fill-rule:nonzero;stroke:#c5c281;stroke-width:29;stroke-miterlimit:4;stroke-opacity:1;stroke-dasharray:none;marker:none;visibility:visible;display:inline;overflow:visible;enable-background:accumulate"
       id="path4131"
       cx="4244.7661"
       cy="2370.5186"
       rx="71"
       ry="63"
       transform="matrix(0.91535663,0.40264406,-0.40264406,0.91535663,0,0)"
       sodipodi:cx="4244.7661"
       sodipodi:cy="2370.5186"
       sodipodi:rx="71"
       sodipodi:ry="63"
       d="m 4315.7661,2370.5186 c 0,34.7939 -31.7878,63 -71,63 -39.2122,0 -71,-28.2061 -71,-63 0,-34.794 31.7878,-63 71,-63 39.2122,0 71,28.206 71,63 z" />
    <path
       style="fill:none;stroke:#2f4ca4;stroke-width:49;stroke-linecap:butt;stroke-linejoin:miter;stroke-miterlimit:4;stroke-opacity:1;stroke-dasharray:none"
       d="M 3378.3431,3306.6275 C 3272.0655,4066.7132 2792.511,4087.8026 1976,4054.0001 1816.6349,3615.042 1849.5113,3157.164 2000,2754 c 189.4951,6.7742 388.9902,18.3865 578.4853,32.6569 L 3164,3504.0001 z"
       id="path4127"
       inkscape:connector-curvature="0"
       sodipodi:nodetypes="cccccc" />
    <path
       style="fill:#ffffff;stroke:none"
       d="m 2644,3876.0001 c -165.9302,-107.37 -298.3936,-72.5063 -422,0 1.394,68.9091 -2.8481,133.873 -54,166 -29.1755,47.9537 -48.8576,96.7705 -20,150 l 444,22 c 95.2701,-17.6983 83.2494,-89.042 52,-170 -21,-58.4507 -27.0707,-114.8755 0,-168 z"
       id="path4492"
       inkscape:connector-curvature="0"
       sodipodi:nodetypes="ccccccc" />
    <path
       style="fill:#c4cae6;fill-opacity:1;stroke:none"
       d="m 2358.0966,3963.0219 c 5.9464,86.2247 139.495,136.7762 199.7406,117.1952 -82.9148,-14.5631 -145.6404,-59.4101 -199.7406,-117.1952 z"
       id="path4137"
       inkscape:connector-curvature="0"
       sodipodi:nodetypes="ccc" />
    <path
       style="fill:none;stroke:#c4cae6;stroke-width:29;stroke-linecap:butt;stroke-linejoin:miter;stroke-miterlimit:4;stroke-opacity:1;stroke-dasharray:none"
       d="m 2642.9015,3869.5336 c -12.8392,36.7948 -21.9458,131.6082 8.095,189.8245 26.2779,50.9242 28.2559,115.2701 -43.5391,155.64 -155.3691,-4.5322 -300.0117,-11.8961 -458.9211,-19.9685 -27.1294,-41.0666 -32.5238,-80.7902 6.6429,-124.3996 58.2703,-64.88 69.6253,-129.0171 69.5887,-201.9869"
       id="path4139"
       inkscape:connector-curvature="0"
       sodipodi:nodetypes="csccsc" />
    <path
       style="fill:#2f4ca4;fill-opacity:1;stroke:none"
       d="m 2684.3869,3924.9061 c -41.4831,-192.4696 -490.433,-174.2937 -529.2077,17.2568 143.8392,-143.5205 405.4429,-134.6448 529.2077,-17.2568 z"
       id="path4135"
       inkscape:connector-curvature="0"
       sodipodi:nodetypes="ccc" />
  </g>
  <g
     inkscape:groupmode="layer"
     id="layer10"
     inkscape:label="Bow"
     style="display:inline"
     sodipodi:insensitive="true"
     transform="translate(1173.9796,-54.97043)">
    <path
       style="fill:#514e52;fill-opacity:1;stroke:#251f26;stroke-width:29;stroke-linecap:butt;stroke-linejoin:miter;stroke-miterlimit:4;stroke-opacity:1;stroke-dasharray:none"
       d="m 3214.6494,2968.0886 c 73.2424,-114.426 226.2768,-232.29 280.6548,-89.4841 50.1598,131.7279 43.0531,331.1493 1.3558,454.1998 -44.9785,132.7335 -236.0237,2.0666 -296.9245,-89.4841"
       id="path4147"
       inkscape:connector-curvature="0"
       sodipodi:nodetypes="cssc" />
    <path
       style="fill:#514e52;fill-opacity:1;stroke:#251f26;stroke-width:29;stroke-linecap:butt;stroke-linejoin:miter;stroke-miterlimit:4;stroke-opacity:1;stroke-dasharray:none"
       d="m 3100.7606,2966.7328 c -112.9171,-109.7771 -279.7886,-240.6499 -311.8386,-116.6005 -35.8203,138.6424 -23.5291,336.5798 51.5211,500.2977 58.4662,127.5408 176.3771,1.1266 258.9617,-103.0424"
       id="path4149"
       inkscape:connector-curvature="0"
       sodipodi:nodetypes="cssc" />
    <path
       style="fill:#251f26;fill-opacity:1;stroke:none"
       d="m 3069.5767,3057.5727 c -36.3972,4.4476 -60.1358,-14.8897 -77.2817,-43.3862 2.8026,33.2521 24.6745,68.0922 70.5026,73.2143 z"
       id="path4151"
       inkscape:connector-curvature="0"
       sodipodi:nodetypes="cccc" />
    <path
       style="fill:#251f26;fill-opacity:1;stroke:none"
       d="m 3064.1534,3164.6826 c -27.0122,1.2514 -56.8839,25.4251 -63.0456,52.8769 19.5228,-16.332 37.9706,-31.0192 68.469,-27.7942 z"
       id="path4153"
       inkscape:connector-curvature="0"
       sodipodi:nodetypes="cccc" />
    <path
       style="fill:#251f26;fill-opacity:1;stroke:none"
       d="m 3240.4101,3068.4193 c 36.2018,4.9633 70.3705,4.5046 93.5515,-18.9815 -3.0804,38.0262 -61.5674,51.9511 -89.4841,48.1316 z"
       id="path4155"
       inkscape:connector-curvature="0"
       sodipodi:nodetypes="cccc" />
    <path
       style="fill:#251f26;fill-opacity:1;stroke:none"
       d="m 3237.6984,3144.3452 c 30.4558,1.7575 55.7454,23.192 68.4689,44.0642 -20.9285,-14.8088 -46.9517,-21.4412 -74.5701,-15.5919 z"
       id="path4157"
       inkscape:connector-curvature="0"
       sodipodi:nodetypes="cccc" />
    <path
       style="fill:#514e52;fill-opacity:1;stroke:#251f26;stroke-width:29;stroke-linecap:butt;stroke-linejoin:miter;stroke-miterlimit:4;stroke-opacity:1;stroke-dasharray:none"
       d="m 3077.4578,3215.4609 c 17.1541,68.2412 121.7606,67.2008 141.889,3.8349 25.0431,-78.8377 29.7781,-147.3438 15.3394,-220.5032 -12.8286,-65.0017 -127.4439,-66.3831 -147.6413,-9.5871 -23.5159,66.1276 -32.5038,135.0902 -9.5871,226.2554 z"
       id="path4144"
       inkscape:connector-curvature="0"
       sodipodi:nodetypes="sssss" />
  </g>
  <g
     inkscape:groupmode="layer"
     id="layer11"
     inkscape:label="Head"
     style="display:inline"
     sodipodi:insensitive="true"
     transform="translate(1173.9796,-54.97043)">
    <path
       style="fill:#f3f7b2;fill-opacity:1;stroke:none"
       d="m 2511.3413,1644.5248 59.0483,184.6388 c -24.3793,242.1818 86.651,286.4573 197.6104,330.8364 173.6094,51.4947 344.9733,96.2533 508,116 154.2583,17.1166 308.1842,36.2279 452,116 137.0097,-186.1166 220.1855,-419.3377 272,-680 l -260,-88 c -4.2229,-234.3889 -22.2927,-468.0854 -236,-691.99999 l -204,-264 C 2861.5339,759.5064 2482.4811,935.1815 2172,1208 c 80.9817,200.5919 183.9851,363.4321 339.3413,436.5248 z"
       id="path4475"
       inkscape:connector-curvature="0"
       sodipodi:nodetypes="ccccccccccc" />
    <path
       style="fill:none;stroke:#b0ac61;stroke-width:49;stroke-linecap:butt;stroke-linejoin:miter;stroke-miterlimit:4;stroke-opacity:1;stroke-dasharray:none"
       d="m 3730.6954,1606.8211 c 23.9234,-259.9846 -59.1973,-528.2562 -248.9016,-729.73421"
       id="path4164"
       inkscape:connector-curvature="0"
       sodipodi:nodetypes="cc" />
    <path
       style="font-style:normal;font-variant:normal;font-weight:normal;font-stretch:normal;text-indent:0;text-align:start;text-decoration:none;line-height:normal;letter-spacing:normal;word-spacing:normal;text-transform:none;direction:ltr;block-progression:tb;writing-mode:lr-tb;text-anchor:start;baseline-shift:baseline;color:#000000;fill:#aaa658;fill-opacity:1;stroke:none;stroke-width:49;marker:none;visibility:visible;display:inline;overflow:visible;enable-background:accumulate;font-family:sans-serif;-inkscape-font-specification:sans-serif"
       d="m 3530.4956,1447.1571 c 119.2717,167.9186 305.6324,251.1987 448.188,283.2257 -47.8892,218.6093 -132.5941,433.3685 -259.4024,625.5723 -119.7902,-57.1078 -269.9823,-90.8654 -404.2089,-102.1113 -153.5413,-12.8641 -302.0295,-56.2525 -444.9571,-85.5391 -92.392,-18.9316 -163.4497,-50.9302 -212.7304,-101.6055 -49.2807,-50.6753 -92.7654,-133.0521 -86.9952,-237.5356 -44.2298,99.5166 -6.6119,211.5628 51.8663,271.6958 58.4781,60.133 139.8359,95.3281 238.0234,115.4472 140.0672,28.7006 290.707,72.9606 450.7012,86.3653 136.2287,11.4136 291.5316,47.9467 405.6914,106.5879 l 19.2949,9.9121 12.1758,-17.9531 c 142.1723,-209.6151 234.3262,-445.6584 283.7324,-684.7891 l 5.041,-24.4004 -24.4824,-4.6289 c -135.2058,-25.5725 -325.2097,-106.1618 -481.938,-240.2433 z"
       id="path4166"
       inkscape:connector-curvature="0"
       sodipodi:nodetypes="cccssscsssccccccc" />
    <path
       style="fill:#aaa658;fill-opacity:1;stroke:none"
       d="m 3872,2102 c -230.7533,80.5689 -371.0655,-14.0779 -434,-140 11.4745,145.8004 200.21,256.9449 422,186 z"
       id="path4172"
       inkscape:connector-curvature="0"
       sodipodi:nodetypes="cccc" />
    <path
       style="fill:#aaa658;fill-opacity:1;stroke:none"
       d="m 3664.2427,1828.5858 c 7.1958,32.3155 37.3392,45.4235 67.7573,43.4142 -46.1181,37.5904 -97.9154,11.2043 -67.7573,-43.4142 z"
       id="path4174"
       inkscape:connector-curvature="0"
       sodipodi:nodetypes="ccc" />
    <path
       style="fill:#aaa658;fill-opacity:1;stroke:none"
       d="m 3890.5015,1888.2496 c 33.5984,4.62 62.9083,-0.1949 77.7818,-36.7696 9.4281,60.3095 -44.7834,74.5724 -77.7818,36.7696 z"
       id="path4176"
       inkscape:connector-curvature="0"
       sodipodi:nodetypes="ccc" />
  </g>
  <g
     inkscape:groupmode="layer"
     id="layer13"
     inkscape:label="Eyes"
     style="display:inline"
     sodipodi:insensitive="true"
     transform="translate(1173.9796,-54.97043)">
    <path
       style="fill:#ffffff;stroke:none"
       d="m 3468,1452 284,186 c -23.7367,-252.965 -7.0548,-535.069 -250,-630 -83.2469,124.0288 -94.753,271.9712 -34,444 z"
       id="path4204"
       inkscape:connector-curvature="0"
       sodipodi:nodetypes="cccc"
       clip-path="url(#clipPath4228)" />
    <path
       style="fill:#ffffff;stroke:none"
       d="m 3132,1844 c 199.7232,-166.146 122.9682,-362.344 88,-554 -94.0359,-238.8631 -269.1164,-252.6024 -458,-228 -133.7646,162.5025 -100.7981,356.267 -68,550 119.7907,211.6558 276.0916,236.1972 438,232 z"
       id="path4198"
       inkscape:connector-curvature="0"
       sodipodi:nodetypes="ccccc"
       clip-path="url(#clipPath4241)" />
    <ellipse
       style="color:#000000;fill:url(#linearGradient4450);fill-opacity:1;fill-rule:nonzero;stroke:none;stroke-width:1px;marker:none;visibility:visible;display:inline;overflow:visible;enable-background:accumulate"
       id="path4194"
       cx="3351.238"
       cy="1086.6094"
       rx="199.47176"
       ry="306.18781"
       transform="matrix(0.98717894,0.15961747,-0.15963679,0.98717582,0,0)"
       clip-path="url(#clipPath4237)"
       sodipodi:cx="3351.238"
       sodipodi:cy="1086.6094"
       sodipodi:rx="199.47176"
       sodipodi:ry="306.18781"
       d="m 3550.7098,1086.6094 c 0,169.1028 -89.3066,306.1878 -199.4718,306.1878 -110.1652,0 -199.4717,-137.085 -199.4717,-306.1878 0,-169.10288 89.3065,-306.18783 199.4717,-306.18783 110.1652,0 199.4718,137.08495 199.4718,306.18783 z" />
    <ellipse
       style="color:#000000;fill:#000000;fill-opacity:1;fill-rule:nonzero;stroke:none;stroke-width:1px;marker:none;visibility:visible;display:inline;overflow:visible;enable-background:accumulate"
       id="path4196"
       cx="3345.2285"
       cy="1058.0847"
       rx="129.15596"
       ry="206.83847"
       transform="matrix(0.98581189,0.16785384,-0.15383064,0.98809723,0,0)"
       clip-path="url(#clipPath4233)"
       sodipodi:cx="3345.2285"
       sodipodi:cy="1058.0847"
       sodipodi:rx="129.15596"
       sodipodi:ry="206.83847"
       d="m 3474.3845,1058.0847 c 0,114.2337 -57.8251,206.8385 -129.156,206.8385 -71.3309,0 -129.1559,-92.6048 -129.1559,-206.8385 0,-114.23372 57.825,-206.83845 129.1559,-206.83845 71.3309,0 129.156,92.60473 129.156,206.83845 z" />
    <ellipse
       style="color:#000000;fill:url(#linearGradient4458);fill-opacity:1;fill-rule:nonzero;stroke:none;stroke-width:1px;marker:none;visibility:visible;display:inline;overflow:visible;enable-background:accumulate"
       id="path4200"
       cx="3325.5627"
       cy="1934.4712"
       rx="83.664528"
       ry="215.19818"
       transform="matrix(0.99013253,-0.14013415,0.14849132,0.98891371,0,0)"
       clip-path="url(#clipPath4224)"
       sodipodi:cx="3325.5627"
       sodipodi:cy="1934.4712"
       sodipodi:rx="83.664528"
       sodipodi:ry="215.19818"
       d="m 3409.2273,1934.4712 c 0,118.8507 -37.4579,215.1982 -83.6646,215.1982 -46.2066,0 -83.6645,-96.3475 -83.6645,-215.1982 0,-118.8507 37.4579,-215.1982 83.6645,-215.1982 46.2067,0 83.6646,96.3475 83.6646,215.1982 z" />
    <ellipse
       style="color:#000000;fill:#000000;fill-opacity:1;fill-rule:nonzero;stroke:none;stroke-width:1px;marker:none;visibility:visible;display:inline;overflow:visible;enable-background:accumulate"
       id="path4202"
       cx="3355.7534"
       cy="1941.1813"
       rx="55.969334"
       ry="147.99287"
       transform="matrix(0.99048033,-0.1376543,0.13300776,0.991115,0,0)"
       clip-path="url(#clipPath4220)"
       sodipodi:cx="3355.7534"
       sodipodi:cy="1941.1813"
       sodipodi:rx="55.969334"
       sodipodi:ry="147.99287"
       d="m 3411.7228,1941.1813 c 0,81.7342 -25.0584,147.9928 -55.9694,147.9928 -30.911,0 -55.9693,-66.2586 -55.9693,-147.9928 0,-81.7342 25.0583,-147.9929 55.9693,-147.9929 30.911,0 55.9694,66.2587 55.9694,147.9929 z" />
    <ellipse
       style="color:#000000;fill:#ffffff;fill-opacity:1;fill-rule:nonzero;stroke:none;stroke-width:1px;marker:none;visibility:visible;display:inline;overflow:visible;enable-background:accumulate"
       id="path4206"
       cx="3747.8269"
       cy="597.86621"
       rx="41.09013"
       ry="64.729889"
       transform="matrix(0.97767309,0.21013168,-0.20263665,0.979254,0,0)"
       clip-path="url(#clipPath4216)"
       sodipodi:cx="3747.8269"
       sodipodi:cy="597.86621"
       sodipodi:rx="41.09013"
       sodipodi:ry="64.729889"
       d="m 3788.917,597.86621 c 0,35.74933 -18.3966,64.72989 -41.0901,64.72989 -22.6934,0 -41.0901,-28.98056 -41.0901,-64.72989 0,-35.74933 18.3967,-64.72989 41.0901,-64.72989 22.6935,0 41.0901,28.98056 41.0901,64.72989 z" />
    <ellipse
       style="color:#000000;fill:#ffffff;fill-opacity:1;fill-rule:nonzero;stroke:none;stroke-width:1px;marker:none;visibility:visible;display:inline;overflow:visible;enable-background:accumulate"
       id="path4245"
       cx="3371.792"
       cy="-393.99854"
       rx="69.213806"
       ry="98.027977"
       transform="matrix(0.85324489,0.52151045,-0.58892461,0.80818798,0,0)"
       sodipodi:cx="3371.792"
       sodipodi:cy="-393.99854"
       sodipodi:rx="69.213806"
       sodipodi:ry="98.027977"
       d="m 3441.0058,-393.99854 c 0,54.13936 -30.9881,98.02798 -69.2138,98.02798 -38.2257,0 -69.2138,-43.88862 -69.2138,-98.02798 0,-54.13935 30.9881,-98.02797 69.2138,-98.02797 38.2257,0 69.2138,43.88862 69.2138,98.02797 z" />
  </g>
  <g
     inkscape:groupmode="layer"
     id="layer12"
     inkscape:label="Eye Clipping"
     style="opacity:0.5;display:none"
     sodipodi:insensitive="true"
     transform="translate(1173.9796,-54.97043)">
    <ellipse
       style="color:#000000;fill:#00ff00;fill-opacity:1;fill-rule:nonzero;stroke:#ff0000;stroke-width:1.00051022;stroke-miterlimit:4;stroke-opacity:1;stroke-dasharray:none;marker:none;visibility:visible;display:inline;overflow:visible;enable-background:accumulate"
       id="path4179"
       cx="2086.6292"
       cy="2680.6594"
       rx="247.1254"
       ry="353.96017"
       transform="matrix(0.88620959,-0.46328454,0.42280091,0.9062226,0,0)"
       sodipodi:cx="2086.6292"
       sodipodi:cy="2680.6594"
       sodipodi:rx="247.1254"
       sodipodi:ry="353.96017"
       d="m 2333.7545,2680.6594 c 0,195.4868 -110.6418,353.9602 -247.1253,353.9602 -136.4836,0 -247.1254,-158.4734 -247.1254,-353.9602 0,-195.4868 110.6418,-353.9602 247.1254,-353.9602 136.4835,0 247.1253,158.4734 247.1253,353.9602 z" />
    <path
       style="fill:#00ff00;fill-opacity:1;stroke:#ff0000;stroke-width:1px;stroke-linecap:butt;stroke-linejoin:miter;stroke-opacity:1"
       d="M 3530.4956,1447.1571 C 3477.135,1323.553 3447.7544,1078.2183 3508,1058 c 80.9529,-21.7534 219.2777,307.0387 202,534 -59.8348,-38.0875 -119.6696,-85.4306 -179.5044,-144.8429 z"
       id="path4181"
       inkscape:connector-curvature="0"
       sodipodi:nodetypes="cccc" />
  </g>
  <g
     inkscape:groupmode="layer"
     id="layer14"
     inkscape:label="Eyelashes"
     style="display:inline"
     sodipodi:insensitive="true"
     transform="translate(1173.9796,-54.97043)">
    <path
       style="font-style:normal;font-variant:normal;font-weight:normal;font-stretch:normal;text-indent:0;text-align:start;text-decoration:none;line-height:normal;letter-spacing:normal;word-spacing:normal;text-transform:none;direction:ltr;block-progression:tb;writing-mode:lr-tb;text-anchor:start;baseline-shift:baseline;color:#000000;fill:#000000;fill-opacity:1;stroke:none;stroke-width:34;marker:none;visibility:visible;display:inline;overflow:visible;enable-background:accumulate;font-family:sans-serif;-inkscape-font-specification:sans-serif"
       d="m 2924.3262,1105.4844 c -25.7681,0.719 -51.5848,5.0961 -76.7793,12.7168 -84.2322,25.4779 -130.9517,106.1048 -144.1758,196.1347 -13.2241,90.03 8.1307,178.5731 50.1111,239.6218 -16.0195,-69.9514 -28.4743,-152.9577 -16.4705,-234.6804 12.0039,-81.7227 51.8271,-147.7962 120.3789,-168.5312 72.1617,-21.8269 145.9185,-14.237 208.2656,34.3633 62.3472,48.6003 129.6739,136.8047 174.0795,280.5104 -20.5943,-148.2943 -81.7744,-251.6672 -153.1752,-307.3249 -49.0879,-38.2646 -105.5446,-54.3923 -162.2343,-52.8105 z"
       id="path4248"
       inkscape:connector-curvature="0"
       sodipodi:nodetypes="ssscssscss" />
    <path
       style="font-style:normal;font-variant:normal;font-weight:normal;font-stretch:normal;text-indent:0;text-align:start;text-decoration:none;line-height:normal;letter-spacing:normal;word-spacing:normal;text-transform:none;direction:ltr;block-progression:tb;writing-mode:lr-tb;text-anchor:start;baseline-shift:baseline;color:#000000;fill:#000000;fill-opacity:1;stroke:none;stroke-width:27;marker:none;visibility:visible;display:inline;overflow:visible;enable-background:accumulate;font-family:sans-serif;-inkscape-font-specification:sans-serif"
       d="m 3515.6172,1046.9551 c -2.3363,0.089 -4.6735,0.3377 -7.0078,0.7578 -10.4889,1.8876 -19.3517,8.2969 -25.5371,16.4297 -6.1854,8.1328 -10.31,17.9915 -13.4063,29.1406 -6.1926,22.2983 -8.1922,50.1653 -7.8515,80.7207 0.6813,61.1108 14.2657,119.5798 39.6477,185.5346 -9.618,-68.0453 -12.0007,-127.6209 -12.6497,-185.8354 -0.3245,-29.1072 1.8742,-55.2098 6.8691,-73.1953 2.4975,-8.9928 5.7148,-15.854 8.8829,-20.0195 3.168,-4.1655 5.671,-5.6334 8.8261,-6.2012 8.6131,-1.55 19.4618,1.5757 32.9102,12.4551 13.4484,10.8794 28.495,29.1485 43.3828,53.9766 29.7756,49.656 73.9043,146.4167 98.8173,228.3441 -13.0871,-86.0726 -43.7172,-188.9569 -75.6611,-242.2289 -15.9719,-26.636 -32.4133,-47.2119 -49.5586,-61.082 -15.0021,-12.1364 -31.3103,-19.4177 -47.664,-18.7969 z"
       id="path4256"
       inkscape:connector-curvature="0"
       sodipodi:nodetypes="csssscsscssscssc" />
    <path
       style="font-style:normal;font-variant:normal;font-weight:normal;font-stretch:normal;text-indent:0;text-align:start;text-decoration:none;line-height:normal;letter-spacing:normal;word-spacing:normal;text-transform:none;direction:ltr;block-progression:tb;writing-mode:lr-tb;text-anchor:start;baseline-shift:baseline;color:#000000;fill:#aaa658;fill-opacity:1;stroke:none;stroke-width:49;marker:none;visibility:visible;display:inline;overflow:visible;enable-background:accumulate;font-family:sans-serif;-inkscape-font-specification:sans-serif"
       d="m 3530.4956,1447.1571 c 119.2717,167.9186 305.6324,251.1987 448.188,283.2257 l 53.1914,-13.9531 5.041,-24.4004 -24.4824,-4.6289 c -135.2058,-25.5725 -325.2097,-106.1618 -481.938,-240.2433 z"
       id="path4166-9"
       inkscape:connector-curvature="0"
       sodipodi:nodetypes="cccccc" />
  </g>
  <g
     inkscape:groupmode="layer"
     id="layer17"
     inkscape:label="Ear"
     style="display:inline"
     sodipodi:insensitive="true"
     transform="translate(1173.9796,-54.97043)">
    <path
       style="fill:#b1a037;fill-opacity:1;stroke:#928a37;stroke-width:49;stroke-linecap:butt;stroke-linejoin:miter;stroke-miterlimit:4;stroke-opacity:1;stroke-dasharray:none"
       d="m 2288,1248 c -173.3333,88.9208 -426.6667,168.2976 -636,216 l -68,-80 C 2231.0269,772.54533 3199.0988,412.84796 3912,392 l 40,92.00001 c -136.2196,145.00387 -310.7033,236.61175 -488,320.00001"
       id="path4305-2"
       inkscape:connector-curvature="0"
       sodipodi:nodetypes="cccccc" />
    <path
       style="fill:#f3f7b2;fill-opacity:1;stroke:none;display:inline"
       d="M 2511.3413,1644.5248 C 2359.8288,1558.0819 2231.2057,1448.7497 2196,1246 l 304,-208 142,472 z"
       id="path4427"
       inkscape:connector-curvature="0"
       sodipodi:nodetypes="ccccc" />
    <path
       style="font-style:normal;font-variant:normal;font-weight:normal;font-stretch:normal;text-indent:0;text-align:start;text-decoration:none;line-height:normal;letter-spacing:normal;word-spacing:normal;text-transform:none;direction:ltr;block-progression:tb;writing-mode:lr-tb;text-anchor:start;baseline-shift:baseline;color:#000000;fill:#aaa658;fill-opacity:1;stroke:none;stroke-width:49;marker:none;visibility:visible;display:inline;overflow:visible;enable-background:accumulate;font-family:sans-serif;-inkscape-font-specification:sans-serif"
       d="m 2199.4492,1120.832 -48.7773,4.6563 c 24.1397,252.9278 183.6092,470.4033 360.6694,519.0365 -136.9398,-103.3668 -289.5866,-289.9836 -311.8921,-523.6928 z"
       id="path4292"
       inkscape:connector-curvature="0"
       sodipodi:nodetypes="cccc" />
    <path
       style="fill:#aaa658;fill-opacity:1;stroke:none"
       d="m 2364.5651,1019.9224 c 6.2831,132.2818 38.162,313.802 125.865,394.5657 -123.7983,-58.2012 -168.4482,-258.1142 -125.865,-394.5657 z"
       id="path4298"
       inkscape:connector-curvature="0"
       sodipodi:nodetypes="ccc" />
  </g>
  <g
     inkscape:groupmode="layer"
     id="layer16"
     inkscape:label="Front Mane"
     style="display:inline"
     sodipodi:insensitive="true"
     transform="translate(1173.9796,-54.97043)">
    <path
       style="fill:#c22339;fill-opacity:1;stroke:none"
       d="m 2466.3885,1052.4494 c -51.5876,85.6832 -59.3419,159.093 76.3675,192.333 115.9862,33.9825 205.3607,14.7416 246.0731,-101.8234 43.6208,-97.0084 111.0618,-113.028 192.3331,-82.0244 197.5105,48.2852 454.6712,-175.12571 181.0193,-302.64165 -246.6493,58.80324 -471.2311,176.45343 -695.793,294.15645 z"
       id="path4393"
       inkscape:connector-curvature="0"
       sodipodi:nodetypes="cccccc" />
    <path
       style="fill:#ffffff;stroke:none"
       d="m 3286,896.00001 c -132.5993,-101.04203 -267.6768,-40.26013 -336,30 -52.7238,54.21849 -104.6533,99.98259 -157.8633,122.32549 -115.6804,48.574 -215.0544,16.2605 -184.1367,-70.32548 l 452,-200.00001 c 100.7123,-5.40174 216.7394,18.22424 226,118 z"
       id="path4302"
       inkscape:connector-curvature="0"
       sodipodi:nodetypes="cssccc" />
    <path
       style="fill:none;stroke:#7a121c;stroke-width:49;stroke-linecap:butt;stroke-linejoin:miter;stroke-miterlimit:4;stroke-opacity:1;stroke-dasharray:none"
       d="m 3043.9561,783.80767 c 147.7137,-23.05248 322.4021,46.87233 197.7645,196.27418 -50.9137,61.02965 -143.3622,92.35005 -283.1858,75.19595 -131.5692,-16.1414 -153.7629,56.0076 -186.6762,115.9655 -53.8161,98.0362 -159.3669,94.332 -261.0437,63.397 -137.9487,-41.9707 -72.9864,-170.3114 31.9411,-235.93104"
       id="path4300"
       inkscape:connector-curvature="0"
       sodipodi:nodetypes="cssssc" />
  </g>
  <g
     inkscape:groupmode="layer"
     id="layer18"
     inkscape:label="Hat"
     style="display:inline"
     sodipodi:insensitive="true"
     transform="translate(1173.9796,-54.97043)">
    <path
       style="fill:#b1a037;fill-opacity:1;stroke:none"
       d="m 3484,804.00001 c 174.1689,-87.91467 358.3436,-166.82406 460,-320 -440.339,-2.56871 -822.6764,130.1996 -1196,284 C 2337.6949,947.39911 1955.0557,1152.8367 1672,1452 c 163.7015,-27.8608 203.6105,-48.8914 360,-106 l 20.9944,-92.0709 119.4466,13.8782 C 2491.0561,967.00786 3040.4845,764.38732 3436,748.00001 z"
       id="path4383"
       inkscape:connector-curvature="0"
       sodipodi:nodetypes="ccccccccc" />
    <path
       style="fill:#f0eb7a;fill-opacity:1;stroke:#928a37;stroke-width:49;stroke-linecap:butt;stroke-linejoin:miter;stroke-miterlimit:4;stroke-opacity:1;stroke-dasharray:none"
       d="M 2067.5802,1010.0229 1875.2472,585.75889 C 2122.7034,352.70048 2569.6583,104.17005 3015.1033,79.47043 l 186.6762,427.0925"
       id="path4315"
       inkscape:connector-curvature="0"
       sodipodi:nodetypes="cccc" />
    <path
       style="fill:#5977d1;fill-opacity:1;stroke:#284a9c;stroke-width:49;stroke-linecap:butt;stroke-linejoin:miter;stroke-miterlimit:4;stroke-opacity:1;stroke-dasharray:none;display:inline"
       d="M 2067.5802,1010.0229 1875.2472,585.75891 C 2122.7034,352.70049 2569.6583,104.17006 3015.1033,79.470436 l 186.6762,427.092514"
       id="path4315-7"
       inkscape:connector-curvature="0"
       sodipodi:nodetypes="cccc"
       clip-path="url(#clipPath4377)" />
    <path
       style="fill:#f0eb7a;fill-opacity:1;stroke:none"
       d="m 3911.7147,387.769 36.7696,98.99494 C 3569.2497,490.00185 3177.4034,568.90979 2766.2017,763.9498 2329.7029,939.61337 1943.5327,1162.0108 1656,1476 l -68,-92 C 1891.3161,1088.0465 2288.3989,868.81121 2708,668.00001 3082.0384,533.78986 3454.5394,397.27379 3911.7147,387.769 z"
       id="path4381"
       inkscape:connector-curvature="0"
       sodipodi:nodetypes="ccccccc" />
    <path
       style="fill:none;stroke:#928a37;stroke-width:49;stroke-linecap:butt;stroke-linejoin:miter;stroke-miterlimit:4;stroke-opacity:1;stroke-dasharray:none"
       d="M 2061.5843,1344.3705 C 1927.7841,1392.8734 1781.4757,1434.4954 1652,1464 l -68,-80 C 2231.0269,772.54532 3199.0988,412.84797 3912,392.00001 l 40,92 c -136.2196,145.00387 -310.7033,236.61174 -488,320"
       id="path4305"
       inkscape:connector-curvature="0"
       sodipodi:nodetypes="cccccc" />
    <path
       style="fill:none;stroke:#928a37;stroke-width:49;stroke-linecap:butt;stroke-linejoin:miter;stroke-miterlimit:4;stroke-opacity:1;stroke-dasharray:none"
       d="M 3952,484.00001 C 3364.9369,466.41761 2240.2784,861.64246 1652,1464"
       id="path4307"
       inkscape:connector-curvature="0"
       sodipodi:nodetypes="cc" />
    <path
       style="font-style:normal;font-variant:normal;font-weight:normal;font-stretch:normal;text-indent:0;text-align:start;text-decoration:none;line-height:normal;letter-spacing:normal;word-spacing:normal;text-transform:none;direction:ltr;block-progression:tb;writing-mode:lr-tb;text-anchor:start;baseline-shift:baseline;color:#000000;fill:#928a37;fill-opacity:1;stroke:none;stroke-width:49;marker:none;visibility:visible;display:inline;overflow:visible;enable-background:accumulate;font-family:sans-serif;-inkscape-font-specification:sans-serif"
       d="m 3459.5781,723.50391 c -301.7526,5.18862 -613.3018,104.04962 -892.3465,253.20714 -127.5453,68.17665 -344.8683,214.42995 -399.7906,295.09625 76.5996,-56.5123 299.908,-186.2186 426.1871,-253.3736 272.7718,-145.05946 576.3864,-240.94407 866.7938,-245.93761 z"
       id="path4309"
       inkscape:connector-curvature="0"
       sodipodi:nodetypes="cscscc" />
    <path
       style="fill:#928a37;fill-opacity:1;stroke:none"
       d="m 2882.1672,242.10498 c -35.0244,11.64459 -81.6675,73.89591 -39.5979,100.40918 -4.4724,-33.46973 14.384,-74.01052 39.5979,-100.40918 z"
       id="path4319"
       inkscape:connector-curvature="0"
       sodipodi:nodetypes="ccc" />
    <path
       style="fill:#928a37;fill-opacity:1;stroke:none"
       d="m 2766.2017,329.78624 c -0.8582,-52.17683 19.717,-86.49253 41.0122,-120.20817 -37.8172,13.19933 -72.2255,80.13878 -41.0122,120.20817 z"
       id="path4321"
       inkscape:connector-curvature="0"
       sodipodi:nodetypes="ccc" />
    <path
       style="fill:#928a37;fill-opacity:1;stroke:none"
       d="m 2183.5457,621.11423 c 13.0754,-41.69695 31.7793,-82.2682 63.6397,-120.20816 -51.6156,31.96209 -68.5241,73.17941 -63.6397,120.20816 z"
       id="path4323"
       inkscape:connector-curvature="0"
       sodipodi:nodetypes="ccc" />
    <path
       style="fill:#928a37;fill-opacity:1;stroke:none"
       d="m 2067.5802,697.48176 c 9.4838,-62.83536 35.9085,-120.02378 67.8823,-175.36248 -43.9971,10.3709 -92.2649,116.90832 -67.8823,175.36248 z"
       id="path4325"
       inkscape:connector-curvature="0"
       sodipodi:nodetypes="ccc" />
    <path
       style="fill:#928a37;fill-opacity:1;stroke:none"
       d="m 1994.0411,691.82491 c -4.7552,-27.81287 -3.6091,-55.62573 14.1422,-83.4386 -29.4277,10.8423 -43.3991,55.62573 -14.1422,83.4386 z"
       id="path4327"
       inkscape:connector-curvature="0"
       sodipodi:nodetypes="ccc" />
  </g>
  <g
     inkscape:groupmode="layer"
     id="layer15"
     inkscape:label="Horn"
     style="display:inline"
     sodipodi:insensitive="true"
     transform="translate(1173.9796,-54.97043)">
    <path
       style="fill:#f3f7b2;fill-opacity:1;stroke:none"
       d="m 3266.8333,964.76813 76.3676,173.94827 89.0954,2.8284 L 3808,372.00001 c 16.0538,-99.3542 -14.7393,-107.94259 -84,-42 l -450,496 z"
       id="path4425"
       inkscape:connector-curvature="0"
       sodipodi:nodetypes="ccccccc" />
    <path
       style="font-style:normal;font-variant:normal;font-weight:normal;font-stretch:normal;text-indent:0;text-align:start;text-decoration:none;line-height:normal;letter-spacing:normal;word-spacing:normal;text-transform:none;direction:ltr;block-progression:tb;writing-mode:lr-tb;text-anchor:start;baseline-shift:baseline;color:#000000;fill:#aaa658;fill-opacity:1;stroke:none;stroke-width:49;marker:none;visibility:visible;display:inline;overflow:visible;enable-background:accumulate;font-family:sans-serif;-inkscape-font-specification:sans-serif"
       d="m 3798.998,260.28711 c -12.5723,-0.81727 -25.6068,3.32677 -37.3906,9.52344 -18.8541,9.91467 -38.5078,26.44674 -60.3847,50.59961 l -500.6309,552.71484 36.3164,32.89453 500.6328,-552.71484 c 19.3582,-21.37214 36.0048,-34.40981 46.8731,-40.125 3.5778,-1.88146 5.7779,-2.67199 7.4277,-3.16797 0.1727,1.67814 0.2833,3.93715 -0.094,7.75 -1.1438,11.56705 -6.6843,30.35973 -17.9785,53.52734 l -369.4459,757.83604 c -29.7828,0.067 -53.7128,6.409 -80.2791,11.6458 30.0022,10.8936 65.4095,18.8463 101.6469,18.1998 8.9445,-0.1602 17.5909,-5.6482 21.543,-13.6738 l 370.4941,-752.36135 c 13.1635,-26.73105 20.7549,-49.85924 22.7813,-70.35157 2.0263,-20.49232 -1.5062,-42.32738 -19.75,-54.83789 -6.8415,-4.69143 -14.2183,-6.96862 -21.7618,-7.45898 z"
       id="path4278"
       inkscape:connector-curvature="0"
       sodipodi:nodetypes="cssccssccscccsssscc" />
    <path
       style="fill:none;stroke:#aaa658;stroke-width:29;stroke-linecap:butt;stroke-linejoin:miter;stroke-miterlimit:4;stroke-opacity:1;stroke-dasharray:none"
       d="m 3541.1908,533.43299 c 9.6678,66.76937 28.5707,129.58082 90.5096,173.94827"
       id="path4284"
       inkscape:connector-curvature="0"
       sodipodi:nodetypes="cc" />
    <path
       style="fill:none;stroke:#aaa658;stroke-width:29;stroke-linecap:butt;stroke-linejoin:miter;stroke-miterlimit:4;stroke-opacity:1;stroke-dasharray:none"
       d="M 3519.9775,940.72649 C 3444.9152,889.74246 3398.1688,808.87819 3401.1836,693.23912"
       id="path4286"
       inkscape:connector-curvature="0"
       sodipodi:nodetypes="cc" />
    <path
       style="fill:none;stroke:#aaa658;stroke-width:29;stroke-linecap:butt;stroke-linejoin:miter;stroke-miterlimit:4;stroke-opacity:1;stroke-dasharray:none"
       d="M 3457.7522,1056.692 C 3377.5179,1042.5447 3298.3318,939.17222 3276.7328,826.1752"
       id="path4288"
       inkscape:connector-curvature="0"
       sodipodi:nodetypes="cc" />
    <path
       style="fill:#c22339;fill-opacity:1;stroke:none"
       d="m 3244.2059,833.24626 -63.6396,36.76956 82.0244,79.19596 c 9.7306,-38.65517 23.5148,-77.31035 -18.3848,-115.96552 z"
       id="path4391"
       inkscape:connector-curvature="0"
       sodipodi:nodetypes="cccc" />
    <path
       style="fill:#ffffff;stroke:none;display:inline"
       d="m 3286,896 c -37.1714,-28.325 -74.5376,-43.93318 -110.5733,-50.18064 28.9965,-4.63271 57.9931,-10.94529 86.9896,-9.34066 12.9217,15.85851 21.3523,35.47918 23.5837,59.5213 z"
       id="path4302-5"
       inkscape:connector-curvature="0"
       sodipodi:nodetypes="cccc" />
    <path
       style="font-style:normal;font-variant:normal;font-weight:normal;font-stretch:normal;text-indent:0;text-align:start;text-decoration:none;line-height:normal;letter-spacing:normal;word-spacing:normal;text-transform:none;direction:ltr;block-progression:tb;writing-mode:lr-tb;text-anchor:start;baseline-shift:baseline;color:#000000;fill:#7a121c;fill-opacity:1;stroke:none;stroke-width:49;marker:none;visibility:visible;display:inline;overflow:visible;enable-background:accumulate;font-family:sans-serif;-inkscape-font-specification:sans-serif"
       d="m 3230.7246,837.20703 c 18.9437,13.53943 28.1653,28.0543 28.9707,46.97852 0.8055,18.92422 -8.0333,45.73429 -36.7871,80.20117 l 37.625,31.39062 c 33.565,-40.23404 49.6295,-78.19022 48.1191,-113.67578 -1.5103,-35.48556 -21.8226,-65.02431 -49.4355,-84.75976 z"
       id="path4300-5"
       inkscape:connector-curvature="0"
       sodipodi:nodetypes="csccscc" />
  </g>
  <!--Created by Sigma
      http://90sigma.deviantart.com/-->
</svg>
