<?xml version="1.0" encoding="UTF-8"?><svg xmlns="http://www.w3.org/2000/svg" version="1.1" viewBox="0 0 5773.1616 5773.145"><defs id="defs4"><clipPath id="clipPath3960" clipPathUnits="userSpaceOnUse"><path id="path3962" opacity=".5" d="m3996.1 1764.5c149.73 222.82 124.92 504.13 24.304 673.81s-803.01 103.68-548.58-664.4z" stroke="#f00" stroke-width="1px" fill="#0f0"/></clipPath><clipPath id="clipPath3964" clipPathUnits="userSpaceOnUse"><path id="path3966" opacity=".5" d="m3985.6 1727.9c161.81 219.53 145.76 504.06 47.834 678.63-97.928 174.57-823.83 132.19-587.67-651.09z" stroke="#f00" stroke-width="1px" fill="#0f0"/></clipPath><clipPath id="clipPath3968" clipPathUnits="userSpaceOnUse"><path id="path3970" opacity=".5" d="m4006.7 1735.4c177.89 219.53 160.25 504.06 52.588 678.63s-905.7 132.19-646.08-651.09z" stroke="#f00" stroke-width="1px" fill="#0f0"/></clipPath><linearGradient id="linearGradient3982" y2="1810.5" gradientUnits="userSpaceOnUse" x2="3961.5" y1="2363.9" x1="3972"><stop id="stop3978" stop-color="#f0b33f" offset="0"/><stop id="stop3980" stop-color="#c47c1e" offset="1"/></linearGradient><clipPath id="clipPath4248" clipPathUnits="userSpaceOnUse"><path id="path4250" d="m3594.9 860.75-1035.2 732.56 65.054 214.96 1086.1-763.68z" stroke="#000" stroke-width="1px" fill="none"/></clipPath></defs><g transform="translate(286.77 -53.952)" stroke="#49bbb7" stroke-width="54" fill="#79dcd2"><path id="path3773" d="m2620.7 3981.4c-179.39 375.38-157.88 1042.2 95.619 1480.3 60.442 104.47 147.31 141.81 223.11 148.74 154.45 14.119 335.81 4.0702 471.01-3.5414 114.49-6.4456 90.779-87.342 28.332-162.91-333.25-403.25-456.2-904.91-432.06-1462.6z"/><path id="path3775" d="m3636.1 3926.5c140.03 441.14 399.71 1195.5 742.09 1601.2 45.471 53.883 62.38 145.96-50.943 151.72-130.04 6.604-259.02-1.0707-390.65-11.484-98.896-7.8233-196.42-53.443-233.32-152.32-184.09-493.37-338.59-998.52-387.72-1519z"/></g><g transform="translate(286.77 -53.952)"><path id="path3796" fill="#f9db5a" d="m1813.2 3223.5c-528.5-286.89-895.34-224.13-1136.8 109.78-118.02 202.26-119.83 430.35-120.41 658.71-40.279 253.9-26.284 528.15-216.03 725.99 121.18 105.63 251.52 92.212 386.02 24.79 228.69-159.94 291.63-399.45 357.69-637.46 68.974-290.24 87.988-616.82 293.94-807.45 157.04-135.27 298.44-124.62 435.6-74.37z"/><path id="path3794" fill="#f9db5a" d="m2025.7 3305c-240.6-332-475.8-669.9-1048.3-637.5-149.68 120.4-233.76 264.2-290.36 417.9 460.26-327.7 982.16-124 1289.1 244.4z"/><path id="path3792" fill="#f8af06" d="m1983.2 3347.5c-243.03-194.85-469.87-237.38-665.79 10.624-83.858 130.39-143.98 276.6-171.2 444.74-41.552 205.17-68.768 416.07-154.61 603.52-134.8 305.62-376.37 493.48-653.54 311.51-85.638-45.934-161.4-141.25-237.9-232.89 36.228 135.89 69.702 273.16 197.83 363.11 286 158.03 538.28 164.33 748.75-17.529 161.75-157.98 225.16-424.14 295.46-682.72 27.166-236.69 52.307-473.04 134.57-718.91 151.2-229.49 318.92-157.57 488.72-42.497z"/><path id="path3790" fill="#f8af06" d="m1923.2 3262.9c-448.7-425.8-883.1-416.9-1232-180.3l-42.571 280.47c360.57-504.4 920.87-326.8 1242.1-72.6z"/><path id="path3788" fill="#f8af06" d="m2263.8 3057.6c-138.08-531.14-469.67-759.23-961.6-736.23 89.102 42.998 168.83 104.75 237.9 187.81-195.97 9.2871-427.43 59.017-565.94 167.78 515.7-85.357 814.29 297.62 1036.7 603.51z"/><path id="path3778" d="m2258.8 3045.7c-76.808-418.67-467.84-789.58-976.63-716.8 94.382 51.579 192.76 113.7 265.44 182.8-711.53-4.4582-888.93 506.86-906.51 882.68" stroke="#cb7710" stroke-width="54" fill="none"/><path id="path3780" d="m2033.4 3395.7c-245.9-299.3-1028.9-578.9-1355.8-63.1-151.41 239-97.43 576-146.72 884.4-30.86 193.13-69.861 398.7-187.81 503.34-93.196-43.157-160.81-137.49-227.88-232.89 9.0508 150.19 92.702 315.98 270.45 408.18 199.53 103.49 483.49 107.84 633.56-40.067 313.55-309.04 323.31-776.55 383.14-1154.4 95.432-602.74 443.43-429.34 611.02-275.46z" stroke="#cb7710" stroke-miterlimit="7" stroke-width="54" fill="none"/><path id="path3782" d="m1996.9 3394.2c-200.57-250.5-513.86-294.72-716.19 20.033-169.62 263.88-142.17 825.91-383.87 1158.4-178.76 245.91-379.35 278.29-567.5 151.5" stroke="#cb7710" stroke-width="34" fill="none"/><path id="path3784" d="m1995.8 3335.6c-183.8-241.4-832.5-660.4-1309.7-232.9" stroke="#cb7710" stroke-width="34" fill="none"/><path id="path3786" d="m2013.4 3288c-245.6-356.1-551-678.4-1040.7-612.4" stroke="#cb7710" stroke-width="34" fill="none"/></g><g transform="translate(286.77 -53.952)"><path id="path3809" fill="#f8af06" d="m2699.5 1477.5c-252.86 344.66-283.71 907.39 35.058 1209.5 34.093-168.23 56.747-339.32 167.78-488.31z"/><path id="path3807" fill="#f9db5a" d="m2724.5 1449.9c-159.17 216.69-264.07 465.12-210.35 806.34-114.75-50.721-224.96-142.29-333.06-252.92 48.855-404.99 171.21-744.13 538.4-863.94z"/><path id="path3805" fill="#f9db5a" d="m2914.9 2163.6c-130.44 252.23-209.94 518.5-147.75 823.87l338.06 122.7z"/><path id="path3799" d="m2907.5 2178.8c-105.93 91.802-203.43 554.09-141.66 803.91" stroke="#cb7710" stroke-width="54" fill="none"/><path id="path3801" d="m2688 1495.3c-264.31 315.03-246.03 952.51 56.663 1204.1" stroke="#cb7710" stroke-width="54" fill="none"/><path id="path3803" d="m2174.4 2001.7c111.15 108.88 226.47 203.93 347.06 265.61" stroke="#cb7710" stroke-width="54" fill="none"/></g><g transform="translate(286.77 -53.952)"><path id="path3811" fill="#8beedb" d="m3746.2 2839.7-826.38-200.33 70.117 380.63-385.64-155.26-210.35 941.57 155.26 280.47c108.51 69.852 217.03 85.764 325.54 100.17l355.59-20.033c198.01-2.4668 368.39-79.961 535.89-165.28 211.44-207.04 159.4-425.05 155.26-641.07-31.291-173.62-97.024-347.25-175.29-520.87z"/><path id="path3771" d="m3746.8 2826.9c353.7 774.7 230.8 1315.1-534.7 1342.2" stroke="#49bbb7" stroke-width="54" fill="none"/></g><g transform="translate(286.77 -53.952)"><path id="path3811-9" fill="#339aca" d="m2885.9 2512.1 104.03 507.9-261.62-111.25c-201.36 378.81-198.78 760.28-115.09 1214 108.51 69.852 153.02 49.753 261.53 64.156 12.765-117.93-1.6124-245.54 214.3-290.92 180.42-7.2023 222.54 123.91 262.92 256.74 166.89-13.78 246.78-65.824 414.28-151.14 211.44-207.04 159.39-425.04 155.25-641.06-31.291-173.62-97.013-347.25-175.28-520.88zm107.94 650.97c53.892 0 97.594 51.923 97.594 115.97 0 64.046-43.702 115.97-97.594 115.97s-97.562-51.923-97.562-115.97c0-64.046 43.67-115.97 97.562-115.97z"/><path id="path4106" fill="#fefca2" d="m2887.8 2515.4c298.46 30.126 583.97 161.82 868.33 302.64l152.74 497.8c19.08 203.58 71.594 409.07-87.681 602.45-104.78 150.35-265.87 220.93-461.03 243.24-55.447-110.09-42.408-264.5-265.87-265.87-147.85 8.4495-205.48 114.07-214.96 271.53l-130.11-8.4853c27.743-278.65 110.84-405.92 527.6-340.1-59.17-74.042-119.83-146.6-205.16-194.48 193.21 50.9 334.3 172.47 390.32 359.21 143.09-143.01 125.3-305.64 50.912-475.18 63.943 20.218 115.98 70.194 169.71 115.97-43.963-157.46-105.73-308.25-192.33-449.72 68.825 20.852 143.31 56.821 212.13 98.995-127.04-424.42-408.02-642.21-800.44-692.96z"/><path id="path3771-0" d="m3746.8 2826.9c330.27 723.53 244.88 1242.7-391.38 1330.2-32.963-127.55-95.132-280.15-280.96-258.58-154.43 17.927-207.7 175.55-197.99 288.5" stroke="#2e74bc" stroke-width="54" fill="none"/><path id="path4084" style="color:#000000" d="m3088.6 3301.7c0 64.046-43.688 115.97-97.581 115.97-53.892 0-97.581-51.92-97.581-115.97 0-64.046 43.688-115.97 97.581-115.97 53.892 0 97.581 51.92 97.581 115.97z" transform="translate(2.8284 -22.627)" stroke="#2e74bc" stroke-width="54" fill="none"/></g><g transform="translate(286.77 -53.952)"><path id="path3859" fill="#8beedb" d="m3257.9 4068-353.95 86.882c-35.142 100.3-20.925 198.36 47.809 293.94 142.05 120.27 320.27 65.74 488.72 58.434-52.044 78.39-117.43 151.78-207.17 216.03-70.608 80.663-113.2 165.25-93.848 258.52 29.416 143.2 61.264 285.03 131.03 405.49 78.832 88.945 168 124.76 279.77 44.268 179.87-139.67 257.64-330.39 286.86-545.38 37.696-217.2 28.411-432.06-28.332-644.54-150.39-188.85-322.6-170.43-501.11-92.077z"/><path id="path3857" fill="#8beedb" d="m2624.2 2894.2-191.24 963.27c26.298 91.137 67.092 158.12 113.33 216.03l-99.16 205.4-541.84 35.414c29.274-68.677 51.852-141.29 191.24-145.2-12.299-138.83-46.242-283.07-84.994-428.51-20.045-183.73-48.58-366.68 31.873-559.55 143.32-285.54 353.15-319.86 580.8-286.86z"/><path id="path3822" d="m2107.2 4165.5c-68.257 4.0502-138.86 10.355-191.24 120.41-196.8 413.5-267.4 802.45-250.4 1280.5 5.5726 156.76 62.491 211.6 154.79 221.47 166.03 17.74 329.88 13.624 495.8 3.1119 198.74-12.591 96.634-137.82 45.431-248.94-206.51-448.17-37.075-1136 198.93-1472.2" stroke="#49bbb7" stroke-width="54" fill="#8beedb"/><path id="path3814" fill="#49bbb7" d="m2543.6 2856.8c-10.817-0.1951-21.615-0.1566-32.375 0.125-172.17 4.5066-339.68 64.503-437.44 212.21-153.47 231.88-120.5 546.94-71.581 748.6 35.735 147.31 95.01 324.78 99.304 425.92 41.857-89.177-10.777-289.99-46.835-438.64-46.871-193.22-75.337-495.34 64.144-706.07 86.558-130.78 234.68-183.85 393.82-188.02 159.14-4.1656 342.58 58.374 470.83 154.11l-3.0839-68.081c-126.18-83.226-288.77-137.48-436.78-140.15z"/><path id="path3820" fill="#49bbb7" d="m2408.1 3763.1c-0.29 89.754 40.82 258.25 136.27 336.2 83.142 67.888 200.39 107.13 349.82 114.96l0.115-53.786c-141.64-6.6085-249.15-39.485-320.79-97.978-82.676-67.508-127.57-213.85-165.42-299.39z"/><path id="path3828" fill="#49bbb7" d="m3527.2 4062.2c-101.09 0.066-231.52 51.202-278.66 142.99 73.066-60.967 234.79-101.13 338.94-84.208 104.15 16.924 187.73 76.345 209.53 176.84 35.529 163.8 49.111 372.21 18.812 570.03s-104.33 384.26-240.59 508.66c-51.311 46.841-96.473 71.593-135.66 76.406-39.183 4.8129-75.364-7.7322-117-46-93.943-86.344-137.01-296.1-150.53-421.56-9.9665-92.448 8.1248-179.95 93.312-252.41 86.23-73.341 215.92-178.84 217.8-311.5-54.788 106.39-166.36 196.83-252.8 270.34-99.233 84.4-123.2 195.48-112 299.38 14.014 129.99 49.681 347.07 167.66 455.5 49.506 45.501 104.34 66.7 160.16 59.844 55.82-6.8565 109.65-39.167 165.47-90.125 148.84-135.87 226.05-334.61 257.56-540.38 31.516-205.77 17.518-419.39-19.406-589.62-27.013-124.54-133.58-199.17-253.66-218.69-22.515-3.6586-45.61-5.5153-68.938-5.5z"/><path id="path3830" fill="#49bbb7" d="m2870.9 4333.1c25.25 88.612 84.125 167.66 169.5 198.62 130.06 47.176 283.44 4.0258 407.38 6.0312l0.875-54c-135.83-2.198-283.88 35.645-389.81-2.7812-64.762-23.492-114.53-87.308-136-162.66-21.47-75.348-31.622-134.97 4.3011-195.45-70.32 49.305-81.488 121.62-56.239 210.23z"/><path id="path3832" fill="#49bbb7" d="m3238.7 4049c11.756 32.509 34.392 76.218 48.312 111.42l33.397-15.448c-14.652-37.049-46.404-70.58-81.709-95.971z"/></g><g transform="translate(286.77 -53.952)"><path id="path3814-9" fill="#2e74bc" d="m2729 2941c92.818 26.886 182.31 70.201 254.39 124l-3.0839-68.081c-82.83-54.633-181.35-96.783-281.14-120.05-147.89 332.22-242.41 811.04-108.14 1255.4 78.401 47.692 179.8 75.547 303.12 82.005l0.115-54.493c-112.92-5.2685-190.15-26.525-258.8-64.854-95.182-410.04-43-794.99 93.545-1153.9z"/><path id="path3830-1" fill="#49bbb7" d="m2870.9 4333.1c25.25 88.612 84.125 167.66 169.5 198.62 130.06 47.176 283.44 4.0258 407.38 6.0312l0.875-54c-135.83-2.198-283.88 35.645-389.81-2.7812-64.762-23.492-114.53-87.308-136-162.66-21.47-75.348-31.622-134.97 4.3011-195.45-70.32 49.305-81.488 121.62-56.239 210.23z"/></g><g transform="translate(286.77 -53.952)"><path id="path3903" fill="#8beedb" d="m2914.9 3270.5 139.29-2.2697c123.32 47.9 168.72 191.11 203.78 292.75-6.8852 116.67-9.0368 234.79-100.17 325.54-109.71 85.742-248.59 108.31-398.16 107.68-137.73-28.736-275.46-70.749-413.19-185.31-120.58-134.27-245.63-267.04-308.01-420.7-15.061-97.491-92.175-204.38 100.17-270.45 258.76-13.58 517.53 68.327 776.29 152.75z"/><path id="path3862" d="m3250.6 3695.4c-1.2495 8.3228-2.7655 16.456-4.5356 24.402-40.434 181.52-213.43 265.28-370.43 273.69-349.7 18.73-664.77-223.8-839.32-635.38-41.125-96.971-23.044-223.48 116.87-240.82 245.89-30.47 527 65.224 708.29 141.66-133.02 26.094-173.52 87.001-166.45 152.28-258.64-14.11-290.73 195.13-177.07 283.31-45.066 126.38 62.696 227.67 169.99 283.31" stroke="#49bbb7" stroke-width="54" fill="none"/><path id="path3864" d="m2174.4 3117.3c177.07 91.491 354.14 167.06 531.22 235.51" stroke="#49bbb7" stroke-width="34" fill="none"/><path id="path3866" d="m2022.2 3216.4 467.47 254.98" stroke="#49bbb7" stroke-width="34" fill="none"/><path id="path3868" d="m2078.8 3457.2 439.14 293.94" stroke="#49bbb7" stroke-width="34" fill="none"/><path id="path3862-1" fill="#49bbb7" d="m3051.1 3266.3c131.29 72.585 195.09 276.6 172.8 425.09-1.1569 7.7059-2.5562 15.208-4.1874 22.531l52.719 11.75c1.9089-8.5693 3.5329-17.31 4.875-26.25 24.405-162.56-68.261-400.53-226.2-433.12z"/></g><g transform="translate(286.77 -53.952)"><path id="path3928" fill="#8beedb" d="m4370.1 1286.3c166.75 267.67 170.63 585.89 63.746 938.48-23.461 76.343 12.258 115.7 63.746 145.2 51.13 35.23 146.61 48.286 74.37 145.2-61.397 186.74-275.67 265.47-524.13 321.27-223.11 24.727-481.64-12.066-669.33-84.994-141.59-144.94-319.41-202.91-497.87-259.36l-90.009-292.11c-86.73-234.28-167.49-469.64-152.28-722.45l456.85-559.55 396.64-24.79z"/><path id="path3906" fill="#49bbb7" d="m4442.2 1336.8-49.781 20.875c107.41 256.32 121.17 567.99 26.594 833.28-22.367 62.739-29.956 106.83-11.812 143.66 18.143 36.83 55.405 53.399 101.94 71.25 50.505 19.376 62.285 35.311 64.031 42.156 1.7464 6.8453-3.6817 21.247-16 43.469-118.74 214.19-322.38 303.75-545.88 322.07-223.5 18.318-504.76-19.652-666.45-78.39 113.77 104.03 435.85 151.46 670.85 132.2s460.19-117.82 588.72-349.69c12.402-22.374 29.658-49.342 21.062-83.031-8.5954-33.69-40.201-57.429-97-79.219-44.195-16.955-65.695-30.175-72.844-44.688-7.149-14.512-6.5386-43.344 14.25-101.66 99.596-279.37 85.082-603.17-27.688-872.28z"/><path id="path74" fill="#49bbb7" d="m2611.8 1521.9c-7.0364 303.6 121.92 573.29 196.94 839.34 69.468 246.38 144.52 546.65 178.69 741.44 21.648-195.86-57.322-509.95-126.72-756.09-76.754-272.21-201.6-536.04-194.94-823.44z"/><path id="path3920" fill="#49bbb7" d="m4482.5 2507.9c-24.185-10.702-43.079-25.637-43.823-55.092-36.319 45.473 11.209 69.289 43.823 55.092z"/><path id="path3922" fill="#49bbb7" d="m4187.8 2617.6c-42.488 0.018-93.792 32.518-106.02 73.05 29.381-25.87 74.552-39.647 105.97-39.41 18.311 0.1387 36.16 5.9411 51.367 17.829 55.227 43.172 130.24 45.192 193.88 33.375l-6.2-33.4c-58.054 10.781-123.17 7.324-166.72-26.719-21.554-16.849-46.757-24.698-72.25-24.687z"/></g><g transform="translate(286.77 -53.952)"><path id="path3951" clip-path="url(#clipPath3968)" fill="#fff" d="m3368.1 1682.8 753.76-7.5126c138.45 261.24 263.43 522.48-10.017 783.81-186.95 107.04-390.42 182.49-728.71 0-107.9-246.22-177.55-497.1-15.025-776.29z"/><path id="path3947" style="color:#000000" d="m4151.9 2072.2c0 202.61-90.253 366.86-201.59 366.86-111.33 0-201.59-164.25-201.59-366.86s90.253-366.86 201.59-366.86c111.33 0 201.59 164.25 201.59 366.86z" clip-path="url(#clipPath3964)" transform="matrix(1.0994 0 0 1 -375.05 7.5125)" fill="url(#linearGradient3982)"/><path id="path3949" style="color:#000000" d="m4116.9 2124.8c0 154.21-67.269 279.22-150.25 279.22s-150.25-125.01-150.25-279.22 67.269-279.22 150.25-279.22 150.25 125.01 150.25 279.22z" clip-path="url(#clipPath3960)" transform="matrix(1.1327 -.034425 .037189 1.0084 -585.29 93.683)"/><path id="path3972" style="color:#000000" d="m4001.8 1982.2c0 77.257-38.45 139.89-85.88 139.89s-85.88-62.629-85.88-139.89c0-77.257 38.45-139.89 85.88-139.89s85.88 62.63 85.88 139.89z" transform="matrix(.98245 .18653 -.18653 .98245 436.7 -704.5)" fill="#fff"/><path id="path3974" style="color:#000000" d="m4037.2 2162c0 21.026-13.874 38.07-30.988 38.07s-30.988-17.045-30.988-38.07c0-21.026 13.874-38.07 30.988-38.07s30.988 17.045 30.988 38.07z" transform="matrix(.92351 .38357 -.38357 .92351 1142.8 -1366)" fill="#fff"/></g><g transform="translate(286.77 -53.952)"><path id="path3985" d="m4267.4 1598c-20.747 57.503-43.354 96.966-115.1 102.7-223.92 17.9-530.73 38.848-694.12 42.497-85.293 1.9052-143.41-48.744-191.24-108.01-16.315 64.653 93.147 147.71 185.93 143.43 180.07-8.3012 475.87-24.092 710.06-42.497 75.112-5.903 130.45-23.518 104.47-138.12z"/><path id="path3987" d="m3413.9 1762.7c-19.762 54.007-28.393 96.504-39.43 150.51-4.7517-56.663-0.6563-101.82 12.869-158.48z"/><path id="path3989" d="m3385.6 1801.6c-72.895 0.3699-217.53-10.944-218.68 1.7707-1.1542 12.714 140.48 29.116 210.72 42.497z"/><path id="path3989-4" d="m3377.4 1869.8c-72.412 8.3828-214.28 13.041-214.03 25.805 0.2508 12.764 139.7 13.494 210.98 19.07z"/><path id="path4009" d="m3996.7 1734.1c101.24 98.377 129.95 223.01 125.21 384.39" stroke="#000" stroke-width="27" fill="none"/></g><g transform="translate(286.77 -53.952)"><path id="path4195" fill="#fefca2" d="m2647.4 1782.8 684.48 121.62c39.877 221.66 136.44 404.36 296.98 543.06 42.441 134.95 94.754 268.5 189.5 395.98-139.54-8.0724-279.07-33.417-418.61-79.196-153.03-102.27-325.25-172.56-500.63-237.59z"/><path id="path3906-2" fill="#2e74bc" d="m2665.7 1749.6-11.312 52.812c217.9 46.654 435.82 88.318 653.75 124.91 35.959 236.69 147.2 408.5 303.38 535.41 27.052 133.76 81.51 250.01 157.31 351.28-159.38-10.551-317.5-40.169-423.88-78.812 94.902 86.778 334.75 134.16 548.09 136.31-118.54-120.51-202.68-290.38-230.47-428.56l-1.875-9.8437-7.8437-6.2188c-155.68-123.83-262.54-288.19-294.03-526.41l-2.625-19.813-19.719-3.2812c-223.58-37.223-447.17-79.906-670.78-127.78z"/><path id="path4176" fill="#2e74bc" d="m2611.8 1521.9c-7.0364 303.6 121.92 573.29 196.94 839.34 69.468 246.38 144.52 546.65 178.69 741.44 21.648-195.86-57.322-509.95-126.72-756.09-76.754-272.21-201.6-536.04-194.94-823.44z"/></g><g transform="translate(286.77 -53.952)"><path id="path4046" fill="#f9db5a" d="m2461.1 461.19c224.64-19.644 434 13.447 619.93 127.49 211.57 122.45 332.09 296.93 403.72 499.34-152.03-29.473-305.8-51.098-471.01-21.249-99.879-196.88-308.92-218.02-474.55-240.82-138.2-16.772-260.6 13.832-378.93 56.663 77.737-142.36 145.93-285.51 300.84-421.43z"/><path id="path4044" fill="#f9db5a" d="m4271 1498.8c18.445-102.7 20.384-205.4 92.077-308.1 78.825-354.75-1.823-603.19-148.74-807.45-267.2-337.68-890.6-386.86-1381.2-173.45 296.44-4.1119 568.59 114.53 818.07 254.98 303.02 224.87 498.44 551.96 612.67 956.19z"/><path id="path4042" fill="#f9db5a" d="m4267.1 1507.5c0.3028-119.82 64.49-208.81 257.93-235.39 307.76 3.9378 467.19-162.28 548.41-418.2 35.635 278.85-7.4662 508.48-237.9 621.04-181.88 112.6-373.68 92.393-568.45 32.554z"/><path id="path4040" fill="#f8af06" d="m4620.2 1061.8c44.134-184.45 63.786-364.38-70.117-515.86-43.246 78.849-76.606 164.29-157.76 217.86 1.0759 146.91 4.2667 293.82-40.067 440.73 79.214-71.151 168.7-118.33 267.95-142.74z"/><path id="path4038" fill="#f8af06" d="m4277.1 1457.4c6.3462-133.3 45.273-252.88 177.8-333.06 222.29-47.934 383.71-178.21 515.86-348.08-0.079 107.03 9.0018 212.22-22.538 325.54-98.892 105.48-207.5 167.26-333.06 152.75-192.65 24.777-331.61 78.316-338.06 202.84z"/><path id="path4036" fill="#f8af06" d="m2466.6 460.77c96.871-104.84 222.84-181.47 373.12-252.92 351.06 19.21 659.79 129.37 924.04 355.59 224.2 223.1 420.13 493.8 518.36 929.05-129.14-46.511-226.69-135.14-338.06-205.34-152.75-92.74-305.51-156.79-458.26-202.84-66.085-205.79-201.39-390.09-460.77-535.89-193.5-88.037-378.26-106.21-558.43-87.646z"/><path id="path4026" fill="#f8af06" d="m2772.9 864.92-141.6 378.98c-416.86 363.8-335.26 799.68-357.69 1136.8-245.78-419.92-351.93-977.12-99.16-1498 208-103.62 403.61-64.757 598.5-17.707z"/><path id="path4012" d="m4267.4 1502.4c30.448-247.69 252.17-225.69 435.6-254.98 199.37-31.838 307.87-223.43 371.85-414.35 48.882 415-85.647 683.45-499.34 718.91-287.77 24.666-372.67-98.065-559.55-219.57-263.02-171-586.49-321.47-927.86-269.15-154.25 23.643-306.23 82.879-442.68 173.53-353.87 235.09-386.01 773.4-371.85 1154.5-164.5-252.8-390.8-899.6-106.2-1505.1 208-442.68 576.8-752.54 1182.8-800.4 702.5-55.473 1169.7 367.99 1007.5 1117" stroke="#cb7710" stroke-miterlimit="7" stroke-width="54" fill="none"/><path id="path4014" d="m4947.4 1095.1c24.837-112.15 32.913-224.29 17.707-336.44-69.043 113.65-204.78 251.71-335.9 294.8-220.24 72.372-326.77 139.94-340.51 360.37" stroke="#cb7710" stroke-width="54" fill="none"/><path id="path4016" d="m4605.2 1071.8c70.815-167.67 71.411-350.04-60.1-533.39-33.589 88.512-71.737 162.37-157.76 237.9" stroke="#cb7710" stroke-width="54" fill="none"/><path id="path4018" d="m4271 1449.3c-192.4-726.05-685.7-1221.4-1427.2-1232.5" stroke="#cb7710" stroke-width="34" fill="none"/><path id="path4020" d="m2457.8 465.59c517.06-70.664 893.81 242.83 1041.2 629.52" stroke="#cb7710" stroke-width="34" fill="none"/><path id="path4022" d="m2829.7 888.98c-201.2-80.84-459.9-100.36-656.1-7.51" stroke="#cb7710" stroke-width="34" fill="none"/><path id="path4024" d="m2744.6 981.64c-213.9-47.59-498.7 21.76-678.7 205.36" stroke="#cb7710" stroke-width="34" fill="none"/></g><g transform="translate(286.77 -53.952)"><path id="path4055" fill="#8beedb" d="m2574.6 1304.1c29.306 154.73 36.21 317.86 114.67 454.16l490.92-464.79 8.8536-166.45c-7.9294-164.2-46.987-318.02-125.72-458.62-47.569-49.232-98.823-57.969-155.82-3.5414-226.34 204.42-293.16 420.81-332.9 639.23z"/><path id="path4049" fill="#49bbb7" d="m2987.5 589.5c-5.4536-0.17973-10.834 0.15046-16.031 1-41.58 6.7963-70.448 37.052-95.438 61.188-325.68 314.55-421.3 728.03-187.34 1108.5-129.62-420.15-85.388-770 224.87-1069.7 24.532-23.694 49.721-43.956 66.625-46.719 8.4519-1.3815 15.245-0.63377 26.062 6.6562s24.988 22.407 40.469 49.188c93.434 161.63 131.34 460.91 130.78 589.49 57.033-131.85 18.009-440.01-84.028-616.52-18.081-31.278-36.426-53.051-57.031-66.938-15.454-10.415-32.577-15.648-48.938-16.188z"/><path id="path4057" fill="#49bbb7" d="m2819.6 938.04c-32.837 119.09-23.718 332.83 57.789 466.95-135.94-102.17-121.02-352.89-57.789-466.95z"/></g><g transform="translate(286.77 -53.952)"><path id="path4252" fill-opacity=".25098" d="m3843.8 283.75c154.8-19.552 199.24 61.073 212.13 141.42 18.629 116.06 99.93 184.52 220.62 203.65 120.57 19.103 222.28 48.733 288.5 113.14-33.3-220.49-142-396.99-356.3-511.95-153.1-54.05-264.1-11.83-364.9 53.74zm-113.14 398.81c330.7 56.831 547.58 182.47 709.94 494.97-148.3 25.757-302.52 24.062-458.21-90.51-129.46-107.49-196.91-252.19-251.73-404.47z"/><path id="path4202" style="color:#000000" d="m4463.3 766c0 249.15-141.2 451.13-315.37 451.13s-315.37-201.98-315.37-451.13 141.2-451.13 315.37-451.13 315.37 201.98 315.37 451.13z" fill-opacity=".50196" transform="matrix(.95215 -.58901 .59161 .95007 -262.47 2437.5)" fill="#fff"/><path id="path4198" fill="#3e3c44" d="m3594.9 860.75-1035.2 732.56 65.054 214.96 1086.1-763.68z"/><path id="path4228" fill="#8a792d" d="m3971.1 145.16c-127.21 10.424-396.92 23.353-456.06 286.76-59.138 263.41 105.89 713.03 386.52 791.56 280.63 78.526 384.79 42.552 529.66-4.929-142.61-6.4975-310.72-32.062-437.49-123.04-152.47-125.86-249.12-296.81-263.04-534.57-2.0563-166.14 132.49-296.77 240.42-415.78z"/><path id="path4226" fill="#8a792d" d="m3894 278c257.6-11.649 457.84 102.75 555.48 333.92 138.5 327.93 9 504.18-189.5 594.08 506.3-131.6 289.5-636.6 194-762-150.4-133.02-347.7-249.72-560-166z"/><path id="path4200" d="m3371.5 982.37c-61.768 152.08-13.647 244.66 186.68 189.5" stroke-opacity=".50196" clip-path="url(#clipPath4248)" stroke="#fff" stroke-width="24" fill="none"/><path id="path4204" fill="#dfd97e" d="m4000.3 142.31c-169.05 1.8154-287.2 110.91-306.34 328.12-26.931 305.54 117.56 604.76 387.47 729.72 269.9 124.96 527.03 8.9983 540.25-299.81 13.2-308.77-108.4-587.13-393.2-707.05-82.3-34.67-159.5-51.68-228.2-50.94zm33.406 126.75c144.35-1.5409 310.26 99.856 417.88 270.41 143.48 227.4 128.96 491.63-32.469 590.19-161.43 98.553-408.61-5.9121-552.09-233.31s-128.96-491.63 32.469-590.19c40.357-24.638 86.103-36.58 134.22-37.094z"/></g></svg>