<?xml version="1.0" encoding="UTF-8"?><svg xmlns="http://www.w3.org/2000/svg" xmlns:xlink="http://www.w3.org/1999/xlink" version="1.1" viewBox="0 0 5874.0068 5874.0005"><defs id="defs3000"><linearGradient id="linearGradient4217"><stop id="stop4219" stop-color="#3b76bc" offset="0"/><stop id="stop4221" stop-color="#265a8e" offset="1"/></linearGradient><clipPath id="clipPath4146" clipPathUnits="userSpaceOnUse"><path id="path4148" opacity=".5" d="m1228.4 2173.1c-88.928-271.95-127.27-690.38 137.75-868.33 161.27-108.28 371.05-110.72 526.2-22.627 251.3 616.19-109.45 1049.9-663.95 890.95z" stroke="#f00" stroke-width=".98693px" fill="#0f0"/></clipPath><clipPath id="clipPath4150" clipPathUnits="userSpaceOnUse"><path id="path4152" opacity=".5" d="m1287.9 2215.3c-89.616-265.84-128.25-674.87 138.81-848.81 162.51-105.85 373.92-108.23 530.27-22.119 253.24 602.34-110.29 1026.3-669.09 870.93z" stroke="#f00" stroke-width=".97955px" fill="#0f0"/></clipPath><clipPath id="clipPath4154" clipPathUnits="userSpaceOnUse"><path id="path4156" opacity=".5" d="m1230.4 2164.7c-91.299-271.95-130.66-690.38 141.42-868.33 165.57-108.28 380.95-110.72 540.23-22.627 258 616.19-112.36 1049.9-681.65 890.95z" stroke="#f00" stroke-width="1px" fill="#0f0"/></clipPath><clipPath id="clipPath4158" clipPathUnits="userSpaceOnUse"><path id="path4160" opacity=".5" d="m783.79 2082.6c-93.025-132.86-145.12-545.99-99.519-837.21 212.26-21.954 190.08 201.5 199.04 379.01-5.3906 161.31 42.144 338.95-99.519 458.21z" stroke="#f00" stroke-width=".96225px" fill="#0f0"/></clipPath><clipPath id="clipPath4162" clipPathUnits="userSpaceOnUse"><path id="path4164" opacity=".5" d="m846.53 2082.6c-118.2-132.8-184.39-546-126.45-837.2 269.69-21.954 241.51 201.5 252.89 379.01-6.8492 161.31 53.548 338.95-126.45 458.21z" stroke="#f00" stroke-width="1.0847px" fill="#0f0"/></clipPath><clipPath id="clipPath4166" clipPathUnits="userSpaceOnUse"><path id="path4168" opacity=".5" d="m780.65 2071.3c-100.47-132.86-156.73-545.99-107.48-837.21 229.24-21.954 205.28 201.5 214.96 379.01-5.8218 161.31 45.515 338.95-107.48 458.21z" stroke="#f00" stroke-width="1px" fill="#0f0"/></clipPath><clipPath id="clipPath4209" clipPathUnits="userSpaceOnUse"><path id="path4211" style="color:#000000" d="m1793.2 1956.8a301.23 369.11 0 1 1 -602.45 0 301.23 369.11 0 1 1 602.45 0z" transform="matrix(1.0188 0 0 1.023 -81.759 -101.55)" fill="#f00"/></clipPath><clipPath id="clipPath4213" clipPathUnits="userSpaceOnUse"><path id="path4215" style="color:#000000" d="m1793.2 1956.8a301.23 369.11 0 1 1 -602.45 0 301.23 369.11 0 1 1 602.45 0z" transform="matrix(1.0188 0 0 1.023 -81.759 -101.55)" fill="#f00"/></clipPath><linearGradient id="linearGradient4223" y2="1762.6" xlink:href="#linearGradient4217" gradientUnits="userSpaceOnUse" x2="1418" y1="2241.1" x1="1418"/><linearGradient id="linearGradient4231" y2="1628.4" xlink:href="#linearGradient4217" gradientUnits="userSpaceOnUse" x2="861.83" y1="2033.1" x1="861.83"/><clipPath id="clipPath4259" clipPathUnits="userSpaceOnUse"><path id="path4261" opacity=".5" d="m1230.4 2164.7c-91.299-271.95-130.66-690.38 141.42-868.33 165.57-108.28 380.95-110.72 540.23-22.627 258 616.19-112.36 1049.9-681.65 890.95z" stroke="#f00" stroke-width="1px" fill="#0f0"/></clipPath><clipPath id="clipPath4263" clipPathUnits="userSpaceOnUse"><path id="path4265" opacity=".5" d="m780.65 2071.3c-100.47-132.86-155.32-551.65-106.07-842.87 264.47-104.27 275.8 489.02 213.6 643.14-8.7039 74.331-35.421 143.52-107.54 199.73z" stroke="#f00" stroke-width="1px" fill="#0f0"/></clipPath><clipPath id="clipPath4259-8" clipPathUnits="userSpaceOnUse"><path id="path4261-0" opacity=".5" d="m1230.4 2164.7c-91.299-271.95-130.66-690.38 141.42-868.33 165.57-108.28 380.95-110.72 540.23-22.627 258 616.19-112.36 1049.9-681.65 890.95z" stroke="#f00" stroke-width="1px" fill="#0f0"/></clipPath><clipPath id="clipPath4263-2" clipPathUnits="userSpaceOnUse"><path id="path4265-0" opacity=".5" d="m780.65 2071.3c-100.47-132.86-155.32-551.65-106.07-842.87 264.47-104.27 275.8 489.02 213.6 643.14-8.7039 74.331-35.421 143.52-107.54 199.73z" stroke="#f00" stroke-width="1px" fill="#0f0"/></clipPath></defs><g transform="translate(223.26 -46.027)"><path id="path3943-1" fill="#6ecaf4" d="m1491 3575.6c-116.34-161.97-247.85-162.45-377.8-135.36-441.05 91.925-817.25 229.65-1006.1 551.54-52.172 88.92-81.283 181.98 42.426 220.21 131.98 40.785 264.58 39.59 404.06 12.122 159.86-31.481 274.52-124.64 327.29-230.31 38.192-76.489 96.62-139.72 180.99-206.03 203.1 243.9 443.3 215.9 646.2 138.2z"/><path id="path3943" fill="#449ed1" d="m1235.7 3402.5c-43.108-1.0955-85.862 5.0719-127.5 13.75-443.11 92.355-827.74 231.61-1022.2 563.12-26.967 45.962-50.152 94.146-48.094 142.56 1.0289 24.208 9.5841 48.62 27.25 68.375 17.666 19.754 43.322 34.628 77.188 45.094 136.53 42.191 273.79 40.762 416.03 12.75 166.67-32.822 287.94-130.18 344.47-243.41 39.072-78.251 148.64-198.46 194.31-236.82-70.338 13.641-194.64 127.82-238.15 214.95-49 98.136-157.05 187.08-310.09 217.22-136.73 26.926-264.67 27.878-392.09-11.5-27.989-8.6496-45.086-19.743-55.125-30.969s-14.177-22.799-14.812-37.75c-1.271-29.902 16.202-72.73 41.406-115.69 183.22-312.28 550.98-448.47 989.97-539.97 63.332-13.2 124.6-19.024 182.69-3.5312 58.089 15.493 114.6 51.778 170.22 129.22l39.781-28.594c-60.713-84.527-128.14-129.5-197.38-147.97-25.964-6.9249-51.947-10.186-77.812-10.844z"/><path id="path3945" d="m1064.8 3791.4c95.348 161.08 400.88 259.49 636.27 137.76" stroke="#449ed1" stroke-width="49" fill="none"/><path id="path3947" d="m2604.3 4039.4c310.53 448.22 332.68 1060.5 134.86 1372.9-86.182 136.07-51.026 164.67-4.8572 173.43 146.95 27.887 305.91 6.8511 460 5.7143l88.571-102.86c-21.932-560.16 60.7-1134.7-380-1637.1z" stroke="#449ed1" stroke-width="49" fill="#6ecaf4"/></g><g transform="translate(223.26 -46.027)" display="none"><path id="path3943-1-9" display="inline" fill="#fb98c9" d="m1491 3575.6c-116.34-161.97-247.85-162.45-377.8-135.36-441.05 91.925-817.25 229.65-1006.1 551.54-52.172 88.92-81.283 181.98 42.426 220.21 131.98 40.785 264.58 39.59 404.06 12.122 159.86-31.481 274.52-124.64 327.29-230.31 38.192-76.489 96.62-139.72 180.99-206.03 203.1 243.94 443.25 215.88 646.15 138.2z"/><path id="path3943-4" fill="#f38fc0" d="m1235.7 3402.5c-43.108-1.0955-85.862 5.0719-127.5 13.75-443.11 92.355-827.74 231.61-1022.2 563.13-26.967 45.962-50.152 94.146-48.094 142.56 1.0289 24.208 9.5841 48.62 27.25 68.375 17.666 19.754 43.322 34.628 77.188 45.094 136.53 42.191 273.79 40.762 416.03 12.75 166.67-32.822 287.94-130.18 344.47-243.41 39.072-78.251 148.64-198.46 194.31-236.82-70.338 13.641-194.64 127.82-238.15 214.95-49 98.136-157.05 187.08-310.09 217.22-136.73 26.926-264.67 27.878-392.09-11.5-27.989-8.6496-45.086-19.743-55.125-30.969s-14.177-22.799-14.812-37.75c-1.271-29.902 16.202-72.73 41.406-115.69 183.22-312.28 550.98-448.47 989.97-539.97 63.332-13.2 124.6-19.024 182.69-3.5312 58.089 15.493 114.6 51.779 170.22 129.22l39.781-28.594c-60.713-84.527-128.14-129.5-197.38-147.97-25.964-6.9249-51.947-10.186-77.812-10.844z"/><path id="path3945-6" d="m1064.8 3791.4c95.348 161.08 400.88 259.49 636.27 137.76" display="inline" stroke="#f38fc0" stroke-width="49" fill="none"/><path id="path3947-0" d="m2604.3 4039.4c310.53 448.22 332.68 1060.5 134.86 1372.9-86.182 136.07-51.026 164.67-4.8572 173.43 146.95 27.887 305.91 6.8511 460 5.7143l88.571-102.86c-21.932-560.16 60.7-1134.7-380-1637.1z" display="inline" stroke="#f38fc0" stroke-width="49" fill="#fb98c9"/></g><g transform="translate(223.26 -46.027)"><path id="path3975-7" fill="#fcb3d7" d="m3264 3100.9c68.178-173.03 171.8-289.37 311.13-350.72 139.32-61.352 490.16-30.62 520.43 308.3 30.271 338.92-183.34 631.02-268.7 1021.1-85.362 390.04 7.1747 868.46 263.04 1097.4 255.87 228.97 634.87 192.05 888.13 42.426 253.25-149.62 440.88-413.31 373.35-746.7-56.953 136.93-160.98 243.2-294.16 282.84-133.17 39.642-269.74 21.703-325.27-130.11-55.532-151.81-28.216-286.32 115.97-551.54 144.18-265.22 473.49-789.23 263.04-1366.1-210.45-576.9-1025.3-663.39-1425.5-444.06-400.24 219.33-515.93 425.73-613.77 681.65z"/><path id="path3977" fill="#fcd4e8" d="m5102.5 3530.8c-74.164-39.921-166.1-45.489-260.22-25.456-79.09 16.836-129-27.548-119.62-147.28 21.815-278.45-402.7-381.91-630.74-133.22l-39.255 178.88c214.19-159.07 411.38-52.103 366.04 124.94-53.602 209.27-15.486 406.14 225.59 350.04 116.93-27.214 242.59-27.207 280.01 56.568z"/><path id="path3975" d="m3264 3100.9c68.178-173.03 171.8-289.37 311.13-350.72 139.32-61.352 490.16-30.62 520.43 308.3 30.271 338.92-183.34 631.02-268.7 1021.1-85.362 390.04 7.1747 868.46 263.04 1097.4 255.87 228.97 634.87 192.05 888.13 42.426 253.25-149.62 440.88-413.31 373.35-746.7-56.953 136.93-160.98 243.2-294.16 282.84-133.17 39.642-269.74 21.703-325.27-130.11-55.532-151.81-28.216-286.32 115.97-551.54 144.18-265.22 473.49-789.23 263.04-1366.1-210.45-576.9-1025.3-663.39-1425.5-444.06-400.24 219.33-515.93 425.73-613.77 681.65z" stroke="#f38fc0" stroke-width="49" fill="none"/></g><g transform="translate(223.26 -46.027)" display="none"><path id="path3975-7-3" display="inline" fill="#7bd7fc" d="m3264 3100.9c68.178-173.03 171.8-289.37 311.13-350.72 139.32-61.352 490.16-30.62 520.43 308.3 30.271 338.92-183.34 631.02-268.7 1021.1-85.362 390.04 7.1747 868.46 263.04 1097.4 255.87 228.97 634.87 192.05 888.13 42.426 253.25-149.62 440.88-413.31 373.35-746.7-56.953 136.93-160.98 243.2-294.16 282.84-133.17 39.642-269.74 21.703-325.27-130.11-55.532-151.81-28.216-286.32 115.97-551.54 144.18-265.22 473.49-789.23 263.04-1366.1-210.45-576.9-1025.3-663.39-1425.5-444.06-400.24 219.33-515.93 425.73-613.77 681.65z"/><path id="path3977-6" display="inline" fill="#b9e4f5" d="m5102.5 3530.8c-74.164-39.921-166.1-45.489-260.22-25.456-79.09 16.836-129-27.548-119.62-147.28 21.815-278.45-402.7-381.91-630.74-133.22l-39.255 178.88c214.19-159.07 411.38-52.103 366.04 124.94-53.602 209.27-15.486 406.14 225.59 350.04 116.93-27.214 242.59-27.207 280.01 56.568z"/><path id="path3975-2" d="m3264 3100.9c68.178-173.03 171.8-289.37 311.13-350.72 139.32-61.352 490.16-30.62 520.43 308.3 30.271 338.92-183.34 631.02-268.7 1021.1-85.362 390.04 7.1747 868.46 263.04 1097.4 255.87 228.97 634.87 192.05 888.13 42.426 253.25-149.62 440.88-413.31 373.35-746.7-56.953 136.93-160.98 243.2-294.16 282.84-133.17 39.642-269.74 21.703-325.27-130.11-55.532-151.81-28.216-286.32 115.97-551.54 144.18-265.22 473.49-789.23 263.04-1366.1-210.45-576.9-1025.3-663.39-1425.5-444.06-400.24 219.33-515.93 425.73-613.77 681.65z" display="inline" stroke="#449ed1" stroke-width="49" fill="none"/></g><g transform="translate(223.26 -46.027)"><path id="path4046" fill="#7bd7fc" d="m1656 2444c-200.47 402.26-345.45 806.83-188 1224 140.92 280.14 335.45 464.98 612 504l424 12c149.65-15.358 284.03-61.28 396-152l172 444 528-8c-59.278-120.15-45.208-284.95-264-308l108-484c22.559-213.29 25.317-427.29-160-648-219.65-259.21-422.86-164.76-628-112-126.67 32.099-253.33 69.194-380 168 28.269-418.67 149.69-837.33 240-1256z"/><path id="path4022-4" fill="#7bd7fc" d="m2409.8 3983.3c286.44 510.22 310.65 1156.9 291.33 1699.9-4.6194 129.83-75.783 191.56-195.16 200.82-170.23 13.206-341.78 18.3-511.95-2.8283-78.141-9.7023-140.36-51.522-50.912-223.45 161.39-310.2 207.08-1038.4 135.76-1660.3"/><path id="path3998" d="m1648 2476c-189.5 339.7-316.6 789.7-204.4 1120.8 112.2 331.2 395.9 536.6 648.4 571.2" stroke="#449ed1" stroke-width="49" fill="none"/><path id="path4000" fill="#449ed1" d="m2352.7 2439.5c-55.169 160.59-127.7 623.89-60.271 833.72 10.864-197.47 55.63-669.38 106.62-817.78z"/><path id="path4014" d="m3336 4172c160.21-12.562 170.48 86.141 210 168 165.42 342.66 235.31 861.44 192 1286-9.1162 89.362-87.218 148.98-216 162-156.94 15.873-310.98 31.439-472 2-74.281-13.581-113.37-64.99-48-166 200.48-309.78 216.83-1050-128-1574" stroke="#449ed1" stroke-width="49" fill="#7bd7fc"/><path id="path4016" fill="#449ed1" d="m3045.3 3583.9c-14.524 139.01-59.367 308.01-138.06 401.08-78.696 93.071-205.76 151.61-402.16 174.72l5.75 48.688c203.56-23.948 340.83-88.542 429.81-193.78 88.986-105.24 121.18-299.72 104.66-430.71z"/><path id="path4022" fill="#449ed1" d="m2397 3979.7c36.004 70.851 74.135 177.56 106.72 262.79 174.17 455.57 189.2 983.56 172.97 1439.8-2.1555 60.586-19.136 101.35-47.25 129.06-28.114 27.715-69.434 43.853-125.31 48.188-169.45 13.145-339.34 18.134-507.03-2.6876-17.794-2.2093-33.68-6.2856-45.281-12.281-11.601-5.9956-18.849-13-23.5-23.906-9.3019-21.812-6.6797-68.479 36.594-151.66 145.06-278.81 189.4-858.29 153.5-1414.6-5.6563-87.655-11.4-194.68-17.777-256.32-24.377 64.356-36.735 172.6-31.129 259.48 35.58 551.38-14.28 1131.7-148.06 1388.8-46.171 88.747-57.167 149-38.187 193.5 9.4898 22.252 26.816 38.272 46.062 48.219s40.474 14.733 61.75 17.375c172.64 21.436 345.84 16.204 516.84 2.9376 63.5-4.9261 117.47-24.267 155.94-62.188 38.467-37.921 59.349-92.942 61.812-162.19 16.318-458.64 2.1365-992.61-176.19-1459.1-33.361-87.264-82.472-188.14-152.47-245.29z"/><path id="path4008-4" fill="#449ed1" d="m2631.7 2893.7c-134.62 40.274-258.53 96.859-363.09 181.25l30.75 38.125c100.88-81.421 222.88-136.38 357.54-175.63z"/><path id="path4006" d="m1530.2 2717.6c-46.387 101.95-81.982 206.77-96.166 305.37 297.32 130.25 687.74 149.34 944.69-1.3137l-19.799-195.16c-268.33-7.7503-549.78-53.329-828.73-108.89z" stroke="#bcdfd9" stroke-width="49" fill="#fff"/><path id="path4048" style="color:#000000" d="m1745.1 2909.2c0 52.721-26.593 95.459-59.397 95.459s-59.397-42.739-59.397-95.459c0-52.721 26.593-95.459 59.397-95.459s59.397 42.739 59.397 95.459z" transform="matrix(.89730 .44142 -.44142 .89730 1448.8 -455.24)" fill="#f38fc0"/><path id="path4050" style="color:#000000" d="m1707 2868.9c0 17.183-9.1809 31.113-20.506 31.113s-20.506-13.93-20.506-31.113 9.1809-31.113 20.506-31.113 20.506 13.93 20.506 31.113z" transform="matrix(.95132 .30821 -.30821 .95132 966.35 -384.36)" fill="#fcb3d7"/></g><g transform="translate(223.26 -46.027)" display="none"><path id="path4046-4" display="inline" fill="#fcb3d7" d="m1656 2444c-200.47 402.26-345.45 806.83-188 1224 140.92 280.14 335.45 464.98 612 504l424 12c149.65-15.358 284.03-61.28 396-152l172 444 528-8c-59.278-120.15-45.208-284.95-264-308l108-484c22.559-213.29 25.317-427.29-160-648-219.65-259.21-422.86-164.76-628-112-126.67 32.099-253.33 69.194-380 168 28.269-418.67 149.69-837.33 240-1256z"/><path id="path4022-4-5" display="inline" fill="#fcb3d7" d="m2409.8 3983.3c286.44 510.22 310.65 1156.9 291.33 1699.9-4.6194 129.83-75.783 191.56-195.16 200.82-170.23 13.206-341.78 18.3-511.95-2.8283-78.141-9.7023-140.36-51.522-50.912-223.45 161.39-310.2 207.08-1038.4 135.76-1660.3"/><path id="path3998-8" d="m1648 2476c-189.5 339.7-316.6 789.7-204.4 1120.8 112.2 331.2 395.9 536.6 648.4 571.2" display="inline" stroke="#f38fc0" stroke-width="49" fill="none"/><path id="path4000-8" fill="#f38fc0" d="m2352.7 2439.5c-55.169 160.59-127.7 623.89-60.271 833.72 10.864-197.47 55.63-669.38 106.62-817.78z"/><path id="path4014-1" d="m3336 4172c160.21-12.562 170.48 86.141 210 168 165.42 342.66 235.31 861.44 192 1286-9.1162 89.362-87.218 148.98-216 162-156.94 15.873-310.98 31.439-472 2-74.281-13.581-113.37-64.99-48-166 200.48-309.78 216.83-1050-128-1574" display="inline" stroke="#f38fc0" stroke-width="49" fill="#fcb3d7"/><path id="path4016-2" fill="#f38fc0" d="m3045.3 3583.9c-14.524 139.01-59.367 308.01-138.06 401.08-78.696 93.071-205.76 151.61-402.16 174.72l5.75 48.688c203.56-23.948 340.83-88.542 429.81-193.78 88.986-105.24 121.18-299.72 104.66-430.71z"/><path id="path4022-1" fill="#f38fc0" d="m2397 3979.7c36.004 70.851 74.135 177.56 106.72 262.79 174.17 455.57 189.2 983.56 172.97 1439.8-2.1555 60.586-19.136 101.35-47.25 129.06-28.114 27.715-69.434 43.853-125.31 48.188-169.45 13.145-339.34 18.134-507.03-2.6876-17.794-2.2093-33.68-6.2856-45.281-12.281-11.601-5.9956-18.849-13-23.5-23.906-9.3019-21.812-6.6797-68.479 36.594-151.66 145.06-278.81 189.4-858.29 153.5-1414.6-5.6563-87.655-11.4-194.68-17.777-256.32-24.377 64.356-36.735 172.6-31.129 259.48 35.58 551.38-14.28 1131.7-148.06 1388.8-46.171 88.747-57.167 149-38.187 193.5 9.4898 22.252 26.816 38.272 46.062 48.219s40.474 14.733 61.75 17.375c172.64 21.436 345.84 16.204 516.84 2.9376 63.5-4.9261 117.47-24.267 155.94-62.188 38.467-37.921 59.349-92.942 61.812-162.19 16.318-458.64 2.1365-992.61-176.19-1459.1-33.361-87.264-82.472-188.14-152.47-245.29z"/><path id="path4008-4-4" fill="#f38fc0" d="m2631.7 2893.7c-134.62 40.274-258.53 96.859-363.09 181.25l30.75 38.125c100.88-81.421 222.88-136.38 357.54-175.63z"/><path id="path4006-9" d="m1530.2 2717.6c-46.387 101.95-81.982 206.77-96.166 305.37 297.32 130.25 687.74 149.34 944.69-1.3137l-19.799-195.16c-268.33-7.7503-549.78-53.329-828.73-108.89z" display="inline" stroke="#bcdfd9" stroke-width="49" fill="#fff"/><path id="path4048-8" style="color:#000000" d="m1745.1 2909.2c0 52.721-26.593 95.459-59.397 95.459s-59.397-42.739-59.397-95.459c0-52.721 26.593-95.459 59.397-95.459s59.397 42.739 59.397 95.459z" transform="matrix(.89730 .44142 -.44142 .89730 1448.8 -455.24)" display="inline" fill="#449ed1"/><path id="path4050-2" style="color:#000000" d="m1707 2868.9c0 17.183-9.1809 31.113-20.506 31.113s-20.506-13.93-20.506-31.113 9.1809-31.113 20.506-31.113 20.506 13.93 20.506 31.113z" transform="matrix(.95132 .30821 -.30821 .95132 966.35 -384.36)" display="inline" fill="#7bd7fc"/></g><g transform="translate(223.26 -46.027)"><path id="path3861" fill="#fff" d="m3318.2 3623.2c-115.17 45.107-228.64 0.2463-281.06-245.55 31.365-0.8925 48.712 11.442 68.546 21.429-13.564-38.095-25.24-76.19-28.327-114.29 49.574 2.186 80.944 32.45 108.52 68.571l-4.7299-102.86 71.833 85.714-22.026-151.43c68.089 46.758 82.717 101.6 102.13 155.71l-1.3544-88.571c28.618 25.502 50.457 55.456 67.482 88.571 24.394 8.3796 43.668 32.798 62.054 60l-11.336 212.86c-48.004 17.478-90.218 14.878-131.73 9.8335z"/><path id="path3829" d="m3312.1 3621.9c41.787-79.836 76.27-148.35 144.59-207.04l0.7939 191.43c-45.413 19.676-96.698 27.35-145.38 15.613z" stroke="#f38fc0" stroke-width="19" fill="none"/><path id="path3831" d="m3310.4 3626.5c-172.17 52.326-244.18-100.69-276.36-254.56 111.7 33.638 250.45 129.53 276.36 254.56z" stroke="#f38fc0" stroke-width="19" fill="none"/><path id="path3833" d="m3305.4 3608.3c17.389-126.41 23.507-232.9 19.618-359.61 63.903 69.316 92.734 123.97 83.232 220.21" stroke="#f38fc0" stroke-width="19" fill="none"/><path id="path3835" d="m3317.3 3509.3c-22.616-100.09-77.846-185.22-141.24-252.92-1.514 72.731 10.983 145.29 39.21 218.02" stroke="#f38fc0" stroke-width="19" fill="none"/><path id="path3837" d="m3245.7 3344.4c-8.2847-63.782-11.854-101.41-26.996-155.89 45.107 23.416 90.884 80.021 107.39 145.81" stroke="#f38fc0" stroke-width="19" fill="none"/><path id="path3839" d="m3183.4 3358.9c-16.685-28.543-57.579-63.902-107.07-78.949 1.9419 45.021 15.704 91.904 36.497 124.13" stroke="#f38fc0" stroke-width="19" fill="none"/><path id="path3841" d="m3388.5 3327c30.33 20.06 54.713 53.498 64.345 96.414" stroke="#f38fc0" stroke-width="19" fill="none"/><path id="path4008" fill="#449ed1" d="m2932 2834.8c-29.14 0.3651-59.298 3.324-90.469 9.1562-74.52 13.943-147.32 30.742-217.18 52.017l20.387 45.121c65.809-19.765 134.74-35.657 205.79-48.95 114.23-21.374 209.14-1.3494 290.12 45.75 80.99 47.099 147.99 122.21 201.31 211.84 125.16 210.4 104.42 490.6 39.906 719.53-36.165 128.33-73.861 271.23-45.223 389.19 14.638-124.04 56.402-248.24 92.379-375.91 66.567-236.21 91.075-529.23-44.938-757.88-56.378-94.774-128.42-176.61-218.78-229.16-67.768-39.41-145.89-61.814-233.31-60.719z"/></g><g transform="translate(223.26 -46.027)" display="none"><path id="path3861-2" display="inline" fill="#fff" d="m3318.2 3623.2c-115.17 45.107-228.64 0.2463-281.06-245.55 31.365-0.8925 48.712 11.442 68.546 21.429-13.564-38.095-25.24-76.19-28.327-114.29 49.574 2.186 80.944 32.45 108.52 68.571l-4.7299-102.86 71.833 85.714-22.026-151.43c68.089 46.758 82.717 101.6 102.13 155.71l-1.3544-88.571c28.618 25.502 50.457 55.456 67.482 88.571 24.394 8.3796 43.668 32.798 62.054 60l-11.336 212.86c-48.004 17.478-90.218 14.878-131.73 9.8335z"/><path id="path3829-9" d="m3312.1 3621.9c41.787-79.836 76.27-148.35 144.59-207.04l0.7939 191.43c-45.413 19.676-96.698 27.35-145.38 15.613z" display="inline" stroke="#449ed1" stroke-width="19" fill="none"/><path id="path3831-9" d="m3310.4 3626.5c-172.17 52.326-244.18-100.69-276.36-254.56 111.7 33.638 250.45 129.53 276.36 254.56z" display="inline" stroke="#449ed1" stroke-width="19" fill="none"/><path id="path3833-8" d="m3305.4 3608.3c17.389-126.41 23.507-232.9 19.618-359.61 63.903 69.316 92.734 123.97 83.232 220.21" display="inline" stroke="#449ed1" stroke-width="19" fill="none"/><path id="path3835-3" d="m3317.3 3509.3c-22.616-100.09-77.846-185.22-141.24-252.92-1.514 72.731 10.983 145.29 39.21 218.02" display="inline" stroke="#449ed1" stroke-width="19" fill="none"/><path id="path3837-8" d="m3245.7 3344.4c-8.2847-63.782-11.854-101.41-26.996-155.89 45.107 23.416 90.884 80.021 107.39 145.81" display="inline" stroke="#449ed1" stroke-width="19" fill="none"/><path id="path3839-6" d="m3183.4 3358.9c-16.685-28.543-57.579-63.902-107.07-78.949 1.9419 45.021 15.704 91.904 36.497 124.13" display="inline" stroke="#449ed1" stroke-width="19" fill="none"/><path id="path3841-9" d="m3388.5 3327c30.33 20.06 54.713 53.498 64.345 96.414" display="inline" stroke="#449ed1" stroke-width="19" fill="none"/><path id="path4008-8" fill="#f38fc0" d="m2932 2834.8c-29.14 0.3651-59.298 3.324-90.469 9.1562-74.52 13.943-147.32 30.742-217.18 52.017l20.387 45.121c65.809-19.765 134.74-35.657 205.79-48.95 114.23-21.374 209.14-1.3494 290.12 45.75 80.99 47.099 147.99 122.21 201.31 211.84 125.16 210.4 104.42 490.6 39.906 719.53-36.165 128.33-73.861 271.23-45.223 389.19 14.638-124.04 56.402-248.24 92.379-375.91 66.567-236.21 91.075-529.23-44.938-757.88-56.378-94.774-128.42-176.61-218.78-229.16-67.768-39.41-145.89-61.814-233.31-60.719z"/></g><g transform="translate(223.26 -46.027)"><path id="path4067" fill="#7bd7fc" d="m776 988c-195.13 363.4-165.38 733.9-20 1108-127.13 19.427-150.56 71.854-112 144 11.042 99.82 69.122 121.24 124 148 54.895 17.621 109.79 9.9628 164.69-17.657 129.61-53.6 195.01 9 227.31 97.7l-208 76c338.79 40.841 671.72 19.207 988-180l628-400-64-592-620-512z"/><path id="path4065" fill="#fff" d="m851 2391 128 135 195-61c-38.167-55.916-70.608-120.42-155-107z"/><path id="path4063" fill="#b9dce6" d="m1093 2377c-33.887 24.333-75.669 48.667-131 73 62.885-14.579 113.17-34.198 163-54z"/><path id="path4061" d="m851 2392c40.646 53.904 85.041 94.688 131 130" stroke="#b9dce6" stroke-width="21" fill="none"/><path id="path4053" fill="#449ed1" d="m685.84 2090.6c-40.286 12.302-66.466 37.032-77.031 65.531-10.566 28.499-6.6289 57.837 2.125 82.187 21.237 59.073 52.362 109.42 102.62 145.53 59.907 43.038 126.55 33.297 187.09 13.469 95.143-31.161 148.73-28.5 180.53-12.844 26.117 12.858 42.2 36.453 56.062 67.844-60.294 25.883-118.1 42.828-182.56 60.031l-90.75 24.219 91 23.219c181.72 46.366 384.64 33.044 564.44-6.9062s306.33-100.44 428.16-194.31c-148.29 67.343-264.41 107.73-438.78 146.47-141.62 31.466-330.72 44.37-475.97 25.125 37.504-12.12 94.38-26.92 133.47-43.875l20.812-9.5938-8.1563-21.375c-17.327-45.408-45.884-83.509-83.062-101.81-37.178-18.303-105.87-21.167-206.5 13.25-50.87 17.398-108.39 5.2771-146.91-22.531-41.012-29.608-66.283-69.362-85.375-122.47-5.9844-16.646-7.4733-34.673-2.3125-48.594 5.1608-13.92 15.86-26.665 45.406-35.688 70.516-21.534 163.07-71.949 170.73-183.17-44.663 78.288-120.67 116.63-185.04 136.29z"/><path id="path4059" fill="#449ed1" d="m791.96 2226.9c45.321 4.8473 80.75-3.7954 84.853-55.154 34.23 80.732-34.389 100.54-84.853 55.154z"/><path id="path4069" d="m806.1 962.57c-234.05 301.73-204.88 850.73-45.25 1122.9" stroke="#449ed1" stroke-width="49" fill="none"/></g><g transform="translate(223.26 -46.027)" display="none"><path id="path4067-6" display="inline" fill="#fcb3d7" d="m776 988c-195.13 363.44-165.38 733.92-20 1108-127.13 19.427-150.56 71.854-112 144 11.042 99.82 69.122 121.24 124 148 54.895 17.621 109.79 9.9628 164.69-17.657 129.61-53.6 195.01 9 227.31 97.7l-208 76c338.79 40.841 671.72 19.207 988-180l628-400-64-592-620-512z"/><path id="path4065-6" display="inline" fill="#fff" d="m851 2391 128 135 195-61c-38.167-55.916-70.608-120.42-155-107z"/><path id="path4063-2" display="inline" fill="#b9dce6" d="m1093 2377c-33.887 24.333-75.669 48.667-131 73 62.885-14.579 113.17-34.198 163-54z"/><path id="path4061-3" d="m851 2392c40.646 53.904 85.041 94.688 131 130" display="inline" stroke="#b9dce6" stroke-width="21" fill="none"/><path id="path4053-8" fill="#f38fc0" d="m685.84 2090.6c-40.286 12.302-66.466 37.032-77.031 65.531-10.566 28.499-6.6289 57.837 2.125 82.187 21.237 59.073 52.362 109.42 102.62 145.53 59.907 43.038 126.55 33.297 187.09 13.469 95.143-31.161 148.73-28.5 180.53-12.844 26.117 12.858 42.2 36.453 56.062 67.844-60.294 25.883-118.1 42.828-182.56 60.031l-90.75 24.219 91 23.219c181.72 46.366 384.64 33.044 564.44-6.9062s306.33-100.44 428.16-194.31c-148.29 67.343-264.41 107.73-438.78 146.47-141.62 31.466-330.72 44.37-475.97 25.125 37.504-12.12 94.38-26.92 133.47-43.875l20.812-9.5938-8.1563-21.375c-17.327-45.408-45.884-83.509-83.062-101.81-37.178-18.303-105.87-21.167-206.5 13.25-50.87 17.398-108.39 5.2771-146.91-22.531-41.012-29.608-66.283-69.362-85.375-122.47-5.9844-16.646-7.4733-34.673-2.3125-48.594 5.1608-13.92 15.86-26.665 45.406-35.688 70.516-21.534 163.07-71.949 170.73-183.17-44.663 78.288-120.67 116.63-185.04 136.29z"/><path id="path4059-2" display="inline" fill="#f38fc0" d="m791.96 2226.9c45.321 4.8473 80.75-3.7954 84.853-55.154 34.23 80.732-34.389 100.54-84.853 55.154z"/><path id="path4069-6" d="m806.1 962.57c-234.05 301.73-204.88 850.73-45.25 1122.9" display="inline" stroke="#f38fc0" stroke-width="49" fill="none"/></g><g transform="translate(223.26 -46.027)"><path id="path4074-0" fill="#fcb3d7" d="m1349.2 261.12c337.6-215.27 801.3-254.71 1193.6-84.85s560.52 628.2 550.37 890.95c-65.263-104.99-118.55-186.68-253.39-305.47 341.04 560.35 267.64 1200.4 93.338 1634.8-115.69 288.37-235.67 605.25 62.225 947.52-213.07-50.186-349.68-219.31-497.8-370.52 2.7619 120.68 37.677 244.19 84.853 342.24-354.32-293.02-332.64-822.17-186.68-1171-72.108 47.175-160.02 85.374-243.24 87.681 222.35-290.87 385.81-589.25 257.39-924.9l-843-811.72z"/><path id="path4094" fill="#fcd4e8" d="m3074 1736c-111.3 35.501-220.08 37.241-250-100-37.337-171.24-272-130.13-374 10l-24 102c130.84-8.5791 200.79 20.368 230 148 31.531 137.76 149.03 313.88 376 190z"/><path id="path4074" d="m1346.2 261.12c337.6-215.27 804.3-254.71 1196.6-84.85s560.52 628.2 550.37 890.95c-65.263-104.99-118.55-186.68-253.39-305.47 341.04 560.35 267.64 1200.4 93.338 1634.8-115.69 288.37-235.67 605.25 62.225 947.52-213.07-50.186-349.68-219.31-497.8-370.52 2.7619 120.68 37.677 244.19 84.853 342.24-385.43-309.99-332.64-822.17-186.68-1171-72.108 47.175-160.02 85.374-243.24 87.681 222.35-290.87 385.81-589.25 257.39-924.9" stroke="#f38fc0" stroke-miterlimit="9" stroke-width="49" fill="none"/><path id="path4072" d="m1944 1048c-445.2-69.88-825.3-73.3-1188-31.5 69.89-284.38 303.6-578.68 622.3-776.33 261.4 114.69 516 251.78 701.7 403.83z" stroke="#bcdfd9" stroke-width="49" fill="#fff"/></g><g transform="translate(223.26 -46.027)" display="none"><path id="path4074-0-2" display="inline" fill="#7bd7fc" d="m1349.2 261.12c337.6-215.27 801.3-254.71 1193.6-84.85s560.52 628.2 550.37 890.95c-65.263-104.99-118.55-186.68-253.39-305.47 341.04 560.35 267.64 1200.4 93.338 1634.8-115.69 288.37-235.67 605.25 62.225 947.52-213.07-50.186-349.68-219.31-497.8-370.52 2.7619 120.68 37.677 244.19 84.853 342.24-354.32-293.02-332.64-822.17-186.68-1171-72.108 47.175-160.02 85.374-243.24 87.681 222.35-290.87 385.81-589.25 257.39-924.9l-843-811.72z"/><path id="path4094-7" display="inline" fill="#b9e4f5" d="m3074 1736c-111.3 35.501-220.08 37.241-250-100-37.337-171.24-272-130.13-374 10l-24 102c130.84-8.5791 200.79 20.368 230 148 31.531 137.76 149.03 313.88 376 190z"/><path id="path4074-5" d="m1346.2 261.12c337.6-215.27 804.3-254.71 1196.6-84.85s560.52 628.2 550.37 890.95c-65.263-104.99-118.55-186.68-253.39-305.47 341.04 560.35 267.64 1200.4 93.338 1634.8-115.69 288.37-235.67 605.25 62.225 947.52-213.07-50.186-349.68-219.31-497.8-370.52 2.7619 120.68 37.677 244.19 84.853 342.24-385.43-309.99-332.64-822.17-186.68-1171-72.108 47.175-160.02 85.374-243.24 87.681 222.35-290.87 385.81-589.25 257.39-924.9" display="inline" stroke="#449ed1" stroke-miterlimit="9" stroke-width="49" fill="none"/><path id="path4072-7" d="m1944 1048c-445.2-69.88-825.3-73.3-1188-31.5 69.89-284.38 303.6-578.68 622.3-776.33 261.4 114.69 516 251.78 701.7 403.83z" display="inline" stroke="#bcdfd9" stroke-width="49" fill="#fff"/></g><g transform="translate(223.26 -46.027)"><path id="path4105" fill="#7bd7fc" d="m2362 1524c229.26-248.22 278.89-709.78 30.849-1113-88.049-103.42-174.02-144.42-254.56-22.627-168.73 235.7-209.93 464.69-237.59 692.96 0 0 461.56 452.52 461.3 442.63z"/><path id="path4097" fill="#449ed1" d="m2245.3 284.84c-24.796 1.1684-46.557 12.93-65.25 28.938s-35.438 36.588-52.906 59.938c-165.89 221.74-238.98 532.95-222.79 717.62 26.186-185.33 102.97-475.65 262.04-688.28 16.638-22.239 31.845-40.342 45.531-52.062s24.746-16.703 35.688-17.219c10.942-0.5156 24.421 3.252 43.594 17.375s42.878 38.406 70.906 74.812c126.57 164.4 175.66 377.12 166.06 577.59-9.5989 200.48-60.533 383.93-171.05 520.6 145.48-91.324 209.93-308.19 219.99-518.26 10.058-210.07-40.929-434.12-176.19-609.81-29.675-38.546-55.65-65.955-80.656-84.375s-50.173-28.043-74.969-26.875z"/><path id="path4103" fill="#449ed1" d="m2310 642c32.623 164.34 21.703 458.35-42 578 91.297-91.11 130.03-426.22 42-578z"/></g><g transform="translate(223.26 -46.027)" display="none"><path id="path4105-8" display="inline" fill="#fcb3d7" d="m2362 1524c229.26-248.22 278.89-709.78 30.849-1113-88.049-103.42-174.02-144.42-254.56-22.627-168.73 235.7-209.93 464.69-237.59 692.96 0 0 461.56 452.52 461.3 442.63z"/><path id="path4097-2" fill="#f38fc0" d="m2245.3 284.84c-24.796 1.1684-46.557 12.93-65.25 28.938s-35.438 36.588-52.906 59.938c-165.89 221.74-238.98 532.95-222.79 717.62 26.186-185.33 102.97-475.65 262.04-688.28 16.638-22.239 31.845-40.342 45.531-52.062s24.746-16.703 35.688-17.219c10.942-0.5156 24.421 3.252 43.594 17.375s42.878 38.406 70.906 74.812c126.57 164.4 175.66 377.12 166.06 577.59-9.5989 200.48-60.533 383.93-171.05 520.6 145.48-91.324 209.93-308.19 219.99-518.26 10.058-210.07-40.929-434.12-176.19-609.81-29.675-38.546-55.65-65.955-80.656-84.375s-50.173-28.043-74.969-26.875z"/><path id="path4103-7" display="inline" fill="#f38fc0" d="m2310 642c32.623 164.34 21.703 458.35-42 578 91.297-91.11 130.03-426.22 42-578z"/></g><g transform="translate(223.26 -46.027)"><path id="path4302" d="m1964.3 1522.6c48.531-87.478 126.47-141.95 205.06-188.09-68.793 5.1228-175.39 49.596-207.89 140.01z"/><path id="path4304" d="m1967.2 1604.6c86.545-84.226 175.56-104.11 265.87-90.51-92.019 28.376-183.28 55.689-253.14 135.76z"/><path id="path4306" d="m1970 1716.3c93.744-24.389 203.23-24.583 263.04 7.0711-90.038 7.2707-180.08 4.4916-270.11 43.841z"/><path id="path4308" d="m1923.3 1898.8c123.88-20.955 196.74 19.022 261.63 65.054-86.758-21.543-172.16-46.33-277.19-24.042z"/></g><g transform="translate(223.26 -46.027)"><path id="path4135" clip-path="url(#clipPath4154)" fill="#fff" d="m1951.6 1270.9c210.11 374.21 80.569 630.85-96.166 871.16-201.68 103.16-409.81 176.19-656.2 70.711-40.232-500.65 4.8338-946.57 752.36-941.87z"/><path id="path4133" clip-path="url(#clipPath4166)" fill="#fff" d="m763.68 2093.9c171.09-82.62 229.31-520.14-53.74-879.64-174.09 149.05-93.773 579.78 53.74 879.64z"/><path id="path4125" style="color:#000000" d="m1793.2 1956.8c0 203.85-134.86 369.11-301.23 369.11-166.36 0-301.23-165.26-301.23-369.11s134.86-369.11 301.23-369.11c166.36 0 301.23 165.26 301.23 369.11z" clip-path="url(#clipPath4150)" transform="matrix(1.0188 0 0 1.023 -81.759 -101.55)" fill="url(#linearGradient4223)"/><path id="path4129" style="color:#000000" d="m1029.5 1862c0 201.51-88.643 364.87-197.99 364.87s-197.99-163.36-197.99-364.87 88.643-364.87 197.99-364.87 197.99 163.36 197.99 364.87z" clip-path="url(#clipPath4162)" transform="matrix(.85 0 0 1 61.094 -11.314)" fill="url(#linearGradient4231)"/><path id="path4131" style="color:#000000" d="m893.78 1888.9c0 146.06-47.487 264.46-106.07 264.46-58.579 0-106.07-118.4-106.07-264.46s47.487-264.46 106.07-264.46c58.579 0 106.07 118.4 106.07 264.46z" clip-path="url(#clipPath4158)" transform="matrix(1.08 0 0 1 -65.846 -11.314)"/><path id="path4174" clip-path="url(#clipPath4213)" fill="#76ade6" d="m1546 2060 140 86 58-122-176-14z"/><path id="path4176" clip-path="url(#clipPath4209)" fill="#5790ca" d="m1566 2024 172 22 18-98-194 20z"/><path id="path4180" style="color:#000000" d="m890 1730c0 58.542-25.52 106-57 106s-57-47.458-57-106 25.52-106 57-106 57 47.458 57 106z" transform="matrix(.82747 -.32278 .31382 .96724 -395.18 326.56)" fill="#fff"/><path id="path4182" style="color:#000000" d="m834 1918c0 17.673-10.297 32-23 32s-23-14.327-23-32 10.297-32 23-32 23 14.327 23 32z" transform="matrix(.94828 -.31744 .31744 .94828 -548.9 368.65)" fill="#fff"/><path id="path4127" style="color:#000000" d="m1578.3 1961c0 139.03-94.975 251.73-212.13 251.73s-212.13-112.7-212.13-251.73 94.975-251.73 212.13-251.73 212.13 112.7 212.13 251.73z" clip-path="url(#clipPath4146)" transform="matrix(1.0267 0 0 1 -30.773 -8.4853)"/><path id="path4170" style="color:#000000" d="m1552 1873c0 83.395-39.399 151-88 151s-88-67.605-88-151 39.399-151 88-151 88 67.605 88 151z" transform="matrix(.86658 -.37448 .36463 .88946 -499.62 742.28)" fill="#fff"/><path id="path4172" style="color:#000000" d="m1434 2070c0 25.405-15.222 46-34 46s-34-20.595-34-46 15.222-46 34-46 34 20.595 34 46z" transform="matrix(.80418 -.59439 .59439 .80418 -960.24 1231.5)" fill="#fff"/></g><g opacity=".5" transform="translate(223.26 -46.027)" stroke="#f00" stroke-width="1px" display="none" fill="#0f0"><path id="path4108" d="m1230.4 2164.7c-91.299-271.95-130.66-690.38 141.42-868.33 165.57-108.28 380.95-110.72 540.23-22.627 258 616.19-112.36 1049.9-681.65 890.95z"/><path id="path4110" d="m780.65 2071.3c-100.47-132.86-156.73-545.99-107.48-837.21 229.24-21.954 205.28 201.5 214.96 379.01-5.8218 161.31 45.515 338.95-107.48 458.21z"/></g><g transform="translate(223.26 -46.027)"><path id="path4246" clip-path="url(#clipPath4259)" fill="#b9e4f5" d="m1965.8 1273.7c-378.22-0.098-648.03 116.57-732.56 432.75-63.033 160.28-6.6679 320.56-2.8284 480.83-204.99-309.54-82.253-634.68 19.799-958.84 243.75-60.621 486.64-108.76 715.59 45.255z"/><path id="path4248" clip-path="url(#clipPath4263)" fill="#b9e4f5" d="m890.95 1850.7c-10.621-219.43-11.001-568.16-237.59-596.8 16.424-110.45 103.05-121.45 209.3-104.65 43.778 218.93 191.31 392.9 28.284 701.45z"/><path id="path4267" d="m836.97 2022.1c74.06-166.4 59.14-432.7-26.73-610.1-28.55-59-72.35-137.9-146.24-116-2.0094 30.737-5.6172 63.775-7.1604 96.396-70.23-3.9-150.23-16.9-186.84-82.4 61.152 40.474 106.75 48.08 159.41 43.536 7.2907-43.713 8.0153-91.164 31.373-116.22 62.29-44.2 130.1 27.3 177.22 156.7 44.852 123.15 113.61 453.5-1.0294 628.1z"/><path id="path4269" d="m646.3 1294.9c-55.298-16.95-96.965-58.24-125.87-122.33-3.3824 90.84 54.876 125.04 120.21 152.74z"/><path id="path4271" d="m678.12 1235.5c-44.913-37.949-81.935-83.126-85.56-154.86-26.506 76.784 16.491 137.42 60.811 182.43z"/><path id="path4273" d="m1230.4 2164.7c-15.233-185.94-28.163-385.75 85.064-563.04 91.1-142.9 223.1-246.4 486.5-275.7 168.99-18.778 379.38-10.463 413.72-169.17-91.5 86.2-232.3 100.6-411.7 103.2-230.79 3.3985-442.25 39.197-562 332-78.846 192.79-60.273 376.55-11.634 572.65z"/><path id="path4275" d="m1874 1270c90.217-58.335 136.56-129.83 174-204 4.9482 85.073-30.292 152.92-100 206z"/><path id="path4277" d="m1732 1294c70.92-75.868 128.57-152.84 136-234 37.314 90.661-10.816 169.59-68 222z"/><path id="path4279" d="m1608 1302c60.683-82.446 40.043-158.61 40-236 51.06 62 61.729 152 18 228z"/><path id="path4281" d="m1478 1120c15.686 78.21 8.9063 172.46-34 242l60-32c28.152-52.177 43.953-136.6-26-210z"/><path id="path4053-0" fill="#449ed1" d="m685.84 2090.6c-40.286 12.302-66.466 37.032-77.031 65.531-10.566 28.499-6.6289 57.837 2.125 82.187l46.125-16.562c-5.9844-16.646-7.4733-34.673-2.3125-48.594 5.1608-13.92 15.86-26.665 45.406-35.688 70.516-21.534 163.07-71.949 170.73-183.17-44.663 78.288-120.67 116.63-185.04 136.29z"/></g><g transform="translate(223.26 -46.027)" display="none"><path id="path4246-8" d="m1965.8 1273.7c-378.22-0.098-648.03 116.57-732.56 432.75-63.033 160.28-6.6679 320.56-2.8284 480.83-204.99-309.54-82.253-634.68 19.799-958.84 243.75-60.621 486.64-108.76 715.59 45.255z" clip-path="url(#clipPath4259-8)" display="inline" fill="#fcd4e8"/><path id="path4248-9" d="m890.95 1850.7c-10.621-219.43-11.001-568.16-237.59-596.8 16.424-110.45 103.05-121.45 209.3-104.65 43.778 218.93 191.31 392.9 28.284 701.45z" clip-path="url(#clipPath4263-2)" display="inline" fill="#fcd4e8"/><path id="path4267-2" display="inline" d="m836.97 2022.1c74.06-166.4 59.14-432.7-26.73-610.1-28.55-59-72.35-137.9-146.24-116-2.0094 30.737-5.6172 63.775-7.1604 96.396-70.23-3.9-150.23-16.9-186.84-82.4 61.152 40.474 106.75 48.08 159.41 43.536 7.2907-43.713 8.0153-91.164 31.373-116.22 62.29-44.2 130.1 27.3 177.22 156.7 44.852 123.15 113.61 453.5-1.0294 628.1z"/><path id="path4269-8" display="inline" d="m646.3 1294.9c-55.298-16.95-96.965-58.24-125.87-122.33-3.3824 90.84 54.876 125.04 120.21 152.74z"/><path id="path4271-2" display="inline" d="m678.12 1235.5c-44.913-37.949-81.935-83.126-85.56-154.86-26.506 76.784 16.491 137.42 60.811 182.43z"/><path id="path4273-0" display="inline" d="m1230.4 2164.7c-15.233-185.94-28.163-385.75 85.064-563.04 91.1-142.9 223.1-246.4 486.5-275.7 168.99-18.778 379.38-10.463 413.72-169.17-91.5 86.2-232.3 100.6-411.7 103.2-230.79 3.3985-442.25 39.197-562 332-78.846 192.79-60.273 376.55-11.634 572.65z"/><path id="path4275-5" display="inline" d="m1874 1270c90.217-58.335 136.56-129.83 174-204 4.9482 85.073-30.292 152.92-100 206z"/><path id="path4277-5" display="inline" d="m1732 1294c70.92-75.868 128.57-152.84 136-234 37.314 90.661-10.816 169.59-68 222z"/><path id="path4279-2" display="inline" d="m1608 1302c60.683-82.446 40.043-158.61 40-236 51.06 62 61.729 152 18 228z"/><path id="path4281-7" display="inline" d="m1478 1120c15.686 78.21 8.9063 172.46-34 242l60-32c28.152-52.177 43.953-136.6-26-210z"/><path id="path4053-0-6" fill="#f38fc0" d="m685.84 2090.6c-40.286 12.302-66.466 37.032-77.031 65.531-10.566 28.499-6.6289 57.837 2.125 82.187l46.125-16.562c-5.9844-16.646-7.4733-34.673-2.3125-48.594 5.1608-13.92 15.86-26.665 45.406-35.688 70.516-21.534 163.07-71.949 170.73-183.17-44.663 78.288-120.67 116.63-185.04 136.29z"/></g></svg>