<?xml version="1.0" encoding="UTF-8" standalone="no"?>
<!-- Created with Inkscape (http://www.inkscape.org/) -->

<svg
   xmlns:dc="http://purl.org/dc/elements/1.1/"
   xmlns:cc="http://creativecommons.org/ns#"
   xmlns:rdf="http://www.w3.org/1999/02/22-rdf-syntax-ns#"
   xmlns:svg="http://www.w3.org/2000/svg"
   xmlns="http://www.w3.org/2000/svg"
   xmlns:xlink="http://www.w3.org/1999/xlink"
   xmlns:sodipodi="http://sodipodi.sourceforge.net/DTD/sodipodi-0.dtd"
   xmlns:inkscape="http://www.inkscape.org/namespaces/inkscape"
   width="5881.46"
   height="5881.4565"
   id="svg2"
   version="1.1"
   inkscape:version="0.48.4 r9939"
   sodipodi:docname="Mrs Harshwhinny.svg">
  <title
     id="title3764">Mrs Harshwhinny</title>
  <defs
     id="defs4">
    <linearGradient
       id="linearGradient4095">
      <stop
         style="stop-color:#7fe4e9;stop-opacity:1;"
         offset="0"
         id="stop4097" />
      <stop
         style="stop-color:#194478;stop-opacity:1;"
         offset="1"
         id="stop4099" />
    </linearGradient>
    <clipPath
       clipPathUnits="userSpaceOnUse"
       id="clipPath3955">
      <path
         style="opacity:0.5;fill:#00ff00;fill-opacity:1;stroke:#ff0000;stroke-width:0.93408471px;stroke-linecap:butt;stroke-linejoin:miter;stroke-opacity:1"
         d="m 1211.8235,1736.923 c -22.7794,115.6153 7.9323,200.2674 89.0955,255.7156 72.8871,-62.3546 100.2468,-134.9578 114.1535,-210.5892 -67.7497,11.0306 -135.4993,-13.1194 -203.249,-45.1264 z"
         id="path3957"
         inkscape:connector-curvature="0"
         sodipodi:nodetypes="cccc" />
    </clipPath>
    <clipPath
       clipPathUnits="userSpaceOnUse"
       id="clipPath3959">
      <path
         style="opacity:0.5;fill:#00ff00;fill-opacity:1;stroke:#ff0000;stroke-width:0.88023198px;stroke-linecap:butt;stroke-linejoin:miter;stroke-opacity:1"
         d="m 1216.2315,1731.5737 c -35.966,105.1996 -17.7677,187.2507 51.5172,247.4687 76.3439,-50.3109 111.197,-114.9889 133.79,-183.9123 -65.0527,3.0832 -125.6746,-26.5799 -185.3072,-63.5564 z"
         id="path3961"
         inkscape:connector-curvature="0"
         sodipodi:nodetypes="cccc" />
    </clipPath>
    <clipPath
       clipPathUnits="userSpaceOnUse"
       id="clipPath3963">
      <path
         style="opacity:0.5;fill:#00ff00;fill-opacity:1;stroke:#ff0000;stroke-width:1px;stroke-linecap:butt;stroke-linejoin:miter;stroke-opacity:1"
         d="m 1180.8683,1707.8618 c -23.141,130.4378 8.0582,225.9427 90.5097,288.4996 74.044,-70.3487 101.838,-152.26 115.9655,-237.5878 -68.8251,12.4448 -137.6501,-14.8013 -206.4752,-50.9118 z"
         id="path3965"
         inkscape:connector-curvature="0"
         sodipodi:nodetypes="cccc" />
    </clipPath>
    <clipPath
       clipPathUnits="userSpaceOnUse"
       id="clipPath3967">
      <path
         style="opacity:0.5;fill:#00ff00;fill-opacity:1;stroke:#ff0000;stroke-width:0.95547771px;stroke-linecap:butt;stroke-linejoin:miter;stroke-opacity:1"
         d="m 1597.1016,1791.8506 c 25.4817,266.5957 418.5488,286.7881 603.2612,238.7674 183.7478,-47.7346 310.2035,-128.4782 253.8625,-314.5405 -279.8514,60.9053 -570.8045,72.9144 -857.1237,75.7731 z"
         id="path3969"
         inkscape:connector-curvature="0"
         sodipodi:nodetypes="cccc" />
    </clipPath>
    <clipPath
       clipPathUnits="userSpaceOnUse"
       id="clipPath3971">
      <path
         style="opacity:0.5;fill:#00ff00;fill-opacity:1;stroke:#ff0000;stroke-width:0.89491123px;stroke-linecap:butt;stroke-linejoin:miter;stroke-opacity:1"
         d="m 1635.4818,1770.5861 c -3.7338,264.2586 341.7564,311.3813 509.776,276.901 167.1386,-34.2655 286.8813,-105.0025 255.4022,-292.1058 -253.3934,40.5732 -511.7847,32.2332 -765.1782,15.2048 z"
         id="path3973"
         inkscape:connector-curvature="0"
         sodipodi:nodetypes="cccc" />
    </clipPath>
    <clipPath
       clipPathUnits="userSpaceOnUse"
       id="clipPath3975">
      <path
         style="opacity:0.5;fill:#00ff00;fill-opacity:1;stroke:#ff0000;stroke-width:0.84913486px;stroke-linecap:butt;stroke-linejoin:miter;stroke-opacity:1"
         d="m 1578.8921,1841.5802 c -4.0629,218.6425 371.8816,257.631 554.7117,229.1026 181.8716,-28.3506 312.1694,-86.877 277.9154,-241.6828 -275.7295,33.5695 -556.8975,26.6692 -832.6271,12.5802 z"
         id="path3977"
         inkscape:connector-curvature="0"
         sodipodi:nodetypes="cccc" />
    </clipPath>
    <clipPath
       clipPathUnits="userSpaceOnUse"
       id="clipPath3979">
      <path
         style="opacity:0.5;fill:#00ff00;fill-opacity:1;stroke:#ff0000;stroke-width:1px;stroke-linecap:butt;stroke-linejoin:miter;stroke-opacity:1"
         d="m 1583.9191,1758.7736 c -4.2262,291.5233 386.8232,343.5079 576.9992,305.4701 C 2350.0972,2026.4429 2485.6302,1948.4076 2450,1742 c -286.808,44.7593 -579.2729,35.5589 -866.0809,16.7736 z"
         id="path3981"
         inkscape:connector-curvature="0"
         sodipodi:nodetypes="cccc" />
    </clipPath>
    <linearGradient
       inkscape:collect="always"
       xlink:href="#linearGradient4095"
       id="linearGradient4101"
       x1="1899.7219"
       y1="2032.4261"
       x2="1941.069"
       y2="1809.6875"
       gradientUnits="userSpaceOnUse" />
    <linearGradient
       inkscape:collect="always"
       xlink:href="#linearGradient4095"
       id="linearGradient4109"
       x1="1281.299"
       y1="1923.5391"
       x2="1294.0054"
       y2="1731.2061"
       gradientUnits="userSpaceOnUse" />
    <clipPath
       clipPathUnits="userSpaceOnUse"
       id="clipPath898">
      <path
         style="fill:#00ff00;fill-opacity:1;stroke:#ff0000;stroke-opacity:1"
         d="M 154.3514,323.48112 C 202.74584,462.68676 350.44827,577.10285 443.34975,568.1445 488.20014,563.81964 532.243,553.52885 568.1445,512.31527 632.48838,438.4509 636.91135,250.21134 573.07061,155.99343 415.88945,192.06533 272.26677,239.4177 154.3514,323.48112 z"
         id="path900"
         inkscape:connector-curvature="0"
         sodipodi:nodetypes="csscc" />
    </clipPath>
    <clipPath
       clipPathUnits="userSpaceOnUse"
       id="clipPath876">
      <path
         style="fill:#00ff00;fill-opacity:1;stroke:#ff0000;stroke-opacity:1"
         d="m 490.9688,853.85878 c 92.48267,-8.56868 166.25743,-24.62543 236.4532,-88.66995 22.89416,13.86023 44.56738,28.28906 63.30322,49.64959 9.54039,10.8769 14.68601,18.98896 -0.13417,29.73473 -95.46213,69.21738 -197.79954,101.18245 -304.54836,111.09187 -12.33344,1.1449 -24.68176,-4.28731 -21.34647,-21.34646 5.04669,-25.81253 11.66785,-51.69079 26.27258,-80.45978 z"
         id="path878"
         inkscape:connector-curvature="0"
         sodipodi:nodetypes="ccssssc" />
    </clipPath>
  </defs>
  <sodipodi:namedview
     id="base"
     pagecolor="#ffffff"
     bordercolor="#666666"
     borderopacity="1.0"
     inkscape:pageopacity="0.0"
     inkscape:pageshadow="2"
     inkscape:zoom="0.1767767"
     inkscape:cx="2494.2811"
     inkscape:cy="4215.9876"
     inkscape:document-units="px"
     inkscape:current-layer="layer6"
     showgrid="false"
     fit-margin-top="36"
     fit-margin-left="735.19"
     fit-margin-right="735.19"
     fit-margin-bottom="0"
     inkscape:window-width="1920"
     inkscape:window-height="1028"
     inkscape:window-x="1272"
     inkscape:window-y="217"
     inkscape:window-maximized="1"
     inkscape:object-paths="true"
     inkscape:snap-global="false" />
  <metadata
     id="metadata7">
    <rdf:RDF>
      <cc:Work
         rdf:about="">
        <dc:format>image/svg+xml</dc:format>
        <dc:type
           rdf:resource="http://purl.org/dc/dcmitype/StillImage" />
        <dc:title>Mrs Harshwhinny</dc:title>
      </cc:Work>
    </rdf:RDF>
  </metadata>
  <g
     inkscape:groupmode="layer"
     id="layer16"
     inkscape:label="Background"
     sodipodi:insensitive="true"
     style="display:none"
     transform="translate(572.45415,-72)">
    <rect
       style="color:#000000;fill:#000000;fill-opacity:1;fill-rule:nonzero;stroke:#00ff00;stroke-width:1;stroke-linecap:butt;stroke-linejoin:miter;stroke-miterlimit:4;stroke-opacity:1;stroke-dasharray:none;stroke-dashoffset:0;marker:none;visibility:visible;display:inline;overflow:visible;enable-background:accumulate"
       id="rect4173"
       width="4740.4438"
       height="6064.1479"
       x="-11.313708"
       y="-18.892914" />
  </g>
  <g
     inkscape:groupmode="layer"
     id="layer6"
     inkscape:label="Shadow"
     style="opacity:0.2;display:none"
     sodipodi:insensitive="true"
     transform="translate(572.45415,-72)">
    <path
       sodipodi:type="arc"
       style="color:#000000;fill:#000000;fill-opacity:1;fill-rule:nonzero;stroke:none;stroke-width:1px;marker:none;visibility:visible;display:inline;overflow:visible;enable-background:accumulate"
       id="path3801"
       sodipodi:cx="1714.2858"
       sodipodi:cy="5665.7144"
       sodipodi:rx="1571.4286"
       sodipodi:ry="168.57143"
       d="m 3285.7144,5665.7144 c 0,93.0994 -703.5526,168.5714 -1571.4286,168.5714 -867.87608,0 -1571.42862,-75.472 -1571.42862,-168.5714 0,-93.0995 703.55254,-168.5715 1571.42862,-168.5715 867.876,0 1571.4286,75.472 1571.4286,168.5715 z"
       transform="matrix(1.0109091,0,0,1.3559322,-24.415585,-1956.6102)" />
  </g>
  <g
     inkscape:groupmode="layer"
     id="layer2"
     inkscape:label="Rear Legs"
     style="display:inline"
     sodipodi:insensitive="true"
     transform="translate(572.45415,-72)">
    <path
       style="fill:#895297;fill-opacity:1;stroke:none"
       d="m 1388,3352 -442,148 c -36.33935,239.6928 -147.99408,315.4639 -274,360 65.27855,84.7152 140.91141,153.6264 306,86 l 426,-176 z"
       id="path4125"
       inkscape:connector-curvature="0"
       sodipodi:nodetypes="cccccc" />
    <path
       style="fill:#c17b48;fill-opacity:1;stroke:#aa5c2e;stroke-width:44;stroke-linecap:butt;stroke-linejoin:miter;stroke-miterlimit:4;stroke-opacity:1;stroke-dasharray:none"
       d="m 2008.5714,4240 c -175.7243,351.0577 -255.7093,743.4386 -240,1185.7143 5.3106,149.5124 99.2941,187.9865 180,194.2857 115.1595,8.9883 230.4762,-10.1656 345.7143,-28.5714 L 2380,5497.1429 c -20.574,-486.9537 -46.8323,-975.3353 200.0287,-1328.5715"
       id="path3769"
       inkscape:connector-curvature="0"
       sodipodi:nodetypes="cssccc" />
    <path
       style="fill:#d88b53;fill-opacity:1;stroke:#aa5c2e;stroke-width:44;stroke-linecap:butt;stroke-linejoin:miter;stroke-miterlimit:4;stroke-opacity:1;stroke-dasharray:none"
       d="m 806.10173,3369.5628 c -39.51524,-68.408 -25.79024,-149.7336 -2.0203,-234.3554 19.98144,-71.1346 12.88779,-142.3109 -38.3858,-197.9899 -86.57485,-94.0133 -209.49665,-152.0498 -345.47217,-163.6447 -105.84929,-9.026 -189.58289,49.2453 -220.21326,177.7868 -69.22949,290.5243 107.78493,603.1834 311.12699,735.3911"
       id="path3771"
       inkscape:connector-curvature="0"
       sodipodi:nodetypes="cssssc" />
    <path
       style="fill:#aa5c2e;fill-opacity:1;stroke:none"
       d="m 288.90363,2914.9941 c -21.53517,232.3154 289.79333,267.9633 408.10163,236.3757 -164.35772,-32.1409 -332.72869,-57.6717 -408.10163,-236.3757 z"
       id="path3773"
       inkscape:connector-curvature="0"
       sodipodi:nodetypes="ccc" />
    <path
       style="fill:#895297;fill-opacity:1;stroke:#5e3e75;stroke-width:44;stroke-linecap:butt;stroke-linejoin:miter;stroke-miterlimit:4;stroke-opacity:1;stroke-dasharray:none"
       d="m 814.78905,3272.5881 c -95.65673,323.8064 -255.37827,379.6359 -432.95139,381.8377 51.04439,76.9014 105.7674,153.4585 159.6041,216.1726 187.20135,10.3152 350.24169,-75.0377 404.06102,-369.7158 -39.21988,-72.2182 -80.8862,-145.4686 -130.71373,-228.2945 z"
       id="path3777"
       inkscape:connector-curvature="0"
       sodipodi:nodetypes="ccccc" />
    <path
       style="fill:none;stroke:#5e3e75;stroke-width:44;stroke-linecap:butt;stroke-linejoin:miter;stroke-miterlimit:4;stroke-opacity:1;stroke-dasharray:none"
       d="M 947.52309,3502.9029 C 1099.046,3451.7218 1250.5688,3400.5407 1402.0917,3349.3597"
       id="path3779"
       inkscape:connector-curvature="0"
       sodipodi:nodetypes="cc" />
    <path
       style="fill:none;stroke:#5e3e75;stroke-width:44;stroke-linecap:butt;stroke-linejoin:miter;stroke-miterlimit:4;stroke-opacity:1;stroke-dasharray:none"
       d="m 1394.0105,3777.6644 c -147.348,66.8043 -292.7611,128.8282 -452.54833,179.8072 -120.54842,38.4601 -209.90418,-15.0994 -274.76149,-94.9544"
       id="path3781"
       inkscape:connector-curvature="0"
       sodipodi:nodetypes="csc" />
    <path
       sodipodi:type="arc"
       style="color:#000000;fill:#f9c54e;fill-opacity:1;fill-rule:nonzero;stroke:#bd872f;stroke-width:27.99829292;stroke-miterlimit:4;stroke-opacity:1;stroke-dasharray:none;marker:none;visibility:visible;display:inline;overflow:visible;enable-background:accumulate"
       id="path3775"
       sodipodi:cx="870.75146"
       sodipodi:cy="3477.6492"
       sodipodi:rx="38.385796"
       sodipodi:ry="69.700523"
       d="m 909.13726,3477.6492 c 0,38.4945 -17.18591,69.7005 -38.3858,69.7005 -21.19988,0 -38.38579,-31.206 -38.38579,-69.7005 0,-38.4946 17.18591,-69.7006 38.38579,-69.7006 21.19989,0 38.3858,31.206 38.3858,69.7006 z"
       transform="matrix(0.72644517,-0.73831792,0.73827275,0.72648961,-2331.2757,1592.0581)" />
  </g>
  <g
     inkscape:groupmode="layer"
     id="layer4"
     inkscape:label="Rear Mane"
     style="display:inline"
     sodipodi:insensitive="true"
     transform="translate(572.45415,-72)">
    <path
       style="fill:#f3e081;fill-opacity:1;stroke:#d8b862;stroke-width:44;stroke-linecap:butt;stroke-linejoin:miter;stroke-miterlimit:9;stroke-opacity:1;stroke-dasharray:none"
       d="m 2783.9804,2343.2478 c 435.2691,-191.6313 629.8839,-713.1522 262.6397,-981.8683 l -136.1686,-5.6568 -466.6905,1632.0024 229.1026,59.397 c 43.0695,-97.1093 111.6117,-216.2187 123.8234,-313.328 l -81.397,89.8822 70.8285,-189.9066 -161.3381,107.8823 z"
       id="path3785"
       inkscape:connector-curvature="0"
       sodipodi:nodetypes="cccccccccc" />
  </g>
  <g
     inkscape:groupmode="layer"
     id="layer3"
     inkscape:label="Tail"
     style="display:inline"
     sodipodi:insensitive="true"
     transform="translate(572.45415,-72)">
    <path
       style="fill:#f3e081;fill-opacity:1;stroke:#d8b862;stroke-width:44;stroke-linecap:butt;stroke-linejoin:miter;stroke-miterlimit:7;stroke-opacity:1;stroke-dasharray:none"
       d="m 2831.4286,2994.2857 c 102.7123,-525.5839 432.5819,-811.6995 837.1429,-720 404.5609,91.6995 532.1765,350.3319 605.7142,620 73.5377,269.668 26.6699,511.7299 -45.7142,742.8571 -72.3842,231.1273 61.0914,370.1977 257.1428,351.4286 -97.4077,142.4851 -219.7859,142.9756 -380,34.2858 92.9171,187.1018 295.7917,209.5833 445.7143,100 13.496,277.8146 -329.1524,300.9206 -534.2857,162.857 40.263,124.9651 137.848,167.3939 268.5714,160.0001 -243.9739,145.135 -491.7868,152.926 -728.5715,-25.7143 -236.7846,-178.6403 -354.9832,-596.2513 -268.5714,-888.5714 86.4118,-292.32 92.2224,-447.6649 -51.4285,-537.1428 C 3093.492,2904.8079 2962.3386,2984.451 2914.2857,3120 z"
       id="path3787"
       inkscape:connector-curvature="0"
       sodipodi:nodetypes="czzzccccczzzcc" />
  </g>
  <g
     inkscape:groupmode="layer"
     id="layer5"
     inkscape:label="Body + Forward Legs"
     style="display:inline"
     sodipodi:insensitive="true"
     transform="translate(572.45415,-72)">
    <path
       style="fill:#d88b53;fill-opacity:1;stroke:none"
       d="m 2551.2413,4025.7579 172.534,330.9259 520.4306,-14.1421 c -33.8082,-98.9475 -72.5565,-190.8966 -195.1615,-164.0488 l 110.3087,-568.5138 c 86.9335,-486.7731 -148.7268,-637.2249 -410.1219,-760.8469 l -268.7006,206.4752 z"
       id="path4123"
       inkscape:connector-curvature="0"
       sodipodi:nodetypes="cccccccc" />
    <path
       style="fill:#d88b53;fill-opacity:1;stroke:#aa5c2e;stroke-width:44;stroke-linecap:butt;stroke-linejoin:miter;stroke-miterlimit:4;stroke-opacity:1;stroke-dasharray:none"
       d="m 3054.3283,4185.5452 c 101.1419,-32.0481 143.4819,35.7966 178.1598,125.4797 159.8936,413.5122 253.1509,833.8931 214.1524,1268.7516 -8.0962,90.2782 -30.4625,167.2184 -185.8681,173.2561 -157.7271,6.1279 -337.8585,7.6825 -497.9755,2.3669 -158.0456,-5.2468 -130.4483,-93.8946 -50.8542,-253.8652 219.2349,-440.6246 173.4301,-951.31 -127.1357,-1422.7009"
       id="path3803"
       inkscape:connector-curvature="0"
       sodipodi:nodetypes="csssssc" />
    <path
       style="fill:#f685fb;fill-opacity:1;stroke:none"
       d="m 2706.8048,2693.5687 -67.8823,181.0193 c -292.2708,105.5628 -584.5416,101.8552 -876.8124,-11.3137 l 28.2843,-132.9361 c -118.1479,46.7794 -263.2129,79.139 -178.1909,234.7595 164.4856,111.0218 344.0943,116.1824 523.259,124.4508 185.7334,-9.0676 371.4667,-39.0218 557.2001,-93.3381 188.8022,-97.7066 260.5955,-197.4307 14.1422,-302.6417 z"
       id="path4119"
       inkscape:connector-curvature="0"
       sodipodi:nodetypes="cccccccc" />
    <path
       style="font-size:medium;font-style:normal;font-variant:normal;font-weight:normal;font-stretch:normal;text-indent:0;text-align:start;text-decoration:none;line-height:normal;letter-spacing:normal;word-spacing:normal;text-transform:none;direction:ltr;block-progression:tb;writing-mode:lr-tb;text-anchor:start;baseline-shift:baseline;color:#000000;fill:#aa5c2e;fill-opacity:1;stroke:none;stroke-width:44;marker:none;visibility:visible;display:inline;overflow:visible;enable-background:accumulate;font-family:Sans;-inkscape-font-specification:Sans"
       d="m 2753.625,2833.75 -15.8438,41.0625 c 201.4733,77.7439 321.7799,191.2673 378.5626,345.1875 56.7826,153.9202 49.3658,351.1644 -14.75,594.4062 -40.4763,153.5586 -97.6458,349.0477 -45.1594,481.3559 -2.0619,-102.0472 47.3309,-317.0521 87.6906,-470.1683 65.3883,-248.0694 74.9078,-454.3862 13.5,-620.8438 -61.4078,-166.4576 -194.4454,-290.1377 -404,-371 z"
       id="path3798"
       inkscape:connector-curvature="0"
       sodipodi:nodetypes="ccsscssc" />
    <path
       style="font-size:medium;font-style:normal;font-variant:normal;font-weight:normal;font-stretch:normal;text-indent:0;text-align:start;text-decoration:none;line-height:normal;letter-spacing:normal;word-spacing:normal;text-transform:none;direction:ltr;block-progression:tb;writing-mode:lr-tb;text-anchor:start;baseline-shift:baseline;color:#000000;fill:#c24ad0;fill-opacity:1;stroke:none;stroke-width:44;marker:none;visibility:visible;display:inline;overflow:visible;enable-background:accumulate;font-family:Sans;-inkscape-font-specification:Sans"
       d="m 1925.9062,2697.75 c -122.9613,-2.3924 -233.6291,31.3621 -320.5312,108.6562 -22.7547,20.239 -37.7874,41.814 -44,64.9063 -6.2126,23.0923 -2.6063,46.936 8.0938,67.5625 21.4,41.253 67.1827,72.6463 126.1874,98.9688 118.0096,52.6449 299.166,76.4749 465.2172,54.2926 -169.3195,-12.0808 -338.6445,-46.0033 -447.3109,-94.4802 -54.3332,-24.2384 -91.9491,-53.7524 -105.0625,-79.0312 -6.5567,-12.6394 -7.9926,-23.4735 -4.6562,-35.875 3.3363,-12.4015 12.4483,-27.1628 30.7812,-43.4688 89.0113,-79.1702 204.8367,-108.0281 340.3438,-94.5312 l 4.3437,-43.7812 c -18.0344,-1.7963 -35.8403,-2.877 -53.4063,-3.2188 z"
       id="path3790"
       inkscape:connector-curvature="0"
       sodipodi:nodetypes="ssssscssssccs" />
    <path
       style="font-size:medium;font-style:normal;font-variant:normal;font-weight:normal;font-stretch:normal;text-indent:0;text-align:start;text-decoration:none;line-height:normal;letter-spacing:normal;word-spacing:normal;text-transform:none;direction:ltr;block-progression:tb;writing-mode:lr-tb;text-anchor:start;baseline-shift:baseline;color:#000000;fill:#c24ad0;fill-opacity:1;stroke:none;stroke-width:44;marker:none;visibility:visible;display:inline;overflow:visible;enable-background:accumulate;font-family:Sans;-inkscape-font-specification:Sans"
       d="m 2663.7812,2666.9062 -7.5624,43.3438 c 69.0703,12.0167 129.6196,43.7256 159.3124,78.8125 14.8465,17.5434 21.9413,35.0019 21.7813,51.875 -0.16,16.8731 -7.1593,34.879 -27.1875,54.9687 -83.9078,84.1658 -284.4937,133.3172 -429.5308,181.1721 155.9884,-12.7542 360.1025,-49.2159 460.687,-150.1095 26.0949,-26.1751 39.7505,-55.9843 40.0313,-85.5938 0.2808,-29.6095 -12.3659,-57.3276 -32.1875,-80.75 -39.6432,-46.8447 -108.0836,-80.2772 -185.3438,-93.7188 z"
       id="path3792"
       inkscape:connector-curvature="0"
       sodipodi:nodetypes="ccssscsssc" />
    <path
       style="fill:#d88b53;fill-opacity:1;stroke:none"
       d="m 3000.9612,1833.7268 c -22.6198,177.0394 -73.5889,350.9289 -164.0488,520.4306 -81.3701,197.1433 -150.5578,390.2258 -209.3036,579.8276 -296.9848,47.716 -593.9697,22.7354 -890.9545,-11.3137 33.8205,-96.8744 58.0693,-196.4836 39.5979,-308.2986 z"
       id="path4121"
       inkscape:connector-curvature="0"
       sodipodi:nodetypes="cccccc" />
    <path
       style="fill:none;stroke:#aa5c2e;stroke-width:44;stroke-linecap:butt;stroke-linejoin:miter;stroke-miterlimit:4;stroke-opacity:1;stroke-dasharray:none"
       d="m 3002.1734,1826.0497 c -12.7792,207.4314 -108.307,386.2461 -177.7869,565.6854 -74.1123,191.4029 -140.6617,374.2574 -208.0914,555.5839"
       id="path3794"
       inkscape:connector-curvature="0"
       sodipodi:nodetypes="csc" />
    <path
       style="fill:none;stroke:#aa5c2e;stroke-width:44;stroke-linecap:butt;stroke-linejoin:miter;stroke-miterlimit:4;stroke-opacity:1;stroke-dasharray:none"
       d="m 1727.3609,2931.1566 c 41.8481,-96.494 76.4283,-195.4106 54.5482,-313.1473"
       id="path3796"
       inkscape:connector-curvature="0"
       sodipodi:nodetypes="cc" />
    <path
       style="fill:#d88b53;fill-opacity:1;stroke:#aa5c2e;stroke-width:44;stroke-linecap:butt;stroke-linejoin:miter;stroke-miterlimit:4;stroke-opacity:1;stroke-dasharray:none"
       d="m 2731.4286,5548.5714 c 3.1137,97.9241 9.0871,197.4953 -15.9796,281.112 -23.5292,78.4879 -82.005,97.6737 -149.7347,98.888 -174.4707,3.128 -344.567,0.075 -511.4286,2.8572 -110.5638,1.8433 -107.1566,-87.8103 -64.1513,-154.5185 56.9319,-88.3108 101.8028,-180.789 135.5799,-254.053"
       id="path3809"
       inkscape:connector-curvature="0"
       sodipodi:nodetypes="cssssc" />
  </g>
  <g
     inkscape:groupmode="layer"
     id="layer15"
     inkscape:label="Cutie Mark"
     sodipodi:insensitive="true"
     transform="translate(572.45415,-72)">
    <g
       id="g4159"
       transform="matrix(0.47819353,0.01353311,-0.01353311,0.47819353,1603.5996,1655.2927)">
      <path
         sodipodi:nodetypes="csssccccc"
         inkscape:connector-curvature="0"
         id="path824"
         d="m 2476.4366,3140.5311 c -34.8782,5.763 -63.8118,-8.3956 -90.312,-32.8407 -27.8941,-25.7308 -62.9119,-11.7534 -57.4713,36.1248 12.8511,113.0903 68.847,211.2364 185.5501,224.959 83.2648,9.7907 114.9491,32.342 106.7324,85.3858 41.5317,-38.5714 63.9352,-81.0551 9.8522,-137.931 -117.2703,24.4275 -176.2093,-33.8029 -215.1067,-118.2266 40.5035,19.1555 81.0071,25.7152 121.5106,22.9885 z"
         style="fill:#ddb53a;fill-opacity:1;stroke:none" />
      <path
         sodipodi:nodetypes="csssccccc"
         inkscape:connector-curvature="0"
         id="path844"
         d="m 2873.8093,2986.1797 c 26.583,-36.2282 48.0215,-69.0576 59.1133,-101.8062 14.5076,-42.8335 45.6629,-37.2567 64.0394,-19.7044 105.264,100.5427 65.5423,182.8503 31.1987,247.9474 -30.1857,57.216 -57.351,104.5367 -8.2102,155.9935 -60.0797,11.5996 -98.3695,-9.4158 -113.3004,-75.5337 52.9052,-45.4232 140.5668,-175.2792 62.3973,-257.7997 -14.373,43.074 -42.587,80.6116 -78.8177,114.9425 z"
         style="fill:#ddb53a;fill-opacity:1;stroke:none" />
      <path
         sodipodi:nodetypes="csccscc"
         inkscape:connector-curvature="0"
         id="path850"
         d="m 2745.2388,3344.3194 c 40.1923,85.1722 114.1488,194.7163 96.3709,265.8907 -6.243,24.9943 -26.4512,42.4404 -40.6383,62.6991 80.5825,-18.044 164.7132,-29.5828 227.5746,-80.1155 -21.0687,-5.1514 -41.9054,-5.1684 -65.0213,-19.7386 -76.8178,-48.4191 -77.4145,-175.0022 -109.1429,-271.6962 z"
         style="fill:#ddb53a;fill-opacity:1;stroke:none" />
      <path
         sodipodi:nodetypes="csscc"
         inkscape:connector-curvature="0"
         id="path822"
         d="m 2458.3742,3124.1108 c 48.3944,139.2056 196.0969,253.6217 288.9983,244.6634 44.8504,-4.3249 88.8933,-14.6157 124.7948,-55.8293 64.3439,-73.8643 68.7668,-262.1039 4.9261,-356.3218 -157.1812,36.0719 -300.8038,83.4243 -418.7192,167.4877 z"
         style="fill:#f9cf63;fill-opacity:1;stroke:none" />
      <path
         sodipodi:nodetypes="sssss"
         inkscape:connector-curvature="0"
         id="path846"
         d="m 2752.2054,3455.7845 c -22.7618,22.2298 -22.7204,46.2707 13.9332,44.1216 49.5123,-2.9031 117.1046,-29.7996 167.1976,-67.3435 32.3173,-24.2213 25.0807,-49.7216 -22.0608,-46.4438 -62.2703,4.3296 -118.4731,30.0177 -159.07,69.6657 z"
         style="fill:#f9cf63;fill-opacity:1;stroke:none" />
      <path
         sodipodi:nodetypes="ccssssc"
         inkscape:connector-curvature="0"
         id="path848"
         d="m 2794.9916,3654.4884 c 92.4827,-8.5686 166.2574,-24.6254 236.4532,-88.6699 22.8942,13.8602 44.5674,28.289 63.3032,49.6496 9.5404,10.8769 14.686,18.9889 -0.1342,29.7347 -95.4621,69.2174 -197.7995,101.1825 -304.5483,111.0919 -12.3335,1.1449 -24.6818,-4.2873 -21.3465,-21.3465 5.0467,-25.8125 11.6679,-51.6908 26.2726,-80.4598 z"
         style="fill:#f9cf63;fill-opacity:1;stroke:none" />
      <path
         clip-path="url(#clipPath898)"
         sodipodi:nodetypes="ccc"
         inkscape:connector-curvature="0"
         id="path852"
         d="M 573.07061,155.99343 C 394.33316,142.70905 258.69303,205.47877 154.3514,323.48112 303.71856,332.51376 457.54552,279.15699 573.07061,155.99343 z"
         style="fill:#ae7c29;fill-opacity:1;stroke:none"
         transform="translate(2304.0228,2800.6297)" />
      <path
         transform="matrix(0.99266821,-0.12087112,0.12087112,0.99266821,2261.8562,2865.7378)"
         d="m 559.93434,380.13135 c 0,40.35578 -19.84944,73.07061 -44.33497,73.07061 -24.48554,0 -44.33498,-32.71483 -44.33498,-73.07061 0,-40.35579 19.84944,-73.07061 44.33498,-73.07061 24.48553,0 44.33497,32.71482 44.33497,73.07061 z"
         sodipodi:ry="73.07061"
         sodipodi:rx="44.334976"
         sodipodi:cy="380.13135"
         sodipodi:cx="515.59937"
         id="path854"
         style="color:#000000;fill:#ffffff;fill-opacity:0.50196078;fill-rule:nonzero;stroke:none;stroke-width:1px;marker:none;visibility:visible;display:inline;overflow:visible;enable-background:accumulate"
         sodipodi:type="arc" />
      <path
         clip-path="url(#clipPath876)"
         sodipodi:nodetypes="cc"
         inkscape:connector-curvature="0"
         id="path856"
         d="M 784.89327,778.32512 C 707.18199,868.15446 564.84866,912.90735 441.70772,903.11987"
         style="fill:none;stroke:#ddb53a;stroke-width:14;stroke-linecap:butt;stroke-linejoin:miter;stroke-miterlimit:4;stroke-opacity:1;stroke-dasharray:none"
         transform="translate(2304.0228,2800.6297)" />
    </g>
  </g>
  <g
     inkscape:groupmode="layer"
     id="layer7"
     inkscape:label="Vest"
     style="display:inline"
     sodipodi:insensitive="true"
     transform="translate(572.45415,-72)">
    <path
       style="fill:#895297;fill-opacity:1;stroke:#5e3e75;stroke-width:44;stroke-linecap:butt;stroke-linejoin:miter;stroke-miterlimit:4;stroke-opacity:1;stroke-dasharray:none"
       d="m 2656.5576,3068.6809 c 264.2518,126.3508 291.8851,725.2726 -101.2757,1152.0364 -250.1656,60.2421 -720.7489,63.9364 -1001.1176,-160.4973 -181.0643,-144.9411 -465.826,-767.9127 61.6737,-1012.5195"
       id="path3812"
       inkscape:connector-curvature="0"
       sodipodi:nodetypes="ccsc" />
    <path
       style="fill:#ffffff;stroke:none"
       d="m 1965.7569,3494.0136 -432.7494,-115.9655 c -12.7944,208.8318 22.3131,525.9551 171.1198,738.2194 35.0005,-212.4705 109.9906,-421.071 261.6296,-622.2539 z"
       id="path4117"
       inkscape:connector-curvature="0"
       sodipodi:nodetypes="cccc" />
    <path
       style="fill:none;stroke:#5e3e75;stroke-width:44;stroke-linecap:butt;stroke-linejoin:miter;stroke-miterlimit:4;stroke-opacity:1;stroke-dasharray:none"
       d="m 2577.1429,3165.7143 c 50.5774,58.6429 113.4156,110.6685 169.2646,148.2248 -188.1163,115.3564 -390.9535,160.2643 -582.3669,197.3459 64.3764,35.6236 125.344,56.4732 184.5308,97.2864 -289.434,45.7337 -521.3865,253.944 -651.4285,502.8572 -118.2115,-193.3333 -248.8214,-386.6667 -388.5715,-580 42.8572,-18.5121 85.7143,-34.1768 128.5715,-62.8572 -36.5097,-53.0822 -62.8784,-115.6056 -79.6534,-183.3473 64.7619,-1.6569 141.6456,-27.8718 188.2248,-45.2241"
       id="path3814"
       inkscape:connector-curvature="0"
       sodipodi:nodetypes="ccccccccc" />
    <path
       style="fill:none;stroke:#5e3e75;stroke-width:44;stroke-linecap:butt;stroke-linejoin:miter;stroke-miterlimit:4;stroke-opacity:1;stroke-dasharray:none"
       d="m 1973.8381,3494.8217 c -120.133,141.285 -227.2686,352.0617 -255.693,578.306"
       id="path3816"
       inkscape:connector-curvature="0"
       sodipodi:nodetypes="cc" />
    <path
       style="fill:none;stroke:#5e3e75;stroke-width:44;stroke-linecap:butt;stroke-linejoin:miter;stroke-miterlimit:4;stroke-opacity:1;stroke-dasharray:none"
       d="m 1535.4319,3373.6034 c -27.3059,207.4935 26.2657,494.8698 143.4217,708.0726"
       id="path3818"
       inkscape:connector-curvature="0"
       sodipodi:nodetypes="cc" />
    <path
       style="fill:none;stroke:#5e3e75;stroke-width:29;stroke-linecap:butt;stroke-linejoin:miter;stroke-miterlimit:4;stroke-opacity:1;stroke-dasharray:none"
       d="m 1694.0853,3649.0323 c 61.9716,-40.4242 123.9431,-83.3798 185.9147,-127.6037"
       id="path3822"
       inkscape:connector-curvature="0"
       sodipodi:nodetypes="cc" />
    <path
       style="fill:none;stroke:#5e3e75;stroke-width:29;stroke-linecap:butt;stroke-linejoin:miter;stroke-miterlimit:4;stroke-opacity:1;stroke-dasharray:none"
       d="m 1652.7663,3646.8426 c -24.0845,-63.099 -46.7709,-128.9942 -67.0521,-199.6998"
       id="path3824"
       inkscape:connector-curvature="0"
       sodipodi:nodetypes="cc" />
    <!--S~i~g~m~a-->
    <path
       sodipodi:type="arc"
       style="color:#000000;fill:#f9c54e;fill-opacity:1;fill-rule:nonzero;stroke:#bd872f;stroke-width:29;stroke-miterlimit:4;stroke-opacity:1;stroke-dasharray:none;marker:none;visibility:visible;display:inline;overflow:visible;enable-background:accumulate"
       id="path3820"
       sodipodi:cx="1679.2858"
       sodipodi:cy="3690.7144"
       sodipodi:rx="55"
       sodipodi:ry="49.285713"
       d="m 1734.2858,3690.7144 c 0,27.2197 -24.6244,49.2857 -55,49.2857 -30.3757,0 -55,-22.066 -55,-49.2857 0,-27.2198 24.6243,-49.2858 55,-49.2858 30.3756,0 55,22.066 55,49.2858 z"
       transform="matrix(0.99458831,-0.10389459,0.10389459,0.99458831,-384.3575,197.29884)" />
  </g>
  <g
     inkscape:groupmode="layer"
     id="layer8"
     inkscape:label="Bandana"
     style="display:inline"
     sodipodi:insensitive="true"
     transform="translate(572.45415,-72)">
    <path
       style="fill:#895297;fill-opacity:1;stroke:none"
       d="m 2073.2371,4003.1305 c 24.3082,424.7611 71.2264,846.6959 39.598,1278.449 208.8762,71.7286 420.0058,123.1771 636.3961,127.2792 -11.1587,-471.1419 -182.8587,-888.7701 -395.9798,-1292.5912 z"
       id="path4115"
       inkscape:connector-curvature="0"
       sodipodi:nodetypes="ccccc" />
    <path
       style="font-size:medium;font-style:normal;font-variant:normal;font-weight:normal;font-stretch:normal;text-indent:0;text-align:start;text-decoration:none;line-height:normal;letter-spacing:normal;word-spacing:normal;text-transform:none;direction:ltr;block-progression:tb;writing-mode:lr-tb;text-anchor:start;baseline-shift:baseline;color:#000000;fill:#5e3e75;fill-opacity:1;stroke:none;stroke-width:44;marker:none;visibility:visible;display:inline;overflow:visible;enable-background:accumulate;font-family:Sans;-inkscape-font-specification:Sans"
       d="m 2078.6912,3983.0263 c -33.2356,86.7442 -24.2427,194.9675 -15.285,296.7862 30.4556,346.1798 60.4202,716.4109 26.6876,1066.0625 l 43.8124,4.25 c 34.2558,-355.074 3.8176,-727.7695 -26.6562,-1074.1562 -8.9631,-101.8796 -17.9506,-201.4958 -28.5588,-292.9425 z"
       id="path3870"
       inkscape:connector-curvature="0"
       sodipodi:nodetypes="csccsc" />
    <path
       style="font-size:medium;font-style:normal;font-variant:normal;font-weight:normal;font-stretch:normal;text-indent:0;text-align:start;text-decoration:none;line-height:normal;letter-spacing:normal;word-spacing:normal;text-transform:none;direction:ltr;block-progression:tb;writing-mode:lr-tb;text-anchor:start;baseline-shift:baseline;color:#000000;fill:#5e3e75;fill-opacity:1;stroke:none;stroke-width:44;marker:none;visibility:visible;display:inline;overflow:visible;enable-background:accumulate;font-family:Sans;-inkscape-font-specification:Sans"
       d="m 2344.2413,4108.3232 c 32.943,69.8191 68.2175,148.8875 101.1337,218.3956 174.4239,368.3252 281.7902,785.9914 277.375,1106.3124 l 44,0.625 c 4.5568,-330.6005 -104.7017,-752.1781 -281.625,-1125.7812 -33.3878,-70.504 -81.9027,-160.4765 -140.8837,-199.5518 z"
       id="path3887"
       inkscape:connector-curvature="0"
       sodipodi:nodetypes="csccsc" />
    <path
       style="fill:#895297;fill-opacity:1;stroke:#5e3e75;stroke-width:44;stroke-linecap:butt;stroke-linejoin:miter;stroke-miterlimit:4;stroke-opacity:1;stroke-dasharray:none"
       d="m 2778,5412 c -249.4888,7.8274 -481.635,-58.0512 -710,-140 -32.944,106.264 -44.9844,217.7539 -46,332 254.8972,80.1665 511.0349,119.0868 770,64 14.7521,-85.3333 12.6973,-170.6667 -14,-256 z"
       id="path3895"
       inkscape:connector-curvature="0"
       sodipodi:nodetypes="ccccc" />
    <path
       style="fill:#f685fb;fill-opacity:1;stroke:none"
       d="m 1604,2834 84,40 36,-54 c 167.3333,116.7326 334.6667,119.2706 502,126 188.8216,-7.6127 367.2799,-41.1335 526,-124 l 108,-6 c 18.2515,74.9638 -73.707,129.2633 -174,182 l 12,58 c 44.647,-18.8676 74.8706,-22.1098 30,56 -49.5334,72.5996 -104.9848,103.7727 -162,124 -122.283,47.3624 -218.5569,115.532 -303.2583,192.9597 -71.6956,100.2053 -173.7881,121.3789 -282.8427,124.4508 -129.1648,2.143 -258.3297,-40.0098 -387.4945,-82.0243 -79.4866,-45.0369 -152.0732,-95.2487 -113.1371,-229.1026 l 141.4213,-277.1859 C 1583.2917,2931.1936 1545.7111,2897.3459 1604,2834 z"
       id="path4113"
       inkscape:connector-curvature="0"
       sodipodi:nodetypes="cccccccccccccccc" />
    <path
       style="font-size:medium;font-style:normal;font-variant:normal;font-weight:normal;font-stretch:normal;text-indent:0;text-align:start;text-decoration:none;line-height:normal;letter-spacing:normal;word-spacing:normal;text-transform:none;direction:ltr;block-progression:tb;writing-mode:lr-tb;text-anchor:start;baseline-shift:baseline;color:#000000;fill:#c24ad0;fill-opacity:1;stroke:none;stroke-width:44;marker:none;visibility:visible;display:inline;overflow:visible;enable-background:accumulate;font-family:Sans;-inkscape-font-specification:Sans"
       d="m 1605.375,2806.4062 c -22.7547,20.239 -37.7874,41.814 -44,64.9063 -6.2126,23.0923 -2.6063,46.936 8.0938,67.5625 21.4,41.253 67.1827,72.6463 126.1874,98.9688 118.0096,52.6449 299.166,76.4749 465.2172,54.2926 -169.3195,-12.0808 -338.6445,-46.0033 -447.3109,-94.4802 -54.3332,-24.2384 -91.9491,-53.7524 -105.0625,-79.0312 -6.5567,-12.6394 -7.9926,-23.4735 -4.6562,-35.875 3.3363,-12.4015 12.4483,-27.1628 30.7812,-43.4688 z"
       id="path3790-1"
       inkscape:connector-curvature="0"
       sodipodi:nodetypes="cssscssscc" />
    <path
       style="font-size:medium;font-style:normal;font-variant:normal;font-weight:normal;font-stretch:normal;text-indent:0;text-align:start;text-decoration:none;line-height:normal;letter-spacing:normal;word-spacing:normal;text-transform:none;direction:ltr;block-progression:tb;writing-mode:lr-tb;text-anchor:start;baseline-shift:baseline;color:#000000;fill:#c24ad0;fill-opacity:1;stroke:none;stroke-width:44;marker:none;visibility:visible;display:inline;overflow:visible;enable-background:accumulate;font-family:Sans;-inkscape-font-specification:Sans"
       d="m 2815.5312,2789.0625 c 14.8465,17.5434 21.9413,35.0019 21.7813,51.875 -0.16,16.8731 -7.1593,34.879 -27.1875,54.9687 -83.9078,84.1658 -284.4937,133.3172 -429.5308,181.1721 155.9884,-12.7542 360.1025,-49.2159 460.687,-150.1095 26.0949,-26.1751 39.7505,-55.9843 40.0313,-85.5938 0.2808,-29.6095 -12.3659,-57.3276 -32.1875,-80.75 z"
       id="path3792-7"
       inkscape:connector-curvature="0"
       sodipodi:nodetypes="csscsscc" />
    <path
       style="font-size:medium;font-style:normal;font-variant:normal;font-weight:normal;font-stretch:normal;text-indent:0;text-align:start;text-decoration:none;line-height:normal;letter-spacing:normal;word-spacing:normal;text-transform:none;direction:ltr;block-progression:tb;writing-mode:lr-tb;text-anchor:start;baseline-shift:baseline;color:#000000;fill:#c24ad0;fill-opacity:1;stroke:none;stroke-width:44;marker:none;visibility:visible;display:inline;overflow:visible;enable-background:accumulate;font-family:Sans;-inkscape-font-specification:Sans"
       d="m 1587.3125,2956.4062 c -24.5068,72.2836 -57.7023,137.2305 -102.1875,214.2813 -26.9627,46.7007 -40.2193,98.2821 -35.75,147.375 4.4693,49.0929 27.6039,95.7415 71,128.1563 120.0643,89.6821 263.2785,107.8292 378.4688,116.5312 118.1253,8.9238 248.5031,16.944 366.9062,-103.9688 79.4887,-81.1736 175.9096,-142.7497 304.5,-196.5624 40.3959,-16.905 81.0694,-34.2698 115.0625,-63.9688 33.1274,-28.9427 59.4389,-60.591 76.1563,-96.0938 8.5833,-18.2285 13.4126,-33.3824 10.3124,-49.7187 -3.1001,-16.3363 -20.9495,-26.9492 -35.5515,-26.9492 -41.1645,0 -200.7367,84.5495 -292.0176,139.0353 102.6684,-33.3974 172.3087,-72.9049 260.1382,-97.2787 24.0335,-6.6696 25.3575,-1.024 17.3059,16.1613 -13.3622,28.5203 -35.449,55.6238 -65.2812,81.6876 -27.1243,23.6978 -63.1287,39.8248 -103.125,56.5624 -132.4134,55.4127 -234.7554,120.346 -318.9375,206.3126 -106.8057,109.0694 -214.0807,99.8238 -332.125,90.9062 -113.246,-8.5552 -246.6362,-26.6136 -355.4687,-107.9062 -33.4818,-25.0093 -50.0073,-58.5092 -53.5,-96.875 -3.4928,-38.3659 7,-81.5151 30.0312,-121.4063 45.0968,-78.11 79.933,-146.0086 105.75,-222.1563 z"
       id="path3856"
       inkscape:connector-curvature="0"
       sodipodi:nodetypes="csssssssssscssssssssscc" />
    <path
       style="fill:none;stroke:#c24ad0;stroke-width:44;stroke-linecap:butt;stroke-linejoin:miter;stroke-miterlimit:4;stroke-opacity:1;stroke-dasharray:none"
       d="m 2687.1429,2997.1428 c 2.3809,15.5042 4.7619,29.5418 7.1428,48.5714"
       id="path3858"
       inkscape:connector-curvature="0"
       sodipodi:nodetypes="cc" />
    <path
       style="font-size:medium;font-style:normal;font-variant:normal;font-weight:normal;font-stretch:normal;text-indent:0;text-align:start;text-decoration:none;line-height:normal;letter-spacing:normal;word-spacing:normal;text-transform:none;direction:ltr;block-progression:tb;writing-mode:lr-tb;text-anchor:start;baseline-shift:baseline;color:#000000;fill:#c24ad0;fill-opacity:1;stroke:none;stroke-width:44;marker:none;visibility:visible;display:inline;overflow:visible;enable-background:accumulate;font-family:Sans;-inkscape-font-specification:Sans"
       d="m 2201.7812,2924.5625 c -171.0977,1.347 -321.6209,-22.3819 -481.8142,-108.3851 125.4779,133.2 304.6084,153.7829 482.158,152.3851 200.0071,-1.5745 416.5749,-49.6449 555.8389,-150.1543 -147.8213,57.8824 -363.4435,104.637 -556.1827,106.1543 z"
       id="path3864"
       inkscape:connector-curvature="0"
       sodipodi:nodetypes="scscs" />
    <path
       sodipodi:type="arc"
       style="color:#000000;fill:#f9c54e;fill-opacity:1;fill-rule:nonzero;stroke:#bd872f;stroke-width:30.51650047;stroke-miterlimit:4;stroke-opacity:1;stroke-dasharray:none;marker:none;visibility:visible;display:inline;overflow:visible;enable-background:accumulate"
       id="path3893"
       sodipodi:cx="2649.5291"
       sodipodi:cy="5548.1587"
       sodipodi:rx="51.618793"
       sodipodi:ry="85.559921"
       d="m 2701.1478,5548.1587 c 0,47.2534 -23.1105,85.5599 -51.6187,85.5599 -28.5083,0 -51.6188,-38.3065 -51.6188,-85.5599 0,-47.2534 23.1105,-85.5599 51.6188,-85.5599 28.5082,0 51.6187,38.3065 51.6187,85.5599 z"
       transform="matrix(0.7474043,0.58842736,-0.60117264,0.73498943,4012.439,-99.341309)" />
  </g>
  <g
     inkscape:groupmode="layer"
     id="layer9"
     inkscape:label="Head"
     style="display:inline"
     sodipodi:insensitive="true"
     transform="translate(572.45415,-72)">
    <path
       style="fill:#d88b53;fill-opacity:1;stroke:none"
       d="m 1204.91,1335.9237 c -97.4571,258.3082 -75.4242,495.8355 0,724.0773 -58.4542,28.938 -116.9083,44.585 -175.3625,50.9117 -50.81605,22.3268 -58.74059,78.9669 -73.53913,130.1077 14.34762,59.0142 36.61126,115.3897 73.53913,166.8772 46.1976,68.8044 92.3953,64.2373 138.5929,59.3969 128.1443,-56.9148 224.1952,-47.174 254.5584,98.995 l -246.0731,-8.4853 C 1570.538,2776.4598 2034.5623,2674.001 2412,2588 l 524,-676 124,-424 -512,-696 z"
       id="path4111"
       inkscape:connector-curvature="0"
       sodipodi:nodetypes="ccccccccccccc" />
    <path
       style="fill:#ffffff;stroke:none"
       d="m 1427,2567 c -29.3104,-80.8339 -72.5534,-141.0476 -168,-124 -50.3333,20.3933 -100.6667,23.7501 -151,23 12.5821,39.001 38.432,67.3878 64,96 z"
       id="path3910"
       inkscape:connector-curvature="0"
       sodipodi:nodetypes="ccccc" />
    <path
       style="fill:none;stroke:#b9dce6;stroke-width:19;stroke-linecap:butt;stroke-linejoin:miter;stroke-miterlimit:4;stroke-opacity:1;stroke-dasharray:none"
       d="m 1277,2556 c 39.1147,-13.0233 89.8342,-40.5406 118,-65"
       id="path3908"
       inkscape:connector-curvature="0"
       sodipodi:nodetypes="cc" />
    <path
       style="fill:none;stroke:#b9dce6;stroke-width:19;stroke-linecap:butt;stroke-linejoin:miter;stroke-miterlimit:4;stroke-opacity:1;stroke-dasharray:none"
       d="m 1102,2464 c 22.7157,47.3235 54.0664,87.582 106,111"
       id="path3906"
       inkscape:connector-curvature="0"
       sodipodi:nodetypes="cc" />
    <path
       style="font-size:medium;font-style:normal;font-variant:normal;font-weight:normal;font-stretch:normal;text-indent:0;text-align:start;text-decoration:none;line-height:normal;letter-spacing:normal;word-spacing:normal;text-transform:none;direction:ltr;block-progression:tb;writing-mode:lr-tb;text-anchor:start;baseline-shift:baseline;color:#000000;fill:#aa5c2e;fill-opacity:1;stroke:none;stroke-width:44;marker:none;visibility:visible;display:inline;overflow:visible;enable-background:accumulate;font-family:Sans;-inkscape-font-specification:Sans"
       d="m 1316.1562,1906.3438 c -43.3155,77.3448 -108.8543,135.9995 -212.2187,165.1562 -36.2443,10.2237 -77.8914,23.6569 -111.40625,48.1562 -33.51482,24.4994 -58.4853,63.9145 -52.75,114.5626 9.26267,81.7979 48.37496,151.3432 88.65625,202.0624 35.5469,44.7582 79.4586,57.131 118.6875,53.5313 39.2289,-3.5997 75.0131,-18.5999 108.4375,-24.0937 63.7735,-10.4822 92.8395,3.5472 113.0937,26.3124 13.5824,15.2663 22.8065,36.7006 30.6563,59.9376 -73.3295,-12.3714 -150.6623,-12.8722 -220.25,-9.9376 l -79.25,3.3438 69.6563,37.9375 c 373.6462,203.5894 911.4208,130.31 1266.7798,-9.0389 -365.8899,86.9252 -811.977,151.9376 -1159.8736,10.7264 48.1459,-3.6743 94.5905,-0.4164 139.9375,10.125 l 36.9687,8.5938 -10.9062,-36.3438 c -9.6195,-32.0559 -15.9905,-67.0394 -45.8438,-100.5938 -29.8532,-33.5543 -73.8517,-49.5384 -147.0937,-37.5 -40.1889,6.6057 -76.7276,19.0011 -106.3437,16.7188 -29.6527,-2.2851 -52.0729,-1.6544 -80.2188,-37.0938 -36.6715,-46.1741 -71.3376,-108.9233 -79.34375,-179.625 -4.01797,-35.4824 9.66026,-55.5932 34.96875,-74.0937 25.3085,-18.5005 62.674,-31.5241 97.375,-41.3125 113.7879,-32.097 190.5692,-100.1664 238.6562,-186.0312 48.0871,-85.8649 67.1787,-197.3159 58.0634,-289.7843 -19.0149,88.5508 -53.1228,190.9394 -96.4384,268.2843 z"
       id="path3898"
       inkscape:connector-curvature="0"
       sodipodi:nodetypes="ssssssssccccccscssssssssscs" />
    <path
       style="fill:none;stroke:#aa5c2e;stroke-width:44;stroke-linecap:butt;stroke-linejoin:miter;stroke-miterlimit:4;stroke-opacity:1;stroke-dasharray:none"
       d="m 1204.91,1347.2373 c -75.1887,250.2896 -90.1082,492.6035 4.2426,701.45"
       id="path3904"
       inkscape:connector-curvature="0"
       sodipodi:nodetypes="cc" />
    <path
       style="fill:#aa5c2e;fill-opacity:1;stroke:none"
       d="m 1168,2217 c 53.4967,42.4665 104.8134,15.5807 84,-55 -14.9112,35.785 -45.132,51.1573 -84,55 z"
       id="path3912"
       inkscape:connector-curvature="0"
       sodipodi:nodetypes="ccc" />
  </g>
  <g
     inkscape:groupmode="layer"
     id="layer11"
     inkscape:label="Eyes"
     style="display:inline"
     sodipodi:insensitive="true"
     transform="translate(572.45415,-72)">
    <path
       style="fill:url(#linearGradient4109);fill-opacity:1;stroke:none"
       d="m 1266,1992 c -89.5892,-73.3438 -102.5842,-173.4955 -86,-284 75.4252,39.4279 144.0866,48.8165 210,46 -15.5909,87.9141 -44.8995,171.2557 -124,238 z"
       id="path3944"
       inkscape:connector-curvature="0"
       sodipodi:nodetypes="cccc"
       clip-path="url(#clipPath3963)" />
    <path
       style="fill:#ffffff;stroke:none"
       d="m 2462,1740 c -302.6667,39.151 -605.3333,55.7401 -908,10 -21.7921,285.3246 219.859,323.0125 458,364 257.5557,-36.3173 486.4752,-96.1573 450,-374 z"
       id="path3938"
       inkscape:connector-curvature="0"
       sodipodi:nodetypes="cccc"
       clip-path="url(#clipPath3979)" />
    <path
       sodipodi:type="arc"
       style="color:#000000;fill:url(#linearGradient4101);fill-opacity:1;fill-rule:nonzero;stroke:none;stroke-width:1px;marker:none;visibility:visible;display:inline;overflow:visible;enable-background:accumulate"
       id="path3932"
       sodipodi:cx="1852"
       sodipodi:cy="1802"
       sodipodi:rx="448"
       sodipodi:ry="282"
       d="m 2300,1802 c 0,155.7443 -200.5764,282 -448,282 -247.4236,0 -448,-126.2557 -448,-282 0,-155.7443 200.5764,-282 448,-282 247.4236,0 448,126.2557 448,282 z"
       transform="matrix(1.0401786,0,0,1.3333333,-58.410714,-696.66667)"
       clip-path="url(#clipPath3975)" />
    <path
       sodipodi:type="arc"
       style="color:#000000;fill:#000000;fill-opacity:1;fill-rule:nonzero;stroke:none;stroke-width:1px;marker:none;visibility:visible;display:inline;overflow:visible;enable-background:accumulate"
       id="path3934"
       sodipodi:cx="1981"
       sodipodi:cy="1730"
       sodipodi:rx="273"
       sodipodi:ry="252"
       d="m 2254,1730 c 0,139.1758 -122.2263,252 -273,252 -150.7737,0 -273,-112.8242 -273,-252 0,-139.1758 122.2263,-252 273,-252 150.7737,0 273,112.8242 273,252 z"
       transform="matrix(1.1318682,0,0,1.1031746,-267.23076,-194.49206)"
       clip-path="url(#clipPath3971)" />
    <path
       sodipodi:type="arc"
       style="color:#000000;fill:#ffffff;fill-opacity:1;fill-rule:nonzero;stroke:none;stroke-width:1px;marker:none;visibility:visible;display:inline;overflow:visible;enable-background:accumulate"
       id="path3936"
       sodipodi:cx="2120"
       sodipodi:cy="1793"
       sodipodi:rx="148"
       sodipodi:ry="79"
       d="m 2268,1793 c 0,43.6305 -66.2619,79 -148,79 -81.7381,0 -148,-35.3695 -148,-79 0,-43.6305 66.2619,-79 148,-79 81.7381,0 148,35.3695 148,79 z"
       transform="matrix(1.0005941,0.07645433,-0.11149101,1.0861957,185.64388,-309.63212)"
       clip-path="url(#clipPath3967)" />
    <path
       sodipodi:type="arc"
       style="color:#000000;fill:#000000;fill-opacity:1;fill-rule:nonzero;stroke:none;stroke-width:1px;marker:none;visibility:visible;display:inline;overflow:visible;enable-background:accumulate"
       id="path3940"
       sodipodi:cx="1306"
       sodipodi:cy="1777"
       sodipodi:rx="96"
       sodipodi:ry="143"
       d="m 1402,1777 c 0,78.9767 -42.9807,143 -96,143 -53.0193,0 -96,-64.0233 -96,-143 0,-78.9767 42.9807,-143 96,-143 53.0193,0 96,64.0233 96,143 z"
       transform="matrix(1.0648185,-0.13472193,0.14407186,1.1938486,-363.66858,-195.52201)"
       clip-path="url(#clipPath3959)" />
    <path
       sodipodi:type="arc"
       style="color:#000000;fill:#ffffff;fill-opacity:1;fill-rule:nonzero;stroke:none;stroke-width:1px;marker:none;visibility:visible;display:inline;overflow:visible;enable-background:accumulate"
       id="path3942"
       sodipodi:cx="1335"
       sodipodi:cy="1792"
       sodipodi:rx="63"
       sodipodi:ry="78"
       d="m 1398,1792 c 0,43.0782 -28.2061,78 -63,78 -34.7939,0 -63,-34.9218 -63,-78 0,-43.0782 28.2061,-78 63,-78 34.7939,0 63,34.9218 63,78 z"
       transform="matrix(1.015873,0,0,1.1282051,-50.190476,-251.74359)"
       clip-path="url(#clipPath3955)" />
  </g>
  <g
     inkscape:groupmode="layer"
     id="layer10"
     inkscape:label="Eye Clipping"
     style="opacity:0.5;display:none"
     sodipodi:insensitive="true"
     transform="translate(572.45415,-72)">
    <path
       style="fill:#00ff00;fill-opacity:1;stroke:#ff0000;stroke-width:1px;stroke-linecap:butt;stroke-linejoin:miter;stroke-opacity:1"
       d="m 1180.8683,1707.8618 c -23.141,130.4378 8.0582,225.9427 90.5097,288.4996 74.044,-70.3487 101.838,-152.26 115.9655,-237.5878 -68.8251,12.4448 -137.6501,-14.8013 -206.4752,-50.9118 z"
       id="path3915"
       inkscape:connector-curvature="0"
       sodipodi:nodetypes="cccc" />
    <path
       style="fill:#00ff00;fill-opacity:1;stroke:#ff0000;stroke-width:1px;stroke-linecap:butt;stroke-linejoin:miter;stroke-opacity:1"
       d="m 1583.9191,1758.7736 c -4.2262,291.5233 386.8232,343.5079 576.9992,305.4701 C 2350.0972,2026.4429 2485.6302,1948.4076 2450,1742 c -286.808,44.7593 -579.2729,35.5589 -866.0809,16.7736 z"
       id="path3917"
       inkscape:connector-curvature="0"
       sodipodi:nodetypes="cccc" />
  </g>
  <g
     inkscape:groupmode="layer"
     id="layer12"
     inkscape:label="Eyelashes"
     style="display:inline"
     sodipodi:insensitive="true"
     transform="translate(572.45415,-72)">
    <path
       style="fill:#000000;stroke:none"
       d="m 1398.6572,1730.4893 c -130.8009,9.2062 -223.0329,-34.6803 -330.926,-91.9239 96.4365,82.6791 198.4889,147.8137 318.1981,147.0782 z"
       id="path4002"
       inkscape:connector-curvature="0"
       sodipodi:nodetypes="cccc" />
    <path
       style="fill:none;stroke:#000000;stroke-width:19;stroke-linecap:butt;stroke-linejoin:miter;stroke-miterlimit:4;stroke-opacity:1;stroke-dasharray:none"
       d="m 1179.4541,1709.2761 c -20.4362,101.5246 10.3665,236.3671 87.6813,284.2569"
       id="path4004"
       inkscape:connector-curvature="0"
       sodipodi:nodetypes="cc" />
    <path
       style="fill:#000000;stroke:none"
       d="m 1169.5546,1760.8949 c -15.0412,5.6907 -26.3249,-2.1515 -38.1838,-20.5061 5.2276,31.4493 18.2166,51.3716 39.598,56.5685 z"
       id="path4006"
       inkscape:connector-curvature="0"
       sodipodi:nodetypes="cccc" />
    <path
       style="fill:#000000;stroke:none"
       d="m 1170.9688,1825.9487 c -12.7279,8.8637 -25.4558,3.1114 -38.1837,-10.6066 9.9749,26.2479 27.3416,44.7831 46.669,45.2548 z"
       id="path4008"
       inkscape:connector-curvature="0"
       sodipodi:nodetypes="cccc" />
    <path
       style="fill:#aa5c2e;fill-opacity:1;stroke:none"
       d="m 2073.2371,2168.8955 c -130.5024,-22.7326 -255.9545,-58.5958 -367.6956,-130.1077 70.6086,110.6072 258.4825,138.5062 367.6956,130.1077 z"
       id="path4010"
       inkscape:connector-curvature="0"
       sodipodi:nodetypes="ccc" />
    <path
       style="fill:#000000;stroke:none"
       d="m 1606,1635 c -12.7567,21.5264 -29.7335,50.3061 -31.5392,69.7981 -1.5727,16.9768 4.9966,28.1276 23.0392,31.2019 224.9341,38.3271 519.3171,33.3975 757.3668,8.7155 C 2463.689,1733.4323 2560.7389,1714.8573 2634,1700 c -70.5231,26.4273 -165.7101,50.2116 -274.0698,67.5639 -236.3883,37.8543 -535.4653,48.8575 -777.9302,16.4361 -63.5016,-8.4912 -88.8493,-34.0228 -65,-73 20.8021,-33.9971 63.9766,-57.9201 89,-76 z"
       id="path4012"
       inkscape:connector-curvature="0"
       sodipodi:nodetypes="cssscsssc" />
    <path
       style="fill:#000000;stroke:none"
       d="m 2438.1042,1747.4598 c 17.7104,170.9037 -106.6725,299.7618 -377.5746,327.418 312.5886,15.4025 464.6328,-147.6047 421.4152,-337.3175 z"
       id="path4014"
       inkscape:connector-curvature="0"
       sodipodi:nodetypes="cccc" />
    <path
       style="fill:#000000;stroke:none"
       d="m 2470,1822 c 31,17.7577 62,10.4713 93,-9 -23.2599,43.1958 -57.8054,56.2966 -97,57 z"
       id="path4016"
       inkscape:connector-curvature="0"
       sodipodi:nodetypes="cccc" />
    <path
       style="fill:#000000;stroke:none"
       d="m 2452,1896 c 31.3333,14.2143 68.6667,11.0663 94,-7 -26.594,44.4359 -75.8574,54.8558 -115,54 z"
       id="path4018"
       inkscape:connector-curvature="0"
       sodipodi:nodetypes="cccc" />
    <path
       style="font-size:medium;font-style:normal;font-variant:normal;font-weight:normal;font-stretch:normal;text-indent:0;text-align:start;text-decoration:none;line-height:normal;letter-spacing:normal;word-spacing:normal;text-transform:none;direction:ltr;block-progression:tb;writing-mode:lr-tb;text-anchor:start;baseline-shift:baseline;color:#000000;fill:#aa5c2e;fill-opacity:1;stroke:none;stroke-width:44;marker:none;visibility:visible;display:inline;overflow:visible;enable-background:accumulate;font-family:Sans;-inkscape-font-specification:Sans"
       d="m 1316.1562,1906.3438 c -43.3155,77.3448 -108.8543,135.9995 -212.2187,165.1562 -36.2443,10.2237 -77.8914,23.6569 -111.40625,48.1562 -33.51482,24.4994 -58.4853,63.9145 -52.75,114.5626 l 43.75,-4.9376 c -4.01797,-35.4824 9.66026,-55.5932 34.96875,-74.0937 25.3085,-18.5005 62.674,-31.5241 97.375,-41.3125 113.7879,-32.097 190.5692,-100.1664 238.6562,-186.0312 48.0871,-85.8649 67.1787,-197.3159 58.0634,-289.7843 -19.0149,88.5508 -53.1228,190.9394 -96.4384,268.2843 z"
       id="path3898-9"
       inkscape:connector-curvature="0"
       sodipodi:nodetypes="sssccssscs" />
  </g>
  <g
     inkscape:groupmode="layer"
     id="layer13"
     inkscape:label="Upper Mane"
     style="display:inline"
     sodipodi:insensitive="true"
     transform="translate(572.45415,-72)">
    <path
       id="path4029-4"
       style="fill:#f3e081;fill-opacity:1;stroke:none"
       d="m 1516.3138,1403.5649 c 49.069,6.6684 94.981,6.3188 142.8607,-2.2121 79.2818,84.7784 198.4349,138.1807 334.8666,135.3892 -84.8622,-59.7907 -135.7876,-126.3679 -139.0753,-210.0917 98.1739,94.513 244.2459,152.6824 456.3479,145.3497 -246.5968,-298.9392 8.327,-552.19913 352.6863,-508 l 210,-198 c -26.9562,-239.86376 -57.2387,-442.63279 -204,-598 30.2698,126.80157 44.3119,256.48928 52,376 -92.0943,-181.88211 -267.7392,-341.32599 -474,-414 134.9891,115.87636 297.1254,290.85933 338,432 C 2360.8802,330.97219 1696.9153,151.96589 1208.4853,233.65685 720.05525,315.34782 656.80725,780.0345 836.68629,1096.201 1016.5653,1412.3675 1201.3102,1475.5042 1446,1476 c -62.6597,-32.861 -125.3194,-68.8769 -180.7862,-124.5124 81.5035,42.844 166.0586,60.0567 251.1,52.0773 z"
       inkscape:connector-curvature="0"
       sodipodi:nodetypes="cccccccccccssccc" />
    <path
       style="fill:none;stroke:#d8b862;stroke-width:44;stroke-linecap:butt;stroke-linejoin:miter;stroke-miterlimit:7;stroke-opacity:1;stroke-dasharray:none"
       d="m 2874,766 c -26.9562,-239.86376 -57.2387,-442.63279 -204,-598 30.2698,126.80157 44.3119,256.48928 52,376 -92.0943,-181.88211 -267.7392,-341.32599 -474,-414 134.9891,115.87636 297.1254,290.85933 338,432 C 2360.8802,330.97219 1696.9153,151.96589 1208.4853,233.65685 720.05525,315.34782 656.80725,780.0345 836.68629,1096.201 1016.5653,1412.3675 1201.3102,1475.5042 1446,1476 c -62.6597,-32.861 -125.3194,-68.8769 -187.979,-128.0361"
       id="path4021"
       inkscape:connector-curvature="0"
       sodipodi:nodetypes="ccccczzcc" />
    <path
       style="font-size:medium;font-style:normal;font-variant:normal;font-weight:normal;font-stretch:normal;text-indent:0;text-align:start;text-decoration:none;line-height:normal;letter-spacing:normal;word-spacing:normal;text-transform:none;direction:ltr;block-progression:tb;writing-mode:lr-tb;text-anchor:start;baseline-shift:baseline;color:#000000;fill:#d8b862;fill-opacity:1;stroke:none;stroke-width:44;marker:none;visibility:visible;display:inline;overflow:visible;enable-background:accumulate;font-family:Sans;-inkscape-font-specification:Sans"
       d="m 1767.875,1247.0938 c 80.6338,146.5406 256.007,256.869 544.1875,246.9062 l 44.625,-1.5625 L 2328.2812,1458 c -118.9897,-144.2464 -114.6332,-267.7349 -45.0312,-354.9375 69.602,-87.2026 211.7005,-138.58681 377.9375,-117.25 l 5.625,-43.625 c -178.1223,-22.86232 -335.6682,30.29388 -417.9687,133.4063 -75.9986,95.2167 -81.5588,232.6432 18.5,374.9374 -249.6267,-2.0418 -392.5107,-100.3 -460.9376,-224.6562 -100.5048,-182.6536 -56.2541,-421.3342 123.9298,-538.86255 -219.8161,80.47165 -274.5686,356.34125 -162.461,560.08135 z"
       id="path4023"
       inkscape:connector-curvature="0"
       sodipodi:nodetypes="scccsccscscs" />
    <path
       style="font-size:medium;font-style:normal;font-variant:normal;font-weight:normal;font-stretch:normal;text-indent:0;text-align:start;text-decoration:none;line-height:normal;letter-spacing:normal;word-spacing:normal;text-transform:none;direction:ltr;block-progression:tb;writing-mode:lr-tb;text-anchor:start;baseline-shift:baseline;color:#000000;fill:#d8b862;fill-opacity:1;stroke:none;stroke-width:44;marker:none;visibility:visible;display:inline;overflow:visible;enable-background:accumulate;font-family:Sans;-inkscape-font-specification:Sans"
       d="m 1588.0312,1347.9688 c 87.6338,131.8289 234.6865,214.296 406.4688,210.7812 l 67,-1.375 -54.7812,-38.625 c -81.964,-57.7487 -127.315,-117.7266 -136.0626,-200.625 l -43.7812,4.625 c 7.9381,75.2274 43.828,136.0733 100.4375,188.4688 -127.87,-15.8018 -234.3035,-84.8478 -302.625,-187.625 -102.4061,-154.0512 -107.0188,-450.3419 24.472,-655.28712 -202.5093,181.05478 -173.5495,510.54502 -61.1283,679.66212 z"
       id="path4025"
       inkscape:connector-curvature="0"
       sodipodi:nodetypes="sccccccscs" />
    <path
       style="font-size:medium;font-style:normal;font-variant:normal;font-weight:normal;font-stretch:normal;text-indent:0;text-align:start;text-decoration:none;line-height:normal;letter-spacing:normal;word-spacing:normal;text-transform:none;direction:ltr;block-progression:tb;writing-mode:lr-tb;text-anchor:start;baseline-shift:baseline;color:#000000;fill:#d8b862;fill-opacity:1;stroke:none;stroke-width:44;marker:none;visibility:visible;display:inline;overflow:visible;enable-background:accumulate;font-family:Sans;-inkscape-font-specification:Sans"
       d="m 1263.0938,1274.75 c 96.1438,117.0055 240.3316,179.6915 404.6874,153.6875 l -6.875,-43.4687 c -149.8857,23.7145 -276.3374,-31.6625 -363.8437,-138.1563 -87.5063,-106.4938 -144.7588,-303.19935 -139.128,-472.25784 -60.3692,168.94152 9.0154,383.18984 105.1593,500.19534 z"
       id="path4027"
       inkscape:connector-curvature="0"
       sodipodi:nodetypes="sccscs" />
    <path
       style="font-size:medium;font-style:normal;font-variant:normal;font-weight:normal;font-stretch:normal;text-indent:0;text-align:start;text-decoration:none;line-height:normal;letter-spacing:normal;word-spacing:normal;text-transform:none;direction:ltr;block-progression:tb;writing-mode:lr-tb;text-anchor:start;baseline-shift:baseline;color:#000000;fill:#d8b862;fill-opacity:1;stroke:none;stroke-width:44;marker:none;visibility:visible;display:inline;overflow:visible;enable-background:accumulate;font-family:Sans;-inkscape-font-specification:Sans"
       d="m 1205.8125,1340.0625 c 88.9601,65.296 197.9776,95.9811 306.7813,85.625 l -4.1563,-43.8125 c -97.8839,9.3167 -196.1516,-18.2374 -276.5937,-77.2812 -107.7618,-79.0962 -195.9182,-256.291 -213.9456,-412.12445 -34.0273,180.16655 68.7417,360.12155 187.9143,447.59315 z"
       inkscape:connector-curvature="0"
       sodipodi:nodetypes="sccscs"
       id="path126" />
  </g>
  <g
     inkscape:groupmode="layer"
     id="layer14"
     inkscape:label="Ear"
     sodipodi:insensitive="true"
     style="display:inline"
     transform="translate(572.45415,-72)">
    <path
       style="fill:#d88b53;fill-opacity:1;stroke:none"
       d="m 3037.7307,1748.874 c 188.7699,-365.9073 177.9401,-834.02351 -48.0832,-1069.14542 -59.727,-60.90591 -114.6801,-45.42977 -166.8772,14.14214 -234.7888,191.3617 -213.3927,366.19538 -223.4458,543.05798 z"
       id="path4093"
       inkscape:connector-curvature="0"
       sodipodi:nodetypes="ccccc" />
    <path
       style="font-size:medium;font-style:normal;font-variant:normal;font-weight:normal;font-stretch:normal;text-indent:0;text-align:start;text-decoration:none;line-height:normal;letter-spacing:normal;word-spacing:normal;text-transform:none;direction:ltr;block-progression:tb;writing-mode:lr-tb;text-anchor:start;baseline-shift:baseline;color:#000000;fill:#aa5c2e;fill-opacity:1;stroke:none;stroke-width:44;marker:none;visibility:visible;display:inline;overflow:visible;enable-background:accumulate;font-family:Sans;-inkscape-font-specification:Sans"
       d="m 2906.1875,623.09375 c -30.1311,-1.21529 -60.5339,12.23148 -89.3437,37.1875 -187.9823,162.83621 -268.8838,364.88655 -214.9971,579.71965 7.8867,-205.1669 63.5028,-390.28212 243.8095,-546.46965 27.0132,-23.39964 46.5657,-29.17925 65.5626,-25.71875 18.9968,3.4605 41.5432,18.7608 67.4062,48.875 222.9253,259.5688 217.4492,665.6343 42.5,996.4375 l 38.875,20.5938 c 181.7184,-343.603 189.8389,-768.75363 -48,-1045.68755 -29.0989,-33.88209 -58.6039,-57.28269 -92.9062,-63.53125 -4.2878,-0.78107 -8.6019,-1.23264 -12.9063,-1.40625 z"
       id="path4081"
       inkscape:connector-curvature="0"
       sodipodi:nodetypes="sscsssccsss" />
    <path
       style="fill:#aa5c2e;fill-opacity:1;stroke:none"
       d="m 2844,1438 c 112.8146,-144 127.1805,-300 108,-450 73.2722,152.0084 53.6028,346.605 -108,450 z"
       id="path4083"
       inkscape:connector-curvature="0"
       sodipodi:nodetypes="ccc" />
    <path
       sodipodi:type="arc"
       style="color:#000000;fill:#f9c54e;fill-opacity:1;stroke:#bd872f;stroke-width:29.36520958;stroke-miterlimit:4;stroke-opacity:1;stroke-dasharray:none;marker:none;visibility:visible;display:inline;overflow:visible;enable-background:accumulate"
       id="path4089"
       sodipodi:cx="2932"
       sodipodi:cy="1758"
       sodipodi:rx="202"
       sodipodi:ry="202"
       d="m 3134,1758 c 0,111.5615 -90.4385,202 -202,202 -111.5615,0 -202,-90.4385 -202,-202 0,-111.5615 90.4385,-202 202,-202 111.5615,0 202,90.4385 202,202 z"
       transform="matrix(0.98756317,0,0,0.98756317,46.464841,27.863982)" />
    <path
       sodipodi:type="arc"
       style="color:#000000;fill:#f685fb;fill-opacity:1;fill-rule:nonzero;stroke:none;stroke-width:1px;marker:none;visibility:visible;display:inline;overflow:visible;enable-background:accumulate"
       id="path4091"
       sodipodi:cx="2932"
       sodipodi:cy="1780"
       sodipodi:rx="140"
       sodipodi:ry="140"
       d="m 3072,1780 c 0,77.3199 -62.6801,140 -140,140 -77.3199,0 -140,-62.6801 -140,-140 0,-77.3199 62.6801,-140 140,-140 77.3199,0 140,62.6801 140,140 z"
       transform="matrix(1.0285714,0,0,1.0285714,-75.771429,-62.857143)" />
  </g>
  <!--Created by Sigma
      http://90sigma.deviantart.com/-->
</svg>
