<?xml version="1.0" encoding="UTF-8"?><svg xmlns="http://www.w3.org/2000/svg" xmlns:xlink="http://www.w3.org/1999/xlink" version="1.1" viewBox="0 0 5881.46 5881.4565"><defs id="defs4"><linearGradient id="linearGradient4095"><stop id="stop4097" stop-color="#7fe4e9" offset="0"/><stop id="stop4099" stop-color="#194478" offset="1"/></linearGradient><clipPath id="clipPath3955" clipPathUnits="userSpaceOnUse"><path id="path3957" opacity=".5" d="m1211.8 1736.9c-22.779 115.62 7.9323 200.27 89.096 255.72 72.887-62.355 100.25-134.96 114.15-210.59-67.75 11.031-135.5-13.119-203.25-45.126z" stroke="#f00" stroke-width=".93408px" fill="#0f0"/></clipPath><clipPath id="clipPath3959" clipPathUnits="userSpaceOnUse"><path id="path3961" opacity=".5" d="m1216.2 1731.6c-35.966 105.2-17.768 187.25 51.517 247.47 76.344-50.311 111.2-114.99 133.79-183.91-65.053 3.0832-125.67-26.58-185.31-63.556z" stroke="#f00" stroke-width=".88023px" fill="#0f0"/></clipPath><clipPath id="clipPath3963" clipPathUnits="userSpaceOnUse"><path id="path3965" opacity=".5" d="m1180.9 1707.9c-23.141 130.44 8.0582 225.94 90.51 288.5 74.044-70.349 101.84-152.26 115.97-237.59-68.825 12.445-137.65-14.801-206.48-50.912z" stroke="#f00" stroke-width="1px" fill="#0f0"/></clipPath><clipPath id="clipPath3967" clipPathUnits="userSpaceOnUse"><path id="path3969" opacity=".5" d="m1597.1 1791.9c25.482 266.6 418.55 286.79 603.26 238.77 183.75-47.735 310.2-128.48 253.86-314.54-279.85 60.905-570.8 72.914-857.12 75.773z" stroke="#f00" stroke-width=".95548px" fill="#0f0"/></clipPath><clipPath id="clipPath3971" clipPathUnits="userSpaceOnUse"><path id="path3973" opacity=".5" d="m1635.5 1770.6c-3.7338 264.26 341.76 311.38 509.78 276.9 167.14-34.266 286.88-105 255.4-292.11-253.39 40.573-511.78 32.233-765.18 15.205z" stroke="#f00" stroke-width=".89491px" fill="#0f0"/></clipPath><clipPath id="clipPath3975" clipPathUnits="userSpaceOnUse"><path id="path3977" opacity=".5" d="m1578.9 1841.6c-4.0629 218.64 371.88 257.63 554.71 229.1 181.87-28.351 312.17-86.877 277.92-241.68-275.73 33.57-556.9 26.669-832.63 12.58z" stroke="#f00" stroke-width=".84913px" fill="#0f0"/></clipPath><clipPath id="clipPath3979" clipPathUnits="userSpaceOnUse"><path id="path3981" opacity=".5" d="m1583.9 1758.8c-4.2262 291.52 386.82 343.51 577 305.47 189.2-37.9 324.7-115.9 289.1-322.3-286.81 44.759-579.27 35.559-866.08 16.774z" stroke="#f00" stroke-width="1px" fill="#0f0"/></clipPath><linearGradient id="linearGradient4101" y2="1809.7" xlink:href="#linearGradient4095" gradientUnits="userSpaceOnUse" x2="1941.1" y1="2032.4" x1="1899.7"/><linearGradient id="linearGradient4109" y2="1731.2" xlink:href="#linearGradient4095" gradientUnits="userSpaceOnUse" x2="1294" y1="1923.5" x1="1281.3"/><clipPath id="clipPath898" clipPathUnits="userSpaceOnUse"><path id="path900" d="m154.35 323.48c48.4 139.21 196.1 253.62 289 244.66 44.85-4.32 88.89-14.61 124.79-55.82 64.35-73.87 68.77-262.11 4.93-356.33-157.18 36.08-300.8 83.43-418.72 167.49z" stroke="#f00" fill="#0f0"/></clipPath><clipPath id="clipPath876" clipPathUnits="userSpaceOnUse"><path id="path878" d="m490.97 853.86c92.483-8.5687 166.26-24.625 236.45-88.67 22.894 13.86 44.567 28.289 63.303 49.65 9.5404 10.877 14.686 18.989-0.13417 29.735-95.462 69.217-197.8 101.18-304.55 111.09-12.333 1.1449-24.682-4.2873-21.346-21.346 5.0467-25.813 11.668-51.691 26.273-80.46z" stroke="#f00" fill="#0f0"/></clipPath></defs><g transform="translate(572.45 -72)"><path id="path4125" fill="#895297" d="m1388 3352-442 148c-36.339 239.69-147.99 315.46-274 360 65.279 84.715 140.91 153.63 306 86l426-176z"/><path id="path3769" d="m2008.6 4240c-175.72 351.06-255.71 743.44-240 1185.7 5.3106 149.51 99.294 187.99 180 194.29 115.16 8.9883 230.48-10.166 345.71-28.571l85.7-94.3c-20.574-486.95-46.832-975.34 200.03-1328.6" stroke="#aa5c2e" stroke-width="44" fill="#c17b48"/><path id="path3771" d="m806.1 3369.6c-39.515-68.408-25.79-149.73-2.0203-234.36 19.981-71.135 12.888-142.31-38.386-197.99-86.575-94.013-209.5-152.05-345.47-163.64-105.85-9.026-189.58 49.245-220.21 177.79-69.229 290.52 107.78 603.18 311.13 735.39" stroke="#aa5c2e" stroke-width="44" fill="#d88b53"/><path id="path3773" fill="#aa5c2e" d="m288.9 2915c-21.535 232.32 289.79 267.96 408.1 236.38-164.36-32.141-332.73-57.672-408.1-236.38z"/><path id="path3777" d="m814.79 3272.6c-95.657 323.81-255.38 379.64-432.95 381.84 51.044 76.901 105.77 153.46 159.6 216.17 187.2 10.315 350.24-75.038 404.06-369.72-39.22-72.218-80.886-145.47-130.71-228.29z" stroke="#5e3e75" stroke-width="44" fill="#895297"/><path id="path3779" d="m947.52 3502.9c151.48-51.2 303.08-102.4 454.58-153.5" stroke="#5e3e75" stroke-width="44" fill="none"/><path id="path3781" d="m1394 3777.7c-147.35 66.804-292.76 128.83-452.55 179.81-120.55 38.46-209.9-15.099-274.76-94.954" stroke="#5e3e75" stroke-width="44" fill="none"/><path id="path3775" style="color:#000000" d="m909.14 3477.6c0 38.494-17.186 69.7-38.386 69.7s-38.386-31.206-38.386-69.7c0-38.495 17.186-69.701 38.386-69.701s38.386 31.206 38.386 69.701z" transform="matrix(.72645 -.73832 .73827 .72649 -2331.3 1592.1)" stroke="#bd872f" stroke-width="27.998" fill="#f9c54e"/></g><g transform="translate(572.45 -72)"><path id="path3785" d="m2784 2343.2c435.27-191.63 629.88-713.15 262.64-981.87l-136.17-5.6568-466.69 1632 229.1 59.397c43.07-97.109 111.61-216.22 123.82-313.33l-81.397 89.882 70.828-189.91-161.34 107.88z" stroke="#d8b862" stroke-miterlimit="9" stroke-width="44" fill="#f3e081"/></g><g transform="translate(572.45 -72)"><path id="path3787" d="m2831.4 2994.3c102.71-525.58 432.58-811.7 837.14-720s532.18 350.33 605.71 620c73.538 269.67 26.67 511.73-45.714 742.86s61.091 370.2 257.14 351.43c-97.408 142.49-219.79 142.98-380 34.286 92.917 187.1 295.79 209.58 445.71 100 13.496 277.81-329.15 300.92-534.29 162.86 40.263 124.97 137.85 167.39 268.57 160-243.97 145.14-491.79 152.93-728.57-25.714s-354.98-596.25-268.57-888.57c86.412-292.32 92.222-447.66-51.428-537.14-143.5-89.6-274.7-9.9-322.7 125.6z" stroke="#d8b862" stroke-miterlimit="7" stroke-width="44" fill="#f3e081"/></g><g transform="translate(572.45 -72)"><path id="path4123" fill="#d88b53" d="m2551.2 4025.8 172.53 330.93 520.43-14.142c-33.808-98.948-72.556-190.9-195.16-164.05l110.31-568.51c86.934-486.77-148.73-637.22-410.12-760.85l-268.7 206.48z"/><path id="path3803" d="m3054.3 4185.5c101.14-32.048 143.48 35.797 178.16 125.48 159.89 413.51 253.15 833.89 214.15 1268.8-8.0962 90.278-30.462 167.22-185.87 173.26-157.73 6.1279-337.86 7.6825-497.98 2.3669-158.05-5.2468-130.45-93.895-50.854-253.87 219.23-440.62 173.43-951.31-127.14-1422.7" stroke="#aa5c2e" stroke-width="44" fill="#d88b53"/><path id="path4119" fill="#f685fb" d="m2706.8 2693.6-67.882 181.02c-292.27 105.56-584.54 101.86-876.81-11.314l28.284-132.94c-118.15 46.779-263.21 79.139-178.19 234.76 164.49 111.02 344.09 116.18 523.26 124.45 185.73-9.0676 371.47-39.022 557.2-93.338 188.8-97.707 260.6-197.43 14.142-302.64z"/><path id="path3798" fill="#aa5c2e" d="m2753.6 2833.8-15.844 41.062c201.47 77.744 321.78 191.27 378.56 345.19 56.783 153.92 49.366 351.16-14.75 594.41-40.476 153.56-97.646 349.05-45.159 481.36-2.0619-102.05 47.331-317.05 87.691-470.17 65.388-248.07 74.908-454.39 13.5-620.84-61.408-166.46-194.45-290.14-404-371z"/><path id="path3790" fill="#c24ad0" d="m1925.9 2697.8c-122.96-2.3924-233.63 31.362-320.53 108.66-22.755 20.239-37.787 41.814-44 64.906-6.2126 23.092-2.6063 46.936 8.0938 67.562 21.4 41.253 67.183 72.646 126.19 98.969 118.01 52.645 299.17 76.475 465.22 54.293-169.32-12.081-338.64-46.003-447.31-94.48-54.333-24.238-91.949-53.752-105.06-79.031-6.5567-12.639-7.9926-23.474-4.6562-35.875 3.3363-12.402 12.448-27.163 30.781-43.469 89.011-79.17 204.84-108.03 340.34-94.531l4.3437-43.781c-18.034-1.7963-35.84-2.877-53.406-3.2188z"/><path id="path3792" fill="#c24ad0" d="m2663.8 2666.9-7.5624 43.344c69.07 12.017 129.62 43.726 159.31 78.812 14.846 17.543 21.941 35.002 21.781 51.875s-7.1593 34.879-27.188 54.969c-83.908 84.166-284.49 133.32-429.53 181.17 155.99-12.754 360.1-49.216 460.69-150.11 26.095-26.175 39.75-55.984 40.031-85.594 0.2808-29.61-12.366-57.328-32.188-80.75-39.643-46.845-108.08-80.277-185.34-93.719z"/><path id="path4121" fill="#d88b53" d="m3001 1833.7c-22.62 177.04-73.589 350.93-164.05 520.43-81.37 197.14-150.56 390.23-209.3 579.83-296.98 47.716-593.97 22.735-890.95-11.314 33.82-96.874 58.069-196.48 39.598-308.3z"/><path id="path3794" d="m3002.2 1826c-12.779 207.43-108.31 386.25-177.79 565.69-74.112 191.4-140.66 374.26-208.09 555.58" stroke="#aa5c2e" stroke-width="44" fill="none"/><path id="path3796" d="m1727.4 2931.2c41.848-96.494 76.428-195.41 54.548-313.15" stroke="#aa5c2e" stroke-width="44" fill="none"/><path id="path3809" d="m2731.4 5548.6c3.1137 97.924 9.0871 197.5-15.98 281.11-23.529 78.488-82.005 97.674-149.73 98.888-174.47 3.128-344.57 0.075-511.43 2.8572-110.56 1.8433-107.16-87.81-64.151-154.52 56.932-88.311 101.8-180.79 135.58-254.05" stroke="#aa5c2e" stroke-width="44" fill="#d88b53"/></g><g transform="translate(572.45 -72)"><g id="g4159" transform="matrix(.47819 .013533 -.013533 .47819 1603.6 1655.3)"><path id="path824" fill="#ddb53a" d="m2476.4 3140.5c-34.878 5.763-63.812-8.3956-90.312-32.841-27.894-25.731-62.912-11.753-57.471 36.125 12.851 113.09 68.847 211.24 185.55 224.96 83.265 9.7907 114.95 32.342 106.73 85.386 41.532-38.571 63.935-81.055 9.8522-137.93-117.27 24.428-176.21-33.803-215.11-118.23 40.504 19.156 81.007 25.715 121.51 22.988z"/><path id="path844" fill="#ddb53a" d="m2873.8 2986.2c26.583-36.228 48.022-69.058 59.113-101.81 14.508-42.834 45.663-37.257 64.039-19.704 105.26 100.54 65.542 182.85 31.199 247.95-30.186 57.216-57.351 104.54-8.2102 155.99-60.08 11.6-98.37-9.4158-113.3-75.534 52.905-45.423 140.57-175.28 62.397-257.8-14.373 43.074-42.587 80.612-78.818 114.94z"/><path id="path850" fill="#ddb53a" d="m2745.2 3344.3c40.192 85.172 114.15 194.72 96.371 265.89-6.243 24.994-26.451 42.44-40.638 62.699 80.582-18.044 164.71-29.583 227.57-80.116-21.069-5.1514-41.905-5.1684-65.021-19.739-76.818-48.419-77.414-175-109.14-271.7z"/><path id="path822" fill="#f9cf63" d="m2458.4 3124.1c48.394 139.21 196.1 253.62 289 244.66 44.85-4.3249 88.893-14.616 124.79-55.829 64.344-73.864 68.767-262.1 4.9261-356.32-157.18 36.072-300.8 83.424-418.72 167.49z"/><path id="path846" fill="#f9cf63" d="m2752.2 3455.8c-22.762 22.23-22.72 46.271 13.933 44.122 49.512-2.9031 117.1-29.8 167.2-67.344 32.317-24.221 25.081-49.722-22.061-46.444-62.27 4.3296-118.47 30.018-159.07 69.666z"/><path id="path848" fill="#f9cf63" d="m2795 3654.5c92.483-8.5686 166.26-24.625 236.45-88.67 22.894 13.86 44.567 28.289 63.303 49.65 9.5404 10.877 14.686 18.989-0.1342 29.735-95.462 69.217-197.8 101.18-304.55 111.09-12.334 1.1449-24.682-4.2873-21.346-21.346 5.0467-25.812 11.668-51.691 26.273-80.46z"/><path id="path852" d="m573.07 155.99c-178.74-13.28-314.38 49.49-418.72 167.49 149.37 9.03 303.2-44.32 418.72-167.49z" clip-path="url(#clipPath898)" transform="translate(2304 2800.6)" fill="#ae7c29"/><path id="path854" style="color:#000000" d="m559.93 380.13c0 40.356-19.849 73.071-44.335 73.071s-44.335-32.715-44.335-73.071 19.849-73.071 44.335-73.071 44.335 32.715 44.335 73.071z" fill-opacity=".50196" transform="matrix(.99267 -.12087 .12087 .99267 2261.9 2865.7)" fill="#fff"/><path id="path856" d="m784.89 778.33c-77.71 89.82-220.04 134.58-343.18 124.79" clip-path="url(#clipPath876)" transform="translate(2304 2800.6)" stroke="#ddb53a" stroke-width="14" fill="none"/></g></g><g transform="translate(572.45 -72)"><path id="path3812" d="m2656.6 3068.7c264.25 126.35 291.89 725.27-101.28 1152-250.17 60.242-720.75 63.936-1001.1-160.5-181.06-144.94-465.83-767.91 61.674-1012.5" stroke="#5e3e75" stroke-width="44" fill="#895297"/><path id="path4117" fill="#fff" d="m1965.8 3494-432.75-115.97c-12.794 208.83 22.313 525.96 171.12 738.22 35-212.47 109.99-421.07 261.63-622.25z"/><path id="path3814" d="m2577.1 3165.7c50.577 58.643 113.42 110.67 169.26 148.22-188.12 115.36-390.95 160.26-582.37 197.35 64.376 35.624 125.34 56.473 184.53 97.286-289.43 45.734-521.39 253.94-651.43 502.86-118.21-193.33-248.82-386.67-388.57-580 42.857-18.512 85.714-34.177 128.57-62.857-36.51-53.082-62.878-115.61-79.653-183.35 64.762-1.6569 141.65-27.872 188.22-45.224" stroke="#5e3e75" stroke-width="44" fill="none"/><path id="path3816" d="m1973.8 3494.8c-120.13 141.28-227.27 352.06-255.69 578.31" stroke="#5e3e75" stroke-width="44" fill="none"/><path id="path3818" d="m1535.4 3373.6c-27.306 207.49 26.266 494.87 143.42 708.07" stroke="#5e3e75" stroke-width="44" fill="none"/><path id="path3822" d="m1694.1 3649c61.972-40.424 123.94-83.38 185.91-127.6" stroke="#5e3e75" stroke-width="29" fill="none"/><path id="path3824" d="m1652.8 3646.8c-24.084-63.099-46.771-128.99-67.052-199.7" stroke="#5e3e75" stroke-width="29" fill="none"/><path id="path3820" style="color:#000000" d="m1734.3 3690.7c0 27.22-24.624 49.286-55 49.286s-55-22.066-55-49.286 24.624-49.286 55-49.286 55 22.066 55 49.286z" transform="matrix(.99459 -.10389 .10389 .99459 -384.36 197.3)" stroke="#bd872f" stroke-width="29" fill="#f9c54e"/></g><g transform="translate(572.45 -72)"><path id="path4115" fill="#895297" d="m2073.2 4003.1c24.308 424.76 71.226 846.7 39.598 1278.4 208.88 71.729 420.01 123.18 636.4 127.28-11.159-471.14-182.86-888.77-395.98-1292.6z"/><path id="path3870" fill="#5e3e75" d="m2078.7 3983c-33.236 86.744-24.243 194.97-15.285 296.79 30.456 346.18 60.42 716.41 26.688 1066.1l43.812 4.25c34.256-355.07 3.8176-727.77-26.656-1074.2-8.9631-101.88-17.951-201.5-28.559-292.94z"/><path id="path3887" fill="#5e3e75" d="m2344.2 4108.3c32.943 69.819 68.218 148.89 101.13 218.4 174.42 368.33 281.79 785.99 277.38 1106.3l44 0.625c4.5568-330.6-104.7-752.18-281.62-1125.8-33.388-70.504-81.903-160.48-140.88-199.55z"/><path id="path3895" d="m2778 5412c-249.49 7.8274-481.64-58.051-710-140-32.944 106.26-44.984 217.75-46 332 254.9 80.166 511.03 119.09 770 64 14.752-85.333 12.697-170.67-14-256z" stroke="#5e3e75" stroke-width="44" fill="#895297"/><path id="path4113" fill="#f685fb" d="m1604 2834 84 40 36-54c167.33 116.73 334.67 119.27 502 126 188.82-7.6127 367.28-41.134 526-124l108-6c18.252 74.964-73.707 129.26-174 182l12 58c44.647-18.868 74.871-22.11 30 56-49.533 72.6-104.98 103.77-162 124-122.28 47.362-218.56 115.53-303.26 192.96-71.696 100.21-173.79 121.38-282.84 124.45-129.16 2.143-258.33-40.01-387.49-82.024-79.487-45.037-152.07-95.249-113.14-229.1l141.42-277.19c-37.4-33.9-75-67.8-16.7-131.1z"/><path id="path3790-1" fill="#c24ad0" d="m1605.4 2806.4c-22.755 20.239-37.787 41.814-44 64.906-6.2126 23.092-2.6063 46.936 8.0938 67.562 21.4 41.253 67.183 72.646 126.19 98.969 118.01 52.645 299.17 76.475 465.22 54.293-169.32-12.081-338.64-46.003-447.31-94.48-54.333-24.238-91.949-53.752-105.06-79.031-6.5567-12.639-7.9926-23.474-4.6562-35.875 3.3363-12.402 12.448-27.163 30.781-43.469z"/><path id="path3792-7" fill="#c24ad0" d="m2815.5 2789.1c14.846 17.543 21.941 35.002 21.781 51.875s-7.1593 34.879-27.188 54.969c-83.908 84.166-284.49 133.32-429.53 181.17 155.99-12.754 360.1-49.216 460.69-150.11 26.095-26.175 39.75-55.984 40.031-85.594 0.2808-29.61-12.366-57.328-32.188-80.75z"/><path id="path3856" fill="#c24ad0" d="m1587.3 2956.4c-24.507 72.284-57.702 137.23-102.19 214.28-26.963 46.701-40.219 98.282-35.75 147.38 4.4693 49.093 27.604 95.742 71 128.16 120.06 89.682 263.28 107.83 378.47 116.53 118.13 8.9238 248.5 16.944 366.91-103.97 79.489-81.174 175.91-142.75 304.5-196.56 40.396-16.905 81.069-34.27 115.06-63.969 33.127-28.943 59.439-60.591 76.156-96.094 8.5833-18.228 13.413-33.382 10.312-49.719-3.1001-16.336-20.95-26.949-35.552-26.949-41.164 0-200.74 84.55-292.02 139.04 102.67-33.397 172.31-72.905 260.14-97.279 24.034-6.6696 25.358-1.024 17.306 16.161-13.362 28.52-35.449 55.624-65.281 81.688-27.124 23.698-63.129 39.825-103.12 56.562-132.41 55.413-234.76 120.35-318.94 206.31-106.81 109.07-214.08 99.824-332.12 90.906-113.25-8.5552-246.64-26.614-355.47-107.91-33.482-25.009-50.007-58.509-53.5-96.875-3.4928-38.366 7-81.515 30.031-121.41 45.097-78.11 79.933-146.01 105.75-222.16z"/><path id="path3858" d="m2687.1 2997.1c2.3809 15.504 4.7619 29.542 7.1428 48.571" stroke="#c24ad0" stroke-width="44" fill="none"/><path id="path3864" fill="#c24ad0" d="m2201.8 2924.6c-171.1 1.347-321.62-22.382-481.81-108.39 125.48 133.2 304.61 153.78 482.16 152.39 200.01-1.5745 416.57-49.645 555.84-150.15-147.82 57.882-363.44 104.64-556.18 106.15z"/><path id="path3893" style="color:#000000" d="m2701.1 5548.2c0 47.253-23.11 85.56-51.619 85.56-28.508 0-51.619-38.306-51.619-85.56 0-47.253 23.11-85.56 51.619-85.56 28.508 0 51.619 38.306 51.619 85.56z" transform="matrix(.74740 .58843 -.60117 .73499 4012.4 -99.341)" stroke="#bd872f" stroke-width="30.517" fill="#f9c54e"/></g><g transform="translate(572.45 -72)"><path id="path4111" fill="#d88b53" d="m1204.9 1335.9c-97.457 258.31-75.424 495.84 0 724.08-58.454 28.938-116.91 44.585-175.36 50.912-50.816 22.327-58.741 78.967-73.539 130.11 14.348 59.014 36.611 115.39 73.539 166.88 46.198 68.804 92.395 64.237 138.59 59.397 128.14-56.915 224.2-47.174 254.56 98.995l-246.07-8.4853c393.9 218.7 858 116.2 1235.4 30.2l524-676 124-424-512-696z"/><path id="path3910" fill="#fff" d="m1427 2567c-29.31-80.834-72.553-141.05-168-124-50.333 20.393-100.67 23.75-151 23 12.582 39.001 38.432 67.388 64 96z"/><path id="path3908" d="m1277 2556c39.115-13.023 89.834-40.541 118-65" stroke="#b9dce6" stroke-width="19" fill="none"/><path id="path3906" d="m1102 2464c22.716 47.324 54.066 87.582 106 111" stroke="#b9dce6" stroke-width="19" fill="none"/><path id="path3898" fill="#aa5c2e" d="m1316.2 1906.3c-43.316 77.345-108.85 136-212.22 165.16-36.244 10.224-77.891 23.657-111.41 48.156-33.515 24.499-58.485 63.914-52.75 114.56 9.2627 81.798 48.375 151.34 88.656 202.06 35.547 44.758 79.459 57.131 118.69 53.531 39.229-3.5997 75.013-18.6 108.44-24.094 63.774-10.482 92.84 3.5472 113.09 26.312 13.582 15.266 22.806 36.701 30.656 59.938-73.33-12.371-150.66-12.872-220.25-9.9376l-79.25 3.3438 69.656 37.938c373.65 203.59 911.42 130.31 1266.8-9.0389-365.89 86.925-811.98 151.94-1159.9 10.726 48.146-3.6743 94.59-0.4164 139.94 10.125l36.969 8.5938-10.906-36.344c-9.6195-32.056-15.99-67.039-45.844-100.59-29.853-33.554-73.852-49.538-147.09-37.5-40.189 6.6057-76.728 19.001-106.34 16.719-29.653-2.2851-52.073-1.6544-80.219-37.094-36.672-46.174-71.338-108.92-79.344-179.62-4.018-35.482 9.6603-55.593 34.969-74.094 25.308-18.5 62.674-31.524 97.375-41.312 113.79-32.097 190.57-100.17 238.66-186.03 48.087-85.865 67.179-197.32 58.063-289.78-19.015 88.551-53.123 190.94-96.438 268.28z"/><path id="path3904" d="m1204.9 1347.2c-75.189 250.29-90.108 492.6 4.2426 701.45" stroke="#aa5c2e" stroke-width="44" fill="none"/><path id="path3912" fill="#aa5c2e" d="m1168 2217c53.497 42.466 104.81 15.581 84-55-14.911 35.785-45.132 51.157-84 55z"/></g><g transform="translate(572.45 -72)"><path id="path3944" clip-path="url(#clipPath3963)" fill="url(#linearGradient4109)" d="m1266 1992c-89.589-73.344-102.58-173.5-86-284 75.425 39.428 144.09 48.816 210 46-15.591 87.914-44.9 171.26-124 238z"/><path id="path3938" clip-path="url(#clipPath3979)" fill="#fff" d="m2462 1740c-302.67 39.151-605.33 55.74-908 10-21.792 285.32 219.86 323.01 458 364 257.56-36.317 486.48-96.157 450-374z"/><path id="path3932" style="color:#000000" d="m2300 1802c0 155.74-200.58 282-448 282s-448-126.26-448-282 200.58-282 448-282 448 126.26 448 282z" clip-path="url(#clipPath3975)" transform="matrix(1.0402 0 0 1.3333 -58.411 -696.67)" fill="url(#linearGradient4101)"/><path id="path3934" style="color:#000000" d="m2254 1730c0 139.18-122.23 252-273 252s-273-112.82-273-252 122.23-252 273-252 273 112.82 273 252z" clip-path="url(#clipPath3971)" transform="matrix(1.1319 0 0 1.1032 -267.23 -194.49)"/><path id="path3936" style="color:#000000" d="m2268 1793c0 43.63-66.262 79-148 79s-148-35.37-148-79 66.262-79 148-79 148 35.37 148 79z" clip-path="url(#clipPath3967)" transform="matrix(1.0006 .076454 -.11149 1.0862 185.64 -309.63)" fill="#fff"/><path id="path3940" style="color:#000000" d="m1402 1777c0 78.977-42.981 143-96 143s-96-64.023-96-143 42.981-143 96-143 96 64.023 96 143z" clip-path="url(#clipPath3959)" transform="matrix(1.0648 -.13472 .14407 1.1938 -363.67 -195.52)"/><path id="path3942" style="color:#000000" d="m1398 1792c0 43.078-28.206 78-63 78s-63-34.922-63-78 28.206-78 63-78 63 34.922 63 78z" clip-path="url(#clipPath3955)" transform="matrix(1.0159 0 0 1.1282 -50.19 -251.74)" fill="#fff"/></g><g transform="translate(572.45 -72)"><path id="path4002" d="m1398.7 1730.5c-130.8 9.2062-223.03-34.68-330.93-91.924 96.436 82.679 198.49 147.81 318.2 147.08z"/><path id="path4004" d="m1179.5 1709.3c-20.436 101.52 10.366 236.37 87.681 284.26" stroke="#000" stroke-width="19" fill="none"/><path id="path4006" d="m1169.6 1760.9c-15.041 5.6907-26.325-2.1515-38.184-20.506 5.2276 31.449 18.217 51.372 39.598 56.568z"/><path id="path4008" d="m1171 1825.9c-12.728 8.8637-25.456 3.1114-38.184-10.607 9.9749 26.248 27.342 44.783 46.669 45.255z"/><path id="path4010" fill="#aa5c2e" d="m2073.2 2168.9c-130.5-22.733-255.95-58.596-367.7-130.11 70.609 110.61 258.48 138.51 367.7 130.11z"/><path id="path4012" d="m1606 1635c-12.757 21.526-29.734 50.306-31.539 69.798-1.5727 16.977 4.9966 28.128 23.039 31.202 224.93 38.327 519.32 33.398 757.37 8.7155 108.8-11.3 205.8-29.8 279.1-44.7-70.523 26.427-165.71 50.212-274.07 67.564-236.39 37.854-535.47 48.858-777.93 16.436-63.502-8.4912-88.849-34.023-65-73 20.802-33.997 63.977-57.92 89-76z"/><path id="path4014" d="m2438.1 1747.5c17.71 170.9-106.67 299.76-377.57 327.42 312.59 15.402 464.63-147.6 421.42-337.32z"/><path id="path4016" d="m2470 1822c31 17.758 62 10.471 93-9-23.26 43.196-57.805 56.297-97 57z"/><path id="path4018" d="m2452 1896c31.333 14.214 68.667 11.066 94-7-26.594 44.436-75.857 54.856-115 54z"/><path id="path3898-9" fill="#aa5c2e" d="m1316.2 1906.3c-43.316 77.345-108.85 136-212.22 165.16-36.244 10.224-77.891 23.657-111.41 48.156-33.515 24.499-58.485 63.914-52.75 114.56l43.75-4.9376c-4.018-35.482 9.6603-55.593 34.969-74.094 25.308-18.5 62.674-31.524 97.375-41.312 113.79-32.097 190.57-100.17 238.66-186.03 48.087-85.865 67.179-197.32 58.063-289.78-19.015 88.551-53.123 190.94-96.438 268.28z"/></g><g transform="translate(572.45 -72)"><path id="path4029-4" fill="#f3e081" d="m1516.3 1403.6c49.069 6.6684 94.981 6.3188 142.86-2.2121 79.282 84.778 198.43 138.18 334.87 135.39-84.862-59.791-135.79-126.37-139.08-210.09 98.174 94.513 244.25 152.68 456.35 145.35-246.6-298.94 8.327-552.2 352.69-508l210-198c-26.956-239.86-57.239-442.63-204-598 30.27 126.8 44.312 256.49 52 376-92.094-181.88-267.74-341.33-474-414 134.99 115.88 297.13 290.86 338 432-225.1-231.07-889.1-410.07-1377.5-328.38-488.44 81.69-551.69 546.37-371.81 862.54 179.91 316.2 364.61 379.3 609.31 379.8-62.66-32.861-125.32-68.877-180.79-124.51 81.504 42.844 166.06 60.057 251.1 52.077z"/><path id="path4021" d="m2874 766c-26.956-239.86-57.239-442.63-204-598 30.27 126.8 44.312 256.49 52 376-92.094-181.88-267.74-341.33-474-414 134.99 115.88 297.13 290.86 338 432-225.1-231.03-889.1-410.03-1377.5-328.34-488.44 81.69-551.69 546.37-371.81 862.54 179.91 316.2 364.61 379.3 609.31 379.8-62.66-32.861-125.32-68.877-187.98-128.04" stroke="#d8b862" stroke-miterlimit="7" stroke-width="44" fill="none"/><path id="path4023" fill="#d8b862" d="m1767.9 1247.1c80.634 146.54 256.01 256.87 544.19 246.91l44.625-1.5625-28.4-34.4c-118.99-144.25-114.63-267.73-45.031-354.94 69.602-87.203 211.7-138.59 377.94-117.25l5.625-43.625c-178.12-22.862-335.67 30.294-417.97 133.41-75.999 95.217-81.559 232.64 18.5 374.94-249.63-2.0418-392.51-100.3-460.94-224.66-100.5-182.65-56.254-421.33 123.93-538.86-219.82 80.472-274.57 356.34-162.46 560.08z"/><path id="path4025" fill="#d8b862" d="m1588 1348c87.634 131.83 234.69 214.3 406.47 210.78l67-1.375-54.781-38.625c-81.964-57.749-127.32-117.73-136.06-200.62l-43.781 4.625c7.9381 75.227 43.828 136.07 100.44 188.47-127.87-15.802-234.3-84.848-302.62-187.62-102.41-154.05-107.02-450.34 24.472-655.29-202.51 181.05-173.55 510.55-61.128 679.66z"/><path id="path4027" fill="#d8b862" d="m1263.1 1274.8c96.144 117.01 240.33 179.69 404.69 153.69l-6.875-43.469c-149.89 23.714-276.34-31.662-363.84-138.16-87.506-106.49-144.76-303.2-139.13-472.26-60.369 168.94 9.0154 383.19 105.16 500.2z"/><path id="path126" fill="#d8b862" d="m1205.8 1340.1c88.96 65.296 197.98 95.981 306.78 85.625l-4.1563-43.812c-97.884 9.3167-196.15-18.237-276.59-77.281-107.76-79.096-195.92-256.29-213.95-412.12-34.027 180.17 68.742 360.12 187.91 447.59z"/></g><g transform="translate(572.45 -72)"><path id="path4093" fill="#d88b53" d="m3037.7 1748.9c188.77-365.91 177.94-834.02-48.083-1069.1-59.727-60.906-114.68-45.43-166.88 14.142-234.79 191.36-213.39 366.2-223.45 543.06z"/><path id="path4081" fill="#aa5c2e" d="m2906.2 623.09c-30.131-1.2153-60.534 12.231-89.344 37.188-187.98 162.84-268.88 364.89-215 579.72 7.8867-205.17 63.503-390.28 243.81-546.47 27.013-23.4 46.566-29.179 65.563-25.719 18.997 3.4605 41.543 18.761 67.406 48.875 222.93 259.57 217.45 665.63 42.5 996.44l38.875 20.594c181.72-343.6 189.84-768.75-48-1045.7-29.099-33.882-58.604-57.283-92.906-63.531-4.2878-0.78107-8.6019-1.2326-12.906-1.4062z"/><path id="path4083" fill="#aa5c2e" d="m2844 1438c112.81-144 127.18-300 108-450 73.272 152.01 53.603 346.6-108 450z"/><path id="path4089" style="color:#000000" d="m3134 1758c0 111.56-90.438 202-202 202s-202-90.438-202-202 90.438-202 202-202 202 90.438 202 202z" transform="matrix(.98756 0 0 .98756 46.465 27.864)" stroke="#bd872f" stroke-width="29.365" fill="#f9c54e"/><path id="path4091" style="color:#000000" d="m3072 1780c0 77.32-62.68 140-140 140s-140-62.68-140-140 62.68-140 140-140 140 62.68 140 140z" transform="matrix(1.0286 0 0 1.0286 -75.771 -62.857)" fill="#f685fb"/></g></svg>