<?xml version="1.0" encoding="UTF-8" standalone="no"?>
<!-- Created with Inkscape (http://www.inkscape.org/) -->

<svg
   xmlns:dc="http://purl.org/dc/elements/1.1/"
   xmlns:cc="http://creativecommons.org/ns#"
   xmlns:rdf="http://www.w3.org/1999/02/22-rdf-syntax-ns#"
   xmlns:svg="http://www.w3.org/2000/svg"
   xmlns="http://www.w3.org/2000/svg"
   xmlns:xlink="http://www.w3.org/1999/xlink"
   xmlns:sodipodi="http://sodipodi.sourceforge.net/DTD/sodipodi-0.dtd"
   xmlns:inkscape="http://www.inkscape.org/namespaces/inkscape"
   width="5761.998"
   height="5761.998"
   id="svg2"
   version="1.1"
   inkscape:version="0.48.4 r9939"
   viewBox="0 0 5761.998 5761.9981"
   sodipodi:docname="Princess Cadance.svg">
  <title
     id="title4093">Princess Cadance Posing</title>
  <defs
     id="defs4">
    <linearGradient
       inkscape:collect="always"
       id="linearGradient4579">
      <stop
         style="stop-color:#c37fd9;stop-opacity:1"
         offset="0"
         id="stop4581" />
      <stop
         style="stop-color:#4e2671;stop-opacity:1"
         offset="1"
         id="stop4583" />
    </linearGradient>
    <linearGradient
       inkscape:collect="always"
       id="linearGradient4150">
      <stop
         style="stop-color:#f5a5c8;stop-opacity:1;"
         offset="0"
         id="stop4152" />
      <stop
         style="stop-color:#a95ae2;stop-opacity:1"
         offset="1"
         id="stop4154" />
    </linearGradient>
    <linearGradient
       inkscape:collect="always"
       id="linearGradient4140">
      <stop
         style="stop-color:#fdcced;stop-opacity:1;"
         offset="0"
         id="stop4142" />
      <stop
         style="stop-color:#c78ff4;stop-opacity:1"
         offset="1"
         id="stop4144" />
    </linearGradient>
    <linearGradient
       id="linearGradient4117">
      <stop
         style="stop-color:#7532a4;stop-opacity:1;"
         offset="0"
         id="stop4119" />
      <stop
         id="stop4125"
         offset="1"
         style="stop-color:#ba98d1;stop-opacity:1;" />
    </linearGradient>
    <linearGradient
       inkscape:collect="always"
       id="linearGradient4107">
      <stop
         style="stop-color:#f8ebad;stop-opacity:1;"
         offset="0"
         id="stop4109" />
      <stop
         style="stop-color:#ffffff;stop-opacity:1"
         offset="1"
         id="stop4111" />
    </linearGradient>
    <linearGradient
       inkscape:collect="always"
       id="linearGradient4097">
      <stop
         style="stop-color:#d43093;stop-opacity:1;"
         offset="0"
         id="stop4099" />
      <stop
         style="stop-color:#ffffff;stop-opacity:1"
         offset="1"
         id="stop4101" />
    </linearGradient>
    <linearGradient
       inkscape:collect="always"
       xlink:href="#linearGradient4097"
       id="linearGradient4103"
       x1="2411.4285"
       y1="4458.0728"
       x2="2608.5713"
       y2="2435.2156"
       gradientUnits="userSpaceOnUse" />
    <linearGradient
       inkscape:collect="always"
       xlink:href="#linearGradient4107"
       id="linearGradient4113"
       x1="2294.6528"
       y1="4130.541"
       x2="2464.0806"
       y2="2582.9873"
       gradientUnits="userSpaceOnUse" />
    <linearGradient
       inkscape:collect="always"
       xlink:href="#linearGradient4117"
       id="linearGradient4123"
       x1="2463.4517"
       y1="4796.0947"
       x2="2538.5891"
       y2="3482.8965"
       gradientUnits="userSpaceOnUse" />
    <linearGradient
       inkscape:collect="always"
       xlink:href="#linearGradient4140"
       id="linearGradient4146"
       x1="2261.458"
       y1="2034.0634"
       x2="1742.8479"
       y2="1944.8573"
       gradientUnits="userSpaceOnUse" />
    <linearGradient
       inkscape:collect="always"
       xlink:href="#linearGradient4140"
       id="linearGradient4148"
       x1="3611.6411"
       y1="2087.6116"
       x2="4254.4805"
       y2="2070.8076"
       gradientUnits="userSpaceOnUse" />
    <linearGradient
       inkscape:collect="always"
       xlink:href="#linearGradient4150"
       id="linearGradient4156"
       x1="3611.6411"
       y1="2087.6116"
       x2="4254.4805"
       y2="2070.8076"
       gradientUnits="userSpaceOnUse" />
    <linearGradient
       inkscape:collect="always"
       xlink:href="#linearGradient4150"
       id="linearGradient4158"
       x1="2261.458"
       y1="2034.0634"
       x2="1742.8479"
       y2="1944.8573"
       gradientUnits="userSpaceOnUse" />
    <linearGradient
       inkscape:collect="always"
       xlink:href="#linearGradient4150"
       id="linearGradient4166"
       x1="3611.6411"
       y1="2087.6116"
       x2="4254.4805"
       y2="2070.8076"
       gradientUnits="userSpaceOnUse" />
    <linearGradient
       inkscape:collect="always"
       xlink:href="#linearGradient4150"
       id="linearGradient4176"
       x1="2261.458"
       y1="2034.0634"
       x2="1742.8479"
       y2="1944.8573"
       gradientUnits="userSpaceOnUse" />
    <linearGradient
       inkscape:collect="always"
       xlink:href="#linearGradient4097"
       id="linearGradient4203"
       x1="3612.1345"
       y1="3104.3284"
       x2="4767.6328"
       y2="5587.2402"
       gradientUnits="userSpaceOnUse" />
    <linearGradient
       inkscape:collect="always"
       xlink:href="#linearGradient4107"
       id="linearGradient4213"
       x1="3815.9573"
       y1="3250.5088"
       x2="3870.0825"
       y2="882.50873"
       gradientUnits="userSpaceOnUse" />
    <linearGradient
       inkscape:collect="always"
       xlink:href="#linearGradient4117"
       id="linearGradient4225"
       x1="3439.3674"
       y1="2957.2974"
       x2="3767.4648"
       y2="4784.4614"
       gradientUnits="userSpaceOnUse" />
    <linearGradient
       inkscape:collect="always"
       xlink:href="#linearGradient4097"
       id="linearGradient4385"
       x1="2626.8848"
       y1="2475.9321"
       x2="1924.4688"
       y2="931.93213"
       gradientUnits="userSpaceOnUse" />
    <linearGradient
       inkscape:collect="always"
       xlink:href="#linearGradient4107"
       id="linearGradient4395"
       x1="2602.4497"
       y1="2095.9106"
       x2="2088.9124"
       y2="807.91064"
       gradientUnits="userSpaceOnUse" />
    <linearGradient
       inkscape:collect="always"
       xlink:href="#linearGradient4117"
       id="linearGradient4405"
       x1="2565.3835"
       y1="2629.2788"
       x2="2453.998"
       y2="3548.5176"
       gradientUnits="userSpaceOnUse" />
    <clipPath
       clipPathUnits="userSpaceOnUse"
       id="clipPath4479">
      <path
         style="opacity:0.5;fill:#00ff00;fill-opacity:1;stroke:#ff0000;stroke-width:1px;stroke-linecap:butt;stroke-linejoin:miter;stroke-opacity:1"
         d="m 2293.1019,1610.408 c 166.9308,-2.0872 308.3033,33.571 319.3355,261.7192 15.6044,115.9893 22.5264,231.0109 -24.8221,339.9842 -8.0151,46.9967 -9.4283,86.0932 -8.8032,122.7505 -24.3311,-23.5787 -54.3151,-39.6948 -91.8856,-45.7956 -67.6926,-3.4322 -131.7509,-29.9538 -187.75,-107.6786 -76.1235,-201.0914 -53.4111,-410.0896 -6.0746,-570.9797 z"
         id="path4481"
         inkscape:connector-curvature="0"
         sodipodi:nodetypes="ccccccc" />
    </clipPath>
    <clipPath
       clipPathUnits="userSpaceOnUse"
       id="clipPath4483">
      <path
         style="opacity:0.5;fill:#00ff00;fill-opacity:1;stroke:#ff0000;stroke-width:1.0001663px;stroke-linecap:butt;stroke-linejoin:miter;stroke-opacity:1"
         d="m 2299.6189,1531.2888 c 166.9726,-7.835 308.5161,22.9518 320.3789,250.6973 16.0296,115.4404 23.3708,230.2121 -23.5966,340.8049 -7.847,47.268 -9.1188,86.4092 -8.3606,123.0413 -24.4238,-22.7385 -54.4751,-37.8206 -92.0788,-42.6271 -67.7251,-1.101 -131.8985,-25.4143 -188.196,-101.203 -76.8751,-198.4502 -54.914,-408.2095 -8.1469,-570.7134 z"
         id="path4485"
         inkscape:connector-curvature="0"
         sodipodi:nodetypes="ccccccc" />
    </clipPath>
    <clipPath
       clipPathUnits="userSpaceOnUse"
       id="clipPath4487">
      <path
         style="opacity:0.5;fill:#00ff00;fill-opacity:1;stroke:#ff0000;stroke-width:1px;stroke-linecap:butt;stroke-linejoin:miter;stroke-opacity:1"
         d="m 3715.1365,1004.4325 c -103.7253,10.1616 -206.7567,21.8277 -282.6093,92.4097 -68.9157,61.6865 -97.7512,327.7817 -55.3731,461.0926 7.1632,53.4923 16.7499,105.4783 17.2363,163.12 31.16,-24.8024 64.0981,-30.5582 97.3361,-33.1015 98.9126,-2.6694 190.9043,-25.7616 238.213,-180.706 53.0957,-225.8639 9.2959,-394.7517 -14.803,-502.8148 z"
         id="path4489"
         inkscape:connector-curvature="0"
         sodipodi:nodetypes="ccccccc" />
    </clipPath>
    <clipPath
       clipPathUnits="userSpaceOnUse"
       id="clipPath4491">
      <path
         style="opacity:0.5;fill:#00ff00;fill-opacity:1;stroke:#ff0000;stroke-width:1px;stroke-linecap:butt;stroke-linejoin:miter;stroke-opacity:1"
         d="m 3685.1005,1111.8684 c -103.9756,7.1449 -207.3003,15.8137 -285.1359,84.1614 -70.6476,59.6576 -107.0562,324.7962 -68.4937,459.278 5.6359,53.6763 13.7373,105.9174 12.5807,163.5474 31.855,-23.8863 64.9447,-28.6831 98.2426,-30.26 98.9512,0.2041 191.5661,-20.2063 243.273,-173.7074 59.5129,-224.2209 20.5432,-394.3049 -0.4667,-503.0194 z"
         id="path4493"
         inkscape:connector-curvature="0"
         sodipodi:nodetypes="ccccccc" />
    </clipPath>
    <clipPath
       clipPathUnits="userSpaceOnUse"
       id="clipPath4541">
      <ellipse
         style="color:#000000;fill:#ff0000;fill-opacity:1;fill-rule:nonzero;stroke:none;stroke-width:1px;marker:none;visibility:visible;display:inline;overflow:visible;enable-background:accumulate"
         id="ellipse4543"
         cx="2496.3464"
         cy="1908.9506"
         rx="168.99065"
         ry="315.95743"
         transform="matrix(0.99706599,-0.07654675,0.10223161,0.99476062,0,0)"
         clip-path="none"
         sodipodi:cx="2496.3464"
         sodipodi:cy="1908.9506"
         sodipodi:rx="168.99065"
         sodipodi:ry="315.95743" />
    </clipPath>
    <clipPath
       clipPathUnits="userSpaceOnUse"
       id="clipPath4545">
      <ellipse
         style="color:#000000;fill:#ff0000;fill-opacity:1;fill-rule:nonzero;stroke:none;stroke-width:1px;marker:none;visibility:visible;display:inline;overflow:visible;enable-background:accumulate"
         id="ellipse4547"
         cx="2496.3464"
         cy="1908.9506"
         rx="168.99065"
         ry="315.95743"
         transform="matrix(0.99706599,-0.07654675,0.10223161,0.99476062,0,0)"
         clip-path="none"
         sodipodi:cx="2496.3464"
         sodipodi:cy="1908.9506"
         sodipodi:rx="168.99065"
         sodipodi:ry="315.95743" />
    </clipPath>
    <clipPath
       clipPathUnits="userSpaceOnUse"
       id="clipPath4571">
      <ellipse
         style="color:#000000;fill:#ff0000;fill-opacity:1;fill-rule:nonzero;stroke:none;stroke-width:1px;marker:none;visibility:visible;display:inline;overflow:visible;enable-background:accumulate"
         id="ellipse4573"
         cx="3540.7202"
         cy="1497.7803"
         rx="172.97888"
         ry="330.01492"
         transform="matrix(0.99800858,0.06307829,-0.06454178,0.99791501,0,0)"
         clip-path="none"
         sodipodi:cx="3540.7202"
         sodipodi:cy="1497.7803"
         sodipodi:rx="172.97888"
         sodipodi:ry="330.01492" />
    </clipPath>
    <clipPath
       clipPathUnits="userSpaceOnUse"
       id="clipPath4575">
      <ellipse
         style="color:#000000;fill:#ff0000;fill-opacity:1;fill-rule:nonzero;stroke:none;stroke-width:1px;marker:none;visibility:visible;display:inline;overflow:visible;enable-background:accumulate"
         id="ellipse4577"
         cx="3540.7202"
         cy="1497.7803"
         rx="172.97888"
         ry="330.01492"
         transform="matrix(0.99800858,0.06307829,-0.06454178,0.99791501,0,0)"
         clip-path="none"
         sodipodi:cx="3540.7202"
         sodipodi:cy="1497.7803"
         sodipodi:rx="172.97888"
         sodipodi:ry="330.01492" />
    </clipPath>
    <linearGradient
       inkscape:collect="always"
       xlink:href="#linearGradient4579"
       id="linearGradient4585"
       x1="2512.2844"
       y1="2198.624"
       x2="2506.7859"
       y2="1704.2759"
       gradientUnits="userSpaceOnUse" />
    <linearGradient
       inkscape:collect="always"
       xlink:href="#linearGradient4579"
       id="linearGradient4593"
       x1="3519.9209"
       y1="1770.2886"
       x2="3556.5051"
       y2="1262.7451"
       gradientUnits="userSpaceOnUse" />
    <linearGradient
       inkscape:collect="always"
       xlink:href="#linearGradient4097"
       id="linearGradient4637"
       x1="3628.8721"
       y1="1140.7622"
       x2="2279.7124"
       y2="419.51321"
       gradientUnits="userSpaceOnUse" />
    <linearGradient
       inkscape:collect="always"
       xlink:href="#linearGradient4107"
       id="linearGradient4647"
       x1="3883.4304"
       y1="1188.8455"
       x2="2921.7649"
       y2="459.11124"
       gradientUnits="userSpaceOnUse" />
    <linearGradient
       inkscape:collect="always"
       xlink:href="#linearGradient4117"
       id="linearGradient4729"
       x1="3357.5845"
       y1="1136.3185"
       x2="2525.4548"
       y2="796.31848"
       gradientUnits="userSpaceOnUse" />
  </defs>
  <sodipodi:namedview
     id="base"
     pagecolor="#ffffff"
     bordercolor="#666666"
     borderopacity="1.0"
     inkscape:pageopacity="0.0"
     inkscape:pageshadow="2"
     inkscape:zoom="0.70710678"
     inkscape:cx="2753.8836"
     inkscape:cy="5391.1332"
     inkscape:document-units="px"
     inkscape:current-layer="layer2"
     showgrid="false"
     fit-margin-top="55.6"
     fit-margin-left="0"
     fit-margin-right="0"
     fit-margin-bottom="55.6"
     inkscape:window-width="1920"
     inkscape:window-height="1028"
     inkscape:window-x="1272"
     inkscape:window-y="217"
     inkscape:window-maximized="1"
     inkscape:snap-global="false"
     inkscape:object-paths="true"
     inkscape:object-nodes="true"
     showguides="false" />
  <metadata
     id="metadata7">
    <rdf:RDF>
      <cc:Work
         rdf:about="">
        <dc:format>image/svg+xml</dc:format>
        <dc:type
           rdf:resource="http://purl.org/dc/dcmitype/StillImage" />
        <dc:title>Princess Cadance Posing</dc:title>
      </cc:Work>
    </rdf:RDF>
  </metadata>
  <g
     inkscape:groupmode="layer"
     id="layer20"
     inkscape:label="Background"
     sodipodi:insensitive="true"
     style="display:none"
     transform="translate(-64.489394,13.397823)">
    <rect
       style="color:#000000;fill:#000000;fill-opacity:1;fill-rule:nonzero;stroke:#00ff00;stroke-width:1;stroke-linecap:butt;stroke-linejoin:miter;stroke-miterlimit:4;stroke-opacity:1;stroke-dasharray:none;stroke-dashoffset:0;marker:none;visibility:visible;display:inline;overflow:visible;enable-background:accumulate"
       id="rect4753"
       width="6016"
       height="6144"
       x="-32.00005"
       y="-63.999989" />
  </g>
  <g
     inkscape:groupmode="layer"
     id="layer2"
     inkscape:label="Shadow"
     style="opacity:0.2;display:none"
     sodipodi:insensitive="true"
     transform="translate(-64.489394,13.397823)">
    <ellipse
       style="color:#000000;fill:#000000;fill-opacity:1;fill-rule:nonzero;stroke:none;stroke-width:1px;marker:none;visibility:visible;display:inline;overflow:visible;enable-background:accumulate"
       id="path4074"
       cx="2882.8572"
       cy="5414.2852"
       rx="1671.4286"
       ry="545.71429"
       sodipodi:cx="2882.8572"
       sodipodi:cy="5414.2852"
       sodipodi:rx="1671.4286"
       sodipodi:ry="545.71429"
       d="m 4554.2858,5414.2852 c 0,301.3896 -748.3241,545.7143 -1671.4286,545.7143 -923.1045,0 -1671.4286,-244.3247 -1671.4286,-545.7143 0,-301.3897 748.3241,-545.7143 1671.4286,-545.7143 923.1045,0 1671.4286,244.3246 1671.4286,545.7143 z" />
  </g>
  <g
     inkscape:groupmode="layer"
     id="layer3"
     inkscape:label="Tail"
     style="display:inline"
     sodipodi:insensitive="true"
     transform="translate(-64.489394,13.397823)">
    <path
       style="fill:url(#linearGradient4123);fill-opacity:1;stroke:none"
       d="m 2448.6098,3102.8826 c -84.7531,323.2397 -64.2633,636.912 -32.3249,949.5434 -2.1492,239.953 10.3093,481.5291 -84.8528,711.1474 -75.4471,-27.8414 -149.9449,-45.874 -214.1524,42.4264 -48.0229,126.5552 -76.7508,253.8214 -30.3045,383.858 80.2362,122.3539 199.9883,117.0411 329.3097,80.8122 281.4612,-622.6333 235.2697,-1293.8077 238.396,-1957.6757 z"
       id="path4115"
       inkscape:connector-curvature="0"
       sodipodi:nodetypes="cccccccc" />
    <path
       style="fill:url(#linearGradient4113);fill-opacity:1;stroke:none"
       d="m 2266.7823,2807.918 c -124.0142,224.0925 -182.2556,472.6248 -152.8499,755.8393 21.2589,190.1487 73.1161,407.947 92.2408,577.5621 -146.1526,-91.6694 -259.1005,-23.9566 -367.6956,64.6498 -111.1708,126.7718 -189.1398,289.512 -171.7259,555.5839 390.6058,209.2919 519.3502,-6.9411 658.6195,-206.0711 63.54,-193.2203 123.4264,-389.0863 78.7919,-660.6398 -99.7437,-344.3059 -68.8516,-697.6212 -14.1422,-1052.5791 z"
       id="path4105"
       inkscape:connector-curvature="0"
       sodipodi:nodetypes="ccccccccc" />
    <path
       style="fill:url(#linearGradient4103);fill-opacity:1;stroke:none"
       d="m 2397.1429,2925.7143 c -209.4502,234.4591 -133.8194,542.1736 -63.2038,805.7144 45.5695,170.0677 124.761,605.5096 -139.6534,957.1428 -164.3261,218.5301 -427.738,156.0768 -531.4286,15.7144 24.0878,330.1198 160.0949,528.1841 428.5715,478.5713 -60.409,-125.4027 -31.1918,-245.0231 25.7143,-362.8571 79.4848,-103.9288 163.3859,-122.4756 254.2857,-5.7143 111.5555,-167.6437 121.8699,-512.346 91.4285,-751.4286 -38.4738,-302.1679 -63.8808,-604.3213 71.4286,-822.8571 z"
       id="path4095"
       inkscape:connector-curvature="0"
       sodipodi:nodetypes="cssccccscc" />
    <path
       style="font-style:normal;font-variant:normal;font-weight:normal;font-stretch:normal;text-indent:0;text-align:start;text-decoration:none;line-height:normal;letter-spacing:normal;word-spacing:normal;text-transform:none;direction:ltr;block-progression:tb;writing-mode:lr-tb;text-anchor:start;baseline-shift:baseline;color:#000000;fill:#852fbb;fill-opacity:1;stroke:none;stroke-width:39;marker:none;visibility:visible;display:inline;overflow:visible;enable-background:accumulate;font-family:sans-serif;-inkscape-font-specification:sans-serif"
       d="m 2225.4609,2844.9727 c -167.8459,304.5481 -163.9864,719.7243 -75.0254,1064.8378 43.7643,169.7781 50.6726,420.418 27.0665,527.0118 -23.682,106.9362 -91.9296,166.421 -172.4551,217.0644 -19.0581,11.9859 -34.3218,17.8068 -45.5254,19.5156 -11.2036,1.7089 -18.0985,-0.023 -24.4375,-3.8964 -12.678,-7.7467 -24.5216,-30.0071 -32.0977,-62.1719 -25.631,-108.8185 2.7398,-235.6792 77.3262,-283.4375 39.9828,-25.6013 64.9303,-26.3641 72.4551,-23.293 3.7624,1.5356 4.6459,2.7897 5.6094,5.9903 0.9634,3.2005 1.0438,8.9245 -1.6211,16.0839 -14.1428,37.9942 -40.6967,88.7591 -70.1491,124.5603 40.7533,-22.2826 90.1516,-66.4981 106.6998,-110.9548 5.0078,-13.4533 6.4254,-27.6106 2.4161,-40.9297 -4.0094,-13.3191 -14.4085,-25.2237 -28.2168,-30.8594 -27.6166,-11.2712 -62.9582,-2.4245 -108.2227,26.5586 -95.9082,61.4108 -122.8042,204.0267 -94.2578,325.2227 8.5336,36.2302 21.2787,69.1295 49.7226,86.5098 14.222,8.6901 32.023,12.0135 50.6543,9.1718 18.6314,-2.8417 38.3417,-11.1799 60.4063,-25.0566 83.9651,-52.8066 163.2737,-121.9934 189.7715,-241.6445 26.5736,-119.9937 18.3716,-367.6958 -27.3789,-545.1797 -87.1238,-337.9858 -89.0125,-745.1899 71.416,-1036.2793 z"
       id="path4079"
       inkscape:connector-curvature="0"
       sodipodi:nodetypes="csssssssccscsssssssssscc" />
    <path
       style="fill:none;stroke:#852fbb;stroke-width:39;stroke-linecap:butt;stroke-linejoin:miter;stroke-miterlimit:4;stroke-opacity:1;stroke-dasharray:none"
       d="m 2202.1325,4153.4412 c -91.5871,-81.73 -181.5298,-62.7624 -272.7411,-10.1015 -310.799,179.4399 -330.9201,654.1915 -155.5635,927.3201 83.8632,130.6221 206.6366,132.3768 321.2285,117.1777"
       id="path4085"
       inkscape:connector-curvature="0"
       sodipodi:nodetypes="cssc" />
    <path
       style="font-style:normal;font-variant:normal;font-weight:normal;font-stretch:normal;text-indent:0;text-align:start;text-decoration:none;line-height:normal;letter-spacing:normal;word-spacing:normal;text-transform:none;direction:ltr;block-progression:tb;writing-mode:lr-tb;text-anchor:start;baseline-shift:baseline;color:#000000;fill:#69288f;fill-opacity:1;stroke:none;stroke-width:39;marker:none;visibility:visible;display:inline;overflow:visible;enable-background:accumulate;font-family:sans-serif;-inkscape-font-specification:sans-serif"
       d="m 2242.8105,4716.8574 c -41.7381,1.5086 -83.7973,18.8917 -116.707,52.3184 -39.3177,39.9354 -63.2389,109.0802 -74.3301,185.332 -11.0912,76.2518 -8.3524,159.5393 13.9922,227.3125 23.7416,72.0103 90.7674,111.3922 158.8262,126.2871 68.0588,14.895 138.7035,8.2301 183.0879,-20.2695 l -21.0723,-32.8184 c -29.4399,18.9037 -94.2509,27.9961 -153.6777,14.9903 -59.4269,-13.0058 -111.9196,-45.1817 -130.125,-100.4004 -19.6025,-59.4558 -22.7952,-138.2772 -12.4375,-209.4864 10.3577,-71.2091 35.2672,-134.8798 63.5293,-163.5859 59.9375,-60.8792 150.6002,-55.2422 195.4473,14.0567 22.6602,35.0151 26.1116,72.3849 19.1464,105.0937 -6.9651,32.7088 -25.373,60.0667 -42.1992,71.8691 -19.8703,13.9377 -37.804,19.6348 -51.9922,19.2598 -14.1881,-0.375 -25.5167,-5.7333 -36.2636,-19.0586 -9.5118,-11.7937 -13.6313,-30.7023 -11.4336,-48.6055 2.1977,-17.9031 10.7126,-33.6115 19.4238,-38.8281 28.7334,-17.2068 46.727,-15.7016 55.6377,25.7054 20.0224,-42.4357 -29.028,-89.3278 -77.0967,-58.2718 -22.2983,14.4064 -33.4228,40.1585 -36.6738,66.6426 -3.2511,26.4841 1.7329,55.4587 19.7851,77.8418 16.8171,20.8515 40.504,32.8976 65.5899,33.5605 25.0858,0.663 50.6853,-8.9687 75.4199,-26.3183 27.7787,-19.4848 49.1301,-54.2588 57.9492,-95.6739 8.8191,-41.415 4.0814,-90.161 -24.5508,-134.4043 -32.4775,-50.185 -85.612,-74.4884 -139.2754,-72.5488 z"
       id="path4087"
       inkscape:connector-curvature="0"
       sodipodi:nodetypes="sssssccssssssssssscssssssss" />
  </g>
  <g
     inkscape:groupmode="layer"
     id="layer4"
     inkscape:label="Wings"
     style="display:inline"
     sodipodi:insensitive="true"
     transform="translate(-64.489394,13.397823)">
    <path
       style="fill:url(#linearGradient4146);fill-opacity:1;stroke:url(#linearGradient4158);stroke-width:39;stroke-linecap:butt;stroke-linejoin:miter;stroke-miterlimit:4;stroke-opacity:1;stroke-dasharray:none"
       d="m 2771.8586,2706.9027 c -291.5442,6.1407 -376.6781,-216.5798 -395.9798,-537.4011 -13.6518,-226.9105 -34.9854,-450.8671 -88.8934,-666.7007 -55.5873,-222.5571 -278.1966,-285.6358 -404.0611,-303.0458 C 1637.604,1165.8215 1392.57,1145.9727 1141.4724,1096.7196 772.43371,1024.3323 651.55696,848.31883 618.21332,579.52146 590.17389,353.48358 418.18158,354.88436 359.61427,573.46054 c -62.3927,232.85273 69.83049,530.78716 317.1879,699.02556 -216.44862,33.3859 -474.05899,-296.07973 -531.34025,-189.9087 -57.281257,106.1711 109.22424,406.2419 424.26407,577.8073 -228.26049,48.7246 -503.130639,107.5978 -484.873224,254.5584 18.257414,146.9606 374.429884,137.5676 561.644824,129.2995 -147.38768,97.2391 -247.50067,194.4769 -109.3311,250.7639 138.16956,56.2871 369.68677,2.146 521.47331,-56.8146 -117.09445,152.6059 -136.44191,245.2989 -38.3504,282.9524 98.0914,37.6536 323.5761,-45.0949 543.4267,-173.8559 -132.9429,306.5677 78.4935,355.5254 303.0458,242.4366 -59.7099,153.5422 59.5278,189.036 220.2132,161.6244 -97.9836,237.9544 193.734,276.3189 539.4215,292.9444"
       id="path4128"
       inkscape:connector-curvature="0"
       sodipodi:nodetypes="cssssssczczczczcccc" />
    <path
       style="font-style:normal;font-variant:normal;font-weight:normal;font-stretch:normal;text-indent:0;text-align:start;text-decoration:none;line-height:normal;letter-spacing:normal;word-spacing:normal;text-transform:none;direction:ltr;block-progression:tb;writing-mode:lr-tb;text-anchor:start;baseline-shift:baseline;color:#000000;fill:url(#linearGradient4176);fill-opacity:1;stroke:none;stroke-width:27;marker:none;visibility:visible;display:inline;overflow:visible;enable-background:accumulate;font-family:sans-serif;-inkscape-font-specification:sans-serif"
       d="m 1819.4785,1376.2832 c -43.673,-0.1925 -85.4932,10.99 -120.4863,36.8477 -54.4383,40.2263 -80.201,111.8106 -62.5078,182.7187 15.8948,63.701 67.0151,126.0567 160.4785,165.7266 -50.4961,21.5759 -86.4691,47.1048 -109.707,74.6601 -28.045,33.2555 -37.428,69.953 -30.6504,102.7696 12.3077,59.5935 74.4418,102.8857 152.914,103.5097 -23.8677,51.33 -21.9037,99.2296 5.2891,130.4395 26.0015,29.8427 71.7065,40.9373 129.3769,28.791 -5.8548,11.2192 -10.3915,22.0003 -12.666,32.5664 -15.5763,72.36 52.4389,109.5908 129.6735,112.3178 -67.0154,-26.2643 -115.1347,-54.6407 -103.3961,-106.1108 3.3503,-14.6901 12.1382,-32.4154 26.9922,-53.0215 l 24.7754,-34.3691 -40.0918,13.6992 c -67.7551,23.1518 -113.1689,12.6534 -134.3086,-11.6093 -21.1398,-24.2628 -22.8062,-67.0944 8.8496,-120.2286 l 13.7461,-23.0722 -26.7168,2.7324 c -79.1992,8.0986 -137.9481,-32.4533 -147.9961,-81.1055 -5.024,-24.3261 1.0591,-51.6917 24.8496,-79.9023 23.7905,-28.2106 65.7429,-56.682 130.9961,-79.5 l 37.3965,-13.0762 -37.5996,-12.4785 c -108.3575,-35.965 -160.829,-98.444 -176.0079,-159.2754 -15.1788,-60.8314 6.9479,-120.9121 52.3575,-154.4668 52.7629,-38.9883 126.487,-39.7927 198.1113,-13.6582 71.6243,26.1345 139.7786,79.2093 178.4336,143.1465 127.5213,210.9261 215.944,447.1803 104.084,725.3906 -41.5209,103.2676 -62.0236,202.1923 -48.7266,290.7129 13.297,88.5206 67.7983,178.0569 176.7172,227.7194 -94.7279,-69.1314 -137.7718,-150.2187 -150.016,-231.7311 -12.2443,-81.5124 6.6444,-176.0699 47.0762,-276.6289 115.6946,-287.7475 23.287,-535.5365 -106.0293,-749.4317 -42.4466,-70.2086 -114.8652,-126.2944 -192.2833,-154.5429 -33.8703,-12.3588 -68.9598,-19.3894 -102.9277,-19.5391 z"
       id="path4130"
       inkscape:connector-curvature="0"
       sodipodi:nodetypes="ssscsscscscsscsssccsscccsssssscsssss" />
    <path
       style="fill:url(#linearGradient4148);fill-opacity:1;stroke:url(#linearGradient4156);stroke-width:39;stroke-linecap:butt;stroke-linejoin:miter;stroke-miterlimit:4;stroke-opacity:1;stroke-dasharray:none"
       d="m 3737.4142,2847.5147 c 208.4928,-7.3267 340.8562,-14.8327 297.4142,-200.2426 265.5403,149.12 423.6775,-6.2747 291.5147,-248.3432 226.4407,115.9167 481.2395,210.9825 569.6569,161.0711 88.4174,-49.9114 3.9421,-188.4046 -62.3431,-277.8995 264.1936,85.1143 526.713,89.6357 564.4436,8.9706 37.7306,-80.6652 -41.6574,-146.3964 -150.5858,-214.1422 230.5185,3.289 535.8076,6.1105 558.1422,-132.9289 22.3345,-139.0394 -240.5128,-226.1472 -485.6569,-252 357.0344,-170.2876 481.661,-548.4012 416.2426,-604.9289 -65.4184,-56.5277 -290.1578,211.0788 -518.3431,205.6152 C 5496.3233,1099.5107 5609.427,765.11275 5500,512.00001 5454.039,405.68876 5310.8014,384.88672 5284,540.72793 5238.2129,806.96435 5193.9437,980.58894 4891.3137,1080.6863 4655.6262,1158.6419 4386.1198,1190.3654 4120,1212 c -216.2953,17.5841 -277.8613,248.5407 -356,456"
       id="path4136"
       inkscape:connector-curvature="0"
       sodipodi:nodetypes="ccczczczczcssssc" />
    <path
       style="fill:none;stroke:url(#linearGradient4166);stroke-width:27;stroke-linecap:butt;stroke-linejoin:miter;stroke-miterlimit:4;stroke-opacity:1;stroke-dasharray:none"
       d="m 4056,2088 c 204.4024,3.8219 234.2591,-220.5987 10,-264 280.3459,-135.2158 193.9405,-422.5051 -24,-384"
       id="path4138"
       inkscape:connector-curvature="0"
       sodipodi:nodetypes="ccc" />
  </g>
  <g
     inkscape:groupmode="layer"
     id="layer5"
     inkscape:label="Rear Mane"
     sodipodi:insensitive="true"
     style="display:inline"
     transform="translate(-64.489394,13.397823)">
    <path
       style="fill:url(#linearGradient4225);fill-opacity:1;stroke:none"
       d="m 3790.0923,1231.2719 c 63.5756,546.5981 11.8077,1101.435 -135.7645,1663.1151 -67.771,479.4323 -153.4457,956.6267 -56.5685,1456.6401 95.9281,-22.5327 155.5052,41.2684 209.3036,118.7939 49.7555,88.8167 100.203,177.5182 118.7939,271.529 -20.641,167.3725 -109.0703,204.5914 -263.0437,115.9655 -146.5698,-133.6412 -264.5846,-291.7582 -336.5828,-489.3179 l -73.5391,-1598.0614 118.7939,-1714.0268 z"
       id="path4217"
       inkscape:connector-curvature="0"
       sodipodi:nodetypes="cccccccccc" />
    <path
       style="fill:#d43093;stroke:none"
       d="m 3331.8872,2091.1137 c 54.1581,269.191 54.7254,535.9461 -56.5686,797.6165 l -87.6812,-33.9412 45.2548,-593.9697 z"
       id="path4215"
       inkscape:connector-curvature="0"
       sodipodi:nodetypes="ccccc" />
    <path
       style="fill:url(#linearGradient4213);fill-opacity:1;stroke:none"
       d="m 3807.0629,1361.3795 c 42.0213,514.0081 7.628,1023.9944 -152.7351,1527.3507 -72.7966,510.7367 -156.7081,1024.876 130.1077,1425.5273 287.6279,299.404 574.0191,491.217 854.185,141.4214 24.8732,-140.0173 23.8799,-282.386 -33.9411,-429.9209 -103.5957,-194.7847 -243.5936,-337.5661 -452.5484,-381.8377 -165.2412,-16.2774 -209.1297,88.798 -209.3036,237.5879 -60.1382,-137.9999 -84.2316,-304.8357 -107.4802,-472.3473 -7.526,-257.6287 46.6542,-493.2195 144.6528,-713.1609 160.0467,-383.6168 183.704,-773.7284 120,-1168 z"
       id="path4205"
       inkscape:connector-curvature="0"
       sodipodi:nodetypes="ccccccccccc" />
    <path
       style="fill:url(#linearGradient4203);fill-opacity:1;stroke:none"
       d="m 3878.1421,1390.1421 c 102.7588,334.1645 58.2687,768.9618 -86.1421,1244 -152.2704,500.8923 -247.7174,1196.1077 -41.6569,1515.5149 217.0851,336.496 563.7409,639.1408 878.3779,306.0219 -78.7265,249.5512 -288.3059,574.5027 -732.5626,384.6661 59.3622,-67.8823 19.021,-135.7645 0,-203.6468 -38.4777,-98.4847 -89.0312,-188.9189 -172.5341,-257.3868 -60.8112,-36.1125 -121.6224,-46.5741 -182.4335,0 -138.6901,-530.8665 5.2881,-1151.1914 115.9655,-1705.5417 91.9924,-460.7626 137.0066,-940.3799 59.397,-1394.4146 z"
       id="path4195"
       inkscape:connector-curvature="0"
       sodipodi:nodetypes="csscccccscc" />
    <path
       style="font-style:normal;font-variant:normal;font-weight:normal;font-stretch:normal;text-indent:0;text-align:start;text-decoration:none;line-height:normal;letter-spacing:normal;word-spacing:normal;text-transform:none;direction:ltr;block-progression:tb;writing-mode:lr-tb;text-anchor:start;baseline-shift:baseline;color:#000000;fill:#852fbb;fill-opacity:1;stroke:none;stroke-width:39;marker:none;visibility:visible;display:inline;overflow:visible;enable-background:accumulate;font-family:sans-serif;-inkscape-font-specification:sans-serif"
       d="m 4120.8789,1531.1191 -37.7578,9.7618 c 63.0623,243.938 32.9693,767.2758 -111.1094,1111.5918 -138.34,330.6016 -210.3011,698.8803 -111.0137,1048.8496 22.4896,79.2714 56.496,192.6853 104.3633,298.0722 47.8673,105.3869 108.8483,203.6168 191.1621,251.1407 41.219,23.7978 84.9996,25.3905 119.1582,8.2832 34.1587,-17.1074 57.67,-52.428 61.3418,-95.6446 3.5761,-42.0896 -6.6826,-94.3937 -23.1074,-141.4316 -16.4248,-47.0379 -36.3388,-88.3777 -67.3613,-107.5645 -30.6955,-18.9844 -68.7143,-6.5213 -87.5645,20.5391 -18.8501,27.0604 -5.8389,85.5472 34.9011,101.6314 -21.2601,-33.9159 -11.714,-66.6862 -2.8991,-79.3404 8.8148,-12.6542 22.5914,-17.3648 35.0488,-9.6601 12.1304,7.5023 36.0345,44.2346 51.0547,87.25 15.0202,43.0153 23.832,92.7463 21.0684,125.2734 -2.6679,31.4002 -18.2912,53.2313 -39.9453,64.0762 -21.6542,10.8448 -50.3636,11.1906 -82.1954,-7.1875 -68.9064,-39.7832 -128.7724,-131.382 -175.1523,-233.4942 -46.3799,-102.1122 -80.0206,-213.8683 -102.3535,-292.5879 -95.9703,-338.2769 -26.7437,-697.6284 109.4707,-1023.1504 148.6675,-355.2822 179.9703,-876.9304 112.8906,-1136.4082 z"
       id="path4179"
       inkscape:connector-curvature="0"
       sodipodi:nodetypes="ccssssssssscsssssssssc" />
    <path
       style="fill:none;stroke:#852fbb;stroke-width:39;stroke-linecap:butt;stroke-linejoin:miter;stroke-miterlimit:4;stroke-opacity:1;stroke-dasharray:none"
       d="m 3952.6851,3918.8482 c -31.3243,-158.4063 38.3659,-337.9799 255.3149,-262.8481 270.9817,93.844 432.4839,341.6787 444,612 13.9962,328.5401 -290.0646,802.487 -762,568"
       id="path4181"
       inkscape:connector-curvature="0"
       sodipodi:nodetypes="cssc" />
    <path
       style="fill:none;stroke:#7532a4;stroke-width:39;stroke-linecap:butt;stroke-linejoin:miter;stroke-miterlimit:4;stroke-opacity:1;stroke-dasharray:none"
       d="m 3208,2112 c 61.1092,246 -12.9078,506 -18,752"
       id="path4183"
       inkscape:connector-curvature="0"
       sodipodi:nodetypes="cc" />
    <path
       style="font-style:normal;font-variant:normal;font-weight:normal;font-stretch:normal;text-indent:0;text-align:start;text-decoration:none;line-height:normal;letter-spacing:normal;word-spacing:normal;text-transform:none;direction:ltr;block-progression:tb;writing-mode:lr-tb;text-anchor:start;baseline-shift:baseline;color:#000000;fill:#69288f;fill-opacity:1;stroke:none;stroke-width:39;marker:none;visibility:visible;display:inline;overflow:visible;enable-background:accumulate;font-family:sans-serif;-inkscape-font-specification:sans-serif"
       d="m 3621.4199,4324.7344 c -28.1436,0.1903 -52.861,8.3152 -71.6113,24.3359 -30.0005,25.6332 -40.602,69.2124 -29.1348,117.9785 21.4715,91.3116 65.111,165.6126 128.6953,212.4141 32.4783,23.9057 62.8733,32.3004 86.8809,19.1641 24.0076,-13.1364 30.3196,-42.3992 25.5684,-70.7754 -8.261,-49.3377 -26.4962,-117.1916 -67.4414,-170.3379 -11.0804,-14.3822 -22.3777,-25.0288 -39.3555,-25.0352 -8.4889,0 -18.5063,3.0436 -22.3027,9.6192 -11.3157,19.5994 12.7582,88.2203 36.0815,103.6799 -10.1767,-30.0405 -13.3812,-48.9709 -12.8785,-62.0637 0.3214,-8.3712 3.8454,-7.2184 7.5606,-2.3994 34.3869,44.604 52.2362,107.3778 59.8711,152.9765 3.1967,19.092 -1.783,27.9129 -5.8223,30.1231 -4.0392,2.2101 -18.447,3.2146 -45.0429,-16.3614 -54.564,-40.162 -93.9899,-105.4727 -113.8496,-189.9297 -9.1985,-39.1182 -0.7078,-64.6962 16.5039,-79.4023 17.2117,-14.7061 47.268,-20.8056 88.9414,-8.3769 34.7501,10.3638 96.3094,70.2532 144.8359,143.3535 48.5265,73.1003 86.7622,159.6253 91.6524,215.9882 5.0088,57.7305 -14.0968,102.8633 -44.92,127.668 -30.8231,24.8048 -74.1204,31.6655 -126.9082,6.9824 -160.2587,-74.9355 -300.7189,-310.0358 -371.7871,-486.4336 l -36.1738,14.5743 c 73.0961,181.4312 211.5095,423.052 391.4434,507.1875 63.3215,29.6086 125.2408,22.3834 167.8769,-11.9278 42.6362,-34.3112 65.2325,-93.3245 59.3242,-161.4218 -6.0269,-69.4649 -47.054,-157.4191 -98.0156,-234.1875 -50.9615,-76.7685 -109.1149,-142.1368 -166.1816,-159.1563 -18.8038,-5.608 -36.9244,-8.3505 -53.8106,-8.2363 z"
       id="path4185"
       inkscape:connector-curvature="0"
       sodipodi:nodetypes="ssssssssscssssssssssssccssssss" />
  </g>
  <g
     inkscape:groupmode="layer"
     id="layer6"
     inkscape:label="Back Legs"
     style="display:inline"
     sodipodi:insensitive="true"
     transform="translate(-64.489394,13.397823)">
    <path
       style="fill:#f2c5e0;stroke:#f5a5c8;stroke-width:39;stroke-linecap:butt;stroke-linejoin:miter;stroke-miterlimit:4;stroke-opacity:1;stroke-dasharray:none"
       d="m 2812,3660.0001 16,1696 88,140 312,8 52,-64 -128,-1812 z"
       id="path4232"
       inkscape:connector-curvature="0"
       sodipodi:nodetypes="ccccccc" />
    <path
       style="fill:#f2e28d;stroke:none"
       d="m 3029.2455,5008.6364 c -110.395,-10.6431 -93.6445,78.5932 -35.3554,195.1615 -113.1349,-7.7982 -101.147,64.0272 -7.0711,188.0904 l -145.664,-32.5269 c 8.6371,91.8347 25.8604,175.4267 127.2793,178.1909 l 268.7005,-1.4142 z"
       id="path4234"
       inkscape:connector-curvature="0"
       sodipodi:nodetypes="ccccccc" />
    <!--S+i+g+m+a-->
    <path
       style="fill:none;stroke:#d1aa3a;stroke-width:39;stroke-linecap:butt;stroke-linejoin:miter;stroke-miterlimit:4;stroke-opacity:1;stroke-dasharray:none"
       d="m 2846,5360.0001 c 9.3782,72.9096 7.6464,156.3596 86,170 86.7765,15.1067 210.6667,11.1653 316,2"
       id="path4228"
       inkscape:connector-curvature="0"
       sodipodi:nodetypes="csc" />
    <path
       style="fill:none;stroke:#d1aa3a;stroke-width:27;stroke-linecap:butt;stroke-linejoin:miter;stroke-miterlimit:4;stroke-opacity:1;stroke-dasharray:none"
       d="m 2847,5355.0001 c 51.6667,16.0382 103.3333,32.3461 155,38 -100.1167,-76.541 -134.1572,-223.6244 1,-177 -46.5491,-64.7157 -98.6535,-223.0217 18,-204"
       id="path4230"
       inkscape:connector-curvature="0"
       sodipodi:nodetypes="cccc" />
    <path
       style="fill:#f2c5e0;stroke:#f5a5c8;stroke-width:39;stroke-linecap:butt;stroke-linejoin:miter;stroke-miterlimit:4;stroke-opacity:1;stroke-dasharray:none"
       d="m 2372,3258.0001 c 42.011,175.3282 157.7411,400.1708 254,476 l 66,-456 z"
       id="path4351"
       inkscape:connector-curvature="0"
       sodipodi:nodetypes="cc" />
  </g>
  <g
     inkscape:groupmode="layer"
     id="layer7"
     inkscape:label="Body + Front Legs"
     style="display:inline"
     sodipodi:insensitive="true"
     transform="translate(-64.489394,13.397823)">
    <path
       style="fill:#fdcced;stroke:none"
       d="m 3218.7501,2260.8193 -545.8865,-56.5685 -2.8284,557.2001 -251.73,446.8916 c -14.7748,192.6114 67.7628,306.1564 172.534,401.6367 93.1164,85.2401 193.6885,125.7463 294.1565,166.8772 l 164.0487,8.4853 c 118.713,-42.5209 246.7982,-74.1075 322.4407,-166.8772 154.5791,-123.5199 146.1246,-293.6208 147.0782,-461.0337 -63.4581,-284.0439 -195.8593,-330.6174 -325.2691,-387.4946 z"
       id="path4353"
       inkscape:connector-curvature="0"
       sodipodi:nodetypes="ccccccccccc" />
    <path
       style="fill:#fdcced;stroke:none"
       d="m 3051.8729,3785.3417 c -28.3221,443.5774 -47.5633,1378.258 -14.6066,1645.68 15.5295,126.0119 38.0115,144.3243 68.3467,153.1996 162.3339,37.6456 314.3755,36.6953 455.3767,-5.6568 57.0261,-23.3742 47.5842,-75.2346 31.1127,-130.1077 -182.1748,-494.1131 -282.7027,-1282.6549 -226.2741,-1945.9579"
       id="path4263-9"
       inkscape:connector-curvature="0"
       sodipodi:nodetypes="cscccc" />
    <path
       style="fill:#fdcced;stroke:none"
       d="m 2582.3539,3530.7832 c 24.1325,686.5056 -68.4773,1337.6748 -305.4701,1979.899 -25.1174,58.4959 -10.7535,91.8674 22.6275,113.1371 158.3919,35.6132 316.7838,40.0186 475.1757,16.9706 39.406,-16.1306 50.2863,-57.2111 58.3259,-99.4803 97.8902,-599.5574 56.9189,-1269.6457 53.4975,-1768.4532"
       id="path4261-5"
       inkscape:connector-curvature="0"
       sodipodi:nodetypes="cccccc" />
    <path
       style="font-style:normal;font-variant:normal;font-weight:normal;font-stretch:normal;text-indent:0;text-align:start;text-decoration:none;line-height:normal;letter-spacing:normal;word-spacing:normal;text-transform:none;direction:ltr;block-progression:tb;writing-mode:lr-tb;text-anchor:start;baseline-shift:baseline;color:#000000;fill:#f5a5c8;fill-opacity:1;stroke:none;stroke-width:39;marker:none;visibility:visible;display:inline;overflow:visible;enable-background:accumulate;font-family:sans-serif;-inkscape-font-specification:sans-serif"
       d="m 3333.584,3716.8262 c -21.4828,614.6281 77.6852,1292.2228 241.7053,1737.58 7.9855,26.6644 11.5112,51.3446 9.4548,68.6114 -2.0415,17.1425 -7.6081,27.631 -30.4121,37.166 -136.91,40.904 -284.6864,41.9588 -443.7011,5.1738 -12.5842,-3.6891 -18.4085,-5.7495 -27.5098,-22.9355 -9.2249,-17.4194 -17.1129,-52.2992 -24.752,-114.2852 -16.0846,-130.5166 -21.5083,-431.3925 -17.2812,-753.6406 4.2271,-322.2481 16.1226,-666.7124 30.2461,-887.9121 l -38.9219,-2.4844 c -14.1986,222.3777 -26.0854,567.0427 -30.3203,889.8848 -4.2349,322.8421 0.6983,622.0164 17.5703,758.9218 7.8905,64.0259 15.5099,102.309 28.9922,127.7676 13.4823,25.4586 34.0918,37.1757 51.4824,42.2637 l 0.5313,0.1543 0.539,0.125 c 165.0145,38.2672 320.7696,37.4634 465.3926,-5.9766 l 0.9082,-0.2734 0.877,-0.3594 c 33.5453,-13.7497 51.7336,-40.8291 55.0859,-68.9785 3.3523,-28.1494 -2.4965,-56.7052 -10.9236,-84.7793 l -0.1738,-0.5742 -0.2071,-0.5645 c -161.4704,-437.9568 -260.9214,-1113.6711 -239.6057,-1723.5214 2.5321,-72.4413 -0.2645,-193.9569 -23.7236,-243.2652 -4.459,48.6917 -12.6995,168.8502 -15.2529,241.9019 z"
       inkscape:connector-curvature="0"
       sodipodi:nodetypes="scsccsssccsssccscccscccscs"
       id="path4851" />
    <path
       style="font-style:normal;font-variant:normal;font-weight:normal;font-stretch:normal;text-indent:0;text-align:start;text-decoration:none;line-height:normal;letter-spacing:normal;word-spacing:normal;text-transform:none;direction:ltr;block-progression:tb;writing-mode:lr-tb;text-anchor:start;baseline-shift:baseline;color:#000000;fill:#f5a5c8;fill-opacity:1;stroke:none;stroke-width:39;marker:none;visibility:visible;display:inline;overflow:visible;enable-background:accumulate;font-family:sans-serif;-inkscape-font-specification:sans-serif"
       d="m 2566.5215,3717.543 c 2.3931,616.2679 -93.3465,1204.8835 -307.9277,1786.3789 l 0,0.01 c -13.2915,31.3171 -17.1861,58.4878 -11.2363,82.0528 6.0104,23.8048 22.1604,41.842 41.6797,54.2793 l 2.875,1.832 3.3262,0.7481 c 160.7706,36.148 321.6843,40.6079 482.2597,17.2421 l 2.3672,-0.3437 2.2129,-0.9063 c 24.4918,-10.0255 40.9279,-28.8467 51.0332,-49.3711 10.1054,-20.5244 14.7077,-42.93 18.8125,-64.5117 l 0.047,-0.25 0.041,-0.2519 c 98.402,-602.6918 57.4169,-1273.869 54.002,-1771.7285 l -38.9981,0.2675 c 3.4273,499.6718 43.8686,1168.5296 -53.4472,1764.877 -3.9262,20.6096 -8.2749,39.8036 -15.4473,54.3711 -6.8698,13.9528 -15.1812,23.4623 -28.8906,29.6113 -154.0655,22.1165 -307.8033,17.8554 -461.6778,-16.2558 -12.2008,-8.3188 -19.3565,-17.1782 -22.3808,-29.1563 -3.2375,-12.8223 -1.8618,-31.2882 9.6347,-58.0625 l 0.1993,-0.4648 0.1757,-0.4766 c 216.2398,-585.9859 312.753,-1179.6332 310.3438,-1800.043 -0.2414,-62.1555 1.5248,-152.5799 0.028,-190.0933 -26.4974,39.4867 -39.2714,128.5045 -39.0316,190.2454 z"
       inkscape:connector-curvature="0"
       sodipodi:nodetypes="cccsccccccsccccccsccscccscsc"
       id="path4853" />
    <path
       style="font-style:normal;font-variant:normal;font-weight:normal;font-stretch:normal;text-indent:0;text-align:start;text-decoration:none;line-height:normal;letter-spacing:normal;word-spacing:normal;text-transform:none;direction:ltr;block-progression:tb;writing-mode:lr-tb;text-anchor:start;baseline-shift:baseline;color:#000000;fill:#f5a5c8;fill-opacity:1;stroke:none;stroke-width:39;marker:none;visibility:visible;display:inline;overflow:visible;enable-background:accumulate;font-family:sans-serif;-inkscape-font-specification:sans-serif"
       d="m 3212.7441,2244.9219 c -38.4112,240.3033 -50.2444,605.3075 1.472,729.6947 -8.2836,-135.6128 -0.7268,-487.2688 37.0398,-723.5385 z"
       id="path4237"
       inkscape:connector-curvature="0"
       sodipodi:nodetypes="cccc" />
    <path
       style="fill:none;stroke:#f5a5c8;stroke-width:39;stroke-linecap:butt;stroke-linejoin:miter;stroke-miterlimit:4;stroke-opacity:1;stroke-dasharray:none"
       d="m 3194,2766 c 164.8277,56.6496 287.2176,195.5472 321.3565,374.884 34.1388,179.3368 -26.9856,405.7013 -155.3565,479.1161"
       id="path4243"
       inkscape:connector-curvature="0"
       sodipodi:nodetypes="czc" />
    <path
       style="fill:none;stroke:#f5a5c8;stroke-width:39;stroke-linecap:butt;stroke-linejoin:miter;stroke-miterlimit:4;stroke-opacity:1;stroke-dasharray:none"
       d="m 2419.3137,3198.059 c -6.3029,176.9393 85.1553,365.8858 170.6863,416.9289"
       id="path4245"
       inkscape:connector-curvature="0"
       sodipodi:nodetypes="cc" />
    <path
       style="font-style:normal;font-variant:normal;font-weight:normal;font-stretch:normal;text-indent:0;text-align:start;text-decoration:none;line-height:normal;letter-spacing:normal;word-spacing:normal;text-transform:none;direction:ltr;block-progression:tb;writing-mode:lr-tb;text-anchor:start;baseline-shift:baseline;color:#000000;fill:#f5a5c8;fill-opacity:1;stroke:none;stroke-width:39;marker:none;visibility:visible;display:inline;overflow:visible;enable-background:accumulate;font-family:sans-serif;-inkscape-font-specification:sans-serif"
       d="m 2749.321,3707.3682 c 42.843,63.2261 141.1834,97.6657 223.0579,99.0068 81.5788,1.3364 160.5477,-22.3092 203.988,-73.0785 -60.5597,20.2308 -128.0775,35.3154 -203.3493,34.0824 -74.9761,-1.2281 -160.5396,-24.2367 -223.6966,-60.0107 z"
       id="path4247"
       inkscape:connector-curvature="0"
       sodipodi:nodetypes="cscsc" />
    <path
       id="path4255"
       style="fill:#fde67c;stroke:none"
       d="m 3587.8598,5596.9492 c -157.9475,41.7181 -320.3251,46.8971 -482.2468,8.4853 -54.6938,-12.9747 -58.0384,-16.7705 -63.1041,-132.0973 56.4449,12.3997 117.409,15.6496 176.4911,17.6629 -192.0954,-141.5204 -120.5511,-266.9653 23,-165 -57.5301,-110.7791 -156.7005,-308.243 -87,-349 69.7005,-40.757 125.4609,118.9155 149,195 12.7579,-77.0035 21.9813,-219.181 83,-213 61.0187,6.181 44.0767,236.4014 16,363 128.0438,-120.8905 168.7353,42.5654 15,162 61.4832,-7.4019 114.962,-21.8256 173.2353,-43.9924 47.5249,125.6005 36.1919,146.4907 -3.3755,156.9415 z"
       inkscape:connector-curvature="0"
       sodipodi:nodetypes="sscccscscccs" />
    <path
       style="font-style:normal;font-variant:normal;font-weight:normal;font-stretch:normal;text-indent:0;text-align:start;text-decoration:none;line-height:normal;letter-spacing:normal;word-spacing:normal;text-transform:none;direction:ltr;block-progression:tb;writing-mode:lr-tb;text-anchor:start;baseline-shift:baseline;color:#000000;fill:#d1aa3a;fill-opacity:1;stroke:none;stroke-width:39;marker:none;visibility:visible;display:inline;overflow:visible;enable-background:accumulate;font-family:sans-serif;-inkscape-font-specification:sans-serif"
       d="m 3382.6875,4945.3379 c -0.6212,0.012 -1.2387,0.037 -1.8535,0.074 -17.214,1.0404 -31.8842,11.6307 -41.7793,25.6484 -11.3087,16.0203 -18.7464,36.8504 -24.7188,59.8516 -6.8976,26.5647 -11.5515,55.9071 -15.5254,83.459 -10.8838,-30.0532 -24.176,-62.4918 -40.3085,-90.4356 -13.3381,-23.1033 -28.2156,-43.1186 -46.5567,-55.539 -18.3411,-12.4204 -42.3418,-15.5748 -63.7598,-3.0508 -22.7298,13.2912 -31.0181,39.5463 -30.5859,68.0059 0.4323,28.4595 8.5285,61.3681 20.4102,96.2441 18.29,53.6867 45.7754,111.6639 70.6445,160.9297 -21.044,-9.9491 -40.3776,-14.8953 -57.6152,-15.1602 -27.9579,-0.4296 -51.536,13.9687 -59.2442,37.6485 -7.7081,23.6798 -1.2972,52.9923 18,85.1152 14.628,24.3503 37.0513,50.6067 68.418,77.6465 -45.3931,-2.307 -90.594,-6.6228 -132.8067,-15.6231 -7.581,-1.6164 -15.2643,-2.7096 -22.8964,-4.0644 0.1725,6.0352 0.2613,12.0733 0.5175,18.1055 2.457,57.8456 3.2179,88.2408 14.9043,112.1406 5.8433,11.9499 15.8732,21.2939 26.8418,26.6972 10.9687,5.4035 22.5001,8.0943 36.3379,11.377 165.1535,39.1785 330.976,33.8535 491.7285,-8.6055 11.2205,-2.9636 22.535,-6.9653 32.127,-15.8027 9.592,-8.8374 15.4515,-22.3025 16.6113,-36.9863 2.3198,-29.3678 -8.3564,-67.0099 -32.6523,-131.3575 -1.5281,-4.0472 -2.9665,-8.1277 -4.4497,-12.1915 -6.091,2.1198 -12.1889,4.2198 -18.273,6.3595 -43.298,15.2273 -82.5479,28.4102 -124.209,37.1778 53.3547,-53.8615 74.5038,-111.3569 67.4805,-152.4004 -2.1062,-12.3083 -7.0869,-23.441 -15.5098,-31.6368 -8.4228,-8.1958 -20.197,-12.8235 -32.8515,-12.9472 -17.439,-0.1706 -36.5371,7.0416 -57.6153,21.7344 10.6267,-59.2345 18.3138,-130.4594 18.4122,-192.3868 0.06,-37.7506 -2.5729,-71.8477 -9.6797,-98.3398 -3.5534,-13.2461 -8.1679,-24.6911 -15.0508,-33.918 -6.8829,-9.2269 -16.9798,-16.3398 -28.8184,-17.539 -1.9173,-0.1943 -3.8101,-0.2681 -5.6738,-0.2305 z m -0.6621,26.9473 c 1.1556,-0.032 2.356,0.019 3.6133,0.1464 3.4161,0.3461 6.1381,1.7795 9.8984,6.8204 3.7603,5.0408 7.6149,13.5851 10.6152,24.7695 6.0007,22.3688 8.8157,54.8989 8.7579,91.3008 -0.1157,72.8037 -11.3018,161.583 -25.0899,223.7539 l -9.5195,42.9199 31.9668,-30.1797 c 30.6472,-28.9351 55.0533,-38.9331 68.582,-38.8008 6.7644,0.066 10.8419,1.9485 14.2871,5.3008 3.4452,3.3524 6.3501,8.8052 7.7246,16.8379 5.4982,32.1309 -19.0888,100.6528 -93.1445,158.1855 l -38.4688,29.8868 48.3653,-5.8243 c 56.5069,-6.8027 105.3922,-21.7857 157.3613,-39.7636 20.1866,55.2719 26.8638,87.8825 25.7246,102.3047 -0.6103,7.7263 -1.9992,9.3838 -4.1582,11.373 -2.159,1.9892 -7.0969,4.5175 -15.6601,6.7793 -155.1425,40.9772 -314.0777,46.0104 -472.7676,8.3652 -13.5091,-3.2047 -22.9061,-5.8546 -28.1055,-8.416 -5.1994,-2.5613 -6.5763,-3.807 -9.039,-8.8437 -4.3609,-8.9184 -7.6247,-32.8423 -10.0684,-78.0918 51.0236,8.9745 104.2544,11.6317 155.6406,13.3828 l 43.5469,1.4844 -35.0801,-25.8457 c -46.9349,-34.5779 -77.2393,-67.892 -94.0683,-95.9063 -16.8291,-28.0142 -19.5807,-50.2277 -15.4707,-62.8535 4.1098,-12.6258 13.3287,-19.3145 33.1562,-19.0098 19.8275,0.3047 49.1659,10.2166 83.5566,34.6446 l 45.5469,32.3515 -25.748,-49.5801 c -28.7153,-55.2936 -67.6347,-132.0246 -90.4141,-198.8886 -11.3897,-33.432 -18.612,-64.4557 -18.9687,-87.9453 -0.3568,-23.4897 5.0964,-37.2018 17.2168,-44.2891 13.4322,-7.8545 22.5393,-6.3333 34.9921,2.0996 12.4529,8.4329 26.0556,25.449 38.3125,46.6797 24.5139,42.4614 44.3163,100.8424 55.9844,138.5566 l 16.8789,54.5606 9.336,-56.3438 c 6.5122,-39.306 12.0392,-93.7158 23.1504,-136.5078 5.5554,-21.396 12.6617,-39.7624 20.6425,-51.0683 6.9833,-9.8928 12.8251,-14.1249 20.9141,-14.3457 z"
       transform="translate(-4.9166667e-5,0)"
       id="path4253"
       inkscape:connector-curvature="0"
       sodipodi:nodetypes="ccsscssssscssscscsssssssscscssscsssccccssscccccsccccssssccccccscsccsssssscccsscc" />
    <path
       id="path4259-2"
       style="fill:#fde67c;stroke:none"
       d="m 2662.9641,5546.0376 c 194.0228,-111.2927 156.3953,-279.0891 -18.3848,-168.2914 68.8482,-108.2994 178.9756,-327.4883 96.1665,-350.7251 -82.8091,-23.2367 -125.8434,117.9303 -155.5634,189.5047 -9.854,-74.3754 -3.5161,-217.5303 -73.5391,-212.132 -70.023,5.3983 -51.8731,247.0918 -29.6985,352.1391 -74.906,-88.0884 -186.2185,-5.966 -18.5563,162.8772 -59.465,-9.156 -117.6426,-23.4617 -174.4483,-43.2548 -51.9145,115.4449 -53.4864,135.8621 3.5,156.1493 150.8545,53.7043 319.8727,47.5673 469.5189,22.6274 56.8647,-9.477 66.675,-16.8424 74.9533,-128.6934 -47.2152,10.3709 -121.4679,17.9134 -173.9483,19.799 z"
       inkscape:connector-curvature="0"
       sodipodi:nodetypes="ccscscccsscc" />
    <path
       style="font-style:normal;font-variant:normal;font-weight:normal;font-stretch:normal;text-indent:0;text-align:start;text-decoration:none;line-height:normal;letter-spacing:normal;word-spacing:normal;text-transform:none;direction:ltr;block-progression:tb;writing-mode:lr-tb;text-anchor:start;baseline-shift:baseline;color:#000000;fill:#d1aa3a;fill-opacity:1;stroke:none;stroke-width:39;marker:none;visibility:visible;display:inline;overflow:visible;enable-background:accumulate;font-family:sans-serif;-inkscape-font-specification:sans-serif"
       d="m 2514.6973,4990.7676 c -1.35,0.01 -2.7138,0.06 -4.0918,0.166 -12.6239,0.9732 -23.7093,7.7757 -31.586,17.1465 -7.8767,9.3707 -13.3274,21.2076 -17.5664,34.8281 -8.478,27.2411 -11.9948,62.0963 -12.7304,99.9238 -1.1619,59.7407 4.9374,126.3028 13.1367,178.2774 -12.025,-7.5269 -24.3954,-12.0974 -36.4942,-13.4492 -22.7003,-2.5365 -44.9295,7.5277 -55.5898,27.6386 -10.6603,20.1109 -10.208,47.6112 2.7031,80.0371 9.8513,24.7413 27.1576,52.7682 53.7969,83.8106 -45.0951,-8.7893 -89.4759,-20.4149 -132.8926,-35.7403 -5.8785,-2.075 -11.6276,-4.5 -17.4414,-6.75 -1.5951,3.834 -3.0887,7.7118 -4.7852,11.502 -26.0025,58.0927 -41.1321,91.8049 -40.8027,121.9688 0.1647,15.0819 6.4016,29.9392 16.9082,39.7246 10.5067,9.7853 23.3918,15.3963 38.6387,20.8242 155.6321,55.4051 327.7806,48.7362 479.2637,23.4902 14.5305,-2.4216 27.0067,-4.682 38.8359,-9.6133 11.8292,-4.9312 22.8645,-13.4796 30.207,-25.2656 14.6852,-23.5719 17.9977,-55.148 22.1524,-111.6094 0.4583,-6.2281 0.8685,-12.4596 1.3027,-18.6894 -7.8822,1.3548 -15.8199,2.4188 -23.6465,4.0644 -32.2662,6.7843 -78.4908,12.8183 -121.1738,16.3145 27.8836,-20.8734 49.4169,-42.8053 64.6934,-64.3477 22.4037,-31.5931 32.2233,-62.4105 27.8535,-88.6308 -4.3699,-26.2204 -26.225,-45.9655 -55.9024,-48.2012 -19.337,-1.4567 -41.962,3.1481 -67.8359,14.3711 29.1826,-50.3355 60.3555,-111.6108 80.5781,-167.4785 13.1806,-36.4131 21.881,-70.3175 21.6074,-98.8145 -0.1367,-14.2484 -2.5239,-27.396 -8.8789,-38.6035 -6.3549,-11.2075 -17.1808,-19.8831 -30.5644,-23.6387 -24.4186,-6.8519 -47.696,-1.1984 -66.3516,11.6114 -18.6556,12.8097 -33.5796,32.0244 -46.5586,53.6347 -15.0279,25.022 -27.2656,53.3061 -37.9082,79.7344 -2.0197,-26.5133 -4.4138,-54.9565 -9.334,-80.9687 -4.3711,-23.1097 -10.5483,-44.3045 -21.791,-60.8262 -9.8374,-14.4566 -25.27,-25.0333 -43.7461,-26.3125 -1.3197,-0.091 -2.6559,-0.1345 -4.0058,-0.1289 z m 0.3457,26.9629 c 11.4678,-0.2973 17.9883,4.2376 25.0859,14.6679 7.5708,11.1258 13.553,29.3531 17.582,50.6543 8.0581,42.6024 8.9633,96.5669 14.0879,135.2461 l 6.5957,49.7774 19.2559,-46.3731 c 15.1804,-36.5589 33.287,-89.086 56.9785,-128.5332 11.8458,-19.7236 25.0632,-35.9169 38.6953,-45.2773 13.6322,-9.3605 26.7875,-12.6394 43.7735,-7.8731 7.3186,2.0537 11.1673,5.3109 14.3711,10.961 3.2036,5.6501 5.261,14.2845 5.3691,25.5449 0.2161,22.5207 -7.3919,54.539 -19.9981,89.3652 -25.2123,69.6524 -69.692,151.1932 -103.6523,204.6133 l -32.4238,51.002 51.0429,-32.3575 c 42.2087,-26.7571 75.1789,-35.5812 95.6504,-34.039 20.4716,1.5422 28.6672,9.9281 31.2989,25.7187 2.6316,15.7907 -3.596,40.865 -23.2442,68.5723 -19.6481,27.7073 -52.1933,57.9268 -99.2656,84.9277 l -47.3516,27.1602 54.5547,-1.959 c 45.1983,-1.624 105.4053,-7.256 152.4219,-15.457 -3.9395,42.7627 -9.0631,65.4381 -14.7656,74.5918 -3.2529,5.2214 -5.8512,7.282 -12.1133,9.8925 -6.2621,2.6105 -16.3364,4.8238 -30.2383,7.1407 -147.8093,24.6337 -313.6966,30.2397 -459.7734,-21.7637 -13.2464,-4.7157 -21.535,-9.2648 -25.1387,-12.6211 -3.6037,-3.3563 -4.4139,-4.6225 -4.4902,-11.6113 -0.143,-13.0908 10.1247,-43.9 32.6308,-94.9063 52.0393,17.0376 105.1847,29.6168 159.3516,37.9571 l 40.5254,6.2402 -28.8906,-29.0938 c -41.0038,-41.2925 -64.3724,-76.8444 -75.4043,-104.5507 -11.032,-27.7064 -9.5069,-46.8883 -3.9336,-57.4024 5.5732,-10.514 14.7376,-15.0173 28.7363,-13.4531 13.9986,1.5641 32.306,10.8087 49.293,30.7851 l 34.4902,40.5606 -10.9961,-52.0938 c -10.8089,-51.2047 -20.8533,-137.5835 -19.4375,-210.3867 0.7079,-36.4016 4.3977,-69.5483 11.5176,-92.4258 3.5599,-11.4387 8.0061,-20.188 12.4531,-25.4785 4.447,-5.2904 8.1123,-7.2232 12.9941,-7.5996 0.8102,-0.062 1.5968,-0.1032 2.3614,-0.123 z"
       transform="translate(-4.9166667e-5,0)"
       id="path4257"
       inkscape:connector-curvature="0"
       sodipodi:nodetypes="ccssscssscscsssssssscscssscsssssscsscccssccsssccssscsssscccccssssscscssssscsssscc" />
  </g>
  <g
     inkscape:groupmode="layer"
     id="layer8"
     inkscape:label="Necklace"
     sodipodi:insensitive="true"
     style="display:inline"
     transform="translate(-64.489394,13.397823)">
    <path
       style="fill:#fde67c;stroke:none"
       d="m 2859,3171.0001 c -70.34,-48.5242 -145.6715,-73.755 -224,-85 l -25,168 c 130.0921,25.9845 264.255,102.8541 405,262 l 66,-114 c 33.8271,-64.5647 40.4879,-126.7671 13,-186 -15.8729,-44.9763 -21.9083,-94.5638 -120,-101 -55.5388,-4.274 -99.3038,7.1505 -115,56 z"
       id="path4366"
       inkscape:connector-curvature="0"
       sodipodi:nodetypes="cccccccc" />
    <path
       style="fill:#fde67c;stroke:#d1aa3a;stroke-width:27;stroke-linecap:butt;stroke-linejoin:miter;stroke-miterlimit:4;stroke-opacity:1;stroke-dasharray:none"
       d="m 3100.1318,3224.0237 c 150.8401,-56.6081 262.4149,-150.6599 356.9132,-256.0976 34.9291,54.815 62.9925,120.9869 68.5894,190.919 -53.5099,64.8029 -175.8568,161.437 -330.926,210.7178 -54.207,17.2269 -113.6904,41.1225 -142.6858,84.4871"
       id="path4356"
       inkscape:connector-curvature="0"
       sodipodi:nodetypes="cccsc" />
    <path
       style="font-style:normal;font-variant:normal;font-weight:normal;font-stretch:normal;text-indent:0;text-align:start;text-decoration:none;line-height:normal;letter-spacing:normal;word-spacing:normal;text-transform:none;direction:ltr;block-progression:tb;writing-mode:lr-tb;text-anchor:start;baseline-shift:baseline;color:#000000;fill:#d1aa3a;fill-opacity:1;stroke:none;stroke-width:27;marker:none;visibility:visible;display:inline;overflow:visible;enable-background:accumulate;font-family:sans-serif;-inkscape-font-specification:sans-serif"
       d="m 2953.8359,3100.7422 c -32.3283,0.9531 -62.6518,11.1772 -82.6425,32.1914 -25.0583,26.3411 -34.9818,61.4483 -34.6797,93.3809 0.302,31.9325 9.897,61.615 30.4433,78.2109 36.6117,29.5723 90.8444,23.2828 111.2891,-14.6152 24.7781,-45.9308 -14.5922,-84.0895 -47.2416,-58.9742 38.0612,-4.9368 33.0743,29.1012 23.8197,45.5445 -12.1922,21.6628 -45.5964,27.4813 -70.9023,7.041 -10.4125,-8.4105 -20.1634,-31.3766 -20.4102,-57.4629 -0.2467,-26.0863 8.0774,-54.3677 27.2442,-74.5156 17.5706,-18.4702 54.6292,-27.7572 91.6464,-22.0371 37.0173,5.72 72.4411,25.358 89.2774,58.4707 36.2519,71.2979 26.4585,156.2057 2.0664,198.9355 -23.4525,41.0839 -40.6142,73.8193 -59.502,108.4531 -46.5774,-56.1605 -103.7295,-109.2995 -168.2421,-153.8789 -76.0593,-52.5584 -156.4372,-83.2331 -240.0332,-98.3457 l -4.8028,26.5703 c 80.2992,14.5166 156.6918,43.6859 229.4863,93.9883 68.2317,47.1493 128.2759,104.3423 175.25,164.1113 l 12.5547,15.9747 9.8633,-17.7618 c 23.4288,-42.1954 41.7696,-78.2434 68.875,-125.7265 30.1347,-52.7898 39.4494,-144.1256 -1.4473,-224.5586 -21.7379,-42.7529 -65.5704,-66.1708 -109.2226,-72.916 -10.9131,-1.6864 -21.9133,-2.3978 -32.6895,-2.0801 z"
       id="path4358"
       inkscape:connector-curvature="0"
       sodipodi:nodetypes="ssssscssssssscsccssccssss" />
    <path
       style="fill:none;stroke:#d1aa3a;stroke-width:27;stroke-linecap:butt;stroke-linejoin:miter;stroke-miterlimit:4;stroke-opacity:1;stroke-dasharray:none"
       d="m 2860.9075,3172.427 c -47.0028,-37.307 -98.675,-55.9367 -151.2743,-70.8576"
       id="path4360"
       inkscape:connector-curvature="0"
       sodipodi:nodetypes="cc" />
  </g>
  <g
     inkscape:groupmode="layer"
     id="layer9"
     inkscape:label="Lower Mane"
     style="display:inline"
     sodipodi:insensitive="true"
     transform="translate(-64.489394,13.397823)">
    <path
       style="fill:url(#linearGradient4405);fill-opacity:1;stroke:none"
       d="m 2449.4179,2348.5006 c 64.0358,240.1603 89.8565,476.298 11.3137,701.45 -68.6642,-24.843 -128.9057,-25.8216 -152.7351,76.3675 1.7124,76.0177 12.6754,147.8306 96.1666,186.6762 104.1544,28.1805 192.7538,-5.8592 274.3574,-67.8822 72.7393,-328.6919 36.5595,-635.5999 -229.1026,-896.6115 z"
       id="path4397"
       inkscape:connector-curvature="0"
       sodipodi:nodetypes="cccccc" />
    <path
       style="fill:url(#linearGradient4395);fill-opacity:1;stroke:none"
       d="m 2356.0798,999.34086 c -174.401,238.78234 -139.2692,453.38784 -124.4508,670.33724 181.5885,413.7421 394.4614,741.4523 605.2834,1074.8023 -15.5287,-198.9327 -89.394,-397.8654 -200.8183,-596.7981 l -169.7056,-924.8957 z"
       id="path4387"
       inkscape:connector-curvature="0"
       sodipodi:nodetypes="cccccc" />
    <path
       style="fill:url(#linearGradient4385);fill-opacity:1;stroke:none"
       d="m 2240.1143,1282.1836 c 10.8769,315.4386 99.0157,591.3698 251.73,823.0723 130.7257,198.3407 273.6815,402.8213 345.0682,588.3127 8.9148,122.1655 2.2959,241.7419 -33.9412,356.382 -42.8736,124.4992 -134.4211,205.3907 -203.6467,251.73 130.3596,-309.0246 67.8551,-644.3887 -132.9361,-913.582 -57.0034,-187.1841 -123.0878,-365.2873 -195.1615,-537.4012 -40.718,-189.5046 -85.6676,-379.0092 -31.1127,-568.5138 z"
       id="path4377"
       inkscape:connector-curvature="0"
       sodipodi:nodetypes="cscccccc" />
    <path
       style="fill:none;stroke:#852fbb;stroke-width:39;stroke-linecap:butt;stroke-linejoin:miter;stroke-miterlimit:4;stroke-opacity:1;stroke-dasharray:none"
       d="m 2347.5945,1004.7967 c -203.8005,306.9718 -139.247,707.5753 -2.4853,1043.1211 166.6983,408.9954 211.8077,763.3322 113.6224,1009.2044"
       id="path4369"
       inkscape:connector-curvature="0"
       sodipodi:nodetypes="csc" />
    <path
       style="font-style:normal;font-variant:normal;font-weight:normal;font-stretch:normal;text-indent:0;text-align:start;text-decoration:none;line-height:normal;letter-spacing:normal;word-spacing:normal;text-transform:none;direction:ltr;block-progression:tb;writing-mode:lr-tb;text-anchor:start;baseline-shift:baseline;color:#000000;fill:#852fbb;fill-opacity:1;stroke:none;stroke-width:39;marker:none;visibility:visible;display:inline;overflow:visible;enable-background:accumulate;font-family:sans-serif;-inkscape-font-specification:sans-serif"
       d="m 2643.6387,2142.3516 -31.2774,23.2968 c 81.9141,109.9608 165.4665,296.2338 196.8848,489.168 31.4183,192.9342 11.0335,391.2397 -108.1113,531.5625 -54.1609,63.7879 -117.9716,102.0504 -178.2364,113.6211 -60.2647,11.5707 -116.6311,-2.4714 -161.457,-45.127 -19.389,-18.4502 -32.2074,-57.8321 -33.082,-96.9179 -0.8747,-39.0858 11.0652,-76.5973 25.0254,-89.7735 16.7639,-15.8224 37.7745,-20.7173 58.6269,-18.2754 20.8524,2.442 40.6017,13.095 51.0098,25.5801 23.9945,28.783 22.4317,54.5216 6.4023,72.5606 -7.4223,8.3529 -15.9842,11.1747 -25.0449,11.1484 -9.0607,-0.026 -17.8919,-0.6463 -24.3732,-6.7323 -10.2019,-9.5797 -20.1417,-31.0728 9.2299,-49.2074 -44.1676,1.6645 -59.7864,52.0061 -33.5696,76.7952 12.562,11.8779 29.946,18.0898 48.5996,18.1445 18.6537,0.055 39.2229,-7.263 54.3106,-24.2422 28.9906,-32.6252 27.5824,-83.638 -5.5977,-123.4394 -18.1792,-21.8071 -46.0973,-35.7895 -76.4316,-39.3418 -30.3344,-3.5524 -64.0299,4.1994 -89.9317,28.6465 -28.7055,27.0933 -38.2801,72.8029 -37.2461,119.0097 1.0341,46.2068 13.5475,94.1889 45.1895,124.2989 53.8123,51.2068 124.895,68.7673 195.6953,55.1738 70.8003,-13.5935 141.6704,-57.262 200.6113,-126.6797 129.4031,-152.4044 149.4009,-363.3248 116.8731,-563.0723 -32.5278,-199.7474 -117.2504,-389.6117 -204.0996,-506.1972 z"
       id="path4371"
       inkscape:connector-curvature="0"
       sodipodi:nodetypes="ccssssssssssscsssssssssssc" />
  </g>
  <g
     inkscape:groupmode="layer"
     id="layer10"
     inkscape:label="Rear Ear"
     sodipodi:insensitive="true"
     style="display:inline"
     transform="translate(-64.489394,13.397823)">
    <path
       style="fill:#fdcced;stroke:#f5a5c8;stroke-width:39;stroke-linecap:butt;stroke-linejoin:miter;stroke-miterlimit:4;stroke-opacity:1;stroke-dasharray:none"
       d="m 3447.2448,1288.8236 c 199.5825,-134.6718 269.7218,-400.09588 150.6611,-645.61107 -37.342,-77.00291 -71.4705,-63.53091 -114.7604,-22.00978 -117.4509,112.65186 -202.7866,266.22787 -207.4061,416.45175"
       id="path4412"
       inkscape:connector-curvature="0"
       sodipodi:nodetypes="cssc" />
  </g>
  <g
     inkscape:groupmode="layer"
     id="layer12"
     inkscape:label="Head"
     sodipodi:insensitive="true"
     style="display:inline"
     transform="translate(-64.489394,13.397823)">
    <path
       style="fill:#fdcced;stroke:#f5a5c8;stroke-width:39;stroke-linecap:butt;stroke-linejoin:miter;stroke-miterlimit:4;stroke-opacity:1;stroke-dasharray:none"
       d="m 3609.073,1171.8749 c 157.6396,362.5891 65.9317,771.7792 -135.7645,1009.7485 -201.6962,237.9693 -682.8569,264.3375 -886.9546,9.3137 -204.0977,-255.0238 -281.7049,-662.6804 -122.7939,-1112.4003 351.2276,-222.51351 741.7995,-119.03176 1145.513,93.3381 z"
       id="path4437"
       inkscape:connector-curvature="0"
       sodipodi:nodetypes="czzcc" />
    <path
       style="fill:#f5a5c8;stroke:none"
       d="m 2889.2383,2006.2609 c 18.1646,-39.2185 128.9546,-36.689 142.8356,-1.4142 -32.6119,-13.019 -111.2237,-10.1603 -142.8356,1.4142 z"
       id="path4439"
       inkscape:connector-curvature="0"
       sodipodi:nodetypes="ccc" />
    <path
       style="fill:#f5a5c8;stroke:none"
       d="m 3071,2072 c 2.5971,32.0026 -2.3506,59.7612 -42,68 36.2202,25.8138 78.681,-12.1202 42,-68 z"
       id="path4441"
       inkscape:connector-curvature="0"
       sodipodi:nodetypes="ccc" />
    <path
       style="fill:#f5a5c8;stroke:none"
       d="m 2888,2141 c -23.3822,-12.1729 -43.2932,-32.7951 -40,-67 -22.579,36.0061 -19.882,82.625 40,67 z"
       id="path4443"
       inkscape:connector-curvature="0"
       sodipodi:nodetypes="ccc" />
    <path
       style="fill:#f5a5c8;stroke:none"
       d="m 3107,2147 c -15.5538,69.1245 -72.7597,114.5757 -143,115 -70.2403,0.4243 -115.5774,-49.1389 -141,-98 4.9966,56.9773 55.7243,118.9357 144,120 88.2757,1.0643 140.8139,-61.1168 140,-137 z"
       id="path4445"
       inkscape:connector-curvature="0"
       sodipodi:nodetypes="czczc" />
  </g>
  <g
     inkscape:groupmode="layer"
     id="layer14"
     inkscape:label="Eyes"
     sodipodi:insensitive="true"
     style="display:inline"
     transform="translate(-64.489394,13.397823)">
    <path
       style="fill:#ffffff;fill-opacity:1;stroke:none"
       d="m 3606,1342 c -104.2297,0.5714 -207.9082,2.7046 -290,66 -74.3574,55.0769 -127.806,317.3661 -98,454 2.1603,53.9199 6.8739,106.5631 2,164 33.3333,-21.8272 66.6667,-24.5267 100,-24 98.741,6.4454 192.4888,-8.0805 254,-158 73.866,-219.9994 45.9514,-392.1869 32,-502 z"
       id="path4448-7"
       inkscape:connector-curvature="0"
       sodipodi:nodetypes="ccccccc" />
    <path
       style="fill:#ffffff;fill-opacity:1;stroke:none"
       d="m 2449.4179,1347.2374 c 165.6817,-20.5751 309.9573,-0.7843 345.0681,224.8599 27.7842,113.6085 46.8372,227.217 11.3137,340.8255 -2.9917,47.621 -0.2583,86.6545 4.2426,123.0366 -26.6767,-20.7498 -58.1817,-33.4525 -96.1665,-35.3554 -67.6389,4.0889 -134.1096,-15.1847 -197.9899,-86.267 -96.9375,-191.5259 -96.4848,-401.8672 -66.468,-567.0996 z"
       id="path4450-7"
       inkscape:connector-curvature="0"
       sodipodi:nodetypes="ccccccc" />
    <ellipse
       style="color:#000000;fill:url(#linearGradient4593);fill-opacity:1;fill-rule:nonzero;stroke:none;stroke-width:1px;marker:none;visibility:visible;display:inline;overflow:visible;enable-background:accumulate"
       id="path4463"
       transform="matrix(0.99800858,0.06307829,-0.06454178,0.99791501,0,0)"
       clip-path="url(#clipPath4491)"
       ry="330.01492"
       rx="172.97888"
       cy="1497.7803"
       cx="3540.7202"
       sodipodi:cx="3540.7202"
       sodipodi:cy="1497.7803"
       sodipodi:rx="172.97888"
       sodipodi:ry="330.01492"
       d="m 3713.6991,1497.7803 c 0,182.2622 -77.4453,330.0149 -172.9789,330.0149 -95.5336,0 -172.9789,-147.7527 -172.9789,-330.0149 0,-182.2622 77.4453,-330.0149 172.9789,-330.0149 95.5336,0 172.9789,147.7527 172.9789,330.0149 z" />
    <ellipse
       style="color:#000000;fill:url(#linearGradient4585);fill-opacity:1;fill-rule:nonzero;stroke:none;stroke-width:1px;marker:none;visibility:visible;display:inline;overflow:visible;enable-background:accumulate"
       id="path4465"
       cx="2496.3464"
       cy="1908.9506"
       rx="168.99065"
       ry="315.95743"
       transform="matrix(0.99706599,-0.07654675,0.10223161,0.99476062,0,0)"
       clip-path="url(#clipPath4483)"
       sodipodi:cx="2496.3464"
       sodipodi:cy="1908.9506"
       sodipodi:rx="168.99065"
       sodipodi:ry="315.95743"
       d="m 2665.3371,1908.9506 c 0,174.4984 -75.6597,315.9574 -168.9907,315.9574 -93.3309,0 -168.9906,-141.459 -168.9906,-315.9574 0,-174.4985 75.6597,-315.9575 168.9906,-315.9575 93.331,0 168.9907,141.459 168.9907,315.9575 z" />
    <path
       style="fill:#dec6ef;stroke:none"
       d="m 2607,1843 -78,9 -24,-98 97,3 z"
       id="path4503"
       inkscape:connector-curvature="0"
       clip-path="url(#clipPath4545)" />
    <path
       style="fill:#c095de;stroke:none"
       d="m 2592,1775 -85,14 -5,-98 81,10 z"
       id="path4505"
       inkscape:connector-curvature="0"
       clip-path="url(#clipPath4541)"
       sodipodi:nodetypes="ccccc" />
    <path
       style="fill:#dec6ef;stroke:none"
       d="m 3346,1892 -73,28 -19,-100 67,-3 z"
       id="path4507"
       inkscape:connector-curvature="0"
       clip-path="url(#clipPath4575)" />
    <path
       style="fill:#c095de;stroke:none"
       d="m 3321,1830 -66,13 -9,-92 74,-1 z"
       id="path4509"
       inkscape:connector-curvature="0"
       clip-path="url(#clipPath4571)" />
    <ellipse
       style="color:#000000;fill:#000000;fill-opacity:1;fill-rule:nonzero;stroke:none;stroke-width:1px;marker:none;visibility:visible;display:inline;overflow:visible;enable-background:accumulate"
       id="path4467"
       cx="2499.8357"
       cy="2040.9088"
       rx="126.49726"
       ry="249.62447"
       transform="matrix(0.99384029,-0.11082183,0.10583707,0.99438349,0,0)"
       clip-path="url(#clipPath4479)"
       sodipodi:cx="2499.8357"
       sodipodi:cy="2040.9088"
       sodipodi:rx="126.49726"
       sodipodi:ry="249.62447"
       d="m 2626.333,2040.9088 c 0,137.8638 -56.6348,249.6245 -126.4973,249.6245 -69.8625,0 -126.4973,-111.7607 -126.4973,-249.6245 0,-137.8638 56.6348,-249.6245 126.4973,-249.6245 69.8625,0 126.4973,111.7607 126.4973,249.6245 z" />
    <ellipse
       style="color:#000000;fill:#ffffff;fill-opacity:1;fill-rule:nonzero;stroke:none;stroke-width:1px;marker:none;visibility:visible;display:inline;overflow:visible;enable-background:accumulate"
       id="path4515"
       cx="2972.6072"
       cy="643.02197"
       rx="45.930546"
       ry="119.18505"
       transform="matrix(0.94356626,0.3311838,-0.31624412,0.94867785,0,0)"
       sodipodi:cx="2972.6072"
       sodipodi:cy="643.02197"
       sodipodi:rx="45.930546"
       sodipodi:ry="119.18505"
       d="m 3018.5377,643.02197 c 0,65.82409 -20.5638,119.18505 -45.9305,119.18505 -25.3668,0 -45.9306,-53.36096 -45.9306,-119.18505 0,-65.82408 20.5638,-119.18505 45.9306,-119.18505 25.3667,0 45.9305,53.36097 45.9305,119.18505 z" />
    <ellipse
       style="color:#000000;fill:#ffffff;fill-opacity:1;fill-rule:nonzero;stroke:none;stroke-width:1px;marker:none;visibility:visible;display:inline;overflow:visible;enable-background:accumulate"
       id="path4517"
       cx="2990.0442"
       cy="1008.4528"
       rx="19.974392"
       ry="46.036236"
       transform="matrix(0.97113511,0.23853008,-0.24863534,0.96859717,0,0)"
       sodipodi:cx="2990.0442"
       sodipodi:cy="1008.4528"
       sodipodi:rx="19.974392"
       sodipodi:ry="46.036236"
       d="m 3010.0186,1008.4528 c 0,25.4251 -8.9429,46.0363 -19.9744,46.0363 -11.0316,0 -19.9744,-20.6112 -19.9744,-46.0363 0,-25.42509 8.9428,-46.03622 19.9744,-46.03622 11.0315,0 19.9744,20.61113 19.9744,46.03622 z" />
    <ellipse
       style="color:#000000;fill:#000000;fill-opacity:1;fill-rule:nonzero;stroke:none;stroke-width:1px;marker:none;visibility:visible;display:inline;overflow:visible;enable-background:accumulate"
       id="path4469"
       cx="3591.8059"
       cy="1407.4315"
       rx="139.28677"
       ry="257.39801"
       transform="matrix(0.99575592,0.09203337,-0.09295714,0.99567011,0,0)"
       clip-path="url(#clipPath4487)"
       sodipodi:cx="3591.8059"
       sodipodi:cy="1407.4315"
       sodipodi:rx="139.28677"
       sodipodi:ry="257.39801"
       d="m 3731.0927,1407.4315 c 0,142.157 -62.3608,257.398 -139.2868,257.398 -76.926,0 -139.2868,-115.241 -139.2868,-257.398 0,-142.157 62.3608,-257.398 139.2868,-257.398 76.926,0 139.2868,115.241 139.2868,257.398 z" />
    <ellipse
       style="color:#000000;fill:#ffffff;fill-opacity:1;fill-rule:nonzero;stroke:none;stroke-width:1px;marker:none;visibility:visible;display:inline;overflow:visible;enable-background:accumulate"
       id="path4511"
       cx="3780.9504"
       cy="1122.0935"
       rx="50.301579"
       ry="127.30833"
       transform="matrix(0.99124214,0.13205689,-0.29053886,0.95686319,0,0)"
       sodipodi:cx="3780.9504"
       sodipodi:cy="1122.0935"
       sodipodi:rx="50.301579"
       sodipodi:ry="127.30833"
       d="m 3831.252,1122.0935 c 0,70.3105 -22.5208,127.3083 -50.3016,127.3083 -27.7808,0 -50.3015,-56.9978 -50.3015,-127.3083 0,-70.3104 22.5207,-127.30832 50.3015,-127.30832 27.7808,0 50.3016,56.99792 50.3016,127.30832 z" />
    <ellipse
       style="color:#000000;fill:#ffffff;fill-opacity:1;fill-rule:nonzero;stroke:none;stroke-width:1px;marker:none;visibility:visible;display:inline;overflow:visible;enable-background:accumulate"
       id="path4513"
       cx="3730.0818"
       cy="1042.5504"
       rx="21.971281"
       ry="48.541168"
       transform="matrix(0.98456533,0.17501748,-0.18944823,0.98189071,0,0)"
       sodipodi:cx="3730.0818"
       sodipodi:cy="1042.5504"
       sodipodi:rx="21.971281"
       sodipodi:ry="48.541168"
       d="m 3752.0531,1042.5504 c 0,26.8086 -9.8369,48.5412 -21.9713,48.5412 -12.1344,0 -21.9713,-21.7326 -21.9713,-48.5412 0,-26.8085 9.8369,-48.54115 21.9713,-48.54115 12.1344,0 21.9713,21.73265 21.9713,48.54115 z" />
  </g>
  <g
     inkscape:groupmode="layer"
     id="layer13"
     inkscape:label="Eye Clipping"
     style="opacity:0.5;display:none"
     sodipodi:insensitive="true"
     transform="translate(-64.489394,13.397823)">
    <path
       style="fill:#00ff00;fill-opacity:1;stroke:#ff0000;stroke-width:1px;stroke-linecap:butt;stroke-linejoin:miter;stroke-opacity:1"
       d="m 3606,1342 c -104.2297,0.5714 -207.9082,2.7046 -290,66 -74.3574,55.0769 -127.806,317.3661 -98,454 2.1603,53.9199 6.8739,106.5631 2,164 33.3333,-21.8272 66.6667,-24.5267 100,-24 98.741,6.4454 192.4888,-8.0805 254,-158 73.866,-219.9994 45.9514,-392.1869 32,-502 z"
       id="path4448"
       inkscape:connector-curvature="0"
       sodipodi:nodetypes="ccccccc" />
    <path
       style="fill:#00ff00;fill-opacity:1;stroke:#ff0000;stroke-width:1px;stroke-linecap:butt;stroke-linejoin:miter;stroke-opacity:1"
       d="m 2449.4179,1347.2374 c 165.6817,-20.5751 309.9573,-0.7843 345.0681,224.8599 27.7842,113.6085 46.8372,227.217 11.3137,340.8255 -2.9917,47.621 -0.2583,86.6545 4.2426,123.0366 -26.6767,-20.7498 -58.1817,-33.4525 -96.1665,-35.3554 -67.6389,4.0889 -134.1096,-15.1847 -197.9899,-86.267 -96.9375,-191.5259 -96.4848,-401.8672 -66.468,-567.0996 z"
       id="path4450"
       inkscape:connector-curvature="0"
       sodipodi:nodetypes="ccccccc" />
  </g>
  <g
     inkscape:groupmode="layer"
     id="layer15"
     inkscape:label="Eyelashes"
     style="display:inline"
     sodipodi:insensitive="true"
     transform="translate(-64.489394,13.397823)">
    <path
       style="font-style:normal;font-variant:normal;font-weight:normal;font-stretch:normal;text-indent:0;text-align:start;text-decoration:none;line-height:normal;letter-spacing:normal;word-spacing:normal;text-transform:none;direction:ltr;block-progression:tb;writing-mode:lr-tb;text-anchor:start;baseline-shift:baseline;color:#000000;fill:#000000;fill-opacity:1;stroke:none;stroke-width:21;marker:none;visibility:visible;display:inline;overflow:visible;enable-background:accumulate;font-family:sans-serif;-inkscape-font-specification:sans-serif"
       d="m 2329.1146,1250.5235 c 14.9027,70.8699 67.1465,129.5422 123.3366,121.2311 128.1408,-18.9533 182.6412,-14.4221 230.8495,16.2926 48.2083,30.7146 76.8842,83.4977 99.629,168.3825 29.3886,109.6796 40.3189,239.6242 22.2617,323.5859 -9.6965,45.0866 -13.3126,90.3334 -10.0937,133.0352 -28.0728,-16.7372 -58.2859,-30.1425 -103.9122,-26.252 -93.9321,8.0097 -169.1636,-63.1414 -195.8144,-134.7636 -49.1737,-132.1505 -82.4415,-330.2982 -27.5072,-495.1137 l -19.9218,-6.6406 c -57.2845,171.8665 -22.2834,374.6246 27.7474,509.0785 29.5541,79.4246 112.047,157.3365 217.2793,148.3633 49.9337,-4.2579 75.16,12.8083 109.0957,34.2812 l 18.998,12.0215 -2.9766,-22.2852 c -6.1401,-45.9703 -3.2573,-96.654 7.6368,-147.3086 19.3327,-89.8926 7.601,-221.0699 -22.5079,-333.4375 -23.2645,-86.8245 -53.8543,-145.7597 -108.6289,-180.6579 -54.7747,-34.8982 -99.9092,-53.5275 -246.0801,-33.4736 -42.6476,5.851 -81.2609,-27.1014 -119.3912,-86.3391 z"
       inkscape:connector-curvature="0"
       sodipodi:nodetypes="csssscssccssccsssssc"
       id="path4901" />
    <path
       style="font-style:normal;font-variant:normal;font-weight:normal;font-stretch:normal;text-indent:0;text-align:start;text-decoration:none;line-height:normal;letter-spacing:normal;word-spacing:normal;text-transform:none;direction:ltr;block-progression:tb;writing-mode:lr-tb;text-anchor:start;baseline-shift:baseline;color:#000000;fill:#000000;fill-opacity:1;stroke:none;stroke-width:21;marker:none;visibility:visible;display:inline;overflow:visible;enable-background:accumulate;font-family:sans-serif;-inkscape-font-specification:sans-serif"
       d="m 3389.709,1348.6422 c -59.7611,22.4962 -112.1243,66.2263 -138.9716,123.1155 -64.5514,136.7836 -72.341,301.8582 -44.964,419.6193 9.6098,41.336 10.6563,86.8343 3.3282,131.8125 l -3.6407,22.3398 19.4063,-11.6484 c 33.6852,-20.2173 75.2978,-26.9865 130.0742,-21.4336 93.2075,9.4488 197.661,-59.1027 233.1016,-175.3868 47.6296,-156.2769 64.415,-315.7345 25.164,-478.5214 l -20.414,4.9218 c 38.2002,158.4289 22.0352,313.6901 -24.836,467.4786 -32.7418,107.4289 -129.5701,168.8578 -210.8984,160.6132 -48.7072,-4.9376 -89.7222,-0.5178 -124.5293,14.9082 4.5151,-40.8851 2.5467,-81.7726 -6.3027,-119.8379 -25.7282,-110.6683 -20.714,-274.8699 44.0654,-407.2091 24.7094,-50.4793 71.1346,-78.5393 126.9092,-99.8389 55.7746,-21.2996 126.9995,-20.8049 198.3967,-12.2897 l 1.0468,-32.2863 c -69.5396,-8.6121 -148.9926,-8.1687 -206.9357,13.6432 z"
       id="path4598"
       inkscape:connector-curvature="0"
       sodipodi:nodetypes="ssscccssccsscsssccs" />
    <path
       style="fill:#000000;stroke:#000000;stroke-width:1px;stroke-linecap:butt;stroke-linejoin:miter;stroke-opacity:1"
       d="m 2441.5,1402.8787 c -53.8049,15.8628 -82.4361,-6.984 -98.5,-52.3787 0.4642,50.7603 42.37,101.9199 95.2071,82.0355 z"
       id="path4610"
       inkscape:connector-curvature="0"
       sodipodi:nodetypes="cccc" />
    <path
       style="fill:#000000;stroke:#000000;stroke-width:1px;stroke-linecap:butt;stroke-linejoin:miter;stroke-opacity:1"
       d="m 2431.5,1624.5 c -30.9519,-16.1717 -56.9412,14.8455 -61.5,49.5 15.9848,-24.5456 36.4019,-35.7943 67,-16.5 z"
       id="path4612"
       inkscape:connector-curvature="0"
       sodipodi:nodetypes="cccc" />
    <path
       style="fill:#000000;stroke:#000000;stroke-width:1px;stroke-linecap:butt;stroke-linejoin:miter;stroke-opacity:1"
       d="m 2446.5,1717.5 c -33.7907,-7.2907 -54.6928,22.3073 -52.5,48 12.2339,-19.0387 24.9022,-32.4531 58,-19 z"
       id="path4614"
       inkscape:connector-curvature="0"
       sodipodi:nodetypes="cccc" />
    <path
       style="fill:#000000;stroke:#000000;stroke-width:1px;stroke-linecap:butt;stroke-linejoin:miter;stroke-opacity:1"
       d="m 2467,1812 c -36.7454,-0.279 -42.7994,41.3578 -33.5,60 5.953,-24.3153 21.6653,-41.2361 46,-30.5 z"
       id="path4616"
       inkscape:connector-curvature="0"
       sodipodi:nodetypes="cccc" />
    <path
       style="fill:#000000;stroke:#000000;stroke-width:1px;stroke-linecap:butt;stroke-linejoin:miter;stroke-opacity:1"
       d="m 3573.5,1853.5 c 25.0481,2.9901 37.4969,21.6695 44,37 9.0239,-25.46 -13.3975,-68.3809 -35,-70.5 z"
       id="path4618"
       inkscape:connector-curvature="0"
       sodipodi:nodetypes="cccc" />
    <path
       style="fill:#000000;stroke:#000000;stroke-width:1px;stroke-linecap:butt;stroke-linejoin:miter;stroke-opacity:1"
       d="m 3597.5,1767 c 30.4503,-9.1036 50.1381,5.2746 66,28 -2.3428,-31.1333 -19.7538,-61.8794 -57,-59.5 z"
       id="path4620"
       inkscape:connector-curvature="0"
       sodipodi:nodetypes="cccc" />
    <path
       style="fill:#000000;stroke:#000000;stroke-width:1px;stroke-linecap:butt;stroke-linejoin:miter;stroke-opacity:1"
       d="m 3616.5,1678 c 31.1424,-12.112 52.3352,-1.8376 67.5,22 -0.845,-29.2164 -23.9476,-71.308 -63.5,-53 z"
       id="path4622"
       inkscape:connector-curvature="0"
       sodipodi:nodetypes="cccc" />
    <path
       style="fill:#000000;stroke:#000000;stroke-width:1px;stroke-linecap:butt;stroke-linejoin:miter;stroke-opacity:1"
       d="m 3617,1431.2426 c 46.5769,14.8421 73.6812,-5.5377 91,-37.2426 -6.5151,41.78 -16.2223,81.0995 -85.5,74.5 z"
       id="path4624"
       inkscape:connector-curvature="0"
       sodipodi:nodetypes="cccc" />
  </g>
  <g
     inkscape:groupmode="layer"
     id="layer16"
     inkscape:label="Top Mane"
     style="display:inline"
     sodipodi:insensitive="true"
     transform="translate(-64.489394,13.397823)">
    <path
       style="fill:url(#linearGradient4647);fill-opacity:1;stroke:none"
       d="m 2967.0201,688.21387 c 489.1237,212.04198 844.9023,524.09273 1153.9982,871.15553 -61.157,-224.4909 -146.7756,-471.3433 -427.0925,-653.36663 C 3451.6239,770.33085 3209.322,695.67058 2967.0201,688.21387 z"
       id="path4639"
       inkscape:connector-curvature="0"
       sodipodi:nodetypes="cccc" />
    <path
       style="fill:url(#linearGradient4637);fill-opacity:1;stroke:none"
       d="m 2517.3001,736.29714 c 402.3895,91.77295 1141.7215,391.58566 1428.3557,820.24386 l 217.7889,172.534 -48.0832,-195.1614 C 3883.6551,1197.9785 3530.8728,814.37778 3023.5886,688.21387 c -179.4755,0.43647 -334.11,-3.43154 -506.2885,48.08327 z"
       id="path4629"
       inkscape:connector-curvature="0"
       sodipodi:nodetypes="cccccc" />
    <path
       style="fill:none;stroke:#852fbb;stroke-width:39;stroke-linecap:butt;stroke-linejoin:miter;stroke-miterlimit:4;stroke-opacity:1;stroke-dasharray:none"
       d="m 2472.0453,744.78242 c 371.5225,-107.04812 795.3703,-77.28704 1170.9688,135.7645 375.5985,213.05158 463.4382,564.48388 509.1169,842.87128 -224.0944,-218.083 -527.1523,-363.7189 -873.984,-452.5483 -283.6286,-72.642 -547.9698,-176.1988 -731.1484,-370.52398"
       id="path4627"
       inkscape:connector-curvature="0"
       sodipodi:nodetypes="czcsc" />
  </g>
  <g
     inkscape:groupmode="layer"
     id="layer17"
     inkscape:label="Crown"
     style="display:inline"
     sodipodi:insensitive="true"
     transform="translate(-64.489394,13.397823)">
    <path
       style="fill:#fde67c;stroke:none"
       d="m 2872,249 c -53.4003,95.93326 -52.2726,207.44592 -51,319.00001 -37.6667,-50.73329 -75.3206,-101.48455 -126,-134 -64.104,-29.22506 -111.2121,-16.73272 -146,26 -21.8205,68.56411 -26.4795,133.69591 18,189 56.2281,41.82466 105.4124,27.29928 151,-16 l 42,76 320,-16 -18,-243 L 2945,246 z"
       id="path4672"
       inkscape:connector-curvature="0"
       sodipodi:nodetypes="ccccccccccc" />
    <path
       style="fill:#fde67c;stroke:#d1aa3a;stroke-width:39;stroke-linecap:butt;stroke-linejoin:miter;stroke-miterlimit:4;stroke-opacity:1;stroke-dasharray:none"
       d="m 2711,631.00001 c 76.2509,76.78545 76.3565,167.18386 79,265 l 310,0 -24,-246"
       id="path4650"
       inkscape:connector-curvature="0"
       sodipodi:nodetypes="cccc" />
    <path
       style="font-style:normal;font-variant:normal;font-weight:normal;font-stretch:normal;text-indent:0;text-align:start;text-decoration:none;line-height:normal;letter-spacing:normal;word-spacing:normal;text-transform:none;direction:ltr;block-progression:tb;writing-mode:lr-tb;text-anchor:start;baseline-shift:baseline;color:#000000;fill:#d1aa3a;fill-opacity:1;stroke:none;stroke-width:27;marker:none;visibility:visible;display:inline;overflow:visible;enable-background:accumulate;font-family:sans-serif;-inkscape-font-specification:sans-serif"
       d="m 2874.8965,217.30273 c -57.4643,93.85224 -67.8825,203.44901 -64.8985,311.66016 -27.1327,-38.18327 -60.978,-77.58776 -99.1015,-102.30859 -27.2831,-17.69149 -61.0309,-24.82086 -92.4961,-20.86524 -31.4652,3.95562 -61.4352,19.67334 -77.3477,48.77344 -29.5851,54.1042 -29.9327,130.44763 8.0059,188.91602 20.2894,31.2688 54.0549,42.83875 84.5976,42.04687 30.5428,-0.79188 59.0486,-12.06181 75.1075,-31.33984 13.0465,-15.66185 22.2774,-31.11792 25.4765,-48.04883 3.1991,-16.93092 0.1929,-34.89429 -9.9961,-51.78906 -25.2401,-41.85142 -89.9415,-38.39158 -86.5642,8.89918 20.8774,-36.20924 54.7499,-10.00669 62.9978,4.2766 7.5551,13.08353 9.0021,23.16907 7.0313,33.59961 -1.9709,10.43054 -8.2753,22.07667 -19.6914,35.78125 -8.4038,10.08839 -31.4446,21.01661 -55.0606,21.6289 -23.6159,0.6123 -46.6207,-7.20724 -61.248,-29.75 -31.8952,-49.15473 -31.3093,-116.74893 -6.9668,-161.26562 11.0514,-20.21035 32.0735,-31.80265 57.0254,-34.93946 24.9519,-3.1368 53.0472,2.86011 74.4375,16.73047 45.2353,29.3324 89.1051,88.19907 117.9219,134.64258 l 28.0429,45.19727 -3.0937,-53.09961 c -7.1027,-121.86587 -2.4787,-244.48853 58.8476,-344.64844 z"
       id="path4652"
       inkscape:connector-curvature="0"
       sodipodi:nodetypes="ccsssssssscssssssssscccc" />
    <path
       style="fill:#fde67c;stroke:#d1aa3a;stroke-width:27;stroke-linecap:butt;stroke-linejoin:miter;stroke-miterlimit:4;stroke-opacity:1;stroke-dasharray:none"
       d="m 3046.9231,467.59656 c 40.3536,-61.15871 126.2406,-64.3658 173.2412,-16.97057 47.0006,47.39523 31.5977,166.814 -16.9706,197.9899 -48.5683,31.1759 -94.2496,21.0834 -131.5218,-14.14213"
       id="path4658"
       inkscape:connector-curvature="0"
       sodipodi:nodetypes="czzc" />
    <path
       style="font-style:normal;font-variant:normal;font-weight:normal;font-stretch:normal;text-indent:0;text-align:start;text-decoration:none;line-height:normal;letter-spacing:normal;word-spacing:normal;text-transform:none;direction:ltr;block-progression:tb;writing-mode:lr-tb;text-anchor:start;baseline-shift:baseline;color:#000000;fill:#d1aa3a;fill-opacity:1;stroke:none;stroke-width:27;marker:none;visibility:visible;display:inline;overflow:visible;enable-background:accumulate;font-family:sans-serif;-inkscape-font-specification:sans-serif"
       d="m 3052.2148,515.72656 14.8731,22.53516 c 12.9015,-8.51488 21.6049,-13.40628 33.3535,-12.07422 25.8434,2.93013 29.9966,17.29054 26.4169,51.76464 22.9368,-27.39776 14.0831,-78.05654 -25.8443,-78.76284 -16.0902,-0.28463 -32.5568,5.81744 -48.7992,16.53726 z"
       inkscape:connector-curvature="0"
       sodipodi:nodetypes="ccscsc"
       id="path4921" />
    <ellipse
       style="color:#000000;fill:#9d5cba;fill-opacity:1;fill-rule:nonzero;stroke:#69288f;stroke-width:27;stroke-miterlimit:4;stroke-dasharray:none;marker:none;visibility:visible;display:inline;overflow:visible;enable-background:accumulate"
       id="path4668"
       cx="2876.6655"
       cy="181.91422"
       rx="88.300117"
       ry="77.619919"
       sodipodi:cx="2876.6655"
       sodipodi:cy="181.91422"
       sodipodi:rx="88.300117"
       sodipodi:ry="77.619919"
       d="m 2964.9656,181.91422 c 0,42.86829 -39.5333,77.61991 -88.3001,77.61991 -48.7668,0 -88.3001,-34.75162 -88.3001,-77.61991 0,-42.8683 39.5333,-77.61992 88.3001,-77.61992 48.7668,0 88.3001,34.75162 88.3001,77.61992 z" />
    <ellipse
       style="color:#000000;fill:#ffffff;fill-opacity:0.50196078;fill-rule:nonzero;stroke:none;stroke-width:1px;marker:none;visibility:visible;display:inline;overflow:visible;enable-background:accumulate"
       id="path4670"
       cx="2885.2415"
       cy="157.37314"
       rx="50.336372"
       ry="29.14253"
       sodipodi:cx="2885.2415"
       sodipodi:cy="157.37314"
       sodipodi:rx="50.336372"
       sodipodi:ry="29.14253"
       d="m 2935.5778,157.37314 c 0,16.09497 -22.5363,29.14253 -50.3363,29.14253 -27.8001,0 -50.3364,-13.04756 -50.3364,-29.14253 0,-16.09498 22.5363,-29.14253 50.3364,-29.14253 27.8,0 50.3363,13.04755 50.3363,29.14253 z" />
  </g>
  <g
     inkscape:groupmode="layer"
     id="layer18"
     inkscape:label="Horn"
     sodipodi:insensitive="true"
     style="display:inline"
     transform="translate(-64.489394,13.397823)">
    <path
       style="fill:#fdcced;stroke:#f5a5c8;stroke-width:39;stroke-linecap:butt;stroke-linejoin:miter;stroke-miterlimit:4;stroke-opacity:1;stroke-dasharray:none"
       d="M 3161.01,1032.9388 3012.2749,129.32743 c -15.0897,-91.674605 -76.7912,-90.702895 -89.6813,6.34315 l -113.9655,858.01343"
       id="path4675"
       inkscape:connector-curvature="0"
       sodipodi:nodetypes="cssc" />
    <path
       style="fill:none;stroke:#f5a5c8;stroke-width:27;stroke-linecap:butt;stroke-linejoin:miter;stroke-miterlimit:4;stroke-opacity:1;stroke-dasharray:none"
       d="m 2912.5898,199.51076 c 36.1103,16.94696 75.3028,20.28083 113.7244,7.98573"
       id="path4677"
       inkscape:connector-curvature="0"
       sodipodi:nodetypes="cc" />
    <path
       style="fill:none;stroke:#f5a5c8;stroke-width:27;stroke-linecap:butt;stroke-linejoin:miter;stroke-miterlimit:4;stroke-opacity:1;stroke-dasharray:none"
       d="m 2896,325.00001 c 45.4775,21.13811 94.5246,29.18747 148,21"
       id="path4679"
       inkscape:connector-curvature="0"
       sodipodi:nodetypes="cc" />
    <path
       style="fill:none;stroke:#f5a5c8;stroke-width:27;stroke-linecap:butt;stroke-linejoin:miter;stroke-miterlimit:4;stroke-opacity:1;stroke-dasharray:none"
       d="m 2886,428.00001 c 54.2713,48.33767 113.4223,47.29905 173,24"
       id="path4681"
       inkscape:connector-curvature="0"
       sodipodi:nodetypes="cc" />
    <path
       style="fill:none;stroke:#f5a5c8;stroke-width:27;stroke-linecap:butt;stroke-linejoin:miter;stroke-miterlimit:4;stroke-opacity:1;stroke-dasharray:none"
       d="m 2869,546.00001 c 55.7389,52.7832 145.956,63.13213 215,15"
       id="path4683"
       inkscape:connector-curvature="0"
       sodipodi:nodetypes="cc" />
    <path
       style="fill:none;stroke:#f5a5c8;stroke-width:27;stroke-linecap:butt;stroke-linejoin:miter;stroke-miterlimit:4;stroke-opacity:1;stroke-dasharray:none"
       d="m 2854,669.00001 c 61.7733,82.68007 155.2167,89.34997 252,48"
       id="path4685"
       inkscape:connector-curvature="0"
       sodipodi:nodetypes="cc" />
    <path
       style="fill:none;stroke:#f5a5c8;stroke-width:27;stroke-linecap:butt;stroke-linejoin:miter;stroke-miterlimit:4;stroke-opacity:1;stroke-dasharray:none"
       d="m 3129,885.00001 c -84.3015,49.06658 -199.059,60.06864 -301,-16"
       id="path4687"
       inkscape:connector-curvature="0"
       sodipodi:nodetypes="cc" />
  </g>
  <g
     inkscape:groupmode="layer"
     id="layer19"
     inkscape:label="Front Mane"
     sodipodi:insensitive="true"
     style="display:inline"
     transform="translate(-64.489394,13.397823)">
    <path
       style="fill:url(#linearGradient4729);fill-opacity:1;stroke:none"
       d="M 3965.4548,1570.6831 C 3688.7115,1174.0711 3091.4873,871.63405 2545.5844,741.95399 l 2.8284,166.87721 c 202.0652,189.343 429.6601,259.5469 653.3667,347.8965 304.1559,50.5454 541.7276,173.7283 763.6753,313.9554 z"
       id="path4721"
       inkscape:connector-curvature="0"
       sodipodi:nodetypes="ccccc" />
    <path
       style="fill:none;stroke:#69288f;stroke-width:39;stroke-linecap:butt;stroke-linejoin:miter;stroke-miterlimit:4;stroke-opacity:1;stroke-dasharray:none;display:inline"
       d="M 4152.131,1723.4182 C 3928.0366,1505.3353 3624.9787,1359.6994 3278.147,1270.87 2994.5184,1198.228 2730.1772,1094.6712 2546.9986,900.34596"
       id="path4627-19"
       inkscape:connector-curvature="0"
       sodipodi:nodetypes="csc" />
    <path
       style="font-style:normal;font-variant:normal;font-weight:normal;font-stretch:normal;text-indent:0;text-align:start;text-decoration:none;line-height:normal;letter-spacing:normal;word-spacing:normal;text-transform:none;direction:ltr;block-progression:tb;writing-mode:lr-tb;text-anchor:start;baseline-shift:baseline;color:#000000;fill:#852fbb;fill-opacity:1;stroke:none;stroke-width:39;marker:none;visibility:visible;display:inline;overflow:visible;enable-background:accumulate;font-family:sans-serif;-inkscape-font-specification:sans-serif"
       d="m 3652.6348,863.58594 -19.2422,33.92187 c 343.8325,195.03289 440.2345,506.47219 489.6152,772.07029 4.2388,22.7988 10.3489,45.2097 15.5234,67.8145 l 42.4278,41.291 -9.586,-58.4219 c -45.9008,-279.7414 -136.2701,-639.7274 -518.7382,-856.67576 z"
       id="path4627-1"
       inkscape:connector-curvature="0"
       sodipodi:nodetypes="ccsccsc" />
  </g>
  <g
     inkscape:groupmode="layer"
     id="layer11"
     inkscape:label="Forward Ear"
     style="display:inline"
     sodipodi:insensitive="true"
     transform="translate(-64.489394,13.397823)">
    <path
       style="fill:#fdcced;stroke:none;display:inline"
       d="m 2428.4853,1310.7279 c -167.2037,-173.2415 -183.4259,-460.1774 -15.8995,-675.55629 52.5427,-67.55101 83.1223,-47.27458 116.8285,2.34315 91.449,134.61888 148.6294,309.65752 121.8996,457.55634"
       id="path4412-6-8"
       inkscape:connector-curvature="0"
       sodipodi:nodetypes="cssc" />
    <path
       style="font-style:normal;font-variant:normal;font-weight:normal;font-stretch:normal;text-indent:0;text-align:start;text-decoration:none;line-height:normal;letter-spacing:normal;word-spacing:normal;text-transform:none;direction:ltr;block-progression:tb;writing-mode:lr-tb;text-anchor:start;baseline-shift:baseline;color:#000000;fill:#f5a5c8;fill-opacity:1;stroke:none;stroke-width:39;marker:none;visibility:visible;display:inline;overflow:visible;enable-background:accumulate;font-family:sans-serif;-inkscape-font-specification:sans-serif"
       d="m 2475.6133,572.59375 c -12.6925,-0.58727 -25.8215,3.42689 -37.7735,10.99023 -13.6594,8.64383 -26.6577,21.63077 -40.6464,39.61524 -172.7602,222.10766 -160.9632,575.95888 38.0368,693.89228 -153.1391,-176.2229 -169.5443,-461.29685 -7.2517,-669.94697 12.2826,-15.79103 22.8096,-25.60295 30.7149,-30.60547 7.9052,-5.00251 12.3115,-5.4886 16.4121,-4.85937 8.2012,1.25846 22.1711,13.23017 38.1777,36.79297 89.1253,131.19841 145.745,300.675 135.0612,455.67734 62.8554,-146.22521 -9.027,-339.55401 -102.7995,-477.59336 -17.6996,-26.05493 -35.8726,-49.02935 -64.5234,-53.42578 -1.7907,-0.27478 -3.595,-0.45321 -5.4082,-0.53711 z"
       id="path4412-6"
       inkscape:connector-curvature="0"
       sodipodi:nodetypes="ssscsssscsss" />
    <path
       style="fill:#f5a5c8;stroke:none"
       d="m 2470.6311,863.57635 c -39.2475,87.86194 -43.646,189.77595 0,261.62955 -69.1719,-57.5903 -71.7154,-186.62961 0,-261.62955 z"
       id="path4750"
       inkscape:connector-curvature="0"
       sodipodi:nodetypes="ccc" />
  </g>
  <!--Created by Sigma
      http://90sigma.deviantart.com/-->
</svg>
