<?xml version="1.0" encoding="UTF-8"?><svg xmlns="http://www.w3.org/2000/svg" version="1.1" viewBox="0 0 548.1828 548.17236"><g transform="translate(-380.97 -79.519)"><path id="path8" fill="#7AC240" d="m633.31 413.36c-159.71-37.505-127.33 74.335-126.23 95.768 1.098 21.433 79.184 84.402 85.218 115.06 16.182-30.279-54.822-100.08-54.822-120 0-19.146-4.335-87.112 95.836-79.395 0.001-5.362 0.001-4.554 0.001-11.431z"/><path id="path10" fill="#F5EB7E" d="m629.37 422.76c-144.84-22.822-105.3 78.337-91.895 99.035 12.087 18.663 57.03 75.069 55.011 100.54 19.937-31.336-16.151-66.931-21.459-83.854 1.828-19.842-73.833-111.14 59.314-105.96 0.173-3.942-0.971-6.819-0.971-9.755z"/><path id="path12" fill="#F67634" d="m630.52 433.7c-69.145-16.627-98.8 21.334-92.121 53.16 4.979 23.726 32.219 58.773 48.695 78.931-5.492-10.723-7.987-16.698-9.826-21.799 5.566 3.3 18.782 15.731 26.613 24.588 5.332-6.448-49.472-61.191-45.743-77.606-1.579-62.4 51.716-58.548 72.382-57.274z"/><path id="path14" fill="#F13E32" d="m629.37 433.8c-103.88-2.933-90.477 59.921-55.022 98.966 12.604 13.88 28.187 33.938 42.083 47.971-9.978-23.123-56.879-64.441-58.299-89.762 7.003 6.896 11.131 12.082 21.49 17.26-14.917-14.514-41.043-76.366 49.748-74.435z"/><path id="path16" fill="#0193CF" d="m628.84 410.38c-45.988-26.201-172.27-45.05-172.27 36.847 10.793-16.454 24.119-28.165 40.969-35.464-88.512 73.199 78.204 178.91 75.694 202.79 0.442-9.389-1.931-17.953-6.371-25.483 6.809 1.608 19.14 21.668 25.084 38.623 20.823-33.742-9.234-68.606-13.262-81.975 13.959 11.851 32.594 30.449 46.636 50.121-4.862-24.055-59.94-78.008-66.421-102.12 2.865 2.735 22.504 21.021 29.579 22.63-4.012-5.817-12.688-15.058-17.925-24.379-11.394-20.277-5.167-61.681 60.271-56.724 1.9 0.017 4.501-1.212 0-2.563-56.537-7.279-71.711 24.52-68.576 48.285 1.139 8.633 8.948 18.713 13.83 23.595-7.897-4.164-13.928-11.63-18.771-17.426-7.217 17.996 40.453 65.236 56.535 90.364-11.63-15.221-30.121-30.396-38.968-36.568 4.756 21.717 32.103 50.313 17.618 81.398-2.196-5.271-4.937-15.771-13.636-25.923-20.945-24.441-65.469-69.797-72.893-113.38-7.368-43.263 20.132-94.67 122.76-67.967l0.113-4.679z"/><path id="path18" fill="#9DD9F8" d="m766.67 178.47c-5.912-10.368-110.76-38.591-131.42-35.178-4.429-3.796-15.902-16.157-23.463-14.4-16.019 28.001 1.068 64.6-12.11 71.139-5.474-3.4-11.65-14.307-21.131-12.605-1.933 3.375-1.056 8.044-0.789 13.147 5.097 4.371-3.307 26.089-9.893 28.665-7.313-8.164-28.182-17.521-31.734-13.376-10.014 9.646 36.929 60.25 52.849 77.246-8.08 2.371-25.037-13.864-40.719-3.233-7.535 14.413 43.163 42.328 66.554 54.117-3.525 0.976-14.429 0.774-16.57 9.75 0 16.256 25.491 24.413 49.223 25.508-12.743 4.606-24.142 28.045-15.39 61.374-6.759 2.405-17.024 4.171-23.85 14.146 17.983 31.684 19.002 46.608 22.861 77.273 5.707 6.926 37.663 21.988 48.937 7.529 10.711-9.967 3.117-78.18 30.477-98.516 11.928-6.883 34.377-26.05 41.845-41.114 3.932 6.312 15.742 28.088 30.6 24.63 32.769-16.485 1.532-121.36-30.6-110.62-3.606-15.168-20.429-32.329-31.634-43.127 14.401-0.944 34.566-3.117 42.903-9.358-8.742-10.365-8.396-20.136 1.762-24.212 25.098 0 26.115-30.532 7.886-24.451-5.611-6.428-5.03-22-6.596-34.33z"/><path id="path20" fill="#91BEE7" d="m619.12 225.51 5.364-16.575s-12.051-11.359-19.405-33.968c-5.259 1.264-9.503 20.676-5.409 25.066 6.214 6.688 19.45 25.477 19.45 25.477z"/><path id="path22" fill="#91BEE7" d="m618.68 280.74c-17.193-22.632-40.655-40.79-45.388-47.725-7.434-3.778-33.411-63.465 3.066-35.717 5.44 23.775 37.73 70.637 41.355 74.283 0.267 5.555 0.152 4.431 0.967 9.159z"/><path id="path24" fill="#91BEE7" d="m710.5 441.06c-9.607 4.361-15.694 4.891-27.359 6.167-7.646 12.809-12.517 19.94-19.21 25.959 7.099 10.504 46.182 75.394-4.826 72.532 0.477 9.621 0.516 16.353 7.496 20.827s43.685 10.563 51.255-2.31c-0.959-18.518-25.691-74.333-26.546-83.266 12.51-12.738 19.498-30.678 19.19-39.909z"/><path id="path26" fill="#AD047A" d="m765.56 261.46c-2.862-4.617-1.455-19.991 1.108-24.376-4.155-0.185-9.788-6.002-13.112-7.941-2.954 7.941-1.07 29.178 12.004 32.317z"/><path id="path28" d="m773.26 212.8c1.043-20.406-5.933-33.269-5.933-33.269" stroke="#6AAADD" stroke-miterlimit="10" fill="none"/><path id="path30" d="m770.17 190.8-1.439-3.375s10.153-2.001 10.75-0.607c0.685 1.602-9.311 3.982-9.311 3.982z"/><path id="path32" d="m769.28 185.72-1.628-3.186s5.491-3.242 6.47-2.119-4.842 5.305-4.842 5.305z"/><path id="path34" fill="#f60" d="m752.34 242.93c-1.928 1.264 3.241 13.803 9.429 17.146 1.478-3.601 1.109-8.771-0.646-12.096s-6.856-6.314-8.783-5.05z"/><path id="path36" fill="#fff" d="m766.67 179.53c4.2 3.957 7.698 25.503 6.269 33.974-12.972 2.412-21.655-15.074-23.349-22.087 4.858-3.237 12.892-8.589 17.08-11.887z"/><path id="path38" fill="#F5EB7E" d="m661.42 109.04c19.053 0.419 81.862 6.281 119.97 12.981-15.074-14.446-43.159-27.33-56.529-29.312 7.537-2.386 21.992-0.885 37.058-2.931-43.13-22.611-88.563 9.631-100.5 19.262z"/><linearGradient id="SVGID_1_" y2="212.1" gradientUnits="userSpaceOnUse" x2="771" y1="186.6" x1="755.68"><stop id="stop41" stop-color="#570030" offset="0"/><stop id="stop43" stop-color="#C6006F" offset="1"/></linearGradient><path id="path45" fill="url(#SVGID_1_)" d="m763.59 181.84c3.073 3.734 8.339 27.573 4.957 31.728-11.035-1.298-18.175-17.526-18.964-22.152 4.45-2.966 10.699-7.092 14.007-9.576z"/><path id="path47" d="m760.06 184.56c2.847 0.399 7.81 24.352 5.275 26.863-3.677 3.645-12.071-9.85-16.6-18.836 1.923-1.281 8.618-6.346 11.325-8.027z"/><path id="path49" fill="#fff" d="m760.32 187c0-0.862-0.092-1.686-0.26-2.442-2.065 1.064-5.504 2.886-7.22 4.178 0.433 2.867 1.914 4.979 3.675 4.979 2.102-0.001 3.805-3.007 3.805-6.715z"/><polyline id="polyline51" stroke-linecap="round" stroke="#000" points="742.32 185.37 749.59 191.42 770.17 177.7" stroke-miterlimit="10" stroke-width="3" fill="none"/><path id="path53" fill="#F67634" d="m650.12 120.82 83.328 46.632s54.645 21.355 71.604 15.493c-18.215-11.934-39.989-57.157-55.482-64.276 19.053-0.418 31.652 13.552 39.989 14.865-2.931-3.559-1.145-4.433-9.003-12.715-37.686-14.922-110.23-15.573-117.18-12.683-6.351 6.556-13.26 12.684-13.26 12.684z"/><path id="path55" fill="#F13E32" d="m635.25 143.29s6.273 6.8 9.623 10.987c16.959-5.249 52.256 6.468 81.875 27.199 2.094-5.234-10.38-16.878-12.144-22.193 4.396 1.047 13.609 6.281 25.752 10.259-9.761-13.137-52.132-54.017-88.771-48.155-3.98 5.235-16.335 21.903-16.335 21.903z"/><path id="path57" fill="#0193CF" d="m643.53 152.26c31.146-4.072 62.513 9.098 80.813 26.177-5.91-11.64-10.565-16.755-14.577-22.419 15.71 2.913 64.617 29.701 91.158 25.309-18.343-8.604-33.93-59.477-60.243-64.011 13.393-2.862 31.268 3.871 45.067 13.611-10.553-18.264-54.953-41.231-75.038-36.502 18.211-6.405 32.119-4.827 46.254-5.191-56.245-16.548-91.094 13.64-119.41 55.221-1.888 0-3.895-2.25-3.595-2.769 28.709-49.814 82.21-83.083 143.1-46.959-14.4-3.748-31.362-3.387-44.87-1.482 17.154 2.764 58.481 23.97 63.48 50.029-13.383-11.461-26.698-19.648-37.745-21.818 14.23 7.645 30.465 55.131 56.86 62.408-41.276 7.551-88.522-18.517-97.463-22.183 7.025 6.844 11.004 15.391 16.755 29.734-20.229-16.45-52.294-38.118-87.114-34.477-1.713-2.194-2.874-3.625-3.428-4.678z"/><path id="path61" fill="#6AAADD" d="m648.84 159.47c-4.085-4.908-8.403-9.579-13.035-13.896-4.607-4.323-9.495-8.386-14.716-11.756-1.308-0.83-2.645-1.601-3.998-2.25-0.676-0.32-1.352-0.62-2.016-0.851-0.656-0.231-1.332-0.402-1.832-0.419-0.243-0.012-0.437 0.026-0.457 0.046 0.004 0.007-0.01 0.002 0.01 0.001 0.018-0.01-0.017 0.012 0.041-0.031l-0.107 0.084-0.216 0.225c-0.394 0.434-0.81 1.043-1.185 1.658-0.757 1.25-1.418 2.624-2.008 4.025-2.359 5.634-3.711 11.761-4.14 17.909-0.982 12.333 1.89 24.828 7.574 35.929 5.687 11.156 14.014 20.912 23.337 29.606-10.376-7.403-19.637-16.787-26.086-28.122-3.259-5.633-5.672-11.78-7.229-18.146-1.509-6.381-2.039-13.005-1.58-19.563 0.543-6.549 1.973-13.045 4.669-19.124 0.691-1.515 1.455-3.002 2.393-4.452 0.48-0.728 0.972-1.437 1.669-2.167 0.197-0.197 0.331-0.34 0.654-0.594l0.131-0.097c0.139-0.1 0.192-0.125 0.295-0.188 0.185-0.115 0.363-0.181 0.548-0.257 0.73-0.258 1.352-0.259 1.9-0.226 1.093 0.089 1.962 0.38 2.8 0.693 0.832 0.319 1.606 0.686 2.349 1.09 1.485 0.804 2.87 1.699 4.209 2.643 5.343 3.778 10.017 8.247 14.377 12.968 4.312 4.763 8.272 9.835 11.649 15.262z"/><path id="path65" fill="#6AAADD" d="m616.78 159.77c0.759 3.324 1.818 6.5 3.081 9.595 1.278 3.087 2.723 6.102 4.323 9.041 1.57 2.955 3.292 5.834 5.053 8.701 1.778 2.857 3.609 5.689 5.48 8.538-2.512-2.315-4.724-4.928-6.77-7.659-2.053-2.729-3.886-5.625-5.524-8.634-1.603-3.026-3.015-6.173-4.026-9.461-1.018-3.276-1.683-6.702-1.617-10.121z"/><path id="path69" fill="#6AAADD" d="m764.1 223.87c0.756 0.363 1.354 0.762 1.937 1.041 0.574 0.293 1.071 0.438 1.489 0.442 0.415 0.01 0.895-0.114 1.461-0.397 0.567-0.275 1.159-0.666 1.877-1.085 0.001 0.847-0.323 1.621-0.866 2.29-0.536 0.653-1.451 1.219-2.511 1.192-1.056-0.022-1.927-0.597-2.455-1.239-0.538-0.661-0.861-1.41-0.932-2.244z"/><path id="path71" d="m671.14 205.81s-16.02 2.243-16.18-0.32 16.18-2.723 16.18-2.723v3.043z"/><path id="path73" d="m671.14 209.98-0.961-3.256s-13.313 5.499-12.992 7.261 13.953-4.005 13.953-4.005z"/><path id="path75" fill="#6AAADD" d="m698 270.18c0-1.455 49.32 2.192 62.807-9.521-10.843-3.305-12.164-26.973-6.348-35.543 7.141 19.281 31.997 10.158 27.369-11.13-5.918 1.009-10.421 1.004-15.337 0 0.996-1.851 14.807-3.833 17.727-3.129 12.429 28.295-26.85 37.639-28.965 19.921-2.807 8.579-1.587 26.973 11.636 30.279-16.925 15.469-68.889 10.987-68.889 9.123z"/><path id="path77" fill="#fff" d="m668.91 202.69c0.121-2.045 0-2.69 1.303-3.128 8.013 0 50.293-0.741 61.544 0 1.254 2.275 2.897 4.977 2.897 12.505 0 16.387-9.307 30.857-25.501 30.857-23.938-0.001-41.327-21.993-40.243-40.234z"/><linearGradient id="SVGID_2_" y2="242.75" gradientUnits="userSpaceOnUse" x2="694.64" y1="199.2" x1="695.4"><stop id="stop80" stop-color="#570030" offset="0"/><stop id="stop82" stop-color="#C6006F" offset="1"/></linearGradient><path id="path84" fill="url(#SVGID_2_)" d="m668.91 199.56c-2.996 27.943 25.489 43.735 36.523 43.369 20.154-0.67 18.921-36.208 10.471-43.369-7.656 0-41.152 0.052-46.994 0z"/><path id="path86" d="m676.05 199.51c-0.638 22.675 16.688 36.588 27.421 36.588 12.323 0 12.323-24.514 7.697-36.116-12.181-0.489-29.693-0.428-35.118-0.472z"/><path id="path88" fill="#fff" d="m712.91 201.08c0-0.909-0.062-1.796-0.179-2.654-6.215 0.654-11.77 0.654-17.401 0.276-0.094 0.771-0.143 1.566-0.143 2.377 0 7.307 3.968 13.229 8.861 13.229 4.895 0.001 8.862-5.921 8.862-13.228z"/><polyline id="polyline90" stroke-linejoin="round" stroke-linecap="round" stroke="#000" points="725.14 187.43 733.01 199.56 668.91 199.56" stroke-miterlimit="10" stroke-width="3" fill="none"/><path id="path92" d="m668.91 198.06c-5.09-0.755-9.174-3.069-9.55-2.504-0.924 1.387 2.921 4.762 9.342 5.458 0.229-1.946 0.208-2.954 0.208-2.954z"/><ellipse id="ellipse94" d="m 720.71,218.74699 c 0,2.89453 -1.49895,5.241 -3.348,5.241 -1.84905,0 -3.348,-2.34647 -3.348,-5.241 0,-2.89452 1.49895,-5.241 3.348,-5.241 1.84905,0 3.348,2.34648 3.348,5.241 z" rx="3.348" ry="5.241" cy="218.75" cx="717.36" fill="#fff"/><path id="path96" fill="#ffcbf2" d="m683.23 233.02c0.953-1.305 2.344-3.13 3.823-5.053 1.363 1.339 3.503 3.045 5.39 4.362-1.065 1.593-2.346 3.446-3.393 4.925-2.261-1.339-4.022-2.65-5.82-4.234z"/><path id="path98" fill="#f37aba" d="m687.06 227.96c-1.141-1.208-2.407-2.484-3.457-3.976-1.678 1.059-4.053 2.84-5.599 3.855 1.577 1.829 3.062 3.407 5.232 5.173 0.58-0.781 2.908-3.796 3.824-5.052z"/><path id="path100" fill="#f37aba" d="m765.74 203.53s2.805-0.594 3.544-0.748c-0.099-1.017-0.249-1.863-0.37-2.781-1.16 0.23-3.535 0.746-3.535 0.746l0.361 2.783z"/><ellipse id="ellipse102" d="m 768.23297,195.64101 c 0,2.07051 -1.03422,3.749 -2.31,3.749 -1.27577,0 -2.31,-1.67849 -2.31,-3.749 0,-2.07052 1.03423,-3.749 2.31,-3.749 1.27578,0 2.31,1.67848 2.31,3.749 z" rx="2.31" ry="3.749" cy="195.64" cx="765.92" fill="#fff"/><path id="path104" fill="#ffcbf2" d="m765.97 206.05c1.123-0.048 2.263-0.079 3.598-0.204 0-0.641-0.162-2.141-0.288-3.059-0.874 0.184-2.577 0.527-3.544 0.748 0.12 0.958 0.187 1.723 0.234 2.515z"/><path id="path106" d="m717.88 270.82c26.455 15.677 34.466 43.127 34.466 43.127" stroke="#6AAADD" stroke-miterlimit="10" stroke-width="3" fill="none"/><path id="path108" fill="#6AAADD" d="m728.72 327.33c3.822 3.996 4.614 5.315 4.086 9.713 6.422-12.051 20.88-24.375 28.046-22.187 11.793 3.602 29.136 33.86 33.471 61.525 3.135 20.004-4.927 44.338-10.445 46.104-16.154 5.169-35.087-27.592-34.448-39.803 0.58-11.085 13.693-28.692 5.452-35.115-8.658 13.522-24.004 19.112-33.296 18.694-5.731-0.258-11.459-10.181-13.549-25.408-3.583 7.315 1.94 28.773 13.585 28.773 9.853 0 18.66-1.753 31.798-15.039 0.393 5.908-8.412 18.621-8.273 28.095 0.211 14.45 24.246 52.518 40.338 43.194 9.444-5.472 16.392-27.722 12.869-50.241-4.7-30.052-23.643-61.184-36.694-64.277-11.875-2.815-22.519 12.931-27.758 18.849-1.032-0.197-2.416-1.52-5.182-2.877z"/><path id="path110" d="m683.14 447.22c48.931-1.453 69.204-48.931 69.204-48.931" stroke="#6AAADD" stroke-miterlimit="10" stroke-width="3" fill="none"/><path id="path112" fill="#6AAADD" d="m687.02 428.57s0.748 9.588-12.675 30.719-31.169 20.392-31.169 20.392 14.514 8.587 33.186-18.652 10.658-32.459 10.658-32.459z"/><path id="path114" d="m662.98 472.05c11.276 12.853 30.492 52.464 17.048 67.521s-42.264-1.56-48.937-7.529c-5.108-4.57 5.377-30.929-21.348-72.368-6.762-10.485 15.578-20.992 22.787-17.14" stroke="#6AAADD" stroke-miterlimit="10" stroke-width="3" fill="none"/><path id="path116" d="m771.77 321.5c10.725-17.046 21.573-33.968 40.547-31.378 16.552 2.259 55.465 62.744 32.833 89.054-8.237 9.576-40.988-18.681-40.03-31.793 0.748-10.239 6.789-17.812 2.107-25.856-6.896 7.086-12.83 18.003-20.588 21.834-2.587-4.98-5.102-10.753-14.869-21.861z" stroke="#6AAADD" stroke-miterlimit="10" stroke-width="3" fill="#91BEE7"/><path id="path118" d="m659.1 545.72c-1.524 6.753 2.022 15.604 4.81 18.859 6.154 7.188 49.906 12.274 53.829-1.254 2.001-6.9-23.297-64.58-26.434-82.354" stroke="#6AAADD" stroke-miterlimit="10" stroke-width="3" fill="none"/><path id="path120" fill="#6AAADD" d="m686.37 483.02c14.42-9.224 23.903-33.906 22.5-41.337 3.093-1.061 1.825-1.061 4.176-1.923 0.018 18.578-16.153 43.595-26.676 43.26z"/><path id="path122" stroke-linejoin="round" d="m635.89 454.77c-20.663-67.647 8.41-76.777 23.218-78.462-31.626 4.814-35.297-19.22-12.816-23.547-59.9-21.38-52.69-76.64-12.09-32.68-21.86-37.96-19.94-65.35-6.24-55.5" stroke="#6AAADD" stroke-linecap="round" stroke-miterlimit="10" stroke-width="3" fill="none"/><path id="path124" stroke-linejoin="round" d="m652.39 376.92c-26.687 5.11-53.932-6.314-54.148-23.183-0.132-10.289 20.694-10.385 30.337-9.294" stroke="#6AAADD" stroke-linecap="round" stroke-miterlimit="10" stroke-width="3" fill="none"/><path id="path126" stroke-linejoin="round" d="m606.62 304c-13.287-9.063-48.704-23.552-58.362-14.123s49.984 54.117 77.058 54.117" stroke="#6AAADD" stroke-linecap="round" stroke-miterlimit="10" stroke-width="3" fill="none"/><path id="path128" stroke-linejoin="round" d="m595.23 297.58c-21.534-18.158-69.051-70.951-60.082-80.84 14.158-15.61 79.229 56.805 83.529 64.888" stroke="#6AAADD" stroke-linecap="round" stroke-miterlimit="10" stroke-width="3" fill="none"/><path id="path130" stroke-linejoin="round" d="m617.71 271.58c-10.794-8.07-50.722-77.161-39.168-84.156 9.288-5.624 41.861 34.925 45.189 47.711" stroke="#6AAADD" stroke-linecap="round" stroke-miterlimit="10" stroke-width="3" fill="none"/><path id="path132" stroke-linejoin="round" d="m574.86 235.12s-26.471-34.143-14.704-44.649c4.904-4.379 17.335 9.084 17.335 9.084" stroke="#6AAADD" stroke-linecap="round" stroke-miterlimit="10" stroke-width="3" fill="none"/><path id="path134" stroke-linejoin="round" d="m599.96 200.74c-6.751-16.023 5.12-25.778 5.12-25.778" stroke="#6AAADD" stroke-linecap="round" stroke-miterlimit="10" stroke-width="3" fill="none"/><path id="path136" fill="#0193CF" d="m617.69 202.77c2.29 106.51 52.25 149.65 46.467 182.27 23.679-26.368 13.84-63.328 10.651-74.006 15.358 10.678 20.123 24.465 29.236 37.242-1.205-37.242-7.298-67.529-39.888-83.55 8.707-0.528 21.136-4.642 28.285-12.15-37.486 2.118-59.799-28.114-57.725-33.951-6.82-4.833-11.389-9.932-17.026-15.852z"/><path id="path138" fill="#7AC240" d="m620.89 206.72c1.078 28.259 26.777 72.503 67.138 88.76-4.834-13.035-20.302-24.657-30.842-32.917 3.689 0 13.692 1.179 20.714-5.253-29.911-4.204-49.648-34.091-48.375-42.763-3.208-2.608-4.354-4.029-8.635-7.827z"/><path id="path140" fill="#662E8A" d="m634.72 282.34c0.973 15.244 35.011 70.442 34.481 87.66 4.503-11.332 6.072-23.616 4.745-31.682-1.983-12.055-31.366-44.416-39.226-55.978z"/><path id="path142" fill="#0193CF" d="m645.15 400.93s-0.433 0.893-1.706 3.508c2.414 2.596 3.495 6.159 4.627 8.498-1.188-0.559-2.319-0.921-3.427-1.077 3.203 6.051 4.833 22.368 4.802 30.749 0.775-5.528 0.771-36.714 0.771-36.714l-5.067-4.964z"/><path id="path144" fill="#ffe85b" d="m648.93 395.51s-1.908 3.174-3.313 5.416c2.789 2.236 3.781 11.044 4.197 14.602-1.268-1.068-2.005-1.532-3.02-1.903 2.583 7.583 3.418 20.784 2.646 28.979 1.613-6.748 0.975-19.847 0.646-22.225 0.522-0.326 1.282 0.066 2.303 0.261 1.482-20.381-3.459-25.13-3.459-25.13z"/><path id="path146" fill="#ff6353" d="m652.39 391.54c2.41 9.77 2.86 21.989 1.685 33.384-1.162-1.46-1.795-2.163-3.221-3.637 1.426 4.546 0.814 15.364-1.413 21.32 0.689-3.499 2.15-16.022-1.035-26.364 1.334 0.972 2.247 2.099 3.316 3.409 0.668-7.709-1.02-19.012-2.793-24.139 1.97-2.625 1.047-2.081 3.461-3.973z"/><path id="path148" fill="#0193CF" d="m648.92 396.25c1.99 5.006-0.372 11.278-4.99 8.745 0.515 12.074-13.995 1.28-6.408-7.558-3.609-4.051 1.607-10.237 5.517-7.666 5.972-10.599 16.651 0.08 5.881 6.479z"/><path id="path150" fill="#662E8A" d="m580.84 397.83c-73.695-17.319-108.94 9.728-118.01 33.754 11.878-12.527 26.473-23.736 46.628-25.126-35.445 24.094-54.21 72.976 19.167 146.95-79.62-100.15-25.51-161.87 52.22-155.58z"/><path id="path152" fill="#fff" d="m648.52 396.08c1.791 4.505 0.39 11.305-4.951 8.342 0.273 12.241-12.401 1.055-5.574-6.899-3.249-3.646 1.587-9.447 5.106-7.134 5.458-9.941 15.788-0.663 5.419 5.691z"/><path id="path154" fill="#0193CF" d="m643.28 390.02c1.472 1.054 0.461 3.313-0.982 3.62 7.799 1.832 0.262 11.821-1.095 4.257 2.06 7.275 8.047-2.981 0.593-4.205 1.969-0.594 2.437-2.573 1.301-3.302"/></g></svg>