<?xml version="1.0" encoding="UTF-8"?><svg xmlns="http://www.w3.org/2000/svg" xmlns:xlink="http://www.w3.org/1999/xlink" version="1.1" viewBox="0 0 5883.4609 5883.4727"><defs id="defs4"><linearGradient id="linearGradient4036"><stop id="stop4038" stop-color="#A97DB6" offset="0"/><stop id="stop4040" stop-color="#31044C" offset="1"/></linearGradient><clipPath id="clipPath3922" clipPathUnits="userSpaceOnUse"><path id="path3924" opacity=".5" style="color:#000000" d="m4776.4 2066.4c-79.46 256.11-312.25 412.39-519.95 349.06s-311.66-322.29-232.2-578.4 312.25-412.39 519.95-349.06 311.66 322.29 232.2 578.4z" stroke="#f00" stroke-width=".96123" fill="#0f0"/></clipPath><clipPath id="clipPath3926" clipPathUnits="userSpaceOnUse"><path id="path3928" opacity=".5" style="color:#000000" d="m4759.4 2106.8c9.5412 268.01-173.1 491.92-407.94 500.12-234.84 8.1972-432.95-202.42-442.49-470.43-9.5412-268.01 173.1-491.92 407.94-500.12 234.84-8.1972 432.95 202.42 442.49 470.43z" stroke="#f00" fill="#0f0"/></clipPath><clipPath id="clipPath3930" clipPathUnits="userSpaceOnUse"><path id="path3932" opacity=".5" style="color:#000000" d="m4732.9 2040.8c9.3009 271.04-168.74 497.48-397.67 505.77-228.93 8.2898-422.05-204.71-431.35-475.75-9.301-271.04 168.74-497.48 397.67-505.77 228.93-8.2898 422.05 204.71 431.35 475.75z" stroke="#f00" stroke-width=".99289" fill="#0f0"/></clipPath><clipPath id="clipPath3934" clipPathUnits="userSpaceOnUse"><path id="path3936" opacity=".5" style="color:#000000" d="m4730.5 2039.5c9.5412 268.01-173.1 491.92-407.94 500.12-234.84 8.1972-432.95-202.42-442.49-470.43-9.5412-268.01 173.1-491.92 407.94-500.12 234.84-8.1972 432.95 202.42 442.49 470.43z" stroke="#f00" fill="#0f0"/></clipPath><clipPath id="clipPath3938" clipPathUnits="userSpaceOnUse"><path id="path3940" opacity=".5" d="m5102 2280.1c-82.967-77.172-61.417-238.96-18.902-417.73 69.252-116.92 75.78-273.91 290-298.22 61.683 24.418 61.782 98.698 61.539 173.25 3.9535 241.69-114.11 412.27-228.33 585.09z" stroke="#f00" stroke-width="1px" fill="#0f0"/></clipPath><clipPath id="clipPath3942" clipPathUnits="userSpaceOnUse"><path id="path3944" opacity=".5" d="m5258.2 2388.2c-101.03-51.293-124.95-212.75-133.39-396.31 34.316-131.49-2.7122-284.18 196.49-366.64 66.026 6.4568 86.609 77.828 106.94 149.56 70.466 231.22 4.0313 427.75-58.083 625.38z" stroke="#f00" stroke-width="1px" fill="#0f0"/></clipPath><clipPath id="clipPath3946" clipPathUnits="userSpaceOnUse"><path id="path3948" opacity=".5" d="m5037.1 2395.9c-96.83-52.908-119.32-214.57-126.9-398.04 33.313-130.75-1.7914-283.88 189.65-362.93 63.356 7.5451 82.908 79.171 102.22 151.15 66.976 232.11 2.6473 427.29-57.537 623.64z" stroke="#f00" stroke-width=".97914px" fill="#0f0"/></clipPath><clipPath id="clipPath3950" clipPathUnits="userSpaceOnUse"><path id="path3952" opacity=".5" d="m5132.2 2311.5c-90.585-68.069-86.08-231.23-62.5-413.46 56.641-123.52 46.709-280.33 257.21-326.92 63.9 17.831 71.768 91.694 79.327 165.87 29.217 239.95-70.357 421.95-165.87 605.77z" stroke="#f00" stroke-width="1px" fill="#0f0"/></clipPath><clipPath id="clipPath3995" clipPathUnits="userSpaceOnUse"><path id="path3997" style="color:#000000" d="m4824.5 2140.9a325.72 430.29 0 1 1 -651.44 0 325.72 430.29 0 1 1 651.44 0z" transform="matrix(1.0258 0 0 .98883 -124.62 21.516)" fill="#f00"/></clipPath><clipPath id="clipPath3999" clipPathUnits="userSpaceOnUse"><path id="path4001" style="color:#000000" d="m4824.5 2140.9a325.72 430.29 0 1 1 -651.44 0 325.72 430.29 0 1 1 651.44 0z" transform="matrix(1.0258 0 0 .98883 -124.62 21.516)" fill="#f00"/></clipPath><clipPath id="clipPath4028" clipPathUnits="userSpaceOnUse"><path id="path4030" style="color:#000000" d="m5252.4 2119.2a163.46 391.83 0 1 1 -326.92 0 163.46 391.83 0 1 1 326.92 0z" transform="matrix(1.029 .16397 -.17103 .98647 359.08 -877.86)" fill="#f00"/></clipPath><clipPath id="clipPath4032" clipPathUnits="userSpaceOnUse"><path id="path4034" style="color:#000000" d="m5252.4 2119.2a163.46 391.83 0 1 1 -326.92 0 163.46 391.83 0 1 1 326.92 0z" transform="matrix(1.029 .16397 -.17103 .98647 359.08 -877.86)" fill="#f00"/></clipPath><linearGradient id="linearGradient4042" y2="1802" xlink:href="#linearGradient4036" gradientUnits="userSpaceOnUse" x2="4494.5" y1="2482.8" x1="4494.5"/><linearGradient id="linearGradient4044" y2="1796.9" xlink:href="#linearGradient4036" gradientUnits="userSpaceOnUse" x2="5102.8" y1="2386.4" x1="5107.2"/><mask id="mask4119" maskUnits="userSpaceOnUse"><path id="path4121" d="m5425.5 1686.5c1.4238 97.678-8.9629 192-29.171 282.19l178.89-3.3345 50.993-241.37z" stroke="#fff" stroke-width="44" fill="#fff"/></mask></defs><g transform="translate(-59.457 625.18)" fill="#E89633"><path id="path3784" d="m3386.9 3302.7c10.856 281.27 26.256 584.16-53.577 891.68-17.527 67.514-12.711 127.62 38.27 176.04 128.22 121.78 311.83 164.93 470.72 110.98 67.618-22.96 111.29-48.573 107.15-160.73-14.247-386.37-78.837-933.37-287.02-1190.2" stroke="#EF5E0F" stroke-width="59"/><path id="path4144" d="m2593.9 2533.1-40.795-540.53-751.3 132.58 3.3995 472.54z"/></g><g stroke="#B10772" transform="translate(-59.457 625.18)"><path id="path3787" d="m2955 2299.8c-276.48-810.36-876.45-1154.5-1445-833.47-268.04 151.32-439.18 377.44-548.34 617.75-130.61 287.55-308.56 601.87-609.86 616.22 149.59 217.27 336.92 95.202 508.74-37.885-69.51 126.54-481.26 816.61-692.75 40.591-135.79 265.45-99.534 592.42 135.3 744.17 624.8 403.74 1173.3-262.48 1435.8-763.02 152.44-290.63 490.6-642.99 822.9-420.38z" stroke-miterlimit="100" stroke-width="59" fill="#B44E93"/><path id="path3789" d="m2646.5 1812.8c-242.6-305.1-855.8-362-1125.7 43.2-225.8 339.1-326 742.3-531.04 1114.9-183.77 334-495.93 465.1-811.16 373.5" stroke-width="34" fill="none"/><path id="path3791" d="m386.52 3505.5c314.79 15.691 613.18-87.888 807.49-501.33 143.74-305.86 311.64-661.55 508.99-941.43 357.97-507.7 810.08-230.61 1014.1 210.48" stroke-width="34" fill="none"/></g><g transform="translate(-59.457 625.18)" stroke="#B10772"><path id="path3860" d="m3461.5 710.58c-58.5-87.27-97.8-193.78-120.2-317.31-304.1 424.68-247.5 879.93-105.7 1294.4-49.68-13.041-99.359-49.49-149.04-103.29 15.229 299.09 195.58 559.92 367.96 717.75l535.89-726.2z" stroke-width="59" fill="#B44E93"/><path id="path3862" d="m3101.5 1597.6c92.4 241.88 309.69 491.26 448.94 572.12" stroke-width="34" fill="none"/></g><g transform="translate(-59.457 625.18)"><path id="path3825" fill="#FDB44C" d="m4103.3 2621.5-887.3-183.6-489.6-183.6c-249.28-57.232-469.28-17.5-655.11 142.78-48.257-96.761-172.15-272.19-316.16-50.993-59.566 119.35-163.54 186.61-313.76 197.17-185.36-41.098-223.8 47.429-258.37 139.38-18.022 100.52-6.8604 201.43 20.397 302.56 47.372 131.5 119.7 129.91 193.77 118.98 273.06-24.566 458.91-146.61 577.92-343.35 132.88 81.964 264.09 117.05 394.35 125.78 124.8 282.32 338.68 447.44 635.72 503.13 61.325 280.36 197.7 386.65 424.94 282.16-12.144 56.388-20.185 114.14-84.989 152.98-44.954 50.993-38.952 101.99-30.596 152.98 73.553 145 176.07 224.83 285.56 288.96 106.53 69.72 175.44 20.325 227.77-81.589 131.45-211.91 78.298-423.81 23.797-635.72-9.299-93.328-65.788-177.22-118.98-261.77 204.29-141.33 320.3-370.94 370.55-666.31z"/><path id="path3765" fill="#EF5E0F" d="m3562.2 3122.3c-14.017 0.182-28.275 2.2126-42.656 6.2188-78.217 21.789-134.34 158.86-230.77 232.37 122.85-31.877 201.57-162.98 246.61-175.53 53.458-14.892 90.407 7.344 132.59 64.993 224.62 306.99 269.71 605.91 135.85 909.14-24.482 55.458-52.961 79.887-83.312 89.562-30.352 9.6755-66.917 4.5762-107.66-12.906-113.02-48.501-208.12-159.46-257.41-250.94-16.305-30.259-28.117-58.099-28.906-78.281s3.951-34.912 34.656-55.437c58.681-39.227 142.74-243.03 93.004-390.05-14.044 147.04-82.768 312.27-125.78 341.02-42.606 28.481-62.333 68.69-60.844 106.78 1.4891 38.091 18.659 71.873 35.938 103.94 54.614 101.35 154.72 220.82 286.06 277.19 48.633 20.87 100.11 30.443 148.84 14.906 48.738-15.536 90.385-56.228 119.41-121.97 141.68-320.95 91.643-648.14-142.22-967.76-41.583-56.832-92.66-94.032-153.4-93.243z"/><path id="path3767" fill="#EF5E0F" d="m3296.8 3067.5c0.7165 65.835 29.933 157.62 69.329 217l49.156-32.625c-36.92-55.65-92.006-127.83-118.49-184.38z"/><path id="path3769" fill="#EF5E0F" d="m2946.9 3283.9c57.253 78.216 61.312 267.56 141.53 366.47 53.33 65.753 118.16 96.265 183.5 96.5 65.34 0.2354 119.21-22.533 178.97-62.88l-33.031-48.906c-53.779 36.312-97.524 52.96-145.75 52.786-48.226-0.1737-93.11-19.494-137.88-74.688-64.453-79.467-83.121-259.62-187.35-329.28z"/><path id="path3771" fill="#EF5E0F" d="m2514 3161.1c133.59 149.38 328.14 246.9 494.39 266.12l6.7812-58.594c-148.98-17.219-332.96-107.95-457.17-246.84s-223.77-265.29-201.09-567.21c-78.278 291.82 23.497 457.15 157.09 606.53z"/><path id="path3773" fill="#EF5E0F" d="m2038.4 2829.2c108.53 52.03 242.89 76.605 339.81 96.687l11.969-57.781c-97.936-20.293-228.55-45.259-326.25-92.094-48.848-23.417-177.25-92.871-147.65-222.78-111.48 136.96 44.468 238.74 122.12 275.96z"/><path id="path3775" d="m1986.2 2770.7c-135.62 212.38-306.63 301.86-528.31 330.24-92.147 11.797-206.78 28.197-246.51-90.069-38.792-115.48-57.934-229.64-6.5329-351.15 28.799-68.077 52.313-134 192-122.46 169.23 13.982 293.76-46.487 348.25-183.69 78.599-197.91 290.15-106.29 329.12 34.443" stroke="#EF5E0F" stroke-width="59" fill="none"/><path id="path3777" fill="#EF5E0F" d="m2527.1 2190.9c-84.619-1.8293-169.21 11.467-248.06 48.188-94.932 44.208-223.75 140.91-269.49 181.17 78.337 19.859 209.45-88.138 294.4-127.7 138.08-64.302 304.01-47.871 454.44-2.625l16.969-56.5c-78.994-23.76-163.63-40.702-248.25-42.531z"/><path id="path3779" d="m4098.7 2610c-40.464 255.17-152.42 545.07-352.08 681.2" stroke="#EF5E0F" stroke-width="59" fill="none"/></g><g transform="translate(-59.457 625.18)"><path id="path4142" fill="#fff" d="m5068.7 2607.9c-34.508 67.813-81.842 124.08-161.48 151.28-80.11-94.422-79.092-200.77-5.0994-317.86 29.289 92.695 82.91 150.92 166.58 166.58z"/><path id="path3842" fill="#FDB44C" d="m3994.5 2611.3 159.78 84.989c256.1 109.92 512.2 158.1 768.3 78.19-116.26-113.32-86.37-226.64-13.598-339.96 26.35 80.165 58.831 146.02 112.19 163.18 100.71 34.945 145.37-2.1794 183.58-47.594l81.589-132.58-44.194-78.19c98.78-175.04 180.12-358.01 180.18-577.92 17.691-221.91-55.142-432.5-105.39-645.91l-724.2-278.8-951.9 64.59 37.395 788.7-294.96 563.89c-30.155 113.89-96.934 177.85-197.6 195.59z"/><path id="path3838" d="m5072.1 2602.8c-31.054 69.094-86.262 116.72-158.08 149.58" stroke="#b9dce6" stroke-width="34" fill="none"/><path id="path3840" fill="#b9dce6" d="m4859.7 2541.6c31.418 31.077 56.359 64.314 78.19 98.587-27.667-17.078-60.331-39.601-84.989-56.093z"/><path id="path3828" d="m3682.7 1664.9c-114.25 238.37-222.16 475.92-375 709.13-61.085 93.207-263.16 33.06-313.67-75.273" stroke="#EF5E0F" stroke-width="59" fill="none"/><path id="path3830" fill="#EF5E0F" d="m5039 2212.9c0.2184 44.062 65.021 134.49 167.66 151.66 46.146 7.7195 55.602 46.753 46.969 62.562-28.639 52.447-62.622 106.81-103.56 129.78-47.1 26.43-100.01 37.839-138.97 11.611-38.959-26.228-70.255-75.534-80.12-120.5l-17.344-79.062-37.594 71.688c-49.677 94.729-75.226 214.77 7.2476 320.93-92.528 25.407-237.38 26.011-371.78 4.125-155.64-25.344-398.06-96.819-488.53-138.71 72.709 77.097 316.8 170.53 479.06 196.96 162.26 26.422 315.55 24.177 426.94-21.656l42.312-17.406-33.312-31.375c-54.668-51.436-71.914-99.563-70.188-153.59 1.1341-35.502 11.839-74.158 28.938-115.5 22.107 52.024 53.585 92.616 92.219 118.62 55.463 37.34 126.38 41.012 190 5.3125 61.37-34.438 97.194-99.326 126.47-152.94 31.405-57.511-10.06-135.85-89.031-149.06-90.684-15.17-152.35-59.376-177.37-93.439z"/><path id="path3836" fill="#EF5E0F" d="m5042.1 2388.5c6.1564 41.438 32.713 52.706 91.346 42.067-60.436 55.108-122.95 25.912-91.346-42.067z"/></g><g transform="translate(-59.457 625.18)"><path id="path3857" fill="#FDB44C" d="m3091.3 2578.4-2.4039-362.98c-17.844-215.05-96.361-411.43-197.12-600.96-61.161-52.168-135.89-149.99-129.81 24.038l2.4039 230.77-182.69-307.69c-63.015-57.606-126.42-116.98-139.42 50.481 35.041 239.54 121.42 440.59 233.17 622.6-130.04-37.308-154.97 25.491-151.44 115.38 70.848 138.9 180.57 216.71 295.67 286.06z"/><path id="path3845" fill="#EF5E0F" d="m2498.9 1474c-4.0015-0.1-8.0712 0.1082-12.219 0.6875-16.59 2.3173-32.414 12.365-42.438 25.969-10.023 13.604-15.576 29.986-18.75 49.031-6.3482 38.091-3.1914 88.388 10.219 156.22 32.825 166.03 108.47 330.42 191.75 493.03-35.473-2.1872-66.858 6.0771-90.656 25.844-37.501 31.148-46.946 86.094-28.938 143.72 46.513 148.84 229.05 255.81 328.59 271.31-90.364-56.614-233.07-163.45-272.28-288.91-13.52-43.26-5.4008-67.668 10.312-80.719s48.301-19.384 97.781-1.6875l70.906 25.344-34.813-66.781c-93.698-179.71-180.37-358.53-214.78-532.59-12.62-63.836-14.22-109.21-9.9062-135.09 2.1569-12.942 5.7855-20.628 8.0624-23.719 2.277-3.0902 1.8841-2.3622 3.0938-2.5312 2.4193-0.3379 19.306 3.9643 40.594 23.75 21.287 19.786 46.247 51.894 70.25 93.469 75.075 130.03 107.33 231.48 161.53 360.44l80.812 192.31-24.344-207.19c-14.225-121.1-32.034-221.35-37.625-339.31-1.7483-36.885 0.5855-64.335 4.7812-80.313 2.6848-10.224 5.0284-13.628 5.875-14.781 1.6903 0.5474 7.0868 2.1612 16.562 9.9062 13.514 11.046 31.825 31.732 52.188 61.281 165.75 240.54 228.82 586.24 227.15 924.83 56.019-332.08 1.8623-696.48-178.56-958.3-22.285-32.34-42.872-56.665-63.469-73.5-20.596-16.835-44.247-28.863-70.188-21.531-25.941 7.3318-39.866 31.356-46.625 57.094-6.7586 25.738-8.5719 57.676-6.6563 98.094 2.0155 42.524 5.591 82.526 9.9063 121.72-22.054-50.669-47.034-102.72-80.25-160.25-26.206-45.39-53.693-81.632-81.188-107.19-24.058-22.361-48.677-38.957-76.688-39.656z"/><path id="path3851" fill="#EF5E0F" d="m2879.2 2116.5c-13.177 0.2563-26.379 3.2459-38.906 9.625-30.798 15.682-54.112 45.17-63.556 75.45-9.4436 30.28-5.8894 69.301-2.4068 103.17 5.06 49.206 15.696 90.934 31.3 136.7-9.9683-0.6897-19.398-0.4773-28.406 0.75-23.453 3.1951-39.065 22.98-44.137 44.555-5.2833 22.474 12.44 111.67 67.288 135.46-7.9136-18.945-15.618-53.689-18.637-80.763-10.908-52.292 31.541-41.318 61.455-33.186l56.219 15.281-20.938-54.375c-20.57-53.419-39.517-112.69-45.457-170.45-2.9697-28.88-1.6147-54.72 4.2813-73.625 5.8959-18.905 14.613-30.565 30.625-38.719 13.403-6.8246 24.665-5.4989 43.625 6.25s41.379 35.057 62.312 64.75c41.867 59.385 90.589 102.75 121.69 254.75-0.1532-158.09-26.017-221.49-73.436-288.75-23.709-33.63-50.45-70.027-80.35-88.555-18.687-11.58-40.601-18.74-62.562-18.312z"/></g><g transform="translate(-59.457 625.18)"><path id="path3911" clip-path="url(#clipPath3950)" fill="#fff" d="m5068.7 1594.8c171.11-93.048 298.03-95.042 469.14 20.397l-210.77 775.1c-126.7 39.749-205.32 28.177-322.96-67.991z"/><path id="path3905" clip-path="url(#clipPath3934)" fill="#fff" d="m4259.6 2587.5c305.18-13.397 453.44-195.78 523.53-462.34 31.063-374.27-173.72-554.31-448.74-676.51-419.19 111.81-495.81 345.97-540.53 591.52 51.268 274.95 175.8 484.72 465.74 547.33z"/><path id="path3895" style="color:#000000" d="m4824.5 2140.9c0 237.64-145.83 430.29-325.72 430.29s-325.72-192.65-325.72-430.29 145.83-430.29 325.72-430.29 325.72 192.65 325.72 430.29z" clip-path="url(#clipPath3930)" transform="matrix(1.0258 0 0 .98883 -124.62 21.516)" fill="url(#linearGradient4042)"/><path id="path3897" style="color:#000000" d="m5252.4 2119.2c0 216.4-73.184 391.83-163.46 391.83-90.277 0-163.46-175.43-163.46-391.83s73.184-391.83 163.46-391.83c90.277 0 163.46 175.43 163.46 391.83z" clip-path="url(#clipPath3946)" transform="matrix(1.029 .16397 -.17103 .98647 359.08 -877.86)" fill="url(#linearGradient4044)"/><path id="path3954" clip-path="url(#clipPath3999)" fill="#E5C9E5" d="m4300.4 2335.9-105.39 49.294-30.596-73.09 110.49-37.395z"/><path id="path3956" clip-path="url(#clipPath3995)" fill="#BF9AC9" d="m4273.2 2279.8-107.09 39.095-28.896-135.98 110.49-22.097z"/><path id="path3958" clip-path="url(#clipPath4032)" fill="#BF9AC9" d="m5050 2064.3 73.09-13.925-3.3995 98.587-65.441 19.316z"/><path id="path3960" clip-path="url(#clipPath4028)" fill="#E5C9E5" d="m5054.3 2161.4 56.942-15.917 1.6998 41.644-50.641 15.71z"/><path id="path3899" style="color:#000000" d="m4836.5 2210.6c0 192.5-129.15 348.56-288.46 348.56s-288.46-156.05-288.46-348.56c0-192.5 129.15-348.56 288.46-348.56s288.46 156.05 288.46 348.56z" clip-path="url(#clipPath3926)" transform="translate(-28.846 -67.308)"/><path id="path3907" style="color:#000000" d="m4720.3 2205c0 37.55-22.07 67.991-49.294 67.991s-49.294-30.441-49.294-67.991 22.069-67.991 49.294-67.991c27.224 0 49.294 30.441 49.294 67.991z" clip-path="url(#clipPath3922)" transform="matrix(1.0226 -.32756 .35452 .94483 -886.36 1651.7)" fill="#fff"/><path id="path3962" style="color:#000000" d="m4569.7 2088c0 136.74-70.494 247.6-157.45 247.6-86.958 0-157.45-110.85-157.45-247.6 0-136.74 70.494-247.6 157.45-247.6 86.958 0 157.45 110.85 157.45 247.6z" transform="matrix(.84965 .55722 -.55722 .84965 1842.1 -2217.6)" fill="#fff"/><path id="path3964" style="color:#000000" d="m4532.5 2274.3c0 19.914-12.646 36.058-28.245 36.058s-28.245-16.144-28.245-36.058 12.646-36.058 28.245-36.058 28.245 16.144 28.245 36.058z" transform="matrix(.96331 -.26840 .26840 .96331 -437.94 1298.4)" fill="#fff"/><path id="path3901" style="color:#000000" d="m5466.3 2113.2c0 189.18-61.346 342.55-137.02 342.55s-137.02-153.36-137.02-342.55c0-189.18 61.346-342.55 137.02-342.55s137.02 153.36 137.02 342.55z" clip-path="url(#clipPath3942)" transform="matrix(.98479 .17376 -.17376 .98479 368.94 -953.98)"/><path id="path3909" style="color:#000000" d="m5376.4 2052.9c0 26.755-12.176 48.444-27.196 48.444s-27.196-21.689-27.196-48.444 12.176-48.444 27.196-48.444 27.196 21.689 27.196 48.444z" clip-path="url(#clipPath3938)" transform="matrix(.99451 -.10462 .10462 .99451 -180.31 577.68)" fill="#fff"/><path id="path3966" style="color:#000000" d="m5298.1 2127.6c0 17.923-9.6861 32.452-21.635 32.452-11.948 0-21.635-14.529-21.635-32.452s9.6861-32.452 21.635-32.452c11.948 0 21.635 14.529 21.635 32.452z" transform="matrix(.98856 -.15080 .15080 .98856 -259.3 814)" fill="#fff"/><path id="path3968" style="color:#000000" d="m5388.2 1937.1c0 103.22-44.933 186.9-100.36 186.9-55.428 0-100.36-83.678-100.36-186.9s44.933-186.9 100.36-186.9c55.428 0 100.36 83.678 100.36 186.9z" transform="matrix(.89822 .35004 -.33733 .95770 1158.3 -1812.3)" fill="#fff"/></g><g transform="translate(-59.457 625.18)"><path id="path4081" d="m5317.3 1188.9c185.09 439.27 114.55 842.76-72.115 1156.2" stroke="#EF5E0F" stroke-width="44" fill="none"/><path id="path4047" d="m4709.1 2121.6c35.257-204.47-58.078-499.27-360.58-545.67-212.62-32.618-376.83 98.326-447.12 266.83" stroke="#000" stroke-width="34" fill="none"/><path id="path4049" d="m3917.1 1848.9c-48.644 10.131-138.31 7.1779-167.43-58.642 60.221 46.365 119.97 31.536 173.38 5.0994z"/><path id="path4051" d="m3883.1 1548.9c5.2437 86.304 58.762 123.84 121.53 136.83l-33.996 41.644c-60.792-21.019-110.5-97.158-87.538-178.48z"/><path id="path4053" d="m4045.5 1463.1c3.9004 54.39 18.533 111.15 69.691 142.78l-41.644 21.247c-53.16-47.61-45.768-107.81-28.046-164.03z"/><path id="path4073" d="m5403.6 1739.3c-16.177-178.7-116.48-182.48-190.37-96.887-177.47 205.56-160.27 484.11-125.68 619.53-75.395-121.03-71.953-443.43 105.28-643.32 91.265-102.93 238.24-86.477 210.77 120.68z"/><path id="path4075" d="m5371.3 1592.2c70.444-16.056 101.76-81.027 127.48-152.98 2.0471 81.599-28.946 169.26-109.64 198.02z"/><path id="path4077" d="m5399.3 1686.6c71.226 12.086 128.02-12.648 175.08-68.841-23.118 77.879-96.904 123.96-169.98 120.68z"/><path id="path4079" mask="url(#mask4119)" d="m5379.8 1771.9c43.691 54.179 95.554 67.501 152.04 57.692-44.891 27.468-103.49 34.357-150.84-1.2019z"/><path id="path3830-1" fill="#EF5E0F" d="m5039 2212.9c0.2184 44.062 65.021 134.49 167.66 151.66 46.146 7.7195 55.602 46.753 46.969 62.562l51.781 28.281c31.405-57.511-10.06-135.85-89.031-149.06-90.684-15.17-152.35-59.376-177.37-93.439z"/></g><g stroke="#B10772" transform="translate(-59.457 625.18)"><path id="path4124" d="m3701.9 979.81c495.62 9.2456 931.56 275.24 1173.1 564.9-14.611-190.82-90.559-361.95-199.52-512.02 319.45 200.75 666.32 310.07 1014.4 69.712 248.74-171.75 346.35-556.29-7.2116-680.29 103.94 145.07 164.67 356.37-76.923 312.5-159.37-28.939-305.26-135.74-437.5-250-251.76-217.54-731.55-211.37-1024 4.8077 67.162-132.28 154.04-259.96 290.87-360.58-356.29 20.168-751.41 223.4-877.4 490.38z" stroke-miterlimit="9" stroke-width="59" fill="#B44E93"/><path id="path4126" d="m3605.8 696.15c359.12-167.34 782.7-130.36 1096.2 24.038 344.64 169.77 675.38 442.08 1086.5 293.27" stroke-width="34" fill="none"/></g><g transform="translate(-59.457 625.18)"><path id="path4137" fill="#FDB44C" d="m3721.2 1777.9 79.3-740.4c-34.328-167.55-76.942-329.58-168.27-459.13-69.374-49.013-136.54-51.648-199.52 33.654-137.28 193.52-177.56 397.83-141.83 610.58 46.363 164.71 219.26 436.66 430.29 555.29z"/><path id="path4129" fill="#EF5E0F" d="m3548.2 511.84c-9.0265-0.0608-17.93 0.93822-26.625 2.9375-46.375 10.663-83.243 44.382-111.84 83.531-161.07 220.47-191.32 465.74-134.28 681.11 56.262 212.45 250.35 415.04 413.53 477.26-120.47-89.223-305.23-295.36-357.36-493.19-52.303-198.49-24.33-424.91 125.77-630.37 23.475-32.134 52.183-55.044 77.406-60.844 25.223-5.7994 50.29-0.42441 83.688 38.781 100.13 117.54 147.83 312.56 179.57 424.72 10.105-113.8-20.491-328.95-134.66-462.97-34.837-40.896-76.073-60.705-115.19-60.969z"/><path id="path4135" fill="#EF5E0F" d="m3421.3 806.73c-1.9672 206.21 68.679 362.82 141.24 471.15-118.85-81.666-200.59-250.82-141.24-471.15z"/></g></svg>