<?xml version="1.0" encoding="UTF-8"?><svg xmlns="http://www.w3.org/2000/svg" xmlns:xlink="http://www.w3.org/1999/xlink" version="1.1" viewBox="0 0 413.23709 413.23187"><defs id="defs2998"><linearGradient id="linearGradient3922"><stop id="stop3924" stop-color="#005e78" offset="0"/><stop id="stop3926" stop-color="#45737c" offset=".39061"/><stop id="stop3928" stop-color="#8de4e8" offset="1"/></linearGradient><linearGradient id="linearGradient4672"><stop id="stop4674" stop-color="#345863" offset="0"/><stop id="stop4680" stop-color="#45737c" offset=".39061"/><stop id="stop4676" stop-color="#8de4e8" offset="1"/></linearGradient><linearGradient id="linearGradient4678" y2="347.55" xlink:href="#linearGradient3922" gradientUnits="userSpaceOnUse" y1="320.3" x2="831.78" x1="819.76"/><clipPath id="clipPath4688" clipPathUnits="userSpaceOnUse"><path id="path4690" fill="url(#linearGradient4692)" d="m826.62 352.11s14.149-5.2287 12.375-19.75c-2.0852-17.072-18.875-17.375-18.875-17.375l-16.12 22.63z"/></clipPath><linearGradient id="linearGradient4692" y2="347.55" xlink:href="#linearGradient4672" gradientUnits="userSpaceOnUse" y1="320.3" x2="831.78" x1="819.76"/><clipPath id="clipPath4694" clipPathUnits="userSpaceOnUse"><path id="path4696" fill="url(#linearGradient4692)" d="m826.62 352.11s14.149-5.2287 12.375-19.75c-2.0852-17.072-18.875-17.375-18.875-17.375l-16.12 22.63z"/></clipPath><clipPath id="clipPath4716" clipPathUnits="userSpaceOnUse"><path id="path4718" fill="#eefbfb" d="m777.69 337.67s-3.3506-6.6046-3.4375-10.188c-0.0998-4.1139 0.36925-9.0644 3.375-11.875 2.38-2.2255 8.1601-2.7407 11.33-2.852 1.3062-0.0458 1.6392 0.55147 1.6392 0.55147l-0.35 11.77z"/></clipPath><clipPath id="clipPath4724" clipPathUnits="userSpaceOnUse"><path id="path4726" fill="#eefbfb" d="m777.69 337.67s-3.3506-6.6046-3.4375-10.188c-0.0998-4.1139 0.36925-9.0644 3.375-11.875 2.38-2.2255 8.1601-2.7407 11.33-2.852 1.3062-0.0458 1.6392 0.55147 1.6392 0.55147l-0.35 11.77z"/></clipPath><linearGradient id="linearGradient4736" y2="333.96" xlink:href="#linearGradient3922" gradientUnits="userSpaceOnUse" y1="316.02" x2="780.53" x1="779.49"/></defs><g transform="translate(-696.69 -252.46)"><path id="path3876" d="m803.62 581.86s12.158 5.5319 10.875 8.5c-4 9.2544-20.574 28.888-46.75 33.625-6.9873 1.2645-16.079-18.868-17.643-28.46-0.16634-1.0202 1.697-10.583 1.7125-11.327" stroke="#363960" stroke-width="3" fill="#4b4f84"/><path id="path3886" fill="#e7e7e7" d="m772 511.74 6.125-2.625 7.875 1.25 7 0.125 6.875 0.125 7.875-0.5 19-0.375 16.125 20.375-7.375 8-7.625 5-10.375 4.5-24.75-1.625 1.625 8.125 11.875 22.375 7.5 11.625-3.625 1.5-8.5-5.875-1.875 7.875-3.875 3.125-14.875-11 0.375 10.125-1.375 5.625-6-5.125-7.625-10.5-1.25 9.375-3.625 9.25-6.125 5.25-3.5-0.75-3.375-10.25-2.125-19.75 2.875-22.5 3.375-18.625 6-13 5.5-8.125 5.25-3z"/><path id="path3878" fill="#93929E" d="m787.28 508.03c-7.2665-0.15246-15.732 0.23244-21.219 3.125-3.6646 1.9318-6.7367 6.1601-9.4688 11.781-2.7321 5.6211-5.0778 12.688-6.9062 20.406-3.657 15.437-5.1901 33.473-3.0312 47.625 0.59811 3.9209 1.1612 9.0106 2.5 12.812 0.6694 1.901 1.4753 3.5718 3 4.5625 1.5247 0.99069 3.6783 0.78002 5.5625-0.5 5.5685-3.783 7.8819-10.347 8.9062-15.844 0.37748-2.0254 0.46156-3.6515 0.5625-5.25 1.1261 1.813 1.5804 2.7106 3.4375 5.3438 1.6252 2.3044 3.3832 4.6002 5 6.2812 0.80838 0.84051 1.5643 1.5314 2.375 2.0312 0.81074 0.49982 1.8244 0.91623 2.9375 0.46875 1.0855-0.43641 1.3321-1.296 1.5312-2.0312 0.19914-0.73527 0.29344-1.5699 0.34375-2.5 0.10061-1.8603 0.003-4.1335-0.15625-6.375-0.14001-1.9716-0.23186-2.3161-0.40625-3.875 1.06 1.2314 2.1366 2.5068 3.5 3.875 1.8431 1.8496 3.8457 3.6243 5.8438 4.8438s4.2029 2.0452 6.2188 1c3.0522-1.5824 3.9474-5.1668 4.3125-8.0938 0.10371-0.83146 0.006-0.83831 0.0312-1.5625 0.69627 0.71767 1.326 1.4156 2.2188 2.125 1.4001 1.1124 3.0029 2.1165 4.8125 2.5 1.8096 0.38352 3.9183-0.0198 5.5-1.5938 0.35646-0.35471 0.50966-0.86703 0.53125-1.2188 0.0216-0.35172-0.0554-0.60299-0.125-0.84375-0.13928-0.48151-0.35501-0.89811-0.625-1.375-0.53998-0.95377-1.3202-2.116-2.3125-3.5312-1.9846-2.8306-4.7455-6.6388-7.5312-11.125-4.1739-6.7217-8.3796-14.932-10.094-23.5 0.76463 0.10952 3.5608 0.53083 7.9375 0.90625 4.9288 0.42277 10.728 0.70808 14.688-0.0312 3.3054-0.61726 7.4408-2.5196 10.875-4.25s6.0938-3.3125 6.0938-3.3125l0.15625-0.0937 0.15625-0.125 9.875-9.625 0.96875-0.9375-0.875-1.0625-16.375-20.375-0.46875-0.59375-0.75 0.0312-26.25 0.875s-0.0617 0.0001-0.0625 0c-0.094-0.0126-6.0096-0.8175-13.219-0.96875zm-0.0625 3c7.078 0.1485 12.969 0.9375 12.969 0.9375l0.125 0.0312h0.125l25.75-0.84375 15.031 18.688-8.7812 8.5625c-0.15422 0.0911-2.549 1.4963-5.7812 3.125-3.3354 1.6806-7.4458 3.4801-10.062 3.9688-3.2591 0.60863-9.0459 0.41422-13.875 0-4.761-0.40838-8.5162-0.984-8.625-1-0.23368-1.8581-0.38976-3.7291-0.34375-5.5938 0.0446-1.8066-0.19848-4.6758 0.18655-8.1699-1.7162 1.6937-3.117 5.7622-3.1866 8.0762-0.37802 12.569 5.6066 24.686 11.312 33.875 2.8529 4.5944 5.6657 8.4556 7.625 11.25 0.97963 1.3972 1.7632 2.5318 2.1875 3.2812 0.0612 0.10807 0.0481 0.12822 0.0937 0.21875-0.67393 0.44343-1.3267 0.58207-2.1562 0.40625-1.0738-0.22759-2.3696-0.9585-3.5625-1.9062-2.3857-1.8955-4.2812-4.4688-4.2812-4.4688l-3.2187-4.3438 0.5 5.375s0.22432 2.325-0.0937 4.875c-0.31807 2.55-1.2535 5.0216-2.7188 5.7812-0.48723 0.25262-1.6459 0.0919-3.2812-0.90625-1.6353-0.99811-3.5314-2.6502-5.2812-4.4062-3.4998-3.5121-6.4375-7.375-6.4375-7.375l-3.4688-4.625 0.78125 5.7188s0.59717 4.2726 0.90625 8.625c0.15454 2.1762 0.24405 4.3767 0.15625 6-0.0395 0.73015-0.1282 1.2941-0.21875 1.6875-0.0437-0.0226 0.024 0.003-0.0312-0.0312-0.44189-0.27242-1.0727-0.82574-1.7812-1.5625-1.4172-1.4735-3.108-3.6667-4.6875-5.9062-3.159-4.4792-5.9375-9.1562-5.9375-9.1562l-3.1562-5.375 0.375 6.25s0.2632 4.2429-0.6875 9.3438-3.1251 10.859-7.6562 13.938c-1.3042 0.88599-1.694 0.77846-2.2188 0.4375-0.52475-0.34096-1.2739-1.413-1.8438-3.0312-1.1397-3.2365-1.7637-8.2739-2.375-12.281-2.0683-13.559-0.54798-31.36 3.0312-46.469 1.7896-7.5543 4.092-14.441 6.6875-19.781 2.5955-5.3402 5.5235-9.0661 8.125-10.438 4.3845-2.3113 12.703-2.9298 19.781-2.7812z"/></g><g transform="translate(-696.69 -252.46)" stroke-width="3"><path id="path3891" d="m950.75 623.86s2.006 9.7196 0 10.625c-14.796 6.6782-38.063 16.086-51.125 7.875-6.8977-4.3357 0.75-31.5 0.75-31.5l28.75-18.625 20.75 16.625z" stroke="#363960" fill="#4B4F84"/><path id="path3889" d="m931.25 517.42s16.374-1.2572 19.562 1.5455c5.3816 4.73 1.0318 18.222 1.5625 86.125 0.057 7.2982 0.30139 20.721-2.4654 20.793-2.0694 0.0542-3.0936-7.8666-3.0936-7.8666s-4.8655 7.3244-6.4524 8.3969c-4.8394 3.2707-5.7452-16.529-5.7452-16.529s-5.0455 14.671-8.1317 16.263c-6.119 3.1565-3.182-22.185-3.182-22.185s-15.072 23.05-20.055 19.644c-6.0239-4.117-0.40758-30.858 4.75-42.704 11.524-26.472 2.8536-50.556 2.8536-50.556" stroke="#93929E" stroke-miterlimit="6" fill="#e7e7e7"/></g><g transform="translate(-696.69 -252.46)"><path id="path3944" fill="#fff" d="m818.25 404.36-3.8125 7.4375-5.5625 14.375-6.4856 21.258-5.4801 26.87-0.17678 17.324 4.4194 19.799 7.0711 12.198 10.783 9.1924 15.026 7.0711 17.854 3.182 50.205-5.6568 16.971-8.1317 13.258-9.1924 8.6621-13.435 3.7123-14.496-10.076-36.946-12.198-17.324-26.87 0.35355-23.688-9.5459 10.253-38.891-10.96-5.1265-36.239 13.612z"/><path id="path3942" d="m941.75 503.61s-8.9262 36.046-73.25 39c-122.55 5.628-50.75-138-50.75-138" stroke="#a49fb3" stroke-width="3" fill="none"/></g><g transform="translate(-696.69 -252.46)"><path id="path3820" d="m854.24 620.14c-14.498 19.846-15.231 34.598-11.914 36.685 12.85 8.0874 40.488 12.023 64.286-1.6072 1.8745-1.0737-0.17857-8.75-0.17857-8.75" stroke="#363960" stroke-width="3" fill="#535790"/><path id="path3873" fill="#fff" d="m851 530.24 6.25 16.625 2.25 16.875 1.75 16.75 0.375 12.875-3.75 10-6.5 14.375-3.125 5.875-3.375 7.5-1.25 4.875 3.125 3.375 10.625-0.125 10.5-4 6.75-4.875-0.5 9.625 1 6.875 5-4.75 7-9.25 1.375 11.5 1.625 6.625 4.125 0.125 6.625-7.25 2.75 9.5 5 2 3-5.25-0.75-11.25-2-17.5-2.5-23.25-4.125-19-2.875-12.875-0.75-18.375 3.125-17.375z"/><path id="path4107" d="m857.48 542.11c-0.46489-2.1856-5.2083-9.4484-9.3972-23.998 0.53587 13.799 6.0543 22.651 6.4285 24.591 0 0 2.1057 8.093 3.5174 18.3s2.5965 22.51 1.875 30.469c-0.70064 7.7281-6.4193 18.808-11.188 28.156-2.3841 4.674-4.525 8.9201-5.6562 12.344-0.56561 1.7118-0.89215 3.2155-0.78125 4.625s0.96805 2.8717 2.375 3.4062c8.1185 3.0847 16.353 0.37348 22.438-2.9688 2.8199-1.5489 5.079-3.2066 6.8438-4.5938-0.38233 1.7193-0.60372 2.3486-0.96875 4.8125-0.34475 2.327-0.59518 4.7124-0.5 6.7188 0.0476 1.0032 0.15728 1.9131 0.46875 2.75 0.31147 0.83692 0.9258 1.7154 1.9375 2.0625 0.62397 0.21408 1.152 0.0642 1.5312-0.0937 0.37924-0.15792 0.66871-0.35949 0.96875-0.59375 0.60008-0.46852 1.2001-1.0817 1.8438-1.8125 1.2873-1.4615 2.7392-3.3865 4.125-5.3438 1.3921-1.9661 1.6841-2.4816 2.6562-3.9688 0.074 1.6456 0.13786 3.3812 0.375 5.3125 0.30971 2.5224 0.78785 5.0604 1.625 7.0938 0.41858 1.0167 0.91435 1.9047 1.6562 2.625 0.7419 0.72026 1.8353 1.2446 2.9688 1.1562 1.4382-0.11209 2.5349-0.94221 3.5938-1.875 1.0588-0.93279 2.0643-2.0649 2.9375-3.1875 0.59154-0.76047 0.57672-0.83529 1.0312-1.5 0.22375 1.1478 0.17255 1.4213 0.625 2.9062 0.49913 1.6381 1.1322 3.3247 2.0312 4.75 0.89902 1.4253 2.1098 2.7228 3.875 3 1.5037 0.23616 3.0235-0.37983 3.9375-1.4688 0.91403-1.0889 1.4238-2.5041 1.75-4.1562 0.65244-3.3043 0.59009-7.7134 0.25-12.625-0.68019-9.8232-2.6127-21.648-3.375-29.281-1.4941-14.962-4.3463-25.171-6.4688-34.812-2.1225-9.6413-3.56-18.711-2.3125-31.75 0.28246-2.9522 2.2658-12.593 5.0934-19.268-6.3448 7.0233-7.774 15.924-8.0934 18.987-1.3949 13.375 0.2275 22.901 2.375 32.656s4.9361 19.747 6.4062 34.469c0.78151 7.8258 2.7106 19.624 3.375 29.219 0.33218 4.7973 0.32604 9.0534-0.21875 11.812-0.2724 1.3796-0.68307 2.3605-1.0625 2.8125-0.37943 0.45203-0.55124 0.53743-1.1875 0.4375-0.49696-0.078-1.149-0.57301-1.8125-1.625-0.66353-1.052-1.2656-2.5439-1.7188-4.0312-0.90636-2.9746-1.2812-5.9062-1.2812-5.9062l-0.5625-4.3438-2.2188 3.75s-1.2069 2.0609-2.8125 4.125c-0.80278 1.032-1.6998 2.0487-2.5312 2.7812-0.8315 0.73252-1.6243 1.1055-1.875 1.125-0.24006 0.0187-0.33372 0.002-0.625-0.28125-0.29128-0.28279-0.67758-0.87312-1-1.6562-0.64485-1.5663-1.1135-3.9283-1.4062-6.3125-0.58548-4.7684-0.5-9.6562-0.5-9.6562l0.0937-5.375-2.875 4.5625s-2.4481 3.9252-5.1562 7.75c-1.3541 1.9124-2.7849 3.8164-3.9375 5.125-0.5003 0.56803-0.91814 0.93562-1.25 1.2188-0.1211-0.37795-0.21434-0.96697-0.25-1.7188-0.0779-1.6413 0.13898-3.8991 0.46875-6.125 0.65954-4.4518 1.75-8.7812 1.75-8.7812l1.3438-5.25-3.8438 3.8125s-3.8779 3.815-9.5625 6.9375-12.975 5.4149-19.906 2.7812c-0.37765-0.14349-0.41462-0.12454-0.46875-0.8125-0.0541-0.68796 0.15287-1.9453 0.65625-3.4688 1.0068-3.047 3.0922-7.2469 5.4688-11.906 4.7532-9.3186 10.726-20.371 11.531-29.25 0.77255-8.5212-0.47689-20.861-1.9062-31.156-0.8608-6.2001-2.215-12.364-3.5173-18.487z" fill="#a49fb3"/></g><g transform="translate(-696.69 -252.46)"><path id="path3924" fill="#375193" d="m970.86 447.79 0.35355-9.0156 3.7123-10.783 7.0711-11.667 8.6621-7.3362 14.584-5.8336 11.667-1.591 7.7782-0.26516 13.435 3.3588 13.347 5.922 11.579 8.8388-7.4247 1.0607 7.1595 9.8995 4.9497 6.7175 2.2097 6.6291-7.3362-3.8007-3.5355-0.7071 6.0104 15.026 4.0659 12.021 1.2374 12.728-0.2652 13.7-5.3033 14.584-6.9827 10.253-13.435 20.86-16.087 37.212-4.1542 14.231-6.364-13.523-6.1872-17.854-6.1871-17.678-2.2981-8.0433 0.2651-14.407 0.7955-15.468 0.9723-15.38-0.3536-14.319-1.6793-7.955-1.9446-8.3969-3.182-5.1265-3.182-2.74-3.6239-1.0607-3.7123 0.97228-8.0433 5.3917z"/><path id="path3922" fill="#5FCCDB" d="m971.03 443.72s21.937-41.979 56.392-29.168c39.401 14.65 32.527 100.06 32.527 100.06l-7.4247 12.021-7.7781 10.96-7.955 16.971-7.7782 18.915s-4.3948-45.821 1.9446-64.347c5.5486-16.214 17.464-66.224-2.6517-81.671-27.959-21.469-55.508 21.39-55.508 21.39z"/><path id="path3920" fill="#27346F" d="m970.68 450.26s29.16-24.932 42.957-17.854c27.014 13.858-0.1768 127.99-0.1768 127.99l-5.1266-15.38s17.793-78.643 3.5356-100.06c-9.5792-14.387-34.648 5.8336-34.648 5.8336z"/><path id="path3894" d="m971.25 448.36s-3.6326-42.374 44-46.5c28.787-2.4934 49 18.5 49 18.5-4.5667-0.4837-7.8358-0.41414-10.5 0.21967 6.797 6.6586 15.199 13.373 15.735 23.737-4.2241-2.9359-6.5736-4.476-11.235-5.2071 0 0 13.891 21.471 12.25 47.5-1.6005 25.393-21.197 37.813-30.25 60.25-4.5564 11.293-8.8468 16.404-16.298 45.72l-20.2-57.72c-3.3546-23.57 9.72-81.44-11.25-86.5-4.566-1.1018-12.75 6-12.75 6z" stroke="#131D31" stroke-width="3" fill="none"/></g><g transform="translate(-696.69 -252.46)"><path id="path3939" d="m1039 635.11s3.8326 7.6404 1.125 9.75c-16.345 12.734-45.164 14.7-62.875 3.125-2.5938-1.6952-1.25-23.125-1.25-23.125l15.125-20.25 25.25-0.375z" stroke="#363960" stroke-width="3" fill="#535790"/><path id="path3937" fill="#fff" d="m927.06 494.49 7.1875 5.6875 14.25 13 10 11.5 7.6875 11.312 8.1875 14 4.5 14 1.5 9 1 20.875-1.5625 7.9375-2.3125 14.312-1.6875 8.875 3.4375 4s6.625 1.6875 6.875 1.625 5.9375-1 5.9375-1l5.875-4.3125 5.5625-6.1875 3 7.0625 4.1875 7.4375 4.5625 2.625 2-3.5625 0.8125-7.5 8.125 9.5 4.1875 3.25 2.875-5.5 4.1875 4.25 2.1875-0.9375-1.375-5.8125-2.75-8.875-2.875-9.3125-5.5625-20.5-19.188-57-5-5.125-9.875-1.75h-4l-0.75-7.625 1.875-15.75 0.125-20.5-3.25-19.5-7.5-12.75-10-6.125-13.25-4.25-20.25-2.375-18-0.5z"/><path id="path4117" fill="#a49fb3" d="m894.18 435.97 0.0625 3s36.099 0.2161 49.854 1.9366 29.105 5.678 35.5 13.188c7.4194 8.7119 9.4622 27.029 9.3125 43.094-0.14972 16.065-2.25 29.812-2.25 29.812l-0.28125 1.75h1.7812s2.0503-0.0298 4.5625 0.0625 5.5302 0.33797 7 0.75c4.3312 1.2141 5.5094 3.1254 6.9062 6.5 11.112 26.846 23.267 68.058 28.656 90.406 0.4748 1.9686 1.4397 4.5166 2 6.5625 0.2141 0.78141 0.2871 1.3206 0.3438 1.8125-0.041-0.0351-0.047 0.0126-0.094-0.0312-0.3994-0.37593-0.8689-1.0651-1.25-1.7812-0.7621-1.4323-1.2187-2.9688-1.2187-2.9688l-2.1563-7.375-0.7812 7.6562s-0.1178 1.2694-0.4688 2.6875c-0.3509 1.4181-1.1213 2.89-1.4374 3.125-0.157 0.11672-0.1676 0.12313-0.5 0.0312-0.3325-0.0919-0.8715-0.38189-1.5-0.90625-1.2572-1.0487-2.7878-2.8894-4.1563-4.8438-2.737-3.9087-4.9687-8.25-4.9687-8.25l-3.5626-6.9062 0.719 7.7188s0.2849 2.9996 0.1562 6.0625c-0.064 1.5315-0.2498 3.0739-0.5624 4.1562-0.3127 1.0823-0.7204 1.4294-0.75 1.4375-1.3441 0.36855-2.3227-0.15884-3.5626-1.6562-1.2398-1.4974-2.3873-3.8736-3.2812-6.375-1.7879-5.0027-2.6562-10.375-2.6562-10.375l-1.0626-6.75-1.8437 6.5625c-1.3795 4.8652-6.1224 9.821-11.375 11.938-2.6263 1.0583-5.3456 1.4035-7.8125 0.875-2.3012-0.49301-4.4288-1.8119-6.25-4.1875 0.31013-1.3089 5.6824-24.084 5.875-36.688 0.33525-21.942-7.5184-40.794-17.302-55.897-3.9571-6.1089-26.646-31.693-39.543-38.096 12.226 11.028 28.07 26.075 37.644 40.788 9.3856 14.424 16.517 32.472 16.201 53.174-0.18489 12.101-5.9688 36.812-5.9688 36.812l-0.15625 0.625 0.40625 0.5625c2.2864 3.2717 5.289 5.1625 8.4688 5.8438 3.1798 0.68124 6.4664 0.20373 9.5312-1.0312 4.5836-1.847 8.7148-5.3439 11.219-9.5 0.4483 1.9038 0.9685 4.0696 1.7812 6.3438 0.9568 2.6772 2.1748 5.3032 3.8126 7.2812 1.6377 1.978 4.0594 3.3769 6.6874 2.6562 1.6834-0.46158 2.4134-2.0099 2.8438-3.5s0.5863-3.2114 0.6562-4.875c0.012-0.28915-0.01-0.27796 0-0.5625 0.7193 1.1763 1.3463 2.2852 2.2188 3.5312 1.4456 2.0645 3.0084 4.0316 4.6562 5.4062 0.824 0.68734 1.678 1.2609 2.6563 1.5312 0.9783 0.27035 2.1914 0.13967 3.0937-0.53125 1.2005-0.89256 1.7048-2.1643 2.0938-3.4375 0.3908 0.64577 0.767 1.3323 1.3438 1.875 0.7892 0.74275 1.9464 1.3531 3.25 1.1562 0.6727-0.10161 1.3597-0.62952 1.6562-1.1875s0.3429-1.0593 0.3438-1.5625c0-1.0065-0.2219-2.0577-0.5313-3.1875-0.6189-2.2596-1.5781-4.8486-1.9687-6.4688-5.4332-22.531-17.613-63.712-28.844-90.844-1.5174-3.666-3.735-6.8179-8.8438-8.25-2.0934-0.58683-5.0905-0.7483-7.6874-0.84375-1.6572-0.0609-2.1824-0.0326-3.0312-0.0312 0.33429-2.2774 1.956-13.779 2.0938-28.562 0.15204-16.314-1.4624-35.069-10-45.094-7.5354-8.848-23.425-12.435-37.438-14.188-14.012-1.7526-50.292-1.9678-50.292-1.9678z"/><path id="path3976" d="m947.44 469.42c5.992 0.13031 11.685 0.18042 11.625-9.625 4.0243 3.4843 8.9668 10.953 15.5 4.875 7.9365 15.014 13.403 28.603 3.8125 41.75-18.386-3.9685-29.78-30.037-30.938-37z" stroke="#131D31" stroke-width="1.5" fill="#27346F"/><path id="path3979" fill="#E05C98" d="m960.06 462.36 7.625 12.688 5.9375-5.5-0.8125 10.938 6.375 8.4375-5.3125-1.375 3.3125 16.938-8.375-16.438-4.625 5.75-0.6875-11.562-8.125-7.5 7.625 0.9375z"/><path id="path3981" d="m952.56 464.92-6.6076-3.6352-6.7405 3.3823 1.4154-7.4075-5.2997-5.3654 7.4824-0.94289 3.4651-6.6983 3.2089 6.8248 7.4413 1.2256-5.4991 5.1608z" transform="matrix(.42028 -.081106 .072632 .46931 517.69 323.63)" fill="#5690CE"/><path id="path3984" d="m952.56 464.92-6.6076-3.6352-6.7405 3.3823 1.4154-7.4075-5.2997-5.3654 7.4824-0.94289 3.4651-6.6983 3.2089 6.8248 7.4413 1.2256-5.4991 5.1608z" transform="matrix(.42409 -.079105 .065980 .46949 525.07 312.91)" fill="#5690CE"/><path id="path3986" d="m952.56 464.92-6.6076-3.6352-6.7405 3.3823 1.4154-7.4075-5.2997-5.3654 7.4824-0.94289 3.4651-6.6983 3.2089 6.8248 7.4413 1.2256-5.4991 5.1608z" transform="matrix(.41834 -.075340 .067020 .47027 541.67 314.8)" fill="#5690CE"/></g><g transform="translate(-696.69 -252.46)"><path id="path4244" d="m796.38 347.2c0.35355-1.591 24.042-44.017 24.042-44.017l42.25 10.607 1.4142 25.986-16.44 24.572z" stroke="#000" stroke-width="1px" fill="#dff3f7"/><path id="path4670" fill="url(#linearGradient4678)" d="m826.62 352.11s14.149-5.2287 12.375-19.75c-2.0852-17.072-18.875-17.375-18.875-17.375l-16.12 22.63z"/><path id="path4684" fill="#c4f4f4" d="m821.66 335.71 16.97 12.432 3.7644-4.0931z" clip-path="url(#clipPath4694)"/><path id="path4682" d="m821.66 335.71 23.158 3.182-2.2981 5.6569z" fill="#6ad3ec" clip-path="url(#clipPath4688)"/><path id="path4668" d="m816.44 319.46s12.202-1.3679 14.805 12.152c2.4777 12.866-10.5 18-10.5 18l-20.5-11.5z"/></g><g transform="translate(-696.69 -252.46)"><path id="path4040" fill="#fff" d="m840.56 291.16-66.094 14.5-1.4748 11.833 0.39757 10.052c-1.9411 15.001 2.223 11.191 5.2289 10.075l-5.4016 3.9149-10.594 5.125-10.094 3.0312-0.875 4.0625 0.71875 8.125 3.875 10.438 5.5625 0.53125 11.156-0.375 23.062-6.1875 0.34375 6.375-3.0938 6.5312-7.9375 5.2188-20.156 2.5625 4.8438 10 13.719 1.75 15.812 1.5 16.781 3.9062 24.75-1.7812 47.562-9.5312 12.031-47.562-5.6562-28.812-19.469-17.844zm-5.125 24.031c10.262-0.0642 18.881 5.4622 20.188 13.531 1.4935 9.2218-7.1176 18.285-19.25 20.25-12.132 1.9649-23.194-3.9344-24.688-13.156-1.4935-9.2218 7.1176-18.285 19.25-20.25 1.5165-0.24561 3.0339-0.36583 4.5-0.375z"/><path id="path5029" fill="#375193" d="m890 303.86 5.625 4.5 6.375 9.75 6.5 15.75 1.625 12.5 0.75 21.5-2.375 18.25-2.375 16.25 1 13.25 1.875 11-6.25-3.5-1.375 11.75-3.5 10-3.875 4.5-11.5 4.875-11.25 5.75-12 13.375-0.875-15.5 1.875-11.25 6.875-13.5 2-4.875-6 2.125-15.25 16.375v-11.875l3.125-12.125 4.375-8.875 7.625-7.75 11.125-13.25 6.875-9.75 9.625-17.5-12.625 5.875 2.625-8.125 5.5-9.75 4.875-13.125v-7.875l0.5-18.25z"/><path id="path4710" d="m775 339.86c-1.7653-3.7538-3.7027-22.504 1.375-28.625" stroke="#a49fb3" stroke-width="2.5" fill="none"/><path id="path4034" fill="#fff" d="m760.67 373.63 13.612-1.2374 21.213-6.1872 0.88388 3.0052-0.61872 5.5685-2.3865 5.1265-7.8666 3.8891-10.518 2.8284-7.4246 0.0884-3.6239-6.4524z"/><path id="path4014" d="m763.81 380.01s13.863 0.57687 32.873-7.3653" stroke="#B0D8E7" stroke-width="1.5" fill="none"/><path id="path4016" d="m759.96 372.21s4.8614 11.402 8.4853 15.114" stroke="#B0D8E7" stroke-width="1.5" fill="none"/><path id="path3992" fill="#a49fb3" d="m765.69 386.78-3.1534 0.37444c0.0222 0.0408 0.13042 0.4137 0.15275 0.4547 1.8526 3.4005 4.1718 7.5824 7.0006 11.296 0.27059 0.35718 0.7083 0.58195 1.1562 0.59375 7.856 0.20623 20.311 0.30761 28.969 2.1875 8.2184 1.7845 14.963 4.0923 20.406 4.125 2.6136 0.0157 4.3569-0.11943 6.8438-0.1875 8.4739-0.23195 17.073-1.3802 21.022-6.9858-7.1885 3.8316-13.172 3.893-21.053 3.9858-2.596 0.0306-4.3374 0.20238-6.8125 0.1875-4.5578-0.0274-11.387-2.2086-19.781-4.0312-8.9503-1.9434-20.918-2.056-28.75-2.25-2.4701-3.3379-4.2343-6.5075-6-9.75z"/><path id="path3998" fill="#a49fb3" d="m797.59 364.25-1.4688 0.5c-12.964 4.5876-24.685 8.206-39.531 6.6562a1.2579 1.2579 0 1 0 -0.28125 2.5c14.761 1.541 26.652-1.8992 39.094-6.25 0.26521 3.8552-0.52354 6.8374-2.0938 9.1562-1.7798 2.6284-4.5486 4.4977-7.875 5.8438-6.6528 2.6921-15.398 3.0901-21.656 3.0625a1.2501 1.2501 0 1 0 -0.0312 2.5c6.3642 0.0281 15.356-0.30838 22.625-3.25 3.6346-1.4708 6.8904-3.6197 9.0312-6.7812 2.1408-3.1616 3.0899-7.2692 2.375-12.406l-0.19-1.53z"/><path id="path4708" fill="#dff3f7" d="m777.69 337.67s-3.3506-6.6046-3.4375-10.188c-0.0998-4.1139 0.36925-9.0644 3.375-11.875 2.38-2.2255 8.1601-2.7407 11.33-2.852 1.3062-0.0458 1.6392 0.55147 1.6392 0.55147l-0.35 11.77z"/><path id="path4720" d="m783.38 333.24s1.9537-3.4304 0.95267-12.131c-1.001-8.7001-7.0152-6.8695-7.0152-6.8695l-8.0625 12.438 4.375 11.312 5.0625 1.6875z" fill="url(#linearGradient4736)" clip-path="url(#clipPath4724)"/><path id="path4004" fill="#a49fb3" d="m772.54 339.67c-3.5374 2.2344-6.5236 3.8489-9.1665 4.889-3.0037 1.1821-5.4645 1.7784-7.5 2.2812-2.0355 0.50283-3.7226 0.86192-5.0312 2.0938-0.65245 0.61418-0.78261 1.251-0.90625 1.9375-0.12364 0.68648-0.17086 1.4419-0.15625 2.3125 0.0292 1.7412 0.29863 3.8879 0.75 6.2188 0.89455 4.6194 2.4283 9.8448 4.823 13.858 0.0219 0.0368 0.18066 0.20233 0.20274 0.23889l2.5368-1.5659c-2.1264-3.5208-3.7739-8.6988-4.625-13.094-0.42554-2.1975-0.6626-4.2042-0.6875-5.6875-0.0124-0.74163 0.0236-1.3604 0.0937-1.75 0.0702-0.38962 0.25887-0.49552 0.0312-0.28125 0.45503-0.42834 1.6874-0.88092 3.6875-1.375s4.6869-1.108 7.9062-2.375c2.9576-1.164 6.4828-2.7243 10.209-5.545 3.9778-3.0114 10.721-9.0713 13.902-15.202-8.8941 8.2725-12.562 10.83-16.069 13.045z"/><path id="path4010" fill="#a49fb3" d="m754.94 355.61s0.89716 3.5962 2.3125 3.5625c1.4467-0.0345 2.1875-3.75 2.1875-3.75-1.3802 1.1381-2.6449 2.5918-4.5 0.1875z"/><path id="path4012" fill="#a49fb3" d="m766.88 356.36s1.6691 4.4604 3.25 3.875c3.3501-1.2405 3.5-5.25 3.5-5.25-1.368 0.95711-3.921 4.7133-6.75 1.375z"/><path id="path4712" d="m776 337.61s5.753-4.7024 3.9048-12.437-7.0941-3.2816-7.0941-3.2816l-0.24816 12.344z" clip-path="url(#clipPath4716)"/><path id="path4038" d="m774.6 321.93c1.2938-5.4872 4.9826-11.109 17.451-7.966-1.708-1.2733-2.4021-4.1796-10.975-1.3196-6.6176 2.2077-6.4757 9.2856-6.4757 9.2856z"/><path id="path4702" d="m834.75 338.17c0 2.7269-2.3785 4.9375-5.3125 4.9375s-5.3125-2.2106-5.3125-4.9375 2.3785-4.9375 5.3125-4.9375 5.3125 2.2106 5.3125 4.9375z" transform="translate(0,-2)" fill="#fff"/><path id="path4704" fill="#fff" d="m825.5 330.05c0 0.86295-0.69956 1.5625-1.5625 1.5625s-1.5625-0.69955-1.5625-1.5625c0-0.86294 0.69956-1.5625 1.5625-1.5625s1.5625 0.69956 1.5625 1.5625z"/><path id="path4738" d="m783.12 327.13c0 1.2199-1.8699 2.2088-4.1766 2.2088s-4.1766-0.98889-4.1766-2.2088c0-1.2198 1.8699-2.2087 4.1766-2.2087s4.1766 0.98889 4.1766 2.2087z" fill="#fff" transform="matrix(.091172 -.99584 .99584 .091172 382.16 1073)"/><path id="path4992" fill="#fff" d="m777.19 322.67c0 0.58681-0.37776 1.0625-0.84375 1.0625s-0.84375-0.47569-0.84375-1.0625c0-0.5868 0.37776-1.0625 0.84375-1.0625s0.84375 0.4757 0.84375 1.0625z"/><path id="path4996" fill="#fff" d="m811.88 282.74 8-16.625 4.25-4.125 4.875 2.625 2.625 7.5 2.4074 6.1449 1.0607 4.1542-1.149 3.4471z"/><path id="path4994" fill="#a49fb3" d="m809.26 290.56c-1.0952-4.0159 6.6774-30.703 15.584-30.775 8.9067-0.0729 12.903 25.91 11.637 28.081-3.043-6.1408-5.8474-24.535-11.372-24.463-5.5243 0.0722-13.286 20.409-15.849 27.158z"/><path id="path5025" fill="#5FCCDB" d="m903.5 320.99c-7.5943 35.834-18.536 39.864-28.625 52l14.125-6.5-3.5 9.125-5.5 10.25-13.25 16-10.25 10.875-4.375 7.625s27.168-18.654 37.75-30.625c11.185-12.653 20.625-31.875 20.625-31.875l-0.75-15.5-3.25-14.5z"/><path id="path5027" fill="#27346F" d="m851 443.99s4.7729-13.105 8.5-16.5c5.8582-5.3363 14.848-5.4555 21.625-9.875 11.142-7.2659 26.875-29.5 26.875-29.5l-1.25 18.625 0.5 9.75 2.375 10.75-1.375-0.125-3.5-2.75-1.125-0.375-1.75 1.5s-5.9057 9.377-10 13c-5.5817 4.9392-13.285 6.9062-19.25 11.375-4.978 3.7294-13.625 12.75-13.625 12.75l0.125-6.875 1.375-8.5 3.375-6.875 5.125-11.875-3.5 1-5.375 4.625z"/><path id="path3119" transform="translate(734.48 252.46)" d="m92.746 65.219c9.634-3.509 25.164-0.995 28.264 15.925 3.91-11.439-11.8-26.054-28.264-15.925z"/></g><g transform="translate(-696.69 -252.46)"><path id="path5003" fill="#375193" d="m790.9 309.72-8.7656 0.58394-8.0282 2.4213-9.0156 3.3588-5.3033 2.4749 1.0607-4.9497 4.9498-11.667 6.7175-6.5407 6.7175-5.3033 10.43-4.9497 12.374-3.7123 12.551-1.2374 11.314-0.35355 13.435 1.4142 8.4853 1.7678 7.2478 2.1213 7.0711 2.6516-4.9498 14.496-7.0711 4.2426-6.0104 4.773-10.253 4.4194-10.253 3.0052-23.158-1.0607z"/><path id="path5005" fill="#27346F" d="m837.38 280.86s-26.779 1.7004-41.375 9.5c-17.018 9.0935-36.5 27.375-36.5 27.375l5.25-14.25 10.5-10 15-7.875 16.25-4.125 12.125-1.25z"/><path id="path4999" d="m862.32 288.33s-19.781-9.4055-45.962-8.0433c-54.691 2.8456-58.411 41.109-58.411 41.109 8.9474-5.6459 21.266-11.122 33.663-11.499" stroke="#131D31" stroke-width="3" fill="none"/><path id="path5001" d="m858.43 301.59s-16.375 11.588-30.052 15.91c-9.4552 2.9878-28.638 0.35355-28.638 0.35355" stroke="#131D31" stroke-width="3" fill="none"/><path id="path5007" d="m794.88 314.74c-28.772-25.361-64.626-55.376-58.125-60.125 6.5012-4.7491 31.978 17.065 69.5 43" stroke="#a49fb3" stroke-width="3" fill="#fff"/><path id="path5021" fill="#5FCCDB" d="m845.66 284.47c-14.817 1.2329-30.899 6.5932-44.938 15.625l-5.75 4.5938-3.375 4.5938 0.0625 2.125c-0.29158 0.009-0.5833 0.0478-0.875 0.0625l-1.4688 4-0.0937 5.9062 1.6875 8.3125 1.75 2.3125 2.9375-2.375 5.2812-8.6875 2.4062-2.2812c4.9498-24.708 22.563-29.987 50.562-31.906-2.3083-0.7425-5.0392-1.5456-8.1875-2.2812z"/><path id="path5009" d="m751 274.61c0.41244 0.24746 6.8296-5.0772 6.9062-11.031" stroke="#a49fb3" stroke-width="2" fill="none"/><path id="path5011" d="m763.75 287.36s5.75-4.375 7.625-14.25" stroke="#a49fb3" stroke-width="2" fill="none"/><path id="path5013" d="m775.25 297.99c0.13049 0.19574 8.4366-6.6576 9.75-14.875" stroke="#a49fb3" stroke-width="2" fill="none"/><path id="path5015" fill="#131D31" d="m801.38 297.41c-7.2277 5.279-11.613 11.07-13.188 17.281-1.5748 6.211-0.2731 12.709 3.5 19.281l1.31 2.28 1.3125-2.2812c4.5743-7.978 9.2304-15.519 18.062-20.688 2.7821-1.6279 5.6788-3.7468 10.57-5.7096-4.8564 0.40332-9.3201 1.4767-12.07 3.1158-8.5408 5.0908-13.488 12.171-17.75 19.406-2.4693-5.1759-3.2053-10.057-2.0312-14.688 1.3559-5.3473 5.1569-10.597 12.031-15.594 2.7444-1.9948 5.3767-4.2458 10.821-6.9337-3.3919 0.51115-8.377 1.4643-12.571 4.5275z"/><path id="path5023" d="m890.5 303.86s20.356 11.925 20.25 58.75c-0.0338 14.992-4.9866 29.766-4.5 44.75 0.22623 6.9662 3.4375 20.625 3.4375 20.625-3.7766-1.3731-4.8764-3.6384-6.8125-5.625 0 0-1.4279 19.36-7.625 25.875-3.3818 3.5553-15.838 6.1578-22.5 11.25-5.4158 4.1396-13.625 15.25-13.625 15.25s-1.4162-19.215 2.125-29.625c2.3826-7.0039 10.125-19.75 10.125-19.75-8.9292 5.4552-16.765 13.916-24.375 23 0 0-0.66969-26.17 11.875-38.25 7.6665-7.3828 14.629-15.581 20.625-24.375 4.4007-6.4538 11.125-20.625 11.125-20.625l-14.25 7.875s11.968-21.246 14.375-33c2.4154-11.797-0.25-36.125-0.25-36.125z" stroke="#131D31" stroke-miterlimit="6" stroke-width="3" fill="none"/></g><g transform="translate(-696.69 -252.46)"><path id="path5049" fill="#fff" d="m857.41 305.88-0.70219-9.9873 3.4471-14.54 7.4246-10.165 8.0433-8.5295 5.4359-0.66291 6.7175 5.701 3.4913 6.6291 2.0329 11.711 0.70711 8.6179 0.0884 10.43-0.26517 7.734-1.9004 6.8943-1.5689 4.099-0.25411 0.43642z"/><path id="path5031" fill="#a49fb3" d="m858 307.86c-7.8722-21.121 10.962-49.205 21.125-47.875 20.607 2.6966 19.243 53.713 11.062 64.125 4.4789-18.03 3.2955-57.106-10.562-60.5-5.9133-1.4482-24.611 19.336-21.625 44.25z"/><path id="path5047" fill="#a49fb3" d="m882.5 281.36s4.644 3.9668 5.25 12.75c0.77994 11.305-5.5 16.625-5.5 16.625 3.3578-8.5638 4.8394-17.831 0.25-29.375z"/></g></svg>