<?xml version="1.0" encoding="UTF-8" standalone="no"?>
<!-- Created with Inkscape (http://www.inkscape.org/) -->

<svg
   xmlns:osb="http://www.openswatchbook.org/uri/2009/osb"
   xmlns:dc="http://purl.org/dc/elements/1.1/"
   xmlns:cc="http://creativecommons.org/ns#"
   xmlns:rdf="http://www.w3.org/1999/02/22-rdf-syntax-ns#"
   xmlns:svg="http://www.w3.org/2000/svg"
   xmlns="http://www.w3.org/2000/svg"
   xmlns:xlink="http://www.w3.org/1999/xlink"
   xmlns:sodipodi="http://sodipodi.sourceforge.net/DTD/sodipodi-0.dtd"
   xmlns:inkscape="http://www.inkscape.org/namespaces/inkscape"
   width="413.23709"
   height="413.23187"
   id="svg2996"
   version="1.1"
   inkscape:version="0.48.4 r9939"
   sodipodi:docname="Shining Armor.svg"
   inkscape:export-filename="C:\Users\Randall\Desktop\shining armor1.png"
   inkscape:export-xdpi="1599.2335"
   inkscape:export-ydpi="1599.2335">
  <sodipodi:namedview
     id="base"
     pagecolor="#ffffff"
     bordercolor="#666666"
     borderopacity="1.0"
     inkscape:pageopacity="0.0"
     inkscape:pageshadow="2"
     inkscape:zoom="1.4142136"
     inkscape:cx="64.724191"
     inkscape:cy="287.09023"
     inkscape:document-units="px"
     inkscape:current-layer="layer1"
     showgrid="false"
     inkscape:window-width="1920"
     inkscape:window-height="1028"
     inkscape:window-x="1272"
     inkscape:window-y="217"
     inkscape:window-maximized="1"
     inkscape:object-paths="true"
     inkscape:snap-nodes="false"
     showguides="true"
     inkscape:guide-bbox="true"
     fit-margin-top="0"
     fit-margin-left="37.79"
     fit-margin-right="37.79"
     fit-margin-bottom="0" />
  <defs
     id="defs2998">
    <linearGradient
       id="linearGradient3957"
       osb:paint="solid">
      <stop
         style="stop-color:#b9dce6;stop-opacity:1;"
         offset="0"
         id="stop3959" />
    </linearGradient>
    <linearGradient
       inkscape:collect="always"
       id="linearGradient3922">
      <stop
         style="stop-color:#005e78;stop-opacity:1"
         offset="0"
         id="stop3924" />
      <stop
         id="stop3926"
         offset="0.39060602"
         style="stop-color:#45737c;stop-opacity:1;" />
      <stop
         style="stop-color:#8de4e8;stop-opacity:1"
         offset="1"
         id="stop3928" />
    </linearGradient>
    <linearGradient
       id="linearGradient4672"
       inkscape:collect="always">
      <stop
         id="stop4674"
         offset="0"
         style="stop-color:#345863;stop-opacity:1" />
      <stop
         style="stop-color:#45737c;stop-opacity:1;"
         offset="0.39060602"
         id="stop4680" />
      <stop
         id="stop4676"
         offset="1"
         style="stop-color:#8de4e8;stop-opacity:1" />
    </linearGradient>
    <linearGradient
       osb:paint="solid"
       id="linearGradient4237">
      <stop
         id="stop4239"
         offset="0"
         style="stop-color:#eefbfb;stop-opacity:1;" />
    </linearGradient>
    <linearGradient
       id="linearGradient4026"
       osb:paint="solid">
      <stop
         style="stop-color:#ffffff;stop-opacity:1;"
         offset="0"
         id="stop4028" />
    </linearGradient>
    <linearGradient
       id="linearGradient4018"
       osb:paint="solid">
      <stop
         style="stop-color:#b9e0f7;stop-opacity:1;"
         offset="0"
         id="stop4020" />
    </linearGradient>
    <linearGradient
       id="linearGradient3970"
       osb:paint="solid">
      <stop
         style="stop-color:#7b9fca;stop-opacity:1;"
         offset="0"
         id="stop3972" />
    </linearGradient>
    <linearGradient
       id="linearGradient3964"
       osb:paint="solid">
      <stop
         style="stop-color:#d258a1;stop-opacity:1;"
         offset="0"
         id="stop3966" />
    </linearGradient>
    <linearGradient
       id="linearGradient3958"
       osb:paint="solid">
      <stop
         style="stop-color:#343675;stop-opacity:1;"
         offset="0"
         id="stop3960" />
    </linearGradient>
    <linearGradient
       id="linearGradient3952"
       osb:paint="solid">
      <stop
         style="stop-color:#192035;stop-opacity:1;"
         offset="0"
         id="stop3954" />
    </linearGradient>
    <linearGradient
       id="linearGradient3946"
       osb:paint="solid">
      <stop
         style="stop-color:#192035;stop-opacity:1;"
         offset="0"
         id="stop3948" />
    </linearGradient>
    <linearGradient
       id="linearGradient3914"
       osb:paint="solid">
      <stop
         style="stop-color:#7ed7de;stop-opacity:1;"
         offset="0"
         id="stop3916" />
    </linearGradient>
    <linearGradient
       id="linearGradient3908"
       osb:paint="solid">
      <stop
         style="stop-color:#343675;stop-opacity:1;"
         offset="0"
         id="stop3910" />
    </linearGradient>
    <linearGradient
       id="linearGradient3902"
       osb:paint="solid">
      <stop
         style="stop-color:#485497;stop-opacity:1;"
         offset="0"
         id="stop3904" />
    </linearGradient>
    <linearGradient
       id="linearGradient3896"
       osb:paint="solid">
      <stop
         style="stop-color:#192035;stop-opacity:1;"
         offset="0"
         id="stop3898" />
    </linearGradient>
    <linearGradient
       id="linearGradient3858"
       osb:paint="solid">
      <stop
         style="stop-color:#ffffff;stop-opacity:1;"
         offset="0"
         id="stop3860" />
    </linearGradient>
    <linearGradient
       id="linearGradient3852"
       osb:paint="solid">
      <stop
         style="stop-color:#a49fb3;stop-opacity:1;"
         offset="0"
         id="stop3854" />
    </linearGradient>
    <linearGradient
       id="linearGradient3846"
       osb:paint="solid">
      <stop
         style="stop-color:#535790;stop-opacity:1;"
         offset="0"
         id="stop3848" />
    </linearGradient>
    <linearGradient
       id="linearGradient3840"
       osb:paint="solid">
      <stop
         style="stop-color:#363960;stop-opacity:1;"
         offset="0"
         id="stop3842" />
    </linearGradient>
    <linearGradient
       id="linearGradient3834"
       osb:paint="solid">
      <stop
         style="stop-color:#000000;stop-opacity:1;"
         offset="0"
         id="stop3836" />
    </linearGradient>
    <linearGradient
       id="linearGradient3814"
       osb:paint="solid">
      <stop
         style="stop-color:#e7e7e7;stop-opacity:1;"
         offset="0"
         id="stop3816" />
    </linearGradient>
    <linearGradient
       id="linearGradient3808"
       osb:paint="solid">
      <stop
         style="stop-color:#93929e;stop-opacity:1;"
         offset="0"
         id="stop3810" />
    </linearGradient>
    <linearGradient
       id="linearGradient3802"
       osb:paint="solid">
      <stop
         style="stop-color:#4b4f84;stop-opacity:1;"
         offset="0"
         id="stop3804" />
    </linearGradient>
    <linearGradient
       id="linearGradient3796"
       osb:paint="solid">
      <stop
         style="stop-color:#343258;stop-opacity:1;"
         offset="0"
         id="stop3798" />
    </linearGradient>
    <linearGradient
       inkscape:collect="always"
       xlink:href="#linearGradient3814"
       id="linearGradient3818"
       x1="148.78571"
       y1="1122.5406"
       x2="174.78571"
       y2="1122.5406"
       gradientUnits="userSpaceOnUse" />
    <linearGradient
       inkscape:collect="always"
       xlink:href="#linearGradient3970"
       id="linearGradient3974"
       x1="148.78571"
       y1="1122.5406"
       x2="174.78571"
       y2="1122.5406"
       gradientUnits="userSpaceOnUse" />
    <linearGradient
       gradientUnits="userSpaceOnUse"
       y2="1153.6553"
       x2="161.72035"
       y1="1153.6553"
       x1="153.60509"
       id="linearGradient4241"
       xlink:href="#linearGradient4237"
       inkscape:collect="always" />
    <linearGradient
       gradientUnits="userSpaceOnUse"
       y2="347.54968"
       x2="831.77887"
       y1="320.3049"
       x1="819.75519"
       id="linearGradient4678"
       xlink:href="#linearGradient3922"
       inkscape:collect="always" />
    <clipPath
       id="clipPath4688"
       clipPathUnits="userSpaceOnUse">
      <path
         style="fill:url(#linearGradient4692);fill-opacity:1;stroke:none"
         d="m 826.625,352.11218 c 0,0 14.14868,-5.22873 12.375,-19.75 -2.0852,-17.07164 -18.875,-17.375 -18.875,-17.375 L 804,337.61218 z"
         id="path4690"
         inkscape:connector-curvature="0"
         sodipodi:nodetypes="csccc" />
    </clipPath>
    <linearGradient
       y2="347.54968"
       x2="831.77887"
       y1="320.3049"
       x1="819.75519"
       gradientUnits="userSpaceOnUse"
       id="linearGradient4692"
       xlink:href="#linearGradient4672"
       inkscape:collect="always" />
    <clipPath
       id="clipPath4694"
       clipPathUnits="userSpaceOnUse">
      <path
         style="fill:url(#linearGradient4698);fill-opacity:1;stroke:none"
         d="m 826.625,352.11218 c 0,0 14.14868,-5.22873 12.375,-19.75 -2.0852,-17.07164 -18.875,-17.375 -18.875,-17.375 L 804,337.61218 z"
         id="path4696"
         inkscape:connector-curvature="0"
         sodipodi:nodetypes="csccc" />
    </clipPath>
    <linearGradient
       y2="347.54968"
       x2="831.77887"
       y1="320.3049"
       x1="819.75519"
       gradientUnits="userSpaceOnUse"
       id="linearGradient4698"
       xlink:href="#linearGradient4672"
       inkscape:collect="always" />
    <clipPath
       id="clipPath4716"
       clipPathUnits="userSpaceOnUse">
      <path
         style="fill:#eefbfb;fill-opacity:1;stroke:none"
         d="m 777.6875,337.67468 c 0,0 -3.35057,-6.60462 -3.4375,-10.1875 -0.0998,-4.11389 0.36925,-9.0644 3.375,-11.875 2.38002,-2.2255 8.16006,-2.74074 11.3305,-2.85195 1.30624,-0.0458 1.63917,0.55147 1.63917,0.55147 L 790.25,325.08093 z"
         id="path4718"
         inkscape:connector-curvature="0"
         sodipodi:nodetypes="csssccc" />
    </clipPath>
    <clipPath
       id="clipPath4724"
       clipPathUnits="userSpaceOnUse">
      <path
         style="fill:#eefbfb;fill-opacity:1;stroke:none"
         d="m 777.6875,337.67468 c 0,0 -3.35057,-6.60462 -3.4375,-10.1875 -0.0998,-4.11389 0.36925,-9.0644 3.375,-11.875 2.38002,-2.2255 8.16006,-2.74074 11.3305,-2.85195 1.30624,-0.0458 1.63917,0.55147 1.63917,0.55147 L 790.25,325.08093 z"
         id="path4726"
         inkscape:connector-curvature="0"
         sodipodi:nodetypes="csssccc" />
    </clipPath>
    <linearGradient
       gradientUnits="userSpaceOnUse"
       y2="333.95593"
       x2="780.53418"
       y1="316.01843"
       x1="779.48798"
       id="linearGradient4736"
       xlink:href="#linearGradient3922"
       inkscape:collect="always" />
    <clipPath
       clipPathUnits="userSpaceOnUse"
       id="clipPath3951">
      <rect
         y="-3520.0598"
         x="363.47754"
         height="165.5"
         width="166"
         id="rect3953"
         style="fill:#424242;fill-opacity:1;fill-rule:nonzero;stroke:none;display:inline" />
    </clipPath>
    <linearGradient
       inkscape:collect="always"
       xlink:href="#linearGradient3957"
       id="linearGradient3961"
       x1="6.75"
       y1="152.48187"
       x2="16.5"
       y2="152.48187"
       gradientUnits="userSpaceOnUse" />
  </defs>
  <metadata
     id="metadata3001">
    <rdf:RDF>
      <cc:Work
         rdf:about="">
        <dc:format>image/svg+xml</dc:format>
        <dc:type
           rdf:resource="http://purl.org/dc/dcmitype/StillImage" />
        <dc:title />
      </cc:Work>
    </rdf:RDF>
  </metadata>
  <g
     inkscape:label="Layer 1"
     inkscape:groupmode="layer"
     id="layer1"
     style="display:inline"
     transform="translate(-696.68759,-252.45837)" />
  <g
     inkscape:groupmode="layer"
     id="layer3"
     inkscape:label="front-right"
     style="display:inline"
     transform="translate(-696.68759,-252.45837)">
    <path
       style="fill:#4b4f84;fill-opacity:1;stroke:url(#linearGradient3796);stroke-width:3;stroke-linecap:butt;stroke-linejoin:miter;stroke-miterlimit:4;stroke-opacity:1;stroke-dasharray:none"
       d="m 803.625,581.86218 c 0,0 12.15789,5.53194 10.875,8.5 -4.00002,9.25435 -20.57391,28.888 -46.75,33.625 -6.98726,1.26446 -16.07892,-18.8675 -17.64299,-28.46038 -0.16634,-1.02021 1.69701,-10.58328 1.71253,-11.32668"
       id="path3876"
       inkscape:connector-curvature="0"
       sodipodi:nodetypes="csssc"
       inkscape:export-xdpi="1418.119"
       inkscape:export-ydpi="1418.119" />
    <path
       style="fill:#e7e7e7;fill-opacity:1;stroke:none"
       d="m 772,511.73718 6.125,-2.625 7.875,1.25 7,0.125 6.875,0.125 7.875,-0.5 19,-0.375 16.125,20.375 -7.375,8 -7.625,5 -10.375,4.5 -24.75,-1.625 1.625,8.125 11.875,22.375 7.5,11.625 -3.625,1.5 -8.5,-5.875 -1.875,7.875 -3.875,3.125 -14.875,-11 0.375,10.125 -1.375,5.625 -6,-5.125 -7.625,-10.5 -1.25,9.375 -3.625,9.25 -6.125,5.25 -3.5,-0.75 -3.375,-10.25 -2.125,-19.75 2.875,-22.5 3.375,-18.625 6,-13 5.5,-8.125 5.25,-3 z"
       id="path3886"
       inkscape:connector-curvature="0" />
    <path
       style="font-size:medium;font-style:normal;font-variant:normal;font-weight:normal;font-stretch:normal;text-indent:0;text-align:start;text-decoration:none;line-height:normal;letter-spacing:normal;word-spacing:normal;text-transform:none;direction:ltr;block-progression:tb;writing-mode:lr-tb;text-anchor:start;baseline-shift:baseline;color:#000000;fill:url(#linearGradient3808);fill-opacity:1;stroke:none;stroke-width:3;marker:none;visibility:visible;display:inline;overflow:visible;enable-background:accumulate;font-family:Sans;-inkscape-font-specification:Sans"
       d="m 787.28125,508.03125 c -7.26652,-0.15246 -15.73151,0.23244 -21.21875,3.125 -3.66463,1.93179 -6.73668,6.16013 -9.46875,11.78125 -2.73207,5.62112 -5.07776,12.68783 -6.90625,20.40625 -3.65697,15.43685 -5.19008,33.47252 -3.03125,47.625 0.59811,3.92094 1.1612,9.01058 2.5,12.8125 0.6694,1.90096 1.47528,3.57181 3,4.5625 1.52472,0.99069 3.67834,0.78002 5.5625,-0.5 5.56847,-3.78299 7.88186,-10.34746 8.90625,-15.84375 0.37748,-2.02535 0.46156,-3.65154 0.5625,-5.25 1.12607,1.81305 1.58043,2.71064 3.4375,5.34375 1.62522,2.30437 3.38324,4.60023 5,6.28125 0.80838,0.84051 1.56426,1.53143 2.375,2.03125 0.81074,0.49982 1.82444,0.91623 2.9375,0.46875 1.08551,-0.43641 1.33211,-1.29598 1.53125,-2.03125 0.19914,-0.73527 0.29344,-1.56987 0.34375,-2.5 0.10061,-1.86026 0.003,-4.13352 -0.15625,-6.375 -0.14001,-1.97163 -0.23186,-2.31606 -0.40625,-3.875 1.06005,1.23143 2.13663,2.5068 3.5,3.875 1.8431,1.84962 3.84569,3.62426 5.84375,4.84375 1.99806,1.21949 4.20289,2.04516 6.21875,1 3.05216,-1.58245 3.94742,-5.16682 4.3125,-8.09375 0.10371,-0.83146 0.006,-0.83831 0.0312,-1.5625 0.69627,0.71767 1.32595,1.41565 2.21875,2.125 1.40014,1.11245 3.00294,2.11648 4.8125,2.5 1.80956,0.38352 3.91831,-0.0198 5.5,-1.59375 0.35646,-0.35471 0.50966,-0.86703 0.53125,-1.21875 0.0216,-0.35172 -0.0554,-0.60299 -0.125,-0.84375 -0.13928,-0.48151 -0.35501,-0.89811 -0.625,-1.375 -0.53998,-0.95377 -1.32019,-2.11596 -2.3125,-3.53125 -1.98461,-2.83057 -4.74548,-6.63878 -7.53125,-11.125 -4.17388,-6.72166 -8.37956,-14.93154 -10.09375,-23.5 0.76463,0.10952 3.56075,0.53083 7.9375,0.90625 4.92883,0.42277 10.72849,0.70808 14.6875,-0.0312 3.30536,-0.61726 7.44085,-2.5196 10.875,-4.25 3.43415,-1.7304 6.09375,-3.3125 6.09375,-3.3125 l 0.15625,-0.0937 0.15625,-0.125 9.875,-9.625 0.96875,-0.9375 -0.875,-1.0625 -16.375,-20.375 -0.46875,-0.59375 -0.75,0.0312 -26.25,0.875 c 0,0 -0.0617,1e-4 -0.0625,0 -0.094,-0.0126 -6.00964,-0.8175 -13.21875,-0.96875 z m -0.0625,3 c 7.07804,0.1485 12.96875,0.9375 12.96875,0.9375 l 0.125,0.0312 0.125,0 25.75,-0.84375 15.03125,18.6875 -8.78125,8.5625 c -0.15422,0.0911 -2.54896,1.49631 -5.78125,3.125 -3.33535,1.68062 -7.44584,3.4801 -10.0625,3.96875 -3.25912,0.60863 -9.04586,0.41422 -13.875,0 -4.76104,-0.40838 -8.51616,-0.984 -8.625,-1 -0.23368,-1.85812 -0.38976,-3.7291 -0.34375,-5.59375 0.0446,-1.80658 -0.19848,-4.67579 0.18655,-8.16993 -1.71615,1.69371 -3.11695,5.76221 -3.18655,8.07623 -0.37802,12.56904 5.60664,24.68623 11.3125,33.875 2.85293,4.59438 5.66573,8.45558 7.625,11.25 0.97963,1.39721 1.76317,2.53175 2.1875,3.28125 0.0612,0.10807 0.0481,0.12822 0.0937,0.21875 -0.67393,0.44343 -1.32668,0.58207 -2.15625,0.40625 -1.07382,-0.22759 -2.36965,-0.9585 -3.5625,-1.90625 -2.38569,-1.89549 -4.28125,-4.46875 -4.28125,-4.46875 l -3.2187,-4.34375 0.5,5.375 c 0,0 0.22432,2.32497 -0.0937,4.875 -0.31807,2.55003 -1.25349,5.02155 -2.71875,5.78125 -0.48723,0.25262 -1.64591,0.0919 -3.28125,-0.90625 -1.63534,-0.99811 -3.53137,-2.65018 -5.28125,-4.40625 -3.49975,-3.51214 -6.4375,-7.375 -6.4375,-7.375 l -3.46875,-4.625 0.78125,5.71875 c 0,0 0.59717,4.27258 0.90625,8.625 0.15454,2.17621 0.24405,4.37666 0.15625,6 -0.0395,0.73015 -0.1282,1.29406 -0.21875,1.6875 -0.0437,-0.0226 0.024,0.003 -0.0312,-0.0312 -0.44189,-0.27242 -1.07266,-0.82574 -1.78125,-1.5625 -1.41719,-1.47351 -3.10798,-3.66666 -4.6875,-5.90625 -3.15905,-4.47917 -5.9375,-9.15625 -5.9375,-9.15625 l -3.15625,-5.375 0.375,6.25 c 0,0 0.2632,4.24286 -0.6875,9.34375 -0.9507,5.10089 -3.12508,10.85921 -7.65625,13.9375 -1.30416,0.88599 -1.694,0.77846 -2.21875,0.4375 -0.52475,-0.34096 -1.2739,-1.41299 -1.84375,-3.03125 -1.1397,-3.23651 -1.76372,-8.27391 -2.375,-12.28125 -2.06832,-13.55908 -0.54798,-31.36007 3.03125,-46.46875 1.78961,-7.55434 4.09198,-14.44108 6.6875,-19.78125 2.59552,-5.34017 5.52346,-9.06612 8.125,-10.4375 4.38451,-2.31127 12.70321,-2.92975 19.78125,-2.78125 z"
       id="path3878"
       inkscape:connector-curvature="0"
       sodipodi:nodetypes="csssssssscssssssccsssscsssccssscscsccccccccccccccccccccssscscsssccssccccscscccscccsscccsssssssscc" />
  </g>
  <g
     inkscape:groupmode="layer"
     id="layer4"
     inkscape:label="back-right"
     style="display:inline"
     transform="translate(-696.68759,-252.45837)">
    <path
       style="fill:url(#linearGradient3802);stroke:url(#linearGradient3796);stroke-width:3;stroke-linecap:butt;stroke-linejoin:miter;stroke-miterlimit:4;stroke-opacity:1;stroke-dasharray:none"
       d="m 950.75,623.86218 c 0,0 2.00598,9.7196 0,10.625 -14.79611,6.67822 -38.06276,16.08556 -51.125,7.875 -6.89769,-4.3357 0.75,-31.5 0.75,-31.5 l 28.75,-18.625 20.75,16.625 z"
       id="path3891"
       inkscape:connector-curvature="0"
       sodipodi:nodetypes="csscccc" />
    <path
       style="fill:url(#linearGradient3814);stroke:url(#linearGradient3808);stroke-width:3;stroke-linecap:butt;stroke-linejoin:miter;stroke-miterlimit:6;stroke-opacity:1;stroke-dasharray:none"
       d="m 931.25,517.42468 c 0,0 16.37367,-1.25724 19.5625,1.5455 5.38159,4.73 1.03184,18.22196 1.5625,86.125 0.057,7.29824 0.30139,20.72081 -2.46543,20.79322 -2.06938,0.0542 -3.09359,-7.86656 -3.09359,-7.86656 0,0 -4.86547,7.32442 -6.45235,8.3969 -4.83939,3.27066 -5.74524,-16.52862 -5.74524,-16.52862 0,0 -5.04547,14.67139 -8.13174,16.26345 -6.11897,3.15648 -3.18197,-22.18547 -3.18197,-22.18547 0,0 -15.07164,23.04975 -20.05468,19.64408 -6.0239,-4.11705 -0.40758,-30.85762 4.75,-42.7045 11.5245,-26.4716 2.85355,-50.55591 2.85355,-50.55591"
       id="path3889"
       inkscape:connector-curvature="0"
       sodipodi:nodetypes="cssscscscssc" />
  </g>
  <g
     inkscape:groupmode="layer"
     id="layer7"
     inkscape:label="body"
     transform="translate(-696.68759,-252.45837)">
    <path
       style="fill:url(#linearGradient3858);stroke:none"
       d="m 818.25,404.36218 -3.8125,7.4375 -5.5625,14.375 -6.48558,21.25765 -5.48008,26.87006 -0.17678,17.32412 4.41942,19.79899 7.07107,12.19759 10.78338,9.19239 15.02602,7.07106 17.85444,3.18198 50.20458,-5.65685 16.97057,-8.13173 13.25825,-9.19239 8.66206,-13.43502 3.71231,-14.49569 -10.07627,-36.94633 -12.1976,-17.32412 -26.87005,0.35355 -23.68808,-9.54594 10.25305,-38.89087 -10.96016,-5.12652 -36.23922,13.6118 z"
       id="path3944"
       inkscape:connector-curvature="0" />
    <path
       style="fill:none;stroke:url(#linearGradient3852);stroke-width:3;stroke-linecap:butt;stroke-linejoin:miter;stroke-miterlimit:4;stroke-opacity:1;stroke-dasharray:none"
       d="m 941.75,503.61218 c 0,0 -8.92617,36.04601 -73.25,39 -122.55159,5.62803 -50.75,-138 -50.75,-138"
       id="path3942"
       inkscape:connector-curvature="0"
       sodipodi:nodetypes="csc" />
  </g>
  <g
     inkscape:groupmode="layer"
     id="layer2"
     inkscape:label="front-left"
     style="display:inline"
     transform="translate(-696.68759,-252.45837)">
    <path
       style="fill:url(#linearGradient3802);stroke:url(#linearGradient3796);stroke-width:3;stroke-linecap:butt;stroke-linejoin:miter;stroke-miterlimit:4;stroke-opacity:1;stroke-dasharray:none;display:inline"
       d="m 854.23559,620.141 c -14.49762,19.84628 -15.23079,34.59808 -11.91416,36.68547 12.84994,8.08738 40.48836,12.02332 64.28571,-1.60715 1.8745,-1.07366 -0.17857,-8.75 -0.17857,-8.75"
       id="path3820"
       inkscape:connector-curvature="0"
       sodipodi:nodetypes="cssc" />
    <path
       style="fill:url(#linearGradient3858);stroke:none"
       d="m 851,530.23718 6.25,16.625 2.25,16.875 1.75,16.75 0.375,12.875 -3.75,10 -6.5,14.375 -3.125,5.875 -3.375,7.5 -1.25,4.875 3.125,3.375 10.625,-0.125 10.5,-4 6.75,-4.875 -0.5,9.625 1,6.875 5,-4.75 7,-9.25 1.375,11.5 1.625,6.625 4.125,0.125 6.625,-7.25 2.75,9.5 5,2 3,-5.25 -0.75,-11.25 -2,-17.5 -2.5,-23.25 -4.125,-19 -2.875,-12.875 -0.75,-18.375 3.125,-17.375 z"
       id="path3873"
       inkscape:connector-curvature="0" />
    <path
       style="font-size:medium;font-style:normal;font-variant:normal;font-weight:normal;font-stretch:normal;text-indent:0;text-align:start;text-decoration:none;line-height:normal;letter-spacing:normal;word-spacing:normal;text-transform:none;direction:ltr;block-progression:tb;writing-mode:lr-tb;text-anchor:start;baseline-shift:baseline;color:#000000;fill:url(#linearGradient3852);fill-opacity:1;fill-rule:nonzero;stroke:none;stroke-width:3;marker:none;visibility:visible;display:inline;overflow:visible;enable-background:accumulate;font-family:Sans;-inkscape-font-specification:Sans"
       d="m 857.48261,542.10669 c -0.46489,-2.1856 -5.20827,-9.44838 -9.39722,-23.9977 0.53587,13.79876 6.0543,22.65133 6.42847,24.59145 0,0 2.10569,8.09301 3.51739,18.29956 1.4117,10.20655 2.59653,22.51029 1.875,30.46875 -0.70064,7.72806 -6.41929,18.80815 -11.1875,28.15625 -2.3841,4.67405 -4.52504,8.9201 -5.65625,12.34375 -0.56561,1.71183 -0.89215,3.21553 -0.78125,4.625 0.1109,1.40947 0.96805,2.87166 2.375,3.40625 8.11852,3.08473 16.35282,0.37348 22.4375,-2.96875 2.81992,-1.54894 5.07901,-3.20656 6.84375,-4.59375 -0.38233,1.71928 -0.60372,2.34859 -0.96875,4.8125 -0.34475,2.32703 -0.59518,4.71244 -0.5,6.71875 0.0476,1.00315 0.15728,1.91308 0.46875,2.75 0.31147,0.83692 0.9258,1.71539 1.9375,2.0625 0.62397,0.21408 1.15201,0.0642 1.53125,-0.0937 0.37924,-0.15792 0.66871,-0.35949 0.96875,-0.59375 0.60008,-0.46852 1.20012,-1.08173 1.84375,-1.8125 1.28726,-1.46154 2.7392,-3.38654 4.125,-5.34375 1.39212,-1.96613 1.68407,-2.48157 2.65625,-3.96875 0.074,1.64563 0.13786,3.38118 0.375,5.3125 0.30971,2.52235 0.78785,5.06041 1.625,7.09375 0.41858,1.01667 0.91435,1.90474 1.65625,2.625 0.7419,0.72026 1.83526,1.24459 2.96875,1.15625 1.43823,-0.11209 2.53492,-0.94221 3.59375,-1.875 1.05883,-0.93279 2.0643,-2.06494 2.9375,-3.1875 0.59154,-0.76047 0.57672,-0.83529 1.03125,-1.5 0.22375,1.14782 0.17255,1.42133 0.625,2.90625 0.49913,1.63813 1.13223,3.32466 2.03125,4.75 0.89902,1.42534 2.10977,2.72276 3.875,3 1.50368,0.23616 3.02347,-0.37983 3.9375,-1.46875 0.91403,-1.08892 1.42378,-2.50409 1.75,-4.15625 0.65244,-3.30432 0.59009,-7.71341 0.25,-12.625 -0.68019,-9.82319 -2.61273,-21.64819 -3.375,-29.28125 -1.49414,-14.9617 -4.34629,-25.17121 -6.46875,-34.8125 -2.12246,-9.64129 -3.56003,-18.71122 -2.3125,-31.75 0.28246,-2.95216 2.26581,-12.59267 5.09345,-19.26781 -6.34483,7.02333 -7.77403,15.92374 -8.09345,18.98656 -1.39488,13.37505 0.2275,22.90124 2.375,32.65625 2.1475,9.75501 4.93608,19.74701 6.40625,34.46875 0.78151,7.82576 2.71064,19.62412 3.375,29.21875 0.33218,4.79732 0.32604,9.05338 -0.21875,11.8125 -0.2724,1.37956 -0.68307,2.36047 -1.0625,2.8125 -0.37943,0.45203 -0.55124,0.53743 -1.1875,0.4375 -0.49696,-0.078 -1.14897,-0.57301 -1.8125,-1.625 -0.66353,-1.05199 -1.26557,-2.54392 -1.71875,-4.03125 -0.90636,-2.97465 -1.28125,-5.90625 -1.28125,-5.90625 l -0.5625,-4.34375 -2.21875,3.75 c 0,0 -1.20693,2.06094 -2.8125,4.125 -0.80278,1.03203 -1.69975,2.04873 -2.53125,2.78125 -0.8315,0.73252 -1.62431,1.10546 -1.875,1.125 -0.24006,0.0187 -0.33372,0.002 -0.625,-0.28125 -0.29128,-0.28279 -0.67758,-0.87312 -1,-1.65625 -0.64485,-1.56626 -1.11351,-3.92833 -1.40625,-6.3125 -0.58548,-4.76835 -0.5,-9.65625 -0.5,-9.65625 l 0.0937,-5.375 -2.875,4.5625 c 0,0 -2.4481,3.9252 -5.15625,7.75 -1.35407,1.9124 -2.78493,3.8164 -3.9375,5.125 -0.5003,0.56803 -0.91814,0.93562 -1.25,1.21875 -0.1211,-0.37795 -0.21434,-0.96697 -0.25,-1.71875 -0.0779,-1.64134 0.13898,-3.89909 0.46875,-6.125 0.65954,-4.45182 1.75,-8.78125 1.75,-8.78125 l 1.34375,-5.25 -3.84375,3.8125 c 0,0 -3.87786,3.81501 -9.5625,6.9375 -5.68464,3.12249 -12.97496,5.41488 -19.90625,2.78125 -0.37765,-0.14349 -0.41462,-0.12454 -0.46875,-0.8125 -0.0541,-0.68796 0.15287,-1.94526 0.65625,-3.46875 1.00676,-3.04699 3.09216,-7.24694 5.46875,-11.90625 4.75318,-9.31862 10.72626,-20.37098 11.53125,-29.25 0.77255,-8.52125 -0.47689,-20.86099 -1.90625,-31.15625 -0.8608,-6.20008 -2.215,-12.36434 -3.51734,-18.48711 z"
       inkscape:connector-curvature="0"
       sodipodi:nodetypes="sccssssssscscsscssscsssssscssssssssscsssssscsscccssccsscccssccscccsscsssss"
       id="path4107" />
  </g>
  <g
     inkscape:groupmode="layer"
     id="layer5"
     inkscape:label="tail"
     transform="translate(-696.68759,-252.45837)">
    <path
       style="fill:url(#linearGradient3902);stroke:none"
       d="m 970.85761,447.78589 0.35355,-9.01561 3.71231,-10.78338 7.07107,-11.66727 8.66206,-7.33623 14.5841,-5.83363 11.6672,-1.59099 7.7782,-0.26516 13.435,3.35875 13.3467,5.92202 11.5789,8.83884 -7.4247,1.06066 7.1595,9.89949 4.9497,6.71752 2.2097,6.62912 -7.3362,-3.8007 -3.5355,-0.7071 6.0104,15.02602 4.0659,12.02081 1.2374,12.72792 -0.2652,13.7002 -5.3033,14.58407 -6.9827,10.25305 -13.435,20.85965 -16.0867,37.2115 -4.1542,14.23052 -6.364,-13.52342 -6.1872,-17.85444 -6.1871,-17.67767 -2.2981,-8.04334 0.2651,-14.4073 0.7955,-15.46796 0.9723,-15.37958 -0.3536,-14.31891 -1.6793,-7.95495 -1.9446,-8.39689 -3.18197,-5.12653 -3.18198,-2.74004 -3.62392,-1.06066 -3.71231,0.97228 -8.04334,5.39169 z"
       id="path3924"
       inkscape:connector-curvature="0" />
    <path
       style="fill:url(#linearGradient3914);stroke:none"
       d="m 971.03438,443.72002 c 0,0 21.93678,-41.97894 56.39182,-29.16815 39.4012,14.64981 32.5269,100.05561 32.5269,100.05561 l -7.4247,12.02081 -7.7781,10.96016 -7.955,16.97056 -7.7782,18.91511 c 0,0 -4.3948,-45.82139 1.9446,-64.34672 5.5486,-16.21439 17.4639,-66.22443 -2.6517,-81.67083 -27.9586,-21.46886 -55.50785,21.38998 -55.50785,21.38998 z"
       id="path3922"
       inkscape:connector-curvature="0"
       sodipodi:nodetypes="cscccccsscc" />
    <path
       style="fill:url(#linearGradient3908);stroke:none"
       d="m 970.68083,450.26076 c 0,0 29.15991,-24.93246 42.95677,-17.85445 27.0135,13.85834 -0.1768,127.98633 -0.1768,127.98633 l -5.1266,-15.37957 c 0,0 17.7927,-78.64309 3.5356,-100.05561 -9.5792,-14.38688 -34.64823,5.83363 -34.64823,5.83363 z"
       id="path3920"
       inkscape:connector-curvature="0"
       sodipodi:nodetypes="csccscc" />
    <path
       style="fill:none;stroke:url(#linearGradient3896);stroke-width:3;stroke-linecap:butt;stroke-linejoin:miter;stroke-miterlimit:4;stroke-opacity:1;stroke-dasharray:none"
       d="m 971.25,448.36218 c 0,0 -3.63261,-42.37418 44,-46.5 28.7869,-2.49345 49,18.5 49,18.5 -4.5667,-0.4837 -7.8358,-0.41414 -10.5,0.21967 6.797,6.65858 15.1991,13.37268 15.7348,23.73744 -4.2241,-2.93589 -6.5736,-4.47605 -11.2348,-5.20711 0,0 13.8906,21.47132 12.25,47.5 -1.6005,25.39261 -21.1973,37.81272 -30.25,60.25 -4.5564,11.29301 -8.8468,16.40412 -16.2981,45.71967 L 1003.75,534.86218 c -3.3546,-23.56973 9.72,-81.44005 -11.25,-86.5 -4.56603,-1.10176 -12.75,6 -12.75,6 z"
       id="path3894"
       inkscape:connector-curvature="0"
       sodipodi:nodetypes="csccccssccscc" />
  </g>
  <g
     inkscape:groupmode="layer"
     id="layer6"
     inkscape:label="back-left"
     transform="translate(-696.68759,-252.45837)">
    <path
       style="fill:url(#linearGradient3846);stroke:url(#linearGradient3840);stroke-width:3;stroke-linecap:butt;stroke-linejoin:miter;stroke-miterlimit:4;stroke-opacity:1;stroke-dasharray:none"
       d="m 1039,635.11218 c 0,0 3.8326,7.64045 1.125,9.75 -16.3447,12.73443 -45.16402,14.69991 -62.875,3.125 -2.5938,-1.69517 -1.25,-23.125 -1.25,-23.125 l 15.125,-20.25 25.25,-0.375 z"
       id="path3939"
       inkscape:connector-curvature="0"
       sodipodi:nodetypes="csscccc" />
    <path
       style="fill:url(#linearGradient3858);stroke:none"
       d="m 927.0625,494.48718 7.1875,5.6875 14.25,13 10,11.5 7.6875,11.3125 8.1875,14 4.5,14 1.5,9 1,20.875 -1.5625,7.9375 -2.3125,14.3125 -1.6875,8.875 3.4375,4 c 0,0 6.625,1.6875 6.875,1.625 0.25,-0.0625 5.9375,-1 5.9375,-1 l 5.875,-4.3125 5.5625,-6.1875 3,7.0625 4.1875,7.4375 4.5625,2.625 2,-3.5625 0.8125,-7.5 8.125,9.5 4.1875,3.25 2.875,-5.5 4.1875,4.25 2.1875,-0.9375 -1.375,-5.8125 -2.75,-8.875 -2.875,-9.3125 -5.5625,-20.5 -19.1875,-57 -5,-5.125 -9.875,-1.75 -4,0 -0.75,-7.625 1.875,-15.75 0.125,-20.5 -3.25,-19.5 -7.5,-12.75 -10,-6.125 -13.25,-4.25 -20.25,-2.375 -18,-0.5 z"
       id="path3937"
       inkscape:connector-curvature="0" />
    <path
       style="font-size:medium;font-style:normal;font-variant:normal;font-weight:normal;font-stretch:normal;text-indent:0;text-align:start;text-decoration:none;line-height:normal;letter-spacing:normal;word-spacing:normal;text-transform:none;direction:ltr;block-progression:tb;writing-mode:lr-tb;text-anchor:start;baseline-shift:baseline;color:#000000;fill:url(#linearGradient3852);fill-opacity:1;stroke:none;stroke-width:3;marker:none;visibility:visible;display:inline;overflow:visible;enable-background:accumulate;font-family:Sans;-inkscape-font-specification:Sans"
       d="m 894.17712,435.96967 0.0625,3 c 0,0 36.09903,0.2161 49.85413,1.93658 13.7551,1.72048 29.10462,5.67802 35.5,13.1875 7.4194,8.71188 9.46222,27.02914 9.3125,43.09375 -0.14972,16.06461 -2.25,29.8125 -2.25,29.8125 l -0.28125,1.75 1.78125,0 c 0,0 2.05029,-0.0298 4.5625,0.0625 2.51221,0.0923 5.53015,0.33797 7,0.75 4.33125,1.21413 5.50945,3.12537 6.90625,6.5 11.1122,26.8465 23.2672,68.05845 28.6562,90.40625 0.4748,1.96864 1.4397,4.51664 2,6.5625 0.2141,0.78141 0.2871,1.32065 0.3438,1.8125 -0.041,-0.0351 -0.047,0.0126 -0.094,-0.0312 -0.3994,-0.37593 -0.8689,-1.0651 -1.25,-1.78125 -0.7621,-1.43231 -1.2187,-2.96875 -1.2187,-2.96875 l -2.1563,-7.375 -0.7812,7.65625 c 0,0 -0.1178,1.26942 -0.4688,2.6875 -0.3509,1.41808 -1.1213,2.88997 -1.4374,3.125 -0.157,0.11672 -0.1676,0.12313 -0.5,0.0312 -0.3325,-0.0919 -0.8715,-0.38189 -1.5,-0.90625 -1.2572,-1.04871 -2.7878,-2.88942 -4.1563,-4.84375 -2.737,-3.90867 -4.9687,-8.25 -4.9687,-8.25 l -3.5626,-6.90625 0.719,7.71875 c 0,0 0.2849,2.99957 0.1562,6.0625 -0.064,1.53147 -0.2498,3.07392 -0.5624,4.15625 -0.3127,1.08233 -0.7204,1.42937 -0.75,1.4375 -1.3441,0.36855 -2.3227,-0.15884 -3.5626,-1.65625 -1.2398,-1.49741 -2.3873,-3.87364 -3.2812,-6.375 -1.7879,-5.00273 -2.6562,-10.375 -2.6562,-10.375 l -1.0626,-6.75 -1.8437,6.5625 c -1.3795,4.8652 -6.12241,9.82097 -11.375,11.9375 -2.6263,1.05827 -5.34556,1.40352 -7.8125,0.875 -2.30122,-0.49301 -4.42883,-1.81188 -6.25,-4.1875 0.31013,-1.30886 5.68243,-24.08431 5.875,-36.6875 0.33525,-21.94184 -7.51843,-40.7942 -17.30152,-55.89725 -3.95706,-6.10888 -26.64597,-31.69295 -39.54307,-38.09604 12.22559,11.02778 28.0699,26.07494 37.64402,40.78844 9.38556,14.4237 16.51687,32.47223 16.20057,53.1736 -0.18489,12.10082 -5.96875,36.8125 -5.96875,36.8125 l -0.15625,0.625 0.40625,0.5625 c 2.28643,3.27167 5.28896,5.16251 8.46875,5.84375 3.17979,0.68124 6.46641,0.20373 9.53125,-1.03125 4.58363,-1.84697 8.71475,-5.3439 11.21875,-9.5 0.4483,1.90384 0.9685,4.06956 1.7812,6.34375 0.9568,2.67718 2.1748,5.3032 3.8126,7.28125 1.6377,1.97805 4.0594,3.37687 6.6874,2.65625 1.6834,-0.46158 2.4134,-2.00989 2.8438,-3.5 0.4304,-1.49011 0.5863,-3.21139 0.6562,-4.875 0.012,-0.28915 -0.01,-0.27796 0,-0.5625 0.7193,1.17632 1.3463,2.28524 2.2188,3.53125 1.4456,2.06449 3.0084,4.03158 4.6562,5.40625 0.824,0.68734 1.678,1.2609 2.6563,1.53125 0.9783,0.27035 2.1914,0.13967 3.0937,-0.53125 1.2005,-0.89256 1.7048,-2.16434 2.0938,-3.4375 0.3908,0.64577 0.767,1.33226 1.3438,1.875 0.7892,0.74275 1.9464,1.35314 3.25,1.15625 0.6727,-0.10161 1.3597,-0.62952 1.6562,-1.1875 0.2965,-0.55798 0.3429,-1.05926 0.3438,-1.5625 0,-1.00648 -0.2219,-2.05772 -0.5313,-3.1875 -0.6189,-2.25955 -1.5781,-4.84857 -1.9687,-6.46875 -5.4332,-22.53068 -17.6134,-63.71173 -28.8438,-90.84375 -1.5174,-3.66595 -3.735,-6.81789 -8.8438,-8.25 -2.09336,-0.58683 -5.09048,-0.7483 -7.68745,-0.84375 -1.65722,-0.0609 -2.1824,-0.0326 -3.03125,-0.0312 0.33429,-2.27742 1.95597,-13.77909 2.09375,-28.5625 0.15204,-16.31369 -1.46237,-35.06883 -10,-45.09375 -7.53535,-8.84804 -23.42528,-12.43486 -37.4375,-14.1875 -14.01222,-1.75264 -50.29163,-1.96783 -50.29163,-1.96783 z"
       inkscape:connector-curvature="0"
       sodipodi:nodetypes="ccssscccsssccccccccccccscccccccccccsscsscsscccssccccsccscsccccscccssscssscc"
       id="path4117" />
    <path
       style="fill:#343675;fill-opacity:1;stroke:url(#linearGradient3952);stroke-width:1.5;stroke-linecap:butt;stroke-linejoin:miter;stroke-miterlimit:4;stroke-opacity:1;stroke-dasharray:none;display:inline"
       d="m 947.4375,469.42468 c 5.99205,0.13031 11.68502,0.18042 11.625,-9.625 4.02429,3.48431 8.96675,10.95254 15.5,4.875 7.93649,15.01355 13.40322,28.60253 3.8125,41.75 -18.38631,-3.96847 -29.78045,-30.03703 -30.9375,-37 z"
       id="path3976"
       inkscape:connector-curvature="0"
       sodipodi:nodetypes="ccccc" />
    <path
       style="fill:#d258a1;fill-opacity:1;stroke:none"
       d="m 960.0625,462.36218 7.625,12.6875 5.9375,-5.5 -0.8125,10.9375 6.375,8.4375 -5.3125,-1.375 3.3125,16.9375 -8.375,-16.4375 -4.625,5.75 -0.6875,-11.5625 -8.125,-7.5 7.625,0.9375 z"
       id="path3979"
       inkscape:connector-curvature="0"
       sodipodi:nodetypes="ccccccccccccc" />
    <path
       sodipodi:type="star"
       style="fill:url(#linearGradient3970);fill-opacity:1;fill-rule:nonzero;stroke:none;display:inline"
       id="path3981"
       sodipodi:sides="5"
       sodipodi:cx="946.0625"
       sodipodi:cy="455.61218"
       sodipodi:r1="11.356613"
       sodipodi:r2="5.6783066"
       sodipodi:arg1="0.96142293"
       sodipodi:arg2="1.5897415"
       inkscape:flatsided="false"
       inkscape:rounded="0"
       inkscape:randomized="0"
       d="m 952.5625,464.92468 -6.60757,-3.63521 -6.74053,3.3823 1.41544,-7.40751 -5.2997,-5.36544 7.48236,-0.94289 3.46514,-6.69832 3.20891,6.82478 7.44127,1.22565 -5.49914,5.16083 z"
       inkscape:transform-center-x="0.22691012"
       inkscape:transform-center-y="-0.26955258"
       transform="matrix(0.42027884,-0.08110627,0.07263217,0.46931336,517.69013,323.63239)" />
    <path
       transform="matrix(0.42409268,-0.07910526,0.06598046,0.46948969,525.07449,312.90897)"
       inkscape:transform-center-y="-0.27639261"
       inkscape:transform-center-x="0.20333606"
       d="m 952.5625,464.92468 -6.60757,-3.63521 -6.74053,3.3823 1.41544,-7.40751 -5.2997,-5.36544 7.48236,-0.94289 3.46514,-6.69832 3.20891,6.82478 7.44127,1.22565 -5.49914,5.16083 z"
       inkscape:randomized="0"
       inkscape:rounded="0"
       inkscape:flatsided="false"
       sodipodi:arg2="1.5897415"
       sodipodi:arg1="0.96142293"
       sodipodi:r2="5.6783066"
       sodipodi:r1="11.356613"
       sodipodi:cy="455.61218"
       sodipodi:cx="946.0625"
       sodipodi:sides="5"
       id="path3984"
       style="fill:url(#linearGradient3970);fill-opacity:1;fill-rule:nonzero;stroke:none;display:inline"
       sodipodi:type="star" />
    <path
       sodipodi:type="star"
       style="fill:#7b9fca;fill-opacity:1;fill-rule:nonzero;stroke:none;display:inline"
       id="path3986"
       sodipodi:sides="5"
       sodipodi:cx="946.0625"
       sodipodi:cy="455.61218"
       sodipodi:r1="11.356613"
       sodipodi:r2="5.6783066"
       sodipodi:arg1="0.96142293"
       sodipodi:arg2="1.5897415"
       inkscape:flatsided="false"
       inkscape:rounded="0"
       inkscape:randomized="0"
       d="m 952.5625,464.92468 -6.60757,-3.63521 -6.74053,3.3823 1.41544,-7.40751 -5.2997,-5.36544 7.48236,-0.94289 3.46514,-6.69832 3.20891,6.82478 7.44127,1.22565 -5.49914,5.16083 z"
       inkscape:transform-center-x="0.20735151"
       inkscape:transform-center-y="-0.28977283"
       transform="matrix(0.41834223,-0.07533978,0.06702017,0.47027351,541.67366,314.80198)" />
  </g>
  <g
     inkscape:label="eye"
     id="layer9"
     inkscape:groupmode="layer"
     transform="translate(-696.68759,-252.45837)">
    <path
       inkscape:connector-curvature="0"
       id="path4244"
       d="m 796.37901,347.19995 c 0.35355,-1.59099 24.04163,-44.0174 24.04163,-44.0174 l 42.24963,10.6066 1.41421,25.98618 -16.44023,24.57196 z"
       style="fill:#dff3f7;fill-opacity:1;stroke:#000000;stroke-width:1px;stroke-linecap:butt;stroke-linejoin:miter;stroke-opacity:1" />
    <path
       sodipodi:nodetypes="csccc"
       inkscape:connector-curvature="0"
       id="path4670"
       d="m 826.625,352.11218 c 0,0 14.14868,-5.22873 12.375,-19.75 -2.0852,-17.07164 -18.875,-17.375 -18.875,-17.375 L 804,337.61218 z"
       style="fill:url(#linearGradient4678);fill-opacity:1;stroke:none" />
    <path
       clip-path="url(#clipPath4694)"
       sodipodi:nodetypes="cccc"
       style="fill:#c4f4f4;fill-opacity:1;stroke:none"
       d="m 821.65808,335.70946 16.97024,12.43198 3.76441,-4.09314 z"
       id="path4684"
       inkscape:connector-curvature="0" />
    <path
       clip-path="url(#clipPath4688)"
       inkscape:connector-curvature="0"
       id="path4682"
       d="m 821.65808,335.70946 23.15774,3.18198 -2.29809,5.65686 z"
       style="fill:#6ad3ec;fill-opacity:1;stroke:none" />
    <path
       sodipodi:nodetypes="csccc"
       inkscape:connector-curvature="0"
       id="path4668"
       d="m 816.44454,319.46053 c 0,0 12.20193,-1.36791 14.80546,12.15165 2.47772,12.86628 -10.5,18 -10.5,18 l -20.5,-11.5 z"
       style="fill:url(#linearGradient3834);stroke:none" />
  </g>
  <g
     style="display:inline"
     inkscape:groupmode="layer"
     id="layer8"
     inkscape:label="face"
     transform="translate(-696.68759,-252.45837)">
    <path
       sodipodi:nodetypes="ccccccccccccccccccccccccccccssssss"
       inkscape:connector-curvature="0"
       id="path4040"
       d="m 840.5625,291.15625 -66.09375,14.5 -1.4748,11.8329 0.39757,10.0524 c -1.94111,15.00099 2.223,11.19144 5.22888,10.07483 l -5.40165,3.91487 -10.59375,5.125 -10.09375,3.03125 -0.875,4.0625 0.71875,8.125 3.875,10.4375 5.5625,0.53125 11.15625,-0.375 23.0625,-6.1875 0.34375,6.375 -3.09375,6.53125 -7.9375,5.21875 -20.15625,2.5625 4.84375,10 13.71875,1.75 15.8125,1.5 16.78125,3.90625 24.75,-1.78125 47.5625,-9.53125 12.03125,-47.5625 -5.65625,-28.8125 -19.46875,-17.84375 z m -5.125,24.03125 c 10.26242,-0.0642 18.88068,5.46215 20.1875,13.53125 1.49351,9.22183 -7.11764,18.28512 -19.25,20.25 -12.13236,1.96488 -23.19399,-3.93442 -24.6875,-13.15625 -1.49351,-9.22183 7.11764,-18.28512 19.25,-20.25 1.51654,-0.24561 3.03394,-0.36583 4.5,-0.375 z"
       style="fill:#ffffff;fill-opacity:1;stroke:none" />
    <path
       style="fill:url(#linearGradient3902);stroke:none"
       d="m 890,303.86218 5.625,4.5 6.375,9.75 6.5,15.75 1.625,12.5 0.75,21.5 -2.375,18.25 -2.375,16.25 1,13.25 1.875,11 -6.25,-3.5 -1.375,11.75 -3.5,10 -3.875,4.5 -11.5,4.875 -11.25,5.75 -12,13.375 -0.875,-15.5 1.875,-11.25 6.875,-13.5 2,-4.875 -6,2.125 -15.25,16.375 0,-11.875 3.125,-12.125 4.375,-8.875 7.625,-7.75 11.125,-13.25 6.875,-9.75 9.625,-17.5 -12.625,5.875 2.625,-8.125 5.5,-9.75 4.875,-13.125 0,-7.875 0.5,-18.25 z"
       id="path5029"
       inkscape:connector-curvature="0" />
    <path
       inkscape:connector-curvature="0"
       id="path4710"
       d="m 775,339.86218 c -1.76527,-3.75382 -3.70267,-22.50379 1.375,-28.625"
       style="fill:none;stroke:url(#linearGradient3852);stroke-width:2.5;stroke-linecap:butt;stroke-linejoin:miter;stroke-miterlimit:4;stroke-opacity:1;stroke-dasharray:none"
       sodipodi:nodetypes="cc" />
    <path
       style="fill:#ffffff;fill-opacity:1;stroke:none"
       d="m 760.67012,373.62806 13.6118,-1.23743 21.21321,-6.18719 0.88388,3.00521 -0.61872,5.56846 -2.38648,5.12653 -7.86657,3.88908 -10.51821,2.82843 -7.42462,0.0884 -3.62392,-6.45235 z"
       id="path4034"
       inkscape:connector-curvature="0" />
    <path
       style="fill:none;stroke:url(#linearGradient3957);stroke-width:1.5;stroke-linecap:butt;stroke-linejoin:miter;stroke-miterlimit:4;stroke-opacity:1;stroke-dasharray:none"
       d="m 763.80806,380.01307 c 0,0 13.86315,0.57687 32.87299,-7.36531"
       id="path4014"
       inkscape:connector-curvature="0"
       sodipodi:nodetypes="cc" />
    <path
       style="fill:none;stroke:url(#linearGradient3957);stroke-width:1.5;stroke-linecap:butt;stroke-linejoin:miter;stroke-miterlimit:4;stroke-opacity:1;stroke-dasharray:none"
       d="m 759.96301,372.21385 c 0,0 4.86136,11.4021 8.48528,15.11441"
       id="path4016"
       inkscape:connector-curvature="0" />
    <path
       style="font-size:medium;font-style:normal;font-variant:normal;font-weight:normal;font-stretch:normal;text-indent:0;text-align:start;text-decoration:none;line-height:normal;letter-spacing:normal;word-spacing:normal;text-transform:none;direction:ltr;block-progression:tb;writing-mode:lr-tb;text-anchor:start;baseline-shift:baseline;color:#000000;fill:url(#linearGradient3852);fill-opacity:1;stroke:none;stroke-width:3;marker:none;visibility:visible;display:inline;overflow:visible;enable-background:accumulate;font-family:Sans;-inkscape-font-specification:Sans"
       d="m 765.6875,386.78125 -3.15337,0.37444 c 0.0222,0.0408 0.13042,0.4137 0.15275,0.4547 1.85262,3.40051 4.17181,7.58242 7.00062,11.29586 0.27059,0.35718 0.7083,0.58195 1.15625,0.59375 7.85601,0.20623 20.31098,0.30761 28.96875,2.1875 8.21838,1.78449 14.96319,4.09232 20.40625,4.125 2.61362,0.0157 4.35691,-0.11943 6.84375,-0.1875 8.47388,-0.23195 17.07305,-1.38023 21.02169,-6.98577 -7.1885,3.83164 -13.17215,3.89295 -21.05289,3.98577 -2.59602,0.0306 -4.33744,0.20238 -6.8125,0.1875 -4.5578,-0.0274 -11.38729,-2.20864 -19.78125,-4.03125 -8.95032,-1.94342 -20.91835,-2.056 -28.75,-2.25 -2.47013,-3.33788 -4.23433,-6.50752 -6,-9.75 z"
       id="path3992"
       inkscape:connector-curvature="0"
       sodipodi:nodetypes="ccsccssscsssccc" />
    <path
       style="font-size:medium;font-style:normal;font-variant:normal;font-weight:normal;font-stretch:normal;text-indent:0;text-align:start;text-decoration:none;line-height:normal;letter-spacing:normal;word-spacing:normal;text-transform:none;direction:ltr;block-progression:tb;writing-mode:lr-tb;text-anchor:start;baseline-shift:baseline;color:#000000;fill:url(#linearGradient3852);fill-opacity:1;stroke:none;stroke-width:2.5;marker:none;visibility:visible;display:inline;overflow:visible;enable-background:accumulate;font-family:Sans;-inkscape-font-specification:Sans"
       d="m 797.59375,364.25 -1.46875,0.5 c -12.96363,4.58763 -24.68534,8.20604 -39.53125,6.65625 a 1.2578853,1.2578853 0 1 0 -0.28125,2.5 c 14.76119,1.54095 26.65165,-1.89921 39.09375,-6.25 0.26521,3.85523 -0.52354,6.83735 -2.09375,9.15625 -1.77975,2.62836 -4.54861,4.49768 -7.875,5.84375 -6.65278,2.69214 -15.39764,3.09012 -21.65625,3.0625 a 1.250125,1.250125 0 1 0 -0.0312,2.5 c 6.36421,0.0281 15.35572,-0.30838 22.625,-3.25 3.63464,-1.47081 6.89045,-3.61969 9.03125,-6.78125 2.1408,-3.16156 3.08994,-7.26918 2.375,-12.40625 L 797.5938,364.25 z"
       id="path3998"
       inkscape:connector-curvature="0" />
    <path
       sodipodi:nodetypes="csssccc"
       inkscape:connector-curvature="0"
       id="path4708"
       d="m 777.6875,337.67468 c 0,0 -3.35057,-6.60462 -3.4375,-10.1875 -0.0998,-4.11389 0.36925,-9.0644 3.375,-11.875 2.38002,-2.2255 8.16006,-2.74074 11.3305,-2.85195 1.30624,-0.0458 1.63917,0.55147 1.63917,0.55147 L 790.25,325.08093 z"
       style="fill:#dff3f7;fill-opacity:1;stroke:none" />
    <path
       clip-path="url(#clipPath4724)"
       sodipodi:nodetypes="czccccc"
       inkscape:connector-curvature="0"
       id="path4720"
       d="m 783.375,333.23718 c 0,0 1.9537,-3.43043 0.95267,-12.13052 -1.00103,-8.70009 -7.01517,-6.86948 -7.01517,-6.86948 l -8.0625,12.4375 4.375,11.3125 5.0625,1.6875 z"
       style="fill:url(#linearGradient4736);fill-opacity:1;stroke:none" />
    <path
       style="font-size:medium;font-style:normal;font-variant:normal;font-weight:normal;font-stretch:normal;text-indent:0;text-align:start;text-decoration:none;line-height:normal;letter-spacing:normal;word-spacing:normal;text-transform:none;direction:ltr;block-progression:tb;writing-mode:lr-tb;text-anchor:start;baseline-shift:baseline;color:#000000;fill:url(#linearGradient3852);fill-opacity:1;stroke:none;stroke-width:3;marker:none;visibility:visible;display:inline;overflow:visible;enable-background:accumulate;font-family:Sans;-inkscape-font-specification:Sans"
       d="m 772.54146,339.67349 c -3.53743,2.23439 -6.52355,3.84889 -9.16646,4.88901 -3.00367,1.1821 -5.46449,1.77842 -7.5,2.28125 -2.03551,0.50283 -3.72265,0.86192 -5.03125,2.09375 -0.65245,0.61418 -0.78261,1.25102 -0.90625,1.9375 -0.12364,0.68648 -0.17086,1.44191 -0.15625,2.3125 0.0292,1.74118 0.29863,3.88787 0.75,6.21875 0.89455,4.61945 2.42831,9.84485 4.823,13.85825 0.0219,0.0368 0.18066,0.20233 0.20274,0.23889 l 2.53676,-1.56589 c -2.12645,-3.52078 -3.77392,-8.69876 -4.625,-13.09375 -0.42554,-2.1975 -0.6626,-4.20424 -0.6875,-5.6875 -0.0124,-0.74163 0.0236,-1.36038 0.0937,-1.75 0.0702,-0.38962 0.25887,-0.49552 0.0312,-0.28125 0.45503,-0.42834 1.68743,-0.88092 3.6875,-1.375 2.00007,-0.49408 4.68691,-1.10802 7.90625,-2.375 2.95762,-1.16398 6.48275,-2.72434 10.20864,-5.545 3.97779,-3.01136 10.72096,-9.07129 13.90232,-15.20166 -8.89406,8.27247 -12.56226,10.82989 -16.0694,13.04515 z"
       id="path4004"
       inkscape:connector-curvature="0"
       sodipodi:nodetypes="ssssscssccscccssscs" />
    <path
       style="fill:url(#linearGradient3852);stroke:none"
       d="m 754.9375,355.61218 c 0,0 0.89716,3.59625 2.3125,3.5625 1.44672,-0.0345 2.1875,-3.75 2.1875,-3.75 -1.38025,1.13807 -2.64486,2.59185 -4.5,0.1875 z"
       id="path4010"
       inkscape:connector-curvature="0"
       sodipodi:nodetypes="cscc" />
    <path
       style="fill:url(#linearGradient3852);stroke:none"
       d="m 766.875,356.36218 c 0,0 1.66908,4.46041 3.25,3.875 3.35006,-1.24052 3.5,-5.25 3.5,-5.25 -1.368,0.95711 -3.92098,4.71334 -6.75,1.375 z"
       id="path4012"
       inkscape:connector-curvature="0"
       sodipodi:nodetypes="cscc" />
    <path
       clip-path="url(#clipPath4716)"
       sodipodi:nodetypes="czccc"
       inkscape:connector-curvature="0"
       id="path4712"
       d="m 776,337.61218 c 0,0 5.75304,-4.70238 3.90479,-12.43696 -1.84825,-7.73458 -7.09413,-3.28163 -7.09413,-3.28163 l -0.24816,12.34359 z"
       style="fill:url(#linearGradient3834);stroke:none" />
    <path
       style="fill:url(#linearGradient3834);stroke:none"
       d="m 774.59694,321.93194 c 1.29377,-5.48716 4.98259,-11.10895 17.45104,-7.96601 -1.70799,-1.2733 -2.40211,-4.17963 -10.97532,-1.31955 -6.61762,2.20768 -6.47572,9.28556 -6.47572,9.28556 z"
       id="path4038"
       inkscape:connector-curvature="0"
       sodipodi:nodetypes="ccsc" />
    <path
       transform="translate(0,-2)"
       d="m 834.75,338.17468 c 0,2.72691 -2.37849,4.9375 -5.3125,4.9375 -2.93401,0 -5.3125,-2.21059 -5.3125,-4.9375 0,-2.7269 2.37849,-4.9375 5.3125,-4.9375 2.93401,0 5.3125,2.2106 5.3125,4.9375 z"
       sodipodi:ry="4.9375"
       sodipodi:rx="5.3125"
       sodipodi:cy="338.17468"
       sodipodi:cx="829.4375"
       id="path4702"
       style="fill:url(#linearGradient3858);fill-opacity:1;fill-rule:nonzero;stroke:none;display:inline"
       sodipodi:type="arc" />
    <path
       d="m 825.5,330.04968 c 0,0.86295 -0.69956,1.5625 -1.5625,1.5625 -0.86294,0 -1.5625,-0.69955 -1.5625,-1.5625 0,-0.86294 0.69956,-1.5625 1.5625,-1.5625 0.86294,0 1.5625,0.69956 1.5625,1.5625 z"
       sodipodi:ry="1.5625"
       sodipodi:rx="1.5625"
       sodipodi:cy="330.04968"
       sodipodi:cx="823.9375"
       id="path4704"
       style="fill:url(#linearGradient3858);fill-opacity:1;fill-rule:nonzero;stroke:none;display:inline"
       sodipodi:type="arc" />
    <path
       transform="matrix(0.09117237,-0.99583513,0.99583513,0.09117237,382.15964,1073.0106)"
       sodipodi:type="arc"
       sodipodi:ry="2.2087474"
       sodipodi:rx="4.1766171"
       sodipodi:cy="327.13226"
       sodipodi:cx="778.94794"
       inkscape:connector-curvature="0"
       id="path4738"
       d="m 783.12455,327.13226 c 0,1.21986 -1.86993,2.20875 -4.17661,2.20875 -2.30668,0 -4.17662,-0.98889 -4.17662,-2.20875 0,-1.21985 1.86994,-2.20874 4.17662,-2.20874 2.30668,0 4.17661,0.98889 4.17661,2.20874 z"
       style="fill:url(#linearGradient3858);stroke:none" />
    <path
       sodipodi:type="arc"
       style="fill:url(#linearGradient3858);fill-opacity:1;fill-rule:nonzero;stroke:none"
       id="path4992"
       sodipodi:cx="776.34375"
       sodipodi:cy="322.67468"
       sodipodi:rx="0.84375"
       sodipodi:ry="1.0625"
       d="m 777.1875,322.67468 c 0,0.58681 -0.37776,1.0625 -0.84375,1.0625 -0.46599,0 -0.84375,-0.47569 -0.84375,-1.0625 0,-0.5868 0.37776,-1.0625 0.84375,-1.0625 0.46599,0 0.84375,0.4757 0.84375,1.0625 z" />
    <path
       style="fill:url(#linearGradient3858);stroke:none"
       d="m 811.875,282.73718 8,-16.625 4.25,-4.125 4.875,2.625 2.625,7.5 2.40745,6.14486 1.06066,4.15425 -1.14905,3.44714 z"
       id="path4996"
       inkscape:connector-curvature="0" />
    <path
       style="fill:url(#linearGradient3852);stroke:none"
       d="m 809.25598,290.55926 c -1.09525,-4.01591 6.67735,-30.70252 15.58408,-30.77539 8.90673,-0.0729 12.90337,25.9098 11.63693,28.08084 -3.04305,-6.1408 -5.84745,-24.53538 -11.37177,-24.4632 -5.52432,0.0722 -13.28598,20.40895 -15.84924,27.15775 z"
       id="path4994"
       inkscape:connector-curvature="0"
       sodipodi:nodetypes="czczc" />
    <path
       style="fill:url(#linearGradient3914);stroke:none"
       d="m 903.5,320.98718 c -7.59428,35.83355 -18.53619,39.8645 -28.625,52 l 14.125,-6.5 -3.5,9.125 -5.5,10.25 -13.25,16 -10.25,10.875 -4.375,7.625 c 0,0 27.16835,-18.65437 37.75,-30.625 11.185,-12.65317 20.625,-31.875 20.625,-31.875 l -0.75,-15.5 -3.25,-14.5 z"
       id="path5025"
       inkscape:connector-curvature="0"
       sodipodi:nodetypes="ccccccccscccc" />
    <path
       style="fill:url(#linearGradient3908);stroke:none"
       d="m 851,443.98718 c 0,0 4.77291,-13.10494 8.5,-16.5 5.85821,-5.33634 14.84761,-5.45547 21.625,-9.875 11.14237,-7.26593 26.875,-29.5 26.875,-29.5 l -1.25,18.625 0.5,9.75 2.375,10.75 -1.375,-0.125 -3.5,-2.75 -1.125,-0.375 -1.75,1.5 c 0,0 -5.90574,9.37703 -10,13 -5.58167,4.93916 -13.28506,6.90623 -19.25,11.375 -4.97803,3.7294 -13.625,12.75 -13.625,12.75 l 0.125,-6.875 1.375,-8.5 3.375,-6.875 5.125,-11.875 -3.5,1 -5.375,4.625 z"
       id="path5027"
       inkscape:connector-curvature="0"
       sodipodi:nodetypes="cssccccccccsscccccccc" />
    <path
       style="fill:#000000;fill-opacity:1;stroke:none"
       d="M 92.746267,65.219135 C 102.38421,61.709649 117.91343,64.224372 121.01474,81.143664 124.92336,69.705181 109.20818,55.090446 92.746267,65.219135 z"
       id="path3119"
       inkscape:connector-curvature="0"
       sodipodi:nodetypes="ccc"
       transform="translate(734.47759,252.45837)" />
  </g>
  <g
     inkscape:groupmode="layer"
     id="layer10"
     inkscape:label="mane"
     style="display:inline"
     transform="translate(-696.68759,-252.45837)">
    <path
       style="fill:#485497;fill-opacity:1;stroke:none"
       d="m 790.89893,309.72329 -8.76561,0.58394 -8.02817,2.42126 -9.01561,3.35876 -5.30331,2.47487 1.06066,-4.94974 4.94975,-11.66727 6.71752,-6.54073 6.71751,-5.30331 10.42983,-4.94974 12.37436,-3.71231 12.55115,-1.23744 11.31371,-0.35355 13.43503,1.41421 8.48528,1.76777 7.24784,2.12132 7.07107,2.65165 -4.94975,14.49569 -7.07106,4.24264 -6.01041,4.77297 -10.25305,4.41942 -10.25305,3.0052 -23.15775,-1.06066 z"
       id="path5003"
       inkscape:connector-curvature="0"
       sodipodi:nodetypes="cccccccccccccccccccccccc" />
    <path
       style="fill:#343675;fill-opacity:1;stroke:none"
       d="m 837.375,280.86218 c 0,0 -26.77855,1.70044 -41.375,9.5 -17.01791,9.09346 -36.5,27.375 -36.5,27.375 l 5.25,-14.25 10.5,-10 15,-7.875 16.25,-4.125 12.125,-1.25 z"
       id="path5005"
       inkscape:connector-curvature="0"
       sodipodi:nodetypes="csccccccc" />
    <path
       style="fill:none;stroke:url(#linearGradient3946);stroke-width:3;stroke-linecap:butt;stroke-linejoin:miter;stroke-miterlimit:4;stroke-opacity:1;stroke-dasharray:none"
       d="m 862.31672,288.33331 c 0,0 -19.78073,-9.40553 -45.96194,-8.04334 -54.69124,2.84556 -58.41138,41.1087 -58.41138,41.1087 8.94742,-5.64594 21.26577,-11.12213 33.66264,-11.49861"
       id="path4999"
       inkscape:connector-curvature="0"
       sodipodi:nodetypes="cscc" />
    <path
       style="fill:none;stroke:url(#linearGradient3946);stroke-width:3;stroke-linecap:butt;stroke-linejoin:miter;stroke-miterlimit:4;stroke-opacity:1;stroke-dasharray:none"
       d="m 858.42763,301.59156 c 0,0 -16.37512,11.58802 -30.05204,15.90991 -9.45523,2.98784 -28.63782,0.35355 -28.63782,0.35355"
       id="path5001"
       inkscape:connector-curvature="0"
       sodipodi:nodetypes="csc" />
    <path
       style="fill:url(#linearGradient3858);stroke:url(#linearGradient3852);stroke-width:3;stroke-linecap:butt;stroke-linejoin:miter;stroke-miterlimit:4;stroke-opacity:1;stroke-dasharray:none"
       d="m 794.875,314.73718 c -28.77243,-25.36057 -64.62617,-55.37593 -58.125,-60.125 6.50117,-4.74907 31.97843,17.065 69.5,43"
       id="path5007"
       inkscape:connector-curvature="0"
       sodipodi:nodetypes="czc" />
    <path
       style="fill:#7ed7de;fill-opacity:1;stroke:none"
       d="m 845.65625,284.46875 c -14.81668,1.23294 -30.89897,6.59315 -44.9375,15.625 l -5.75,4.59375 -3.375,4.59375 0.0625,2.125 c -0.29158,0.009 -0.5833,0.0478 -0.875,0.0625 l -1.46875,4 -0.0937,5.90625 1.6875,8.3125 1.75,2.3125 2.9375,-2.375 5.28125,-8.6875 2.40625,-2.28125 c 4.94977,-24.70833 22.56347,-29.98659 50.5625,-31.90625 -2.30832,-0.7425 -5.03919,-1.5456 -8.1875,-2.28125 z"
       id="path5021"
       inkscape:connector-curvature="0" />
    <path
       style="fill:none;stroke:url(#linearGradient3852);stroke-width:2;stroke-linecap:butt;stroke-linejoin:miter;stroke-miterlimit:4;stroke-opacity:1;stroke-dasharray:none"
       d="m 751,274.61218 c 0.41244,0.24746 6.82958,-5.07725 6.90625,-11.03125"
       id="path5009"
       inkscape:connector-curvature="0"
       sodipodi:nodetypes="cc" />
    <path
       style="fill:none;stroke:url(#linearGradient3852);stroke-width:2;stroke-linecap:butt;stroke-linejoin:miter;stroke-miterlimit:4;stroke-opacity:1;stroke-dasharray:none"
       d="m 763.75,287.36218 c 0,0 5.75,-4.375 7.625,-14.25"
       id="path5011"
       inkscape:connector-curvature="0"
       sodipodi:nodetypes="cc" />
    <path
       style="fill:none;stroke:url(#linearGradient3852);stroke-width:2;stroke-linecap:butt;stroke-linejoin:miter;stroke-miterlimit:4;stroke-opacity:1;stroke-dasharray:none"
       d="m 775.25,297.98718 c 0.13049,0.19574 8.43657,-6.65765 9.75,-14.875"
       id="path5013"
       inkscape:connector-curvature="0"
       sodipodi:nodetypes="cc" />
    <path
       style="font-size:medium;font-style:normal;font-variant:normal;font-weight:normal;font-stretch:normal;text-indent:0;text-align:start;text-decoration:none;line-height:normal;letter-spacing:normal;word-spacing:normal;text-transform:none;direction:ltr;block-progression:tb;writing-mode:lr-tb;text-anchor:start;baseline-shift:baseline;color:#000000;fill:#192035;fill-opacity:1;stroke:none;stroke-width:3;marker:none;visibility:visible;display:inline;overflow:visible;enable-background:accumulate;font-family:Sans;-inkscape-font-specification:Sans"
       d="m 801.375,297.40625 c -7.22766,5.27895 -11.61266,11.07023 -13.1875,17.28125 -1.57484,6.21102 -0.2731,12.70877 3.5,19.28125 L 793,336.25 l 1.3125,-2.28125 c 4.57428,-7.97803 9.23035,-15.51938 18.0625,-20.6875 2.78208,-1.62793 5.67885,-3.74675 10.57006,-5.70958 -4.85642,0.40332 -9.32014,1.47673 -12.07006,3.11583 -8.54081,5.09076 -13.48752,12.17086 -17.75,19.40625 -2.46931,-5.17588 -3.20533,-10.05707 -2.03125,-14.6875 1.35586,-5.34734 5.15692,-10.59716 12.03125,-15.59375 2.74445,-1.9948 5.37674,-4.24582 10.82093,-6.93372 -3.39191,0.51115 -8.37699,1.46429 -12.57093,4.52747 z"
       id="path5015"
       inkscape:connector-curvature="0"
       sodipodi:nodetypes="sscccscscsscs" />
    <path
       style="fill:none;stroke:url(#linearGradient3946);stroke-width:3;stroke-linecap:butt;stroke-linejoin:miter;stroke-miterlimit:6;stroke-opacity:1;stroke-dasharray:none"
       d="m 890.5,303.86218 c 0,0 20.35558,11.92486 20.25,58.75 -0.0338,14.99186 -4.9866,29.766 -4.5,44.75 0.22623,6.96616 3.4375,20.625 3.4375,20.625 -3.77657,-1.37309 -4.87643,-3.63841 -6.8125,-5.625 0,0 -1.4279,19.35989 -7.625,25.875 -3.38178,3.55532 -15.83801,6.15781 -22.5,11.25 -5.41577,4.13962 -13.625,15.25 -13.625,15.25 0,0 -1.41616,-19.21538 2.125,-29.625 2.38259,-7.00387 10.125,-19.75 10.125,-19.75 -8.92916,5.45523 -16.76548,13.91575 -24.375,23 0,0 -0.66969,-26.16951 11.875,-38.25 7.6665,-7.38282 14.62883,-15.58141 20.625,-24.375 4.4007,-6.45378 11.125,-20.625 11.125,-20.625 l -14.25,7.875 c 0,0 11.96838,-21.2455 14.375,-33 2.41537,-11.79723 -0.25,-36.125 -0.25,-36.125 z"
       id="path5023"
       inkscape:connector-curvature="0"
       sodipodi:nodetypes="cssccsscsccssccsc" />
  </g>
  <g
     inkscape:groupmode="layer"
     id="layer11"
     inkscape:label="ear"
     style="display:inline"
     transform="translate(-696.68759,-252.45837)">
    <path
       style="fill:url(#linearGradient3858);stroke:none"
       d="m 857.40625,305.87781 -0.70219,-9.9873 3.44714,-14.53988 7.42462,-10.16466 8.04334,-8.52948 5.43589,-0.66291 6.71751,5.70105 3.49134,6.62912 2.03293,11.71146 0.70711,8.61786 0.0884,10.42983 -0.26517,7.73398 -1.90035,6.89429 -1.56889,4.09901 -0.25411,0.43642 z"
       id="path5049"
       inkscape:connector-curvature="0" />
    <path
       style="fill:#a49fb3;fill-opacity:1;stroke:none;display:inline"
       d="m 858,307.86218 c -7.87217,-21.12133 10.96244,-49.20483 21.125,-47.875 20.60714,2.69656 19.24338,53.71262 11.0625,64.125 4.47891,-18.02983 3.2955,-57.10621 -10.5625,-60.5 -5.9133,-1.44815 -24.61065,19.33608 -21.625,44.25 z"
       id="path5031"
       inkscape:connector-curvature="0"
       sodipodi:nodetypes="cscsc" />
    <path
       style="fill:#a49fb3;fill-opacity:1;stroke:none"
       d="m 882.5,281.36218 c 0,0 4.64403,3.9668 5.25,12.75 0.77994,11.30484 -5.5,16.625 -5.5,16.625 3.35775,-8.56376 4.83942,-17.83105 0.25,-29.375 z"
       id="path5047"
       inkscape:connector-curvature="0"
       sodipodi:nodetypes="cscc" />
  </g>
  <g
     style="display:none"
     id="g3824"
     inkscape:groupmode="layer"
     inkscape:label="Layer 1 copy"
     transform="translate(-696.68759,-252.45837)" />
</svg>
