<?xml version="1.0" encoding="UTF-8"?><svg xmlns="http://www.w3.org/2000/svg" xmlns:xlink="http://www.w3.org/1999/xlink" version="1.1" viewBox="0 0 5792.5825 5792.5669"><defs id="defs4"><linearGradient id="linearGradient4078"><stop id="stop4080" stop-color="#b08cd4" offset="0"/><stop id="stop4082" stop-color="#64338e" offset="1"/></linearGradient><clipPath id="clipPath3878" clipPathUnits="userSpaceOnUse"><path id="path3880" opacity=".5" d="m2913.3 3676.4c-68.014 26.235-128.53 63.189-176.78 128.69-24.214 32.877-106.6 34.402-132.69 0.7573-31.901-41.128-65.483-81.424-115.97-110.31l-78.024 136.42-7.0711 202.23 475.18 11.314 41.012-181.02z" stroke="#f00" stroke-width="1px" fill="#0f0"/></clipPath><clipPath id="clipPath3882" clipPathUnits="userSpaceOnUse"><path id="path3884" opacity=".5" d="m2913.3 3676.4c-68.014 26.235-128.53 63.189-176.78 128.69-24.214 32.877-106.6 34.402-132.69 0.7573-31.901-41.128-65.483-81.424-115.97-110.31l-78.024 136.42-7.0711 202.23 475.18 11.314 41.012-181.02z" stroke="#f00" stroke-width="1px" fill="#0f0"/></clipPath><clipPath id="clipPath3886" clipPathUnits="userSpaceOnUse"><path id="path3888" opacity=".5" d="m2913.3 3676.4c-68.014 26.235-128.53 63.189-176.78 128.69-24.214 32.877-106.6 34.402-132.69 0.7573-31.901-41.128-65.483-81.424-115.97-110.31l-78.024 136.42-7.0711 202.23 475.18 11.314 41.012-181.02z" stroke="#f00" stroke-width="1px" fill="#0f0"/></clipPath><clipPath id="clipPath4038" clipPathUnits="userSpaceOnUse"><path id="path4040" opacity=".5" d="m5026.2 2856.3c-142.05 129.76-403.61 226.79-626.17 216.59-119.49-118.2-256.86-215-293.32-432.57 73.529-89.117 220.12-192.68 326.39-251.33 227.65 111.7 431.91 265.51 593.11 467.3z" stroke="#f00" stroke-width="1.0446px" fill="#0f0"/></clipPath><clipPath id="clipPath4042" clipPathUnits="userSpaceOnUse"><path id="path4044" opacity=".5" d="m5144.5 2476.2c5.6649 191.94-88.17 451.22-236.18 610.27-162.29 10.58-320.15 48.687-503.04-68.535-19.06-113.93-2.6089-291.87 21.391-409.97 225.8-95.476 467.78-145.59 717.83-131.77z" stroke="#f00" stroke-width="1.0269px" fill="#0f0"/></clipPath><clipPath id="clipPath4046" clipPathUnits="userSpaceOnUse"><path id="path4048" opacity=".5" d="m5056.3 2376c19.846 180.54-49.263 432.17-177.14 593.46-152.59 22.391-298.9 70.395-480.6-26.137-26.616-105.96-24.503-274.99-10.736-388.17 206.2-107.29 431.12-173.05 668.48-179.15z" stroke="#f00" stroke-width=".97252px" fill="#0f0"/></clipPath><clipPath id="clipPath4050" clipPathUnits="userSpaceOnUse"><path id="path4052" opacity=".5" d="m5063.7 2484c-34.175 188.74-174.3 422.09-344 546-152.43-24.196-306.41-20.555-451.66-174 5.7501-115.36 57.527-285.73 104-396 228.67-45.235 462.99-42.71 691.66 24z" stroke="#f00" stroke-width="1px" fill="#0f0"/></clipPath><clipPath id="clipPath4054" clipPathUnits="userSpaceOnUse"><path id="path4056" opacity=".5" d="m3505 1987.7c99 71.255 188.18 151.32 233.08 271.11-69.715 147.32-174 271.94-322.6 367.46-149.73-15.076-331.5-66.486-433.62-196.54 151.94-162.99 306.22-338.13 523.15-442.03z" stroke="#f00" stroke-width=".91244px" fill="#0f0"/></clipPath><clipPath id="clipPath4058" clipPathUnits="userSpaceOnUse"><path id="path4060" opacity=".5" d="m3571.4 2237.9c12.79 145.93 12.765 289.43-45.035 421.98-152.6 47.095-311.26 44.891-477.68-20.516-86.738-150.37-167.97-358.04-140.05-551.48 217.65 17.31 445.66 27.561 662.76 150.01z" stroke="#f00" stroke-width=".98685px" fill="#0f0"/></clipPath><clipPath id="clipPath4062" clipPathUnits="userSpaceOnUse"><path id="path4064" opacity=".5" d="m3736.2 2116.4c19.792 148.32 25.686 294.94-31.076 433.9-162.36 57.404-333.27 64.804-515.15 8.1002-99.592-148.36-195.62-355.61-173.54-554.95 235.05 4.4448 480.97 1.046 719.76 112.95z" stroke="#f00" stroke-width="1.0362px" fill="#0f0"/></clipPath><clipPath id="clipPath4066" clipPathUnits="userSpaceOnUse"><path id="path4068" opacity=".5" d="m3570 2288c-14.957 145.73-42.379 286.67-126 406-162.95 17.553-322.59-14.455-478-110-58.799-164.01-101.1-383.26-36-568 216.28 57.942 444.35 110.9 640 272z" stroke="#f00" stroke-width="1px" fill="#0f0"/></clipPath><linearGradient id="linearGradient4084" y2="1946.5" xlink:href="#linearGradient4078" gradientUnits="userSpaceOnUse" x2="3508.1" y1="2400.3" x1="3495.1"/><linearGradient id="linearGradient4086" y2="2400.6" xlink:href="#linearGradient4078" gradientUnits="userSpaceOnUse" x2="4558.3" y1="2834.9" x1="4653.6"/></defs><g transform="translate(-80.399 -53.966)" stroke="#7c929a" stroke-width="59" fill="#99a5b0"><path id="path3773" d="m3270.5 4352.3c26.555 389.07 103.31 750.11 220.37 1086.8 46.015 132.36 122.34 202.96 210.35 220.37 198.79 39.306 388.29 35.568 570.95 15.025 160.61-18.062 119.6-106.89 70.117-175.29-235.9-326.1-622.52-916.47-651.09-1387.3z"/><path id="path3775" d="m2068.4 4197c-9.6741 327.47-13.591 798.27 37.075 1147.9 19.515 134.67 71.647 192.69 143.23 214.35 178.21 53.942 340.12 50.875 510.85 55.092 84.66 2.0909 147.39-50.488 135.23-135.23-59.939-417.39-74.243-831.39-95.159-1247.1z"/></g><g transform="translate(-80.399 -53.966)"><path id="path3778-1" fill="#d9e3e9" d="m1906.4 3335.6c-7.3398-318.35-176.58-598.25-463.86-712.76-320.95-127.94-717.23-102.76-969.95 171.76-249.04 270.53-174.6 581.05-53.941 795.56 80.64 143.36 198.06 312.1 248.9 463.86 41.57 124.08 71.993 264.52-16.971 418.61-76.936 133.26-263.16 84.946-316.78-16.971-79.542-151.18-31.697-309.24-16.971-463.86-166.92 180.61-233.16 553.31-67.882 763.68 292.24 371.97 795.95 211.52 950.35 11.314 151.95-197.04 185.6-515.32 147.08-729.73-33.139-184.43-58.473-315.21-16.971-509.12 61.561-287.62 377.77-133.45 395.98-28.284z"/><path id="path3782" fill="#e9eff2" d="m1855.4 3397.8c-70.483-258.41-151.26-542.84-408.95-669.85-293.51-144.66-647.45-142.2-847.16 58.225-405.12 406.58-86.803 924.4 45.539 1183 39.04 156.51 78.181 329.01 33.941 485.52 170.09-173.67 146.48-442.66 56.569-694.82-79.42-222.73-211.17-516.99-5.6568-707.11 225.67-208.77 536.05-159.53 761.05-26.627 167.88 99.164 200.74 299.94 241.19 467.86z"/><path id="path3778" d="m1906.4 3335.6c-7.3398-318.35-176.58-598.25-463.86-712.76-320.95-127.94-717.23-102.76-969.95 171.76-249.04 270.53-174.6 581.05-53.941 795.56 80.64 143.36 198.06 312.1 248.9 463.86 41.57 124.08 71.993 264.52-16.971 418.61-76.936 133.26-263.16 84.946-316.78-16.971-79.542-151.18-31.697-309.24-16.971-463.86-166.92 180.61-233.16 553.31-67.882 763.68 292.24 371.97 795.95 211.52 950.35 11.314 151.95-197.04 185.6-515.32 147.08-729.73-33.139-184.43-58.473-315.21-16.971-509.12 61.561-287.62 377.77-133.45 395.98-28.284z" stroke="#b9cad6" stroke-miterlimit="7" stroke-width="59" fill="none"/></g><g transform="translate(-80.399 -53.966)"><path id="path3836" fill="#a9b5c0" d="m2008 4360c189.57 206.6 448.87 192.37 700 204l520-12c216.82-37.31 427.74-105.34 592-416 98.551-163.7 181.95-331.18 196-516l84-432-892-284c24.805 253.87-122.35 393.6-380 460l-304-80z"/><path id="path3771" d="m4106.8 3170.3c-67.244 240.4-58.236 503.85-170.28 741.24-174.16 368.98-301.73 566.39-699.05 647.83" stroke="#7c929a" stroke-width="59" fill="none"/><path id="path3802" d="m3190.5 2877.4c72.238 386.57-197.43 393.25-379.01 497.8" stroke="#7c929a" stroke-width="59" fill="none"/><path id="path3804" d="m2619.1 3386.5c-141.42-228.61-485.24-282.35-718.42-124.45-350.86 237.59-375.7 853.26-231.93 1228.2-103.28-28.346-209.4-28.05-269.87 121.82-114.1 282.77-205.79 571.66-267.53 867.44-21.355 102.32 17.755 182.49 107.48 214.96 183.95 66.568 351.95 79.9 526.09 79.196 200.45-0.81 153.58-114.93 124.45-223.65-89.116-332.59 51.953-850.25 209.3-1111.4" stroke="#7c929a" stroke-width="59" fill="#a9b5c0"/><path id="path3806" fill="#7c929a" d="m1978 4171c-27.733 185.44 63.659 313.85 274.18 377.07 158.26 47.529 343.76 44.172 470.62 49.438l2.4376-58.938c-129.85-5.3893-310.43-4.9855-456.28-47.062-182.6-52.678-253.22-157.95-290.96-320.51z"/><path id="path3812" d="m3248.4 4504.1c-1.543 6.3012-3.058 12.61-4.5452 18.926-88.4 375.4-78.7 775.3-19.9 1033 32.541 142.67 0.039 224.04-112 244-172.65 30.757-364.33 13.896-560-4-110.65-10.12-153.88-59.885-140-200 32.783-331 206.38-725.02 313.15-1048.9 2.9281-8.883 5.806-17.713 8.6293-26.488" stroke="#7c929a" stroke-width="59" fill="#a9b5c0"/><path id="path3812-7" fill="#7c929a" d="m3219.8 4497.1c-1.5639 6.3867-3.1179 12.756-4.625 19.156l57.438 13.531c1.4673-6.2314 2.9779-12.44 4.5-18.656 20.811-84.986 43.931-196.71 59.779-262.75-44.964 56.996-95.707 161.39-117.09 248.71zm-514.06 14.437c-2.8004 8.7038-5.6549 17.461-8.5625 26.281l56.031 18.5c2.9487-8.9453 5.8726-17.873 8.7188-26.719 30.104-93.564 41.544-185.57 38.26-259.15-18.84 72.087-64.826 149.03-94.448 241.09z"/></g><g transform="translate(-80.399 -53.966)"><g id="g4195" transform="matrix(-.33603 -.011477 -.043930 .30330 2764.9 2632.8)"><path id="path3851-1" fill="#d6fdf9" d="m2168.6 2487.5c33.964-57.104 60.291-45.474 82.857 0 33.914 96.19 25.228 209.52 31.429 305.71 49.97-76.464 117.33-86.282 190-75.714 71.802 41.229 104.26 112.02 132.86 185.71 27.5 95.045 16.73 172.55-47.143 225.71-73.344 41.901-140.94 85.718-202.86 131.43 55.65-2.3839 72.814 22.173 91.429 45.714 12.387 41.77 5.5575 85.891-12.857 131.43-35.626 38.426-79.136 47.286-130 28.571-49.074 105.57-80.774 199.56-107.14 290-24.634 157.79-48.798 315.48-58.572 470 0.1356 119.42 18.912 223.92 57.143 312.86 47.829 160.85 31.898 313.75-7.1429 455.71-41.103 85.371-80.464 171.96-158.57 231.43-93.064 82.954-141.34 41.871-185.71-10-46.128-96.586-68.618-195.32-72.857-295.71 1.1094-168.97 61.129-308.48 145.71-435.71 71.74-84.118 117.78-182.07 140-292.86 35.714-157.62 34.466-315.24 37.143-472.86-9.6909-99.884-36.552-194.86-72.857-287.14-60.496 8.6306-108.9-19.024-154.29-55.714-28.254-65.119-15.377-114.81 17.143-157.14 26.069-28.944 55.935-31.309 85.714-34.286-55.714-40.94-111.43-80.096-167.14-135.71-72.606-58.707-87.366-137.66-84.286-222.86 5.711-96.168 54.833-158.06 132.86-197.14 95.358-43.936 186.06-21.173 270 98.571 3.8722-78.308 16.671-157.89 47.143-240z"/><path id="path3765-5" d="m2015.2 3428c71.312 144.78 81.09 277.4 80.812 412.14-0.2891 140.22-21.724 422.47-117.18 549.52-153.2 203.92-247.9 456.62-177.79 711.15 66.758 242.36 185.99 191.62 294.76 59.916 112.62-136.36 184.17-411.9 83.382-663.44-78.235-195.25-16.826-459.43 8.5715-643.35 16.781-121.52 48.783-260.84 118.61-383.41" stroke="#98d6e6" stroke-width="29" fill="none"/><path id="path3767" d="m2134.3 3243.2c-20.726 111.37-63.813 217.7-187.14 180-68.421-20.913-123.36-89.621-77.143-184.29 28.789-58.973 84.759-56.165 120-37.143" stroke="#98d6e6" stroke-width="29" fill="none"/><path id="path3771-2" d="m2115.7 2886.1c-5.8887-140.81 32.882-438.44 100-437.14 67.118 1.2925 75.429 300.62 57.143 460" stroke="#98d6e6" stroke-width="29" fill="none"/><path id="path3773-7" fill="#98d6e6" d="m1937.7 2592.9c-57.167-1.7649-117.09 22.116-167.03 77.844-80.92 90.294-96.266 254.45-0.031 362.19 59.792 66.942 119 110.14 181.97 152.94 18.73 12.728 38.254 38.021 48.125 63.688s9.9927 49.691-2 64.625c-8.5802 10.685-17.548 13.844-27.875 13.562-10.328-0.2816-22.1-5.0917-31.719-12.875-5.1997-4.2076-8.4072-16.155-5.8125-24.406 1.2973-4.1256-0.6359-32.184 36.029-16.392-28.995-37.747-60.647-2.057-63.716 7.7049-6.1394 19.524-1.5255 42.025 15.281 55.625 13.826 11.189 30.895 18.846 49.125 19.344 18.23 0.4972 37.536-7.2581 51.281-24.375 21.05-26.213 18.499-61.938 6.4687-93.219-12.03-31.28-33.636-60.13-58.875-77.281-62.464-42.449-119.06-83.768-176.66-148.25-85.286-95.485-70.279-245.11 0-323.53 55.533-61.967 119.53-77.716 177.62-63.75 58.099 13.966 110.56 59.014 138.28 122.72l26.594-11.562c-31.059-71.364-90.139-123.01-158.09-139.34-12.742-3.0627-25.776-4.8427-38.969-5.25z"/><path id="path3781" d="m2088 3163.3c-66.58-58.141-163.28-116.9-214.15-204.05-32.877-56.324-43.123-146.08 10.102-193.95 44.816-40.304 109.56-32.413 141.42-8.0812" stroke="#98d6e6" stroke-width="29" fill="none"/><path id="path3809" d="m2247.1 3241.8c-34.369 74.848-14.831 179.34 25.225 207.6 44.288 31.25 98.831 29.666 127.63 15.257 55.709-27.871 65.67-107.09 40-164.29-15.545-34.636-65.114-52.832-105.99-25.59" stroke="#98d6e6" stroke-width="29" fill="none"/><path id="path3811" fill="#98d6e6" d="m2422.1 2696.2c-50.849-0.6929-104.66 26.163-153.38 86.531l22.594 18.219c47.9-59.361 95.541-79.036 138.44-75.344 42.896 3.6926 83.399 31.823 114.06 75.938 32.867 47.284 52.063 108.49 54.781 165.97 2.7183 57.481-11.197 110.62-40.75 143.16-33.851 37.268-86.277 60.781-130.31 84.062-67.26 35.56-112.13 67.527-133.47 112.28-7.3729 15.465-10.292 34.235-9.125 52.5 1.1674 18.265 6.1721 36.678 20.219 49 13.308 11.674 30.982 17.736 48.719 17.719 17.737-0.018 36.787-7.0176 47.594-23.906 10.878-17.001-5.7252-64.352-46.732-62.012 28.693 13.452 26.444 39.902 22.295 46.387-4.4999 7.0324-12.567 10.521-23.188 10.531-10.62 0.011-22.545-4.3443-29.562-10.5-4.8392-4.2451-9.5412-15.528-10.406-29.063-0.8651-13.535 1.8546-28.674 6.375-38.156 16.738-35.109 55.288-64.514 120.81-99.156 42.533-22.487 98.65-46.591 138.25-90.188 36.86-40.58 51.223-101.17 48.25-164.03-2.9729-62.865-23.443-128.65-59.938-181.16-34.205-49.209-81.596-83.652-135.38-88.281-3.3611-0.2893-6.7663-0.4538-10.156-0.5z"/><path id="path3817" fill="#98d6e6" d="m2396.2 2811.3c-24.95 0.6397-49.314 12.002-69.219 31.562-35.585 34.969-33.242 77.232-19.844 102.78 8.8158 16.812 24.571 28.197 41.594 33.469 17.022 5.2714 36.294 4.0206 51.719-7.4062 22.049-16.334 23.508-76.182-14.499-81.699 16.279 18.769 5.1437 52.089-3.5324 58.98-5.4856 4.3573-14.891 5.6067-25.125 2.4375-10.234-3.1691-19.97-10.67-24.469-19.25-8.5287-16.264-12.817-41.812 14.469-68.625 17.8-17.492 37.706-24.888 56.781-23 19.075 1.8881 38.555 13.033 55.344 37.906 29.342 43.473 25.52 120.09-4.9375 174.84-30.018 53.96-109.65 100.7-179 115.75l6.1563 28.312c76.563-16.62 161.43-63.948 198.16-129.97 35.291-63.439 41.873-148.54 3.6563-205.16-20.505-30.38-47.924-47.731-76.531-50.562-3.5759-0.3539-7.1545-0.4663-10.719-0.375z"/><path id="path3823" fill="#98d6e6" d="m2034.5 4527.6c-6.3426 0.2144-12.671 0.9261-19 2.125-50.633 9.5915-117.48 76.798-129.7 148.14 38.288-64.017 96.03-112.25 135.07-119.64 39.043-7.3958 96.436 9.1534 123.51 35.974-19.391-47.931-65.49-68.099-109.89-66.599z"/><path id="path3769" fill="#eb77d5" d="m2172.9 3434.7c19.113-52.356 60.757-137.81 112.2-205.65 41.574-54.827 67.449-124.09 82.084-191.49 24.583-113.21-110.54-256.79-160-94.286-31.572-137.06-220.07-106.75-211.43 57.143 3.1725 60.182 43.584 126.29 88.489 194.33 50.63 76.724 79.395 161.88 88.654 239.95z"/><path id="path3805" style="color:#000000" d="m550 595c0 22.486-10.873 40.714-24.286 40.714s-24.286-18.228-24.286-40.714 10.873-40.714 24.286-40.714 24.286 18.228 24.286 40.714z" fill-opacity=".50196" transform="matrix(.80638 -.59139 .59139 .80638 1349.9 2767.9)" fill="#fff"/><path id="path3807" style="color:#000000" d="m712.86 645.71c0 22.091-11.832 40-26.429 40-14.596 0-26.429-17.909-26.429-40s11.832-40 26.429-40c14.596 0 26.429 17.909 26.429 40z" fill-opacity=".50196" transform="matrix(.77871 -.62738 .62738 .77871 1353.9 2905.3)" fill="#fff"/><path id="path3847-6" fill="#d6fdf9" d="m2350.6 2844.1 44.447 55.558c7.512 20.54 9.9778 41.08 4.0406 61.619-23.907 8.2659-47.814 15.126-71.721-3.0305-32.098-61.034-8.4543-93.291 23.234-114.15z"/><path id="path3817-7" fill="#98d6e6" d="m2396.2 2811.3c-24.95 0.6396-49.314 12.002-69.219 31.562-35.585 34.969-33.242 77.232-19.844 102.78 8.8158 16.812 24.571 28.197 41.594 33.469 17.022 5.2714 36.294 4.0206 51.719-7.4062 22.049-16.334 23.508-76.182-14.499-81.699 16.279 18.769 5.1437 52.089-3.5324 58.98-5.4856 4.3572-14.891 5.6067-25.125 2.4375s-19.97-10.67-24.469-19.25c-8.5287-16.264-12.817-41.812 14.469-68.625 17.8-17.492 37.706-24.888 56.781-23 19.075 1.8881 38.555 13.033 55.344 37.906 29.342 43.473 25.52 120.09-4.9375 174.84l25.312 14.094c35.291-63.439 41.873-148.54 3.6563-205.16-20.505-30.38-47.924-47.731-76.531-50.562-3.5759-0.3539-7.1545-0.4664-10.719-0.375z"/><path id="path3849-1" fill="#d6fdf9" d="m2064.7 2829c5.6068 19.866 7.7859 39.733 0 59.599-23.61 23.738-48.806 33.997-77.782 12.122-11.133-15.753-26.446-29.678 4.0406-63.64z"/><path id="path3781-1" fill="#98d6e6" d="m1959.5 2722.5c-28.8 0.027-59.911 9.2122-85.25 32l19.375 21.562c19.477-17.516 43.166-24.542 65.906-24.562 22.74-0.021 44.262 7.4685 57.031 17.219 17.544 13.396 29.93 38.244 34.031 62.875 4.1017 24.631-0.9882 47.888-9.5938 57.156-9.2426 9.9541-17.657 12.297-25.594 11.688-7.9365-0.6099-15.31-5.4977-21.281-11.469-14.528-14.528-9.456-51.647 21.226-49.198-47.889-40.408-71.136 34.702-43.476 67.792 10.064 12.04 24.695 20.504 41.312 21.781s34.766-5.4466 49.062-20.844c18.69-20.128 22.017-51.152 16.938-81.656-5.0798-30.504-19.478-61.644-45.031-81.156-19.096-14.582-45.856-23.214-74.656-23.188z"/></g></g><g transform="translate(-80.399 -53.966)" stroke="#91d7ed" stroke-width="48.212" fill="#c0fbfd"><path id="path3911-5" style="color:#000000" d="m3564 3514c0 65.17-49.249 118-110 118s-110-52.83-110-118 49.249-118 110-118 110 52.83 110 118z" transform="matrix(.91264 0 0 .91264 915.04 592.48)"/><path id="path3911-45" style="color:#000000" d="m3564 3514c0 65.17-49.249 118-110 118s-110-52.83-110-118 49.249-118 110-118 110 52.83 110 118z" transform="matrix(.91264 0 0 .91264 782.1 640.57)"/><path id="path3911-82" style="color:#000000" d="m3564 3514c0 65.17-49.249 118-110 118s-110-52.83-110-118 49.249-118 110-118 110 52.83 110 118z" transform="matrix(.91264 0 0 .91264 601.08 561.37)"/><path id="path3911-8" style="color:#000000" d="m3564 3514c0 65.17-49.249 118-110 118s-110-52.83-110-118 49.249-118 110-118 110 52.83 110 118z" transform="matrix(.91264 0 0 .91264 439.86 451.06)"/><path id="path3911-4" style="color:#000000" d="m3564 3514c0 65.17-49.249 118-110 118s-110-52.83-110-118 49.249-118 110-118 110 52.83 110 118z" transform="matrix(.91264 0 0 .91264 -9.8603 -193.82)"/><path id="path3911-9" style="color:#000000" d="m3564 3514c0 65.17-49.249 118-110 118s-110-52.83-110-118 49.249-118 110-118 110 52.83 110 118z" transform="matrix(.91264 0 0 .91264 29.738 -21.286)"/><path id="path3911-0" style="color:#000000" d="m3564 3514c0 65.17-49.249 118-110 118s-110-52.83-110-118 49.249-118 110-118 110 52.83 110 118z" transform="matrix(.91264 0 0 .91264 157.02 165.39)"/><path id="path3911" style="color:#000000" d="m3564 3514c0 65.17-49.249 118-110 118s-110-52.83-110-118 49.249-118 110-118 110 52.83 110 118z" transform="matrix(.91264 0 0 .91264 296.59 320.87)"/></g><g transform="translate(-80.399 -53.966)"><path id="path3845-4" fill="#d9e3e9" d="m2814.3 3929.6c12.997 172.53-115.89 371.55-226.27 511.95-134.74 171.38-203.37 315.37-214.96 497.8-58.95-140.23-93.958-354.24-62.225-526.09 29.784-161.29 193.73-313.96 200.82-483.66l69.296-110.31c-32.132-97.109-46.94-214.02-1.4143-311.13-88.815-188.1-24.357-296.49 73.539-387.49-45.785-180.48-53.409-343.59 98.995-472.35-29.602-97.416-61.296-193.96-2.8284-328.1l217.79 395.98c6.1975 181.79 5.2256 361.98-107.48 528.92 114.96 174.73 2.6864 409.36-121.62 596.8z"/><path id="path3890" fill="#e9eff2" d="m2627.6 3977.7c-29.344 141.61-100.22 253.72-183.85 356.38-86.457 106.14-99.97 194.91-144.25 291.33 16.808 100.99 29.467 204.74 67.882 291.33 31.751-166.54 91.245-324.54 220.62-461.03 138.76-157.79 206.6-330.61 217.79-480.83z"/><path id="path3845" d="m2814.3 3929.6c12.997 172.53-115.89 371.55-226.27 511.95-134.74 171.38-203.37 315.37-214.96 497.8-58.95-140.23-93.958-354.24-62.225-526.09 29.784-161.29 193.73-313.96 200.82-483.66l69.296-110.31c-32.132-97.109-46.94-214.02-1.4143-311.13-88.815-188.1-24.357-296.49 73.539-387.49-45.785-180.48-53.409-343.59 98.995-472.35-29.602-97.416-61.296-193.96-2.8284-328.1l217.79 395.98c6.1975 181.79 5.2256 361.98-107.48 528.92 114.96 174.73 2.6864 409.36-121.62 596.8z" stroke="#b9cad6" stroke-miterlimit="7" stroke-width="59" fill="none"/><path id="path3847" d="m2882.2 3223.9c-263.4 176.98-264.85 393.14-152.74 615.18" stroke="#b9cad6" stroke-width="39" fill="none"/><path id="path3849" d="m2969.8 2713.4c-251.75 159.53-365.75 432.52-237.59 642.05" stroke="#b9cad6" stroke-width="39" fill="none"/><path id="path3851" d="m2842.6 2461.6c-88.35 149.02-78.14 296.49-70.539 436.92" stroke="#b9cad6" stroke-width="39" fill="none"/><path id="path3853" d="m2590.8 3194.2c-50.67 111.72-26.877 280.77 65.054 379.01" stroke="#b9cad6" stroke-width="39" fill="none"/><path id="path3874" clip-path="url(#clipPath3886)" fill="#eb77d6" d="m2776.1 3707.6-264.46 43.841c-30.844 32.295-24.392 68.734-22.627 104.65-53.008 61.425-25.32 101.93 22.627 137.18 92.395 11.178 184.79 28.882 277.19-7.0711 75.388-40.593 46.393-94.051 43.841-144.25 96.464-90.911 10.578-108.88-56.569-134.35z"/><path id="path3855" clip-path="url(#clipPath3882)" fill="#bf5ead" d="m2763.4 3678.1-4.7187 0.8438-175.25 31.875c-34.424 2.8826-62.927 12.848-84.063 29.562-21.629 17.105-34.902 42.22-35.187 68.25-0.5703 52.061 61.707 107.1 147.88 90.563-89.518-21.525-120.86-76.428-76.095-112.53 9.8122-7.9136 27.558-15.328 54.156-17.281l1.5626-0.094 1.5624-0.2813 170.94-31.094c43.056 6.72 67.243 19.026 75.812 27.594 8.8668 8.8654 8.5609 10.732 2.9688 22.625-11.184 23.786-58.14 80.205-162.85 110.39 93.28-0.9255 189.93-29.284 216.26-85.268 13.162-27.992 9.3579-65.458-14.656-89.469-24.014-24.01-60.874-37.528-113.59-45.031l-4.7187-0.6562z"/><path id="path3861" d="m2832.7 3844.7c33.592 78.868 7.1519 131.82-56.569 148.49-80.07 20.956-172.37 10.198-246.07-5.6569-61.503-13.23-93.416-75.399-38.184-137.18" clip-path="url(#clipPath3878)" stroke="#bf5ead" stroke-width="59" fill="none"/></g><g transform="translate(-80.399 -53.966)"><path id="path3974" d="m3365.8 829.64-379.01 791.96c-304.39 377.35-194 941.74 101.82 1295.4 340.87 407.54 953.2 469.64 1414.2 339.41 480.34-135.69 907.12-616.45 780.65-1114.4l-101.7-1170.9" stroke="#7c929a" stroke-width="59" fill="#a9b5c0"/><path id="path3976" fill="#7c929a" d="m3733.5 2719c87.681-42.759 223.45-14.297 280.01 56.569-73.539-36.002-186.68-65.292-280.01-56.569z"/><path id="path3978" fill="#7c929a" d="m3988.1 2922.7c38.035 75.636-5.524 105.33-56.568 76.368 29.999-11.527 56.33-27.64 56.568-76.368z"/><path id="path3980" fill="#7c929a" d="m3705.2 2854.8c-6.5259 32.056 5.3333 64.111 21.213 96.167-61.188-4.8808-80.7-55.822-21.213-96.167z"/><path id="path3982" fill="#7c929a" d="m3609.1 2922.7c39.241 288.69 307.71 355.21 455.38 90.51-72.855 325.8-501.35 230.45-455.38-90.51z"/></g><g transform="translate(-80.399 -53.966)"><path id="path3998" fill="#a9b5c0" d="m4978 1647.1 231.93 664.68c130.51-27.355 239.54-104.81 347.9-183.85 134.7-197.03 234.38-424.71 248.9-726.91 39.517-317.7-85.931-376.81-325.27-257.39z"/><path id="path3990" fill="#7c929a" d="m5680.2 1062.8c-66.588-1.1824-139.03 30.222-212.09 62.219l-5.0312 2.2187-3.9062 3.875-512 508 41.562 41.875 507.97-504c80.319-34.885 157.17-61.088 201.66-53.438 22.7 3.9037 37.392 12.771 50.5 36.594s22.425 64.86 21.594 127.5c-3.7657 283.73-53.972 513.36-150.94 684.88-96.966 171.51-225.48 274.82-431.26 343.64 258.09-21.69 378.86-131.11 482.6-314.6s154.74-422.86 158.59-713.09c0.9095-68.53-8.2153-119.15-28.906-156.75-20.691-37.603-55.151-59.943-92.188-66.312-9.259-1.5923-18.644-2.4249-28.156-2.5938z"/><path id="path3996" fill="#7c929a" d="m5591.8 1531.1c25.951 216.47-68.768 410.19-229.1 528.92 120.99-151.51 204.01-324.12 229.1-528.92z"/></g><g transform="translate(-80.399 -53.966)"><path id="path4027" clip-path="url(#clipPath4050)" fill="#fff" d="m4225.7 2243.8 56.569 786.3 548.71 39.598 407.29-673.17z"/><path id="path4025" clip-path="url(#clipPath4066)" fill="#fff" d="m2834.1 1836.6 5.6568 774.99 678.82 186.68 135.76-735.39z"/><path id="path4013" style="color:#000000" d="m4910.1 2591.7c0 209.32-130.43 379.01-291.33 379.01s-291.33-169.69-291.33-379.01 130.43-379.01 291.33-379.01 291.33 169.69 291.33 379.01z" clip-path="url(#clipPath4046)" transform="matrix(.95578 .30703 -.29436 1.0117 930.38 -1472.2)" fill="url(#linearGradient4086)"/><path id="path4015" style="color:#000000" d="m3770.3 2119.4c0 226.5-140.56 410.12-313.96 410.12-173.39 0-313.96-183.62-313.96-410.12s140.56-410.12 313.96-410.12c173.39 0 313.96 183.62 313.96 410.12z" clip-path="url(#clipPath4062)" transform="matrix(.92436 .22850 -.22419 .95207 590.91 -580.7)" fill="url(#linearGradient4084)"/><path id="path4017" style="color:#000000" d="m4876.2 2605.9c0 192.14-110.17 347.9-246.07 347.9s-246.07-155.76-246.07-347.9 110.17-347.9 246.07-347.9 246.07 155.76 246.07 347.9z" clip-path="url(#clipPath4042)" transform="matrix(.92584 .21279 -.20537 .97703 809.17 -1030)"/><path id="path4019" style="color:#000000" d="m3544 2219.8c0 171.05-94.342 309.71-210.72 309.71s-210.72-138.66-210.72-309.71 94.342-309.71 210.72-309.71 210.72 138.66 210.72 309.71z" clip-path="url(#clipPath4058)" transform="matrix(1.0089 .18810 -.19092 .98220 394.18 -581.81)"/><path id="path4021" style="color:#000000" d="m4760.2 2478.6c0 56.236-91.176 101.82-203.65 101.82s-203.65-45.588-203.65-101.82c0-56.236 91.176-101.82 203.65-101.82s203.65 45.588 203.65 101.82z" clip-path="url(#clipPath4038)" transform="matrix(.73754 -.59360 .54401 .80476 -197.28 3168.9)" fill="#fff"/><path id="path4023" style="color:#000000" d="m3357.3 2195.8c0 98.412-59.518 178.19-132.94 178.19-73.419 0-132.94-79.779-132.94-178.19 0-98.412 59.518-178.19 132.94-178.19 73.419 0 132.94 79.779 132.94 178.19z" clip-path="url(#clipPath4054)" transform="matrix(.48115 1.0341 -.87841 .60851 3629.6 -2546)" fill="#fff"/><path id="path4070" style="color:#000000" d="m4726.3 2586.1c0 32.804-19.628 59.397-43.841 59.397-24.212 0-43.841-26.593-43.841-59.397s19.628-59.397 43.841-59.397c24.212 0 43.841 26.593 43.841 59.397z" transform="matrix(.91640 .068708 -.084923 .98473 599.07 -270.23)" fill="#fff"/><path id="path4072" style="color:#000000" d="m4548.1 2643.4c0 16.793-9.1809 30.406-20.506 30.406s-20.506-13.613-20.506-30.406c0-16.792 9.1809-30.406 20.506-30.406s20.506 13.613 20.506 30.406z" fill="#fff"/><path id="path4074" style="color:#000000" d="m3333.3 2330.1c0 16.402-9.4974 29.698-21.213 29.698s-21.213-13.296-21.213-29.698 9.4975-29.698 21.213-29.698 21.213 13.296 21.213 29.698z" transform="translate(-4.2426 5.6569)" fill="#fff"/><path id="path4076" style="color:#000000" d="m3507.2 2283.4c0 30.461-17.412 55.154-38.891 55.154s-38.891-24.693-38.891-55.154 17.412-55.154 38.891-55.154 38.891 24.694 38.891 55.154z" transform="matrix(.96186 .44519 -.42250 1.0135 1086.5 -1577.8)" fill="#fff"/></g><g transform="translate(-80.399 -53.966)"><path id="path4092-1" fill="#d9e3e9" d="m3343.2 631.65c275.43-430.79 1503-891.49 2155.3-175.36 306.17 336.17 222.69 728.94 28.284 1018.2-370.53 551.38-1346.1 449.88-1981.8 15.314 250.79 21.257 365.1-57.452 484.71-202.27-199.67 75.374-467.95 79.783-596.88-69.941-135.47-157.32-242.38-346.91-89.539-585.97z"/><path id="path4094" fill="#e9eff2" d="m3965.5 207.38c1018.2 214.2 459.02 1348.6 33.941 1499.1 114.95 53.025 236.44 86.417 362.04 107.48 619.99-68.35 977.66-1162.4 390.32-1719.7-285.56-22.168-551.02 6.9915-786.3 113.14z"/><path id="path4092" d="m3343.2 631.65c275.43-430.79 1503-891.49 2155.3-175.36 306.17 336.17 222.69 728.94 28.284 1018.2-370.53 551.38-1346.1 449.88-1981.8 15.314 250.79 21.257 365.1-57.452 484.71-202.27-199.67 75.374-467.95 79.783-596.88-69.941-135.47-157.32-242.38-346.91-89.539-585.97z" stroke="#b9cad6" stroke-miterlimit="7" stroke-width="59" fill="none"/></g><g transform="translate(-80.399 -53.966)"><path id="path4123" fill="#a9b5c0" d="m2944.4 1797 367.7-418.61c8.133-87.857-2.4718-185.08-8.4853-280.01-30.297-195.45-85.773-385.3-183.85-565.69-77.345-95.175-150.81-89.612-220.62 11.314-201.64 362.49-299.9 716.87-118.79 1049.3 54.683 75.253 109.37 143.48 164.05 203.65z"/><path id="path4115" fill="#7c929a" d="m3011.5 440.81c-3.5484 0.15222-7.0888 0.47767-10.594 1-56.079 8.3573-98.394 55.13-134.22 115.06-120.74 201.98-205.95 439.96-211.62 667.28-5.6791 227.32 114.62 473.58 296.3 575.95-130.32-141.63-242.63-360.94-237.3-574.45 5.334-213.51 86.755-443.64 203.25-638.53 31.705-53.041 66.625-83.114 92.281-86.938 12.828-1.9117 25.068 0.39643 41.375 11.844 16.307 11.447 35.62 32.881 55.594 66.906 141.06 240.29 197.52 572.49 203 802.06 53.481-234.43-3.6447-579.01-152.13-831.94-22.791-38.823-46.403-66.949-72.562-85.312-22.89-16.068-48.536-24.003-73.375-22.938z"/><path id="path4121" fill="#7c929a" d="m2946.1 910.83c-70.9 138.67-88.8 356.87-54.1 565.17-93.24-182.42-41.06-429.48 54.142-565.17z"/></g><g transform="translate(-80.399 -53.966)"><path id="path4089" d="m4328 2476c223.33-35.084 448.46-41.588 670 16 92.304 23.993 187.12-4.778 252-62-71.736 38.909-146.05 35.702-224 20-203.18-40.924-475.7-72.516-698 26z"/><path id="path4125" d="m4887.5 2430.5c60.181-27.28 116.99-62.347 148.49-107.48-17.69 50.435-60.662 94.344-108.89 120.21z"/><path id="path4127" d="m5014.8 2454.6c73.372-15.339 130.71-39.704 169.71-82.024-23.128 46.018-44.09 80.207-98.995 94.752z"/><path id="path4129" d="m3586 2308c-127.41-88.68-394.24-240.27-646-266-74.557-7.6194-144.6-81.167-140-162 33.286 70.532 73.333 108.08 138 116 248.67 30.45 557.06 180.03 648 312z"/><path id="path4131" d="m2978 2014c-69.425-33.224-101.22-95.116-122-150-0.4458 55.462 2.5241 93.953 43.615 140.93z"/><path id="path4133" d="m3063.2 2037.4c-40.079-50.476-61.565-110.2-77.782-172.53 30.914 68.453 69.436 120.37 124.45 176.78z"/><path id="path4135" d="m3872 1830c-42.092 65.922-86.994 92.866-176 54l-600-262c-51.884-22.656-73.878 16.509-28 36l612 260c91.809 39.004 131.05 34.175 156.04 8.4054 21.118-21.782 34.468-58.526 35.963-96.405z"/><path id="path4137" d="m4214.4 1921.4c9.2403 86.006 45.386 125.82 135.76 127.28l698.62 11.314c91.534 1.4823 80.3 52.839 0 50.912l-707.11-16.971c-45.846-1.1003-102.16 2.2394-127.28-57.983-15.963-38.274-13.05-76.054 0-114.55z"/></g><g transform="translate(-80.399 -53.966)"><path id="path4153" fill-opacity=".56471" fill="#fff" d="m3832.5 2311.7c-212.8-276-631-408.4-1035.2-412.9-58.245 369.86 45.178 627.54 356.38 741.05 321.7 77.661 545.68-36.189 678.82-328.1z"/><path id="path4151" fill-opacity=".56471" fill="#fff" d="m4157.8 2374c430.48-160.95 774.88-50.43 1108.7 93.338-76.984 290.34-211.11 528.73-616.6 520.43-400.45-90.937-479.91-336.19-492.15-613.77z"/><path id="path4147" fill-opacity=".25098" fill="#fff" d="m5195.8 2433.4c-18.573 125.67-108.43 354.3-260.22 500.63-197.77 88.763-389.9 62.006-577-67.882 116.85-158.22 286.88-393.23 362.04-568.51 158.39 28.325 316.78 70.172 475.18 135.76z"/><path id="path4149" fill-opacity=".25098" fill="#fff" d="m3360.2 1995.3c9.6276 226.27 43.35 442.9 79.196 658.68-214.72 36.816-430.77-18.487-568.51-231.93-42.288-171.59-56.641-341.18-50.912-514.77 180.08-6.3442 360.15 41.975 540.23 88.024z"/><path id="path4144" stroke-linejoin="round" d="m4158 2386c368.75-185.98 860.27-41.694 1108 86-66.614 272.93-263.76 539.52-582 516-344.69-25.479-542.74-301.12-526-602zm-326-66c-199.88-295.7-680.8-407.5-1038-418-46.412 320.22-1.7119 598.22 336 734 295.27 118.71 581.03-50.339 702-316zm1561.8 189.72 84.853 5.6568c10.205-34.107 17.133-71.491 19.799-113.14-372.84-191.88-981.64-392.59-1397.2-107.48-75.828-71.386-136.88-56.852-197.99-39.598-197.35-411.94-808.82-513.47-1301.1-520.43-15.651 33.753-18.279 71.846-11.314 113.14 20.742 14.58 47.14 27.276 67.882 39.598-64.58 316.96 68.472 739.06 469.52 865.5 344.2 108.51 628.9-77.63 800.44-408.71 41.109-10.95 78.598-5.8418 114.55 11.314 32.731 562.58 341.78 758.04 683.07 739.63 403.92-21.784 574.31-314.46 667.51-585.48z" fill-rule="evenodd" stroke="#2aa9cd" stroke-width="44" fill="#bdfef8"/></g></svg>