<?xml version="1.0" encoding="UTF-8" standalone="no"?>
<!-- Created with Inkscape (http://www.inkscape.org/) -->

<svg
   xmlns:dc="http://purl.org/dc/elements/1.1/"
   xmlns:cc="http://creativecommons.org/ns#"
   xmlns:rdf="http://www.w3.org/1999/02/22-rdf-syntax-ns#"
   xmlns:svg="http://www.w3.org/2000/svg"
   xmlns="http://www.w3.org/2000/svg"
   xmlns:xlink="http://www.w3.org/1999/xlink"
   xmlns:sodipodi="http://sodipodi.sourceforge.net/DTD/sodipodi-0.dtd"
   xmlns:inkscape="http://www.inkscape.org/namespaces/inkscape"
   width="5583.7534"
   height="5583.7388"
   id="svg2"
   version="1.1"
   inkscape:version="0.48.4 r9939"
   viewBox="0 0 5583.7534 5583.7389"
   sodipodi:docname="Sonata Dusk.svg">
  <title
     id="title4076">Sonata Dusk</title>
  <defs
     id="defs4">
    <linearGradient
       inkscape:collect="always"
       id="linearGradient4406">
      <stop
         style="stop-color:#bc4081;stop-opacity:1;"
         offset="0"
         id="stop4408" />
      <stop
         style="stop-color:#5c2040;stop-opacity:1"
         offset="1"
         id="stop4410" />
    </linearGradient>
    <clipPath
       clipPathUnits="userSpaceOnUse"
       id="clipPath4101">
      <path
         style="fill:none;stroke:#000000;stroke-width:1px;stroke-linecap:butt;stroke-linejoin:miter;stroke-opacity:1"
         d="m 428.30468,862.61925 8.08122,-288.90362 -38.3858,6.06091 52.52793,-222.23356 -60.60915,36.36549 42.42641,-155.56348 88.89342,56.56853 z M 662.66007,424.70326 C 670.3349,296.86102 632.04648,167.83824 472.75139,145.41095 L 436.38591,24.192642 589.52503,8.8383224 711.14739,161.57339 z"
         id="path4103-7"
         inkscape:connector-curvature="0"
         sodipodi:nodetypes="cccccccccccccc" />
    </clipPath>
    <clipPath
       clipPathUnits="userSpaceOnUse"
       id="clipPath4274">
      <path
         style="opacity:0.5;fill:#00ff00;fill-opacity:1;stroke:#ff0000;stroke-width:1.07659733px;stroke-linecap:butt;stroke-linejoin:miter;stroke-opacity:1;display:inline"
         d="m 1047.204,1994.5108 c -64.59423,-240.8581 -83.17833,-522.432 4.2642,-775.6794 28.257,-81.8366 74.5686,-90.2597 118.7496,1.4239 92.105,191.1339 97.0344,540.8976 -29.5275,708.0645 z"
         id="path4276"
         inkscape:connector-curvature="0"
         sodipodi:nodetypes="csscc"
         inkscape:transform-center-x="48.516534"
         inkscape:transform-center-y="-433.6577" />
    </clipPath>
    <clipPath
       clipPathUnits="userSpaceOnUse"
       id="clipPath4351">
      <path
         style="opacity:0.5;fill:#00ff00;fill-opacity:1;stroke:#ff0000;stroke-width:1.06630957px;stroke-linecap:butt;stroke-linejoin:miter;stroke-opacity:1;display:inline"
         d="m 1461.469,2150.1428 c -9.8882,-325.4695 53.6368,-588.3549 249.6925,-722.7524 195.324,-133.8961 652.4305,-187.3462 519.523,357.7794 -98.8311,405.3604 -427.7433,485.4758 -769.2155,364.973 z"
         id="path4353"
         inkscape:connector-curvature="0"
         sodipodi:nodetypes="cssc"
         inkscape:transform-center-x="-422.25157"
         inkscape:transform-center-y="-386.43831" />
    </clipPath>
    <clipPath
       clipPathUnits="userSpaceOnUse"
       id="clipPath4380">
      <path
         style="opacity:0.5;fill:#00ff00;fill-opacity:1;stroke:#ff0000;stroke-width:1.07659733px;stroke-linecap:butt;stroke-linejoin:miter;stroke-opacity:1;display:inline"
         d="m 1047.204,1994.5108 c -64.59423,-240.8581 -83.17833,-522.432 4.2642,-775.6794 28.257,-81.8366 74.5686,-90.2597 118.7496,1.4239 92.105,191.1339 100.0344,540.8976 -26.5275,708.0645 z"
         id="path4382"
         inkscape:connector-curvature="0"
         sodipodi:nodetypes="csscc"
         inkscape:transform-center-x="48.516534"
         inkscape:transform-center-y="-433.6577" />
    </clipPath>
    <clipPath
       clipPathUnits="userSpaceOnUse"
       id="clipPath4310">
      <path
         inkscape:transform-center-y="-386.43831"
         inkscape:transform-center-x="-422.25157"
         sodipodi:nodetypes="cssc"
         inkscape:connector-curvature="0"
         id="path4312"
         d="m 1755.094,1917.9809 c -56.5251,-320.676 -31.4104,-589.9591 143.3129,-751.1184 174.0712,-160.5579 618.764,-279.09717 565.5174,279.4645 -39.5946,415.3514 -353.5926,541.8702 -708.8303,471.6539 z"
         style="opacity:0.5;fill:#00ff00;fill-opacity:1;stroke:#ff0000;stroke-width:1.06630957px;stroke-linecap:butt;stroke-linejoin:miter;stroke-opacity:1;display:inline" />
    </clipPath>
    <clipPath
       clipPathUnits="userSpaceOnUse"
       id="clipPath4314">
      <path
         inkscape:transform-center-y="-386.43831"
         inkscape:transform-center-x="-422.25157"
         sodipodi:nodetypes="cssc"
         inkscape:connector-curvature="0"
         id="path4316"
         d="m 1755.094,1917.9809 c -56.5251,-320.676 -31.4104,-589.9591 143.3129,-751.1184 174.0712,-160.5579 618.764,-279.09717 565.5174,279.4645 -39.5946,415.3514 -353.5926,541.8702 -708.8303,471.6539 z"
         style="opacity:0.5;fill:#00ff00;fill-opacity:1;stroke:#ff0000;stroke-width:1.06630957px;stroke-linecap:butt;stroke-linejoin:miter;stroke-opacity:1;display:inline" />
    </clipPath>
    <clipPath
       clipPathUnits="userSpaceOnUse"
       id="clipPath4350">
      <path
         inkscape:transform-center-y="-433.6577"
         inkscape:transform-center-x="48.516534"
         sodipodi:nodetypes="csscc"
         inkscape:connector-curvature="0"
         id="path4352"
         d="m 1047.204,1994.5108 c -64.59423,-240.8581 -83.17833,-522.432 4.2642,-775.6794 28.257,-81.8366 74.5686,-90.2597 118.7496,1.4239 92.105,191.1339 97.0344,540.8976 -29.5275,708.0645 z"
         style="opacity:0.5;fill:#00ff00;fill-opacity:1;stroke:#ff0000;stroke-width:1.07659733px;stroke-linecap:butt;stroke-linejoin:miter;stroke-opacity:1;display:inline" />
    </clipPath>
    <clipPath
       clipPathUnits="userSpaceOnUse"
       id="clipPath4390">
      <ellipse
         style="color:#000000;fill:#ff0000;fill-opacity:1;fill-rule:nonzero;stroke:none;stroke-width:1px;marker:none;visibility:visible;display:inline;overflow:visible;enable-background:accumulate"
         id="ellipse4392"
         cx="2042.6084"
         cy="1554.6226"
         rx="309.81622"
         ry="388.16055"
         clip-path="none"
         transform="matrix(0.98963496,0.1436059,-0.1436059,0.98963496,0,0)"
         sodipodi:cx="2042.6084"
         sodipodi:cy="1554.6226"
         sodipodi:rx="309.81622"
         sodipodi:ry="388.16055" />
    </clipPath>
    <clipPath
       clipPathUnits="userSpaceOnUse"
       id="clipPath4394">
      <ellipse
         style="color:#000000;fill:#ff0000;fill-opacity:1;fill-rule:nonzero;stroke:none;stroke-width:1px;marker:none;visibility:visible;display:inline;overflow:visible;enable-background:accumulate"
         id="ellipse4396"
         cx="2042.6084"
         cy="1554.6226"
         rx="309.81622"
         ry="388.16055"
         clip-path="none"
         transform="matrix(0.98963496,0.1436059,-0.1436059,0.98963496,0,0)"
         sodipodi:cx="2042.6084"
         sodipodi:cy="1554.6226"
         sodipodi:rx="309.81622"
         sodipodi:ry="388.16055" />
    </clipPath>
    <clipPath
       clipPathUnits="userSpaceOnUse"
       id="clipPath4398">
      <ellipse
         style="color:#000000;fill:#ff0000;fill-opacity:1;fill-rule:nonzero;stroke:none;stroke-width:1px;marker:none;visibility:visible;display:inline;overflow:visible;enable-background:accumulate"
         id="ellipse4400"
         cx="1201.799"
         cy="1760"
         rx="162"
         ry="396"
         clip-path="none"
         sodipodi:cx="1201.799"
         sodipodi:cy="1760"
         sodipodi:rx="162"
         sodipodi:ry="396" />
    </clipPath>
    <clipPath
       clipPathUnits="userSpaceOnUse"
       id="clipPath4402">
      <ellipse
         style="color:#000000;fill:#ff0000;fill-opacity:1;fill-rule:nonzero;stroke:none;stroke-width:1px;marker:none;visibility:visible;display:inline;overflow:visible;enable-background:accumulate"
         id="ellipse4404"
         cx="1201.799"
         cy="1760"
         rx="162"
         ry="396"
         clip-path="none"
         sodipodi:cx="1201.799"
         sodipodi:cy="1760"
         sodipodi:rx="162"
         sodipodi:ry="396" />
    </clipPath>
    <linearGradient
       inkscape:collect="always"
       xlink:href="#linearGradient4406"
       id="linearGradient4412"
       x1="2077.4224"
       y1="1865.1339"
       x2="2000.5907"
       y2="1335.6622"
       gradientUnits="userSpaceOnUse" />
    <linearGradient
       inkscape:collect="always"
       xlink:href="#linearGradient4406"
       id="linearGradient4420"
       x1="1119.799"
       y1="1917.2554"
       x2="1119.799"
       y2="1481.2554"
       gradientUnits="userSpaceOnUse" />
  </defs>
  <sodipodi:namedview
     id="base"
     pagecolor="#ffffff"
     bordercolor="#666666"
     borderopacity="1.0"
     inkscape:pageopacity="0.0"
     inkscape:pageshadow="2"
     inkscape:zoom="0.044194175"
     inkscape:cx="8132.2642"
     inkscape:cy="669.33015"
     inkscape:document-units="px"
     inkscape:current-layer="layer15"
     showgrid="false"
     fit-margin-top="0"
     fit-margin-left="506.51"
     fit-margin-right="506.51"
     fit-margin-bottom="0"
     inkscape:snap-global="false"
     inkscape:window-width="1920"
     inkscape:window-height="1028"
     inkscape:window-x="1272"
     inkscape:window-y="217"
     inkscape:window-maximized="1"
     inkscape:object-nodes="true"
     inkscape:object-paths="true"
     inkscape:snap-smooth-nodes="true" />
  <metadata
     id="metadata7">
    <rdf:RDF>
      <cc:Work
         rdf:about="">
        <dc:format>image/svg+xml</dc:format>
        <dc:type
           rdf:resource="http://purl.org/dc/dcmitype/StillImage" />
        <dc:title>Sonata Dusk</dc:title>
      </cc:Work>
    </rdf:RDF>
  </metadata>
  <g
     inkscape:groupmode="layer"
     id="layer2"
     inkscape:label="Background"
     sodipodi:insensitive="true"
     style="display:none"
     transform="translate(-299.09173,128.54972)">
    <rect
       style="color:#000000;fill:#000000;fill-opacity:1;fill-rule:nonzero;stroke:#00ff00;stroke-width:0.99569345;stroke-linecap:butt;stroke-linejoin:miter;stroke-miterlimit:4;stroke-opacity:1;stroke-dasharray:none;stroke-dashoffset:0;marker:none;visibility:visible;display:inline;overflow:visible;enable-background:accumulate"
       id="rect4074"
       width="6174.0566"
       height="5592.209"
       x="-80.814407"
       y="-11.394427" />
  </g>
  <g
     inkscape:groupmode="layer"
     id="layer15"
     inkscape:label="Rear Mane"
     sodipodi:insensitive="true"
     transform="translate(-299.09173,128.54972)">
    <path
       style="fill:#4ca1bb;fill-opacity:1;stroke:#326a78;stroke-width:49;stroke-linecap:butt;stroke-linejoin:miter;stroke-miterlimit:4;stroke-opacity:1;stroke-dasharray:none"
       d="m 1126.2855,1088.7546 c 30.7484,489.0004 25.0151,923.1769 -249.07732,1242.8517 C 1361.8038,2175.4027 1438.486,1631.1665 1437.23,1134.901 z"
       id="path4409"
       inkscape:connector-curvature="0"
       sodipodi:nodetypes="cccc" />
    <path
       style="fill:#4ca1bb;fill-opacity:1;stroke:none"
       d="m 2003.8823,580.56867 c 91.9179,-399.20007 380.7361,-727.70749 880,-680.000037 499.2639,47.70745 800,517.179697 800,960.000047 0,442.82032 -203.3367,893.74232 -417.1036,1271.05832 -213.7669,377.3159 -537.5864,822.3169 -358.8964,1032.9418 178.69,210.6249 383.8084,61.2453 480,-128 34.3873,418.3873 -166.111,577.889 -520,504 182.6381,141.0478 365.8609,111.942 512,-8 -181.282,377.0262 -562.875,437.7806 -926.9462,242.3675 88.2485,126.3746 197.0606,190.6561 350.9462,229.6325 -680.3335,19.9834 -871.773,-628.3052 -728,-1000 143.773,-371.6948 411.2059,-561.4767 568.7453,-854.3885 157.5395,-292.9119 345.8009,-643.5462 391.2547,-1009.6118 45.4538,-366.06545 -206.8767,-965.05466 -640,-495.99983 z"
       id="path4411"
       inkscape:connector-curvature="0"
       sodipodi:nodetypes="czzzzccccczzzcc" />
    <path
       style="fill:none;stroke:#286270;stroke-width:31;stroke-linecap:butt;stroke-linejoin:miter;stroke-miterlimit:4;stroke-opacity:1;stroke-dasharray:none"
       d="m 2107.8823,516.56856 c 319.7517,-659.56859 1059.4229,-589.217844 1368,-280.00001"
       id="path4443"
       inkscape:connector-curvature="0"
       sodipodi:nodetypes="cc" />
    <path
       id="path4447-1"
       style="fill:#242661;fill-opacity:1;stroke:none"
       d="m 2911.8823,3564.5687 c -261.604,-97.3515 -341.5722,-395.133 -252,-656 89.2371,-259.8913 249.0227,-488.3436 393.2601,-739.2758 168.3398,-292.8634 407.7708,-586.9285 466.7399,-988.7244 58.9691,-401.79584 -19.4621,-741.0106 -296,-927.99993 -276.5379,-186.989335 -789.7978,-127.19126 -1040,280 l 60,11.99999 c 213.6457,-214.71226 469.8235,-321.54011 756,-188.00001 286.1765,133.54012 350.72,457.31439 336,735.99995 -14.72,278.6856 -199.9082,616.1494 -397.9375,958.2208 -189.5348,327.3981 -422.7291,661.3542 -480.6899,1002.8332 -57.9608,341.4789 153.2624,716.6648 546.6274,798.9462 182.1329,-37.1598 288.3709,-140.3152 348,-284.0001 -146.6667,89.0367 -293.3333,93.5918 -440,-3.9999 z"
       inkscape:connector-curvature="0"
       sodipodi:nodetypes="cssssccssssccc" />
    <path
       style="fill:none;stroke:#26616f;stroke-width:31;stroke-linecap:butt;stroke-linejoin:miter;stroke-miterlimit:4;stroke-opacity:1;stroke-dasharray:none"
       d="m 2183.8823,532.56856 c 222.2022,-391.19126 763.4621,-466.989328 1040,-280 276.5379,186.98933 354.9691,526.20409 296,927.99994 -58.9691,401.7959 -302.4001,699.861 -470.7399,992.7244 -144.2374,250.9322 -300.023,475.3845 -389.2601,735.2757 -89.5722,260.867 -9.604,558.6485 252,656"
       id="path4445"
       inkscape:connector-curvature="0"
       sodipodi:nodetypes="czzssc" />
    <path
       style="fill:none;stroke:#26616f;stroke-width:31;stroke-linecap:butt;stroke-linejoin:miter;stroke-miterlimit:4;stroke-opacity:1;stroke-dasharray:none"
       d="m 2243.8823,544.56855 c 213.6457,-214.71225 485.8235,-325.54011 772,-192 286.1765,133.54011 330.72,493.31438 316,771.99995 -14.72,278.6856 -195.9082,584.1494 -393.9375,926.2208 -189.5348,327.3981 -422.7291,661.3542 -480.6899,1002.8331 -57.9608,341.4789 161.2624,724.6648 554.6274,806.9462"
       id="path4447"
       inkscape:connector-curvature="0"
       sodipodi:nodetypes="czzszc" />
    <path
       style="fill:#242661;fill-opacity:1;stroke:none"
       d="m 2687.8823,3986.5687 c -281.8239,-142.4407 -626.1338,-622.9642 -444,-962.0001 182.1337,-339.0357 449.2995,-779.9828 620,-1092.0001 170.7005,-312.0173 283.8956,-643.5307 280,-935.99991 -3.8956,-292.46928 -126.952,-567.30561 -398,-594.00001 -141.3513,-13.9211 -308.2557,63.70065 -390,206 l 68,35.99997 c 74.4113,-107.71645 185.6222,-160.23341 324,-172 168.4953,74.17135 261.958,247.37533 292,460.00001 6.94,343.40164 -56.7047,660.15714 -304,939.99994 -97.2833,399.547 -400.4557,668.0737 -604,1000.0001 -333.4479,614.512 172.5072,1128.429 556,1114.0001 z"
       id="path4483-8"
       inkscape:connector-curvature="0"
       sodipodi:nodetypes="czzzsccccccc" />
    <path
       style="fill:none;stroke:#26616f;stroke-width:49;stroke-linecap:butt;stroke-linejoin:miter;stroke-miterlimit:9;stroke-opacity:1;stroke-dasharray:none"
       d="m 2003.8823,580.56868 c 91.9179,-399.20007 380.7361,-727.7075 880,-680.000047 499.2639,47.70745 800,517.179707 800,960.000067 0,442.8203 -203.3367,893.7423 -417.1036,1271.0583 -213.7669,377.3159 -537.5864,822.317 -358.8964,1032.9419 178.69,210.6249 383.8084,61.2453 480,-128 34.3873,418.3873 -166.111,577.889 -520,504 182.6381,141.0478 365.8609,111.942 512,-8 -181.282,377.0262 -560.875,445.7806 -924.9462,250.3675 83.844,117.4531 202.4979,176.7063 348.9462,221.6325 -680.3335,19.9834 -871.773,-628.3052 -728,-1000 143.773,-371.6948 411.2059,-561.4768 568.7453,-854.3886 157.5395,-292.9119 345.8009,-643.5462 391.2547,-1009.6118 45.4538,-366.06543 -206.8767,-965.05465 -640,-495.99982 z"
       id="path4411-1"
       inkscape:connector-curvature="0"
       sodipodi:nodetypes="czzzzccccczzzcc" />
    <path
       style="fill:none;stroke:#26616f;stroke-width:31;stroke-linecap:butt;stroke-linejoin:miter;stroke-miterlimit:4;stroke-opacity:1;stroke-dasharray:none"
       d="m 2687.8823,3986.5686 c -281.8239,-142.4407 -626.1337,-622.9642 -444,-962 182.1337,-339.0357 449.2995,-779.9828 620,-1092.0001 170.7005,-312.0173 283.8956,-643.5307 280,-935.99994 -3.8956,-292.46928 -126.952,-567.3056 -398,-594 -141.3513,-13.9211 -308.2557,63.70065 -390,206"
       id="path4483"
       inkscape:connector-curvature="0"
       sodipodi:nodetypes="czzzsc" />
  </g>
  <g
     inkscape:groupmode="layer"
     id="layer18"
     inkscape:label="Rear Ear"
     sodipodi:insensitive="true"
     transform="translate(-299.09173,128.54972)">
    <path
       style="fill:#b6d1de;fill-opacity:1;stroke:none;display:inline"
       d="m 1609.0766,1650.3381 c 312.6044,-293.5361 323.1365,-733.85466 154,-1059.99992 -38.7409,-74.70394 -75.2917,-100.59274 -142,-48 -164.0531,129.33926 -257.6692,284.1934 -296,464.00002"
       id="path4123-5-9"
       inkscape:connector-curvature="0"
       sodipodi:nodetypes="cssc" />
    <path
       style="font-style:normal;font-variant:normal;font-weight:normal;font-stretch:normal;text-indent:0;text-align:start;text-decoration:none;line-height:normal;letter-spacing:normal;word-spacing:normal;text-transform:none;direction:ltr;block-progression:tb;writing-mode:lr-tb;text-anchor:start;baseline-shift:baseline;color:#000000;fill:#2b5f73;fill-opacity:1;stroke:none;stroke-width:49;marker:none;visibility:visible;display:inline;overflow:visible;enable-background:accumulate;font-family:sans-serif;-inkscape-font-specification:sans-serif"
       d="m 1679.4985,490.3479 c -6.7444,0.25543 -13.5436,1.3341 -20.2207,3.22656 -17.8056,5.04655 -35.0704,15.09673 -53.3692,29.52344 -167.9608,132.4201 -271.3642,291.17602 -286.5012,461.43364 64.863,-153.7424 156.6918,-296.69476 316.8372,-422.95318 15.0554,-11.86966 27.3745,-18.30482 36.3945,-20.86132 9.02,-2.55651 14.4081,-2.02097 20.5566,0.52343 12.2971,5.08882 29.6776,24.79356 48.1309,60.37696 85.8461,165.53682 124.1899,361.61951 98.2305,551.14447 -23.8741,174.3006 -83.6643,341.0097 -242.7188,500.9497 188.9455,-112.06 266.0191,-309.9808 291.2656,-494.3012 27.4518,-200.42016 -12.9094,-406.09544 -103.2773,-580.35157 -20.2876,-39.12054 -40.5538,-69.71231 -72.8945,-83.0957 -10.1065,-4.18231 -21.1931,-6.04097 -32.4336,-5.61523 z"
       id="path4123-0"
       inkscape:connector-curvature="0"
       sodipodi:nodetypes="ssscssssscssss" />
  </g>
  <g
     inkscape:groupmode="layer"
     id="layer3"
     inkscape:label="Rear Legs"
     style="display:none"
     sodipodi:insensitive="true"
     transform="translate(-299.09173,128.54972)">
    <path
       style="fill:#b6d1de;fill-opacity:1;stroke:none"
       d="m 3148,3792.0001 13,-170 -344,-12 137,271 z"
       id="path4705"
       inkscape:connector-curvature="0" />
    <path
       style="fill:#c93d94;fill-opacity:1;stroke:none;display:inline"
       d="m 1784.6826,4770.8115 -67.7612,131.5235 c -47.1994,91.6133 666.0189,146.2354 683.2393,73.6802 l 34.667,-146.0634 c 33.0798,-139.3759 -581.0912,-193.173 -650.1451,-59.1403 z"
       id="path4453-1"
       inkscape:connector-curvature="0"
       sodipodi:nodetypes="sssss" />
    <path
       style="fill:#000000;fill-opacity:0.37647059;stroke:#782153;stroke-width:31;stroke-linecap:butt;stroke-linejoin:miter;stroke-miterlimit:4;stroke-opacity:1;stroke-dasharray:none;display:inline"
       d="m 1784.6826,4770.8115 -67.7612,131.5235 c -47.1994,91.6133 666.0189,146.2354 683.2393,73.6802 l 34.667,-146.0634 c 33.0798,-139.3759 -581.0912,-193.173 -650.1451,-59.1403 z"
       id="path4453-2-2"
       inkscape:connector-curvature="0"
       sodipodi:nodetypes="sssss" />
    <path
       style="fill:#b6d1de;fill-opacity:1;stroke:#2b5f73;stroke-width:49;stroke-linecap:butt;stroke-linejoin:miter;stroke-miterlimit:4;stroke-opacity:1;stroke-dasharray:none"
       d="m 2166.5751,3531.4149 c -36.8099,483.9783 -170.6671,1080.776 -480.8325,1516.0369 -94.706,132.9027 -33.1744,165.658 84.8528,178.1909 83.1569,8.8301 224.8774,7.4856 313.9554,0 152.348,-12.8025 219.13,-115.8861 254.5585,-240.4163 130.1452,-457.4582 200.0313,-940.7037 101.8233,-1417.0421"
       id="path4081"
       inkscape:connector-curvature="0"
       sodipodi:nodetypes="cssssc" />
    <path
       style="fill:#b6d1de;fill-opacity:1;stroke:#2b5f73;stroke-width:49;stroke-linecap:butt;stroke-linejoin:miter;stroke-miterlimit:4;stroke-opacity:1;stroke-dasharray:none"
       d="m 3153.6962,3754.8606 c 81.3708,-4.6764 141.5712,31.5887 161.2204,110.3086 90.5439,362.7429 119.5675,930.4162 -62.2254,1349.1598 -19.577,45.0939 -62.0493,63.2672 -93.3381,65.0538 -131.5374,7.5109 -237.9317,2.9171 -362.0386,-14.1422 -76.4544,-15.9775 -132.9687,-43.4992 -67.8823,-141.4213 276.5805,-521.3916 226.2102,-1042.1573 96.1665,-1524.5222"
       id="path4083"
       inkscape:connector-curvature="0"
       sodipodi:nodetypes="csssccc" />
    <path
       style="font-style:normal;font-variant:normal;font-weight:normal;font-stretch:normal;text-indent:0;text-align:start;text-decoration:none;line-height:normal;letter-spacing:normal;word-spacing:normal;text-transform:none;direction:ltr;block-progression:tb;writing-mode:lr-tb;text-anchor:start;baseline-shift:baseline;color:#000000;fill:#2b5f73;fill-opacity:1;stroke:none;stroke-width:49;marker:none;visibility:visible;display:inline;overflow:visible;enable-background:accumulate;font-family:sans-serif;-inkscape-font-specification:sans-serif"
       d="m 3177.5762,3568.1289 c -36.8826,83.7804 -54.0347,203.0077 -23.6854,277.2495 -3.5919,-78.4932 33.2196,-177.2913 68.533,-257.5073 z"
       id="path4085"
       inkscape:connector-curvature="0"
       sodipodi:nodetypes="cccc" />
    <path
       style="fill:#bde5ef;fill-opacity:1;stroke:#25a0b5;stroke-width:19;stroke-linecap:butt;stroke-linejoin:miter;stroke-miterlimit:4;stroke-opacity:1;stroke-dasharray:none;display:inline"
       d="m 2403.0586,4858.9501 111.7507,68.3585 -132.0433,43.0799"
       id="path4511-5-2"
       inkscape:connector-curvature="0"
       sodipodi:nodetypes="ccc" />
    <path
       style="fill:#a0d7e4;fill-opacity:1;stroke:#25a0b5;stroke-width:19;stroke-linecap:butt;stroke-linejoin:miter;stroke-miterlimit:4;stroke-opacity:1;stroke-dasharray:none;display:inline"
       d="m 1790.5448,4814.9993 -145.7071,-4.0054 111.137,105.2227"
       id="path4511-7"
       inkscape:connector-curvature="0"
       sodipodi:nodetypes="ccc" />
    <path
       id="path4453-3-9"
       style="fill:#c93d94;fill-opacity:1;stroke:#782153;stroke-width:31;stroke-linecap:butt;stroke-linejoin:miter;stroke-miterlimit:4;stroke-opacity:1;stroke-dasharray:none;display:inline"
       d="m 1784.6826,4770.8115 c 28.2578,89.0243 652.0038,103.3534 650.1451,59.1403 m 0,0 -34.667,146.0634 c -17.2204,72.5552 -730.4387,17.9331 -683.2393,-73.6802 l 67.7612,-131.5235"
       inkscape:connector-curvature="0"
       sodipodi:nodetypes="cccssc" />
    <circle
       style="color:#000000;fill:#a0d7e4;fill-opacity:1;fill-rule:nonzero;stroke:#25a0b5;stroke-width:19;stroke-miterlimit:4;stroke-opacity:1;stroke-dasharray:none;marker:none;visibility:visible;display:inline;overflow:visible;enable-background:accumulate"
       id="path4488-43"
       cx="1848"
       cy="4892"
       r="46"
       sodipodi:cx="1848"
       sodipodi:cy="4892"
       sodipodi:rx="46"
       sodipodi:ry="46"
       d="m 1894,4892 c 0,25.4051 -20.5949,46 -46,46 -25.4051,0 -46,-20.5949 -46,-46 0,-25.4051 20.5949,-46 46,-46 25.4051,0 46,20.5949 46,46 z" />
    <circle
       style="color:#000000;fill:#a0d7e4;fill-opacity:1;fill-rule:nonzero;stroke:#25a0b5;stroke-width:19;stroke-miterlimit:4;stroke-opacity:1;stroke-dasharray:none;marker:none;visibility:visible;display:inline;overflow:visible;enable-background:accumulate"
       id="path4488-1"
       cx="2080"
       cy="4926"
       r="46"
       sodipodi:cx="2080"
       sodipodi:cy="4926"
       sodipodi:rx="46"
       sodipodi:ry="46"
       d="m 2126,4926 c 0,25.4051 -20.5949,46 -46,46 -25.4051,0 -46,-20.5949 -46,-46 0,-25.4051 20.5949,-46 46,-46 25.4051,0 46,20.5949 46,46 z" />
    <circle
       style="color:#000000;fill:#a0d7e4;fill-opacity:1;fill-rule:nonzero;stroke:#25a0b5;stroke-width:19;stroke-miterlimit:4;stroke-opacity:1;stroke-dasharray:none;marker:none;visibility:visible;display:inline;overflow:visible;enable-background:accumulate"
       id="path4488-4"
       cx="2310"
       cy="4930"
       r="46"
       sodipodi:cx="2310"
       sodipodi:cy="4930"
       sodipodi:rx="46"
       sodipodi:ry="46"
       d="m 2356,4930 c 0,25.4051 -20.5949,46 -46,46 -25.4051,0 -46,-20.5949 -46,-46 0,-25.4051 20.5949,-46 46,-46 25.4051,0 46,20.5949 46,46 z" />
  </g>
  <g
     inkscape:groupmode="layer"
     id="layer21"
     inkscape:label="Rear Legs (Alt)"
     sodipodi:insensitive="true"
     transform="translate(-299.09173,128.54972)">
    <path
       style="fill:#b6d1de;fill-opacity:1;stroke:none;display:inline"
       d="m 3148,3792.0001 13,-170 -344,-12 137,271 z"
       id="path4705-8"
       inkscape:connector-curvature="0" />
    <path
       style="fill:#c93d94;fill-opacity:1;stroke:none;display:inline"
       d="m 1784.6826,4770.8115 -67.7612,131.5235 c -47.1994,91.6133 666.0189,146.2354 683.2393,73.6802 l 34.667,-146.0634 c 33.0798,-139.3759 -581.0912,-193.173 -650.1451,-59.1403 z"
       id="path4453-1-2"
       inkscape:connector-curvature="0"
       sodipodi:nodetypes="sssss" />
    <path
       style="fill:#000000;fill-opacity:0.37647059;stroke:#782153;stroke-width:31;stroke-linecap:butt;stroke-linejoin:miter;stroke-miterlimit:4;stroke-opacity:1;stroke-dasharray:none;display:inline"
       d="m 1784.6826,4770.8115 -67.7612,131.5235 c -47.1994,91.6133 666.0189,146.2354 683.2393,73.6802 l 34.667,-146.0634 c 33.0798,-139.3759 -581.0912,-193.173 -650.1451,-59.1403 z"
       id="path4453-2-2-1"
       inkscape:connector-curvature="0"
       sodipodi:nodetypes="sssss" />
    <path
       style="fill:#b6d1de;fill-opacity:1;stroke:#2b5f73;stroke-width:49;stroke-linecap:butt;stroke-linejoin:miter;stroke-miterlimit:4;stroke-opacity:1;stroke-dasharray:none;display:inline"
       d="m 2166.5751,3531.4149 c -36.8099,483.9783 -170.6671,1080.776 -480.8325,1516.0369 -94.706,132.9027 -33.1744,165.658 84.8528,178.1909 83.1569,8.8301 224.8774,7.4856 313.9554,0 152.348,-12.8025 219.13,-115.8861 254.5585,-240.4163 130.1452,-457.4582 200.0313,-940.7037 101.8233,-1417.0421"
       id="path4081-4"
       inkscape:connector-curvature="0"
       sodipodi:nodetypes="cssssc" />
    <path
       style="fill:#b6d1de;fill-opacity:1;stroke:#2b5f73;stroke-width:49;stroke-linecap:butt;stroke-linejoin:miter;stroke-miterlimit:4;stroke-opacity:1;stroke-dasharray:none;display:inline"
       d="m 3153.6962,3754.8606 c 81.3708,-4.6764 141.5712,31.5887 161.2204,110.3086 90.5439,362.7429 119.5675,930.4162 -62.2254,1349.1598 -19.577,45.0939 -62.0493,63.2672 -93.3381,65.0538 -131.5374,7.5109 -237.9317,2.9171 -362.0386,-14.1422 -76.4544,-15.9775 -132.9687,-43.4992 -67.8823,-141.4213 276.5805,-521.3916 226.2102,-1042.1573 96.1665,-1524.5222"
       id="path4083-0"
       inkscape:connector-curvature="0"
       sodipodi:nodetypes="csssccc" />
    <path
       style="font-style:normal;font-variant:normal;font-weight:normal;font-stretch:normal;text-indent:0;text-align:start;text-decoration:none;line-height:normal;letter-spacing:normal;word-spacing:normal;text-transform:none;direction:ltr;block-progression:tb;writing-mode:lr-tb;text-anchor:start;baseline-shift:baseline;color:#000000;fill:#2b5f73;fill-opacity:1;stroke:none;stroke-width:49;marker:none;visibility:visible;display:inline;overflow:visible;enable-background:accumulate;font-family:sans-serif;-inkscape-font-specification:sans-serif"
       d="m 3177.5762,3568.1289 c -36.8826,83.7804 -54.0347,203.0077 -23.6854,277.2495 -3.5919,-78.4932 33.2196,-177.2913 68.533,-257.5073 z"
       id="path4085-8"
       inkscape:connector-curvature="0"
       sodipodi:nodetypes="cccc" />
    <path
       style="fill:#bde5ef;fill-opacity:1;stroke:#25a0b5;stroke-width:19;stroke-linecap:butt;stroke-linejoin:miter;stroke-miterlimit:4;stroke-opacity:1;stroke-dasharray:none;display:inline"
       d="m 2403.0586,4858.9501 111.7507,68.3585 -132.0433,43.0799"
       id="path4511-5-2-9"
       inkscape:connector-curvature="0"
       sodipodi:nodetypes="ccc" />
    <path
       style="fill:#a0d7e4;fill-opacity:1;stroke:#25a0b5;stroke-width:19;stroke-linecap:butt;stroke-linejoin:miter;stroke-miterlimit:4;stroke-opacity:1;stroke-dasharray:none;display:inline"
       d="m 1790.5448,4814.9993 -145.7071,-4.0054 111.137,105.2227"
       id="path4511-7-9"
       inkscape:connector-curvature="0"
       sodipodi:nodetypes="ccc" />
    <path
       id="path4453-3-9-6"
       style="fill:#c93d94;fill-opacity:1;stroke:#782153;stroke-width:31;stroke-linecap:butt;stroke-linejoin:miter;stroke-miterlimit:4;stroke-opacity:1;stroke-dasharray:none;display:inline"
       d="m 1784.6826,4770.8115 c 28.2578,89.0243 652.0038,103.3534 650.1451,59.1403 m 0,0 -34.667,146.0634 c -17.2204,72.5552 -730.4387,17.9331 -683.2393,-73.6802 l 67.7612,-131.5235"
       inkscape:connector-curvature="0"
       sodipodi:nodetypes="cccssc" />
    <circle
       style="color:#000000;fill:#a0d7e4;fill-opacity:1;fill-rule:nonzero;stroke:#25a0b5;stroke-width:19;stroke-miterlimit:4;stroke-opacity:1;stroke-dasharray:none;marker:none;visibility:visible;display:inline;overflow:visible;enable-background:accumulate"
       id="path4488-1-6"
       cx="2080"
       cy="4926"
       r="46"
       sodipodi:cx="2080"
       sodipodi:cy="4926"
       sodipodi:rx="46"
       sodipodi:ry="46"
       d="m 2126,4926 c 0,25.4051 -20.5949,46 -46,46 -25.4051,0 -46,-20.5949 -46,-46 0,-25.4051 20.5949,-46 46,-46 25.4051,0 46,20.5949 46,46 z" />
    <path
       style="fill:#a0d7e4;fill-opacity:1;stroke:#25a0b5;stroke-width:19;stroke-linecap:butt;stroke-linejoin:miter;stroke-miterlimit:4;stroke-opacity:1;stroke-dasharray:none;display:inline"
       d="m 1862.7333,4846.5945 c 57.3921,17.3066 30.4751,105.2816 -26.5611,88.0825 l -46.5734,-59.136 z"
       id="path4226-8"
       inkscape:connector-curvature="0"
       sodipodi:nodetypes="cccc"
       inkscape:transform-center-x="11.238546"
       inkscape:transform-center-y="-4.4983855" />
    <path
       style="fill:#a0d7e4;fill-opacity:1;stroke:#25a0b5;stroke-width:19;stroke-linecap:butt;stroke-linejoin:miter;stroke-miterlimit:4;stroke-opacity:1;stroke-dasharray:none;display:inline"
       d="m 2310,4884 c -59.9446,0 -59.5729,92 0,92 l 61.6632,-43.1716 z"
       id="path4226-78"
       inkscape:connector-curvature="0"
       sodipodi:nodetypes="cccc" />
  </g>
  <g
     inkscape:groupmode="layer"
     id="layer17"
     inkscape:label="Tail"
     sodipodi:insensitive="true"
     transform="translate(-299.09173,128.54972)">
    <path
       style="fill:#4ca1bb;fill-opacity:1;stroke:none"
       d="m 3541.1908,2909.1609 c 55.3591,-191.1585 196.0553,-345.8221 362.0386,-384.6662 165.9833,-38.8441 349.5993,-8.8114 367.6955,226.2743 18.0962,235.0857 -156.7101,490.7048 -322.4406,927.724 -165.7305,437.0192 107.4569,1369.5339 814.587,1142.6846 -129.3649,-22.1986 -261.2037,-46.2665 -351.127,-138.191 397.7451,119.371 792.7416,14.0783 939.8906,-419.1614 -109.6284,94.7162 -265.9115,136.1948 -401.8032,96.8041 333.7919,-63.0668 375.8866,-234.9974 363.9798,-492.0286 -73.1996,125.6742 -131.7014,198.318 -238.4407,233.4702 -106.7392,35.1521 -224.384,27.5957 -295.931,-141.4214 -71.547,-169.0171 81.7861,-464.5163 221.0193,-853.4988 139.2332,-388.9825 109.0557,-817.7033 -141.4213,-1052.1749 -250.477,-234.4716 -1191.3839,-276.0189 -1397.243,673.1656 z"
       id="path4646"
       inkscape:connector-curvature="0"
       sodipodi:nodetypes="czzzccccczzzzcc" />
    <path
       style="fill:none;stroke:#26616f;stroke-width:31;stroke-linecap:butt;stroke-linejoin:miter;stroke-miterlimit:4;stroke-opacity:1;stroke-dasharray:none"
       d="m 3507.6517,2699.8571 c 205.9985,-533.2289 602.2141,-630.4765 880.1748,-594.5382 277.9607,35.9383 467.6165,198.4762 492.0976,440.8814 24.4811,242.4052 -55.7549,486.6889 -153.2662,694.5645 -97.5113,207.8756 -230.5182,429.194 -207.8019,676.6887 22.7163,247.4947 254.8146,470.9432 514.1463,461.1757"
       inkscape:connector-curvature="0"
       sodipodi:nodetypes="czzzzc"
       id="path72" />
    <path
       style="fill:none;stroke:#26616f;stroke-width:31;stroke-linecap:butt;stroke-linejoin:miter;stroke-miterlimit:4;stroke-opacity:1;stroke-dasharray:none"
       d="m 5003.4876,4674.0994 c -406.1469,-17.4383 -667.7187,-274.9473 -721.2489,-565.6854 -53.5302,-290.7381 59.6205,-523.9426 209.3036,-752.3617 149.6831,-228.419 254.9551,-494.04 243.2447,-712.7637 -11.7104,-218.7237 -126.6596,-382.0154 -401.6366,-407.2935 -274.977,-25.2781 -587.5122,61.2806 -803.2733,492.1463"
       inkscape:connector-curvature="0"
       sodipodi:nodetypes="czzzzc"
       id="path4177" />
    <path
       style="fill:#242661;fill-opacity:1;stroke:none"
       d="m 3564,2772 c 102.4164,-266.5581 372.0067,-384.4482 583.1016,-361.9561 211.0949,22.4921 293.1962,125.6097 291.0437,342.5828 -2.1525,216.9731 -139.8231,492.0673 -273.328,737.5332 -133.5049,245.466 -162.4284,542.169 -75.1371,785.2733 87.2913,243.1043 231.9234,390.1934 416.0042,484.5483 l 248.9016,49.8824 c -304.7609,94.7157 -551.3063,-7.046 -735.391,-319.6123 -117.3991,-308.4665 -206.2324,-622.1267 2.8284,-989.9495 104.6959,-233.4001 221.0592,-469.9823 246.0732,-681.651 24.7563,-252.8362 -106.3243,-325.486 -322.4407,-299.8132 -136.6932,51.2154 -273.9903,100.964 -359.2103,277.1858 z"
       id="path4179-4"
       inkscape:connector-curvature="0"
       sodipodi:nodetypes="czzzzcccccccc" />
    <path
       style="fill:none;stroke:#26616f;stroke-width:31;stroke-linecap:butt;stroke-linejoin:miter;stroke-miterlimit:4;stroke-opacity:1;stroke-dasharray:none"
       d="m 3564,2772 c 102.4164,-266.5581 372.0067,-384.4482 583.1016,-361.9561 211.0949,22.4921 293.1962,125.6097 291.0437,342.5828 -2.1525,216.9731 -139.8231,492.0673 -273.328,737.5333 -133.5049,245.466 -162.4284,542.169 -75.1371,785.2733 87.2913,243.1043 231.9234,390.1934 416.0042,484.5483"
       id="path4179"
       inkscape:connector-curvature="0"
       sodipodi:nodetypes="czzzzc" />
    <path
       id="path4177-7"
       style="fill:#242661;fill-opacity:1;stroke:none"
       d="m 5003.4878,4674.0992 c -406.1469,-17.4383 -667.7189,-274.9473 -721.2491,-565.6854 -53.5302,-290.7381 59.6205,-523.9426 209.3036,-752.3617 149.6833,-228.419 254.9553,-494.0398 243.2449,-712.7635 -11.7104,-218.7237 -126.6596,-382.0154 -401.6368,-407.2935 -274.977,-25.2781 -587.5122,61.2806 -803.2733,492.1463 l -22.2254,-28.2843 c 205.9985,-533.2289 602.2141,-630.4765 880.1748,-594.5382 277.9609,35.9383 467.6167,198.4762 492.0978,440.8814 24.4811,242.4052 -55.7549,486.6889 -153.2662,694.5643 -97.5113,207.8756 -230.5182,429.194 -207.8019,676.6887 22.7163,247.4947 254.8146,470.9432 514.1463,461.1757 119.2749,-0.1594 224.3869,-37.1423 316.9975,-106.6289 -53.5993,167.5648 -164.9408,303.8525 -346.5122,402.0991 z"
       inkscape:connector-curvature="0"
       sodipodi:nodetypes="cssssccssssccc" />
    <path
       style="fill:none;stroke:#26616f;stroke-width:31;stroke-linecap:butt;stroke-linejoin:miter;stroke-miterlimit:4;stroke-opacity:1;stroke-dasharray:none"
       d="m 3507.6517,2699.8571 c 205.9985,-533.2289 602.2141,-630.4765 880.1748,-594.5382 277.9608,35.9383 467.6166,198.4762 492.0977,440.8814 24.4811,242.4052 -55.7549,486.6889 -153.2662,694.5644 -97.5113,207.8756 -230.5182,429.194 -207.8019,676.6887 22.7163,247.4947 254.8146,470.9432 514.1463,461.1757"
       inkscape:connector-curvature="0"
       sodipodi:nodetypes="czzzzc"
       id="path78" />
    <path
       style="fill:none;stroke:#26616f;stroke-width:31;stroke-linecap:butt;stroke-linejoin:miter;stroke-miterlimit:4;stroke-opacity:1;stroke-dasharray:none"
       d="m 5003.4877,4674.0993 c -406.1469,-17.4383 -667.7188,-274.9473 -721.249,-565.6854 -53.5302,-290.7381 59.6205,-523.9426 209.3036,-752.3617 149.6832,-228.419 254.9552,-494.0399 243.2448,-712.7636 -11.7104,-218.7237 -126.6596,-382.0154 -401.6367,-407.2935 -274.977,-25.2781 -587.5122,61.2806 -803.2733,492.1463"
       inkscape:connector-curvature="0"
       sodipodi:nodetypes="czzzzc"
       id="path80" />
    <path
       style="fill:none;stroke:#26616f;stroke-width:49;stroke-linecap:butt;stroke-linejoin:miter;stroke-miterlimit:9;stroke-opacity:1;stroke-dasharray:none"
       d="m 3541.1908,2909.1609 c 55.3591,-191.1585 196.0553,-345.8221 362.0386,-384.6662 165.9833,-38.8441 349.5993,-8.8114 367.6955,226.2743 18.0962,235.0857 -156.7101,490.7048 -322.4406,927.724 -165.7305,437.0192 107.4569,1369.534 814.5871,1142.6847 -129.3649,-22.1986 -261.2037,-46.2665 -351.1271,-138.191 397.7452,119.371 792.7417,14.0783 939.8907,-419.1615 -109.6284,94.7162 -265.9115,136.1948 -401.8032,96.8041 333.7919,-63.0668 375.8866,-234.9974 363.9798,-492.0286 -73.1996,125.6742 -131.7014,198.318 -238.4407,233.4702 -106.7392,35.1521 -224.384,27.5957 -295.931,-141.4214 -71.547,-169.0171 81.7861,-464.5163 221.0193,-853.4988 139.2332,-388.9825 109.0557,-817.7033 -141.4213,-1052.1749 -250.477,-234.4716 -1191.384,-276.0189 -1397.2431,673.1656 z"
       id="path4646-8"
       inkscape:connector-curvature="0"
       sodipodi:nodetypes="czzzccccczzzzcc" />
  </g>
  <g
     inkscape:groupmode="layer"
     id="layer4"
     inkscape:label="Body + Forward Legs"
     style="display:none"
     sodipodi:insensitive="true"
     transform="translate(-299.09173,128.54972)">
    <path
       style="fill:#d558a6;fill-opacity:1;stroke:none"
       d="m 2572.6968,4925.1941 -4.6404,138.2198 c -3.4601,103.0644 772.0403,68.603 765.6861,-5.5388 l -12.2764,-143.2408 c -12.2064,-142.4236 -743.707,-140.2258 -748.7693,10.5598 z"
       id="path4453"
       inkscape:connector-curvature="0"
       sodipodi:nodetypes="sssss" />
    <path
       style="fill:#000000;fill-opacity:0.37647059;stroke:#782153;stroke-width:31;stroke-linecap:butt;stroke-linejoin:miter;stroke-miterlimit:4;stroke-opacity:1;stroke-dasharray:none;display:inline"
       d="m 2572.6968,4925.1941 -4.6404,138.2198 c -3.4601,103.0644 772.0403,68.603 765.6861,-5.5388 l -12.2764,-143.2408 c -12.2064,-142.4236 -743.707,-140.2258 -748.7693,10.5598 z"
       id="path4453-2"
       inkscape:connector-curvature="0"
       sodipodi:nodetypes="sssss" />
    <path
       id="path4098-0"
       style="fill:#d0e3eb;fill-opacity:1;stroke:none;display:inline"
       d="m 3598.9705,3812.0248 c 2.4545,-96.2909 32.2664,-198.2802 61.0142,-291.9236 66.9086,-217.9484 67.5824,-463.6856 -5.6568,-647.7098 -73.2392,-184.0244 -180.8014,-269.3777 -373.3524,-288.4998 -192.551,-19.1221 -479.4303,35.225 -631.6148,137.5345 L 2644,2092 1960,2380 c -136.5353,256.3557 -206.3125,683.6624 -72,984.0001 134.3125,300.3377 390.8504,415.8039 656,440 l 366.4515,-3.8847 c 114.06,-22.2829 201.394,-63.0196 266.3115,-119.2342 l 127.237,253.1189 524,78 c -33.4574,-125.8816 -84.7973,-227.0683 -229.0295,-199.9753 z"
       inkscape:connector-curvature="0"
       sodipodi:nodetypes="cssscccscccccc" />
    <path
       style="fill:#d0e3eb;fill-opacity:1;stroke:none;display:inline"
       d="m 2489.0159,3658.694 c 158.8571,321.5909 208.1993,1186.3069 93.338,1510.3801 -65.9365,186.0354 -39.344,229.0133 118.794,251.7302 111.8908,16.0733 281.0159,9.6155 404.4651,0 190.4778,-14.8365 172.3226,-134.3018 172.534,-254.5586 1.2499,-710.9913 -261.0436,-1108.6825 -463.862,-1578.2623"
       id="path4094-1"
       inkscape:connector-curvature="0"
       sodipodi:nodetypes="cssssc" />
    <!--S~i~g~m~a-->
    <path
       style="fill:none;stroke:#2b5f73;stroke-width:49;stroke-linecap:butt;stroke-linejoin:miter;stroke-miterlimit:4;stroke-opacity:1;stroke-dasharray:none"
       d="m 2544,3804.0001 c -265.1496,-24.1961 -521.6875,-139.6623 -656,-440 -134.3125,-300.3377 -64.5353,-727.6444 72,-984.0001"
       id="path4092"
       inkscape:connector-curvature="0"
       sodipodi:nodetypes="czc" />
    <path
       style="font-style:normal;font-variant:normal;font-weight:normal;font-stretch:normal;text-indent:0;text-align:start;text-decoration:none;line-height:normal;letter-spacing:normal;word-spacing:normal;text-transform:none;direction:ltr;block-progression:tb;writing-mode:lr-tb;text-anchor:start;baseline-shift:baseline;color:#000000;fill:#2b5f73;fill-opacity:1;stroke:none;stroke-width:49;marker:none;visibility:visible;display:inline;overflow:visible;enable-background:accumulate;font-family:sans-serif;-inkscape-font-specification:sans-serif"
       d="m 2791.5706,3576.7465 c 39.9235,97.8357 75.8346,189.1307 114.5017,271.6461 175.1247,373.7162 348.5893,740.3601 347.5742,1317.8105 -0.1079,61.3756 2.9068,118.8179 -13.0625,157.5078 -7.9847,19.345 -19.6201,34.467 -40.3594,47.0039 -20.7392,12.537 -51.4621,22.155 -96.5137,25.6641 -122.5687,9.5469 -291.543,15.6217 -399.08,0.1738 -38.5539,-5.5383 -68.1512,-12.3752 -88.4024,-21.0312 -20.2512,-8.656 -30.4504,-17.8475 -36.5332,-30.1777 -12.1656,-24.6606 -6.6714,-76.6058 25.752,-168.086 49.2414,-138.9313 67.9882,-363.338 63.6523,-604.6914 -4.3359,-241.3534 -32.4771,-498.485 -81.2617,-698.7266 -21.4995,-88.247 -49.7665,-154.1176 -87.109,-233.4453 5.084,84.721 18.5595,159.086 39.5016,245.045 47.5197,195.0495 75.5985,449.8563 79.8769,688.0078 4.2784,238.1514 -15.9656,460.8154 -60.8457,587.4414 -33.5131,94.5551 -47.6907,157.1183 -23.5097,206.1347 12.0905,24.5083 34.068,41.9496 61.2187,53.5547 27.1507,11.6051 60.1783,18.6565 100.6934,24.4766 116.2445,16.6987 285.5218,9.8598 409.8515,0.1758 50.1874,-3.9092 88.6235,-14.7885 118.0586,-32.5821 29.4352,-17.7936 48.9901,-42.8361 60.3028,-70.2441 22.6253,-54.816 16.666,-117.234 16.7695,-176.1152 1.0325,-587.3482 -177.1211,-965.0645 -352.2031,-1338.6895 -38.6576,-82.4952 -82.8309,-153.5274 -158.8728,-250.8531 z"
       id="path4094"
       inkscape:connector-curvature="0"
       sodipodi:nodetypes="cssssssssssscsssssssssssc" />
    <path
       style="font-style:normal;font-variant:normal;font-weight:normal;font-stretch:normal;text-indent:0;text-align:start;text-decoration:none;line-height:normal;letter-spacing:normal;word-spacing:normal;text-transform:none;direction:ltr;block-progression:tb;writing-mode:lr-tb;text-anchor:start;baseline-shift:baseline;color:#000000;fill:#2b5f73;fill-opacity:1;stroke:none;stroke-width:49;marker:none;visibility:visible;display:inline;overflow:visible;enable-background:accumulate;font-family:sans-serif;-inkscape-font-specification:sans-serif"
       d="m 3344.1912,3232.2764 c -16.0369,165.7816 -73.7006,329.1465 -174.3689,421.9541 -61.9341,57.0978 -147.6138,99.0891 -264.0684,121.8398 l 9.3945,48.0899 c 123.1885,-24.0663 218.1624,-69.6226 287.8868,-133.9024 113.3308,-104.4812 151.5361,-290.0085 141.156,-457.9814 z"
       id="path4096"
       inkscape:connector-curvature="0"
       sodipodi:nodetypes="csccsc" />
    <path
       style="fill:#d0e3eb;fill-opacity:1;stroke:#2b5f73;stroke-width:49;stroke-linecap:butt;stroke-linejoin:miter;stroke-miterlimit:4;stroke-opacity:1;stroke-dasharray:none"
       d="m 3600,3820.0001 c 105.6641,-19.7416 163.1341,4.253 196,104 120.1967,364.7936 163.9795,853.4961 124,1282.7451 -8.3949,90.1339 -79.7534,115.23 -164,124.7696 -115.2673,13.0522 -239.9711,13.4334 -365.6569,-2.8284 -111.6643,-14.4476 -129.686,-53.8205 -56,-212.6863 229.0014,-493.7226 75.2527,-1037.1735 -158.0194,-1423.3649"
       id="path4100"
       inkscape:connector-curvature="0"
       sodipodi:nodetypes="csssssc" />
    <path
       style="font-style:normal;font-variant:normal;font-weight:normal;font-stretch:normal;text-indent:0;text-align:start;text-decoration:none;line-height:normal;letter-spacing:normal;word-spacing:normal;text-transform:none;direction:ltr;block-progression:tb;writing-mode:lr-tb;text-anchor:start;baseline-shift:baseline;color:#000000;fill:#2b5f73;fill-opacity:1;stroke:none;stroke-width:49;marker:none;visibility:visible;display:inline;overflow:visible;enable-background:accumulate;font-family:sans-serif;-inkscape-font-specification:sans-serif"
       d="m 3129.1738,2551.5039 c -160.6162,-0.7385 -336.8659,42.2758 -493.9977,145.5275 l 18.8066,45.248 c 185.5044,-112.4361 434.9996,-152.8342 624.572,-134.0079 93.1547,9.2511 162.9947,33.991 218.8027,77.375 55.808,43.384 98.63,106.412 134.2071,195.8047 70.4491,177.0139 70.4057,418.4055 5,631.459 -36.5258,118.9792 -68.1086,259.4751 -31.3642,416.3702 2.8033,-159.8887 41.8579,-283.5888 78.2059,-401.9894 68.4113,-222.8434 69.7148,-472.9245 -6.3144,-663.959 -37.6621,-94.6316 -85.2415,-166.2918 -149.6621,-216.3711 -64.4207,-50.0792 -144.637,-77.5782 -244.0332,-87.4492 -48.8824,-4.8545 -100.6839,-7.7616 -154.2227,-8.0078 z"
       id="path4098"
       inkscape:connector-curvature="0"
       sodipodi:nodetypes="sccsssscsssss" />
    <path
       style="font-style:normal;font-variant:normal;font-weight:normal;font-stretch:normal;text-indent:0;text-align:start;text-decoration:none;line-height:normal;letter-spacing:normal;word-spacing:normal;text-transform:none;direction:ltr;block-progression:tb;writing-mode:lr-tb;text-anchor:start;baseline-shift:baseline;color:#000000;fill:#2b5f73;fill-opacity:1;stroke:none;stroke-width:49;marker:none;visibility:visible;display:inline;overflow:visible;enable-background:accumulate;font-family:sans-serif;-inkscape-font-specification:sans-serif"
       d="m 2660.5898,1901.834 -48.9921,0.8125 c 3.7564,226.3522 -6.5199,511.5676 4.6621,742.3105 6.1409,126.7219 31.0531,221.1655 77.0382,304.1896 -10.5834,-82.4389 -22.0469,-181.7181 -28.0968,-306.5626 -11.0163,-227.3245 -0.8192,-512.2488 -4.6114,-740.75 z"
       id="path4615"
       inkscape:connector-curvature="0"
       sodipodi:nodetypes="ccscsc" />
    <path
       style="fill:#bde5ef;fill-opacity:1;stroke:#25a0b5;stroke-width:19;stroke-linecap:butt;stroke-linejoin:miter;stroke-miterlimit:4;stroke-opacity:1;stroke-dasharray:none;display:inline"
       d="m 3308.175,4955.4009 145.1541,34.0936 -141.5638,61.6557"
       id="path4511-5"
       inkscape:connector-curvature="0"
       sodipodi:nodetypes="ccc" />
    <path
       style="fill:#bde5ef;fill-opacity:1;stroke:#25a0b5;stroke-width:19;stroke-linecap:butt;stroke-linejoin:miter;stroke-miterlimit:4;stroke-opacity:1;stroke-dasharray:none"
       d="m 2607.3538,4972.0001 -144.5265,36 141.7894,60"
       id="path4511"
       inkscape:connector-curvature="0"
       sodipodi:nodetypes="ccc" />
    <path
       id="path4453-3"
       style="fill:#d558a6;fill-opacity:1;stroke:#782153;stroke-width:31;stroke-linecap:butt;stroke-linejoin:miter;stroke-miterlimit:4;stroke-opacity:1;stroke-dasharray:none;display:inline"
       d="m 2572.6968,4925.1941 c 37.4395,85.8123 754.1145,33.2579 748.7693,-10.5598 m 0,0 12.2764,143.2408 c 6.3542,74.1418 -769.1462,108.6032 -765.6861,5.5388 l 4.6404,-138.2198"
       inkscape:connector-curvature="0"
       sodipodi:nodetypes="cccssc" />
    <circle
       style="color:#000000;fill:#bde5ef;fill-opacity:1;fill-rule:nonzero;stroke:#25a0b5;stroke-width:19;stroke-miterlimit:4;stroke-opacity:1;stroke-dasharray:none;marker:none;visibility:visible;display:inline;overflow:visible;enable-background:accumulate"
       id="path4488"
       cx="2702"
       cy="5042"
       r="46"
       sodipodi:cx="2702"
       sodipodi:cy="5042"
       sodipodi:rx="46"
       sodipodi:ry="46"
       d="m 2748,5042 c 0,25.4051 -20.5949,46 -46,46 -25.4051,0 -46,-20.5949 -46,-46 0,-25.4051 20.5949,-46 46,-46 25.4051,0 46,20.5949 46,46 z" />
    <circle
       style="color:#000000;fill:#bde5ef;fill-opacity:1;fill-rule:nonzero;stroke:#25a0b5;stroke-width:19;stroke-miterlimit:4;stroke-opacity:1;stroke-dasharray:none;marker:none;visibility:visible;display:inline;overflow:visible;enable-background:accumulate"
       id="path4488-2"
       cx="2961"
       cy="5048"
       r="46"
       sodipodi:cx="2961"
       sodipodi:cy="5048"
       sodipodi:rx="46"
       sodipodi:ry="46"
       d="m 3007,5048 c 0,25.4051 -20.5949,46 -46,46 -25.4051,0 -46,-20.5949 -46,-46 0,-25.4051 20.5949,-46 46,-46 25.4051,0 46,20.5949 46,46 z" />
    <circle
       style="color:#000000;fill:#bde5ef;fill-opacity:1;fill-rule:nonzero;stroke:#25a0b5;stroke-width:19;stroke-miterlimit:4;stroke-opacity:1;stroke-dasharray:none;marker:none;visibility:visible;display:inline;overflow:visible;enable-background:accumulate"
       id="path4488-7"
       cx="3206"
       cy="5020"
       r="46"
       sodipodi:cx="3206"
       sodipodi:cy="5020"
       sodipodi:rx="46"
       sodipodi:ry="46"
       d="m 3252,5020 c 0,25.4051 -20.5949,46 -46,46 -25.4051,0 -46,-20.5949 -46,-46 0,-25.4051 20.5949,-46 46,-46 25.4051,0 46,20.5949 46,46 z" />
  </g>
  <g
     inkscape:groupmode="layer"
     id="layer20"
     inkscape:label="Body + Forward Legs (Alt)"
     sodipodi:insensitive="true"
     transform="translate(-299.09173,128.54972)">
    <path
       style="fill:#d558a6;fill-opacity:1;stroke:none;display:inline"
       d="m 2572.6968,4925.1942 -4.6404,138.2198 c -3.4601,103.0644 772.0403,68.603 765.6861,-5.5388 l -12.2764,-143.2408 c -12.2064,-142.4236 -743.707,-140.2258 -748.7693,10.5598 z"
       id="path4453-0"
       inkscape:connector-curvature="0"
       sodipodi:nodetypes="sssss" />
    <path
       style="fill:#000000;fill-opacity:0.37647059;stroke:#782153;stroke-width:31;stroke-linecap:butt;stroke-linejoin:miter;stroke-miterlimit:4;stroke-opacity:1;stroke-dasharray:none;display:inline"
       d="m 2572.6968,4925.1942 -4.6404,138.2198 c -3.4601,103.0644 772.0403,68.603 765.6861,-5.5388 l -12.2764,-143.2408 c -12.2064,-142.4236 -743.707,-140.2258 -748.7693,10.5598 z"
       id="path4453-2-5"
       inkscape:connector-curvature="0"
       sodipodi:nodetypes="sssss" />
    <path
       id="path4098-0-8"
       style="fill:#d0e3eb;fill-opacity:1;stroke:none;display:inline"
       d="m 3598.9705,3812.0248 c 2.4545,-96.2909 32.2664,-198.2802 61.0142,-291.9236 66.9086,-217.9484 67.5824,-463.6856 -5.6568,-647.7097 -73.2392,-184.0245 -180.8014,-269.3778 -373.3524,-288.4999 -192.551,-19.1221 -479.4303,35.225 -631.6148,137.5345 L 2644,2092 1960,2380 c -136.5353,256.3557 -206.3125,683.6624 -72,984.0001 134.3125,300.3377 390.8504,415.8039 656,440 l 366.4515,-3.8847 c 114.06,-22.2829 201.394,-63.0196 266.3115,-119.2342 l 127.237,253.1189 524,78 c -33.4574,-125.8816 -84.7973,-227.0683 -229.0295,-199.9753 z"
       inkscape:connector-curvature="0"
       sodipodi:nodetypes="cssscccscccccc" />
    <path
       style="fill:#d0e3eb;fill-opacity:1;stroke:none;display:inline"
       d="m 2489.0159,3658.694 c 158.8571,321.5909 208.1993,1186.307 93.338,1510.3802 -65.9365,186.0354 -39.344,229.0133 118.794,251.7302 111.8908,16.0733 281.0159,9.6155 404.4651,0 190.4778,-14.8365 172.3226,-134.3018 172.534,-254.5586 1.2499,-710.9914 -261.0436,-1108.6826 -463.862,-1578.2624"
       id="path4094-1-3"
       inkscape:connector-curvature="0"
       sodipodi:nodetypes="cssssc" />
    <path
       style="fill:none;stroke:#2b5f73;stroke-width:49;stroke-linecap:butt;stroke-linejoin:miter;stroke-miterlimit:4;stroke-opacity:1;stroke-dasharray:none;display:inline"
       d="m 2544,3804.0001 c -265.1496,-24.1961 -521.6875,-139.6623 -656,-440 -134.3125,-300.3377 -64.5353,-727.6444 72,-984.0001"
       id="path4092-6"
       inkscape:connector-curvature="0"
       sodipodi:nodetypes="czc" />
    <path
       style="font-style:normal;font-variant:normal;font-weight:normal;font-stretch:normal;text-indent:0;text-align:start;text-decoration:none;line-height:normal;letter-spacing:normal;word-spacing:normal;text-transform:none;direction:ltr;block-progression:tb;writing-mode:lr-tb;text-anchor:start;baseline-shift:baseline;color:#000000;fill:#2b5f73;fill-opacity:1;stroke:none;stroke-width:49;marker:none;visibility:visible;display:inline;overflow:visible;enable-background:accumulate;font-family:sans-serif;-inkscape-font-specification:sans-serif"
       d="m 2791.5706,3576.7465 c 39.9235,97.8357 75.8346,189.1307 114.5017,271.6461 175.1247,373.7162 348.5893,740.3601 347.5742,1317.8106 -0.1079,61.3756 2.9068,118.8179 -13.0625,157.5078 -7.9847,19.345 -19.6201,34.467 -40.3594,47.0039 -20.7392,12.537 -51.4621,22.155 -96.5137,25.6641 -122.5687,9.5469 -291.543,15.6217 -399.08,0.1738 -38.5539,-5.5383 -68.1512,-12.3752 -88.4024,-21.0312 -20.2512,-8.656 -30.4504,-17.8475 -36.5332,-30.1777 -12.1656,-24.6606 -6.6714,-76.6058 25.752,-168.086 49.2414,-138.9313 67.9882,-363.338 63.6523,-604.6915 -4.3359,-241.3534 -32.4771,-498.485 -81.2617,-698.7266 -21.4995,-88.247 -49.7665,-154.1176 -87.109,-233.4453 5.084,84.721 18.5595,159.086 39.5016,245.045 47.5197,195.0495 75.5985,449.8563 79.8769,688.0078 4.2784,238.1515 -15.9656,460.8155 -60.8457,587.4415 -33.5131,94.5551 -47.6907,157.1183 -23.5097,206.1347 12.0905,24.5083 34.068,41.9496 61.2187,53.5547 27.1507,11.6051 60.1783,18.6565 100.6934,24.4766 116.2445,16.6987 285.5218,9.8598 409.8515,0.1758 50.1874,-3.9092 88.6235,-14.7885 118.0586,-32.5821 29.4352,-17.7936 48.9901,-42.8361 60.3028,-70.2441 22.6253,-54.816 16.666,-117.234 16.7695,-176.1152 1.0325,-587.3483 -177.1211,-965.0646 -352.2031,-1338.6896 -38.6576,-82.4952 -82.8309,-153.5274 -158.8728,-250.8531 z"
       id="path4094-15"
       inkscape:connector-curvature="0"
       sodipodi:nodetypes="cssssssssssscsssssssssssc" />
    <path
       style="font-style:normal;font-variant:normal;font-weight:normal;font-stretch:normal;text-indent:0;text-align:start;text-decoration:none;line-height:normal;letter-spacing:normal;word-spacing:normal;text-transform:none;direction:ltr;block-progression:tb;writing-mode:lr-tb;text-anchor:start;baseline-shift:baseline;color:#000000;fill:#2b5f73;fill-opacity:1;stroke:none;stroke-width:49;marker:none;visibility:visible;display:inline;overflow:visible;enable-background:accumulate;font-family:sans-serif;-inkscape-font-specification:sans-serif"
       d="m 3344.1912,3232.2765 c -16.0369,165.7816 -73.7006,329.1465 -174.3689,421.9541 -61.9341,57.0978 -147.6138,99.0891 -264.0684,121.8398 l 9.3945,48.0899 c 123.1885,-24.0663 218.1624,-69.6226 287.8868,-133.9024 113.3308,-104.4812 151.5361,-290.0085 141.156,-457.9814 z"
       id="path4096-5"
       inkscape:connector-curvature="0"
       sodipodi:nodetypes="csccsc" />
    <path
       style="fill:#d0e3eb;fill-opacity:1;stroke:#2b5f73;stroke-width:49;stroke-linecap:butt;stroke-linejoin:miter;stroke-miterlimit:4;stroke-opacity:1;stroke-dasharray:none;display:inline"
       d="m 3600,3820.0001 c 105.6641,-19.7416 163.1341,4.253 196,104 120.1967,364.7936 163.9795,853.4962 124,1282.7452 -8.3949,90.1339 -79.7534,115.23 -164,124.7696 -115.2673,13.0522 -239.9711,13.4334 -365.6569,-2.8284 -111.6643,-14.4476 -129.686,-53.8205 -56,-212.6863 229.0014,-493.7227 75.2527,-1037.1736 -158.0194,-1423.365"
       id="path4100-0"
       inkscape:connector-curvature="0"
       sodipodi:nodetypes="csssssc" />
    <path
       style="font-style:normal;font-variant:normal;font-weight:normal;font-stretch:normal;text-indent:0;text-align:start;text-decoration:none;line-height:normal;letter-spacing:normal;word-spacing:normal;text-transform:none;direction:ltr;block-progression:tb;writing-mode:lr-tb;text-anchor:start;baseline-shift:baseline;color:#000000;fill:#2b5f73;fill-opacity:1;stroke:none;stroke-width:49;marker:none;visibility:visible;display:inline;overflow:visible;enable-background:accumulate;font-family:sans-serif;-inkscape-font-specification:sans-serif"
       d="m 3129.1738,2551.5039 c -160.6162,-0.7385 -336.8659,42.2758 -493.9977,145.5275 l 18.8066,45.2481 c 185.5044,-112.4362 434.9996,-152.8343 624.572,-134.008 93.1547,9.2511 162.9947,33.991 218.8027,77.375 55.808,43.3841 98.63,106.4121 134.2071,195.8048 70.4491,177.0138 70.4057,418.4054 5,631.4589 -36.5258,118.9792 -68.1086,259.4751 -31.3642,416.3702 2.8033,-159.8887 41.8579,-283.5888 78.2059,-401.9894 68.4113,-222.8434 69.7148,-472.9245 -6.3144,-663.9589 -37.6621,-94.6316 -85.2415,-166.2919 -149.6621,-216.3712 -64.4207,-50.0792 -144.637,-77.5782 -244.0332,-87.4492 -48.8824,-4.8545 -100.6839,-7.7616 -154.2227,-8.0078 z"
       id="path4098-2"
       inkscape:connector-curvature="0"
       sodipodi:nodetypes="sccsssscsssss" />
    <path
       style="font-style:normal;font-variant:normal;font-weight:normal;font-stretch:normal;text-indent:0;text-align:start;text-decoration:none;line-height:normal;letter-spacing:normal;word-spacing:normal;text-transform:none;direction:ltr;block-progression:tb;writing-mode:lr-tb;text-anchor:start;baseline-shift:baseline;color:#000000;fill:#2b5f73;fill-opacity:1;stroke:none;stroke-width:49;marker:none;visibility:visible;display:inline;overflow:visible;enable-background:accumulate;font-family:sans-serif;-inkscape-font-specification:sans-serif"
       d="m 2660.5898,1901.834 -48.9921,0.8125 c 3.7564,226.3522 -6.5199,511.5676 4.6621,742.3105 6.1409,126.722 31.0531,221.1656 77.0382,304.1896 -10.5834,-82.4388 -22.0469,-181.718 -28.0968,-306.5626 -11.0163,-227.3245 -0.8192,-512.2488 -4.6114,-740.75 z"
       id="path4615-8"
       inkscape:connector-curvature="0"
       sodipodi:nodetypes="ccscsc" />
    <path
       style="fill:#bde5ef;fill-opacity:1;stroke:#25a0b5;stroke-width:19;stroke-linecap:butt;stroke-linejoin:miter;stroke-miterlimit:4;stroke-opacity:1;stroke-dasharray:none;display:inline"
       d="m 3308.175,4955.401 145.1541,34.0936 -141.5638,61.6557"
       id="path4511-5-9"
       inkscape:connector-curvature="0"
       sodipodi:nodetypes="ccc" />
    <path
       style="fill:#bde5ef;fill-opacity:1;stroke:#25a0b5;stroke-width:19;stroke-linecap:butt;stroke-linejoin:miter;stroke-miterlimit:4;stroke-opacity:1;stroke-dasharray:none;display:inline"
       d="m 2607.3538,4972.0002 -144.5265,36 141.7894,60"
       id="path4511-1"
       inkscape:connector-curvature="0"
       sodipodi:nodetypes="ccc" />
    <path
       id="path4453-3-95"
       style="fill:#d558a6;fill-opacity:1;stroke:#782153;stroke-width:31;stroke-linecap:butt;stroke-linejoin:miter;stroke-miterlimit:4;stroke-opacity:1;stroke-dasharray:none;display:inline"
       d="m 2572.6968,4925.1942 c 37.4395,85.8123 754.1145,33.2579 748.7693,-10.5598 m 0,0 12.2764,143.2408 c 6.3542,74.1418 -769.1462,108.6032 -765.6861,5.5388 l 4.6404,-138.2198"
       inkscape:connector-curvature="0"
       sodipodi:nodetypes="cccssc" />
    <circle
       style="color:#000000;fill:#bde5ef;fill-opacity:1;fill-rule:nonzero;stroke:#25a0b5;stroke-width:19;stroke-miterlimit:4;stroke-opacity:1;stroke-dasharray:none;marker:none;visibility:visible;display:inline;overflow:visible;enable-background:accumulate"
       id="path4488-2-8"
       cx="2961"
       cy="5048"
       r="46"
       sodipodi:cx="2961"
       sodipodi:cy="5048"
       sodipodi:rx="46"
       sodipodi:ry="46"
       d="m 3007,5048 c 0,25.4051 -20.5949,46 -46,46 -25.4051,0 -46,-20.5949 -46,-46 0,-25.4051 20.5949,-46 46,-46 25.4051,0 46,20.5949 46,46 z" />
    <path
       style="fill:#bde5ef;fill-opacity:1;stroke:#25a0b5;stroke-width:19;stroke-linecap:butt;stroke-linejoin:miter;stroke-miterlimit:4;stroke-opacity:1;stroke-dasharray:none;display:inline"
       d="m 2705.6501,4997.0796 c 59.7517,4.8053 52.0062,96.4794 -7.375,91.7039 l -58.004,-47.9757 z"
       id="path4226"
       inkscape:connector-curvature="0"
       sodipodi:nodetypes="cccc" />
    <path
       style="fill:#bde5ef;fill-opacity:1;stroke:#25a0b5;stroke-width:19;stroke-linecap:butt;stroke-linejoin:miter;stroke-miterlimit:4;stroke-opacity:1;stroke-dasharray:none;display:inline"
       d="m 3200.1928,4981.8715 c -59.4489,7.6928 -47.2738,98.8843 11.8065,91.2393 l 55.6131,-50.728 z"
       id="path4226-7"
       inkscape:connector-curvature="0"
       sodipodi:nodetypes="cccc" />
  </g>
  <g
     inkscape:groupmode="layer"
     id="layer8"
     inkscape:label="Cutie Mark"
     sodipodi:insensitive="true"
     style="display:inline"
     transform="translate(-299.09173,128.54972)">
    <g
       id="g4142"
       transform="matrix(1.1298892,0,0,1,-470.67431,0)">
      <path
         sodipodi:nodetypes="czczc"
         inkscape:connector-curvature="0"
         id="path4076"
         d="m 3534.4744,3334.4982 c 45.9466,-83.8849 107.9238,-220.249 83.787,-360.8891 -24.1367,-140.6401 -98.0395,-133.8141 -124.8756,48.0502 -39.6098,-40.1735 -153.7033,-102.5681 -127.0412,51.3064 26.6619,153.8744 118.632,221.4103 168.1298,261.5325 z"
         style="fill:#970972;fill-opacity:1;stroke:none" />
      <path
         sodipodi:nodetypes="ssccccccccccccccss"
         inkscape:connector-curvature="0"
         id="path4078"
         d="m 3510.9166,3416.1889 c 14.0667,-17.7447 19.9742,-43.6089 14.2229,-90.7906 -8.5277,-69.9576 -10.4772,-139.767 -14.9592,-209.7531 l -13.0066,6.2083 -6.4662,-175.3618 -16.0187,30.3134 -9.1838,-74.2847 c 37.0683,-2.7231 70.9539,68.7338 73.2775,187.0275 43.6975,-43.5688 0.2588,-267.4338 -64.0364,-271.2181 l -15.0345,-69.0475 -55.3993,121.5565 44.2476,219.1069 5.4049,-17.0247 24.6371,128.4653 7.7977,-9.9444 18.3229,104.1454 c -19.9111,-12.7034 -37.0268,2.949 -47.4594,37.5426 -15.1041,50.0837 15.0221,131.7911 53.6535,83.059 z"
         style="fill:#55a9bc;fill-opacity:1;stroke:none" />
      <path
         clip-path="url(#clipPath4101)"
         sodipodi:nodetypes="ssccccccccccccccss"
         inkscape:connector-curvature="0"
         id="path4078-1"
         d="m 335.37064,947.47207 c 50.93423,-21.60182 80.75441,-55.79059 84.85282,-121.21831 6.07681,-97.01122 32.10532,-192.60242 50.50763,-288.90363 l -42.42641,6.06092 60.60915,-240.41631 -62.62946,38.3858 6.06092,-103.03555 C 546.40433,241.49372 616.81438,345.24537 569.72604,507.04556 722.66122,455.7021 692.9563,142.27466 499.01536,125.2079 l -14.14213,-96.97465 -224.25388,155.56349 34.34519,307.08638 24.24366,-22.22336 16.16244,179.80715 28.28428,-12.12183 8.08122,145.46197 c -54.78047,-21.01587 -114.03577,-2.83274 -161.62441,42.42641 -68.89743,65.52486 -14.62162,182.56364 125.25891,123.23861 z"
         style="fill:#000000;fill-opacity:0.37647059;stroke:none"
         transform="matrix(0.32200934,-0.04370592,0.10807426,0.7183905,3300.5267,2750.1916)" />
    </g>
  </g>
  <g
     inkscape:groupmode="layer"
     id="layer16"
     inkscape:label="Pendant"
     sodipodi:insensitive="true"
     transform="translate(-299.09173,128.54972)">
    <path
       style="fill:#2b2b2c;fill-opacity:1;stroke:#0a0d09;stroke-width:31;stroke-linecap:butt;stroke-linejoin:miter;stroke-miterlimit:9;stroke-opacity:1;stroke-dasharray:none"
       d="m 2009.0413,3172.4153 c -105.4122,-62.6382 -151.6415,-161.8672 -198.9971,-289.819 -5.2664,52.4876 -6.8443,131.7332 -1.6924,190.1522 49.7774,89.947 108.7183,150.0018 205.2259,167.7119"
       id="path5239"
       inkscape:connector-curvature="0"
       sodipodi:nodetypes="cccc" />
    <path
       style="fill:#2b2b2c;fill-opacity:1;stroke:#0a0d09;stroke-width:31;stroke-linecap:butt;stroke-linejoin:miter;stroke-miterlimit:4;stroke-opacity:1;stroke-dasharray:none"
       d="m 2062.5701,3172.4153 c 247.1561,-96.3123 439.4281,-287.1739 589.8172,-547.9901 5.1108,54.6901 5.292,101.3307 5.7234,150.6065 -140.6745,282.4575 -384.586,420.1278 -593.726,459.9851"
       id="path5237"
       inkscape:connector-curvature="0"
       sodipodi:nodetypes="cccc" />
    <path
       style="fill:#e4be0d;fill-opacity:1;stroke:#bd9409;stroke-width:21.77443695;stroke-linecap:butt;stroke-linejoin:miter;stroke-miterlimit:4;stroke-opacity:1;stroke-dasharray:none"
       d="m 2006.3195,3274.9366 c -12.3441,-41.1912 -19.5883,-87.0048 -0.9073,-123.3885 23.2866,-11.6504 51.1095,-13.712 79.8396,-2.7218 17.103,42.0368 12.106,84.0736 5.4437,126.1103"
       id="path5227"
       inkscape:connector-curvature="0"
       sodipodi:nodetypes="cccc" />
    <path
       style="fill:#960000;fill-opacity:1;stroke:none"
       d="m 2164.1412,3468.8675 -87.624,-50.8111 -35.191,30.792 -36.6572,-26.3932 -36.6674,58.421 100.0712,72.0512 z"
       id="path5249"
       inkscape:connector-curvature="0"
       sodipodi:nodetypes="ccccccc" />
    <path
       style="fill:#d70001;fill-opacity:1;stroke:none"
       d="m 2076.5172,3418.0564 87.624,50.8111 2.6686,-144.1025 -65.3799,-69.3827 -47.8846,84.4718 23.9495,25.4158 z"
       id="path5247"
       inkscape:connector-curvature="0"
       sodipodi:nodetypes="ccccccc" />
    <path
       style="fill:#d70001;fill-opacity:1;stroke:none"
       d="m 1996.0215,3259.385 18.9114,81.9354 -15.1515,38.6124 4.8876,42.5224 -36.6674,58.421 -13.3428,-116.0827 z"
       id="path5245"
       inkscape:connector-curvature="0"
       sodipodi:nodetypes="ccccccc" />
    <path
       style="fill:#e88d8d;fill-opacity:1;stroke:none"
       d="m 2101.4299,3255.3823 -47.8846,84.4718 -38.6124,1.4663 -18.9114,-81.9354 z"
       id="path5243"
       inkscape:connector-curvature="0"
       sodipodi:nodetypes="ccccc" />
    <path
       style="fill:none;stroke:#670405;stroke-width:21.77443695;stroke-linecap:butt;stroke-linejoin:miter;stroke-miterlimit:4;stroke-opacity:1;stroke-dasharray:none"
       d="m 2101.4299,3255.3823 -105.4084,4.0027 -41.3627,105.4085 13.3428,116.0827 100.0712,72.0512 96.0684,-84.0599 2.6686,-144.1025 z"
       id="path5210"
       inkscape:connector-curvature="0"
       sodipodi:nodetypes="cccccccc" />
    <path
       style="fill:#ea8a93;fill-opacity:1;stroke:#670405;stroke-width:9.97994995;stroke-linecap:butt;stroke-linejoin:miter;stroke-miterlimit:4;stroke-opacity:1;stroke-dasharray:none"
       d="m 2053.5453,3339.8541 -38.6124,1.4663 -15.1515,38.6124 4.8876,42.5224 36.6572,26.3932 35.191,-30.792 0.9776,-52.7865 z"
       id="path5210-6"
       inkscape:connector-curvature="0"
       sodipodi:nodetypes="cccccccc" />
    <path
       style="fill:none;stroke:#670405;stroke-width:9.97994995;stroke-linecap:butt;stroke-linejoin:miter;stroke-miterlimit:4;stroke-opacity:1;stroke-dasharray:none"
       d="m 1996.0215,3259.385 18.9114,81.9354 m -15.1515,38.6124 -45.1226,-15.1393 m 50.0102,57.6617 -36.6674,58.421 m 73.3246,-32.0278 26.7466,104.079 m 8.4444,-134.871 87.624,50.8111 m -86.6464,-103.5976 89.315,-40.5049 m -113.2645,15.0891 47.8846,-84.4718"
       id="path5241"
       inkscape:connector-curvature="0"
       sodipodi:nodetypes="cccccccccccccc" />
  </g>
  <g
     inkscape:groupmode="layer"
     id="layer5"
     inkscape:label="Head"
     style="display:inline"
     sodipodi:insensitive="true"
     transform="translate(-299.09173,128.54972)">
    <path
       style="fill:#d0e3eb;fill-opacity:1;stroke:none"
       d="m 2073.2371,2433.985 500.6316,-248.9016 c 91.3317,-203.5742 114.1494,-432.8411 84.8528,-681.6509 L 2344.7661,949.06078 C 2036.4675,744.51202 1728.169,745.58444 1419.8704,895.32066 950.91631,1143.6367 965.51916,1589.2454 1018.2338,1987.0935 c -92.63601,17.1737 -121.37211,74.2848 -93.33817,166.8772 121.16057,247.0427 399.98987,341.5849 625.08247,345.0681 181.5318,-0.3481 356.8021,-19.4808 523.259,-65.0538 z"
       id="path4200"
       inkscape:connector-curvature="0"
       sodipodi:nodetypes="ccccccccc" />
    <path
       style="font-style:normal;font-variant:normal;font-weight:normal;font-stretch:normal;text-indent:0;text-align:start;text-decoration:none;line-height:normal;letter-spacing:normal;word-spacing:normal;text-transform:none;direction:ltr;block-progression:tb;writing-mode:lr-tb;text-anchor:start;baseline-shift:baseline;color:#000000;fill:#2b5f73;fill-opacity:1;stroke:none;stroke-width:49;marker:none;visibility:visible;display:inline;overflow:visible;enable-background:accumulate;font-family:sans-serif;-inkscape-font-specification:sans-serif"
       d="m 987.17773,1976.7363 c -27.22117,-0.064 -50.83156,8.2714 -67.88476,22.9356 -17.05321,14.6642 -27.00834,34.5504 -31.74414,54.9961 -9.47161,40.8913 -0.69032,85.4271 18.86914,119.8828 139.79483,246.2608 380.23723,335.0398 636.65433,345.082 177.3582,6.9459 372.1154,-19.7222 551.6698,-94.7844 -185.3126,40.9033 -379.188,52.5014 -549.7538,45.8215 -246.5968,-9.6576 -465.462,-90.4302 -595.95705,-320.3086 -13.0916,-23.062 -19.62766,-59.2425 -13.74609,-84.6347 2.94078,-12.6961 8.32909,-22.3447 15.95507,-28.9024 7.62599,-6.5576 18.02924,-11.1296 35.82422,-11.0879 90.22735,0.2116 151.72955,-60.24 196.10105,-166.5601 -74.4223,88.8415 -120.6676,117.7367 -195.98777,117.5601 z"
       id="path4103"
       inkscape:connector-curvature="0"
       sodipodi:nodetypes="ssssscssssscs" />
    <path
       style="fill:#2b5f73;fill-opacity:1;stroke:none"
       d="m 1048.3431,2308.9289 c 119.5756,0.9186 175.0689,-53.49 193.6569,-142.9289 15.4464,100.5567 -38.6498,179.9855 -145.6569,182.9289 z"
       id="path4105"
       inkscape:connector-curvature="0"
       sodipodi:nodetypes="cccc" />
    <path
       style="fill:#2b5f73;fill-opacity:1;stroke:none"
       d="m 1056.4175,2125.6864 c 52.4019,10.9118 82.3922,-8.5921 82.0244,-69.2964 37.9588,75.9849 -15.8025,134.5623 -82.0244,69.2964 z"
       id="path4107"
       inkscape:connector-curvature="0"
       sodipodi:nodetypes="ccc" />
    <path
       style="font-style:normal;font-variant:normal;font-weight:normal;font-stretch:normal;text-indent:0;text-align:start;text-decoration:none;line-height:normal;letter-spacing:normal;word-spacing:normal;text-transform:none;direction:ltr;block-progression:tb;writing-mode:lr-tb;text-anchor:start;baseline-shift:baseline;color:#000000;fill:#2b5f73;fill-opacity:1;stroke:none;stroke-width:49;marker:none;visibility:visible;display:inline;overflow:visible;enable-background:accumulate;font-family:sans-serif;-inkscape-font-specification:sans-serif"
       d="m 2680.209,1524.2402 -48.418,7.5196 c 20.5818,132.5031 16.8135,280.2262 -9.7383,410.2851 -26.5517,130.0589 -42.5652,213.7185 -127.2539,344.7351 118.9581,-109.3997 147.4485,-198.6867 175.2637,-334.9343 27.8152,-136.2476 31.7082,-288.7938 10.1465,-427.6055 z"
       id="path4609"
       inkscape:connector-curvature="0"
       sodipodi:nodetypes="ccscsc" />
  </g>
  <g
     inkscape:groupmode="layer"
     id="layer14"
     inkscape:label="Top Mane"
     sodipodi:insensitive="true"
     transform="translate(-299.09173,128.54972)">
    <path
       style="fill:#1d215b;fill-opacity:1;stroke:#1b1b43;stroke-width:49;stroke-linecap:butt;stroke-linejoin:miter;stroke-miterlimit:4;stroke-opacity:1;stroke-dasharray:none"
       d="m 1888.2569,616.39721 c 13.3037,-65.36536 53.6721,-120.58143 109.5696,-169.97412 164.3266,-13.4978 364.7861,43.47858 473.6594,183.55863 -48.0724,66.36012 -122.3321,108.53296 -203.2216,140.076 z"
       id="path4406"
       inkscape:connector-curvature="0"
       sodipodi:nodetypes="ccccc" />
    <path
       style="fill:#4ca1bb;fill-opacity:1;stroke:#26616f;stroke-width:49;stroke-linecap:butt;stroke-linejoin:miter;stroke-miterlimit:4;stroke-opacity:1;stroke-dasharray:none"
       d="m 1536,660.00002 c 438.4311,-208.81186 838.3433,-86.51709 1156.5493,270.01483 335.8593,425.88905 174.4748,1159.63505 -318.9972,1351.85875 239.9158,-301.575 359.6981,-691.245 299.1448,-991.6776"
       id="path4402"
       inkscape:connector-curvature="0"
       sodipodi:nodetypes="cccc" />
    <path
       style="fill:none;stroke:#26616f;stroke-width:31;stroke-linecap:butt;stroke-linejoin:miter;stroke-miterlimit:4;stroke-opacity:1;stroke-dasharray:none"
       d="m 2299.3726,630.6863 c -114.7577,-24.45493 -225.7314,-21.99036 -325,49"
       id="path4580"
       inkscape:connector-curvature="0"
       sodipodi:nodetypes="cc" />
    <path
       style="fill:none;stroke:#26616f;stroke-width:31;stroke-linecap:butt;stroke-linejoin:miter;stroke-miterlimit:4;stroke-opacity:1;stroke-dasharray:none"
       d="m 2164,580.00001 c -111.9922,-11.52694 -223.656,2.15037 -320,60"
       id="path4582"
       inkscape:connector-curvature="0"
       sodipodi:nodetypes="cc" />
  </g>
  <g
     inkscape:groupmode="layer"
     id="layer9"
     inkscape:label="Eyes"
     style="display:inline"
     sodipodi:insensitive="true"
     transform="translate(-299.09173,128.54972)">
    <path
       style="fill:#ffffff;fill-opacity:1;stroke:none;display:inline"
       d="m 1461.469,2150.1428 c -9.8882,-325.4695 53.6368,-588.3549 249.6925,-722.7524 195.324,-133.8961 652.4305,-187.3462 519.523,357.7794 -98.8311,405.3603 -427.7433,485.4757 -769.2155,364.973 z"
       id="path4888-9"
       inkscape:connector-curvature="0"
       sodipodi:nodetypes="cssc"
       inkscape:transform-center-x="-422.25157"
       inkscape:transform-center-y="-386.43831" />
    <path
       style="fill:#ffffff;fill-opacity:1;stroke:none;display:inline"
       d="m 1047.204,1994.5108 c -64.59423,-240.8581 -83.17833,-522.432 4.2642,-775.6794 28.257,-81.8366 74.5686,-90.2597 118.7496,1.4239 92.105,191.1339 97.0344,540.8976 -29.5275,708.0645 z"
       id="path4890-2"
       inkscape:connector-curvature="0"
       sodipodi:nodetypes="csscc"
       inkscape:transform-center-x="48.516534"
       inkscape:transform-center-y="-433.6577" />
    <ellipse
       style="color:#000000;fill:url(#linearGradient4412);fill-opacity:1;fill-rule:nonzero;stroke:none;stroke-width:1px;marker:none;visibility:visible;display:inline;overflow:visible;enable-background:accumulate"
       id="path4250"
       cx="2042.6084"
       cy="1554.6226"
       rx="309.81622"
       ry="388.16055"
       clip-path="url(#clipPath4314)"
       transform="matrix(0.98963496,0.1436059,-0.1436059,0.98963496,0,0)"
       sodipodi:cx="2042.6084"
       sodipodi:cy="1554.6226"
       sodipodi:rx="309.81622"
       sodipodi:ry="388.16055"
       d="m 2352.4246,1554.6226 c 0,214.3751 -138.7094,388.1605 -309.8162,388.1605 -171.1068,0 -309.8162,-173.7854 -309.8162,-388.1605 0,-214.3752 138.7094,-388.1606 309.8162,-388.1606 171.1068,0 309.8162,173.7854 309.8162,388.1606 z" />
    <ellipse
       style="color:#000000;fill:url(#linearGradient4420);fill-opacity:1;fill-rule:nonzero;stroke:none;stroke-width:1px;marker:none;visibility:visible;display:inline;overflow:visible;enable-background:accumulate"
       id="path4252"
       cx="1201.799"
       cy="1760"
       rx="162"
       ry="396"
       clip-path="url(#clipPath4350)"
       sodipodi:cx="1201.799"
       sodipodi:cy="1760"
       sodipodi:rx="162"
       sodipodi:ry="396"
       d="m 1363.799,1760 c 0,218.7048 -72.5299,396 -162,396 -89.4702,0 -162,-177.2952 -162,-396 0,-218.7048 72.5298,-396 162,-396 89.4701,0 162,177.2952 162,396 z" />
    <path
       style="fill:#e69bc8;fill-opacity:1;stroke:none"
       d="m 1633.4167,2030.9341 -93.3381,65.0539 -35.3554,-70.7107 110.3087,-41.0122 z"
       id="path4330"
       inkscape:connector-curvature="0"
       clip-path="url(#clipPath4394)" />
    <path
       style="fill:#881f4e;fill-opacity:1;stroke:none"
       d="m 1615.0319,1989.9219 -108.8945,42.4264 -31.1127,-117.3797 125.8651,5.6569 z"
       id="path4332"
       inkscape:connector-curvature="0"
       clip-path="url(#clipPath4390)" />
    <path
       style="fill:#e69bc8;fill-opacity:1;stroke:none"
       d="m 1111.5719,1868.2996 -70.7107,32.5269 -7.0711,-69.2965 67.8823,-4.2426 z"
       id="path4354"
       inkscape:connector-curvature="0"
       clip-path="url(#clipPath4402)" />
    <path
       style="fill:#881f4e;fill-opacity:1;stroke:none"
       d="m 1103.0866,1831.53 -69.2965,7.0711 -1.4142,-90.5097 70.7107,19.799 z"
       id="path4356"
       inkscape:connector-curvature="0"
       clip-path="url(#clipPath4398)" />
    <ellipse
       style="color:#000000;fill:#000000;fill-opacity:1;fill-rule:nonzero;stroke:none;stroke-width:1px;marker:none;visibility:visible;display:inline;overflow:visible;enable-background:accumulate"
       id="path4256"
       cx="2044.389"
       cy="1563.5253"
       rx="208.32471"
       ry="300.91348"
       clip-path="url(#clipPath4310)"
       transform="matrix(0.98963496,0.1436059,-0.1436059,0.98963496,0,0)"
       sodipodi:cx="2044.389"
       sodipodi:cy="1563.5253"
       sodipodi:rx="208.32471"
       sodipodi:ry="300.91348"
       d="m 2252.7137,1563.5253 c 0,166.1899 -93.2701,300.9135 -208.3247,300.9135 -115.0545,0 -208.3247,-134.7236 -208.3247,-300.9135 0,-166.19 93.2702,-300.9135 208.3247,-300.9135 115.0546,0 208.3247,134.7235 208.3247,300.9135 z" />
    <ellipse
       style="color:#000000;fill:#ffffff;fill-opacity:1;fill-rule:nonzero;stroke:none;stroke-width:1px;marker:none;visibility:visible;display:inline;overflow:visible;enable-background:accumulate"
       id="path4290"
       cx="2351.5432"
       cy="285.9852"
       rx="89.05291"
       ry="202.97942"
       transform="matrix(0.77721129,0.62923971,-0.52275927,0.85248035,0,0)"
       sodipodi:cx="2351.5432"
       sodipodi:cy="285.9852"
       sodipodi:rx="89.05291"
       sodipodi:ry="202.97942"
       d="m 2440.5961,285.9852 c 0,112.10243 -39.8703,202.97941 -89.0529,202.97941 -49.1826,0 -89.0529,-90.87698 -89.0529,-202.97941 0,-112.10244 39.8703,-202.979417 89.0529,-202.979417 49.1826,0 89.0529,90.876977 89.0529,202.979417 z" />
    <ellipse
       style="color:#000000;fill:#ffffff;fill-opacity:1;fill-rule:nonzero;stroke:none;stroke-width:1px;marker:none;visibility:visible;display:inline;overflow:visible;enable-background:accumulate"
       id="path4292"
       cx="2128.3772"
       cy="1484.6512"
       rx="49.497475"
       ry="79.195961"
       transform="matrix(0.98240661,0.18675452,-0.18675452,0.98240661,0,0)"
       sodipodi:cx="2128.3772"
       sodipodi:cy="1484.6512"
       sodipodi:rx="49.497475"
       sodipodi:ry="79.195961"
       d="m 2177.8747,1484.6512 c 0,43.7388 -22.1608,79.196 -49.4975,79.196 -27.3367,0 -49.4975,-35.4572 -49.4975,-79.196 0,-43.7387 22.1608,-79.1959 49.4975,-79.1959 27.3367,0 49.4975,35.4572 49.4975,79.1959 z" />
    <ellipse
       style="color:#000000;fill:#000000;fill-opacity:1;fill-rule:nonzero;stroke:none;stroke-width:1px;marker:none;visibility:visible;display:inline;overflow:visible;enable-background:accumulate"
       id="path4254"
       cx="1182"
       cy="1762"
       rx="90"
       ry="302"
       clip-path="url(#clipPath4274)"
       sodipodi:cx="1182"
       sodipodi:cy="1762"
       sodipodi:rx="90"
       sodipodi:ry="302"
       d="m 1272,1762 c 0,166.79 -40.2944,302 -90,302 -49.7056,0 -90,-135.21 -90,-302 0,-166.79 40.2944,-302 90,-302 49.7056,0 90,135.21 90,302 z" />
    <ellipse
       style="color:#000000;fill:#ffffff;fill-opacity:1;fill-rule:nonzero;stroke:none;stroke-width:1px;marker:none;visibility:visible;display:inline;overflow:visible;enable-background:accumulate"
       id="path4294"
       cx="1426.9591"
       cy="1322.1699"
       rx="33.941124"
       ry="128.69344"
       transform="matrix(0.97766769,0.21015683,-0.21015683,0.97766769,0,0)"
       sodipodi:cx="1426.9591"
       sodipodi:cy="1322.1699"
       sodipodi:rx="33.941124"
       sodipodi:ry="128.69344"
       d="m 1460.9002,1322.1699 c 0,71.0754 -15.1959,128.6935 -33.9411,128.6935 -18.7452,0 -33.9411,-57.6181 -33.9411,-128.6935 0,-71.0754 15.1959,-128.6934 33.9411,-128.6934 18.7452,0 33.9411,57.618 33.9411,128.6934 z" />
    <ellipse
       style="color:#000000;fill:#ffffff;fill-opacity:1;fill-rule:nonzero;stroke:none;stroke-width:1px;marker:none;visibility:visible;display:inline;overflow:visible;enable-background:accumulate"
       id="path4296"
       cx="1162.4835"
       cy="1715.5645"
       rx="14.142136"
       ry="33.941124"
       sodipodi:cx="1162.4835"
       sodipodi:cy="1715.5645"
       sodipodi:rx="14.142136"
       sodipodi:ry="33.941124"
       d="m 1176.6257,1715.5645 c 0,18.7451 -6.3317,33.9411 -14.1422,33.9411 -7.8105,0 -14.1421,-15.196 -14.1421,-33.9411 0,-18.7452 6.3316,-33.9412 14.1421,-33.9412 7.8105,0 14.1422,15.196 14.1422,33.9412 z" />
  </g>
  <g
     inkscape:groupmode="layer"
     id="layer6"
     inkscape:label="Eye Clipping"
     style="opacity:0.5;display:none"
     sodipodi:insensitive="true"
     transform="translate(-299.09173,128.54972)">
    <path
       style="fill:#00ff00;fill-opacity:1;stroke:#ff0000;stroke-width:1.06630957px;stroke-linecap:butt;stroke-linejoin:miter;stroke-opacity:1;display:inline"
       d="m 1461.469,2150.1428 c -9.8882,-325.4695 53.6368,-588.3549 249.6925,-722.7524 195.324,-133.8961 652.4305,-187.3462 519.523,357.7794 -98.8311,405.3604 -427.7433,485.4758 -769.2155,364.973 z"
       id="path4888"
       inkscape:connector-curvature="0"
       sodipodi:nodetypes="cssc"
       inkscape:transform-center-x="-422.25157"
       inkscape:transform-center-y="-386.43831" />
    <path
       style="fill:#00ff00;fill-opacity:1;stroke:#ff0000;stroke-width:1.07659733px;stroke-linecap:butt;stroke-linejoin:miter;stroke-opacity:1;display:inline"
       d="m 1047.204,1994.5108 c -64.59423,-240.8581 -83.17833,-522.432 4.2642,-775.6794 28.257,-81.8366 74.5686,-90.2597 118.7496,1.4239 92.105,191.1339 100.0344,540.8976 -26.5275,708.0645 z"
       id="path4890"
       inkscape:connector-curvature="0"
       sodipodi:nodetypes="csscc"
       inkscape:transform-center-x="48.516534"
       inkscape:transform-center-y="-433.6577" />
  </g>
  <g
     inkscape:groupmode="layer"
     id="layer7"
     inkscape:label="Forward Ear"
     style="display:inline"
     sodipodi:insensitive="true"
     transform="translate(-299.09173,128.54972)">
    <path
       style="fill:#d0e3eb;fill-opacity:1;stroke:none;display:inline"
       d="m 2616,1712 c 312.6044,-293.5361 323.1365,-733.8547 154,-1059.99995 -38.7409,-74.70394 -75.2917,-100.59274 -142,-48 -164.0531,129.33926 -257.6692,284.19339 -296,464.00005"
       id="path4123-5"
       inkscape:connector-curvature="0"
       sodipodi:nodetypes="cssc" />
    <path
       style="font-style:normal;font-variant:normal;font-weight:normal;font-stretch:normal;text-indent:0;text-align:start;text-decoration:none;line-height:normal;letter-spacing:normal;word-spacing:normal;text-transform:none;direction:ltr;block-progression:tb;writing-mode:lr-tb;text-anchor:start;baseline-shift:baseline;color:#000000;fill:#2b5f73;fill-opacity:1;stroke:none;stroke-width:49;marker:none;visibility:visible;display:inline;overflow:visible;enable-background:accumulate;font-family:sans-serif;-inkscape-font-specification:sans-serif"
       d="m 2686.4219,552.00977 c -6.7444,0.25543 -13.5436,1.3341 -20.2207,3.22656 -17.8056,5.04655 -35.0704,15.09673 -53.3692,29.52344 -167.9608,132.4201 -271.3642,291.17601 -286.5012,461.43363 64.863,-153.7424 156.6918,-296.69475 316.8372,-422.95317 15.0554,-11.86966 27.3745,-18.30482 36.3945,-20.86132 9.02,-2.55651 14.4081,-2.02097 20.5566,0.52343 12.2971,5.08882 29.6776,24.79356 48.1309,60.37696 85.8461,165.53681 124.1899,361.6195 98.2305,551.1445 -23.8741,174.3006 -83.6643,341.0097 -242.7188,500.9497 188.9455,-112.06 266.0191,-309.9808 291.2656,-494.3012 27.4518,-200.4202 -12.9094,-406.09547 -103.2773,-580.3516 -20.2876,-39.12054 -40.5538,-69.71231 -72.8945,-83.0957 -10.1065,-4.18231 -21.1931,-6.04097 -32.4336,-5.61523 z"
       id="path4123"
       inkscape:connector-curvature="0"
       sodipodi:nodetypes="ssscssssscssss" />
    <path
       style="fill:#2b5f73;fill-opacity:1;stroke:none"
       d="m 2684,910.00002 c 16.3469,166.82668 -44.0852,380.41128 -112,499.99998 119.3566,-98.302 163.6575,-327.8006 112,-499.99998 z"
       id="path4125"
       inkscape:connector-curvature="0"
       sodipodi:nodetypes="ccc" />
  </g>
  <g
     inkscape:groupmode="layer"
     id="layer11"
     inkscape:label="Eyelashes"
     sodipodi:insensitive="true"
     transform="translate(-299.09173,128.54972)">
    <path
       style="fill:#5eb7c2;fill-opacity:1;stroke:none"
       d="m 1144.0988,1927.6965 c 44.5604,-165.4629 30.0521,-330.9259 24.0416,-496.3889 -42.7671,-69.2173 -105.9528,-77.1788 -166.8772,-91.9239 68.3536,-305.7085 136.7073,-209.0227 205.061,-93.3381 91.3267,194.1735 113.25,499.4474 -62.2254,681.6509 z"
       id="path4363"
       inkscape:connector-curvature="0"
       sodipodi:nodetypes="ccccc"
       clip-path="url(#clipPath4380)" />
    <path
       style="fill:none;stroke:#2b5f73;stroke-width:31;stroke-linecap:butt;stroke-linejoin:miter;stroke-miterlimit:4;stroke-opacity:1;stroke-dasharray:none"
       d="m 1046.518,1989.9219 c -96.6754,-313.2163 -35.2375,-754.5076 84.8529,-910.7535"
       id="path4291"
       inkscape:connector-curvature="0"
       sodipodi:nodetypes="cc" />
    <path
       style="fill:#5eb7c2;fill-opacity:1;stroke:none"
       d="m 1461.469,2150.1428 c 20.5858,-233.1398 96.699,-410.7522 230.421,-530.7559 187.7322,-105.1502 385.9507,-157.8685 596.3075,-149.8955 -93.4609,-172.3609 -360.4157,-299.3769 -602.4549,-124.4508 -243.539,259.4842 -265.2166,530.6453 -224.2736,805.1022 z"
       inkscape:connector-curvature="0"
       sodipodi:nodetypes="ccccc"
       clip-path="url(#clipPath4351)"
       id="path101" />
    <path
       style="fill:#000000;stroke:none"
       d="m 1461.469,2150.1428 c 90.6632,-520.8499 329.5424,-557.1493 480.4233,-579.7996 150.8809,-22.6504 259.4587,11.2562 316.9252,70.8743 74.1698,76.9469 182.1302,161.7784 357.1825,170.7825 -104.6543,-81.867 -247.8274,-190.863 -268,-424 -121.3333,-0.7303 -228.7925,20.042 -352,56 -251.4321,73.3802 -534.531,190.7162 -534.531,706.1428 z"
       id="path4311"
       inkscape:connector-curvature="0"
       sodipodi:nodetypes="czsccsc" />
    <path
       style="fill:#000000;stroke:none"
       d="m 2102.2725,2047.4888 c 120.6987,-109.7503 184.78,-261.5219 183.0966,-439.4045 l -53.7402,-14.1422 c -5.6621,202.6852 -41.6044,324.1371 -129.3564,453.5467 z"
       id="path4313"
       inkscape:connector-curvature="0"
       sodipodi:nodetypes="cccc" />
    <path
       style="fill:#000000;stroke:none"
       d="m 2324.9671,1472.3198 c 134.0011,107.3234 277.568,145.5246 418.6072,172.534 -136.3328,25.6765 -272.6656,17.4108 -401.6366,-62.2254 z"
       id="path4315"
       inkscape:connector-curvature="0"
       sodipodi:nodetypes="cccc" />
    <path
       style="fill:#000000;stroke:none"
       d="m 2356.0798,1534.5452 c 162.9488,29.2269 312.3318,-11.4392 415.7788,-87.6813 -129.5059,36.6892 -278.4216,37.7764 -435.5778,2.8285 z"
       id="path4317"
       inkscape:connector-curvature="0"
       sodipodi:nodetypes="cccc" />
    <path
       style="fill:#000000;stroke:none"
       d="m 2341.9377,1475.1482 c 126.8828,-19.3186 214.9343,-70.2697 294.1563,-178.1909 -123.9984,67.2284 -331.7637,95.3637 -511.9452,115.9655 z"
       id="path4319"
       inkscape:connector-curvature="0"
       sodipodi:nodetypes="cccc" />
    <path
       style="fill:#000000;stroke:none"
       d="m 1144.0988,1927.6965 c 22.2169,-156.5063 26.2832,-390.9311 -4.2427,-469.5189 -30.5259,-78.5878 -95.8025,-77.6964 -130.1076,-39.5979 -34.30511,38.0985 -83.59425,40.2296 -152.73513,31.1127 68.20222,-19.061 140.9019,-81.9859 175.36253,-144.2498 70.8201,7.1152 135.6975,38.5785 164.0487,132.9361 28.3512,94.3576 -10.1444,333.5093 -52.3258,489.3178 z"
       id="path4355"
       inkscape:connector-curvature="0"
       sodipodi:nodetypes="czzcczc" />
    <path
       style="fill:#000000;stroke:#000000;stroke-width:1px;stroke-linecap:butt;stroke-linejoin:miter;stroke-opacity:1"
       d="m 1063.4886,1316.7563 c -83.14346,46.7347 -170.6537,50.8436 -257.38691,36.7695 88.26081,53.2217 175.6313,57.3669 257.38691,33.9412 z"
       id="path4357"
       inkscape:connector-curvature="0"
       sodipodi:nodetypes="cccc" />
    <path
       style="fill:#000000;stroke:none"
       d="m 1069.1454,1315.342 c -89.2265,22.8643 -172.82976,-4.8809 -254.55843,-49.4974 66.91473,73.2902 165.95918,117.6281 241.83053,117.3797 z"
       id="path4359"
       inkscape:connector-curvature="0"
       sodipodi:nodetypes="cccc" />
    <path
       style="fill:#000000;stroke:none"
       d="m 1087.5302,1319.5847 c -77.2848,-21.9523 -150.38588,-50.7206 -216.37468,-132.9361 35.58176,104.2273 97.2957,159.4567 162.63458,207.8894 z"
       id="path4361"
       inkscape:connector-curvature="0"
       sodipodi:nodetypes="cccc" />
    <path
       style="font-style:normal;font-variant:normal;font-weight:normal;font-stretch:normal;text-indent:0;text-align:start;text-decoration:none;line-height:normal;letter-spacing:normal;word-spacing:normal;text-transform:none;direction:ltr;block-progression:tb;writing-mode:lr-tb;text-anchor:start;baseline-shift:baseline;color:#000000;fill:#2b5f73;fill-opacity:1;stroke:none;stroke-width:49;marker:none;visibility:visible;display:inline;overflow:visible;enable-background:accumulate;font-family:sans-serif;-inkscape-font-specification:sans-serif"
       d="m 987.17774,1976.7363 c -27.22117,-0.064 -50.83156,8.2714 -67.88476,22.9356 -17.05321,14.6642 -27.00835,34.5504 -31.74415,54.9961 l 47.73634,11.0586 c 2.94078,-12.6961 8.32909,-22.3447 15.95507,-28.9024 7.62599,-6.5576 18.02924,-11.1296 35.82422,-11.0879 90.22734,0.2116 151.72954,-60.24 196.10104,-166.5601 -74.4223,88.8415 -120.6676,117.7367 -195.98776,117.5601 z"
       id="path4103-8"
       inkscape:connector-curvature="0"
       sodipodi:nodetypes="ssccsscs" />
  </g>
  <g
     inkscape:groupmode="layer"
     id="layer13"
     inkscape:label="Front Mane"
     sodipodi:insensitive="true"
     transform="translate(-299.09173,128.54972)">
    <path
       style="fill:#4ca1bb;fill-opacity:1;stroke:none"
       d="m 2201.9412,1177.4214 -32,80 c -256.3235,25.5395 -501.3334,125.5897 -752.0001,274.0102 -111.8632,-116.0422 -219.9144,-255.8962 -363.0294,-340.6864 38.9291,-112.2381 80.2615,-172.6731 144,-243.99996 -88.1108,33.73599 -161.9635,108.69666 -215.02953,184.48526 l -73.65681,-46.3432 C 1240.552,523.33795 1876.3324,564.90778 2204.0001,824.00005 L 2348,1052 z"
       id="path4399-3"
       inkscape:connector-curvature="0"
       sodipodi:nodetypes="cccccccc" />
    <path
       style="fill:#4ca1bb;fill-opacity:1;stroke:none"
       d="M 2069.1493,1270.7612 C 2290.2417,1576.8984 2358.3646,2007.023 2240,2452 2670.4047,2048.188 2690.8532,1459.0613 2341.955,872.81059"
       id="path4397"
       inkscape:connector-curvature="0"
       sodipodi:nodetypes="ccc" />
    <path
       style="fill:#242661;fill-opacity:1;stroke:none"
       d="m 1324,1424 c 52.6333,-315.8867 167.2498,-607.38348 424,-788.00001 l -84,4 C 1459.3735,758.15791 1293.1043,1009.0661 1216,1320 z"
       id="path4544-0"
       inkscape:connector-curvature="0"
       sodipodi:nodetypes="ccccc" />
    <path
       style="fill:#242661;fill-opacity:1;stroke:none"
       d="m 1544,1456 c 5.9371,-327.956 120.2685,-666.1655 312,-807.99998 l 60,12 C 1748.1168,853.93731 1690.6259,1092.7651 1720,1376 z"
       id="path4546-5"
       inkscape:connector-curvature="0"
       sodipodi:nodetypes="ccccc" />
    <path
       style="font-style:normal;font-variant:normal;font-weight:normal;font-stretch:normal;text-indent:0;text-align:start;text-decoration:none;line-height:normal;letter-spacing:normal;word-spacing:normal;text-transform:none;direction:ltr;block-progression:tb;writing-mode:lr-tb;text-anchor:start;baseline-shift:baseline;color:#000000;fill:#26616f;fill-opacity:1;fill-rule:nonzero;stroke:none;stroke-width:49;marker:none;visibility:visible;display:inline;overflow:visible;enable-background:accumulate;font-family:sans-serif;-inkscape-font-specification:sans-serif"
       d="M 1555.3438,622.35938 C 1307.3112,650.31292 1057.8876,785.5416 889.10742,1072.4648 l -12.05664,20.4961 113.52344,71.4258 13.37698,-19.1035 c 25.0142,-35.7252 55.5018,-69.4987 89.8047,-99.3359 -22.8514,38.4068 -42.9498,81.8674 -61.9922,136.7695 l -6.5567,18.9062 17.2168,10.2012 c 137.6033,81.5247 244.6605,219.1633 357.8789,336.6113 l 13.4473,13.9493 16.6738,-9.8711 c 248.7977,-147.3138 490.3727,-245.6466 741.9473,-270.7129 l 14.7949,-1.4746 c 17.5981,-53.7957 18.2531,-110.4152 13.3612,-167.9591 -12.896,53.5398 -17.7084,81.6237 -47.9256,122.4356 -249.7643,27.6943 -488.2623,124.4291 -730.1328,265.67 -101.7064,-107.4353 -203.6439,-235.0268 -337.6641,-319.9356 17.7448,-45.8845 37.7307,-84.1796 59.4287,-119.1288 40.0121,-64.44775 85.6111,-128.57439 146.8694,-197.12645 -85.8733,37.25259 -164.1519,93.54376 -233.8556,152.46145 -30.3005,25.6117 -57.33921,52.9185 -79.60853,81.6141 l -33.96679,-21.373 C 1104.6464,816.53986 1332.376,697.0188 1560.877,671.04688 c 234.3827,-26.64046 463.6412,9.01209 668.6728,116.71073 -194.9683,-142.30137 -419.1469,-194.14365 -674.206,-165.39823 z"
       id="path4399"
       inkscape:connector-curvature="0"
       sodipodi:nodetypes="sscccccccsccccccccscsccscs" />
    <path
       style="font-style:normal;font-variant:normal;font-weight:normal;font-stretch:normal;text-indent:0;text-align:start;text-decoration:none;line-height:normal;letter-spacing:normal;word-spacing:normal;text-transform:none;direction:ltr;block-progression:tb;writing-mode:lr-tb;text-anchor:start;baseline-shift:baseline;color:#000000;fill:#26616f;fill-opacity:1;fill-rule:nonzero;stroke:none;stroke-width:49;marker:none;visibility:visible;display:inline;overflow:visible;enable-background:accumulate;font-family:sans-serif;-inkscape-font-specification:sans-serif"
       d="m 2341.955,872.81059 c 144.8136,266.47001 230.7759,625.33371 214.463,879.80071 -14.6598,228.6799 -101.4774,436.6401 -272.2461,620.3047 90.1634,-420.5192 16.614,-823.2653 -195.1602,-1116.5 l -39.7246,28.6895 c 216.1137,299.2434 283.7932,721.6658 167.0371,1160.5957 l -22.0156,82.7617 62.4551,-58.5957 c 219.1279,-205.589 331.4912,-447.9464 348.5547,-714.1211 17.0634,-266.1747 -78.1769,-625.4055 -263.3634,-882.93551 z"
       id="path4397-9"
       inkscape:connector-curvature="0"
       sodipodi:nodetypes="cscccscssc" />
    <path
       style="font-style:normal;font-variant:normal;font-weight:normal;font-stretch:normal;text-indent:0;text-align:start;text-decoration:none;line-height:normal;letter-spacing:normal;word-spacing:normal;text-transform:none;direction:ltr;block-progression:tb;writing-mode:lr-tb;text-anchor:start;baseline-shift:baseline;color:#000000;fill:#26616f;fill-opacity:1;stroke:none;stroke-width:31;marker:none;visibility:visible;display:inline;overflow:visible;enable-background:accumulate;font-family:sans-serif;-inkscape-font-specification:sans-serif"
       d="m 2366.9102,1361.53 c 90.9998,340.2342 85.4738,768.5464 -139.4942,1081.4212 l 25.168,18.0976 C 2485.9514,2136.4926 2490.8708,1697.29 2366.9102,1361.53 z"
       id="path4538"
       inkscape:connector-curvature="0"
       sodipodi:nodetypes="cccc" />
    <path
       style="fill:none;stroke:#26616f;stroke-width:31;stroke-linecap:butt;stroke-linejoin:miter;stroke-miterlimit:4;stroke-opacity:1;stroke-dasharray:none"
       d="M 1664,640.00001 C 1459.3735,758.15793 1293.1043,1009.0661 1216,1320 m 108,104 c 52.6333,-315.8867 167.2498,-607.38346 424,-787.99999"
       id="path4544"
       inkscape:connector-curvature="0"
       sodipodi:nodetypes="cccc" />
    <path
       style="fill:none;stroke:#26616f;stroke-width:31;stroke-linecap:butt;stroke-linejoin:miter;stroke-miterlimit:4;stroke-opacity:1;stroke-dasharray:none"
       d="m 1544,1456 c 5.9371,-327.956 120.2685,-666.1655 312,-807.99999 m 60,12 C 1748.1168,853.93731 1690.6259,1092.7651 1720,1376"
       id="path4546"
       inkscape:connector-curvature="0"
       sodipodi:nodetypes="cccc" />
    <path
       style="fill:none;stroke:#26616f;stroke-width:31;stroke-linecap:butt;stroke-linejoin:miter;stroke-miterlimit:4;stroke-opacity:1;stroke-dasharray:none"
       d="M 2046,700.00001 C 1951.8009,811.85787 1927.7819,1101.4558 2012,1268"
       id="path4548"
       inkscape:connector-curvature="0"
       sodipodi:nodetypes="cc" />
  </g>
  <!-- Created by Sigma
       http://90sigma.deviantart.com/ -->
</svg>
