<?xml version="1.0" encoding="UTF-8" standalone="no"?>
<!-- Created with Inkscape (http://www.inkscape.org/) -->

<svg
   xmlns:dc="http://purl.org/dc/elements/1.1/"
   xmlns:cc="http://creativecommons.org/ns#"
   xmlns:rdf="http://www.w3.org/1999/02/22-rdf-syntax-ns#"
   xmlns:svg="http://www.w3.org/2000/svg"
   xmlns="http://www.w3.org/2000/svg"
   xmlns:xlink="http://www.w3.org/1999/xlink"
   xmlns:sodipodi="http://sodipodi.sourceforge.net/DTD/sodipodi-0.dtd"
   xmlns:inkscape="http://www.inkscape.org/namespaces/inkscape"
   width="5915.0269"
   height="5915.0273"
   id="svg2"
   version="1.1"
   inkscape:version="0.48.4 r9939"
   viewBox="0 0 5915.0269 5915.0274"
   sodipodi:docname="Sunset Shimmer.svg">
  <title
     id="title4073">Sunset Shimmer</title>
  <defs
     id="defs4">
    <linearGradient
       id="linearGradient4553">
      <stop
         style="stop-color:#73ebc8;stop-opacity:1;"
         offset="0"
         id="stop4555" />
      <stop
         style="stop-color:#11897b;stop-opacity:1;"
         offset="1"
         id="stop4557" />
    </linearGradient>
    <clipPath
       clipPathUnits="userSpaceOnUse"
       id="clipPath4259">
      <path
         style="opacity:0.5;fill:#00ff00;fill-opacity:1;stroke:#ff0000;stroke-width:1px;stroke-linecap:butt;stroke-linejoin:miter;stroke-opacity:1"
         d="m 1080,1662 c 3.3745,186.8142 57.6643,365.7953 130,542 57.8902,-24.2057 132.9001,-49.996 137.2147,-151.4378 C 1343.9073,1938.3748 1340.1968,1824.1874 1290,1710 z"
         id="path4261"
         inkscape:connector-curvature="0"
         sodipodi:nodetypes="ccccc" />
    </clipPath>
    <clipPath
       clipPathUnits="userSpaceOnUse"
       id="clipPath4263">
      <path
         style="opacity:0.5;fill:#00ff00;fill-opacity:1;stroke:#ff0000;stroke-width:1px;stroke-linecap:butt;stroke-linejoin:miter;stroke-opacity:1"
         d="m 944.85023,1752.7007 c -11.45203,186.3687 28.47512,369.5262 86.61257,551.5454 59.6311,-18.8893 136.4546,-37.8134 148.8011,-138.4591 5.7589,-114.0273 11.116,-228.091 -29.8695,-346.3458 z"
         id="path4265"
         inkscape:connector-curvature="0"
         sodipodi:nodetypes="ccccc" />
    </clipPath>
    <clipPath
       clipPathUnits="userSpaceOnUse"
       id="clipPath4267">
      <path
         style="opacity:0.5;fill:#00ff00;fill-opacity:1;stroke:#ff0000;stroke-width:1px;stroke-linecap:butt;stroke-linejoin:miter;stroke-opacity:1"
         d="m 849.96914,1811.1771 c -21.47035,185.0905 8.57881,370.4198 56.88805,555.8337 60.60954,-14.8436 138.40261,-28.5703 156.15551,-128.113 11.8893,-113.3289 23.379,-226.7209 -11.2193,-347.3964 z"
         id="path4269"
         inkscape:connector-curvature="0"
         sodipodi:nodetypes="ccccc" />
    </clipPath>
    <clipPath
       clipPathUnits="userSpaceOnUse"
       id="clipPath4271">
      <path
         style="opacity:0.5;fill:#00ff00;fill-opacity:1;stroke:#ff0000;stroke-width:1px;stroke-linecap:butt;stroke-linejoin:miter;stroke-opacity:1"
         d="m 1080,1662 c 3.3745,186.8142 57.6643,365.7953 130,542 57.8902,-24.2057 132.9001,-49.996 137.2147,-151.4378 C 1343.9073,1938.3748 1340.1968,1824.1874 1290,1710 z"
         id="path4273"
         inkscape:connector-curvature="0"
         sodipodi:nodetypes="ccccc" />
    </clipPath>
    <clipPath
       clipPathUnits="userSpaceOnUse"
       id="clipPath4275">
      <path
         style="opacity:0.5;fill:#00ff00;fill-opacity:1;stroke:#ff0000;stroke-width:1px;stroke-linecap:butt;stroke-linejoin:miter;stroke-opacity:1"
         d="m 1544.1874,2127.341 c -110.314,-167.1613 -121.1952,-352.0621 -53.9723,-540.8688 l 510.9664,-280.4913 c 118.247,130.4401 256.0636,347.2457 191.2744,577.0044 -59.776,166.98 -362.5022,258.4323 -648.2685,244.3557 z"
         id="path4277"
         inkscape:connector-curvature="0"
         sodipodi:nodetypes="ccccc" />
    </clipPath>
    <clipPath
       clipPathUnits="userSpaceOnUse"
       id="clipPath4279">
      <path
         style="opacity:0.5;fill:#00ff00;fill-opacity:1;stroke:#ff0000;stroke-width:1px;stroke-linecap:butt;stroke-linejoin:miter;stroke-opacity:1"
         d="m 958.23819,2461.635 c -64.63106,-190.5083 -28.60528,-371.7879 83.96111,-536.1426 l 564.9238,-135.2459 c 81.5506,157.1807 160.2885,402.8739 39.7661,607.3848 -99.8672,145.2688 -415.7469,153.298 -688.65101,64.0037 z"
         id="path4281"
         inkscape:connector-curvature="0"
         sodipodi:nodetypes="ccccc" />
    </clipPath>
    <clipPath
       clipPathUnits="userSpaceOnUse"
       id="clipPath4283">
      <path
         style="opacity:0.5;fill:#00ff00;fill-opacity:1;stroke:#ff0000;stroke-width:1px;stroke-linecap:butt;stroke-linejoin:miter;stroke-opacity:1"
         d="m 1728,1984 c -124.7997,-156.8607 -152.1285,-340.0745 -102,-534 l 484.0001,-324 c 129.4276,119.593 286.052,323.4983 242,558 -44.6566,171.5354 -338.0704,289.0626 -624.0001,300 z"
         id="path4285"
         inkscape:connector-curvature="0"
         sodipodi:nodetypes="ccccc" />
    </clipPath>
    <clipPath
       clipPathUnits="userSpaceOnUse"
       id="clipPath4333">
      <ellipse
         style="color:#000000;fill:#ff0000;fill-opacity:1;fill-rule:nonzero;stroke:none;stroke-width:1px;marker:none;visibility:visible;display:inline;overflow:visible;enable-background:accumulate"
         id="ellipse4335"
         cx="1456.6439"
         cy="2182.1772"
         rx="306.48093"
         ry="350.73608"
         transform="matrix(0.93744556,-0.3481319,0.33705397,0.94148533,0,0)"
         clip-path="none"
         sodipodi:cx="1456.6439"
         sodipodi:cy="2182.1772"
         sodipodi:rx="306.48093"
         sodipodi:ry="350.73608" />
    </clipPath>
    <clipPath
       clipPathUnits="userSpaceOnUse"
       id="clipPath4337">
      <ellipse
         style="color:#000000;fill:#ff0000;fill-opacity:1;fill-rule:nonzero;stroke:none;stroke-width:1px;marker:none;visibility:visible;display:inline;overflow:visible;enable-background:accumulate"
         id="ellipse4339"
         cx="1456.6439"
         cy="2182.1772"
         rx="306.48093"
         ry="350.73608"
         transform="matrix(0.93744556,-0.3481319,0.33705397,0.94148533,0,0)"
         clip-path="none"
         sodipodi:cx="1456.6439"
         sodipodi:cy="2182.1772"
         sodipodi:rx="306.48093"
         sodipodi:ry="350.73608" />
    </clipPath>
    <clipPath
       clipPathUnits="userSpaceOnUse"
       id="clipPath4341">
      <ellipse
         style="color:#000000;fill:#ff0000;fill-opacity:1;fill-rule:nonzero;stroke:none;stroke-width:1px;marker:none;visibility:visible;display:inline;overflow:visible;enable-background:accumulate"
         id="ellipse4343"
         cx="1021.6683"
         cy="2070.3669"
         rx="134.2558"
         ry="273.72311"
         transform="matrix(0.98765646,-0.15663563,0.13279899,0.99114299,0,0)"
         clip-path="none"
         sodipodi:cx="1021.6683"
         sodipodi:cy="2070.3669"
         sodipodi:rx="134.2558"
         sodipodi:ry="273.72311" />
    </clipPath>
    <clipPath
       clipPathUnits="userSpaceOnUse"
       id="clipPath4345">
      <ellipse
         style="color:#000000;fill:#ff0000;fill-opacity:1;fill-rule:nonzero;stroke:none;stroke-width:1px;marker:none;visibility:visible;display:inline;overflow:visible;enable-background:accumulate"
         id="ellipse4347"
         cx="1021.6683"
         cy="2070.3669"
         rx="134.2558"
         ry="273.72311"
         transform="matrix(0.98765646,-0.15663563,0.13279899,0.99114299,0,0)"
         clip-path="none"
         sodipodi:cx="1021.6683"
         sodipodi:cy="2070.3669"
         sodipodi:rx="134.2558"
         sodipodi:ry="273.72311" />
    </clipPath>
    <mask
       maskUnits="userSpaceOnUse"
       id="mask4402">
      <path
         style="fill:#ffffff;stroke:#ffffff;stroke-width:31;stroke-linecap:butt;stroke-linejoin:miter;stroke-miterlimit:4;stroke-opacity:1;stroke-dasharray:none"
         d="m 1196.4247,1134.9186 c -212.82852,312.5853 -128.8449,792.2233 25.4558,1086.116 L 978.63575,2257.8042 777.81742,1199.9725 z"
         id="path4404"
         inkscape:connector-curvature="0"
         sodipodi:nodetypes="cc" />
    </mask>
    <mask
       maskUnits="userSpaceOnUse"
       id="mask4406">
      <path
         style="fill:#ffffff;stroke:#ffffff;stroke-width:31;stroke-linecap:butt;stroke-linejoin:miter;stroke-miterlimit:4;stroke-opacity:1;stroke-dasharray:none"
         d="m 1196.4247,1134.9186 c -212.82852,312.5853 -128.8449,792.2233 25.4558,1086.116 L 978.63575,2257.8042 777.81742,1199.9725 z"
         id="path4408"
         inkscape:connector-curvature="0"
         sodipodi:nodetypes="cc" />
    </mask>
    <mask
       maskUnits="userSpaceOnUse"
       id="mask4410">
      <path
         style="fill:#ffffff;stroke:#ffffff;stroke-width:31;stroke-linecap:butt;stroke-linejoin:miter;stroke-miterlimit:4;stroke-opacity:1;stroke-dasharray:none"
         d="m 1196.4247,1134.9186 c -212.82852,312.5853 -128.8449,792.2233 25.4558,1086.116 L 978.63575,2257.8042 777.81742,1199.9725 z"
         id="path4412"
         inkscape:connector-curvature="0"
         sodipodi:nodetypes="cc" />
    </mask>
    <clipPath
       clipPathUnits="userSpaceOnUse"
       id="clipPath4096">
      <path
         style="opacity:0.5;fill:#00ff00;fill-opacity:1;stroke:#ff0000;stroke-width:1px;stroke-linecap:butt;stroke-linejoin:miter;stroke-opacity:1"
         d="m 422.0104,20.797227 c 33.7391,5.76696 71.01625,33.612114 89.01825,68.664924 18.00199,35.052809 23.87172,73.399909 -24.50977,100.490049 -32.92518,18.43572 -26.85274,43.70909 -23.28428,63.7254 39.71342,-56.83038 100.85629,-55.49509 162.98995,-51.47052 -57.86225,22.81705 -103.27038,71.41193 -73.5293,90.68614 32.75186,21.2254 53.65059,40.96523 44.11758,78.43125 50.65352,-18.4774 101.44477,-33.33266 151.96056,6.12745 42.61168,33.28586 67.5157,8.82173 90.68613,-22.0588 -14.09276,56.98556 -34.84447,118.2308 -107.84297,105.392 -22.37822,-3.93583 -46.7531,-2.00306 -60.04893,17.15684 -4.41556,13.16915 -6.8174,26.74105 -26.96074,36.76465 36.28476,24.27056 54.63606,57.22709 29.41172,98.03907 -28.28196,45.75906 24.94303,52.13895 69.85283,19.60781 -12.43902,90.88157 -92.34488,90.07017 -115.1959,57.59796 -44.24194,-62.86956 -191.37543,-27.54079 -120.87657,86.47836 49.03512,79.30543 27.66678,159.83466 -34.32862,213.29474 9.53179,-62.36404 0.24114,-125.82344 -64.45821,-178.6327 C 361.74489,772.51112 351.09236,728.10636 356.61711,676.47107 284.82588,693.42081 236.31607,691.1271 253.67609,794.11796 164.1634,750.84053 149.72498,697.42121 226.71535,631.128 263.10795,599.79185 238.07086,512.29535 175.24483,545.34382 121.2053,573.7703 61.923051,570.69364 11.029395,511.03015 c 46.098012,-1.28754 91.205995,-4.38155 106.617485,-35.53917 18.98967,-38.39167 60.4111,-59.22141 129.90177,-52.696 C 147.33762,367.75972 112.54204,287.78676 203.43107,210.7855 c 3.50408,96.11489 59.46955,114.78679 131.12725,110.29395 -42.70844,-56.33014 -48.96229,-108.2146 41.66661,-148.28409 51.19012,-29.73267 101.7741,-74.577748 45.78547,-151.998133 z"
         id="path4098"
         inkscape:connector-curvature="0"
         sodipodi:nodetypes="czsccscscsccscsscsccsscsccccc" />
    </clipPath>
    <clipPath
       clipPathUnits="userSpaceOnUse"
       id="clipPath4092">
      <path
         style="opacity:0.5;fill:#00ff00;fill-opacity:1;stroke:#ff0000;stroke-width:1px;stroke-linecap:butt;stroke-linejoin:miter;stroke-opacity:1"
         d="m 422.0104,20.797227 c 33.7391,5.76696 71.01625,33.612114 89.01825,68.664924 18.00199,35.052809 23.87172,73.399909 -24.50977,100.490049 -32.92518,18.43572 -26.85274,43.70909 -23.28428,63.7254 39.71342,-56.83038 100.85629,-55.49509 162.98995,-51.47052 -57.86225,22.81705 -103.27038,71.41193 -73.5293,90.68614 32.75186,21.2254 53.65059,40.96523 44.11758,78.43125 50.65352,-18.4774 101.44477,-33.33266 151.96056,6.12745 42.61168,33.28586 67.5157,8.82173 90.68613,-22.0588 -14.09276,56.98556 -34.84447,118.2308 -107.84297,105.392 -22.37822,-3.93583 -46.7531,-2.00306 -60.04893,17.15684 -4.41556,13.16915 -6.8174,26.74105 -26.96074,36.76465 36.28476,24.27056 54.63606,57.22709 29.41172,98.03907 -28.28196,45.75906 24.94303,52.13895 69.85283,19.60781 -12.43902,90.88157 -92.34488,90.07017 -115.1959,57.59796 -44.24194,-62.86956 -191.37543,-27.54079 -120.87657,86.47836 49.03512,79.30543 27.66678,159.83466 -34.32862,213.29474 9.53179,-62.36404 0.24114,-125.82344 -64.45821,-178.6327 C 361.74489,772.51112 351.09236,728.10636 356.61711,676.47107 284.82588,693.42081 236.31607,691.1271 253.67609,794.11796 164.1634,750.84053 149.72498,697.42121 226.71535,631.128 263.10795,599.79185 238.07086,512.29535 175.24483,545.34382 121.2053,573.7703 61.923051,570.69364 11.029395,511.03015 c 46.098012,-1.28754 91.205995,-4.38155 106.617485,-35.53917 18.98967,-38.39167 60.4111,-59.22141 129.90177,-52.696 C 147.33762,367.75972 112.54204,287.78676 203.43107,210.7855 c 3.50408,96.11489 59.46955,114.78679 131.12725,110.29395 -42.70844,-56.33014 -48.96229,-108.2146 41.66661,-148.28409 51.19012,-29.73267 101.7741,-74.577748 45.78547,-151.998133 z"
         id="path4094"
         inkscape:connector-curvature="0"
         sodipodi:nodetypes="czsccscscsccscsscsccsscsccccc" />
    </clipPath>
    <clipPath
       clipPathUnits="userSpaceOnUse"
       id="clipPath4084">
      <path
         style="color:#000000;fill:#00ff00;fill-opacity:1;fill-rule:nonzero;stroke:none;stroke-width:1px;marker:none;visibility:visible;display:inline;overflow:visible;enable-background:accumulate"
         d="M 598.13051,493.53168 A 181.57326,174.22032 0 0 1 416.55725,667.752 181.57326,174.22032 0 0 1 234.98399,493.53168 181.57326,174.22032 0 0 1 416.55725,319.31136 181.57326,174.22032 0 0 1 598.13051,493.53168 z"
         id="path4086"
         inkscape:connector-curvature="0" />
    </clipPath>
    <linearGradient
       inkscape:collect="always"
       xlink:href="#linearGradient4553"
       id="linearGradient4559"
       x1="1036.8271"
       y1="2246.5332"
       x2="992.0611"
       y2="1895.0509"
       gradientUnits="userSpaceOnUse" />
    <linearGradient
       inkscape:collect="always"
       xlink:href="#linearGradient4553"
       id="linearGradient4561"
       x1="1507.4662"
       y1="2416.0229"
       x2="1530.4202"
       y2="1941.7909"
       gradientUnits="userSpaceOnUse" />
  </defs>
  <sodipodi:namedview
     id="base"
     pagecolor="#ffffff"
     bordercolor="#666666"
     borderopacity="1.0"
     inkscape:pageopacity="0.0"
     inkscape:pageshadow="2"
     inkscape:zoom="0.125"
     inkscape:cx="989.6536"
     inkscape:cy="3035.9283"
     inkscape:document-units="px"
     inkscape:current-layer="layer2"
     showgrid="false"
     fit-margin-top="201.76"
     fit-margin-left="0"
     fit-margin-right="0"
     fit-margin-bottom="201.76"
     inkscape:window-width="1920"
     inkscape:window-height="1028"
     inkscape:window-x="1272"
     inkscape:window-y="217"
     inkscape:window-maximized="1"
     inkscape:snap-global="false"
     inkscape:object-paths="true"
     inkscape:object-nodes="true" />
  <metadata
     id="metadata7">
    <rdf:RDF>
      <cc:Work
         rdf:about="">
        <dc:format>image/svg+xml</dc:format>
        <dc:type
           rdf:resource="http://purl.org/dc/dcmitype/StillImage" />
        <dc:title>Sunset Shimmer</dc:title>
      </cc:Work>
    </rdf:RDF>
  </metadata>
  <g
     inkscape:groupmode="layer"
     id="layer15"
     inkscape:label="Background"
     sodipodi:insensitive="true"
     style="display:none"
     transform="translate(-48.4644,150.30297)">
    <rect
       style="color:#000000;fill:#000000;fill-opacity:1;fill-rule:nonzero;stroke:#00ff00;stroke-width:1;stroke-linecap:butt;stroke-linejoin:miter;stroke-miterlimit:4;stroke-opacity:1;stroke-dasharray:none;stroke-dashoffset:0;marker:none;visibility:visible;display:inline;overflow:visible;enable-background:accumulate"
       id="rect4564"
       width="6132.0298"
       height="5849.1875"
       x="-67.882301"
       y="-69.991325" />
  </g>
  <g
     inkscape:groupmode="layer"
     id="layer2"
     inkscape:label="Shadow"
     style="opacity:0.2;display:none"
     sodipodi:insensitive="true"
     transform="translate(-48.4644,150.30297)">
    <ellipse
       style="color:#000000;fill:#000000;fill-opacity:1;fill-rule:nonzero;stroke:none;stroke-width:1px;marker:none;visibility:visible;display:inline;overflow:visible;enable-background:accumulate"
       id="path4070"
       cx="3392.2063"
       cy="5514.209"
       rx="2204.0271"
       ry="227.83531"
       transform="matrix(0.99953237,-0.03057838,0.02999162,0.99955015,0,0)"
       sodipodi:cx="3392.2063"
       sodipodi:cy="5514.209"
       sodipodi:rx="2204.0271"
       sodipodi:ry="227.83531"
       d="m 5596.2334,5514.209 c 0,125.83 -986.7765,227.8353 -2204.0271,227.8353 -1217.2506,0 -2204.0271,-102.0053 -2204.0271,-227.8353 0,-125.83 986.7765,-227.8353 2204.0271,-227.8353 1217.2506,0 2204.0271,102.0053 2204.0271,227.8353 z" />
  </g>
  <g
     inkscape:groupmode="layer"
     id="layer3"
     inkscape:label="Rear Legs"
     style="display:inline"
     sodipodi:insensitive="true"
     transform="translate(-48.4644,150.30297)">
    <path
       style="fill:#f2c250;fill-opacity:1;stroke:none"
       d="m 4675.4982,3747.6 c 64.3753,1.9267 134.5757,30.0233 220.5092,142.2067 226.5977,295.816 529.475,789.6464 644.8814,1216.2238 26.151,96.6619 55.8761,193.3828 -118.7939,214.9605 -152.8195,18.8785 -327.9749,23.1892 -449.7199,8.4852 -136.8659,-16.5302 -155.3166,-64.2087 -130.1077,-223.4457 47.4104,-299.4778 -186.0017,-858.7008 -376.6661,-1089.9151 -179.1237,-217.2191 -392.3958,-426.7966 -539.7443,-691.9941 L 3984,2608 l 36,-292 c 129.7449,56.2354 190.3187,140.1392 246,226 278.3885,294.4911 410.1648,699.932 409.4982,1205.6 z"
       id="path4089-4"
       inkscape:connector-curvature="0"
       sodipodi:nodetypes="cssssssccccc" />
    <path
       style="font-style:normal;font-variant:normal;font-weight:normal;font-stretch:normal;text-indent:0;text-align:start;text-decoration:none;line-height:normal;letter-spacing:normal;word-spacing:normal;text-transform:none;direction:ltr;block-progression:tb;writing-mode:lr-tb;text-anchor:start;baseline-shift:baseline;color:#000000;fill:#d18d00;fill-opacity:1;stroke:none;stroke-width:49;marker:none;visibility:visible;display:inline;overflow:visible;enable-background:accumulate;font-family:sans-serif;-inkscape-font-specification:sans-serif"
       d="m 4169.7363,2371.0977 -35.4726,33.8046 c 34.3392,36.035 64.6666,75.4051 90.6482,115.3297 48.2092,31.3887 77.9574,72.008 114.01,109.475 -35.8437,-84.0834 -92.6075,-178.2495 -169.1856,-258.6093 z"
       id="path4083"
       inkscape:connector-curvature="0"
       sodipodi:nodetypes="ccccc" />
    <path
       style="fill:#f2c250;fill-opacity:1;stroke:#d18d00;stroke-width:49;stroke-linecap:butt;stroke-linejoin:miter;stroke-miterlimit:4;stroke-opacity:1;stroke-dasharray:none"
       d="m 3094.5835,3219.9548 c 123.3386,461.7467 224.7044,1249.9445 84.5686,1772.9385 -34.5653,128.9994 -58.5567,228.3108 79.196,237.5879 157.3579,10.5975 315.7689,7.0182 472.3473,-14.1421 72.5891,-9.8098 120.6949,-53.8919 121.6223,-110.3087 10.9442,-665.791 -138.7893,-1319.6734 -401.6366,-1962.9284"
       id="path4075"
       inkscape:connector-curvature="0"
       sodipodi:nodetypes="cssssc" />
    <path
       style="font-style:normal;font-variant:normal;font-weight:normal;font-stretch:normal;text-indent:0;text-align:start;text-decoration:none;line-height:normal;letter-spacing:normal;word-spacing:normal;text-transform:none;direction:ltr;block-progression:tb;writing-mode:lr-tb;text-anchor:start;baseline-shift:baseline;color:#000000;fill:#d18d00;fill-opacity:1;stroke:none;stroke-width:49;marker:none;visibility:visible;display:inline;overflow:visible;enable-background:accumulate;font-family:sans-serif;-inkscape-font-specification:sans-serif"
       d="m 4215.8885,2514.0501 c 289.5676,243.2003 414.2111,800.6985 427.7013,1232.0437 l 48.8204,-4.1876 C 4691.2738,3311.124 4549.764,2691.9179 4215.8885,2514.0501 z"
       id="path4077"
       inkscape:connector-curvature="0"
       sodipodi:nodetypes="cccc" />
    <path
       style="font-style:normal;font-variant:normal;font-weight:normal;font-stretch:normal;text-indent:0;text-align:start;text-decoration:none;line-height:normal;letter-spacing:normal;word-spacing:normal;text-transform:none;direction:ltr;block-progression:tb;writing-mode:lr-tb;text-anchor:start;baseline-shift:baseline;color:#000000;fill:#d18d00;fill-opacity:1;stroke:none;stroke-width:49;marker:none;visibility:visible;display:inline;overflow:visible;enable-background:accumulate;font-family:sans-serif;-inkscape-font-specification:sans-serif"
       d="m 3947.2734,3312.2227 -42.832,23.7988 c 149.5617,269.1807 364.2859,479.8593 542.2578,695.6816 92.2861,111.9132 198.0714,308.2809 273.5352,512.2715 75.4638,203.9907 120.2,416.945 97.834,558.2246 -12.8079,80.9033 -16.9309,137.1885 6.9882,180.8418 11.9596,21.8267 31.433,38.3625 55.6309,49.2754 24.1979,10.9129 53.2067,17.1896 88.75,21.4824 125.088,15.1078 301.0303,10.61 455.6602,-8.4922 45.9617,-5.6778 80.3227,-16.3362 106.0878,-32.75 25.7652,-16.4137 42.1257,-39.5009 49.1719,-64.1582 14.0926,-49.3145 -2.816,-100.705 -15.8183,-148.7656 -116.9836,-432.4072 -420.8889,-926.8258 -649.0821,-1224.7246 -70.6027,-92.1695 -134.4929,-132.9139 -194.5,-146.3008 -60.0071,-13.3868 -129.4752,4.3589 -186.5283,39.6818 65.9834,-0.032 128.8936,-2.3348 175.8584,8.1424 46.9648,10.4773 99.9951,41.7518 166.2715,128.2735 225.0022,293.733 526.8505,786.9751 640.6797,1207.7226 13.1486,48.6014 24.1785,93.902 16.0039,122.5078 -4.0873,14.303 -11.4127,25.4841 -28.3828,36.295 -16.9701,10.8108 -44.3943,20.3343 -85.7676,25.4453 -151.0092,18.6548 -325.3773,22.7768 -443.7793,8.4765 -32.8896,-3.9723 -57.5131,-9.8518 -74.4805,-17.5039 -16.9673,-7.652 -26.1925,-16.0884 -32.8027,-28.1523 -13.2204,-24.1278 -13.9636,-71.301 -1.5625,-149.6348 25.0444,-158.1982 -23.2216,-374.5948 -100.2773,-582.8886 -77.0558,-208.2939 -183.3072,-407.1442 -281.6856,-526.4454 -180.2755,-218.6158 -392.0951,-427.0904 -537.2305,-688.3046 z"
       id="path4089"
       inkscape:connector-curvature="0"
       sodipodi:nodetypes="ccsssssssssssscssssssssssssc" />
  </g>
  <g
     inkscape:groupmode="layer"
     id="layer4"
     inkscape:label="Body + Forward Legs"
     style="display:inline"
     sodipodi:insensitive="true"
     transform="translate(-48.4644,150.30297)">
    <path
       style="fill:#f7cf72;fill-opacity:1;stroke:none"
       d="m 2200,2192 c 155.6539,176 143.0873,352 144,528 54.9405,270.7039 125.0625,531.8559 348,708.0001 l 344,108 c 110.1577,11.8064 212.4502,0.017 312,-20 36.0562,204 137.8533,408 236,612 l 516,-72 c -42.5479,-155.1417 -106.7857,-223.5238 -192,-208 C 4073.8753,3461.885 4184.6389,3059.5605 3992,2568 l 36,-252 c -333.4589,-129.6002 -669.567,156.611 -914,376 l -158,-752 z"
       id="path4493"
       inkscape:connector-curvature="0"
       sodipodi:nodetypes="ccccccccccccc" />
    <path
       style="fill:#f7cf72;fill-opacity:1;stroke:none"
       d="m 3312,2892.0001 c -88.0758,409.8552 28.545,735.8513 200,1056 181.9866,339.8138 242.5488,918.6492 40.6863,1348 -61.7662,131.3733 -91.1549,215.2587 63.3137,232 151.7136,16.4427 292.3769,11.2222 436,0 163.8,-12.7988 217.2743,-103.8348 224,-220 25.305,-437.0641 -21.9933,-872.6629 -200,-1324 -50.1604,-127.182 -112.2926,-157.6359 -280,-124"
       id="path4113-8"
       inkscape:connector-curvature="0"
       sodipodi:nodetypes="cssssssc" />
    <path
       style="fill:#f7cf72;fill-opacity:1;stroke:none"
       d="m 2805.9176,3122.9842 c -218.6006,636.0381 -454.671,1374.1914 -1021.1801,2101.8402 -104.559,134.3001 -150.3136,231.3145 2.8284,257.3868 146.3155,24.9101 303.539,26.3036 446.8916,25.4559 141.8407,-0.8388 255.796,-34.6894 305.4702,-135.7645 347.6247,-707.3339 560.239,-1495.0721 494.4894,-2217.6047"
       id="path4111-9"
       inkscape:connector-curvature="0"
       sodipodi:nodetypes="cssssc" />
    <path
       style="font-style:normal;font-variant:normal;font-weight:normal;font-stretch:normal;text-indent:0;text-align:start;text-decoration:none;line-height:normal;letter-spacing:normal;word-spacing:normal;text-transform:none;direction:ltr;block-progression:tb;writing-mode:lr-tb;text-anchor:start;baseline-shift:baseline;color:#000000;fill:#d18d00;fill-opacity:1;stroke:none;stroke-width:49;marker:none;visibility:visible;display:inline;overflow:visible;enable-background:accumulate;font-family:sans-serif;-inkscape-font-specification:sans-serif"
       d="m 2662.2891,3464.5918 c -192.6321,548.754 -433.8848,1150.4868 -896.8829,1745.1816 -52.972,68.0396 -93.5132,126.0557 -100.2148,181.3848 -3.3508,27.6646 4.6883,56.4407 25.7305,76.4688 21.0421,20.028 51.5685,31.7624 92.5312,38.7363 149.0292,25.3721 307.5313,26.652 451.1485,25.8027 72.8304,-0.4307 139.6431,-9.1528 196.3379,-32.0801 56.6947,-22.9272 103.346,-61.1552 130.9765,-117.3769 281.4954,-572.7765 475.1418,-1198.3453 504.9043,-1801.3848 7.1432,-144.734 -5.1661,-348.169 -35.6773,-431.1779 -2.5112,88.9912 -6.2251,286.1393 -13.2641,428.7619 -29.3283,594.2424 -220.7533,1214.1098 -499.9394,1782.1875 -22.0436,44.8534 -57.2075,74.088 -105.3692,93.5645 -48.1616,19.4765 -109.2475,28.0997 -178.2578,28.5078 -143.0878,0.8461 -299.0329,-0.6613 -442.6348,-25.1094 -35.6082,-6.0623 -56.79,-16.232 -66.9726,-25.9238 -10.1826,-9.6919 -12.8841,-18.4504 -10.8692,-35.086 4.03,-33.2712 38.6474,-90.9133 90.2344,-157.1738 467.7746,-600.83 711.294,-1208.7995 904.4531,-1759.0547 41.9712,-119.5637 85.5675,-254.4076 114.3741,-348.3022 -65.1934,84.1055 -118.7518,212.8362 -160.6084,332.0737 z"
       id="path4111"
       inkscape:connector-curvature="0"
       sodipodi:nodetypes="ssssssssscssssssssscs" />
    <path
       style="font-style:normal;font-variant:normal;font-weight:normal;font-stretch:normal;text-indent:0;text-align:start;text-decoration:none;line-height:normal;letter-spacing:normal;word-spacing:normal;text-transform:none;direction:ltr;block-progression:tb;writing-mode:lr-tb;text-anchor:start;baseline-shift:baseline;color:#000000;fill:#d18d00;fill-opacity:1;stroke:none;stroke-width:49;marker:none;visibility:visible;display:inline;overflow:visible;enable-background:accumulate;font-family:sans-serif;-inkscape-font-specification:sans-serif"
       d="m 3490.4023,3959.5664 c 177.5881,331.6006 237.5636,906.0394 40.1114,1326.0098 -31.1008,66.1497 -57.1073,120.9259 -51.6192,172.0273 2.7441,25.5507 16.3843,50.0043 39.5606,65.8027 23.1762,15.7985 54.0254,24.5208 94.9043,28.9512 153.8786,16.6774 296.2754,11.3414 440.5488,0.068 86.1912,-6.7347 147.7404,-35.0345 187.2773,-79.3535 39.5369,-44.3191 55.7154,-102.2018 59.2735,-163.6563 25.4611,-439.7606 -22.2307,-879.44 -201.668,-1334.4043 -26.102,-66.1819 -58.1335,-112.8516 -108.6308,-135.6484 -50.4974,-22.7968 -147.1551,-0.5978 -220.3065,37.8188 72.8486,-5.5835 165.111,-8.9762 200.1463,6.8394 35.0361,15.8159 59.1506,47.9648 83.209,108.9649 176.5761,447.7099 223.4809,879.2281 198.332,1313.5957 -3.1676,54.7107 -17.0882,100.4292 -46.9199,133.8691 -29.8317,33.44 -76.9205,57.057 -154.5293,63.1211 -142.9728,11.1714 -281.9026,16.2764 -431.4512,0.068 -36.3554,-3.9402 -59.7584,-11.9806 -72.5859,-20.7246 -12.8275,-8.744 -16.9429,-16.612 -18.4395,-30.5469 -2.9931,-27.8699 16.5768,-80.7237 47.2422,-145.9473 206.2728,-438.7312 145.1254,-1021.9632 -41.2597,-1369.9902 -170.3701,-318.1228 -252.2264,-700.3822 -221.6735,-1030.5761 -81.4471,325.8061 5.9382,731.537 178.4781,1053.7116 z"
       id="path4113"
       inkscape:connector-curvature="0"
       sodipodi:nodetypes="sssssssssscsssssssssscs" />
    <path
       style="font-style:normal;font-variant:normal;font-weight:normal;font-stretch:normal;text-indent:0;text-align:start;text-decoration:none;line-height:normal;letter-spacing:normal;word-spacing:normal;text-transform:none;direction:ltr;block-progression:tb;writing-mode:lr-tb;text-anchor:start;baseline-shift:baseline;color:#000000;fill:#d18d00;fill-opacity:1;stroke:none;stroke-width:49;marker:none;visibility:visible;display:inline;overflow:visible;enable-background:accumulate;font-family:sans-serif;-inkscape-font-specification:sans-serif"
       d="m 3993.5025,2594.5093 c 57.6817,155.0827 80.4218,400.2093 65.6694,595.311 -18.0063,238.135 -89.089,461.1894 -169.7774,647.9141 l 44.9805,19.4375 c 82.1634,-190.1382 155.0935,-418.1611 173.6562,-663.6563 15.2084,-201.1319 -0.2104,-450.089 -114.5287,-599.0063 z"
       inkscape:connector-curvature="0"
       sodipodi:nodetypes="csccsc"
       id="path64" />
    <path
       style="fill:none;stroke:#d18d00;stroke-width:49;stroke-linecap:butt;stroke-linejoin:miter;stroke-miterlimit:4;stroke-opacity:1;stroke-dasharray:none"
       d="m 2200,2196 c 171.3651,185.291 140.2828,373.8891 156,532 27.1867,273.4915 160.8051,582.8778 344,704.0001 m 343.6282,102.3472 c 100.4828,8.5949 205.4807,2.8849 299.0905,-21.5994"
       id="path4117"
       inkscape:connector-curvature="0"
       sodipodi:nodetypes="csccc" />
    <path
       style="fill:none;stroke:#d18d00;stroke-width:49;stroke-linecap:butt;stroke-linejoin:miter;stroke-miterlimit:4;stroke-opacity:1;stroke-dasharray:none"
       d="m 4056,2332 c -262.5773,-143.3516 -622.6291,30.6937 -948.9706,376.201"
       id="path4119"
       inkscape:connector-curvature="0"
       sodipodi:nodetypes="cc" />
  </g>
  <g
     inkscape:groupmode="layer"
     id="layer14"
     inkscape:label="Cutie Mark"
     sodipodi:insensitive="true"
     transform="translate(-48.4644,150.30297)">
    <g
       id="g4487"
       transform="matrix(0.64232085,0.22241411,-0.19809766,0.63378751,1844.2445,229.0123)">
      <path
         clip-path="url(#clipPath4096)"
         sodipodi:nodetypes="cccccccc"
         inkscape:connector-curvature="0"
         id="path4090"
         d="M 421.14385,10.398614 197.57366,180.24263 -5.1993068,507.79896 C 75.767247,621.26603 147.86018,749.52247 254.76603,819.75737 L 480.06932,1008.6655 C 565.93554,901.41 513.14122,781.15508 454.07279,660.31196 L 438.47487,311.95841 C 495.62185,189.41508 545.14562,69.539878 421.14385,10.398614 z"
         style="fill:#f6ce00;fill-opacity:1;stroke:none;display:inline"
         transform="translate(3350.7556,2282.7392)" />
      <path
         clip-path="url(#clipPath4092)"
         sodipodi:nodetypes="csccscccc"
         inkscape:connector-curvature="0"
         id="path4088"
         d="m 421.77826,15.994434 c 55.50777,29.982464 72.67762,111.453936 20.59753,155.031746 -56.79614,47.52395 -58.89961,92.22868 -30.10409,158.45751 l 8.07081,321.25213 c -22.15693,60.46884 20.04723,100.69367 40.303,125.46698 49.16314,60.12773 64.08275,133.3347 12.82483,213.52175 161.14624,-67.56895 255.5556,-188.5274 301.22637,-348.47672 L 847.487,344.88735 C 731.73164,195.62475 618.14303,30.908025 421.77826,15.994434 z"
         style="fill:#d00012;fill-opacity:1;stroke:none;display:inline"
         transform="translate(3350.7556,2282.7392)" />
      <!--S(i)g(m)a-->
      <ellipse
         ry="174.22032"
         rx="181.57326"
         cy="2776.2708"
         cx="3767.3127"
         id="path4062"
         style="color:#000000;fill:#e39806;fill-opacity:1;fill-rule:nonzero;stroke:none;stroke-width:1px;marker:none;visibility:visible;display:inline;overflow:visible;enable-background:accumulate"
         d="m 3948.886,2776.2708 c 0,96.2192 -81.2931,174.2203 -181.5733,174.2203 -100.2801,0 -181.5732,-78.0011 -181.5732,-174.2203 0,-96.2193 81.2931,-174.2204 181.5732,-174.2204 100.2802,0 181.5733,78.0011 181.5733,174.2204 z"
         sodipodi:cx="3767.3127"
         sodipodi:cy="2776.2708"
         sodipodi:rx="181.57326"
         sodipodi:ry="174.22032" />
      <path
         clip-path="url(#clipPath4084)"
         sodipodi:nodetypes="cssccccc"
         inkscape:connector-curvature="0"
         id="path4066"
         d="m 460.78362,312.50103 c -81.2918,12.86709 -130.56077,41.19342 -156.86251,82.10772 -41.17669,64.05338 1.88301,117.25318 52.696,105.39201 61.39984,-14.33245 134.10749,-31.15492 171.56837,2.45097 -20.01631,-1.19574 -44.93457,-1.23936 -64.95088,7.35293 133.53204,31.22743 78.8244,144.58936 -95.58809,160.53898 C 270.9804,644.12191 205.71403,590.42541 213.23497,473.04001 244.48078,372.67134 310.09938,303.71573 460.78362,312.50103 z"
         style="fill:#d00012;fill-opacity:1;stroke:none;display:inline"
         transform="translate(3350.7556,2282.7392)" />
    </g>
  </g>
  <g
     inkscape:groupmode="layer"
     id="layer5"
     inkscape:label="Tail"
     style="display:inline"
     sodipodi:insensitive="true"
     transform="translate(-48.4644,150.30297)">
    <path
       style="fill:#d00012;fill-opacity:1;stroke:none;display:inline"
       d="m 5492.0723,3115.6332 c 14.8283,144.5899 112.7612,224.6728 235.9278,240.3669 210.066,26.767 243.9294,260.9945 185.3917,429.7071 -41.0435,118.2925 -140.2208,215.664 -237.3918,298.2929 -139.7391,118.8265 -235.6481,252.239 -268,404.0001 -163.4047,-137.3091 -228.1738,-335.5657 -124,-516.0001 69.7434,-120.7991 149.2702,-225.4647 128.9232,-373.3203 -58.1263,91.6999 -117.801,139.0381 -208.6173,206.2741 -76.2333,56.4395 -137.5982,127.3052 -135.7645,226.2742 -326.9347,-191.3135 -345.1952,-734.5489 -259.529,-1153.9983 30.5503,-149.5841 25.9123,-281.0696 -70.5685,-411.2936 -83.7953,-113.1018 -234.9537,-166.1272 -388.323,-95.4801 -94.8751,43.7026 -172.8209,126.8195 -256.2153,189.0192 C 4020.1237,2614.5055 3964.0344,2596.4528 3968,2434 c 10.1444,-415.565 196.7127,-736.1045 480,-874 352.453,-171.5632 828.8914,-148.274 1156,218.0001 231.8011,259.5552 369.1921,623.8641 172.0001,1013.9999 -68.9139,126.2554 -162.2235,235.0852 -283.9278,323.6332 z"
       id="path4166-6"
       inkscape:connector-curvature="0"
       sodipodi:nodetypes="cssscscscssssssscc" />
    <path
       style="fill:#f6ce00;fill-opacity:1;stroke:none"
       d="m 5368,3198.0001 c -13.3865,169.6977 39.4964,296.9049 164,390 5.6082,-51.3333 -0.2778,-102.6667 -16,-154 54.5775,7.5117 106.471,31.4141 136,78 119.0785,187.8623 -67.3996,326.6012 -160,444 -73.7764,93.5336 -177.8113,267.0944 -76,500 l -14,40 c -155.7649,-171.4077 -239.4996,-351.5087 -88,-560 48.4,-100.1177 128.0689,-191.0386 92,-316 -49.577,57.1058 -115.2243,110.1939 -186,162 -69.6026,71.2747 -157.1199,132.3124 -156,244 -113.1647,-70.5574 -198.6595,-166.94 -232,-312 63.9576,-241.6369 326.3582,-369.8113 536,-516 z"
       id="path4168"
       inkscape:connector-curvature="0"
       sodipodi:nodetypes="cccsscccccccc" />
    <path
       style="fill:#f6ce00;fill-opacity:1;stroke:none"
       d="m 4768,3496.0001 c 89.2244,-205.6649 226.1368,-371.364 396,-512 118.2229,-97.8812 233.13,-214.113 282,-352.0001 -52.2332,15.967 -96.3625,56.2457 -138,104 7.5828,-155.7599 109.001,-304.5227 200,-448 127.4049,-200.8781 85.3842,-415.9936 -48,-652 -235.0882,-162.7551 -466.2142,-186.8318 -696,-164 -332.3369,40.8479 -521.4927,198.5016 -652,404 -80.0531,166.1534 -183.6297,409.4259 -140,648 15.282,61.5386 44.9838,65.398 76,64 -73.2502,-346.6883 154.0564,-562.5053 280,-648 318.3951,-216.1372 723.8569,-223.282 888,204 -93.9191,-78.0558 -200.7701,-120.5488 -316,-140 121.9723,230.0157 183.8665,464.4096 94,682 -58.6082,141.9058 -152.3924,292.0001 -210,414.0001 z"
       id="path4170"
       inkscape:connector-curvature="0"
       sodipodi:nodetypes="csccscccccsccscc" />
    <path
       style="fill:none;stroke:#6c0100;stroke-width:49;stroke-linecap:butt;stroke-linejoin:miter;stroke-miterlimit:4;stroke-opacity:1;stroke-dasharray:none"
       d="m 5492.0723,3115.6332 c 14.8283,144.5899 112.7612,224.6728 235.9278,240.3669 210.066,26.767 243.9294,260.9945 185.3917,429.7071 -41.0435,118.2925 -140.2208,215.664 -237.3918,298.2929 -139.7391,118.8265 -235.6481,252.2389 -268,404 -163.4047,-137.3091 -228.1738,-335.5656 -124,-516 69.7434,-120.7991 149.2702,-225.4647 128.9232,-373.3203 -58.1263,91.6999 -117.801,139.0381 -208.6173,206.2741 -76.2333,56.4395 -137.5982,127.3052 -135.7645,226.2742 -326.9347,-191.3135 -345.1952,-734.5489 -259.529,-1153.9983 30.5503,-149.5841 25.9123,-281.0696 -70.5685,-411.2936 -83.7953,-113.1019 -234.9537,-166.1273 -388.323,-95.4802 -94.8751,43.7026 -172.8209,126.8196 -256.2153,189.0193 C 4020.1237,2614.5055 3964.0344,2596.4528 3968,2434 c 10.1444,-415.5651 196.7127,-736.1045 480,-874 352.453,-171.5632 828.8914,-148.274 1156,218 231.8011,259.5552 369.1921,623.8641 172.0001,1014 -118.2871,234.026 -333.1129,366.3694 -546.0001,498.0001 -210.7394,130.3027 -362.2721,260.1743 -403.0289,423.0503"
       id="path4166"
       inkscape:connector-curvature="0"
       sodipodi:nodetypes="cssscscscsssssssssc" />
  </g>
  <g
     inkscape:groupmode="layer"
     id="layer6"
     inkscape:label="Rear Mane"
     style="display:inline"
     sodipodi:insensitive="true"
     transform="translate(-48.4644,150.30297)">
    <path
       style="fill:#d00012;fill-opacity:1;stroke:none"
       d="M 2404.1632,382.55705 C 2294.8105,253.36588 2089.7052,117.69004 1909.1885,85.572194 1954.7216,154.53641 2017.3289,233.4519 2047.7814,294.8758 1808.6797,127.83032 1553.7199,61.990975 1269.9639,79.915338 874.76974,104.87905 393.35312,354.17707 226.27412,659.74291 81.685118,924.17747 29.305728,1256.1415 113.13704,1553.5258 c 83.40632,295.8766 236.89106,432.024 480.83263,339.4113 190.63463,-72.3746 256.44763,87.8764 191.62662,191.4213 C 511.0977,2343.9385 578.30556,2749.4475 999.99997,2820 833.75436,2610.9732 919.8869,2501.5694 1036,2404 c 84.4012,-67.5988 149.9744,-154.0256 212,-244 L 2347.5945,931.27188 z"
       id="path4173-6"
       inkscape:connector-curvature="0"
       sodipodi:nodetypes="cccsssscccccc" />
    <path
       style="fill:#f6ce00;fill-opacity:1;stroke:none"
       d="m 855.59917,1130.676 c 96.08858,60.0243 189.50863,125.3856 274.35743,207.8894 l -33.9411,77.7817 c -65.2689,-48.4634 -150.69899,-96.3851 -229.10262,-106.066 -128.59997,-15.8788 -175.82514,-61.377 -227.68839,-111.7229 z"
       id="path4181"
       inkscape:connector-curvature="0"
       sodipodi:nodetypes="cccscc" />
    <path
       style="fill:#f6ce00;fill-opacity:1;stroke:none"
       d="M 1923.3304,702.16928 C 1607.7563,558.94166 1265.758,556.321 903.68243,649.84337 958.21022,593.00034 1014.0465,534.71667 1083.2876,481.55196 769.23861,498.22604 432.78197,578.70785 144.24973,891.6739 34.856378,1165.4224 70.857945,1407.5634 132.93602,1644.0355 380.9497,1237.1608 732.52188,1073.2503 1176.6257,1126.4333 z"
       id="path4179"
       inkscape:connector-curvature="0"
       sodipodi:nodetypes="ccccccc" />
    <path
       style="fill:#f6ce00;fill-opacity:1;stroke:none"
       d="M 1142,1780 C 986.31557,1676.015 783.44148,1502.7024 571.99996,1512 c 24.88278,66.3846 65.5149,96.0208 106,126 -143.97429,11.7386 -322.03368,-16.7222 -384.00001,-202 l -160,208 c 40.32497,92.3584 89.09902,159.3696 140,220 106.84669,57.2938 212.45101,87.2554 314.00001,28 135.74501,-53.1872 199.67489,-2.6415 240,82 137.88374,90.1449 156.11083,294.5211 68,422 -6.41907,-41.9428 -17.64036,-80.6842 -40,-112 -45.46343,93.3635 -91.02546,286.1069 52,406 -14.33506,-108.427 8.44855,-194.1703 90,-244 C 1087.0269,2362.6004 1172.8385,2273.842 1246,2164 z"
       id="path4183"
       inkscape:connector-curvature="0"
       sodipodi:nodetypes="cccccccccccccc" />
    <path
       style="font-style:normal;font-variant:normal;font-weight:normal;font-stretch:normal;text-indent:0;text-align:start;text-decoration:none;line-height:normal;letter-spacing:normal;word-spacing:normal;text-transform:none;direction:ltr;block-progression:tb;writing-mode:lr-tb;text-anchor:start;baseline-shift:baseline;color:#000000;fill:#6c0100;fill-opacity:1;stroke:none;stroke-width:49;marker:none;visibility:visible;display:inline;overflow:visible;enable-background:accumulate;font-family:sans-serif;-inkscape-font-specification:sans-serif"
       d="m 1857.3047,51.457031 31.4375,47.613281 C 1913.86,137.11361 1943.4948,177.6788 1969.9961,215.99414 1752.8785,89.29712 1520.9274,39.514394 1268.4199,55.464844 864.23312,80.996606 378.66931,329.96241 204.77734,647.98828 57.242478,917.81043 3.7103913,1255.6417 89.556641,1560.1738 c 42.501719,150.7711 103.098729,263.8674 189.099609,328.3438 86.00088,64.4763 196.9884,76.3493 324.00977,27.3242 252.79257,-97.5676 388.27255,-56.8773 575.48318,106.4108 C 979.35972,1783.5407 834.83776,1776.9134 585.27344,1870.0332 468.36997,1913.6533 380.62729,1903.7258 308.04883,1849.3125 235.47037,1794.8992 177.62335,1691.9844 136.71875,1546.8789 54.902377,1256.6424 106.12835,930.54304 247.77148,671.49609 408.03752,378.39029 885.30648,128.76284 1271.5078,104.36719 1550.5751,86.739004 1798.8737,150.86553 2033.75,314.95898 l 78.5371,54.86914 -42.5547,-85.83398 c -24.5012,-49.42 -65.9568,-105.90793 -103.959,-159.54102 156.9571,46.88926 326.8067,164.19828 419.6895,273.93165 l 37.4004,-31.65625 C 2309.2152,232.46273 2102.5615,95.092793 1913.4805,61.451172 z"
       id="path4173"
       inkscape:connector-curvature="0"
       sodipodi:nodetypes="cccssssscsssssscsccccc" />
    <path
       style="fill:none;stroke:#6c0100;stroke-width:49;stroke-linecap:butt;stroke-linejoin:miter;stroke-miterlimit:4;stroke-opacity:1;stroke-dasharray:none"
       d="M 144.54142,1648.6892 C 322.50935,1226.3066 904.03178,1049.4666 1168.1404,1134.9186"
       id="path4175"
       inkscape:connector-curvature="0"
       sodipodi:nodetypes="cc" />
    <path
       style="fill:none;stroke:#6c0100;stroke-width:49;stroke-linecap:butt;stroke-linejoin:miter;stroke-miterlimit:4;stroke-opacity:1;stroke-dasharray:none"
       d="m 661.7889,1870.2781 c 113.06386,1.8338 202.30455,72.2851 142.21106,183.7219 -42.15731,78.1761 -104.39313,131.3989 -144,200 C 532.69364,2474.501 679.45446,2791.7741 1014,2830 881.82094,2706.5355 862.66503,2539.5094 987.99996,2444 1087.6754,2368.044 1178.7637,2274.9915 1246,2176"
       id="path4177"
       inkscape:connector-curvature="0"
       sodipodi:nodetypes="csscsc" />
    <path
       style="fill:none;stroke:#000000;stroke-width:1px;stroke-linecap:butt;stroke-linejoin:miter;stroke-opacity:1"
       d="m 2794.486,1298.9675 c 172.9363,136.8874 238.6569,374.5673 206.4752,562.8569 L 3218.75,1689.2903 c 23.6899,-140.244 -27.6271,-336.078 -144.2497,-429.9209 -27.556,48.0833 -21.1028,96.1665 -19.799,144.2498 -52.2181,-197.7421 -154.2595,-353.7983 -319.6123,-415.77877 l -79.1959,217.78887 z"
       id="path4185"
       inkscape:connector-curvature="0"
       sodipodi:nodetypes="cccccccc" />
    <path
       style="fill:#d00012;fill-opacity:1;stroke:none"
       d="m 2709.6332,755.90939 c 367.8692,39.66777 646.969,335.84461 695.7931,692.96461 -121.8541,214.0718 -284.6197,390.1545 -511.9453,506.2885 L 2638.9225,1197.144 z"
       id="path4187"
       inkscape:connector-curvature="0"
       sodipodi:nodetypes="ccccc" />
    <path
       style="fill:#f6ce00;fill-opacity:1;stroke:none;display:inline"
       d="m 3220,1664 c 23.8863,-146.9052 -47.3248,-315.896 -150,-410 -20.9958,48.0658 -17.1537,91.1641 -12,134 -54.9136,-143.6206 -126.4176,-344.0786 -316,-380 l -120,242 220,94 c 152.2723,157.4892 188.0181,353.8657 154,522 z"
       id="path4436"
       inkscape:connector-curvature="0"
       sodipodi:nodetypes="cccccccc" />
  </g>
  <g
     inkscape:groupmode="layer"
     id="layer7"
     inkscape:label="Head"
     style="display:inline"
     sodipodi:insensitive="true"
     transform="translate(-48.4644,150.30297)">
    <path
       style="fill:#f7cf72;fill-opacity:1;stroke:none"
       d="M 2228,728.00001 C 1724.5672,605.35884 1402.4953,878.41403 1132,1264 c -127.9416,317.3216 -44.6484,645.1964 72,940 -59.7164,54.8129 -78.4125,115.9365 0,192 166.6345,187.4789 410.2391,203.9132 672,180 180,-56.8642 360,-112.177 540,-220 l 552,-400 c -38.625,-115.6111 -69.1907,-241.9679 -76,-400 -30.5358,-170.2658 -79.6974,-334.3231 -268,-452 z"
       id="path4551"
       inkscape:connector-curvature="0"
       sodipodi:nodetypes="cccccccccc" />
    <path
       style="fill:none;stroke:#d18d00;stroke-width:49;stroke-linecap:butt;stroke-linejoin:miter;stroke-miterlimit:4;stroke-opacity:1;stroke-dasharray:none"
       d="m 2632,1116 c 206.9561,98.9182 247.9369,307.2922 267.3137,540 12.2779,147.4534 50.0468,282.6395 128.6863,376"
       id="path4209"
       inkscape:connector-curvature="0"
       sodipodi:nodetypes="csc" />
    <path
       style="font-style:normal;font-variant:normal;font-weight:normal;font-stretch:normal;text-indent:0;text-align:start;text-decoration:none;line-height:normal;letter-spacing:normal;word-spacing:normal;text-transform:none;direction:ltr;block-progression:tb;writing-mode:lr-tb;text-anchor:start;baseline-shift:baseline;color:#000000;fill:#d18d00;fill-opacity:1;stroke:none;stroke-width:49;marker:none;visibility:visible;display:inline;overflow:visible;enable-background:accumulate;font-family:sans-serif;-inkscape-font-specification:sans-serif"
       d="m 1227.7051,2180.166 c -32.0124,13.9134 -56.7569,29.3794 -74.3321,48.6641 -17.5751,19.2847 -27.1986,43.3731 -26.5527,67.9492 1.2918,49.1522 35.5815,95.0502 89.0977,147.4141 145.7859,142.6469 361.5546,183.0924 581.3672,159.9101 219.8125,-23.1822 462.4468,-115.3606 624.8147,-259.7008 -188.3571,98.9044 -419.3791,188.7624 -629.9534,210.9703 -210.5743,22.208 -410.2066,-17.2875 -541.959,-146.2031 -50.1364,-49.0568 -73.7387,-89.1711 -74.3828,-113.6777 -0.322,-12.2533 3.0749,-21.9064 13.7832,-33.6563 10.7083,-11.7498 29.2042,-25.3467 57.5801,-36.7011 69.1394,-27.6656 117.1231,-97.5212 100.0467,-172.5726 -19.9048,70.6125 -74.2623,107.9381 -119.5096,127.6038 z"
       id="path4211"
       inkscape:connector-curvature="0"
       sodipodi:nodetypes="ssssscssssscs" />
    <path
       style="fill:#d18d00;fill-opacity:1;stroke:none"
       d="m 1289.7628,2293.1595 c 53.6609,42.3253 99.2497,-2.0223 60.8112,-55.1543 -1.3362,33.5322 -21.7628,51.792 -60.8112,55.1543 z"
       id="path4217"
       inkscape:connector-curvature="0"
       sodipodi:nodetypes="ccc" />
    <path
       style="fill:#d18d00;fill-opacity:1;stroke:none"
       d="m 1366.1303,2509.5342 c 124.2732,-42.8707 146.4855,-108.5462 138.5929,-205.061 46.5382,90.6317 28.604,192.6599 -91.9239,230.5169 z"
       id="path4219"
       inkscape:connector-curvature="0"
       sodipodi:nodetypes="cccc" />
  </g>
  <g
     inkscape:groupmode="layer"
     id="layer9"
     inkscape:label="Eyes"
     style="display:inline"
     sodipodi:insensitive="true"
     transform="translate(-48.4644,150.30297)">
    <path
       style="fill:#ffffff;stroke:none"
       d="m 1196,2230 c 173.0928,-32.3079 228.7907,-195.8221 130,-532 l -270,-36 z"
       id="path4249"
       inkscape:connector-curvature="0"
       sodipodi:nodetypes="cccc"
       clip-path="url(#clipPath4271)" />
    <path
       style="fill:#ffffff;stroke:none"
       d="m 1714.0268,2017.3879 c 678.1632,-86.4717 926.9219,-346.3055 393.1514,-922.0673 l -537.4011,322.4407 c -6.574,213.5399 30.3608,416.2025 144.2497,599.6266 z"
       id="path4241"
       inkscape:connector-curvature="0"
       sodipodi:nodetypes="cccc"
       clip-path="url(#clipPath4283)" />
    <ellipse
       style="color:#000000;fill:url(#linearGradient4561);fill-opacity:1;fill-rule:nonzero;stroke:none;stroke-width:1px;marker:none;visibility:visible;display:inline;overflow:visible;enable-background:accumulate"
       id="path4237"
       cx="1456.6439"
       cy="2182.1772"
       rx="306.48093"
       ry="350.73608"
       transform="matrix(0.93744556,-0.3481319,0.33705397,0.94148533,0,0)"
       clip-path="url(#clipPath4279)"
       sodipodi:cx="1456.6439"
       sodipodi:cy="2182.1772"
       sodipodi:rx="306.48093"
       sodipodi:ry="350.73608"
       d="m 1763.1248,2182.1772 c 0,193.7062 -137.2161,350.7361 -306.4809,350.7361 -169.2647,0 -306.4809,-157.0299 -306.4809,-350.7361 0,-193.7061 137.2162,-350.736 306.4809,-350.736 169.2648,0 306.4809,157.0299 306.4809,350.736 z" />
    <ellipse
       style="color:#000000;fill:url(#linearGradient4559);fill-opacity:1;fill-rule:nonzero;stroke:none;stroke-width:1px;marker:none;visibility:visible;display:inline;overflow:visible;enable-background:accumulate"
       id="path4243"
       cx="1021.6683"
       cy="2070.3669"
       rx="134.2558"
       ry="273.72311"
       transform="matrix(0.98765646,-0.15663563,0.13279899,0.99114299,0,0)"
       clip-path="url(#clipPath4267)"
       sodipodi:cx="1021.6683"
       sodipodi:cy="2070.3669"
       sodipodi:rx="134.2558"
       sodipodi:ry="273.72311"
       d="m 1155.9241,2070.3669 c 0,151.1731 -60.1084,273.7232 -134.2558,273.7232 -74.14746,0 -134.25582,-122.5501 -134.25582,-273.7232 0,-151.1731 60.10836,-273.7231 134.25582,-273.7231 74.1474,0 134.2558,122.55 134.2558,273.7231 z" />
    <path
       style="fill:#d7fbef;fill-opacity:1;stroke:none"
       d="m 1275.6206,2008.9026 -72.1249,127.2792 -39.5979,-130.1076 89.0954,-41.0122 z"
       id="path4289"
       inkscape:connector-curvature="0"
       clip-path="url(#clipPath4345)" />
    <path
       style="fill:#90f4d4;fill-opacity:1;stroke:none"
       d="m 1251.579,1977.7899 -74.9533,89.0955 -28.2843,-94.7524 101.8234,-24.0416 z"
       id="path4291"
       inkscape:connector-curvature="0"
       clip-path="url(#clipPath4341)" />
    <path
       style="fill:#d7fbef;fill-opacity:1;stroke:none"
       d="m 2073.2371,1692.1188 -128.6934,166.8772 -113.1371,-104.6518 212.132,-89.0955 z"
       id="path4293"
       inkscape:connector-curvature="0"
       clip-path="url(#clipPath4337)" />
    <path
       style="fill:#90f4d4;fill-opacity:1;stroke:none"
       d="m 2052.0239,1682.2193 -188.0904,111.7228 -56.5686,-96.1665 231.9311,-41.0122 z"
       id="path4295"
       inkscape:connector-curvature="0"
       clip-path="url(#clipPath4333)" />
    <ellipse
       style="color:#000000;fill:#000000;fill-opacity:1;fill-rule:nonzero;stroke:none;stroke-width:1px;marker:none;visibility:visible;display:inline;overflow:visible;enable-background:accumulate"
       id="path4239"
       cx="2002.4366"
       cy="1695.6431"
       rx="181.97189"
       ry="234.02574"
       transform="matrix(0.99617881,-0.08733712,0.08917858,0.99601565,0,0)"
       clip-path="url(#clipPath4275)"
       sodipodi:cx="2002.4366"
       sodipodi:cy="1695.6431"
       sodipodi:rx="181.97189"
       sodipodi:ry="234.02574"
       d="m 2184.4085,1695.6431 c 0,129.2488 -81.4716,234.0257 -181.9719,234.0257 -100.5003,0 -181.9718,-104.7769 -181.9718,-234.0257 0,-129.2489 81.4715,-234.0258 181.9718,-234.0258 100.5003,0 181.9719,104.7769 181.9719,234.0258 z" />
    <ellipse
       style="color:#000000;fill:#ffffff;fill-opacity:1;fill-rule:nonzero;stroke:none;stroke-width:1px;marker:none;visibility:visible;display:inline;overflow:visible;enable-background:accumulate"
       id="path4297"
       cx="2063.4084"
       cy="1346.7373"
       rx="91.222504"
       ry="144.95074"
       transform="matrix(0.99837472,0.05699051,-0.05479297,0.99849774,0,0)"
       sodipodi:cx="2063.4084"
       sodipodi:cy="1346.7373"
       sodipodi:rx="91.222504"
       sodipodi:ry="144.95074"
       d="m 2154.631,1346.7373 c 0,80.0541 -40.8418,144.9507 -91.2226,144.9507 -50.3808,0 -91.2225,-64.8966 -91.2225,-144.9507 0,-80.0541 40.8417,-144.9507 91.2225,-144.9507 50.3808,0 91.2226,64.8966 91.2226,144.9507 z" />
    <ellipse
       style="color:#000000;fill:#ffffff;fill-opacity:1;fill-rule:nonzero;stroke:none;stroke-width:1px;marker:none;visibility:visible;display:inline;overflow:visible;enable-background:accumulate"
       id="path4299"
       cx="2591.7087"
       cy="674.53058"
       rx="35.128086"
       ry="46.160145"
       transform="matrix(0.92005419,0.39179112,-0.40066875,0.91622298,0,0)"
       sodipodi:cx="2591.7087"
       sodipodi:cy="674.53058"
       sodipodi:rx="35.128086"
       sodipodi:ry="46.160145"
       d="m 2626.8368,674.53058 c 0,25.49354 -15.7274,46.16014 -35.1281,46.16014 -19.4007,0 -35.128,-20.6666 -35.128,-46.16014 0,-25.49355 15.7273,-46.16015 35.128,-46.16015 19.4007,0 35.1281,20.6666 35.1281,46.16015 z" />
    <ellipse
       style="color:#000000;fill:#000000;fill-opacity:1;fill-rule:nonzero;stroke:none;stroke-width:1px;marker:none;visibility:visible;display:inline;overflow:visible;enable-background:accumulate"
       id="path4245"
       cx="1152.2963"
       cy="1972.0934"
       rx="84.068573"
       ry="197.93706"
       transform="matrix(0.99592799,-0.09015231,0.07930459,0.99685043,0,0)"
       clip-path="url(#clipPath4263)"
       sodipodi:cx="1152.2963"
       sodipodi:cy="1972.0934"
       sodipodi:rx="84.068573"
       sodipodi:ry="197.93706"
       d="m 1236.3648,1972.0934 c 0,109.3176 -37.6387,197.937 -84.0685,197.937 -46.4298,0 -84.0686,-88.6194 -84.0686,-197.937 0,-109.3176 37.6388,-197.9371 84.0686,-197.9371 46.4298,0 84.0685,88.6195 84.0685,197.9371 z" />
    <ellipse
       style="color:#000000;fill:#ffffff;fill-opacity:1;fill-rule:nonzero;stroke:none;stroke-width:1px;marker:none;visibility:visible;display:inline;overflow:visible;enable-background:accumulate"
       id="path4247"
       cx="1221"
       cy="1796"
       rx="37"
       ry="116"
       clip-path="url(#clipPath4259)"
       sodipodi:cx="1221"
       sodipodi:cy="1796"
       sodipodi:rx="37"
       sodipodi:ry="116"
       d="m 1258,1796 c 0,64.065 -16.5655,116 -37,116 -20.4345,0 -37,-51.935 -37,-116 0,-64.065 16.5655,-116 37,-116 20.4345,0 37,51.935 37,116 z" />
    <ellipse
       style="color:#000000;fill:#ffffff;fill-opacity:1;fill-rule:nonzero;stroke:none;stroke-width:1px;marker:none;visibility:visible;display:inline;overflow:visible;enable-background:accumulate"
       id="path4287"
       cx="1851.9318"
       cy="1425.9282"
       rx="19.091883"
       ry="28.284271"
       transform="matrix(0.94213854,0.33522375,-0.33522375,0.94213854,0,0)"
       sodipodi:cx="1851.9318"
       sodipodi:cy="1425.9282"
       sodipodi:rx="19.091883"
       sodipodi:ry="28.284271"
       d="m 1871.0236,1425.9282 c 0,15.621 -8.5477,28.2843 -19.0918,28.2843 -10.5442,0 -19.0919,-12.6633 -19.0919,-28.2843 0,-15.6209 8.5477,-28.2842 19.0919,-28.2842 10.5441,0 19.0918,12.6633 19.0918,28.2842 z" />
  </g>
  <g
     inkscape:groupmode="layer"
     id="layer8"
     inkscape:label="Eye Clipping"
     style="opacity:0.5;display:none"
     sodipodi:insensitive="true"
     transform="translate(-48.4644,150.30297)">
    <path
       style="fill:#00ff00;fill-opacity:1;stroke:#ff0000;stroke-width:1px;stroke-linecap:butt;stroke-linejoin:miter;stroke-opacity:1"
       d="m 1728,1984 c -124.7997,-156.8607 -152.1285,-340.0745 -102,-534 l 484,-324 c 129.4276,119.593 286.052,323.4983 242,558 -44.6566,171.5354 -338.0703,289.0626 -624,300 z"
       id="path4222"
       inkscape:connector-curvature="0"
       sodipodi:nodetypes="ccccc" />
    <path
       style="fill:#00ff00;fill-opacity:1;stroke:#ff0000;stroke-width:1px;stroke-linecap:butt;stroke-linejoin:miter;stroke-opacity:1"
       d="m 1080,1662 c 3.3745,186.8142 57.6643,365.7953 130,542 57.8902,-24.2057 132.9001,-49.996 137.2147,-151.4378 C 1343.9073,1938.3748 1340.1968,1824.1874 1290,1710 z"
       id="path4224"
       inkscape:connector-curvature="0"
       sodipodi:nodetypes="ccccc" />
  </g>
  <g
     inkscape:groupmode="layer"
     id="layer10"
     inkscape:label="Eyelashes"
     style="display:inline"
     sodipodi:insensitive="true"
     transform="translate(-48.4644,150.30297)">
    <path
       style="fill:none;stroke:#d18d00;stroke-width:31;stroke-linecap:butt;stroke-linejoin:miter;stroke-miterlimit:4;stroke-opacity:1;stroke-dasharray:none"
       d="m 1196.4247,1134.9186 c -212.82849,312.5853 -128.8449,792.2233 25.4558,1086.116"
       id="path4350"
       inkscape:connector-curvature="0"
       sodipodi:nodetypes="cc" />
    <path
       style="fill:#000000;stroke:none"
       d="m 1350,1612 c 9.7706,58.962 1.5698,85.3129 -66,74 -100.4942,-16.8253 -201.9191,-38.6993 -304.00004,-75 90.84804,60.1159 199.87694,98.8517 300.00004,117 62.9021,11.4016 94.6093,10.5152 102.3431,-23.7574 7.3505,-32.5734 -7.6006,-55.3097 -32.3431,-92.2426 z"
       id="path4352"
       inkscape:connector-curvature="0"
       sodipodi:nodetypes="cscssc" />
    <path
       style="fill:#000000;stroke:none"
       d="m 1099.4142,1688.9289 c -36.8293,3.9121 -67.5431,-20.5182 -100.41424,-52.9289 20.80874,41.3356 49.14814,75.6112 99.94974,88.8284 z"
       id="path4354"
       inkscape:connector-curvature="0"
       sodipodi:nodetypes="cccc"
       mask="url(#mask4410)" />
    <path
       style="fill:#000000;stroke:none"
       d="m 1100.9653,1743.7376 c -47.6119,10.1707 -95.2238,8.3839 -142.83565,-19.0919 39.13708,45.4538 94.57765,56.8263 147.78535,54.4472 z"
       id="path4356"
       inkscape:connector-curvature="0"
       sodipodi:nodetypes="cccc"
       mask="url(#mask4406)" />
    <path
       style="fill:#000000;stroke:none"
       d="m 1112.9861,1832.833 c -41.2479,6.9526 -85.3243,-9.4262 -127.98639,-29.6985 34.81469,34.599 90.10859,62.7359 137.88589,62.9325 z"
       id="path4358"
       inkscape:connector-curvature="0"
       sodipodi:nodetypes="cccc"
       mask="url(#mask4402)" />
    <path
       style="fill:#000000;stroke:none"
       d="m 1261.4785,1707.6751 c 60.7844,119.8663 87.2747,306.6523 69.2965,403.0509 44.9549,-103.8928 15.2289,-278.8458 -28.2843,-400.2225 z"
       id="path4375"
       inkscape:connector-curvature="0"
       sodipodi:nodetypes="cccc" />
    <path
       style="fill:#000000;stroke:none"
       d="m 1675.5527,1906.8394 c -83.2424,-117.9051 -113.8108,-265.8917 -66.1777,-450.8942 l 28.2843,-1e-4 c -36.0378,180.1816 -13.9125,314.307 37.8934,450.8943 z"
       id="path4377"
       inkscape:connector-curvature="0"
       sodipodi:nodetypes="cccc" />
    <path
       style="fill:#000000;stroke:none"
       d="m 2246.6427,1826.1951 c 107.3772,-110.6887 130.5149,-232.7015 67.0107,-349.0368 -60.757,-111.3025 -93.158,-253.6219 -248.9016,-321.0265 l 74.9533,-48.0832 c 121.5355,79.6229 177.9556,246.8796 217.7889,374.7666 35.7791,114.8709 24.6224,280.6503 -110.8513,343.3799 z"
       id="path4379"
       inkscape:connector-curvature="0"
       sodipodi:nodetypes="csccsc" />
    <path
       style="fill:#000000;stroke:none"
       d="m 2209.3447,1199.5582 c 47.5499,-23.0203 76.0997,-53.5407 101.6553,-86.5582 -4.7283,50.9526 -36.1322,85.3086 -79,103 z"
       id="path4381"
       inkscape:connector-curvature="0"
       sodipodi:nodetypes="cccc" />
    <path
       style="fill:#000000;stroke:none"
       d="m 2318,1044 c -39.5895,42.8611 -86.9024,88.935 -148,105 l 19,21 c 60.5494,-24.9409 109.7772,-66.3972 129,-126 z"
       id="path4383"
       inkscape:connector-curvature="0"
       sodipodi:nodetypes="cccc" />
    <path
       style="fill:#000000;stroke:none"
       d="m 2275.4696,958.14194 c -180.9178,180.91776 -588.3215,433.42636 -732.5626,509.11686 -30.1935,17.6365 -56.9135,23.9841 -72.1249,-7.0711 -9.3713,21.5672 -3.3499,39.7139 21.2132,53.7401 l 165.463,-63.6396 c 141.9418,-87.6966 309.9036,-193.4854 443.6493,-298.5395 97.969,-24.2251 177.8196,-139.1052 174.362,-193.60676 z"
       id="path4385"
       inkscape:connector-curvature="0"
       sodipodi:nodetypes="ccccccc" />
    <path
       style="font-style:normal;font-variant:normal;font-weight:normal;font-stretch:normal;text-indent:0;text-align:start;text-decoration:none;line-height:normal;letter-spacing:normal;word-spacing:normal;text-transform:none;direction:ltr;block-progression:tb;writing-mode:lr-tb;text-anchor:start;baseline-shift:baseline;color:#000000;fill:#d18d00;fill-opacity:1;stroke:none;stroke-width:49;marker:none;visibility:visible;display:inline;overflow:visible;enable-background:accumulate;font-family:sans-serif;-inkscape-font-specification:sans-serif"
       d="m 1227.7051,2180.166 c -32.0124,13.9134 -56.7569,29.3794 -74.3321,48.6641 -17.5751,19.2847 -27.1986,43.3731 -26.5527,67.9492 l 48.9844,-1.2871 c -0.322,-12.2533 3.0749,-21.9064 13.7832,-33.6563 10.7083,-11.7498 29.2042,-25.3467 57.5801,-36.7011 69.1394,-27.6656 117.1231,-97.5212 100.0467,-172.5726 -19.9048,70.6125 -74.2623,107.9381 -119.5096,127.6038 z"
       id="path4211-3"
       inkscape:connector-curvature="0"
       sodipodi:nodetypes="ssccsscs" />
  </g>
  <g
     inkscape:groupmode="layer"
     id="layer11"
     inkscape:label="Horn"
     style="display:inline"
     sodipodi:insensitive="true"
     transform="translate(-48.4644,150.30297)">
    <path
       style="fill:#f7cf72;fill-opacity:1;stroke:#d18d00;stroke-width:49;stroke-linecap:butt;stroke-linejoin:miter;stroke-miterlimit:4;stroke-opacity:1;stroke-dasharray:none"
       d="M 1234,1278 C 1102.6667,1170.0375 953.33957,1023.1211 844.2426,900.00001 730.22173,771.32209 799.5988,726.72956 925.99996,770 1090.1407,826.1897 1230.3498,905.6502 1365,991.00002"
       id="path4415"
       inkscape:connector-curvature="0"
       sodipodi:nodetypes="cssc" />
    <path
       style="fill:none;stroke:#d18d00;stroke-width:31;stroke-linecap:butt;stroke-linejoin:miter;stroke-miterlimit:4;stroke-opacity:1;stroke-dasharray:none"
       d="m 947.52305,771.46574 c 59.91785,98.78401 80.43045,196.95723 -21.21321,223.44575"
       id="path4417"
       inkscape:connector-curvature="0"
       sodipodi:nodetypes="cc" />
    <path
       style="fill:none;stroke:#d18d00;stroke-width:31;stroke-linecap:butt;stroke-linejoin:miter;stroke-miterlimit:4;stroke-opacity:1;stroke-dasharray:none"
       d="m 1112.9861,847.83327 c 60.5853,136.42129 86.4804,257.75993 -50.9117,284.25693"
       id="path4419"
       inkscape:connector-curvature="0"
       sodipodi:nodetypes="cc" />
    <path
       style="font-style:normal;font-variant:normal;font-weight:normal;font-stretch:normal;text-indent:0;text-align:start;text-decoration:none;line-height:normal;letter-spacing:normal;word-spacing:normal;text-transform:none;direction:ltr;block-progression:tb;writing-mode:lr-tb;text-anchor:start;baseline-shift:baseline;color:#000000;fill:#d18d00;fill-opacity:1;fill-rule:nonzero;stroke:none;stroke-width:49;marker:none;visibility:visible;display:inline;overflow:visible;enable-background:accumulate;font-family:sans-serif;-inkscape-font-specification:sans-serif"
       d="m 1377.9141,970.17969 -25.8282,41.64061 c 53.8139,33.3762 116.1729,61.4955 168.8213,89.4592 -5.4437,34.3515 2.6485,80.1886 12.1863,109.5971 8.8307,-29.2814 24.1751,-77.4418 29.801,-122.1598 l 2.0918,-16.627 -14.7363,-7.9785 c -59.0677,-31.9795 -116.2752,-59.1619 -172.3359,-93.93161 z"
       id="path4415-2"
       inkscape:connector-curvature="0"
       sodipodi:nodetypes="ccccscsc" />
  </g>
  <g
     inkscape:groupmode="layer"
     id="layer12"
     inkscape:label="Front Mane"
     style="display:inline"
     sodipodi:insensitive="true"
     transform="translate(-48.4644,150.30297)">
    <path
       style="fill:#f6ce00;fill-opacity:1;stroke:none;display:inline"
       d="m 3310.6739,1560.5969 c -98.3889,128.4639 -209.7999,229.1686 -326.6833,315.3696 -572.0091,421.854 -567.5696,1267.6863 234.7595,1380.2725 -244.1821,-179.1337 -279.1192,-378.2026 -101.8234,-557.2002 244.0708,-246.4135 388.4278,-471.1211 364.8671,-859.8418 -9.9001,-163.3382 -54.7665,-329.5842 -107.4379,-474.8938 1.9616,71.7555 -7.4919,140.3978 -63.682,196.2937 z"
       id="path4432-8"
       inkscape:connector-curvature="0"
       sodipodi:nodetypes="cscsscc" />
    <path
       style="fill:#d00012;fill-opacity:1;stroke:none"
       d="m 3402.5978,1454.5309 c -81.0898,370.1718 -263.9171,495.4861 -428.7493,664.6804 -218.0746,223.8456 -364.2367,443.9533 -339.5534,743.9352 33.1394,82.8995 93.7453,153.9037 147.9681,212.9086 13.7472,-234.549 72.7687,-477.4087 261.1244,-606.1189 -18.1113,-24.8591 -47.0656,-33.4537 -75.5391,-42.7695 202.3249,-75.7414 405.1815,-214.0018 511.1169,-429.7788 9.6317,-196.3909 -1.2066,-367.6643 -76.3676,-542.857 z"
       id="path4434"
       inkscape:connector-curvature="0"
       sodipodi:nodetypes="cscccccc" />
    <path
       style="fill:#d00012;fill-opacity:1;stroke:none"
       d="m 3094.2993,2704.6957 c -178.6395,121.8021 -196.958,313.7308 -178.1909,461.0337 l 282.8427,90.5097 C 2985.5325,3050.4742 2958.3968,2901.926 3094.2993,2704.6957 z"
       id="path4519"
       inkscape:connector-curvature="0"
       sodipodi:nodetypes="cccc" />
    <path
       style="fill:none;stroke:#6c0100;stroke-width:49;stroke-linecap:butt;stroke-linejoin:miter;stroke-miterlimit:4;stroke-opacity:1;stroke-dasharray:none"
       d="m 2242,722 c -245.8449,-45.30427 -462.6457,-14.34693 -620,84"
       id="path4430"
       inkscape:connector-curvature="0"
       sodipodi:nodetypes="cc" />
    <path
       style="fill:#d00012;fill-opacity:1;stroke:#6c0100;stroke-width:49;stroke-linecap:butt;stroke-linejoin:miter;stroke-miterlimit:9;stroke-opacity:1;stroke-dasharray:none"
       d="m 1750.7964,767.2231 c -157.2412,-17.77952 -308.7362,7.16733 -446.0631,57.74012 50.5212,7.42809 103.0423,18.85618 153.5635,30.28427 -117.653,61.58816 -224.336,126.74971 -268.3574,217.30361 -45.722,94.0523 -54.6968,229.8857 37.598,268.8427 56.0528,23.6595 137.4859,18.7691 206.4752,2.8284 138.8133,-32.0743 96.377,112.0455 29.6984,207.8894 211.2309,-46.5144 290.8345,-266.901 94.7523,-337.997 -150.5156,-54.5744 -151.0608,-130.4639 -65.5391,-219.93103 78.1428,-81.74778 166.3618,-158.74558 257.8722,-226.96047 z"
       id="path4428"
       inkscape:connector-curvature="0"
       sodipodi:nodetypes="cccssscssc" />
    <path
       style="fill:none;stroke:#6c0100;stroke-width:49;stroke-linecap:butt;stroke-linejoin:miter;stroke-miterlimit:9;stroke-opacity:1;stroke-dasharray:none"
       d="m 2662.9641,755.90939 c 243.9146,13.43021 459.0515,118.31843 574.1707,285.67111 143.3035,208.3251 186.1351,372.0027 73.5391,519.0164 -98.3889,128.4639 -209.7999,229.1686 -326.6833,315.3696 -572.0091,421.854 -567.5696,1267.6863 234.7595,1380.2725 -244.1821,-179.1337 -279.1192,-378.2026 -101.8234,-557.2002 244.0708,-246.4135 388.4278,-471.1211 364.8671,-859.8418 -9.9001,-163.3382 -54.7665,-329.5842 -107.4379,-474.8938"
       id="path4432"
       inkscape:connector-curvature="0"
       sodipodi:nodetypes="cssscssc" />
  </g>
  <g
     inkscape:groupmode="layer"
     id="layer13"
     inkscape:label="Ear"
     style="display:inline"
     sodipodi:insensitive="true"
     transform="translate(-48.4644,150.30297)">
    <path
       style="fill:#f7cf72;fill-opacity:1;stroke:none"
       d="m 2650.2362,1358.3644 c 255.1247,-303.9506 132.8136,-801.8449 -127.2792,-1088.94444 -98.5431,-108.7753 -138.8909,-62.30731 -181.0193,11.3137 -94.7358,165.55442 -175.5563,394.59604 -118.794,619.42558"
       id="path4439-2"
       inkscape:connector-curvature="0"
       sodipodi:nodetypes="cssc" />
    <path
       style="font-style:normal;font-variant:normal;font-weight:normal;font-stretch:normal;text-indent:0;text-align:start;text-decoration:none;line-height:normal;letter-spacing:normal;word-spacing:normal;text-transform:none;direction:ltr;block-progression:tb;writing-mode:lr-tb;text-anchor:start;baseline-shift:baseline;color:#000000;fill:#d18d00;fill-opacity:1;stroke:none;stroke-width:49;marker:none;visibility:visible;display:inline;overflow:visible;enable-background:accumulate;font-family:sans-serif;-inkscape-font-specification:sans-serif"
       d="m 2420.7363,180.78711 c -5.362,0.19887 -10.6202,0.95181 -15.7226,2.2793 -40.8194,10.61987 -62.7105,47.6999 -84.3399,85.49804 -96.5905,168.79556 -192.3653,493.58155 -102.2925,640.76519 -27.9273,-166.81636 51.9407,-454.11401 144.8218,-616.4273 20.4991,-35.82286 39.6991,-58.6548 54.1485,-62.41406 7.2247,-1.87963 15.51,-1.56019 30.0097,6.18164 14.4998,7.74183 33.9113,23.36948 57.4825,49.24805 146.1011,160.40332 244.4783,385.44936 254.5507,607.10937 7.2699,159.98556 1.071,339.81176 -113.5084,479.32556 151.4207,-98.4863 170.1511,-312.2853 162.4596,-481.55017 -10.6566,-234.51652 -113.2427,-468.76963 -267.2754,-637.88085 -25.8463,-28.37651 -48.5043,-47.66361 -70.6289,-59.47657 -16.5934,-8.85972 -33.6191,-13.25481 -49.7051,-12.6582 z"
       id="path4439"
       inkscape:connector-curvature="0"
       sodipodi:nodetypes="ssscssssscssss" />
    <path
       style="fill:#d18d00;fill-opacity:1;stroke:none"
       d="m 2508,534 c 54.6735,137.91995 73.7403,394.80621 32,526 84.014,-129.86448 74.539,-402.78258 -32,-526 z"
       id="path4441"
       inkscape:connector-curvature="0"
       sodipodi:nodetypes="ccc" />
  </g>
  <!--Created by Sigma
      http://90sigma.deviantart.com/-->
</svg>
