<?xml version="1.0" encoding="UTF-8"?><svg xmlns="http://www.w3.org/2000/svg" xmlns:xlink="http://www.w3.org/1999/xlink" version="1.1" viewBox="0 0 5915.0269 5915.0274"><defs id="defs4"><linearGradient id="linearGradient4553"><stop id="stop4555" stop-color="#73ebc8" offset="0"/><stop id="stop4557" stop-color="#11897b" offset="1"/></linearGradient><clipPath id="clipPath4259" clipPathUnits="userSpaceOnUse"><path id="path4261" opacity=".5" d="m1080 1662c3.3745 186.81 57.664 365.8 130 542 57.89-24.206 132.9-49.996 137.21-151.44-3.3-114.2-7-228.4-57.2-342.6z" stroke="#f00" stroke-width="1px" fill="#0f0"/></clipPath><clipPath id="clipPath4263" clipPathUnits="userSpaceOnUse"><path id="path4265" opacity=".5" d="m944.85 1752.7c-11.452 186.37 28.475 369.53 86.613 551.55 59.631-18.889 136.45-37.813 148.8-138.46 5.7589-114.03 11.116-228.09-29.87-346.35z" stroke="#f00" stroke-width="1px" fill="#0f0"/></clipPath><clipPath id="clipPath4267" clipPathUnits="userSpaceOnUse"><path id="path4269" opacity=".5" d="m849.97 1811.2c-21.47 185.09 8.5788 370.42 56.888 555.83 60.61-14.844 138.4-28.57 156.16-128.11 11.889-113.33 23.379-226.72-11.219-347.4z" stroke="#f00" stroke-width="1px" fill="#0f0"/></clipPath><clipPath id="clipPath4271" clipPathUnits="userSpaceOnUse"><path id="path4273" opacity=".5" d="m1080 1662c3.3745 186.81 57.664 365.8 130 542 57.89-24.206 132.9-49.996 137.21-151.44-3.3-114.2-7-228.4-57.2-342.6z" stroke="#f00" stroke-width="1px" fill="#0f0"/></clipPath><clipPath id="clipPath4275" clipPathUnits="userSpaceOnUse"><path id="path4277" opacity=".5" d="m1544.2 2127.3c-110.31-167.16-121.2-352.06-53.972-540.87l510.97-280.49c118.25 130.44 256.06 347.25 191.27 577-59.776 166.98-362.5 258.43-648.27 244.36z" stroke="#f00" stroke-width="1px" fill="#0f0"/></clipPath><clipPath id="clipPath4279" clipPathUnits="userSpaceOnUse"><path id="path4281" opacity=".5" d="m958.24 2461.6c-64.631-190.51-28.605-371.79 83.961-536.14l564.92-135.25c81.551 157.18 160.29 402.87 39.766 607.38-99.867 145.27-415.75 153.3-688.65 64.004z" stroke="#f00" stroke-width="1px" fill="#0f0"/></clipPath><clipPath id="clipPath4283" clipPathUnits="userSpaceOnUse"><path id="path4285" opacity=".5" d="m1728 1984c-124.8-156.86-152.13-340.07-102-534l484-324c129.43 119.59 286.05 323.5 242 558-44.657 171.54-338.07 289.06-624 300z" stroke="#f00" stroke-width="1px" fill="#0f0"/></clipPath><clipPath id="clipPath4333" clipPathUnits="userSpaceOnUse"><ellipse id="ellipse4335" style="color:#000000" rx="306.48" ry="350.74" transform="matrix(.93745 -.34813 .33705 .94149 0 0)" cy="2182.2" cx="1456.6" fill="#f00"/></clipPath><clipPath id="clipPath4337" clipPathUnits="userSpaceOnUse"><ellipse id="ellipse4339" style="color:#000000" rx="306.48" ry="350.74" transform="matrix(.93745 -.34813 .33705 .94149 0 0)" cy="2182.2" cx="1456.6" fill="#f00"/></clipPath><clipPath id="clipPath4341" clipPathUnits="userSpaceOnUse"><ellipse id="ellipse4343" style="color:#000000" rx="134.26" ry="273.72" transform="matrix(.98766 -.15664 .13280 .99114 0 0)" cy="2070.4" cx="1021.7" fill="#f00"/></clipPath><clipPath id="clipPath4345" clipPathUnits="userSpaceOnUse"><ellipse id="ellipse4347" style="color:#000000" rx="134.26" ry="273.72" transform="matrix(.98766 -.15664 .13280 .99114 0 0)" cy="2070.4" cx="1021.7" fill="#f00"/></clipPath><mask id="mask4402" maskUnits="userSpaceOnUse"><path id="path4404" d="m1196.4 1134.9c-212.83 312.59-128.84 792.22 25.456 1086.1l-243.26 36.8-200.82-1057.8z" stroke="#fff" stroke-width="31" fill="#fff"/></mask><mask id="mask4406" maskUnits="userSpaceOnUse"><path id="path4408" d="m1196.4 1134.9c-212.83 312.59-128.84 792.22 25.456 1086.1l-243.26 36.8-200.82-1057.8z" stroke="#fff" stroke-width="31" fill="#fff"/></mask><mask id="mask4410" maskUnits="userSpaceOnUse"><path id="path4412" d="m1196.4 1134.9c-212.83 312.59-128.84 792.22 25.456 1086.1l-243.26 36.8-200.82-1057.8z" stroke="#fff" stroke-width="31" fill="#fff"/></mask><clipPath id="clipPath4096" clipPathUnits="userSpaceOnUse"><path id="path4098" opacity=".5" d="m422.01 20.797c33.739 5.767 71.016 33.612 89.018 68.665s23.872 73.4-24.51 100.49c-32.925 18.436-26.853 43.709-23.284 63.725 39.713-56.83 100.86-55.495 162.99-51.471-57.862 22.817-103.27 71.412-73.529 90.686 32.752 21.225 53.651 40.965 44.118 78.431 50.654-18.477 101.44-33.333 151.96 6.1274 42.612 33.286 67.516 8.8217 90.686-22.059-14.093 56.986-34.844 118.23-107.84 105.39-22.378-3.9358-46.753-2.0031-60.049 17.157-4.4156 13.169-6.8174 26.741-26.961 36.765 36.285 24.271 54.636 57.227 29.412 98.039-28.282 45.759 24.943 52.139 69.853 19.608-12.439 90.882-92.345 90.07-115.2 57.598-44.242-62.87-191.38-27.541-120.88 86.478 49.035 79.305 27.667 159.83-34.329 213.29 9.5318-62.364 0.24114-125.82-64.458-178.63-47.26-38.6-57.91-83-52.38-134.64-71.79 16.95-120.3 14.66-102.94 117.65-89.52-43.28-103.96-96.7-26.96-162.99 36.39-31.34 11.35-118.83-51.48-85.79-54.03 28.43-113.32 25.35-164.21-34.31 46.098-1.2875 91.206-4.3816 106.62-35.539 18.99-38.392 60.411-59.221 129.9-52.696-100.21-55.04-135.01-135.01-44.12-212.01 3.5041 96.115 59.47 114.79 131.13 110.29-42.708-56.33-48.962-108.21 41.667-148.28 51.19-29.733 101.77-74.578 45.785-152z" stroke="#f00" stroke-width="1px" fill="#0f0"/></clipPath><clipPath id="clipPath4092" clipPathUnits="userSpaceOnUse"><path id="path4094" opacity=".5" d="m422.01 20.797c33.739 5.767 71.016 33.612 89.018 68.665s23.872 73.4-24.51 100.49c-32.925 18.436-26.853 43.709-23.284 63.725 39.713-56.83 100.86-55.495 162.99-51.471-57.862 22.817-103.27 71.412-73.529 90.686 32.752 21.225 53.651 40.965 44.118 78.431 50.654-18.477 101.44-33.333 151.96 6.1274 42.612 33.286 67.516 8.8217 90.686-22.059-14.093 56.986-34.844 118.23-107.84 105.39-22.378-3.9358-46.753-2.0031-60.049 17.157-4.4156 13.169-6.8174 26.741-26.961 36.765 36.285 24.271 54.636 57.227 29.412 98.039-28.282 45.759 24.943 52.139 69.853 19.608-12.439 90.882-92.345 90.07-115.2 57.598-44.242-62.87-191.38-27.541-120.88 86.478 49.035 79.305 27.667 159.83-34.329 213.29 9.5318-62.364 0.24114-125.82-64.458-178.63-47.26-38.6-57.91-83-52.38-134.64-71.79 16.95-120.3 14.66-102.94 117.65-89.52-43.28-103.96-96.7-26.96-162.99 36.39-31.34 11.35-118.83-51.48-85.79-54.03 28.43-113.32 25.35-164.21-34.31 46.098-1.2875 91.206-4.3816 106.62-35.539 18.99-38.392 60.411-59.221 129.9-52.696-100.21-55.04-135.01-135.01-44.12-212.01 3.5041 96.115 59.47 114.79 131.13 110.29-42.708-56.33-48.962-108.21 41.667-148.28 51.19-29.733 101.77-74.578 45.785-152z" stroke="#f00" stroke-width="1px" fill="#0f0"/></clipPath><clipPath id="clipPath4084" clipPathUnits="userSpaceOnUse"><path id="path4086" style="color:#000000" d="m598.13 493.53a181.57 174.22 0 0 1 -181.57 174.22 181.57 174.22 0 0 1 -181.58 -174.22 181.57 174.22 0 0 1 181.58 -174.22 181.57 174.22 0 0 1 181.57 174.22z" fill="#0f0"/></clipPath><linearGradient id="linearGradient4559" y2="1895.1" xlink:href="#linearGradient4553" gradientUnits="userSpaceOnUse" x2="992.06" y1="2246.5" x1="1036.8"/><linearGradient id="linearGradient4561" y2="1941.8" xlink:href="#linearGradient4553" gradientUnits="userSpaceOnUse" x2="1530.4" y1="2416" x1="1507.5"/></defs><g transform="translate(-48.464 150.3)"><path id="path4089-4" fill="#f2c250" d="m4675.5 3747.6c64.375 1.9267 134.58 30.023 220.51 142.21 226.6 295.82 529.48 789.65 644.88 1216.2 26.151 96.662 55.876 193.38-118.79 214.96-152.82 18.878-327.97 23.189-449.72 8.4852-136.87-16.53-155.32-64.209-130.11-223.45 47.41-299.48-186-858.7-376.67-1089.9-179.12-217.22-392.4-426.8-539.74-691.99l58.1-716.1 36-292c129.74 56.235 190.32 140.14 246 226 278.39 294.49 410.16 699.93 409.5 1205.6z"/><path id="path4083" fill="#d18d00" d="m4169.7 2371.1-35.473 33.805c34.339 36.035 64.667 75.405 90.648 115.33 48.209 31.389 77.957 72.008 114.01 109.48-35.844-84.083-92.608-178.25-169.19-258.61z"/><path id="path4075" d="m3094.6 3220c123.34 461.75 224.7 1249.9 84.569 1772.9-34.565 129-58.557 228.31 79.196 237.59 157.36 10.598 315.77 7.0182 472.35-14.142 72.589-9.8098 120.69-53.892 121.62-110.31 10.944-665.79-138.79-1319.7-401.64-1962.9" stroke="#d18d00" stroke-width="49" fill="#f2c250"/><path id="path4077" fill="#d18d00" d="m4215.9 2514.1c289.57 243.2 414.21 800.7 427.7 1232l48.82-4.1876c-1.1-430.8-142.6-1050-476.5-1227.8z"/><path id="path4089" fill="#d18d00" d="m3947.3 3312.2-42.832 23.799c149.56 269.18 364.29 479.86 542.26 695.68 92.286 111.91 198.07 308.28 273.54 512.27 75.464 203.99 120.2 416.94 97.834 558.22-12.808 80.903-16.931 137.19 6.9882 180.84 11.96 21.827 31.433 38.362 55.631 49.275s53.207 17.19 88.75 21.482c125.09 15.108 301.03 10.61 455.66-8.4922 45.962-5.6778 80.323-16.336 106.09-32.75 25.765-16.414 42.126-39.501 49.172-64.158 14.093-49.314-2.816-100.7-15.818-148.77-116.98-432.41-420.89-926.83-649.08-1224.7-70.603-92.17-134.49-132.91-194.5-146.3-60.007-13.387-129.48 4.3589-186.53 39.682 65.983-0.032 128.89-2.3348 175.86 8.1424 46.965 10.477 99.995 41.752 166.27 128.27 225 293.73 526.85 786.98 640.68 1207.7 13.149 48.601 24.178 93.902 16.004 122.51-4.0873 14.303-11.413 25.484-28.383 36.295s-44.394 20.334-85.768 25.445c-151.01 18.655-325.38 22.777-443.78 8.4765-32.89-3.9723-57.513-9.8518-74.48-17.504-16.967-7.652-26.192-16.088-32.803-28.152-13.22-24.128-13.964-71.301-1.5625-149.63 25.044-158.2-23.222-374.59-100.28-582.89-77.056-208.29-183.31-407.14-281.69-526.45-180.28-218.62-392.1-427.09-537.23-688.3z"/></g><g transform="translate(-48.464 150.3)"><path id="path4493" fill="#f7cf72" d="m2200 2192c155.65 176 143.09 352 144 528 54.94 270.7 125.06 531.86 348 708l344 108c110.16 11.806 212.45 0.017 312-20 36.056 204 137.85 408 236 612l516-72c-42.548-155.14-106.79-223.52-192-208 165.9-386.1 276.6-788.4 84-1280l36-252c-333.46-129.6-669.57 156.61-914 376l-158-752z"/><path id="path4113-8" fill="#f7cf72" d="m3312 2892c-88.076 409.86 28.545 735.85 200 1056 181.99 339.81 242.55 918.65 40.686 1348-61.766 131.37-91.155 215.26 63.314 232 151.71 16.443 292.38 11.222 436 0 163.8-12.799 217.27-103.83 224-220 25.305-437.06-21.993-872.66-200-1324-50.16-127.18-112.29-157.64-280-124"/><path id="path4111-9" fill="#f7cf72" d="m2805.9 3123c-218.6 636.04-454.67 1374.2-1021.2 2101.8-104.56 134.3-150.31 231.31 2.8284 257.39 146.32 24.91 303.54 26.304 446.89 25.456 141.84-0.8388 255.8-34.689 305.47-135.76 347.62-707.33 560.24-1495.1 494.49-2217.6"/><path id="path4111" fill="#d18d00" d="m2662.3 3464.6c-192.63 548.75-433.88 1150.5-896.88 1745.2-52.972 68.04-93.513 126.06-100.21 181.38-3.3508 27.665 4.6883 56.441 25.73 76.469s51.568 31.762 92.531 38.736c149.03 25.372 307.53 26.652 451.15 25.803 72.83-0.4307 139.64-9.1528 196.34-32.08 56.695-22.927 103.35-61.155 130.98-117.38 281.5-572.78 475.14-1198.3 504.9-1801.4 7.1432-144.73-5.1661-348.17-35.677-431.18-2.5112 88.991-6.2251 286.14-13.264 428.76-29.328 594.24-220.75 1214.1-499.94 1782.2-22.044 44.853-57.208 74.088-105.37 93.564s-109.25 28.1-178.26 28.508c-143.09 0.8461-299.03-0.6613-442.63-25.109-35.608-6.0623-56.79-16.232-66.973-25.924-10.183-9.6919-12.884-18.45-10.869-35.086 4.03-33.271 38.647-90.913 90.234-157.17 467.77-600.83 711.29-1208.8 904.45-1759.1 41.971-119.56 85.568-254.41 114.37-348.3-65.193 84.106-118.75 212.84-160.61 332.07z"/><path id="path4113" fill="#d18d00" d="m3490.4 3959.6c177.59 331.6 237.56 906.04 40.111 1326-31.101 66.15-57.107 120.93-51.619 172.03 2.7441 25.551 16.384 50.004 39.561 65.803 23.176 15.798 54.025 24.521 94.904 28.951 153.88 16.677 296.28 11.341 440.55 0.068 86.191-6.7347 147.74-35.034 187.28-79.354 39.537-44.319 55.715-102.2 59.274-163.66 25.461-439.76-22.231-879.44-201.67-1334.4-26.102-66.182-58.134-112.85-108.63-135.65-50.497-22.797-147.16-0.5978-220.31 37.819 72.849-5.5835 165.11-8.9762 200.15 6.8394 35.036 15.816 59.151 47.965 83.209 108.96 176.58 447.71 223.48 879.23 198.33 1313.6-3.1676 54.711-17.088 100.43-46.92 133.87s-76.92 57.057-154.53 63.121c-142.97 11.171-281.9 16.276-431.45 0.068-36.355-3.9402-59.758-11.981-72.586-20.725s-16.943-16.612-18.44-30.547c-2.9931-27.87 16.577-80.724 47.242-145.95 206.27-438.73 145.13-1022-41.26-1370-170.37-318.12-252.23-700.38-221.67-1030.6-81.447 325.81 5.9382 731.54 178.48 1053.7z"/><path id="path64" fill="#d18d00" d="m3993.5 2594.5c57.682 155.08 80.422 400.21 65.669 595.31-18.006 238.14-89.089 461.19-169.78 647.91l44.98 19.438c82.163-190.14 155.09-418.16 173.66-663.66 15.208-201.13-0.2104-450.09-114.53-599.01z"/><path id="path4117" d="m2200 2196c171.37 185.29 140.28 373.89 156 532 27.187 273.49 160.81 582.88 344 704m343.63 102.35c100.48 8.5949 205.48 2.8849 299.09-21.599" stroke="#d18d00" stroke-width="49" fill="none"/><path id="path4119" d="m4056 2332c-262.58-143.35-622.63 30.694-948.97 376.2" stroke="#d18d00" stroke-width="49" fill="none"/></g><g transform="translate(-48.464 150.3)"><g id="g4487" transform="matrix(.64232 .22241 -.19810 .63379 1844.2 229.01)"><path id="path4090" d="m421.14 10.399-223.57 169.84-202.77 327.56c80.967 113.47 153.06 241.72 259.97 311.96l225.3 188.94c85.87-107.29 33.07-227.54-26-348.39l-15.6-348.35c57.15-122.54 106.68-242.42-17.33-301.56z" clip-path="url(#clipPath4096)" transform="translate(3350.8 2282.7)" fill="#f6ce00"/><path id="path4088" d="m421.78 15.994c55.508 29.982 72.678 111.45 20.598 155.03-56.796 47.524-58.9 92.229-30.104 158.46l8.0708 321.25c-22.157 60.469 20.047 100.69 40.303 125.47 49.163 60.128 64.083 133.33 12.825 213.52 161.15-67.569 255.56-188.53 301.23-348.48l72.79-296.35c-115.76-149.27-229.35-313.98-425.71-328.9z" clip-path="url(#clipPath4092)" transform="translate(3350.8 2282.7)" fill="#d00012"/><ellipse id="path4062" style="color:#000000" d="m 3948.886,2776.2708 c 0,96.2192 -81.2931,174.2203 -181.5733,174.2203 -100.2801,0 -181.5732,-78.0011 -181.5732,-174.2203 0,-96.2193 81.2931,-174.2204 181.5732,-174.2204 100.2802,0 181.5733,78.0011 181.5733,174.2204 z" rx="181.57" ry="174.22" cy="2776.3" cx="3767.3" fill="#e39806"/><path id="path4066" d="m460.78 312.5c-81.292 12.867-130.56 41.193-156.86 82.108-41.177 64.053 1.883 117.25 52.696 105.39 61.4-14.332 134.11-31.155 171.57 2.451-20.016-1.1957-44.935-1.2394-64.951 7.3529 133.53 31.227 78.824 144.59-95.588 160.54-96.67-26.22-161.94-79.91-154.42-197.3 31.25-100.37 96.87-169.32 247.55-160.54z" clip-path="url(#clipPath4084)" transform="translate(3350.8 2282.7)" fill="#d00012"/></g></g><g transform="translate(-48.464 150.3)"><path id="path4166-6" fill="#d00012" d="m5492.1 3115.6c14.828 144.59 112.76 224.67 235.93 240.37 210.07 26.767 243.93 260.99 185.39 429.71-41.044 118.29-140.22 215.66-237.39 298.29-139.74 118.83-235.65 252.24-268 404-163.4-137.31-228.17-335.57-124-516 69.743-120.8 149.27-225.46 128.92-373.32-58.126 91.7-117.8 139.04-208.62 206.27-76.233 56.44-137.6 127.31-135.76 226.27-326.93-191.31-345.2-734.55-259.53-1154 30.55-149.58 25.912-281.07-70.568-411.29-83.795-113.1-234.95-166.13-388.32-95.48-94.875 43.703-172.82 126.82-256.22 189.02-73.8 55-129.9 37-125.9-125.5 10.144-415.56 196.71-736.1 480-874 352.45-171.56 828.89-148.27 1156 218 231.8 259.56 369.19 623.86 172 1014-68.914 126.26-162.22 235.09-283.93 323.63z"/><path id="path4168" fill="#f6ce00" d="m5368 3198c-13.386 169.7 39.496 296.9 164 390 5.6082-51.333-0.2778-102.67-16-154 54.578 7.5117 106.47 31.414 136 78 119.08 187.86-67.4 326.6-160 444-73.776 93.534-177.81 267.09-76 500l-14 40c-155.76-171.41-239.5-351.51-88-560 48.4-100.12 128.07-191.04 92-316-49.577 57.106-115.22 110.19-186 162-69.603 71.275-157.12 132.31-156 244-113.16-70.557-198.66-166.94-232-312 63.958-241.64 326.36-369.81 536-516z"/><path id="path4170" fill="#f6ce00" d="m4768 3496c89.224-205.66 226.14-371.36 396-512 118.22-97.881 233.13-214.11 282-352-52.233 15.967-96.362 56.246-138 104 7.5828-155.76 109-304.52 200-448 127.4-200.88 85.384-415.99-48-652-235.09-162.76-466.21-186.83-696-164-332.34 40.848-521.49 198.5-652 404-80.053 166.15-183.63 409.43-140 648 15.282 61.539 44.984 65.398 76 64-73.25-346.69 154.06-562.51 280-648 318.4-216.14 723.86-223.28 888 204-93.919-78.056-200.77-120.55-316-140 121.97 230.02 183.87 464.41 94 682-58.608 141.91-152.39 292-210 414z"/><path id="path4166" d="m5492.1 3115.6c14.828 144.59 112.76 224.67 235.93 240.37 210.07 26.767 243.93 260.99 185.39 429.71-41.044 118.29-140.22 215.66-237.39 298.29-139.74 118.83-235.65 252.24-268 404-163.4-137.31-228.17-335.57-124-516 69.743-120.8 149.27-225.46 128.92-373.32-58.126 91.7-117.8 139.04-208.62 206.27-76.233 56.44-137.6 127.31-135.76 226.27-326.93-191.31-345.2-734.55-259.53-1154 30.55-149.58 25.912-281.07-70.568-411.29-83.795-113.1-234.95-166.13-388.32-95.48-94.875 43.703-172.82 126.82-256.22 189.02-73.8 55-129.9 37-125.9-125.5 10.144-415.57 196.71-736.1 480-874 352.45-171.56 828.89-148.27 1156 218 231.8 259.56 369.19 623.86 172 1014-118.29 234.03-333.11 366.37-546 498-210.74 130.3-362.27 260.17-403.03 423.05" stroke="#6c0100" stroke-width="49" fill="none"/></g><g transform="translate(-48.464 150.3)"><path id="path4173-6" fill="#d00012" d="m2404.2 382.56c-109.4-129.19-314.5-264.87-495-296.99 45.5 68.97 108.1 147.88 138.6 209.31-239.1-167.05-494.1-232.89-777.8-214.96-395.23 24.96-876.65 274.26-1043.7 579.82-144.62 264.44-196.99 596.36-113.16 893.76 83.406 295.88 236.89 432.02 480.83 339.41 190.63-72.375 256.45 87.876 191.63 191.42-274.5 259.6-207.29 665.1 214.4 735.7-166.25-209-80.11-318.4 36-416 84.401-67.599 149.97-154.03 212-244l1099.6-1228.7z"/><path id="path4181" fill="#f6ce00" d="m855.6 1130.7c96.089 60.024 189.51 125.39 274.36 207.89l-33.941 77.782c-65.269-48.463-150.7-96.385-229.1-106.07-128.6-15.879-175.83-61.377-227.69-111.72z"/><path id="path4179" fill="#f6ce00" d="m1923.3 702.17c-315.5-143.23-657.5-145.85-1019.6-52.33 54.51-56.84 110.3-115.12 179.6-168.29-314.06 16.68-650.52 97.16-939.05 410.12-109.39 273.73-73.392 515.93-11.31 752.33 248.01-406.8 599.58-570.7 1043.7-517.6z"/><path id="path4183" fill="#f6ce00" d="m1142 1780c-155.68-104-358.56-277.3-570-268 24.883 66.385 65.515 96.021 106 126-143.97 11.739-322.03-16.722-384-202l-160 208c40.325 92.358 89.099 159.37 140 220 106.85 57.294 212.45 87.255 314 28 135.75-53.187 199.67-2.6415 240 82 137.88 90.145 156.11 294.52 68 422-6.4191-41.943-17.64-80.684-40-112-45.463 93.364-91.025 286.11 52 406-14.335-108.43 8.4486-194.17 90-244 89-83.4 174.8-172.2 248-282z"/><path id="path4173" fill="#6c0100" d="m1857.3 51.457 31.438 47.613c25.2 38.04 54.8 78.61 81.3 116.92-217.1-126.69-449.1-176.48-701.6-160.52-404.17 25.527-889.73 274.49-1063.6 592.52-147.56 269.82-201.09 607.61-115.24 912.21 42.502 150.77 103.1 263.87 189.1 328.34 86.001 64.476 196.99 76.349 324.01 27.324 252.79-97.568 388.27-56.877 575.48 106.41-198.84-238.8-343.36-245.4-592.93-152.3-116.9 43.7-204.64 33.7-277.22-20.7s-130.43-157.3-171.33-302.4c-81.818-290.3-30.59-616.36 111.05-875.4 160.27-293.11 637.54-542.74 1023.7-567.13 279.1-17.631 527.4 46.5 762.3 210.59l78.537 54.869-42.555-85.834c-24.501-49.42-65.957-105.91-103.96-159.54 156.96 46.889 326.81 164.2 419.69 273.93l37.4-31.656c-113.7-134.27-320.3-271.64-509.4-305.28z"/><path id="path4175" d="m144.54 1648.7c177.97-422.4 759.49-599.2 1023.6-513.8" stroke="#6c0100" stroke-width="49" fill="none"/><path id="path4177" d="m661.79 1870.3c113.06 1.8338 202.3 72.285 142.21 183.72-42.157 78.176-104.39 131.4-144 200-127.31 220.5 19.45 537.8 354 576-132.18-123.5-151.33-290.5-26-386 99.7-76 190.8-169 258-268" stroke="#6c0100" stroke-width="49" fill="none"/><path id="path4185" d="m2794.5 1299c172.94 136.89 238.66 374.57 206.48 562.86l217.8-172.6c23.69-140.24-27.627-336.08-144.25-429.92-27.556 48.083-21.103 96.166-19.799 144.25-52.218-197.74-154.26-353.8-319.61-415.78l-79.196 217.79z" stroke="#000" stroke-width="1px" fill="none"/><path id="path4187" fill="#d00012" d="m2709.6 755.91c367.87 39.668 646.97 335.84 695.79 692.96-121.85 214.07-284.62 390.15-511.95 506.29l-254.5-758z"/><path id="path4436" fill="#f6ce00" d="m3220 1664c23.886-146.91-47.325-315.9-150-410-20.996 48.066-17.154 91.164-12 134-54.914-143.62-126.42-344.08-316-380l-120 242 220 94c152.27 157.49 188.02 353.87 154 522z"/></g><g transform="translate(-48.464 150.3)"><path id="path4551" fill="#f7cf72" d="m2228 728c-503.4-122.64-825.5 150.41-1096 536-127.94 317.32-44.648 645.2 72 940-59.716 54.813-78.412 115.94 0 192 166.63 187.48 410.24 203.91 672 180 180-56.864 360-112.18 540-220l552-400c-38.625-115.61-69.191-241.97-76-400-30.536-170.27-79.697-334.32-268-452z"/><path id="path4209" d="m2632 1116c206.96 98.918 247.94 307.29 267.31 540 12.278 147.45 50.047 282.64 128.69 376" stroke="#d18d00" stroke-width="49" fill="none"/><path id="path4211" fill="#d18d00" d="m1227.7 2180.2c-32.012 13.913-56.757 29.379-74.332 48.664s-27.199 43.373-26.553 67.949c1.2918 49.152 35.582 95.05 89.098 147.41 145.79 142.65 361.55 183.09 581.37 159.91 219.81-23.182 462.45-115.36 624.81-259.7-188.36 98.904-419.38 188.76-629.95 210.97-210.57 22.208-410.21-17.288-541.96-146.2-50.136-49.057-73.739-89.171-74.383-113.68-0.322-12.253 3.0749-21.906 13.783-33.656s29.204-25.347 57.58-36.701c69.139-27.666 117.12-97.521 100.05-172.57-19.905 70.612-74.262 107.94-119.51 127.6z"/><path id="path4217" fill="#d18d00" d="m1289.8 2293.2c53.661 42.325 99.25-2.0223 60.811-55.154-1.3362 33.532-21.763 51.792-60.811 55.154z"/><path id="path4219" fill="#d18d00" d="m1366.1 2509.5c124.27-42.871 146.49-108.55 138.59-205.06 46.538 90.632 28.604 192.66-91.924 230.52z"/></g><g transform="translate(-48.464 150.3)"><path id="path4249" clip-path="url(#clipPath4271)" fill="#fff" d="m1196 2230c173.09-32.308 228.79-195.82 130-532l-270-36z"/><path id="path4241" clip-path="url(#clipPath4283)" fill="#fff" d="m1714 2017.4c678.16-86.472 926.92-346.31 393.15-922.07l-537.4 322.44c-6.574 213.54 30.361 416.2 144.25 599.63z"/><ellipse id="path4237" style="color:#000000" d="m 1763.1248,2182.1772 c 0,193.7062 -137.2161,350.7361 -306.4809,350.7361 -169.2647,0 -306.4809,-157.0299 -306.4809,-350.7361 0,-193.7061 137.2162,-350.736 306.4809,-350.736 169.2648,0 306.4809,157.0299 306.4809,350.736 z" clip-path="url(#clipPath4279)" rx="306.48" ry="350.74" transform="matrix(.93745 -.34813 .33705 .94149 0 0)" cy="2182.2" cx="1456.6" fill="url(#linearGradient4561)"/><ellipse id="path4243" style="color:#000000" d="m 1155.9241,2070.3669 c 0,151.1731 -60.1084,273.7232 -134.2558,273.7232 -74.14746,0 -134.25582,-122.5501 -134.25582,-273.7232 0,-151.1731 60.10836,-273.7231 134.25582,-273.7231 74.1474,0 134.2558,122.55 134.2558,273.7231 z" clip-path="url(#clipPath4267)" rx="134.26" ry="273.72" transform="matrix(.98766 -.15664 .13280 .99114 0 0)" cy="2070.4" cx="1021.7" fill="url(#linearGradient4559)"/><path id="path4289" clip-path="url(#clipPath4345)" fill="#d7fbef" d="m1275.6 2008.9-72.125 127.28-39.598-130.11 89.095-41.012z"/><path id="path4291" clip-path="url(#clipPath4341)" fill="#90f4d4" d="m1251.6 1977.8-74.953 89.096-28.284-94.752 101.82-24.042z"/><path id="path4293" clip-path="url(#clipPath4337)" fill="#d7fbef" d="m2073.2 1692.1-128.69 166.88-113.14-104.65 212.13-89.096z"/><path id="path4295" clip-path="url(#clipPath4333)" fill="#90f4d4" d="m2052 1682.2-188.09 111.72-56.569-96.166 231.93-41.012z"/><ellipse id="path4239" style="color:#000000" d="m 2184.4085,1695.6431 c 0,129.2488 -81.4716,234.0257 -181.9719,234.0257 -100.5003,0 -181.9718,-104.7769 -181.9718,-234.0257 0,-129.2489 81.4715,-234.0258 181.9718,-234.0258 100.5003,0 181.9719,104.7769 181.9719,234.0258 z" clip-path="url(#clipPath4275)" rx="181.97" ry="234.03" transform="matrix(.99618 -.087337 .089179 .99602 0 0)" cy="1695.6" cx="2002.4"/><ellipse id="path4297" style="color:#000000" d="m 2154.631,1346.7373 c 0,80.0541 -40.8418,144.9507 -91.2226,144.9507 -50.3808,0 -91.2225,-64.8966 -91.2225,-144.9507 0,-80.0541 40.8417,-144.9507 91.2225,-144.9507 50.3808,0 91.2226,64.8966 91.2226,144.9507 z" rx="91.223" ry="144.95" transform="matrix(.99837 .056991 -.054793 .99850 0 0)" cy="1346.7" cx="2063.4" fill="#fff"/><ellipse id="path4299" style="color:#000000" d="m 2626.8368,674.53058 c 0,25.49354 -15.7274,46.16014 -35.1281,46.16014 -19.4007,0 -35.128,-20.6666 -35.128,-46.16014 0,-25.49355 15.7273,-46.16015 35.128,-46.16015 19.4007,0 35.1281,20.6666 35.1281,46.16015 z" rx="35.128" ry="46.16" transform="matrix(.92005 .39179 -.40067 .91622 0 0)" cy="674.53" cx="2591.7" fill="#fff"/><ellipse id="path4245" style="color:#000000" d="m 1236.3648,1972.0934 c 0,109.3176 -37.6387,197.937 -84.0685,197.937 -46.4298,0 -84.0686,-88.6194 -84.0686,-197.937 0,-109.3176 37.6388,-197.9371 84.0686,-197.9371 46.4298,0 84.0685,88.6195 84.0685,197.9371 z" clip-path="url(#clipPath4263)" rx="84.069" ry="197.94" transform="matrix(.99593 -.090152 .079305 .99685 0 0)" cy="1972.1" cx="1152.3"/><ellipse id="path4247" style="color:#000000" d="m 1258,1796 c 0,64.065 -16.5655,116 -37,116 -20.4345,0 -37,-51.935 -37,-116 0,-64.065 16.5655,-116 37,-116 20.4345,0 37,51.935 37,116 z" clip-path="url(#clipPath4259)" rx="37" ry="116" cy="1796" cx="1221" fill="#fff"/><ellipse id="path4287" style="color:#000000" d="m 1871.0236,1425.9282 c 0,15.621 -8.5477,28.2843 -19.0918,28.2843 -10.5442,0 -19.0919,-12.6633 -19.0919,-28.2843 0,-15.6209 8.5477,-28.2842 19.0919,-28.2842 10.5441,0 19.0918,12.6633 19.0918,28.2842 z" rx="19.092" ry="28.284" transform="rotate(19.586)" cy="1425.9" cx="1851.9" fill="#fff"/></g><g transform="translate(-48.464 150.3)"><path id="path4350" d="m1196.4 1134.9c-212.83 312.59-128.84 792.22 25.456 1086.1" stroke="#d18d00" stroke-width="31" fill="none"/><path id="path4352" d="m1350 1612c9.7706 58.962 1.5698 85.313-66 74-100.49-16.825-201.92-38.699-304-75 90.848 60.116 199.88 98.852 300 117 62.902 11.402 94.609 10.515 102.34-23.757 7.3505-32.573-7.6006-55.31-32.343-92.243z"/><path id="path4354" mask="url(#mask4410)" d="m1099.4 1688.9c-36.829 3.9121-67.543-20.518-100.41-52.929 20.809 41.336 49.148 75.611 99.95 88.828z"/><path id="path4356" mask="url(#mask4406)" d="m1101 1743.7c-47.612 10.171-95.224 8.3839-142.84-19.092 39.137 45.454 94.578 56.826 147.79 54.447z"/><path id="path4358" mask="url(#mask4402)" d="m1113 1832.8c-41.248 6.9526-85.324-9.4262-127.99-29.698 34.815 34.599 90.109 62.736 137.89 62.932z"/><path id="path4375" d="m1261.5 1707.7c60.784 119.87 87.275 306.65 69.296 403.05 44.955-103.89 15.229-278.85-28.284-400.22z"/><path id="path4377" d="m1675.6 1906.8c-83.242-117.91-113.81-265.89-66.178-450.89l28.284-0.0001c-36.038 180.18-13.912 314.31 37.893 450.89z"/><path id="path4379" d="m2246.6 1826.2c107.38-110.69 130.51-232.7 67.011-349.04-60.757-111.3-93.158-253.62-248.9-321.03l74.953-48.083c121.54 79.623 177.96 246.88 217.79 374.77 35.779 114.87 24.622 280.65-110.85 343.38z"/><path id="path4381" d="m2209.3 1199.6c47.55-23.02 76.1-53.541 101.66-86.558-4.7283 50.953-36.132 85.309-79 103z"/><path id="path4383" d="m2318 1044c-39.59 42.861-86.902 88.935-148 105l19 21c60.549-24.941 109.78-66.397 129-126z"/><path id="path4385" d="m2275.5 958.14c-180.92 180.92-588.32 433.43-732.56 509.12-30.194 17.636-56.914 23.984-72.125-7.0711-9.3713 21.567-3.3499 39.714 21.213 53.74l165.46-63.64c141.94-87.697 309.9-193.49 443.65-298.54 97.969-24.225 177.82-139.11 174.36-193.61z"/><path id="path4211-3" fill="#d18d00" d="m1227.7 2180.2c-32.012 13.913-56.757 29.379-74.332 48.664s-27.199 43.373-26.553 67.949l48.984-1.2871c-0.322-12.253 3.0749-21.906 13.783-33.656s29.204-25.347 57.58-36.701c69.139-27.666 117.12-97.521 100.05-172.57-19.905 70.612-74.262 107.94-119.51 127.6z"/></g><g transform="translate(-48.464 150.3)"><path id="path4415" d="m1234 1278c-131.3-108-280.66-254.9-389.76-378-114.02-128.68-44.64-173.27 81.76-130 164.1 56.19 304.3 135.65 439 221" stroke="#d18d00" stroke-width="49" fill="#f7cf72"/><path id="path4417" d="m947.52 771.47c59.918 98.784 80.43 196.96-21.213 223.45" stroke="#d18d00" stroke-width="31" fill="none"/><path id="path4419" d="m1113 847.83c60.585 136.42 86.48 257.76-50.912 284.26" stroke="#d18d00" stroke-width="31" fill="none"/><path id="path4415-2" fill="#d18d00" d="m1377.9 970.18-25.828 41.641c53.814 33.376 116.17 61.496 168.82 89.459-5.4437 34.352 2.6485 80.189 12.186 109.6 8.8307-29.281 24.175-77.442 29.801-122.16l2.0918-16.627-14.736-7.9785c-59.068-31.98-116.28-59.162-172.34-93.932z"/></g><g transform="translate(-48.464 150.3)"><path id="path4432-8" fill="#f6ce00" d="m3310.7 1560.6c-98.389 128.46-209.8 229.17-326.68 315.37-572.01 421.85-567.57 1267.7 234.76 1380.3-244.18-179.13-279.12-378.2-101.82-557.2 244.07-246.41 388.43-471.12 364.87-859.84-9.9001-163.34-54.766-329.58-107.44-474.89 1.9616 71.756-7.4919 140.4-63.682 196.29z"/><path id="path4434" fill="#d00012" d="m3402.6 1454.5c-81.09 370.17-263.92 495.49-428.75 664.68-218.07 223.85-364.24 443.95-339.55 743.94 33.139 82.9 93.745 153.9 147.97 212.91 13.747-234.55 72.769-477.41 261.12-606.12-18.111-24.859-47.066-33.454-75.539-42.77 202.32-75.741 405.18-214 511.12-429.78 9.6317-196.39-1.2066-367.66-76.368-542.86z"/><path id="path4519" fill="#d00012" d="m3094.3 2704.7c-178.64 121.8-196.96 313.73-178.19 461.03l282.84 90.51c-213.4-205.7-240.5-354.3-104.6-551.5z"/><path id="path4430" d="m2242 722c-245.84-45.304-462.65-14.347-620 84" stroke="#6c0100" stroke-width="49" fill="none"/><path id="path4428" d="m1750.8 767.22c-157.24-17.78-308.74 7.1673-446.06 57.74 50.521 7.4281 103.04 18.856 153.56 30.284-117.65 61.588-224.34 126.75-268.36 217.3-45.722 94.052-54.697 229.89 37.598 268.84 56.053 23.66 137.49 18.769 206.48 2.8284 138.81-32.074 96.377 112.05 29.698 207.89 211.23-46.514 290.83-266.9 94.752-338-150.52-54.574-151.06-130.46-65.539-219.93 78.143-81.748 166.36-158.75 257.87-226.96z" stroke="#6c0100" stroke-miterlimit="9" stroke-width="49" fill="#d00012"/><path id="path4432" d="m2663 755.91c243.91 13.43 459.05 118.32 574.17 285.67 143.3 208.33 186.14 372 73.539 519.02-98.389 128.46-209.8 229.17-326.68 315.37-572.01 421.85-567.57 1267.7 234.76 1380.3-244.18-179.13-279.12-378.2-101.82-557.2 244.07-246.41 388.43-471.12 364.87-859.84-9.9001-163.34-54.766-329.58-107.44-474.89" stroke="#6c0100" stroke-miterlimit="9" stroke-width="49" fill="none"/></g><g transform="translate(-48.464 150.3)"><path id="path4439-2" fill="#f7cf72" d="m2650.2 1358.4c255.12-303.95 132.81-801.84-127.28-1088.9-98.543-108.78-138.89-62.307-181.02 11.314-94.736 165.55-175.56 394.6-118.79 619.43"/><path id="path4439" fill="#d18d00" d="m2420.7 180.79c-5.362 0.19887-10.62 0.95181-15.723 2.2793-40.819 10.62-62.71 47.7-84.34 85.498-96.59 168.8-192.37 493.58-102.29 640.77-27.927-166.82 51.941-454.11 144.82-616.43 20.499-35.823 39.699-58.655 54.148-62.414 7.2247-1.8796 15.51-1.5602 30.01 6.1816s33.911 23.369 57.482 49.248c146.1 160.4 244.48 385.45 254.55 607.11 7.2699 159.99 1.071 339.81-113.51 479.33 151.42-98.486 170.15-312.29 162.46-481.55-10.657-234.52-113.24-468.77-267.28-637.88-25.846-28.377-48.504-47.664-70.629-59.477-16.593-8.8597-33.619-13.255-49.705-12.658z"/><path id="path4441" fill="#d18d00" d="m2508 534c54.674 137.92 73.74 394.81 32 526 84.014-129.86 74.539-402.78-32-526z"/></g></svg>