<?xml version="1.0" encoding="UTF-8" standalone="no"?>
<!-- Created with Inkscape (http://www.inkscape.org/) -->

<svg
   xmlns:dc="http://purl.org/dc/elements/1.1/"
   xmlns:cc="http://creativecommons.org/ns#"
   xmlns:rdf="http://www.w3.org/1999/02/22-rdf-syntax-ns#"
   xmlns:svg="http://www.w3.org/2000/svg"
   xmlns="http://www.w3.org/2000/svg"
   xmlns:sodipodi="http://sodipodi.sourceforge.net/DTD/sodipodi-0.dtd"
   xmlns:inkscape="http://www.inkscape.org/namespaces/inkscape"
   width="6000"
   height="6000.0005"
   id="svg4625"
   version="1.1"
   inkscape:version="0.48.4 r9939"
   sodipodi:docname="Sweetie Belle.svg">
  <defs
     id="defs4627" />
  <sodipodi:namedview
     id="base"
     pagecolor="#ffffff"
     bordercolor="#666666"
     borderopacity="1.0"
     inkscape:pageopacity="0.0"
     inkscape:pageshadow="2"
     inkscape:zoom="0.056568542"
     inkscape:cx="4401.2116"
     inkscape:cy="4903.7817"
     inkscape:document-units="px"
     inkscape:current-layer="layer1"
     showgrid="false"
     inkscape:window-width="1920"
     inkscape:window-height="1028"
     inkscape:window-x="1272"
     inkscape:window-y="217"
     inkscape:window-maximized="1"
     fit-margin-top="0"
     fit-margin-left="169"
     fit-margin-right="169"
     fit-margin-bottom="0" />
  <metadata
     id="metadata4630">
    <rdf:RDF>
      <cc:Work
         rdf:about="">
        <dc:format>image/svg+xml</dc:format>
        <dc:type
           rdf:resource="http://purl.org/dc/dcmitype/StillImage" />
        <dc:title />
      </cc:Work>
    </rdf:RDF>
  </metadata>
  <g
     inkscape:label="Layer 1"
     inkscape:groupmode="layer"
     id="layer1"
     transform="translate(168.99967,4947.6382)">
    <path
       style="fill:#7e5f8b;fill-opacity:1;stroke:none;display:inline"
       d="m 1550.4519,-924.52805 62.5539,-68.2735 c -28.73,-298.16035 585.4629,-440.80715 923.2994,-25.95845 l 99.318,-129.7267 c 0,0 -411.4739,-229.6387 -612.1332,-230.1719 -160.8631,-0.4285 -645.2647,104.4195 -473.0381,454.13055 z"
       id="path3327-99"
       inkscape:connector-curvature="0"
       sodipodi:nodetypes="ccccsc"
       inkscape:export-xdpi="90.000603"
       inkscape:export-ydpi="90.000603"
       inkscape:export-filename="C:\Users\Edelbert\Desktop\The Pony Folder\Vectors\302\path3327-99.png" />
    <path
       style="fill:#7e5f8b;fill-opacity:1;stroke:none;display:inline"
       d="m 2696.0559,-1217.8483 c 20.5981,-485.3959 -237.9335,-732.773 -511.2043,-976.4012 -205.943,-183.5953 -480.1438,-315.9932 -756.9051,-315.3847 -359.547,0.7903 -827.5985,284.107 -833.57273,981.4735 -3.32746,388.2646 92.17383,641.73461 92.17383,641.73461 524.1572,-464.70861 1137.3751,-679.86451 1957.4582,-313.57091 z"
       id="path3329-7"
       inkscape:connector-curvature="0"
       sodipodi:nodetypes="csssccc"
       inkscape:export-filename="C:\Users\Edelbert\Desktop\The Pony Folder\Vectors\302\path3327-99.png"
       inkscape:export-xdpi="90.000603"
       inkscape:export-ydpi="90.000603" />
    <path
       style="fill:#fabdd6;fill-opacity:1;stroke:none;display:inline"
       d="m 2571.9492,-1059.8089 c -333.9049,-428.7978 -1113.0032,-325.4279 -1006.1287,156.35092 29.8712,-40.11977 33.7966,-105.34592 143.1258,-99.44612 149.2502,3.83454 235.6897,104.88513 264.8703,294.56962 -68.7564,291.01701 -298.8361,310.08468 -609.2084,199.88733 17.8939,264.84881 -12.2649,505.4414202 -405.25973,562.838691 C 469.73973,18.455757 68.114211,-358.57856 30.964643,-718.85435 26.237122,-929.71468 112.30239,-1086.4762 336.89696,-1160.7091 c 217.53675,63.9331 385.47682,160.336 419.82625,332.70591 l 231.76746,-64.43694 C 869.53356,-1333.5865 768.06759,-1783.3238 1187.1458,-2123.3216 c 794.3615,-314.5019 1456.6092,443.7726 1448.8513,929.7361 z"
       id="path3409-0"
       inkscape:connector-curvature="0"
       sodipodi:nodetypes="ccccccccccccc"
       inkscape:export-filename="C:\Users\Edelbert\Desktop\The Pony Folder\Vectors\302\path3327-99.png"
       inkscape:export-xdpi="90.000603"
       inkscape:export-ydpi="90.000603" />
    <path
       style="fill:#d2ced6;fill-opacity:1;stroke:none;display:inline"
       d="m 3051.3067,-256.35393 c -684.6966,703.54811 -348.6053,1056.87187 -488.6976,1158.55375 -98.992,71.85634 -600.7218,65.00244 -676.7469,-40.10923 -90.4478,-125.04681 423.7961,-984.30999 760.1846,-1273.61968 z"
       id="path3271-4"
       inkscape:connector-curvature="0"
       sodipodi:nodetypes="csscc"
       inkscape:export-filename="C:\Users\Edelbert\Desktop\The Pony Folder\Vectors\302\path3327-99.png"
       inkscape:export-xdpi="90.000603"
       inkscape:export-ydpi="90.000603" />
    <path
       style="fill:#e6e3e6;fill-opacity:1;stroke:none;display:inline"
       d="m 3052.63,-305.01101 c -733.6986,675.9326 -441.1819,1091.89831 -532.3967,1160.52574 -67.0591,50.45673 -523.6897,53.63802 -576.7578,-24.32759 -64.2109,-94.31571 453.5908,-971.81719 813.8186,-1279.53754 z"
       id="path3273-89"
       inkscape:connector-curvature="0"
       sodipodi:nodetypes="csscc"
       inkscape:export-filename="C:\Users\Edelbert\Desktop\The Pony Folder\Vectors\302\path3327-99.png"
       inkscape:export-xdpi="90.000603"
       inkscape:export-ydpi="90.000603" />
    <path
       style="fill:#d2ced6;fill-opacity:1;stroke:none;display:inline"
       d="m 5580.736,-1495.059 c 222.0533,34.9417 -69.3797,676.90237 -180.7707,749.90327 -156.4329,102.5141 -960.1728,264.3241 -1258.1556,243.28349 l 45.032,-449.74479 c 601.2589,-15.78061 949.9888,-613.29387 1393.8943,-543.44197 z"
       id="path3634-4"
       inkscape:connector-curvature="0"
       sodipodi:nodetypes="ssccs"
       inkscape:export-filename="C:\Users\Edelbert\Desktop\The Pony Folder\Vectors\302\path3327-99.png"
       inkscape:export-xdpi="90.000603"
       inkscape:export-ydpi="90.000603" />
    <path
       style="fill:#e6e3e6;fill-opacity:1;stroke:none;display:inline"
       d="m 5550.9415,-1440.8141 c 153.9203,23.3918 -117.9215,592.05307 -186.7354,639.11169 -136.4004,93.27523 -918.8761,265.63928 -1174.7176,249.85829 l 31.789,-357.69163 c 535.0435,-7.89085 994.1865,-582.25775 1329.664,-531.27835 z"
       id="path3636-5"
       inkscape:connector-curvature="0"
       sodipodi:nodetypes="ssccs"
       inkscape:export-filename="C:\Users\Edelbert\Desktop\The Pony Folder\Vectors\302\path3327-99.png"
       inkscape:export-xdpi="90.000603"
       inkscape:export-ydpi="90.000603" />
    <path
       style="fill:#d2ced6;fill-opacity:1;stroke:none;display:inline"
       d="m 2693.7256,-333.94151 c 189.0369,287.652876 1376.0097,256.357143 1565.4015,-119.99732 266.8265,-530.21463 -170.7881,-928.85607 -169.5128,-1234.49797 0.6713,-151.5834 177.4624,-376.1022 177.4624,-376.1022 l -317.852,61.807 z"
       id="path3275-4"
       inkscape:connector-curvature="0"
       sodipodi:nodetypes="cssccc"
       inkscape:export-filename="C:\Users\Edelbert\Desktop\The Pony Folder\Vectors\302\path3327-99.png"
       inkscape:export-xdpi="90.000603"
       inkscape:export-ydpi="90.000603" />
    <path
       style="fill:#b591c2;fill-opacity:1;stroke:none;display:inline"
       d="m 746.21319,-884.79985 c 0,0 -80.10073,-262.61565 -80.10073,-644.51675 0,-633.6581 462.98834,-923.9017 761.26834,-922.4172 247.4174,1.2311 527.7747,144.8617 715.0663,305.4091 270.6911,232.0447 519.5183,500.5729 503.5997,928.3163 l -24.9612,24.4743 c -13.0896,-284.1441 -229.236,-551.1838 -545.055,-785.4835 -204.8404,-151.9701 -352.3453,-195.272 -553.9061,-195.272 -319.9904,0 -504.923,269.3879 -536.89423,502.0174 -33.55343,244.1567 58.04503,574.6678 47.79383,799.56061 -18.7283,410.83908 -361.94422,600.49221 -547.75909,327.12414 226.22477,33.28011 298.7306,-95.45844 260.94818,-339.2124 z"
       id="path3123-62"
       inkscape:connector-curvature="0"
       sodipodi:nodetypes="csssccsssscc"
       inkscape:export-filename="C:\Users\Edelbert\Desktop\The Pony Folder\Vectors\302\path3327-99.png"
       inkscape:export-xdpi="90.000603"
       inkscape:export-ydpi="90.000603" />
    <path
       style="fill:#7e5f8b;fill-opacity:1;stroke:none;display:inline"
       d="m 548.55538,-664.93348 c 112.68566,-135.92063 -193.00685,-214.63947 -193.00685,-39.19327 0,221.94205 429.82801,301.34813 429.82801,-50.38914 0,-223.12651 -221.38212,-423.95161 -423.27847,-423.95161 -161.92751,0 -362.09774425085,156.4501 -362.09774425085,466.08249 0,266.55316 389.89753425085,793.716965 954.25605425085,793.716965 529.41452,0 432.00582,-541.347235 432.00582,-541.347235 231.1347,116.26949 616.1406,56.00471 616.1406,-256.60425 0,-322.84777 -462.8637,-421.94447 -462.8637,-160.435 0,196.17444 191.0026,291.65045 209.9131,69.69768 -51.4379,155.93696 -162.6065,73.81593 -162.6065,-69.45005 0,-194.9575 367.8783,-100.3993 367.8783,161.50247 0,257.13977 -429.9718,349.45416 -661.5189,111.77886 0,0 195.5674,623.621958 -339.3131,623.621958 -523.94853,0 -889.143672,-517.519128 -889.143672,-732.813798 0,-283.62323 165.456412,-406.62709 298.222402,-406.62709 177.85561,0 374.92844,198.26807 374.92844,365.39812 0,257.74254 -324.27696,226.64866 -324.86193,51.55364 -0.19218,-72.04388 137.63742,-80.46035 135.51814,37.45926 z"
       id="path3325-76"
       inkscape:connector-curvature="0"
       sodipodi:nodetypes="cssssscsscsscsssssc"
       inkscape:export-filename="C:\Users\Edelbert\Desktop\The Pony Folder\Vectors\302\path3327-99.png"
       inkscape:export-xdpi="90.000603"
       inkscape:export-ydpi="90.000603" />
    <path
       style="fill:#d2ced6;fill-opacity:1;stroke:none;display:inline"
       d="M 2455.5236,-304.61681 C 2607.8329,57.020539 2323.0452,664.09148 2145.2184,696.05661 1960.9763,729.1758 1696.48,498.04893 1696.3362,312.43787 c -0.097,-149.80954 197.7154,-208.47799 203.4114,-419.64689 6.8373,-253.83762 -145.8939,-274.57546 50.9392,-465.45977 206.2211,-199.98922 549.7922,139.72964 504.8368,268.05198 z"
       id="path3279-4"
       inkscape:connector-curvature="0"
       sodipodi:nodetypes="cssssc"
       inkscape:export-filename="C:\Users\Edelbert\Desktop\The Pony Folder\Vectors\302\path3327-99.png"
       inkscape:export-xdpi="90.000603"
       inkscape:export-ydpi="90.000603" />
    <path
       style="fill:#d2ced6;fill-opacity:1;stroke:none;display:inline"
       d="m 2290.1906,-435.65803 c 71.5808,-63.27163 53.5838,-99.04555 54.5908,-179.23548 3.4906,-280.35817 138.6177,-736.69789 728.6578,-718.36069 l 64.2684,83.4522 c -430.902,105.8743 -560.3031,708.07343 -847.517,814.14397 z"
       id="path3281-5"
       inkscape:connector-curvature="0"
       sodipodi:nodetypes="csccc"
       inkscape:export-filename="C:\Users\Edelbert\Desktop\The Pony Folder\Vectors\302\path3327-99.png"
       inkscape:export-xdpi="90.000603"
       inkscape:export-ydpi="90.000603" />
    <path
       style="fill:#f3f3f3;fill-opacity:1;stroke:none;display:inline"
       d="m 4206.73,-478.86859 c -171.0663,333.54766 -1251.9236,360.40202 -1455.0074,126.86406 l 892.7398,-1708.91407 542.2163,21.3872 c 0,0 -154.8325,189.1405 -154.3723,349.3813 0.9973,350.7644 425.2166,722.2864 174.4236,1211.28151 z"
       id="path3283-4"
       inkscape:connector-curvature="0"
       sodipodi:nodetypes="scccss"
       inkscape:export-filename="C:\Users\Edelbert\Desktop\The Pony Folder\Vectors\302\path3327-99.png"
       inkscape:export-xdpi="90.000603"
       inkscape:export-ydpi="90.000603" />
    <path
       style="fill:#f3f3f3;fill-opacity:1;stroke:none;display:inline"
       d="m 1764.0282,313.05584 c 0,130.54477 232.7455,344.79211 367.0938,322.66693 111.0746,-18.29259 396.2841,-541.484788 274.4404,-913.64198 30.5809,-144.54106 -273.9993,-400.87907 -425.014,-252.28174 -150.1133,147.70995 -9.1867,184.63888 -17.0501,421.09231 -7.7961,234.29386 -199.4701,289.3554 -199.4701,422.16448 z"
       id="path3285-54"
       inkscape:connector-curvature="0"
       sodipodi:nodetypes="sscsss"
       inkscape:export-filename="C:\Users\Edelbert\Desktop\The Pony Folder\Vectors\302\path3327-99.png"
       inkscape:export-xdpi="90.000603"
       inkscape:export-ydpi="90.000603" />
    <path
       style="fill:#d2ced6;fill-opacity:1;stroke:none;display:inline"
       d="m 3194.8128,-988.88717 -857.719,658.9344 c 71.7003,314.385705 356.2003,116.67035 571.2533,-82.39615 215.0531,-199.06557 324.4528,-369.84368 286.4657,-576.53825 z"
       id="path3517-7"
       inkscape:connector-curvature="0"
       sodipodi:nodetypes="cczc"
       inkscape:export-filename="C:\Users\Edelbert\Desktop\The Pony Folder\Vectors\302\path3327-99.png"
       inkscape:export-xdpi="90.000603"
       inkscape:export-ydpi="90.000603" />
    <path
       style="fill:#f3f3f3;fill-opacity:1;stroke:none;display:inline"
       d="m 2324.033,-334.13861 c 146.9456,241.670419 353.5312,62.11896 551.0836,-118.28645 197.5618,-180.40449 287.7824,-303.71644 360.7134,-617.57944 l 84.6142,-215.3972 c -49.3953,-5.7113 -132.9864,-6.134 -219.2148,-5.4228 -594.0282,-14.1895 -702.4974,425.8199 -708.1332,675.88119 -1.585,70.32605 18.7678,138.84511 -92.3622,208.70751 z"
       id="path3287-3"
       inkscape:connector-curvature="0"
       sodipodi:nodetypes="czcccscc"
       inkscape:export-filename="C:\Users\Edelbert\Desktop\The Pony Folder\Vectors\302\path3327-99.png"
       inkscape:export-xdpi="90.000603"
       inkscape:export-ydpi="90.000603" />
    <path
       style="fill:#d2ced6;fill-opacity:1;stroke:none;display:inline"
       d="m 3570.4989,-432.8049 c -204.5048,352.311573 -386.3495,681.32583 -510.9933,964.59481 -98.3493,223.51599 -148.7228,396.44383 -106.1647,455.42651 61.2862,84.93278 586.769,86.52108 687.3719,6.50919 206.624,-164.33906 -86.7173,-540.15267 356.9483,-1422.54652 z"
       id="path3289-7"
       inkscape:connector-curvature="0"
       sodipodi:nodetypes="cssscc"
       inkscape:export-filename="C:\Users\Edelbert\Desktop\The Pony Folder\Vectors\302\path3327-99.png"
       inkscape:export-xdpi="90.000603"
       inkscape:export-ydpi="90.000603" />
    <path
       style="fill:#f3f3f3;fill-opacity:1;stroke:none;display:inline"
       d="m 3559.5574,-442.25256 c -150.9285,428.705099 -334.9885,750.39984 -443.0041,986.46859 -95.7603,209.27498 -123.9916,354.63779 -94.8492,397.43602 43.1813,63.40755 508.5383,53.71705 575.933,1.85963 172.3992,-132.65768 -120.338,-665.38039 431.9281,-1409.69571 z"
       id="path3291-9"
       inkscape:connector-curvature="0"
       sodipodi:nodetypes="cssscc"
       inkscape:export-filename="C:\Users\Edelbert\Desktop\The Pony Folder\Vectors\302\path3327-99.png"
       inkscape:export-xdpi="90.000603"
       inkscape:export-ydpi="90.000603" />
    <path
       style="fill:#fabdd6;fill-opacity:1;stroke:none;display:inline"
       d="m 2941.9294,-4268.1583 1283.3181,386.623 c 0,0 558.8734,153.8602 569.4697,-276.159 -9.2635,-357.6914 -388.0371,-323.501 -388.0371,-323.501 14.9883,-546.4068 -450.3688,-477.028 -825.0767,-345.8558 -313.3257,172.0976 -469.6722,366.4651 -639.674,558.8928 z"
       id="path3403-8"
       inkscape:connector-curvature="0"
       sodipodi:nodetypes="cccccc"
       inkscape:export-filename="C:\Users\Edelbert\Desktop\The Pony Folder\Vectors\302\path3327-99.png"
       inkscape:export-xdpi="90.000603"
       inkscape:export-ydpi="90.000603" />
    <path
       style="fill:#b591c2;fill-opacity:1;stroke:none;display:inline"
       d="m 4303.3824,-3880.2203 c -132.862,-423.0415 -669.2574,-963.5322 -1382.6457,-372.1573 -167.6523,253.7682 -321.7261,512.2296 -376.0983,805.1244 l 234.0402,87.4599 804.8619,-714.1813 z"
       id="path3401-6"
       inkscape:connector-curvature="0"
       sodipodi:nodetypes="cccccc"
       inkscape:export-filename="C:\Users\Edelbert\Desktop\The Pony Folder\Vectors\302\path3327-99.png"
       inkscape:export-xdpi="90.000603"
       inkscape:export-ydpi="90.000603" />
    <path
       style="fill:#7e5f8b;fill-opacity:1;stroke:none;display:inline"
       d="m 4146.5565,-3942.4221 c 131.1166,84.1629 630.5353,152.0111 630.5353,-224.1869 0,-300.1503 -462.998,-440.6196 -462.998,-136.7928 0,133.6787 258.244,253.7288 258.244,77.5877 0,-103.6987 -156.0779,-130.0592 -140.3799,-15.1228 -55.6189,-166.1242 180.3296,-141.5072 178.7953,15.7803 -2.3207,237.6923 -338.383,98.7326 -338.383,-75.6143 0,-360.0929 553.2827,-219.6903 553.2827,133.0116 0,442.6586 -578.8291,349.6561 -680.8034,279.9584 z"
       id="path3299-49"
       inkscape:connector-curvature="0"
       sodipodi:nodetypes="cssscssscc"
       inkscape:export-filename="C:\Users\Edelbert\Desktop\The Pony Folder\Vectors\302\path3327-99.png"
       inkscape:export-xdpi="90.000603"
       inkscape:export-ydpi="90.000603" />
    <path
       style="fill:#f46b4a;fill-opacity:1;stroke:none;display:inline"
       d="m 4714.8755,-2278.8919 c 156.3847,-119.4478 -40.2949,-163.9148 -78.2979,-325.4731 z"
       id="path3323-86"
       inkscape:connector-curvature="0"
       sodipodi:nodetypes="ccc"
       inkscape:export-filename="C:\Users\Edelbert\Desktop\The Pony Folder\Vectors\302\path3327-99.png"
       inkscape:export-xdpi="90.000603"
       inkscape:export-ydpi="90.000603" />
    <path
       style="fill:#d2ced6;fill-opacity:1;stroke:none;display:inline"
       d="m 3869.2775,-2027.559 c 344.2804,103.5551 714.1937,-39.1461 998.0127,-225.2837 -128.0767,-25.3284 -213.4708,-124.7295 -193.8412,-415.4561 51.6488,140.7093 343.6572,105.4409 343.6572,-209.7684 0,-248.2454 -120.5586,-69.689 -242.5077,-104.4909 -45.1471,-445.5617 -354.9247,-918.913 -820.0708,-1046.6568 z"
       id="path3295-64"
       inkscape:connector-curvature="0"
       sodipodi:nodetypes="cccsccc"
       inkscape:export-filename="C:\Users\Edelbert\Desktop\The Pony Folder\Vectors\302\path3327-99.png"
       inkscape:export-xdpi="90.000603"
       inkscape:export-ydpi="90.000603" />
    <path
       style="fill:#f3f3f3;fill-opacity:1;stroke:none;display:inline"
       d="m 4765.6996,-2246.0155 c -145.942,-73.2761 -154.9433,-280.2061 -117.2023,-544.428 97.1028,249.9733 321.1603,160.6606 321.1603,-88.1084 0,-153.2232 -81.5967,-20.4389 -239.0554,-60.4919 -64.0671,-484.5036 -376.0697,-912.3452 -778.7211,-1033.6244 l -1180.2412,549.6436 261.5906,1393.7264 837.4566,8.4972 c 328.6689,37.164 641.9468,-65.1822 895.0125,-225.2145 z"
       id="path3297-3"
       inkscape:connector-curvature="0"
       sodipodi:nodetypes="ccscccccc"
       inkscape:export-filename="C:\Users\Edelbert\Desktop\The Pony Folder\Vectors\302\path3327-99.png"
       inkscape:export-xdpi="90.000603"
       inkscape:export-ydpi="90.000603" />
    <path
       style="fill:#7e5f8b;fill-opacity:1;stroke:none;display:inline"
       d="m 4422.2534,-4480.1157 c 0,0 94.8971,-309.8066 -208.1008,-430.8647 -298.1841,-119.1317 -733.0945,61.5404 -1109.9792,405.1746 -363.0567,331.0264 -622.2117,982.1351 -569.767,1076.9823 l 60.2122,-0.057 c -52.4352,-109.7232 235.2772,-751.2969 550.6264,-1045.815 317.363,-296.4112 776.9758,-498.9031 1046.2765,-391.5429 261.677,104.3188 171.3921,402.993 171.3921,402.993 z"
       id="path3301-5"
       inkscape:connector-curvature="0"
       sodipodi:nodetypes="cssccsscc"
       inkscape:export-filename="C:\Users\Edelbert\Desktop\The Pony Folder\Vectors\302\path3327-99.png"
       inkscape:export-xdpi="90.000603"
       inkscape:export-ydpi="90.000603" />
    <path
       style="fill:#7e5f8b;fill-opacity:1;stroke:none;display:inline"
       d="m 3294.0541,-3566.1213 c -82.1048,131.0704 -310.5928,243.4522 -544.115,225.3519 l -60.1834,-59.8539 528.4171,-211.7223 z"
       id="path3307-1"
       inkscape:connector-curvature="0"
       sodipodi:nodetypes="ccccc"
       inkscape:export-filename="C:\Users\Edelbert\Desktop\The Pony Folder\Vectors\302\path3327-99.png"
       inkscape:export-xdpi="90.000603"
       inkscape:export-ydpi="90.000603" />
    <path
       style="fill:#fabdd6;fill-opacity:1;stroke:none;display:inline"
       d="m 2551.2456,-2807.1441 c -104.1702,267.0664 -95.7123,573.9147 248.9805,934.9959 l 1099.2198,359.0075 c 8.736,-387.8694 -205.176,-520.6966 -640.9879,-611.4958 71.9593,-60.0434 145.4433,-117.0627 124.4903,-361.6375 -66.6371,-187.5126 -240.5898,-432.9804 -441.6998,-220.0195 z"
       id="path3407-2"
       inkscape:connector-curvature="0"
       sodipodi:nodetypes="ccccccc"
       inkscape:export-filename="C:\Users\Edelbert\Desktop\The Pony Folder\Vectors\302\path3327-99.png"
       inkscape:export-xdpi="90.000603"
       inkscape:export-ydpi="90.000603" />
    <path
       style="fill:#b591c2;fill-opacity:1;stroke:none;display:inline"
       d="m 2726.0612,-1954.9957 c 184.0887,184.1058 848.9159,-80.2175 1180.011,457.6356 -96.7672,329.0953 -337.4049,387.539 -565.5093,399.7729 -256.5082,-41.331 -414.5424,-258.6767 -299.3059,-531.2774 z"
       id="path3405-9"
       inkscape:connector-curvature="0"
       sodipodi:nodetypes="ccccc"
       inkscape:export-filename="C:\Users\Edelbert\Desktop\The Pony Folder\Vectors\302\path3327-99.png"
       inkscape:export-xdpi="90.000603"
       inkscape:export-ydpi="90.000603" />
    <path
       style="fill:#7e5f8b;fill-opacity:1;stroke:none;display:inline"
       d="m 2522.2183,-2792.4165 c -165.9648,441.0761 65.7644,843.0958 519.1537,1178.2795 l 33.8793,-41.5942 c -421.8832,-331.4323 -644.8816,-673.1258 -509.1141,-1089.0686 z"
       id="path3311-8"
       inkscape:connector-curvature="0"
       sodipodi:nodetypes="ccccc"
       inkscape:export-filename="C:\Users\Edelbert\Desktop\The Pony Folder\Vectors\302\path3327-99.png"
       inkscape:export-xdpi="90.000603"
       inkscape:export-ydpi="90.000603" />
    <path
       style="fill:#d2ced6;fill-opacity:1;stroke:none;display:inline"
       d="m 4830.8636,-2883.7059 c 23.48,31.013 51.5417,25.0943 65.9525,-7.0093 36.7148,58.7291 -77.5366,87.036 -65.9525,7.0093 z"
       id="path3321-4"
       inkscape:connector-curvature="0"
       sodipodi:nodetypes="ccc"
       inkscape:export-filename="C:\Users\Edelbert\Desktop\The Pony Folder\Vectors\302\path3327-99.png"
       inkscape:export-xdpi="90.000603"
       inkscape:export-ydpi="90.000603" />
    <path
       style="fill:#000000;fill-opacity:1;stroke:none;display:inline"
       d="m 3608.8663,-2719.4309 c 0,0 257.0298,367.6942 634.1025,129.9249 343.1229,-216.3615 186.9081,-597.8546 186.9081,-597.8546 0,0 201.484,397.0142 -161.8892,628.7228 -410.2367,261.5847 -659.1214,-160.7931 -659.1214,-160.7931 z"
       id="path3331-7"
       inkscape:connector-curvature="0"
       sodipodi:nodetypes="cscsc"
       inkscape:export-filename="C:\Users\Edelbert\Desktop\The Pony Folder\Vectors\302\path3327-99.png"
       inkscape:export-xdpi="90.000603"
       inkscape:export-ydpi="90.000603" />
    <path
       style="fill:#000000;fill-opacity:1;stroke:none;display:inline"
       d="m 3626.0794,-2476.1483 c 63.8657,-17.192 115.1533,-48.2251 118.6439,-101.996 l 30.0445,18.256 c -0.3516,53.9127 -72.5865,93.7189 -148.6884,83.74 z"
       id="path3333-2"
       inkscape:connector-curvature="0"
       sodipodi:nodetypes="cccc"
       inkscape:export-filename="C:\Users\Edelbert\Desktop\The Pony Folder\Vectors\302\path3327-99.png"
       inkscape:export-xdpi="90.000603"
       inkscape:export-ydpi="90.000603" />
    <path
       style="fill:#000000;fill-opacity:1;stroke:none;display:inline"
       d="m 3684.0188,-2381.7935 c 82.3255,-13.3793 163.6026,-54.446 175.7267,-132.138 l 34.7012,11.5675 c -4.7573,89.2248 -118.7239,126.934 -210.4279,120.5705 z"
       id="path3335-77"
       inkscape:connector-curvature="0"
       sodipodi:nodetypes="cccc"
       inkscape:export-filename="C:\Users\Edelbert\Desktop\The Pony Folder\Vectors\302\path3327-99.png"
       inkscape:export-xdpi="90.000603"
       inkscape:export-ydpi="90.000603" />
    <path
       style="fill:#000000;fill-opacity:1;stroke:none;display:inline"
       d="m 3861.4908,-2339.3838 c 63.3767,-35.2196 124.8302,-87.5277 110.25,-147.9423 l 37.0823,0.3237 c 20.8536,77.1954 -72.0264,129.8667 -147.3323,147.6139 z"
       id="path3337-36"
       inkscape:connector-curvature="0"
       sodipodi:nodetypes="ccccc"
       inkscape:export-filename="C:\Users\Edelbert\Desktop\The Pony Folder\Vectors\302\path3327-99.png"
       inkscape:export-xdpi="90.000603"
       inkscape:export-ydpi="90.000603" />
    <path
       style="fill:#d2ced6;fill-opacity:1;stroke:none;display:inline"
       d="m 3986.1921,-3800.6599 c 60.9217,-177.4316 62.5327,-937.1668 -114.5557,-953.4064 -167.4893,-15.3599 -299.3059,493.7989 -321.8219,684.4804 z"
       id="path3133-19"
       inkscape:connector-curvature="0"
       sodipodi:nodetypes="cscc"
       inkscape:export-filename="C:\Users\Edelbert\Desktop\The Pony Folder\Vectors\302\path3327-99.png"
       inkscape:export-xdpi="90.000603"
       inkscape:export-ydpi="90.000603" />
    <path
       style="fill:#f3f3f3;fill-opacity:1;stroke:none;display:inline"
       d="m 3992.1567,-3790.7971 c 3.9797,-248.5433 -13.9238,-895.4447 -129.7932,-906.7222 -103.2305,-10.0475 -246.3339,449.0869 -271.4965,676.5898 z"
       id="path3135-28"
       inkscape:connector-curvature="0"
       sodipodi:nodetypes="cscc"
       inkscape:export-filename="C:\Users\Edelbert\Desktop\The Pony Folder\Vectors\302\path3327-99.png"
       inkscape:export-xdpi="90.000603"
       inkscape:export-ydpi="90.000603" />
    <path
       style="fill:#b591c2;fill-opacity:1;stroke:none;display:inline"
       d="m 2705.233,-3381.0477 c 255.626,5.5282 441.0764,-69.3357 551.9017,-215.7799 80.3116,57.7943 158.1109,77.459 243.6777,79.5598 172.8978,14.2401 302.4129,-60.9282 348.3081,-260.3785 25.6709,-220.8269 -44.5623,-376.842 -272.8199,-426.0742 l -947.1312,786.0072 z"
       id="path3399-12"
       inkscape:connector-curvature="0"
       sodipodi:nodetypes="ccccccc"
       inkscape:export-filename="C:\Users\Edelbert\Desktop\The Pony Folder\Vectors\302\path3327-99.png"
       inkscape:export-xdpi="90.000603"
       inkscape:export-ydpi="90.000603" />
    <path
       style="fill:#d2ced6;fill-opacity:1;stroke:none;display:inline"
       d="m 2932.3591,-3234.7798 c -95.5205,-117.1645 -597.5189,-414.6413 -713.6662,-257.4847 -159.674,216.0604 292.1044,907.6451 685.9528,931.7842 0,0 39.0865,-513.2093 27.7134,-674.2995 z"
       id="path3313-61"
       inkscape:connector-curvature="0"
       sodipodi:nodetypes="cscc"
       inkscape:export-filename="C:\Users\Edelbert\Desktop\The Pony Folder\Vectors\302\path3327-99.png"
       inkscape:export-xdpi="90.000603"
       inkscape:export-ydpi="90.000603" />
    <path
       style="fill:#f3f3f3;fill-opacity:1;stroke:none;display:inline"
       d="m 2269.5553,-3447.9265 c -108.169,164.1572 269.7993,801.6254 643.2796,822.0044 0,0 70.9812,-413.084 68.5934,-557.6098 29.9671,-53.9331 -644.9865,-365.9013 -711.873,-264.3946 z"
       id="path3317-50"
       inkscape:connector-curvature="0"
       sodipodi:nodetypes="sccs"
       inkscape:export-filename="C:\Users\Edelbert\Desktop\The Pony Folder\Vectors\302\path3327-99.png"
       inkscape:export-xdpi="90.000603"
       inkscape:export-ydpi="90.000603" />
    <path
       style="fill:#7e5f8b;fill-opacity:1;stroke:none;display:inline"
       d="m 3128.1182,-2578.7214 c 81.6446,213.0476 -193.3617,211.4374 -193.3617,-18.4106 0,-93.1989 76.7156,-170.9559 153.6327,-170.9559 161.937,0 275.9076,188.0364 275.9076,363.1115 0,195.4601 -184.5682,303.39 -184.5682,303.39 0,0 699.1096,28.5044 699.1096,500.9933 0,298.4375 -261.1016,469.0926 -495.7941,469.0926 -222.4177,0 -359.5469,-123.6357 -359.5469,-317.5986 0,-169.1295 126.8206,-267.6719 236.8883,-267.7072 85.9311,0 167.0094,68.3441 168.0159,169.5098 1.5022,150.9974 -235.2596,215.1207 -208.9053,28.5007 -148.3872,195.1501 258.3975,236.6211 258.2536,-28.2735 -0.096,-121.9426 -102.732,-217.6058 -215.9641,-218.6407 -135.9784,-1.2426 -289.8987,113.3605 -289.8987,319.1286 0,200.4519 136.7359,363.2369 411.2915,362.9969 252.1068,-0.219 549.1114,-198.1789 550.1566,-519.3748 1.5918,-487.3192 -638.4976,-534.2648 -638.4976,-534.2648 0,0 121.9906,-76.1255 121.9906,-266.9546 0,-194.7417 -135.6046,-414.3316 -327.8827,-414.3316 -119.4366,0 -209.4624,86.4009 -209.4624,222.7599 0,366.857 465.6404,227.9081 248.6353,17.029 z"
       id="path3309-64"
       inkscape:connector-curvature="0"
       sodipodi:nodetypes="cssscssssscssssscsssc"
       inkscape:export-filename="C:\Users\Edelbert\Desktop\The Pony Folder\Vectors\302\path3327-99.png"
       inkscape:export-xdpi="90.000603"
       inkscape:export-ydpi="90.000603" />
    <path
       style="fill:#d2ced6;fill-opacity:1;stroke:none;display:inline"
       d="m 2383.5068,-3151.283 c 116.464,206.3661 291.481,291.1493 517.8114,269.4088 -198.0895,-40.2529 -379.3876,-113.1366 -517.8114,-269.4088 z"
       id="path3319-7"
       inkscape:connector-curvature="0"
       sodipodi:nodetypes="ccc"
       inkscape:export-filename="C:\Users\Edelbert\Desktop\The Pony Folder\Vectors\302\path3327-99.png"
       inkscape:export-xdpi="90.000603"
       inkscape:export-ydpi="90.000603" />
    <path
       id="path3139-1"
       style="fill:none;stroke:#d2ced6;stroke-width:19.1112709;stroke-linecap:butt;stroke-linejoin:miter;stroke-miterlimit:4;stroke-opacity:1;stroke-dasharray:none;display:inline"
       d="m 3628.6206,-4283.9384 c 38.5209,158.9402 204.4375,225.1246 368.8295,198.5718 m -276.7899,-455.4981 c 50.6419,104.1738 115.4186,162.4806 253.6121,146.4628"
       inkscape:connector-curvature="0"
       sodipodi:nodetypes="cccc"
       inkscape:export-filename="C:\Users\Edelbert\Desktop\The Pony Folder\Vectors\302\path3327-99.png"
       inkscape:export-xdpi="90.000603"
       inkscape:export-ydpi="90.000603" />
    <path
       style="fill:#7e5f8b;fill-opacity:1;stroke:none;display:inline"
       d="m 3473.7797,-3787.2463 c 18.1912,-62.4143 -91.119,-82.7944 -90.1122,-8.8671 1.6973,123.8146 247.619,150.5202 247.619,-44.9742 0,-105.8734 -118.4585,-169.5585 -212.042,-169.5585 -129.9659,0 -269.9336,114.3089 -269.9336,254.9602 0,376.2003 753.568,386.4507 753.568,-125.38 0,-397.5522 -499.6105,-418.8156 -679.4128,-278.4042 189.1136,-70.0617 620.1787,-50.1743 620.1787,278.1316 0,437.293 -638.715,429.7193 -638.715,124.9957 0,-111.7855 102.6454,-209.3027 213.0872,-209.3027 70.0222,0 170.7751,51.0821 170.9736,123.3482 0.4002,145.6981 -171.8558,121.2131 -171.8558,43.8065 0,-32.6611 39.5085,-22.5765 56.6449,11.2445 z"
       id="path3305-0"
       inkscape:connector-curvature="0"
       sodipodi:nodetypes="cssssscsssssc"
       inkscape:export-filename="C:\Users\Edelbert\Desktop\The Pony Folder\Vectors\302\path3327-99.png"
       inkscape:export-xdpi="90.000603"
       inkscape:export-ydpi="90.000603" />
  </g>
</svg>
