<?xml version="1.0" encoding="UTF-8"?><svg xmlns="http://www.w3.org/2000/svg" viewBox="0 0 6000 6000.0005" version="1.1"><g transform="translate(169 4947.6)"><path id="path3327-99" fill="#7e5f8b" d="m1550.5-924.53 62.554-68.274c-28.73-298.16 585.46-440.81 923.3-25.958l99.318-129.73s-411.47-229.64-612.13-230.17c-160.86-0.4285-645.26 104.42-473.04 454.13z"/><path id="path3329-7" fill="#7e5f8b" d="m2696.1-1217.8c20.598-485.4-237.93-732.77-511.2-976.4-205.94-183.6-480.14-315.99-756.91-315.38-359.55 0.7903-827.6 284.11-833.57 981.47-3.3275 388.26 92.174 641.73 92.174 641.73 524.16-464.71 1137.4-679.86 1957.5-313.57z"/><path id="path3409-0" fill="#fabdd6" d="m2571.9-1059.8c-333.9-428.8-1113-325.43-1006.1 156.35 29.871-40.12 33.797-105.35 143.13-99.446 149.25 3.8345 235.69 104.89 264.87 294.57-68.756 291.02-298.84 310.08-609.21 199.89 17.894 264.85-12.265 505.44-405.26 562.84-489.56-35.944-891.19-412.98-928.34-773.25-4.723-210.86 81.34-367.65 305.94-441.85 217.54 63.933 385.48 160.34 419.83 332.71l231.77-64.437c-118.97-441.17-220.43-890.87 198.6-1230.9 794.36-314.5 1456.6 443.77 1448.9 929.74z"/><path id="path3271-4" fill="#d2ced6" d="m3051.3-256.35c-684.7 703.55-348.61 1056.9-488.7 1158.6-98.992 71.856-600.72 65.002-676.75-40.109-90.448-125.05 423.8-984.31 760.18-1273.6z"/><path id="path3273-89" fill="#e6e3e6" d="m3052.6-305.01c-733.7 675.93-441.18 1091.9-532.4 1160.5-67.059 50.457-523.69 53.638-576.76-24.328-64.211-94.316 453.59-971.82 813.82-1279.5z"/><path id="path3634-4" fill="#d2ced6" d="m5580.7-1495.1c222.05 34.942-69.38 676.9-180.77 749.9-156.43 102.51-960.17 264.32-1258.2 243.28l45.032-449.74c601.26-15.781 949.99-613.29 1393.9-543.44z"/><path id="path3636-5" fill="#e6e3e6" d="m5550.9-1440.8c153.92 23.392-117.92 592.05-186.74 639.11-136.4 93.275-918.88 265.64-1174.7 249.86l31.789-357.69c535.04-7.8908 994.19-582.26 1329.7-531.28z"/><path id="path3275-4" fill="#d2ced6" d="m2693.7-333.94c189.04 287.65 1376 256.36 1565.4-120 266.83-530.21-170.79-928.86-169.51-1234.5 0.6713-151.58 177.46-376.1 177.46-376.1l-317.85 61.807z"/><path id="path3123-62" fill="#b591c2" d="m746.21-884.8s-80.101-262.62-80.101-644.52c0-633.66 462.99-923.9 761.27-922.42 247.42 1.2311 527.77 144.86 715.07 305.41 270.69 232.04 519.52 500.57 503.6 928.32l-24.961 24.474c-13.09-284.14-229.24-551.18-545.06-785.48-204.84-151.97-352.35-195.27-553.91-195.27-319.99 0-504.92 269.39-536.89 502.02-33.553 244.16 58.045 574.67 47.794 799.56-18.728 410.84-361.94 600.49-547.76 327.12 226.22 33.28 298.73-95.458 260.95-339.21z"/><path id="path3325-76" fill="#7e5f8b" d="m548.56-664.93c112.69-135.92-193.01-214.64-193.01-39.193 0 221.94 429.83 301.35 429.83-50.389 0-223.13-221.38-423.95-423.28-423.95-161.93 0-362.1 156.45-362.1 466.08 0 266.55 389.9 793.72 954.26 793.72 529.41 0 432.01-541.35 432.01-541.35 231.13 116.27 616.14 56.005 616.14-256.6 0-322.85-462.86-421.94-462.86-160.44 0 196.17 191 291.65 209.91 69.698-51.438 155.94-162.61 73.816-162.61-69.45 0-194.96 367.88-100.4 367.88 161.5 0 257.14-429.97 349.45-661.52 111.78 0 0 195.57 623.62-339.31 623.62-523.95 0-889.14-517.52-889.14-732.81 0-283.62 165.46-406.63 298.22-406.63 177.86 0 374.93 198.27 374.93 365.4 0 257.74-324.28 226.65-324.86 51.554-0.19218-72.044 137.64-80.46 135.52 37.459z"/><path id="path3279-4" fill="#d2ced6" d="m2455.5-304.62c152.3 361.64-132.5 968.71-310.3 1000.7-184.2 33.1-448.7-198.03-448.9-383.64-0.097-149.81 197.72-208.48 203.41-419.65 6.8373-253.84-145.89-274.58 50.939-465.46 206.22-199.99 549.79 139.73 504.84 268.05z"/><path id="path3281-5" fill="#d2ced6" d="m2290.2-435.66c71.581-63.272 53.584-99.046 54.591-179.24 3.4906-280.36 138.62-736.7 728.66-718.36l64.268 83.452c-430.9 105.87-560.3 708.07-847.52 814.14z"/><path id="path3283-4" fill="#f3f3f3" d="m4206.7-478.87c-171.07 333.55-1251.9 360.4-1455 126.86l892.74-1708.9 542.22 21.387s-154.83 189.14-154.37 349.38c0.9973 350.76 425.22 722.29 174.42 1211.3z"/><path id="path3285-54" fill="#f3f3f3" d="m1764 313.06c0 130.54 232.75 344.79 367.09 322.67 111.07-18.293 396.28-541.48 274.44-913.64 30.581-144.54-274-400.88-425.01-252.28-150.11 147.71-9.1867 184.64-17.05 421.09-7.7961 234.29-199.47 289.36-199.47 422.16z"/><path id="path3517-7" fill="#d2ced6" d="m3194.8-988.89-857.72 658.93c71.7 314.39 356.2 116.67 571.25-82.396s324.45-369.84 286.47-576.54z"/><path id="path3287-3" fill="#f3f3f3" d="m2324-334.14c146.95 241.67 353.53 62.119 551.08-118.29 197.56-180.4 287.78-303.72 360.71-617.58l84.614-215.4c-49.395-5.7113-132.99-6.134-219.21-5.4228-594.03-14.19-702.5 425.82-708.13 675.88-1.585 70.326 18.768 138.85-92.362 208.71z"/><path id="path3289-7" fill="#d2ced6" d="m3570.5-432.8c-204.5 352.31-386.35 681.33-510.99 964.59-98.349 223.52-148.72 396.44-106.16 455.43 61.286 84.933 586.77 86.521 687.37 6.5092 206.62-164.34-86.717-540.15 356.95-1422.5z"/><path id="path3291-9" fill="#f3f3f3" d="m3559.6-442.25c-150.93 428.71-334.99 750.4-443 986.47-95.76 209.27-123.99 354.64-94.849 397.44 43.181 63.408 508.54 53.717 575.93 1.8596 172.4-132.66-120.34-665.38 431.93-1409.7z"/><path id="path3403-8" fill="#fabdd6" d="m2941.9-4268.2 1283.3 386.62s558.87 153.86 569.47-276.16c-9.2635-357.69-388.04-323.5-388.04-323.5 14.988-546.41-450.37-477.03-825.08-345.86-313.33 172.1-469.67 366.47-639.67 558.89z"/><path id="path3401-6" fill="#b591c2" d="m4303.4-3880.2c-132.86-423.04-669.26-963.53-1382.6-372.16-167.65 253.77-321.73 512.23-376.1 805.12l234.04 87.46 804.86-714.18z"/><path id="path3299-49" fill="#7e5f8b" d="m4146.6-3942.4c131.12 84.163 630.54 152.01 630.54-224.19 0-300.15-463-440.62-463-136.79 0 133.68 258.24 253.73 258.24 77.588 0-103.7-156.08-130.06-140.38-15.123-55.619-166.12 180.33-141.51 178.8 15.78-2.3207 237.69-338.38 98.733-338.38-75.614 0-360.09 553.28-219.69 553.28 133.01 0 442.66-578.83 349.66-680.8 279.96z"/><path id="path3323-86" fill="#FF6600" d="m4714.9-2278.9c156.38-119.45-40.295-163.91-78.298-325.47z"/><path id="path3295-64" fill="#d2ced6" d="m3869.3-2027.6c344.28 103.56 714.19-39.146 998.01-225.28-128.08-25.328-213.47-124.73-193.84-415.46 51.649 140.71 343.66 105.44 343.66-209.77 0-248.25-120.56-69.689-242.51-104.49-45.147-445.56-354.92-918.91-820.07-1046.7z"/><path id="path3297-3" fill="#f3f3f3" d="m4765.7-2246c-145.94-73.276-154.94-280.21-117.2-544.43 97.103 249.97 321.16 160.66 321.16-88.108 0-153.22-81.597-20.439-239.06-60.492-64.067-484.5-376.07-912.35-778.72-1033.6l-1180.2 549.64 261.59 1393.7 837.46 8.4972c328.67 37.164 641.95-65.182 895.01-225.21z"/><path id="path3301-5" fill="#7e5f8b" d="m4422.3-4480.1s94.897-309.81-208.1-430.86c-298.18-119.13-733.09 61.54-1110 405.17-363.06 331.03-622.21 982.14-569.77 1077l60.212-0.057c-52.435-109.72 235.28-751.3 550.63-1045.8 317.36-296.41 776.98-498.9 1046.3-391.54 261.68 104.32 171.39 402.99 171.39 402.99z"/><path id="path3307-1" fill="#7e5f8b" d="m3294.1-3566.1c-82.105 131.07-310.59 243.45-544.12 225.35l-60.183-59.854 528.42-211.72z"/><path id="path3407-2" fill="#fabdd6" d="m2551.2-2807.1c-104.17 267.07-95.712 573.91 248.98 935l1099.2 359.01c8.736-387.87-205.18-520.7-640.99-611.5 71.959-60.043 145.44-117.06 124.49-361.64-66.637-187.51-240.59-432.98-441.7-220.02z"/><path id="path3405-9" fill="#b591c2" d="m2726.1-1955c184.09 184.11 848.92-80.218 1180 457.64-96.767 329.1-337.4 387.54-565.51 399.77-256.51-41.331-414.54-258.68-299.31-531.28z"/><path id="path3311-8" fill="#7e5f8b" d="m2522.2-2792.4c-165.96 441.08 65.764 843.1 519.15 1178.3l33.879-41.594c-421.88-331.43-644.88-673.13-509.11-1089.1z"/><path id="path3321-4" fill="#d2ced6" d="m4830.9-2883.7c23.48 31.013 51.542 25.094 65.952-7.0093 36.715 58.729-77.537 87.036-65.952 7.0093z"/><path id="path3331-7" d="m3608.9-2719.4s257.03 367.69 634.1 129.92c343.12-216.36 186.91-597.85 186.91-597.85s201.48 397.01-161.89 628.72c-410.24 261.58-659.12-160.79-659.12-160.79z"/><path id="path3333-2" d="m3626.1-2476.1c63.866-17.192 115.15-48.225 118.64-102l30.044 18.256c-0.3516 53.913-72.586 93.719-148.69 83.74z"/><path id="path3335-77" d="m3684-2381.8c82.326-13.379 163.6-54.446 175.73-132.14l34.701 11.568c-4.7573 89.225-118.72 126.93-210.43 120.57z"/><path id="path3337-36" d="m3861.5-2339.4c63.377-35.22 124.83-87.528 110.25-147.94l37.082 0.3237c20.854 77.195-72.026 129.87-147.33 147.61z"/><path id="path3133-19" fill="#d2ced6" d="m3986.2-3800.7c60.922-177.43 62.533-937.17-114.56-953.41-167.49-15.36-299.31 493.8-321.82 684.48z"/><path id="path3135-28" fill="#f3f3f3" d="m3992.2-3790.8c3.9797-248.54-13.924-895.44-129.79-906.72-103.23-10.048-246.33 449.09-271.5 676.59z"/><path id="path3399-12" fill="#b591c2" d="m2705.2-3381c255.63 5.5282 441.08-69.336 551.9-215.78 80.312 57.794 158.11 77.459 243.68 79.56 172.9 14.24 302.41-60.928 348.31-260.38 25.671-220.83-44.562-376.84-272.82-426.07l-947.13 786.01z"/><path id="path3313-61" fill="#d2ced6" d="m2932.4-3234.8c-95.52-117.16-597.52-414.64-713.67-257.48-159.67 216.06 292.1 907.65 685.95 931.78 0 0 39.086-513.21 27.713-674.3z"/><path id="path3317-50" fill="#f3f3f3" d="m2269.6-3447.9c-108.17 164.16 269.8 801.63 643.28 822 0 0 70.981-413.08 68.593-557.61 29.967-53.933-644.99-365.9-711.87-264.39z"/><path id="path3309-64" fill="#7e5f8b" d="m3128.1-2578.7c81.645 213.05-193.36 211.44-193.36-18.411 0-93.199 76.716-170.96 153.63-170.96 161.94 0 275.91 188.04 275.91 363.11 0 195.46-184.57 303.39-184.57 303.39s699.11 28.504 699.11 500.99c0 298.44-261.1 469.09-495.79 469.09-222.42 0-359.55-123.64-359.55-317.6 0-169.13 126.82-267.67 236.89-267.71 85.931 0 167.01 68.344 168.02 169.51 1.5022 151-235.26 215.12-208.91 28.501-148.39 195.15 258.4 236.62 258.25-28.274-0.096-121.94-102.73-217.61-215.96-218.64-135.98-1.2426-289.9 113.36-289.9 319.13 0 200.45 136.74 363.24 411.29 363 252.11-0.219 549.11-198.18 550.16-519.37 1.5918-487.32-638.5-534.26-638.5-534.26s121.99-76.126 121.99-266.95c0-194.74-135.6-414.33-327.88-414.33-119.44 0-209.46 86.401-209.46 222.76 0 366.86 465.64 227.91 248.64 17.029z"/><path id="path3319-7" fill="#d2ced6" d="m2383.5-3151.3c116.46 206.37 291.48 291.15 517.81 269.41-198.09-40.253-379.39-113.14-517.81-269.41z"/><path id="path3139-1" d="m3628.6-4283.9c38.521 158.94 204.44 225.12 368.83 198.57m-276.79-455.5c50.642 104.17 115.42 162.48 253.61 146.46" stroke="#d2ced6" stroke-width="19.111" fill="none"/><path id="path3305-0" fill="#7e5f8b" d="m3473.8-3787.2c18.191-62.414-91.119-82.794-90.112-8.8671 1.6973 123.81 247.62 150.52 247.62-44.974 0-105.87-118.46-169.56-212.04-169.56-129.97 0-269.93 114.31-269.93 254.96 0 376.2 753.57 386.45 753.57-125.38 0-397.55-499.61-418.82-679.41-278.4 189.11-70.062 620.18-50.174 620.18 278.13 0 437.29-638.72 429.72-638.72 125 0-111.79 102.65-209.3 213.09-209.3 70.022 0 170.78 51.082 170.97 123.35 0.4002 145.7-171.86 121.21-171.86 43.806 0-32.661 39.508-22.576 56.645 11.244z"/></g></svg>