<?xml version="1.0" encoding="UTF-8" standalone="no"?>
<!-- Created with Inkscape (http://www.inkscape.org/) -->

<svg
   xmlns:dc="http://purl.org/dc/elements/1.1/"
   xmlns:cc="http://creativecommons.org/ns#"
   xmlns:rdf="http://www.w3.org/1999/02/22-rdf-syntax-ns#"
   xmlns:svg="http://www.w3.org/2000/svg"
   xmlns="http://www.w3.org/2000/svg"
   xmlns:xlink="http://www.w3.org/1999/xlink"
   xmlns:sodipodi="http://sodipodi.sourceforge.net/DTD/sodipodi-0.dtd"
   xmlns:inkscape="http://www.inkscape.org/namespaces/inkscape"
   width="6321.4902"
   height="6321.4873"
   id="svg2"
   version="1.1"
   inkscape:version="0.48.4 r9939"
   sodipodi:docname="Thunderlane.svg">
  <title
     id="title833">Thunderlane</title>
  <defs
     id="defs4">
    <linearGradient
       id="linearGradient4136">
      <stop
         style="stop-color:#edea8c;stop-opacity:1;"
         offset="0"
         id="stop4138" />
      <stop
         style="stop-color:#8e6c4a;stop-opacity:1;"
         offset="1"
         id="stop4140" />
    </linearGradient>
    <clipPath
       clipPathUnits="userSpaceOnUse"
       id="clipPath4122">
      <path
         style="opacity:0.5;color:#000000;fill:#00ff00;fill-opacity:1;fill-rule:nonzero;stroke:#ff0000;stroke-width:0.94440413px;stroke-opacity:1;marker:none;visibility:visible;display:inline;overflow:visible;enable-background:accumulate"
         d="m 3321.3118,1647.2794 c 58.1959,234.0793 -38.46,462.255 -215.8871,509.6449 -177.4271,47.3899 -368.4373,-103.9517 -426.6332,-338.031 -58.196,-234.0791 38.46,-462.255 215.887,-509.6448 177.4271,-47.3899 368.4373,103.9517 426.6333,338.0309 z"
         id="path4124"
         inkscape:connector-curvature="0" />
    </clipPath>
    <clipPath
       clipPathUnits="userSpaceOnUse"
       id="clipPath4126">
      <path
         style="opacity:0.5;color:#000000;fill:#00ff00;fill-opacity:1;fill-rule:nonzero;stroke:#ff0000;stroke-width:0.95605952px;stroke-opacity:1;marker:none;visibility:visible;display:inline;overflow:visible;enable-background:accumulate"
         d="m 3261.8042,1602.9771 c 120.1029,208.4441 81.6125,448.0107 -85.9707,535.0871 -167.5832,87.0763 -400.7988,-11.3117 -520.9018,-219.7558 -120.1028,-208.4441 -81.6124,-448.0108 85.9707,-535.0871 167.5832,-87.0763 400.7989,11.3117 520.9018,219.7558 z"
         id="path4128"
         inkscape:connector-curvature="0" />
    </clipPath>
    <linearGradient
       inkscape:collect="always"
       xlink:href="#linearGradient4136"
       id="linearGradient4142"
       x1="3194.8125"
       y1="1890.8683"
       x2="3120.5012"
       y2="1475.7104"
       gradientUnits="userSpaceOnUse" />
  </defs>
  <sodipodi:namedview
     id="base"
     pagecolor="#ffffff"
     bordercolor="#666666"
     borderopacity="1.0"
     inkscape:pageopacity="0.0"
     inkscape:pageshadow="2"
     inkscape:zoom="0.092153846"
     inkscape:cx="3230.6838"
     inkscape:cy="3109.4505"
     inkscape:document-units="px"
     inkscape:current-layer="layer3"
     showgrid="false"
     fit-margin-top="0"
     fit-margin-left="1016.28"
     fit-margin-right="1016.28"
     fit-margin-bottom="0"
     inkscape:window-width="1920"
     inkscape:window-height="1028"
     inkscape:window-x="1272"
     inkscape:window-y="217"
     inkscape:window-maximized="1"
     inkscape:object-paths="true"
     inkscape:object-nodes="true"
     inkscape:snap-global="false"
     showguides="true"
     inkscape:guide-bbox="true">
    <sodipodi:guide
       orientation="0,1"
       position="3318.8921,537.48687"
       id="guide4190" />
  </sodipodi:namedview>
  <metadata
     id="metadata7">
    <rdf:RDF>
      <cc:Work
         rdf:about="">
        <dc:format>image/svg+xml</dc:format>
        <dc:type
           rdf:resource="http://purl.org/dc/dcmitype/StillImage" />
        <dc:title>Thunderlane</dc:title>
      </cc:Work>
    </rdf:RDF>
  </metadata>
  <g
     inkscape:groupmode="layer"
     id="layer3"
     inkscape:label="Rear Legs"
     style="display:inline"
     sodipodi:insensitive="true"
     transform="translate(1130.6838,-37.96397)">
    <path
       style="fill:#434343;fill-opacity:1;stroke:#2a2c2c;stroke-width:49;stroke-linecap:butt;stroke-linejoin:miter;stroke-miterlimit:4;stroke-opacity:1;stroke-dasharray:none"
       d="m 3201,4041.1586 c 134.0713,1009.7057 295.7307,1558.7536 499.5875,1946.0006 68.7195,130.5396 30.6441,191.5607 -51.4588,197.0227 -185.7925,12.36 -416.9018,14.3776 -640.7614,-16.2978 -52.7439,-7.2275 -92.2534,-84.117 -110.3594,-134.7944 C 2672.3132,5401.3869 2747.2676,4936.3912 2680.7087,4219"
       id="path3767"
       inkscape:connector-curvature="0"
       sodipodi:nodetypes="cssssc" />
    <path
       style="fill:#434343;fill-opacity:1;stroke:#2a2c2c;stroke-width:49;stroke-linecap:butt;stroke-linejoin:miter;stroke-miterlimit:4;stroke-opacity:1;stroke-dasharray:none"
       d="m 2354.7579,4332.5654 c -390.8258,424.94 -422.5766,1268.939 -301.1599,1686.8929 29.3572,101.0566 25.82,160.1249 -62.2594,165.6205 -170.5816,10.6433 -305.3223,12.7526 -479.6451,3.1948 -58.5666,-3.2111 -94.8681,-44.4603 -105.0068,-133.1227 -77.5368,-678.0534 150.4818,-1355.2093 448.906,-1975.0173"
       id="path3791"
       inkscape:connector-curvature="0"
       sodipodi:nodetypes="cssssc" />
  </g>
  <g
     inkscape:groupmode="layer"
     id="layer2"
     inkscape:label="Rear Wing"
     sodipodi:insensitive="true"
     style="display:inline"
     transform="translate(1130.6838,-37.96397)">
    <path
       style="fill:#434343;fill-opacity:1;stroke:#2a2c2c;stroke-width:49;stroke-linecap:butt;stroke-linejoin:miter;stroke-miterlimit:4;stroke-opacity:1;stroke-dasharray:none;display:inline"
       d="m 2706.5986,3560.9226 c 158.7079,375.0691 -244.3497,673.8741 -603.5122,550.024 -419.4255,-144.6304 -563.269,-704.491 -555.0855,-1042.5576 3.687,-152.3154 159.8813,-249.4165 390.3942,-176.5985 299.3447,94.5616 652.4881,395.666 768.2035,669.1321 z"
       id="path3777-0"
       inkscape:connector-curvature="0"
       sodipodi:nodetypes="sssss" />
  </g>
  <g
     inkscape:groupmode="layer"
     id="layer4"
     inkscape:label="Tail"
     style="display:inline"
     sodipodi:insensitive="true"
     transform="translate(1130.6838,-37.96397)">
    <path
       style="fill:#abd8d7;fill-opacity:1;stroke:none;display:inline"
       d="M 1184.5,3375 C 738.21834,3548.2482 510.00246,3922.3659 492.5,4254.5 240.64575,4158.5768 157.9456,3819.0717 30.5,3544 77.37022,3411.6449 181.09226,3269.6274 254.14642,3173.3536 135.68897,3249.7939 76.76092,3304.1861 -13.46749,3422.4389 -44.293592,3358.6167 -72.641733,3291.2556 -89.90379,3220.1992 438.42585,2577.8611 1112.5022,2873.0569 1337.3366,3103.7118 z"
       id="path3770-1"
       inkscape:connector-curvature="0"
       sodipodi:nodetypes="cccccccc" />
    <path
       style="font-size:medium;font-style:normal;font-variant:normal;font-weight:normal;font-stretch:normal;text-indent:0;text-align:start;text-decoration:none;line-height:normal;letter-spacing:normal;word-spacing:normal;text-transform:none;direction:ltr;block-progression:tb;writing-mode:lr-tb;text-anchor:start;baseline-shift:baseline;color:#000000;fill:#80adac;fill-opacity:1;stroke:none;stroke-width:31;marker:none;visibility:visible;display:inline;overflow:visible;enable-background:accumulate;font-family:Sans;-inkscape-font-specification:Sans"
       d="m 352,4177.375 31,1.25 c 3.38004,-85.8094 29.47479,-222.7612 48.96327,-282.3787 C 389.10771,3950.7664 355.52972,4087.7656 352,4177.375 z"
       id="path3772"
       inkscape:connector-curvature="0"
       sodipodi:nodetypes="cccc" />
    <path
       style="font-size:medium;font-style:normal;font-variant:normal;font-weight:normal;font-stretch:normal;text-indent:0;text-align:start;text-decoration:none;line-height:normal;letter-spacing:normal;word-spacing:normal;text-transform:none;direction:ltr;block-progression:tb;writing-mode:lr-tb;text-anchor:start;baseline-shift:baseline;color:#000000;fill:#80adac;fill-opacity:1;stroke:none;stroke-width:31;marker:none;visibility:visible;display:inline;overflow:visible;enable-background:accumulate;font-family:Sans;-inkscape-font-specification:Sans"
       d="m 283.54086,4094.5169 31,0.3124 c 1.143,-122.7768 58.99819,-325.878 107.79004,-416.105 -75.89621,73.7857 -137.5897,286.8572 -138.79004,415.7926 z"
       id="path3774"
       inkscape:connector-curvature="0"
       sodipodi:nodetypes="cccc" />
    <path
       style="fill:#dcf1ef;fill-opacity:1;stroke:none"
       d="M 1182.8047,2978.7145 C 720.23772,3102.1121 339.41815,3346.4958 236.01836,4001.4608 179.86045,3904.0748 127.5974,3795.0041 78.672788,3675.9182 203.74874,3388.8361 382.25959,3018.5497 870.82638,2848.4975 c 103.99277,15.5672 207.98552,72.1427 311.97832,130.217 z"
       id="path3802"
       inkscape:connector-curvature="0"
       sodipodi:nodetypes="ccccc" />
    <path
       style="fill:none;stroke:#80adac;stroke-width:49;stroke-linecap:butt;stroke-linejoin:miter;stroke-miterlimit:9;stroke-opacity:1;stroke-dasharray:none"
       d="M 1184.5,3375 C 738.21834,3548.2482 510.00246,3922.3659 492.5,4254.5 240.64575,4158.5768 157.9456,3819.0717 30.5,3544 77.370223,3411.6449 181.09226,3269.6274 254.14642,3173.3536 135.68897,3249.7939 76.760923,3304.1861 -13.467495,3422.4389 -44.293594,3358.6167 -72.641735,3291.2556 -89.903792,3220.1992 438.42585,2577.8611 1112.5022,2873.0569 1337.3366,3103.7118 z"
       id="path3770"
       inkscape:connector-curvature="0"
       sodipodi:nodetypes="cccccccc" />
  </g>
  <g
     inkscape:groupmode="layer"
     id="layer7"
     inkscape:label="Lower Mane"
     style="display:inline"
     sodipodi:insensitive="true"
     transform="translate(1130.6838,-37.96397)">
    <path
       style="fill:#abd8d7;fill-opacity:1;stroke:none;display:inline"
       d="M 2297.8366,2854.2645 C 2119.4146,2745.1391 1876.931,2536.1572 1771,2230.5 l 129.9207,-95.2821 -156.4207,30.2821 -30,-133 c 58.5686,-26.8089 125.1453,-44.275 191.5,-62 -83.2208,-29.8273 -166.9477,-42.4455 -251.5,-27 -6.2298,-87.2741 -58.8908,-190.3531 -49,-270.5 28.8084,-233.4388 47.3309,-464.4704 101.5,-698.49997 -79.374,-4.85313 -151.1956,8.70665 -220,23 92.3686,-91.4327 209.5167,-171.77222 331.5,-251.5 -139.6313,2.81111 -292.13,32.85505 -421.7645,70.75483 239.5044,-235.57228 554.9367,-448.38907 917.7645,-578.25483 87.6728,43.23284 246.749,162.61755 319.4042,225.89456 C 2594.7991,404.06463 2482.0728,269.3035 2434.5,212.00003 2749.8123,103.88248 3107.78,35.034441 3467,73.000027 c 41.5964,97.555263 70.3448,197.680123 99.5,297.723643 24.369,-88.07455 41.3109,-176.14909 55.5,-264.22364 63.6098,-13.974169 128.059,-8.643907 193,8 -3.7958,286.50773 -52.6604,866.05944 -245.3366,1238.25477 C 3260.0622,1059.2506 2849.6992,841.33492 2314.5,1146.5 z"
       id="path3793-9"
       inkscape:connector-curvature="0"
       sodipodi:nodetypes="cccccccscccccccccccccc" />
    <path
       style="font-size:medium;font-style:normal;font-variant:normal;font-weight:normal;font-stretch:normal;text-indent:0;text-align:start;text-decoration:none;line-height:normal;letter-spacing:normal;word-spacing:normal;text-transform:none;direction:ltr;block-progression:tb;writing-mode:lr-tb;text-anchor:start;baseline-shift:baseline;color:#000000;fill:#80adac;fill-opacity:1;stroke:none;stroke-width:31;marker:none;visibility:visible;display:inline;overflow:visible;enable-background:accumulate;font-family:Sans;-inkscape-font-specification:Sans"
       d="m 1825.375,2352.4688 18.25,25.0624 c 28.0872,-24.6201 88.912,-65.1685 141.5636,-80.0352 -70.1181,-8.1528 -130.8076,32.378 -159.8136,54.9728 z"
       id="path3795"
       inkscape:connector-curvature="0"
       sodipodi:nodetypes="cccc" />
    <path
       style="font-size:medium;font-style:normal;font-variant:normal;font-weight:normal;font-stretch:normal;text-indent:0;text-align:start;text-decoration:none;line-height:normal;letter-spacing:normal;word-spacing:normal;text-transform:none;direction:ltr;block-progression:tb;writing-mode:lr-tb;text-anchor:start;baseline-shift:baseline;color:#000000;fill:#80adac;fill-opacity:1;stroke:none;stroke-width:31;marker:none;visibility:visible;display:inline;overflow:visible;enable-background:accumulate;font-family:Sans;-inkscape-font-specification:Sans"
       d="m 2714.125,121.5 -25.25,18 c 46.0007,64.48357 101.3624,138.83166 132.6322,211.5355 C 2818.248,272.19538 2761.4571,187.84991 2714.125,121.5 z"
       id="path3797"
       inkscape:connector-curvature="0"
       sodipodi:nodetypes="cccc" />
    <path
       style="font-size:medium;font-style:normal;font-variant:normal;font-weight:normal;font-stretch:normal;text-indent:0;text-align:start;text-decoration:none;line-height:normal;letter-spacing:normal;word-spacing:normal;text-transform:none;direction:ltr;block-progression:tb;writing-mode:lr-tb;text-anchor:start;baseline-shift:baseline;color:#000000;fill:#80adac;fill-opacity:1;stroke:none;stroke-width:31;marker:none;visibility:visible;display:inline;overflow:visible;enable-background:accumulate;font-family:Sans;-inkscape-font-specification:Sans"
       d="m 3718.9375,98.9375 -30.875,3.125 c 5.1518,51.20917 -0.2563,106.10871 -12.95,156.77509 39.0998,-37.5744 49.5048,-103.4426 43.825,-159.90009 z"
       id="path3801"
       inkscape:connector-curvature="0"
       sodipodi:nodetypes="cccc" />
    <path
       style="fill:#dcf1ef;fill-opacity:1;stroke:none"
       d="m 2204.1945,2297.788 c -105.6075,29.6549 -235.6712,117.8926 -302.4833,188.5434 l 198.0384,229.2362 c 42.8249,-47.4217 98.3038,-85.4011 157.3456,-120.722 z"
       id="path3893"
       inkscape:connector-curvature="0"
       sodipodi:nodetypes="ccccc" />
    <path
       style="fill:#dcf1ef;fill-opacity:1;stroke:none"
       d="m 1953.2554,1494.783 c -109.4185,-2.8362 -218.8369,-0.807 -328.2554,21.7028 l 78.6728,-542.57095 -208.8898,21.70284 c 84.7639,-93.52241 200.2903,-176.79063 330.9683,-255.00835 -134.7385,13.85337 -269.4769,28.89331 -404.2154,67.82137 177.0797,-214.05278 449.7543,-357.66719 721.6194,-501.87813 218.1874,189.67174 438.4738,404.10033 562.0264,701.83482 -139.3613,15.7184 -255.0984,66.8728 -363.988,128.2987 z"
       id="path3895"
       inkscape:connector-curvature="0"
       sodipodi:nodetypes="cccccccccc" />
    <path
       style="fill:#dcf1ef;fill-opacity:1;stroke:none"
       d="m 2902.7546,94.94991 c 130.8026,260.88439 281.5131,637.03841 322.8297,1006.46909 111.227,68.3161 222.4541,150.5799 333.6811,249.5827 C 3488.7273,953.01003 3354.488,479.82541 3168.6144,65.108507 z"
       id="path3897"
       inkscape:connector-curvature="0"
       sodipodi:nodetypes="ccccc" />
    <path
       style="font-size:medium;font-style:normal;font-variant:normal;font-weight:normal;font-stretch:normal;text-indent:0;text-align:start;text-decoration:none;line-height:normal;letter-spacing:normal;word-spacing:normal;text-transform:none;direction:ltr;block-progression:tb;writing-mode:lr-tb;text-anchor:start;baseline-shift:baseline;color:#000000;fill:#80adac;fill-opacity:1;stroke:none;stroke-width:31;marker:none;visibility:visible;display:inline;overflow:visible;enable-background:accumulate;font-family:Sans;-inkscape-font-specification:Sans"
       d="m 3008.125,78.09375 -23.7812,19.875 c 39.1019,46.78397 87.4946,109.97477 115.7226,161.13964 4.2497,-60.09526 -50.866,-131.86957 -91.9414,-181.01464 z"
       id="path3799"
       inkscape:connector-curvature="0"
       sodipodi:nodetypes="cccc" />
    <path
       style="fill:none;stroke:#80adac;stroke-width:49;stroke-linecap:butt;stroke-linejoin:miter;stroke-miterlimit:9;stroke-opacity:1;stroke-dasharray:none"
       d="M 2297.8366,2854.2645 C 2119.4146,2745.1391 1876.931,2536.1572 1771,2230.5 l 129.9207,-95.2821 -156.4207,30.2821 -30,-133 c 58.5686,-26.8089 125.1453,-44.275 191.5,-62 -83.2208,-29.8273 -166.9477,-42.4455 -251.5,-27 -6.2298,-87.2741 -58.8908,-190.3531 -49,-270.5 28.8084,-233.4388 47.3309,-464.4704 101.5,-698.5 -79.374,-4.85313 -151.1956,8.70665 -220,23 92.3686,-91.4327 209.5167,-171.77222 331.5,-251.5 -139.6313,2.81111 -292.13,32.85505 -421.7645,70.75483 C 1636.2399,581.18255 1951.6722,368.36576 2314.5,238.5 c 87.6728,43.23284 246.749,162.61755 319.4042,225.89456 C 2594.7991,404.0646 2482.0728,269.30347 2434.5,212 2749.8123,103.88245 3107.78,35.034411 3467,72.999997 c 41.5964,97.555263 70.3448,197.680123 99.5,297.723643 24.369,-88.07455 41.3109,-176.14909 55.5,-264.22364 63.6098,-13.974169 128.059,-8.643907 193,8 -3.7958,286.50773 -52.6604,866.05944 -245.3366,1238.2548 C 3260.0622,1059.2506 2849.6992,841.33489 2314.5,1146.5"
       id="path3793"
       inkscape:connector-curvature="0"
       sodipodi:nodetypes="cccccccsccccccccccccc" />
  </g>
  <g
     inkscape:groupmode="layer"
     id="layer6"
     inkscape:label="Body + Forward Legs"
     style="display:inline"
     sodipodi:insensitive="true"
     transform="translate(1130.6838,-37.96397)">
    <path
       style="fill:#555555;fill-opacity:1;stroke:none;display:inline"
       d="m 1902.9318,4340.019 c -219.1921,386.2548 -398.4412,1211.9751 -184.4274,1832.5531 38.7182,112.2715 -7.3653,147.1469 -109.3418,152.7418 -193.7806,10.6315 -434.2391,11.4593 -619.00996,-3.66 -66.69728,-5.4577 -88.94054,-55.0895 -85.73619,-146.3689 19.63593,-559.3506 93.77436,-1053.6996 233.12245,-1538.0293 21.5707,-74.973 65.5419,-88.6816 143.8708,-70.7835 26.8888,6.1441 54.7712,9.6767 82.1568,-28.1325"
       id="path3931-2"
       inkscape:connector-curvature="0"
       sodipodi:nodetypes="cssssssc" />
    <path
       style="fill:#555555;fill-opacity:1;stroke:none;display:inline"
       d="m 2769.9934,4050.359 c 57.7666,878.0533 130.3443,1365.0841 434.0859,2131.3818 28.523,71.9597 -15.3478,132.4774 -65.1193,136.8671 -216.3097,19.0777 -507.3775,22.1541 -741.6579,5.4258 -59.1093,-4.2205 -79.1728,-71.844 -86.3224,-133.3598 -82.7515,-712.0001 -87.6959,-1337.297 38.7745,-2102.744"
       id="path3929-4"
       inkscape:connector-curvature="0"
       sodipodi:nodetypes="cssssc" />
    <path
       style="fill:#555555;fill-opacity:1;stroke:none"
       d="m 2094.7596,1807.892 774.9843,23.0194 276.232,728.9456 c 91.1679,240.4242 167.4971,480.8483 222.5203,721.2725 31.5029,246.2815 68.2025,493.1511 -26.8559,725.1091 -134.4477,228.1776 -339.7609,307.5377 -544.791,387.4922 l -491.0791,99.7504 c -135.9329,-20.3826 -271.8658,-62.596 -407.7986,-147.9236 -81.976,123.1453 -136.7213,264.4444 -175.358,416.4825 l -621.522,23.0194 c 32.5735,-107.3964 41.7491,-265.175 145.7891,-218.6837 38.0416,-6.4839 95.0969,29.8132 107.4236,-34.529 -23.2744,-166.4214 -120.0956,-280.3443 -164.9719,-483.4061 -65.2187,-222.9204 -88.688,-453.6688 -38.3656,-698.2532 56.8934,-197.6889 177.4836,-356.7737 471.8964,-410.5115 255.6018,-29.0764 465.5968,33.0607 671.3973,103.587 -29.5248,-315.0869 -110.3585,-619.912 -172.645,-928.4465 -17.5697,-102.3082 -37.3033,-204.6163 -26.8559,-306.9245 z"
       id="path3954"
       inkscape:connector-curvature="0"
       sodipodi:nodetypes="cccccccccccccccccc" />
    <path
       style="font-size:medium;font-style:normal;font-variant:normal;font-weight:normal;font-stretch:normal;text-indent:0;text-align:start;text-decoration:none;line-height:normal;letter-spacing:normal;word-spacing:normal;text-transform:none;direction:ltr;block-progression:tb;writing-mode:lr-tb;text-anchor:start;baseline-shift:baseline;color:#000000;fill:#2a2c2c;fill-opacity:1;stroke:none;stroke-width:49;marker:none;visibility:visible;display:inline;overflow:visible;enable-background:accumulate;font-family:Sans;-inkscape-font-specification:Sans"
       d="m 2072.0312,1796.4688 c -10.5822,249.1865 70.4603,513.7166 110.4063,724.5937 31.2149,164.7852 59.3477,275.6588 89.9375,484.8437 -142.4817,-49.6897 -303.5028,-93.1942 -465.8438,-99.4374 -177.055,-6.8091 -356.2655,31.3388 -509.4062,154.9687 -120.5468,97.3169 -176.2743,257.2166 -193,427.7813 -16.7257,170.5646 5.4467,353.303 45.7188,502.1874 41.061,151.8017 87.2251,290.4144 146.6874,426.875 33.6567,77.2389 64.4771,156.0578 60.2191,242.1696 43.699,-55.8408 22.7408,-174.4722 -15.2815,-261.732 -58.3178,-133.8371 -103.705,-269.9999 -144.3126,-420.125 -38.804,-143.4575 -60.2587,-321.6593 -44.2812,-484.5938 15.9775,-162.9345 69.2834,-309.0929 175,-394.4375 142.4957,-115.0362 307.9221,-150.6189 476.7812,-144.125 168.8592,6.4939 340.2889,55.7938 489.4688,110.0937 l 38.25,13.9063 -5.5938,-40.3125 c -33.1627,-238.6041 -63.2933,-353.3722 -96.2187,-527.1875 -40.777,-215.2645 -119.6573,-476.4324 -109.5937,-713.4063 z"
       id="path3788"
       inkscape:connector-curvature="0"
       sodipodi:nodetypes="cscssssscssssscccscc" />
    <!--S+i+g+m+a-->
    <path
       style="fill:none;stroke:#2a2c2c;stroke-width:49;stroke-linecap:butt;stroke-linejoin:miter;stroke-miterlimit:4;stroke-opacity:1;stroke-dasharray:none"
       d="m 3133,2535.5 c 87.7379,225 172.6829,453.6228 220,676.5 52.687,248.1712 83.4546,590.529 -11.2109,781.1176 -81.2474,163.5743 -242.9016,302.4708 -536.2457,401.599"
       id="path3919"
       inkscape:connector-curvature="0"
       sodipodi:nodetypes="cssc" />
    <path
       style="font-size:medium;font-style:normal;font-variant:normal;font-weight:normal;font-stretch:normal;text-indent:0;text-align:start;text-decoration:none;line-height:normal;letter-spacing:normal;word-spacing:normal;text-transform:none;direction:ltr;block-progression:tb;writing-mode:lr-tb;text-anchor:start;baseline-shift:baseline;color:#000000;fill:#2a2c2c;fill-opacity:1;stroke:none;stroke-width:49;marker:none;visibility:visible;display:inline;overflow:visible;enable-background:accumulate;font-family:Sans;-inkscape-font-specification:Sans"
       d="m 1555.0411,3806.2232 c -2.2187,392.1698 403.6071,677.859 736.1464,714.1206 l 5.3125,-48.6876 c -313.6481,-34.2016 -643.3263,-278.7819 -741.4589,-665.433 z"
       id="path3790"
       inkscape:connector-curvature="0"
       sodipodi:nodetypes="cccc" />
    <path
       style="font-size:medium;font-style:normal;font-variant:normal;font-weight:normal;font-stretch:normal;text-indent:0;text-align:start;text-decoration:none;line-height:normal;letter-spacing:normal;word-spacing:normal;text-transform:none;direction:ltr;block-progression:tb;writing-mode:lr-tb;text-anchor:start;baseline-shift:baseline;color:#000000;fill:#2a2c2c;fill-opacity:1;stroke:none;stroke-width:49;marker:none;visibility:visible;display:inline;overflow:visible;enable-background:accumulate;font-family:Sans;-inkscape-font-specification:Sans"
       d="m 2746.8083,4034.5497 c 10.084,137.9295 18.0326,294.1005 29.2229,419.8253 57.326,644.0617 150.4639,1093.5375 405.2813,1736.4062 23.6182,59.5853 -13.1038,100.6372 -44.5,103.4063 -214.6233,18.929 -505.1204,22.0167 -737.75,5.4063 -20.4791,-1.4623 -31.8955,-11.7127 -42.75,-32.2188 -10.8545,-20.5061 -17.6098,-50.3612 -21,-79.5312 -65.6724,-565.0505 -82.1586,-1074.2739 -22.7813,-1643 15.2821,-146.373 24.0845,-333.1291 53.5494,-453.6899 -64.5307,115.3873 -86.9114,301.2087 -102.2994,448.5961 -59.7888,572.6679 -43.0789,1086.2774 22.875,1653.75 3.7594,32.3458 10.6018,67.0728 26.3438,96.8125 15.742,29.7397 43.9323,55.398 82.5625,58.1563 235.9312,16.8461 527.5664,13.7576 745.5625,-5.4688 68.1468,-6.0103 119.1468,-85.9471 85.7188,-170.2812 -253.4491,-639.4167 -344.9094,-1081.2701 -402,-1722.6876 -11.1445,-125.2086 -24.8163,-279.0973 -78.0355,-415.4815 z"
       id="path3929"
       inkscape:connector-curvature="0"
       sodipodi:nodetypes="cssssssscsssssssc" />
    <path
       style="fill:none;stroke:#2a2c2c;stroke-width:49;stroke-linecap:butt;stroke-linejoin:miter;stroke-miterlimit:4;stroke-opacity:1;stroke-dasharray:none"
       d="m 1902.9318,4340.019 c -219.1921,386.2548 -398.4412,1211.9751 -184.4274,1832.5531 38.7182,112.2715 -7.3653,147.1469 -109.3418,152.7418 -193.7806,10.6315 -434.2391,11.4593 -619.00996,-3.66 -66.69728,-5.4577 -88.94054,-55.0895 -85.73619,-146.3689 19.63593,-559.3506 93.77436,-1053.6996 233.12245,-1538.0293 21.5707,-74.973 65.5419,-88.6816 143.8708,-70.7835 26.8888,6.1441 50.7712,11.6767 78.1568,-26.1325"
       id="path3931"
       inkscape:connector-curvature="0"
       sodipodi:nodetypes="cssssssc" />
  </g>
  <g
     inkscape:groupmode="layer"
     id="layer10"
     inkscape:label="Cutie Mark"
     sodipodi:insensitive="true"
     style="display:inline"
     transform="translate(1130.6838,-37.96397)">
    <path
       style="fill:#eff097;fill-opacity:1;stroke:none"
       d="m 1256.0518,3674.5618 64.4303,191.9344 20.3464,-33.2324 52.2225,180.4048 -20.3465,-347.2454 -27.8068,44.0839 -14.9207,-54.2571 c -21.5684,15.324 -45.1555,24.5919 -73.9252,18.3118 z"
       id="path3965"
       inkscape:connector-curvature="0"
       sodipodi:nodetypes="cccccccc" />
    <path
       style="fill:#adaaae;fill-opacity:1;stroke:none"
       d="m 1551.7529,3576.899 33.9107,90.2024 -175.6573,-35.9453 c -25.3979,-6.1116 -47.6207,-2.6979 -65.7868,12.886 -30.2696,33.8005 -66.0368,41.0289 -107.1577,22.3811 -39.4818,-27.6213 -59.0834,-72.5299 -56.97,-136.321 4.0734,-42.0583 17.6889,-82.4572 63.0739,-117.3309 29.3913,-21.9459 56.0636,-21.2337 80.0292,2.0346 27.019,31.6491 46.3233,81.6468 34.5889,131.5735 61.341,-33.0561 102.3021,-10.7407 90.2024,27.1285 34.5889,-5.4682 69.1778,0.3968 103.7667,3.3911 z"
       id="path3977"
       inkscape:connector-curvature="0"
       sodipodi:nodetypes="ccccccccccc" />
    <path
       style="font-size:medium;font-style:normal;font-variant:normal;font-weight:normal;font-stretch:normal;text-indent:0;text-align:start;text-decoration:none;line-height:normal;letter-spacing:normal;word-spacing:normal;text-transform:none;direction:ltr;block-progression:tb;writing-mode:lr-tb;text-anchor:start;baseline-shift:baseline;color:#000000;fill:#b5b5b2;fill-opacity:1;stroke:none;stroke-width:11;marker:none;visibility:visible;display:inline;overflow:visible;enable-background:accumulate;font-family:Sans;-inkscape-font-specification:Sans"
       d="m 1282.4375,3391.5625 c -5.9139,0.1733 -11.765,1.4007 -17.4063,3.4375 -22.5651,8.1471 -42.6313,28.8031 -60.75,51.5938 -21.1927,26.6573 -29.9351,63.9006 -28.5937,101.0937 1.3414,37.1931 12.7623,74.5 33.25,101.6875 20.7724,27.5652 49.1545,34.2979 73.4687,31.6875 24.3143,-2.6104 44.6355,-13.3855 53.8126,-22.5625 10.8674,-10.8674 19.939,-18.2988 30.25,-22 10.3109,-3.7012 22.3322,-4.0202 40.125,0.5312 60.5803,15.4967 120.8033,23.8286 180.7812,34.8126 l 2,-10.8438 c -60.2921,-11.0415 -120.2346,-19.3288 -180.0312,-34.625 -19.1009,-4.8861 -33.8403,-4.7967 -46.5938,-0.2188 -12.7535,4.578 -23.0695,13.3196 -34.3125,24.5626 -6.0985,6.0984 -25.6498,17.0905 -47.2187,19.4062 -21.569,2.3157 -45.0475,-2.8571 -63.5,-27.3438 -18.7372,-24.8644 -29.7622,-60.3126 -31.0313,-95.5 -1.2691,-35.1873 7.2084,-69.9708 26.1875,-93.8437 17.6277,-22.173 37.1096,-41.3072 55.9062,-48.0937 9.3984,-3.3933 18.4561,-3.914 27.875,-0.625 9.419,3.2889 19.3996,10.5802 29.6876,23.6562 20.4596,26.0043 28.5977,60.752 28.6874,92.1875 0.09,31.4355 -8.445,59.6192 -18.0937,70.7813 -10.2706,11.8814 -26.6487,19.159 -41,19.375 -14.3513,0.2159 -25.4572,-5.6972 -30.5625,-20.5 -10.6014,-30.7392 -19.2778,-71.946 -0.75,-98.3438 10.0077,-14.2586 15.0252,-15.4126 28.4558,-2.0152 -8.2724,-20.8524 -24.3341,-22.9767 -37.4558,-4.266 -20.0987,28.6594 -12.4473,76.9227 -0.75,107.8437 7.2317,19.1164 23.4079,28.5493 41.2188,28.2813 17.8108,-0.2681 36.6635,-8.6993 49.1874,-23.1876 13.1459,-15.2077 20.8451,-44.7043 20.75,-78 -0.095,-33.2956 -8.5584,-70.3348 -31.0624,-98.9374 -11.194,-14.2276 -22.7743,-23.0901 -34.6876,-27.25 -5.9566,-2.08 -11.9298,-2.9546 -17.8437,-2.7813 z"
       id="path3957"
       inkscape:connector-curvature="0"
       sodipodi:nodetypes="sssssssssccsssssssscsssssscssssssss" />
    <path
       style="fill:none;stroke:#b5b5b2;stroke-width:11;stroke-linecap:butt;stroke-linejoin:miter;stroke-miterlimit:4;stroke-opacity:1;stroke-dasharray:none"
       d="m 1359.8185,3549.0922 c 35.7801,-32.3243 104.108,-24.7396 85.4549,26.4503 37.5278,-9.9423 74.3774,-1.9437 111.227,2.7129"
       id="path3963"
       inkscape:connector-curvature="0"
       sodipodi:nodetypes="ccc" />
    <path
       style="font-size:medium;font-style:normal;font-variant:normal;font-weight:normal;font-stretch:normal;text-indent:0;text-align:start;text-decoration:none;line-height:normal;letter-spacing:normal;word-spacing:normal;text-transform:none;direction:ltr;block-progression:tb;writing-mode:lr-tb;text-anchor:start;baseline-shift:baseline;color:#000000;fill:#b5b5b2;fill-opacity:1;stroke:none;stroke-width:11;marker:none;visibility:visible;display:inline;overflow:visible;enable-background:accumulate;font-family:Sans;-inkscape-font-specification:Sans"
       d="m 1431.2188,3669.8125 c -2.557,0.079 -4.9046,2.173 -5.2736,4.7044 -0.3691,2.5315 1.2829,5.2088 3.711,6.0143 17.8205,6.3589 36.0937,9.6723 51.8126,9.4063 18.3958,-0.3113 45.2103,0.3752 60.0482,5.069 -13.308,-10.9051 -41.0143,-16.3937 -60.2045,-16.069 -13.9901,0.2368 -31.229,-2.8191 -47.9375,-8.7813 -0.6863,-0.2566 -1.4242,-0.3743 -2.1562,-0.3437 z"
       id="path3967"
       inkscape:connector-curvature="0"
       sodipodi:nodetypes="cscscscc" />
    <path
       style="fill:none;stroke:#b5b5b2;stroke-width:11;stroke-linecap:round;stroke-linejoin:miter;stroke-miterlimit:4;stroke-opacity:1;stroke-dasharray:none"
       d="m 1402.5459,3509.4167 c 24.0766,4.4437 48.1532,-0.4654 72.2298,-1.6955"
       id="path3973"
       inkscape:connector-curvature="0"
       sodipodi:nodetypes="cc" />
    <path
       style="fill:none;stroke:#b5b5b2;stroke-width:11;stroke-linecap:round;stroke-linejoin:miter;stroke-miterlimit:4;stroke-opacity:1;stroke-dasharray:none"
       d="m 1383.2168,3451.7686 c 18.3118,-4.1733 36.6235,-3.8523 54.9353,1.0173"
       id="path3975"
       inkscape:connector-curvature="0"
       sodipodi:nodetypes="cc" />
  </g>
  <g
     inkscape:groupmode="layer"
     id="layer5"
     inkscape:label="Forward Wing (Whole)"
     style="display:none"
     sodipodi:insensitive="true"
     transform="translate(1130.6838,-37.96397)">
    <path
       style="fill:#555555;fill-opacity:1;stroke:#2a2c2c;stroke-width:49;stroke-linecap:butt;stroke-linejoin:miter;stroke-miterlimit:4;stroke-opacity:1;stroke-dasharray:none"
       d="m 2551,3306.5 c 251.1174,320.6322 -43.3906,715.4228 -439,688.5 -442.6379,-30.1233 -727.6466,-533.0197 -808,-861.5 -36.2031,-147.9962 24.229,-258.5649 265.5,-243.5 404.0393,25.228 798.408,182.7242 981.5,416.5 z"
       id="path3777"
       inkscape:connector-curvature="0"
       sodipodi:nodetypes="sssss" />
    <path
       style="fill:none;stroke:#2a2c2c;stroke-width:49;stroke-linecap:butt;stroke-linejoin:miter;stroke-miterlimit:4;stroke-opacity:1;stroke-dasharray:none"
       d="M 2064.6594,3989.9166 C 1964.8182,3936.9981 1814.4051,3799.5676 1859,3653 c -135.5395,-224.352 -34.59,-394.0433 213.5,-394 17.4909,-127.4296 147.2715,-163.3662 279.0724,-129.9392"
       id="path3779"
       inkscape:connector-curvature="0"
       sodipodi:nodetypes="cccc" />
    <path
       style="fill:none;stroke:#2a2c2c;stroke-width:31;stroke-linecap:butt;stroke-linejoin:miter;stroke-miterlimit:4;stroke-opacity:1;stroke-dasharray:none"
       d="m 1373,3332.5 c 159.8333,135.1748 333.6667,271.9453 479.5,375.5"
       id="path3781"
       inkscape:connector-curvature="0"
       sodipodi:nodetypes="cc" />
    <path
       style="fill:none;stroke:#2a2c2c;stroke-width:31;stroke-linecap:butt;stroke-linejoin:miter;stroke-miterlimit:4;stroke-opacity:1;stroke-dasharray:none"
       d="M 1836.5,3347.5 C 1662.1395,3239.3436 1487.2196,3130.2548 1305,3009"
       id="path3783"
       inkscape:connector-curvature="0"
       sodipodi:nodetypes="cc" />
    <path
       style="fill:none;stroke:#2a2c2c;stroke-width:31;stroke-linecap:butt;stroke-linejoin:miter;stroke-miterlimit:4;stroke-opacity:1;stroke-dasharray:none"
       d="m 2088,3200 c -203.6962,-97.4219 -406.0687,-190.8728 -613.5,-299.5"
       id="path3785"
       inkscape:connector-curvature="0"
       sodipodi:nodetypes="cc" />
  </g>
  <g
     inkscape:groupmode="layer"
     id="layer11"
     inkscape:label="Forward Wing (Gap)"
     sodipodi:insensitive="true"
     style="display:inline"
     transform="translate(1130.6838,-37.96397)">
    <path
       style="fill:#555555;fill-opacity:1;stroke:none;display:inline"
       d="m 2551,3306.5 c 251.1174,320.6322 -43.3906,715.4228 -439,688.5 -442.6379,-30.1233 -727.6466,-533.0197 -808,-861.5 -36.2031,-147.9962 24.229,-258.5649 265.5,-243.5 404.0393,25.228 798.408,182.7242 981.5,416.5 z"
       id="path3777-8-1"
       inkscape:connector-curvature="0"
       sodipodi:nodetypes="sssss" />
    <path
       style="font-size:medium;font-style:normal;font-variant:normal;font-weight:normal;font-stretch:normal;text-indent:0;text-align:start;text-decoration:none;line-height:normal;letter-spacing:normal;word-spacing:normal;text-transform:none;direction:ltr;block-progression:tb;writing-mode:lr-tb;text-anchor:start;baseline-shift:baseline;color:#000000;fill:#2a2c2c;fill-opacity:1;fill-rule:nonzero;stroke:none;stroke-width:49;marker:none;visibility:visible;display:inline;overflow:visible;enable-background:accumulate;font-family:Sans;-inkscape-font-specification:Sans"
       d="m 1526.25,2864.125 c -100.1088,0.1222 -169.6176,24.2753 -211.5938,69.875 -47.9726,52.1139 -53.6525,126.8901 -34.4687,205.3125 41.0796,167.9313 133.4765,378.1536 272.8437,552.125 139.3675,173.9714 327.1346,312.3355 557.3126,328 206.309,14.0402 387.1676,-81.6631 483.9687,-224.625 96.8011,-142.9619 85.7013,-354.5767 -14.06,-455.5006 50.8021,110.6788 60.0735,300.1711 -26.5025,428.0319 -86.576,127.8607 -250.7933,216.1013 -440.0938,203.2187 -13.9196,-0.9473 -27.6756,-2.4101 -41.2812,-4.3125 -46.1188,-25.1772 -104.5645,-70.3418 -145.125,-124.375 -41.67,-55.5112 -64.2563,-117.845 -44.8125,-181.75 l 3.1875,-10.4375 -5.6562,-9.3437 c -64.964,-107.5319 -70.516,-195.9206 -36.6876,-256.5626 33.8286,-60.6419 110.7603,-100.3019 229.2188,-100.2812 l 21.375,0 2.9062,-21.1562 c 7.6776,-55.9345 37.0744,-87.8755 81.5938,-105.9376 43.5772,-17.6796 149.608,-21.1723 203.8849,-7.1151 -33.0047,-38.6954 -73.586,-77.0064 -129.4489,-105.5812 -195.2722,-99.8848 -436.6321,-162.8405 -681.7798,-178.1474 -15.5604,-0.9716 -30.4799,-1.455 -44.7812,-1.4375 z m 0.2188,49 c 13.0731,-0.02 26.9015,0.401 41.5,1.3125 243.5087,15.2045 483.7425,79.5214 673.7187,178.8125 -28.9028,1.7595 -56.5049,7.5205 -81.7187,17.75 -51.9237,21.066 -92.8493,63.5473 -107.6876,123.9375 -119.5165,4.4759 -209.3645,48.9315 -251.7812,124.9687 -43.6083,78.1735 -33.4354,183.2714 32.2812,296.5938 -19.5824,78.8455 9.9653,154.4129 55.2813,214.7812 17.018,22.6708 36.2624,43.5255 56.4063,62.25 -138.2244,-51.9733 -256.683,-152.2137 -353.2188,-272.7187 -133.8849,-167.1277 -224.1637,-372.576 -263.4375,-533.125 -17.0193,-69.5738 -10.6042,-124.0968 22.9063,-160.5 29.3215,-31.8528 84.2381,-53.9253 175.75,-54.0625 z"
       id="path3777-8"
       inkscape:connector-curvature="0"
       sodipodi:nodetypes="sssssscsscscccscccscssssscscscscssss" />
    <path
       style="fill:none;stroke:#2a2c2c;stroke-width:31;stroke-linecap:butt;stroke-linejoin:miter;stroke-miterlimit:4;stroke-opacity:1;stroke-dasharray:none;display:inline"
       d="m 1373,3332.5 c 159.8333,135.1748 333.6667,271.9453 479.5,375.5"
       id="path3781-4"
       inkscape:connector-curvature="0"
       sodipodi:nodetypes="cc" />
    <path
       style="fill:none;stroke:#2a2c2c;stroke-width:31;stroke-linecap:butt;stroke-linejoin:miter;stroke-miterlimit:4;stroke-opacity:1;stroke-dasharray:none;display:inline"
       d="M 1836.5,3347.5 C 1662.1395,3239.3436 1487.2196,3130.2548 1305,3009"
       id="path3783-5"
       inkscape:connector-curvature="0"
       sodipodi:nodetypes="cc" />
    <path
       style="fill:none;stroke:#2a2c2c;stroke-width:31;stroke-linecap:butt;stroke-linejoin:miter;stroke-miterlimit:4;stroke-opacity:1;stroke-dasharray:none;display:inline"
       d="m 2088,3200 c -203.6962,-97.4219 -406.0687,-190.8728 -613.5,-299.5"
       id="path3785-5"
       inkscape:connector-curvature="0"
       sodipodi:nodetypes="cc" />
  </g>
  <g
     inkscape:groupmode="layer"
     id="layer9"
     inkscape:label="Head"
     style="display:inline"
     sodipodi:insensitive="true"
     transform="translate(1130.6838,-37.96397)">
    <path
       style="fill:#555555;fill-opacity:1;stroke:none"
       d="M 3633.2185,1151.8409 C 3169.506,843.11501 2722.2978,765.44936 2301.9336,1063.6002 l -153.4622,844.0423 333.7803,525.6081 c 209.835,156.4371 448.7592,160.1555 686.7436,168.8085 256.453,-13.9075 513.7163,-57.5802 771.1477,-107.4236 l 203.3375,-575.4834 c -117.2136,-77.948 -210.4443,-194.2685 -291.5783,-329.9438 -65.222,-149.6254 -101.0076,-313.969 -218.6837,-437.3674 z"
       id="path4041"
       inkscape:connector-curvature="0"
       sodipodi:nodetypes="ccccccccc" />
    <path
       style="font-size:medium;font-style:normal;font-variant:normal;font-weight:normal;font-stretch:normal;text-indent:0;text-align:start;text-decoration:none;line-height:normal;letter-spacing:normal;word-spacing:normal;text-transform:none;direction:ltr;block-progression:tb;writing-mode:lr-tb;text-anchor:start;baseline-shift:baseline;color:#000000;fill:#2a2c2c;fill-opacity:1;stroke:none;stroke-width:49;marker:none;visibility:visible;display:inline;overflow:visible;enable-background:accumulate;font-family:Sans;-inkscape-font-specification:Sans"
       d="m 3650.2812,1131.1562 -33.0624,36.1876 c 67.1509,61.3715 105.6033,157.0927 134.9374,248.875 65.6408,205.3807 218.9342,421.1717 363.4328,524.911 -65.0826,180.0879 -130.7252,353.0467 -199.714,532.839 -214.1353,48.5549 -431.8033,75.6011 -650.625,97.9062 -272.1936,27.7454 -587.2602,-21.2015 -802.7979,-153.9342 175.791,185.7015 526.2135,231.3868 807.7979,202.6842 223.8381,-22.8164 447.7845,-50.6173 669.25,-101.75 l 12.7188,-2.9375 4.6562,-12.1875 c 72.4686,-189.2446 142.5508,-372.2099 211.1827,-563.464 l 6.4687,-18 -15.9062,-10.6562 c -134.665,-90.0474 -296.0554,-310.9745 -359.7764,-510.3486 -30.0319,-93.9655 -69.8455,-198.1827 -148.5626,-270.125 z"
       id="path3809"
       inkscape:connector-curvature="0"
       sodipodi:nodetypes="ccsccscsccccccsc" />
    <path
       style="fill:#2a2c2c;fill-opacity:1;stroke:none"
       d="m 4027.3193,2261.3564 c -122.3345,-18.0766 -274.69,-36.3226 -419.5693,35.6436 92.9177,-104.9993 299.7066,-90.4224 426.3193,-73.9257 z"
       id="path3811"
       inkscape:connector-curvature="0"
       sodipodi:nodetypes="cccc" />
    <path
       style="fill:#2a2c2c;fill-opacity:1;stroke:none"
       d="m 3746,1983.25 c -39.3978,49.4091 -6.8104,114.9776 52.25,51.75 -45.8781,3.5314 -57.15,-6.6894 -52.25,-51.75 z"
       id="path3813"
       inkscape:connector-curvature="0"
       sodipodi:nodetypes="ccc" />
  </g>
  <g
     inkscape:groupmode="layer"
     id="layer12"
     inkscape:label="Upper Mane"
     sodipodi:insensitive="true"
     style="display:inline"
     transform="translate(1130.6838,-37.96397)">
    <path
       style="fill:#abd8d7;fill-opacity:1;stroke:none;display:inline"
       d="M 3788.5772,516.22257 C 3757.1191,792.73759 3692.7231,1115.0387 3569.6634,1352.7548 3260.0622,1059.2506 2849.6992,841.33495 2314.5,1146.5 2304.102,657.1046 3227.325,520.77921 3788.5772,516.22257 z"
       id="path3793-9-7"
       inkscape:connector-curvature="0"
       sodipodi:nodetypes="cccc" />
    <path
       style="fill:#dcf1ef;fill-opacity:1;stroke:none;display:inline"
       d="m 1953.2554,1494.783 -10.8514,-488.3139 544.9504,-356.31367 c 86.2982,105.98399 161.954,223.58974 217.8273,358.23197 -139.3613,15.7184 -255.0984,66.8728 -363.988,128.2987 z"
       id="path3895-1"
       inkscape:connector-curvature="0"
       sodipodi:nodetypes="cccccc" />
    <path
       style="fill:#dcf1ef;fill-opacity:1;stroke:none;display:inline"
       d="m 3085.2068,521.58605 c 64.8956,182.7601 118.281,382.25804 140.3775,579.83295 111.227,68.3161 222.4541,150.5799 333.6811,249.5827 -48.3655,-272.8887 -126.6791,-581.1282 -231.0511,-881.63243 z"
       id="path3897-1"
       inkscape:connector-curvature="0"
       sodipodi:nodetypes="ccccc" />
    <path
       style="fill:none;stroke:#80adac;stroke-width:49;stroke-linecap:butt;stroke-linejoin:miter;stroke-miterlimit:9;stroke-opacity:1;stroke-dasharray:none;display:inline"
       d="M 3797.0796,434.48227 C 3769.4541,727.19135 3705.0737,1091.1807 3569.6634,1352.7548 3260.0622,1059.2506 2849.6992,841.33492 2314.5,1146.5"
       id="path3793-5"
       inkscape:connector-curvature="0"
       sodipodi:nodetypes="ccc" />
  </g>
  <g
     inkscape:groupmode="layer"
     id="layer14"
     inkscape:label="Eye"
     style="display:inline"
     sodipodi:insensitive="true"
     transform="translate(1130.6838,-37.96397)">
    <path
       style="fill:#ffffff;stroke:none"
       d="m 3195.7429,2197.4123 c 234.6672,-180.9247 189.1175,-416.6745 94.9499,-661.9365 -209.5531,-214.0855 -440.2759,-251.2341 -686.3522,-160.0584 -74.3867,207.8764 -73.2028,412.4685 18.99,613.1051 190.8041,242.7362 381.6082,200.2103 572.4123,208.8898 z"
       id="path4112"
       inkscape:connector-curvature="0"
       sodipodi:nodetypes="ccccc"
       clip-path="url(#clipPath4126)" />
    <path
       sodipodi:type="arc"
       style="color:#000000;fill:url(#linearGradient4142);fill-opacity:1;fill-rule:nonzero;stroke:none;stroke-width:1px;marker:none;visibility:visible;display:inline;overflow:visible;enable-background:accumulate"
       id="path4110"
       sodipodi:cx="3140.1294"
       sodipodi:cy="1677.9006"
       sodipodi:rx="191.25626"
       sodipodi:ry="269.92905"
       d="m 3331.3857,1677.9006 c 0,149.0777 -85.6284,269.9291 -191.2563,269.9291 -105.6279,0 -191.2563,-120.8514 -191.2563,-269.9291 0,-149.0777 85.6284,-269.929 191.2563,-269.929 105.6279,0 191.2563,120.8513 191.2563,269.929 z"
       transform="matrix(1.0142135,-0.23717868,0.26093634,0.94945183,-536.55009,826.70897)"
       clip-path="url(#clipPath4122)" />
    <path
       sodipodi:type="arc"
       style="color:#000000;fill:#000000;fill-opacity:1;fill-rule:nonzero;stroke:none;stroke-width:1px;marker:none;visibility:visible;display:inline;overflow:visible;enable-background:accumulate"
       id="path4130"
       sodipodi:cx="3101.4712"
       sodipodi:cy="1672.475"
       sodipodi:rx="143.10309"
       sodipodi:ry="218.38481"
       d="m 3244.5743,1672.475 c 0,120.6106 -64.0695,218.3848 -143.1031,218.3848 -79.0337,0 -143.1031,-97.7742 -143.1031,-218.3848 0,-120.6106 64.0694,-218.3848 143.1031,-218.3848 79.0336,0 143.1031,97.7742 143.1031,218.3848 z"
       transform="matrix(0.94725863,-0.35519526,0.33774972,0.92320204,-399.94568,1230.7488)" />
    <path
       sodipodi:type="arc"
       style="color:#000000;fill:#ffffff;fill-opacity:1;fill-rule:nonzero;stroke:none;stroke-width:1px;marker:none;visibility:visible;display:inline;overflow:visible;enable-background:accumulate"
       id="path4132"
       sodipodi:cx="2992.957"
       sodipodi:cy="1620.2524"
       sodipodi:rx="82.063858"
       sodipodi:ry="115.97454"
       d="m 3075.0209,1620.2524 c 0,64.051 -36.7413,115.9746 -82.0639,115.9746 -45.3226,0 -82.0638,-51.9236 -82.0638,-115.9746 0,-64.0509 36.7412,-115.9745 82.0638,-115.9745 45.3226,0 82.0639,51.9236 82.0639,115.9745 z"
       transform="matrix(1.0379419,0.0819821,-0.07890883,0.96764891,31.249196,-200.41235)" />
    <path
       sodipodi:type="arc"
       style="color:#000000;fill:#ffffff;fill-opacity:1;fill-rule:nonzero;stroke:none;stroke-width:1px;marker:none;visibility:visible;display:inline;overflow:visible;enable-background:accumulate"
       id="path4134"
       sodipodi:cx="3127.9216"
       sodipodi:cy="1759.9645"
       sodipodi:rx="31.19783"
       sodipodi:ry="34.588898"
       d="m 3159.1195,1759.9645 c 0,19.1029 -13.9678,34.5889 -31.1979,34.5889 -17.2301,0 -31.1978,-15.486 -31.1978,-34.5889 0,-19.1029 13.9677,-34.5889 31.1978,-34.5889 17.2301,0 31.1979,15.486 31.1979,34.5889 z"
       transform="matrix(0.97773519,0.20984256,-0.20984256,0.97773519,438.95804,-622.61152)" />
  </g>
  <g
     inkscape:groupmode="layer"
     id="layer13"
     inkscape:label="Eye Clipping"
     style="opacity:0.5;display:none"
     sodipodi:insensitive="true"
     transform="translate(1130.6838,-37.96397)">
    <path
       sodipodi:type="arc"
       style="color:#000000;fill:#00ff00;fill-opacity:1;fill-rule:nonzero;stroke:#ff0000;stroke-width:1px;stroke-opacity:1;marker:none;visibility:visible;display:inline;overflow:visible;enable-background:accumulate"
       id="path4096"
       sodipodi:cx="3001.7737"
       sodipodi:cy="1835.2462"
       sodipodi:rx="345.88898"
       sodipodi:ry="470.6803"
       d="m 3347.6627,1835.2462 c 0,259.9496 -154.8598,470.6803 -345.889,470.6803 -191.0292,0 -345.889,-210.7307 -345.889,-470.6803 0,-259.9495 154.8598,-470.6803 345.889,-470.6803 191.0292,0 345.889,210.7308 345.889,470.6803 z"
       transform="matrix(0.87726475,-0.45582725,0.46202386,0.80186368,-522.90978,1657.3157)" />
  </g>
  <g
     inkscape:groupmode="layer"
     id="layer15"
     inkscape:label="Eyelashes"
     sodipodi:insensitive="true"
     style="display:inline"
     transform="translate(1130.6838,-37.96397)">
    <path
       style="font-size:medium;font-style:normal;font-variant:normal;font-weight:normal;font-stretch:normal;text-indent:0;text-align:start;text-decoration:none;line-height:normal;letter-spacing:normal;word-spacing:normal;text-transform:none;direction:ltr;block-progression:tb;writing-mode:lr-tb;text-anchor:start;baseline-shift:baseline;color:#000000;fill:#000000;fill-opacity:1;stroke:none;stroke-width:37;marker:none;visibility:visible;display:inline;overflow:visible;enable-background:accumulate;font-family:Sans;-inkscape-font-specification:Sans"
       d="m 2878.625,1332.3438 c -84.9172,-0.1374 -167.2958,33.3109 -230.3438,109.875 -92.0188,111.7457 -95.6235,263.0169 -46.6874,397.6874 48.936,134.6706 146.4622,266.8713 290.2246,296.6214 -119.0417,-65.2048 -209.719,-183.414 -255.4434,-309.2464 -45.7244,-125.8323 -41.425,-262.1124 40.4688,-361.5624 82.2065,-99.8299 194.5437,-116.327 305.5937,-78.2813 111.05,38.0457 224.8186,112.5425 301.6037,258.2789 -26.802,-161.188 -167.7761,-251.53 -289.635,-293.2789 -38.0808,-13.0465 -77.1825,-20.0313 -115.7812,-20.0937 z"
       id="path4147"
       inkscape:connector-curvature="0"
       sodipodi:nodetypes="ssscssscss" />
  </g>
  <g
     inkscape:groupmode="layer"
     id="layer8"
     inkscape:label="Ear"
     style="display:inline"
     sodipodi:insensitive="true"
     transform="translate(1130.6838,-37.96397)">
    <path
       style="fill:#555555;fill-opacity:1;stroke:none;display:inline"
       d="m 2343.5,1279.5 c -0.8949,-210.2607 0.5543,-422.64439 -116,-597.99995 -57.67,-86.76436 -114.1187,-97.30938 -190.5,-0.5 C 1747.1791,1048.3333 1863.0845,1598.6589 2179.5,1945"
       id="path3804-2"
       inkscape:connector-curvature="0"
       sodipodi:nodetypes="cssc" />
    <path
       style="font-size:medium;font-style:normal;font-variant:normal;font-weight:normal;font-stretch:normal;text-indent:0;text-align:start;text-decoration:none;line-height:normal;letter-spacing:normal;word-spacing:normal;text-transform:none;direction:ltr;block-progression:tb;writing-mode:lr-tb;text-anchor:start;baseline-shift:baseline;color:#000000;fill:#2a2c2c;fill-opacity:1;stroke:none;stroke-width:49;marker:none;visibility:visible;display:inline;overflow:visible;enable-background:accumulate;font-family:Sans;-inkscape-font-specification:Sans"
       d="m 2132.3438,587.9375 c -39.919,1.76155 -76.8033,30.01712 -114.5626,77.875 -299.1588,379.1687 -196.7624,1005.339 181.0019,1303.0741 -293.6329,-339.1333 -423.0473,-917.2012 -142.5643,-1272.6991 36.1047,-45.76097 63.2606,-60.14924 81.9687,-59.3125 18.7081,0.83674 41.8579,17.4933 68.9063,58.1875 111.4542,167.68252 132.1116,433.5544 139.3479,610.125 30.2556,-178.3109 23.1189,-454.2214 -98.5355,-637.25 -30.6216,-46.07016 -64.5021,-78.07548 -107.5312,-80 -2.6893,-0.12028 -5.37,-0.11744 -8.0312,0 z"
       id="path3804"
       inkscape:connector-curvature="0"
       sodipodi:nodetypes="sscssscsss" />
    <path
       style="fill:#2a2c2c;fill-opacity:1;stroke:none"
       d="m 2041.5,1122 c -5.6194,178.0954 80.6305,364.2343 150.5,478.5 -115.6598,-96.4108 -204.0142,-292.1795 -150.5,-478.5 z"
       id="path3806"
       inkscape:connector-curvature="0"
       sodipodi:nodetypes="ccc" />
  </g>
  <!--Created by Sigma
      http://90sigma.deviantart.com/
      http://summersuncelebration.tumblr.com/-->
</svg>
