<?xml version="1.0" encoding="UTF-8" standalone="no"?>
<!-- Created with Inkscape (http://www.inkscape.org/) -->

<svg
   xmlns:dc="http://purl.org/dc/elements/1.1/"
   xmlns:cc="http://creativecommons.org/ns#"
   xmlns:rdf="http://www.w3.org/1999/02/22-rdf-syntax-ns#"
   xmlns:svg="http://www.w3.org/2000/svg"
   xmlns="http://www.w3.org/2000/svg"
   xmlns:xlink="http://www.w3.org/1999/xlink"
   xmlns:sodipodi="http://sodipodi.sourceforge.net/DTD/sodipodi-0.dtd"
   xmlns:inkscape="http://www.inkscape.org/namespaces/inkscape"
   width="5807.604"
   height="5807.6011"
   id="svg2"
   version="1.1"
   inkscape:version="0.48.4 r9939"
   sodipodi:docname="Trixie.svg">
  <title
     id="title3767">The Great and Powerful Trixie</title>
  <defs
     id="defs4">
    <linearGradient
       id="linearGradient4131">
      <stop
         style="stop-color:#d089c4;stop-opacity:1;"
         offset="0"
         id="stop4133" />
      <stop
         style="stop-color:#2d1643;stop-opacity:1;"
         offset="1"
         id="stop4135" />
    </linearGradient>
    <clipPath
       clipPathUnits="userSpaceOnUse"
       id="clipPath4115">
      <path
         style="opacity:0.5;fill:#00ff00;fill-opacity:1;stroke:#ff0000;stroke-width:0.95529395px;stroke-linecap:butt;stroke-linejoin:miter;stroke-opacity:1;display:inline"
         d="m 4576.7586,1401.394 c -27.2619,211.0944 -11.5051,400.5534 113.885,534.8745 l 139.204,52.9985 c 100.8506,-216.5107 67.9716,-384.5371 48.4794,-557.417 -113.6884,37.9364 -209.5727,10.8423 -301.5684,-30.456 z"
         id="path4117"
         inkscape:connector-curvature="0"
         sodipodi:nodetypes="ccccc" />
    </clipPath>
    <clipPath
       clipPathUnits="userSpaceOnUse"
       id="clipPath4119">
      <path
         style="opacity:0.5;fill:#00ff00;fill-opacity:1;stroke:#ff0000;stroke-width:1.0497731px;stroke-linecap:butt;stroke-linejoin:miter;stroke-opacity:1;display:inline"
         d="m 4536.4764,1410.7838 c -30.1046,233.5112 -12.9974,441.4233 124.4289,584.0956 l 152.6564,52.5765 c 110.8362,-242.5222 74.9259,-426.1311 53.7054,-615.6373 -124.7513,46.4716 -229.9106,20.6172 -330.7907,-21.0348 z"
         id="path4121"
         inkscape:connector-curvature="0"
         sodipodi:nodetypes="ccccc" />
    </clipPath>
    <clipPath
       clipPathUnits="userSpaceOnUse"
       id="clipPath4123">
      <path
         style="opacity:0.5;fill:#00ff00;fill-opacity:1;stroke:#ff0000;stroke-width:1px;stroke-linecap:butt;stroke-linejoin:miter;stroke-opacity:1;display:inline"
         d="m 4474.9583,1454.9249 c 30.8378,220.5765 99.144,407.4315 262.9382,508.3472 l 155.2588,15.0251 c 41.9929,-246.3758 -37.6808,-406.8694 -105.1753,-575.96 -104.3406,69.6994 -208.6811,68.8485 -313.0217,52.5877 z"
         id="path4125"
         inkscape:connector-curvature="0"
         sodipodi:nodetypes="ccccc" />
    </clipPath>
    <linearGradient
       inkscape:collect="always"
       xlink:href="#linearGradient4131"
       id="linearGradient4137"
       x1="4162.4268"
       y1="2254.6479"
       x2="4141.5664"
       y2="1839.7212"
       gradientUnits="userSpaceOnUse" />
    <linearGradient
       inkscape:collect="always"
       xlink:href="#linearGradient4131"
       id="linearGradient4139"
       x1="4790.4888"
       y1="1966.0693"
       x2="4772.1064"
       y2="1587.4407"
       gradientUnits="userSpaceOnUse" />
    <mask
       maskUnits="userSpaceOnUse"
       id="mask4193">
      <path
         style="fill:#ffffff;fill-opacity:1;stroke:#ffffff;stroke-width:49;stroke-linecap:butt;stroke-linejoin:miter;stroke-miterlimit:4;stroke-opacity:1;stroke-dasharray:none;display:inline"
         d="m 4741.9846,1247.2963 c 57.7433,103.2468 97.8406,223.5107 122.6377,349.5755 l 218.8502,-6.7216 -80.1336,-408.1803 z"
         id="path4195"
         inkscape:connector-curvature="0"
         sodipodi:nodetypes="cc" />
    </mask>
    <mask
       maskUnits="userSpaceOnUse"
       id="mask4197">
      <path
         style="fill:#ffffff;fill-opacity:1;stroke:#ffffff;stroke-width:49;stroke-linecap:butt;stroke-linejoin:miter;stroke-miterlimit:4;stroke-opacity:1;stroke-dasharray:none;display:inline"
         d="m 4741.9846,1247.2963 c 57.7433,103.2468 97.8406,223.5107 122.6377,349.5755 l 218.8502,-6.7216 -80.1336,-408.1803 z"
         id="path4199"
         inkscape:connector-curvature="0"
         sodipodi:nodetypes="cc" />
    </mask>
    <clipPath
       clipPathUnits="userSpaceOnUse"
       id="clipPath4238">
      <path
         sodipodi:nodetypes="cscc"
         inkscape:connector-curvature="0"
         id="path4240"
         d="m 4215.5069,1673.7912 c 126.5122,164.7185 160.422,475.5302 -37.3509,622.5229 -316.072,234.9172 -686.1787,-281.9074 -533.0673,-616.5982 187.368,46.3933 377.8146,39.0568 570.4182,-5.9247 z"
         style="opacity:0.5;fill:#00ff00;fill-opacity:1;stroke:#ff0000;stroke-width:1.01246166px;stroke-linecap:butt;stroke-linejoin:miter;stroke-opacity:1;display:inline" />
    </clipPath>
    <clipPath
       clipPathUnits="userSpaceOnUse"
       id="clipPath4242">
      <path
         sodipodi:nodetypes="cscc"
         inkscape:connector-curvature="0"
         id="path4244"
         d="m 4049.2488,1617.6961 c 173.3416,109.3498 311.7734,386.5367 180.3005,591.5927 -210.1142,327.7114 -729.2716,-24.6725 -703.6728,-388.7546 188.5866,-21.6929 361.4778,-94.3958 523.3723,-202.8381 z"
         style="opacity:0.5;fill:#00ff00;fill-opacity:1;stroke:#ff0000;stroke-width:1px;stroke-linecap:butt;stroke-linejoin:miter;stroke-opacity:1;display:inline" />
    </clipPath>
    <clipPath
       clipPathUnits="userSpaceOnUse"
       id="clipPath4269">
      <path
         style="opacity:0.5;fill:#00ff00;fill-opacity:1;stroke:#ff0000;stroke-width:0.97654635px;stroke-linecap:butt;stroke-linejoin:miter;stroke-opacity:1;display:inline"
         d="m 4180.5153,1624.521 c 123.4008,155.9841 161.8337,458.8979 -22.9495,611.1159 -295.3123,243.2682 -657.0188,-247.2761 -518.4014,-581.4092 178.7912,37.5742 359.4254,22.4092 541.3509,-29.7067 z"
         id="path4271"
         inkscape:connector-curvature="0"
         sodipodi:nodetypes="cscc"
         clip-path="none" />
    </clipPath>
  </defs>
  <sodipodi:namedview
     id="base"
     pagecolor="#ffffff"
     bordercolor="#666666"
     borderopacity="1.0"
     inkscape:pageopacity="0.0"
     inkscape:pageshadow="2"
     inkscape:zoom="0.099833333"
     inkscape:cx="4332.0024"
     inkscape:cy="4015.5974"
     inkscape:document-units="px"
     inkscape:current-layer="layer2"
     showgrid="false"
     inkscape:window-width="1920"
     inkscape:window-height="1028"
     inkscape:window-x="1272"
     inkscape:window-y="217"
     inkscape:window-maximized="1"
     showguides="true"
     inkscape:guide-bbox="true"
     fit-margin-top="0"
     fit-margin-left="179.15"
     fit-margin-right="179.15"
     fit-margin-bottom="0" />
  <metadata
     id="metadata7">
    <rdf:RDF>
      <cc:Work
         rdf:about="">
        <dc:format>image/svg+xml</dc:format>
        <dc:type
           rdf:resource="http://purl.org/dc/dcmitype/StillImage" />
        <dc:title>The Great and Powerful Trixie</dc:title>
      </cc:Work>
    </rdf:RDF>
  </metadata>
  <g
     inkscape:groupmode="layer"
     id="layer17"
     inkscape:label="Background"
     sodipodi:insensitive="true"
     style="display:none"
     transform="translate(76.16977,-103.06504)">
    <rect
       style="color:#000000;fill:#000000;fill-opacity:1;fill-rule:nonzero;stroke:#00ff00;stroke-width:1;stroke-linecap:butt;stroke-linejoin:miter;stroke-miterlimit:4;stroke-opacity:1;stroke-dasharray:none;stroke-dashoffset:0;marker:none;visibility:visible;display:inline;overflow:visible;enable-background:accumulate"
       id="rect4209"
       width="5722.9609"
       height="6162.0991"
       x="-70.828728"
       y="-62.938942" />
  </g>
  <g
     inkscape:groupmode="layer"
     id="layer2"
     inkscape:label="Shadow"
     style="opacity:0.2;display:none"
     sodipodi:insensitive="true"
     transform="translate(76.16977,-103.06504)">
    <path
       sodipodi:type="arc"
       style="color:#000000;fill:#000000;fill-opacity:1;fill-rule:nonzero;stroke:none;stroke-width:1px;marker:none;visibility:visible;display:inline;overflow:visible;enable-background:accumulate"
       id="path3765"
       sodipodi:cx="2897.3289"
       sodipodi:cy="5729.5493"
       sodipodi:rx="1525.0417"
       sodipodi:ry="225.37563"
       d="m 4422.3706,5729.5493 c 0,124.4715 -682.7844,225.3756 -1525.0417,225.3756 -842.2573,0 -1525.0418,-100.9041 -1525.0418,-225.3756 0,-124.4715 682.7845,-225.3756 1525.0418,-225.3756 842.2573,0 1525.0417,100.9041 1525.0417,225.3756 z"
       transform="matrix(1.0131363,0,0,0.94444444,-113.18536,310.79578)" />
  </g>
  <g
     inkscape:groupmode="layer"
     id="layer3"
     inkscape:label="Rear Legs"
     sodipodi:insensitive="true"
     style="display:inline"
     transform="translate(76.16977,-103.06504)">
    <path
       style="fill:#60a7d8;fill-opacity:1;stroke:none"
       d="m 3996,3456 446,14 -210,384 -402,-72 z"
       id="path3805"
       inkscape:connector-curvature="0" />
    <path
       style="fill:#60a7d8;fill-opacity:1;stroke:#3489b6;stroke-width:49;stroke-linecap:butt;stroke-linejoin:miter;stroke-miterlimit:4;stroke-opacity:1;stroke-dasharray:none"
       d="m 3015.0584,4036.7613 c -265.845,453.6056 -453.8509,963.9285 -222.3506,1461.3622 52.5656,112.9499 -10.7418,113.4486 -93.2086,123.2588 -124.658,14.8292 -255.0765,14.9438 -379.6261,2.0167 -69.4377,-7.207 -120.7553,-68.2523 -171.2921,-134.2504 -326.1154,-697.9014 132.1235,-1193.7721 480.8013,-1717.8631"
       id="path3770"
       inkscape:connector-curvature="0"
       sodipodi:nodetypes="cssscc" />
    <path
       style="fill:#3489b6;fill-opacity:1;stroke:none"
       d="m 2506,4104 c 28.5712,56.6803 52.2787,114.0554 44,176 35.2509,-56.7498 27.0847,-125.3405 4,-198 z"
       id="path3775"
       inkscape:connector-curvature="0"
       sodipodi:nodetypes="cccc" />
    <path
       style="fill:none;stroke:#3489b6;stroke-width:49;stroke-linecap:butt;stroke-linejoin:miter;stroke-miterlimit:4;stroke-opacity:1;stroke-dasharray:none"
       d="m 4052,3464 c 98.6667,5.6689 197.3333,9.2307 296,0"
       id="path3777"
       inkscape:connector-curvature="0"
       sodipodi:nodetypes="cc" />
    <path
       style="fill:#60a7d8;fill-opacity:1;stroke:#3489b6;stroke-width:49;stroke-linecap:butt;stroke-linejoin:miter;stroke-miterlimit:4;stroke-opacity:1;stroke-dasharray:none"
       d="m 3880.602,3796.6553 c 170.7799,33.2613 340.0853,64.3204 503.46,82.0244 78.3574,8.4911 135.169,-27.1871 192.3331,-62.2254 242.6919,-148.7563 578.4228,-388.9937 760.8468,-701.45 30.2047,-51.7346 46.5395,-124.9513 -84.8527,-155.5635 -126.06,-29.3698 -257.3482,-41.39 -384.6661,-25.4558 -132.4358,16.5748 -168.9491,69.8551 -212.1321,138.5929 -79.1811,126.0388 -187.1696,259.5971 -302.3711,384.9149 -5.446,5.9243 -10.9082,11.8301 -16.3842,17.7159"
       id="path3779"
       inkscape:connector-curvature="0"
       sodipodi:nodetypes="csssssssc" />
    <path
       style="fill:#3489b6;fill-opacity:1;stroke:none"
       d="m 4814,3058 c 92.6667,50.3586 265.3333,116.1115 398,58 -132.6667,-5.4935 -265.3333,-25.8479 -398,-58 z"
       id="path3781"
       inkscape:connector-curvature="0"
       sodipodi:nodetypes="ccc" />
    <path
       style="font-size:medium;font-style:normal;font-variant:normal;font-weight:normal;font-stretch:normal;text-indent:0;text-align:start;text-decoration:none;line-height:normal;letter-spacing:normal;word-spacing:normal;text-transform:none;direction:ltr;block-progression:tb;writing-mode:lr-tb;text-anchor:start;baseline-shift:baseline;color:#000000;fill:#3489b6;fill-opacity:1;stroke:none;stroke-width:49;marker:none;visibility:visible;display:inline;overflow:visible;enable-background:accumulate;font-family:Sans;-inkscape-font-specification:Sans"
       d="m 4335.1875,3440.9062 c -5.4124,5.8878 -10.8381,11.7745 -16.2813,17.625 -39.2124,42.1469 -84.8162,91.7621 -118.2541,132.9726 44.3437,-13.9439 114.442,-56.9404 154.1291,-99.5976 5.5089,-5.921 10.9892,-11.8829 16.4688,-17.8437 z"
       id="path3779-1"
       inkscape:connector-curvature="0"
       sodipodi:nodetypes="cscccc" />
  </g>
  <g
     inkscape:groupmode="layer"
     id="layer5"
     inkscape:label="Tail"
     sodipodi:insensitive="true"
     style="display:inline"
     transform="translate(76.16977,-103.06504)">
    <path
       style="fill:#ddeef7;fill-opacity:1;stroke:none"
       d="m 2625.4667,3024.4947 c -170.3216,-269.1926 -592.9616,-637.8776 -1022.4103,-723.616 -460.6342,-91.9644 -938.30586,82.9736 -1144.85121,717.9592 131.32821,-131.1157 275.14008,-237.4366 463.86205,-254.5585 -329.94965,341.2185 -435.40563,824.6217 -384.66609,1235.2531 38.12268,308.5241 127.00898,581.9458 73.6008,889.8085 -43.68773,251.8307 -315.61662,306.8995 -483.52172,195.6212 263.62471,578.8279 979.34187,102.5927 1065.14547,-489.6367 71.8757,172.2598 17.0674,438.4219 -28,576.8327 209.0487,-154.5574 318.3159,-513.2118 333.9626,-773.2083 25.5257,-424.1505 60.1085,-786.7105 279.4697,-1082.0229 147.8693,-199.0674 362.4567,-309.5181 620.4482,-201.9227 z"
       id="path3808"
       inkscape:connector-curvature="0"
       sodipodi:nodetypes="csccsscccsscc" />
    <path
       style="fill:#bde5f3;fill-opacity:1;stroke:none"
       d="m 2480,3100 c -228.7719,-308.596 -918.5571,-661.8091 -1332,-272 -313.32163,295.4111 -308.91327,687.8248 -320,1068 -12.02383,412.3094 119.67074,1154.8675 -304,1176 -122.04027,78.8904 -251.32597,78.0809 -384,40 83.47091,162.6576 209.9018,233.258 368,236 483.31142,-98.7529 592.8177,-446.5087 680,-724 49.1698,159.1157 49.4797,332.8894 -8,524 241.3762,-260.5162 198.964,-682.7587 208,-988 14.2324,-480.7784 -16.6061,-1174.7902 808,-1092 l 212,60 z"
       id="path3812"
       inkscape:connector-curvature="0"
       sodipodi:nodetypes="csscccccsccc" />
    <path
       style="fill:#bde5f3;fill-opacity:1;stroke:none"
       d="m 2504,3084 c -213.2877,-346.3826 -594.4442,-706.1151 -1200,-804 425.169,-15.2659 911.0936,175.374 1336,744 z"
       id="path3810"
       inkscape:connector-curvature="0"
       sodipodi:nodetypes="cccc" />
    <path
       style="fill:none;stroke:#94d1ed;stroke-width:49;stroke-miterlimit:9;stroke-opacity:1;stroke-dasharray:none"
       d="m 2625.4667,3024.4947 c -170.3216,-269.1926 -592.9616,-637.8776 -1022.4103,-723.616 -460.6342,-91.9644 -938.30586,82.9736 -1144.85121,717.9592 131.32821,-131.1157 275.14008,-237.4366 463.86205,-254.5585 -329.94965,341.2185 -435.40563,824.6217 -384.66609,1235.2531 38.12268,308.5241 127.00898,581.9458 73.6008,889.8085 -43.68773,251.8307 -315.61662,306.8995 -483.52172,195.6212 263.62471,578.8279 979.34187,102.5927 1065.14547,-489.6367 71.8757,172.2598 17.0674,438.4219 -28,576.8327 209.0487,-154.5574 318.3159,-513.2118 333.9626,-773.2083 25.5257,-424.1505 60.1085,-786.7105 279.4697,-1082.0229 147.8693,-199.0674 362.4567,-309.5181 620.4482,-201.9227 z"
       id="path3808-7"
       inkscape:connector-curvature="0"
       sodipodi:nodetypes="csccsscccsscc" />
  </g>
  <g
     inkscape:groupmode="layer"
     id="layer4"
     inkscape:label="Body + Forward Legs"
     style="display:inline"
     sodipodi:insensitive="true"
     transform="translate(76.16977,-103.06504)">
    <path
       style="fill:#6daedf;fill-opacity:1;stroke:none"
       d="m 4092,2548 -788,-176 20,744 c -82.6667,-2.052 -165.3333,-22.964 -248,-100 -168.3714,-91.6477 -331.1268,-87.8219 -492,-52 -134.4716,65.3652 -271.3535,113.8586 -384,332 -100.8698,174.029 -98.239,354.5267 -80,536 25.072,133.3333 51.5906,266.6667 40,400 l 486.8284,-156.6863 c 71.5041,30.4698 210.4897,80.2197 284.8457,86.0966 l 0.8134,43.6648 381.8053,-14.5779 22.6448,-57.2551 C 3646.8932,4022.5552 3920.9993,3814.0203 4028,3552 c 55.8099,-161.7958 64.1173,-343.9497 68,-528 l -40,-288 c -6.5654,-62.6667 -2.3967,-125.3333 36,-188 z"
       id="path3888"
       inkscape:connector-curvature="0"
       sodipodi:nodetypes="ccccccccccccccccc" />
    <path
       style="fill:none;stroke:#3489b6;stroke-width:49;stroke-linecap:butt;stroke-linejoin:miter;stroke-miterlimit:4;stroke-opacity:1;stroke-dasharray:none"
       d="m 4096.828,2534.2237 c -52.085,70.2804 -53.6431,211.4386 -20.6038,361.025 39.5547,179.0847 22.93,390.8559 -32.5522,574.0241 -89.2218,294.5557 -262.6382,547.662 -718.1294,672.6304"
       id="path3773"
       inkscape:connector-curvature="0"
       sodipodi:nodetypes="cssc" />
    <path
       style="fill:none;stroke:#3489b6;stroke-width:49;stroke-linecap:butt;stroke-linejoin:miter;stroke-miterlimit:4;stroke-opacity:1;stroke-dasharray:none"
       d="m 3348.8577,3131.9749 c -159.3347,-17.0496 -312.8311,-159.7876 -469.5189,-183.8477 -258.4848,-39.6915 -451.6246,47.2916 -596.7981,229.1026 -164.7107,206.2787 -179.2182,442.3894 -163.3877,667.2631 0.671,9.5312 1.3965,19.0422 2.1673,28.5299"
       id="path3832"
       inkscape:connector-curvature="0"
       sodipodi:nodetypes="csssc" />
    <path
       style="fill:#6daedf;fill-opacity:1;stroke:#3489b6;stroke-width:49;stroke-linecap:butt;stroke-linejoin:miter;stroke-miterlimit:4;stroke-opacity:1;stroke-dasharray:none"
       d="m 2166.5752,4206.7772 c -138.6696,14.4894 -156.8318,43.4093 -214.9605,152.735 -206.3167,388.0306 -296.2083,808.9972 -322.4407,1204.91 -7.0944,107.0722 5.8018,197.2181 141.4214,214.9605 148.9866,19.4911 297.1127,17.526 446.8915,8.4853 122.1146,-7.3709 130.0906,-69.2245 90.5096,-166.8772 -137.4977,-339.2285 -69.5392,-1067.5111 333.7544,-1555.635"
       id="path3834"
       inkscape:connector-curvature="0"
       sodipodi:nodetypes="csssssc" />
    <path
       style="font-size:medium;font-style:normal;font-variant:normal;font-weight:normal;font-stretch:normal;text-indent:0;text-align:start;text-decoration:none;line-height:normal;letter-spacing:normal;word-spacing:normal;text-transform:none;direction:ltr;block-progression:tb;writing-mode:lr-tb;text-anchor:start;baseline-shift:baseline;color:#000000;fill:#3489b6;fill-opacity:1;stroke:none;stroke-width:49;marker:none;visibility:visible;display:inline;overflow:visible;enable-background:accumulate;font-family:Sans;-inkscape-font-specification:Sans"
       d="m 2635.4062,4073.7812 c 76.062,78.7572 184.3994,102.2286 303,117.6876 l 6.3126,-48.5938 c -115.9331,-15.1112 -210.9339,-37.7594 -274.0626,-103.125 -63.1286,-65.3656 -100.0878,-230.1944 -114.7321,-412.1006 -24.6442,192.0937 3.4202,367.3747 79.4821,446.1318 z"
       id="path3836"
       inkscape:connector-curvature="0"
       sodipodi:nodetypes="sccscs" />
    <path
       style="fill:#6daedf;fill-opacity:1;stroke:#3489b6;stroke-width:49;stroke-linecap:butt;stroke-linejoin:miter;stroke-miterlimit:4;stroke-opacity:1;stroke-dasharray:none"
       d="m 2947.0265,4153.816 c -1.917,5.3061 -3.823,10.6186 -5.7179,15.9377 -167.5148,470.2172 -248.2578,990.9104 -189.249,1510.6341 10.8445,95.5139 49.6521,182.6092 161.2203,195.1614 161.2365,18.1403 324.3157,10.8887 486.4895,-5.6568 137.683,-14.0468 115.9784,-107.9102 84.8528,-181.0194 -181.5048,-426.3271 -195.7736,-979.4577 -162.6543,-1500.875 0.6303,-9.9238 1.2778,-19.8361 1.9416,-29.7358"
       id="path3838"
       inkscape:connector-curvature="0"
       sodipodi:nodetypes="cssssssc" />
    <path
       style="font-size:medium;font-style:normal;font-variant:normal;font-weight:normal;font-stretch:normal;text-indent:0;text-align:start;text-decoration:none;line-height:normal;letter-spacing:normal;word-spacing:normal;text-transform:none;direction:ltr;block-progression:tb;writing-mode:lr-tb;text-anchor:start;baseline-shift:baseline;color:#000000;fill:#3489b6;fill-opacity:1;stroke:none;stroke-width:49;marker:none;visibility:visible;display:inline;overflow:visible;enable-background:accumulate;font-family:Sans;-inkscape-font-specification:Sans"
       d="m 2143.5938,3842.7812 -48.875,3.4376 c 0.6776,9.6263 1.4101,19.2131 2.1874,28.7812 11.0782,136.3509 77.0923,331.5641 56.6765,407.8192 65.5841,-61.7449 2.6676,-282.5497 -7.8327,-411.788 -0.7643,-9.4072 -1.4919,-18.8139 -2.1562,-28.25 z"
       id="path3832-4"
       inkscape:connector-curvature="0"
       sodipodi:nodetypes="ccscsc" />
    <path
       style="font-size:medium;font-style:normal;font-variant:normal;font-weight:normal;font-stretch:normal;text-indent:0;text-align:start;text-decoration:none;line-height:normal;letter-spacing:normal;word-spacing:normal;text-transform:none;direction:ltr;block-progression:tb;writing-mode:lr-tb;text-anchor:start;baseline-shift:baseline;color:#000000;fill:#3489b6;fill-opacity:1;stroke:none;stroke-width:49;marker:none;visibility:visible;display:inline;overflow:visible;enable-background:accumulate;font-family:Sans;-inkscape-font-specification:Sans"
       d="m 2923.9688,4145.5 c -1.9294,5.3402 -3.8428,10.6776 -5.75,16.0312 l 46.1562,16.4376 c 1.8826,-5.2846 3.7827,-10.5405 5.6875,-15.8126 24.5296,-67.8941 59.3575,-182.809 76.2438,-224.5382 -49.5817,31.8098 -97.4888,139.1048 -122.3375,207.882 z m 375.5,11.125 c -0.6657,9.9278 -1.3054,19.8594 -1.9376,29.8125 l 48.875,3.125 c 0.6285,-9.8945 1.2756,-19.7846 1.9376,-29.6563 3.998,-59.6222 -5.5255,-147.0937 -29.9586,-191.4833 -6.0483,44.7059 -14.8955,128.2397 -18.9164,188.2021 z"
       id="path3838-0"
       inkscape:connector-curvature="0"
       sodipodi:nodetypes="sccscssccscs" />
  </g>
  <g
     inkscape:groupmode="layer"
     id="layer6"
     inkscape:label="Cutie Mark"
     style="display:inline"
     sodipodi:insensitive="true"
     transform="translate(76.16977,-103.06504)">
    <g
       id="g3916"
       transform="matrix(0.19844717,0.18898985,-0.13605292,0.33422681,2338.3249,1893.3198)">
      <path
         sodipodi:nodetypes="cssscsssc"
         inkscape:connector-curvature="0"
         id="path3778"
         d="m 2201.153,2414.5558 c -147.244,175.0002 -357.5381,519.2299 -313.4159,747.1819 47.1752,243.7246 237.6673,415.6479 527.4466,379.465 160.6714,-20.062 323.2628,-108.564 471.4978,-39.3028 108.5527,50.7201 144.3978,146.2979 124.9222,243.5718 -194.133,-46.9712 -226.5804,31.9231 -315.2394,120.3681 -84.0565,83.8535 -539.9186,363.3275 -804.2694,15.7166 -157.9786,-207.7356 -230.3593,-476.765 -175.1793,-757.4582 65.1227,-331.2701 278.1197,-641.5425 484.2374,-709.5424 z"
         style="fill:#79cce5;fill-opacity:1;stroke:none" />
      <path
         sodipodi:nodetypes="csssscc"
         inkscape:connector-curvature="0"
         id="path3776"
         d="m 2419.848,3219.1836 c 84.2389,307.8939 282.9871,734.2801 520.6253,1019.0704 11.408,13.6716 18.1957,12.5275 25.5344,8.0508 14.2343,-8.6833 27.4786,-18.5783 37.3866,-27.506 7.5918,-6.8407 12.1515,-16.6545 4.4358,-27.4167 -223.2405,-311.3866 -436.6941,-687.2398 -524.1055,-993.1426 z"
         style="fill:#518ec9;fill-opacity:1;stroke:none" />
      <path
         sodipodi:nodetypes="cssccc"
         inkscape:connector-curvature="0"
         id="path3774"
         d="m 2341.3633,3093.8244 c 8.9011,63.2167 38.5066,161.0522 105.0626,149.9208 18.6026,-3.1113 35.6566,-4.2799 50.7606,-10.6243 35.2238,-14.7959 23.8081,-98.6214 3.5414,-158.1842 l -96.7992,-49.5801 z"
         style="fill:#71a6d2;fill-opacity:1;stroke:none" />
      <path
         sodipodi:nodetypes="ccccccccccc"
         inkscape:connector-curvature="0"
         id="path3772"
         d="m 2345.0342,2403.7004 101.263,299.173 208.1968,-92.5759 -148.119,229.7557 187.086,276.2095 -286.2785,-68.6645 -147.8339,296.6634 -6.4708,-360.3508 -221.0737,-80.8436 227.8257,-124.1555 z"
         style="fill:#bde5f3;fill-opacity:1;stroke:none" />
      <path
         sodipodi:nodetypes="ccccccccccc"
         inkscape:connector-curvature="0"
         id="path3768"
         d="m 2355.4704,2724.7228 29.6918,127.931 51.4937,-53.0348 -43.7664,76.2159 92.5777,110.5762 -97.2817,-82.2712 -47.5056,133.1561 25.9628,-153.0875 -102.7418,-17.8474 100.7777,-2.6778 z"
         style="fill:#71a6d2;fill-opacity:1;stroke:#71a6d2;stroke-width:1;stroke-linecap:butt;stroke-linejoin:miter;stroke-miterlimit:24;stroke-opacity:1;stroke-dasharray:none" />
      <!--S#i#g#m#a-->
      <path
         transform="matrix(0.60604321,-0.79543172,0.79543172,0.60604321,1087.4032,2900.3073)"
         d="m 253.75626,787.97996 -12.25691,-45.6919 -47.84326,-7.73047 45.69189,-12.25691 7.73048,-47.84326 12.2569,45.6919 47.84327,7.73047 -45.6919,12.2569 z"
         inkscape:randomized="0"
         inkscape:rounded="0"
         inkscape:flatsided="false"
         sodipodi:arg2="2.248971"
         sodipodi:arg1="1.5120405"
         sodipodi:r2="14.214847"
         sodipodi:r1="56.859386"
         sodipodi:cy="731.21869"
         sodipodi:cx="250.41736"
         sodipodi:sides="4"
         id="path3780"
         style="fill:#ddeef7;fill-opacity:1;fill-rule:evenodd;stroke:none"
         sodipodi:type="star" />
      <path
         transform="matrix(0.60604321,-0.79543172,0.79543172,0.60604321,1223.2316,3398.9259)"
         d="m 253.75626,787.97996 -12.25691,-45.6919 -47.84326,-7.73047 45.69189,-12.25691 7.73048,-47.84326 12.2569,45.6919 47.84327,7.73047 -45.6919,12.2569 z"
         inkscape:randomized="0"
         inkscape:rounded="0"
         inkscape:flatsided="false"
         sodipodi:arg2="2.248971"
         sodipodi:arg1="1.5120405"
         sodipodi:r2="14.214847"
         sodipodi:r1="56.859386"
         sodipodi:cy="731.21869"
         sodipodi:cx="250.41736"
         sodipodi:sides="4"
         id="path3780-1"
         style="fill:#ddeef7;fill-opacity:1;fill-rule:evenodd;stroke:none"
         sodipodi:type="star" />
      <path
         transform="matrix(0.86003889,-0.51022849,0.51022849,0.86003889,1772.8861,3270.4437)"
         d="m 253.75626,787.97996 -12.25691,-45.6919 -47.84326,-7.73047 45.69189,-12.25691 7.73048,-47.84326 12.2569,45.6919 47.84327,7.73047 -45.6919,12.2569 z"
         inkscape:randomized="0"
         inkscape:rounded="0"
         inkscape:flatsided="false"
         sodipodi:arg2="2.248971"
         sodipodi:arg1="1.5120405"
         sodipodi:r2="14.214847"
         sodipodi:r1="56.859386"
         sodipodi:cy="731.21869"
         sodipodi:cx="250.41736"
         sodipodi:sides="4"
         id="path3780-1-7"
         style="fill:#ddeef7;fill-opacity:1;fill-rule:evenodd;stroke:none"
         sodipodi:type="star" />
      <path
         transform="matrix(0.60604321,-0.79543172,0.79543172,0.60604321,2089.158,3365.4495)"
         d="m 253.75626,787.97996 -12.25691,-45.6919 -47.84326,-7.73047 45.69189,-12.25691 7.73048,-47.84326 12.2569,45.6919 47.84327,7.73047 -45.6919,12.2569 z"
         inkscape:randomized="0"
         inkscape:rounded="0"
         inkscape:flatsided="false"
         sodipodi:arg2="2.248971"
         sodipodi:arg1="1.5120405"
         sodipodi:r2="14.214847"
         sodipodi:r1="56.859386"
         sodipodi:cy="731.21869"
         sodipodi:cx="250.41736"
         sodipodi:sides="4"
         id="path3780-1-4"
         style="fill:#ddeef7;fill-opacity:1;fill-rule:evenodd;stroke:none"
         sodipodi:type="star" />
      <path
         transform="matrix(0.60604321,-0.79543172,0.79543172,0.60604321,1400.0085,3642.1302)"
         d="m 253.75626,787.97996 -12.25691,-45.6919 -47.84326,-7.73047 45.69189,-12.25691 7.73048,-47.84326 12.2569,45.6919 47.84327,7.73047 -45.6919,12.2569 z"
         inkscape:randomized="0"
         inkscape:rounded="0"
         inkscape:flatsided="false"
         sodipodi:arg2="2.248971"
         sodipodi:arg1="1.5120405"
         sodipodi:r2="14.214847"
         sodipodi:r1="56.859386"
         sodipodi:cy="731.21869"
         sodipodi:cx="250.41736"
         sodipodi:sides="4"
         id="path3780-1-0"
         style="fill:#ddeef7;fill-opacity:1;fill-rule:evenodd;stroke:none"
         sodipodi:type="star" />
    </g>
  </g>
  <g
     inkscape:groupmode="layer"
     id="layer9"
     inkscape:label="Rear Mane"
     sodipodi:insensitive="true"
     style="display:inline"
     transform="translate(76.16977,-103.06504)">
    <path
       style="fill:#ddeef7;fill-opacity:1;stroke:none"
       d="M 3236.6075,1070.927 C 3300.8637,744.40133 3610.7537,416.05927 4086.8114,215.35889 4396.952,84.607229 4736.2126,71.328693 4988.3139,375.626 c 236.5487,285.52471 244.3219,652.6487 262.9382,1014.1904 6.7061,130.2373 21.5467,274.8102 67.6127,413.1887 19.5341,58.6787 79.9233,119.6182 125.2087,-10e-5 25.5192,-67.4072 19.0107,-106.8447 10.0166,-162.7712 53.2264,90.1502 96.8128,180.8852 60.1002,287.9799 -31.4215,91.66 -169.7375,161.3369 -230.384,5.0083 -77.7441,-200.401 -128.7168,-425.74 -190.3171,-623.5392 -155.753,-500.12428 -576.4773,-525.78331 -811.3523,-287.98 l -951.586,275.4591 z"
       id="path3957-9"
       inkscape:connector-curvature="0"
       sodipodi:nodetypes="cssssscsssc" />
    <path
       style="fill:#bde5f3;fill-opacity:1;stroke:none"
       d="m 3495.8264,1066.778 c 15.2094,-425.80778 320.5751,-652.1884 613.5225,-853.92324 -445.6897,175.36389 -749.6188,454.86473 -881.4691,843.90654 l 127.7129,155.2587 z"
       id="path3959"
       inkscape:connector-curvature="0"
       sodipodi:nodetypes="ccccc" />
    <path
       style="fill:#bde5f3;fill-opacity:1;stroke:none"
       d="m 3633.5559,971.61936 c 87.7844,-573.88988 968.7634,-506.163 1222.0368,-350.58431 110.3982,67.81451 242.6455,142.39325 343.0717,250.41737 39.1017,169.44908 48.3061,338.89818 47.5793,508.34728 8.4335,143.0027 16.5995,286.2196 57.596,403.1719 68.567,144.5886 112.9493,83.6084 155.2588,5.0084 l 0,-127.7129 c 45.6535,78.534 81.9291,159.6256 55.0918,257.9299 -71.1715,159.8215 -150.89,140.1586 -235.3923,20.0334 L 5078.4641,1229.5492 C 4954.0981,668.29951 4608.5172,623.61565 4277.1286,723.70617 L 3971.6194,1009.182 z"
       id="path3961"
       inkscape:connector-curvature="0"
       sodipodi:nodetypes="csccccccccccc" />
    <path
       style="fill:none;stroke:#94d1ed;stroke-width:49;stroke-linecap:butt;stroke-linejoin:miter;stroke-miterlimit:9;stroke-opacity:1;stroke-dasharray:none"
       d="m 3236.6075,1070.927 c 64.2562,-326.52563 374.1462,-654.86769 850.2039,-855.56807 310.1406,-130.751664 649.4012,-144.0302 901.5025,160.26711 236.5487,285.52471 244.3219,652.64866 262.9382,1014.19036 6.7061,130.2373 21.5467,274.8102 67.6127,413.1887 19.5341,58.6787 79.9233,119.6182 125.2087,-10e-5 25.5192,-67.4072 19.0107,-106.8447 10.0166,-162.7712 53.2264,90.1502 96.8128,180.8852 60.1002,287.9799 -31.4215,91.66 -169.7375,161.3369 -230.384,5.0083 -77.7441,-200.401 -128.7168,-425.74 -190.3171,-623.5392 -155.753,-500.12424 -576.4773,-525.78327 -811.3523,-287.98 l -951.586,275.4591 z"
       id="path3957"
       inkscape:connector-curvature="0"
       sodipodi:nodetypes="cssssscsssc" />
  </g>
  <g
     inkscape:groupmode="layer"
     id="layer8"
     inkscape:label="Head"
     style="display:inline"
     sodipodi:insensitive="true"
     transform="translate(76.16977,-103.06504)">
    <path
       style="fill:#6daedf;fill-opacity:1;stroke:none"
       d="m 4313.4694,921.58034 c 95.6188,25.72286 191.2376,65.33077 286.8564,131.03316 173.3707,194.2913 330.733,564.2025 293.9392,913.6906 19.4556,25.4026 32.8532,56.8631 38.9558,95.6187 0.5687,68.7253 -21.9949,132.3102 -81.4531,187.6962 l -138.116,8.5497 c -158.9731,11.9353 -156.2243,72.7696 -159.3646,136.6491 l 240.8177,-56.6629 c -64.9042,71.3744 -125.2015,143.8506 -290.3978,191.2375 -182.3053,48.1456 -368.6748,63.7772 -557.6504,58.5596 l -614.565,86.6393 -74.3702,-849.9447 106.2431,-679.9558 c 95.9534,-78.3345 191.8838,-156.68052 339.9779,-208.94471 95.6188,-34.54221 191.2375,-35.36092 286.8563,3.54143 z"
       id="path3954"
       inkscape:connector-curvature="0"
       sodipodi:nodetypes="cccccccccccccccc" />
    <path
       style="fill:#ffffff;stroke:none"
       d="m 4796.7446,2266.2771 -33.8064,80.1336 -206.5943,47.5793 33.8064,-95.1586 c 61.8881,-38.7579 135.1344,-32.0832 206.5943,-32.5543 z"
       id="path3942"
       inkscape:connector-curvature="0"
       sodipodi:nodetypes="ccccc" />
    <path
       style="fill:#b9dce6;stroke:none"
       d="m 4580.8479,2324.8745 60.3118,11.9838 -66.5094,9.2648 z"
       id="path3940"
       inkscape:connector-curvature="0"
       sodipodi:nodetypes="cccc" />
    <path
       style="fill:none;stroke:#b9dce6;stroke-width:31;stroke-linecap:butt;stroke-linejoin:miter;stroke-miterlimit:4;stroke-opacity:1;stroke-dasharray:none"
       d="m 4803.9583,2261.1286 -48.6947,86.7652"
       id="path3938"
       inkscape:connector-curvature="0" />
    <path
       style="font-size:medium;font-style:normal;font-variant:normal;font-weight:normal;font-stretch:normal;text-indent:0;text-align:start;text-decoration:none;line-height:normal;letter-spacing:normal;word-spacing:normal;text-transform:none;direction:ltr;block-progression:tb;writing-mode:lr-tb;text-anchor:start;baseline-shift:baseline;color:#000000;fill:#3489b6;fill-opacity:1;stroke:none;stroke-width:49;marker:none;visibility:visible;display:inline;overflow:visible;enable-background:accumulate;font-family:Sans;-inkscape-font-specification:Sans"
       d="m 4651.0871,1901.6237 c 47.2427,83.1119 145.2933,89.1727 215.5379,92.3451 14.0718,0.6355 20.7183,6.2851 27.625,18.4062 6.9067,12.1211 10.9479,30.7856 11.1875,47.9688 0.6223,44.6309 -12.9148,87.7593 -37.625,129.6874 -19.3264,32.7931 -37.3847,52.0667 -85.1563,52.4788 -37.1524,0.3206 -76.1568,-0.1671 -117.0312,6.8854 -96.0822,16.5781 -135.9088,57.9978 -129.1983,141.543 l 2.5,31.125 29.6562,-9.8438 c 61.718,-20.4861 129.4279,-34.9469 184.9055,-44.7293 -72.7471,73.2514 -216.4432,139.4494 -361.7384,170.7285 -173.9624,37.4505 -412.747,39.0901 -551.1166,28.4167 121.9259,47.7603 380.8883,58.325 561.4291,19.4583 180.5408,-38.8668 339.0904,-110.0283 412,-226.5313 l 26.125,-41.75 -49.0313,4.3437 c -70.4124,6.2272 -140.0705,23.3385 -214,46.7188 1.4863,-55.9616 64.2453,-77.2071 95.7709,-82.6768 34.7102,-6.0222 71.8023,-0.5547 110.1667,-0.8857 59.8,-0.5159 101.6984,-27.5807 126.9374,-70.4063 28.2387,-47.915 45.174,-100.1947 44.4063,-155.25 -0.3284,-23.5506 -4.8378,-49.1214 -17.625,-71.5624 -12.7872,-22.4411 -36.9333,-41.661 -67.9687,-43.0626 -67.5484,-3.0506 -145.476,11.5966 -217.7567,-43.4075 z"
       id="path3930"
       inkscape:connector-curvature="0"
       sodipodi:nodetypes="cssssssscscscsccccssssssc" />
    <path
       style="fill:#3489b6;fill-opacity:1;stroke:none"
       d="m 4636.4775,2094.7412 c -15.7975,60.9107 68.1379,80.9396 95.1586,15.0251 -32.8395,14.0312 -65.5868,26.4941 -95.1586,-15.0251 z"
       id="path3936"
       inkscape:connector-curvature="0"
       sodipodi:nodetypes="ccc" />
    <path
       style="font-size:medium;font-style:normal;font-variant:normal;font-weight:normal;font-stretch:normal;text-indent:0;text-align:start;text-decoration:none;line-height:normal;letter-spacing:normal;word-spacing:normal;text-transform:none;direction:ltr;block-progression:tb;writing-mode:lr-tb;text-anchor:start;baseline-shift:baseline;color:#000000;fill:#3489b6;fill-opacity:1;stroke:none;stroke-width:49;marker:none;visibility:visible;display:inline;overflow:visible;enable-background:accumulate;font-family:Sans;-inkscape-font-specification:Sans"
       d="m 3284.7021,1857.2854 -48.5313,6.6563 c 55.4306,404.4741 88.1774,791.1668 74.8917,1195.3395 -2.5366,77.169 -63.1033,175.636 -89.1994,237.6696 48.2741,-33.5852 135.1002,-142.7099 138.1681,-236.0446 13.3801,-407.0424 -19.5691,-796.7426 -75.3291,-1203.6208 z"
       id="path3944"
       inkscape:connector-curvature="0"
       sodipodi:nodetypes="ccscsc" />
    <path
       style="fill:none;stroke:#3489b6;stroke-width:49;stroke-linecap:butt;stroke-linejoin:miter;stroke-miterlimit:4;stroke-opacity:1;stroke-dasharray:none"
       d="M 3373.1219,1146.9115 C 3511.076,1012.0482 3785.1463,841.1731 3989.1486,949.0818"
       id="path3950"
       inkscape:connector-curvature="0"
       sodipodi:nodetypes="cc" />
    <path
       style="fill:none;stroke:#3489b6;stroke-width:49;stroke-linecap:butt;stroke-linejoin:miter;stroke-miterlimit:4;stroke-opacity:1;stroke-dasharray:none"
       d="m 4337.2288,931.55258 c 416.9647,82.89142 568.713,594.58882 558.4306,1041.73622"
       id="path3952"
       inkscape:connector-curvature="0"
       sodipodi:nodetypes="cc" />
  </g>
  <g
     inkscape:groupmode="layer"
     id="layer10"
     inkscape:label="Horn"
     sodipodi:insensitive="true"
     style="display:inline"
     transform="translate(76.16977,-103.06504)">
    <path
       style="fill:#ddeef7;fill-opacity:1;stroke:none"
       d="m 4658.7595,868.45879 -14.1658,-120.40883 -357.6851,21.24862 28.3315,219.56905 c 95.412,-67.91005 196.8899,-126.99702 343.5194,-120.40884 z"
       id="path4000"
       inkscape:connector-curvature="0"
       sodipodi:nodetypes="ccccc" />
    <path
       style="fill:none;stroke:#94d1ed;stroke-width:49;stroke-linecap:butt;stroke-linejoin:miter;stroke-miterlimit:9;stroke-opacity:1;stroke-dasharray:none"
       d="m 4684.2409,881.95261 c -144.0198,-24.2476 -293.0827,29.36962 -402.104,139.75019"
       id="path3957-4"
       inkscape:connector-curvature="0"
       sodipodi:nodetypes="cc" />
    <path
       style="fill:#6daedf;fill-opacity:1;stroke:none"
       d="m 4304.6158,1167.7102 -247.9005,-3.5415 -106.2431,-76.1409 c 62.093,-291.1787 122.288,-582.77176 221.3398,-865.88113 74.1457,-118.45083 110.3288,-78.14885 132.8038,19.4779 z"
       id="path4014"
       inkscape:connector-curvature="0"
       sodipodi:nodetypes="cccccc" />
    <path
       style="font-size:medium;font-style:normal;font-variant:normal;font-weight:normal;font-stretch:normal;text-indent:0;text-align:start;text-decoration:none;line-height:normal;letter-spacing:normal;word-spacing:normal;text-transform:none;direction:ltr;block-progression:tb;writing-mode:lr-tb;text-anchor:start;baseline-shift:baseline;color:#000000;fill:#3489b6;fill-opacity:1;stroke:none;stroke-width:49;marker:none;visibility:visible;display:inline;overflow:visible;enable-background:accumulate;font-family:Sans;-inkscape-font-specification:Sans"
       d="m 4252.4062,132.6875 c -3.2478,-0.27315 -6.5302,-0.24074 -9.8124,0.0937 -26.2584,2.67591 -47.1914,19.78295 -65.0626,42.4375 -17.8711,22.65455 -32.9651,52.37405 -43.9687,87.09375 -85.3449,269.28912 -153.1014,545.31663 -203.6875,821.31875 -1.4572,7.8946 1.1941,16.5198 7.0312,22.0312 37.1687,35.0946 78.445,54.2023 122.3615,62.5271 -36.3592,-25.6124 -62.3551,-44.2323 -78.7677,-88.4958 49.9582,-269.60795 116.3727,-539.38943 199.7812,-802.56875 9.498,-29.96889 22.5875,-54.91651 35.7188,-71.5625 13.1313,-16.64599 26.0478,-23.46927 31.5625,-24.03125 5.5147,-0.56198 9.3752,-0.51071 17.9687,15.875 8.5936,16.38571 16.6494,48.24668 18.625,96.59375 11.8134,289.08375 -13.7096,869.80665 17.075,871.57575 30.7847,1.7691 43.7637,-583.10696 31.8938,-873.57575 -2.148,-52.5641 -9.9676,-90.26137 -24.1875,-117.375 -12.4424,-23.72443 -33.7962,-40.02542 -56.5313,-41.9375 z"
       id="path4002"
       inkscape:connector-curvature="0"
       sodipodi:nodetypes="ccsscsccssssszsscc" />
    <path
       style="fill:none;stroke:#3489b6;stroke-width:31;stroke-linecap:butt;stroke-linejoin:miter;stroke-miterlimit:4;stroke-opacity:1;stroke-dasharray:none"
       d="m 4026.7112,737.47912 c 68.6723,67.77285 182.3749,116.89846 281.7195,107.67947"
       id="path4008"
       inkscape:connector-curvature="0"
       sodipodi:nodetypes="cc" />
    <path
       style="fill:none;stroke:#3489b6;stroke-width:31;stroke-linecap:butt;stroke-linejoin:miter;stroke-miterlimit:4;stroke-opacity:1;stroke-dasharray:none"
       d="m 4080.5509,528.38063 c 61.8164,34.91141 166.532,80.45772 231.6361,62.60434"
       id="path4010"
       inkscape:connector-curvature="0"
       sodipodi:nodetypes="cc" />
    <path
       style="fill:none;stroke:#3489b6;stroke-width:31;stroke-linecap:butt;stroke-linejoin:miter;stroke-miterlimit:4;stroke-opacity:1;stroke-dasharray:none"
       d="m 4151.9199,297.99665 c 37.1183,33.65877 101.1781,68.35218 155.2588,70.11686"
       id="path4012"
       inkscape:connector-curvature="0"
       sodipodi:nodetypes="cc" />
  </g>
  <g
     inkscape:groupmode="layer"
     id="layer11"
     inkscape:label="Front Mane"
     sodipodi:insensitive="true"
     style="display:inline"
     transform="translate(76.16977,-103.06504)">
    <path
       style="fill:#ddeef7;fill-opacity:1;stroke:none"
       d="m 3250.4173,1863.1052 c -23.2502,351.7973 59.3566,651.6691 201.1932,942.4286 105.0305,215.3086 251.8404,544.3392 94.2993,740.376 -141.8838,176.5535 -401.1452,106.4989 -538.3974,-2.5041 101.8124,6.5575 189.5535,26.5554 262.9383,-70.1169 75.9505,-100.0522 39.1793,-316.4689 -105.1753,-488.3138 -145.5499,-173.2678 -281.8914,-362.31 -340.0977,-589.8476 -86.4094,-337.7869 -30.4648,-747.0831 181.5491,-979.8396 z"
       id="path4017-8"
       inkscape:connector-curvature="0"
       sodipodi:nodetypes="csscssscc" />
    <path
       style="fill:#bde5f3;fill-opacity:1;stroke:none"
       d="m 3187.2927,2996.862 c 219.9806,163.0156 396.4282,591.6712 -10.6243,626.8342 -62.9788,-12.0406 -109.1,-46.5579 -152.2818,-84.9944 100.5742,4.709 201.6767,12.0594 276.232,-113.326 31.362,-155.0386 -32.4821,-293.2762 -113.3259,-428.5138 z"
       id="path4019"
       inkscape:connector-curvature="0"
       sodipodi:nodetypes="ccccc" />
    <path
       style="fill:#bde5f3;fill-opacity:1;stroke:none"
       d="m 3158.9612,1686.5306 c -239.0039,145.6109 -274.2805,671.6768 -7.0829,1016.3922 145.2721,187.4176 341.6107,356.0337 462.7129,550.8192 -46.139,-252.5804 -173.7656,-459.8898 -275.0168,-681.8523 -73.9826,-238.6682 -104.9059,-480.6486 -92.0773,-725.9945 z"
       id="path4021"
       inkscape:connector-curvature="0"
       sodipodi:nodetypes="cscccc" />
    <path
       style="fill:none;stroke:#94d1ed;stroke-width:49;stroke-linecap:butt;stroke-linejoin:miter;stroke-miterlimit:9;stroke-opacity:1;stroke-dasharray:none"
       d="m 3250.4174,1863.1052 c -23.2502,351.7973 59.3566,651.6691 201.1932,942.4286 105.0305,215.3086 251.8404,544.3392 94.2993,740.376 -141.8838,176.5535 -401.1452,106.4989 -538.3974,-2.5041 101.8124,6.5575 189.5535,26.5554 262.9383,-70.1169 75.9505,-100.0522 39.1793,-316.4689 -105.1753,-488.3138 -145.5499,-173.2678 -281.8914,-362.31 -340.0978,-589.8476 -86.4094,-337.7869 -30.4648,-747.0831 181.5492,-979.8396 z"
       id="path4017"
       inkscape:connector-curvature="0"
       sodipodi:nodetypes="csscssscc" />
  </g>
  <g
     inkscape:groupmode="layer"
     id="layer12"
     inkscape:label="Ear"
     sodipodi:insensitive="true"
     style="display:inline"
     transform="translate(76.16977,-103.06504)">
    <path
       style="fill:#6daedf;fill-opacity:1;stroke:none"
       d="m 3470.7846,1287.1452 c -79.0489,-183.2353 -216.8702,-297.90289 -375.626,-388.14687 -66.3208,-44.46271 -101.657,-2.16877 -135.2254,45.07512 -70.1407,201.16865 -33.9148,402.33725 0,603.50585 95.8103,269.3271 241.1484,379.3378 383.1386,450.7513 z"
       id="path4050"
       inkscape:connector-curvature="0"
       sodipodi:nodetypes="cccccc" />
    <path
       style="font-size:medium;font-style:normal;font-variant:normal;font-weight:normal;font-stretch:normal;text-indent:0;text-align:start;text-decoration:none;line-height:normal;letter-spacing:normal;word-spacing:normal;text-transform:none;direction:ltr;block-progression:tb;writing-mode:lr-tb;text-anchor:start;baseline-shift:baseline;color:#000000;fill:#3489b6;fill-opacity:1;stroke:none;stroke-width:49;marker:none;visibility:visible;display:inline;overflow:visible;enable-background:accumulate;font-family:Sans;-inkscape-font-specification:Sans"
       d="m 3044.4688,858.5 c -8.2456,-0.16563 -16.4323,0.79648 -24.5938,3.125 -32.6462,9.31407 -55.4254,38.4777 -72.625,80.71875 -84.602,207.77685 -70.8911,437.62625 1.7812,632.84375 72.6724,195.2175 259.1699,424.7466 392.6364,418.6203 -111.9426,-63.7223 -277.7518,-250.4198 -346.7301,-435.714 -68.9783,-185.2943 -81.4081,-402.951 -2.2813,-597.2813 14.5438,-35.71852 28.4514,-48.58041 40.6563,-52.0625 12.2049,-3.48209 31.9918,0.73233 61.6563,18.71875 145.8207,88.41525 310.2559,253.11955 374.8228,359.83515 -8.0542,-126.1724 -197.4844,-309.6206 -349.4166,-401.7414 -25.9853,-15.75563 -51.1696,-26.56561 -75.9062,-27.0625 z"
       id="path4042"
       inkscape:connector-curvature="0"
       sodipodi:nodetypes="sssscsssscss" />
    <path
       style="fill:#3489b6;fill-opacity:1;stroke:none"
       d="m 3086.3617,1203.1245 c -19.2609,204.9497 74.9781,377.4349 212.4862,488.7182 -98.4821,-126.9718 -182.6549,-293.0142 -212.4862,-488.7182 z"
       id="path4048"
       inkscape:connector-curvature="0"
       sodipodi:nodetypes="ccc" />
  </g>
  <g
     inkscape:groupmode="layer"
     id="layer16"
     inkscape:label="Lower Eyelashes"
     sodipodi:insensitive="true"
     transform="translate(76.16977,-103.06504)">
    <path
       style="fill:#000000;fill-opacity:1;stroke:none"
       d="m 3537.1452,1836.8114 c -75.8055,41.6162 -172.164,65.6435 -308.0133,17.5292 74.4956,70.7757 213.967,95.1654 315.5259,38.8147 z"
       id="path4202"
       inkscape:connector-curvature="0"
       sodipodi:nodetypes="cccc" />
    <path
       style="fill:#000000;fill-opacity:1;stroke:none"
       d="m 3542.1536,1906.9282 c -79.8757,45.669 -171.4502,77.3591 -287.98,76.3773 107.8354,32.5186 213.4963,49.9388 308.0134,-10.0167 z"
       id="path4204"
       inkscape:connector-curvature="0"
       sodipodi:nodetypes="cccc" />
  </g>
  <g
     inkscape:groupmode="layer"
     id="layer14"
     inkscape:label="Eyes"
     style="display:inline"
     sodipodi:insensitive="true"
     transform="translate(76.16977,-103.06504)">
    <path
       style="fill:#ffffff;fill-opacity:1;stroke:none"
       d="m 4417.3623,1447.4123 503.3389,-135.2253 c 27.7721,352.2072 30.7733,640.9392 -47.5793,721.202 -281.0613,-26.4484 -435.1288,-218.9655 -455.7596,-585.9767 z"
       id="path4092"
       inkscape:connector-curvature="0"
       sodipodi:nodetypes="cccc"
       clip-path="url(#clipPath4123)" />
    <path
       style="fill:#ffffff;fill-opacity:1;stroke:none"
       d="m 3456.4418,1760.9008 630.3757,-219.5691 c 209.5165,141.0905 471.7478,592.2721 -24.7901,828.6961 -245.4659,-24.9522 -565.7299,-49.671 -605.5856,-609.127 z"
       id="path4090"
       inkscape:connector-curvature="0"
       sodipodi:nodetypes="cccc"
       clip-path="url(#clipPath4242)" />
    <path
       sodipodi:type="arc"
       style="color:#000000;fill:url(#linearGradient4137);fill-opacity:1;fill-rule:nonzero;stroke:none;stroke-width:1px;marker:none;visibility:visible;display:inline;overflow:visible;enable-background:accumulate"
       id="path4082"
       sodipodi:cx="4123.1221"
       sodipodi:cy="2042.1536"
       sodipodi:rx="204.09015"
       sodipodi:ry="284.22369"
       d="m 4327.2122,2042.1536 c 0,156.9724 -91.3743,284.2237 -204.0901,284.2237 -112.7159,0 -204.0902,-127.2513 -204.0902,-284.2237 0,-156.9724 91.3743,-284.2237 204.0902,-284.2237 112.7158,0 204.0901,127.2513 204.0901,284.2237 z"
       transform="matrix(0.92110608,-0.34594042,0.34489436,0.92955867,-410.96137,1520.1232)"
       clip-path="url(#clipPath4238)" />
    <path
       sodipodi:type="arc"
       style="color:#000000;fill:url(#linearGradient4139);fill-opacity:1;fill-rule:nonzero;stroke:none;stroke-width:1px;marker:none;visibility:visible;display:inline;overflow:visible;enable-background:accumulate"
       id="path4084"
       sodipodi:cx="4762.9385"
       sodipodi:cy="1785.4758"
       sodipodi:rx="147.74625"
       sodipodi:ry="292.98831"
       d="m 4910.6847,1785.4758 c 0,161.813 -66.1482,292.9883 -147.7462,292.9883 -81.598,0 -147.7463,-131.1753 -147.7463,-292.9883 0,-161.8129 66.1483,-292.9883 147.7463,-292.9883 81.598,0 147.7462,131.1754 147.7462,292.9883 z"
       transform="matrix(0.930259,-0.21726177,0.25199138,0.91659792,-100.64501,1147.4063)"
       clip-path="url(#clipPath4119)" />
    <path
       sodipodi:type="arc"
       style="color:#000000;fill:#000000;fill-opacity:1;fill-rule:nonzero;stroke:none;stroke-width:1px;marker:none;visibility:visible;display:inline;overflow:visible;enable-background:accumulate"
       id="path4086"
       sodipodi:cx="4131.0854"
       sodipodi:cy="1991.9795"
       sodipodi:rx="148.74033"
       sodipodi:ry="206.28867"
       d="m 4279.8258,1991.9795 c 0,113.9301 -66.5933,206.2887 -148.7404,206.2887 -82.147,0 -148.7403,-92.3586 -148.7403,-206.2887 0,-113.9301 66.5933,-206.2887 148.7403,-206.2887 82.1471,0 148.7404,92.3586 148.7404,206.2887 z"
       transform="matrix(0.98500941,-0.32223079,0.33202534,0.95595222,-607.98022,1411.8224)"
       clip-path="url(#clipPath4269)" />
    <path
       sodipodi:type="arc"
       style="color:#000000;fill:#000000;fill-opacity:1;fill-rule:nonzero;stroke:none;stroke-width:1px;marker:none;visibility:visible;display:inline;overflow:visible;enable-background:accumulate"
       id="path4088"
       sodipodi:cx="4791.5635"
       sodipodi:cy="1744.079"
       sodipodi:rx="95.618782"
       sodipodi:ry="176.18646"
       d="m 4887.1823,1744.079 c 0,97.3051 -42.81,176.1864 -95.6188,176.1864 -52.8088,0 -95.6188,-78.8813 -95.6188,-176.1864 0,-97.3051 42.81,-176.1865 95.6188,-176.1865 52.8088,0 95.6188,78.8814 95.6188,176.1865 z"
       transform="matrix(1.0100518,-0.27630557,0.2765291,1.0092353,-535.33114,1305.1725)"
       clip-path="url(#clipPath4115)" />
    <path
       sodipodi:type="arc"
       style="color:#000000;fill:#ffffff;fill-opacity:1;fill-rule:nonzero;stroke:none;stroke-width:1px;marker:none;visibility:visible;display:inline;overflow:visible;enable-background:accumulate"
       id="path4127"
       sodipodi:cx="4710.3506"
       sodipodi:cy="1732.8882"
       sodipodi:rx="67.612686"
       sodipodi:ry="100.16695"
       d="m 4777.9633,1732.8882 c 0,55.3207 -30.2713,100.1669 -67.6127,100.1669 -37.3415,0 -67.6127,-44.8462 -67.6127,-100.1669 0,-55.3207 30.2712,-100.167 67.6127,-100.167 37.3414,0 67.6127,44.8463 67.6127,100.167 z"
       transform="matrix(0.93363216,0.04089001,-0.0460752,1.0520245,396.88579,-288.07109)" />
    <path
       sodipodi:type="arc"
       style="color:#000000;fill:#ffffff;fill-opacity:1;fill-rule:nonzero;stroke:none;stroke-width:1px;marker:none;visibility:visible;display:inline;overflow:visible;enable-background:accumulate"
       id="path4129"
       sodipodi:cx="4003.5938"
       sodipodi:cy="1952.1383"
       sodipodi:rx="65.516571"
       sodipodi:ry="113.32596"
       d="m 4069.1103,1952.1383 c 0,62.5882 -29.3327,113.326 -65.5165,113.326 -36.1839,0 -65.5166,-50.7378 -65.5166,-113.326 0,-62.5882 29.3327,-113.326 65.5166,-113.326 36.1838,0 65.5165,50.7378 65.5165,113.326 z"
       transform="matrix(1.0738784,0.1118047,-0.11620876,1.0331807,-56.528641,-529.21583)" />
  </g>
  <g
     inkscape:groupmode="layer"
     id="layer13"
     inkscape:label="Eye Clipping"
     style="opacity:0.5;display:none"
     sodipodi:insensitive="true"
     transform="translate(76.16977,-103.06504)">
    <path
       style="fill:#00ff00;fill-opacity:1;stroke:#ff0000;stroke-width:1px;stroke-linecap:butt;stroke-linejoin:miter;stroke-opacity:1"
       d="m 4049.2488,1617.6962 c 173.3416,109.3497 327.2076,362.4642 180.3005,591.5926 -210.1142,327.7113 -729.2716,-24.6725 -703.6728,-388.7546 188.5866,-21.6929 361.4778,-94.3958 523.3723,-202.838 z"
       id="path4053"
       inkscape:connector-curvature="0"
       sodipodi:nodetypes="cscc" />
    <path
       style="fill:#00ff00;fill-opacity:1;stroke:#ff0000;stroke-width:1px;stroke-linecap:butt;stroke-linejoin:miter;stroke-opacity:1"
       d="m 4474.9583,1454.9249 c 30.8378,220.5765 99.144,407.4315 262.9382,508.3472 l 155.2588,15.0251 c 41.9929,-246.3758 -37.6808,-406.8694 -105.1753,-575.96 -104.3406,69.6994 -208.6811,68.8485 -313.0217,52.5877 z"
       id="path4055"
       inkscape:connector-curvature="0"
       sodipodi:nodetypes="ccccc" />
  </g>
  <g
     inkscape:groupmode="layer"
     id="layer15"
     inkscape:label="Upper Eyelashes"
     sodipodi:insensitive="true"
     transform="translate(76.16977,-103.06504)">
    <path
       style="fill:none;stroke:#3489b6;stroke-width:49;stroke-linecap:butt;stroke-linejoin:miter;stroke-miterlimit:4;stroke-opacity:1;stroke-dasharray:none;display:inline"
       d="m 4583.4878,1050.2795 c 231.783,195.4559 320.096,578.4022 312.1716,923.0093"
       id="path3952-5"
       inkscape:connector-curvature="0"
       sodipodi:nodetypes="cc" />
    <path
       style="font-size:medium;font-style:normal;font-variant:normal;font-weight:normal;font-stretch:normal;text-indent:0;text-align:start;text-decoration:none;line-height:normal;letter-spacing:normal;word-spacing:normal;text-transform:none;direction:ltr;block-progression:tb;writing-mode:lr-tb;text-anchor:start;baseline-shift:baseline;color:#000000;fill:#000000;fill-opacity:1;stroke:none;stroke-width:27;marker:none;visibility:visible;display:inline;overflow:visible;enable-background:accumulate;font-family:Sans;-inkscape-font-specification:Sans"
       d="m 4055.0938,1599 -14.4688,22.7812 c 65.0709,41.2784 129.3757,111.1754 170.6875,190.1876 41.3118,79.0121 65.2235,170.1097 65.3356,278.4156 21.3607,-110.3779 2.1896,-207.5507 -41.3981,-290.9156 -43.5877,-83.365 -110.3014,-156.1557 -180.1562,-200.4688 z"
       id="path4142"
       inkscape:connector-curvature="0"
       sodipodi:nodetypes="ccscsc" />
    <path
       style="fill:#000000;fill-opacity:1;stroke:none"
       d="m 4100.9832,1332.387 c 15.868,33.0534 29.1959,67.8169 43.2308,99.1602 17.9377,40.0593 2.0639,58.6153 -18.9593,77.0891 -166.8908,146.6529 -359.656,263.5122 -596.2134,280.5959 -73.8798,5.3354 -147.3167,29.0963 -224.3626,-10.4094 58.2488,78.6818 141.4485,68.7906 219.0504,59.1671 280.9998,-34.847 493.9526,-149.9147 647.3494,-303.3115 41.8152,-41.8151 32.5879,-71.5712 15.7217,-104.902 -21.4174,-42.3245 -46.0244,-80.8515 -85.817,-97.3894 z"
       id="path4144"
       inkscape:connector-curvature="0"
       sodipodi:nodetypes="cssscsssc" />
    <path
       style="fill:#000000;fill-opacity:1;stroke:none"
       d="m 4459.9332,1449.9165 c -9.3149,205.4303 81.5575,382.9832 249.1653,497.0785 -116.85,-131.2167 -214.4997,-296.4008 -201.586,-490.818 z"
       id="path4146"
       inkscape:connector-curvature="0"
       sodipodi:nodetypes="cccc" />
    <path
       style="fill:#000000;fill-opacity:1;stroke:none"
       d="m 4353.5059,1288.3973 c 23.3225,54.6308 61.1089,128.4689 100.1669,137.7296 156.1115,37.0141 345.3442,-5.812 388.1469,-136.4775 16.6557,52.1033 9.4331,104.5305 -47.5793,137.7296 -94.8001,55.2033 -211.2726,59.2706 -318.03,43.823 -30.3941,-4.398 -64.1355,-2.3824 -85.1419,-47.5793 -21.3693,-45.9775 -36.1261,-90.985 -37.5626,-135.2254 z"
       id="path4148"
       inkscape:connector-curvature="0"
       sodipodi:nodetypes="cscsssc" />
    <path
       style="fill:#000000;fill-opacity:1;stroke:none"
       d="m 4784.4804,1443.0569 c 63.3191,-25.5983 104.2722,-63.2562 131.9186,-113.326 -2.8457,68.193 -36.2445,121.2768 -107.1285,155.8232 z"
       id="path4150"
       inkscape:connector-curvature="0"
       sodipodi:nodetypes="cccc"
       mask="url(#mask4197)" />
    <path
       style="fill:#000000;fill-opacity:1;stroke:none"
       d="m 4806.7663,1488.362 c 63.1742,3.1452 126.0208,7.0273 175.1492,-24.9419 -26.946,52.7363 -86.2321,79.33 -160.0981,74.522 z"
       id="path4152"
       inkscape:connector-curvature="0"
       sodipodi:nodetypes="cccc"
       mask="url(#mask4193)" />
    <path
       style="font-size:medium;font-style:normal;font-variant:normal;font-weight:normal;font-stretch:normal;text-indent:0;text-align:start;text-decoration:none;line-height:normal;letter-spacing:normal;word-spacing:normal;text-transform:none;direction:ltr;block-progression:tb;writing-mode:lr-tb;text-anchor:start;baseline-shift:baseline;color:#000000;fill:#3489b6;fill-opacity:1;stroke:none;stroke-width:49;marker:none;visibility:visible;display:inline;overflow:visible;enable-background:accumulate;font-family:Sans;-inkscape-font-specification:Sans"
       d="m 4651.0871,1901.6237 c 47.2427,83.1119 145.2933,89.1727 215.5379,92.3451 14.0718,0.6355 20.7183,6.2851 27.625,18.4062 6.9067,12.1211 10.9479,30.7856 11.1875,47.9688 l 49,-0.6876 c -0.3284,-23.5506 -4.8378,-49.1214 -17.625,-71.5624 -12.7872,-22.4411 -36.9333,-41.661 -67.9687,-43.0626 -67.5484,-3.0506 -145.476,11.5966 -217.7567,-43.4075 z"
       id="path3930-4"
       inkscape:connector-curvature="0"
       sodipodi:nodetypes="cssccssc" />
  </g>
  <!--Created by Sigma
      http://90sigma.deviantart.com/-->
</svg>
