<?xml version="1.0" encoding="UTF-8" standalone="no"?>
<!-- Created with Inkscape (http://www.inkscape.org/) -->

<svg
   xmlns:dc="http://purl.org/dc/elements/1.1/"
   xmlns:cc="http://creativecommons.org/ns#"
   xmlns:rdf="http://www.w3.org/1999/02/22-rdf-syntax-ns#"
   xmlns:svg="http://www.w3.org/2000/svg"
   xmlns="http://www.w3.org/2000/svg"
   xmlns:sodipodi="http://sodipodi.sourceforge.net/DTD/sodipodi-0.dtd"
   xmlns:inkscape="http://www.inkscape.org/namespaces/inkscape"
   width="107.02625"
   height="270.78952"
   id="svg3343"
   version="1.1"
   inkscape:version="0.48.4 r9939"
   sodipodi:docname="New document 2">
  <defs
     id="defs3345" />
  <sodipodi:namedview
     id="base"
     pagecolor="#ffffff"
     bordercolor="#666666"
     borderopacity="1.0"
     inkscape:pageopacity="0.0"
     inkscape:pageshadow="2"
     inkscape:zoom="0.35"
     inkscape:cx="128.51313"
     inkscape:cy="-167.46239"
     inkscape:document-units="px"
     inkscape:current-layer="layer1"
     showgrid="false"
     fit-margin-top="0"
     fit-margin-left="0"
     fit-margin-right="0"
     fit-margin-bottom="0"
     inkscape:window-width="1920"
     inkscape:window-height="1028"
     inkscape:window-x="1272"
     inkscape:window-y="217"
     inkscape:window-maximized="1" />
  <metadata
     id="metadata3348">
    <rdf:RDF>
      <cc:Work
         rdf:about="">
        <dc:format>image/svg+xml</dc:format>
        <dc:type
           rdf:resource="http://purl.org/dc/dcmitype/StillImage" />
        <dc:title></dc:title>
      </cc:Work>
    </rdf:RDF>
  </metadata>
  <g
     inkscape:label="Layer 1"
     inkscape:groupmode="layer"
     id="layer1"
     transform="translate(-246.48687,-94.11028)">
    <g
       transform="matrix(0.03449709,0,0,0.03449709,-79.313101,-203.18669)"
       id="g4692">
      <path
         inkscape:connector-curvature="0"
         d="m 11530.194,15968.783 172.358,498.881 32.041,-3.867 -70.711,-559.608 z"
         id="path4439-2-8"
         style="fill:#aeafba;fill-opacity:1;fill-rule:nonzero;stroke:none" />
      <path
         inkscape:connector-curvature="0"
         d="m 11479.371,15895.35 19.887,83.968 c 62.256,13.424 150.175,10.146 196.665,-45.299 l -12.154,-88.388 z"
         id="path4437-3-7"
         style="fill:#6f7279;fill-opacity:1;fill-rule:nonzero;stroke:none" />
      <path
         inkscape:connector-curvature="0"
         d="m 10055.865,13365.945 c 141.994,40.565 356.772,640.856 168.282,780.968 l 427.331,245.344 -149.67,-1335.991 z"
         id="path4197-5-2-4"
         style="fill:#8a4b1f;fill-opacity:1;fill-rule:nonzero;stroke:none" />
      <path
         inkscape:connector-curvature="0"
         d="m 10680.83,11905.212 c -386.339,19.881 -853.8669,354.612 -946.6149,745.772 -97.033,409.233 468.1569,255.995 60.675,805.89 l 322.8469,-88.719 302.428,-243.372 z"
         id="path4153-1-2-2"
         style="fill:#a85f25;fill-opacity:1;fill-rule:nonzero;stroke:none" />
      <path
         inkscape:connector-curvature="0"
         d="m 9850.0941,14170.792 484.7859,-35.77 376.089,316.773 574.926,1478.136 c -526.359,83.38 -1594.6919,-309.489 -1544.9309,-718.63 43.826,-360.343 470.9279,-610.828 109.13,-1040.509 z"
         id="path4199-7-1-7"
         style="fill:#ab5f26;fill-opacity:1;fill-rule:nonzero;stroke:none" />
      <path
         inkscape:connector-curvature="0"
         d="m 11848.225,12935.545 c -92.496,39.319 -245.621,83.45 -298.7,162.498 l -17.267,-226.839 z"
         id="path4201-1-6-7"
         style="fill:#8a4b1f;fill-opacity:1;fill-rule:nonzero;stroke:none" />
      <path
         inkscape:connector-curvature="0"
         d="m 12007.251,13697.865 -351.297,45.615 274.9,277.256 z"
         id="path4203-1-8-9"
         style="fill:#ab5f26;fill-opacity:1;fill-rule:nonzero;stroke:none" />
      <path
         inkscape:connector-curvature="0"
         d="m 10662.68,11878.956 c -385.716,147.839 -561.518,301.24 -701.5209,569.114 -233.951,447.618 494.7179,580.141 156.5779,920.085 439.246,-305.396 437.734,561.043 410.983,755.192 -9.593,69.611 -98.97,77.462 -195.86,9.355 173.312,481.883 -232.959,743.901 -139.008,1059.047 141.79,475.6 581.642,874.35 1403.364,702.01 781.639,-149.703 999.926,-645.123 940.247,-1076.994 -25.56,-184.979 -203.881,-367.209 -351.87,-543.465 -126.846,-151.077 -211.875,-280.662 -178.342,-575.435 -36.081,64.725 -115.049,164.403 -179.304,117.142 -113.619,-83.568 -261.109,-555.147 -233.851,-764.841 9.76,-75.063 75.427,-106.088 254.129,-114.621 -561.83,-172.856 103.96,-452.534 -306.191,-828.627 -271.045,-248.538 -619.981,-256.569 -879.354,-227.962 z"
         id="path4120-5-6-3"
         style="fill:#db8f44;fill-opacity:1;fill-rule:nonzero;stroke:none" />
      <path
         inkscape:connector-curvature="0"
         d="m 11081.624,14819.222 -22.098,11.048 88.389,209.922 c 251.591,23.505 342.136,601.778 398.852,866.206 -19.846,-256.681 86.531,-723.58 -351.896,-885.541 z"
         id="path4376-5-1"
         style="fill:#1f171c;fill-opacity:1;fill-rule:nonzero;stroke:none" />
      <path
         inkscape:connector-curvature="0"
         d="m 11147.915,15040.192 c 251.591,23.505 342.136,601.778 398.852,866.206 -27.268,-230.119 88.326,-719.713 -350.101,-881.674 z"
         id="path4378-7-9"
         style="fill:#000000;fill-opacity:1;fill-rule:nonzero;stroke:none" />
      <path
         inkscape:connector-curvature="0"
         d="m 10774.451,13369.095 c 90.741,39.763 107.468,-41.968 102.459,-84.175 -14.735,-124.141 -152.259,-106.712 -191.73,-62.13 -69.486,78.479 1.321,211.213 41.858,283.667 46.062,82.334 95.288,164.539 130.089,247.335 34.944,83.14 85.113,268.085 -30.788,328.449 -133.757,69.665 -183.716,-197.878 -134.169,-237.17 5.959,87.051 55.401,97.358 94.748,81.552 59.346,-23.838 51.052,-139.315 -47.862,-142.548 -50.837,-1.662 -124.799,20.717 -117.109,143.851 2.65,42.437 54.739,251.744 208.473,211.406 98.54,-25.856 160.877,-185.022 94.959,-331.465 -48.656,-108.099 -98.527,-215.937 -158.775,-321.208 -30.91,-54.002 -71.214,-125.128 -56.954,-190.346 11.249,-51.451 54.455,-63.67 81.865,-50.65 40.472,19.224 74.607,91.77 -17.064,123.432 z"
         id="path4252-82-2-1-8"
         style="fill:#1f171c;fill-opacity:1;fill-rule:nonzero;stroke:none" />
      <path
         inkscape:connector-curvature="0"
         d="m 11347.872,13237.196 c -56.083,67.139 -101.484,2.169 -112.047,-43.129 -25.727,-110.302 78.635,-146.47 133.364,-126.011 81.094,30.314 85.506,187.052 73.49,271.515 -12.942,90.959 -26.176,216.23 -27.796,298.919 -2.098,107.146 36.948,282.464 153.525,272.979 124.151,-10.102 76.382,-258.252 15.228,-269.159 36.156,73.125 -4.483,110.298 -40.814,113.515 -68.854,6.095 -90.364,-108.275 -27.966,-144.574 43.522,-25.32 105.913,-38.111 151.64,64.89 16.988,38.27 49.11,265.223 -75.582,285.169 -128.626,20.576 -203.747,-109.186 -212.129,-267.781 -5.384,-101.861 12.627,-232.367 23.067,-351.854 5.364,-61.358 18.124,-151.224 -24.015,-201.449 -29.582,-35.254 -71.071,-27.173 -86.611,-6.981 -19.407,25.215 -26.699,110.744 56.646,103.951 z"
         id="path4252-8-4-7-8-6"
         style="fill:#1f171c;fill-opacity:1;fill-rule:nonzero;stroke:none" />
      <path
         inkscape:connector-curvature="0"
         d="m 10438.755,11954.978 95.469,-23.1 200.758,977.732 58.594,3.906 c -153.474,-881.383 -317.176,-1754.754 -603.906,-2600 l -88.255,60.136 c 231.939,589.425 285.568,1071.37 337.34,1581.326 z"
         id="path4352-9-5"
         style="fill:#1f171c;fill-opacity:1;fill-rule:nonzero;stroke:none" />
      <path
         inkscape:connector-curvature="0"
         d="m 10793.576,12913.516 327.344,-87.5 -740.625,-2548.437 -190.625,35.937 z"
         id="path4354-2-0"
         style="fill:#262321;fill-opacity:1;fill-rule:nonzero;stroke:none" />
      <path
         inkscape:connector-curvature="0"
         d="m 11020.857,14180.616 30.935,139.211 411.006,-108.275 -17.677,-99.437 z"
         id="path4380-7-2"
         style="fill:#f6ddb5;fill-opacity:1;fill-rule:nonzero;stroke:none" />
      <path
         inkscape:connector-curvature="0"
         d="m 10250.359,10345.123 -14.626,3.312 c 292.852,1293.253 581.765,2590.865 917.063,3871.656 0,0 0.03,0 0.03,0 40.614,197.147 67.498,389.925 100.375,584.907 l 14.813,-2.5 c -32.853,-194.841 -59.806,-387.945 -100.593,-585.844 l -0.06,-0.188 -0.03,-0.187 c -335.204,-1280.432 -624.11,-2577.868 -916.968,-3871.156 z"
         id="path4382-9-8"
         style="font-size:medium;font-style:normal;font-variant:normal;font-weight:normal;font-stretch:normal;text-indent:0;text-align:start;text-decoration:none;line-height:normal;letter-spacing:normal;word-spacing:normal;text-transform:none;direction:ltr;block-progression:tb;writing-mode:lr-tb;text-anchor:start;baseline-shift:baseline;color:#000000;fill:#d8c6b9;fill-opacity:1;stroke:none;stroke-width:15;marker:none;visibility:visible;display:inline;overflow:visible;enable-background:accumulate;font-family:Sans;-inkscape-font-specification:Sans" />
      <path
         inkscape:connector-curvature="0"
         d="m 10290.109,10336.123 -14.563,3.593 954.469,3866.5 101.656,581.157 14.781,-2.594 -101.656,-581.156 -0.03,-0.25 -0.06,-0.25 -954.593,-3867 z"
         id="path4388-5-6"
         style="font-size:medium;font-style:normal;font-variant:normal;font-weight:normal;font-stretch:normal;text-indent:0;text-align:start;text-decoration:none;line-height:normal;letter-spacing:normal;word-spacing:normal;text-transform:none;direction:ltr;block-progression:tb;writing-mode:lr-tb;text-anchor:start;baseline-shift:baseline;color:#000000;fill:#d8c6b9;fill-opacity:1;stroke:none;stroke-width:15;marker:none;visibility:visible;display:inline;overflow:visible;enable-background:accumulate;font-family:Sans;-inkscape-font-specification:Sans" />
      <path
         inkscape:connector-curvature="0"
         d="m 10325.421,10324.998 -14.5,3.781 1009.719,3859.844 75.062,558.687 14.875,-2 -75.125,-559.062 -0.06,-0.469 -0.125,-0.438 -1009.846,-3860.343 z"
         id="path4394-4-0"
         style="font-size:medium;font-style:normal;font-variant:normal;font-weight:normal;font-stretch:normal;text-indent:0;text-align:start;text-decoration:none;line-height:normal;letter-spacing:normal;word-spacing:normal;text-transform:none;direction:ltr;block-progression:tb;writing-mode:lr-tb;text-anchor:start;baseline-shift:baseline;color:#000000;fill:#d8c6b9;fill-opacity:1;stroke:none;stroke-width:15;marker:none;visibility:visible;display:inline;overflow:visible;enable-background:accumulate;font-family:Sans;-inkscape-font-specification:Sans" />
      <path
         inkscape:connector-curvature="0"
         d="m 10354.14,10327.123 -14.469,3.937 1049.531,3846.906 83.875,538.563 14.813,-2.313 -83.969,-539.187 -0.06,-0.406 -0.126,-0.407 -1049.593,-3847.093 z"
         id="path4396-3-2"
         style="font-size:medium;font-style:normal;font-variant:normal;font-weight:normal;font-stretch:normal;text-indent:0;text-align:start;text-decoration:none;line-height:normal;letter-spacing:normal;word-spacing:normal;text-transform:none;direction:ltr;block-progression:tb;writing-mode:lr-tb;text-anchor:start;baseline-shift:baseline;color:#000000;fill:#d8c6b9;fill-opacity:1;stroke:none;stroke-width:15;marker:none;visibility:visible;display:inline;overflow:visible;enable-background:accumulate;font-family:Sans;-inkscape-font-specification:Sans" />
      <path
         inkscape:connector-curvature="0"
         d="m 11081.624,14819.222 557.951,-175.672 -4.419,244.173 c -185.718,149.653 -32.101,669.626 30.935,994.368 l -119.324,24.307 c -54.849,-268.718 -106.631,-795.176 -364.602,-877.254 z"
         id="path4356-1-4"
         style="fill:#262321;fill-opacity:1;fill-rule:nonzero;stroke:none" />
      <path
         inkscape:connector-curvature="0"
         d="m 9881.8101,8621.7786 301.6099,-3.7482 c 119.521,239.1748 122.844,501.7867 117.188,731.4233 -2.637,107.0483 -103.372,123.8355 -151.895,151.8631 l 492.52,816.8872 -367.188,50 C 9964.6331,9826.0079 9930.1971,9221.0735 9881.8101,8621.7786 z"
         id="path4408-2-8"
         style="fill:#db8f44;fill-opacity:1;fill-rule:nonzero;stroke:none" />
      <path
         inkscape:connector-curvature="0"
         d="m 10103.733,10380.704 170.312,-12.5 -267.188,-892.1878 c 66,73.6149 134.591,27.24 148.17,-8.5382 106.939,-281.7508 -166.6549,-921.8715 -295.0439,-838.3368 -114.809,74.6986 -157.972,510.129 -54.688,834.375 97.581,306.3404 298.4379,917.1878 298.4379,917.1878 z"
         id="path4406-3-6"
         style="fill:#a85f25;fill-opacity:1;stroke:none" />
      <path
         inkscape:connector-curvature="0"
         d="m 10004.564,9069.3307 c 33.413,-90.3932 -27.2849,-137.3116 -54.2159,-136.9627 -120.521,1.5614 -83.253,255.3579 -65.281,313.9682 67.389,219.769 167.4969,308.4988 243.0169,253.7004 -121.745,25.1087 -192.6369,-163.3449 -218.7109,-258.1198 -39.59,-143.9028 -9.24,-280.7221 35.355,-279.5281 44.3,1.1861 51.824,61.1493 59.8359,106.942 z"
         id="path4410-3-5"
         style="fill:#713104;fill-opacity:1;fill-rule:nonzero;stroke:none" />
      <path
         inkscape:connector-curvature="0"
         d="m 9645.9201,9507.2662 c -344.479,129.6513 -207.701,432.0373 110.938,356.2499 -71.905,-104.1298 -160.808,-201.1446 -110.938,-356.2499"
         id="path4414-4-0"
         style="fill:#1f171c;fill-opacity:1;fill-rule:nonzero;stroke:none" />
      <path
         inkscape:connector-curvature="0"
         d="m 9872.3711,9592.9356 -193.75,57.1653 -32.701,-142.8347 c -252.258,96.3617 -165.761,424.3701 110.938,356.2499 l -45.313,-140.6249 184.911,-73.8952 c 16.114,-6.4394 10.775,-66.3456 -24.085,-56.0604 z"
         id="path4412-1-9"
         style="fill:#262321;fill-opacity:1;fill-rule:nonzero;stroke:none" />
      <path
         inkscape:connector-curvature="0"
         d="m 9816.4421,10018.123 c -335.626,151.097 -180.069,444.265 133.162,348.553 -78.322,-99.393 -173.161,-190.614 -133.162,-348.553"
         id="path4414-1-1-0"
         style="fill:#1f171c;fill-opacity:1;fill-rule:nonzero;stroke:none" />
      <path
         inkscape:connector-curvature="0"
         d="m 10034.789,10078.231 -176.7119,74.859 -41.635,-134.967 c -245.686,112.063 -138.695,433.971 133.162,348.553 l -55.187,-146.329 167.9419,-87.684 c 16.328,-8.526 -2.997,-64.842 -27.57,-54.432 z"
         id="path4412-4-3-0"
         style="fill:#262321;fill-opacity:1;fill-rule:nonzero;stroke:none" />
    </g>
  </g>
</svg>
