<?xml version="1.0" encoding="UTF-8" standalone="no"?>
<!-- Created with Inkscape (http://www.inkscape.org/) -->

<svg
   xmlns:dc="http://purl.org/dc/elements/1.1/"
   xmlns:cc="http://creativecommons.org/ns#"
   xmlns:rdf="http://www.w3.org/1999/02/22-rdf-syntax-ns#"
   xmlns:svg="http://www.w3.org/2000/svg"
   xmlns="http://www.w3.org/2000/svg"
   xmlns:sodipodi="http://sodipodi.sourceforge.net/DTD/sodipodi-0.dtd"
   xmlns:inkscape="http://www.inkscape.org/namespaces/inkscape"
   width="416.17688"
   height="411.26697"
   id="svg4236"
   version="1.1"
   inkscape:version="0.48.4 r9939"
   sodipodi:docname="element_of_time.svg">
  <defs
     id="defs4238" />
  <sodipodi:namedview
     id="base"
     pagecolor="#ffffff"
     bordercolor="#666666"
     borderopacity="1.0"
     inkscape:pageopacity="0.0"
     inkscape:pageshadow="2"
     inkscape:zoom="0.35"
     inkscape:cx="208.08844"
     inkscape:cy="205.63349"
     inkscape:document-units="px"
     inkscape:current-layer="layer1"
     showgrid="false"
     fit-margin-top="124.69"
     fit-margin-left="0"
     fit-margin-right="0"
     fit-margin-bottom="124.69"
     inkscape:window-width="463"
     inkscape:window-height="423"
     inkscape:window-x="1305"
     inkscape:window-y="250"
     inkscape:window-maximized="0" />
  <metadata
     id="metadata4241">
    <rdf:RDF>
      <cc:Work
         rdf:about="">
        <dc:format>image/svg+xml</dc:format>
        <dc:type
           rdf:resource="http://purl.org/dc/dcmitype/StillImage" />
        <dc:title />
      </cc:Work>
    </rdf:RDF>
  </metadata>
  <g
     inkscape:label="Layer 1"
     inkscape:groupmode="layer"
     id="layer1"
     transform="translate(-166.91156,-326.72871)">
    <g
       style="display:inline"
       id="g4993"
       transform="matrix(0.11885481,0,0,0.11646297,344.26435,1113.7956)">
      <g
         transform="matrix(1.7071968,0,0,1.7523708,489.67483,-5344.6156)"
         id="g3796"
         style="display:inline">
        <path
           style="color:#000000;fill:#dec725;fill-opacity:1;stroke:none;stroke-width:9;marker:none;visibility:visible;display:inline;overflow:visible;enable-background:accumulate"
           d="m -1085.4574,-165.54018 c -84.0584,129.350803 -123.7271,412.80188 200.04313,424.19556 l 68.52623,-41.65531 c 1.52992,54.1655 -19.3609,107.59853 87.22699,142.84456 36.14524,5.2273 72.29049,-13.81272 108.43574,-62.13376 24.00655,325.58681 360.42547,209.08552 355.35595,208.83528 17.54083,-19.94873 0.89841,-10.06626 0.2165,-50.79513 22.0899,-32.58145 153.07715,-117.90946 167.589927,-160.1736 C -301.88408,162.16064 -252.64636,140.45173 -267.66046,107.89142 -667.86801,107.39236 -1085.0953,54.829283 -1085.4574,-165.54018 z"
           id="path3052-174"
           inkscape:connector-curvature="0"
           sodipodi:nodetypes="cccccccccc"
           inkscape:export-filename="C:\Users\Charles\Documents\Heather\Vector Art\Inkscape\scratch_element.png"
           inkscape:export-xdpi="200"
           inkscape:export-ydpi="200" />
        <path
           style="color:#000000;fill:#f1e665;fill-opacity:1;stroke:none;stroke-width:9;marker:none;visibility:visible;display:inline;overflow:visible;enable-background:accumulate"
           d="m -807.80002,272.1344 36.62599,-200.657377 52.94687,10.25771 -44.65231,266.426357 c -24.89123,-19.61272 -42.69604,-15.59442 -44.92055,-76.02669 z"
           id="path3078-0"
           inkscape:connector-curvature="0"
           sodipodi:nodetypes="ccccc"
           inkscape:export-filename="C:\Users\Charles\Documents\Heather\Vector Art\Inkscape\scratch_element.png"
           inkscape:export-xdpi="200"
           inkscape:export-ydpi="200" />
        <path
           style="font-size:medium;font-style:normal;font-variant:normal;font-weight:normal;font-stretch:normal;text-indent:0;text-align:start;text-decoration:none;line-height:normal;letter-spacing:normal;word-spacing:normal;text-transform:none;direction:ltr;block-progression:tb;writing-mode:lr-tb;text-anchor:start;baseline-shift:baseline;color:#000000;fill:#ac943d;fill-opacity:1;stroke:none;stroke-width:13.12080383;marker:none;visibility:visible;display:inline;overflow:visible;enable-background:accumulate;font-family:Sans;-inkscape-font-specification:Sans"
           d="m -1113.9431,-134.5531 c -3.8093,76.313053 32.1429,147.237583 98.9062,202.906243 66.76335,55.668657 164.27368,96.507777 284.93755,114.218747 69.64929,10.22308 157.16497,24.49236 241.375,12.9375 74.09443,-10.16686 122.87325,-7.7947 152.9375,9.0625 30.06425,16.85721 43.94823,48.34977 47.96875,102.28125 2.72501,36.55338 -3.55498,60.56131 -21.5625,76.3125 -18.00752,15.75119 -49.71133,24.0523 -99.625,24.5 -28.76941,0.25804 -64.99485,-14.90438 -87.75,-38.75 -22.75515,-23.84562 -32.78987,-54.71789 -12.3125,-90.34375 11.19547,-19.47713 34.41343,-32.25847 58,-38.71875 32.86063,-9.0095 66.76426,-5.17826 89.90625,17.9375 21.27461,23.22752 1.83053,66.96754 -21.84375,79.96875 -12.87902,6.70836 -27.34158,4.96193 -39.25,-1.3125 -11.90842,-6.27443 -20.40733,-17.15446 -21.53125,-26.125 -0.84316,-23.98325 29.52462,-29.39166 44.89024,-35.95562 -26.34625,-2.64276 -61.16954,7.97225 -57.89024,37.58062 1.88447,15.04091 13.45226,28.21464 28.40625,36.09375 14.95399,7.87911 34.15748,10.37573 51.4375,1.375 36.7453,-20.32863 57.57028,-67.28911 25.1875,-100.78125 -28.49749,-28.39354 -69.65969,-30.22144 -102.78125,-21.4375 -25.66453,7.02942 -52.1199,20.85919 -65.90625,44.84375 -23.15171,40.27858 -11.32562,79.16899 14.21875,105.9375 25.54437,26.76851 64.04159,43.1112 97.34375,42.8125 51.27768,-0.45994 86.20339,-8.57515 108.125,-27.75 21.92161,-19.17485 28.87329,-48.61391 26,-87.15625 -4.16441,-55.86152 -19.84282,-93.29619 -54.59375,-112.78125 -34.75093,-19.48505 -86.06367,-20.89757 -161.15625,-10.59375 -81.54189,11.18875 -167.87901,-2.65981 -237.6875,-12.90625 -118.79665,-17.43691 -214.08326,-57.68381 -278.4375,-111.343747 -64.3542,-53.6599396 -97.8041,-120.33001 -94.2188,-192.156243 z"
           id="path3825-7"
           inkscape:connector-curvature="0"
           sodipodi:nodetypes="cssssssssscccscccscccssssssssscc"
           inkscape:export-filename="C:\Users\Charles\Documents\Heather\Vector Art\Inkscape\scratch_element.png"
           inkscape:export-xdpi="200"
           inkscape:export-ydpi="200" />
        <path
           sodipodi:nodetypes="cscscccc"
           inkscape:connector-curvature="0"
           id="path3054-1"
           d="m -263.20011,103.62021 c -22.22742,1.99621 -43.42659,3.13789 -77.2371,3.08873 -248.14592,-0.36079 -788.89679,-34.432337 -731.72449,-292.53498 -130.6911,145.087743 -114.2587,431.69956 166.25425,447.10618 30.0274,1.64919 60.52438,-14.60479 90.29106,-54.23233 -22.2788,122.15246 97.34401,233.61757 204.28636,80.88572 8.45235,176.00651 95.64975,241.35302 229.66404,240.90859 58.01171,2.53904 88.31063,-15.29364 121.29652,-21.9616"
           style="color:#000000;fill:none;stroke:#ac943d;stroke-width:19.68120575;stroke-linecap:butt;stroke-linejoin:miter;stroke-miterlimit:10;stroke-opacity:1;stroke-dasharray:none;stroke-dashoffset:0;marker:none;visibility:visible;display:inline;overflow:visible;enable-background:accumulate"
           inkscape:export-filename="C:\Users\Charles\Documents\Heather\Vector Art\Inkscape\scratch_element.png"
           inkscape:export-xdpi="200"
           inkscape:export-ydpi="200" />
      </g>
      <g
         transform="matrix(1.8297729,0,0,1.7461135,-1479.181,-5424.9847)"
         id="g3807"
         style="display:inline">
        <path
           style="color:#000000;fill:#dec725;fill-opacity:1;stroke:none;stroke-width:9;marker:none;visibility:visible;display:inline;overflow:visible;enable-background:accumulate"
           d="m 1834.7586,-117.23242 c 80.1396,129.419682 117.959,413.02174 -190.7172,424.42149 l -65.3316,-41.67748 c -1.4586,54.19434 18.4583,107.6558 -83.1605,142.9206 -34.4602,5.2301 -68.9204,-13.82 -103.3805,-62.16682 -50.6598,322.41972 -311.1395,207.60492 -332.8823,211.36732 19.4029,-81.33167 -142.82601,-175.63458 -144.60582,-209.56825 -7.0737,-32.74616 63.13224,-29.51513 80.49034,-88.55028 59.36758,-49.58241 74.64788,-36.62866 62.86668,-103.16845 383.7486,-3.56347 786.5056,-53.64467 776.7209,-273.57813 z"
           id="path3052-1"
           inkscape:connector-curvature="0"
           sodipodi:nodetypes="cccccccccc"
           inkscape:export-filename="C:\Users\Charles\Documents\Heather\Vector Art\Inkscape\scratch_element.png"
           inkscape:export-xdpi="200"
           inkscape:export-ydpi="200" />
        <path
           style="color:#000000;fill:#f1e665;fill-opacity:1;stroke:none;stroke-width:20;marker:none;visibility:visible;display:inline;overflow:visible;enable-background:accumulate"
           d="m 1337.3397,494.62469 1.845,-351.07683 150.608,-18.86482 -0.718,291.81935 c -36.4733,-6.9268 -77.5258,-46.9202 -113.9991,-97.43397 -6.5971,111.96237 12.5234,137.56597 -37.7359,175.55627 z"
           id="path3851"
           inkscape:connector-curvature="0"
           sodipodi:nodetypes="cccccc"
           inkscape:export-filename="C:\Users\Charles\Documents\Heather\Vector Art\Inkscape\scratch_element.png"
           inkscape:export-xdpi="200"
           inkscape:export-ydpi="200" />
        <path
           style="color:#000000;fill:#f1e665;fill-opacity:1;stroke:none;stroke-width:20;marker:none;visibility:visible;display:inline;overflow:visible;enable-background:accumulate"
           d="m 1581.156,250.03549 -2.8875,-144.32453 82.0862,-24.485828 7.1317,229.146768 c -30.9155,-13.11603 -55.4149,14.76979 -86.3304,-60.33641 z"
           id="path3858"
           inkscape:connector-curvature="0"
           sodipodi:nodetypes="ccccc"
           inkscape:export-filename="C:\Users\Charles\Documents\Heather\Vector Art\Inkscape\scratch_element.png"
           inkscape:export-xdpi="200"
           inkscape:export-ydpi="200" />
        <path
           sodipodi:nodetypes="cscsccsc"
           inkscape:connector-curvature="0"
           id="path3054-1-0"
           d="m 1045.9127,152.37731 c 21.8966,2.273 52.2421,2.97632 89.3217,2.75268 241.057,-1.45394 740.5427,-38.2686 686.8483,-292.65901 124.5984,145.164932 108.9321,431.92943 -158.5035,447.34426 -28.6276,1.64999 -57.7028,-14.61252 -86.0818,-54.2612 21.2402,122.21755 -92.8059,233.74195 -194.7626,80.92878 -9.1005,198.87557 -113.9495,256.54137 -270.7039,237.65837 -9.2343,-1.1124 -46.8433,-13.1476 -56.429,-14.778"
           style="color:#000000;fill:none;stroke:#ac943d;stroke-width:19.22208405;stroke-linecap:butt;stroke-linejoin:miter;stroke-miterlimit:10;stroke-opacity:1;stroke-dasharray:none;stroke-dashoffset:0;marker:none;visibility:visible;display:inline;overflow:visible;enable-background:accumulate"
           inkscape:export-filename="C:\Users\Charles\Documents\Heather\Vector Art\Inkscape\scratch_element.png"
           inkscape:export-xdpi="200"
           inkscape:export-ydpi="200" />
        <path
           style="font-size:medium;font-style:normal;font-variant:normal;font-weight:normal;font-stretch:normal;text-indent:0;text-align:start;text-decoration:none;line-height:normal;letter-spacing:normal;word-spacing:normal;text-transform:none;direction:ltr;block-progression:tb;writing-mode:lr-tb;text-anchor:start;baseline-shift:baseline;color:#000000;fill:#ac943d;fill-opacity:1;stroke:none;stroke-width:12.81472301;marker:none;visibility:visible;display:inline;overflow:visible;enable-background:accumulate;font-family:Sans;-inkscape-font-specification:Sans"
           d="m 1862.086,-86.186548 -12.8125,0.59375 c 3.4256,72.0206 -28.534,138.82291 -89.875,192.499998 -61.341,53.67709 -152.1178,93.90739 -265.3125,111.34375 -66.5595,10.25275 -148.8513,24.08775 -226.5,12.90625 -71.626,-10.31427 -121.44,-10.27541 -153.875,10.65625 -36.5382,23.57966 -48.4065,55.44579 -51.1699,102.52835 -1.9156,32.63779 9.8203,65.37297 32.6743,90.62079 14.6097,16.15109 32.8308,27.16499 52.6829,32.7884 43.5347,12.33188 94.4179,-0.791 132.25,-38.6563 l 0.062,-0.031 0.031,-0.031 c 26.0427,-26.9256 38.8028,-66.6734 16.0312,-108.24999 l 0,-0.0312 -0.031,-0.0312 c -18.5273,-32.81501 -61.242,-48.60969 -99.5,-47.625 -19.1289,0.49235 -37.3738,5.24385 -51.2812,15.1875 -13.9074,9.94366 -23.1306,25.5862 -22.9375,45.4375 l 0,0.0937 0,0.125 c 1.3172,32.37299 12.5218,52.03029 28.4062,60.87499 15.8845,8.8447 34.7329,6.4646 50.1563,-0.8125 15.4234,-7.277 28.2468,-19.3653 31.9062,-33.71874 7.1319,-38.63336 -34.7728,-41.28665 -62.232,-40.43308 20.9941,7.87872 53.3956,7.0612 49.8257,37.27678 -1.0382,8.78804 -12.2385,19.27484 -24.9687,25.28124 -12.7302,6.0064 -27.3058,7.4032 -38.4688,1.1875 -11.138,-6.2018 -20.5688,-20.4053 -21.8125,-49.99999 -4e-4,-0.0435 4e-4,-0.0816 0,-0.125 -9e-4,-0.0221 9e-4,-0.0404 0,-0.0625 -0.1002,-15.91211 6.512,-26.81772 17.5625,-34.71875 11.0957,-7.9333 27.0007,-12.33889 44.1875,-12.78125 34.348,-0.88405 72.8238,14.28664 87.9688,41.03125 0.011,0.0201 0.02,0.0423 0.031,0.0625 20.1635,36.87384 9.2195,68.97774 -14,93.03124 -34.8198,34.8504 -80.9705,46.3421 -119.6875,35.375 -38.5795,-10.9282 -75.4508,-43.27921 -76.875,-100.62499 -1.3357,-53.78311 17.2182,-85.15388 45.6875,-101.90625 28.5797,-16.81735 74.9566,-19.19861 145.5625,-9.03125 80.3758,11.57421 163.8531,-2.7098 230.25,-12.9375 115.1024,-17.73022 208.1486,-58.63399 271.8125,-114.34375 63.6639,-55.709758 97.8743,-126.552338 94.25,-202.749998 z"
           id="path3825-7-4"
           inkscape:connector-curvature="0"
           sodipodi:nodetypes="ccssssscsccccccsscccssccssscccsscccsssssscc"
           inkscape:export-filename="C:\Users\Charles\Documents\Heather\Vector Art\Inkscape\scratch_element.png"
           inkscape:export-xdpi="200"
           inkscape:export-ydpi="200" />
      </g>
      <path
         sodipodi:nodetypes="ccccc"
         inkscape:connector-curvature="0"
         id="path3023-9"
         d="m -18.189266,-5200.9368 122.527896,58.0181 296.4366,2.7346 132.5787,-68.8339 z"
         style="color:#000000;fill:#6f6fff;fill-opacity:1;stroke:none;stroke-width:10;marker:none;visibility:visible;display:inline;overflow:visible;enable-background:accumulate" />
      <path
         sodipodi:nodetypes="ccccc"
         inkscape:connector-curvature="0"
         id="path3809-4"
         d="m -25.214766,-5197.1269 -6.4285,126.7857 135.714296,-27.8571 0,-40.7143 z"
         style="color:#000000;fill:#4a4aff;fill-opacity:1;stroke:none;stroke-width:10;marker:none;visibility:visible;display:inline;overflow:visible;enable-background:accumulate" />
      <path
         sodipodi:nodetypes="ccccc"
         inkscape:connector-curvature="0"
         id="path3811-8"
         d="m 402.64243,-5138.1983 0,42.1428 132.1428,18.5714 -2.1428,-125 z"
         style="color:#000000;fill:#4a4aff;fill-opacity:1;stroke:none;stroke-width:10;marker:none;visibility:visible;display:inline;overflow:visible;enable-background:accumulate" />
      <path
         sodipodi:nodetypes="ccccccc"
         inkscape:connector-curvature="0"
         id="path3813-8"
         d="m -27.785766,-5072.6474 132.282796,-23.2335 146.3101,163.8923 153.5903,-164.9384 129.9667,22.2593 -277.792,251.0229 z"
         style="color:#000000;fill:#2c2cff;fill-opacity:1;stroke:none;stroke-width:10;marker:none;visibility:visible;display:inline;overflow:visible;enable-background:accumulate" />
      <path
         sodipodi:nodetypes="ccccc"
         inkscape:connector-curvature="0"
         id="path3023-1"
         d="m -20.078066,-4391.2584 124.449796,-65.4962 296.1983,-2.9919 132.4721,75.3092 z"
         style="color:#000000;fill:#2c2cff;fill-opacity:1;stroke:none;stroke-width:10;marker:none;visibility:visible;display:inline;overflow:visible;enable-background:accumulate" />
      <path
         sodipodi:nodetypes="ccccc"
         inkscape:connector-curvature="0"
         id="path3809-7"
         d="m -25.077466,-4397.4469 -6.4234,-138.7126 135.605196,30.4777 0,44.5443 z"
         style="color:#000000;fill:#4a4aff;fill-opacity:1;stroke:none;stroke-width:10;marker:none;visibility:visible;display:inline;overflow:visible;enable-background:accumulate" />
      <path
         sodipodi:nodetypes="ccccc"
         inkscape:connector-curvature="0"
         id="path3811-4"
         d="m 402.43563,-4461.919 0,-46.1073 132.0366,-20.3185 -2.1411,136.7589 z"
         style="color:#000000;fill:#4a4aff;fill-opacity:1;stroke:none;stroke-width:10;marker:none;visibility:visible;display:inline;overflow:visible;enable-background:accumulate" />
      <path
         sodipodi:nodetypes="ccccccc"
         inkscape:connector-curvature="0"
         id="path3813-0"
         d="m -27.646466,-4533.6363 132.176496,25.4191 146.1924,-179.3099 153.4669,180.4543 129.8621,-24.3532 -277.5686,-274.6367 z"
         style="color:#000000;fill:#6f6fff;fill-opacity:1;stroke:none;stroke-width:10;marker:none;visibility:visible;display:inline;overflow:visible;enable-background:accumulate" />
      <path
         sodipodi:nodetypes="cc"
         inkscape:connector-curvature="0"
         id="path3019-9"
         d="m 253.51603,-4684.2364 1.8097,-120.7212"
         style="color:#000000;fill:none;stroke:#0000b3;stroke-width:10.4555769;stroke-linecap:butt;stroke-linejoin:miter;stroke-miterlimit:4;stroke-opacity:1;stroke-dasharray:none;stroke-dashoffset:0;marker:none;visibility:visible;display:inline;overflow:visible;enable-background:accumulate" />
      <path
         sodipodi:nodetypes="cccccc"
         inkscape:connector-curvature="0"
         id="path3009-8"
         d="m 252.96003,-4687.5594 147.7874,179.5775 -0.6483,46.409 c -119.0314,-0.1359 -181.9196,-0.083 -292.9361,0.7815 l -1.2964,-45.6724 c 48.7456,-62.5738 94.4455,-119.4671 147.0934,-181.0956 z"
         style="color:#000000;fill:#9eb9ff;fill-opacity:1;stroke:#0000b3;stroke-width:10.4555769;stroke-linecap:butt;stroke-linejoin:miter;stroke-miterlimit:4;stroke-opacity:1;stroke-dasharray:none;stroke-dashoffset:0;marker:none;visibility:visible;display:inline;overflow:visible;enable-background:accumulate" />
      <path
         sodipodi:nodetypes="cc"
         inkscape:connector-curvature="0"
         id="path3011-8"
         d="m -27.141766,-4531.426 134.564996,24.2422"
         style="color:#000000;fill:none;stroke:#0000b3;stroke-width:10.4555769;stroke-linecap:butt;stroke-linejoin:miter;stroke-miterlimit:4;stroke-opacity:1;stroke-dasharray:none;stroke-dashoffset:0;marker:none;visibility:visible;display:inline;overflow:visible;enable-background:accumulate" />
      <path
         sodipodi:nodetypes="cc"
         inkscape:connector-curvature="0"
         id="path3013-2"
         d="m -24.618466,-4393.2787 134.608396,-68.2908"
         style="color:#000000;fill:none;stroke:#0000b3;stroke-width:10.4555769;stroke-linecap:butt;stroke-linejoin:miter;stroke-miterlimit:4;stroke-opacity:1;stroke-dasharray:none;stroke-dashoffset:0;marker:none;visibility:visible;display:inline;overflow:visible;enable-background:accumulate" />
      <path
         sodipodi:nodetypes="cc"
         inkscape:connector-curvature="0"
         id="path3017-4"
         d="m 401.12543,-4507.5306 c 11.3118,-2.6289 134.9447,-21.685 134.9447,-21.685"
         style="color:#000000;fill:none;stroke:#0000b3;stroke-width:10.4555769;stroke-linecap:butt;stroke-linejoin:miter;stroke-miterlimit:4;stroke-opacity:1;stroke-dasharray:none;stroke-dashoffset:0;marker:none;visibility:visible;display:inline;overflow:visible;enable-background:accumulate" />
      <path
         sodipodi:nodetypes="cc"
         inkscape:connector-curvature="0"
         id="path3015-5"
         d="m 399.22923,-4461.5383 131.7942,74.8907"
         style="color:#000000;fill:none;stroke:#0000b3;stroke-width:10.4555769;stroke-linecap:butt;stroke-linejoin:miter;stroke-miterlimit:4;stroke-opacity:1;stroke-dasharray:none;stroke-dashoffset:0;marker:none;visibility:visible;display:inline;overflow:visible;enable-background:accumulate" />
      <path
         sodipodi:nodetypes="cc"
         inkscape:connector-curvature="0"
         id="path3930"
         d="m -68.615766,-5246.4952 642.355496,-5.0507"
         style="color:#000000;fill:none;stroke:#dec725;stroke-width:75;stroke-linecap:butt;stroke-linejoin:miter;stroke-miterlimit:4;stroke-opacity:1;stroke-dasharray:none;stroke-dashoffset:0;marker:none;visibility:visible;display:inline;overflow:visible;enable-background:accumulate" />
      <path
         sodipodi:nodetypes="cc"
         inkscape:connector-curvature="0"
         id="path3930-5"
         d="m -61.574266,-4346.8658 636.815596,0"
         style="color:#000000;fill:none;stroke:#dec725;stroke-width:72.64839935;stroke-linecap:butt;stroke-linejoin:miter;stroke-miterlimit:4;stroke-opacity:1;stroke-dasharray:none;stroke-dashoffset:0;marker:none;visibility:visible;display:inline;overflow:visible;enable-background:accumulate" />
      <path
         sodipodi:nodetypes="ccccc"
         inkscape:connector-curvature="0"
         id="path3957"
         d="m -39.796266,-5212.3107 -1.1327,149.1124 281.428496,250 -283.499596,272.1428 3.4489,158.4489"
         style="color:#000000;fill:none;stroke:#dec725;stroke-width:20;stroke-linecap:butt;stroke-linejoin:miter;stroke-miterlimit:4;stroke-opacity:1;stroke-dasharray:none;stroke-dashoffset:0;marker:none;visibility:visible;display:inline;overflow:visible;enable-background:accumulate" />
      <path
         sodipodi:nodetypes="ccccc"
         inkscape:connector-curvature="0"
         id="path3957-7"
         d="m 543.37673,-5215.3805 1.106,149.1543 -274.7957,250.0704 274.9643,280.3006 0.6254,154.4334"
         style="color:#000000;fill:none;stroke:#dec725;stroke-width:19.76568985;stroke-linecap:butt;stroke-linejoin:miter;stroke-miterlimit:4;stroke-opacity:1;stroke-dasharray:none;stroke-dashoffset:0;marker:none;visibility:visible;display:inline;overflow:visible;enable-background:accumulate" />
      <path
         inkscape:connector-curvature="0"
         id="path3793-2"
         d="m 5.6808345,-5210.4877 400.5260955,-2.2282"
         style="color:#000000;fill:none;stroke:#dec725;stroke-width:10;stroke-linecap:butt;stroke-linejoin:miter;stroke-miterlimit:4;stroke-opacity:1;stroke-dasharray:none;stroke-dashoffset:0;marker:none;visibility:visible;display:inline;overflow:visible;enable-background:accumulate" />
      <path
         sodipodi:nodetypes="cc"
         inkscape:connector-curvature="0"
         id="path3019"
         d="m 253.60303,-4934.9962 1.8111,110.3412"
         style="color:#000000;fill:none;stroke:#0000b3;stroke-width:10;stroke-linecap:butt;stroke-linejoin:miter;stroke-miterlimit:4;stroke-opacity:1;stroke-dasharray:none;stroke-dashoffset:0;marker:none;visibility:visible;display:inline;overflow:visible;enable-background:accumulate" />
      <path
         sodipodi:nodetypes="cccccc"
         inkscape:connector-curvature="0"
         id="path3007"
         d="m -28.750266,-5204.6628 -1.4645,132.893 285.714296,251.4286 280,-255.7143 -1.4285,-134.2857 c -186.1552,3.4039 -374.5668,6.473 -562.821296,5.6784 z"
         style="color:#000000;fill:#000000;fill-opacity:0;stroke:#0000b3;stroke-width:10;stroke-linecap:butt;stroke-linejoin:miter;stroke-miterlimit:4;stroke-opacity:1;stroke-dasharray:none;stroke-dashoffset:0;marker:none;visibility:visible;display:inline;overflow:visible;enable-background:accumulate" />
      <path
         sodipodi:nodetypes="cccccc"
         inkscape:connector-curvature="0"
         id="path3009"
         d="m 253.04653,-4931.959 147.9063,-164.1371 -0.6488,-42.4185 c -119.1272,0.1242 -182.066,0.076 -293.1718,-0.7143 l -1.2975,41.7452 c 45.2106,57.8466 94.5215,109.1952 147.2118,165.5247 z"
         style="color:#000000;fill:#9eb9ff;fill-opacity:1;stroke:#0000b3;stroke-width:10;stroke-linecap:butt;stroke-linejoin:miter;stroke-miterlimit:4;stroke-opacity:1;stroke-dasharray:none;stroke-dashoffset:0;marker:none;visibility:visible;display:inline;overflow:visible;enable-background:accumulate" />
      <path
         sodipodi:nodetypes="cc"
         inkscape:connector-curvature="0"
         id="path3011"
         d="m -27.280666,-5074.6677 134.673296,-22.1578"
         style="color:#000000;fill:none;stroke:#0000b3;stroke-width:10;stroke-linecap:butt;stroke-linejoin:miter;stroke-miterlimit:4;stroke-opacity:1;stroke-dasharray:none;stroke-dashoffset:0;marker:none;visibility:visible;display:inline;overflow:visible;enable-background:accumulate" />
      <path
         sodipodi:nodetypes="cc"
         inkscape:connector-curvature="0"
         id="path3013"
         d="m -24.755266,-5200.9368 134.716596,62.419"
         style="color:#000000;fill:none;stroke:#0000b3;stroke-width:10;stroke-linecap:butt;stroke-linejoin:miter;stroke-miterlimit:4;stroke-opacity:1;stroke-dasharray:none;stroke-dashoffset:0;marker:none;visibility:visible;display:inline;overflow:visible;enable-background:accumulate" />
      <path
         sodipodi:nodetypes="cc"
         inkscape:connector-curvature="0"
         id="path3017"
         d="m 401.33113,-5096.5086 c 11.3209,2.4029 135.0533,19.8206 135.0533,19.8206"
         style="color:#000000;fill:none;stroke:#0000b3;stroke-width:10;stroke-linecap:butt;stroke-linejoin:miter;stroke-miterlimit:4;stroke-opacity:1;stroke-dasharray:none;stroke-dashoffset:0;marker:none;visibility:visible;display:inline;overflow:visible;enable-background:accumulate" />
      <path
         sodipodi:nodetypes="cc"
         inkscape:connector-curvature="0"
         id="path3015"
         d="m 399.43333,-5138.5463 131.9003,-68.4514"
         style="color:#000000;fill:none;stroke:#0000b3;stroke-width:10;stroke-linecap:butt;stroke-linejoin:miter;stroke-miterlimit:4;stroke-opacity:1;stroke-dasharray:none;stroke-dashoffset:0;marker:none;visibility:visible;display:inline;overflow:visible;enable-background:accumulate" />
      <path
         sodipodi:nodetypes="cccccc"
         inkscape:connector-curvature="0"
         id="path3007-4"
         d="m -27.218566,-4387.6785 -2.8549,-146.9181 285.484596,-275.0805 279.7748,279.7694 -1.4274,146.9181 z"
         style="color:#000000;fill:#000000;fill-opacity:0;stroke:#0000b3;stroke-width:10.4555769;stroke-linecap:butt;stroke-linejoin:miter;stroke-miterlimit:4;stroke-opacity:1;stroke-dasharray:none;stroke-dashoffset:0;marker:none;visibility:visible;display:inline;overflow:visible;enable-background:accumulate" />
      <path
         sodipodi:nodetypes="ccccccccccccccccccc"
         inkscape:connector-curvature="0"
         id="path3932"
         d="m 579.92813,-5208.4156 -1.4286,-81.3542 -653.428496,-0.8571 -0.4185,88.8782 22.3266,0.049 -0.2307,146.3613 275.730596,241.8552 -276.518396,266.277 2.3634,158.3481 -17.3316,0 c 0.2488,27.8456 0.9299,54.5071 1.4499,82.3493 l 646.739896,-2.6752 -1.0316,-77.5551 -19.8663,0.2438 -1.1141,-154.4062 -270.7312,-275.7447 270.1741,-245.6634 -1.1141,-146.1104 z"
         style="color:#000000;fill:none;stroke:#ac943d;stroke-width:18;stroke-linecap:butt;stroke-linejoin:miter;stroke-miterlimit:4;stroke-opacity:1;stroke-dasharray:none;stroke-dashoffset:0;marker:none;visibility:visible;display:inline;overflow:visible;enable-background:accumulate" />
    </g>
  </g>
</svg>
