<?xml version="1.0" encoding="UTF-8" standalone="no"?>
<!-- Created with Inkscape (http://www.inkscape.org/) -->

<svg
   xmlns:dc="http://purl.org/dc/elements/1.1/"
   xmlns:cc="http://creativecommons.org/ns#"
   xmlns:rdf="http://www.w3.org/1999/02/22-rdf-syntax-ns#"
   xmlns:svg="http://www.w3.org/2000/svg"
   xmlns="http://www.w3.org/2000/svg"
   xmlns:xlink="http://www.w3.org/1999/xlink"
   xmlns:sodipodi="http://sodipodi.sourceforge.net/DTD/sodipodi-0.dtd"
   xmlns:inkscape="http://www.inkscape.org/namespaces/inkscape"
   width="278.711"
   height="119.89932"
   id="svg4402"
   version="1.1"
   inkscape:version="0.48.4 r9939"
   sodipodi:docname="New document 12">
  <defs
     id="defs4404">
    <clipPath
       id="SVGID_6_">
      <use
         height="1052.3622"
         width="744.09448"
         y="0"
         x="0"
         style="overflow:visible"
         xlink:href="#SVGID_5_"
         overflow="visible"
         id="use133" />
    </clipPath>
  </defs>
  <sodipodi:namedview
     id="base"
     pagecolor="#ffffff"
     bordercolor="#666666"
     borderopacity="1.0"
     inkscape:pageopacity="0.0"
     inkscape:pageshadow="2"
     inkscape:zoom="0.35"
     inkscape:cx="42.932766"
     inkscape:cy="-135.46453"
     inkscape:document-units="px"
     inkscape:current-layer="layer1"
     showgrid="false"
     fit-margin-top="0"
     fit-margin-left="0"
     fit-margin-right="0"
     fit-margin-bottom="0"
     inkscape:window-width="463"
     inkscape:window-height="423"
     inkscape:window-x="1405"
     inkscape:window-y="350"
     inkscape:window-maximized="0" />
  <metadata
     id="metadata4407">
    <rdf:RDF>
      <cc:Work
         rdf:about="">
        <dc:format>image/svg+xml</dc:format>
        <dc:type
           rdf:resource="http://purl.org/dc/dcmitype/StillImage" />
        <dc:title></dc:title>
      </cc:Work>
    </rdf:RDF>
  </metadata>
  <g
     inkscape:label="Layer 1"
     inkscape:groupmode="layer"
     id="layer1"
     transform="translate(-332.06723,-276.99833)">
    <g
       transform="translate(319.50834,183.43583)"
       id="g122">
      <g
         id="BAND_2_">
        <g
           id="outlines_3_">
          <path
             style="fill:#dec725"
             inkscape:connector-curvature="0"
             d="m 22.04,97.329 c -5.334,17.072 20.545,32.119 54.605,37.429 34.06,5.31 61.449,-8.867 75.424,19.624 5.351,-23.991 33.637,-17.648 57.305,-16.98 23.666,0.666 79.667,-16.098 72.001,-40.072 13.998,9.738 8.253,30.471 -0.913,42.553 -9.936,13.097 -19.088,25.185 -33.993,12.521 1.905,11.663 -10.427,29.33 -27.429,11.68 -2.666,44.984 -53.333,35.318 -65.998,7.15 -13.002,27.834 -62.668,40.501 -68.668,-7.15 -10,14.984 -29.334,5.984 -26.998,-11.017 -16.336,11.335 -29.09,-3.688 -36.336,-15.332 -9.394,-15.099 -9.539,-33.536 1,-40.406 z"
             id="path126" />
          <g
             id="REFL_3_">
            <defs
               id="defs129">
              <path
                 inkscape:connector-curvature="0"
                 id="SVGID_5_"
                 d="m 22.04,97.329 c -5.334,17.072 20.545,32.119 54.605,37.429 34.06,5.31 73.183,19.712 75.774,32.045 1.329,-10.669 33.286,-30.069 56.954,-29.401 23.666,0.666 79.667,-16.098 72.001,-40.072 13.998,9.738 8.253,30.471 -0.913,42.553 -9.936,13.097 -19.088,25.185 -33.993,12.521 1.905,11.663 -10.427,29.33 -27.429,11.68 -2.666,44.984 -53.333,35.318 -65.998,7.15 -13.002,27.834 -62.668,40.501 -68.668,-7.15 -10,14.984 -29.334,5.984 -26.998,-11.017 -16.336,11.335 -29.09,-3.688 -36.336,-15.332 -9.393,-15.099 -9.538,-33.536 1.001,-40.406 z" />
            </defs>
            <clipPath
               id="clipPath4372">
              <use
                 height="1052.3622"
                 width="744.09448"
                 y="0"
                 x="0"
                 style="overflow:visible"
                 xlink:href="#SVGID_5_"
                 overflow="visible"
                 id="use4374" />
            </clipPath>
            <g
               clip-path="url(#SVGID_6_)"
               id="g135">
              <rect
                 style="fill:#f1e665"
                 x="210.33701"
                 y="131.55901"
                 transform="matrix(1,0.0093,-0.0093,1,1.5076,-2.0655)"
                 width="24.323"
                 height="58.505001"
                 id="rect137" />
              <rect
                 style="fill:#f1e665"
                 x="245.317"
                 y="127.147"
                 transform="matrix(0.9984,-0.0568,0.0568,0.9984,-7.7155,14.4127)"
                 width="8.6289997"
                 height="31.517"
                 id="rect139" />
              <rect
                 style="fill:#f1e665"
                 x="61.216"
                 y="131.075"
                 transform="matrix(0.9853,0.1708,-0.1708,0.9853,26.743,-8.9693)"
                 width="8.5959997"
                 height="39.819"
                 id="rect141" />
            </g>
          </g>
          <g
             id="g143">
            <path
               style="fill:none;stroke:#aa8922;stroke-width:2;stroke-miterlimit:10"
               inkscape:connector-curvature="0"
               stroke-miterlimit="10"
               d="m 196.539,164.649 c -0.475,3.161 -3.69,5.506 -7.186,5.242 -4.359,-0.329 -7.412,-5.799 -6.816,-9.747 0.743,-4.938 5.891,-7.254 13.219,-6.19 6.765,0.981 11.132,8.301 10.566,14.514 -0.448,4.932 -5.282,12.266 -15.438,11.389 -10.645,-0.919 -19.29,-6.312 -16.714,-19.873 2.734,-14.392 13.291,-14.032 22.416,-13.317 73.271,5.738 98.426,-29.954 84.789,-49.337"
               id="path145" />
            <g
               id="g147">
              <path
                 style="fill:#aa8922"
                 inkscape:connector-curvature="0"
                 d="m 192.172,159.693 c 0,0 0.117,0.004 0.321,0.011 0.104,0.004 0.228,0.008 0.37,0.012 0.143,0.014 0.304,-0.011 0.479,0.043 0.179,0.041 0.374,0.086 0.579,0.133 0.218,0.037 0.424,0.123 0.633,0.224 0.207,0.103 0.447,0.181 0.652,0.32 0.206,0.148 0.414,0.299 0.623,0.45 0.21,0.155 0.363,0.371 0.547,0.561 0.19,0.187 0.332,0.403 0.45,0.63 0.118,0.225 0.272,0.434 0.343,0.659 0.071,0.23 0.139,0.447 0.2,0.648 0.146,0.406 0.099,0.766 0.137,1.016 0.015,0.254 0.022,0.398 0.022,0.398 l -1.979,-0.297 c 0,0 0.018,-0.088 0.047,-0.24 0.01,-0.151 0.133,-0.383 0.1,-0.656 -0.002,-0.143 -0.005,-0.295 -0.008,-0.457 0.002,-0.168 -0.074,-0.326 -0.107,-0.508 -0.035,-0.184 -0.09,-0.369 -0.193,-0.537 -0.098,-0.17 -0.163,-0.377 -0.293,-0.537 -0.131,-0.165 -0.264,-0.33 -0.393,-0.492 -0.137,-0.162 -0.314,-0.273 -0.468,-0.411 -0.156,-0.138 -0.313,-0.263 -0.483,-0.339 -0.168,-0.092 -0.327,-0.179 -0.475,-0.259 -0.144,-0.096 -0.313,-0.116 -0.444,-0.167 -0.136,-0.041 -0.255,-0.078 -0.353,-0.109 -0.195,-0.061 -0.307,-0.096 -0.307,-0.096 z"
                 id="path149" />
            </g>
          </g>
          <g
             id="g151">
            <path
               style="fill:none;stroke:#aa8922;stroke-width:2;stroke-miterlimit:10"
               inkscape:connector-curvature="0"
               stroke-miterlimit="10"
               d="m 107.244,165.224 c 0.653,3.129 3.996,5.286 7.472,4.825 4.333,-0.576 7.07,-6.209 6.252,-10.118 -1.023,-4.888 -6.294,-6.908 -13.55,-5.43 -6.698,1.364 -10.643,8.92 -9.725,15.09 0.729,4.898 5.969,11.946 16.06,10.494 10.575,-1.523 18.9,-7.398 15.56,-20.791 -3.548,-14.213 -14.028,-12.926 -23.137,-12.022 C 42.762,153.558 9.525,117.456 22.04,97.33"
               id="path153" />
            <g
               id="g155">
              <path
                 style="fill:#aa8922"
                 inkscape:connector-curvature="0"
                 d="m 111.322,160.027 c 0,0 -0.109,0.041 -0.302,0.112 -0.096,0.036 -0.212,0.08 -0.346,0.13 -0.129,0.058 -0.296,0.087 -0.435,0.191 -0.143,0.088 -0.296,0.184 -0.459,0.285 -0.165,0.085 -0.315,0.219 -0.463,0.365 -0.145,0.147 -0.316,0.269 -0.443,0.438 -0.12,0.169 -0.243,0.342 -0.365,0.514 -0.12,0.168 -0.173,0.377 -0.261,0.553 -0.095,0.174 -0.138,0.363 -0.162,0.548 -0.024,0.183 -0.091,0.345 -0.08,0.512 0.007,0.162 0.014,0.315 0.02,0.457 -0.018,0.275 0.119,0.499 0.137,0.65 0.038,0.15 0.06,0.236 0.06,0.236 l -1.957,0.41 c 0,0 -0.001,-0.146 -0.001,-0.398 0.024,-0.253 -0.043,-0.608 0.078,-1.023 0.051,-0.204 0.105,-0.425 0.163,-0.658 0.059,-0.229 0.2,-0.447 0.305,-0.678 0.106,-0.232 0.234,-0.458 0.414,-0.655 0.173,-0.198 0.313,-0.423 0.515,-0.59 0.199,-0.163 0.398,-0.325 0.596,-0.485 0.198,-0.15 0.433,-0.242 0.634,-0.356 0.203,-0.113 0.403,-0.21 0.618,-0.259 0.203,-0.06 0.395,-0.114 0.571,-0.166 0.171,-0.063 0.334,-0.048 0.476,-0.069 0.142,-0.014 0.266,-0.024 0.368,-0.033 0.203,-0.02 0.319,-0.031 0.319,-0.031 z"
                 id="path157" />
            </g>
          </g>
          <path
             style="fill:none;stroke:#aa8922;stroke-width:3;stroke-miterlimit:10"
             inkscape:connector-curvature="0"
             stroke-miterlimit="10"
             d="m 22.04,97.329 c -5.334,17.072 20.545,32.119 54.605,37.429 34.06,5.31 61.449,-8.867 75.424,19.624 5.351,-23.991 33.637,-17.648 57.305,-16.98 23.666,0.666 79.667,-16.098 72.001,-40.072 13.998,9.738 8.253,30.471 -0.913,42.553 -9.936,13.097 -19.088,25.185 -33.993,12.521 1.905,11.663 -10.427,29.33 -27.429,11.68 -2.666,44.984 -53.333,35.318 -65.998,7.15 -13.002,27.834 -62.668,40.501 -68.668,-7.15 -10,14.984 -29.334,5.984 -26.998,-11.017 -16.336,11.335 -29.09,-3.688 -36.336,-15.332 -9.394,-15.099 -9.539,-33.536 1,-40.406 z"
             id="path159" />
        </g>
      </g>
      <g
         id="g161">
        <path
           style="fill:#dec725;stroke:#aa8922;stroke-width:3;stroke-linejoin:round;stroke-miterlimit:10"
           inkscape:connector-curvature="0"
           stroke-miterlimit="10"
           d="m 143.678,194.441 c -21.105,-18.192 -26.429,-38.383 -21.044,-61.123 7.536,-19.74 58.092,-16.547 64.554,0 3.175,23.611 0.955,39.737 -22.843,61.123 0,0 6.322,9.284 5.75,11.965 -1.25,5.862 -28.75,8.785 -31.5,0 -0.805,-2.571 5.083,-11.965 5.083,-11.965 z"
           id="path163" />
        <g
           id="GEM">
          <path
             style="fill:#16a1ff"
             inkscape:connector-curvature="0"
             d="m 151.595,193.274 c -16.333,-15.667 -26,-34.75 -21.833,-54.333 5.833,-17 44.958,-14.25 49.958,0 2.458,20.334 -3.375,35.667 -21.792,54.083 0,0 3.666,9.251 4,11.583 0.334,2.332 -14.455,2.359 -14.378,0.301 0.087,-2.318 4.045,-11.634 4.045,-11.634 z"
             id="path166" />
          <path
             style="fill:#64c5ff"
             inkscape:connector-curvature="0"
             d="m 132.12,165.43 c -3.259,-8.533 -4.279,-17.457 -2.358,-26.489 5.833,-17 44.958,-14.25 49.958,0 1.392,11.511 0.126,21.419 -4.575,31.191 L 153.632,152.608 132.12,165.43 z"
             id="path168" />
          <path
             style="fill:none;stroke:#2790db;stroke-width:2;stroke-miterlimit:10"
             inkscape:connector-curvature="0"
             stroke-miterlimit="10"
             d="m 175.145,170.132 c -3.604,7.49 -9.226,14.901 -17.217,22.892 0,0 3.666,9.251 4,11.583 0.334,2.332 -14.455,2.359 -14.378,0.301 0.087,-2.318 4.045,-11.634 4.045,-11.634 -8.801,-8.442 -15.666,-17.875 -19.475,-27.845"
             id="path170" />
          <g
             id="g172">
            <polyline
               style="fill:none;stroke:#2790db;stroke-width:2;stroke-miterlimit:10"
               stroke-miterlimit="10"
               points="132.125,165.43 155.095,151.941       175.144,170.131     "
               id="polyline174" />
            <polyline
               style="fill:none;stroke:#2790db;stroke-width:2;stroke-miterlimit:10"
               stroke-miterlimit="10"
               points="129.373,141.02 157.928,151.941       178.266,136.229     "
               id="polyline176" />
            <polyline
               style="fill:none;stroke:#2790db;stroke-width:2;stroke-miterlimit:10"
               stroke-miterlimit="10"
               points="153.819,127.205 153.819,153.441       152.095,161.94 154.095,192.913     "
               id="polyline178" />
            <path
               style="fill:none;stroke:#2790db;stroke-width:2;stroke-miterlimit:10"
               inkscape:connector-curvature="0"
               stroke-miterlimit="10"
               d="m 151.595,193.274 c 0.971,-0.253 4.333,-1.333 6.333,-0.25"
               id="path180" />
          </g>
          <polygon
             style="fill:#aee1ff;stroke:#2790db;stroke-width:2;stroke-miterlimit:10"
             stroke-miterlimit="10"
             points="143.095,158.941 152.095,168.441 164.345,159.942 164.345,146.858 153.47,139.692 142.678,146.442 "
             id="polygon182" />
          <path
             style="fill:none;stroke:#2790db;stroke-width:2;stroke-miterlimit:10"
             inkscape:connector-curvature="0"
             stroke-miterlimit="10"
             d="m 151.595,193.274 c -16.333,-15.667 -26,-34.75 -21.833,-54.333 5.833,-17 44.958,-14.25 49.958,0 2.458,20.334 -3.375,35.667 -21.792,54.083 0,0 3.666,9.251 4,11.583 0.334,2.332 -14.455,2.359 -14.378,0.301 0.087,-2.318 4.045,-11.634 4.045,-11.634 z"
             id="path184" />
        </g>
      </g>
    </g>
  </g>
</svg>
