<?xml version="1.0" encoding="UTF-8" standalone="no"?>
<!-- Created with Inkscape (http://www.inkscape.org/) -->

<svg
   xmlns:dc="http://purl.org/dc/elements/1.1/"
   xmlns:cc="http://creativecommons.org/ns#"
   xmlns:rdf="http://www.w3.org/1999/02/22-rdf-syntax-ns#"
   xmlns:svg="http://www.w3.org/2000/svg"
   xmlns="http://www.w3.org/2000/svg"
   xmlns:xlink="http://www.w3.org/1999/xlink"
   xmlns:sodipodi="http://sodipodi.sourceforge.net/DTD/sodipodi-0.dtd"
   xmlns:inkscape="http://www.inkscape.org/namespaces/inkscape"
   width="278.71112"
   height="122.32169"
   id="svg4060"
   version="1.1"
   inkscape:version="0.48.4 r9939"
   sodipodi:docname="New document 8">
  <defs
     id="defs4062">
    <clipPath
       id="SVGID_8_">
      <use
         height="1052.3622"
         width="744.09448"
         y="0"
         x="0"
         style="overflow:visible"
         xlink:href="#SVGID_7_"
         overflow="visible"
         id="use197" />
    </clipPath>
  </defs>
  <sodipodi:namedview
     id="base"
     pagecolor="#ffffff"
     bordercolor="#666666"
     borderopacity="1.0"
     inkscape:pageopacity="0.0"
     inkscape:pageshadow="2"
     inkscape:zoom="0.35"
     inkscape:cx="452.91736"
     inkscape:cy="60.009039"
     inkscape:document-units="px"
     inkscape:current-layer="layer1"
     showgrid="false"
     fit-margin-top="0"
     fit-margin-left="0"
     fit-margin-right="0"
     fit-margin-bottom="0"
     inkscape:window-width="705"
     inkscape:window-height="423"
     inkscape:window-x="1305"
     inkscape:window-y="250"
     inkscape:window-maximized="0" />
  <metadata
     id="metadata4065">
    <rdf:RDF>
      <cc:Work
         rdf:about="">
        <dc:format>image/svg+xml</dc:format>
        <dc:type
           rdf:resource="http://purl.org/dc/dcmitype/StillImage" />
        <dc:title></dc:title>
      </cc:Work>
    </rdf:RDF>
  </metadata>
  <g
     inkscape:label="Layer 1"
     inkscape:groupmode="layer"
     id="layer1"
     transform="translate(-363.51121,-470.04953)">
    <g
       transform="translate(1.4211134,119.64328)"
       id="g186">
      <g
         id="BAND_3_">
        <g
           id="outlines_4_">
          <path
             style="fill:#dec725"
             inkscape:connector-curvature="0"
             d="m 371.556,354.174 c -5.334,17.072 20.545,32.119 54.605,37.429 34.06,5.31 61.449,-8.867 75.423,19.624 5.352,-23.991 33.637,-17.648 57.305,-16.98 23.666,0.666 79.668,-16.098 72.002,-40.072 13.998,9.738 8.252,30.471 -0.914,42.553 -9.936,13.097 -19.088,25.185 -33.992,12.521 1.904,11.663 -10.428,29.33 -27.43,11.68 -2.666,44.984 -53.332,35.318 -65.998,7.15 -13.001,27.834 -62.667,40.501 -68.667,-7.15 -10,14.984 -29.334,5.984 -26.998,-11.017 -16.336,11.335 -29.09,-3.688 -36.336,-15.332 -9.394,-15.1 -9.539,-33.536 1,-40.406 z"
             id="path190" />
          <g
             id="REFL_4_">
            <defs
               id="defs193">
              <path
                 inkscape:connector-curvature="0"
                 id="SVGID_7_"
                 d="m 371.556,354.174 c -5.334,17.072 20.545,32.119 54.605,37.429 34.06,5.31 73.183,19.712 75.775,32.045 1.328,-10.669 33.285,-30.069 56.953,-29.401 23.666,0.666 79.668,-16.098 72.002,-40.072 13.998,9.738 8.252,30.471 -0.914,42.553 -9.936,13.097 -19.088,25.185 -33.992,12.521 1.904,11.663 -10.428,29.33 -27.43,11.68 -2.666,44.984 -53.332,35.318 -65.998,7.15 -13.001,27.834 -62.667,40.501 -68.667,-7.15 -10,14.984 -29.334,5.984 -26.998,-11.017 -16.336,11.335 -29.09,-3.688 -36.336,-15.332 -9.394,-15.1 -9.539,-33.536 1,-40.406 z" />
            </defs>
            <clipPath
               id="clipPath4022">
              <use
                 height="1052.3622"
                 width="744.09448"
                 y="0"
                 x="0"
                 style="overflow:visible"
                 xlink:href="#SVGID_7_"
                 overflow="visible"
                 id="use4024" />
            </clipPath>
            <g
               clip-path="url(#SVGID_8_)"
               id="g199">
              <rect
                 style="fill:#f1e665"
                 x="559.854"
                 y="388.40399"
                 transform="matrix(1,0.0093,-0.0093,1,3.9152,-5.31)"
                 width="24.323"
                 height="58.505001"
                 id="rect201" />
              <rect
                 style="fill:#f1e665"
                 x="594.83301"
                 y="383.992"
                 transform="matrix(0.9984,-0.0568,0.0568,0.9984,-21.7427,34.684)"
                 width="8.6289997"
                 height="31.517"
                 id="rect203" />
              <rect
                 style="fill:#f1e665"
                 x="410.73199"
                 y="387.92001"
                 transform="matrix(0.9853,0.1708,-0.1708,0.9853,75.7326,-64.8777)"
                 width="8.5959997"
                 height="39.819"
                 id="rect205" />
            </g>
          </g>
          <g
             id="g207">
            <path
               style="fill:none;stroke:#aa8922;stroke-width:2;stroke-miterlimit:10"
               inkscape:connector-curvature="0"
               stroke-miterlimit="10"
               d="m 546.056,421.494 c -0.475,3.161 -3.691,5.506 -7.186,5.242 -4.359,-0.329 -7.412,-5.799 -6.816,-9.747 0.742,-4.938 5.891,-7.254 13.219,-6.19 6.764,0.981 11.131,8.301 10.566,14.514 -0.449,4.932 -5.283,12.266 -15.439,11.389 -10.645,-0.919 -19.289,-6.312 -16.713,-19.873 2.734,-14.392 13.291,-14.032 22.416,-13.317 73.27,5.738 98.426,-29.954 84.789,-49.337"
               id="path209" />
            <g
               id="g211">
              <path
                 style="fill:#aa8922"
                 inkscape:connector-curvature="0"
                 d="m 541.688,416.538 c 0,0 0.117,0.004 0.32,0.011 0.104,0.004 0.229,0.008 0.371,0.012 0.143,0.014 0.303,-0.011 0.479,0.043 0.178,0.041 0.373,0.086 0.578,0.133 0.219,0.037 0.424,0.123 0.633,0.224 0.207,0.103 0.447,0.181 0.652,0.32 0.207,0.148 0.414,0.299 0.623,0.45 0.211,0.155 0.363,0.371 0.547,0.561 0.191,0.187 0.332,0.403 0.451,0.63 0.117,0.225 0.271,0.434 0.342,0.659 0.072,0.23 0.139,0.447 0.201,0.648 0.145,0.406 0.098,0.766 0.137,1.016 0.014,0.254 0.021,0.398 0.021,0.398 l -1.979,-0.297 c 0,0 0.018,-0.088 0.047,-0.24 0.01,-0.151 0.133,-0.383 0.1,-0.656 -0.002,-0.143 -0.004,-0.295 -0.008,-0.457 0.002,-0.168 -0.074,-0.326 -0.107,-0.508 -0.035,-0.184 -0.09,-0.369 -0.193,-0.537 -0.098,-0.17 -0.162,-0.377 -0.293,-0.537 -0.131,-0.165 -0.264,-0.33 -0.393,-0.492 -0.137,-0.162 -0.314,-0.273 -0.467,-0.411 -0.156,-0.138 -0.314,-0.263 -0.484,-0.339 -0.168,-0.092 -0.326,-0.179 -0.475,-0.259 -0.143,-0.096 -0.313,-0.116 -0.443,-0.167 -0.137,-0.041 -0.256,-0.078 -0.354,-0.109 -0.194,-0.062 -0.306,-0.096 -0.306,-0.096 z"
                 id="path213" />
            </g>
          </g>
          <g
             id="g215">
            <path
               style="fill:none;stroke:#aa8922;stroke-width:2;stroke-miterlimit:10"
               inkscape:connector-curvature="0"
               stroke-miterlimit="10"
               d="m 456.76,422.068 c 0.653,3.129 3.996,5.286 7.472,4.825 4.333,-0.576 7.07,-6.209 6.252,-10.118 -1.023,-4.888 -6.294,-6.908 -13.55,-5.43 -6.698,1.364 -10.643,8.92 -9.725,15.09 0.729,4.898 5.969,11.946 16.06,10.494 10.575,-1.523 18.9,-7.398 15.56,-20.791 -3.548,-14.213 -14.028,-12.926 -23.137,-12.022 -63.414,6.286 -96.651,-29.816 -84.136,-49.942"
               id="path217" />
            <g
               id="g219">
              <path
                 style="fill:#aa8922"
                 inkscape:connector-curvature="0"
                 d="m 460.838,416.872 c 0,0 -0.109,0.041 -0.302,0.112 -0.096,0.036 -0.212,0.08 -0.346,0.13 -0.129,0.058 -0.296,0.087 -0.435,0.191 -0.143,0.088 -0.296,0.184 -0.459,0.285 -0.165,0.085 -0.315,0.219 -0.463,0.365 -0.145,0.147 -0.316,0.269 -0.443,0.438 -0.12,0.169 -0.243,0.342 -0.365,0.514 -0.12,0.168 -0.173,0.377 -0.261,0.553 -0.095,0.174 -0.138,0.363 -0.162,0.548 -0.024,0.183 -0.091,0.345 -0.08,0.512 0.007,0.162 0.014,0.315 0.02,0.457 -0.018,0.275 0.119,0.499 0.137,0.65 0.038,0.15 0.06,0.236 0.06,0.236 l -1.957,0.41 c 0,0 -10e-4,-0.146 -10e-4,-0.398 0.024,-0.253 -0.043,-0.608 0.078,-1.023 0.051,-0.204 0.105,-0.425 0.163,-0.658 0.059,-0.229 0.2,-0.447 0.305,-0.678 0.106,-0.232 0.234,-0.458 0.414,-0.655 0.173,-0.198 0.313,-0.423 0.515,-0.59 0.199,-0.163 0.398,-0.325 0.596,-0.485 0.198,-0.15 0.433,-0.242 0.634,-0.356 0.203,-0.113 0.403,-0.21 0.618,-0.259 0.203,-0.06 0.395,-0.114 0.571,-0.166 0.171,-0.063 0.334,-0.048 0.476,-0.069 0.142,-0.014 0.266,-0.024 0.368,-0.033 0.203,-0.02 0.319,-0.031 0.319,-0.031 z"
                 id="path221" />
            </g>
          </g>
          <path
             style="fill:none;stroke:#aa8922;stroke-width:3;stroke-miterlimit:10"
             inkscape:connector-curvature="0"
             stroke-miterlimit="10"
             d="m 371.556,354.174 c -5.334,17.072 20.545,32.119 54.605,37.429 34.06,5.31 61.449,-8.867 75.423,19.624 5.352,-23.991 33.637,-17.648 57.305,-16.98 23.666,0.666 79.668,-16.098 72.002,-40.072 13.998,9.738 8.252,30.471 -0.914,42.553 -9.936,13.097 -19.088,25.185 -33.992,12.521 1.904,11.663 -10.428,29.33 -27.43,11.68 -2.666,44.984 -53.332,35.318 -65.998,7.15 -13.001,27.834 -62.667,40.501 -68.667,-7.15 -10,14.984 -29.334,5.984 -26.998,-11.017 -16.336,11.335 -29.09,-3.688 -36.336,-15.332 -9.394,-15.1 -9.539,-33.536 1,-40.406 z"
             id="path223" />
        </g>
      </g>
      <g
         id="g225">
        <path
           style="fill:#ddc624;stroke:#aa8922;stroke-width:3;stroke-miterlimit:10"
           inkscape:connector-curvature="0"
           stroke-miterlimit="10"
           d="m 484.77,401.627 c -3.875,-13.125 -0.125,-24.25 3.672,-26.237 4.454,-1.138 15.891,4.862 18.704,13.237 5.5,-6.126 12.375,-8.625 14.75,-7.5 4,1.625 4.25,15.625 0.625,20.25 14,-2.125 20.125,8.875 20.625,16 0.5,7.125 -0.309,32.045 -11.904,44.71 -11.595,12.665 -26.863,7.915 -29.168,7.04 -15.803,5 -25.021,0.014 -28.6,-2.681 -3.579,-2.695 -14.079,-30.278 -13.704,-44.486 0.375,-14.208 18.5,-20.835 25,-20.333 z"
           id="path227" />
        <g
           id="g229">
          <g
             id="g231">
            <path
               style="fill:#fd713b"
               inkscape:connector-curvature="0"
               d="m 500.396,411.377 c -13.917,-4.583 -23.834,-1.667 -27.733,1.848 -5.635,5.079 -5.97,12.628 -4.018,23.628 3.065,17.268 12.667,35.025 33.75,26.024 26.416,7.836 33.345,-24.195 34,-29.375 2.332,-18.46 -2.417,-23.21 -11.25,-25.125 -5.322,-1.153 -11.667,-1.167 -24.749,3 z"
               id="path233" />
            <path
               style="fill:#f05316"
               inkscape:connector-curvature="0"
               d="m 500.396,411.377 c 13.082,-4.167 19.428,-4.153 24.75,-3 l -16,22.417 -6.168,20.082 -0.582,12.001 c -10.543,4.5 -18.213,2.311 -23.632,-3.162 l 13.214,-11.839 12.084,-20.879 -0.584,-5.037 -3.082,-10.583 z"
               id="path235" />
            <path
               style="fill:#fea048;stroke:#a14b14;stroke-width:1.5;stroke-miterlimit:10"
               inkscape:connector-curvature="0"
               stroke-miterlimit="10"
               d="m 497.896,437.043 -29.25,-0.19 c -1.952,-11 -1.617,-18.549 4.018,-23.628 0.446,-0.401 0.97,-0.795 1.57,-1.171 l 20.469,14.651 17.507,0.547 12.938,-18.875 c 8.833,1.915 13.582,6.665 11.25,25.125 l -17.418,1.374 -5.416,7.752 1.584,3.332 8.367,13.375 c -5.035,4.15 -11.887,6.28 -21.117,3.542 l 0.582,-12.001 -5.084,-13.833 z"
               id="path237" />
            <g
               id="g239">
              <polyline
                 style="fill:none;stroke:#a14b14;stroke-width:1.5;stroke-miterlimit:10"
                 stroke-miterlimit="10"
                 points="513.562,443.471 518.978,434.876        536.352,433.817      "
                 id="polyline241" />
              <path
                 style="fill:none;stroke:#a14b14;stroke-width:1.5;stroke-miterlimit:10"
                 inkscape:connector-curvature="0"
                 stroke-miterlimit="10"
                 d="m 536.396,433.502 c -0.655,5.18 -7.584,37.211 -34,29.375"
                 id="path243" />
              <polyline
                 style="fill:none;stroke:#a14b14;stroke-width:1.5;stroke-miterlimit:10"
                 stroke-miterlimit="10"
                 points="500.396,411.377 504.333,424.877        503.194,447.195 502.396,462.877      "
                 id="polyline245" />
              <polyline
                 style="fill:none;stroke:#a14b14;stroke-width:1.5;stroke-miterlimit:10"
                 stroke-miterlimit="10"
                 points="478.785,459.736 491.978,447.876        515.146,445.96 524.087,458.844      "
                 id="polyline247" />
            </g>
            <polygon
               style="fill:#feb55e;stroke:#a14b14;stroke-width:1.5;stroke-miterlimit:10"
               stroke-miterlimit="10"
               points="503.478,421.96 514.396,424.126 518.978,434.876 515.146,445.96 502.978,450.876 491.978,447.876 489.145,436.506 492.812,425.543 "
               id="polygon249" />
            <path
               style="fill:none;stroke:#a14b14;stroke-width:1.5;stroke-miterlimit:10"
               inkscape:connector-curvature="0"
               stroke-miterlimit="10"
               d="m 500.396,411.377 c -13.917,-4.583 -23.834,-1.667 -27.733,1.848 -5.635,5.079 -5.97,12.628 -4.018,23.628 3.065,17.268 12.667,35.025 33.75,26.024 26.416,7.836 33.345,-24.195 34,-29.375 2.332,-18.46 -2.417,-23.21 -11.25,-25.125 -5.322,-1.153 -11.667,-1.167 -24.749,3 z"
               id="path251" />
          </g>
          <g
             id="g253">
            <g
               id="g255">
              <path
                 style="fill:#358d16;stroke:#3d6007;stroke-width:1.28789997;stroke-miterlimit:10"
                 inkscape:connector-curvature="0"
                 stroke-miterlimit="10"
                 d="m 515.642,390.456 c -10.972,1.828 -17.885,18.782 -11.904,20.231 2.387,0.576 5.633,-1.066 8.006,-4.168 3.234,-4.228 5.153,-10.917 3.898,-16.063 z"
                 id="path257" />
              <path
                 style="fill:#89ff53;stroke:#3d6007;stroke-width:1.28789997;stroke-linejoin:bevel;stroke-miterlimit:10"
                 inkscape:connector-curvature="0"
                 stroke-miterlimit="10"
                 d="m 503.737,410.688 c -5.98,-1.449 0.933,-18.403 11.904,-20.231 -1.573,3.527 -11.22,13.771 -11.904,20.231 z"
                 id="path259" />
            </g>
            <g
               id="g261">
              <path
                 style="fill:#358d16;stroke:#3d6007;stroke-width:1.5;stroke-miterlimit:10"
                 inkscape:connector-curvature="0"
                 stroke-miterlimit="10"
                 d="m 492.896,384.46 c 11.916,5.083 15.083,26.17 7.916,26.166 -2.861,-0.002 -6.082,-2.751 -7.916,-6.916 -2.499,-5.674 -2.836,-13.772 0,-19.25 z"
                 id="path263" />
              <path
                 style="fill:#89ff53;stroke:#3d6007;stroke-width:1.5;stroke-linejoin:bevel;stroke-miterlimit:10"
                 inkscape:connector-curvature="0"
                 stroke-miterlimit="10"
                 d="m 500.812,410.626 c 7.167,0.004 4,-21.083 -7.916,-26.166 0.81,4.425 8.916,18.668 7.916,26.166 z"
                 id="path265" />
            </g>
          </g>
        </g>
      </g>
    </g>
  </g>
</svg>
