<?xml version="1.0" encoding="UTF-8" standalone="no"?>
<!-- Created with Inkscape (http://www.inkscape.org/) -->

<svg
   xmlns:dc="http://purl.org/dc/elements/1.1/"
   xmlns:cc="http://creativecommons.org/ns#"
   xmlns:rdf="http://www.w3.org/1999/02/22-rdf-syntax-ns#"
   xmlns:svg="http://www.w3.org/2000/svg"
   xmlns="http://www.w3.org/2000/svg"
   xmlns:xlink="http://www.w3.org/1999/xlink"
   xmlns:sodipodi="http://sodipodi.sourceforge.net/DTD/sodipodi-0.dtd"
   xmlns:inkscape="http://www.inkscape.org/namespaces/inkscape"
   width="278.71783"
   height="276.52203"
   id="svg4234"
   version="1.1"
   inkscape:version="0.48.4 r9939"
   sodipodi:docname="element_of_kindness.svg">
  <defs
     id="defs4236">
    <clipPath
       id="SVGID_10_">
      <use
         height="1052.3622"
         width="744.09448"
         y="0"
         x="0"
         style="overflow:visible"
         xlink:href="#SVGID_9_"
         overflow="visible"
         id="use278" />
    </clipPath>
    <clipPath
       id="SVGID_12_">
      <use
         height="1052.3622"
         width="744.09448"
         y="0"
         x="0"
         style="overflow:visible"
         xlink:href="#SVGID_11_"
         overflow="visible"
         id="use322" />
    </clipPath>
    <clipPath
       id="clipPath4177">
      <use
         height="1052.3622"
         width="744.09448"
         y="0"
         x="0"
         style="overflow:visible"
         xlink:href="#SVGID_11_"
         overflow="visible"
         id="use4179" />
    </clipPath>
    <clipPath
       id="clipPath4181">
      <use
         height="1052.3622"
         width="744.09448"
         y="0"
         x="0"
         style="overflow:visible"
         xlink:href="#SVGID_11_"
         overflow="visible"
         id="use4183" />
    </clipPath>
  </defs>
  <sodipodi:namedview
     id="base"
     pagecolor="#ffffff"
     bordercolor="#666666"
     borderopacity="1.0"
     inkscape:pageopacity="0.0"
     inkscape:pageshadow="2"
     inkscape:zoom="0.35"
     inkscape:cx="139.35892"
     inkscape:cy="138.26102"
     inkscape:document-units="px"
     inkscape:current-layer="layer1"
     showgrid="false"
     fit-margin-top="82.5"
     fit-margin-left="0"
     fit-margin-right="0"
     fit-margin-bottom="82.5"
     inkscape:window-width="463"
     inkscape:window-height="423"
     inkscape:window-x="1355"
     inkscape:window-y="300"
     inkscape:window-maximized="0" />
  <metadata
     id="metadata4239">
    <rdf:RDF>
      <cc:Work
         rdf:about="">
        <dc:format>image/svg+xml</dc:format>
        <dc:type
           rdf:resource="http://purl.org/dc/dcmitype/StillImage" />
        <dc:title />
      </cc:Work>
    </rdf:RDF>
  </metadata>
  <g
     inkscape:label="Layer 1"
     inkscape:groupmode="layer"
     id="layer1"
     transform="translate(-235.64108,-394.10116)">
    <g
       transform="translate(70.182146,233.66416)"
       id="g267">
      <g
         id="BAND_4_">
        <g
           id="outlines_5_">
          <path
             style="fill:#dec725"
             inkscape:connector-curvature="0"
             d="m 174.938,244.437 c -5.334,17.072 20.545,32.119 54.605,37.429 34.06,5.31 61.449,-8.867 75.424,19.624 5.351,-23.991 33.637,-17.648 57.305,-16.98 23.666,0.666 79.667,-16.098 72.001,-40.072 13.998,9.738 8.253,30.471 -0.913,42.553 -9.936,13.097 -19.088,25.185 -33.993,12.521 1.905,11.663 -10.427,29.33 -27.429,11.68 -2.666,44.984 -53.333,35.318 -65.998,7.15 -13.002,27.834 -62.668,40.501 -68.668,-7.15 -10,14.984 -29.334,5.984 -26.998,-11.017 -16.336,11.335 -29.09,-3.688 -36.336,-15.332 -9.395,-15.1 -9.54,-33.536 1,-40.406 z"
             id="path271" />
          <g
             id="REFL_5_">
            <defs
               id="defs274">
              <path
                 inkscape:connector-curvature="0"
                 id="SVGID_9_"
                 d="m 174.938,244.437 c -5.334,17.072 20.545,32.119 54.605,37.429 34.06,5.31 73.183,19.712 75.774,32.045 1.329,-10.669 33.286,-30.069 56.954,-29.401 23.666,0.666 79.667,-16.098 72.001,-40.072 13.998,9.738 8.253,30.471 -0.913,42.553 -9.936,13.097 -19.088,25.185 -33.993,12.521 1.905,11.663 -10.427,29.33 -27.429,11.68 -2.666,44.984 -53.333,35.318 -65.998,7.15 -13.002,27.834 -62.668,40.501 -68.668,-7.15 -10,14.984 -29.334,5.984 -26.998,-11.017 -16.336,11.335 -29.09,-3.688 -36.336,-15.332 -9.394,-15.1 -9.539,-33.536 1.001,-40.406 z" />
            </defs>
            <clipPath
               id="clipPath4192">
              <use
                 height="1052.3622"
                 width="744.09448"
                 y="0"
                 x="0"
                 style="overflow:visible"
                 xlink:href="#SVGID_9_"
                 overflow="visible"
                 id="use4194" />
            </clipPath>
            <g
               clip-path="url(#SVGID_10_)"
               id="g280">
              <rect
                 style="fill:#f1e665"
                 x="363.23499"
                 y="278.66699"
                 transform="matrix(1,0.0093,-0.0093,1,2.8844,-3.4833)"
                 width="24.323"
                 height="58.505001"
                 id="rect282" />
              <rect
                 style="fill:#f1e665"
                 x="398.21399"
                 y="274.255"
                 transform="matrix(0.9984,-0.0568,0.0568,0.9984,-15.8259,23.3366)"
                 width="8.6289997"
                 height="31.517"
                 id="rect284" />
              <rect
                 style="fill:#f1e665"
                 x="214.114"
                 y="278.18301"
                 transform="matrix(0.9853,0.1708,-0.1708,0.9853,54.1073,-32.9164)"
                 width="8.5959997"
                 height="39.819"
                 id="rect286" />
            </g>
          </g>
          <g
             id="g288">
            <path
               style="fill:none;stroke:#aa8922;stroke-width:2;stroke-miterlimit:10"
               inkscape:connector-curvature="0"
               stroke-miterlimit="10"
               d="m 349.437,311.757 c -0.475,3.161 -3.69,5.506 -7.186,5.242 -4.359,-0.329 -7.412,-5.799 -6.816,-9.747 0.743,-4.938 5.891,-7.254 13.219,-6.19 6.765,0.981 11.132,8.301 10.566,14.514 -0.448,4.932 -5.282,12.266 -15.438,11.389 -10.645,-0.919 -19.29,-6.312 -16.714,-19.873 2.734,-14.392 13.291,-14.032 22.416,-13.317 73.271,5.738 98.426,-29.954 84.789,-49.337"
               id="path290" />
            <g
               id="g292">
              <path
                 style="fill:#aa8922"
                 inkscape:connector-curvature="0"
                 d="m 345.069,306.801 c 0,0 0.117,0.004 0.321,0.011 0.104,0.004 0.228,0.008 0.37,0.012 0.143,0.014 0.304,-0.011 0.479,0.043 0.179,0.041 0.374,0.086 0.579,0.133 0.218,0.037 0.424,0.123 0.633,0.224 0.207,0.103 0.447,0.181 0.652,0.32 0.206,0.148 0.414,0.299 0.623,0.45 0.21,0.155 0.363,0.371 0.547,0.561 0.19,0.187 0.332,0.403 0.45,0.63 0.118,0.225 0.272,0.434 0.343,0.659 0.071,0.23 0.139,0.447 0.2,0.648 0.146,0.406 0.099,0.766 0.137,1.016 0.015,0.254 0.022,0.398 0.022,0.398 l -1.979,-0.297 c 0,0 0.018,-0.088 0.047,-0.24 0.01,-0.151 0.133,-0.383 0.1,-0.656 -0.002,-0.143 -0.005,-0.295 -0.008,-0.457 0.002,-0.168 -0.074,-0.326 -0.107,-0.508 -0.035,-0.184 -0.09,-0.369 -0.193,-0.537 -0.098,-0.17 -0.163,-0.377 -0.293,-0.537 -0.131,-0.165 -0.264,-0.33 -0.393,-0.492 -0.137,-0.162 -0.314,-0.273 -0.468,-0.411 -0.156,-0.138 -0.313,-0.263 -0.483,-0.339 -0.168,-0.092 -0.327,-0.179 -0.475,-0.259 -0.144,-0.096 -0.313,-0.116 -0.444,-0.167 -0.136,-0.041 -0.255,-0.078 -0.353,-0.109 -0.194,-0.062 -0.307,-0.096 -0.307,-0.096 z"
                 id="path294" />
            </g>
          </g>
          <g
             id="g296">
            <path
               style="fill:none;stroke:#aa8922;stroke-width:2;stroke-miterlimit:10"
               inkscape:connector-curvature="0"
               stroke-miterlimit="10"
               d="m 260.142,312.331 c 0.653,3.129 3.996,5.286 7.472,4.825 4.333,-0.576 7.07,-6.209 6.252,-10.118 -1.023,-4.888 -6.294,-6.908 -13.55,-5.43 -6.698,1.364 -10.643,8.92 -9.725,15.09 0.729,4.898 5.969,11.946 16.06,10.494 10.575,-1.523 18.9,-7.398 15.56,-20.791 -3.548,-14.213 -14.028,-12.926 -23.137,-12.022 -63.414,6.286 -96.651,-29.816 -84.136,-49.942"
               id="path298" />
            <g
               id="g300">
              <path
                 style="fill:#aa8922"
                 inkscape:connector-curvature="0"
                 d="m 264.22,307.135 c 0,0 -0.109,0.041 -0.302,0.112 -0.096,0.036 -0.212,0.08 -0.346,0.13 -0.129,0.058 -0.296,0.087 -0.435,0.191 -0.143,0.088 -0.296,0.184 -0.459,0.285 -0.165,0.085 -0.315,0.219 -0.463,0.365 -0.145,0.147 -0.316,0.269 -0.443,0.438 -0.12,0.169 -0.243,0.342 -0.365,0.514 -0.12,0.168 -0.173,0.377 -0.261,0.553 -0.095,0.174 -0.138,0.363 -0.162,0.548 -0.024,0.183 -0.091,0.345 -0.08,0.512 0.007,0.162 0.014,0.315 0.02,0.457 -0.018,0.275 0.119,0.499 0.137,0.65 0.038,0.15 0.06,0.236 0.06,0.236 l -1.957,0.41 c 0,0 -10e-4,-0.146 -10e-4,-0.398 0.024,-0.253 -0.043,-0.608 0.078,-1.023 0.051,-0.204 0.105,-0.425 0.163,-0.658 0.059,-0.229 0.2,-0.447 0.305,-0.678 0.106,-0.232 0.234,-0.458 0.414,-0.655 0.173,-0.198 0.313,-0.423 0.515,-0.59 0.199,-0.163 0.398,-0.325 0.596,-0.485 0.198,-0.15 0.433,-0.242 0.634,-0.356 0.203,-0.113 0.403,-0.21 0.618,-0.259 0.203,-0.06 0.395,-0.114 0.571,-0.166 0.171,-0.063 0.334,-0.048 0.476,-0.069 0.142,-0.014 0.266,-0.024 0.368,-0.033 0.203,-0.02 0.319,-0.031 0.319,-0.031 z"
                 id="path302" />
            </g>
          </g>
          <path
             style="fill:none;stroke:#aa8922;stroke-width:3;stroke-miterlimit:10"
             inkscape:connector-curvature="0"
             stroke-miterlimit="10"
             d="m 174.938,244.437 c -5.334,17.072 20.545,32.119 54.605,37.429 34.06,5.31 61.449,-8.867 75.424,19.624 5.351,-23.991 33.637,-17.648 57.305,-16.98 23.666,0.666 79.667,-16.098 72.001,-40.072 13.998,9.738 8.253,30.471 -0.913,42.553 -9.936,13.097 -19.088,25.185 -33.993,12.521 1.905,11.663 -10.427,29.33 -27.429,11.68 -2.666,44.984 -53.333,35.318 -65.998,7.15 -13.002,27.834 -62.668,40.501 -68.668,-7.15 -10,14.984 -29.334,5.984 -26.998,-11.017 -16.336,11.335 -29.09,-3.688 -36.336,-15.332 -9.395,-15.1 -9.54,-33.536 1,-40.406 z"
             id="path304" />
        </g>
      </g>
      <g
         id="g306">
        <path
           style="fill:#ddc624;stroke:#aa8922;stroke-width:3;stroke-miterlimit:10"
           inkscape:connector-curvature="0"
           stroke-miterlimit="10"
           d="m 287.193,282.67 c -2.179,-1.833 -3.792,-5.952 -3.792,-9.089 0,-5.523 4.314,-10 9.635,-10 5.322,0 9.636,4.477 9.636,10 0,1.381 -0.27,2.696 -0.757,3.892 l 4.149,7.3 4.001,-7.297 c -0.488,-1.197 -0.758,-2.514 -0.758,-3.896 0,-5.523 4.314,-10 9.635,-10 5.322,0 9.636,4.477 9.636,10 0,3.247 -1.7,7.241 -4.011,9.067 0,0 13.625,-1.875 20.375,1.25 3.28,1.519 8.675,6.652 9.809,13.875 1.199,7.641 -2.184,18.535 -18.309,21.25 6.728,8.565 10.625,14.875 10.75,20.25 0.125,5.375 -2.5,13.75 -18,12.25 -15.5,-1.5 -22.625,-14.25 -22.625,-14.25 0,0 -7.229,10.885 -18.75,14.635 -11.521,3.75 -20.868,-3.198 -21.426,-10.239 -0.558,-7.041 7.426,-19.688 10.676,-21.729 -11.375,-1.917 -16.625,-6.667 -19,-13.792 -2.375,-7.125 0.406,-15.947 9.641,-20.911 9.235,-4.964 19.485,-2.566 19.485,-2.566 z"
           id="path308" />
        <g
           id="g310">
          <g
             id="g312">
            <path
               style="fill:#de71a1"
               inkscape:connector-curvature="0"
               d="m 305.989,298.898 c 0,0 -15.824,-10.818 -28.864,-11.991 -13.041,-1.173 -15.386,17.223 -6.42,24.117 8.966,6.894 15.363,5.416 15.363,5.416 0,0 -8.925,8.978 -13,15.334 -2.274,3.548 -2.365,9.924 0.75,13 2.467,2.437 7.403,2.394 11.625,0.125 9.554,-5.134 20.547,-17.25 20.547,-17.25 0,0 11.845,13.199 20.828,17.875 9.441,4.914 17.152,-3.277 13.75,-10.875 -3.75,-8.375 -14.25,-17.625 -14.25,-17.625 0,0 7.716,-1.246 15.595,-6.379 7.879,-5.134 6.28,-24.655 -7.595,-23.246 -14.858,1.508 -28.329,11.499 -28.329,11.499 z"
               id="path314" />
            <g
               id="g316">
              <defs
                 id="defs318">
                <path
                   inkscape:connector-curvature="0"
                   id="SVGID_11_"
                   d="m 305.989,298.898 c 0,0 -15.824,-10.818 -28.864,-11.991 -13.041,-1.173 -15.386,17.223 -6.42,24.117 8.966,6.894 15.363,5.416 15.363,5.416 0,0 -8.925,8.978 -13,15.334 -2.274,3.548 -2.365,9.924 0.75,13 2.467,2.437 7.403,2.394 11.625,0.125 9.554,-5.134 20.547,-17.25 20.547,-17.25 0,0 11.845,13.199 20.828,17.875 9.441,4.914 17.152,-3.277 13.75,-10.875 -3.75,-8.375 -14.25,-17.625 -14.25,-17.625 0,0 7.716,-1.246 15.595,-6.379 7.879,-5.134 6.28,-24.655 -7.595,-23.246 -14.858,1.508 -28.329,11.499 -28.329,11.499 z" />
              </defs>
              <clipPath
                 id="clipPath4217">
                <use
                   height="1052.3622"
                   width="744.09448"
                   y="0"
                   x="0"
                   style="overflow:visible"
                   xlink:href="#SVGID_11_"
                   overflow="visible"
                   id="use4219" />
              </clipPath>
              <g
                 clip-path="url(#SVGID_12_)"
                 id="g324">
                <polygon
                   style="fill:#bd3a75;stroke:#b94c7c;stroke-width:1.5;stroke-miterlimit:10"
                   stroke-miterlimit="10"
                   points="332.692,321.148 342.808,311.523 336.442,305.273 320.567,296.898 318.942,289.148 292.505,287.398 290.942,299.273 274.817,306.523 268.192,313.773 281.067,317.648 302.567,313.148 282.817,334.023 278.692,340.023 273.317,347.023 284.692,349.148 287.192,345.648 285.38,336.898 292.505,332.898 297.692,338.773 315.067,337.523 320.317,332.523 326.192,325.898 "
                   id="polygon326" />
                <polyline
                   style="fill:#bd3a75;stroke:#b94c7c;stroke-width:1.5;stroke-miterlimit:10"
                   stroke-miterlimit="10"
                   points="279.692,316.439         283.567,309.624 307.692,312.148 312.755,315.523 330.192,316.933 332.567,316.933 327.442,308.523       "
                   id="polyline328" />
              </g>
              <polygon
                 style="fill:#faafd1;stroke:#b94c7c;stroke-width:1.5;stroke-miterlimit:10"
                 clip-path="url(#SVGID_12_)"
                 stroke-miterlimit="10"
                 points="348.192,295.273 344.192,288.148 339.317,285.99 331.567,285.99 331.692,292.898 306.567,309.023 291.442,297.398 292.067,289.398 280.067,285.99 269.942,285.99 266.942,288.898 263.317,295.273 271.567,296.898 304.442,313.148 285.692,325.648 278.317,321.023 271.192,331.773 279.817,334.023 305.988,321.273 326.067,338.023 324.942,347.013 334.817,348.648 343.567,344.023 341.692,331.773 331.567,333.523 309.067,314.398 331.067,299.148 341.192,296.398 "
                 id="polygon330" />
              <polyline
                 style="fill:#faafd1;stroke:#b94c7c;stroke-width:1.5;stroke-miterlimit:10"
                 clip-path="url(#SVGID_12_)"
                 stroke-miterlimit="10"
                 points="       279.942,284.648 279.942,293.648 333.192,339.148 337.913,347.013      "
                 id="polyline332" />
            </g>
            <path
               style="fill:#f083b0;stroke:#b94c7c;stroke-width:1.5;stroke-miterlimit:10"
               inkscape:connector-curvature="0"
               stroke-miterlimit="10"
               d="m 305.989,305.023 c 0,0 -13.922,-12.75 -25.922,-13.75 -12,-1 -14,10 -5.75,15.875 8.25,5.875 17.939,8.101 27.518,6.253 -10.302,2.057 -19.851,14.372 -23.601,19.789 -3.75,5.417 -1.083,11.333 7.708,6.958 8.791,-4.375 20.047,-19.75 20.047,-19.75 0,0 11.687,15.578 19.953,19.563 8.688,4.188 11.75,-0.438 8.125,-6.688 -3.625,-6.25 -16.75,-18.5 -24.5,-20.125 7.75,1.625 21.25,-1.375 28.5,-5.75 7.25,-4.375 7,-17.875 -6.5,-15.5 -13.5,2.375 -25.578,13.125 -25.578,13.125 z"
               id="path334" />
            <path
               style="fill:none;stroke:#9a3b52;stroke-width:1.5;stroke-miterlimit:10"
               inkscape:connector-curvature="0"
               stroke-miterlimit="10"
               d="m 305.989,298.898 c 0,0 -15.824,-10.818 -28.864,-11.991 -13.041,-1.173 -15.386,17.223 -6.42,24.117 8.966,6.894 15.363,5.416 15.363,5.416 0,0 -8.925,8.978 -13,15.334 -2.274,3.548 -2.365,9.924 0.75,13 2.467,2.437 7.403,2.394 11.625,0.125 9.554,-5.134 20.547,-17.25 20.547,-17.25 0,0 11.845,13.199 20.828,17.875 9.441,4.914 17.152,-3.277 13.75,-10.875 -3.75,-8.375 -14.25,-17.625 -14.25,-17.625 0,0 7.716,-1.246 15.595,-6.379 7.879,-5.134 6.28,-24.655 -7.595,-23.246 -14.858,1.508 -28.329,11.499 -28.329,11.499 z"
               id="path336" />
          </g>
          <g
             id="g338">
            <line
               style="fill:none;stroke:#e8629d;stroke-width:1.5;stroke-miterlimit:10"
               stroke-miterlimit="10"
               x1="306.56699"
               y1="298.39801"
               x2="318.94199"
               y2="273.58099"
               id="line340" />
            <line
               style="fill:none;stroke:#e8629d;stroke-width:1.5;stroke-miterlimit:10"
               stroke-miterlimit="10"
               x1="292.505"
               y1="274.086"
               x2="306.56699"
               y2="298.39801"
               id="line342" />
            <ellipse
               style="fill:#f3adca;stroke:#e8629d;stroke-width:1.5;stroke-miterlimit:10"
               sodipodi:ry="18.625"
               sodipodi:rx="5.8280001"
               sodipodi:cy="313.14801"
               sodipodi:cx="305.98901"
               d="m 311.81701,313.14801 c 0,10.2863 -2.60928,18.625 -5.828,18.625 -3.21871,0 -5.828,-8.3387 -5.828,-18.625 0,-10.2863 2.60929,-18.625 5.828,-18.625 3.21872,0 5.828,8.3387 5.828,18.625 z"
               stroke-miterlimit="10"
               cx="305.98901"
               cy="313.14801"
               rx="5.8280001"
               ry="18.625"
               id="ellipse344" />
            <circle
               style="fill:#f3adca;stroke:#e8629d;stroke-width:1.5;stroke-miterlimit:10"
               sodipodi:ry="4.6669998"
               sodipodi:rx="4.6669998"
               sodipodi:cy="273.58099"
               sodipodi:cx="318.94299"
               d="m 323.60999,273.58099 c 0,2.57752 -2.08948,4.667 -4.667,4.667 -2.57751,0 -4.667,-2.08948 -4.667,-4.667 0,-2.57751 2.08949,-4.667 4.667,-4.667 2.57752,0 4.667,2.08949 4.667,4.667 z"
               stroke-miterlimit="10"
               cx="318.94299"
               cy="273.58099"
               r="4.6669998"
               id="circle346" />
            <circle
               style="fill:#f3adca;stroke:#e8629d;stroke-width:1.5;stroke-miterlimit:10"
               sodipodi:ry="4.6669998"
               sodipodi:rx="4.6669998"
               sodipodi:cy="274.08499"
               sodipodi:cx="292.505"
               d="m 297.172,274.08499 c 0,2.57751 -2.08948,4.667 -4.667,4.667 -2.57751,0 -4.66699,-2.08949 -4.66699,-4.667 0,-2.57751 2.08948,-4.667 4.66699,-4.667 2.57752,0 4.667,2.08949 4.667,4.667 z"
               stroke-miterlimit="10"
               cx="292.505"
               cy="274.08499"
               r="4.6669998"
               id="circle348" />
          </g>
        </g>
      </g>
    </g>
  </g>
</svg>
