<?xml version="1.0" encoding="UTF-8" standalone="no"?>
<!-- Created with Inkscape (http://www.inkscape.org/) -->

<svg
   xmlns:dc="http://purl.org/dc/elements/1.1/"
   xmlns:cc="http://creativecommons.org/ns#"
   xmlns:rdf="http://www.w3.org/1999/02/22-rdf-syntax-ns#"
   xmlns:svg="http://www.w3.org/2000/svg"
   xmlns="http://www.w3.org/2000/svg"
   xmlns:xlink="http://www.w3.org/1999/xlink"
   xmlns:sodipodi="http://sodipodi.sourceforge.net/DTD/sodipodi-0.dtd"
   xmlns:inkscape="http://www.inkscape.org/namespaces/inkscape"
   width="278.71747"
   height="276.496"
   id="svg3790"
   version="1.1"
   inkscape:version="0.48.4 r9939"
   sodipodi:docname="element_of_loyalty.svg">
  <defs
     id="defs3792">
    <clipPath
       id="SVGID_4_">
      <use
         height="1052.3622"
         width="744.09448"
         y="0"
         x="0"
         style="overflow:visible"
         xlink:href="#SVGID_3_"
         overflow="visible"
         id="use72" />
    </clipPath>
  </defs>
  <sodipodi:namedview
     id="base"
     pagecolor="#ffffff"
     bordercolor="#666666"
     borderopacity="1.0"
     inkscape:pageopacity="0.0"
     inkscape:pageshadow="2"
     inkscape:zoom="0.35"
     inkscape:cx="394.35873"
     inkscape:cy="-144.60914"
     inkscape:document-units="px"
     inkscape:current-layer="layer1"
     showgrid="false"
     fit-margin-top="74.83"
     fit-margin-left="0"
     fit-margin-right="0"
     fit-margin-bottom="74.83"
     inkscape:window-width="463"
     inkscape:window-height="423"
     inkscape:window-x="1455"
     inkscape:window-y="400"
     inkscape:window-maximized="0" />
  <metadata
     id="metadata3795">
    <rdf:RDF>
      <cc:Work
         rdf:about="">
        <dc:format>image/svg+xml</dc:format>
        <dc:type
           rdf:resource="http://purl.org/dc/dcmitype/StillImage" />
        <dc:title />
      </cc:Work>
    </rdf:RDF>
  </metadata>
  <g
     inkscape:label="Layer 1"
     inkscape:groupmode="layer"
     id="layer1"
     transform="translate(19.358738,-111.25704)">
    <g
       transform="translate(-626.30404,105.42004)"
       id="g61">
      <g
         id="BAND_1_">
        <g
           id="outlines_2_">
          <path
             style="fill:#dec725"
             inkscape:connector-curvature="0"
             d="m 616.424,82.167 c -5.334,17.072 20.545,32.119 54.605,37.429 34.06,5.31 61.449,-8.867 75.424,19.624 5.351,-23.991 33.637,-17.648 57.305,-16.98 23.666,0.666 79.667,-16.098 72.001,-40.072 13.998,9.738 8.253,30.471 -0.913,42.553 -9.936,13.097 -19.088,25.184 -33.993,12.521 1.905,11.663 -10.427,29.331 -27.429,11.68 -2.666,44.985 -53.333,35.319 -65.998,7.15 -13.002,27.834 -62.668,40.5 -68.668,-7.15 -10,14.984 -29.334,5.984 -26.998,-11.017 -16.336,11.335 -29.09,-3.688 -36.336,-15.332 -9.395,-15.1 -9.539,-33.536 1,-40.406 z"
             id="path65" />
          <g
             id="REFL_2_">
            <defs
               id="defs68">
              <path
                 inkscape:connector-curvature="0"
                 id="SVGID_3_"
                 d="m 616.424,82.167 c -5.334,17.072 20.545,32.119 54.605,37.429 34.06,5.31 73.183,19.712 75.774,32.044 1.329,-10.668 33.286,-30.069 56.954,-29.401 23.666,0.666 79.667,-16.098 72.001,-40.072 13.998,9.738 8.253,30.471 -0.913,42.553 -9.936,13.097 -19.088,25.184 -33.993,12.521 1.905,11.663 -10.427,29.331 -27.429,11.68 -2.666,44.985 -53.333,35.319 -65.998,7.15 -13.002,27.834 -62.668,40.5 -68.668,-7.15 -10,14.984 -29.334,5.984 -26.998,-11.017 -16.336,11.335 -29.09,-3.688 -36.336,-15.332 -9.394,-15.099 -9.538,-33.535 1.001,-40.405 z" />
            </defs>
            <clipPath
               id="clipPath3762">
              <use
                 height="1052.3622"
                 width="744.09448"
                 y="0"
                 x="0"
                 style="overflow:visible"
                 xlink:href="#SVGID_3_"
                 overflow="visible"
                 id="use3764" />
            </clipPath>
            <g
               clip-path="url(#SVGID_4_)"
               id="g74">
              <rect
                 style="fill:#f1e665"
                 x="804.72101"
                 y="116.397"
                 transform="matrix(1,0.0093,-0.0093,1,1.3922,-7.6026)"
                 width="24.323"
                 height="58.504002"
                 id="rect76" />
              <rect
                 style="fill:#f1e665"
                 x="839.70099"
                 y="111.985"
                 transform="matrix(0.9984,-0.0568,0.0568,0.9984,-5.8942,48.1559)"
                 width="8.6289997"
                 height="31.517"
                 id="rect78" />
              <rect
                 style="fill:#f1e665"
                 x="655.59998"
                 y="115.912"
                 transform="matrix(0.9853,0.1706,-0.1706,0.9853,32.8553,-110.6137)"
                 width="8.5959997"
                 height="39.819"
                 id="rect80" />
            </g>
          </g>
          <g
             id="g82">
            <path
               style="fill:none;stroke:#aa8922;stroke-width:2;stroke-miterlimit:10"
               inkscape:connector-curvature="0"
               stroke-miterlimit="10"
               d="m 790.923,149.487 c -0.475,3.16 -3.69,5.506 -7.186,5.242 -4.359,-0.33 -7.412,-5.799 -6.816,-9.748 0.743,-4.937 5.891,-7.253 13.219,-6.19 6.765,0.981 11.132,8.301 10.566,14.514 -0.448,4.932 -5.282,12.266 -15.438,11.389 -10.645,-0.92 -19.29,-6.313 -16.714,-19.873 2.734,-14.392 13.291,-14.033 22.416,-13.318 73.271,5.738 98.426,-29.954 84.789,-49.337"
               id="path84" />
            <g
               id="g86">
              <path
                 style="fill:#aa8922"
                 inkscape:connector-curvature="0"
                 d="m 786.556,144.53 c 0,0 0.117,0.004 0.321,0.012 0.104,0.004 0.228,0.008 0.37,0.012 0.143,0.014 0.304,-0.012 0.479,0.043 0.179,0.041 0.374,0.086 0.579,0.133 0.218,0.037 0.424,0.123 0.633,0.223 0.207,0.104 0.447,0.182 0.652,0.32 0.206,0.148 0.414,0.299 0.623,0.451 0.21,0.154 0.363,0.371 0.547,0.561 0.19,0.186 0.332,0.402 0.45,0.629 0.118,0.225 0.272,0.434 0.343,0.66 0.071,0.23 0.139,0.447 0.2,0.648 0.146,0.406 0.099,0.766 0.137,1.016 0.015,0.254 0.022,0.398 0.022,0.398 l -1.979,-0.297 c 0,0 0.018,-0.088 0.047,-0.24 0.01,-0.152 0.133,-0.383 0.1,-0.656 -0.002,-0.143 -0.005,-0.295 -0.008,-0.457 0.002,-0.168 -0.074,-0.326 -0.107,-0.508 -0.035,-0.184 -0.09,-0.369 -0.193,-0.537 -0.098,-0.17 -0.163,-0.377 -0.293,-0.537 -0.131,-0.166 -0.264,-0.33 -0.393,-0.492 -0.137,-0.162 -0.314,-0.273 -0.468,-0.412 -0.156,-0.137 -0.313,-0.262 -0.483,-0.338 -0.168,-0.092 -0.327,-0.18 -0.475,-0.26 -0.144,-0.096 -0.313,-0.115 -0.444,-0.166 -0.136,-0.041 -0.255,-0.078 -0.353,-0.109 -0.195,-0.062 -0.307,-0.097 -0.307,-0.097 z"
                 id="path88" />
            </g>
          </g>
          <g
             id="g90">
            <path
               style="fill:none;stroke:#aa8922;stroke-width:2;stroke-miterlimit:10"
               inkscape:connector-curvature="0"
               stroke-miterlimit="10"
               d="m 701.628,150.062 c 0.653,3.129 3.996,5.285 7.472,4.824 4.333,-0.576 7.07,-6.209 6.252,-10.117 -1.023,-4.888 -6.294,-6.909 -13.55,-5.43 -6.698,1.364 -10.643,8.92 -9.725,15.09 0.729,4.898 5.969,11.945 16.06,10.494 10.575,-1.523 18.9,-7.398 15.56,-20.791 -3.548,-14.213 -14.028,-12.926 -23.137,-12.023 -63.414,6.286 -96.651,-29.816 -84.136,-49.942"
               id="path92" />
            <g
               id="g94">
              <path
                 style="fill:#aa8922"
                 inkscape:connector-curvature="0"
                 d="m 705.706,144.864 c 0,0 -0.109,0.041 -0.302,0.113 -0.096,0.035 -0.212,0.08 -0.346,0.129 -0.129,0.059 -0.296,0.088 -0.435,0.191 -0.143,0.088 -0.296,0.184 -0.459,0.285 -0.165,0.086 -0.315,0.219 -0.463,0.365 -0.145,0.148 -0.316,0.27 -0.443,0.438 -0.12,0.17 -0.243,0.342 -0.365,0.514 -0.12,0.168 -0.173,0.377 -0.261,0.553 -0.095,0.174 -0.138,0.363 -0.162,0.549 -0.024,0.182 -0.091,0.344 -0.08,0.512 0.007,0.162 0.014,0.314 0.02,0.457 -0.018,0.275 0.119,0.498 0.137,0.65 0.038,0.15 0.06,0.236 0.06,0.236 l -1.957,0.41 c 0,0 -10e-4,-0.146 -10e-4,-0.398 0.024,-0.254 -0.043,-0.609 0.078,-1.023 0.051,-0.205 0.105,-0.426 0.163,-0.658 0.059,-0.23 0.2,-0.447 0.305,-0.678 0.106,-0.232 0.234,-0.459 0.414,-0.656 0.173,-0.197 0.313,-0.422 0.515,-0.59 0.199,-0.162 0.398,-0.324 0.596,-0.484 0.198,-0.15 0.433,-0.242 0.634,-0.357 0.203,-0.113 0.403,-0.209 0.618,-0.258 0.203,-0.061 0.395,-0.115 0.571,-0.166 0.171,-0.064 0.334,-0.049 0.476,-0.07 0.142,-0.014 0.266,-0.023 0.368,-0.033 0.203,-0.019 0.319,-0.031 0.319,-0.031 z"
                 id="path96" />
            </g>
          </g>
          <path
             style="fill:none;stroke:#aa8922;stroke-width:3;stroke-miterlimit:10"
             inkscape:connector-curvature="0"
             stroke-miterlimit="10"
             d="m 616.424,82.167 c -5.334,17.072 20.545,32.119 54.605,37.429 34.06,5.31 61.449,-8.867 75.424,19.624 5.351,-23.991 33.637,-17.648 57.305,-16.98 23.666,0.666 79.667,-16.098 72.001,-40.072 13.998,9.738 8.253,30.471 -0.913,42.553 -9.936,13.097 -19.088,25.184 -33.993,12.521 1.905,11.663 -10.427,29.331 -27.429,11.68 -2.666,44.985 -53.333,35.319 -65.998,7.15 -13.002,27.834 -62.668,40.5 -68.668,-7.15 -10,14.984 -29.334,5.984 -26.998,-11.017 -16.336,11.335 -29.09,-3.688 -36.336,-15.332 -9.395,-15.1 -9.539,-33.536 1,-40.406 z"
             id="path98" />
        </g>
      </g>
      <g
         id="g100">
        <polygon
           style="fill:#dec725;stroke:#aa8922;stroke-width:3;stroke-linejoin:round;stroke-miterlimit:10"
           stroke-miterlimit="10"
           points="713.222,157.67 732.972,111.241 784.222,107.503 771.313,128.337 791.97,130.503 714.555,206.003 729.222,156.414 "
           id="polygon102" />
        <g
           id="g104">
          <polygon
             style="fill:#820e1e;stroke:#7c121f;stroke-width:1.5;stroke-miterlimit:10"
             stroke-miterlimit="10"
             points="722.722,150.503 737.472,116.977 772.222,114.378 760.472,132.503 779.389,134.991 723.722,190.253 738.472,150.253 "
             id="polygon106" />
          <polygon
             style="fill:#fca6b5;stroke:#7c121f;stroke-width:1.5;stroke-linejoin:bevel;stroke-miterlimit:10"
             stroke-miterlimit="10"
             points="772.222,114.378 762.347,120.337 740.639,121.841 737.472,116.977 "
             id="polygon108" />
          <polygon
             style="fill:#e4293c;stroke:#7c121f;stroke-width:1.5;stroke-linejoin:bevel;stroke-miterlimit:10"
             stroke-miterlimit="10"
             points="722.722,150.503 729.472,144.845 740.639,121.841 737.472,116.977 "
             id="polygon110" />
          <polygon
             style="fill:#e4293c;stroke:#7c121f;stroke-width:1.5;stroke-linejoin:bevel;stroke-miterlimit:10"
             stroke-miterlimit="10"
             points="752.472,136.586 760.472,132.503 772.222,114.378 762.347,120.337 "
             id="polygon112" />
          <polygon
             style="fill:#fca6b5;stroke:#7c121f;stroke-width:1.5;stroke-linejoin:bevel;stroke-miterlimit:10"
             stroke-miterlimit="10"
             points="760.472,132.503 779.389,134.991 771.313,137.479 752.472,136.586 "
             id="polygon114" />
          <polygon
             style="fill:#e4293c;stroke:#7c121f;stroke-width:1.5;stroke-linejoin:bevel;stroke-miterlimit:10"
             stroke-miterlimit="10"
             points="728.218,145.896 745.305,144.845 738.472,150.253 722.722,150.503 "
             id="polygon116" />
          <polygon
             style="fill:#e4293c;stroke:#7c121f;stroke-width:1.5;stroke-linejoin:bevel;stroke-miterlimit:10"
             stroke-miterlimit="10"
             points="744.222,144.845 734.013,173.746 723.722,190.253 738.472,150.253 "
             id="polygon118" />
          <polygon
             style="fill:#f94449;stroke:#7c121f;stroke-width:1.5;stroke-miterlimit:10"
             stroke-miterlimit="10"
             points="728.218,145.896 740.639,121.841 762.347,120.337 752.472,136.586 771.313,137.479 734.013,173.746 744.222,144.845 "
             id="polygon120" />
        </g>
      </g>
    </g>
  </g>
</svg>
