<?xml version="1.0" encoding="UTF-8" standalone="no"?>
<!-- Created with Inkscape (http://www.inkscape.org/) -->

<svg
   xmlns:dc="http://purl.org/dc/elements/1.1/"
   xmlns:cc="http://creativecommons.org/ns#"
   xmlns:rdf="http://www.w3.org/1999/02/22-rdf-syntax-ns#"
   xmlns:svg="http://www.w3.org/2000/svg"
   xmlns="http://www.w3.org/2000/svg"
   xmlns:xlink="http://www.w3.org/1999/xlink"
   xmlns:sodipodi="http://sodipodi.sourceforge.net/DTD/sodipodi-0.dtd"
   xmlns:inkscape="http://www.inkscape.org/namespaces/inkscape"
   width="171.35928"
   height="186.07507"
   id="svg3572"
   version="1.1"
   inkscape:version="0.48.4 r9939"
   sodipodi:docname="New document 2">
  <defs
     id="defs3574">
    <clipPath
       id="SVGID_14_">
      <use
         height="1052.3622"
         width="744.09448"
         y="0"
         x="0"
         style="overflow:visible"
         xlink:href="#SVGID_13_"
         overflow="visible"
         id="use416" />
    </clipPath>
  </defs>
  <sodipodi:namedview
     id="base"
     pagecolor="#ffffff"
     bordercolor="#666666"
     borderopacity="1.0"
     inkscape:pageopacity="0.0"
     inkscape:pageshadow="2"
     inkscape:zoom="0.35"
     inkscape:cx="-90.733269"
     inkscape:cy="-138.84309"
     inkscape:document-units="px"
     inkscape:current-layer="layer1"
     showgrid="false"
     fit-margin-top="0"
     fit-margin-left="0"
     fit-margin-right="0"
     fit-margin-bottom="0"
     inkscape:window-width="463"
     inkscape:window-height="423"
     inkscape:window-x="1405"
     inkscape:window-y="350"
     inkscape:window-maximized="0" />
  <metadata
     id="metadata3577">
    <rdf:RDF>
      <cc:Work
         rdf:about="">
        <dc:format>image/svg+xml</dc:format>
        <dc:type
           rdf:resource="http://purl.org/dc/dcmitype/StillImage" />
        <dc:title></dc:title>
      </cc:Work>
    </rdf:RDF>
  </metadata>
  <g
     inkscape:label="Layer 1"
     inkscape:groupmode="layer"
     id="layer1"
     transform="translate(-465.73327,-207.44401)">
    <g
       transform="translate(61.042935,199.28776)"
       id="g350">
      <g
         id="g352">
        <g
           id="g354">
          <g
             id="g356">
            <g
               id="g358">
              <path
                 style="fill:#aa8922"
                 inkscape:connector-curvature="0"
                 d="m 508.978,50.661 c 0,0 0.124,-0.178 0.311,-0.443 0.071,-0.098 0.15,-0.2 0.236,-0.298 0.084,-0.11 0.183,-0.162 0.279,-0.241 0.184,-0.157 0.425,-0.254 0.641,-0.349 0.237,-0.061 0.455,-0.123 0.671,-0.113 0.207,-0.018 0.397,0.029 0.548,0.059 0.15,0.026 0.267,0.1 0.346,0.127 0.076,0.034 0.12,0.054 0.12,0.054 0,0 -0.048,0.011 -0.131,0.031 -0.081,0.027 -0.195,0.034 -0.317,0.1 -0.123,0.063 -0.258,0.12 -0.374,0.232 -0.125,0.085 -0.217,0.229 -0.304,0.339 -0.064,0.143 -0.131,0.256 -0.143,0.387 -0.006,0.059 -0.037,0.119 -0.015,0.157 0.01,0.034 0.019,0.065 0.027,0.095 0.007,0.004 0.008,0.077 0.011,0.14 0.002,0.059 0.005,0.11 0.006,0.153 0.004,0.085 0.006,0.133 0.006,0.133 l -1.918,-0.563 z"
                 id="path360" />
            </g>
            <path
               style="fill:none;stroke:#aa8922;stroke-width:2;stroke-miterlimit:10"
               inkscape:connector-curvature="0"
               stroke-miterlimit="10"
               d="m 538.206,97.642 c 2.201,-1.274 2.952,-4.091 1.678,-6.292 -1.592,-2.75 -5.784,-5.386 -9.867,-3.636 -4.824,2.067 -5.312,9.378 -1.75,13.917 4.25,5.417 13.785,4.905 18.083,2.417 5.372,-3.11 3.694,-12.45 -0.567,-17.046 C 532.85,73.05 513.267,73.55 506.963,50.708 c -0.672,-2.436 3.417,-4.462 7.033,-4.16 3.021,0.252 5.374,3.087 4.854,5.041 -0.5,1.878 -2.25,3.49 -5.333,3.49 -2.498,0 -4,-1.862 -3.58,-4.137"
               id="path362" />
            <g
               id="g364">
              <path
                 style="fill:#aa8922"
                 inkscape:connector-curvature="0"
                 d="m 533.174,96.3 c 0,0 0.065,0.064 0.181,0.176 0.121,0.099 0.261,0.301 0.492,0.436 0.107,0.067 0.225,0.141 0.35,0.218 0.108,0.085 0.275,0.121 0.416,0.182 0.15,0.051 0.288,0.127 0.456,0.14 l 0.473,0.078 0.471,-0.018 c 0.149,0.011 0.296,-0.048 0.433,-0.076 0.136,-0.041 0.268,-0.042 0.381,-0.114 0.111,-0.053 0.218,-0.103 0.315,-0.149 0.194,-0.08 0.317,-0.229 0.417,-0.288 0.094,-0.069 0.148,-0.109 0.148,-0.109 l 1.002,1.73 c 0,0 -0.111,0.035 -0.305,0.095 -0.197,0.046 -0.456,0.168 -0.796,0.192 -0.167,0.014 -0.347,0.029 -0.537,0.044 -0.187,0.028 -0.388,-0.021 -0.589,-0.036 -0.201,-0.029 -0.406,-0.033 -0.605,-0.112 -0.195,-0.064 -0.395,-0.129 -0.593,-0.195 -0.18,-0.1 -0.359,-0.199 -0.536,-0.297 -0.18,-0.084 -0.32,-0.23 -0.464,-0.347 -0.138,-0.128 -0.284,-0.218 -0.386,-0.367 -0.104,-0.133 -0.201,-0.259 -0.293,-0.375 -0.18,-0.221 -0.236,-0.446 -0.32,-0.584 -0.071,-0.141 -0.111,-0.224 -0.111,-0.224 z"
                 id="path366" />
            </g>
          </g>
          <g
             id="g368">
            <g
               id="g370">
              <path
                 style="fill:#aa8922"
                 inkscape:connector-curvature="0"
                 d="m 517.24,84.329 c 0,0 -0.029,0.063 -0.081,0.174 -0.063,0.123 -0.09,0.238 -0.256,0.502 -0.073,0.116 -0.153,0.241 -0.237,0.373 -0.097,0.112 -0.204,0.219 -0.312,0.331 -0.1,0.118 -0.236,0.207 -0.368,0.298 -0.133,0.09 -0.259,0.189 -0.412,0.243 -0.147,0.062 -0.289,0.129 -0.433,0.176 -0.148,0.03 -0.293,0.06 -0.434,0.088 -0.275,0.054 -0.54,0.018 -0.752,0.027 -0.43,-0.067 -0.697,-0.125 -0.697,-0.125 0,0 0.285,-0.037 0.68,-0.109 0.189,-0.078 0.42,-0.121 0.629,-0.247 0.102,-0.061 0.207,-0.123 0.313,-0.187 0.097,-0.075 0.183,-0.166 0.272,-0.244 0.096,-0.071 0.156,-0.18 0.225,-0.271 0.066,-0.093 0.135,-0.177 0.17,-0.283 0.043,-0.096 0.083,-0.188 0.121,-0.275 0.017,-0.082 0.031,-0.159 0.047,-0.23 0.016,-0.062 0.032,-0.124 0.037,-0.222 0.008,-0.084 0.016,-0.158 0.021,-0.219 0.012,-0.122 0.018,-0.191 0.018,-0.191 l 1.449,0.391 z"
                 id="path372" />
            </g>
            <path
               style="fill:none;stroke:#aa8922;stroke-width:1.5;stroke-miterlimit:10"
               inkscape:connector-curvature="0"
               stroke-miterlimit="10"
               d="m 504.95,71.64 c 0.48,-1.684 -0.25,-2.944 -2.193,-3.423 -2.432,-0.598 -6.145,0.482 -6.157,2.417 -0.068,11 12.965,4.361 18.25,4.583 5.285,0.222 8.01,4.858 7.25,9.083 -0.608,3.38 -4.317,7.539 -8.833,7.083 -3.613,-0.364 -6.098,-5.14 -5.611,-7.844 0.389,-2.163 2.893,-3.138 5.783,-2.848 2.311,0.233 3.389,1.711 3.078,3.442"
               id="path374" />
            <g
               id="g376">
              <path
                 style="fill:#aa8922"
                 inkscape:connector-curvature="0"
                 d="m 501.437,73.385 c 0,0 0.068,-0.001 0.188,-0.003 0.119,-0.009 0.295,0.01 0.493,-0.025 0.196,-0.052 0.411,-0.059 0.634,-0.167 0.227,-0.073 0.441,-0.202 0.64,-0.336 0.104,-0.056 0.18,-0.159 0.267,-0.23 0.086,-0.073 0.162,-0.152 0.215,-0.245 0.133,-0.161 0.208,-0.33 0.257,-0.475 0.075,-0.131 0.055,-0.269 0.078,-0.345 0.014,-0.08 0.021,-0.125 0.021,-0.125 l 1.442,0.411 c 0,0 -0.044,0.08 -0.12,0.219 -0.088,0.131 -0.166,0.344 -0.358,0.525 -0.168,0.2 -0.381,0.403 -0.646,0.562 -0.121,0.094 -0.262,0.163 -0.408,0.22 -0.146,0.055 -0.279,0.137 -0.434,0.164 -0.3,0.078 -0.593,0.13 -0.871,0.122 -0.27,0.029 -0.537,-0.045 -0.742,-0.067 -0.206,-0.037 -0.36,-0.112 -0.477,-0.145 -0.115,-0.038 -0.179,-0.06 -0.179,-0.06 z"
                 id="path378" />
            </g>
          </g>
        </g>
        <g
           id="g380">
          <g
             id="g382">
            <g
               id="g384">
              <path
                 style="fill:#aa8922"
                 inkscape:connector-curvature="0"
                 d="m 471.347,51.299 c 0,0 0.002,-0.048 0.005,-0.133 0.001,-0.042 0.003,-0.094 0.006,-0.153 0.002,-0.063 0.004,-0.135 0.01,-0.14 0.008,-0.029 0.018,-0.061 0.027,-0.095 0.023,-0.039 -0.009,-0.098 -0.015,-0.157 -0.013,-0.132 -0.08,-0.244 -0.145,-0.387 -0.087,-0.109 -0.18,-0.253 -0.305,-0.337 -0.116,-0.112 -0.251,-0.169 -0.375,-0.231 -0.123,-0.065 -0.236,-0.071 -0.318,-0.099 -0.083,-0.02 -0.131,-0.031 -0.131,-0.031 0,0 0.044,-0.02 0.121,-0.054 0.078,-0.028 0.194,-0.101 0.345,-0.128 0.15,-0.03 0.34,-0.078 0.547,-0.061 0.215,-0.01 0.434,0.051 0.672,0.111 0.216,0.094 0.457,0.19 0.642,0.346 0.097,0.079 0.196,0.131 0.28,0.24 0.086,0.098 0.166,0.2 0.237,0.297 0.188,0.266 0.313,0.442 0.313,0.442 l -1.916,0.57 z"
                 id="path386" />
            </g>
            <path
               style="fill:none;stroke:#aa8922;stroke-width:2;stroke-miterlimit:10"
               inkscape:connector-curvature="0"
               stroke-miterlimit="10"
               d="m 444.229,97.83 c -2.206,-1.265 -2.968,-4.079 -1.704,-6.285 1.582,-2.757 5.763,-5.41 9.853,-3.677 4.832,2.047 5.35,9.356 1.808,13.909 -4.228,5.434 -13.765,4.962 -18.073,2.491 -5.386,-3.088 -3.746,-12.435 0.496,-17.049 12.875,-14.004 32.461,-13.585 38.669,-36.453 0.662,-2.438 -3.436,-4.448 -7.05,-4.131 -3.019,0.265 -5.36,3.11 -4.832,5.061 0.508,1.876 2.264,3.48 5.347,3.468 2.497,-0.01 3.992,-1.879 3.563,-4.151"
               id="path388" />
            <g
               id="g390">
              <path
                 style="fill:#aa8922"
                 inkscape:connector-curvature="0"
                 d="m 449.256,96.467 c 0,0 -0.04,0.083 -0.109,0.227 -0.083,0.139 -0.14,0.363 -0.318,0.585 -0.09,0.116 -0.188,0.242 -0.291,0.375 -0.101,0.149 -0.247,0.24 -0.384,0.369 -0.143,0.117 -0.283,0.264 -0.462,0.349 -0.177,0.099 -0.356,0.199 -0.536,0.299 -0.198,0.066 -0.396,0.132 -0.592,0.197 -0.198,0.08 -0.404,0.084 -0.605,0.114 -0.201,0.017 -0.403,0.066 -0.589,0.039 -0.19,-0.015 -0.371,-0.029 -0.537,-0.042 -0.34,-0.023 -0.599,-0.144 -0.797,-0.189 -0.194,-0.06 -0.305,-0.094 -0.305,-0.094 l 0.995,-1.734 c 0,0 0.054,0.039 0.148,0.108 0.1,0.058 0.224,0.207 0.418,0.286 0.098,0.046 0.204,0.096 0.316,0.148 0.113,0.07 0.246,0.071 0.381,0.112 0.136,0.027 0.284,0.086 0.433,0.074 l 0.471,0.016 0.473,-0.081 c 0.167,-0.013 0.306,-0.09 0.455,-0.141 0.141,-0.062 0.308,-0.098 0.416,-0.184 0.124,-0.078 0.241,-0.152 0.349,-0.22 0.231,-0.135 0.369,-0.337 0.491,-0.438 0.113,-0.11 0.179,-0.175 0.179,-0.175 z"
                 id="path392" />
            </g>
          </g>
          <g
             id="g394">
            <g
               id="g396">
              <path
                 style="fill:#aa8922"
                 inkscape:connector-curvature="0"
                 d="m 466.586,84.032 c 0,0 0.007,0.069 0.019,0.191 0.006,0.061 0.013,0.134 0.021,0.219 0.006,0.099 0.022,0.16 0.039,0.222 0.015,0.071 0.03,0.148 0.047,0.23 0.039,0.087 0.08,0.179 0.122,0.274 0.036,0.106 0.105,0.189 0.172,0.282 0.068,0.092 0.13,0.2 0.226,0.271 0.089,0.078 0.176,0.168 0.273,0.244 0.107,0.063 0.212,0.125 0.314,0.185 0.209,0.125 0.439,0.167 0.63,0.244 0.395,0.07 0.679,0.106 0.679,0.106 0,0 -0.267,0.058 -0.696,0.127 -0.212,-0.009 -0.476,0.029 -0.752,-0.024 -0.141,-0.028 -0.286,-0.057 -0.434,-0.086 -0.144,-0.046 -0.286,-0.113 -0.434,-0.174 -0.154,-0.053 -0.28,-0.151 -0.413,-0.241 -0.132,-0.09 -0.269,-0.18 -0.369,-0.296 -0.108,-0.111 -0.215,-0.218 -0.313,-0.33 -0.085,-0.132 -0.166,-0.257 -0.239,-0.372 -0.167,-0.263 -0.193,-0.378 -0.258,-0.501 -0.052,-0.11 -0.081,-0.174 -0.081,-0.174 l 1.447,-0.397 z"
                 id="path398" />
            </g>
            <path
               style="fill:none;stroke:#aa8922;stroke-width:1.5;stroke-miterlimit:10"
               inkscape:connector-curvature="0"
               stroke-miterlimit="10"
               d="m 477.377,71.69 c -0.488,-1.682 0.237,-2.945 2.179,-3.432 2.428,-0.608 6.146,0.457 6.167,2.391 0.114,11 -12.947,4.415 -18.231,4.659 -5.284,0.245 -7.989,4.891 -7.212,9.113 0.623,3.377 4.348,7.521 8.862,7.047 3.611,-0.379 6.076,-5.166 5.578,-7.868 -0.397,-2.161 -2.904,-3.126 -5.794,-2.824 -2.31,0.243 -3.381,1.725 -3.063,3.455"
               id="path400" />
            <g
               id="g402">
              <path
                 style="fill:#aa8922"
                 inkscape:connector-curvature="0"
                 d="m 480.898,73.421 c 0,0 -0.065,0.022 -0.178,0.061 -0.116,0.032 -0.27,0.108 -0.476,0.146 -0.206,0.022 -0.472,0.097 -0.742,0.07 -0.278,0.009 -0.572,-0.042 -0.872,-0.119 -0.154,-0.026 -0.289,-0.107 -0.435,-0.162 -0.147,-0.056 -0.287,-0.125 -0.408,-0.218 -0.266,-0.158 -0.48,-0.359 -0.649,-0.559 -0.193,-0.181 -0.272,-0.394 -0.36,-0.524 -0.077,-0.139 -0.121,-0.218 -0.121,-0.218 l 1.44,-0.418 c 0,0 0.008,0.045 0.022,0.125 0.024,0.076 0.004,0.214 0.08,0.345 0.049,0.145 0.125,0.313 0.259,0.474 0.054,0.092 0.129,0.17 0.216,0.244 0.087,0.071 0.162,0.173 0.267,0.229 0.199,0.134 0.414,0.262 0.642,0.333 0.223,0.107 0.437,0.114 0.634,0.165 0.198,0.034 0.375,0.014 0.493,0.022 0.12,0.003 0.188,0.004 0.188,0.004 z"
                 id="path404" />
            </g>
          </g>
        </g>
      </g>
      <g
         id="g406">
        <path
           style="fill:#dec725"
           inkscape:connector-curvature="0"
           d="m 560.245,186.026 c -0.731,-0.486 -1.503,-1.11 -2.313,-1.896 -3.656,-3.545 -9.25,-12.125 -10.135,-25.3 -0.886,-13.175 -5.115,-38.033 -17.569,-52.198 -12.454,-14.165 -30.046,-24.752 -39.015,-26.836 -43.906,12.959 -56.197,52.668 -56.53,70.168 -0.333,17.5 -7.584,31.999 -12.368,35.156 -0.716,0.473 -1.716,0.342 -1.716,0.342 1.46,-3.541 -0.732,-7.968 -4.5,-8.833 -4.25,-0.976 -8.091,-0.124 -9.551,3.417 -1.459,3.541 1.968,8.667 6.051,11 0,0 9.333,2.916 14.583,0 5.25,-2.916 14.238,-13.418 17.046,-24.166 11.954,-45.75 32.704,-52.5 46.359,-56.25 21.095,4.833 37.929,21.833 44.429,50.5 5.024,22.161 18.896,31.332 25.082,31.582 6.188,0.25 13.334,-3.667 14.334,-9.5 1,-5.833 -3.75,-8.417 -9.584,-7 -5.831,1.417 -4.603,9.814 -4.603,9.814 z"
           id="path408" />
        <g
           id="g410">
          <defs
             id="defs412">
            <path
               inkscape:connector-curvature="0"
               id="SVGID_13_"
               d="m 560.245,186.026 c -0.731,-0.486 -1.503,-1.11 -2.313,-1.896 -3.656,-3.545 -9.25,-12.125 -10.135,-25.3 -0.886,-13.175 -5.115,-38.033 -17.569,-52.198 -12.454,-14.165 -30.046,-24.752 -39.015,-26.836 -43.906,12.959 -56.197,52.668 -56.53,70.168 -0.333,17.5 -7.584,31.999 -12.368,35.156 -0.716,0.473 -1.716,0.342 -1.716,0.342 1.46,-3.541 -0.732,-7.968 -4.5,-8.833 -4.25,-0.976 -8.091,-0.124 -9.551,3.417 -1.459,3.541 1.968,8.667 6.051,11 0,0 9.333,2.916 14.583,0 5.25,-2.916 14.238,-13.418 17.046,-24.166 11.954,-45.75 32.704,-52.5 46.359,-56.25 21.095,4.833 37.929,21.833 44.429,50.5 5.024,22.161 18.896,31.332 25.082,31.582 6.188,0.25 13.334,-3.667 14.334,-9.5 1,-5.833 -3.75,-8.417 -9.584,-7 -5.831,1.417 -4.603,9.814 -4.603,9.814 z" />
          </defs>
          <clipPath
             id="clipPath3526">
            <use
               height="1052.3622"
               width="744.09448"
               y="0"
               x="0"
               style="overflow:visible"
               xlink:href="#SVGID_13_"
               overflow="visible"
               id="use3528" />
          </clipPath>
          <polygon
             style="fill:#f1e663"
             clip-path="url(#SVGID_14_)"
             points="546.433,137.631 547.683,145.131 529.683,153.631 530.683,159.131 551.683,150.381 545.683,122.631 526.044,96.3 504.95,81.131 477.377,79.734 457.433,92.881 438.683,119.433 430.433,148.881 431.683,153.131 449.256,159.131 450.683,153.381 432.707,146.631 435.75,140.534 452.933,148.131 457.183,139.131 440.18,125.748 449.256,102.631 472.937,82.173 480.081,119.131 500.433,115.881 509.937,85.285 534.183,108.131 543.683,125.631 524.183,139.631 528.308,148.631 "
             id="polygon418" />
        </g>
        <g
           id="g420">
          <g
             id="g422">
            <path
               style="fill:#aa8922"
               inkscape:connector-curvature="0"
               d="m 558.915,182.998 c 0,0 0.164,0.173 0.448,0.477 0.143,0.151 0.315,0.335 0.515,0.547 0.197,0.209 0.426,0.471 0.653,0.64 0.234,0.201 0.488,0.418 0.757,0.648 0.275,0.23 0.615,0.4 0.946,0.625 0.33,0.251 0.71,0.33 1.086,0.515 0.38,0.169 0.782,0.194 1.192,0.3 0.402,-0.015 0.834,0.068 1.236,-0.041 0.42,-0.039 0.811,-0.185 1.201,-0.323 0.368,-0.175 0.746,-0.34 1.061,-0.57 0.33,-0.209 0.621,-0.442 0.881,-0.673 0.52,-0.461 0.91,-0.906 1.16,-1.233 0.258,-0.324 0.381,-0.528 0.381,-0.528 0,0 -0.08,0.225 -0.271,0.597 -0.185,0.376 -0.484,0.898 -0.925,1.482 -0.221,0.292 -0.477,0.598 -0.786,0.895 -0.289,0.315 -0.664,0.583 -1.048,0.865 -0.409,0.25 -0.841,0.512 -1.339,0.668 -0.479,0.224 -1.016,0.252 -1.549,0.361 -0.523,-0.011 -1.088,0.04 -1.599,-0.067 -0.503,-0.117 -1.055,-0.161 -1.496,-0.366 -0.456,-0.183 -0.924,-0.323 -1.329,-0.538 -0.403,-0.227 -0.785,-0.441 -1.139,-0.639 -0.379,-0.203 -0.621,-0.395 -0.859,-0.562 -0.236,-0.168 -0.441,-0.314 -0.611,-0.435 -0.338,-0.241 -0.531,-0.379 -0.531,-0.379 l 1.965,-2.266 z"
               id="path424" />
          </g>
          <path
             style="fill:none;stroke:#aa8922;stroke-width:3;stroke-miterlimit:10"
             inkscape:connector-curvature="0"
             stroke-miterlimit="10"
             d="m 423.35,184.631 c 3.833,-3.667 11,-17.167 11.333,-34.667 0.333,-17.5 12.625,-57.208 56.53,-70.168 8.969,2.084 26.561,12.671 39.015,26.836 12.454,14.165 16.684,39.023 17.569,52.198 0.885,13.175 6.479,21.754 10.135,25.3"
             id="path426" />
          <g
             id="g428">
            <path
               style="fill:#aa8922"
               inkscape:connector-curvature="0"
               d="m 410.433,182.881 c 0,0 0.142,0.197 0.389,0.542 0.13,0.166 0.258,0.397 0.467,0.602 0.202,0.21 0.405,0.462 0.663,0.701 0.281,0.218 0.539,0.5 0.883,0.706 0.331,0.222 0.681,0.442 1.077,0.601 0.373,0.199 0.808,0.289 1.221,0.402 l 0.644,0.102 c 0.217,0.019 0.437,0.013 0.652,0.021 1.75,-0.004 3.355,-0.792 4.354,-1.568 0.261,-0.18 0.478,-0.376 0.667,-0.553 0.194,-0.168 0.354,-0.322 0.474,-0.465 0.248,-0.27 0.39,-0.424 0.39,-0.424 l 2.073,2.168 c 0,0 -0.222,0.163 -0.61,0.449 -0.188,0.147 -0.434,0.306 -0.724,0.473 -0.284,0.175 -0.606,0.365 -0.983,0.532 -0.362,0.188 -0.776,0.349 -1.219,0.5 -0.434,0.166 -0.926,0.265 -1.417,0.375 -0.505,0.079 -1.022,0.152 -1.558,0.145 -0.264,0.017 -0.532,-0.001 -0.801,-0.032 -0.267,-0.03 -0.534,-0.036 -0.796,-0.107 -0.262,-0.061 -0.525,-0.109 -0.779,-0.183 l -0.742,-0.272 c -0.467,-0.227 -0.935,-0.434 -1.317,-0.739 -0.408,-0.267 -0.747,-0.585 -1.055,-0.895 -0.322,-0.292 -0.543,-0.646 -0.786,-0.928 -0.221,-0.302 -0.384,-0.61 -0.544,-0.861 -0.168,-0.25 -0.248,-0.496 -0.344,-0.686 -0.178,-0.385 -0.279,-0.606 -0.279,-0.606 z"
               id="path430" />
          </g>
        </g>
        <path
           style="fill:none;stroke:#aa8922;stroke-width:3;stroke-linejoin:bevel;stroke-miterlimit:10"
           inkscape:connector-curvature="0"
           stroke-miterlimit="10"
           d="m 560.245,186.026 c -0.731,-0.486 -1.503,-1.11 -2.313,-1.896 -3.656,-3.545 -9.25,-12.125 -10.135,-25.3 -0.886,-13.175 -5.115,-38.033 -17.569,-52.198 -12.454,-14.165 -30.046,-24.752 -39.015,-26.836 -43.906,12.959 -56.197,52.668 -56.53,70.168 -0.333,17.5 -7.584,31.999 -12.368,35.156 -0.716,0.473 -1.716,0.342 -1.716,0.342 1.46,-3.541 -0.732,-7.968 -4.5,-8.833 -4.25,-0.976 -8.091,-0.124 -9.551,3.417 -1.459,3.541 1.968,8.667 6.051,11 0,0 9.333,2.916 14.583,0 5.25,-2.916 14.238,-13.418 17.046,-24.166 11.954,-45.75 32.704,-52.5 46.359,-56.25 21.095,4.833 37.929,21.833 44.429,50.5 5.024,22.161 18.896,31.332 25.082,31.582 6.188,0.25 13.334,-3.667 14.334,-9.5 1,-5.833 -3.75,-8.417 -9.584,-7 -5.831,1.417 -4.603,9.814 -4.603,9.814 z"
           id="path432" />
      </g>
      <g
         id="g434">
        <g
           id="g436">
          <ellipse
             style="fill:#499fd9"
             sodipodi:ry="7.5929999"
             sodipodi:rx="5.0079999"
             sodipodi:cy="108.012"
             sodipodi:cx="517.92798"
             d="m 522.93598,108.012 c 0,4.1935 -2.24216,7.593 -5.008,7.593 -2.76584,0 -5.008,-3.3995 -5.008,-7.593 0,-4.1935 2.24216,-7.593 5.008,-7.593 2.76584,0 5.008,3.3995 5.008,7.593 z"
             transform="matrix(0.7879,0.6158,-0.6158,0.7879,176.3696,-296.0348)"
             cx="517.92798"
             cy="108.012"
             rx="5.0079999"
             ry="7.5929999"
             id="ellipse438" />
          <ellipse
             style="fill:#c9ffec"
             sodipodi:ry="2.1429999"
             sodipodi:rx="1.413"
             sodipodi:cy="104.701"
             sodipodi:cx="519.00098"
             d="m 520.41398,104.701 c 0,1.18354 -0.63263,2.143 -1.413,2.143 -0.78038,0 -1.413,-0.95946 -1.413,-2.143 0,-1.18355 0.63262,-2.143 1.413,-2.143 0.78037,0 1.413,0.95945 1.413,2.143 z"
             transform="matrix(0.4742,0.8804,-0.8804,0.4742,365.0456,-401.878)"
             cx="519.00098"
             cy="104.701"
             rx="1.413"
             ry="2.1429999"
             id="ellipse440" />
        </g>
        <g
           id="g442">
          <ellipse
             style="fill:#499fd9"
             sodipodi:ry="5.9990001"
             sodipodi:rx="3.957"
             sodipodi:cy="122.424"
             sodipodi:cx="528.71698"
             d="m 532.67398,122.424 c 0,3.31316 -1.77161,5.999 -3.957,5.999 -2.18539,0 -3.957,-2.68584 -3.957,-5.999 0,-3.31315 1.77161,-5.999 3.957,-5.999 2.18539,0 3.957,2.68585 3.957,5.999 z"
             transform="matrix(0.6074,0.7944,-0.7944,0.6074,304.8535,-371.9585)"
             cx="528.71698"
             cy="122.424"
             rx="3.957"
             ry="5.9990001"
             id="ellipse444" />
          <ellipse
             style="fill:#c9ffec"
             sodipodi:ry="1.693"
             sodipodi:rx="1.1160001"
             sodipodi:cy="120.106"
             sodipodi:cx="530.19702"
             d="m 531.31302,120.106 c 0,0.93502 -0.49965,1.693 -1.116,1.693 -0.61635,0 -1.116,-0.75798 -1.116,-1.693 0,-0.93502 0.49965,-1.693 1.116,-1.693 0.61635,0 1.116,0.75798 1.116,1.693 z"
             transform="matrix(0.2372,0.9715,-0.9715,0.2372,521.1251,-423.4492)"
             cx="530.19702"
             cy="120.106"
             rx="1.1160001"
             ry="1.693"
             id="ellipse446" />
        </g>
        <g
           id="g448">
          <ellipse
             style="fill:#499fd9"
             sodipodi:ry="4.6589999"
             sodipodi:rx="3.072"
             sodipodi:cy="137.34399"
             sodipodi:cx="536.86401"
             d="m 539.93601,137.34399 c 0,2.5731 -1.37538,4.659 -3.072,4.659 -1.69662,0 -3.072,-2.0859 -3.072,-4.659 0,-2.57309 1.37538,-4.659 3.072,-4.659 1.69662,0 3.072,2.08591 3.072,4.659 z"
             transform="matrix(0.3733,0.9277,-0.9277,0.3733,463.8633,-411.9802)"
             cx="536.86401"
             cy="137.34399"
             rx="3.072"
             ry="4.6589999"
             id="ellipse450" />
          <ellipse
             style="fill:#c9ffec"
             sodipodi:ry="1.3150001"
             sodipodi:rx="0.866"
             sodipodi:cy="135.91499"
             sodipodi:cx="538.45203"
             d="m 539.31803,135.91499 c 0,0.72626 -0.38773,1.315 -0.866,1.315 -0.47828,0 -0.866,-0.58874 -0.866,-1.315 0,-0.72625 0.38772,-1.315 0.866,-1.315 0.47827,0 0.866,0.58875 0.866,1.315 z"
             transform="matrix(-0.031,0.9995,-0.9995,-0.031,690.9922,-398.0646)"
             cx="538.45203"
             cy="135.91499"
             rx="0.866"
             ry="1.3150001"
             id="ellipse452" />
        </g>
        <g
           id="g454">
          <path
             style="fill:#499fd9"
             inkscape:connector-curvature="0"
             d="m 446.46,134.589 c 2.349,1.05 3.692,3.158 2.998,4.707 -0.692,1.55 -3.155,1.953 -5.507,0.903 -2.348,-1.05 -3.689,-3.158 -2.996,-4.705 0.69,-1.55 3.156,-1.956 5.505,-0.905 z"
             id="path456" />
          <path
             style="fill:#c9ffec"
             inkscape:connector-curvature="0"
             d="m 443.717,136.662 c 0.488,0.536 0.597,1.233 0.244,1.556 -0.356,0.321 -1.039,0.146 -1.527,-0.392 -0.486,-0.536 -0.596,-1.233 -0.241,-1.554 0.353,-0.322 1.036,-0.147 1.524,0.39 z"
             id="path458" />
        </g>
        <g
           id="g460">
          <path
             style="fill:#499fd9"
             inkscape:connector-curvature="0"
             d="m 455.394,119.249 c 2.659,1.965 3.765,4.98 2.467,6.733 -1.295,1.755 -4.498,1.582 -7.16,-0.382 -2.658,-1.964 -3.761,-4.979 -2.465,-6.729 1.292,-1.758 4.5,-1.588 7.158,0.378 z"
             id="path462" />
          <path
             style="fill:#c9ffec"
             inkscape:connector-curvature="0"
             d="m 451.38,121.095 c 0.466,0.807 0.41,1.711 -0.122,2.02 -0.536,0.305 -1.344,-0.103 -1.809,-0.912 -0.462,-0.807 -0.408,-1.711 0.125,-2.017 0.533,-0.307 1.342,0.101 1.806,0.909 z"
             id="path464" />
        </g>
        <g
           id="g466">
          <path
             style="fill:#499fd9"
             inkscape:connector-curvature="0"
             d="m 468.41,104.93 c 2.512,3.23 2.824,7.193 0.691,8.848 -2.129,1.659 -5.888,0.384 -8.404,-2.846 -2.512,-3.228 -2.821,-7.19 -0.691,-8.842 2.126,-1.664 5.891,-0.39 8.404,2.84 z"
             id="path468" />
          <path
             style="fill:#c9ffec"
             inkscape:connector-curvature="0"
             d="m 463.01,105.791 c 0.286,1.117 -0.083,2.176 -0.82,2.366 -0.74,0.185 -1.567,-0.571 -1.852,-1.691 -0.281,-1.115 0.085,-2.176 0.823,-2.362 0.737,-0.187 1.565,0.568 1.849,1.687 z"
             id="path470" />
        </g>
        <g
           id="g472">
          <ellipse
             style="fill:#499fd9"
             sodipodi:ry="8.9169998"
             sodipodi:rx="5.881"
             sodipodi:cy="97.214996"
             sodipodi:cx="491.147"
             d="m 497.028,97.214996 c 0,4.924724 -2.63301,8.917004 -5.881,8.917004 -3.24798,0 -5.881,-3.99228 -5.881,-8.917004 0,-4.924723 2.63302,-8.916999 5.881,-8.916999 3.24799,0 5.881,3.992276 5.881,8.916999 z"
             cx="491.147"
             cy="97.214996"
             rx="5.881"
             ry="8.9169998"
             id="ellipse474" />
          <ellipse
             style="fill:#c9ffec"
             sodipodi:ry="2.5150001"
             sodipodi:rx="1.659"
             sodipodi:cy="93.375"
             sodipodi:cx="489.745"
             d="m 491.404,93.375 c 0,1.388996 -0.74276,2.515 -1.659,2.515 -0.91625,0 -1.659,-1.126004 -1.659,-2.515 0,-1.388996 0.74275,-2.515 1.659,-2.515 0.91624,0 1.659,1.126004 1.659,2.515 z"
             transform="matrix(0.9159,0.4014,-0.4014,0.9159,78.6568,-188.7162)"
             cx="489.745"
             cy="93.375"
             rx="1.659"
             ry="2.5150001"
             id="ellipse476" />
        </g>
      </g>
      <g
         id="Harmony_1_">
        <polygon
           style="fill:#dec725;stroke:#aa8922;stroke-width:0.98119998;stroke-miterlimit:10"
           stroke-miterlimit="10"
           points="521.519,30.333 501.831,36.752 491.462,9.559 481.281,36.752 459.656,30.052 475.794,53.342 462.992,73.064 482.622,65.926 492.686,82.173 501.292,66.677 517.538,74.191 507.103,52.873 "
           id="polygon479" />
        <polygon
           style="fill:#f64a94"
           points="513.996,35.765 500.274,40.337 491.517,20.228 483.267,41.494 467.73,35.555 480.148,53.971 470.225,67.724 484.001,61.677 492.433,74.535 500.331,62.044 511.019,68.565 503.214,52.622 "
           id="polygon481" />
        <polyline
           style="fill:#c43a90"
           points="467.73,35.555 492.433,51.127 480.148,53.971   "
           id="polyline483" />
        <polyline
           style="fill:#f2a6cd"
           points="503.214,52.622 492.433,51.127 511.019,68.565   "
           id="polyline485" />
        <polyline
           style="fill:#f64a94"
           points="470.225,67.724 492.433,51.127 480.148,53.971   "
           id="polyline487" />
        <polygon
           style="fill:#c43a90"
           points="492.433,74.535 492.433,51.127 470.225,67.724 484.001,61.677 "
           id="polygon489" />
        <polygon
           style="fill:#f64a94"
           points="492.433,74.535 492.433,51.127 511.019,68.565 500.331,62.044 "
           id="polygon491" />
        <polygon
           style="fill:#f8c6e0"
           points="491.517,20.228 492.625,52.871 513.996,35.765 500.274,40.337 "
           id="polygon493" />
        <polygon
           style="fill:#f64a94"
           points="467.73,35.555 492.387,53.971 491.517,20.228 483.267,41.494 "
           id="polygon495" />
        <path
           style="fill:#fbc6df;stroke:#b0365f;stroke-width:0.59710002"
           inkscape:connector-curvature="0"
           id="path5689"
           nodetypes="ccccc"
           export-filename="/home/aibo/images/inkscape/stained_glass_elements_of_harmony.png"
           export-ydpi="200"
           export-xdpi="200"
           connector-curvature="0"
           d="m 492.065,41.5 -6.036,11.109 6.403,9.068 6.432,-9.541 -6.799,-10.636 z" />
        <polygon
           style="fill:none;stroke:#b0365f;stroke-width:0.89560002;stroke-miterlimit:10"
           stroke-miterlimit="10"
           points="513.996,35.765 500.274,40.337 491.517,20.228 483.267,41.494 467.73,35.555 480.148,53.971 470.225,67.724 484.001,61.677 492.433,74.535 500.331,62.044 511.019,68.565 503.214,52.622 "
           id="polygon498" />
      </g>
    </g>
  </g>
</svg>
