<?xml version="1.0" encoding="UTF-8"?><svg xmlns="http://www.w3.org/2000/svg" viewBox="0 0 5910.5191 5910.5226" width="5910.5191" height="5910.5226" version="1.1" xmlns:xlink="http://www.w3.org/1999/xlink"><defs id="defs4"><linearGradient id="linearGradient4967"><stop id="stop4969" stop-color="#a61c67" offset="0"/><stop id="stop4971" stop-color="#620d3d" offset="1"/></linearGradient><clipPath id="clipPath4236" clipPathUnits="userSpaceOnUse"><path id="path4238" opacity=".5" d="m2306 2036c-99.794-209.03-164.47-463.03-127.51-709.13 11.943-79.526 52.811-95.064 108.69-18.816 116.5 158.96 182.28 477.04 95.013 651.15z" stroke="#f00" stroke-width="1px" fill="#0f0"/></clipPath><clipPath id="clipPath4240" clipPathUnits="userSpaceOnUse"><path id="path4242" opacity=".5" d="m2306 2036c-99.794-209.03-164.47-463.03-127.51-709.13 11.943-79.526 52.811-95.064 108.69-18.816 116.5 158.96 182.28 477.04 95.013 651.15z" stroke="#f00" stroke-width="1px" fill="#0f0"/></clipPath><clipPath id="clipPath4337" clipPathUnits="userSpaceOnUse"><path id="path4339" opacity=".5" d="m2725.9 2058.1c-59.302-299.56-41.048-552.53 119.61-707.07 160.05-153.96 574.67-273.85 535.73 250.91-28.959 390.22-320.88 515.01-655.33 456.16z" stroke="#f00" stroke-width="1px" fill="#0f0"/></clipPath><clipPath id="clipPath4352" clipPathUnits="userSpaceOnUse"><path id="path4354" opacity=".5" d="m2306 2036c-99.794-209.03-164.47-463.03-127.51-709.13 11.943-79.526 52.811-95.064 108.69-18.816 116.5 158.96 182.99 477.04 95.72 651.15z" stroke="#f00" stroke-width="1px" fill="#0f0"/></clipPath><clipPath id="clipPath4415" clipPathUnits="userSpaceOnUse"><path id="path4417" opacity=".5" d="m2929.8 1725.3c-90.884-290.58-99.687-543.97 43.596-716.25 142.75-171.63 542.25-339.2 559.44 186.54 12.78 390.95-264.2 549.04-603.04 529.7z" stroke="#f00" stroke-width="1px" fill="#0f0"/></clipPath><clipPath id="clipPath4419" clipPathUnits="userSpaceOnUse"><path id="path4421" opacity=".5" d="m2929.8 1725.3c-90.884-290.58-99.687-543.97 43.596-716.25 142.75-171.63 542.25-339.2 559.44 186.54 12.78 390.95-264.2 549.04-603.04 529.7z" stroke="#f00" stroke-width="1px" fill="#0f0"/></clipPath><clipPath id="clipPath4951" clipPathUnits="userSpaceOnUse"><ellipse id="ellipse4953" style="color:#000000" rx="125.87" ry="362.04" cy="1760.2" cx="2397.1" fill="#f00"/></clipPath><clipPath id="clipPath4955" clipPathUnits="userSpaceOnUse"><ellipse id="ellipse4957" style="color:#000000" rx="125.87" ry="362.04" cy="1760.2" cx="2397.1" fill="#f00"/></clipPath><clipPath id="clipPath4959" clipPathUnits="userSpaceOnUse"><ellipse id="ellipse4961" style="color:#000000" rx="261.61" ry="400.36" transform="matrix(.99314 .11695 -.10654 .99431 0 0)" cy="1430.8" cx="3187" fill="#f00"/></clipPath><clipPath id="clipPath4963" clipPathUnits="userSpaceOnUse"><ellipse id="ellipse4965" style="color:#000000" rx="261.61" ry="400.36" transform="matrix(.99314 .11695 -.10654 .99431 0 0)" cy="1430.8" cx="3187" fill="#f00"/></clipPath><linearGradient id="linearGradient4973" y2="1631.1" xlink:href="#linearGradient4967" gradientUnits="userSpaceOnUse" x2="2357.2" y1="1961.1" x1="2357.2"/><linearGradient id="linearGradient4981" y2="1192.3" xlink:href="#linearGradient4967" gradientUnits="userSpaceOnUse" x2="3169.2" y1="1677.7" x1="3221.3"/></defs><g display="none" transform="translate(425.66 -3.692)"><rect id="rect4832" style="color:#000000" display="inline" height="6057.1" width="4697.1" stroke="#0f0" y="-34.286" x="-45.714"/></g><g opacity=".2" display="none" transform="translate(425.66 -3.692)"><ellipse id="path4835" style="color:#000000" d="m 4270.925,5521.9956 c 0,214.0073 -715.4764,387.4945 -1598.0612,387.4945 -882.5849,0 -1598.0613,-173.4872 -1598.0613,-387.4945 0,-214.0073 715.4764,-387.4945 1598.0613,-387.4945 882.5848,0 1598.0612,173.4872 1598.0612,387.4945 z" rx="1598.1" ry="387.49" display="inline" cy="5522" cx="2672.9"/></g><g transform="translate(425.66 -3.692)"><path id="path4627-3" fill="#ce8810" d="m2576 496c-393.6-110.72-608.2 265.22-512 648-329.03 65.966-293.97 509.6-88 656-202.75 79.471-230.97 391.96 8 488-225.53 224-210.23 527.2 0 672l904 384 536-1920z"/><path id="path4627" d="m2576 496c-393.6-110.72-608.2 265.22-512 648-329.03 65.966-293.97 509.6-88 656-202.75 79.471-230.97 391.96 8 488-225.53 224-210.23 527.2 0 672" stroke="#8f4805" stroke-width="49" fill="none"/><path id="path4625-4" fill="#ce8810" d="m3292.3 286.58c-23.1-328.26-803.9-390.15-792 401.63l684.5-25.45z"/><path id="path4659-1" fill="#d0c92e" d="m2896.3 433.66c-37.6-90.845-127.37-179.86-280.01-186.68 27.211-35.285 55.275-70.002 104.65-90.51 120.07 24.787 252.04 99.326 263.04 268.7z"/><path id="path4625" d="m3292.3 286.58c-23.1-328.26-803.9-390.15-792 401.63" stroke="#8f4805" stroke-width="49" fill="none"/><path id="path4598-4" fill="#ce8810" d="m3096 328c276.72-431.39 973.56-456.94 1040.9 329.73 271.34-138.09 673.39 425.22 480 675.77 82.032 63.531 161.71 203.31 199.87 336.42 63.378 221.03 26.114 476.09-224.76 578.07 226.81 272.91 94.298 727.3-296 656 305.01 231.12 94.383 521.62-144 760s-13.53 538 224 320c155.4 440.26-481.69 577.7-608 128-341.61 147.23-630.16-51.675-544-520z"/><path id="path4676-6" fill="#d0c92e" d="m3317.7 524.17c294.99-293.26 721.16-114.94 823.07 141.42l-19.8-138.6c-143.5-304.24-611.2-449.77-936.2-70.71z"/><path id="path4596" fill="#8f4805" d="m3602.4 3.7871c-90.1 1.699-181 26.119-264.9 69.856-102.3 53.347-184.4 113.52-248.1 262.38 94.3-125.14 176-169.56 270.7-218.93 124.2-64.765 263.4-82.803 387.3-44.293 123.9 38.513 234 132.84 301.7 299.68 53.5 131.71 101.9 342.9 88.5 553.94 44.7-202.96 14-431.7-43.1-572.37-72.3-178.18-194.6-285.18-332.5-328.05-51.8-16.072-105.5-23.232-159.6-22.213z"/><path id="path4693" fill="#d0c92e" d="m3643 478.91c325.71-51.29 509.99 319.53 412.95 480.83 325.2 54.843 316.8 508.42 226.27 599.63 324.61 131.59 417.74 538.39 181.02 780.65 135.16 205.48 106.78 494.7-271.53 554.37 211.92 230.84 218.28 582.89-231.93 752.36 92.33 166.82 63.165 431.21-169.71 486.49l-28.284-28.284c191.94-148 211.62-312.15 62.225-492.15 173.69-43.863 345.83-90.258 404.85-321.77 25.912-205-55.867-325.39-178.58-413.62 153.3-43.242 305.6-88.149 365.1-287.72 35.089-133.73-27.402-202.41-85.574-273.97 125.47-129.68 133.2-268.42 121.72-408.64-40.705-160.18-152.33-242.34-299.43-285.49 84.536-124.04 107.86-248.09 75.072-372.13-45.265-170.57-158.14-223.31-261.75-238.81 105.47-205.59-4.1052-524.14-302.84-489.52z"/><path id="path4598" d="m4137.5 665.66c317.34-169.74 811.48 626.15 320.26 773.78-135.06 40.592-196.71-103.72-20.118-143.43 303.4-68.23 656.09 748.04 154.34 952 226.81 272.91 94.298 727.3-296 656 305.01 231.12 94.383 521.62-144 760s-13.53 538 224 320c155.4 440.26-481.69 577.7-608 128-341.61 147.23-630.16-51.675-544-520" stroke="#8f4805" stroke-miterlimit="9" stroke-width="49" fill="none"/><path id="path4600" d="m3424 672c335.69-381.21 703.86 5.561 536 344 331.51 29.06 330.66 475.31 180 604 398.57 52.824 423.48 674.27 88 740-119.71 23.454-96.603-80.421-16-72 284.31 29.703 324.88 489.74-164 584 255.31 173.68 312.11 643.11-224 744 223.52 275.03 6.4359 486.95-192 536" stroke="#8f4805" stroke-width="31" fill="none"/><path id="path4659" d="m2984 425.17c-11-169.37-143-243.91-263.1-268.7m175.36 277.19c-37.6-90.85-127.4-179.86-280-186.68" stroke="#8f4805" stroke-width="31" fill="none"/><path id="path4676" d="m4140.8 665.59c-101.9-256.36-528.1-434.69-823.1-141.42m803.27 2.8284c-143.5-304.25-611.2-449.78-936.2-70.72" stroke="#8f4805" stroke-width="31" fill="none"/></g><g transform="translate(425.66 -3.692)"><path id="path4721-3" fill="#ce8810" d="m1855 2966.3c-28.029-149.09-65.315-224.23-219.93-279.81-180.94-65.045-256.97 163.76-130.39 309.75 141.49 163.2 124.39 383.17-56.568 452.55 186.06 82.178 230.98 414.3-16.97 497.8 188.77 183.67 196.71 440.42-90.51 520.43 265.96 162.63 275.93 366.76 158.39 565.69-87.185 147.56-390.47 218.04-503.46-16.97 469.44-151.1-56.8-350.3-288.45-418.6-360.75-106.4-528.35-410.5-328.1-639.2-235.82-130.2-213.44-543.6 45.25-577-254.53-324.7-77.93-796.6 294.16-735.4-100.29-207.1 152.3-549 458.18-384.7 18.405-294.01 489.52-346.4 531.74 0 227.42 30.252 367.91 365.47 316.78 627.91z"/><path id="path4738-5" fill="#d0c92e" d="m872 4646.1c-212.65-92.323-297.75-369.7-88.402-483.8-85.8-74.4-74.28-252.9 14.99-316.6-128.73-157.6-132.69-449 76.32-501.2-254.54-220.4-52.1-490.3 213.09-464.5-121.28-303.1 118.52-556.63 392-348 151.04-239.69 483.44-3.4262 448 268l37.757-4.6078c78.874-201.24-242.14-596.24-497.8-364.87-282.49-191.64-639.06 93.744-469.52 381.84-347.29-12.821-468.01 329.19-257.39 509.12-204.14 31.066-240.4 408.66-65.054 500.63-152.68 56.556-143.27 245.14-28.284 308.3-189.21 64.738-182.55 337.77-14.142 438.41z"/><path id="path4721" d="m770.42 2769.5c-188.29-322.4 100.3-673 406.18-508.7 18.405-294.01 489.52-346.4 531.74 0 227.42 30.252 367.91 365.47 316.78 627.91l-170.11 77.539c-28.029-149.09-74.315-242.23-219.93-279.81-186.17-48.05-256.97 163.76-130.39 309.75 141.49 163.2 124.39 383.17-56.568 452.55 186.06 82.178 230.98 414.3-16.97 497.8 188.77 183.67 196.71 440.42-90.51 520.43 265.96 162.63 275.93 366.76 158.39 565.69-87.185 147.56-390.47 218.04-503.46-16.97 469.44-151-56.8-350.2-288.45-418.5-360.75-106.4-528.35-410.5-328.1-639.2-235.82-130.2-213.44-543.6 45.25-577-254.53-324.7-55.2-935.9 410.16-667.4 132.28 76.321 16.626 194.03-64 56z" stroke="#8f4805" stroke-width="49" fill="none"/><path id="path4738" d="m872 4646.1c-212.65-92.323-297.75-369.7-88.402-483.8-117.39-101.79-54.472-391.11 147.31-330.91 120.43 35.927 89.166 103.62-15.113 80.818-236.77-51.763-299.27-503.22-40.887-567.76-254.54-220.4-52.1-490.3 213.09-464.5-121.28-303.1 118.52-556.63 392-348 151.04-239.69 483.44-3.4262 448 268" stroke="#8f4805" stroke-width="31" fill="none"/></g><g transform="translate(425.66 -3.692)"><path id="path4900-6" fill="#dad87c" d="m2577.5 1478c-263.61-441.02-141.6-809.54 94.821-1070.1 57.68-63.561 100.42-54.075 143.55-6.505 97.057 107.07 186.62 317.21 172.33 503.24"/><path id="path4902-3" fill="#988b0b" d="m2680.4 1190.7c-93.227-123.48-71.786-390.12 4.7527-521.72-40.954 147.02-54.779 389.08-4.7527 521.72z"/><path id="path4900-4-6" fill="#988b0b" d="m2749.9 338.51c33.047 0.5289 60.352 20.294 84.074 46.463 102.73 113.33 201.61 334.34 158.47 529.67-5.1346-194.68-103.4-395.95-194.78-496.76-19.4-21.401-35.029-30.162-48.555-30.379-13.526-0.2165-32.289 7.7914-58.697 36.893-115.76 127.56-202.61 280.5-228.84 454.54-26.231 174.04 11.496 429.99 118.07 606.56-151.43-159.44-194.5-428.25-166.52-613.86 27.976-185.61 120.34-347.19 241.01-480.16 31.272-34.46 62.721-53.488 95.768-52.959z"/></g><g transform="translate(425.66 -3.692)" stroke="#988b0b" stroke-width="49" fill="#dad87c"><path id="path4838" d="m2596.5 3703.3c-61.196 439.58-139.25 882.66-59.397 1292.6 32.72 167.97 133.45 298.02 288.36 328.44 128.49 25.238 245.17 31.768 376.32 8.1422 136.68-24.621 132.53-98.144 90.51-192.33-217.12-446.64-363.31-920.56-384.67-1442.5"/><path id="path4842" d="m3184 3660c151.37 691.61 435.79 1423.5 731.51 1819.3 88.669 118.69 115.59 214.05-53.858 218.34-126.01 3.1946-272.68 6.9804-408.97-9.6569-146.08-17.833-221.98-91.519-284.69-232-249.98-560-354.29-1149.9-336-1764"/></g><g transform="translate(425.66 -3.692)"><path id="path4847-8" d="m2804 2940c-54.194-29.958-118.91-80.512-196-140-124.96-96.422-313.19-161.79-556-116-242.81 45.786-388.14 259.68-428 452-39.862 192.32-0.7174 392.77 68.201 598.06 30.356 90.422 47.097 196.79 31.799 269.94l482.17-207.34 93.338 25.456 342.24 127.28c304.29 46.591 559.31-47.564 758.02-302.64 108.44-134.62 152.72-320.56 186.68-514.77 26.525-113.6 68.324-297.99 122.54-505.44 49.846-190.72 112.81-403.56 126.36-541.08l-893.78 248.9c-34.9 176.2-74 419.8-137.6 605.6z" fill="#e6e598"/><path id="path4849" d="m2209 3788.2c-249.41 346.51-414.67 848.27-132.94 1496.2 27.652 63.596-2.9529 120.33-104.65 149.91-151.97 44.199-304.57 38.006-458.21 0-125.95-31.156-184.18-129.84-189.5-285.67-13.238-387.68 35.048-775.67 206.48-1137 30.573-64.447 57.093-116.96 197.99-104.65" stroke="#988b0b" stroke-width="49" fill="#e6e598"/><path id="path4851-2" d="m2347.6 3748.6c-289.2 540.54-435.28 1049.9-494.97 1764.9-12.561 150.46 5.7467 228.63 124.45 299.81 172.34 103.35 367.86 87.41 523.26 36.77 178.63-58.213 118.25-188.18 84.853-308.3-151.47-544.83-6.4425-1212.2 73.539-1762.1" fill="#e6e598"/><path id="path4845" fill="#988b0b" d="m2887.8 2415.9c-25.849 153.45-49.933 346.68-92.668 487.35-24.423 80.388-33.432 139.72-78.36 206.58 76.694-49.102 99.615-107.98 125.24-192.34 44.843-147.6 68.558-341.79 94.106-493.45z"/><path id="path4847" fill="#988b0b" d="m2203.3 2644.6c-49.304 0.1952-101.28 5.0079-155.81 15.289-254.72 48.03-405.92 270.73-447.45 471.1-41.195 198.75-0.5942 403.63 68.965 610.83 29.376 87.503 58.636 170.14 52.323 272.99 45.688-97.147 25.466-195.24-5.8699-288.59-68.278-203.38-105.97-399.4-67.438-585.29 38.193-184.27 177.64-389.36 408.55-432.9 236.38-44.572 416.71 18.896 536.49 111.32 77.029 59.437 141.93 110.44 199.11 142.04l23.707-42.883c-51.208-28.307-115.73-78.417-192.89-137.96-101.67-78.453-243.61-136.67-419.7-135.97z"/><path id="path4851" fill="#988b0b" d="m2244.4 3896.5c-237.21 486.63-362.2 968.08-416.21 1615-6.392 76.563-5.5028 137.38 14.496 190.33 19.999 52.951 59.502 95.194 121.77 132.54 180.3 108.13 383.73 91.1 543.45 39.053 47.599-15.511 81.716-36.624 104.38-63.252 22.667-26.628 32.674-58.221 34.426-89.609 3.5046-62.776-21.653-126.71-37.941-185.29-132.39-476.2-34.541-1054.3 45.457-1563.7 10.04-63.94 5.7816-140.81-10.441-212.49-12.223 64.32-27.935 141.01-37.965 204.89-79.917 508.96-181.03 1092.5-44.26 1584.5 17.108 61.536 38.839 122.65 36.227 169.44-1.3061 23.395-7.6062 42.714-22.814 60.58s-40.533 34.829-82.252 48.424c-151.08 49.234-338.69 64.09-503.07-34.486-56.436-33.844-85.438-66.279-101.13-107.82-15.691-41.545-17.675-95.044-11.506-168.94 53.655-642.67 176.81-1116.3 411.42-1597.6 25.566-52.447 54.459-116.99 88.719-192.29-67.74 60.7-106.92 117.79-132.77 170.82z"/><path id="path4853" fill="#988b0b" d="m1956.9 3471.3c9.842 164.71 173.79 351.12 344.47 377.84l7.582-48.41c-143.3-22.44-297.89-178.14-352.05-329.43z"/><path id="path4855" d="m2638.9 3952.2c538.22 61.584 859.2-288.23 933.38-721.25 42.79-249.78 105.5-533.58 164.05-690.14 149.69-400.27 123.03-825.29 8.4853-1258.6" stroke="#988b0b" stroke-width="49" fill="none"/></g><g transform="translate(425.66 -3.692)"><path id="path5239" d="m3117.1 3484.9c132.15-59.035 410.93-280.47 496.28-415.32-10.905 63.436-15.851 115.87-29.818 152.81-78.121 93.4-270.97 309.93-489.16 335.99" stroke="#0a0d09" stroke-miterlimit="6.5" stroke-width="31" fill="#2b2b2c"/><path id="path5237" d="m3057.3 3488.4c-108.53-73.522-217.4-389.75-234.76-643.6-13.195 50.498-35.004 124.96-46.174 177.46 5.0496 90.518 104.19 464.91 259.64 541.93" stroke="#0a0d09" stroke-miterlimit="6.5" stroke-width="31" fill="#2b2b2c"/><path id="path5227" d="m3093.4 3596.4c24.29-43.66 44.179-92.77 33.123-133.85-22.557-14.622-52.596-19.223-87.03-9.7337-29.74 44.173-35.194 90.224-38.817 136.41" stroke="#bd9409" stroke-width="19" fill="#e4be0d"/><path id="path5249" fill="#960000" d="m2869.5 3793.5 109.52-47.709 30.655 36.409 47.156-25.534 25.084 66.522-128.73 69.705z"/><path id="path5247" fill="#d70001" d="m2979 3745.8-109.52 47.709 34.587-156.63 89.913-69.755 30.628 95.75-32.936 25.552z"/><path id="path5245" fill="#d70001" d="m3108.8 3580.4-42.116 87.325 6.5972 43.196-16.442 45.738 25.084 66.522 44.887-124.86z"/><path id="path5243" fill="#e88d8d" d="m2994 3567.1 30.628 95.75 42.05 4.8702 42.116-87.325z"/><path id="path5210" d="m2994 3567.1 114.79 13.295 18.01 117.92-44.887 124.86-128.73 69.705-83.686-99.394 34.587-156.63z" stroke="#670405" stroke-width="19" fill="none"/><path id="path5210-6" d="m3024.6 3662.9 42.05 4.8702 6.5972 43.196-16.442 45.738-47.156 25.534-30.655-36.409 12.669-57.376z" stroke="#670405" stroke-width="11" fill="#ea8a93"/><path id="path5241" d="m3108.8 3580.4-42.116 87.325m6.5972 43.196 53.529-12.6m-69.971 58.338 25.084 66.522m-72.24-40.989-56.491 110.69m25.836-147.1-109.52 47.709m122.19-105.08-87.605-51.547m120.54 25.995-30.628-95.75" stroke="#670405" stroke-width="11" fill="none"/></g><g transform="translate(425.66 -3.692)"><g id="g4454" transform="matrix(.38567 0 -.090324 .65849 1312 1003.9)"><path id="path4169" d="m1895.5 3712.7c-13.529 33.87-13.642 68.433 13.132 91.924s90.822 25.761 120.21-19.193c29.386-44.954 33.028-233.32 6.0609-349.51-20.846-171.98-96.576-379.3-6.0609-486.89s212.25 6.0209 143.44 98.995c-68.806 92.974-238.68 176.36-329.31 286.88-90.634 110.52-59.934 271.53 66.67 292.94 126.6 21.412 183.67-16.944 244.46-86.873" stroke="#7c378a" stroke-linecap="round" stroke-width="59" fill="none"/><g id="g4161" transform="matrix(.57921 0 0 .57921 1635.3 3088.2)"><path id="path4100-4" fill="#ab4415" d="m492.34 613.86 469.76 520.94 447.4-529.51-203.9 5.71-243.5 523.8-263.71-523.8z"/><path id="path4098-8" fill="#e9eae8" d="m791.3 379.02-92.903 231.98h507.16l-127.44-235.19z"/><path id="path4096-3" fill="#ccac1b" d="m636.38 380.76-144.04 233.1 917.16-8.57-187.4-231.09-144 1.61 127.5 235.19-243.5 523.8-263.71-523.8 92.91-231.98z"/><path id="path4088-2" d="m636.38 380.76-144.04 233.1 469.76 520.94 447.4-529.51-187.4-231.09z" stroke="#79391c" stroke-width="49" fill="none"/><path id="path4090-2" d="m492.34 613.86 917.14-8.5714" stroke="#79391c" stroke-width="29" fill="none"/><path id="path4092-8" d="m791.3 379.02-92.91 231.98 263.71 523.8 243.5-523.8-127.5-235.19" stroke="#79391c" stroke-width="29" fill="none"/></g></g></g><g transform="translate(425.66 -3.692)"><path id="path4811" d="m2885.7 2520.1c282.74 106 574.32 102.79 867.61 7.9705l-43.397 127.71c-257.14 104.65-578.29 108.21-843.43-11.799z" stroke="#79391c" stroke-width="31" fill="#ccac1b"/><g id="g4829" transform="matrix(.27595 .025712 -.025712 .27595 2414.1 1800.4)"><path id="path4100" d="m2792.8 2713 469.76 520.98 447.39-529.55-203.93 5.7143-243.46 523.84-263.7-523.84z" fill="#ab4415"/><path id="path4098" d="m3091.7 2478.2-92.903 231.98h507.16l-127.44-235.19z" fill="#e9eae8"/><path id="path4096" d="m2936.8 2479.9-144.04 233.1 917.14-8.5715-187.39-231.08-143.97 1.6103 127.44 235.19-243.46 523.84-263.7-523.84 92.903-231.98z" fill="#ccac1b"/><path id="path4088" d="m2936.8 2479.9-144.04 233.1 469.76 520.98 447.39-529.55-187.39-231.08z" stroke="#79391c" stroke-width="49" fill="none"/><path id="path4090" d="m2792.8 2713 917.14-8.5715" stroke="#79391c" stroke-width="29" fill="none"/><path id="path4092" d="m3091.7 2478.2-92.903 231.98 263.7 523.84 243.46-523.84-127.44-235.19" stroke="#79391c" stroke-width="29" fill="none"/></g><circle id="path4837" style="color:#000000" d="m 3064.2489,2637 c 0,13.8645 -11.2394,25.1039 -25.1039,25.1039 -13.8645,0 -25.1038,-11.2394 -25.1038,-25.1039 0,-13.8645 11.2393,-25.1039 25.1038,-25.1039 13.8645,0 25.1039,11.2394 25.1039,25.1039 z" cx="3039.1" stroke="#79391c" cy="2637" r="25.104" stroke-width="11" fill="#e9eae8"/><circle id="path4837-2" style="color:#000000" d="m 2956.7686,2601.6448 c 0,13.8645 -11.2393,25.1038 -25.1038,25.1038 -13.8645,0 -25.1039,-11.2393 -25.1039,-25.1038 0,-13.8645 11.2394,-25.1039 25.1039,-25.1039 13.8645,0 25.1038,11.2394 25.1038,25.1039 z" cx="2931.7" stroke="#79391c" cy="2601.6" r="25.104" stroke-width="11" fill="#e9eae8"/><circle id="path4837-9" style="color:#000000" d="m 3464.4713,2662.4561 c 0,13.8644 -11.2394,25.1038 -25.1039,25.1038 -13.8644,0 -25.1038,-11.2394 -25.1038,-25.1038 0,-13.8645 11.2394,-25.1039 25.1038,-25.1039 13.8645,0 25.1039,11.2394 25.1039,25.1039 z" cx="3439.4" stroke="#79391c" cy="2662.5" r="25.104" stroke-width="11" fill="#e9eae8"/><circle id="path4837-91" style="color:#000000" d="m 3593.1646,2639.8286 c 0,13.8645 -11.2393,25.1039 -25.1038,25.1039 -13.8645,0 -25.1039,-11.2394 -25.1039,-25.1039 0,-13.8645 11.2394,-25.1038 25.1039,-25.1038 13.8645,0 25.1038,11.2393 25.1038,25.1038 z" cx="3568.1" stroke="#79391c" cy="2639.8" r="25.104" stroke-width="11" fill="#e9eae8"/><circle id="path4837-8" style="color:#000000" d="m 3702.0592,2608.7158 c 0,13.8645 -11.2394,25.1039 -25.1039,25.1039 -13.8645,0 -25.1038,-11.2394 -25.1038,-25.1039 0,-13.8645 11.2393,-25.1038 25.1038,-25.1038 13.8645,0 25.1039,11.2393 25.1039,25.1038 z" cx="3677" stroke="#79391c" cy="2608.7" r="25.104" stroke-width="11" fill="#e9eae8"/></g><g transform="translate(425.66 -3.692)"><path id="path4482-9" d="m2608 1112c-63.137-147.1-428.36-179.21-543.25-50.627-114.9 128.59-142.73 296.97-62 433.94 80.731 136.97 107.96 271.73 50.627 346.23-99.728 129.59-87.775 356.49 64.568 436.17-208.88 133.34-144.82 373.62 14.693 435.66-181.86 250.04 43.995 454.13 265.87 362.04-54.324-8.7848-123.29-42.013-148.58-83.747-30.252-49.929-21.158-146.2 75.04-165.15 268.01-52.798 396.13-256.29 492.15-469.52z" stroke="#8f4805" stroke-width="49" fill="#ce8810"/><path id="path4520" d="m2302.3 1672.5c46.85 182.52-24.469 353.7-135.76 384.67 118.75 150.85 160.47 301.7-28.284 452.55 112.15 99.541 109.86 203.33 11.314 345.07-41.666 59.932-20.194 135.76 16.971 203.65" stroke="#8f4805" stroke-width="31" fill="none"/><path id="path4522" d="m2324 2828c200.66-138.7 208-390.08 208-684" stroke="#8f4805" stroke-width="31" fill="none"/><ellipse id="path4558" stroke="#1c050e" style="color:#000000" d="m 3462.7133,772.97058 c 0,214.33383 -203.3833,388.08572 -454.2695,388.08572 -250.8861,0 -454.2695,-173.75189 -454.2695,-388.08572 0,-214.33383 203.3834,-388.08572 454.2695,-388.08572 250.8862,0 454.2695,173.75189 454.2695,388.08572 z" rx="454.27" ry="388.09" cy="772.97" cx="3008.4" stroke-width="51.574" fill="#300345"/><path id="path4560" d="m2891.9 472.18c42.079 14.835 88.448 11.483 126.24-7.8062l-68.2-179.85z" stroke="#833f1b" stroke-width="25.532" fill="#e2d4a3"/><path id="path4560-8" d="m3090 469.42c37.166 24.686 82.944 32.788 124.3 23.338l-22.1-191.08z" stroke="#833f1b" stroke-width="25.532" fill="#e2d4a3"/><path id="path4560-4" d="m3271.8 514.52c34.634 28.128 79.428 40.572 121.5 35.121l-3.6849-192.31z" stroke="#833f1b" stroke-width="25.532" fill="#e2d4a3"/><path id="path4560-9" d="m2712.8 534.42c44.616-0.28795 87.112-19.142 116.14-50.086l-125-146.15z" stroke="#833f1b" stroke-width="25.532" fill="#e2d4a3"/><path id="path4560-5" d="m2565.4 649c42.346-14.053 76.941-45.109 94.991-83.505l-164.1-100.4z" stroke="#833f1b" stroke-width="25.532" fill="#e2d4a3"/></g><g transform="translate(425.66 -3.692)"><path id="path4877-3" d="m3372.6 2235.8c-190.36 160.1-510.89 253.93-803.67 215.32 75.173-73.837 103.08-169.73 21.834-289.56-41.9 108.03-156.7 181.4-274.37 127.82-36.855-30.11-70.64-64.166-99.164-104.79-39.006-55.549-24.723-104.76 27.469-120.92 24.366-7.5431 46.572-17.372 66.53-29.487-172-353.1-169.4-714.5-119.2-1078.2l280-256c303.2-32.574 599.45-36.839 892 56l432 596 32 780z" fill="#e6e598"/><path id="path4883" fill="#fff" d="m2602.9 2411.6c65.856-100.78 51.583-171.01-11.339-241.11-45.076 70.03-107.95 139.21-155.74 139.04z"/><path id="path4881" fill="#b9dce6" d="m2615 2227.6c-10.493 40.285-26.538 73.125-49.826 104.99 28.958-23.486 50.96-50.915 64.154-83.338z"/><path id="path4879" d="m2429.1 2300.8 169.85 105.86" stroke="#b9dce6" stroke-width="19" fill="none"/><path id="path4858" d="m2237.4 2040.3c-32.206 9.9701-57.088 33.115-64.484 63.252-7.3959 30.137 1.9421 63.44 24.209 95.15 22.774 32.433 48.324 61.163 76.489 86.191 27.898 24.79 68.759 36.595 116.86 37.76 35.067 0.8491 68.678-7.3207 98.583-22.781 43.895-22.692 79.956-60.349 103.64-105.67 27.115 47.632 35.254 89.706 30.385 127.44-4.5848 35.526-20.798 68.044-45.859 97.774-15.884 18.844-33.146 33.737-51.844 51.242 25.425 2.8562 53.834 6.7752 77.065 8.8122 294.48 25.82 658.67-91.029 774.47-245.12-162.18 113.78-493.46 222.31-769.12 196.52 24.315-31.286 41.025-66.387 46.041-105.26 6.7661-52.428-8.12-110.53-50.285-172.71l-16.59-24.469-10.69 27.562c-19.652 50.668-56.529 93.132-101.44 116.35-19.512 10.087-40.379 17.618-62.381 18.839-51.056 2.8322-77.384-16.094-107.03-43.6-24.983-23.182-48.058-48.368-68.183-77.028-16.74-23.839-19.765-42.916-16.723-55.312 3.0422-12.396 11.4-21.936 31.387-28.123 99.784-30.891 153.13-104.16 158.84-205.05-36.008 96.394-86.758 131.43-173.34 158.24z" transform="translate(-.000038333)" fill="#988b0b"/><path id="path4885" fill="#988b0b" d="m2347.3 2144.4c51.544 62.527 105.29 15.35 75.966-54.526-6.1419 48.632-33.081 64.239-75.966 54.526z"/><path id="path4313" d="m2304 2032c-149.5-280.3-196.5-750.3-68-1116" stroke="#988b0b" stroke-width="31" fill="none"/></g><g transform="translate(425.66 -3.692)"><path id="path4888-2" fill="#fff" d="m2725.9 2058.1c-59.302-299.56-41.048-552.53 119.61-707.07 160.05-153.96 574.67-273.85 535.73 250.91-28.959 390.22-320.88 515.01-655.33 456.16z"/><path id="path4890-3" fill="#fff" d="m2307 2036c-70.688-116.5-160.96-461.91-128.51-709.13 10.465-79.734 52.811-95.064 108.69-18.816 116.5 158.96 182.28 477.04 95.013 651.15z"/><ellipse id="path4212" style="color:#000000" d="m 3448.6153,1430.7743 c 0,221.1124 -117.1252,400.3594 -261.6065,400.3594 -144.4813,0 -261.6065,-179.247 -261.6065,-400.3594 0,-221.1124 117.1252,-400.3594 261.6065,-400.3594 144.4813,0 261.6065,179.247 261.6065,400.3594 z" clip-path="url(#clipPath4419)" rx="261.61" ry="400.36" transform="matrix(.99314 .11695 -.10654 .99431 0 0)" cy="1430.8" cx="3187" fill="url(#linearGradient4981)"/><ellipse id="path4214" style="color:#000000" d="m 2522.9571,1760.1876 c 0,199.9485 -56.3517,362.0387 -125.8651,362.0387 -69.5133,0 -125.865,-162.0902 -125.865,-362.0387 0,-199.9484 56.3517,-362.0387 125.865,-362.0387 69.5134,0 125.8651,162.0903 125.8651,362.0387 z" clip-path="url(#clipPath4240)" rx="125.87" ry="362.04" cy="1760.2" cx="2397.1" fill="url(#linearGradient4973)"/><path id="path4925" d="m2346 1955-55 22-11-41 64-5z" clip-path="url(#clipPath4955)" fill="#ed9dca"/><path id="path4927" d="m2342 1934-63 4-9-59 66 9z" clip-path="url(#clipPath4951)" fill="#932356"/><path id="path4929" d="m2864.8 2009.4-85.757 18.485-13.243-51.485 93 6z" clip-path="url(#clipPath4963)" fill="#ed9dca"/><path id="path4931" d="m2852.8 1985.4-89-4-14.243-69.343 97.243 11.343z" clip-path="url(#clipPath4959)" fill="#932356"/><ellipse id="path4218" style="color:#000000" d="m 3374.8154,1438.0554 c 0,171.3118 -83.3992,310.1875 -186.2773,310.1875 -102.8782,0 -186.2774,-138.8757 -186.2774,-310.1875 0,-171.3118 83.3992,-310.1875 186.2774,-310.1875 102.8781,0 186.2773,138.8757 186.2773,310.1875 z" clip-path="url(#clipPath4415)" rx="186.28" ry="310.19" transform="matrix(.99314 .11695 -.10654 .99431 0 0)" cy="1438.1" cx="3188.5"/><ellipse id="path4252" style="color:#000000" d="m 3388.3357,606.80731 c 0,84.58128 -33.3731,153.14795 -74.541,153.14795 -41.1679,0 -74.5411,-68.56667 -74.5411,-153.14795 0,-84.58127 33.3732,-153.14795 74.5411,-153.14795 41.1679,0 74.541,68.56668 74.541,153.14795 z" rx="74.541" ry="153.15" transform="matrix(.94341 .33162 -.33162 .94341 0 0)" cy="606.81" cx="3313.8" fill="#fff"/><ellipse id="path4254" style="color:#000000" d="m 3246.4848,1476.74 c 0,29.9403 -14.5629,54.2117 -32.527,54.2117 -17.9642,0 -32.527,-24.2714 -32.527,-54.2117 0,-29.9403 14.5628,-54.2117 32.527,-54.2117 17.9641,0 32.527,24.2714 32.527,54.2117 z" rx="32.527" ry="54.212" transform="rotate(6.4093)" cy="1476.7" cx="3214" fill="#fff"/><ellipse id="path4216" style="color:#000000" d="m 2477.7021,1775.744 c 0,153.8666 -35.4573,278.6001 -79.196,278.6001 -43.7387,0 -79.1959,-124.7335 -79.1959,-278.6001 0,-153.8665 35.4572,-278.6 79.1959,-278.6 43.7387,0 79.196,124.7335 79.196,278.6 z" clip-path="url(#clipPath4236)" rx="79.196" ry="278.6" cy="1775.7" cx="2398.5"/><ellipse id="path4256" style="color:#000000" d="m 2553.1012,1351.0492 c 0,64.046 -15.8291,115.9655 -35.3554,115.9655 -19.5262,0 -35.3553,-51.9195 -35.3553,-115.9655 0,-64.046 15.8291,-115.9655 35.3553,-115.9655 19.5263,0 35.3554,51.9195 35.3554,115.9655 z" rx="35.355" ry="115.97" transform="rotate(6.981)" cy="1351" cx="2517.7" fill="#fff"/><ellipse id="path4258" style="color:#000000" d="m 2392.8495,1778.5725 c 0,17.9641 -7.598,32.5269 -16.9706,32.5269 -9.3726,0 -16.9706,-14.5628 -16.9706,-32.5269 0,-17.9641 7.598,-32.5269 16.9706,-32.5269 9.3726,0 16.9706,14.5628 16.9706,32.5269 z" rx="16.971" ry="32.527" cy="1778.6" cx="2375.9" fill="#fff"/></g><g opacity=".5" transform="translate(425.66 -3.692)" stroke="#f00" stroke-width="1px" display="none" fill="#0f0"><path id="path4888" d="m2725.9 2058.1c-59.302-299.56-41.048-552.53 119.61-707.07 160.05-153.96 574.67-273.85 535.73 250.91-28.959 390.22-320.88 515.01-655.33 456.16z"/><path id="path4890" d="m2306 2036c-99.794-209.03-164.47-463.03-127.51-709.13 11.943-79.526 52.811-95.064 108.69-18.816 116.5 158.96 182.99 477.04 95.72 651.15z"/></g><g transform="translate(425.66 -3.692)"><path id="path4350" d="m2399.9 1934.1c20.432-94.53-18.071-187.68-45.255-280.01-50.278-85.647-101.48-169.7-192.33-185.26-5.5478-299.06 79.102-275.07 189.5-135.76 52.553 205.15 132.26 413.88 48.083 601.04z" clip-path="url(#clipPath4352)" fill="#cfba22"/><path id="path4335" d="m2725.9 2058.1c-13.52-63.641 5.7021-224.18 41.568-356.14 86.911-54.399 197.46-153.85 335.36-204.83 110.29-20.828 222.15-32.27 325.27-96.166-53.508-183.37-174.03-232.72-325.27-220.62-428.56 76.113-511.22 579.64-376.93 877.75z" clip-path="url(#clipPath4337)" fill="#cfba22"/><path id="path4315" d="m3411.6 1420.7c-54.768-5.0112-162.38-2.8067-238.06 11.343-396.78 74.19-500.07 303.16-447.64 626.02 2.1798-330.48 167.65-483.51 473.1-541.17 51.424-9.707 112.95-15.969 152.78-5.1954 12.236 155.01 12.729 264.08-81.875 398.5 127.6-114.84 158.95-316.07 141.7-489.51z" transform="translate(-.000038333)"/><path id="path4344" d="m3228 1438c99.732-24.268 156.25-99.747 188-196 20.599 109.11-8.6029 197.56-86 254z"/><path id="path4346" d="m3332 1432c87.872-10.493 139.73-57.501 188-126 1.5476 95.548-49.877 178.12-130 212z"/><path id="path4348" d="m2400 1930c10.118-152.19-71.125-295.97-152.52-382.15-17.844-18.894-39.389-37.945-62.652-40.328 1.7375 202.45 67.416 438.66 124.93 531.55-61.476-87.038-146.15-376.32-150-589.69 31.511 0.3705 67.842 11.683 98.528 37.901 94.5 80.8 177.4 303 141.7 442.7z"/><path id="path4356" d="m2230.2 1470.3c-50.258-17.72-59.561-62.745-77.782-101.82-8.5476 54.669-2.5245 102.6 33.426 134.76z"/><path id="path4358" d="m2206.2 1467.4-33.941 43.841c-27.945-19.937-51.076-46.293-56.568-96.166 25.156 30.811 54.069 51.606 90.51 52.326z"/><path id="path4858-1" fill="#988b0b" d="m2237.4 2040.3c-32.206 9.9701-57.088 33.115-64.484 63.252-7.3959 30.137 1.9421 63.44 24.209 95.15l40.102-28.158c-16.74-23.839-19.765-42.916-16.723-55.312 3.0422-12.396 11.4-21.936 31.387-28.123 99.784-30.891 153.13-104.16 158.84-205.05-36.008 96.394-86.758 131.43-173.34 158.24z"/><path id="path4901" fill="#e6e598" d="m2701.1 1566.4c196.42-122.72 398.54-222.62 602.46-315.37-105.45-53.702-217.46-59.864-338-4.2427-188.4 88.544-217.7 205.64-264.46 319.61z"/><path id="path4872" fill="#988b0b" d="m3436.2 1177.4c-237.82 100.21-481.14 215.87-722.29 362.22l28.233-102.18-70.73 164.61 29.42-18.178c248.94-153.8 500.85-274.02 747.41-377.91z"/><path id="path4909" fill="#e6e598" d="m2168 1338.8 253.14 289.91c-2.5226-126.56-54.015-230.08-120.21-326.68z"/><path id="path4903" fill="#988b0b" d="m2170.4 1330.6-13.314 13.555c96.675 94.969 182.59 197.26 263.57 303.05l22.439 29.314-35.451-138.33 5.7286 68.592c-74.828-96.02-154.32-189.1-242.97-276.19z"/></g><g transform="translate(425.66 -3.692)"><path id="path4900" fill="#e6e598" d="m3725.2 1425.8c263.61-441.02 141.6-809.54-94.821-1070.1-57.68-63.561-100.42-54.075-143.55-6.505-97.057 107.07-186.62 317.21-172.33 503.24"/><path id="path4902" fill="#988b0b" d="m3622.2 1138.5c93.227-123.48 71.786-390.12-4.7527-521.72 40.954 147.02 54.779 389.08 4.7527 521.72z"/><path id="path4900-4" fill="#988b0b" d="m3552.7 286.34c-33.047 0.5289-60.352 20.294-84.074 46.463-102.73 113.33-201.61 334.34-158.47 529.67 5.1346-194.68 103.4-395.95 194.78-496.76 19.4-21.401 35.029-30.162 48.555-30.379 13.526-0.21648 32.289 7.7914 58.697 36.893 115.76 127.56 202.61 280.5 228.84 454.54 26.231 174.04-11.496 429.99-118.07 606.56 151.43-159.44 194.5-428.25 166.52-613.86-27.976-185.61-120.34-347.19-241.01-480.16-31.272-34.46-62.721-53.488-95.768-52.959z"/></g><g transform="translate(425.66 -3.692)"><path id="path4502" d="m3937.2 1248.2c24.5-875.26-1585.4-1019.4-1793.3-158.3l435.58 101.82c429.28-229.38 883.12-196.69 1357.6 56.568z" stroke="#8f4805" stroke-width="49" fill="#ce8810"/></g><g transform="translate(425.66 -3.692)" stroke="#988b0b"><path id="path4893" d="m2519.6 1160.3c-169.3-184.95-323.9-373.45-477-562.32-133.7-164.91-52-203.85 99-116.73 218.94 126.32 415.79 276.76 582.5 410.77" stroke-width="49" fill="#e6e598"/><path id="path4895" d="m2171.6 502.56c46.834 84.118 40.214 169.15-18.784 210.37" stroke-width="31" fill="none"/><path id="path4897" d="m2397.4 651.04c44.615 109.03 58.61 222.66-36.638 320.88" stroke-width="31" fill="none"/></g><g transform="translate(425.66 -3.692)"><path id="path4499" fill="#ce8810" d="m2573.9 1355.7-25.3-298.6c-134.9-114.16-267.7-113.07-402.5-61.44-287.1 191.24-215.6 359.44-137.9 504.34l144.25-141.42c123.2-70.05 268.21-52.874 421.44-2.8284z"/><path id="path4482" d="m2608 1112c-63.137-147.1-428.36-179.21-543.25-50.627-114.9 128.59-142.73 296.97-62 433.94 80.731 136.97 107.96 271.73 50.627 346.23-99.728 129.59-87.775 356.49 64.568 436.17" stroke="#8f4805" stroke-width="49" fill="none"/><path id="path4474" d="m2574 1362.5c17.907-104.2 71.19-200.37 206-278 171.3-34.728 342.95 5.2905 492 104-218.95-19.845-479.68-2.3855-698 174z" stroke="#8f4805" stroke-width="1px" fill="#ce8810"/><path id="path4464" d="m2568.2 1338.8c164.21-445.76 575.87-234.1 786.3-113.14 210.44 120.96 165.68 257.15 141.42 418.61-24.259 161.46-103.97 359.55 56.569 441.23-172.87 105.97-157.5 379.31 5.6569 509.12-139.61 334.84 36.664 515.05 294.16 520.43-103.19-86.51-177.17-218.43-62.225-356.38 164.7 15.085 268.48-201.76 101.82-305.47 281.4-32.204 286.85-408.83 73.539-446.89 248.75-217.67 184.46-597.83-39.598-543.06 300-859.61-1763.1-819.73-1357.6-124.4z" stroke="#8f4805" stroke-width="49" fill="#ce8810"/><path id="path4466" d="m3852.3 3115c-158.61-70.101-293.71-229.79-220.62-373.35 73.092-143.56 118.12-274.33-33.941-379.01 261.33-2.3924 272.41-319.98 28.284-446.89 222.75-310.89 189.54-533.48-73.539-797.62s-981-236.61-1012.6 164.05" stroke="#8f4805" stroke-width="31" fill="none"/><path id="path4468" d="m2559.3 1375.2c218.88-163.91 484.08-238.37 745.88-177.4" stroke="#8f4805" stroke-width="49" fill="none"/><path id="path4470" d="m2670 1307.6c25.76-77.897 55.301-154.71 132.94-217.79" stroke="#8f4805" stroke-width="31" fill="none"/><path id="path4472" d="m2839.7 1225.6c31.49-71.328 92.304-132.22 197.99-135.76" stroke="#8f4805" stroke-width="31" fill="none"/><path id="path4476" fill="#8f4805" d="m2360.8 1283.1c-116.69-2.2176-237.85 41.868-271.59 144.82 58.186-89.381 168.96-97.372 273.93-94.919 70.168 1.6399 142.8 21.219 207.84 61.66l25.871-41.613c-73.826-45.898-156.21-68.43-236.05-69.947z"/></g></svg>