<?xml version="1.0" encoding="UTF-8"?><svg xmlns="http://www.w3.org/2000/svg" viewBox="0 0 5781.7031 5782.5835" width="5781.7031" height="5782.5835" version="1.1" xmlns:xlink="http://www.w3.org/1999/xlink"><defs id="defs4"><linearGradient id="linearGradient3993"><stop id="stop3995" stop-color="#3b76bc" offset="0"/><stop id="stop3997" stop-color="#265a8e" offset="1"/></linearGradient><clipPath id="clipPath3924" clipPathUnits="userSpaceOnUse"><path id="path3926" opacity=".5" d="m4999.8 2344.7c119.86-334.19 124.81-641.55-81.224-893.29-184.79 128.28-392.46 196.37-611.3 235.11-62.602 490.94 219.5 784.28 692.53 658.19z" stroke="#f00" stroke-width=".92168px" fill="#0f0"/></clipPath><clipPath id="clipPath3928" clipPathUnits="userSpaceOnUse"><path id="path3930" opacity=".5" d="m5014.7 2326.5c113.78-349.1 106.61-666.58-122.38-919.44-191.06 138.74-408.87 216.11-639.72 263.57-46.636 508.97 264.82 802.19 762.1 655.88z" stroke="#f00" stroke-width=".96569px" fill="#0f0"/></clipPath><clipPath id="clipPath3932" clipPathUnits="userSpaceOnUse"><path id="path3934" opacity=".5" d="m5043.2 2348c105.59-359.86 85.145-682.47-166.16-930.03-195.48 149.14-421.6 237-662.66 294.96-28.419 519.64 311.33 804.78 828.82 635.07z" stroke="#f00" stroke-width="1px" fill="#0f0"/></clipPath><clipPath id="clipPath3936" clipPathUnits="userSpaceOnUse"><path id="path3938" opacity=".5" d="m5574.3 2217.1c-39.188-6.332-77.668-19.447-111.76-74.584-34.675-174.1-76.759-415.7-78.21-626.94 59.23 53.004 117.76 99.456 174.04 124.94 27.465 190.16 49.53 380.82 15.933 576.58z" stroke="#f00" stroke-width=".78933px" fill="#0f0"/></clipPath><clipPath id="clipPath3940" clipPathUnits="userSpaceOnUse"><path id="path3942" opacity=".5" d="m5612.8 2246.5c-62.446-5.3453-123.41-18.115-175.17-76.876-46.512-188.45-101.39-450.2-92.754-680.46 92.13 55.436 183.48 103.76 272.31 129.31 34.129 206.25 59.583 413.25-4.3945 628.03z" stroke="#f00" stroke-width="1.0426px" fill="#0f0"/></clipPath><clipPath id="clipPath3944" clipPathUnits="userSpaceOnUse"><path id="path3946" opacity=".5" d="m5557.7 2197.3c-56.173-10.818-110.25-28.957-151.38-92.444-23.387-193.17-47.039-460.63-16.162-690.94 78.118 63.677 156.24 120.14 234.36 153.54 10.362 209.95 12.77 419.9-66.814 629.84z" stroke="#f00" stroke-width="1px" fill="#0f0"/></clipPath><clipPath id="clipPath3985" clipPathUnits="userSpaceOnUse"><path id="path3987" style="color:#000000" d="m5100 2072.9a187.14 398.57 0 1 1 -374.29 0 187.14 398.57 0 1 1 374.29 0z" transform="matrix(1.0526 -.042027 .040611 1.0171 -329.72 192.44)" fill="#f00"/></clipPath><clipPath id="clipPath3989" clipPathUnits="userSpaceOnUse"><path id="path3991" style="color:#000000" d="m5100 2072.9a187.14 398.57 0 1 1 -374.29 0 187.14 398.57 0 1 1 374.29 0z" transform="matrix(1.0526 -.042027 .040611 1.0171 -329.72 192.44)" fill="#f00"/></clipPath><linearGradient id="linearGradient3999" y2="1857.9" xlink:href="#linearGradient3993" gradientUnits="userSpaceOnUse" x2="4921.9" y1="2332.6" x1="4968.8"/><linearGradient id="linearGradient4007" y2="1808.7" xlink:href="#linearGradient3993" gradientUnits="userSpaceOnUse" x2="5579.4" y1="2218.1" x1="5546.6"/><clipPath id="clipPath4093" clipPathUnits="userSpaceOnUse"><path id="path4095" opacity=".5" d="m5044.2 2348c105.59-359.86 84.135-682.47-167.17-930.03-195.48 149.14-421.6 237-662.66 294.96-28.419 519.64 312.34 804.78 829.83 635.07z" stroke="#f00" stroke-width="1px" fill="#0f0"/></clipPath><clipPath id="clipPath4097" clipPathUnits="userSpaceOnUse"><path id="path4099" opacity=".5" d="m5557.7 2197.3c-56.173-10.818-110.25-28.957-151.38-92.444-23.387-193.17-47.039-460.63-16.162-690.94 78.118 63.677 156.24 120.14 234.36 153.54 10.362 209.95 12.77 419.9-66.814 629.84z" stroke="#f00" stroke-width="1px" fill="#0f0"/></clipPath><clipPath id="clipPath4097-1" clipPathUnits="userSpaceOnUse"><path id="path4099-0" opacity=".5" d="m5557.7 2197.3c-56.173-10.818-110.25-28.957-151.38-92.444-23.387-193.17-47.039-460.63-16.162-690.94 78.118 63.677 156.24 120.14 234.36 153.54 10.362 209.95 12.77 419.9-66.814 629.84z" stroke="#f00" stroke-width="1px" fill="#0f0"/></clipPath><clipPath id="clipPath4093-9" clipPathUnits="userSpaceOnUse"><path id="path4095-2" opacity=".5" d="m5044.2 2348c105.59-359.86 84.135-682.47-167.17-930.03-195.48 149.14-421.6 237-662.66 294.96-28.419 519.64 312.34 804.78 829.83 635.07z" stroke="#f00" stroke-width="1px" fill="#0f0"/></clipPath></defs><g display="none" transform="translate(-56.637 -80.619)"><rect id="rect4243" style="color:#000000" display="inline" height="6105.4" width="5850.5" stroke="#0f0" y="-62.939" x="-14.166"/></g><g opacity=".2" display="none" transform="translate(-56.637 -80.619)"><path id="path3766" style="color:#000000" d="m4211.4 5582.9c0 110.46-555.17 200-1240 200s-1240-89.543-1240-200 555.17-200 1240-200 1240 89.543 1240 200z" transform="matrix(1.1152 0 0 1.3571 -233.76 -1865.3)" display="inline"/></g><g transform="translate(-56.637 -80.619)" stroke="#f38fc0" stroke-width="49" fill="#fb98c9"><path id="path3816-4-9" d="m3653.3 3665.6c-169.18 650.71-70.18 1375.8 48.487 1721.3 41.108 119.69 77.301 206.87 193.95 230.31 154.1 30.97 301.72 41.858 456.59 24.244 103.77-11.802 193.27-47.259 96.975-189.91-204.78-303.36-423.55-1026.2-404.56-1721.3"/><path id="path4240" d="m3265.4 3956.6c-281.41 424.76-322.68 1058-116.05 1415.9 85.361 147.85 48.253 226.78-94.299 234.36-140.26 7.4523-283.8-10.086-420.7-42.623-54.001-12.835-119.86-36.524-130.22-128.75-73.109-650.93-91.15-1265 415.69-1769.4"/></g><g transform="translate(-56.637 -80.619)" stroke="#449ed1" stroke-width="49" display="none" fill="#6ecaf4"><path id="path3816-4-9-4" d="m3653.3 3665.6c-169.18 650.71-70.18 1375.8 48.487 1721.3 41.108 119.69 77.301 206.87 193.95 230.31 154.1 30.97 301.72 41.858 456.59 24.244 103.77-11.802 193.27-47.259 96.975-189.91-204.78-303.36-423.55-1026.2-404.56-1721.3" display="inline"/><path id="path4240-6" d="m3265.4 3956.6c-281.41 424.76-322.68 1058-116.05 1415.9 85.361 147.85 48.253 226.78-94.299 234.36-140.26 7.4523-283.8-10.086-420.7-42.623-54.001-12.835-119.86-36.524-130.22-128.75-73.109-650.93-91.15-1265 415.69-1769.4"/></g><g transform="translate(-56.637 -80.619)"><path id="path3775-1" fill="#7bd7fc" d="m2739.5 2856.4c-269.4-720.8-1272-875.2-1761.7-521.2-489.68 353.93-478.43 796.58-332.02 1209.8 81.044 228.75 195.5 444.23 276.64 643.44 81.134 199.2-22.475 545.12-301.75 446.43-193.77-68.471-361.23-252.96-432.57-396.88-37.799 419.89 239.53 737.46 485.77 857.42 246.24 119.97 683.42 121.28 946.6-122.89s334.09-767.42 274.56-1045.3c-59.533-277.91-119.48-401.48-189.91-682.86-70.431-281.38 143.21-558.48 388.71-533.85 245.5 24.634 385.42 157.13 452.92 355.86"/><path id="path3777" fill="#b9e4f5" d="m1682.9 3151.4c-151.46-158.9-640.49-146.31-645.71 85.714-3.7459 166.3-51.423 217.06-171.43 191.43-86.637-18.508-175.04-9.1206-248.57 20l145.71 377.14c62.597-28.225 157.41-76.084 245.71-48.571 248.02 77.277 326.38-29.277 305.71-240-25.492-259.93 157.82-285.28 251.43-257.14 68.379 20.557 125.33 48.136 171.43 97.143z"/><path id="path3775" d="m2739.5 2856.4c-269.4-720.8-1272-875.2-1761.7-521.2-489.68 353.93-484.14 808.01-337.74 1221.2 81.044 228.75 201.22 432.81 282.35 632.01 81.134 199.2-22.475 545.12-301.75 446.43-193.77-68.471-361.23-252.96-432.57-396.88-37.799 419.89 239.53 737.46 485.77 857.42 246.24 119.97 683.42 121.28 946.6-122.89s334.09-767.42 274.56-1045.3c-59.533-277.91-119.48-401.48-189.91-682.86-70.431-281.38 143.21-558.48 388.71-533.85 245.5 24.634 385.42 157.13 452.92 355.86" stroke="#449ed1" stroke-width="49" fill="none"/></g><g display="none" transform="translate(-56.637 -80.619)"><path id="path3775-1-7" d="m2739.5 2856.4c-269.4-720.8-1272-875.2-1761.7-521.2-489.68 353.93-478.43 796.58-332.02 1209.8 81.044 228.75 195.5 444.23 276.64 643.44 81.134 199.2-22.475 545.12-301.75 446.43-193.77-68.471-361.23-252.96-432.57-396.88-37.799 419.89 239.53 737.46 485.77 857.42 246.24 119.97 683.42 121.28 946.6-122.89s334.09-767.42 274.56-1045.3c-59.533-277.91-119.48-401.48-189.91-682.86-70.431-281.38 143.21-558.48 388.71-533.85 245.5 24.634 385.42 157.13 452.92 355.86" display="inline" fill="#fcb3d7"/><path id="path3777-9" d="m1682.9 3151.4c-151.46-158.9-640.49-146.31-645.71 85.714-3.7459 166.3-51.423 217.06-171.43 191.43-86.637-18.508-175.04-9.1206-248.57 20l145.71 377.14c62.597-28.225 157.41-76.084 245.71-48.571 248.02 77.277 326.38-29.277 305.71-240-25.492-259.93 157.82-285.28 251.43-257.14 68.379 20.557 125.33 48.136 171.43 97.143z" display="inline" fill="#fcd4e8"/><path id="path3775-3" d="m2739.5 2856.4c-269.4-720.8-1272-875.2-1761.7-521.2-489.68 353.93-484.14 808.01-337.74 1221.2 81.044 228.75 201.22 432.81 282.35 632.01 81.134 199.2-22.475 545.12-301.75 446.43-193.77-68.471-361.23-252.96-432.57-396.88-37.799 419.89 239.53 737.46 485.77 857.42 246.24 119.97 683.42 121.28 946.6-122.89s334.09-767.42 274.56-1045.3c-59.533-277.91-119.48-401.48-189.91-682.86-70.431-281.38 143.21-558.48 388.71-533.85 245.5 24.634 385.42 157.13 452.92 355.86" display="inline" stroke="#f38fc0" stroke-width="49" fill="none"/></g><g transform="translate(-56.637 -80.619)"><path id="path4245" fill="#7bd7fc" d="m3572.3 2037.4 229.1 441.23 45.255-263.04z"/><path id="path3816-4" d="m3394.1 3854.4c-169.18 650.71-70.18 1375.8 48.487 1721.3 41.108 119.69 77.301 206.87 193.95 230.31 154.1 30.97 301.72 41.858 456.59 24.244 103.77-11.802 193.27-47.259 96.975-189.91-204.78-303.36-423.55-1026.2-404.56-1721.3" fill="#fcb3d7"/><path id="path3824" fill="#fcb3d7" d="m2145.6 4175.7c32.794-104.55 29.059-239.18 236.38-200.01-34.952-151.37-54.533-306.58-46.467-468.71-13.387-229.22 64.681-440.15 266.68-626.29 156.22-129.93 336.37-218.54 610.13-145.46l559.32-114.46c32.852-156.6 74.584-310.98 79.098-474.66l808.12 451.74c-115.83 152.64-122.4 341.71-145.46 525.28-22.136 231.33-71.9 452.89-177.79 654.58-120.17 227.51-306.83 346.19-545.48 379.82l-452.55-36.366c-147.54-40.691-291.51-106.32-428.3-222.23-106.59 130.65-182.92 261.29-214.15 391.94z"/><path id="path3814" d="m2380 3980c-108.04-9.6293-157.58-14.888-200 97.143-162.8 429.95-170.6 949.02-97.143 1391.4 18.139 109.25 74.059 184.44 200 217.14 144.36 37.483 311.28 57.143 471.43 57.143 132.68 0 197.02-19.354 82.857-205.71-277.5-452.7-271.9-1315.6 82.8-1642.7" stroke="#f38fc0" stroke-width="49" fill="#fcb3d7"/><path id="path3798" d="m4714.3 2542.9c-182.7 195.7-184.3 377.1-199.3 592.9-39 560.7-304.6 960.4-715 1018.5" stroke="#f38fc0" stroke-width="49" fill="none"/><path id="path3800" fill="#f38fc0" d="m2772.1 3516.7c10.332 213.13 74.431 350.01 180.49 444.93 106.06 94.918 252.77 154 378.1 179.92l9.9376-48c-119.63-24.738-258-81.295-355.35-168.42-97.345-87.12-166.36-207.27-213.18-408.43z"/><path id="path3816" fill="#f38fc0" d="m3303.7 4202.2c-67.872 549.65 16.44 1092.3 115.75 1381.4 20.678 60.203 40.325 114.03 71.969 157.69 31.644 43.655 76.716 75.906 140.31 88.688 155.97 31.347 306.46 42.502 464.19 24.562 53.834-6.1229 107.86-16.204 139.62-54.594 15.883-19.195 23.22-46.079 18.875-75.094-4.3446-29.015-18.678-60.739-44-98.25-166.62-246.82-348.49-792.98-391.75-1368-8.4622-112.49-21.723-258.69-68.77-356.11 5.5407 100.41 11.318 245.75 19.895 359.76 43.848 582.85 224.09 1131.1 400.03 1391.8 22.826 33.814 33.411 60.002 36.125 78.125 2.7137 18.122-0.7294 27.587-8.1563 36.562-14.854 17.951-57.475 31.477-107.41 37.156-152.01 17.289-296.78 6.6864-449-23.906-53.052-10.662-84.389-33.717-110.28-69.437-25.892-35.72-44.882-85.33-65.313-144.81-95.919-279.26-180.25-818.73-113.47-1359.5 14.402-116.63 28.276-255.91 54.354-346.05-56.559 82.651-88.341 221.51-102.98 340.05z"/><path id="path3818" d="m4517.1 3111.4c-274.6-121.5-555.6-232.6-822.8-405.7l-162.86 182.86c261.36 306.73 590.16 480.84 935.12 558.57 23.323-89.667 43.972-223.33 50.592-335.71z" stroke="#bcdfd9" stroke-width="49" fill="#fff"/><path id="path3820" style="color:#000000" d="m4367.9 3198.8c0 51.884-26.683 93.944-59.599 93.944s-59.599-42.06-59.599-93.944 26.683-93.944 59.599-93.944 59.599 42.06 59.599 93.944z" transform="matrix(1.0655 -.082704 .082704 1.0655 -557.51 141.92)" fill="#449ed1"/><path id="path3822" style="color:#000000" d="m4330 3160.7c0 14.596-7.3554 26.428-16.429 26.428-9.0733 0-16.429-11.832-16.429-26.428s7.3553-26.429 16.429-26.429c9.0732 0 16.429 11.832 16.429 26.429z" transform="matrix(.99020 -.13964 .13964 .99020 -399.11 627.62)" fill="#7bd7fc"/><path id="path3826" d="m3725.4 2525.1c114.81-65.844 125.67-276.36 109.1-412.14" stroke="#f38fc0" stroke-width="49" fill="none"/></g><g display="none" transform="translate(-56.637 -80.619)"><path id="path4245-4" d="m3572.3 2037.4 229.1 441.23 45.255-263.04z" display="inline" fill="#fcb3d7"/><path id="path3816-4-7" d="m3394.1 3854.4c-169.18 650.71-70.18 1375.8 48.487 1721.3 41.108 119.69 77.301 206.87 193.95 230.31 154.1 30.97 301.72 41.858 456.59 24.244 103.77-11.802 193.27-47.259 96.975-189.91-204.78-303.36-423.55-1026.2-404.56-1721.3" display="inline" fill="#7bd7fc"/><path id="path3824-8" d="m2145.6 4175.7c32.794-104.55 29.059-239.18 236.38-200.01-34.952-151.37-54.533-306.58-46.467-468.71-13.387-229.22 64.681-440.15 266.68-626.29 156.22-129.93 336.37-218.54 610.13-145.46l559.32-114.46c32.852-156.6 74.584-310.98 79.098-474.66l808.12 451.74c-115.83 152.64-122.4 341.71-145.46 525.28-22.136 231.33-71.9 452.89-177.79 654.58-120.17 227.51-306.83 346.19-545.48 379.82l-452.55-36.366c-147.54-40.691-291.51-106.32-428.3-222.23-106.59 130.65-182.92 261.29-214.15 391.94z" display="inline" fill="#7bd7fc"/><path id="path3814-8" d="m2380 3980c-108.04-9.6293-157.58-14.888-200 97.143-162.8 429.95-170.6 949.02-97.143 1391.4 18.139 109.25 74.059 184.44 200 217.14 144.36 37.483 311.28 57.143 471.43 57.143 132.68 0 197.02-19.354 82.857-205.71-277.5-452.7-271.9-1315.6 82.8-1642.7" display="inline" stroke="#449ed1" stroke-width="49" fill="#7bd7fc"/><path id="path3798-1" d="m4714.3 2542.9c-182.7 195.7-184.3 377.1-199.3 592.9-39 560.7-304.6 960.4-715 1018.5" display="inline" stroke="#449ed1" stroke-width="49" fill="none"/><path id="path3800-6" fill="#449ed1" d="m2772.1 3516.7c10.332 213.13 74.431 350.01 180.49 444.93 106.06 94.918 252.77 154 378.1 179.92l9.9376-48c-119.63-24.738-258-81.295-355.35-168.42-97.345-87.12-166.36-207.27-213.18-408.43z"/><path id="path3816-3" fill="#449ed1" d="m3303.7 4202.2c-67.872 549.65 16.44 1092.3 115.75 1381.4 20.678 60.203 40.325 114.03 71.969 157.69 31.644 43.655 76.716 75.906 140.31 88.688 155.97 31.347 306.46 42.502 464.19 24.562 53.834-6.1229 107.86-16.204 139.62-54.594 15.883-19.195 23.22-46.079 18.875-75.094-4.3446-29.015-18.678-60.739-44-98.25-166.62-246.82-348.49-792.98-391.75-1368-8.4622-112.49-21.723-258.69-68.77-356.11 5.5407 100.41 11.318 245.75 19.895 359.76 43.848 582.85 224.09 1131.1 400.03 1391.8 22.826 33.814 33.411 60.002 36.125 78.125 2.7137 18.122-0.7294 27.587-8.1563 36.562-14.854 17.951-57.475 31.477-107.41 37.156-152.01 17.289-296.78 6.6864-449-23.906-53.052-10.662-84.389-33.717-110.28-69.437-25.892-35.72-44.882-85.33-65.313-144.81-95.919-279.26-180.25-818.73-113.47-1359.5 14.402-116.63 28.276-255.91 54.354-346.05-56.559 82.651-88.341 221.51-102.98 340.05z"/><path id="path3818-8" d="m4517.1 3111.4c-274.6-121.5-555.6-232.6-822.8-405.7l-162.86 182.86c261.36 306.73 590.16 480.84 935.12 558.57 23.323-89.667 43.972-223.33 50.592-335.71z" display="inline" stroke="#bcdfd9" stroke-width="49" fill="#fff"/><path id="path3820-7" style="color:#000000" d="m4367.9 3198.8c0 51.884-26.683 93.944-59.599 93.944s-59.599-42.06-59.599-93.944 26.683-93.944 59.599-93.944 59.599 42.06 59.599 93.944z" transform="matrix(1.0655 -.082704 .082704 1.0655 -557.51 141.92)" display="inline" fill="#f38fc0"/><path id="path3822-6" style="color:#000000" d="m4330 3160.7c0 14.596-7.3554 26.428-16.429 26.428-9.0733 0-16.429-11.832-16.429-26.428s7.3553-26.429 16.429-26.429c9.0732 0 16.429 11.832 16.429 26.429z" transform="matrix(.99020 -.13964 .13964 .99020 -399.11 627.62)" display="inline" fill="#fcb3d7"/><path id="path3826-1" d="m3725.4 2525.1c114.81-65.844 125.67-276.36 109.1-412.14" display="inline" stroke="#449ed1" stroke-width="49" fill="none"/></g><g transform="translate(-56.637 -80.619)"><path id="path3861" fill="#fff" d="m2485.1 3485.5c117.87 45.107 246.93 0.2463 339.14-245.55-33.75-0.8925-54.273 11.442-77.143 21.429 20.166-38.095 38.294-76.19 47.143-114.29-53.865 2.186-92.131 32.45-127.14 68.571l20-102.86-90 85.714 45.714-151.43c-80.316 46.758-104.06 101.6-132.86 155.71l14.286-88.571c-34.605 25.502-62.531 55.456-85.714 88.571-27.562 8.3796-51.916 32.798-75.714 60l-18.571 212.86c49.321 17.478 95.296 14.878 140.86 9.8335z"/><path id="path3829" d="m2491.9 3484.2c-33.579-79.836-60.907-148.35-126.2-207.04l-28.571 191.43c46.204 19.676 100.49 27.35 154.78 15.613z" stroke="#449ed1" stroke-width="19" fill="none"/><path id="path3831" d="m2493.1 3488.8c178.4 52.326 278.33-100.69 335.37-254.56-125.53 33.638-289.27 129.53-335.37 254.56z" stroke="#449ed1" stroke-width="19" fill="none"/><path id="path3833" d="m2501.1 3470.6c-0.4818-126.41 0.6887-232.9 23.234-359.61-79.061 69.316-110.48 123.97-114.15 220.21" stroke="#449ed1" stroke-width="19" fill="none"/><path id="path3835" d="m2502.6 3371.6c38.919-100.09 104.08-190.87 182.36-258.58-8.8942 72.731-26.079 150.95-67.098 223.68" stroke="#449ed1" stroke-width="19" fill="none"/><path id="path3837" d="m2592.7 3211.5c18.183-63.782 29.621-107.66 53.864-162.15-57.904 26.018-115.34 98.128-137.38 172.35" stroke="#449ed1" stroke-width="19" fill="none"/><path id="path3839" d="m2663.4 3225.3c23.442-38.614 77.106-67.952 132.75-82.999-8.6154 45.021-30.268 91.904-57.394 124.13" stroke="#449ed1" stroke-width="19" fill="none"/><path id="path3841" d="m2452 3189.3c-35.665 20.06-66.844 53.498-83.461 96.414" stroke="#449ed1" stroke-width="19" fill="none"/><path id="path3808" fill="#f38fc0" d="m3030 2688.6c-195.51 1.0838-361.88 82.52-484.22 209.56-163.11 169.39-249.92 418.23-234.78 666.88 11.971 196.61 65.695 443.71 65.151 551.53 45.171-112.18-4.6885-364.7-16.245-554.5-14.324-235.25 68.743-471.62 221.19-629.94 152.44-158.31 372.26-240.2 641.06-169.19l12.531-47.375c-71.096-18.782-139.52-27.33-204.69-26.969z"/></g><g display="none" transform="translate(-56.637 -80.619)"><path id="path3861-7" display="inline" fill="#fff" d="m2485.1 3485.5c117.87 45.107 246.93 0.2463 339.14-245.55-33.75-0.8925-54.273 11.442-77.143 21.429 20.166-38.095 38.294-76.19 47.143-114.29-53.865 2.186-92.131 32.45-127.14 68.571l20-102.86-90 85.714 45.714-151.43c-80.316 46.758-104.06 101.6-132.86 155.71l14.286-88.571c-34.605 25.502-62.531 55.456-85.714 88.571-27.562 8.3796-51.916 32.798-75.714 60l-18.571 212.86c49.321 17.478 95.296 14.878 140.86 9.8335z"/><path id="path3829-2" d="m2491.9 3484.2c-33.579-79.836-60.907-148.35-126.2-207.04l-28.571 191.43c46.204 19.676 100.49 27.35 154.78 15.613z" display="inline" stroke="#f38fc0" stroke-width="19" fill="none"/><path id="path3831-3" d="m2493.1 3488.8c178.4 52.326 278.33-100.69 335.37-254.56-125.53 33.638-289.27 129.53-335.37 254.56z" display="inline" stroke="#f38fc0" stroke-width="19" fill="none"/><path id="path3833-7" d="m2501.1 3470.6c-0.4818-126.41 0.6887-232.9 23.234-359.61-79.061 69.316-110.48 123.97-114.15 220.21" display="inline" stroke="#f38fc0" stroke-width="19" fill="none"/><path id="path3835-8" d="m2502.6 3371.6c38.919-100.09 104.08-190.87 182.36-258.58-8.8942 72.731-26.079 150.95-67.098 223.68" display="inline" stroke="#f38fc0" stroke-width="19" fill="none"/><path id="path3837-5" d="m2592.7 3211.5c18.183-63.782 29.621-107.66 53.864-162.15-57.904 26.018-115.34 98.128-137.38 172.35" display="inline" stroke="#f38fc0" stroke-width="19" fill="none"/><path id="path3839-8" d="m2663.4 3225.3c23.442-38.614 77.106-67.952 132.75-82.999-8.6154 45.021-30.268 91.904-57.394 124.13" display="inline" stroke="#f38fc0" stroke-width="19" fill="none"/><path id="path3841-5" d="m2452 3189.3c-35.665 20.06-66.844 53.498-83.461 96.414" display="inline" stroke="#f38fc0" stroke-width="19" fill="none"/><path id="path3808-8" fill="#449ed1" d="m3030 2688.6c-195.51 1.0838-361.88 82.52-484.22 209.56-163.11 169.39-249.92 418.23-234.78 666.88 11.971 196.61 65.695 443.71 65.151 551.53 45.171-112.18-4.6885-364.7-16.245-554.5-14.324-235.25 68.743-471.62 221.19-629.94 152.44-158.31 372.26-240.2 641.06-169.19l12.531-47.375c-71.096-18.782-139.52-27.33-204.69-26.969z"/></g><g transform="translate(-56.637 -80.619)"><path id="path3876" fill="#fcb3d7" d="m3681.4 1296.7c-32.122 295.06 43.846 580.45 141.02 864.73l614.17 480.83c313.62 159.42 622.81 239.01 921.26 125.26-64.908-43.412-137.84-54.748-210.11-68.69 25.052-97.378 91.399-158.03 207.84-186.87 87.433 38.992 168.42 40.507 240.67-19.205 66.884-52.725 103.61-118.38 117.18-193.95 4.6829-82.263-83.541-90.881-149.5-105.75 127.59-370.24 87.228-790.3-125.26-1154.9l-1159.7-36.366z"/><path id="path3866" fill="#c53474" d="m5307 2740.4c23.184-76.285 66.537-175.48 172.09-211.11-151.97-35.249-282.26 14.716-331.63 161.94 34.322 15.553 114.73 23.516 159.54 49.17z"/><path id="path3868" fill="#f67033" d="m5261 2705.5-98.952-22.685c36.856-40.988 86.663-10.181 98.952 22.685z"/><path id="path3864" fill="#f38fc0" d="m5401.3 2085.4c10.175 93.823 138.84 139.36 236.79 154.62 35.299 5.501 41.891 16.756 45.844 32.719 3.9529 15.963-0.2806 40.119-6.0937 59.375-13.123 43.47-51.487 104.55-106.25 141.5-59.59 40.205-97.643 51.711-187.47 28.739-57.089-14.6-114.04 11.239-155.09 45.708-38.442 32.273-85.435 103.71-93.188 141.51l-5.3126 25.906 26.25 3.3124c38.257 4.8275 123.44 23.172 178.7 40.572-126.74 34.364-314.48 31.9-470.73 2.7811-182.94-34.092-343.75-86.038-489.78-157.29 122.54 114.47 292.37 170.36 480.78 205.47 188.42 35.113 381.2 38.621 530.78-24.156l49.344-20.719-47.938-23.813c-62.17-30.889-146.15-49.134-207.22-58.562 13.739-37.253 40.095-74.378 71.844-101.03 38.934-32.686 83.664-48.453 119.41-39.312 95.837 24.509 159.16 17.296 227.03-28.5 66.146-44.629 108.94-112.28 125.75-167.97 6.736-22.313 14.718-53.26 6.7812-85.312-7.9371-32.052-37.082-63.528-85.875-69.344-92.292-11.001-195.94-38.415-244.35-106.22z"/><path id="path3874" fill="#f38fc0" d="m5420.5 2357.4c8.9693 37.277 40.906 48.864 88.893 34.345-37.71 52.189-126.63 36.276-88.893-34.345z"/><path id="path4247" d="m3716.6 1372.7c-29.062 275.71 51.098 567.98 161.22 797.62" stroke="#f38fc0" stroke-width="49" fill="none"/></g><g display="none" transform="translate(-56.637 -80.619)"><path id="path3876-7" d="m3681.4 1296.7c-32.122 295.06 43.846 580.45 141.02 864.73l614.17 480.83c313.62 159.42 622.81 239.01 921.26 125.26-64.908-43.412-137.84-54.748-210.11-68.69 25.052-97.378 91.399-158.03 207.84-186.87 87.433 38.992 168.42 40.507 240.67-19.205 66.884-52.725 103.61-118.38 117.18-193.95 4.6829-82.263-83.541-90.881-149.5-105.75 127.59-370.24 87.228-790.3-125.26-1154.9l-1159.7-36.366z" display="inline" fill="#7bd7fc"/><path id="path3866-3" display="inline" fill="#c53474" d="m5307 2740.4c23.184-76.285 66.537-175.48 172.09-211.11-151.97-35.249-282.26 14.716-331.63 161.94 34.322 15.553 114.73 23.516 159.54 49.17z"/><path id="path3868-3" display="inline" fill="#f67033" d="m5261 2705.5-98.952-22.685c36.856-40.988 86.663-10.181 98.952 22.685z"/><path id="path3864-1" fill="#449ed1" d="m5401.3 2085.4c10.175 93.823 138.84 139.36 236.79 154.62 35.299 5.501 41.891 16.756 45.844 32.719 3.9529 15.963-0.2806 40.119-6.0937 59.375-13.123 43.47-51.487 104.55-106.25 141.5-59.59 40.205-97.643 51.711-187.47 28.739-57.089-14.6-114.04 11.239-155.09 45.708-38.442 32.273-85.435 103.71-93.188 141.51l-5.3126 25.906 26.25 3.3124c38.257 4.8275 123.44 23.172 178.7 40.572-126.74 34.364-314.48 31.9-470.73 2.7811-182.94-34.092-343.75-86.038-489.78-157.29 122.54 114.47 292.37 170.36 480.78 205.47 188.42 35.113 381.2 38.621 530.78-24.156l49.344-20.719-47.938-23.813c-62.17-30.889-146.15-49.134-207.22-58.562 13.739-37.253 40.095-74.378 71.844-101.03 38.934-32.686 83.664-48.453 119.41-39.312 95.837 24.509 159.16 17.296 227.03-28.5 66.146-44.629 108.94-112.28 125.75-167.97 6.736-22.313 14.718-53.26 6.7812-85.312-7.9371-32.052-37.082-63.528-85.875-69.344-92.292-11.001-195.94-38.415-244.35-106.22z"/><path id="path3874-0" d="m5420.5 2357.4c8.9693 37.277 40.906 48.864 88.893 34.345-37.71 52.189-126.63 36.276-88.893-34.345z" display="inline" fill="#449ed1"/><path id="path4247-8" d="m3716.6 1372.7c-29.062 275.71 51.098 567.98 161.22 797.62" display="inline" stroke="#449ed1" stroke-width="49" fill="none"/></g><g transform="translate(-56.637 -80.619)"><path id="path3879" d="m4335.6 2153.3c-128.56-31.368-216.72-0.1241-303.05 50.508 45.536-90.754 178.95-131 290.92-94.954z"/><path id="path3881" d="m4252.7 1965.5c-87.523-35.136-180.5-42.982-278.8-24.244 85.603-71.443 241.8-46.855 280.82-22.223z"/><path id="path3883" d="m4230.5 1846.3c-76.709-73.593-166.42-108.17-264.66-117.18 85.24-32.438 201.65-8.5915 278.8 70.711z"/></g><g transform="translate(-56.637 -80.619)"><path id="path3913" clip-path="url(#clipPath3944)" fill="#fff" d="m5457.1 1477.1c-84.604 218.7-95.552 452.13-105.71 685.71l228.57 48.572 51.429-637.14z"/><path id="path3911" clip-path="url(#clipPath3932)" fill="#fff" d="m5025.7 2402.9c110.4-329.7-2.2-687.4-162.8-982.9l-754.29 237.14c65.511 635.08 296.19 955.21 917.14 745.71z"/><path id="path3903" style="color:#000000" d="m5100 2072.9c0 220.12-83.787 398.57-187.14 398.57-103.36 0-187.14-178.45-187.14-398.57s83.787-398.57 187.14-398.57c103.36 0 187.14 178.45 187.14 398.57z" clip-path="url(#clipPath3928)" transform="matrix(1.0526 -.042027 .040611 1.0171 -329.72 192.44)" fill="url(#linearGradient3999)"/><path id="path3905" style="color:#000000" d="m5680 2011.4c0 190.93-51.807 345.71-115.71 345.71-63.907 0-115.71-154.78-115.71-345.71s51.807-345.71 115.71-345.71c63.907 0 115.71 154.78 115.71 345.71z" clip-path="url(#clipPath3940)" transform="matrix(.90811 .087340 -.10003 1.0035 685.39 -547.32)" fill="url(#linearGradient4007)"/><path id="path3909" style="color:#000000" d="m5591.4 2041.4c0 127.03-21.107 230-47.143 230s-47.143-102.97-47.143-230 21.107-230 47.143-230 47.143 102.97 47.143 230z" clip-path="url(#clipPath3936)" transform="matrix(1.4587 .099999 -.15619 1.0896 -2227 -775.94)"/><path id="path3952" style="color:#000000" d="m5553.8 1865.4c0 67.505-19.447 122.23-43.437 122.23-23.989 0-43.436-54.724-43.436-122.23 0-67.505 19.447-122.23 43.436-122.23s43.437 54.724 43.437 122.23z" transform="matrix(.95736 0.211 -.21727 .94232 641.27 -1053)" fill="#fff"/><path id="path3954" style="color:#000000" d="m5527.6 2067.5c0 17.295-6.3316 31.315-14.142 31.315-7.8105 0-14.142-14.02-14.142-31.315s6.3316-31.315 14.142-31.315c7.8105 0 14.142 14.02 14.142 31.315z" transform="matrix(1.0502 .21203 -.19789 .98022 133.16 -1128.1)" fill="#fff"/><path id="path3956" d="m4868.9 2312.9-98.995 72.731-38.386-139.4 113.14-10.102z" clip-path="url(#clipPath3989)" fill="#76ade6"/><path id="path3958" d="m4840.7 2250.3-96.975 36.365-22.223-94.954 101.02-14.142z" clip-path="url(#clipPath3985)" fill="#5790ca"/><path id="path3907" style="color:#000000" d="m5051.4 2164.3c0 153.85-53.726 278.57-120 278.57s-120-124.72-120-278.57 53.726-278.57 120-278.57 120 124.72 120 278.57z" clip-path="url(#clipPath3924)" transform="matrix(1.1165 -.079327 .084484 1.0483 -737.16 286.56)"/><path id="path3948" style="color:#000000" d="m4933.6 2029.1c0 82.01-28.492 148.49-63.64 148.49-35.147 0-63.64-66.482-63.64-148.49 0-82.01 28.492-148.49 63.64-148.49 35.147 0 63.64 66.482 63.64 148.49z" transform="matrix(.98810 .14748 -.15382 .94737 380.19 -611.46)" fill="#fff"/><path id="path3950" style="color:#000000" d="m4963.9 2243.2c0 21.758-11.759 39.396-26.264 39.396s-26.264-17.638-26.264-39.396 11.759-39.396 26.264-39.396 26.264 17.638 26.264 39.396z" transform="matrix(.98414 .18656 -.17739 1.0351 470.17 -1003.9)" fill="#fff"/></g><g opacity=".5" transform="translate(-56.637 -80.619)" stroke="#f00" stroke-width="1px" display="none" fill="#0f0"><path id="path3886" d="m5043.2 2348c105.59-359.86 85.145-682.47-166.16-930.03-195.48 149.14-421.6 237-662.66 294.96-28.419 519.64 311.33 804.78 828.82 635.07z"/><path id="path3888" d="m5557.7 2197.3c-56.173-10.818-110.25-28.957-151.38-92.444-23.387-193.17-47.039-460.63-16.162-690.94 78.118 63.677 156.24 120.14 234.36 153.54 10.362 209.95 12.77 419.9-66.814 629.84z"/></g><g transform="translate(-56.637 -80.619)"><path id="path4068" d="m5405.7 2102.9c-41.196-199.97-15.548-478.29 65.714-625.71l-105.7-97.2c-6.6197 247.34-76.28 514.85 40 722.86z" clip-path="url(#clipPath4097)" fill="#fcd4e8"/><path id="path4070" d="m5043.2 2348c171.02-410.41 74.348-741.02-137.87-952.26l-149.5 121.22c266.27 148.28 325.69 578.76 287.37 831.04z" clip-path="url(#clipPath4093)" fill="#fcd4e8"/><path id="path4010" d="m5044.2 2348c11.2-287-53-641.6-335.6-808l88.572-71.429c287.47 234.43 298.95 598.62 247.03 879.41z"/><path id="path4012" d="m4920 1382.9c-254.09 156.66-527.06 274.43-834.29 340 314.29 15.533 693.81-142.1 834.29-340z"/><path id="path4014" d="m5331.4 1300c79.335 124.39 176.62 200.39 297.14 237.14v71.428c-110.4-53.2-261.1-146.4-297.1-308.5z"/><path id="path4016" d="m5448.6 1468.6c-93.504 193.5-88.253 491.02-42.857 631.43-10.324-142.04-18.677-421.2 77.143-602.86z"/><path id="path4018" d="m5559.9 2193.7c88.811-294.44 118.81-740.78-72.731-1038.4" stroke="#f38fc0" stroke-width="49" fill="none"/><path id="path3864-7" fill="#f38fc0" d="m5401.3 2085.4c10.175 93.823 138.84 139.36 236.79 154.62 35.299 5.501 41.891 16.756 45.844 32.719 3.9529 15.963-0.2806 40.119-6.0937 59.375l46.906 14.156c6.736-22.313 14.718-53.26 6.7812-85.312-7.9371-32.052-37.082-63.528-85.875-69.344-92.292-11.001-195.94-38.415-244.35-106.22z"/></g><g display="none" transform="translate(-56.637 -80.619)"><path id="path4068-4" d="m5405.7 2102.9c-41.196-199.97-15.548-478.29 65.714-625.71l-105.7-97.2c-6.6197 247.34-76.28 514.85 40 722.86z" clip-path="url(#clipPath4097-1)" display="inline" fill="#b9e4f5"/><path id="path4070-9" d="m5043.2 2348c171.02-410.41 74.348-741.02-137.87-952.26l-149.5 121.22c266.27 148.28 325.69 578.76 287.37 831.04z" clip-path="url(#clipPath4093-9)" display="inline" fill="#b9e4f5"/><path id="path4010-1" display="inline" d="m5044.2 2348c11.2-287-53-641.6-335.6-808l88.572-71.429c287.47 234.43 298.95 598.62 247.03 879.41z"/><path id="path4012-5" display="inline" d="m4920 1382.9c-254.09 156.66-527.06 274.43-834.29 340 314.29 15.533 693.81-142.1 834.29-340z"/><path id="path4014-7" display="inline" d="m5331.4 1300c79.335 124.39 176.62 200.39 297.14 237.14v71.428c-110.4-53.2-261.1-146.4-297.1-308.5z"/><path id="path4016-3" display="inline" d="m5448.6 1468.6c-93.504 193.5-88.253 491.02-42.857 631.43-10.324-142.04-18.677-421.2 77.143-602.86z"/><path id="path4018-3" d="m5559.9 2193.7c88.811-294.44 118.81-740.78-72.731-1038.4" display="inline" stroke="#449ed1" stroke-width="49" fill="none"/><path id="path3864-7-4" fill="#449ed1" d="m5401.3 2085.4c10.175 93.823 138.84 139.36 236.79 154.62 35.299 5.501 41.891 16.756 45.844 32.719 3.9529 15.963-0.2806 40.119-6.0937 59.375l46.906 14.156c6.736-22.313 14.718-53.26 6.7812-85.312-7.9371-32.052-37.082-63.528-85.875-69.344-92.292-11.001-195.94-38.415-244.35-106.22z"/></g><g transform="translate(-56.637 -80.619)"><path id="path4130" fill="#7bd7fc" d="m4888 396-832 628-1104 112-144 352c-41.101-303.92-74.335-608.76 156-944 256.96-213.7 524.27-417.06 980-432 304.7-39.951 617.99 36.199 944 284z"/><path id="path4104-2" fill="#7bd7fc" d="m3264 620.33c-287.96 273.37-381.04 712.57-371.96 995.57 9.0818 283 96.731 562.39 171.27 763.01 74.537 200.62 146.54 442.28 96.686 605.09-49.856 162.81-109.29 262.76-258.83 349.86 289.03 15.038 520.07-154.22 677.17-327.51-20.5 125.6-70.7 248.4-133.6 368.4 471.5-275 461.9-832.8 267.3-1210.8 102.67 81.709 205.33 131.58 308 160-390.13-378.63-457.26-993.73-196-1700"/><path id="path4102" d="m4924.1 398.4c-424.2-323.32-859.1-361.63-1398.4-201.16-539.28 160.47-867.44 621.86-716.36 1298 33.168-78.549 102.94-276.9 150.68-359.69" stroke="#449ed1" stroke-width="49" fill="none"/><path id="path4128" fill="#b9e4f5" d="m3682.6 1627.3c-200.99-172.95-375.25-247.45-475.18-59.397-99.921 188.05-220.41 95.887-316.78 39.598 17.226 148.02 31.7 296.04 70.711 444.06 129.56 58.862 323.19 88.138 415.78-110.31 92.589-198.45 185.93-268.7 325.27-152.74z"/><path id="path4104" fill="#449ed1" d="m2867.6 1616.7c9.2273 287.53 97.842 569.04 172.78 770.75 74.094 199.43 142.15 439.37 96.219 589.38-49.081 160.28-102.79 251.46-247.72 335.88l-71.031 41.375 82.094 4.25c263.67 13.718 479.39-120.39 636.28-273.06-24.998 93.696-65.132 186.52-113.19 278.22l-39.562 75.437 73.594-42.906c242.05-141.17 362.24-357.26 395.34-584.44 28.362-194.66-6.0623-397.46-79.031-573.09 79.854 51.992 160.05 86.988 240.12 109.16l92.406 25.562-68.812-66.781c-263.59-255.81-377.39-622.56-337.16-1055.8 18.012-194.01 78.934-509.99 125.42-629.02-81.512 110.97-155.37 425.17-173.74 624.13-37.545 406.76 56.458 760.73 282.51 1022.8-68.771-28.582-137.63-68.569-206.84-123.66l-89.25-71.063 52.219 101.44c95.126 184.77 145.01 414.29 113.69 629.28-27.741 190.4-117.88 369.26-297.5 500.66 44.646-95.854 79.626-194.02 96.125-294.84l13.406-81.906-55.75 61.469c-139.25 153.61-335.56 301.79-577.28 318.75 105.72-81.011 158.29-179.48 200.53-317.44 53.777-175.62-22.176-419-97.156-620.81-74.135-199.54-160.81-476.79-169.75-755.25-8.8835-276.82 95.978-734.87 361.51-1001.4-336.47 225.44-419.76 713.82-410.48 1003z"/><path id="path4132" d="m4884 366c279.92 164.12 558.77 578.21 632 824-401.92-43.824-845.76-77.342-1262.6 27.172l-229.6-295.74c160-188.67 523.7-434.99 860.2-555.46z" stroke="#bcdfd9" stroke-width="49" fill="#fff"/></g><g display="none" transform="translate(-56.637 -80.619)"><path id="path4130-2" d="m4888 396-832 628-1104 112-144 352c-41.101-303.92-74.335-608.76 156-944 256.96-213.7 524.27-417.06 980-432 304.7-39.951 617.99 36.199 944 284z" display="inline" fill="#fcb3d7"/><path id="path4104-2-2" d="m3264 620.33c-287.96 273.37-381.04 712.57-371.96 995.57 9.0818 283 96.731 562.39 171.27 763.01 74.537 200.62 146.54 442.28 96.686 605.09-49.856 162.81-109.29 262.76-258.83 349.86 289.03 15.038 520.07-154.22 677.17-327.51-20.5 125.6-70.7 248.4-133.6 368.4 471.5-275 461.9-832.8 267.3-1210.8 102.67 81.709 205.33 131.58 308 160-390.13-378.63-457.26-993.73-196-1700" display="inline" fill="#fcb3d7"/><path id="path4102-0" d="m4924.1 398.4c-424.2-323.32-859.1-361.63-1398.4-201.16-539.28 160.47-867.44 621.86-716.36 1298 33.168-78.549 102.94-276.9 150.68-359.69" display="inline" stroke="#f38fc0" stroke-width="49" fill="none"/><path id="path4128-1" d="m3682.6 1627.3c-200.99-172.95-375.25-247.45-475.18-59.397-99.921 188.05-220.41 95.887-316.78 39.598 17.226 148.02 31.7 296.04 70.711 444.06 129.56 58.862 323.19 88.138 415.78-110.31 92.589-198.45 185.93-268.7 325.27-152.74z" display="inline" fill="#fcd4e8"/><path id="path4104-27" fill="#f38fc0" d="m2867.6 1616.7c9.2273 287.53 97.842 569.04 172.78 770.75 74.094 199.43 142.15 439.37 96.219 589.38-49.081 160.28-102.79 251.46-247.72 335.88l-71.031 41.375 82.094 4.25c263.67 13.718 479.39-120.39 636.28-273.06-24.998 93.696-65.132 186.52-113.19 278.22l-39.562 75.437 73.594-42.906c242.05-141.17 362.24-357.26 395.34-584.44 28.362-194.66-6.0623-397.46-79.031-573.09 79.854 51.992 160.05 86.988 240.12 109.16l92.406 25.562-68.812-66.781c-263.59-255.81-377.39-622.56-337.16-1055.8 18.012-194.01 78.934-509.99 125.42-629.02-81.512 110.97-155.37 425.17-173.74 624.13-37.545 406.76 56.458 760.73 282.51 1022.8-68.771-28.582-137.63-68.569-206.84-123.66l-89.25-71.063 52.219 101.44c95.126 184.77 145.01 414.29 113.69 629.28-27.741 190.4-117.88 369.26-297.5 500.66 44.646-95.854 79.626-194.02 96.125-294.84l13.406-81.906-55.75 61.469c-139.25 153.61-335.56 301.79-577.28 318.75 105.72-81.011 158.29-179.48 200.53-317.44 53.777-175.62-22.176-419-97.156-620.81-74.135-199.54-160.81-476.79-169.75-755.25-8.8835-276.82 95.978-734.87 361.51-1001.4-336.47 225.44-419.76 713.82-410.48 1003z"/><path id="path4132-7" d="m4884 366c279.92 164.12 558.77 578.21 632 824-401.92-43.824-845.76-77.342-1262.6 27.172l-229.6-295.74c160-188.67 523.7-434.99 860.2-555.46z" display="inline" stroke="#bcdfd9" stroke-width="49" fill="#fff"/></g><g transform="translate(-56.637 -80.619)"><path id="path4135-6" fill="#fcb3d7" d="m4417.5 1270c-162-409.05-559.3-667.1-1088.4-561.99-150.31 29.857-145.27 99.563-93.338 189.5 150.92 261.41 357.22 428.53 562.86 605.28"/><path id="path4135" fill="#f38fc0" d="m3543.5 661.12c-70.176 0.41118-143.34 7.7776-219.19 22.844-39.39 7.8243-69.84 18.335-93.312 32.688-23.473 14.352-40.08 33.536-47.625 55.688-15.091 44.304 3.9936 90.391 31.156 137.44 153.5 265.86 430.69 528.48 590.57 600.11-128.62-112.22-399.78-367.66-548.13-624.61-24.765-42.895-34.17-76.658-27.188-97.156 3.4912-10.249 10.548-19.73 26.781-29.656 16.234-9.9258 41.548-19.333 77.313-26.438 518.95-103.08 996.32 294.9 1075.2 535.36-3.0922-263-436.77-608.77-865.62-606.26z"/><path id="path4137" fill="#f38fc0" d="m3606.2 874.89c158.23 69.386 332.03 180.46 452.55 285.67-97.714-128.7-269.53-265.51-452.55-285.67z"/></g><g display="none" transform="translate(-56.637 -80.619)"><path id="path4135-6-0" d="m4417.5 1270c-162-409.05-559.3-667.1-1088.4-561.99-150.31 29.857-145.27 99.563-93.338 189.5 150.92 261.41 357.22 428.53 562.86 605.28" display="inline" fill="#7bd7fc"/><path id="path4135-2" fill="#449ed1" d="m3543.5 661.13c-70.176 0.41118-143.34 7.7776-219.19 22.844-39.39 7.8243-69.84 18.335-93.312 32.688-23.473 14.352-40.08 33.536-47.625 55.688-15.091 44.304 3.9936 90.391 31.156 137.44 153.5 265.86 430.69 528.48 590.57 600.11-128.62-112.22-399.78-367.66-548.13-624.61-24.765-42.895-34.17-76.658-27.188-97.156 3.4912-10.249 10.548-19.73 26.781-29.656 16.234-9.9258 41.548-19.333 77.313-26.438 518.95-103.08 996.32 294.9 1075.2 535.36-3.0922-263-436.77-608.77-865.62-606.26z"/><path id="path4137-4" d="m3606.2 874.89c158.23 69.386 332.03 180.46 452.55 285.67-97.714-128.7-269.53-265.51-452.55-285.67z" display="inline" fill="#449ed1"/></g></svg>