<?xml version="1.0" encoding="UTF-8"?><svg xmlns="http://www.w3.org/2000/svg" viewBox="0 230 5541.2 5080" version="1.1" xmlns:xlink="http://www.w3.org/1999/xlink"><defs id="defs4"><linearGradient id="linearGradient3963"><stop id="stop3965" stop-color="#AD58E8" offset="0"/><stop id="stop3967" stop-color="#392052" offset="1"/></linearGradient><clipPath id="clipPath3875" clipPathUnits="userSpaceOnUse"><path id="path3877" opacity=".5" style="color:#000000" d="m1929.9 1818.6c-115.16 215.77-346.82 330.18-517.44 255.54-170.61-74.643-215.57-310.07-100.41-525.84s346.82-330.18 517.44-255.54c170.61 74.643 215.57 310.07 100.41 525.84z" stroke="#f00" stroke-width=".95177" fill="#0f0"/></clipPath><clipPath id="clipPath3879" clipPathUnits="userSpaceOnUse"><path id="path3881" opacity=".5" style="color:#000000" d="m1929.3 1801.6c-120.46 227.71-362.79 348.44-541.27 269.67-178.47-78.772-225.5-327.22-105.04-554.93s362.79-348.44 541.27-269.67c178.47 78.772 225.5 327.22 105.04 554.93z" stroke="#f00" fill="#0f0"/></clipPath><clipPath id="clipPath3883" clipPathUnits="userSpaceOnUse"><path id="path3885" opacity=".5" d="m765.53 1906.5c-81.754-298.68 60.209-752.9 105.92-837.38 103.01 66.423 196.82 492.05 4.8652 801.32z" stroke="#f00" stroke-width="1px" fill="#0f0"/></clipPath><clipPath id="clipPath3887" clipPathUnits="userSpaceOnUse"><path id="path3889" opacity=".5" d="m790.26 1941c-102.12-290.1-7.4428-755.27 28.291-843.52 102.34 56.868 226.55 472.31 72.641 797.62z" stroke="#f00" stroke-width=".97084px" fill="#0f0"/></clipPath><clipPath id="clipPath3891" clipPathUnits="userSpaceOnUse"><path id="path3893" opacity=".5" d="m790.4 1881.5c-108.34-290.1-1.0975-721.27 36.815-809.52 108.58 56.868 233.57 440.02 70.271 765.33z" stroke="#f00" stroke-width="1px" fill="#0f0"/></clipPath><clipPath id="clipPath3914" clipPathUnits="userSpaceOnUse"><path id="path3916" style="color:#000000" d="m1799.7 1847.6c-92.611 200.7-278.92 307.11-416.13 237.68-137.21-69.428-173.36-288.41-80.752-489.11 92.611-200.7 278.92-307.11 416.13-237.68 137.21 69.428 173.36 288.41 80.752 489.11z" stroke="#f00" stroke-width=".82317" fill="#0f0"/></clipPath><clipPath id="clipPath3955" clipPathUnits="userSpaceOnUse"><path id="path3957" style="color:#000000" d="m1720.2 1788a258.37 399.45 0 1 1 -516.73 0 258.37 399.45 0 1 1 516.73 0z" transform="matrix(1.0461 0 0 1.0553 -89.417 -117.61)" fill="#f00"/></clipPath><clipPath id="clipPath3959" clipPathUnits="userSpaceOnUse"><path id="path3961" style="color:#000000" d="m1720.2 1788a258.37 399.45 0 1 1 -516.73 0 258.37 399.45 0 1 1 516.73 0z" transform="matrix(1.0461 0 0 1.0553 -89.417 -117.61)" fill="#f00"/></clipPath><linearGradient id="linearGradient3969" y2="1443.6" xlink:href="#linearGradient3963" gradientUnits="userSpaceOnUse" x2="794.41" y1="1902.7" x1="853.77"/><linearGradient id="linearGradient3971" y2="1530.9" xlink:href="#linearGradient3963" gradientUnits="userSpaceOnUse" x2="1439.8" y1="2068.5" x1="1441.2"/><mask id="mask4052" maskUnits="userSpaceOnUse"><path id="path4054" d="m868.59 1014.6c-51.715 64.637-91.081 184.32-112.57 316.37l-181.49-24.01 40.795-336.56z" stroke="#fff" stroke-width="29" fill="#fff"/></mask><mask id="mask4056" maskUnits="userSpaceOnUse"><path id="path4058" d="m868.59 1014.6c-51.715 64.637-91.081 184.32-112.57 316.37l-181.49-24.01 40.795-336.56z" stroke="#fff" stroke-width="29" fill="#fff"/></mask></defs><g display="none" transform="translate(-232.81 44.076)"><rect id="rect1003" style="color:#000000" display="inline" height="5471.6" width="6098.5" stroke="#0f0" y="-26.866" x="-26.866"/></g><g opacity=".2" display="none" transform="translate(-232.81 44.076)"><path id="path3769" style="color:#000000" d="m4337.8 5080.4c0 112.65-691 203.97-1543.4 203.97-852.39 0-1543.4-91.322-1543.4-203.97s691-203.97 1543.4-203.97c852.39 0 1543.4 91.322 1543.4 203.97z" display="inline"/></g><g transform="translate(-232.81 44.076)" stroke="#A154A3" stroke-width="44" fill="#E590E5"><path id="path3773" d="m2274.3 3540.4c-39.982 211.12-292.89 389.77-435.14 384.15 5.1597 95.32 30.475 128.48 57.792 180.18 17.84 33.76 43.386 62.542 47.594 101.99 20.987 196.73-51.763 451.03-244.77 557.53-55.772 30.773-124.83 47.995-176.78-44.194-167.22-296.74-115.39-661.64 64.592-1043.7 27.951-59.329 95.855-112.1 176.78-125.78 126.54-21.399 193.12-92.445 268.56-159.78z"/><path id="path3775" d="m2788.5 3462.5c203.46 375.21 365.36 741.95 144.23 1269.2-71.03 169.37-36.849 212.37 24.038 221.15 156.28 22.537 379.82 28.552 533.65-9.6154 81.468-20.213 97.364-50.661 115.38-163.46 98.682-617.7-153.38-1080-495.19-1495.2z"/></g><g transform="translate(-232.81 44.076)" stroke-width="44"><path id="path3778" d="m3380.1 2644.4c231.04-1204.1 1859.4-1447.2 2097.1 38.462-163.12-185.76-307.21-305.72-496.5-358.3l-96.154 1998.6c236.37 286.37 532.59 217.3 820.12 183.18-212.15 167.93-776.12 500.46-1224 77.606 37.746 97.28 69.91 170.46 134.62 258.45-448.4-154.4-679.1-473.5-528.7-966.4 116.5-381.7 204.5-781.3 38.5-1048.1-216.8-348.5-544.1-152.9-653.8-14.4z" stroke="#623795" stroke-miterlimit="9" fill="#8042C4"/><path id="path3780" d="m3413.2 2694c131.95-224.4 1077.1-1336.7 1774.6-183.58 227.79 376.59-192.95 932.27-40.795 1414.2 93.189 295.18 376.25 299.05 605.12 237.97-179.34 250.07-606.82 349.28-843.09 305.96-273.41-50.126-336.58-343.14-251.57-734.3 109.63-504.41 186.34-1125-149.58-1393.8-292.93-234.42-806.95-10.164-1060.7 387.55z" stroke="#A754E2" fill="#B872EB"/></g><g transform="translate(-232.81 44.076)"><path id="path3814" fill="#FA9DFA" d="m1706.6 2336.7 608.52-264.85c41.702 209.68-49.724 573.96 248.17 486.14l594.92 795.5c-75.09 173.84-223.48 234.41-397.75 254.97l40.795 105.39-421.54 33.996-3.3996-149.58c-682.5-70-747.3-752.2-669.7-1261.5z"/><path id="path3765" d="m2380.6 3606.2c-502.6-70.9-787.7-376.8-680.8-1211.4" stroke="#A154A3" stroke-width="44" fill="none"/><path id="path3782" d="m2378.9 3657.2c0.1318 4.8215 0.2636 9.6475 0.3952 14.478 11.455 420.65 20.592 874.96-211.62 1365.8-34.422 72.757-48.853 170.78 48.66 184.68 164.6 23.471 339.26 25.822 495.19 4.8077 91.94-12.39 165.5-83.067 177.88-187.5 59.234-499.54 35.101-965.87-106.08-1366.1-2.0305-5.7565-4.0852-11.499-6.1642-17.228" stroke="#A154A3" stroke-width="44" fill="#FA9DFA"/><path id="path3786" d="m2478.2 2630.8c207.79-173.82 504.97-357.64 836.3-205.32 224.98 103.42 350 468.79 334.55 782.25-6.9925 141.8-37.344 279.89-24.038 403.85 56.844-8.0486 113.56-30.571 173.08 67.308 152.07 250.06 392.6 825.78 389.42 1288.5-0.6929 100.95-14.435 152.02-149.04 168.27-119.6 14.436-283.39 20.174-432.69 9.6154-118.66-8.3919-106.42-114.03-78.573-214.94 142.6-516.9-61-1104.9-402.2-1496.7" stroke="#A154A3" stroke-width="44" fill="#FA9DFA"/><path id="path3782-1" fill="#A154A3" d="m2694.2 3480.6c25.734 58.152 40.304 122.31 62.32 182.98 2.0564 5.6667 4.0851 11.368 6.0938 17.062l41.5-14.656c-2.0524-5.8186-4.1484-11.615-6.25-17.406-22.5-62.001-52.908-122.44-103.66-167.98zm-301.23-1.0067c-25.397 41.342-37.527 123.97-36.045 178.2 0.1318 4.8212 0.2747 9.6394 0.4063 14.469l44-1.1875c-0.1316-4.8314-0.2745-9.6781-0.4063-14.5-1.4824-54.233-6.3552-133.34-7.9553-176.98z"/><path id="path3784" fill="#A154A3" d="m3202.9 3126.6c-11.908 123.84-75.072 283.38-163.19 351.27-88.121 67.884-199.66 96.821-283.28 112.34l8.0313 43.25c86.226-16.007 204.69-45.688 302.12-120.75 97.439-75.062 165.22-265.18 136.32-386.11z"/></g><g transform="translate(-232.81 44.076)"><g id="g967" transform="matrix(-.16459 .014310 .014310 .16459 3930.2 2325.7)"><path id="path810-2" fill="#7FD1BE" d="m3565 4314.3 557.6-872.77-185.87-501.04-492.95-32.325-234.36 371.74z"/><path id="path886" fill-opacity=".25098" fill="#fff" d="m3942 2949.8 178 486c-321.73 82.746-632.69 86.115-912-144l234-382c-6.5081 115.58 66.92 181.1 218 198 125.9-13.262 245.19-34.684 282-158z"/><path id="path812-8" fill="#7FD1BE" d="m4260 3279.9 573.77-864.69-185.87-501.04-517.2-40.406-218.19 371.74z"/><path id="path882" fill-opacity=".25098" fill="#fff" d="m3916 2229.8c266.88 204.48 577.32 234.72 908 184l-178-492c-50.265 116.38-153.95 147.28-284 136-148.68-24.686-229.31-84.653-234-184z"/><path id="path814-2" fill="#7FD1BE" d="m3120.6 3029.3 598.01-840.45-169.71-509.12-533.36-32.325-234.36 395.98z"/><path id="path888" fill-opacity=".25098" fill="#fff" d="m3007.4 1670.5c18.348 119.6 117.19 164.46 240.42 186.68 165.24 0.5365 271.26-47.691 308.3-152.74l161.22 463.86c-316.92 60.936-631.38 77.576-933.38-130.11z"/><path id="path852" fill-opacity=".69020" fill="#fff" d="m3023.6 1647.5 529.32 32.325c-1.2724 125.7-132.75 158.39-282.84 177.79-233.56-37.124-257.75-119.76-246.48-210.11z"/><path id="path856" fill-opacity=".69020" fill="#fff" d="m3447.9 2912.2 492.95 24.244c-41.065 144.24-147.16 167.71-262.64 173.75-197.34-15.231-236.17-97.201-230.31-197.99z"/><path id="path854" fill-opacity=".69020" fill="#fff" d="m4126.7 1877.8 529.32 32.325c-41.568 87.486-93.13 167.83-282.84 149.5-94.023-32.136-203.17-27.981-246.48-181.83z"/><path id="path858" fill-opacity=".12549" fill="#fff" d="m4195.4 2015.2-270.72 234.36 202.03-351.53z"/><path id="path860" fill-opacity=".12549" fill="#fff" d="m4207.5 2023.2 16.162 342.57 141.42-302.17z"/><path id="path862" fill-opacity=".12549" fill="#fff" d="m4361 2059.6 128.26 349.7 61.65-390.1z"/><path id="path864" fill-opacity=".12549" fill="#fff" d="m4542.9 2023.2 262.64 375.78-149.5-476.79z"/><path id="path866" fill-opacity=".12549" fill="#fff" d="m3492.3 3041.5-274.76 254.56 214.15-367.7z"/><path id="path868" fill-opacity=".12549" fill="#fff" d="m3496.3 3041.5-8.5863 375.98 198.49-311.33z"/><path id="path870" fill-opacity=".12549" fill="#fff" d="m3682.2 3098 110.91 365.27 70.913-405.68z"/><!--S-i-g-m-a--><path id="path872" fill-opacity=".12549" fill="#fff" d="m3856 3057.6 254.56 391.94-173.75-501.04z"/><path id="path874" fill-opacity=".12549" fill="#fff" d="m3092.3 1809.1-303.05 238.4 218.19-387.9z"/><path id="path876" fill-opacity=".12549" fill="#fff" d="m3088.2 1809.1-25.284 332.53 199.03-280.01z"/><path id="path878" fill-opacity=".12549" fill="#fff" d="m3257.9 1857.6 113.14 334.53 64.65-358.78z"/><path id="path880" fill-opacity=".12549" fill="#fff" d="m3431.7 1833.3 266.72 340.41-137.42-461.63z"/><path id="path884" fill-opacity=".37647" fill="#fff" d="m4224 2387.8 42 850 220-812z"/><path id="path818" d="m3929.7 2230.7c202.72 191.7 600.24 231.58 912.2 176.4" stroke="#ABEFE4" stroke-width="49" fill="none"/><path id="path816" d="m4130.7 1881.8c28.538 234.79 473.1 240.02 509.12 16.162" stroke="#ABEFE4" stroke-width="49" fill="none"/><path id="path812" d="m4260 3279.9 573.77-864.69-185.87-501.04-517.2-40.406-218.19 371.74z" stroke="#5AA598" stroke-width="49" fill="none"/><path id="path824" d="m3016.6 1650.7c-4.762 284.87 544.79 241.4 531.43 28.572" stroke="#ABEFE4" stroke-width="49" fill="none"/><path id="path892" fill-opacity=".37647" fill="#fff" d="m3055.5 2162.6 70.711 831.56 246.07-786.3z"/><path id="path826" d="m2788 2027.8c292.83 211.66 672.46 214.59 925.71 137.14" stroke="#ABEFE4" stroke-width="49" fill="none"/><path id="path814" d="m3120.6 3029.3 598.01-840.45-169.71-509.12-533.36-32.325-234.36 395.98z" stroke="#5AA598" stroke-width="49" fill="none"/><path id="path822" d="m3445.2 2913.5c-13.77 261.82 485.18 235.36 485.71 22.857" stroke="#ABEFE4" stroke-width="49" fill="none"/><path id="path890" fill-opacity=".37647" fill="#fff" d="m3485.4 3432.6 84.853 834.39 220.62-789.13z"/><path id="path820" d="m3210.9 3267.8c260.28 257.3 625.54 245.09 914.29 171.43" stroke="#ABEFE4" stroke-width="49" fill="none"/><path id="path810" d="m3565 4314.3 557.6-872.77-185.87-501.04-492.95-32.325-234.36 371.74z" stroke="#5AA598" stroke-width="49" fill="none"/></g></g><g transform="translate(-232.81 44.076)"><path id="path3829" fill="#FA9DFA" d="m865.38 1053.8c-110.58 101.38-198.96 586.74-53.939 824.58-60.467 3.6591-143.57 8.3705-160 91.288 27.515 90.671 68.49 157.79 132.21 185.1 162.17 66.53 220.46-46.37 286.06-146.63 157.61 225.18 203.64 414.65 134.62 567.31 197.69-42.204 390.98-105.87 573.64-221.48l404.55-112.19 466.53-817.78-576.92-701.92z"/><path id="path3827" fill="#AD047A" d="m960.37 2136.4c108.38 139.08 175.52 289.41 234.57 441.94 63.848-116.82 81.813-265.6-132.58-576.22-20.426 55.315-41.666 110-101.99 134.28z"/><path id="path3825" fill="#FF6600" d="m1193.2 2243.5c-38.037 75.372-26.768 144 37.395 266.86 35.831-99.687 7.7105-185.16-37.395-266.86z"/><path id="path3817" fill="#A154A3" d="m750.09 1866.3c-47.537 3.5295-84.821 17.47-103.62 48.562-18.804 31.093-14.677 71.036 3.125 117.28 26.283 68.277 71.9 119.55 137.94 145.19 56.426 21.904 119.07 19.938 161.81-4.9063 52.603-30.578 97.549-74.664 120.41-134.97 59.038 86.682 106.41 183.86 131.06 273.97 28.276 103.34 25.783 195.59-15.625 253.78l-28.156 39.531 48.281-4.9062c202.52-20.595 554.3-196.66 617.84-285.84-97.224 61.148-406.96 203.47-591.71 236 29.548-70.222 24.822-158.64-0.2188-250.16-30.16-110.23-90.819-227.04-146.94-302.12l-31-41.469-8.3437 51.094c-8.8933 54.459-56.326 99.468-114.12 133.06-25.7 14.94-83.029 13.103-127.36-4.1033-54.393-21.114-89.846-60.307-112.81-119.97-15.519-40.314-14.767-65.1-6.5312-78.719 8.236-13.619 28.415-24.408 69.219-27.438 57.082-4.2381 180.67-53.512 196.4-184.43-60.757 124.05-148.57 136.76-199.65 140.55z"/><path id="path3823" fill="#A154A3" d="m803.99 1986.8c42.54 5.6025 69.522 0.7655 93.488-35.695 3.9006 67.99-39.092 83.741-93.488 35.695z"/></g><g transform="translate(-232.81 44.076)"><path id="path3859" d="m771.7 1946.1 200.57-91.788c38.33-314.6 106.33-633.5-152.98-904.31-113.99 211.01-217.77 638.41-47.59 996.11z" clip-path="url(#clipPath3891)" fill="#fff"/><path id="path3857" d="m1757.6 2119.4c-423.21 179.42-540.17-23.963-605.12-292.36 32.38-250.27 82.581-496.09 435.14-666.31 331.57-72.408 474.89 59.846 475.94 346.75-21.458 256.08-130.46 455.52-305.96 611.92z" clip-path="url(#clipPath3879)" fill="#fff"/><path id="path3849" style="color:#000000" d="m1720.2 1788c0 220.61-115.67 399.45-258.37 399.45-142.69 0-258.37-178.84-258.37-399.45s115.67-399.45 258.37-399.45c142.69 0 258.37 178.84 258.37 399.45z" clip-path="url(#clipPath3875)" transform="matrix(1.0461 0 0 1.0553 -89.417 -117.61)" fill="url(#linearGradient3971)"/><path id="path3853" style="color:#000000" d="m955.27 1670.7c0 172.73-62.403 312.76-139.38 312.76-76.978 0-139.38-140.03-139.38-312.76s62.403-312.76 139.38-312.76c76.978 0 139.38 140.03 139.38 312.76z" clip-path="url(#clipPath3887)" transform="matrix(1.061 0 0 1 -48.05 -57.792)" fill="url(#linearGradient3969)"/><path id="path3855" style="color:#000000" d="m904.28 1670.7c0 138.94-38.051 251.57-84.989 251.57s-84.989-112.63-84.989-251.57 38.051-251.57 84.989-251.57 84.989 112.63 84.989 251.57z" clip-path="url(#clipPath3883)" transform="matrix(.99593 -.090132 .090132 .99593 -143.85 53.448)"/><path id="path3918" style="color:#000000" d="m899.04 1458.9c0 53.768-24.484 97.356-54.688 97.356-30.203 0-54.688-43.588-54.688-97.356s24.484-97.356 54.688-97.356c30.203 0 54.688 43.588 54.688 97.356z" transform="matrix(.95675 -.24003 .20766 1.1059 -267.63 41.546)" fill="#fff"/><path id="path3920" style="color:#000000" d="m846.15 1651.2c0 12.612-12.646 22.836-28.245 22.836s-28.245-10.224-28.245-22.836 12.646-22.836 28.245-22.836 28.245 10.224 28.245 22.836z" transform="matrix(.95349 .30142 -.30142 .95349 532.14 -164.93)" fill="#fff"/><path id="path3926" d="m1524.7 1720 190.37-110.49 6.7991 249.87-181.88-13.598z" clip-path="url(#clipPath3959)" fill="#BF79EE"/><path id="path3928" d="m1541.7 1825.4 181.88-23.797-13.598 100.29-164.88-25.497z" clip-path="url(#clipPath3955)" fill="#E4D4FC"/><path id="path3851" style="color:#000000" d="m1529.8 1840.7c0 148.32-73.058 268.56-163.18 268.56-90.121 0-163.18-120.24-163.18-268.56s73.058-268.56 163.18-268.56c90.121 0 163.18 120.24 163.18 268.56z" clip-path="url(#clipPath3914)" transform="matrix(1.3007 0 0 1.1346 -411.64 -294.64)"/><path id="path3922" style="color:#000000" d="m1604.6 1569.5c0 69.036-40.897 125-91.346 125s-91.346-55.964-91.346-125 40.897-125 91.346-125 91.346 55.964 91.346 125z" transform="matrix(.99915 .041156 -.041156 .99915 63.472 -59.747)" fill="#fff"/><path id="path3924" style="color:#000000" d="m1406.2 1758.2c0 23.233-13.991 42.067-31.25 42.067s-31.25-18.834-31.25-42.067 13.991-42.067 31.25-42.067 31.25 18.834 31.25 42.067z" transform="matrix(.55249 -.83352 .83352 .55249 -850.14 1932.9)" fill="#fff"/></g><g opacity=".5" transform="translate(-232.81 44.076)" stroke="#f00" display="none" fill="#0f0"><path id="path3832" style="color:#000000" d="m2039.7 1731.9c0 247.83-143.83 448.74-321.26 448.74s-321.26-200.91-321.26-448.74 143.83-448.74 321.26-448.74 321.26 200.91 321.26 448.74z" transform="matrix(1.0059 .44397 -.48606 .91879 719.38 -695.26)" display="inline" stroke-width=".93658"/><path id="path3834" d="m781.9 1884.9c-108.34-290.1 0.60227-756.97 38.515-845.22 108.58 56.868 240.37 472.31 77.07 797.62z" stroke-width="1px"/></g><g transform="translate(-232.81 44.076)"><path id="path4024" d="m832.89 1082.6c169.71 287.81 139.77 565.25 74.79 732.6 81.432-149.58 134.44-461.68-62.892-761.5z"/><path id="path3974" d="m1705.3 1202.4c-28.75 0.58-59.34 4.6937-91.656 12.844-122.63 30.927-226.43 123.08-295.84 228.53-69.416 105.45-105.66 224.38-86.844 315.44l33.312-6.875c-15.759-76.279 16.087-189.89 81.906-289.88 65.819-99.984 164.39-186.16 275.78-214.25 120.3-30.341 206.83-1.4739 267.81 55.656s95.784 144.56 104.16 231.19l1.5938 16.469 16.5-1.1562s130.53-7.3363 130.42-26.078c-0.1085-18.742-116.58-8.9531-116.58-8.9531-11.585-87.949-48.082-175.61-112.84-236.28-51.595-48.338-121.47-78.396-207.72-76.656z"/><path id="path3976" d="m1974.9 1391.2 11.781 31.906s156.41-53.705 149.23-73.234c-7.1752-19.529-161.02 41.328-161.02 41.328z"/><path id="path3978" d="m1896.8 1289.2 23.688 24.375s120.22-108.72 104.12-124.75c-16.093-16.033-127.81 100.38-127.81 100.38z"/><path id="path3980" d="m868.59 1014.6c-131.34 164.1-183.02 683.3-64.6 858.4" stroke="#A154A3" stroke-width="29" fill="none"/><path id="path3982" d="m650.25 1224.5c-2.0102 19.853 151.72 24.062 151.72 24.062l1.8125-28.938s-151.52-14.978-153.53 4.8751z" mask="url(#mask4056)"/><path id="path3982-8" d="m702.63 1079.9c-12.607 15.468 113.42 103.61 113.42 103.61l17.443-23.161s-118.25-95.912-130.86-80.445z" mask="url(#mask4052)"/><path id="path3817-8" fill="#A154A3" d="m750.09 1866.3c-47.537 3.5295-84.821 17.47-103.62 48.562-18.804 31.093-14.677 71.036 3.125 117.28l41.062-15.812c-15.519-40.314-14.767-65.1-6.5312-78.719 8.236-13.619 28.415-24.408 69.219-27.438 57.082-4.2381 180.67-53.512 196.4-184.43-60.757 124.05-148.57 136.76-199.65 140.55z"/></g><g transform="translate(-232.81 44.076)" stroke-width="44"><path id="path4071" d="m2199.5 1961.5c-284.59 331.67-462.7 942.38-64.904 1189.9-47.963-134.62-86.355-318.71 69.712-474.96l175.48-812.5z" stroke="#A754E2" fill="#B872EB"/><path id="path4065" d="m1418.3 222.12c480.84-59.5 1105.3 133.05 1346.2 706.73 152.8 363.95-42.452 697-216.35 980.77-257.36 419.97-46.909 768.9 302.88 760.2-59.046 167.92-524.99 396.99-701.06-171.47 2.6552-195.51 228.62-513.41 306.83-708.92l173-754.8-629.8-192.29-745.2 225.99c-275.96-26.2-693.27 3.4-999.99 239.8 24.33-492.87 531.07-1056.6 1379.8-951.37-60.8-53.38-130-100.41-216.3-134.61z" stroke="#623795" stroke-miterlimit="7" fill="#8042C4"/><path id="path4067" d="m2434.1 1864.5c-208.51 526.06-193.63 995.3 190.37 1149-255.55 109.32-525.01-49.659-545.79-325.91-14.835-197.21 98.602-489.32 264.35-763.94z" stroke="#623795" fill="#8042C4"/><path id="path4069" d="m2168.3 779.81c-244.3-19.94-595.2-22.41-836.6 197.11-120.1 109.18-238.7 159.88-411.03 237.98 371.9 46.267 611.75-74.96 896.63-228.37 112.15-60.39 227.53-78.353 341.35-72.115 276.68 15.164 335.26 241.15 302.88 432.69-49.284 291.59-277.01 507.75-495.19 675.48 250.19 6.5202 441.56-67.859 634.62-213.94 127.45-96.446 298.06-437.2 177.88-653.85-109.27-196.99-366.37-355.07-610.58-375z" stroke="#A754E2" stroke-miterlimit="7" fill="#B872EB"/></g><g transform="translate(-232.81 44.076)"><path id="path4074" d="m1016.5 966.98c-103.12-175.6-195.88-332.23-275.4-492.93-60.09-121.43 15.45-188.13 118.99-95.19 157.51 141.4 312.21 303.06 458.91 438.54" stroke="#A154A3" stroke-width="44" fill="#FA9DFA"/><path id="path4076" d="m883.88 409.46c-0.82803 81.252-9.0961 155.24-84.989 163.18" stroke="#A154A3" stroke-width="29" fill="none"/><path id="path4078" d="m1050.5 569.24c1.9171 105.84-13.32 201.68-118.98 244.77" stroke="#A154A3" stroke-width="29" fill="none"/><path id="path4080" fill="#8042C4" d="m1322.1 746.15c-120.2 48.96-269.2 124.79-403.83 223.56l50.48 55.29 411.05-204.33z"/><path id="path4082" fill="#623795" d="m1339.5 745.86c-132.2 55.79-284.8 129.93-417.01 229.65 95.91-117.32 270.91-204.23 417.01-229.65z"/></g><g transform="translate(-232.81 44.076)"><path id="path4093" fill="#FA9DFA" d="m2331.7 1577.9-317.3-591.36c11.248-55.318 30.897-119.04 48.077-180.29 69.509-128.87 127.56-265.39 233.17-370.19 49.736-62.746 99.405-51.971 149.04 0.40384 121.32 245.05 142.78 502.59 110.58 766.83-42.875 152.97-110.32 285.6-223.56 374.6z"/><path id="path4085" fill="#A154A3" d="m2368.1 376.88c-31.253 1.3271-64.275 19.713-93.969 54.531-142.32 166.88-258.41 412.73-259.52 541.14 37.353-116.79 155.15-350.98 292.99-512.6 33.148-38.869 56.529-43.977 76.719-37.062 20.189 6.9146 42.981 32.594 59.281 72.062 129.07 312.53 169.62 808.76-118.14 1087 366.08-229 292.05-781.21 158.83-1103.8-18.999-46.004-46.379-83.402-85.719-96.875-9.8348-3.3683-20.051-4.8174-30.469-4.375z"/><path id="path4087" fill="#A154A3" d="m2334.1 1181.2c48.681-134.66 70.847-280.77 55.288-432.69 46.153 143.43 35.59 310.9-55.288 432.69z"/></g></svg>