<?xml version="1.0" encoding="UTF-8"?><svg xmlns="http://www.w3.org/2000/svg" viewBox="0 0 5844.2714 5844.2735" width="5844.2714" height="5844.2735" version="1.1" xmlns:xlink="http://www.w3.org/1999/xlink"><defs id="defs4"><linearGradient id="linearGradient4324"><stop id="stop4326" stop-color="#60bd50" offset="0"/><stop id="stop4328" stop-color="#267716" offset="1"/></linearGradient><clipPath id="clipPath4266" clipPathUnits="userSpaceOnUse"><ellipse id="ellipse4268" opacity=".5" stroke="#f00" style="color:#000000" rx="311.04" ry="497.16" transform="matrix(.52307 -.85229 .80644 .59131 0 0)" cy="448.3" cx="1086.5" stroke-width="1.0016px" fill="#0f0"/></clipPath><clipPath id="clipPath4270" clipPathUnits="userSpaceOnUse"><ellipse id="ellipse4272" opacity=".5" stroke="#f00" style="color:#000000" rx="326.24" ry="466.61" transform="matrix(.78462 -.61998 .61103 .79161 0 0)" cy="420.76" cx="1139.6" stroke-width=".99992px" fill="#0f0"/></clipPath><clipPath id="clipPath4274" clipPathUnits="userSpaceOnUse"><ellipse id="ellipse4276" opacity=".5" stroke="#f00" style="color:#000000" rx="327.98" ry="463.96" transform="matrix(.83474 -.55065 .54341 .83947 0 0)" cy="418.37" cx="1145.7" stroke-width=".99990px" fill="#0f0"/></clipPath><clipPath id="clipPath4278" clipPathUnits="userSpaceOnUse"><ellipse id="ellipse4280" opacity=".5" stroke="#f00" style="color:#000000" rx="332.71" ry="457.22" transform="matrix(.93120 -.36450 .34453 .93878 0 0)" cy="412.28" cx="1162.2" stroke-width="1px" fill="#0f0"/></clipPath><clipPath id="clipPath4282" clipPathUnits="userSpaceOnUse"><path id="path4284" opacity=".5" d="m1878.3-729.31c-61.117 138.45-45.484 309.23-13.214 487.01 28.976 75.893 88.894 118.14 163.05 144.92 64.747-190.41 48.639-399.75 15.637-613.04z" stroke="#f00" stroke-width="1px" fill="#0f0"/></clipPath><clipPath id="clipPath4286" clipPathUnits="userSpaceOnUse"><path id="path4288" opacity=".5" d="m1868.6-843.73c-58.454 141.97-39.281 311.48-3.28 486.96 30.612 73.973 91.563 112.46 166.48 134.61 61.031-194.06 40.591-402.04 3.1294-612.92z" stroke="#f00" stroke-width="1px" fill="#0f0"/></clipPath><clipPath id="clipPath4290" clipPathUnits="userSpaceOnUse"><path id="path4292" opacity=".5" d="m1971.4-276.21c-86.966 121.42-105.73 292.43-109.72 474.2 13.08 81.141 62.937 136.54 129.72 180.09 100.83-171.49 126.81-380.41 137.14-597.14z" stroke="#f00" stroke-width="1px" fill="#0f0"/></clipPath><clipPath id="clipPath4316" clipPathUnits="userSpaceOnUse"><ellipse id="ellipse4318" style="color:#000000" rx="285.93" ry="352.75" transform="matrix(.97999 .19903 -.22994 .97321 0 0)" cy="-423.39" cx="998.33" fill="#f00"/></clipPath><clipPath id="clipPath4320" clipPathUnits="userSpaceOnUse"><ellipse id="ellipse4322" style="color:#000000" rx="285.93" ry="352.75" transform="matrix(.97999 .19903 -.22994 .97321 0 0)" cy="-423.39" cx="998.33" fill="#f00"/></clipPath><linearGradient id="linearGradient4330" y2="-680.52" xlink:href="#linearGradient4324" gradientUnits="userSpaceOnUse" x2="1098" y1="-157.01" x1="957.96"/><clipPath id="clipPath4332" clipPathUnits="userSpaceOnUse"><ellipse id="ellipse4334" style="color:#000000" rx="131.81" ry="299.29" transform="matrix(.95619 .29276 -.21887 .97575 0 0)" cy="-668.01" cx="1868.5" fill="#ff0200"/></clipPath><clipPath id="clipPath4336" clipPathUnits="userSpaceOnUse"><ellipse id="ellipse4338" style="color:#000000" rx="131.81" ry="299.29" transform="matrix(.95619 .29276 -.21887 .97575 0 0)" cy="-668.01" cx="1868.5" fill="#ff0200"/></clipPath><linearGradient id="linearGradient4346" y2="-834.87" xlink:href="#linearGradient4324" gradientUnits="userSpaceOnUse" x2="1898.7" y1="-460.06" x1="1866.3"/></defs><g display="none" transform="translate(2775.2 2289.3)"><rect id="rect4446" style="color:#000000" display="inline" height="6052.8" width="5419.3" stroke="#0f0" y="-2398.3" x="-2534.3"/></g><g opacity=".2" display="none" transform="translate(2775.2 2289.3)"><ellipse id="path4076" style="color:#000000" d="m 1672.8126,3367.6318 c 0,131.6625 -721.80805,238.396 -1612.203454,238.396 -890.395406,0 -1612.203446,-106.7335 -1612.203446,-238.396 0,-131.6624 721.80804,-238.396 1612.203446,-238.396 890.395404,0 1612.203454,106.7336 1612.203454,238.396 z" rx="1612.2" ry="238.4" display="inline" cy="3367.6" cx="60.609"/></g><g transform="translate(2775.2 2289.3)"><path id="path4091" fill="#f2ab54" d="m-371.74 1569.6 50.508 367.7 381.84-80.812 54.548-193.95z"/><path id="path4081" d="m77.143 1789.5c-236.82 408.9-270.19 890.9-77.143 1268.6 71.145 139.2 84.943 192.9-105.71 202.8-125.79 6.5821-252.88 14.341-377.14-2.8571-166.55-23.051-172.58-128.21-182.86-245.71-32.724-374.05-2.3154-754.77 197.14-1080 43.838-71.48 93.333-61.439 140-57.143" stroke="#e97135" stroke-width="49" fill="#f2ab54"/><path id="path4083" fill="#e97135" d="m-353.06 1585-48.17 8.9824c21.425 114.88 69.015 284.74 77.169 351.36 26.337-74.806-7.7965-246.65-28.999-360.34z"/><path id="path4089" d="m658.62 1771.6c72.051 175.1 168.32 317.91 331.33 371.74-21.75 79.727-70.32 149.98-153.54 206.07-49.757 33.534-84.532 124.44-88.893 193.95-9.0399 144.08 29.336 288.98 125.26 428.3 76.05 110.46 165.71 61.12 224.25 0 217.79-227.38 249.84-609.73 183.85-977.83-14.705-82.019-59.43-155.49-157.58-202.03-93.859-44.506-162-151.76-220.21-258.6" stroke="#e97135" stroke-width="49" fill="#f2ab54"/></g><g transform="translate(2775.2 2289.3)" stroke="#A4794C" stroke-width="49" fill="#CB9B61"><path id="path4096" d="m383.18-1564.5c-340.23 32.256-485.22 234.87-583.18 505.47-77.371 213.72-57.93 412.91 118.93 599.88"/><path id="path4094" d="m210.74 502.52c-361-447.02-327.07-698.55-271.64-1123.6 76.139-583.82 640.05-1274.2 1106.6-1578-30.891 139.96-20.333 246.97 65.143 335 85.476 88.028 339.72 82.358 397.71-43.571 57.993-125.93 25.591-237.74-37.143-357.14 337.79 163.13 799.73 579.8 408.57 894.29z"/></g><g transform="translate(2775.2 2289.3)"><path id="path4109" d="m-1860 2309.5c-384.49-121.63-440.02-27.909-374.29 188.57-69.737-48.401-133.64-127.18-165.71-205.71-48.783 221.16 44.376 386.1 197.14 434.29-44.762 19.028-83.81 25.138-134.29 31.429 184.99 194.41 533.81 131.37 631.43-111.43 29.919 177.29 109.51 259.3 140 85.714 20.036-114.08-22.987-266.6-125.71-354.29" stroke="#F4DD6C" stroke-width="49" fill="#FFFAAB"/><path id="path4111" d="m-1868.6 2343.8c-231.17 58.262-271.41 171.46-62.857 302.86-160.43 41.617-314.5 2.2645-457.14-114.29" stroke="#F4DD6C" stroke-width="29" fill="none"/><path id="path4107" fill="#ea403f" d="m-1905.7 2260.9c-26.1 117.73 66.959 144.77 134.29 168.57 94.335 33.344 153.49-21.175 180-111.43z"/><path id="path4099" d="m-367.1 761.63c-66.78-281.34-268.71-582.26-611.72-750.94-441.78-217.28-968.48 0.828-1249.8 502.16-161.48 287.83-293.28 1252.7 113.76 1608.7 337.4 295.1 790.33 254.91 895.3-35.84 66.821-185.09 43.582-384.85-41.674-554-188.46-373.91-81.435-865.02 306.9-867.88 180.24-1.3258 347.88 56.018 474.29 217.14z" stroke="#F4DD6C" stroke-width="49" fill="#FFFAAB"/><path id="path4101" d="m-2292.2 666.67c-81.662 320.93-177.75 978.22 163.45 1390.7 180.38 218.08 494.66 298.92 741.09 182.26 197.95-93.718 225.75-340.37 191.08-525.39" stroke="#F4DD6C" stroke-width="49" fill="none"/><path id="path4103" d="m-428.3 826.09c-104.66-163.91-398.25-396.66-723.3-424.27-186.83-15.867-448.46 103.67-480.83 391.94-31.958 284.61 80.983 502.24 169.71 711.15 113.36 266.93 192.21 579.57-177.79 800.04" stroke="#F4DD6C" stroke-width="29" fill="none"/><path id="path4105" d="m-383.86 805.88c-94.408-277.95-307.02-583.14-686.9-694.98-273.73-80.592-704.74 14.234-921.26 424.26-290.71 550.52-298.89 1430.2 96.975 1709.2" stroke="#F4DD6C" stroke-width="29" fill="none"/></g><g transform="translate(2775.2 2289.3)"><path id="path4151" fill="#faba61" d="m1276.8 620.02-884.86-395.98-363.66 513.15c-243.06-61.41-470.19-72.76-638.41 101.02-172.55 175.49-205.06 397.67-218.19 626.29 17.938 134.72 42.646 259.28 40.406 424.26-144.01-11.755-183.46 70.587-222.23 153.54l428.3 109.1c84.633-148.59 167.67-300.39 262.64-428.3 144.47 119.8 290.61 172.31 456.59 206.07l363.65 28.284c372.43-113.61 631.53-347.87 670.74-816.2 15.025-187.08 27.218-376.04 105.06-521.24z"/><path id="path4128" d="m-787.92 1892.8c-122.02-7.4914-144.43 20.146-193.46 101.02-230.44 380.09-372.08 809.58-402.88 1214.3-8.1451 107.03 5.2151 193.64 136.89 207.95 146.38 15.905 296.02 13.813 435.2 0 188.19-18.676 107.07-143.21 72.731-270.72-124.52-462.38 128.88-1012.3 428.3-1430.4" stroke="#e97135" stroke-width="49" fill="#faba61"/><path id="path4130-8" fill="#faba61" d="m177.14 1763.8c-159.96 468.6-133.75 999.6-42.85 1500 25.562 140.73 87.791 229.44 202.86 245.71 151.04 21.366 302.91 26.959 454.29 14.286 213.01-17.833 115.55-142.48 60-237.14-222.31-378.9-319.88-975-365.73-1497.2"/><path id="path4114" d="m1280 612.36c-101.48 168.14-87.572 380.11-108.57 571.43-39.656 361.28-270.11 677.39-658.82 750.94" stroke="#e97135" stroke-width="49" fill="none"/><path id="path4116" fill="#e97135" d="m-302.88 1767.1c121.37 102.43 282.83 155.2 432.51 178.17l7.4336-48.434c-143.69-22.057-297.11-73.308-408.33-167.19-111.23-93.877-187.96-251.32-187.25-440.88-33.571 190.44 34.279 375.89 155.64 478.33z"/><path id="path4122" fill="#e97135" d="m-235.09 664.04c-32.15-0.5465-63.731 1.1827-94.756 5.5606-124.1 17.511-238.18 78.794-337.76 201.62-144.07 177.7-202.82 459.26-168.14 738.45 16.256 130.85 51.47 267.23 31.334 349.96 62.722-57.263 33.595-224.78 17.293-356.01-33.336-268.33 25.528-538.68 157.57-701.55 93.212-114.97 193.7-168.03 306.54-183.95 112.85-15.924 239.17 6.6799 378.73 49.107l14.274-46.89c-107.05-32.55-208.62-54.67-305.07-56.31z"/><path id="path4130" fill="#e97135" d="m91.16 1983.5c-89.124 414.32-57.946 860.92 19.02 1284.7 13.244 72.915 36.13 134.14 72.771 180.37 36.642 46.225 87.722 76.309 150.76 85.227 152.7 21.602 306.43 27.278 459.76 14.441 55.771-4.6691 94.037-15.906 120.14-36.412s35.835-51.882 32.895-80.283c-5.8804-56.802-46.962-111.27-73.949-157.26-189.31-322.59-288.79-812.72-341.4-1276.8-8.0286-70.838-27.108-155.22-59.579-217.54-0.14633 64.958 2.8098 151.77 10.89 223.06 52.94 467.09 151.41 961.43 347.83 1296.1 28.566 48.679 63.988 103.86 67.471 137.51 1.7415 16.822-0.62948 25.867-14.426 36.705-13.796 10.838-43.226 21.87-93.959 26.117-149.42 12.509-299.44 6.9989-448.81-14.131-52.028-7.36-89.595-29.767-119.22-67.146-29.63-37.38-50.641-90.871-62.959-158.69-76.297-420.05-106.43-860.67-19.326-1265.6 16.216-75.383 38.506-161.66 63.479-237.3-53.819 67.797-94.792 149.86-111.38 227z"/></g><g transform="translate(2775.2 2289.3)"><path id="path822" fill="#60bd50" d="m-666.55 1199.1c7.3044-30.846 13.988-62.364 26.961-93.4 4.9144-11.757-7.8999-18.372-11.985-2.1521-8.2586 32.788-16.233 67.17-14.976 95.552z"/><path id="path824" fill="#60bd50" d="m-670.49 1203.8c1.5706-27.193 2.4525-54.029-3.6847-71.449-17.241 38.532-14.076 72.524 3.6847 71.449z"/><path id="path826" fill="#ea403f" d="m-670.33 1224.5c25.386-50.886 59.11-62.87 57.466-17.217-1.7487 48.574-33.86 140.18-67.629 140.32-5.7946 0.024-10.819 2.0197-16.382 6.8866-33.365 29.192-62.087-26.169-44.416-98.135 17.4-70.861 59.523-62.782 70.961-31.851z"/><path id="path828" fill="#60bd50" d="m-490.81 1176.7c2.4656-24.617 4.3924-48.936 2.6767-66.488-1.7487-17.889 14.252-31.835 14.179-10.436-0.0588 17.158-6.9659 51.282-16.855 76.924z"/><path id="path830" fill="#60bd50" d="m-484.38 1168.4c16.242 3.8657 33.723-23.629 44.612-60.115-15.568 2.9226-36.533 36.398-44.612 60.115z"/><path id="path832" fill="#ea403f" d="m-495 1187.8c0.63808-47.138-20.978-69.299-43.223-24.005-25.373 51.662-48.142 150.15-24.182 156.25 4.6207 1.1766 8.0799 3.1245 12.517 8.75 19.807 25.111 67.687-41.552 86.997-94.066 24.673-67.098-2.7099-75.548-32.109-46.932z"/><path id="path834" fill="#60bd50" d="m-516.74 907.26c-0.21856-15.885-1.7142-30.111-4.9148-42.877-1.796-7.1638 13.422-25.71 15.455-17.333 4.0121 16.535-2.1946 40.402-10.54 60.21z"/><path id="path836" fill="#60bd50" d="m-509.66 903.61c7.926-27.65 25.733-61.201 46.435-66.596-7.7162 27.984-28.097 63.769-46.435 66.596z"/><path id="path838" fill="#ea403f" d="m-521.83 935.54c34.712-43.977 82.705-68.845 75.335-14.596-7.4628 54.93-68.869 163.97-97.838 144.14-3.1647-2.166-5.3277-3.5909-13.132 1.8246-38.202 26.508-49.627-38.355-28.164-98.526 25.836-72.43 55.858-68.86 63.799-32.842z"/></g><g transform="translate(2775.2 2289.3)"><path id="path4216" fill="#faba61" d="m2133.4-264.88c-29.124 218.29-20.14 444.21-149.5 642.46 80.527 33.389 123.49 84.113 64.65 181.83-38.127 55.324-91.158 92.873-161.62 105.06-134.56-14.901-167.43-97.592-173.75-197.99-94.681 109.55-114.02 228.52-36.366 359.61-313.97-3.5959-591.1-117.71-840.45-315.17l-456.59-185.87 40.406-703.07 662.66-832.37z"/><path id="path4214" fill="#AD047A" d="m1804.1 640.22c-84.776 33.889-107.91 100.22-121.22 171.73-82.484-122.3-73.876-240.89 30.305-355.57-1.3416 84.138 23.766 149.17 90.914 183.85z"/><path id="path4212" fill="#FF6600" d="m1641.4 573.79c-23.309 67.795-20.424 141.24 17.143 201.43 24.682-52.419 36.616-129.41-17.143-201.43z"/><path id="path4197" d="m1861.7 197.99c7.295 101.71 55.623 176.23 138.32 214 29.661 13.549 45.633 28.844 52.734 42.08 7.1015 13.236 7.2842 25.064 1.4043 39.557-21.708 53.506-66.52 100.68-120.17 131.46-37.125 21.301-104.59 15.167-142.9-14.24-38.535-29.578-66.514-92.541-61.404-161.48l3.4121-46.039-29.123 35.82c-49.267 60.596-82.295 126.16-89.738 192.9-6.2708 56.229 6.2259 113.06 41.504 166.07-263.33 3.5393-646.01-155.75-802.6-286.68 103.41 160.5 544.7 345.61 826.66 335.09l49.734-1.8563-29.554-36.085c-46.471-56.739-63.55-113.95-56.928-173.32 5.2811-47.354 25.632-95.644 57.311-142.46 3.984 66.454 28.926 116.1 68.014 146.1 47.571 36.514 116.75 54.884 184.94 27.935s119.06-87.807 146.24-154.79c10.408-25.654 10.201-55.365-3.6309-81.145s-38.802-48.215-75.572-63.494c-73.754-30.646-123.1-73.992-158.66-169.42z" transform="translate(-.0000073564)" fill="#e97135"/><path id="path4210" fill="#e97135" d="m1862.7 430.11c-50.863 65.333-2.4179 114.52 61.619 74.751-36.725-3.337-72.327-8.1704-61.619-74.751z"/><ellipse id="path4428" style="color:#000000" d="m 743.81997,-38.214104 c 0,25.951116 -9.40876,46.9886516 -21.01504,46.9886516 -11.60628,0 -21.01503,-21.0375356 -21.01503,-46.9886516 0,-25.951115 9.40875,-46.988651 21.01503,-46.988651 11.60628,0 21.01504,21.037536 21.01504,46.988651 z" rx="21.015" ry="46.989" transform="matrix(.99970 .024314 -.010696 .99994 0 0)" cy="-38.214" cx="722.8" fill="#fff"/><ellipse id="path4430" style="color:#000000" d="m 740.62689,194.58136 c 0,23.19596 -10.29745,42 -23,42 -12.70255,0 -23,-18.80404 -23,-42 0,-23.19596 10.29745,-42 23,-42 12.70255,0 23,18.80404 23,42 z" rx="23" ry="42" transform="matrix(.99361 -.11284 .11284 .99361 0 0)" cy="194.58" cx="717.63" fill="#fff"/><ellipse id="path4432" style="color:#000000" d="m 670,84.362183 c 0,22.091387 -10.74517,39.999997 -24,39.999997 -13.25483,0 -24,-17.90861 -24,-39.999997 0,-22.09139 10.74517,-40 24,-40 13.25483,0 24,17.90861 24,40 z" rx="24" ry="40" cy="84.362" cx="646" fill="#fff"/></g><g transform="translate(2775.2 2289.3)"><path id="path4246" clip-path="url(#clipPath4290)" fill="#fff" d="m1920-319.07 288.57 71.429-197.14 668.57-197.14-57.143c-8.4-239.71-19.7-480.25 105.6-682.86z"/><path id="path4244" clip-path="url(#clipPath4278)" fill="#fff" d="m1554.3-276.21c-204.9-257.9-416.2-261.1-628.59-225.71-110.12 224.76-110.56 449.52-45.71 674.28 137.4 279.26 321.1 264.95 502.9 262.86 259.8-140.01 276.3-396.64 171.4-711.43z"/><ellipse id="path4234" style="color:#000000" d="m 1284.2623,-423.39111 c 0,194.81745 -128.0146,352.748196 -285.92856,352.748196 -157.91397,0 -285.92853,-157.930746 -285.92853,-352.748196 0,-194.81745 128.01456,-352.7482 285.92853,-352.7482 157.91396,0 285.92856,157.93075 285.92856,352.7482 z" clip-path="url(#clipPath4274)" rx="285.93" ry="352.75" transform="matrix(.97999 .19903 -.22994 .97321 0 0)" cy="-423.39" cx="998.33" fill="url(#linearGradient4330)"/><ellipse id="path4236" style="color:#000000" d="m 2000.3241,-668.00922 c 0,165.29319 -59.0116,299.2898 -131.806,299.2898 -72.7945,0 -131.806,-133.99661 -131.806,-299.2898 0,-165.29319 59.0115,-299.28979 131.806,-299.28979 72.7944,0 131.806,133.9966 131.806,299.28979 z" clip-path="url(#clipPath4286)" rx="131.81" ry="299.29" transform="matrix(.95619 .29276 -.21887 .97575 0 0)" cy="-668.01" cx="1868.5" fill="url(#linearGradient4346)"/><path id="path4296" clip-path="url(#clipPath4320)" fill="#d1ecc9" d="m1107.1-7.6378 72.9 141.43 114.3-92.856-122.9-88.572z"/><path id="path4298" clip-path="url(#clipPath4316)" fill="#7dd967" d="m1152.9-36.209 111.43 100 61.429-97.143-137.14-40z"/><path id="path4304" clip-path="url(#clipPath4336)" fill="#d1ecc9" d="m1941.4 35.219 45.714 107.14 51.429-104.29-80-42.857z"/><path id="path4306" clip-path="url(#clipPath4332)" fill="#7dd967" d="m1952.9 3.7908 75.714 51.429 27.143-72.857-81.429-24.286z"/><ellipse id="path4240" style="color:#000000" d="m 1164.2366,-524.42896 c 0,166.14812 -99.0541,300.83777 -221.2435,300.83777 -122.18938,0 -221.24345,-134.68965 -221.24345,-300.83777 0,-166.14811 99.05407,-300.83776 221.24345,-300.83776 122.1894,0 221.2435,134.68965 221.2435,300.83776 z" clip-path="url(#clipPath4270)" rx="221.24" ry="300.84" transform="matrix(.96114 .27605 -.31542 .94895 0 0)" cy="-524.43" cx="942.99"/><ellipse id="path4242" style="color:#000000" d="m 700.86171,-847.56219 c 0,89.29188 -49.27749,161.67726 -110.06435,161.67726 -60.78686,0 -110.06434,-72.38538 -110.06434,-161.67726 0,-89.29189 49.27748,-161.67731 110.06434,-161.67731 60.78686,0 110.06435,72.38542 110.06435,161.67731 z" clip-path="url(#clipPath4266)" rx="110.06" ry="161.68" transform="matrix(.86195 .50699 -.63971 .76862 0 0)" cy="-847.56" cx="590.8" fill="#fff"/><ellipse id="path4294" style="color:#000000" d="m 1032.1198,414.78235 c 0,22.48588 -24.3046,40.71429 -54.28575,40.71429 -29.98118,0 -54.28572,-18.22841 -54.28572,-40.71429 0,-22.48588 24.30454,-40.71429 54.28572,-40.71429 29.98115,0 54.28575,18.22841 54.28575,40.71429 z" rx="54.286" ry="40.714" transform="rotate(-29.306)" cy="414.78" cx="977.83" fill="#fff"/><ellipse id="path4238" style="color:#000000" d="m 1957.2149,-566.4057 c 0,122.63734 -40.1561,222.05455 -89.6911,222.05455 -49.535,0 -89.6911,-99.41721 -89.6911,-222.05455 0,-122.63734 40.1561,-222.05455 89.6911,-222.05455 49.535,0 89.6911,99.41721 89.6911,222.05455 z" clip-path="url(#clipPath4282)" rx="89.691" ry="222.05" transform="matrix(.97236 .23348 -.19891 .98002 0 0)" cy="-566.41" cx="1867.5"/><ellipse id="path4300" style="color:#000000" d="m 1728.2342,-896.42633 c 0,16.96303 -8.6345,30.71428 -19.2857,30.71428 -10.6512,0 -19.2857,-13.75125 -19.2857,-30.71428 0,-16.96303 8.6345,-30.71429 19.2857,-30.71429 10.6512,0 19.2857,13.75126 19.2857,30.71429 z" rx="19.286" ry="30.714" transform="rotate(26.371)" cy="-896.43" cx="1708.9" fill="#fff"/><ellipse id="path4302" style="color:#000000" d="m 1709.1712,-995.77325 c 0,22.09139 -10.5533,40 -23.5715,40 -13.0181,0 -23.5714,-17.90861 -23.5714,-40 0,-22.09135 10.5533,-40.00005 23.5714,-40.00005 13.0182,0 23.5715,17.9087 23.5715,40.00005 z" rx="23.571" ry="40" transform="matrix(.90452 .42642 -.42642 .90452 0 0)" cy="-995.77" cx="1685.6" fill="#fff"/></g><g opacity=".5" transform="translate(2775.2 2289.3)" stroke="#f00" stroke-width="1px" display="none" fill="#0f0"><ellipse id="path4219" style="color:#000000" d="m 1494.9287,412.28442 c 0,252.51483 -148.9604,457.21854 -332.7123,457.21854 -183.75187,0 -332.71222,-204.70371 -332.71222,-457.21854 0,-252.51482 148.96035,-457.218533 332.71222,-457.218533 183.7519,0 332.7123,204.703713 332.7123,457.218533 z" rx="332.71" ry="457.22" transform="matrix(.93120 -.36450 .34453 .93878 0 0)" cy="412.28" cx="1162.2" display="inline"/><path id="path4221" d="m1971.4-276.21c-86.966 121.42-105.73 292.43-109.72 474.2 13.08 81.141 62.937 136.54 129.72 180.09 100.83-171.49 126.81-380.41 137.14-597.14z"/></g><g transform="translate(2775.2 2289.3)"><path id="path4366" d="m1941.4-233.35c-92.221 125.1-102.48 375.66-66.429 487.86-16.44-131.57 3.9923-352.49 75-472.14z"/><path id="path4197-3" fill="#e97135" d="m1861.7 197.99c7.295 101.71 55.623 176.23 138.32 214 29.661 13.549 45.633 28.844 52.734 42.08 7.1015 13.236 7.2842 25.064 1.4043 39.557l45.404 18.422c10.408-25.654 10.201-55.365-3.6309-81.145s-38.802-48.215-75.572-63.494c-73.754-30.646-123.1-73.992-158.66-169.42z"/><path id="path4364" d="m1994.3 378.08c88.3-173.65 118.8-370.37 131.4-574.29" stroke="#e97135" stroke-width="29" fill="none"/><path id="path4368" d="m1134.9-502.38c-42.001 0.88332-81.887 10.758-117.89 29.441-79.276 41.134-138.78 123.4-161.89 240.21-61.477 1.178-98.741-42.897-121.73-91.535 1.0065 55.362 65.696 131.67 137.35 124.75l13.09-1.127 2.209-12.953c19.795-116.08 75.144-192.08 146.63-229.17 71.488-37.093 161.45-35.394 255.61 12.289 136.49 69.122 213.53 184.13 246.46 309.29 32.931 125.15 33.707 235.75-7.066 373.52 65.227-134.23 74.917-249.26 39.947-382.17-34.97-132.9-118.46-257.28-263.98-330.97-57.238-28.986-114.73-42.714-168.73-41.578z"/><path id="path4374" d="m758.87-465.3c-7.4924 70.068 52.748 140.83 131.71 162.08l8.8359-32.832c-67.41-18.15-125.05-59.32-140.55-129.25z"/><path id="path4380" d="m943.55-394.23 20.902-26.818c-53.916-40.364-89.645-96.441-80.549-169.96-36.904 71.485 1.1884 150.71 59.647 196.77z"/></g><g transform="translate(2775.2 2289.3)"><path id="path4397" d="m500-451.64c-73.143 237.9-15.073 432.62 100 592 171.85 238.01 288.59 470.72 148.69 760l-270.26 145.84c-436.58-0.9-578.64-347.48-380.77-597.84 106.39-134.62 143.1-283.12 158.34-444 18.4-194.2 85.84-377.07 212-540z" stroke="#F4DD6C" stroke-width="49" fill="#FFFAAB"/><path id="path4399" d="m544 990.36c-332.28-8.3-571.67-240.19-408-582" stroke="#F4DD6C" stroke-width="29" fill="none"/><path id="path4401" d="m262-57.638c51.621 153.16 56.43 315.53 28 456-41.182 203.48-8.3868 418.13 206 482" stroke="#F4DD6C" stroke-width="29" fill="none"/><path id="path4403" fill="#ea403f" d="m460 960.36c-48.29-160.23 103.33-238.66 218-106z"/><path id="path4405" d="m840 858.36c-189.24-39.65-405.85 71.7-424 226.04-11.606 98.657-1.3531 181.56 42 262-72.586-28.829-139.31-67.372-198-134 38.153 278.69 352.43 471.95 628 238 10.061 60.667 3.6755 111.33-10 172 184.68-71.761 271.79-197.93 238-432 63.86 66 97.088 132 124 198 20.095-204.63-44.732-455.56-400-530z" stroke="#F4DD6C" stroke-miterlimit="9" stroke-width="49" fill="#FFFAAB"/><path id="path4407" d="m418 1096.4c55.901 172.1 194.26 223.45 336 212-54.799 172.12-218.95 197.65-386 118" stroke="#F4DD6C" stroke-width="29" fill="none"/><path id="path4393-2" fill="#FFFAAB" d="m2209-930.37c-18.441 290.67 103.82 578.5 497.8 463.86-357.81 507.22-858.67 380.11-1134.2-70.711l14.142 141.42c-73.587-117.52-149.11-234.4-200.82-359.21-16.141 71.653-27.191 143.31-28.284 214.96-113.17-178.16-254.53-328.13-494.97-379.01l-70.7-316.54c421.3-485.1 1324.3-440.1 1536 275.96 16.463 100.19 50.112 228.07-119 29.273z"/><path id="path4387" fill="#F4DD6C" d="m1551.4-1576.6c-272.92 0.632-557.86 126.21-782.04 339.97l33.812 35.463c238.44-227.35 547.61-349.41 827.83-322.8 280.22 26.616 533.23 198.61 668.06 570.8 17.495 48.291 31.551 89.282 24.041 92.857-10.095 4.8058-160-141.29-232.53-238.53 45.472 109.76 112.81 234.54 210.57 287.67 13.43 7.2989 28.352 12.725 45.291 6.2168 16.939-6.5078 24.802-24.499 26.32-39.621 3.0361-30.245-6.9754-68.299-27.621-125.29-139.95-386.31-411.96-574.63-709.5-602.89-27.895-2.6495-55.998-3.9209-84.23-3.8555z"/><path id="path4393" d="m2209-930.37c-18.441 290.67 103.82 578.5 497.8 463.86-357.81 507.22-858.67 380.11-1134.2-70.711l14.142 141.42c-73.587-117.52-149.11-234.4-200.82-359.21-9.3075 78.487-18.967 151.53-28.284 214.96-113.17-178.16-254.53-328.13-494.97-379.01" stroke="#F4DD6C" stroke-miterlimit="9" stroke-width="49" fill="none"/><path id="path4395" d="m1572.6-537.21c330.38 459.52 852.63 472.34 1134.2 70.711" stroke="#F4DD6C" stroke-width="49" fill="none"/><path id="path4409" d="m2070.4-183.66c-133.6-150.14-253.4-369.13-342.2-585.48-119.98-292.18-226.43-572.75-848.53-545.89" stroke="#F4DD6C" stroke-width="29" fill="none"/><path id="path4411" d="m1114.4-1442.3c467.6-22.583 812.07 287.01 865.5 639.22 52.73 347.62 211.33 537.91 500.63 554.37" stroke="#F4DD6C" stroke-width="29" fill="none"/></g><g transform="translate(2775.2 2289.3)"><path id="path4443" fill="#faba61" d="m992-835.64c-5.7441-175.49-42.114-364.72-174-536-54.913-78.677-97.195-37.352-142-20-382.35 415.33-289.62 971.72-124 1106z"/><path id="path4435" fill="#e97135" d="m755.55-1444.6c-42.728 2.0363-78.102 34.059-129.16 85.119-122.56 122.56-209.06 308.16-233.64 506.26-24.582 198.11 7.3593 455.61 163.36 568.68-122-148.93-138.04-374.86-114.74-562.65 23.301-187.78 106.54-364.53 219.66-477.65 49.267-49.267 82.355-70.134 96.848-70.824 7.2463-0.3454 12.482 1.3192 22.033 10.307 9.5511 8.9874 21.386 25.575 34.629 49.574 84.781 153.64 164.65 323.99 174.9 504.5 36.248-181.49-45.976-372.29-132-528.17-14.437-26.163-27.937-46.515-43.953-61.586s-36.579-24.583-57.943-23.564z"/><path id="path4441" fill="#e97135" d="m666-1099.6c-43.638 167.31-42.02 361.45-20 520-69.803-145.44-62.902-358.48 20-520z"/></g></svg>