<?xml version="1.0" encoding="UTF-8"?><svg xmlns="http://www.w3.org/2000/svg" viewBox="0 0 5855.3 5855.3" version="1.1" xmlns:xlink="http://www.w3.org/1999/xlink"><defs id="defs4"><linearGradient id="linearGradient5061"><stop id="stop5063" stop-color="#bf187d" offset="0"/><stop id="stop5065" stop-color="#570b3a" offset="1"/></linearGradient><linearGradient id="linearGradient5067" y2="1493.5" xlink:href="#linearGradient5061" gradientUnits="userSpaceOnUse" x2="776.82" y1="2038.6" x1="776.82"/><linearGradient id="linearGradient5069" y2="1538.7" xlink:href="#linearGradient5061" gradientUnits="userSpaceOnUse" x2="1407.7" y1="2197.6" x1="1672.2"/><clipPath id="clipPath5104" clipPathUnits="userSpaceOnUse"><path id="path5106" d="m805.72 1100.8c-237.28 361.05-178.69 879.38-77.786 960.28 276.79-136.77 203.03-631.78 77.786-960.28z" fill="#0f0"/></clipPath><clipPath id="clipPath5108" clipPathUnits="userSpaceOnUse"><path id="path5110" d="m744.62 1102.6c-210.29 374.42-114.03 883.02-7.4875 955.76 262.33-147.94 156.37-639.81 7.4875-955.76z" fill="#0f0"/></clipPath><clipPath id="clipPath5112" clipPathUnits="userSpaceOnUse"><path id="path5114" d="m758.74 1093.2c-210.29 377.41-114.03 890.08-7.4875 963.39 257.33-170.33 156.37-644.92 7.4875-963.39z" fill="#0f0"/></clipPath><clipPath id="clipPath5120" clipPathUnits="userSpaceOnUse"><path id="path5122" d="m1901.8 1588.6a364.39 502.91 0 1 1 -728.79 0 364.39 502.91 0 1 1 728.79 0z" transform="matrix(.95117 .41580 -.42428 .93215 832.7 -371)" fill="#0f0"/></clipPath><clipPath id="clipPath5124" clipPathUnits="userSpaceOnUse"><path id="path5126" d="m1901.8 1588.6a364.39 502.91 0 1 1 -728.79 0 364.39 502.91 0 1 1 728.79 0z" transform="matrix(.95117 .41580 -.42428 .93215 769.17 -413.91)" fill="#0f0"/></clipPath><clipPath id="clipPath5120-7" clipPathUnits="userSpaceOnUse"><path id="path5122-7" d="m1901.8 1588.6a364.39 502.91 0 1 1 -728.79 0 364.39 502.91 0 1 1 728.79 0z" transform="matrix(.95117 .41580 -.42428 .93215 832.7 -371)" fill="#0f0"/></clipPath><clipPath id="clipPath5168" clipPathUnits="userSpaceOnUse"><path id="path5170" d="m1854.4 1833.2a310.73 438.02 0 1 1 -621.46 0 310.73 438.02 0 1 1 621.46 0z" clip-path="url(#clipPath5120-7)" fill-rule="evenodd" transform="translate(-.000029395 -18.202)" fill="#0f0"/></clipPath><clipPath id="clipPath5172" clipPathUnits="userSpaceOnUse"><path id="path5174" d="m1854.4 1833.2a310.73 438.02 0 1 1 -621.46 0 310.73 438.02 0 1 1 621.46 0z" clip-path="url(#clipPath5120-7)" fill-rule="evenodd" transform="translate(-.000029395 -18.202)" fill="#0f0"/></clipPath><clipPath id="clipPath5201" clipPathUnits="userSpaceOnUse"><path id="path5203" d="m1901.8 1588.6a364.39 502.91 0 1 1 -728.79 0 364.39 502.91 0 1 1 728.79 0z" transform="matrix(.89921 .41087 -.40111 .92110 853.45 -361.64)" fill="#0f0"/></clipPath><mask id="mask5252" maskUnits="userSpaceOnUse"><path id="path5254" fill="#fff" d="m732.53 1095.6c-366.06 108.4-441.38 215.7-103.22 286.9l40.625 5.5624c14.693-107.03 45.42-203.06 95.031-267.34z"/></mask><mask id="mask5256" maskUnits="userSpaceOnUse"><path id="path5258" fill="#fff" d="m732.53 1095.6c-366.06 108.4-441.38 215.7-103.22 286.9l40.625 5.5624c14.693-107.03 45.42-203.06 95.031-267.34z"/></mask></defs><g display="none" transform="translate(-113.46 -123.77)"><rect id="rect5342" style="color:#000000" display="inline" height="6e3" width="6e3" stroke="#0f0" y="9.9834" x="9.9834"/></g><g transform="translate(-113.46 -123.77)" stroke="#c234e1" stroke-width="54" fill="#db78f3"><path id="path3765" d="m3473.2 2795.1c501.16 262.14 320.05 985.25 172.35 1340.4 109.34-8.4472 124.17 62.911 166.5 142.04 207.66 388.23 295.58 811 268.25 1291.9-7.4242 130.65-51.237 163.34-127.07 183.54-161.44 43.011-324.56 80.653-487.09 56.474-86.791-12.911-138.56-49.135-35.296-148.25 108.49-104.12 6.6907-994.76-162.36-1694.2 2.9087-415.74 30.834-821.86 204.72-1171.8z"/><path id="path3769" d="m2635.6 3963.4c137.56 341.96 288.53 1398.7 288.53 1500.3 0 149.9-100.08 153.37-137.06 158.9-206.47 30.888-359.45 16.793-565.77-5.5973-205.5-6.8394 139.77-1151.1 74.875-1683.6z"/></g><g transform="translate(-113.46 -123.77)"><path id="path4354" d="m3414.3 2735.4c-294.96-96.574-634.06 108.9-921.39 221.45l-66.96-1070-1068.2 529.12c96.888 125.85 155.24 325.86 120.41 472.25-148.95 625.85 111.51 1101.8 477.38 1165.1 371.73 131.64 817.33 84.472 1169.3 129.68" stroke="#c234e1" stroke-width="54" fill="#e698f9"/></g><g transform="translate(-113.46 -123.77)"><path id="path4441" fill="#e698f9" d="m1812 3793.7c139.93 298.19 343.89 348.52 562.6 366.71 109.08 457.81 136.05 944.83 66.354 1440.3 12.767 159.63-71.392 215.4-189.68 234.61l-608.98 9.9834c-124.98-49.242-121.74-145.11-39.933-269.55 154.65-342.94 275.59-753.3 234.61-1487.5z"/><path id="path4443" fill="#e698f9" d="m3397.6 2782.3c30.215 64.337 56.54 129.05 78.843 194.08 172.44 375.33 121.52 828.12-87.935 1244.6 54.121-1.3007 108.24 9.2848 162.36 112.95 150.61 425.57 253.54 871.57 218.84 1376.6-33.077 133.85-94.421 158.26-148.25 211.78-228.25 29.079-456.5 49.616-684.75 0-137.17-27.583-62.783-111.58-7.0593-190.6 179.98-374.89 211.7-763.27 98.83-1164.8-111.59-263.21-293.54-502.98-331.79-790.64l-49.415-345.91z"/><path id="path4357" d="m2640.2 3409.2c6.9566 270.03 80.179 553.11 198.52 757.06 331.2 570.79 332.37 1115 48.559 1614.9-69.634 122.65-2.5078 138.34 63.534 148.25 226.49 33.956 441.59 26.173 614.16 0 109.99-16.682 186.09-122.69 190.6-232.96 19.216-469.2-29.293-929.21-218.84-1376.6-35.136-82.926-91.676-89.609-155.3-98.83 77.037-183.98 146.75-368.48 181.29-555.49" stroke="#c234e1" stroke-width="54" fill="none"/><path id="path4359" d="m1826.4 3983.7c1.5169 14.391 2.9492 28.74 4.298 43.045 65.772 697.53-66.796 1290.8-252.96 1613.3-47.565 82.385-37.247 176.8 35.297 194.13 135.39 32.345 461.25 38.928 670.99 1.2111 60.37-10.856 138.84-92.007 148.25-155.3 60.913-409.77 62.7-1038.1-60.359-1557.8" stroke="#c234e1" stroke-width="54" fill="none"/><path id="path4357-1" fill="#c234e1" d="m3472.5 2966.3c82.438 210.66 103.64 459.64 67.464 672.88-4.2476 25.039-9.1759 50.058-14.688 75.063l52.75 11.625c5.6896-25.812 10.752-51.696 15.156-77.656 37.505-221.09 12.187-606.67-120.68-681.91z"/><path id="path4359-7" fill="#c234e1" d="m1817.8 3776.8c-35.568 49.616-25.127 144.23-18.227 209.69 1.5065 14.293 2.9417 28.544 4.2813 42.75l53.75-5.0938c-1.3581-14.404-2.7853-28.854-4.3126-43.344-6.9957-66.368-15.808-147.73-35.492-204z"/></g><g transform="translate(-113.46 -123.77)"><g id="g3926" transform="matrix(.22377 .0048815 -.0048815 .22377 2297.1 2640.3)"><path id="path3838" stroke-linejoin="round" d="m3505.2 2675.5c-7.3265-345.34-76.991-692.01-158.39-1038.9 54.683-23.49 109.37-22.603 164.05 45.255 52.641 336.88 69.944 673.76 50.912 1010.6z" stroke="#7a198d" stroke-width="41" fill="#b43ae1"/><path id="path3803" d="m2125 3899.3c-99.443 314.34-157.76 763.79-25.456 1015.4 86.633 164.77 243.39 262.03 347.9 359.21 64.866 60.315 103.62 148.38 130.11 217.79 42.574 111.58 139.85 68.28 169.71-2.8284 98.877-235.5 110.83-476.88 158.39-715.59 64.989-326.2 123.71-763.05 11.314-998.43-77.392-162.08-235.63-202.47-379.01-181.02z" stroke="#a61357" stroke-width="41" fill="#fd022a"/><path id="path3781" style="color:#000000" d="m1233.3 2455.9c0 38.762-16.46 70.185-36.764 70.185s-36.764-31.423-36.764-70.185 16.46-70.185 36.764-70.185 36.764 31.423 36.764 70.185z" fill-rule="evenodd" transform="matrix(.98255 -.18598 .18598 .98255 1176.6 1733.7)" fill="#fff"/><path id="path3783" style="color:#000000" d="m1316.8 2872c0 30.456-13.467 55.146-30.079 55.146s-30.079-24.69-30.079-55.146 13.467-55.146 30.079-55.146 30.079 24.69 30.079 55.146z" fill-rule="evenodd" transform="matrix(.99295 -.11856 .11856 .99295 1284.4 1621.1)" fill="#fff"/><path id="path3785" style="color:#000000" d="m945.83 2821.9c0 30.456-14.963 55.146-33.422 55.146-18.458 0-33.422-24.69-33.422-55.146s14.963-55.146 33.422-55.146c18.458 0 33.422 24.69 33.422 55.146z" fill-rule="evenodd" transform="matrix(.98328 -.18211 .18211 .98328 1117.2 1668.3)" fill="#fff"/><path id="path3787" style="color:#000000" d="m1133 3182.8c0 30.456-14.963 55.146-33.422 55.146-18.458 0-33.422-24.69-33.422-55.146s14.963-55.146 33.422-55.146c18.458 0 33.422 24.69 33.422 55.146z" fill-rule="evenodd" transform="matrix(.98441 .17587 -.17587 .98441 2192.8 1311.2)" fill="#fff"/><path id="path3789" style="color:#000000" d="m882.33 3151.1c0 35.07-13.467 63.501-30.079 63.501s-30.079-28.43-30.079-63.501 13.467-63.501 30.079-63.501 30.079 28.43 30.079 63.501z" fill-rule="evenodd" transform="matrix(.99070 -.13607 .13607 .99070 1195 1590.2)" fill="#fff"/><path id="path3791" style="color:#000000" d="m658.4 3157.8c0 27.687-16.46 50.132-36.764 50.132s-36.764-22.445-36.764-50.132 16.46-50.132 36.764-50.132 36.764 22.445 36.764 50.132z" fill-rule="evenodd" transform="translate(1622.5 1451.6)" fill="#fff"/><path id="path3793-1" style="color:#000000" d="m788.75 3430.2c0 34.148-16.46 61.83-36.764 61.83s-36.764-27.682-36.764-61.83 16.46-61.83 36.764-61.83 36.764 27.682 36.764 61.83z" fill-rule="evenodd" transform="matrix(.89887 .43821 -.43821 .89887 3198.4 1452.3)" fill="#fff"/><path id="path3795" style="color:#000000" d="m939.14 3540.5c0 32.302-13.467 58.488-30.079 58.488s-30.079-26.186-30.079-58.488 13.467-58.488 30.079-58.488 30.079 26.186 30.079 58.488z" fill-rule="evenodd" transform="translate(1607.9 1451)" fill="#fff"/><path id="path3797" style="color:#000000" d="m1080 3752c0 30.928-12.536 56-28 56s-28-25.072-28-56 12.536-56 28-56 28 25.072 28 56z" fill-rule="evenodd" transform="translate(1615.9 1447)" fill="#fff"/><path id="path3801" d="m2511.9 3739c91.632-91.034 169.66-195.67 240-308-98.315-16.278-173.53 36.738-240 116-22.965-113.15 2.555-255.4 32-400-116.8 130.34-162.66 276.45-184 428l-116 104c-202.41 141.91-264.86 403.27-276 596 48.885-85.483 80.482-172.73 160-248-43.566 147.76-24.213 281.53 28 408 45.011-136.5 85.045-273.83 192-400 113.33-51.176 230.67-28.382 340 28-11.27-106.53-43.226-225.66-176-324z" stroke="#337e10" stroke-miterlimit="7" stroke-width="41" fill="#4dc42e"/><path id="path3799" stroke-linejoin="round" d="m2403.9 3855c10.187 46.235-62.124 61.958-96 8-130.04-207.13-207.72-430.65-184-680l272-80c-44.661 254.65-45.534 509.04 8 752z" stroke="#337e10" stroke-width="41" fill="#4dc42e"/><path id="path3822" style="color:#000000" d="m1974.2 2008.8c0 178.08-108.9 322.44-243.24 322.44s-243.24-144.36-243.24-322.44 108.9-322.44 243.24-322.44 243.24 144.36 243.24 322.44z" fill-rule="evenodd" transform="matrix(1.1337 0 0 1 1394.3 1438)" stroke="#7a198d" stroke-width=".93918px" fill="#b43ae1"/><path id="path3836" style="color:#000000" d="m1906.4 1946.6c0 109.35-45.588 197.99-101.82 197.99-56.236 0-101.82-88.643-101.82-197.99s45.588-197.99 101.82-197.99c56.236 0 101.82 88.643 101.82 197.99z" fill-rule="evenodd" transform="translate(1627.2 1449.3)" stroke="#7a198d" stroke-width="41" fill="#b43ae1"/><path id="path3806" style="color:#000000" d="m1798.9 3875.5c0 162.46-75.98 294.16-169.71 294.16-93.726 0-169.71-131.7-169.71-294.16s75.98-294.16 169.71-294.16c93.726 0 169.71 131.7 169.71 294.16z" fill-rule="evenodd" transform="matrix(.99874 .050141 -.050141 .99874 1806.6 1349.9)" stroke="#7a198d" stroke-width="41" fill="#b43ae1"/><path id="path3810" style="color:#000000" d="m1544.3 3632.3c0 153.09-51.92 277.19-115.97 277.19-64.046 0-115.97-124.1-115.97-277.19s51.92-277.19 115.97-277.19c64.046 0 115.97 124.1 115.97 277.19z" fill-rule="evenodd" transform="matrix(.89140 .23397 -.18779 1.1107 2419.1 727.32)" stroke="#7a198d" stroke-width="40.321" fill="#b43ae1"/><path id="path3812" style="color:#000000" d="m1674.4 3086.4c0 151.52-77.246 274.36-172.53 274.36-95.288 0-172.53-122.83-172.53-274.36 0-151.52 77.246-274.36 172.53-274.36 95.288 0 172.53 122.83 172.53 274.36z" fill-rule="evenodd" transform="matrix(1.0943 .38667 -.37445 1.1577 2624.3 288.5)" stroke="#7a198d" stroke-width="34.508" fill="#b43ae1"/><path id="path3814" style="color:#000000" d="m1776.3 3309.9c0 165.58-68.382 299.81-152.74 299.81-84.353 0-152.74-134.23-152.74-299.81s68.382-299.81 152.74-299.81c84.353 0 152.74 134.23 152.74 299.81z" fill-rule="evenodd" transform="matrix(.91833 .11838 -.11893 .92259 2289.2 915.4)" stroke="#7a198d" stroke-width="44.178" fill="#b43ae1"/><path id="path3816" style="color:#000000" d="m1742.3 3326.8c0 165.58-77.246 299.81-172.53 299.81-95.288 0-172.53-134.23-172.53-299.81s77.246-299.81 172.53-299.81c95.288 0 172.53 134.23 172.53 299.81z" fill-rule="evenodd" transform="matrix(.82413 .39876 -.37853 .96679 3248.8 904.15)" stroke="#7a198d" stroke-width="42.116" fill="#b43ae1"/><path id="path3818" style="color:#000000" d="m1634.8 2489.6c0 146.84-74.713 265.87-166.88 265.87-92.164 0-166.88-119.04-166.88-265.87 0-146.84 74.714-265.87 166.88-265.87 92.164 0 166.88 119.04 166.88 265.87z" fill-rule="evenodd" transform="matrix(1.1553 0 0 1.1489 1396.9 993.66)" stroke="#7a198d" stroke-width="35.587" fill="#b43ae1"/><path id="path3820" style="color:#000000" d="m1810.2 2365.2c0 146.84-53.186 265.87-118.79 265.87-65.608 0-118.79-119.04-118.79-265.87 0-146.84 53.186-265.87 118.79-265.87 65.608 0 118.79 119.04 118.79 265.87z" fill-rule="evenodd" transform="translate(1604.5 1426.7)" stroke="#7a198d" stroke-width="41" fill="#b43ae1"/><path id="path3826" style="color:#000000" d="m2127 2319.9c0 153.09-79.779 277.19-178.19 277.19-98.412 0-178.19-124.1-178.19-277.19s79.779-277.19 178.19-277.19c98.412 0 178.19 124.1 178.19 277.19z" fill-rule="evenodd" transform="matrix(1.0336 -.13602 .13621 1.0321 1242.1 1628.6)" stroke="#7a198d" stroke-width="39.356" fill="#b43ae1"/><path id="path3828" style="color:#000000" d="m2370.2 1892.8c0 173.39-82.311 313.96-183.85 313.96s-183.85-140.56-183.85-313.96c0-173.39 82.312-313.96 183.85-313.96s183.85 140.56 183.85 313.96z" fill-rule="evenodd" transform="matrix(.99792 -.067445 .064533 1.0429 1464.3 1484.4)" stroke="#7a198d" stroke-width="40.105" fill="#b43ae1"/><path id="path3830" style="color:#000000" d="m1770.6 1358.2c0 209.32-68.382 379.01-152.74 379.01-84.353 0-152.74-169.69-152.74-379.01s68.382-379.01 152.74-379.01c84.353 0 152.74 169.69 152.74 379.01z" fill-rule="evenodd" transform="matrix(.97904 -.077483 .072801 1.042 1548.1 1506.3)" stroke="#7a198d" stroke-width="40.481" fill="#b43ae1"/><path id="path3832" style="color:#000000" d="m1595.2 1864.5c0 142.15-68.382 257.39-152.74 257.39-84.353 0-152.74-115.24-152.74-257.39s68.382-257.39 152.74-257.39c84.353 0 152.74 115.24 152.74 257.39z" fill-rule="evenodd" transform="matrix(1 0 0 1.1538 1593.2 1134.2)" stroke="#7a198d" stroke-width="38.169" fill="#b43ae1"/><path id="path3834" style="color:#000000" d="m2076.1 1598.7c0 220.26-88.643 398.81-197.99 398.81s-197.99-178.55-197.99-398.81 88.643-398.81 197.99-398.81 197.99 178.55 197.99 398.81z" fill-rule="evenodd" transform="matrix(.83975 -.084074 .086623 1.0169 1809.3 1543.3)" stroke="#7a198d" stroke-width="44.179" fill="#b43ae1"/></g></g><g transform="translate(-113.46 -123.77)"><path id="path3793" d="m3349 2813.1c34.444-495.63 302.17-833.54 621.97-980.43 238.08-109.36 569.32-91.189 507.41 93.465 958.36 45.482 1207.4 693.55 1245.8 1211.5 9.908 133.58-65.961 324.38-154.44 354.22-1.7072 377.1-76.322 761.22 177.66 1131.3 167.18 243.6-149.59 540.33-355.31 169.69 55.571 205.91-353.89 448.86-520.64-419.01-21.932 85.677-362.01 435.79-278.82-518.07-321.53 26.829-65.227-466.82-113.05-719.46-83.423-440.65-273.23-709.61-702.56-468.68-109.92 61.688-154.38 148.69-226.11 226.26-39.41 42.615-215.35 112.97-201.88-80.807z" stroke="#7f2660" stroke-miterlimit="7" stroke-width="54" fill="#b93689"/><path id="path4325" fill="#7f2660" d="m5042.3 2268.2c58.985 45.988 119.31 152.99 115.52 233.74-1.5743 33.586-13.165 54.057-50 64.5s-128.46 23.933-215.42-30.944c49.07 104.86 173.81 98.881 230.14 82.913 56.322-15.968 89.197-63.676 89.188-113.28-0.02-104.69-78.666-234.24-169.43-236.92z"/><path id="path4331" fill="#7f2660" d="m4934.5 3148.4c35.016 97.532 66.984 229.65 39.354 281.61-13.815 25.979-28.94 36.912-57.875 32.937-28.935-3.9741-75.479-29.66-133.91-94.187l-59.656-65.875 12.938 87.937c10.496 71.314-7.1302 240.36-55.875 348.16-21.543 47.642-68.525 82.054-112.09 88.594-43.569 6.5398-82.535-7.9246-106.19-69.562l-50.438 19.344c30.816 80.305 100.49 113.26 164.66 103.62 64.164-9.6311 123.99-54.968 153.28-119.75 42.434-93.842 62.951-214.58 64.062-306.12 41.953 36.548 79.961 56.384 115.84 61.312 49.808 6.8411 91.831-21.34 112.94-61.031 42.213-79.382-18.48-275.98-87.042-306.98z"/><path id="path4339" fill="#7f2660" d="m5674.4 3300c-3.3709 12.607-15.684 45.143-33.687 77.156s-42.345 64.305-66.781 81.344c-24.437 17.039-43.878 21.838-72.906 4.3125-29.028-17.525-101.47-123.31-122.72-171.31-5.0282 102.99 48.99 189.9 94.813 217.56 45.822 27.664 95.82 18.728 131.69-6.2813 35.868-25.009 62.683-63.084 82.969-99.156s33.381-69.341 38.813-89.656z"/><path id="path4345" fill="#7f2660" d="m4246.6 1742.9c-20.891-0.3224-42.846 0.2668-65.812 1.875l3.7812 53.875c85.943-6.0179 154.96 3.6525 201.69 20.562 46.728 16.91 67.666 40.537 70.531 55.562 1.4323 7.5126 0.3859 14.681-6.5938 24.906-6.9796 10.226-20.608 22.621-42.344 34.594-43.472 23.946-101 55.724-227.21 82.4 119.63 31.667 199.35-5.4197 253.27-35.119 26.958-14.849 47.396-31.69 60.875-51.437 13.479-19.748 19.285-43.289 15.062-65.438-8.4454-44.296-48.904-75.87-105.22-96.25-42.236-15.285-95.358-24.564-158.03-25.531z"/></g><g transform="translate(-113.46 -123.77)"><path id="path5025" fill="#e698f9" d="m763.73 983.36c-197.15 462.84-140.62 793.34-34.94 1098.1-44.108-8.5041-90.84 13.104-139.77 59.9 45.964 174.16 135.22 232.86 219.63 304.49 219.01 142.94 422.61 116.22 628.95 119.8l808.65-84.859 334.44-1038.3-554.08-479.2z"/><path id="path5015" fill="#c234e1" d="m684.19 2059.9c-60.764 10.637-98.394 42.99-109.22 82.188-10.824 39.197 2.0989 78.268 21.156 108.53 181.09 287.58 455.25 356.2 713.47 346.66 258.22-9.5422 595.37-113.29 628.13-182.66-194.9 82.413-383.94 119.62-630.13 128.72-246.19 9.0976-495.24-50.686-665.78-321.5-13.246-21.035-19.778-47.282-14.781-65.375 4.9963-18.093 18.445-34.968 66.469-43.375 55.382-9.6946 149.17-69.82 139.86-126.92-44.601 32.91-95.107 64.264-149.18 73.728z"/><path id="path5021" fill="#c234e1" d="m776.52 2406.8c55.307-22.809 238.29-93.808 351.2-30.002-168.14-4.9131-243.72 29.845-280.61 81.182z"/><path id="path5023" fill="#c234e1" d="m777.41 2204.7c77.469 30.967 76.138-3.4237 84.712-40.591 7.9511 21.431 14.858 56.402-7.9417 69.711-26.236 15.314-55.772-4.6532-76.77-29.12z"/></g><g transform="translate(-113.46 -123.77)"><path id="path5073" d="m751.82 1097.3c-211.94 321.5-79.058 967.9-14.119 981.24 238.68-7.7775 276.09-569.23 14.119-981.24z" clip-path="url(#clipPath5112)" fill="#fff"/><path id="path5071" d="m2022.5 1665.6c0 317.75-217.29 575.33-485.33 575.33s-485.33-257.59-485.33-575.33c0-317.75 217.29-575.33 485.33-575.33s485.33 257.59 485.33 575.33z" clip-path="url(#clipPath5124)" fill-rule="evenodd" transform="translate(63.534 24.708)" fill="#fff"/><path id="path5041" d="m1854.4 1833.2c0 241.91-139.12 438.02-310.73 438.02s-310.73-196.11-310.73-438.02 139.12-438.02 310.73-438.02 310.73 196.11 310.73 438.02z" clip-path="url(#clipPath5120)" fill-rule="evenodd" transform="translate(0 -18.202)" fill="url(#linearGradient5069)"/><path id="path5045" d="m917.71 1753.8c0 172.52-69.532 312.37-155.3 312.37-85.772 0-155.3-139.85-155.3-312.37s69.532-312.37 155.3-312.37c85.772 0 155.3 139.85 155.3 312.37z" clip-path="url(#clipPath5108)" fill-rule="evenodd" transform="matrix(1 0 0 1.008 14.119 -18.274)" fill="url(#linearGradient5067)"/><path id="path5047" d="m904.74 1777.7c0 134.05-56.151 242.72-125.42 242.72-69.265 0-125.42-108.67-125.42-242.72s56.151-242.72 125.42-242.72c69.265 0 125.42 108.67 125.42 242.72z" clip-path="url(#clipPath5104)" fill-rule="evenodd" transform="matrix(.99733 -.072990 .072990 .99733 -125.18 54.137)"/><path id="path5049" d="m863.56 1646c0 63.407-27.377 114.81-61.148 114.81s-61.148-51.402-61.148-114.81c0-63.407 27.377-114.81 61.148-114.81s61.148 51.402 61.148 114.81z" fill-rule="evenodd" transform="matrix(1.0604 -.35185 .35541 1.0498 -621.64 210.97)" fill="#fff"/><path id="path5051" d="m831.11 1886.9c0 20.676-13.409 37.438-29.95 37.438s-29.95-16.761-29.95-37.438c0-20.676 13.409-37.438 29.95-37.438s29.95 16.761 29.95 37.438z" fill-rule="evenodd" transform="matrix(.94067 -.33933 .33933 .94067 -592.73 380.06)" fill="#fff"/><path id="path5057" d="m1697.8 1909.1 180.01 8.8241-38.826 111.18-139.42-42.356z" clip-path="url(#clipPath5172)" fill="#df4ea3"/><path id="path5059" d="m1699.5 1981.5 142.95 45.885-68.828 105.89-97.065-74.123z" clip-path="url(#clipPath5168)" fill="#fcb4dd"/><path id="path5043" d="m1701.3 1864.1c0 203.22-88.891 367.97-198.54 367.97s-198.54-164.74-198.54-367.97c0-203.22 88.891-367.97 198.54-367.97s198.54 164.74 198.54 367.97z" clip-path="url(#clipPath5201)" fill-rule="evenodd" transform="matrix(1.0578 0 0 1.012 -70.06 -23.234)"/><path id="path5053" d="m1740.8 1687.2c0 103.38-43.859 187.19-97.962 187.19s-97.962-83.807-97.962-187.19 43.859-187.19 97.962-187.19 97.962 83.807 97.962 187.19z" fill-rule="evenodd" transform="matrix(1.2384 -.084729 .21957 .97540 -775.03 181.32)" fill="#fff"/><path id="path5055" d="m1558.7 1949.9c0 32.737-18.438 59.276-41.181 59.276-22.744 0-41.181-26.539-41.181-59.276s18.438-59.276 41.181-59.276c22.744 0 41.181 26.539 41.181 59.276z" fill-rule="evenodd" transform="matrix(.86048 -.50948 .50948 .86048 -787.95 1040.2)" fill="#fff"/></g><g transform="translate(-113.46 -123.77)" display="none" fill="#0f0"><path id="path5028" d="m758.74 1093.2c-210.29 377.41-114.03 890.08-7.4875 963.39 257.33-170.33 156.37-644.92 7.4875-963.39z"/><path id="path5030" d="m1901.8 1588.6c0 277.75-163.14 502.91-364.39 502.91s-364.39-225.16-364.39-502.91 163.14-502.91 364.39-502.91 364.39 225.16 364.39 502.91z" transform="matrix(.95117 .41580 -.42428 .93215 832.7 -389.21)"/></g><g transform="translate(-113.46 -123.77)"><path id="path5262" d="m820.64 1291.4c51.615 175.24 121.36 443.48 12.354 695.34 115.22-142.79 106.86-422.67 24.708-695.34z" stroke="#000" stroke-miterlimit="14"/><path id="path5015-2" fill="#c234e1" d="m693.5 2113.1c55.382-9.6946 149.17-69.82 139.86-126.92-44.601 32.91-95.107 64.264-149.18 73.728z"/><path id="path5224" d="m748.75 1108.2c-185.43 240.26-102.37 851.72-2.4958 963.39" stroke="#c234e1" stroke-width="41" fill="none"/><path id="path5226" d="m684.75 1351.4c-65.299-24.917-130.6-15.68-195.9-19.413 68.24-25.472 136.48-25.418 204.72-28.237z" mask="url(#mask5256)" stroke="#000" stroke-width="1px"/><path id="path5228" d="m720.05 1243.8c-68.89-30.694-136.67-32.173-204.72-40.591 67.477-11.375 133.51-29.237 210.01 0z" mask="url(#mask5252)" stroke="#000" stroke-width="1px"/><path id="path5264" d="m1234.2 1994.2c-33.442-168.04-20.103-461.91 250.53-647.15 310.53-212.55 546.26 8.8036 541.9 247.82h24.958c5.8982-320.48-313.74-474.89-581.32-278.8-249.83 183.08-308.81 446.01-236.07 678.14z" stroke="#000" stroke-miterlimit="14"/><path id="path5268" d="m2014.5 1448.5c64.002-28.399 155.18-69.702 202.95-112.07-76.188 8.4804-150.12 50.003-221.12 79.373z" stroke="#000" stroke-miterlimit="14"/><path id="path5270" d="m1944.4 1333.9c27.649-55.886 63.735-106.71 79.827-169.53-48.377 29.942-77.064 89.418-115.6 134.13z" stroke="#000" stroke-miterlimit="14"/><path id="path5272" d="m2027.2 1565.5c0.3522 14.847-1.3823 24.942-0.4413 37.438 62.441-20.456 171.63-36.76 186.38-61.772-32.195-18.868-125.27 12.674-185.94 24.334z" stroke="#000" stroke-miterlimit="14"/></g><g transform="translate(-113.46 -123.77)"><path id="path5275" d="m2480.9 1457.6c20.464 124.02-119.44 427.89-212.15 608.99-157.69 308.02-243.9 897.61-2.4959 793.68-4.9916 167.22-88.442 505.83 57.404 606.49 136.79 94.41 157.41-92.721 162.23-227.12 64.685 150.7 148.55 320.85 259.57 249.58 97.293-62.454 90.357-325.45 20.394-438.87-58.964-95.586-117.79-205.27-118.71-256.34 79.956 103.66 283.39 66.408 219.28-136.64-76.275-241.59-122.68-463.4-98.069-745.53 25.139-288.12 50.098-592.68-227.55-703.83z" stroke="#7f2660" stroke-miterlimit="7" stroke-width="54" fill="#b93689"/><path id="path5281" fill="#7f2660" d="m2237 2910.6 50.969 2c21.268-217.61 17.631-471.84 84.491-749.82-148.45 240.87-113.23 532.57-135.46 747.82z"/><path id="path5283" fill="#7f2660" d="m2600.6 2556.3c-20.053 97.405-1.7621 229.87 42.895 274.25 44.657 44.387 111.24 49.133 161.46 40.833l-8.3125-50.312c-45.634 7.5424-82.104-0.5464-110.94-29.204-28.832-28.658-61.52-154.73-85.103-235.57z"/><path id="path5285" d="m2229.2 638.43c-331.8-273.83-1044.5-626.68-1650.2-431.1-343.85 111.06-139.22 281.67 39.97 331.77-297.55 154.1-375.09 479.9-309.49 723.8 51.869 192.85 292.61 160.49 306.99-2.4959 6.5163-73.877 22.971-158.96 22.463-264.56 101.36 154.74 168.24 289.86 297 406.82 110.7 100.55 358.08 90.542 297-119.8-22.547-77.656-70.802-167.22-129.78-252.08 218.8 193.28 487.52 213.67 594.01 107.32 201.85 177.79 715.86 219.66 571.55-97.338-59.978-131.75-139.78-212.76-219.63-299.5 101-11.697 179.8-9.9727 232.11 47.421z" stroke="#7f2660" stroke-miterlimit="9" stroke-width="54" fill="#b93689"/><path id="path5287" fill="#7f2660" d="m638.62 505.53c-115 47.73-219.17 130.67-301.43 276.88l44.43 25.03c77.39-137.53 170.57-210.82 276.57-254.82 105.99-43.99 197.04-66.41 365.31-102.98-86.37-11.62-297.53 19.64-384.88 55.89z"/><path id="path5289" fill="#7f2660" d="m1440.9 829.28c7.2389 85.887 120.37 231.88 217.14 311.61 96.77 79.734 196.42 129.92 281.69 141.04l6.5937-50.562c-69.239-9.0301-172.48-59.891-258.52-136.91-88.178-78.934-212.96-213.8-246.9-265.18z"/></g><g transform="translate(-113.46 -123.77)"><path id="path5316" fill="#e698f9" d="m2049.1 741.26c312.65 332.68 238.48 498.1 217.14 686.36l164.73 134.78c210.7-199.7 242-554.7 214.7-808.66-53.4-178.39-89.7-367.58-264.6-469.21-179.8 109.64-229.2 299.58-331.9 456.73z"/><path id="path5308" fill="#c234e1" d="m2388.4 257.97c-10.472-0.46519-21.46 0.9946-32.281 4.75-21.643 7.5108-42.681 22.682-65.469 46.438-124.72 130.02-205.18 292.73-252.75 446.27 17.621 9.2416 33.03 20.268 45.323 33.471 45.379-146.48 129.23-320.23 246.4-442.37 19.07-19.88 34.102-29.313 44.188-32.812 10.085-3.4999 15.171-2.6305 21.969 0.375 13.596 6.011 31.489 28.788 50.531 52.031 150.5 183.7 200.46 419.57 182.69 637.91-17.772 218.34-99.156 395.08-202.47 559.94 177.3-151.04 237.62-325.94 256.31-555.57 18.691-229.63-33.628-479.84-194.75-676.5-16.612-20.276-35.404-51.703-70.5-67.219-8.774-3.879-18.716-6.2536-29.188-6.7188z"/><path id="path5310" d="m2426 666.39c23.152 186.62-1.6307 376.52-64.892 569.05 131.74-189.68 107.37-476.71 64.892-569.05z" stroke="#c234e1" stroke-width="1px" fill="#c234e1"/><path id="path5285-0" d="m1999.1 728.17c105.33 111.07 187.04 196.44 245.01 323.76 33.667 73.954 27.224 116.91 3.6563 145.66-23.568 28.749-72.822 47.156-136.44 50.406-127.23 6.5001-303.16-48.082-396.34-130.16l-35.719 40.531c108.67 95.712 290.65 150.93 434.81 143.56 72.079-3.6825 136.91-23.094 175.44-70.094 38.529-47 42.208-117.7 3.7187-202.25-62-136.08-184.8-262.65-294.2-301.33z" fill="#7f2660"/></g></svg>