<?xml version="1.0" encoding="UTF-8" standalone="no"?>
<!-- Created with Inkscape (http://www.inkscape.org/) -->

<svg
   xmlns:dc="http://purl.org/dc/elements/1.1/"
   xmlns:cc="http://creativecommons.org/ns#"
   xmlns:rdf="http://www.w3.org/1999/02/22-rdf-syntax-ns#"
   xmlns:svg="http://www.w3.org/2000/svg"
   xmlns="http://www.w3.org/2000/svg"
   xmlns:xlink="http://www.w3.org/1999/xlink"
   xmlns:sodipodi="http://sodipodi.sourceforge.net/DTD/sodipodi-0.dtd"
   xmlns:inkscape="http://www.inkscape.org/namespaces/inkscape"
   width="6365.6108"
   height="6365.5952"
   id="svg2"
   version="1.1"
   inkscape:version="0.48.4 r9939"
   viewBox="0 0 6365.6108 6365.5953"
   sodipodi:docname="Big McIntosh.svg">
  <title
     id="title4073">Big McIntosh</title>
  <defs
     id="defs4">
    <linearGradient
       inkscape:collect="always"
       id="linearGradient4280">
      <stop
         style="stop-color:#5abd45;stop-opacity:1;"
         offset="0"
         id="stop4282" />
      <stop
         style="stop-color:#277617;stop-opacity:1"
         offset="1"
         id="stop4284" />
    </linearGradient>
    <clipPath
       clipPathUnits="userSpaceOnUse"
       id="clipPath4349">
      <path
         style="opacity:0.5;color:#000000;fill:#00ff00;fill-opacity:1;fill-rule:nonzero;stroke:#ff0000;stroke-width:1px;stroke-opacity:1;marker:none;visibility:visible;display:inline;overflow:visible;enable-background:accumulate"
         d="m 3941.1165,324.50416 c 12.8545,50.41939 19.0735,102.3325 18.1885,151.82691 -0.8849,49.49457 -8.8734,96.53132 -23.3632,137.56565 -14.4897,41.03432 -35.4696,76.03386 -61.3581,102.36101 -25.8887,26.327 -56.6658,43.96106 -90.0119,51.57291 -33.3462,7.61187 -69.2351,5.19562 -104.9621,-7.06657 -35.727,-12.26229 -71.264,-34.36081 -103.9327,-64.63043 -32.6688,-30.2695 -62.4437,-68.68614 -87.0807,-112.35475 -24.637,-43.66852 -44.1167,-92.55462 -56.9712,-142.97401 -53.5299,-173.45796 199.5657,-437.4135848 365.4396,-371.629503 32.6687,30.269526 62.4435,68.686163 87.0805,112.354683 24.6371,43.6687 44.1168,92.55471 56.9713,142.9741 z"
         id="path4351"
         inkscape:connector-curvature="0"
         sodipodi:nodetypes="ssssssssccss" />
    </clipPath>
    <clipPath
       clipPathUnits="userSpaceOnUse"
       id="clipPath4353">
      <path
         style="opacity:0.5;color:#000000;fill:#00ff00;fill-opacity:1;fill-rule:nonzero;stroke:#ff0000;stroke-width:1px;stroke-opacity:1;marker:none;visibility:visible;display:inline;overflow:visible;enable-background:accumulate"
         d="m 3687.8082,1399.9485 c -3.0747,51.5598 -12.9826,102.7048 -28.9769,149.5805 -15.9942,46.8759 -38.0623,89.4454 -64.5411,124.5006 -26.4788,35.0552 -57.3476,62.5684 -90.2797,80.4663 -32.9322,17.8977 -67.9021,26.1661 -102.274,24.1818 -34.372,-1.9843 -68.1191,-14.2197 -98.698,-35.784 -30.5789,-21.5644 -57.9656,-52.4407 -80.096,-90.3022 -22.1305,-37.8614 -38.9874,-82.6781 -49.3003,-131.0726 -10.3129,-48.3944 -14.0737,-100.3285 -10.999,-151.8883 1.6351,-179.9576 325.6023,-361.1905 464.8658,-252.643 22.1304,37.8614 38.9873,82.6781 49.3002,131.0725 10.3129,48.3946 14.0737,100.3286 10.999,151.8884 z"
         id="path4355"
         inkscape:connector-curvature="0"
         sodipodi:nodetypes="ssssssssccss" />
    </clipPath>
    <clipPath
       clipPathUnits="userSpaceOnUse"
       id="clipPath4357">
      <path
         style="opacity:0.5;color:#000000;fill:#00ff00;fill-opacity:1;fill-rule:nonzero;stroke:#ff0000;stroke-width:1px;stroke-opacity:1;marker:none;visibility:visible;display:inline;overflow:visible;enable-background:accumulate"
         d="m 3731.5172,1400.6307 c -1.4649,51.5849 -9.7759,102.7548 -24.3067,149.6534 -14.5306,46.8987 -35.2696,89.489 -60.6539,124.5612 -25.3843,35.0723 -55.3941,62.5989 -87.7674,80.5055 -32.3734,17.9065 -67.0852,26.1789 -101.519,24.1936 -34.434,-1.9852 -68.5631,-14.2266 -99.8153,-35.8014 -31.2521,-21.5749 -59.6029,-52.4663 -82.9154,-90.3462 -23.3126,-37.8799 -41.5687,-82.7184 -53.3926,-131.1365 -11.8239,-48.418 -17.2061,-100.3774 -15.7412,-151.9623 -3.9836,-180.0453 314.3252,-361.3665 456.9778,-252.7661 23.3125,37.8798 41.5686,82.7184 53.3925,131.1364 11.8239,48.4181 17.2062,100.3775 15.7412,151.9624 z"
         id="path4359"
         inkscape:connector-curvature="0"
         sodipodi:nodetypes="ssssssssccss" />
    </clipPath>
    <clipPath
       clipPathUnits="userSpaceOnUse"
       id="clipPath4361">
      <path
         style="opacity:0.5;color:#000000;fill:#00ff00;fill-opacity:1;fill-rule:nonzero;stroke:#ff0000;stroke-width:1px;stroke-opacity:1;marker:none;visibility:visible;display:inline;overflow:visible;enable-background:accumulate"
         d="m 3687.8082,1399.9485 c -3.0747,51.5598 -12.9826,102.7048 -28.9769,149.5805 -15.9942,46.8759 -38.0623,89.4454 -64.5411,124.5006 -26.4788,35.0552 -57.3476,62.5684 -90.2797,80.4663 -32.9322,17.8977 -67.9021,26.1661 -102.274,24.1818 -34.372,-1.9843 -68.1191,-14.2197 -98.698,-35.784 -30.5789,-21.5644 -57.9656,-52.4407 -80.096,-90.3022 -22.1305,-37.8614 -38.9874,-82.6781 -49.3003,-131.0726 -10.3129,-48.3944 -14.0737,-100.3285 -10.999,-151.8883 1.6351,-179.9576 325.6023,-361.1905 464.8658,-252.643 22.1304,37.8614 38.9873,82.6781 49.3002,131.0725 10.3129,48.3946 14.0737,100.3286 10.999,151.8884 z"
         id="path4363"
         inkscape:connector-curvature="0"
         sodipodi:nodetypes="ssssssssccss" />
    </clipPath>
    <clipPath
       clipPathUnits="userSpaceOnUse"
       id="clipPath4365">
      <path
         style="opacity:0.5;fill:#00ff00;fill-opacity:1;stroke:#ff0000;stroke-width:1px;stroke-linecap:butt;stroke-linejoin:miter;stroke-opacity:1"
         d="m 3995.3358,1565.2015 c -8.7114,41.7536 -18.6497,81.9319 -4.8715,152.5656 59.0382,85.3161 126.9668,158.7639 211.7266,209.7423 -20.7643,-87.9829 -41.1217,-176.0725 -88.96,-256.9477 -33.7078,-57.187 -73.6351,-89.8243 -117.8951,-105.3602 z"
         id="path4367"
         inkscape:connector-curvature="0"
         sodipodi:nodetypes="ccccc" />
    </clipPath>
    <clipPath
       clipPathUnits="userSpaceOnUse"
       id="clipPath4369">
      <path
         style="opacity:0.5;fill:#00ff00;fill-opacity:1;stroke:#ff0000;stroke-width:1px;stroke-linecap:butt;stroke-linejoin:miter;stroke-opacity:1"
         d="m 3321.9127,2716.148 c -21.1087,37.0632 -42.9014,72.2504 -51.4723,143.7032 29.9963,99.3205 72.0971,190.075 137.1143,264.6122 7.2481,-90.1089 14.9164,-180.1944 -5.7842,-271.8502 -14.5244,-64.7735 -42.5044,-108.0922 -79.8578,-136.4652 z"
         id="path4371"
         inkscape:connector-curvature="0"
         sodipodi:nodetypes="ccccc" />
    </clipPath>
    <clipPath
       clipPathUnits="userSpaceOnUse"
       id="clipPath4373">
      <path
         style="opacity:0.5;fill:#00ff00;fill-opacity:1;stroke:#ff0000;stroke-width:1px;stroke-linecap:butt;stroke-linejoin:miter;stroke-opacity:1"
         d="m 3367.2144,2690.7388 c -20.484,37.2253 -41.6833,72.5799 -49.053,144.0992 31.662,99.092 75.2833,189.5252 141.5463,263.5654 5.7335,-90.1655 11.8876,-180.311 -10.3508,-271.8093 -15.6111,-64.6631 -44.3161,-107.768 -82.1425,-135.8553 z"
         id="path4375"
         inkscape:connector-curvature="0"
         sodipodi:nodetypes="ccccc" />
    </clipPath>
    <clipPath
       clipPathUnits="userSpaceOnUse"
       id="clipPath4377">
      <path
         style="opacity:0.5;fill:#00ff00;fill-opacity:1;stroke:#ff0000;stroke-width:1px;stroke-linecap:butt;stroke-linejoin:miter;stroke-opacity:1"
         d="m 3159.3678,3725.1916 c -24.9221,29.3251 -50.3772,56.5986 -65.5283,123.5324 21.8561,106.6059 56.8715,208.7735 116.8003,302.538 15.4609,-85.5626 31.35,-170.9664 18.3291,-267.0856 -9.0946,-67.8939 -33.882,-119.2126 -69.6011,-158.9848 z"
         id="path4379"
         inkscape:connector-curvature="0"
         sodipodi:nodetypes="ccccc" />
    </clipPath>
    <clipPath
       clipPathUnits="userSpaceOnUse"
       id="clipPath4381">
      <path
         style="opacity:0.5;fill:#00ff00;fill-opacity:1;stroke:#ff0000;stroke-width:1px;stroke-linecap:butt;stroke-linejoin:miter;stroke-opacity:1"
         d="m 4158,1060 c -3.4903,42.5097 -8.3925,83.6075 14.0001,152 69.119,77.3751 145.5952,141.8752 236,182 -31.4671,-84.7465 -62.5435,-169.6492 -120,-244 -40.5098,-52.5883 -84.1608,-80.0469 -130.0001,-90 z"
         id="path4383"
         inkscape:connector-curvature="0"
         sodipodi:nodetypes="ccccc" />
    </clipPath>
    <linearGradient
       inkscape:collect="always"
       xlink:href="#linearGradient4280"
       id="linearGradient4286"
       x1="3416.4114"
       y1="1656.4667"
       x2="3399.9841"
       y2="1144.2719"
       gradientUnits="userSpaceOnUse" />
    <linearGradient
       inkscape:collect="always"
       xlink:href="#linearGradient4280"
       id="linearGradient4288"
       x1="3124.1199"
       y1="4031.217"
       x2="3133.6731"
       y2="3733.9382"
       gradientUnits="userSpaceOnUse" />
  </defs>
  <sodipodi:namedview
     id="base"
     pagecolor="#ffffff"
     bordercolor="#666666"
     borderopacity="1.0"
     inkscape:pageopacity="0.0"
     inkscape:pageshadow="2"
     inkscape:zoom="0.125"
     inkscape:cx="3383.3113"
     inkscape:cy="3620.4347"
     inkscape:document-units="px"
     inkscape:current-layer="layer2"
     showgrid="false"
     fit-margin-top="0"
     fit-margin-left="922.1"
     fit-margin-right="922.1"
     fit-margin-bottom="0"
     inkscape:window-width="1280"
     inkscape:window-height="1002"
     inkscape:window-x="-8"
     inkscape:window-y="-2"
     inkscape:window-maximized="1"
     inkscape:snap-global="false"
     inkscape:object-nodes="true" />
  <metadata
     id="metadata7">
    <rdf:RDF>
      <cc:Work
         rdf:about="">
        <dc:format>image/svg+xml</dc:format>
        <dc:type
           rdf:resource="http://purl.org/dc/dcmitype/StillImage" />
        <dc:title>Big McIntosh</dc:title>
      </cc:Work>
    </rdf:RDF>
  </metadata>
  <g
     inkscape:groupmode="layer"
     id="layer16"
     inkscape:label="Background"
     sodipodi:insensitive="true"
     style="display:none"
     transform="translate(876.68275,-36.207975)">
    <rect
       style="color:#000000;fill:#000000;fill-opacity:1;fill-rule:nonzero;stroke:#00ff00;stroke-width:1;stroke-linecap:butt;stroke-linejoin:miter;stroke-miterlimit:4;stroke-opacity:1;stroke-dasharray:none;stroke-dashoffset:0;marker:none;visibility:visible;display:inline;overflow:visible;enable-background:accumulate"
       id="rect4317"
       width="4672.5615"
       height="6584.5781"
       x="-33.941158"
       y="-39.323334" />
  </g>
  <g
     inkscape:groupmode="layer"
     id="layer2"
     inkscape:label="Shadow"
     style="opacity:0.2;display:none"
     sodipodi:insensitive="true"
     transform="translate(876.68275,-36.207975)">
    <ellipse
       style="color:#000000;fill:#000000;fill-opacity:1;fill-rule:nonzero;stroke:none;stroke-width:1px;marker:none;visibility:visible;display:inline;overflow:visible;enable-background:accumulate"
       id="path4062"
       cx="2810.1792"
       cy="6138.8027"
       rx="1822.4347"
       ry="264.22781"
       transform="matrix(0.99966652,0.02582338,-0.02686979,0.99963894,0,0)"
       sodipodi:cx="2810.1792"
       sodipodi:cy="6138.8027"
       sodipodi:rx="1822.4347"
       sodipodi:ry="264.22781"
       d="m 4632.6139,6138.8027 c 0,145.929 -815.9318,264.2278 -1822.4347,264.2278 -1006.5029,0 -1822.43469,-118.2988 -1822.43469,-264.2278 0,-145.929 815.93179,-264.2278 1822.43469,-264.2278 1006.5029,0 1822.4347,118.2988 1822.4347,264.2278 z" />
  </g>
  <g
     inkscape:groupmode="layer"
     id="layer3"
     inkscape:label="Rear Legs"
     style="display:inline"
     sodipodi:insensitive="true"
     transform="translate(876.68275,-36.207975)">
    <path
       style="fill:#e6e3a0;fill-opacity:1;stroke:#dbcd86;stroke-width:44;stroke-linecap:butt;stroke-linejoin:miter;stroke-miterlimit:4;stroke-opacity:1;stroke-dasharray:none"
       d="m 4062.4926,5474.0379 c 111.8616,108.0935 180.7419,299.8411 188.7865,492.2955 5.7035,136.4463 -59.2727,171.0239 -185.445,179.445 -213.6403,14.2589 -502.7957,13.3046 -639.7257,0.01 -77.7293,-7.5496 -144.7781,-27.6288 -165.4352,-115.4056 -39.251,-166.7865 -36.615,-334.4281 -32.0197,-501.6421 z"
       id="path4090"
       inkscape:connector-curvature="0"
       sodipodi:nodetypes="csssscc" />
    <path
       style="fill:#cf335e;fill-opacity:1;stroke:none"
       d="m 3307.9999,4060.0002 c -188.0648,570.0108 -211.436,1112.5726 -144,1639.9999 230.8748,307.0587 353.7331,212.9135 436,-32 113.3333,348.382 226.6667,26.3698 340,-124 75.422,147.321 145.9009,357.2557 252,116 -223.7756,-467.6451 -543.9195,-956.7624 -436,-1791.9999 z"
       id="path4180"
       inkscape:connector-curvature="0"
       sodipodi:nodetypes="ccccccc" />
    <path
       style="fill:#e6e3a0;fill-opacity:1;stroke:#dbcd86;stroke-width:44;stroke-linecap:butt;stroke-linejoin:miter;stroke-miterlimit:4;stroke-opacity:1;stroke-dasharray:none"
       d="m 2562.2461,5790.5711 64.1505,445.2799 c -178.7352,22.8816 -365.0532,26.9667 -550.9395,7.5471 l -22.6414,-467.9212 z"
       id="path4071"
       inkscape:connector-curvature="0"
       sodipodi:nodetypes="ccccc" />
    <path
       style="fill:#cf335e;fill-opacity:1;stroke:none"
       d="m 2559.9999,4244.0002 -532,-36 L 1784,5752.0001 c 154.36,122.0592 316.7898,302.2204 419.9999,56 49.4149,135.9925 171.6856,268.7636 308,20 l -36,-340 c -153.3069,-203.6228 -177.2378,-425.7279 -32,-672 101.2642,-164.8912 192.6369,-333.8553 116,-571.9999 z"
       id="path4178"
       inkscape:connector-curvature="0"
       sodipodi:nodetypes="cccccccc" />
    <path
       style="fill:none;stroke:#a5213a;stroke-width:44;stroke-linecap:butt;stroke-linejoin:miter;stroke-miterlimit:4;stroke-opacity:1;stroke-dasharray:none"
       d="m 2558.4726,4243.4122 c 77.8308,157.9188 -14.0306,424.9209 -109.4333,569.8073 -130.6182,198.3677 -149.5555,432.3558 45.2828,690.5612"
       id="path4067"
       inkscape:connector-curvature="0"
       sodipodi:nodetypes="csc" />
    <path
       style="fill:none;stroke:#a5213a;stroke-width:29;stroke-linecap:butt;stroke-linejoin:miter;stroke-miterlimit:4;stroke-opacity:1;stroke-dasharray:none"
       d="m 2509.4163,5820.7596 c -96.7917,210.9326 -259.9865,175.3603 -301.8846,-26.4149 -113.6957,288.0679 -279.0385,46.7533 -430.1857,-49.0563"
       id="path4069"
       inkscape:connector-curvature="0"
       sodipodi:nodetypes="ccc" />
    <path
       style="font-style:normal;font-variant:normal;font-weight:normal;font-stretch:normal;text-indent:0;text-align:start;text-decoration:none;line-height:normal;letter-spacing:normal;word-spacing:normal;text-transform:none;direction:ltr;block-progression:tb;writing-mode:lr-tb;text-anchor:start;baseline-shift:baseline;color:#000000;fill:#a5213a;fill-opacity:1;stroke:none;stroke-width:44;marker:none;visibility:visible;display:inline;overflow:visible;enable-background:accumulate;font-family:sans-serif;-inkscape-font-specification:sans-serif"
       d="m 3732.8125,3871.293 c -52.0183,492.3772 47.0644,1020.6667 218.4785,1350.4668 84.8635,163.2771 158.8703,313.8173 217.0664,452.7812 -6.149,16.863 -21.9759,58.6966 -43.4375,72.9024 -7.4365,4.9223 -13.8677,5.9971 -21.1582,4.9589 -7.2905,-1.0381 -15.815,-4.8649 -25.1992,-12.0957 -37.5367,-28.9231 -82.5315,-110.8345 -118.9648,-207.0507 l -11.4336,-30.1973 -14.9746,28.6074 c -38.1715,72.9289 -74.3604,135.4689 -107.7813,183.0488 -33.4209,47.58 -64.5678,79.9364 -89.332,92.8985 -12.3821,6.481 -22.5496,8.2551 -31.6602,6.5625 -9.1106,-1.6926 -18.2286,-6.9821 -28.0293,-18.5664 -19.6014,-23.1688 -39.1917,-71.3542 -54.6543,-147.543 l -11.1562,-54.9707 -16.8828,53.4902 c -22.8141,72.2864 -49.2034,128.4108 -77.9161,166.9805 -28.7126,38.5697 -58.9911,59.1849 -90.8554,64.0352 -31.8643,4.8502 -67.3753,-5.6845 -107.7285,-35.8028 -39.1913,-29.251 -82.1232,-76.9619 -127.545,-143.9511 l 5.7188,-0.7676 c -77.5269,-577.6147 -56.241,-1124.2411 134.5723,-1619.3399 l -6.9981,-2.6972 -27.0605,-10.4297 -6.9981,-2.6973 c -194.3255,504.212 -215.2799,1058.7221 -137.125,1641.0156 l 7.4336,-0.998 c 10e-5,6e-4 -1e-4,0 0,0 l 0.4473,3.334 1.8711,2.7969 c 48.0844,71.8982 93.9631,123.8544 138.3359,156.9727 44.3728,33.1183 88.1306,47.5205 129.4414,41.2324 41.3108,-6.2881 78.1134,-32.8867 109.752,-75.3867 24.4729,-32.8745 46.2814,-75.6132 65.7656,-127.6094 13.576,51.263 29.5463,87.5483 49.4433,111.0664 12.8957,15.2425 28.1166,25.235 44.8711,28.3477 16.7546,3.1126 33.9793,-0.7847 50.4063,-9.3829 32.8539,-17.1963 64.9891,-52.6309 99.6133,-101.9238 30.1112,-42.8681 61.8198,-96.9151 94.875,-158.5293 34.4198,85.3834 73.2411,156.8237 116.8476,190.4238 12.1335,9.3492 25.0265,15.871 38.8125,17.834 13.7861,1.9631 28.4889,-0.7018 40.8008,-9.1914 29.1558,-20.1043 61.9751,-84.8766 68.4668,-114.375 -58.9554,-140.7769 -133.4703,-292.2708 -218.6094,-456.0781 -165.6916,-318.79 -264.8156,-842.3225 -213.7636,-1325.5527 l -21.877,-2.3106 -14.3613,-2.0137 c -0.023,0.1633 -0.044,0.327 -0.066,0.4903 z"
       transform="translate(-3.5384615e-5,0)"
       id="path4073"
       inkscape:connector-curvature="0"
       sodipodi:nodetypes="cscscscccsssssccssscccccccccccssscsssscssscsccccc" />
  </g>
  <g
     inkscape:groupmode="layer"
     id="layer5"
     inkscape:label="Rear Jumper"
     style="display:none"
     sodipodi:insensitive="true"
     transform="translate(876.68275,-36.207975)">
    <path
       style="fill:#128480;fill-opacity:1;stroke:none;display:inline"
       d="m 3758.8284,3876.0001 c -55.0632,657.5022 83.3197,1092.5229 302.8284,1511.0295 -306.307,111.0594 -626.8155,179.5142 -985.6568,132.9706 21.8247,-496.3257 108.6041,-1175.7245 221.7401,-1546.7108"
       id="path4109-8"
       inkscape:connector-curvature="0"
       sodipodi:nodetypes="cccc" />
    <path
       style="fill:#c5c245;fill-opacity:1;stroke:none"
       d="m 3894,5008.0001 c -236.0859,55.9444 -490.6957,71.136 -780,10 l -30,342 c 310.1677,18.3552 646.208,10.0648 930,-66 z"
       id="path4111"
       inkscape:connector-curvature="0"
       sodipodi:nodetypes="ccccc" />
    <path
       style="fill:#e7e7d9;fill-opacity:1;stroke:none"
       d="m 3922,5098.0001 c -255.7976,87.6787 -538.9702,74.4823 -822,44 l -6,104 c 309.948,22.5627 615.3769,38.0871 872,-48 z"
       id="path4113"
       inkscape:connector-curvature="0"
       sodipodi:nodetypes="ccccc" />
    <path
       style="fill:none;stroke:#065c59;stroke-width:44;stroke-linecap:butt;stroke-linejoin:miter;stroke-miterlimit:4;stroke-opacity:1;stroke-dasharray:none"
       d="m 3758.8284,3876.0001 c -55.0632,657.5021 83.3197,1092.5228 302.8285,1511.0294 -306.3071,111.0594 -626.8156,179.5142 -985.6569,132.9706 21.8247,-496.3257 108.6041,-1175.7245 221.7401,-1546.7107"
       id="path4109"
       inkscape:connector-curvature="0"
       sodipodi:nodetypes="cccc" />
  </g>
  <g
     inkscape:groupmode="layer"
     id="layer4"
     inkscape:label="Tail"
     style="display:inline"
     sodipodi:insensitive="true"
     transform="translate(876.68275,-36.207975)">
    <path
       style="fill:#f9ba61;fill-opacity:1;stroke:#f28e46;stroke-width:44;stroke-linecap:butt;stroke-linejoin:miter;stroke-miterlimit:9;stroke-opacity:1;stroke-dasharray:none"
       d="M 1424,2884 C 1064.7021,2381.9747 614.9478,2357.7655 315.99997,2676 c -298.947831,318.2345 -366.794097,885.317 12,1148.0001 -13.45723,-72 -25.09992,-144 -28,-216 66.43816,192.6247 234.85991,419.6922 372.08326,539.3137 -48.18263,-178.9232 -104.72224,-343.7042 -77.74011,-536.7695 63.02578,184.106 205.0989,391.2858 341.45585,500.5685 C 705.16584,3670.6399 833.45527,3079.2893 1272,3204 z"
       id="path4102"
       inkscape:connector-curvature="0"
       sodipodi:nodetypes="czccccccc" />
    <path
       style="fill:none;stroke:#f28e46;stroke-width:29;stroke-linecap:butt;stroke-linejoin:miter;stroke-miterlimit:4;stroke-opacity:1;stroke-dasharray:none"
       d="M 1332.1892,2995.5788 C 1017.445,2820.8011 250.27131,2963.2723 308.29853,3634.8034"
       id="path4104"
       inkscape:connector-curvature="0"
       sodipodi:nodetypes="cc" />
    <path
       style="fill:none;stroke:#f28e46;stroke-width:29;stroke-linecap:butt;stroke-linejoin:miter;stroke-miterlimit:4;stroke-opacity:1;stroke-dasharray:none"
       d="M 1360.4734,2924.8681 C 680.17676,2523.2042 185.44893,3013.5225 294.15639,3617.8329"
       id="path4106"
       inkscape:connector-curvature="0"
       sodipodi:nodetypes="cc" />
  </g>
  <g
     inkscape:groupmode="layer"
     id="layer6"
     inkscape:label="Body + Forward Legs"
     style="display:inline"
     sodipodi:insensitive="true"
     transform="translate(876.68275,-36.207975)">
    <path
       style="fill:#e84958;fill-opacity:1;stroke:none"
       d="m 2777.5154,1963.203 -79.196,919.2388 c -269.4896,-144.3837 -543.7177,-255.5977 -834.386,-251.73 -249.4029,56.2963 -499.5203,110.5918 -644.8813,458.2052 -85.4462,295.5071 -32.1668,605.8776 181.0193,933.381 91.2675,130.5328 184.8937,261.6553 234.7594,381.8377 -156.019,28.8367 -299.1794,68.6949 -308.2985,223.4457 l 924.8956,-325.2691 c 116.9758,89.0947 240.0583,135.4421 367.6955,149.9066 l 458.2052,-2.8284 c 500.6526,-143.9523 856.0515,-393.9006 962.6713,-825.3903 193.1483,-498.2855 -29.09,-1016.8337 -264,-1536.0001 z"
       id="path4203"
       inkscape:connector-curvature="0"
       sodipodi:nodetypes="ccccccccccccc" />
    <path
       style="fill:#fefaad;fill-opacity:1;stroke:#dbcd86;stroke-width:44;stroke-linecap:butt;stroke-linejoin:miter;stroke-miterlimit:4;stroke-opacity:1;stroke-dasharray:none"
       d="m 2047.7812,5614.0161 c 112.3951,154.5889 200.5893,324.7875 266.3575,465.0336 67.2582,143.4236 -7.6306,195.1988 -131.0782,202.3331 -243.0088,14.044 -491.397,12.0815 -733.7342,-10 -140.837,-12.8329 -206.5657,-74.4978 -170.8772,-221.1026 214.0618,-208.9947 464.8346,-362.9229 769.3321,-436.2641 z"
       id="path4103"
       inkscape:connector-curvature="0"
       sodipodi:nodetypes="cssscc" />
    <path
       style="fill:#e84958;fill-opacity:1;stroke:none"
       d="m 2257.0848,4299.4839 c -99.4431,-74.0492 -183.3227,-174.0377 -260.2153,-285.6712 l -367.6955,387.4945 c -129.2264,35.4065 -277.1633,45.4201 -305.4701,217.7889 -41.1895,504.4028 -46.8267,1008.8057 -59.397,1513.2085 101.6444,64.8014 157.2779,-16.0983 214.9604,-90.5097 51.1152,224.6393 213.9617,17.3556 294.1565,-209.3036 94.4555,292.073 329.9276,164.882 322.4406,-152.735 -192.378,-283.2302 -280.1465,-588.4835 -45.2548,-961.6652 76.5366,-124.1127 158.7316,-236.9086 206.4752,-418.6072 z"
       id="path4200"
       inkscape:connector-curvature="0"
       sodipodi:nodetypes="cccccccccc" />
    <path
       style="fill:#fefaad;fill-opacity:1;stroke:#dbcd86;stroke-width:44;stroke-linecap:butt;stroke-linejoin:miter;stroke-miterlimit:4;stroke-opacity:1;stroke-dasharray:none"
       d="m 2495.6433,6147.2041 c 6.0347,79.199 8.3509,135.7796 57.0122,147.735 294.8792,72.4476 587.1636,103.9167 877.3445,73.061 152.1186,-16.1752 179.7771,-101.2086 166,-224 -19.839,-176.8197 -87.2829,-323.7589 -194,-458 -391.3411,24.8581 -647.1986,245.4149 -906.3567,461.204 z"
       id="path4139"
       inkscape:connector-curvature="0"
       sodipodi:nodetypes="cssscc" />
    <path
       style="fill:#e84958;fill-opacity:1;stroke:none"
       d="m 2643.9999,4320.0002 c -172.9457,668.2745 -297.7898,1322.5841 -144,1895.9999 124.1367,25.3985 173.0179,-69.0518 216.4853,-153.6569 78.5049,166.6847 145.6961,38.4934 235.5147,-178.3431 108.0617,344.8301 224.7408,60.5897 340,-120 66.5484,134.9263 165.6699,322.0525 236,120 -228.6403,-502.991 -488.936,-994.5508 -456,-1591.9999 z"
       id="path4198"
       inkscape:connector-curvature="0"
       sodipodi:nodetypes="cccccccc" />
    <path
       style="font-style:normal;font-variant:normal;font-weight:normal;font-stretch:normal;text-indent:0;text-align:start;text-decoration:none;line-height:normal;letter-spacing:normal;word-spacing:normal;text-transform:none;direction:ltr;block-progression:tb;writing-mode:lr-tb;text-anchor:start;baseline-shift:baseline;color:#000000;fill:#a5213a;fill-opacity:1;stroke:none;stroke-width:44;marker:none;visibility:visible;display:inline;overflow:visible;enable-background:accumulate;font-family:sans-serif;-inkscape-font-specification:sans-serif"
       d="m 2755.709,1977.2617 c -26.8722,201.3126 -44.8716,402.4845 -58.2637,603.502 -10.179,152.7874 -19.6959,363.4877 6.2793,486.5313 9.9751,-118.9564 27.4778,-331.3248 37.6231,-483.6055 13.3477,-200.351 31.2701,-400.5495 57.9746,-600.6055 z"
       id="path4116"
       inkscape:connector-curvature="0"
       sodipodi:nodetypes="cscscc" />
    <path
       style="fill:none;stroke:#a5213a;stroke-width:44;stroke-linecap:butt;stroke-linejoin:miter;stroke-miterlimit:4;stroke-opacity:1;stroke-dasharray:none"
       d="m 3784,2108 c 288.4999,604.0908 392.2273,1000.14 291.3828,1416.8188 C 3974.5383,3941.4975 3677.0526,4308.681 3082,4446.0001"
       id="path4083"
       inkscape:connector-curvature="0"
       sodipodi:nodetypes="czc" />
    <path
       style="font-style:normal;font-variant:normal;font-weight:normal;font-stretch:normal;text-indent:0;text-align:start;text-decoration:none;line-height:normal;letter-spacing:normal;word-spacing:normal;text-transform:none;direction:ltr;block-progression:tb;writing-mode:lr-tb;text-anchor:start;baseline-shift:baseline;color:#000000;fill:#a5213a;fill-opacity:1;stroke:none;stroke-width:44;marker:none;visibility:visible;display:inline;overflow:visible;enable-background:accumulate;font-family:sans-serif;-inkscape-font-specification:sans-serif"
       d="m 1999.6133,4012.8308 c 87.1306,215.1545 349.0838,425.9156 601.6992,457.0051 l 5.375,-43.6718 c -235.9346,-29.0367 -464.2048,-224.4878 -607.0742,-413.3333 z"
       id="path4085"
       inkscape:connector-curvature="0"
       sodipodi:nodetypes="cccc" />
    <path
       style="font-style:normal;font-variant:normal;font-weight:normal;font-stretch:normal;text-indent:0;text-align:start;text-decoration:none;line-height:normal;letter-spacing:normal;word-spacing:normal;text-transform:none;direction:ltr;block-progression:tb;writing-mode:lr-tb;text-anchor:start;baseline-shift:baseline;color:#000000;fill:#a5213a;fill-opacity:1;stroke:none;stroke-width:44;marker:none;visibility:visible;display:inline;overflow:visible;enable-background:accumulate;font-family:sans-serif;-inkscape-font-specification:sans-serif"
       d="m 1917.5859,2613.7207 c -415.7562,2.4391 -734.2406,291.5667 -757.2656,688.8848 -16.0296,276.6058 81.7967,523.8449 224.1289,742.9902 93.655,144.1982 231.2758,311.9009 279.2519,424.1806 2.7212,-128.1367 -151.6588,-308.5102 -242.3515,-448.1474 -139.1253,-214.2077 -232.4481,-451.6919 -217.1035,-716.4785 22.4522,-387.4341 337.2378,-662.7764 752.1797,-646.7988 273.2756,10.5227 509.0327,119.7041 731.1972,243.3144 l 21.3926,-38.4492 c -224.0892,-124.6811 -466.9101,-237.8968 -750.8984,-248.832 -13.6073,-0.524 -27.1198,-0.7428 -40.5313,-0.6641 z"
       id="path4091"
       inkscape:connector-curvature="0"
       sodipodi:nodetypes="ssscsssccss" />
    <path
       style="font-style:normal;font-variant:normal;font-weight:normal;font-stretch:normal;text-indent:0;text-align:start;text-decoration:none;line-height:normal;letter-spacing:normal;word-spacing:normal;text-transform:none;direction:ltr;block-progression:tb;writing-mode:lr-tb;text-anchor:start;baseline-shift:baseline;color:#000000;fill:#a5213a;fill-opacity:1;stroke:none;stroke-width:44;marker:none;visibility:visible;display:inline;overflow:visible;enable-background:accumulate;font-family:sans-serif;-inkscape-font-specification:sans-serif"
       d="m 2238.4648,4283.5039 c -34.4208,164.8867 -114.0124,277.124 -192.8183,396.3672 -93.6497,141.7037 -156.1738,294.2864 -158.4414,463.7832 -2.2677,169.4968 55.8744,354.6361 198.709,560.8711 0.7576,35.3859 -11.6903,103.0944 -26.0978,141.4051 -27.6296,73.4695 -70.8281,119.8434 -112.1972,134.591 -32.7159,11.6628 -64.0894,6.0232 -92.9336,-21.4981 -28.8442,-27.5212 -54.1804,-78.6613 -66.3574,-157.2441 l -10.9101,-70.416 -17.4746,69.0801 c -39.2371,155.1138 -111.9381,264.7962 -168.6426,304.9355 -14.1761,10.0348 -27.1459,15.6141 -37.5293,17.2266 -10.3834,1.6125 -17.8514,-0.1295 -24.6836,-5.209 -13.6644,-10.159 -26.1482,-39.8192 -24.5938,-94.9883 l 1.7579,-62.3496 -29.0801,55.1816 c -24.3192,46.149 -60.1331,89.3973 -96.5235,111.2364 -18.1952,10.9195 -36.1974,16.4814 -53.1601,15.8046 -12.9162,-0.5152 -25.5632,-4.4273 -38.3145,-13.3691 19.416,-488.7268 27.9514,-1089.7883 59.2891,-1485.4512 4.2275,-53.3749 15.2447,-93.3917 34.8125,-121.1132 19.5678,-27.7216 47.6317,-45.4356 94.3711,-54.1582 52.9359,-9.8792 116.0206,-10.7186 171.1055,-48.7833 l -25.0137,-36.1972 c -41.8727,28.9348 -96.42,30.9501 -154.1641,41.7265 -54.7637,10.2203 -95.8463,34.6388 -122.2461,72.0391 -26.3997,37.4003 -38.1709,85.494 -42.7265,143.0117 -31.5952,398.9134 -40.0299,1000.558 -59.4493,1488.6153 16.8426,23.7792 30.6094,40.1373 81.1797,42.6582 24.0396,1.1983 47.5355,-6.8934 69.2383,-19.918 31.09,-18.6581 59.1221,-48.0161 82.2168,-81.4219 4.485,33.2079 15.4898,56.9898 33.9981,70.75 13.2611,9.8593 29.9535,13.1517 46.4375,10.5918 16.4839,-2.5598 33.0891,-10.3597 49.8339,-22.2129 58.8334,-41.6462 121.9342,-134.7055 163.8575,-265.1992 14.5653,52.357 36.1716,90.7931 62.7519,116.1543 35.528,33.8985 80.9036,42.7308 122.6914,27.834 53.2879,-18.9965 104.5465,-71.3471 130.8137,-153.0401 20.3602,-63.3219 32.6777,-137.6123 33.9148,-175.3232 -139.018,-200.7246 -193.0127,-376.173 -190.8847,-535.2305 2.128,-159.0574 60.532,-302.9935 151.1523,-440.1132 78.2681,-118.4294 162.7985,-237.3485 199.1817,-411.6348 z"
       transform="translate(-3.5384615e-5,0)"
       id="path4097"
       inkscape:connector-curvature="0"
       sodipodi:nodetypes="csscsssccsssscccsccsssccssscsscssscssscsscc" />
    <path
       style="font-style:normal;font-variant:normal;font-weight:normal;font-stretch:normal;text-indent:0;text-align:start;text-decoration:none;line-height:normal;letter-spacing:normal;word-spacing:normal;text-transform:none;direction:ltr;block-progression:tb;writing-mode:lr-tb;text-anchor:start;baseline-shift:baseline;color:#000000;fill:#a5213a;fill-opacity:1;stroke:none;stroke-width:44;marker:none;visibility:visible;display:inline;overflow:visible;enable-background:accumulate;font-family:sans-serif;-inkscape-font-specification:sans-serif"
       d="m 2578.8304,4531.7198 c -142.287,593.7134 -230.1834,1171.0681 -99.8109,1679.5868 4.9596,2.5111 9.8982,5.0641 14.8789,7.5332 56.9829,28.2482 108.4668,16.3898 147.2657,-17.0312 31.0628,-26.7573 55.6752,-65.9336 76.8457,-109.1426 13.0788,31.9285 28.6946,51.6263 49.4277,59.5352 13.7004,5.2262 28.6743,3.6619 41.7852,-2.3574 13.1108,-6.0195 25.0586,-16.0219 36.7128,-28.7833 39.7922,-43.5724 77.5302,-121.3761 109.6622,-204.916 14.8743,51.7709 31.3077,88.7361 51.1035,112.8282 12.5586,15.2842 27.0547,25.6352 43.2676,29.4296 16.2127,3.7945 33.122,0.6464 49.0781,-7.3105 31.9121,-15.9138 62.7176,-49.9632 96.7695,-98.3398 29.5218,-41.9409 61.2305,-95.4521 95.2598,-157.3204 26.0725,69.595 63.7897,139.292 106.4316,177.3008 24.4919,21.8308 54.9118,36.3681 81.75,22.7285 48.8526,-24.8276 65.1708,-78.4879 71.9512,-107.5527 -190.2822,-435.5086 -424.1369,-857.4885 -454.2174,-1385.9646 -4.8258,-84.7833 -10.407,-198.3077 -22.413,-269.033 -14.006,63.2747 -26.4442,184.5136 -21.5582,270.9187 30.5135,539.5993 268.6742,968.6777 457.8683,1401.6961 -5.3114,14.4902 -21.2481,53.9276 -42.6075,63.0937 -14.6609,6.2915 -31.1191,0.6105 -51.4765,-17.5351 -40.7149,-36.2911 -84.3147,-119.803 -109.0195,-195.5781 l -10.4903,-32.1758 -16.0586,29.789 c -39.8716,73.962 -76.2596,136.2374 -109.1328,182.9395 -32.8731,46.7021 -62.7746,77.4991 -85.998,89.0801 -11.6117,5.7904 -20.8767,7.0519 -29.5274,5.0273 -8.6506,-2.0246 -17.708,-7.722 -27.4707,-19.6035 -19.5254,-23.763 -39.5004,-71.6628 -56.9941,-145.8887 l -11.2949,-47.9258 -16.4825,46.3985 c -34.6649,97.5905 -79.8711,194.6195 -119.8144,238.3574 -9.9858,10.9345 -19.5223,18.3683 -27.3985,21.9844 -7.8761,3.6161 -13.3936,3.8891 -19.3496,1.6172 -11.9119,-4.5439 -29.4034,-25.9281 -43.8593,-75.1875 l -11.2149,-38.211 -15.9804,36.4746 c -23.7598,54.2285 -51.9255,103.61 -84.4825,131.6543 -29.2021,25.1546 -59.7753,35.0069 -100.8847,19.3965 -126.6967,-495.5754 -41.0133,-1065.8537 100.1546,-1656.3942 24.6828,-103.2544 37.0619,-213.1282 71.7922,-314.7473 -67.2696,98.3809 -89.6933,200.2529 -114.468,303.6289 z"
       transform="translate(-3.5384615e-5,0)"
       id="path4120"
       inkscape:connector-curvature="0"
       sodipodi:nodetypes="scsscscscsssscsscscscssscssssssccssscccscscs" />
    <!--S~i~g~m~a-->
  </g>
  <g
     inkscape:groupmode="layer"
     id="layer7"
     inkscape:label="Cutie Mark"
     style="display:inline"
     sodipodi:insensitive="true"
     transform="translate(876.68275,-36.207975)">
    <path
       style="fill:#d6fe86;fill-opacity:1;stroke:none"
       d="m 1538.6644,3156.7991 c 5.9831,-113.4149 -32.5618,-167.4592 -70.7107,-222.0315 31.9139,-42.5679 50.8541,-98.1097 67.8822,-155.5635 50.9923,53.5709 61.1519,237.7786 49.4975,374.7666 z"
       id="path4199"
       inkscape:connector-curvature="0"
       sodipodi:nodetypes="ccccc" />
    <path
       style="fill:#5abd45;fill-opacity:1;stroke:none"
       d="m 1557.0491,3158.2134 c 107.1396,-70.5132 230.6184,-268.3329 210.7179,-425.6783 -127.3084,60.1042 -212.821,265.1166 -210.7179,425.6783 z"
       id="path4197"
       inkscape:connector-curvature="0"
       sodipodi:nodetypes="ccc" />
    <path
       style="fill:#2c8f28;fill-opacity:1;stroke:none"
       d="m 1558.4633,3137.0001 c 21.1462,-130.71 99.8863,-267.9309 195.1615,-380.4234 -76.8325,120.7587 -147.2638,253.1288 -178.1909,383.2519 z"
       id="path4195"
       inkscape:connector-curvature="0"
       sodipodi:nodetypes="cccc" />
    <path
       style="fill:#89d457;fill-opacity:1;stroke:none"
       d="m 1546,3146 c 99.0583,-153.8278 263.272,-176.5465 316,-6 57.382,185.6 79.547,419.8749 18.7118,625.025 -18.9588,63.9336 -64.8892,133.1039 -90.7118,182.9751 -34.092,65.8417 -78.9914,165.2741 -132,82 -25.6864,43.2931 -57.6548,20.6242 -94,-48 -29.9075,65.1483 -70.2297,13.2734 -80,-34 -12.3326,-59.6709 -73.3231,-124.0536 -118,-194 -109.1257,-170.8478 -124.976,-443.7957 -14,-658.0001 82.0897,-158.4483 166.2198,-63.2234 194,50 z"
       id="path4193"
       inkscape:connector-curvature="0"
       sodipodi:nodetypes="csssccsssc" />
    <path
       style="fill:#b5f778;fill-opacity:1;stroke:none"
       d="m 1561.2918,3753.5974 c 24.0373,58.9891 78.1711,106.9895 124.4508,45.2548 103.4406,-137.9845 112.0493,-337.9761 43.8406,-470.9331 -36.4113,-70.9752 -163.569,-59.4078 -192.3331,96.1665 -54.1064,-131.6081 -139.5281,-242.9803 -172.534,-79.196 -31.3449,155.5424 34.2936,322.3101 118.7939,442.6489 48.3022,68.7882 61.4724,18.4888 77.7818,-33.9411 z"
       id="path4191"
       inkscape:connector-curvature="0"
       sodipodi:nodetypes="csscssc" />
    <path
       style="fill:#5abd45;fill-opacity:1;stroke:none"
       d="m 1546,3276.0001 c -33.2914,121.8924 -9.0199,570.1397 42,668 -19.9503,-105.7565 -49.1346,-548.728 -42,-668 z"
       id="path4189"
       inkscape:connector-curvature="0"
       sodipodi:nodetypes="ccc" />
    <path
       style="fill:#ae8936;fill-opacity:1;stroke:none"
       d="m 1596,3561.0001 c -2.0962,-24.0362 22.9687,-23.8594 24,0 0.8975,20.7638 -2.2179,41.3333 -7,62 -8.9404,-20.3333 -15.2055,-41.4232 -17,-62 z"
       id="path4142"
       inkscape:connector-curvature="0"
       sodipodi:nodetypes="sscs" />
    <path
       style="fill:#ae8936;fill-opacity:1;stroke:none"
       d="m 1556.9596,3476.4412 c -1.6645,-24.0362 18.2384,-23.8594 19.0573,0 0.7127,20.7638 -1.7611,41.3333 -5.5584,62 -7.0992,-20.3333 -12.074,-41.4232 -13.4989,-62 z"
       id="path4142-5"
       inkscape:connector-curvature="0"
       sodipodi:nodetypes="sscs" />
    <path
       style="fill:#ae8936;fill-opacity:1;stroke:none"
       d="m 1481.2938,3458.659 c 0.1128,-24.0244 21.0707,-19.3768 20.0804,4.2836 -0.8617,20.5906 -5.0658,40.2737 -10.6721,59.7551 -5.9011,-21.6025 -9.505,-43.472 -9.4083,-64.0387 z"
       id="path4142-8"
       inkscape:connector-curvature="0"
       sodipodi:nodetypes="sscs" />
    <path
       style="fill:#ae8936;fill-opacity:1;stroke:none"
       d="m 1489.9075,3559.4396 c -0.1044,-24.1272 -25.0487,-21.6655 -23.9,2.1885 0.9997,20.7592 5.9778,40.9589 12.6246,61.1034 7.049,-21.0639 11.3648,-42.6372 11.2754,-63.2919 z"
       id="path4142-4"
       inkscape:connector-curvature="0"
       sodipodi:nodetypes="sscs" />
    <path
       style="fill:#ae8936;fill-opacity:1;stroke:none"
       d="m 1524.4657,3573.256 c -0.4681,-24.1209 -21.2068,-21.1867 -19.8731,2.6412 1.1606,20.7365 5.6262,40.8382 11.4808,60.8531 5.5389,-21.1937 8.793,-42.845 8.3923,-63.4943 z"
       id="path4142-44"
       inkscape:connector-curvature="0"
       sodipodi:nodetypes="sscs" />
    <path
       style="fill:#ae8936;fill-opacity:1;stroke:none"
       d="m 1488.9773,3687.333 c -1.9632,-22.5532 21.5112,-22.3873 22.477,0 0.8406,19.4828 -2.0771,38.7832 -6.5558,58.1748 -8.373,-19.0788 -14.2406,-38.8675 -15.9212,-58.1748 z"
       id="path4142-1"
       inkscape:connector-curvature="0"
       sodipodi:nodetypes="sscs" />
    <path
       style="fill:#ae8936;fill-opacity:1;stroke:none"
       d="m 1569.9726,3654.6681 c -1.8834,-21.6634 20.6366,-21.504 21.5632,0 0.8064,18.7141 -1.9927,37.253 -6.2893,55.8796 -8.0326,-18.3261 -13.6616,-37.334 -15.2739,-55.8796 z"
       id="path4142-13"
       inkscape:connector-curvature="0"
       sodipodi:nodetypes="sscs" />
  </g>
  <g
     inkscape:groupmode="layer"
     id="layer8"
     inkscape:label="Forward Jumper"
     style="display:none"
     sodipodi:insensitive="true"
     transform="translate(876.68275,-36.207975)">
    <path
       style="fill:#14918e;fill-opacity:1;stroke:none"
       d="m 2707.9999,2764.0001 1020,496.0001 372,-288.0001 c 2.4899,300 30.1356,600.0001 -152,900.0001 -209.0725,289.6376 -467.9652,521.1517 -868,588 l -496,4 c -158.7854,-31.1691 -319.415,-97.4281 -468,-224 -99.8731,-492.9179 31.0304,-992.4295 304,-1496.0001 85.0136,35.3606 176.3279,83.3225 272,140 z"
       id="path4207"
       inkscape:connector-curvature="0"
       sodipodi:nodetypes="cccccccccc" />
    <path
       style="fill:#14918e;fill-opacity:1;stroke:none"
       d="m 2395.6777,5747.6385 c 356.111,26.2583 696.9749,-8.4719 1015.4053,-132.9361 -176.5918,-356.0331 -328.5367,-742.071 -333.7544,-1306.7333 l -432.7493,16.9706 c -151.3008,477.6496 -248.1803,952.5782 -248.9016,1422.6988 z"
       id="path4205"
       inkscape:connector-curvature="0"
       sodipodi:nodetypes="ccccc" />
    <path
       style="fill:#e7dd46;fill-opacity:1;stroke:none"
       d="m 2689.8342,2970.123 c 369.6262,373.5084 609.9252,919.2767 774.989,1295.4197 269.8054,-175.4666 472.0893,-423.1185 593.9697,-701.45 l -161.2203,-107.4802 -659.0235,-22.6274 -263.0438,-367.6956 -271.529,-231.9311 z"
       id="path4228"
       inkscape:connector-curvature="0"
       sodipodi:nodetypes="cccccccc" />
    <path
       style="fill:#ffffff;stroke:none"
       d="m 2794.486,2808.9026 203.6467,288.4996 c 221.4534,264.475 404.5611,581.2395 543.0581,958.8369 168.6932,-130.2405 326.1782,-281.8785 412.9503,-568.5139 l 161.2204,-339.4113 -11.3137,-186.6762 -381.8377,305.4702 z"
       id="path4230"
       inkscape:connector-curvature="0"
       sodipodi:nodetypes="cccccccc" />
    <path
       style="fill:none;stroke:#065c59;stroke-width:44;stroke-linecap:butt;stroke-linejoin:miter;stroke-miterlimit:4;stroke-opacity:1;stroke-dasharray:none"
       d="m 2702,2884 c -81.6112,-58.7407 -176.813,-110.0271 -284,-144 -221.8099,323.0271 -424.6231,1008.3876 -296.6797,1500.0868 146.4845,112.2382 298.7892,205.5609 475.1758,220.6173"
       id="path4208"
       inkscape:connector-curvature="0"
       sodipodi:nodetypes="cccc" />
    <path
       style="fill:none;stroke:#065c59;stroke-width:29;stroke-linecap:butt;stroke-linejoin:miter;stroke-miterlimit:4;stroke-opacity:1;stroke-dasharray:none"
       d="m 2538,2788 c -330.2775,513.6828 -367.328,1027.9354 -292.2289,1534.1112"
       id="path4210"
       inkscape:connector-curvature="0"
       sodipodi:nodetypes="cc" />
    <path
       style="fill:none;stroke:#065c59;stroke-width:29;stroke-linecap:butt;stroke-linejoin:miter;stroke-miterlimit:4;stroke-opacity:1;stroke-dasharray:none"
       d="m 2394.2635,3045.0763 -117.3797,-38.1838 m -4.2426,391.7372 -118.7939,-22.6274 m -63.6397,408.7077 124.4508,11.3137 m -117.3797,301.2275 125.865,29.6985"
       id="path4212"
       inkscape:connector-curvature="0"
       sodipodi:nodetypes="cc" />
    <path
       style="fill:#e7dd46;fill-opacity:1;stroke:none"
       d="m 3364,5516.0001 c -296.5106,71.885 -605.7371,92.9254 -950,52 l 30,-320 c 268.4443,34.2206 534.1628,42.5467 792,-24 z"
       id="path4216"
       inkscape:connector-curvature="0"
       sodipodi:nodetypes="ccccc" />
    <path
       style="fill:#ffffff;stroke:none"
       d="m 3280,5322.0001 c -281.3333,83.8959 -562.6667,77.5846 -844,34 l -14,110 c 308.2561,33.9469 613.0708,34.6876 894,-52 z"
       id="path4218"
       inkscape:connector-curvature="0"
       sodipodi:nodetypes="ccccc" />
    <path
       style="fill:none;stroke:#deca36;stroke-width:29;stroke-linecap:butt;stroke-linejoin:miter;stroke-miterlimit:4;stroke-opacity:1;stroke-dasharray:none"
       d="m 2992.4759,3088.9169 c 217.7114,255.4521 400.76,573.2973 543.058,964.4937 238.0021,-153.3236 362.0087,-376.0042 421.4356,-576.9991"
       id="path4226"
       inkscape:connector-curvature="0"
       sodipodi:nodetypes="ccc" />
    <ellipse
       style="color:#000000;fill:#14918e;fill-opacity:1;fill-rule:nonzero;stroke:none;stroke-width:1px;marker:none;visibility:visible;display:inline;overflow:visible;enable-background:accumulate"
       id="path4232"
       cx="5171.0259"
       cy="1424.2461"
       rx="48.208755"
       ry="63.910694"
       transform="matrix(0.86923884,0.49439239,-0.557387,0.83025281,0,0)"
       sodipodi:cx="5171.0259"
       sodipodi:cy="1424.2461"
       sodipodi:rx="48.208755"
       sodipodi:ry="63.910694"
       d="m 5219.2346,1424.2461 c 0,35.2969 -21.5838,63.9107 -48.2087,63.9107 -26.625,0 -48.2088,-28.6138 -48.2088,-63.9107 0,-35.2969 21.5838,-63.9107 48.2088,-63.9107 26.6249,0 48.2087,28.6138 48.2087,63.9107 z" />
    <ellipse
       style="color:#000000;fill:#14918e;fill-opacity:1;fill-rule:nonzero;stroke:none;stroke-width:1px;marker:none;visibility:visible;display:inline;overflow:visible;enable-background:accumulate"
       id="path4234"
       cx="5134.3286"
       cy="1307.1316"
       rx="44"
       ry="60"
       transform="matrix(0.84117218,0.54076738,-0.54076738,0.84117218,0,0)"
       sodipodi:cx="5134.3286"
       sodipodi:cy="1307.1316"
       sodipodi:rx="44"
       sodipodi:ry="60"
       d="m 5178.3286,1307.1316 c 0,33.1371 -19.6995,60 -44,60 -24.3005,0 -44,-26.8629 -44,-60 0,-33.1371 19.6995,-60 44,-60 24.3005,0 44,26.8629 44,60 z" />
    <path
       style="font-style:normal;font-variant:normal;font-weight:normal;font-stretch:normal;text-indent:0;text-align:start;text-decoration:none;line-height:normal;letter-spacing:normal;word-spacing:normal;text-transform:none;direction:ltr;block-progression:tb;writing-mode:lr-tb;text-anchor:start;baseline-shift:baseline;color:#000000;fill:#065c59;fill-opacity:1;stroke:none;stroke-width:44;marker:none;visibility:visible;display:inline;overflow:visible;enable-background:accumulate;font-family:sans-serif;-inkscape-font-specification:sans-serif"
       d="m 2538.6621,4610.918 c -117.126,445.6122 -139.0302,790.6243 -160.6191,1135.709 l -1.3555,21.6601 21.6406,1.6484 c 346.7131,26.4217 695.0372,-16.9872 1026.6042,-133.1738 l 24.3828,-8.5429 -12.3203,-22.711 c -153.4097,-282.7402 -271.1027,-606.2606 -312.6432,-951.9531 -16.4654,-137.0211 -23.8608,-319.5313 -43.8998,-431.3779 -18.039,106.1534 -16.5404,297.1994 0.2142,436.6279 41.1473,342.4199 155.9384,662.8748 305.444,944.5898 -311.3679,105.5548 -637.733,146.0541 -962.7487,124.0508 21.1729,-337.6139 44.2626,-673.1714 157.8555,-1105.3418 31.1169,-118.3861 63.0321,-274.0267 114.0629,-394.703 -78.9692,109.3237 -125.2125,264.0349 -156.6176,383.5175 z"
       id="path4214"
       inkscape:connector-curvature="0"
       sodipodi:nodetypes="sccccccscsccscs" />
    <path
       style="font-style:normal;font-variant:normal;font-weight:normal;font-stretch:normal;text-indent:0;text-align:start;text-decoration:none;line-height:normal;letter-spacing:normal;word-spacing:normal;text-transform:none;direction:ltr;block-progression:tb;writing-mode:lr-tb;text-anchor:start;baseline-shift:baseline;color:#000000;fill:#deca36;fill-opacity:1;stroke:none;stroke-width:29;marker:none;visibility:visible;display:inline;overflow:visible;enable-background:accumulate;font-family:sans-serif;-inkscape-font-specification:sans-serif"
       d="m 2700.3438,2960.1328 -11.4749,30.0743 c 319.3655,339.7053 559.161,785.8451 762.5432,1280.8456 l 6.5098,15.8477 14.5527,-9.041 c 290.3046,-180.3534 472.0249,-433.5341 602.3379,-719.0606 l -26.3828,-12.041 c -126.5831,277.354 -300.6935,521.1646 -576.8711,697.3125 C 3266.831,3748.774 3024.7839,3301.3875 2700.3438,2960.1328 z"
       id="path4209"
       inkscape:connector-curvature="0"
       sodipodi:nodetypes="ccccscccc" />
    <path
       style="fill:none;stroke:#065c59;stroke-width:44;stroke-linecap:butt;stroke-linejoin:miter;stroke-miterlimit:4;stroke-opacity:1;stroke-dasharray:none"
       d="M 3084,4460.0001 C 3886.9936,4224.6671 4201.0011,3710.441 4096.8284,2964.1716 L 3728,3260.0001 2780.4853,2802.3431"
       id="path4224"
       inkscape:connector-curvature="0"
       sodipodi:nodetypes="cccc" />
    <path
       style="font-style:normal;font-variant:normal;font-weight:normal;font-stretch:normal;text-indent:0;text-align:start;text-decoration:none;line-height:normal;letter-spacing:normal;word-spacing:normal;text-transform:none;direction:ltr;block-progression:tb;writing-mode:lr-tb;text-anchor:start;baseline-shift:baseline;color:#000000;fill:#065c59;fill-opacity:1;stroke:none;stroke-width:44;marker:none;visibility:visible;display:inline;overflow:visible;enable-background:accumulate;font-family:sans-serif;-inkscape-font-specification:sans-serif"
       d="m 2694.0254,2578.957 c -6.65,140.0036 -6.2629,291.5662 -12.2928,450.7793 55.9701,-152.7869 49.6002,-308.8631 56.242,-448.6933 z"
       id="path4202"
       inkscape:connector-curvature="0"
       sodipodi:nodetypes="cccc" />
  </g>
  <g
     inkscape:groupmode="layer"
     id="layer9"
     inkscape:label="Bow"
     style="display:none"
     sodipodi:insensitive="true"
     transform="translate(876.68275,-36.207975)">
    <path
       style="fill:#faf4c6;fill-opacity:1;stroke:none;display:inline"
       d="m 3613.3157,3346.3039 c 74.8066,-108.8851 269.2508,-111.8602 305.4701,15.5563 20.4468,71.93 20.4973,146.482 -14.1422,216.3747 -47.2578,95.3527 -211.8551,79.5744 -281.4285,-4.2427"
       id="path4245-9"
       inkscape:connector-curvature="0"
       sodipodi:nodetypes="cssc" />
    <path
       style="fill:#faf4c6;fill-opacity:1;stroke:none;display:inline"
       d="m 3898.9868,3325.0907 c 58.4294,-81.2966 126.7054,-135.3472 199.4041,-186.6764 102.3861,-72.29 193.7019,-30.7386 200.8183,63.6397 8.5724,113.6876 5.519,226.582 -21.2132,349.3108 -18.0355,82.8017 -48.8588,107.1259 -123.0365,91.9239 -76.0839,-15.5927 -156.9241,-54.7257 -237.5879,-93.3381"
       id="path4247-0"
       inkscape:connector-curvature="0"
       sodipodi:nodetypes="cssssc" />
    <path
       style="fill:#57c5c0;fill-opacity:1;stroke:none"
       d="m 3928.6853,3414.1861 c -74.5603,19.5647 -150.7724,24.264 -229.1026,9.8995 l -15.5564,113.1371 c 76.8389,18.9483 153.6779,17.4396 230.5168,14.1421 z"
       id="path4251"
       inkscape:connector-curvature="0"
       sodipodi:nodetypes="ccccc" />
    <path
       style="fill:#faf4c6;fill-opacity:1;stroke:none;display:inline"
       d="m 3700.84,3423.843 c -120.0123,-114.8588 -250.3025,-206.7608 -425.5214,-238.7596 -72.8937,-13.312 -118.6877,14.3532 -115.9655,114.5514 3.2551,119.8156 17.541,233.9219 52.3259,328.0976 25.3695,68.6849 69.685,102.5367 158.3919,73.5391 106.2974,-34.7479 245.4028,-98.9969 328.4407,-206.6468"
       id="path4243-2-9"
       inkscape:connector-curvature="0"
       sodipodi:nodetypes="cssssc" />
    <path
       style="fill:none;stroke:#529b8c;stroke-width:29;stroke-linecap:butt;stroke-linejoin:miter;stroke-miterlimit:4;stroke-opacity:1;stroke-dasharray:none"
       d="m 3613.3157,3346.3039 c 74.8066,-108.8851 269.2508,-111.8602 305.4701,15.5563 20.4468,71.93 20.4973,146.482 -14.1422,216.3747 -47.2578,95.3527 -211.8551,79.5744 -281.4285,-4.2427"
       id="path4245"
       inkscape:connector-curvature="0"
       sodipodi:nodetypes="cssc" />
    <path
       style="fill:#57c5c0;fill-opacity:1;stroke:none"
       d="m 4227.0843,3639.0461 c -1.4854,-182.9501 -44.8711,-356.1553 -159.8061,-479.4185 l -113.1371,97.5808 c 62.0465,100.8017 128.5019,243.0457 93.3381,350.725 60.3585,15.2722 122.6609,49.9831 179.6051,31.1127 z"
       id="path4249"
       inkscape:connector-curvature="0"
       sodipodi:nodetypes="ccccc" />
    <path
       style="fill:#57c5c0;fill-opacity:1;stroke:none"
       d="m 3285.2181,3186.4976 c 85.5423,148.2643 150.5614,304.7182 140.0072,497.8033 l 127.2792,-65.0538 c -5.0191,-123.9668 -22.9317,-245.5893 -69.2965,-362.0387 z"
       id="path4253"
       inkscape:connector-curvature="0"
       sodipodi:nodetypes="ccccc" />
    <path
       style="font-style:normal;font-variant:normal;font-weight:normal;font-stretch:normal;text-indent:0;text-align:start;text-decoration:none;line-height:normal;letter-spacing:normal;word-spacing:normal;text-transform:none;direction:ltr;block-progression:tb;writing-mode:lr-tb;text-anchor:start;baseline-shift:baseline;color:#000000;fill:#529b8c;fill-opacity:1;stroke:none;stroke-width:29;marker:none;visibility:visible;display:inline;overflow:visible;enable-background:accumulate;font-family:sans-serif;-inkscape-font-specification:sans-serif"
       d="m 3249.6797,3167.5977 c -27.3464,-1.0138 -51.6913,4.9675 -70.2735,21.3046 -24.7761,21.7829 -35.9689,58.7851 -34.5468,111.127 3.2796,120.7171 17.5619,236.1903 53.2187,332.7266 13.3673,36.1902 32.6011,65.4778 62.2578,81.1894 29.6567,15.7116 67.6251,16.3476 114.2403,1.1094 98.6288,-32.2411 225.5464,-89.1745 312.3758,-184.1845 l 0.079,-45.1026 c -79.9587,103.6581 -216.6337,167.4521 -321.4648,201.7207 -42.0917,13.7594 -70.6341,11.9681 -91.6543,0.832 -21.0201,-11.1361 -36.6286,-33.1167 -48.6309,-65.6113 -33.9129,-91.8152 -48.2029,-204.5546 -51.4335,-323.4688 -1.3002,-47.8563 9.0433,-74.7873 24.707,-88.5586 15.6637,-13.7713 39.9855,-17.5746 74.1582,-11.3339 171.6419,31.3455 299.0852,121.0651 418.1016,234.9707 l 1.6591,-38.2899 c -116.1518,-107.8002 -244.7644,-194.2036 -414.5498,-225.2101 -9.6802,-1.7678 -19.1287,-2.8828 -28.2441,-3.2207 z"
       id="path4243-2"
       inkscape:connector-curvature="0"
       sodipodi:nodetypes="ssssssccssssssccss" />
    <path
       style="font-style:normal;font-variant:normal;font-weight:normal;font-stretch:normal;text-indent:0;text-align:start;text-decoration:none;line-height:normal;letter-spacing:normal;word-spacing:normal;text-transform:none;direction:ltr;block-progression:tb;writing-mode:lr-tb;text-anchor:start;baseline-shift:baseline;color:#000000;fill:#529b8c;fill-opacity:1;stroke:none;stroke-width:29;marker:none;visibility:visible;display:inline;overflow:visible;enable-background:accumulate;font-family:sans-serif;-inkscape-font-specification:sans-serif"
       d="m 3681.6233,3359.3333 c 11.587,58.0314 -0.091,170.6151 -11.0906,201.3334 44.0007,-19.2817 48.5036,-154.3648 11.0906,-201.3334 z"
       id="path4237"
       inkscape:connector-curvature="0"
       sodipodi:nodetypes="ccc" />
    <path
       style="fill:none;stroke:#529b8c;stroke-width:29;stroke-linecap:butt;stroke-linejoin:miter;stroke-miterlimit:4;stroke-opacity:1;stroke-dasharray:none"
       d="m 3898.9868,3325.0907 c 58.4294,-81.2966 126.7054,-135.3472 199.4041,-186.6764 102.3861,-72.29 193.7019,-30.7386 200.8183,63.6397 8.5724,113.6876 5.519,226.582 -21.2132,349.3108 -18.0355,82.8017 -48.8588,107.1259 -123.0365,91.9239 -76.0839,-15.5927 -156.9241,-54.7257 -237.5879,-93.3381"
       id="path4247"
       inkscape:connector-curvature="0"
       sodipodi:nodetypes="cssssc" />
  </g>
  <g
     inkscape:groupmode="layer"
     id="layer10"
     inkscape:label="Head + Rear Ear"
     style="display:inline"
     sodipodi:insensitive="true"
     transform="translate(876.68275,-36.207975)">
    <path
       style="fill:#e84958;fill-opacity:1;stroke:#a5213a;stroke-width:44;stroke-miterlimit:4;stroke-opacity:1;stroke-dasharray:none"
       d="m 4168.4853,1076.4853 c 89.1946,-201.14179 79.8276,-454.94779 60.0132,-700.03001 -6.3705,-78.7955 -38.9852,-100.47553 -107.4802,-48.08326 -205.632,157.2893 -296.2414,355.35592 -325.2691,582.65599"
       id="path4287"
       inkscape:connector-curvature="0"
       sodipodi:nodetypes="cssc" />
    <path
       style="fill:#e84958;fill-opacity:1;stroke:none"
       d="M 4452,1452 C 4347.5154,1200.1864 4175.1498,950.48084 3932,752.00002 l -892,-28 L 2800,1512 l 240,572 c 262.8205,66.308 519.5985,199.0837 792,160 208.9159,-37.768 417.4744,-74.1958 668,-268 50.3463,-164.9385 45.3236,-307.7294 44,-452 z"
       id="path4289"
       inkscape:connector-curvature="0"
       sodipodi:nodetypes="ccccccccc" />
    <path
       style="font-style:normal;font-variant:normal;font-weight:normal;font-stretch:normal;text-indent:0;text-align:start;text-decoration:none;line-height:normal;letter-spacing:normal;word-spacing:normal;text-transform:none;direction:ltr;block-progression:tb;writing-mode:lr-tb;text-anchor:start;baseline-shift:baseline;color:#000000;fill:#a5213a;fill-opacity:1;stroke:none;stroke-width:44;marker:none;visibility:visible;display:inline;overflow:visible;enable-background:accumulate;font-family:sans-serif;-inkscape-font-specification:sans-serif"
       d="m 4143.6746,1085.209 c -7.5501,150.3304 97.8666,236.2481 181.7277,294.8262 68.2155,47.6494 134.2014,95.8468 193.2559,153.9296 11.1979,148.3968 0.3703,289.9956 -41.7812,429.1172 -292.6532,236.3132 -779.6403,380.3869 -1159.6935,156.9683 315.9469,278.5814 888.9034,121.2339 1192.7364,-127.0132 3.3227,-2.7149 5.823,-6.4232 7.0938,-10.5215 46.4732,-149.8784 57.6734,-302.3082 44.914,-460.2871 -0.4158,-5.1427 -2.7097,-10.1128 -6.3535,-13.7656 -63.6564,-63.8089 -134.0903,-114.9831 -204.9765,-164.4981 -84.6635,-59.1385 -173.373,-113.0862 -206.9231,-258.7558 z"
       id="path4256"
       inkscape:connector-curvature="0"
       sodipodi:nodetypes="cscccscccsc" />
    <ellipse
       style="color:#000000;fill:#ffecbc;fill-opacity:1;fill-rule:nonzero;stroke:none;stroke-width:1px;marker:none;visibility:visible;display:inline;overflow:visible;enable-background:accumulate"
       id="path4258"
       cx="2440.8533"
       cy="3092.45"
       rx="22.784014"
       ry="41.730911"
       transform="matrix(0.8842625,-0.46699019,0.33260869,0.94306493,0,0)"
       sodipodi:cx="2440.8533"
       sodipodi:cy="3092.45"
       sodipodi:rx="22.784014"
       sodipodi:ry="41.730911"
       d="m 2463.6373,3092.45 c 0,23.0473 -10.2008,41.7309 -22.784,41.7309 -12.5833,0 -22.784,-18.6836 -22.784,-41.7309 0,-23.0474 10.2007,-41.731 22.784,-41.731 12.5832,0 22.784,18.6836 22.784,41.731 z" />
    <ellipse
       style="color:#000000;fill:#ffecbc;fill-opacity:1;fill-rule:nonzero;stroke:none;stroke-width:1px;marker:none;visibility:visible;display:inline;overflow:visible;enable-background:accumulate"
       id="path4260"
       cx="2070.043"
       cy="3220.0525"
       rx="24.04163"
       ry="31.819805"
       transform="matrix(0.8816484,-0.47190687,0.47190687,0.8816484,0,0)"
       sodipodi:cx="2070.043"
       sodipodi:cy="3220.0525"
       sodipodi:rx="24.04163"
       sodipodi:ry="31.819805"
       d="m 2094.0846,3220.0525 c 0,17.5736 -10.7638,31.8198 -24.0416,31.8198 -13.2779,0 -24.0417,-14.2462 -24.0417,-31.8198 0,-17.5736 10.7638,-31.8198 24.0417,-31.8198 13.2778,0 24.0416,14.2462 24.0416,31.8198 z" />
    <ellipse
       style="color:#000000;fill:#ffecbc;fill-opacity:1;fill-rule:nonzero;stroke:none;stroke-width:1px;marker:none;visibility:visible;display:inline;overflow:visible;enable-background:accumulate"
       id="path4262"
       cx="1661.7688"
       cy="3400.002"
       rx="25.455845"
       ry="36.062447"
       transform="matrix(0.8354266,-0.54960204,0.54960204,0.8354266,0,0)"
       sodipodi:cx="1661.7688"
       sodipodi:cy="3400.002"
       sodipodi:rx="25.455845"
       sodipodi:ry="36.062447"
       d="m 1687.2246,3400.002 c 0,19.9167 -11.3969,36.0624 -25.4558,36.0624 -14.0589,0 -25.4558,-16.1457 -25.4558,-36.0624 0,-19.9168 11.3969,-36.0625 25.4558,-36.0625 14.0589,0 25.4558,16.1457 25.4558,36.0625 z" />
    <path
       style="fill:#a5213a;fill-opacity:1;stroke:none"
       d="m 4236,1564 c -1.0619,95.1115 97.002,129.3965 128,46 -52.6678,19.0038 -98.5903,12.0853 -128,-46 z"
       id="path4268"
       inkscape:connector-curvature="0"
       sodipodi:nodetypes="ccc" />
    <path
       style="fill:#a5213a;fill-opacity:1;stroke:none"
       d="m 4505.6663,1486.4012 c 57.7422,75.5856 -0.3368,161.7181 -75.0619,113.4271 53.5743,-16.274 86.2374,-49.287 75.0619,-113.4271 z"
       id="path4268-7"
       inkscape:connector-curvature="0"
       sodipodi:nodetypes="ccc" />
    <path
       style="fill:#a5213a;fill-opacity:1;stroke:none"
       d="m 4532,1796 c -190.9756,94.1586 -357.6363,93.6362 -506,28 152.8586,122.3159 339.4702,106.4696 500,16 z"
       id="path4285"
       inkscape:connector-curvature="0"
       sodipodi:nodetypes="cccc" />
  </g>
  <g
     inkscape:groupmode="layer"
     id="layer12"
     inkscape:label="Eyes"
     style="display:inline"
     sodipodi:insensitive="true"
     transform="translate(876.68275,-36.207975)">
    <path
       style="fill:#ffffff;stroke:none"
       d="m 4399.6184,1384.7895 c -192.1592,-67.056 -248.1231,-191.1241 -280.0143,-325.2691 39.598,-10.6412 79.1959,-4.7999 118.7939,7.0711 71.5513,101.2084 130.9859,205.7214 161.2204,318.198 z"
       id="path4339"
       inkscape:connector-curvature="0"
       sodipodi:nodetypes="cccc"
       clip-path="url(#clipPath4381)" />
    <path
       style="fill:#ffffff;stroke:none"
       d="m 3648,1096 c -303.1089,-57.5416 -458.9262,100.4658 -544,362 22.4906,233.1861 129.1102,365.8277 370,338 290.9403,-166.3231 268.791,-422.7131 174,-700 z"
       id="path4329"
       inkscape:connector-curvature="0"
       sodipodi:nodetypes="cccc"
       clip-path="url(#clipPath4361)" />
    <ellipse
       style="color:#000000;fill:url(#linearGradient4286);fill-opacity:1;fill-rule:nonzero;stroke:none;stroke-width:1px;marker:none;visibility:visible;display:inline;overflow:visible;enable-background:accumulate"
       id="path4323"
       cx="3408.3735"
       cy="1378.8926"
       rx="280.01428"
       ry="362.54117"
       transform="matrix(1,0,-0.03120669,0.99951295,0,0)"
       clip-path="url(#clipPath4357)"
       sodipodi:cx="3408.3735"
       sodipodi:cy="1378.8926"
       sodipodi:rx="280.01428"
       sodipodi:ry="362.54117"
       d="m 3688.3878,1378.8926 c 0,200.2259 -125.3666,362.5411 -280.0143,362.5411 -154.6476,0 -280.0142,-162.3152 -280.0142,-362.5411 0,-200.226 125.3666,-362.5412 280.0142,-362.5412 154.6477,0 280.0143,162.3152 280.0143,362.5412 z" />
    <ellipse
       style="color:#000000;fill:#000000;fill-opacity:1;fill-rule:nonzero;stroke:none;stroke-width:1px;marker:none;visibility:visible;display:inline;overflow:visible;enable-background:accumulate"
       id="path4325"
       cx="3329"
       cy="1396"
       rx="207"
       ry="272"
       clip-path="url(#clipPath4353)"
       sodipodi:cx="3329"
       sodipodi:cy="1396"
       sodipodi:rx="207"
       sodipodi:ry="272"
       d="m 3536,1396 c 0,150.2215 -92.6771,272 -207,272 -114.3229,0 -207,-121.7785 -207,-272 0,-150.2215 92.6771,-272 207,-272 114.3229,0 207,121.7785 207,272 z" />
    <ellipse
       style="color:#000000;fill:#ffffff;fill-opacity:1;fill-rule:nonzero;stroke:none;stroke-width:1px;marker:none;visibility:visible;display:inline;overflow:visible;enable-background:accumulate"
       id="path4327"
       cx="3523.886"
       cy="526.7561"
       rx="139.8582"
       ry="220.0699"
       transform="matrix(0.96091979,0.27682694,-0.30597038,0.95204103,0,0)"
       clip-path="url(#clipPath4349)"
       sodipodi:cx="3523.886"
       sodipodi:cy="526.7561"
       sodipodi:rx="139.8582"
       sodipodi:ry="220.0699"
       d="m 3663.7442,526.7561 c 0,121.54125 -62.6167,220.0699 -139.8582,220.0699 -77.2416,0 -139.8582,-98.52865 -139.8582,-220.0699 0,-121.54125 62.6166,-220.0699 139.8582,-220.0699 77.2415,0 139.8582,98.52865 139.8582,220.0699 z" />
    <ellipse
       style="color:#000000;fill:url(#linearGradient4288);fill-opacity:1;fill-rule:nonzero;stroke:none;stroke-width:1px;marker:none;visibility:visible;display:inline;overflow:visible;enable-background:accumulate"
       id="path4331"
       cx="3123.7617"
       cy="3901.2712"
       rx="96.118805"
       ry="218.27156"
       transform="matrix(0.72746229,-0.68614766,0.49921702,0.86647698,0,0)"
       clip-path="url(#clipPath4377)"
       sodipodi:cx="3123.7617"
       sodipodi:cy="3901.2712"
       sodipodi:rx="96.118805"
       sodipodi:ry="218.27156"
       d="m 3219.8805,3901.2712 c 0,120.5481 -43.0338,218.2716 -96.1188,218.2716 -53.0849,0 -96.1188,-97.7235 -96.1188,-218.2716 0,-120.548 43.0339,-218.2715 96.1188,-218.2715 53.085,0 96.1188,97.7235 96.1188,218.2715 z" />
    <ellipse
       style="color:#000000;fill:#000000;fill-opacity:1;fill-rule:nonzero;stroke:none;stroke-width:1px;marker:none;visibility:visible;display:inline;overflow:visible;enable-background:accumulate"
       id="path4333"
       cx="3350.8113"
       cy="2894.5591"
       rx="75.398613"
       ry="181.17477"
       transform="matrix(0.90974123,-0.41517573,0.40684224,0.91349844,0,0)"
       clip-path="url(#clipPath4373)"
       sodipodi:cx="3350.8113"
       sodipodi:cy="2894.5591"
       sodipodi:rx="75.398613"
       sodipodi:ry="181.17477"
       d="m 3426.2099,2894.5591 c 0,100.06 -33.7571,181.1748 -75.3986,181.1748 -41.6415,0 -75.3986,-81.1148 -75.3986,-181.1748 0,-100.0601 33.7571,-181.1748 75.3986,-181.1748 41.6415,0 75.3986,81.1147 75.3986,181.1748 z" />
    <ellipse
       style="color:#000000;fill:#ffffff;fill-opacity:1;fill-rule:nonzero;stroke:none;stroke-width:1px;marker:none;visibility:visible;display:inline;overflow:visible;enable-background:accumulate"
       id="path4335"
       cx="3297.2549"
       cy="2897.5798"
       rx="33.23402"
       ry="59.396969"
       transform="matrix(0.90653479,-0.4221311,0.4221311,0.90653479,0,0)"
       clip-path="url(#clipPath4369)"
       sodipodi:cx="3297.2549"
       sodipodi:cy="2897.5798"
       sodipodi:rx="33.23402"
       sodipodi:ry="59.396969"
       d="m 3330.4889,2897.5798 c 0,32.8041 -14.8794,59.397 -33.234,59.397 -18.3547,0 -33.234,-26.5929 -33.234,-59.397 0,-32.804 14.8793,-59.3969 33.234,-59.3969 18.3546,0 33.234,26.5929 33.234,59.3969 z" />
    <ellipse
       style="color:#000000;fill:#ffffff;fill-opacity:1;fill-rule:nonzero;stroke:none;stroke-width:1px;marker:none;visibility:visible;display:inline;overflow:visible;enable-background:accumulate"
       id="path4337"
       cx="4090.9307"
       cy="1814.6046"
       rx="16.970562"
       ry="29.698484"
       transform="matrix(0.99235065,-0.12345113,0.12345113,0.99235065,0,0)"
       clip-path="url(#clipPath4365)"
       sodipodi:cx="4090.9307"
       sodipodi:cy="1814.6046"
       sodipodi:rx="16.970562"
       sodipodi:ry="29.698484"
       d="m 4107.9012,1814.6046 c 0,16.402 -7.598,29.6985 -16.9705,29.6985 -9.3726,0 -16.9706,-13.2965 -16.9706,-29.6985 0,-16.402 7.598,-29.6985 16.9706,-29.6985 9.3725,0 16.9705,13.2965 16.9705,29.6985 z" />
  </g>
  <g
     inkscape:groupmode="layer"
     id="layer11"
     inkscape:label="Eye Clipping"
     style="opacity:0.5;display:none"
     sodipodi:insensitive="true"
     transform="translate(876.68275,-36.207975)">
    <ellipse
       style="color:#000000;fill:#ffff00;fill-opacity:1;fill-rule:nonzero;stroke:none;stroke-width:1px;marker:none;visibility:visible;display:inline;overflow:visible;enable-background:accumulate"
       id="path4292"
       cx="3501.5923"
       cy="1185.079"
       rx="263.01971"
       ry="394.58789"
       transform="matrix(0.99833776,0.0576344,-0.05952857,0.9982266,0,0)"
       sodipodi:cx="3501.5923"
       sodipodi:cy="1185.079"
       sodipodi:rx="263.01971"
       sodipodi:ry="394.58789"
       d="m 3764.612,1185.079 c 0,217.9249 -117.7579,394.5879 -263.0197,394.5879 -145.2618,0 -263.0197,-176.663 -263.0197,-394.5879 0,-217.92489 117.7579,-394.58791 263.0197,-394.58791 145.2618,0 263.0197,176.66302 263.0197,394.58791 z" />
    <path
       transform="matrix(0.99833776,0.0576344,-0.05952857,0.9982266,0,0)"
       style="color:#000000;fill:#00ff00;fill-opacity:1;fill-rule:nonzero;stroke:#ff0000;stroke-width:1px;stroke-opacity:1;marker:none;visibility:visible;display:inline;overflow:visible;enable-background:accumulate"
       d="m 3764.612,1185.079 c 0,51.6514 -6.8457,103.2825 -20.0212,151.0022 -13.1755,47.7198 -32.6704,91.4905 -57.0155,128.0136 -24.3451,36.5231 -53.5213,65.7697 -85.3297,85.5359 -31.8084,19.7661 -66.2241,30.0362 -100.6533,30.0362 -34.4292,0 -68.8449,-10.2701 -100.6533,-30.0362 -31.8084,-19.7662 -60.9846,-49.0128 -85.3297,-85.5359 -24.3451,-36.5231 -43.84,-80.2938 -57.0155,-128.0136 -13.1755,-47.7197 -20.0212,-99.3508 -20.0212,-151.0022 -9.0804,-179.753 303.5243,-379.35669 449.0027,-279.01578 24.3451,36.52308 43.84,80.29383 57.0155,128.01348 13.1755,47.7198 20.0212,99.3509 20.0212,151.0023 z"
       id="path4292-9"
       inkscape:connector-curvature="0"
       sodipodi:nodetypes="ssssssssccss" />
    <path
       style="fill:#00ff00;fill-opacity:1;stroke:#ff0000;stroke-width:1px;stroke-linecap:butt;stroke-linejoin:miter;stroke-opacity:1"
       d="m 4158,1060 c -3.4903,42.5097 -8.3925,83.6075 14,152 69.119,77.3751 145.5952,141.8752 236,182 -31.4671,-84.7465 -62.5435,-169.6492 -120,-244 -40.5098,-52.5883 -84.1608,-80.0469 -130,-90 z"
       id="path4310"
       inkscape:connector-curvature="0"
       sodipodi:nodetypes="ccccc" />
  </g>
  <g
     inkscape:groupmode="layer"
     id="layer13"
     inkscape:label="Eyelashes"
     style="display:inline"
     sodipodi:insensitive="true"
     transform="translate(876.68275,-36.207975)">
    <path
       style="fill:none;stroke:#a5213a;stroke-width:44;stroke-linecap:butt;stroke-linejoin:miter;stroke-miterlimit:4;stroke-opacity:1;stroke-dasharray:none"
       d="M 4426.4884,1422.9733 C 4402.0734,1256.0075 4194.5832,908.9385 3928.6853,749.80767"
       id="path4405"
       inkscape:connector-curvature="0"
       sodipodi:nodetypes="cc" />
    <path
       style="font-style:normal;font-variant:normal;font-weight:normal;font-stretch:normal;text-indent:0;text-align:start;text-decoration:none;line-height:normal;letter-spacing:normal;word-spacing:normal;text-transform:none;direction:ltr;block-progression:tb;writing-mode:lr-tb;text-anchor:start;baseline-shift:baseline;color:#000000;fill:#a5213a;fill-opacity:1;stroke:none;stroke-width:44;marker:none;visibility:visible;display:inline;overflow:visible;enable-background:accumulate;font-family:sans-serif;-inkscape-font-specification:sans-serif"
       d="m 4143.6746,1085.209 c -7.5501,150.3304 97.8666,236.2481 181.7278,294.8262 68.2155,47.6494 134.2014,95.8468 193.2559,153.9296 l 43.2695,-11.7363 c -0.4158,-5.1427 -2.7097,-10.1128 -6.3535,-13.7656 -63.6564,-63.8089 -134.0903,-114.9831 -204.9765,-164.4981 -84.6636,-59.1385 -173.3731,-113.0862 -206.9232,-258.7558 z"
       id="path4256-3"
       inkscape:connector-curvature="0"
       sodipodi:nodetypes="cscccsc" />
    <path
       style="fill:#000000;stroke:none"
       d="m 3666,1128 c -253.9283,-91.2561 -483.4678,88.9754 -568,428 -2.0081,-410.6789 417.0257,-596.79473 568,-428 z"
       id="path4401"
       inkscape:connector-curvature="0"
       sodipodi:nodetypes="ccc" />
    <path
       style="fill:#000000;stroke:none"
       d="m 4130,1068 c 71.3134,-51.0483 171.8626,57.5113 178,120 -49.0863,-68.4638 -105.0168,-117.9163 -178,-120 z"
       id="path4403"
       inkscape:connector-curvature="0"
       sodipodi:nodetypes="ccc" />
  </g>
  <g
     inkscape:groupmode="layer"
     id="layer14"
     inkscape:label="Mane"
     style="display:inline"
     sodipodi:insensitive="true"
     transform="translate(876.68275,-36.207975)">
    <path
       style="fill:#f9ba61;fill-opacity:1;stroke:#f28e46;stroke-width:44;stroke-linecap:butt;stroke-linejoin:miter;stroke-miterlimit:9;stroke-opacity:1;stroke-dasharray:none"
       d="m 2856,1332 c -58.5221,139.8403 -144.63,269.3684 -220,412 -255.7225,483.9344 22.2628,1205.9949 424,1424 -111.7311,-254.0672 -210.8155,-515.2961 -232,-744 79.0774,172.3064 214.2591,286.3522 352,344 -142.1567,-169.5637 -247.1442,-451.7736 -280,-672 112.1443,190.7095 318.5448,302.5478 516,324 -246.1034,-257.1745 -568.7335,-662.1575 -560,-1088 z"
       id="path4408"
       inkscape:connector-curvature="0"
       sodipodi:nodetypes="cscccccc" />
    <path
       style="fill:none;stroke:#f28e46;stroke-width:29;stroke-linecap:butt;stroke-linejoin:miter;stroke-miterlimit:4;stroke-opacity:1;stroke-dasharray:none"
       d="m 2696,1620 c 35.9208,395.9481 160.1186,750.7002 356,1072"
       id="path4410"
       inkscape:connector-curvature="0"
       sodipodi:nodetypes="cc" />
    <path
       style="fill:#f9ba61;fill-opacity:1;stroke:#f28e46;stroke-width:44;stroke-linecap:butt;stroke-linejoin:miter;stroke-miterlimit:4;stroke-opacity:1;stroke-dasharray:none"
       d="m 3056,904.00002 c 346.1675,-53.55115 676.3904,-7.33146 936,279.99998 45.8622,-176.3289 14.6359,-402.67139 -108,-615.99998 185.0136,54.98642 320.874,193.0671 444.4853,309.45584 C 4313.3736,599.31186 4043.1551,224.29343 3568,316.00001 c 104.9327,-100.40061 291.3426,-155.32411 460,-192 -351.6696,-193.032413 -859.7405,64.63314 -1064,436.00001 z"
       id="path4412"
       inkscape:connector-curvature="0"
       sodipodi:nodetypes="cccccccc" />
    <path
       style="fill:none;stroke:#f28e46;stroke-width:29;stroke-linecap:butt;stroke-linejoin:miter;stroke-miterlimit:4;stroke-opacity:1;stroke-dasharray:none"
       d="M 3917.3715,580.10205 C 3707.5339,455.44866 3413.2344,344.09984 3105.613,370.79843"
       id="path4414"
       inkscape:connector-curvature="0"
       sodipodi:nodetypes="cc" />
    <path
       style="fill:none;stroke:#f28e46;stroke-width:29;stroke-linecap:butt;stroke-linejoin:miter;stroke-miterlimit:4;stroke-opacity:1;stroke-dasharray:none"
       d="M 3990.9107,1176.9002 C 3893.4094,807.38539 3482.3863,421.75886 2967.0201,548.98934"
       id="path4416"
       inkscape:connector-curvature="0"
       sodipodi:nodetypes="cc" />
  </g>
  <g
     inkscape:groupmode="layer"
     id="layer15"
     inkscape:label="Forward Ear"
     style="display:inline"
     sodipodi:insensitive="true"
     transform="translate(876.68275,-36.207975)">
    <path
       style="fill:#e84958;fill-opacity:1;stroke:none"
       d="m 3135.9999,974.00015 c -37.7215,-209.37974 -116.7516,-465.87473 -276,-681.99999 -46,-90.21307 -92,-57.10141 -138,28 -107.2564,213.51624 -142.7053,431.81965 -90,656 35.7354,219.66764 142.3101,339.32684 268,431.99994 z"
       id="path4314"
       inkscape:connector-curvature="0"
       sodipodi:nodetypes="cccccc" />
    <path
       style="font-style:normal;font-variant:normal;font-weight:normal;font-stretch:normal;text-indent:0;text-align:start;text-decoration:none;line-height:normal;letter-spacing:normal;word-spacing:normal;text-transform:none;direction:ltr;block-progression:tb;writing-mode:lr-tb;text-anchor:start;baseline-shift:baseline;color:#000000;fill:#a5213a;fill-opacity:1;stroke:none;stroke-width:44;marker:none;visibility:visible;display:inline;overflow:visible;enable-background:accumulate;font-family:sans-serif;-inkscape-font-specification:sans-serif"
       d="m 2804.4414,222.87305 c -17.382,-0.12341 -33.5306,8.2765 -47.3047,20.96289 -13.7741,12.68638 -26.4873,30.06092 -40.0586,52.93945 -127.0911,214.25108 -151.7641,458.0272 -110.5508,667.52344 41.2134,209.49627 175.8898,420.04257 299.4911,442.17737 -88.5308,-68.3748 -216.9982,-250.7943 -256.3192,-450.67151 -39.321,-199.87718 -15.6604,-432.79472 105.2227,-636.58008 12.3116,-20.75495 23.3307,-35.01915 32.0234,-43.02539 8.6927,-8.00624 13.7454,-9.35254 17.1836,-9.32813 3.4382,0.0244 8.4581,1.60316 16.5234,8.87696 8.0654,7.2738 17.9958,19.75902 28.8418,36.63281 144.9096,225.44443 243.174,460.64114 284.2826,666.52126 -1.3179,-224.04081 -99.4142,-460.28281 -247.2708,-690.31228 -11.9901,-18.65369 -23.5068,-33.90156 -36.3848,-45.51562 -12.878,-11.61406 -28.2976,-20.07776 -45.6797,-20.20117 z"
       id="path4419"
       inkscape:connector-curvature="0"
       sodipodi:nodetypes="sssscsssssscsss" />
    <path
       style="fill:#a5213a;fill-opacity:1;stroke:none"
       d="m 2746.4027,631.01373 c -25.3596,191.56337 21.0364,419.19647 107.4803,565.68537 -53.8285,-152.9487 -83.5525,-374.14883 -107.4803,-565.68537 z"
       id="path4425"
       inkscape:connector-curvature="0"
       sodipodi:nodetypes="ccc" />
  </g>
  <!--Created by Sigma
      http://90sigma.deviantart.com/-->
</svg>
