<?xml version="1.0" encoding="UTF-8"?><svg xmlns="http://www.w3.org/2000/svg" xmlns:xlink="http://www.w3.org/1999/xlink" version="1.1" viewBox="0 0 6365.6108 6365.5953"><defs id="defs4"><linearGradient id="linearGradient4280"><stop id="stop4282" stop-color="#5abd45" offset="0"/><stop id="stop4284" stop-color="#277617" offset="1"/></linearGradient><clipPath id="clipPath4349" clipPathUnits="userSpaceOnUse"><path id="path4351" opacity=".5" style="color:#000000" d="m3941.1 324.5c12.854 50.419 19.074 102.33 18.188 151.83-0.8849 49.495-8.8734 96.531-23.363 137.57-14.49 41.034-35.47 76.034-61.358 102.36-25.889 26.327-56.666 43.961-90.012 51.573-33.346 7.6119-69.235 5.1956-104.96-7.0666-35.727-12.262-71.264-34.361-103.93-64.63-32.669-30.27-62.444-68.686-87.081-112.35-24.637-43.669-44.117-92.555-56.971-142.97-53.53-173.46 199.57-437.41 365.44-371.63 32.669 30.27 62.444 68.686 87.08 112.35 24.637 43.669 44.117 92.555 56.971 142.97z" stroke="#f00" stroke-width="1px" fill="#0f0"/></clipPath><clipPath id="clipPath4353" clipPathUnits="userSpaceOnUse"><path id="path4355" opacity=".5" style="color:#000000" d="m3687.8 1399.9c-3.0747 51.56-12.983 102.7-28.977 149.58-15.994 46.876-38.062 89.445-64.541 124.5s-57.348 62.568-90.28 80.466-67.902 26.166-102.27 24.182c-34.372-1.9843-68.119-14.22-98.698-35.784s-57.966-52.441-80.096-90.302-38.987-82.678-49.3-131.07c-10.313-48.394-14.074-100.33-10.999-151.89 1.6351-179.96 325.6-361.19 464.87-252.64 22.13 37.861 38.987 82.678 49.3 131.07 10.313 48.395 14.074 100.33 10.999 151.89z" stroke="#f00" stroke-width="1px" fill="#0f0"/></clipPath><clipPath id="clipPath4357" clipPathUnits="userSpaceOnUse"><path id="path4359" opacity=".5" style="color:#000000" d="m3731.5 1400.6c-1.4649 51.585-9.7759 102.75-24.307 149.65-14.531 46.899-35.27 89.489-60.654 124.56-25.384 35.072-55.394 62.599-87.767 80.506-32.373 17.906-67.085 26.179-101.52 24.194-34.434-1.9852-68.563-14.227-99.815-35.801-31.252-21.575-59.603-52.466-82.915-90.346-23.313-37.88-41.569-82.718-53.393-131.14-11.824-48.418-17.206-100.38-15.741-151.96-3.9836-180.05 314.33-361.37 456.98-252.77 23.312 37.88 41.569 82.718 53.392 131.14 11.824 48.418 17.206 100.38 15.741 151.96z" stroke="#f00" stroke-width="1px" fill="#0f0"/></clipPath><clipPath id="clipPath4361" clipPathUnits="userSpaceOnUse"><path id="path4363" opacity=".5" style="color:#000000" d="m3687.8 1399.9c-3.0747 51.56-12.983 102.7-28.977 149.58-15.994 46.876-38.062 89.445-64.541 124.5s-57.348 62.568-90.28 80.466-67.902 26.166-102.27 24.182c-34.372-1.9843-68.119-14.22-98.698-35.784s-57.966-52.441-80.096-90.302-38.987-82.678-49.3-131.07c-10.313-48.394-14.074-100.33-10.999-151.89 1.6351-179.96 325.6-361.19 464.87-252.64 22.13 37.861 38.987 82.678 49.3 131.07 10.313 48.395 14.074 100.33 10.999 151.89z" stroke="#f00" stroke-width="1px" fill="#0f0"/></clipPath><clipPath id="clipPath4365" clipPathUnits="userSpaceOnUse"><path id="path4367" opacity=".5" d="m3995.3 1565.2c-8.7114 41.754-18.65 81.932-4.8715 152.57 59.038 85.316 126.97 158.76 211.73 209.74-20.764-87.983-41.122-176.07-88.96-256.95-33.708-57.187-73.635-89.824-117.9-105.36z" stroke="#f00" stroke-width="1px" fill="#0f0"/></clipPath><clipPath id="clipPath4369" clipPathUnits="userSpaceOnUse"><path id="path4371" opacity=".5" d="m3321.9 2716.1c-21.109 37.063-42.901 72.25-51.472 143.7 29.996 99.32 72.097 190.08 137.11 264.61 7.2481-90.109 14.916-180.19-5.7842-271.85-14.524-64.774-42.504-108.09-79.858-136.47z" stroke="#f00" stroke-width="1px" fill="#0f0"/></clipPath><clipPath id="clipPath4373" clipPathUnits="userSpaceOnUse"><path id="path4375" opacity=".5" d="m3367.2 2690.7c-20.484 37.225-41.683 72.58-49.053 144.1 31.662 99.092 75.283 189.53 141.55 263.57 5.7335-90.166 11.888-180.31-10.351-271.81-15.611-64.663-44.316-107.77-82.142-135.86z" stroke="#f00" stroke-width="1px" fill="#0f0"/></clipPath><clipPath id="clipPath4377" clipPathUnits="userSpaceOnUse"><path id="path4379" opacity=".5" d="m3159.4 3725.2c-24.922 29.325-50.377 56.599-65.528 123.53 21.856 106.61 56.872 208.77 116.8 302.54 15.461-85.563 31.35-170.97 18.329-267.09-9.0946-67.894-33.882-119.21-69.601-158.98z" stroke="#f00" stroke-width="1px" fill="#0f0"/></clipPath><clipPath id="clipPath4381" clipPathUnits="userSpaceOnUse"><path id="path4383" opacity=".5" d="m4158 1060c-3.4903 42.51-8.3925 83.608 14 152 69.119 77.375 145.6 141.88 236 182-31.467-84.746-62.544-169.65-120-244-40.51-52.588-84.161-80.047-130-90z" stroke="#f00" stroke-width="1px" fill="#0f0"/></clipPath><linearGradient id="linearGradient4286" y2="1144.3" xlink:href="#linearGradient4280" gradientUnits="userSpaceOnUse" x2="3400" y1="1656.5" x1="3416.4"/><linearGradient id="linearGradient4288" y2="3733.9" xlink:href="#linearGradient4280" gradientUnits="userSpaceOnUse" x2="3133.7" y1="4031.2" x1="3124.1"/></defs><g display="none" transform="translate(876.68 -36.208)"><rect id="rect4317" style="color:#000000" display="inline" height="6584.6" width="4672.6" stroke="#0f0" y="-39.323" x="-33.941"/></g><g opacity=".2" display="none" transform="translate(876.68 -36.208)"><ellipse id="path4062" style="color:#000000" d="m 4632.6139,6138.8027 c 0,145.929 -815.9318,264.2278 -1822.4347,264.2278 -1006.5029,0 -1822.43469,-118.2988 -1822.43469,-264.2278 0,-145.929 815.93179,-264.2278 1822.43469,-264.2278 1006.5029,0 1822.4347,118.2988 1822.4347,264.2278 z" rx="1822.4" ry="264.23" transform="matrix(.99967 .025823 -.026870 .99964 0 0)" cy="6138.8" cx="2810.2" display="inline"/></g><g transform="translate(876.68 -36.208)"><path id="path4090" d="m4062.5 5474c111.86 108.09 180.74 299.84 188.79 492.3 5.7035 136.45-59.273 171.02-185.44 179.44-213.64 14.259-502.8 13.305-639.73 0.01-77.729-7.5496-144.78-27.629-165.44-115.41-39.251-166.79-36.615-334.43-32.02-501.64z" stroke="#dbcd86" stroke-width="44" fill="#e6e3a0"/><path id="path4180" fill="#cf335e" d="m3308 4060c-188.06 570.01-211.44 1112.6-144 1640 230.87 307.06 353.73 212.91 436-32 113.33 348.38 226.67 26.37 340-124 75.422 147.32 145.9 357.26 252 116-223.78-467.65-543.92-956.76-436-1792z"/><path id="path4071" d="m2562.2 5790.6 64.15 445.28c-178.74 22.882-365.05 26.967-550.94 7.5471l-22.641-467.92z" stroke="#dbcd86" stroke-width="44" fill="#e6e3a0"/><path id="path4178" fill="#cf335e" d="m2560 4244-532-36l-244 1544c154.36 122.06 316.79 302.22 420 56 49.415 135.99 171.69 268.76 308 20l-36-340c-153.31-203.62-177.24-425.73-32-672 101.26-164.89 192.64-333.86 116-572z"/><path id="path4067" d="m2558.5 4243.4c77.831 157.92-14.031 424.92-109.43 569.81-130.62 198.37-149.56 432.36 45.283 690.56" stroke="#a5213a" stroke-width="44" fill="none"/><path id="path4069" d="m2509.4 5820.8c-96.792 210.93-259.99 175.36-301.88-26.415-113.7 288.07-279.04 46.753-430.19-49.056" stroke="#a5213a" stroke-width="29" fill="none"/><path id="path4073" d="m3732.8 3871.3c-52.018 492.38 47.064 1020.7 218.48 1350.5 84.864 163.28 158.87 313.82 217.07 452.78-6.149 16.863-21.976 58.697-43.438 72.902-7.4365 4.9223-13.868 5.9971-21.158 4.9589-7.2905-1.0381-15.815-4.8649-25.199-12.096-37.537-28.923-82.532-110.83-118.96-207.05l-11.434-30.197-14.975 28.607c-38.172 72.929-74.36 135.47-107.78 183.05-33.421 47.58-64.568 79.936-89.332 92.898-12.382 6.481-22.55 8.2551-31.66 6.5625-9.1106-1.6926-18.229-6.9821-28.029-18.566-19.601-23.169-39.192-71.354-54.654-147.54l-11.156-54.971-16.883 53.49c-22.814 72.286-49.203 128.41-77.916 166.98s-58.991 59.185-90.855 64.035c-31.864 4.8502-67.375-5.6845-107.73-35.803-39.191-29.251-82.123-76.962-127.54-143.95l5.7188-0.7676c-77.527-577.61-56.241-1124.2 134.57-1619.3l-6.9981-2.6972-27.06-10.43-6.9981-2.6973c-194.33 504.21-215.28 1058.7-137.12 1641l7.4336-0.998c0.0001 0.0006-0.0001 0 0 0l0.4473 3.334 1.8711 2.7969c48.084 71.898 93.963 123.85 138.34 156.97 44.373 33.118 88.131 47.52 129.44 41.232 41.311-6.2881 78.113-32.887 109.75-75.387 24.473-32.874 46.281-75.613 65.766-127.61 13.576 51.263 29.546 87.548 49.443 111.07 12.896 15.242 28.117 25.235 44.871 28.348 16.755 3.1126 33.979-0.7847 50.406-9.3829 32.854-17.196 64.989-52.631 99.613-101.92 30.111-42.868 61.82-96.915 94.875-158.53 34.42 85.383 73.241 156.82 116.85 190.42 12.134 9.3492 25.026 15.871 38.812 17.834 13.786 1.9631 28.489-0.7018 40.801-9.1914 29.156-20.104 61.975-84.877 68.467-114.38-58.955-140.78-133.47-292.27-218.61-456.08-165.69-318.79-264.82-842.32-213.76-1325.6l-21.877-2.3106-14.361-2.0137c-0.023 0.1633-0.044 0.327-0.066 0.4903z" transform="translate(-.000035385)" fill="#a5213a"/></g><g display="none" transform="translate(876.68 -36.208)"><path id="path4109-8" d="m3758.8 3876c-55.063 657.5 83.32 1092.5 302.83 1511-306.31 111.06-626.82 179.51-985.66 132.97 21.825-496.33 108.6-1175.7 221.74-1546.7" display="inline" fill="#128480"/><path id="path4111" fill="#c5c245" d="m3894 5008c-236.09 55.944-490.7 71.136-780 10l-30 342c310.17 18.355 646.21 10.065 930-66z"/><path id="path4113" fill="#e7e7d9" d="m3922 5098c-255.8 87.679-538.97 74.482-822 44l-6 104c309.95 22.563 615.38 38.087 872-48z"/><path id="path4109" d="m3758.8 3876c-55.063 657.5 83.32 1092.5 302.83 1511-306.31 111.06-626.82 179.51-985.66 132.97 21.825-496.33 108.6-1175.7 221.74-1546.7" stroke="#065c59" stroke-width="44" fill="none"/></g><g transform="translate(876.68 -36.208)" stroke="#f28e46"><path id="path4102" d="m1424 2884c-359.3-502-809.05-526.2-1108-208-298.95 318.23-366.79 885.32 12 1148-13.457-72-25.1-144-28-216 66.438 192.62 234.86 419.69 372.08 539.31-48.183-178.92-104.72-343.7-77.74-536.77 63.026 184.11 205.1 391.29 341.46 500.57-230.63-440.5-102.34-1031.8 336.2-907.1z" stroke-miterlimit="9" stroke-width="44" fill="#f9ba61"/><path id="path4104" d="m1332.2 2995.6c-314.8-174.8-1081.9-32.3-1023.9 639.2" stroke-width="29" fill="none"/><path id="path4106" d="m1360.5 2924.9c-680.32-401.7-1175 88.6-1066.3 692.9" stroke-width="29" fill="none"/></g><g transform="translate(876.68 -36.208)"><path id="path4203" fill="#e84958" d="m2777.5 1963.2-79.196 919.24c-269.49-144.38-543.72-255.6-834.39-251.73-249.4 56.296-499.52 110.59-644.88 458.21-85.446 295.51-32.167 605.88 181.02 933.38 91.268 130.53 184.89 261.66 234.76 381.84-156.02 28.837-299.18 68.695-308.3 223.45l924.9-325.27c116.98 89.095 240.06 135.44 367.7 149.91l458.21-2.8284c500.65-143.95 856.05-393.9 962.67-825.39 193.15-498.29-29.09-1016.8-264-1536z"/><path id="path4103" d="m2047.8 5614c112.4 154.59 200.59 324.79 266.36 465.03 67.258 143.42-7.6306 195.2-131.08 202.33-243.01 14.044-491.4 12.082-733.73-10-140.84-12.833-206.57-74.498-170.88-221.1 214.06-208.99 464.83-362.92 769.33-436.26z" stroke="#dbcd86" stroke-width="44" fill="#fefaad"/><path id="path4200" fill="#e84958" d="m2257.1 4299.5c-99.443-74.049-183.32-174.04-260.22-285.67l-367.7 387.49c-129.23 35.406-277.16 45.42-305.47 217.79-41.19 504.4-46.827 1008.8-59.397 1513.2 101.64 64.801 157.28-16.098 214.96-90.51 51.115 224.64 213.96 17.356 294.16-209.3 94.456 292.07 329.93 164.88 322.44-152.74-192.38-283.23-280.15-588.48-45.255-961.67 76.537-124.11 158.73-236.91 206.48-418.61z"/><path id="path4139" d="m2495.6 6147.2c6.0347 79.199 8.3509 135.78 57.012 147.74 294.88 72.448 587.16 103.92 877.34 73.061 152.12-16.175 179.78-101.21 166-224-19.839-176.82-87.283-323.76-194-458-391.34 24.858-647.2 245.41-906.36 461.2z" stroke="#dbcd86" stroke-width="44" fill="#fefaad"/><path id="path4198" fill="#e84958" d="m2644 4320c-172.95 668.27-297.79 1322.6-144 1896 124.14 25.398 173.02-69.052 216.49-153.66 78.505 166.68 145.7 38.493 235.51-178.34 108.06 344.83 224.74 60.59 340-120 66.548 134.93 165.67 322.05 236 120-228.64-502.99-488.94-994.55-456-1592z"/><path id="path4116" fill="#a5213a" d="m2755.7 1977.3c-26.872 201.31-44.872 402.48-58.264 603.5-10.179 152.79-19.696 363.49 6.2793 486.53 9.9751-118.96 27.478-331.32 37.623-483.61 13.348-200.35 31.27-400.55 57.975-600.61z"/><path id="path4083" d="m3784 2108c288.5 604.09 392.23 1000.1 291.38 1416.8-100.9 416.7-398.3 783.9-993.4 921.2" stroke="#a5213a" stroke-width="44" fill="none"/><path id="path4085" fill="#a5213a" d="m1999.6 4012.8c87.131 215.15 349.08 425.92 601.7 457.01l5.375-43.672c-235.93-29.037-464.2-224.49-607.07-413.33z"/><path id="path4091" fill="#a5213a" d="m1917.6 2613.7c-415.76 2.4391-734.24 291.57-757.27 688.88-16.03 276.61 81.797 523.84 224.13 742.99 93.655 144.2 231.28 311.9 279.25 424.18 2.7212-128.14-151.66-308.51-242.35-448.15-139.13-214.21-232.45-451.69-217.1-716.48 22.452-387.43 337.24-662.78 752.18-646.8 273.28 10.523 509.03 119.7 731.2 243.31l21.393-38.449c-224.09-124.68-466.91-237.9-750.9-248.83-13.607-0.524-27.12-0.7428-40.531-0.6641z"/><path id="path4097" d="m2238.5 4283.5c-34.421 164.89-114.01 277.12-192.82 396.37-93.65 141.7-156.17 294.29-158.44 463.78-2.2677 169.5 55.874 354.64 198.71 560.87 0.7576 35.386-11.69 103.09-26.098 141.41-27.63 73.47-70.828 119.84-112.2 134.59-32.716 11.663-64.089 6.0232-92.934-21.498-28.844-27.521-54.18-78.661-66.357-157.24l-10.91-70.416-17.475 69.08c-39.237 155.11-111.94 264.8-168.64 304.94-14.176 10.035-27.146 15.614-37.529 17.227-10.383 1.6125-17.851-0.1295-24.684-5.209-13.664-10.159-26.148-39.819-24.594-94.988l1.7579-62.35-29.08 55.182c-24.319 46.149-60.133 89.397-96.524 111.24-18.195 10.92-36.197 16.481-53.16 15.805-12.916-0.5152-25.563-4.4273-38.314-13.369 19.416-488.73 27.951-1089.8 59.289-1485.5 4.2275-53.375 15.245-93.392 34.812-121.11 19.568-27.722 47.632-45.436 94.371-54.158 52.936-9.8792 116.02-10.719 171.11-48.783l-25.014-36.197c-41.873 28.935-96.42 30.95-154.16 41.726-54.764 10.22-95.846 34.639-122.25 72.039-26.4 37.4-38.171 85.494-42.726 143.01-31.595 398.91-40.03 1000.6-59.449 1488.6 16.843 23.779 30.609 40.137 81.18 42.658 24.04 1.1983 47.536-6.8934 69.238-19.918 31.09-18.658 59.122-48.016 82.217-81.422 4.485 33.208 15.49 56.99 33.998 70.75 13.261 9.8593 29.954 13.152 46.438 10.592 16.484-2.5598 33.089-10.36 49.834-22.213 58.833-41.646 121.93-134.71 163.86-265.2 14.565 52.357 36.172 90.793 62.752 116.15 35.528 33.898 80.904 42.731 122.69 27.834 53.288-18.996 104.55-71.347 130.81-153.04 20.36-63.322 32.678-137.61 33.915-175.32-139.02-200.72-193.01-376.17-190.88-535.23 2.128-159.06 60.532-302.99 151.15-440.11 78.268-118.43 162.8-237.35 199.18-411.63z" transform="translate(-.000035385)" fill="#a5213a"/><path id="path4120" d="m2578.8 4531.7c-142.29 593.71-230.18 1171.1-99.811 1679.6 4.9596 2.5111 9.8982 5.0641 14.879 7.5332 56.983 28.248 108.47 16.39 147.27-17.031 31.063-26.757 55.675-65.934 76.846-109.14 13.079 31.928 28.695 51.626 49.428 59.535 13.7 5.2262 28.674 3.6619 41.785-2.3574 13.111-6.0195 25.059-16.022 36.713-28.783 39.792-43.572 77.53-121.38 109.66-204.92 14.874 51.771 31.308 88.736 51.104 112.83 12.559 15.284 27.055 25.635 43.268 29.43 16.213 3.7945 33.122 0.6464 49.078-7.3105 31.912-15.914 62.718-49.963 96.77-98.34 29.522-41.941 61.23-95.452 95.26-157.32 26.072 69.595 63.79 139.29 106.43 177.3 24.492 21.831 54.912 36.368 81.75 22.728 48.853-24.828 65.171-78.488 71.951-107.55-190.28-435.51-424.14-857.49-454.22-1386-4.8258-84.783-10.407-198.31-22.413-269.03-14.006 63.275-26.444 184.51-21.558 270.92 30.514 539.6 268.67 968.68 457.87 1401.7-5.3114 14.49-21.248 53.928-42.608 63.094-14.661 6.2915-31.119 0.6105-51.476-17.535-40.715-36.291-84.315-119.8-109.02-195.58l-10.49-32.176-16.059 29.789c-39.872 73.962-76.26 136.24-109.13 182.94-32.873 46.702-62.775 77.499-85.998 89.08-11.612 5.7904-20.877 7.0519-29.527 5.0273-8.6506-2.0246-17.708-7.722-27.471-19.604-19.525-23.763-39.5-71.663-56.994-145.89l-11.295-47.926-16.482 46.398c-34.665 97.59-79.871 194.62-119.81 238.36-9.9858 10.934-19.522 18.368-27.398 21.984-7.8761 3.6161-13.394 3.8891-19.35 1.6172-11.912-4.5439-29.403-25.928-43.859-75.188l-11.215-38.211-15.98 36.475c-23.76 54.228-51.926 103.61-84.482 131.65-29.202 25.155-59.775 35.007-100.88 19.396-126.7-495.58-41.013-1065.9 100.15-1656.4 24.683-103.25 37.062-213.13 71.792-314.75-67.27 98.381-89.693 200.25-114.47 303.63z" transform="translate(-.000035385)" fill="#a5213a"/> </g><g transform="translate(876.68 -36.208)"><path id="path4199" fill="#d6fe86" d="m1538.7 3156.8c5.9831-113.41-32.562-167.46-70.711-222.03 31.914-42.568 50.854-98.11 67.882-155.56 50.992 53.571 61.152 237.78 49.498 374.77z"/><path id="path4197" fill="#5abd45" d="m1557 3158.2c107.14-70.513 230.62-268.33 210.72-425.68-127.31 60.104-212.82 265.12-210.72 425.68z"/><path id="path4195" fill="#2c8f28" d="m1558.5 3137c21.146-130.71 99.886-267.93 195.16-380.42-76.832 120.76-147.26 253.13-178.19 383.25z"/><path id="path4193" fill="#89d457" d="m1546 3146c99.058-153.83 263.27-176.55 316-6 57.382 185.6 79.547 419.87 18.712 625.02-18.959 63.934-64.889 133.1-90.712 182.98-34.092 65.842-78.991 165.27-132 82-25.686 43.293-57.655 20.624-94-48-29.908 65.148-70.23 13.273-80-34-12.333-59.671-73.323-124.05-118-194-109.13-170.85-124.98-443.8-14-658 82.09-158.45 166.22-63.223 194 50z"/><path id="path4191" fill="#b5f778" d="m1561.3 3753.6c24.037 58.989 78.171 106.99 124.45 45.255 103.44-137.98 112.05-337.98 43.841-470.93-36.411-70.975-163.57-59.408-192.33 96.166-54.106-131.61-139.53-242.98-172.53-79.196-31.345 155.54 34.294 322.31 118.79 442.65 48.302 68.788 61.472 18.489 77.782-33.941z"/><path id="path4189" fill="#5abd45" d="m1546 3276c-33.291 121.89-9.0199 570.14 42 668-19.95-105.76-49.135-548.73-42-668z"/><path id="path4142" fill="#ae8936" d="m1596 3561c-2.0962-24.036 22.969-23.859 24 0 0.8975 20.764-2.2179 41.333-7 62-8.9404-20.333-15.206-41.423-17-62z"/><path id="path4142-5" fill="#ae8936" d="m1557 3476.4c-1.6645-24.036 18.238-23.859 19.057 0 0.7127 20.764-1.7611 41.333-5.5584 62-7.0992-20.333-12.074-41.423-13.499-62z"/><path id="path4142-8" fill="#ae8936" d="m1481.3 3458.7c0.1128-24.024 21.071-19.377 20.08 4.2836-0.8617 20.591-5.0658 40.274-10.672 59.755-5.9011-21.602-9.505-43.472-9.4083-64.039z"/><path id="path4142-4" fill="#ae8936" d="m1489.9 3559.4c-0.1044-24.127-25.049-21.666-23.9 2.1885 0.9997 20.759 5.9778 40.959 12.625 61.103 7.049-21.064 11.365-42.637 11.275-63.292z"/><path id="path4142-44" fill="#ae8936" d="m1524.5 3573.3c-0.4681-24.121-21.207-21.187-19.873 2.6412 1.1606 20.736 5.6262 40.838 11.481 60.853 5.5389-21.194 8.793-42.845 8.3923-63.494z"/><path id="path4142-1" fill="#ae8936" d="m1489 3687.3c-1.9632-22.553 21.511-22.387 22.477 0 0.8406 19.483-2.0771 38.783-6.5558 58.175-8.373-19.079-14.241-38.868-15.921-58.175z"/><path id="path4142-13" fill="#ae8936" d="m1570 3654.7c-1.8834-21.663 20.637-21.504 21.563 0 0.8064 18.714-1.9927 37.253-6.2893 55.88-8.0326-18.326-13.662-37.334-15.274-55.88z"/></g><g display="none" transform="translate(876.68 -36.208)"><path id="path4207" fill="#14918e" d="m2708 2764 1020 496 372-288c2.4899 300 30.136 600-152 900-209.07 289.64-467.97 521.15-868 588l-496 4c-158.79-31.169-319.42-97.428-468-224-99.873-492.92 31.03-992.43 304-1496 85.014 35.361 176.33 83.322 272 140z"/><path id="path4205" fill="#14918e" d="m2395.7 5747.6c356.11 26.258 696.97-8.4719 1015.4-132.94-176.59-356.03-328.54-742.07-333.75-1306.7l-432.75 16.971c-151.3 477.65-248.18 952.58-248.9 1422.7z"/><path id="path4228" fill="#e7dd46" d="m2689.8 2970.1c369.63 373.51 609.93 919.28 774.99 1295.4 269.81-175.47 472.09-423.12 593.97-701.45l-161.22-107.48-659.02-22.627-263.04-367.7-271.53-231.93z"/><path id="path4230" fill="#fff" d="m2794.5 2808.9 203.65 288.5c221.45 264.48 404.56 581.24 543.06 958.84 168.69-130.24 326.18-281.88 412.95-568.51l161.22-339.41-11.314-186.68-381.84 305.47z"/><path id="path4208" d="m2702 2884c-81.611-58.741-176.81-110.03-284-144-221.81 323.03-424.62 1008.4-296.68 1500.1 146.48 112.24 298.79 205.56 475.18 220.62" stroke="#065c59" stroke-width="44" fill="none"/><path id="path4210" d="m2538 2788c-330.28 513.68-367.33 1027.9-292.23 1534.1" stroke="#065c59" stroke-width="29" fill="none"/><path id="path4212" d="m2394.3 3045.1-117.38-38.184m-4.2426 391.74-118.79-22.627m-63.64 408.71 124.45 11.314m-117.38 301.23 125.86 29.698" stroke="#065c59" stroke-width="29" fill="none"/><path id="path4216" fill="#e7dd46" d="m3364 5516c-296.51 71.885-605.74 92.925-950 52l30-320c268.44 34.221 534.16 42.547 792-24z"/><path id="path4218" fill="#fff" d="m3280 5322c-281.33 83.896-562.67 77.585-844 34l-14 110c308.26 33.947 613.07 34.688 894-52z"/><path id="path4226" d="m2992.5 3088.9c217.71 255.45 400.76 573.3 543.06 964.49 238-153.32 362.01-376 421.44-577" stroke="#deca36" stroke-width="29" fill="none"/><ellipse id="path4232" style="color:#000000" d="m 5219.2346,1424.2461 c 0,35.2969 -21.5838,63.9107 -48.2087,63.9107 -26.625,0 -48.2088,-28.6138 -48.2088,-63.9107 0,-35.2969 21.5838,-63.9107 48.2088,-63.9107 26.6249,0 48.2087,28.6138 48.2087,63.9107 z" rx="48.209" ry="63.911" transform="matrix(.86924 .49439 -.55739 .83025 0 0)" cy="1424.2" cx="5171" display="inline" fill="#14918e"/><ellipse id="path4234" style="color:#000000" d="m 5178.3286,1307.1316 c 0,33.1371 -19.6995,60 -44,60 -24.3005,0 -44,-26.8629 -44,-60 0,-33.1371 19.6995,-60 44,-60 24.3005,0 44,26.8629 44,60 z" rx="44" ry="60" transform="rotate(32.736)" cy="1307.1" cx="5134.3" display="inline" fill="#14918e"/><path id="path4214" fill="#065c59" d="m2538.7 4610.9c-117.13 445.61-139.03 790.62-160.62 1135.7l-1.3555 21.66 21.641 1.6484c346.71 26.422 695.04-16.987 1026.6-133.17l24.383-8.5429-12.32-22.711c-153.41-282.74-271.1-606.26-312.64-951.95-16.465-137.02-23.861-319.53-43.9-431.38-18.039 106.15-16.54 297.2 0.2142 436.63 41.147 342.42 155.94 662.87 305.44 944.59-311.37 105.55-637.73 146.05-962.75 124.05 21.173-337.61 44.263-673.17 157.86-1105.3 31.117-118.39 63.032-274.03 114.06-394.7-78.969 109.32-125.21 264.03-156.62 383.52z"/><path id="path4209" fill="#deca36" d="m2700.3 2960.1-11.475 30.074c319.37 339.71 559.16 785.85 762.54 1280.8l6.5098 15.848 14.553-9.041c290.3-180.35 472.02-433.53 602.34-719.06l-26.383-12.041c-126.58 277.35-300.69 521.16-576.87 697.31-204.6-495.2-446.6-942.6-771.1-1283.9z"/><path id="path4224" d="m3084 4460c803-235.3 1117-749.6 1012.8-1495.8l-368.8 295.8-947.5-457.7" stroke="#065c59" stroke-width="44" fill="none"/><path id="path4202" fill="#065c59" d="m2694 2579c-6.65 140-6.2629 291.57-12.293 450.78 55.97-152.79 49.6-308.86 56.242-448.69z"/></g><g display="none" transform="translate(876.68 -36.208)"><path id="path4245-9" d="m3613.3 3346.3c74.807-108.89 269.25-111.86 305.47 15.556 20.447 71.93 20.497 146.48-14.142 216.37-47.258 95.353-211.86 79.574-281.43-4.2427" display="inline" fill="#faf4c6"/><path id="path4247-0" d="m3899 3325.1c58.429-81.297 126.71-135.35 199.4-186.68 102.39-72.29 193.7-30.739 200.82 63.64 8.5724 113.69 5.519 226.58-21.213 349.31-18.036 82.802-48.859 107.13-123.04 91.924-76.084-15.593-156.92-54.726-237.59-93.338" display="inline" fill="#faf4c6"/><path id="path4251" fill="#57c5c0" d="m3928.7 3414.2c-74.56 19.565-150.77 24.264-229.1 9.8995l-15.556 113.14c76.839 18.948 153.68 17.44 230.52 14.142z"/><path id="path4243-2-9" d="m3700.8 3423.8c-120.01-114.86-250.3-206.76-425.52-238.76-72.894-13.312-118.69 14.353-115.97 114.55 3.2551 119.82 17.541 233.92 52.326 328.1 25.37 68.685 69.685 102.54 158.39 73.539 106.3-34.748 245.4-98.997 328.44-206.65" display="inline" fill="#faf4c6"/><path id="path4245" d="m3613.3 3346.3c74.807-108.89 269.25-111.86 305.47 15.556 20.447 71.93 20.497 146.48-14.142 216.37-47.258 95.353-211.86 79.574-281.43-4.2427" stroke="#529b8c" stroke-width="29" fill="none"/><path id="path4249" fill="#57c5c0" d="m4227.1 3639c-1.4854-182.95-44.871-356.16-159.81-479.42l-113.14 97.581c62.046 100.8 128.5 243.05 93.338 350.72 60.358 15.272 122.66 49.983 179.61 31.113z"/><path id="path4253" fill="#57c5c0" d="m3285.2 3186.5c85.542 148.26 150.56 304.72 140.01 497.8l127.28-65.054c-5.0191-123.97-22.932-245.59-69.296-362.04z"/><path id="path4243-2" fill="#529b8c" d="m3249.7 3167.6c-27.346-1.0138-51.691 4.9675-70.274 21.305-24.776 21.783-35.969 58.785-34.547 111.13 3.2796 120.72 17.562 236.19 53.219 332.73 13.367 36.19 32.601 65.478 62.258 81.189 29.657 15.712 67.625 16.348 114.24 1.1094 98.629-32.241 225.55-89.174 312.38-184.18l0.079-45.103c-79.959 103.66-216.63 167.45-321.46 201.72-42.092 13.759-70.634 11.968-91.654 0.832s-36.629-33.117-48.631-65.611c-33.913-91.815-48.203-204.55-51.434-323.47-1.3002-47.856 9.0433-74.787 24.707-88.559 15.664-13.771 39.986-17.575 74.158-11.334 171.64 31.346 299.09 121.07 418.1 234.97l1.6591-38.29c-116.15-107.8-244.76-194.2-414.55-225.21-9.6802-1.7678-19.129-2.8828-28.244-3.2207z"/><path id="path4237" fill="#529b8c" d="m3681.6 3359.3c11.587 58.031-0.091 170.62-11.091 201.33 44.001-19.282 48.504-154.36 11.091-201.33z"/><path id="path4247" d="m3899 3325.1c58.429-81.297 126.71-135.35 199.4-186.68 102.39-72.29 193.7-30.739 200.82 63.64 8.5724 113.69 5.519 226.58-21.213 349.31-18.036 82.802-48.859 107.13-123.04 91.924-76.084-15.593-156.92-54.726-237.59-93.338" stroke="#529b8c" stroke-width="29" fill="none"/></g><g transform="translate(876.68 -36.208)"><path id="path4287" d="m4168.5 1076.5c89.195-201.14 79.828-454.95 60.013-700.03-6.3705-78.796-38.985-100.48-107.48-48.083-205.63 157.29-296.24 355.36-325.27 582.66" stroke="#a5213a" stroke-width="44" fill="#e84958"/><path id="path4289" fill="#e84958" d="m4452 1452c-104.5-251.8-276.9-501.52-520-700l-892-28-240 788 240 572c262.82 66.308 519.6 199.08 792 160 208.92-37.768 417.47-74.196 668-268 50.346-164.94 45.324-307.73 44-452z"/><path id="path4256" fill="#a5213a" d="m4143.7 1085.2c-7.5501 150.33 97.867 236.25 181.73 294.83 68.216 47.649 134.2 95.847 193.26 153.93 11.198 148.4 0.3703 290-41.781 429.12-292.65 236.31-779.64 380.39-1159.7 156.97 315.95 278.58 888.9 121.23 1192.7-127.01 3.3227-2.7149 5.823-6.4232 7.0938-10.522 46.473-149.88 57.673-302.31 44.914-460.29-0.4158-5.1427-2.7097-10.113-6.3535-13.766-63.656-63.809-134.09-114.98-204.98-164.5-84.664-59.138-173.37-113.09-206.92-258.76z"/><ellipse id="path4258" style="color:#000000" d="m 2463.6373,3092.45 c 0,23.0473 -10.2008,41.7309 -22.784,41.7309 -12.5833,0 -22.784,-18.6836 -22.784,-41.7309 0,-23.0474 10.2007,-41.731 22.784,-41.731 12.5832,0 22.784,18.6836 22.784,41.731 z" rx="22.784" ry="41.731" transform="matrix(.88426 -.46699 .33261 .94306 0 0)" cy="3092.4" cx="2440.9" fill="#ffecbc"/><ellipse id="path4260" style="color:#000000" d="m 2094.0846,3220.0525 c 0,17.5736 -10.7638,31.8198 -24.0416,31.8198 -13.2779,0 -24.0417,-14.2462 -24.0417,-31.8198 0,-17.5736 10.7638,-31.8198 24.0417,-31.8198 13.2778,0 24.0416,14.2462 24.0416,31.8198 z" rx="24.042" ry="31.82" transform="rotate(-28.158)" cy="3220.1" cx="2070" fill="#ffecbc"/><ellipse id="path4262" style="color:#000000" d="m 1687.2246,3400.002 c 0,19.9167 -11.3969,36.0624 -25.4558,36.0624 -14.0589,0 -25.4558,-16.1457 -25.4558,-36.0624 0,-19.9168 11.3969,-36.0625 25.4558,-36.0625 14.0589,0 25.4558,16.1457 25.4558,36.0625 z" rx="25.456" ry="36.062" transform="rotate(-33.34)" cy="3400" cx="1661.8" fill="#ffecbc"/><path id="path4268" fill="#a5213a" d="m4236 1564c-1.0619 95.112 97.002 129.4 128 46-52.668 19.004-98.59 12.085-128-46z"/><path id="path4268-7" fill="#a5213a" d="m4505.7 1486.4c57.742 75.586-0.3368 161.72-75.062 113.43 53.574-16.274 86.237-49.287 75.062-113.43z"/><path id="path4285" fill="#a5213a" d="m4532 1796c-190.98 94.159-357.64 93.636-506 28 152.86 122.32 339.47 106.47 500 16z"/></g><g transform="translate(876.68 -36.208)"><path id="path4339" clip-path="url(#clipPath4381)" fill="#fff" d="m4399.6 1384.8c-192.16-67.056-248.12-191.12-280.01-325.27 39.598-10.641 79.196-4.7999 118.79 7.0711 71.551 101.21 130.99 205.72 161.22 318.2z"/><path id="path4329" clip-path="url(#clipPath4361)" fill="#fff" d="m3648 1096c-303.11-57.542-458.93 100.47-544 362 22.491 233.19 129.11 365.83 370 338 290.94-166.32 268.79-422.71 174-700z"/><ellipse id="path4323" style="color:#000000" d="m 3688.3878,1378.8926 c 0,200.2259 -125.3666,362.5411 -280.0143,362.5411 -154.6476,0 -280.0142,-162.3152 -280.0142,-362.5411 0,-200.226 125.3666,-362.5412 280.0142,-362.5412 154.6477,0 280.0143,162.3152 280.0143,362.5412 z" clip-path="url(#clipPath4357)" rx="280.01" ry="362.54" transform="matrix(1 0 -.031207 .99951 0 0)" cy="1378.9" cx="3408.4" fill="url(#linearGradient4286)"/><ellipse id="path4325" style="color:#000000" d="m 3536,1396 c 0,150.2215 -92.6771,272 -207,272 -114.3229,0 -207,-121.7785 -207,-272 0,-150.2215 92.6771,-272 207,-272 114.3229,0 207,121.7785 207,272 z" clip-path="url(#clipPath4353)" rx="207" ry="272" cy="1396" cx="3329"/><ellipse id="path4327" style="color:#000000" d="m 3663.7442,526.7561 c 0,121.54125 -62.6167,220.0699 -139.8582,220.0699 -77.2416,0 -139.8582,-98.52865 -139.8582,-220.0699 0,-121.54125 62.6166,-220.0699 139.8582,-220.0699 77.2415,0 139.8582,98.52865 139.8582,220.0699 z" clip-path="url(#clipPath4349)" rx="139.86" ry="220.07" transform="matrix(.96092 .27683 -.30597 .95204 0 0)" cy="526.76" cx="3523.9" fill="#fff"/><ellipse id="path4331" style="color:#000000" d="m 3219.8805,3901.2712 c 0,120.5481 -43.0338,218.2716 -96.1188,218.2716 -53.0849,0 -96.1188,-97.7235 -96.1188,-218.2716 0,-120.548 43.0339,-218.2715 96.1188,-218.2715 53.085,0 96.1188,97.7235 96.1188,218.2715 z" clip-path="url(#clipPath4377)" rx="96.119" ry="218.27" transform="matrix(.72746 -.68615 .49922 .86648 0 0)" cy="3901.3" cx="3123.8" fill="url(#linearGradient4288)"/><ellipse id="path4333" style="color:#000000" d="m 3426.2099,2894.5591 c 0,100.06 -33.7571,181.1748 -75.3986,181.1748 -41.6415,0 -75.3986,-81.1148 -75.3986,-181.1748 0,-100.0601 33.7571,-181.1748 75.3986,-181.1748 41.6415,0 75.3986,81.1147 75.3986,181.1748 z" clip-path="url(#clipPath4373)" rx="75.399" ry="181.17" transform="matrix(.90974 -.41518 .40684 .91350 0 0)" cy="2894.6" cx="3350.8"/><ellipse id="path4335" style="color:#000000" d="m 3330.4889,2897.5798 c 0,32.8041 -14.8794,59.397 -33.234,59.397 -18.3547,0 -33.234,-26.5929 -33.234,-59.397 0,-32.804 14.8793,-59.3969 33.234,-59.3969 18.3546,0 33.234,26.5929 33.234,59.3969 z" clip-path="url(#clipPath4369)" rx="33.234" ry="59.397" transform="matrix(.90653 -.42213 .42213 .90653 0 0)" cy="2897.6" cx="3297.3" fill="#fff"/><ellipse id="path4337" style="color:#000000" d="m 4107.9012,1814.6046 c 0,16.402 -7.598,29.6985 -16.9705,29.6985 -9.3726,0 -16.9706,-13.2965 -16.9706,-29.6985 0,-16.402 7.598,-29.6985 16.9706,-29.6985 9.3725,0 16.9705,13.2965 16.9705,29.6985 z" clip-path="url(#clipPath4365)" rx="16.971" ry="29.698" transform="rotate(-7.0913)" cy="1814.6" cx="4090.9" fill="#fff"/></g><g opacity=".5" transform="translate(876.68 -36.208)" display="none"><ellipse id="path4292" style="color:#000000" d="m 3764.612,1185.079 c 0,217.9249 -117.7579,394.5879 -263.0197,394.5879 -145.2618,0 -263.0197,-176.663 -263.0197,-394.5879 0,-217.92489 117.7579,-394.58791 263.0197,-394.58791 145.2618,0 263.0197,176.66302 263.0197,394.58791 z" rx="263.02" ry="394.59" transform="matrix(.99834 .057634 -.059529 .99823 0 0)" cy="1185.1" cx="3501.6" display="inline" fill="#ff0"/><path id="path4292-9" style="color:#000000" d="m3764.6 1185.1c0 51.651-6.8457 103.28-20.021 151-13.176 47.72-32.67 91.49-57.016 128.01-24.345 36.523-53.521 65.77-85.33 85.536-31.808 19.766-66.224 30.036-100.65 30.036-34.429 0-68.845-10.27-100.65-30.036-31.808-19.766-60.985-49.013-85.33-85.536s-43.84-80.294-57.016-128.01c-13.176-47.72-20.021-99.351-20.021-151-9.0804-179.75 303.52-379.36 449-279.02 24.345 36.523 43.84 80.294 57.016 128.01 13.176 47.72 20.021 99.351 20.021 151z" transform="matrix(.99834 .057634 -.059529 .99823 0 0)" display="inline" stroke="#f00" stroke-width="1px" fill="#0f0"/><path id="path4310" d="m4158 1060c-3.4903 42.51-8.3925 83.608 14 152 69.119 77.375 145.6 141.88 236 182-31.467-84.746-62.544-169.65-120-244-40.51-52.588-84.161-80.047-130-90z" stroke="#f00" stroke-width="1px" fill="#0f0"/></g><g transform="translate(876.68 -36.208)"><path id="path4405" d="m4426.5 1423c-24.4-167-231.9-514.06-497.8-673.19" stroke="#a5213a" stroke-width="44" fill="none"/><path id="path4256-3" fill="#a5213a" d="m4143.7 1085.2c-7.5501 150.33 97.867 236.25 181.73 294.83 68.216 47.649 134.2 95.847 193.26 153.93l43.27-11.736c-0.4158-5.1427-2.7097-10.113-6.3535-13.766-63.656-63.809-134.09-114.98-204.98-164.5-84.664-59.138-173.37-113.09-206.92-258.76z"/><path id="path4401" d="m3666 1128c-253.93-91.256-483.47 88.975-568 428-2.0081-410.68 417.03-596.79 568-428z"/><path id="path4403" d="m4130 1068c71.313-51.048 171.86 57.511 178 120-49.086-68.464-105.02-117.92-178-120z"/></g><g transform="translate(876.68 -36.208)" stroke="#f28e46"><path id="path4408" d="m2856 1332c-58.522 139.84-144.63 269.37-220 412-255.72 483.93 22.263 1206 424 1424-111.73-254.07-210.82-515.3-232-744 79.077 172.31 214.26 286.35 352 344-142.16-169.56-247.14-451.77-280-672 112.14 190.71 318.54 302.55 516 324-246.1-257.17-568.73-662.16-560-1088z" stroke-miterlimit="9" stroke-width="44" fill="#f9ba61"/><path id="path4410" d="m2696 1620c35.921 395.95 160.12 750.7 356 1072" stroke-width="29" fill="none"/><path id="path4412" d="m3056 904c346.17-53.551 676.39-7.3315 936 280 45.862-176.33 14.636-402.67-108-616 185.01 54.986 320.87 193.07 444.49 309.46-15.1-278.15-285.3-653.17-760.5-561.46 104.93-100.4 291.34-155.32 460-192-351.67-193.03-859.74 64.633-1064 436z" stroke-width="44" fill="#f9ba61"/><path id="path4414" d="m3917.4 580.1c-209.9-124.65-504.2-236-811.8-209.3" stroke-width="29" fill="none"/><path id="path4416" d="m3990.9 1176.9c-97.5-369.51-508.5-755.14-1023.9-627.91" stroke-width="29" fill="none"/></g><g transform="translate(876.68 -36.208)"><path id="path4314" fill="#e84958" d="m3136 974c-37.722-209.38-116.75-465.87-276-682-46-90.213-92-57.101-138 28-107.26 213.52-142.71 431.82-90 656 35.735 219.67 142.31 339.33 268 432z"/><path id="path4419" fill="#a5213a" d="m2804.4 222.87c-17.382-0.12341-33.531 8.2765-47.305 20.963s-26.487 30.061-40.059 52.939c-127.09 214.25-151.76 458.03-110.55 667.52 41.213 209.5 175.89 420.04 299.49 442.18-88.531-68.375-217-250.79-256.32-450.67-39.321-199.88-15.66-432.79 105.22-636.58 12.312-20.755 23.331-35.019 32.023-43.025 8.6927-8.0062 13.745-9.3525 17.184-9.3281 3.4382 0.0244 8.4581 1.6032 16.523 8.877 8.0654 7.2738 17.996 19.759 28.842 36.633 144.91 225.44 243.17 460.64 284.28 666.52-1.3179-224.04-99.414-460.28-247.27-690.31-11.99-18.654-23.507-33.902-36.385-45.516s-28.298-20.078-45.68-20.201z"/><path id="path4425" fill="#a5213a" d="m2746.4 631.01c-25.36 191.56 21.036 419.2 107.48 565.69-53.828-152.95-83.552-374.15-107.48-565.69z"/></g></svg>