<?xml version="1.0" encoding="UTF-8"?><svg xmlns="http://www.w3.org/2000/svg" xmlns:xlink="http://www.w3.org/1999/xlink" version="1.1" viewBox="0 0 2779.647 2779.6501" width="2779.647" height="2779.6501"><defs id="defs4"><linearGradient id="linearGradient4013"><stop id="stop4015" stop-color="#457999" offset="0"/><stop id="stop4017" stop-color="#84e6ec" offset="1"/></linearGradient><linearGradient id="linearGradient4019" y2="946.17" xlink:href="#linearGradient4013" gradientUnits="userSpaceOnUse" x2="2024.9" y1="650.87" x1="1991.1"/><linearGradient id="linearGradient4045" y2="1067.8" xlink:href="#linearGradient4013" gradientUnits="userSpaceOnUse" x2="1748.3" y1="758.86" x1="1697.9"/></defs><g transform="translate(194.07 -50.812)"><path id="path3899" d="m131.52 2320.9 73.539 57.983 166.88 82.024 39.598-29.698 91.924-96.166-15.556 65.054-32.527 59.397 35.355-15.556 131.52-96.166 57.983-148.49 11.314-101.82-14.142-169.71-38.184-178.19-5.6568-104.65 19.799-93.338 74.953-82.024 65.054-15.556 39.598 5.6569 147.08 4.2426-165.46-155.56-240.42 16.971-141.42 57.983-98.995 100.41-49.497 117.38-1.4142 161.22 25.456 144.25-1.4142 144.25-14.142 87.681-69.296 106.07z" stroke="#000" stroke-width="1px" fill="none"/><path id="path3905" d="m547.3 1337.1c-70.242 23.938-140.68 56.871-188.27 115.97-60.902 69.313-76.138 166.51-72.26 255.97 4.0161 86.336 25.434 170.75 23.735 257.48 2.4685 84.403-10.047 172.47-58.425 243.07-32.862 38.584-71.719 71.395-109.95 104.01-8.353 16.942 17.448 23.387 26.781 33.524 61.614 43.493 128.38 80.91 198.26 108.63 20.666-0.8029 34.165-21.221 49.667-32.678 36.588-32.78 69.767-72.464 94.141-113.52-2.1738 40.948-13.96 80.153-32.615 116.41-5.5406 14.376 14.179 20.927 22.981 10.96 42.085-30.287 83.669-63.4 116.32-103.68 15.648-77.838 41.945-152.56 69.528-226.95-0.13799-77.718-5.2858-155.73-24.143-231.39-17.202-72.462-32.403-146.36-27.978-221.45 0.21252-46.5 10.262-93.952 42.578-129.16 32.444-42.948 81.707-75.505 137.02-74.008 20.509-2.3802 42.872-4.212 60.378-15.598 5.2389-19.498-21.748-21.991-34.03-30.317-75.798-32.443-157.22-47.807-234.87-74.682-20.223-11.249-38.964 2.7891-58.842 7.4182z" stroke="#fc9abf" stroke-width="11" fill="#fd72aa"/></g><g transform="translate(194.07 -50.812)" stroke="#6abd81"><path id="path3908" d="m300 2435c92.392-101.45 156.71-183.81 188-338 25.949-80.087 23.577-287.87 60-376 21.923-59.869 38.795-118.64 108-168l86-88 48-10 82 4s48-26 40-38-204-120-204-120c-112.97 68.216-231.33 132.53-250 316-15.845 212.43-39.547 352.6-66 464-59.659 196.5-127.6 202.44-192 290z" stroke-width="1px" fill="none"/><path id="path3918" d="m629.41 1341.3c-19.312 5.7549-33.723 22.032-49.651 33.793-44.621 36.955-84.449 81.716-105.41 136.51-31.649 73.16-26.982 154.67-37.192 232.22-13.21 116.89-27.992 234.11-59.053 347.83-21.008 68.745-52.319 137.03-105.3 187.46-23.928 25.653-50.3 49.13-72.522 76.307-8.3637 16.254 14.409 21.702 24.078 29.487 27.42 15.84 54.534 32.97 83.86 45.013 14.92-0.7121 21.567-17.284 31.621-26.084 57.522-65.581 108.46-139.02 134.9-222.9 23.138-69.621 37.159-141.95 43.196-215.04 9.1713-75.102 12.543-151.57 33.031-224.61 19.149-55.525 38.486-115.02 82.5-156.62 20.275-20.332 31.49-47.404 51.562-68 29.313-34.768 69.743-65.438 117.31-65.438 22.744 1.1933 44.374-5.6108 66.163-9.9583 13.66-0.1171 15.372-19.975 2.1887-22.938-68.855-36.719-145.86-53.242-220.54-73.978-6.8239-1.4537-13.698-3.5466-20.75-3.0625z" stroke-width=".5" fill="#6abd81"/></g><g transform="translate(194.07 -50.812)"><path id="path3892" d="m805.81 1292.8-3.5938 0.3438-222.72 21.219-1 0.094-0.9375 0.2813c-99.894 28.108-186.26 65.332-253.78 161.59l-0.40625 0.5313-0.3125 0.625c-38.802 73.043-65.032 159.75-39.781 326.06v0.094l0.0312 0.094c23.202 136.31 17.972 227.14 5.4688 286.84-12.504 59.7-31.443 87.124-39.562 102.06l-0.125 0.2187-0.125 0.25c-3.7772 7.8757-18.356 25.655-40.219 46.406s-51.144 45.418-85.281 71.219l-11.062 8.375 10.656 8.8437c77.666 64.532 160.91 108.47 246.16 143.16l5.4375 2.2187 4.84-3.4c48.727-32.9 84.863-67.998 113.53-115.12-13.92 47.873-31.176 86.308-70.999 127.33l0.8309-0.3223c78.334-26.704 154.15-78.159 214.86-149.64l1.4375-1.7188 0.65625-2.0937 52.312-165.47 0.1875-0.5 0.0937-0.5313c13.232-61.847 11.582-188.19-25.531-325.97-0.0187-0.075-0.0438-0.1439-0.0625-0.2188-17.294-69.201-22.399-130.09-20.5-177.84 1.8945-47.642 11.338-82.593 20.531-97.906 36.964-55.398 71.588-80.586 101.53-91.156 29.986-10.586 56.022-6.8909 77.406-1.4063l3.3438 0.8437 3.2188-1.1874 130.09-48.063 21.594-8-19.75-11.781-175.38-104.66-3.0938-1.8438zm-5.0938 22.594 152.5 91-105.41 38.969c-22.95-5.5381-53.052-9.1148-86.75 2.7813-35.364 12.484-73.839 41.637-112.69 99.937l-0.125 0.1876-0.125 0.2187c-13.055 21.552-21.789 58.484-23.781 108.59-1.9926 50.11 3.359 113 21.188 184.25l0.0312 0.125v0.094c36.214 134.31 37.158 259.84 25.438 315.34l-51.469 162.72c-46.722 54.698-89.265 88.311-142.4 121.35 36.824-47.39 44.002-100.73 46.397-174.57l0.0625-0.4063c-31.275 68.19-88.4 137.98-151.62 182.41-77.927-32.117-153.29-72.13-224.03-128.78 29.823-23.037 55.805-45.016 75.938-64.125 22.407-21.268 37.711-38.13 44.688-52.344 6.4955-11.951 28.581-45.153 41.75-108.03 13.162-62.844 18.24-156.52-5.2812-294.84-0.007-0.044-0.0246-0.081-0.0312-0.125-0.005-0.032 0.005-0.062 0-0.094-24.632-162.46-0.0193-241.42 37.219-311.69 63.751-90.536 142.74-124.65 240.34-152.19z" fill="#fc9abf"/></g><g transform="translate(194.07 -50.812)" stroke="#cacaca"><path id="path3043" d="m1342.4 2020c-9.7417 115.97 1.6473 226.66 3.7602 339.67 9.4011 154.51 43.557 256.77 82.723 348.44 11.842 25.296 29.934 44.491 52.642 50.135 56.378 14.415 167.45 14.089 251.93-5.0136 21.39-13.058 22.887-34.794 7.5203-60.162-80.388-138.24-127.11-279.5-176.73-418.63-24.87-99.414-42.071-185.02-55.149-263.21z" stroke-width="22" fill="none"/><path id="path4055" d="m1351.3 2322.8c-9.0154 5.4585-5.4563 16.973-5.7786 25.699 4.5679 96.823 21.41 193.28 53.991 284.71 10.44 28.556 20.618 57.392 34.461 84.511 11.193 19.757 29.04 37.598 52.18 41.627 25.905 5.6857 52.43 8.0356 78.906 8.4196 49.288 0.3121 98.88-0.7726 147.4-10.22 10.583-2.1587 22.88-2.5696 30.161-11.854 11.98-12.24 9.5813-31.892 1.9111-45.726-16.117-30.4-33.36-60.249-48.219-91.314-44.305-90.168-78.712-184.71-112.31-279.26-3.7242-9.3329-14.727-7.1696-22.738-7.3371-68.615 0-137.29-0.5522-205.87-0.2154-1.3649 0.3203-2.7298 0.6405-4.0947 0.9608z" stroke-width="19.498" fill="#eeeded"/><path id="path4057" d="m1495.8 2012.1c-48.152 2.0611-96.326 4.3728-144.38 8.0437-9.2388 1.6563-10.668 12.46-10.635 20.495-3.6639 64.687-2.4664 129.53 0.2847 194.23-33.425 82.394 245.54-5.9215 218.44 28.475-18.601-78.868-34.392-158.47-47.983-238.34-0.345-7.3453-6.3708-13.853-13.7-12.963-0.6739 0.019-1.3479 0.038-2.0218 0.057z" stroke-width="19.893" fill="#eeeded"/><path id="path4061" d="m853.48 2738.1c81.539-1.7745 145.56 15.226 252.7-8.3881 13.063-6.2828 28.335-20.9 22.936-46.561-50.924-106.3-91.974-137.51-102.81-363.37 30.898-243.52 143.75-339.22 137.15-388.19l-222.72-56.3-159.97 310.6z" stroke-width="22" fill="none"/><path id="path4089" d="m943.12 1880.1c-19.847 26.658-32.278 58.778-48.592 87.937-36.215 72.499-76.506 143.11-108.71 217.42-4.8289 21.432 4.3152 43.97 5.0318 65.761 20.547 158.58 41.618 317.09 62.494 475.62 6.9734 16.814 30.029 7.5478 44.26 11.046 63.363 0.5932 127.48 4.1201 190.28-5.7186 22.298-1.9765 47.758-22.415 38.62-46.845-23.917-59.53-62.424-114.1-76.48-177.11-15.418-63.014-22.742-127.81-23.791-192.72 11.993-109.43 51.912-214.93 106.72-309.85 9.5921-20.638 23.778-40.385 27.391-63.19-2.9591-17.347-26.395-13.829-38.933-19.898-57.639-14.482-115.34-30.43-173.19-43.038-1.7026 0.193-3.4052 0.3861-5.1078 0.5792z" stroke-width="11" fill="#eeeded"/></g><g transform="translate(194.07 -50.812)"><path id="path4083" d="m619.43 2783.3-31.113-65.054 14.142-231.93 8.4853-147.08 76.368-223.45 45.255-79.196 59.397 2.8284-19.799-98.995-33.941-189.5 8.4853-138.59 51.619-113.84 219.91 51.619 45.255 362.04-56.568 42.426-84.853 181.02-33.941 147.08-16.971 203.65 19.799 141.42 56.569 124.45 2.8284 33.941-31.113 25.456-82.024 5.6569-155.56-2.8284-36.77-11.314z" stroke="#000" stroke-width="1px" fill="none"/><path id="path4085" d="m788.51 1518.5c-35.229 58.754-45.635 128.92-42.78 196.58-2.7096 94.265 31.417 184.13 42.073 276.74 0.24868 15.05 1.9744 35.001-1.591 47.111-19.12-9.296-44.535-3.0665-61.076 9.3692-26.196 27.259-35.79 66.449-41.631 102.27-16.758 61.153-34.006 122.85-58.071 181.64-16.141 34.188-15.499 73.663-21.965 110.38-10.261 96.747-7.6542 194.43-7.4838 291.46 12.036 29.153 33.711 57.717 63.479 69.98 71.084 18.777 145.52 11.24 218.13 9.1893 25.186-2.0335 60.4-3.6448 70.816-31.375 3.4168-16.681-2.0854-44.334-24.821-39.503-23.357-2.3109-50.138-0.7163-71.434-5.3102-24.566-183.28-49.444-366.97-71.595-550.31 42.795-91.626 93.344-180.65 137.02-271.87-7.6554-45.108-22.659-89.368-32.935-134.28-3.4871-21.787-17.827-44.776-3.8401-65.527 10.452-29.322 24.836-57.706 32.863-87.648-3.6979-19.869-28.762-23.315-41.719-35.797-27.048-19.699-51.581-44.002-66.189-74.454-4.4272-6.0513-13.245-4.1631-17.25 1.3566z" stroke="#faf1ef" stroke-width="2.8284" fill="#faf1ef"/><path id="path4087" d="m1021.5 1915.2c-33.446 5.9754-67.848 9.1444-101.82 11.844-19.327 11.165-24.466 36.482-36.295 54.246-32.657 66.871-70.221 131.7-98.409 200.58-10.886 32.124 4.5236 65.422 5.6831 97.973 20.868 149.92 37.436 300.56 61.669 449.95 11.727 16.928 36.511 8.7864 54.005 11.048 17.591 5.4179 38.314-7.4978 23.372-25.734-35.329-76.865-55.629-160.85-51.96-245.62 1.5969-68.448-4.1178-138.27 7.4966-205.71 20.941-97.684 57.213-192.66 107.34-279.56 10.859-20.704 28.216-37.154 40.977-55.979 2.5191-6.9213-5.1855-14.041-12.056-13.031z" stroke="#faf1ef" stroke-width="2.8284" fill="#faf1ef"/><path id="path4090" d="m812.6 1955.9c-7.4298 0.6706-15.599-1.5162-22.369 1.8533-6.6771 3.5054-5.6905 11.686-4.6335 17.924 2.5831 20.351 2.8558 41.014 1.1712 61.43-1.7411 0.2667-5.347-2.2893-8.0875-2.5191-15.827-2.5257-32.775-0.4497-47.045 6.9827-12.372 6.2961-20.954 18.037-25.87 30.762-15.208 34.282-30.245 68.722-41.88 104.41-10.037 35.166-20.57 70.143-32.02 104.86-11.561 40.56-18.735 82.262-24.813 123.96-7.4336 52.603-11.415 105.64-12.969 158.74-0.49285 6.7909-2.0638 15.853 5.3846 19.485 7.3478 2.7988 15.672 0.789 23.428 1.3978h251.33c7.7537-0.083 12.773-8.3543 10.408-15.468-7.1393-48.358-9.516-97.368-8.607-146.28 0.95829-48.03 2.1805-96.212 7.2591-143.92 5.7829-38.875 17.359-76.65 29.639-113.9 19.361-56.564 41.664-112.42 70.328-164.92 5.2713-9.9448 11.735-19.211 17.295-28.944 4.0043-7.3788-3.0602-16.573-11.152-15.629-58.933-0.084-117.87-0.2756-176.8-0.2184z" stroke="#faf1ef" stroke-width=".70711" fill="#faf1ef"/><path id="path4092" d="m912.67 1916.4c-1.1709 0.048-2.334 0.2824-3.4308 0.6953-1.217 0.457-2.351 1.1326-3.3335 1.9836-0.96413 0.8366-1.7824 1.841-2.4031 2.9566-0.27511 0.4951-0.50675 1.0126-0.75884 1.5195-0.58246 1.1958-1.169 2.3919-1.7469 3.5891-0.58433 1.2258-0.93928 2.5604-1.0397 3.9147-0.10764 1.4331 0.0698 2.887 0.51923 4.2521 0.43589 1.3295 1.1293 2.5737 2.03 3.6444 0.83608 0.9955 1.8507 1.8399 2.9804 2.483 1.1052 0.6282 2.3195 1.064 3.5726 1.279 1.3776 0.2381 2.8007 0.2093 4.1677-0.084 1.1065-0.2365 2.1762-0.6448 3.1581-1.2069 0.70977-0.4042 1.3769-0.893 1.9819-1.4448 0.33329-0.3122 0.66555-0.6306 1.0093-0.9339 0.5771-0.5195 1.1766-1.0159 1.7866-1.4943 0.82044-0.669 1.5492-1.4539 2.1484-2.3279 0.56698-0.825 1.02-1.7273 1.344-2.6755 0.45216-1.322 0.64854-2.7307 0.57546-4.126-0.0752-1.4511-0.44027-2.8847-1.0708-4.1934-0.35145-0.7366-0.78953-1.4268-1.2889-2.0711-0.27224-0.3488-0.50763-0.7237-0.75797-1.088-0.77424-1.102-1.7513-2.0614-2.8704-2.8111-1.167-0.7858-2.4872-1.3423-3.8638-1.6325-0.88922-0.1875-1.8012-0.2634-2.7092-0.2283z" stroke="#faf1ef" stroke-width=".008" fill="#faf1ef"/></g><g transform="translate(194.07 -50.812)"><path id="path4116" d="m801.44 1482.6-11.712 5.4336c-65.323 93.795-65.124 207.88-50.663 312.72 11.47 83.159 33.298 161.72 41.406 221.41l-4-0.125c-24.83-1.0891-43.225 3.7087-56.625 13.094-13.222 9.2599-20.737 22.343-25.875 35.375-0.0694 0.176-0.15021 0.3552-0.21875 0.5312-114.66 254.4-114.83 450.5-110.75 658.2l0.0312 0.7812 0.125 0.75c5.2349 32.408 20.32 56.475 57.531 79.594l0.0625 0.031 0.0625 0.031c11.202 6.7796 27.513 10.157 49.188 13.313 21.674 3.1551 48.084 5.2967 76.094 6.2187 56.02 1.8441 118.14-0.9972 161.44-11.219l0.8125-0.2188 0.78125-0.3125c16.181-6.5355 27.005-18.088 30.938-31.625s1.56-27.856-3.8125-41.562l-0.0625-0.1875-0.0937-0.1563c-48.13-111.89-84.29-160.55-63.125-450.84v-0.125l0.0312-0.125c1.52-29.21 23.442-110.98 54.062-188.22 15.31-38.622 32.782-76.558 50.719-107.31 17.937-30.754 36.837-54.195 52.063-63.719l11.906-7.4375-10.094-9.7812c-21.575-20.858-40.651-45.024-55.531-88.625-14.82-43.7-25.13-106.9-27.07-203.8l-0.125-6.3437-5.5625-3.0625-96.062-52.938-58.625-74.25zm-0.53125 31.312 50.469 63.938 1.375 1.75 1.9375 1.0625 92.531 50.969c2.2936 94.631 12.455 158.24 28.062 203.97 13.873 40.651 34.252 67.064 54.007 88.011-17.148 14.454-34.965 36.748-50.507 63.396-18.766 32.175-36.586 70.924-52.188 110.28-31.142 78.56-53.553 157.71-55.562 194.94-0.004 0.074-0.0274 0.1766-0.0312 0.25-21.249 291.81 17.339 350.41 64.75 460.56 4.2311 10.795 5.2023 20.395 3.1562 27.438-1.9986 6.8787-6.4205 12.444-17.344 17.031-39.542 9.1725-100.45 12.256-154.75 10.469-27.345-0.9002-53.082-2.9782-73.625-5.9687-20.422-2.9729-36.295-7.5992-40.875-10.313-0.0132-0.01-0.018-0.023-0.0312-0.031-0.0191-0.011-0.0751-0.02-0.0937-0.031-29.25-22.6-40.08-37.4-47.19-63.7-4.0604-207.28-4.0019-397.91 109.03-648.47l0.125-0.2812 0.0937-0.25c4.3462-11.16 9.5732-19.873 18.188-25.906 7.7418-5.4221 19.282-9.004 37.156-9.0313 3.8647 0.3974 7.9002 0.5481 11.688 2.2187 5.4897 3.3384 7.7227 8.4368 11.062 13.438l0.6563 0.3124c20.755-75.719-18.01-159.75-32.156-262.31-13.474-97.686-12.438-199.2 40.062-283.84z" fill="#cacaca"/><path id="path4382" d="m794.67 1505.7c-17.308 16.204-22.26 42.109-31.82 63.286-33.401 95.307-22.209 199.27-1.56 296.21 10.873 56.017 24.67 112.04 20.564 169.6-32.144-10.247-68.866 11.81-80.345 42.603-64.314 146.52-104.42 304.36-107.46 464.92-0.53277 66.324-7.4672 133.74 4.9089 199.33 10.097 47.987 62.301 70.859 106.78 74.209 70.937 5.3031 143.48 6.755 213.39-7.0377 20.615-4.4943 41.833-25.597 30.848-47.73-29.576-80.847-65.999-162.06-67.794-249.7-4.2354-91.103-4.192-184.05 12.679-273.48 27.785-102.5 64.683-205.25 128.11-290.64 12.413-15.584 32.403-29.973 19.869-42.435-52.236-63.103-72.909-143.01-79.137-222.16-1.8539-24.813 1.5818-57.894-25.658-70.549-36.623-19.862-75.305-38.266-101-72.693-12.559-10.953-22.75-37.456-42.367-33.726z" stroke="#cacaca" stroke-width="11" fill="none"/></g><g transform="translate(194.07 -50.812)"><path id="path3855" d="m1247.3 978.78-69.296-16.971-83.439-96.167-121.62-72.125-82.024-19.799 77.782 325.27 156.98 305.47 55.154 2.8285 124.45 46.669 12.728-59.397-8.4852-234.76z" stroke="#000" stroke-width="1px" fill="none"/><path id="path3860" d="m941.76 786.42c-9.5771 3.3602-9.1076 15.822-2.4307 21.788 30.518 38.604 56.17 80.983 78.666 124.58 30.962 63.206 55.38 129.4 74.857 197.01 15.076 43.364 29.441 87.114 35.982 132.66 7.6432 43.071 18.056 86.043 35.577 126.24 6.8532 11.37 22.281 9.9301 33.057 15.159 33.749 10.961 65.71 26.134 97.963 40.646 11.27 3.567 15.989-9.6358 15.351-18.631 6.9871-83.106 2.0481-166.86-2.1171-250.08-17.609-54.389-34.105-109.24-53.43-163.04-6.2346-13.609-13.069-28.482-25.152-37.843-15.849-5.3438-33.598-6.3643-48.921-11.933-43.933-58.091-98.934-107.91-162.8-142.98-23.082-12.379-46.252-25.379-71.029-33.97-1.8793-0.49489-3.7134 0.16272-5.5685 0.39775z" stroke="#cacaca" stroke-width="11" fill="#eeeded"/></g><g transform="translate(194.07 -50.812)"><path id="path3852" d="m1182.3 963.23c-85.6-114.95-184.76-160.59-281.45-197.99l132.94 677.41 295.57 46.669v-360.62l-94.752-154.15z" stroke="#cacaca" stroke-width="22" fill="none"/></g><g transform="translate(194.07 -50.812)"><path id="path3804" d="m1644 1247 50 120 26 132-20 144-30 114-74 98-268 90-98 38-118-28-76-46-110 14-48-188 138-348 84-6 170 48 36 26 8-82-6-196" stroke="#000" stroke-width="1px" fill="none"/><path id="path3810" d="m1325.7 1190.9v0.0003c-15.887-0.2568-12.996 18.629-12.688 29.188 2.664 80.619 8.1282 164.15-6.875 242.69-8.7192-20.946-34.072-25.058-52.079-34.933-52.954-24.94-110.52-37.392-167.98-46.254-11.383-1.7155-21.11-9.542-33.374-6.676-14.188 1.9954-31.356-1.2767-43.001 8.4885-30.031 66.787-55.726 136.03-83.299 204.08-18.799 48.581-39.233 96.796-57.017 145.6 3.3347 27.077 13.146 53.55 18.983 80.393 9.4806 36.714 18.541 73.559 28.832 110.05 8.2318 14.466 27.093 3.7319 40.625 4.75 24.651-3.3455 49.782-4.5488 74.063-9.875 7.2433-2.9851 5.8362-13.204 5.7432-15.478 39.279 37.788 91.887 58.42 143.84 71.584 13.091 1.8095 28.925 7.1678 40.518-0.048 7.4611-12.641 1.6063-29.126 3.8696-43.432 0.4086-28.094 12.159-54.212 28.137-76.942 12.778-17.915 19.2-43.01 39.895-53.81 25.864-8.1491 52.912-11.345 79.5-16.375 22.36 9.9106 42.714 22.981 63.375 36 3.1497 12.233-0.741 25.093 2.5625 36.938 8.6129 13.723 23.71 0.6389 34.967-1.4246 34.563-12.448 72.529-15.494 108.66-9.2629 11.86 6.4333 24.481 2.2146 30.275-9.9099 54.883-63.747 88.542-144.26 98.234-227.64 10.951-74.291 6.8883-150.88-15.071-222.83-13.925-43.692-29.07-88.306-53.938-126.88" stroke="#faf1ef" stroke-width="11" fill="#faf1ef"/></g><g transform="translate(194.07 -50.812)"><path id="path4168" d="m862.32 1589-4.2426 17.324 23.335 6.364-7.0711 31.113 49.497 16.263 11.314 1.7678 12.728-10.607 5.6568-19.092z" stroke="#000" stroke-width="1px" fill="none"/><path id="path4172" fill="#b7efe6" d="m909.97 1617.2c-5.6773 1.491-9.319 7.7686-7.8445 13.435 1.2952 4.5852 5.1844 7.9056 6.4634 12.529 2.4418 6.0509 2.7449 12.87 6.0215 18.584 3.1801 4.4854 3.4053-3.8858 8.419-2.2538 7.0644 2.1698 14.149 2.3732 18.959-2.7843 6.4583-6.0599 10.243-13.185 10.927-22.086-0.0183-5.3353 2.4728-4.4866-2.4528-5.922-11.686-3.3075-23.245-6.9974-34.527-11.457-2.0146-0.4677-3.943-0.5065-5.9662-0.044z"/><path id="path4174" fill="#b7efe6" d="m882.05 1604.1c-5.5035 1.6948 3.4545 4.2493 1.1048 8.9493-2.108 5.2001-7.9863 17.007-8.162 22.67 0.0414 6.5131-0.70921 8.7916 5.679 7.2639 5.5643-0.8225 8.1575-6.2844 11.026-10.436 1.373-2.4986 3.9273-3.6589 6.3391-4.9245 4.6987-2.9554 6.511-9.5199 3.7913-14.472-2.4654-4.5316-7.7694-6.1322-12.022-8.492-2.4278-1.1788-5.1759-1.2078-7.757-0.5579z"/><path id="path4176" fill="#b7efe6" d="m865.28 1593.4c-5.3422 1.434-8.7378 6.9317-8.2643 12.341-0.14186 5.4275 8.9853 0.1075 13.845 3.1952 1.8471 0.6036 12.047 4.9321 11.441 6.46-1.683 6.7764-8.1809 22.75-8.6216 29.708 0.051 6.4984-6.1939 11.179 0.16556 9.6628 5.3137-0.7677 8.0667-5.8166 10.365-10.099 2.1902-3.8955 4.4939-7.8532 5.1552-12.322 0.95171-4.8216 3.2517-9.1802 5.6016-13.435 2.2635-5.4992-0.59303-11.966-5.6992-14.71-3.5412-2.2489-7.2803-4.31-11.039-6.0608-3.184-3.3638-7.7682-6.06-12.54-4.7951l-0.35037 0.047-0.0586 0.01z"/></g><g transform="translate(194.07 -50.812)"><path id="path4156" d="m861.69 1594.7c4.1468 10.736 9.3538 20.413 23.359 15.896-9.4543 11.313-9.8132 25.679-11.298 35.884h30.25l21 13.25c9.308 4.4174 12.752 2.3382 19.5-5 7.5178-9.369 6.1007-14.767 8.25-21.75l-82-42.25z" stroke="#9dcdc5" stroke-width="5" fill="none"/></g><g transform="translate(194.07 -50.812)"><path id="path4161" d="m788.78 1637.1-10.607 6.0104-5.6568 18.738 1.7678 37.477 4.5962 12.728 13.081 9.1924 17.678 1.0606 4.9498-1.4142-19.092 16.264-4.9498 14.142-1.0607 18.385 4.5962 15.203 8.1317 12.021 14.142 11.314 11.314 3.8891 9.1924-1.0607 7.4246-10.253 6.364-17.678 1.7678-27.224 5.3033 8.4853 6.364 31.82 7.7782 8.1317 6.0104 1.4142 9.5459-4.5962 19.799-27.931 6.364-21.92-2.4749-16.263-10.96-19.799 8.8388-5.3033 8.8388-15.556 5.3033-17.678-6.0104-35.355-12.021-22.274-14.849 2.4749-5.6568 7.4246-20.506 33.941 1.7678-18.385v-45.962l-29.345-35.002-14.496 3.1819-11.314 9.8995-3.5355 9.1924-0.35356 24.042 10.96 44.548 5.3033 10.96-14.849-16.263-13.789-10.96z" stroke="#000" stroke-width=".5" fill="none"/><path id="path4165" fill="#fc99be" d="m822.74 1556.1c-5.0027 1.6137 7.5527 2.456 3.8338 5.9331-7.4569 7.1369-18.343 13.221-18.838 23.522-4.5601 22.458 9.0402 58.904 11.984 71.75 5.9779 7.7199-12.655-10.878-21.502-17.111-5.3478-2.8271-9.2847-3.5106-15.06-1.3466-8.5153 2.6507-6.6795 6.9448-9.3299 14.921-2.5448 9.4181-1.6717 16.118-1.7899 25.82 0.29469 9.4484 1.1468 17.366 4.0363 26.449 4.1383 10.756 19.613 19.193 34.445 16.951 15.463-5.0456-9.8372 3.8952-13.105 14.262-4.0038 5.4152-5.5477 7.9002-6.2491 14.612-1.963 12.749-5.0044 19.59 1.5115 31.095 2.8295 4.3417 6.7441 10.64 10.529 14.186 4.8196 3.2331 20.028 15.805 25.456 16.175 10.795-0.094 6.7671-5.4675 16.839-13.577 5.3554-0.3058 6.8253-40.385 7.7214-45.433 0.94219 4.8108 11.869 47.905 16.955 48.561 6.6842 6.4262 13.07 1.1975 19.414-6.2149 4.8024-0.035 4.8419-4.3662 7.251-8.1617 9.0307-11.935 12.531-18.332 15.225-33.112 1.9547-12.539-4.0946-27.497-11.767-37.775 7.7189-6.0218 15.789-15.752 19.423-24.45 6.3047-16.965 1.9722-33.59-2.972-50.547-2.2992-9.158-8.6792-18.147-15.844-24.24-6.4108-5.578 10.754-14.408-13.037 6.0877-5.2714 2.8179-20.852 33.542-24.174 38.294 4.1149-16.365 2.0974-56.126 0.59445-66.028-1.0956-5.9866 1.1876-7.7439-2.9004-11.459-10.093-8.0467-19.42-16.993-28.298-26.347-2.721-2.6623-6.6664-3.6241-10.352-2.8176z"/></g><g fill="#fd72aa" transform="translate(194.07 -50.812)"><path id="path4109" d="m830.53 1555.5-1.75 1.6563c-5.2415 4.8986-12.014 9.2658-17.281 16-5.2675 6.7342-8.7735 15.896-7.5 29.531v0.031 0.031c2.0417 18.288 6.9068 35.766 12.625 50.563-0.16411-0.2036-0.30413-0.4546-0.46875-0.6563-7.4772-9.1602-15.509-16.578-24.75-18.156l-0.34375-0.062-0.375 0.062c-2.2293 0.2686-5.3762 0.1598-8.6562 2.1876-3.2801 2.0277-6.2883 5.9206-9.3438 13.344l-0.0625 0.1563-0.0625 0.2187c-2.3766 10.143-2.8785 22.954-2.375 33.969 0.25175 5.5073 0.74648 10.553 1.4375 14.594 0.69102 4.0412 1.2506 6.9024 2.875 9.0312h0.0312c3.6115 4.7069 6.2031 10.224 18.375 15.406l0.28125 0.125 0.34375 0.062c5.7506 0.8444 10.389 1.0028 14.344 0.7812-7.4121 4.999-14.399 11.211-18.188 20.656l-0.0937 0.2187-0.0625 0.25c-2.5751 13.273-4.359 27.176 2.75 41.094l0.0937 0.1875 0.125 0.1875c11.475 15.362 20.994 23.176 30 26.312 0.0622 0.022 0.1253 0.072 0.1875 0.094v-0.031c3.8434 1.6312 7.5421 1.8194 10.75 0.8438 3.2603-0.9916 5.9511-3.0607 8.1562-5.5313 4.4103-4.9412 7.1147-11.574 8.7812-16.375l0.0312-0.125 0.0312-0.125c2.3228-9.8536 3.1804-19.88 3.6562-29.906 2.4913 11.596 5.5117 22.116 8.5 32.531l0.0312 0.1563 0.0625 0.125c2.5484 5.9893 5.4385 11.082 10.219 13.125 2.3901 1.0213 5.2218 1.0339 7.9688-0.063 2.747-1.0964 5.4706-3.1739 8.4375-6.3124 12.722-13.35 21.048-28.301 25.125-44.625v-0.063l0.0312-0.062c1.8545-9.9803 1.0034-19.522-3.0625-28.625l-0.0312-0.063-0.0312-0.062c-2.6485-5.124-5.3949-8.2266-8.375-10.625 1.981-0.7253 3.7984-1.6041 5.3438-2.7188 7.7338-5.5789 9.7042-14.753 12.969-21.844l0.0312-0.062 0.0312-0.094c8.1182-21.474 0.28141-45.28-3.4688-56.188l-0.0625-0.1875-0.0937-0.1875c-4.9963-9.4132-10.974-15.447-17.406-17.5-6.3998-2.043-13.059 0.6485-17.344 7.25-0.0165 0.023-0.046 0.039-0.0625 0.062-0.005 0.01 0.005 0.024 0 0.031-7.0544 9.9326-12.651 21.268-17.438 32.281 4.2301-15.735 4.1832-33.657 1.2812-66.656l-0.0937-0.9374-0.65625-0.625-33.75-33-1.7188-1.6876zm-0.15625 6.8438 31.438 30.75c4.1189 47.886 4.3268 61.427-4.1474 86.719l1.1444-0.4554c6.2551-16.16 16.976-34.649 28.222-50.451l0.0312-0.031 0.0312-0.062c3.4541-5.3834 7.2088-6.711 11.688-5.2813 4.4532 1.4216 9.7993 6.3791 14.406 15 3.7112 10.82 10.684 33.262 3.5312 52.406-0.0197 0.053-0.0426 0.1035-0.0625 0.1562-3.5253 7.7074-5.451 15.513-11.281 19.719-2.042 1.4729-4.7109 2.5541-8.2188 3.125l-0.375 0.031c-12.674 1.1369-20.589-2.0476-30.378-4.4817l-1.6531 4.8567c-1.3123-1.4846 0.0987 0.014 0.15625 0.031l0.39775 0.3846c2.4293 0.6041 1.529-3.0192 4.0087-2.3677 9.9521 4.3485 21.146 7.3961 27.156 6.7016 4.1415 2.3983 6.9544 4.7062 10.375 11.281 0.0245 0.047 0.0379 0.078 0.0625 0.125 3.5809 8.0867 4.3198 16.307 2.6562 25.375-0.008 0.043-0.0232 0.082-0.0312 0.125-3.8758 15.424-11.687 29.494-23.844 42.25-2.6539 2.8075-4.931 4.3927-6.6875 5.0938s-2.9106 0.6439-4.125 0.125c-2.418-1.0333-5.1641-4.866-7.5312-10.406-0.0105-0.025-0.0207-0.038-0.0312-0.063-4.9953-17.399-11.043-32.655-14.655-55.234l-2.64-1.1c-0.005 0.1146 1.5076 0.7595 1.5026 0.8741-0.76091 18.272-1.8626 36.216-5.9088 53.501-1.5764 4.5237-4.2012 10.618-7.75 14.594-1.7852 2.0001-3.7504 3.4164-5.875 4.0625s-4.4608 0.6249-7.4688-0.6875l-0.0937-0.062-0.0937-0.031c-7.5871-2.5898-16.508-9.5715-27.688-24.5-6.1731-12.264-4.6776-24.545-2.1875-37.437 5.9462-14.479 20.482-23.917 32.374-31.399 0.0879-0.055 0.945 2.8602 1.0326 2.8048l-0.41751-2.8594c-0.0975 0.045 2.3787 0.022-0.59061-0.9929-3.0089 1.3951-7.3735 3.1052-11.773 4.0398-3.909 0.8304-10.621 1.7985-20.406 0.4063-11.053-4.7604-12.16-8.5007-16.188-13.75h0.0312c-0.17882-0.2344-1.2947-3.0535-1.9375-6.8126-0.64277-3.759-1.131-8.631-1.375-13.969-0.48546-10.62 0.0513-23.113 2.2188-32.469 2.804-6.7343 5.2723-9.5274 7.25-10.75 1.854-1.1462 3.6989-1.1788 6.125-1.4376 6.9975 1.2839 14.381 7.5912 21.5 16.313 7.1818 8.7984 15.586 17.82 22.156 27.562 0.008 0.011-1.4763 2.021-1.4688 2.031l2.04-1.4 2.0625-1.4062c-0.008-0.012-0.25787 0.5581-0.26557 0.5471-0.0704-0.1-1.6949-0.8517-1.7656-0.953-10.168-14.575-22.259-46.231-26.031-79.906-0.002-0.023 0.002-0.039 0-0.062-1.1614-12.58 1.8323-20.05 6.4375-25.938 4.1317-5.2821 9.7267-9.3222 14.938-13.906z"/><path id="path4121" d="m833.78 1586.9h-0.1875c6.5043 30.662 9.781 60.59 11.156 91l5-0.25c-1.3909-30.756-6.9991-59.995-15.969-90.75z"/><path id="path4123" d="m890.74 1666.5c-12.175 4.924-21.473 11.261-28.642 23.184l4.3125 2.5624c6.8326-11.364 14.049-19.762 24.344-25.75z"/><path id="path4125" d="m813.98 1690.9h0.005c2.9576 0.5802 4.8272 0.9725 7.3229 2.1892 2.2748 0.7747 3.5005 2.839 5.0322 5.4097l4.3125-2.5624c-2.1442-3.5991-5.2135-5.5909-8.25-6.625-3.0365-1.0342-7.215 1.1766-8.4223 1.5904z"/><path id="path4127" d="m836.16 1730.4c-5.7614 8.9737-3.4266 17.497-3.5488 26.502l0.006 0.1062c2.0659-9.0764 2.806-16.251 7.7302-23.921l-4.1875-2.6876z"/><path id="path4129" d="m868.19 1719.8-2.375 4.3984c3.7545 2.0156 6.551 4.8412 9.3438 9.5626v-0.01c-1.2143-6.2393-1.8306-11.195-6.9688-13.953z"/></g><g transform="translate(194.07 -50.812)"><path id="path4189" d="m873.98 1707.8c0 18.355-10.764 33.234-24.042 33.234s-24.042-14.879-24.042-33.234 10.764-33.234 24.042-33.234 24.042 14.879 24.042 33.234z" transform="matrix(.92647 0 0 1.0319 60.728 -54.505)" fill="#fdfa4b"/></g><g transform="translate(194.07 -50.812)"><path id="path4384" d="m1070.3 1389.6c61.68 10.968 105.54 8.9187 221.97 66.946 12.061 22.103 8.0097 43.146 5.4062 64.719l0.1278 0.022c38.207-75.058 29.231-215.33 23.906-322.66l-0.5002-22.5-8.9377-1.9055-13.906-2.8438 0.0003-0.0002 0.6875 14.156c4.1514 83.942 8.6503 167.29 0.7812 250.12-124.92-62.118-171.02-56.54-235.62-69.437m576.8-107.8c70.495 127.36 71.014 241.93 65.125 303.81l-0.031 0.2187v0.2188c-5.9877 107.2-34.986 200.87-120.31 289.41l-349.75 119.97c-14.296-4.0528-34.261-2.8875-57.437-8.1875-25.183-5.7589-59.592-18.475-86.97-33.086-54.488-29.081-90.944-74.668-123.7-175.59l-0.13684 0.313c-2.6678 110.85 61.841 159.43 112.11 192.71 28.261 18.707 67.602 31.107 93.786 37.095 26.183 5.9877 52.397 4.8214 62.938 8.2188l-0.4688 5.6562 3.5-1.25 354-122.5 2.4376-0.875 1.7812-1.8125c90.32-92.805 123.87-197.09 130.16-308.41 0.0006-0.01-0.0005-0.021 0-0.031 0.012-0.1242 0.02-0.2817 0.031-0.4062 6.2732-66.713-1.454-183.09-76.469-316.25l-2.4688-4.375-5.1562-1.25z" fill="#cacaca"/></g><g transform="translate(194.07 -50.812)"><path id="path3846" d="m1207.7 845.85-73.539-113.14-31.113-195.16 28.284-124.45 48.083-76.368 73.539 48.083 98.995 121.62 39.598 70.711 82.024 25.456 104.65 110.31 395.98-155.56 50.912 65.054 42.426 138.59 19.799 113.14-8.4853 84.853 62.225 8.4853-8.4852 67.882-25.456 56.568-65.054 11.314-53.74-25.456-36.77-45.255-5.6568 93.338-2.8285 48.083 36.77 65.054-141.42 33.941" stroke="#000" stroke-width="1px" fill="none"/><path id="path3850" d="m1131.8 441.04c-8.4133 9.0979-6.8459 23.04-10.377 34.408-8.7949 47.573-12.904 96.868-6.9282 145.03 14.827 87.048 51.91 170.44 107.68 239.03-10.443-5.1369-19.931 7.8833-14.427 17.215 31.496 99.027 62.974 198.13 95.214 296.92 0.9938 5.4381 6.5519 8.2099 8.9273 11.888 2.5354 12.653 16.008 16.77 27.146 18.644 89.453 19.382 179.03 39.037 268.56 57.37 8.3067 2.6586 9.1192-9.5175 14.893-8.2643 7.4786 1.4701 15.714 3.5578 23.025 1.5026 15.219 8.0355 33.372 7.3846 50.098 10.217 58.153 7.5572 117.42 6.7487 175.39-1.8821 32.979-6.3631 66.445-11.668 98.458-21.947 10.448-5.3946-3.0575-25.108-9.5019-31.997-18.919-26.831-17.183-52.774-16.44-85.295-0.6714-31.247 0.3384-77.739 12.463-92.277 10.888 17.341 20.953 36.665 37.919 48.79 28.134 15.666 62.891 24.975 94.178 13.214 27.294-9.352 40.293-37.947 47.332-63.816 4.5872-18.524 8.1212-38.419 4.1234-57.215-7.5748-9.8438-21.741-4.0222-32.496-5.6734-21.8-0.53158-43.518-5.1811-62.844-15.335 10.422 3.522 26.108 10.343 33.543-1.591 4.6486-20.534 3.6107-42.069 4.4194-63.065 1.3142-85.772-16.911-172-56.276-248.44-11.521-24.676-26.997-47.365-40.686-70.685 4.2125-9.4134-4.2433-22.145-14.761-18.164-130.14 49.073-259.19 101.16-388.91 151.37-35.04-34.116-67.546-70.86-101.92-105.53-20.046-8.7196-41.754-13.518-62.575-20.388-7.2434-1.8076-16.841-6.9201-22.714 0.23419-24.072-47.991-55.804-91.95-90.487-132.67-9.3588-6.6073-22.035-1.8228-32.815-3.2864-44.817 0.26019-89.794-0.61427-134.51 0.28706-1.5666 0.46883-3.1332 0.93767-4.6998 1.4065z" stroke="#faf1ef" stroke-width="11" fill="#faf1ef"/><path id="path3874" d="m1305.5 447.5-89-82-34-20.5-35 18-22.5 91z" stroke="#faf1ef" stroke-width="1px" fill="none"/><path id="path3876" d="m1182.7 345.53c-8.0837 1.0299-13.946 7.54-19.102 13.305-12.92 16.417-20.624 36.208-27.35 55.79-1.6447 6.0223-4.4341 11.869-5.0682 18.093-0.6186 6.6054 5.7301 12.052 11.912 11.625 44.314 0.50475 88.637 0.57623 132.95 0.34501 5.7208 0.14005 12.151-0.54485 14.988-6.0562 3.0728-5.1544 0.7299-11.656-3.6283-15.304-22.249-22.312-44.608-44.903-70.776-62.676-9.952-6.4397-20.358-13.328-32.302-15.136-0.5413 0.0117-1.0845-0.022-1.625 0.0156z" stroke="#faf1ef" stroke-width="5.5" fill="#faf1ef"/></g><g transform="translate(194.07 -50.812)" stroke="#cacaca" stroke-width=".5" fill="#cacaca"><path id="path3935" d="m1463 1062c0 6.6274-9.0662 12-20.25 12s-20.25-5.3726-20.25-12 9.0662-12 20.25-12 20.25 5.3726 20.25 12z"/><path id="path3937" d="m1507.5 1104.8c0 6.4893-7.835 11.75-17.5 11.75s-17.5-5.2607-17.5-11.75 7.835-11.75 17.5-11.75 17.5 5.2607 17.5 11.75z"/><path id="path3939" d="m1549.5 1082.8c0 5.9371-8.1708 10.75-18.25 10.75s-18.25-4.8129-18.25-10.75 8.1708-10.75 18.25-10.75 18.25 4.8129 18.25 10.75z"/></g><g transform="translate(194.07 -50.812)" stroke="#fff" stroke-width="1px" fill="#fff"><path id="path3956" d="m1607.4 1083.9c50.228 19.748 129.67 18.823 150.44 14.747 21.626-8.5423 63.216-25.815 82.297-96.131 6.928-39.582-11.742-119.18-36.108-162.5l-48.276-70.504-75.66-61.518-112.43-14.142-71.418 22.627-38.184 79.903 9.8995 118.79 41.012 84.146 71.453 66.132z"/><path id="path3958" d="m2001.4 922.41c-25.5-32.03-45.9-68.56-57.4-124.41l-14-85 5-104 14-28 44 1 34 57 44 115 11 145-6.9142 16.636c-15.465 30.308-37.933 23.68-59.086 22.364z"/></g><g transform="translate(194.07 -50.812)"><path id="path3975" d="m1864 921.5c0 110.73-63.352 200.5-141.5 200.5s-141.5-89.767-141.5-200.5 63.352-200.5 141.5-200.5 141.5 89.767 141.5 200.5z" transform="matrix(.96011 -.24938 .19955 1.0245 -126.65 407.96)" fill="url(#linearGradient4045)"/><path id="path3991" d="m2068.1 803.65c0 93.06-11.991 166.35-55.069 166.35s-78-75.44-78-168.5 34.922-168.5 78-168.5 55.069 77.587 55.069 170.65z" transform="matrix(1.1527 -.12729 .12535 .94582 -408.69 288.84)" fill="url(#linearGradient4019)"/></g><g transform="translate(194.07 -50.812)"><path id="path4065" opacity=".75" d="m1617 1081 89-60 8.565 22.929-45.94 53.946c-23.431 0.6327-36.212-7.8715-51.625-16.875z" fill="#fff"/></g><g transform="translate(194.07 -50.812)"><path id="path4068" opacity=".5" d="m1586.2 1042.6 111-41.1 11.8 17.5l-83.172 56.047z" fill="#fff"/></g><g transform="translate(194.07 -50.812)"><path id="path4048" d="m1852 937c0 85.604-40.742 155-91 155s-91-69.396-91-155 40.742-155 91-155 91 69.396 91 155z" transform="matrix(1.0486 -.10607 .11006 1.0106 -193.74 174.33)"/><path id="path4050" d="m2052 817c0 75.663-28.878 137-64.5 137s-64.5-61.337-64.5-137 28.878-137 64.5-137 64.5 61.337 64.5 137z" transform="matrix(.89873 -.15650 .14742 .95406 112.5 351.73)"/></g><g transform="translate(194.07 -50.812)" stroke="#faf1ef" stroke-width="1px" fill="#faf1ef"><path id="path4071" d="m1609 1085c54.478 18.82 103.46 16.991 144 15 41.558-12.551 78.974-44.884 89.25-104.5 1.7569-21.894-2.7998-80.094-31.189-142.68l-25.1-44.82-56-69-51-30 57-12 94 75 54 177-61 162-125 63-121-45-4-46 4-20z"/><path id="path4077" d="m2073.2 921c-7.0984 8.1339-12.394 21.079-41.625 19.375-12.999-4.3058-25.394-10.164-35.125-22.875-22.524-27.598-40.309-68.402-53.5-122 0 0-9.5-72.5-14-85.5s-50 13-50 13l18.5 202 155 37.5 29.5-4z"/></g><g fill="#fff" transform="translate(194.07 -50.812)"><path id="path4053" d="m1748 866c0 43.63-17.461 79-39 79s-39-35.37-39-79 17.461-79 39-79 39 35.37 39 79z" transform="matrix(1.2031 .13706 -.15261 1.0805 -218.42 -305.93)"/><path id="path4056" d="m1791 973c0 11.046-8.7304 20-19.5 20s-19.5-8.9543-19.5-20 8.7304-20 19.5-20 19.5 8.9543 19.5 20z"/><path id="path4058" d="m2008 762.5c0 31.756-10.969 57.5-24.5 57.5s-24.5-25.744-24.5-57.5 10.969-57.5 24.5-57.5 24.5 25.744 24.5 57.5z" transform="matrix(.99640 .084805 -.084805 .99640 66.809 -162.46)"/><path id="path4062" d="m2042 876c0 8.2843-6.4919 15-14.5 15s-14.5-6.7157-14.5-15 6.4919-15 14.5-15 14.5 6.7157 14.5 15z" transform="translate(-5 -2)"/></g><g transform="translate(194.07 -50.812)"><path id="path3916" d="m1583.7 679.89c-35.603 0.95585-77.977 12.52-104.23 42.768l-0.031 0.0625-0.062 0.0625c-51.3 60.58-33.5 142.41-26.5 180.22l0.094 0.59375 0.1875 0.59375c21.024 69.407 55.435 127.66 159.19 183.28l-1.0312-1.0938c-80.57-70.429-118.74-116.63-136.94-188.12-7.1357-38.67-21.206-110.4 21.656-161.16 0.029-0.0335 0.065-0.0603 0.094-0.0937 23.713-27.228 62.082-37.145 97.813-35.756 17.887 0.6953 41.215 3.9716 54.52 7.3223 13.306 3.3507 23.808 7.9204 25.156 8.8125l0.4376 0.3125 0.5 0.25c14.737 7.7594 38.782 22.034 58.312 41.562s25.18 22.904 49.3 54.438l32.274 47.641c-6.4731-36.813-49.087-96.511-69.512-116.93-20.094-20.092-39.944-34.366-58.834-44.553-0.3107-0.16759-1.1589 0.48406-0.9374-0.5625l-0.031 0.0312c-7.379-3.7538-17.22-8.7985-31.291-12.342-14.673-3.6951-35.464-6.7245-55.162-7.4902-4.9246-0.19142-9.9451 0.0197-15.031 0.1563z"/><path id="path3926" d="m1391.6 739.25 0.4376 1.5625c20.251 34.478 43.12 36.556 70.156 37.469l0.75-22c-24.401-0.82343-35.944 6.7983-71.344-17.031z"/><path id="path3933" d="m1455.8 785.53c-24.368 11.376-31.054 9.3313-72.563 2.5937l0.4376-0.75c19.907 17.561 47.305 32.194 76.437 18.594l-2.8124-19.938z"/></g><g transform="translate(194.07 -50.812)"><path id="path3885" d="m1171 1318.2 7.0711-138.59-26.87-226.27-11.314-205.06 94.752 135.76 113.14 277.19 60.811 181.02 32.527 161.22-128.69-57.983-104.65-77.782-36.77-31.113z" stroke="#000" stroke-width="1px" fill="none"/><path id="path3889" d="m1148.8 791.26c-6.7155 10.174-1.2435 23.109-2.1096 34.553 4.1813 84.718 11.399 169.64 25.903 253.23 8.5514 67.441 11.706 136.08 5.1096 203.88-0.9197 13.17-5.5571 25.929-7.2622 38.891 2.9638 10.578 13.658 17.56 20.721 25.808 42.58 42.418 90.73 80.164 145.22 106.32 29.034 14.08 58.473 27.583 88.413 39.525 10.906 2.16 17.312-8.7875 13.17-18.34-25.464-105.1-51.74-210.19-89.081-311.87-34.354-94.858-74.006-187.75-117.05-278.94-8.7085-18.886-20.355-36.393-35.828-50.398-12.065-13.039-21.378-28.953-32.593-42.717-3.8651-4.2967-10.413-3.0642-14.606 0.0696z" stroke="#fc9abf" stroke-width="11" fill="#fd72aa"/></g><g transform="translate(194.07 -50.812)"><path id="path3921" d="m1344 1457c-19.378-164.61-52.943-371.06-147.9-622.24l-22.1-15.76c20.307 81.809 2.305 79.148 62 342 24.398 131.4 9.9858 176.56 2 236z" stroke="#6abd81" stroke-width="1px" fill="#6abd81"/></g><g transform="translate(194.07 -50.812)"><path id="path3882" d="m1142 753c6.3003 114.83 10.43 224.61 30 324 10.982 98.06 14.984 187.4-4 248 114.86 123.8 191.26 137.04 278 180-42.451-166.64-62.365-300.18-220-636z" stroke="#fc9abf" stroke-width="22" fill="none"/></g><g transform="translate(194.07 -50.812)"><path id="path3866" d="m1274 1495c-39.378-26.507-93.269-40.48-106-90l-52-184-32-124-66-176-96-142-106-68-66 6-16 30 22 72 116 140 30 64 8 32-4 6-106-94-178-124-118-46-34 10-10 40 24 70 320 290-150-12-134 8-26 26 22 60 102 48 196 56 84 42-76 22-26 32 24 62 74 58 162 40 162 46 78-140z" stroke="#cacaca" stroke-width="11" fill="none"/><path id="path3870" d="m1003.4 1043.2c-22.619 0.6066-36.016 22.652-38.812 42.938-6.2975 34.961 2.5787 70.644 10.25 104.69 8.9604 34.217 21.852 67.335 37.187 99.188-22.228-19.94-44.612-41.848-72.875-52.75-22.869-2.5855-52.689-4.9748-67.938 16.188-14.153 23.939-5.2566 53.643 3.0625 78.062 17.13 42.919 53.303 74.189 85.76 105.64 25.506 23.47 52.897 44.694 80.553 65.421-27.38 10.418-58.853 28.762-61.562 61.25-4.2217 21.984 8.2334 42.476 25.312 55.25 19.409 19.101 44.66 29.933 71.006 35.408 38.7 10.817 81.576 11.46 115.24 35.217 11.378 6.1867 30.693 14.606 36.677-2.4252 23.18-42.661 48.499-84.363 70.198-127.7 0.6929-22.083-12.239-41.986-17.933-62.926-14.646-18.006-35.08-31.184-52.344-46.927-9.576-6.1581-20.062-22.357-32.535-12.897-4.1481 13.068-15.242-6.6035-19.938-11.625-31.934-58.458-42.333-125.37-52.976-190.58-13.461-59.558-31.829-121.49-73.399-167.86-11.933-12.123-26.975-24.089-44.938-23.562z" stroke="#faf1ef" stroke-width="22" fill="#faf1ef"/><path id="path3872" d="m782.2 709.69c-16.876-0.51999-35.403 6.7868-40.625 24.375-12.417 31.472 6.5871 63.776 23.938 89.25 32.812 47.293 74.674 87.546 108.56 133.88 19.228 36.278 37.915 74.484 42.562 115.5-88.488-74.131-173.83-153.84-274.44-211.19-40.736-22.419-81.128-47.692-126.56-59.188-21.188-6.4153-49.785 5.4691-51.125 29.812-2.3291 19.76-0.88303 40.634 10.938 57.375 36.917 62.244 93.349 109.36 146.24 157.49 59.192 51.373 136.29 108.82 191.73 164.14-59.181-8.4005-135.95-17.886-195.66-15.206-35.089 2.911-75.177-3.0083-104.82 20.135-19.449 14.9-16.624 44.559-0.625 60.875 20.309 23.472 51.881 32.073 79.25 44.375 83.699 33.119 174.33 45.865 256.56 83.032 22.272 10.1 42.251 24.343 62.812 37.656-32.382 0.8456-70.259-0.8903-94.562 24.562-13.214 13.128-13.247 32.933-6.5 49.188 11.484 31.283 38.626 53.416 63.721 73.955 33.175 24.569 73.423 39.112 114.03 44.92 12.286 0.4662 15.772-15.864 6.5625-23-12.855-13.341-18.693-31.762-16.188-50.125 0.37676-24.406 21.787-41.954 41.562-52.688 12.591-10.377-2.4158-22.193-11.624-27.893-40.545-31.632-77.88-68.035-111.5-107.04-23.004-29.863-39.008-68.073-33.625-105.94 3.9199-22.063 26.573-37.122 48.375-34 14.956 0.7256 31.407-3.2351 43.5 7.75 9.574 4.2713 19.432 18.444 30.438 8.8125 8.8781-12.772-3.9847-27.36-6.6875-40.188-16.43-45.201-32.211-96.026-17.312-143.56 4.7528-17.921 21.144-36.274 41.312-30.812 20.804 3.3425 34.685 20.636 52.938 29.25 12.349 1.6462 12.197-11.7 6.2574-20.523-37.8-100.77-83.62-201.69-162.17-276.82-32.26-28.95-71.43-59.87-117.23-58.19z" stroke="#faf1ef" stroke-width="22" fill="#faf1ef"/></g><g transform="translate(194.07 -50.812)" fill="#cacaca"><path id="path3853" d="m944.44 1095.4c0.28283 52.772 14.516 103.1 41.469 155.06-11.029-8.2798-23.517-16.354-38.219-24.062l-1.5312-0.8125-1.7188-0.3125c-34.289-5.8841-58.23-1.9387-73.812 10.469-15.583 12.408-20.1 31.72-19.438 49.781 0.66251 18.062 6.0272 36.076 11.719 50.625 2.8458 7.2743 5.791 13.668 8.4062 18.719 2.4523 4.7361 4.1406 7.7923 6.5625 10.781l-0.0312 0.031c0.14902 0.2035 0.31942 0.3904 0.46875 0.5937 37.379 50.888 84.766 94.313 137.81 133.38-22.94 11.471-37.216 25.18-43.875 40.812-8.2649 19.403-6.5034 45.328 2.7653 62.063s19.648 23.942 32.871 34.835c12.863 10.598 30.009 19.154 39.864 22.039v0.031c0.1843 0.066 0.4076 0.122 0.5938 0.1874 0.08 0.028 0.1699 0.066 0.25 0.094 22.334 7.7901 57.893 12.33 88.125 16.688 15.296 2.2048 25.126 1.7944 34.094 3.7813 7.7995 0.6696 29.25 4.4687 29.25 4.4687-18.264-10.365-18.137-17.478-60.188-27-30.73-4.4293-67.429-12.758-84.719-18.938l-0.4062-0.125-0.4062-0.125c-1.7654-0.4761-15.859-4.2051-27.539-13.828-11.68-9.6228-27.4-19.656-34.661-32.765-7.2605-13.109-4.6894-31.01 0.32475-42.782s18.795-25.16 49.469-36.812l19.312-7.3437-16.875-11.906c-58.317-41.196-109.58-86.805-148.78-140.34l-0.25-0.3438-0.25-0.2812c0.35845 0.422-2.0121-2.9906-4.25-7.3126-2.2379-4.3219-4.9154-10.067-7.4688-16.594-5.1068-13.054-9.6696-29.318-10.188-43.438-0.51793-14.12 2.5344-24.91 11.125-31.75 8.4162-6.7011 24.839-11.072 54.625-6.25 51.516 27.406 73.798 60.492 108.92 91.612l-0.1045-0.3936c-44.726-78.392-75.447-161.06-76.125-236.75 4.5848-28.208 8.3286-33.395 13.344-39.375 1.1481-1.4776 10.565-10.254 21.5-9.4063 8.3914 0.6503 18.268 5.6284 29.375 15.25 0.018 0.016 0.044 0.015 0.062 0.031 27.667 25.756 58.281 80.467 77.531 173.06 17.197 133.35 72.634 228.53 136.88 294.53l0.5624 0.2187c-45.66-74.567-99.023-168.4-115.66-297.94l-0.063-0.4063-0.094-0.4375c-19.885-95.962-51.35-154.79-84.469-185.44l-0.125-0.125-0.1563-0.094c-12.514-10.849-24.31-18.464-35.906-22.625-5.7982-2.0807-11.652-3.2673-17.344-3.4063l0.001 0.001c-5.6918-0.139-11.22 0.7768-16.406 2.8437-20.744 8.2677-30.806 31.269-35.875 63.469z"/><path id="path3859" d="m1104.7 1134.7c-32.1-121.5-118.3-345.93-261.45-423.39l-0.5-0.25-0.5-0.21875c-26.193-10.991-46.477-15.289-62.906-14.781-16.429 0.5082-29.086 6.3392-37.375 14.562-8.2889 8.2233-12.171 18.16-14.219 26.312-2.0474 8.1525-2.5319 15.932-2.5938 16.312l-0.16 0.79v0.78125c-0.39732 23.741 10.121 47.282 31.531 77.594 21.408 30.308 54.192 68.184 101.19 121.81 0.004 0.005-0.004 0.0266 0 0.0312 6.7501 7.7542 19.592 32.023 29.438 56.406 4.2054 10.415 7.8489 20.974 10.844 30.688-95.4-81.28-180.35-164.85-349.41-242.3l-0.5625-0.25-0.5625-0.1875c-22.071-7.3351-38.947-10.455-52.781-9.875-13.834 0.58038-25.14 5.583-32.188 13.906-14.095 16.646-11.643 39.207-11.5 58.5v1.1875l0.28125 1.1562c11.618 51.144 67.578 108.64 136.66 170.72 58.707 52.759 126.89 107.45 187.22 158.34-80-13.3-159.82-14.7-240.15-2.1l-1.125 0.1875-1.0312 0.375c-18.901 7.1087-31.97 16.926-39.406 28.938-7.4359 12.012-8.5374 25.769-5.4375 37.969 6.1593 24.24 26.301 44.022 48.406 53.156 0.14561 0.06 0.29173 0.1283 0.4375 0.1875 103.82 47.727 144.11 48.922 213.5 70.875l0.1875 0.062 0.1875 0.062c57.539 15.984 94.156 32.379 121.53 48.5-8.1852 0.7827-17.494 2.3752-29.25 5.7187l-0.25 0.094-0.25 0.062c-17.437 5.8413-30.011 14.02-38.219 24.188-8.2076 10.167-11.55 22.128-11.469 33.438 0.16209 22.62 11.285 45.006 21.5 59.219l0.1875 0.2813 0.21875 0.25c68.797 84.56 149.13 88.724 217.19 101.88l17.469 3-4.4375-12.594-20.562-14.186c-65.886-11.983-131.26-19.726-191.59-93.687-8.7941-12.298-17.866-30.019-17.969-44.313-0.0515-7.1904 1.6872-13.391 6.5938-19.469 4.8838-6.0498 13.407-12.175 27.906-17.062 27.503-7.7769 37.019-4.8907 59-5.5l32.219-0.9062-26.062-18.969c-31.812-23.202-75.162-48.085-157.5-71-0.003-0.0008 0.003-0.03 0-0.031-0.1302-0.041-0.24503-0.053-0.375-0.094-71.324-22.522-108.84-22.986-211-70l-0.21875-0.094-0.21875-0.094c-15.533-6.3123-32.003-23.261-35.844-38.375-1.9202-7.5569-1.3279-14.23 2.8438-20.969 4.0855-6.5996 12.392-13.694 27.562-19.563 90.791-14.088 189.89-8.3288 281.47 5.3438l0.0312-0.5625c-63.49-72-150.34-137.5-218.58-198.8-67.67-60.79-120.2-119.51-129.66-158.21-0.0995-19.248 0.0574-32.73 5.5741-39.246 2.8232-3.3344 11.355-9.9968 20.94-10.399 9.4918-0.3982 20.176 2.6416 40.455 9.3321 180.16 82.66 261.31 171.26 369.03 260.22l19.062 15.75-1.06-24.7c-0.75117-17.354-9.1226-42.578-19.438-68.125s-21.878-49.545-33.281-62.625v-0.0312c-46.96-53.55-79.51-91.3-99.78-120-20.18-28.58-27.72-47.37-27.5-64.31 0.55294-4.0174 0.75991-7.9382 2.0625-13.125 1.4464-5.7594 4.0173-11.677 8.4062-16.031 4.389-4.3542 10.646-7.8189 22.562-8.1875 11.822-0.36569 29.184 2.866 53.188 12.875 130.59 71.028 216.02 272.67 247.63 390.94z"/></g><g transform="translate(194.07 -50.812)"><path id="path3847" d="m2001.6 1232c-5.7339-39.895-20.258-72.772 19.731-134.7l-50.8-37.8-17-26-12 81 7 72.5 38.5 51z" stroke="#d40055" stroke-width="1px" fill="#d40055"/></g><g transform="translate(194.07 -50.812)"><path id="path3844" d="m1960.5 1201c3.6722-7.1041 19.857-10.638 16.75-48-6.1585-29.029-22.603-33.585-34.75-39l2.5 65z" stroke="#f95" stroke-width="1px" fill="#f95"/></g><g transform="translate(194.07 -50.812)"><path id="path3875" d="m1572 714-60-81c-38.261-30.638-87.092-70.125-115-49l-7-11-51-94 37-31 72-71 109-123 68-91 51-46 127-50 99-4 163 35 113 87 78 133 13 56-13 29-92 46-60-80-37-28-38-13 52 77 29 65-8 22-179 93-164 72-143 45z" stroke="#000" stroke-width="1px" fill="none"/><path id="path3879" d="m1858.9 64.126c-45.72-0.84513-91.482 8.7823-132.54 29.08-47.277 20.685-89.38 52.437-122.29 92.154-41.013 47.556-71.182 103.18-113.26 149.91-42.356 48.232-88.139 94.428-140.03 132.33-9.7888 5.1562-7.1478 17.343-0.3011 23.868 16.184 24.074 27.428 51.089 37.168 78.235 5.268 9.9152 17.69 5.4198 26.251 9.4576 22.162 6.3265 44.73 12.404 65.363 22.539 18.424 14.543 36.401 29.994 50.337 49.1 14.783 18.901 27.57 49.828 47.13 63.958 10.963 3.4395 27.849-4.6775 38.203-7.1525 114.66-44.694 271.17-96.892 344.06-143.08 16.219-3.1825 17.32-9.9606 28.503-12.186 32.079-14.948 61.894-34.047 92.536-51.751 9.1816-7.0804 23.721-10.247 26.921-22.054-1.6262-19.802-8.7994-38.955-16.131-57.32-14.413-33.503-35.885-63.332-56.745-93.029 30.329 13.398 61.162 28.137 83.129 53.74 17.623 18.096 30.957 40 47.424 58.846 10.368 7.5186 20.843-5.2493 30.47-8.7918 20.926-12.461 43.801-22.066 63.129-36.973 14.31-14.736 9.2297-36.984 3.2262-54.27-18.824-57.604-49.169-111.64-88.919-157.42-28.422-31.199-59.828-60.222-97.729-79.498-38.564-21.541-83.138-27.296-126.01-34.77-29.704-4.5474-59.9-5.0255-89.906-4.9234z" stroke="#fff" stroke-width="11" fill="#fd72aa"/></g><g transform="translate(194.07 -50.812)" stroke="#6abd81" stroke-width="1px" fill="#6abd81"><path id="path3930" d="m1734 666c-44-119.07-179.8-183.08-329-239l43-48c54.549 11.402 141.01 15.021 250 93 7.2268 6.4946 4.2661-5.107 1.4997-8.3759-11.502-13.591-36.92-51.984-60.638-70.519-7.3283-5.7269-0.7175-9.1727 2.1378-7.1056 112.55 79.35 180.78 157.32 208 234z"/><path id="path3932" d="m1932 586c-105.8-241.54-258.3-265.18-411-288l90-108c70.23-35.118 219.17-45.526 345-11.586 174.51 51.326 256.08 191.16 274 231.59l-57 35-60-65-40-32-43-20 40 57 42 96-27 18-128 71z"/></g><g transform="translate(194.07 -50.812)"><path id="path3863" d="m1870.1 50.812c-44.921 0.04554-91.423 6.3294-132.47 24.094l-0.2 0.094-0.2 0.062c-61.502 29.372-115.75 49.167-214.03 201.28-0.025 0.038-0.069 0.0557-0.094 0.0937-69.564 91.786-133.69 150.42-195.44 193.53l-4.9063 1.4062 6.7813 11.312 61.156 96.562 5.601 11.995-3.1636-2.1826c50.151 2.3061 82.045 20.378 107.25 45.469 25.205 25.09 43.161 57.739 62.281 88.312l4.4063 7.0625 8-2.3438c178.3-52.543 358.1-118.54 540.84-235.28l6.125-3.9375-1.2187-7.1562c-8.3755-49.989-34.602-92.07-64.375-135.03 35.049 20.854 59.762 46.594 101.97 108.22l5.7187 8.3438 8.7813-4.9688 90.469-51.188 2.1876-1.7812 1.5624-1.7188c14.11-21.295 13.452-41.319 9.4376-52.969h0.031c-25.3-93.54-101.5-221.78-226.3-271.32l-0.4-0.155-0.5-0.125c-33.7-10.486-104.2-27.763-179.1-27.688zm0.094 22.688c71.286 0.14222 140.15 15.991 172.12 25.875 115.18 45.922 189.19 169.04 213.06 256.53l0.1562 0.46875 0.1563 0.46875c1.3661 3.6666 6.0269 21.785-5.3027 32.946l-79.666 43.929c-53.3-76.31-68.3-85.29-127.3-112.85l-41-17.281 28.434 36.738c38.007 54.676 55.521 83.407 66.84 137.33-175.4 111.01-348.1 175.09-520.7 226.34-17.219-28.059-34.988-59.168-61-85.062-27.1-27.01-67.8-47.15-119.7-50.94l-47.563-86.031c61.035-43.841 124.4-102.93 192.12-192.31l0.25-0.34375 0.2188-0.34375c96.93-150.23 142.47-163.98 205.12-193.88 0.072-0.03124 0.1465-0.06259 0.2188-0.09375 0.052-0.02487 0.1041-0.0376 0.1562-0.0625 37.027-15.937 80.647-21.523 123.44-21.438z" fill="#fc9abf"/></g><g transform="translate(194.07 -50.812)" fill="#cacaca"><path id="path3813" d="m1994.7 915.07c0.83 17.427 17.389 29.756 20.021 32.027 6.6673 4.5509 18.378 10.784 28.13 15.529 6.6144 3.2187 21.261 8.9311 29.781 10.719 19.19 3.486 31.229 5.8123 58.812 3.7812 0.5593 20.069-0.9394 30.957-6.0624 51.094-0.01 0.022 0.01 0.04 0 0.062-5.4096 18.764-11.815 34.918-23 45.375-11.158 10.432-27.746 16.922-58.688 14.406-32.801-7.712-46.855-14.18-55.956-27.162-9.1814-13.096-10.381-11.115-23.184-35.047l-10.504-18.011c-3.1007 7.9835-7.1615 15.121-9.2696 23.979-11.901 57.106-16.332 94.001-8.2114 133.12 5.7513 27.701 18.049 52.517 32.375 66.406-103.48 27.529-203.68 46.893-386.28 2.5392l-1.7031 0.7658c109.49 63.407 285.06 58.188 399.83 15.255 9.2186-4.1557 17.205-11.889 21.376-17.622l-14.594-8.8124c-15.827-12.623-26.396-18.79-33.469-52.563-5.937-28.352-6.038-69.281 2.7813-127.03 4.0312 9.2592 8.167 18.06 14.062 26.469 12.237 17.455 32.148 30.929 68.625 39.375l0.75 0.1874 0.7813 0.063c35.368 3.0209 60.048-5.0441 76.312-20.25s23.468-35.775 29.188-55.688l0.062-0.1562 0.031-0.1562c6.3224-24.84 7.9233-39.453 6.3126-69.313-0.3471-3.0598-0.1483-6.1197-1.3964-9.1795-2.6798-1.3878-7.2322-0.40735-10.335-0.65094-20.235 2.6202-36.852 1.6345-50.875-1.0312l0.4375-0.96484 0.2187-2.375c17.026-176.35-27.741-286.19-96.54-387.17l-18.629 9.7117c64.94 96.751 108.99 205.62 93.513 372.52-0.6366 0.86108-1.459 1.5524-2.0937 1.6562-10.889-0.54767-16.208-1.489-32.062-6.5-14.529-3.9346-31.693-15.424-40.52-25.351z"/><path id="path3825" d="m2029.5 1008c-11.938 9.1937-10.168 26.841 2.5136 32.975 7.0668 1.7943 10.784 0.526 16.875-3 7.5103-4.3478 8.6381-15.494 5.7378-21.801l-0.073-0.021c-18.534 26.236-25.464 9.7173-25.059-8.1671z"/><path id="path3833" d="m1405.5 621.48c-3.555-141.01-152.47-260.65-215.36-289.67-7.6803-2.4135-20.038 0.76453-21.813 3.0938-73.229 96.454-88.189 191.56-69.656 288.03 0.8858 46.177 51.024 236.4 162.66 266.88l1.3438-0.125c-64.727-64.335-114.74-155.61-133.04-244.88-25.062-87.813 13.482-270.1 53.601-288.86 45.346 9.1132 181.53 148.74 220.33 268.19z"/><path id="path3839" d="m1191.2 524.91v-0.1875c-16.652 90.784 16.606 162.16 78.125 213.69l1.25 0.6875c-37.388-62.597-69.573-128.4-79.375-214.19z"/></g><g transform="translate(194.07 -50.812)"><path id="path3949" d="m1969.1 576.1-21.726 11.004-11.337 5.4798-0.4283 0.70012-0.2188 0.90625c-21.985 83.57-8.1457 156.55 9.1875 209l0.031-0.0312c-5.2249-56.647-11.904-119.27 8.5992-198.04 3.3879-7.0972 10.272-12.724 14.432-15.274 3.3701-2.0657 9.5926-3.4815 17.825-0.93279 0.8819 0.26289 1.6619 1.0928 1.6619 1.0928 1.8717 2.8244 5.262 8.4056 8.5853 13.787 6.6468 10.763 7.8315 12.562 10.814 19.561l-0.2561 0.21383s3.5585-8.4713 2.3597-28.302c0 0-0.9833-14.838-4.0834-18.827-1.55-1.9943-2.915-3.6529-4.9062-5.375-0.9956-0.86105-2.0312-1.8504-4.5312-2.7812-0.7333-0.27303-1.9475-0.56887-3.1563-0.625v-0.0312c-4.3977-2.3549-11.008 2.4623-11.008 2.4623z"/><path id="path3962" d="m2024.9 558.22c-2.995 5.556-12.341 8.2135-15.078 9.2456-2.3473 0.88526-9.0174 3.8211-20.719 1.6875l2.8124 10.938c15.05 4.3947 20.701-0.1117 22.844-1.6875 10.283-7.5632 9.6159-14.235 10.125-20.188z"/><path id="path3964" d="m2032.8 584.07c-5.8424 5.3006-16.143 7.2289-20.682 6.8465-2.9797-0.25103-4.4935-3.8961-10.672-8.0141l-1.9859 16.768c7.1964 1.9902 3.7946 3.2788 11.493 3.5 8.1643 0.23459 20.906-7.7371 21.846-19.104z"/></g><g transform="translate(194.07 -50.812)"><path id="path4376" d="m1306.7 2545.7-33.234-58.69-12.021-84.146 12.021-94.045 43.134-118.09 97.581-77.075 55.861-43.841 7.0711-25.456-88.388 19.799-89.802-15.556-65.054-43.841-11.314-78.489 33.941-86.267 33.941-36.77 85.56-15.556 60.104 36.062-0.7071 40.305-1.4143 10.607 44.548-19.799 94.045-9.1924 67.882 25.456 24.042 53.74v120.21l-33.941 173.95-60.811 164.05-86.267 114.55-90.51 67.882-48.083 8.4853z" stroke="#000" stroke-width="1px" fill="none"/><path id="path4380" d="m1331.3 1786.7c-23.053 3.2597-51.664 6.8375-62.049 31.643-23.319 36.546-42.437 77.81-39.686 122.24-1.9462 26.296 3.3783 54.323 24.042 72.478 56.412 60.134 153.8 60.316 222.12 20.683 12.38-9.3119 0.6715 10.303-1.3258 16.175-22.454 47.267-72.759 71.546-111.02 104.48-23.659 16.18-44.464 36.495-55.508 63.463-39.487 74.164-50.609 161.23-37.742 243.78 11.249 40.555 29.861 88.403 74.865 100.76 40.023 11.282 74.854-20.718 103.08-44.453 87.21-71.85 145.36-174.09 173.46-282.72 29.64-100.65 49.383-206.23 39.534-311.44-7.27-46.985-55.33-75.101-99.702-77.958-42.803-4.1449-84.908 9.5197-123.3 27.224 4.5848-18.047 7.4213-38.047 2.74-56.038-22.079-12.988-43.486-30.02-67.794-37.83-13.906 2.5044-27.813 5.0087-41.719 7.513z" stroke="#faf1ef" stroke-width="11" fill="#faf1ef"/></g><g transform="translate(194.07 -50.812)"><path id="path4369" d="m1479.8 2021.2c-0.1282 0.4572-13.855 7.4968-32.525 17.338-40.432 14.54-83.455 16.683-109.81 10.719l-0.1875-0.031-0.1562-0.031c-44.746-8.5422-88.026-40.64-97.375-77.187-11.113-56.908 8.227-106.21 46.392-163.59l-0.048-0.033-0.032-0.4077c-60.603 49.981-80.631 103.84-67.875 168.56l0.063 0.2812 0.062 0.2813c12.214 48.6 62.509 83.581 114.31 93.594v0.031c0.1189 0.027 0.2556 0.036 0.375 0.062 32.314 7.2152 78.077 4.3489 122.47-11.781l0.6875-0.25 0.625-0.3126c0.032-0.016 0.062-0.015 0.094-0.031-9.1894 14.175-24.208 29.724-51.625 48.344l-0.1563 0.094-0.1563 0.094c-59.097 42.989-85.14 59.88-97.469 83.219-0.035 0.062-0.059 0.1259-0.094 0.1875-0.035 0.066-0.091 0.1216-0.125 0.1875-52.85 92.753-60.825 178.91-52.125 263.03l0.062 0.5 0.094 0.4688c2.7536 14.066 8.8609 33.905 16.875 52.719 7.9183 18.589 16.648 35.907 29.656 45.875 0.158 0.1318 0.3109 0.2442 0.4688 0.375 19.658 16.27 38.978 24.062 57.375 24.812 18.545 0.7562 35.421-5.5448 50.406-14.687l0.2813-0.1563 0.2813-0.1875c199.68-138.82 220.13-323.43 247.69-417.72l0.125-0.4374 0.094-0.4376c12.873-62.868 18.928-123.86 18.688-186.75v-0.031c0.0008-0.054-0.0007-0.102 0-0.1562 0.6027-45.204-13.698-75.406-35-94.094-21.333-18.715-48.215-25.83-71.844-30.156l-0.5313-0.094-0.5625-0.062c-53.027-4.3322-91.075 7.9029-126 23.281 1.4903-17.096-4.3645-21.203-11.656-28.719l0.062-0.4062c3.0347 16.682 2.7654 27.983 0.2813 37.25-2.7492 10.256-9.8224 25.042-17.906 29.531l-1.0312 0.5938c0.2492-0.1158 0.4701-0.2281 0.7188-0.3438 47.934-22.308 86.215-44.629 153.25-39.281 22.026 4.0761 44.44 10.656 60.719 24.937 16.425 14.41 28.082 36.681 27.5 77.438v0.125 0.094c0.2471 61.432-5.6169 120.77-18.188 182.22-0.013 0.062-0.018 0.1251-0.031 0.1876-28.712 98.828-46.625 271.03-238.56 404.69-12.522 7.6085-24.858 11.937-37.875 11.406-13.08-0.5333-27.558-5.8582-44.656-20.125l-0.25-0.1875-0.2188-0.1562c-5.6343-4.2065-15.651-19.925-23.031-37.25-7.288-17.11-13.045-36.009-15.406-47.813-8.3424-81.244-0.9789-161.24 49.562-249.75l0.094-0.1562 0.094-0.2188c7.838-15.064 31.542-32.611 90.844-75.75 0.097-0.065 0.1849-0.1219 0.2813-0.1874 57.359-39.045 68.605-73.385 76.219-99.125l0.6167-13.516z" fill="#cacaca"/></g></svg>