<?xml version="1.0" encoding="UTF-8"?><svg xmlns="http://www.w3.org/2000/svg" xmlns:xlink="http://www.w3.org/1999/xlink" version="1.1" viewBox="0 0 5571.582 5571.5806" width="5571.582" height="5571.5806"><defs id="defs4727"><linearGradient id="linearGradient3959"><stop id="stop3961" stop-color="#56c028" offset="0"/><stop id="stop3963" stop-color="#317315" offset="1"/></linearGradient><clipPath id="clipPath3895" clipPathUnits="userSpaceOnUse"><path id="path3897" opacity=".5" style="color:#000000" d="m4836.3 1934c101.17 267.61 21.861 536.98-177.13 601.64-199 64.665-442.32-99.858-543.49-367.47s-21.861-536.98 177.13-601.64c199-64.665 442.32 99.858 543.49 367.47z" fill-rule="evenodd" stroke="#f00" stroke-width="1.1209px" fill="#0f0"/></clipPath><clipPath id="clipPath3899" clipPathUnits="userSpaceOnUse"><path id="path3901" opacity=".5" style="color:#000000" d="m4819.4 1956.7c101.17 255.72 21.861 513.11-177.13 574.9-199 61.791-442.32-95.42-543.49-351.14s-21.861-513.11 177.13-574.9c199-61.791 442.32 95.42 543.49 351.14z" fill-rule="evenodd" stroke="#f00" stroke-width="1.0957px" fill="#0f0"/></clipPath><clipPath id="clipPath3903" clipPathUnits="userSpaceOnUse"><path id="path3905" opacity=".5" style="color:#000000" d="m4785.4 1939.8c101.17 255.72 21.861 513.11-177.13 574.9-199 61.791-442.32-95.42-543.49-351.14s-21.861-513.11 177.13-574.9c199-61.791 442.32 95.42 543.49 351.14z" fill-rule="evenodd" stroke="#f00" stroke-width="1.0957px" fill="#0f0"/></clipPath><clipPath id="clipPath3911" clipPathUnits="userSpaceOnUse"><path id="path3913" opacity=".5" d="m5196 1440c192.18 204.46 174.26 618.42 104 884-85.767-29.8-168.15-66.368-201.66-200.69-16.7-221-22.1-502.9 97.7-683.3z" stroke="#f00" stroke-width="1px" fill="#0f0"/></clipPath><clipPath id="clipPath3899-0" clipPathUnits="userSpaceOnUse"><path id="path3901-9" opacity=".5" style="color:#000000" d="m4819.4 1956.7c101.17 255.72 21.861 513.11-177.13 574.9-199 61.791-442.32-95.42-543.49-351.14s-21.861-513.11 177.13-574.9c199-61.791 442.32 95.42 543.49 351.14z" fill-rule="evenodd" stroke="#f00" stroke-width="1.0957px" fill="#0f0"/></clipPath><clipPath id="clipPath3943" clipPathUnits="userSpaceOnUse"><path id="path3945" style="color:#000000" d="m4952.6 2151.9a333.75 476.59 0 1 1 -667.51 0 333.75 476.59 0 1 1 667.51 0z" clip-path="url(#clipPath3899-0)" fill-rule="evenodd" transform="translate(-33.941 -16.971)" fill="#f00"/></clipPath><clipPath id="clipPath3947" clipPathUnits="userSpaceOnUse"><path id="path3949" style="color:#000000" d="m4952.6 2151.9a333.75 476.59 0 1 1 -667.51 0 333.75 476.59 0 1 1 667.51 0z" clip-path="url(#clipPath3899-0)" fill-rule="evenodd" transform="translate(-33.941 -16.971)" fill="#f00"/></clipPath><linearGradient id="linearGradient3965" y2="1712.6" xlink:href="#linearGradient3959" gradientUnits="userSpaceOnUse" x2="5244.5" y1="2264.1" x1="5267.6"/><linearGradient id="linearGradient3967" y2="1855.6" xlink:href="#linearGradient3959" gradientUnits="userSpaceOnUse" x2="4605.9" y1="2475.1" x1="4630.1"/><mask id="mask4044" maskUnits="userSpaceOnUse"><path id="path4046" d="m5216 1416c55.57 102.95 93.119 214.07 114.01 329.27l224-35.3-112-346z" stroke="#fff" stroke-width="54" fill="#fff"/></mask><mask id="mask4048" maskUnits="userSpaceOnUse"><path id="path4050" d="m5216 1416c55.57 102.95 93.119 214.07 114.01 329.27l224-35.3-112-346z" stroke="#fff" stroke-width="54" fill="#fff"/></mask><clipPath id="clipPath4190" clipPathUnits="userSpaceOnUse"><path id="path4192" opacity=".5" d="m5184.1 1539c206.84 196.33 219.73 625.14 169.39 904.76-87.744-24.172-172.62-55.592-216.01-191.7-33.109-226.94-59.454-517.54 46.617-713.06z" stroke="#f00" stroke-width="1.0175px" fill="#0f0"/></clipPath></defs><g display="none" transform="translate(-123.11 -234.68)"><rect id="rect4129" style="color:#000000" fill-rule="evenodd" display="inline" height="6080.1" width="6120.2" stroke="#0f0" y="-20.033" x="-30.05" stroke-width="1px"/></g><g transform="translate(-123.11 -234.68)"><path id="path5253-5" d="m2619.4 3801.3c-29.678 102.92-31.804 205.84-15.025 295.49-79.299-31.216-155.72-18.663-177.26 45.683-140.13 418.56-73.811 921.04-12.129 1218.1 11.429 55.048 32.963 93.746 82.392 101.34 108.11 16.606 340.53 11.05 449.15-14.112 44.149-10.228 82.824-37.901 67.631-71.594-28.501-63.207-137.02-1026.9 20.939-1519.9z" fill="#dbd476"/><path id="path5253" d="m2615 4100.4c-79.299-31.216-166.34-22.205-187.89 42.141-140.13 418.56-73.811 921.04-12.129 1218.1 11.429 55.048 32.963 93.746 82.392 101.34 108.11 16.606 340.53 11.05 449.15-14.112 44.149-10.228 82.824-37.901 67.631-71.594-28.501-63.207-137.02-1026.9 20.939-1519.9l-415.69-55.092" stroke="#aa9f37" stroke-width="54" fill="#dbd476"/><path id="path5255" d="m3410.7 3921.5c-86.89 494.17 26.657 1078.5 100.17 1437.4 10.63 51.907 66.817 67.783 105.18 70.117 160.37 9.7584 325.16 6.5477 450.75-10.017 63.782-8.4126 75.517-47.536 40.067-120.2-224.37-459.91-301.23-955.8-367.94-1420.9z" stroke="#aa9f37" stroke-width="54" fill="#dbd476"/><path id="path5253-51" d="m2593.4 3793.8c-54.634 189.47 21.725 331.08 15.376 397.49 37.919-59.308-9.7311-209.99 36.499-382.52z" fill="#aa9f37"/></g><g transform="translate(-123.11 -234.68)"><path id="path5258" d="m2484.1 2884.8c-129.5-917.2-858.3-1369.9-1562.6-1101.8-830.77 316.1-855.52 1147.7-691.12 1612.7 180.48 510.45 482.41 916.36 741.24 1299.7-248.44-81.212-462.2 2.8138-490.82 222.87-37.596 289.09 196.85 470.29 350.58 510.85 229.17 60.458 492.88-62.213 573.46-197.83 103.62-174.41 71.119-445.74-2.5041-500.83 389.81-168.18 186.94-588.28 60.1-843.91 203.76 64.987 414.19-64.663 440.73-240.4 21.333-141.25-136.44-386.52-300.5-390.65-192.59-4.8542-273.22 180.87-205.34 345.58-331.47-144.15-249.09-627.65-180.3-786.31 220.67-508.97 846.56-371.2 1066.8 180.3z" stroke="#d9890c" stroke-width="54" fill="#f2a42e"/><path id="path5260" fill="#d9890c" d="m955.19 4632.8-37.25 34.812c100.6 107.63 139.66 219.32 116.31 335.69-5.8194 29.007-25.88 40.971-56.062 46-30.182 5.0288-67.544-2.7086-86.688-13.125-41.796-22.742-68.059-51.58-71.274-121.35-40.504 80.911 14.606 147.45 46.181 165.75 32.35 18.754 77.107 26.204 120.16 19.031 43.05-7.1726 87.391-34.802 97.719-86.281 26.824-133.7-20.734-264.59-129.09-380.53z"/><path id="path5262" fill="#d9890c" d="m1065.1 4431.5c-74.005 118.34-26.304 248.57 61.906 312.03 71.597 51.507 149.28 54.146 216.28 36.188 67.003-17.959 125.35-54.972 168.22-83.156l-28-42.6c-42.05 27.647-96.415 61.216-153.44 76.5-57.022 15.284-114.71 13.791-173.28-28.344-69.098-49.709-108.4-147.24-48.25-243.88 50.565-81.232 147.53-62.993 208.83-54.902-60.877-46.802-202.02-52.21-252.27 28.152z"/><path id="path5264" fill="#d9890c" d="m1544.7 3491.1c5.5107 35.621 10.67 90.928-31.652 115.36-13.987 8.0755-44.724 3.4676-77.76-12.968-31.335-15.589-65.681-37.352-131.75-83.303l-37.546 31.583c69.624 63.935 117.69 93.344 162.41 108.79 44.719 15.448 88.276 20.313 119.06 6.7205 58.189-25.689 74.181-114.07-2.7672-166.19z"/></g><g transform="translate(-123.11 -234.68)"><path id="path5328" fill="#fdfe97" d="m4267.1 2704.5-716.19-500.83-240.4 881.47-420.7-220.37c-303.6-41.023-608.92-86.188-756.26 250.42-107.17 267.11-134.81 534.22-55.092 801.34l530.88 60.1c193.66 154.93 387.31 145.26 580.97 130.22 555.62 70.636 776.62-160.05 886.48-490.82 33.289-140.82 36.585-291.64 30.05-445.74 18.965-155.26 61.485-310.52 160.27-465.78z"/><path id="path5279" d="m4306.4 2649.8c-137.71 199.29-216 395.14-204.54 654.91 29.579 670.7-403.74 875.76-921.03 810.99-206.11 44.222-417.09 7.5445-557.61-126.37-8.4647-8.0662-16.674-16.485-24.611-25.26" stroke="#aa9f37" stroke-width="54" fill="none"/><path id="path5281" fill="#aa9f37" d="m3373.5 2710.8c-42.49 187.92-122.54 497.1-116.31 541.26 28.77-13.44 126.35-341.53 168.84-528.73z"/></g><g transform="translate(-123.11 -234.68)"><path id="path3856" fill="#fdfe97" d="m2500 3774 108 190-164 262-340-72-22-182z"/><path id="path5330" d="m2110.1 4157.2c-32.851-23.559-109.35-51.552-155.22 29.547-248.68 439.71-346.1 807.71-325.81 1317.4 2.0505 51.518 17.238 109.92 63.746 116.87 170.76 25.513 367.3 21.617 509.97 3.5413 53.832-6.8203 86.537-46.084 77.912-84.994-128.53-579.82-19.68-1112.2 325.81-1572.4" stroke="#aa9f37" stroke-width="54" fill="#fdfe97"/><path id="path3854" fill="#fdfe97" d="m3280 3092c-205.98-144.39-416.02-274.61-664-272-256.65 50.902-461.41 169.9-548 444-77.142 275.95-23.071 519.1 24 764l16 216 428-336z"/><path id="path5358" fill="#fdfe97" d="m3010.2 3999.1 332.9 38.956-14.166 141.66-378.93-28.331z"/><path id="path5279-2" fill="#aa9f37" d="m2471.8 3550c-44.538 165.04 19.548 335.77 106.78 432.22 8.3869 9.2726 17.054 18.163 26 26.688l37.281-39.094c-7.9837-7.6077-15.732-15.534-23.219-23.812-77.877-86.102-123.56-251.42-146.85-396z"/><path id="path5332" d="m2968.9 4118.5c-5.1075 12.49-10.239 25.118-15.384 37.88-155.62 386-323.68 894.89-212.43 1418.7 12.436 58.548 38.609 90.326 70.829 99.16 194.66 53.371 467.51 37.927 559.55 7.0829 61.144-20.491 70.145-64.973 54.588-106.24-150.09-398.19-141.93-1040.1-86.915-1414.8 1.9732-13.44 4.0067-26.536 6.0954-39.264" stroke="#aa9f37" stroke-width="54" fill="#fdfe97"/><path id="path5332-7" fill="#aa9f37" d="m2943.9 4108.2c-5.1226 12.527-10.274 25.192-15.437 38l50.062 20.188c5.127-12.717 10.252-25.297 15.344-37.75 18.96-46.363 39.376-112.1 51.669-150.88-46.14 5.4863-82.566 83.803-101.64 130.44zm374.66 8.375c-2.1145 12.886-4.162 26.135-6.1563 39.719l53.438 7.8437c1.9521-13.296 3.9683-26.241 6.0312-38.812 6.921-42.179-3.2867-97.876-27.959-122.84-12.278 8.6746-18.26 70.864-25.353 114.09z"/><path id="path5330-1" d="m2649.9 2797.6c-143.38-0.9328-277.58 44.234-389.72 136.81-136.11 112.37-206.58 246.8-236.81 387.94-30.231 141.14-21.265 288.8-2 432.22 19.2 142.93 79.849 365.4 75.359 473.59 66.22-98.284-2.9895-340.54-21.828-480.78-18.902-140.71-26.862-282.32 1.2813-413.72 28.144-131.4 91.389-252.79 218.38-357.62 126.27-104.24 279.95-142.37 447.88-117.06 167.93 25.304 362.33 122.73 538.74 276.64l35.5-40.688c-182.4-159.2-385.4-262.2-566.2-289.4-33.905-5.1091-67.475-7.7848-100.56-8z" fill="#aa9f37"/></g><g transform="translate(-123.11 -234.68)"><g id="g3815" transform="matrix(.16182 .011431 -.079606 .27736 2268.8 2340.2)"><path id="path3775" d="m1860.5 3246.1c-108.47-264.93-436.52-37.135-368.67 132.34 205.38 513 700.28 957.51 1006.7 1101.3-238.2-334.77-466.75-815.16-638.08-1233.6z" stroke="#bb4d00" stroke-miterlimit="5.8" stroke-width="41" fill="#e67b12"/><path id="path3773" d="m1666.7 3189.4c78.593 117.02-14.385 150.52-99.257 4.7265-65.604-112.7-128.24-236.06-113.44-444.29-89.794-24.371-103.45-210.93 85.077-231.6-39.854-161.13 135.92-183.56 170.15-75.624 99.257-26.784 198.51-33.542 297.77 51.992l160.7 165.43c50.836 43.615 113.94 106.62 66.171 174.88 66.515-39.242 143.14-27.929 222.15-4.7265l-23.633 311.95-184.33 118.16-283.59-56.718c-97.481-16.284-151.16-60.965-141.8-146.52-49.815-61.445-66.643-122.89-28.359-184.33-25.191-23.754-57.088-0.5644-70.898-103.98-55.014 52.508-113.85 89.707-193.79 42.539 8.8124 148.17 63.664 268.83 137.07 378.12z" stroke="#2d8f06" stroke-miterlimit="7" stroke-width="41" fill="#56bf2d"/><path id="path3785" d="m1926.9 3414.4c-67.018 131.93-187.73 184.07-334.22 183.82" stroke="#bb4d00" stroke-width="31" fill="none"/><path id="path3787" d="m2047.2 3671.8c-56.5 122.26-163.37 157.54-277.4 180.48" stroke="#bb4d00" stroke-width="31" fill="none"/><path id="path3789" d="m2214.3 3999.3c-33.463 90.166-98.543 125-167.11 153.74" stroke="#bb4d00" stroke-width="31" fill="none"/><path id="path3771" d="m1936.2 3302.8c-4.5234-289.89 434.29-245.34 453.75-42.539 35.865 373.84 52.472 738.49 160.7 1072.9 47.134 145.64 103.98 229.97 155.98 340.31-97.681-75.6-185.89-128.77-293.04-241.05-242-253.57-470.71-702.08-477.38-1129.6z" stroke="#bb4d00" stroke-miterlimit="7" stroke-width="41" fill="#e67b12"/><path id="path3777" d="m2612 4947.6c-275.45-246.54-494.25-635.91-623.9-1068.2-55.417-184.77-437.07-130.25-345.04 179.61 145.9 491.2 727.83 856.77 968.94 888.59z" stroke="#bb4d00" stroke-miterlimit="7" stroke-width="41" fill="#e67b12"/><path id="path3779" d="m2035.4 4021.2c-89.837 80.626-192.69 145.63-345.04 151.25" stroke="#bb4d00" stroke-width="31" fill="none"/><path id="path3781" d="m2174.8 4352.1c-79.472 64.717-178.12 103.86-295.41 118.16" stroke="#bb4d00" stroke-width="31" fill="none"/><path id="path3783" d="m2295.4 4576.6c-30.456 60.66-84.761 107.01-146.52 148.89" stroke="#bb4d00" stroke-width="31" fill="none"/><path id="path3791" d="m2481.6 4046.1c-51.719 72.417-111.82 140.17-227.27 177.13" stroke="#bb4d00" stroke-width="31" fill="none"/><path id="path3793" d="m2438.2 3738.6c-83.845 110.49-203.6 169.11-367.64 163.77" stroke="#bb4d00" stroke-width="31" fill="none"/><path id="path3795" d="m2401.4 3421.1c-128.99 108.33-286.89 115.5-451.19 100.26" stroke="#bb4d00" stroke-width="31" fill="none"/><path id="path3769" d="m2148.8 3189.4c4.5942 56.996-90.268 71.476-118.16-9.4531-75.242-218.29-105.76-455.93-47.265-713.7 28.334-124.85 113.57-232.9 231.6-141.8-15.546-226.38 308.2-175.43 255.23 51.992 108.52-197.59 375.03 13.288 307.22 222.15 197.19 17.991 208.2 150.34 170.15 264.68 86.222 26.361 116.56 88.538 108.71 151.25 96.572-22.834 225.89-0.8184 217.42 137.07-14.591 237.44-344.64 357.71-477.38 127.62-191.43 133.14-588.2-67.65-368.67-373.39-66.286-79.288-129.78-158.89-85.077-250.51-63.61 33.51-128.88 57.387-203.24 28.359-46.53 188.45-3.8941 340.15 9.453 505.74z" stroke="#2d8f06" stroke-miterlimit="7" stroke-width="41.002" fill="#56bf2d"/><path id="path3767" d="m1728.2 3879.4c50.642 178.66 129.01 91.398 80.351-33.086-70.987-181.59-189.97-349.89-368.67-354.49-10.096-159.09-166.75-181.3-207.97-33.086-178.85-111.55-275.71 86.393-99.257 217.42-208.12-20.159-263.86 234.71-66.171 335.58-95.298 89.804-47.478 259.96 80.351 269.41-47.445 59.869-67.094 119.74-14.18 179.61-169.65 144.44-24.576 277.91 122.89 236.33 139.03-39.21 178.98-177.84 189.06-316.68 204.04-38.998 227.32-427.19-18.906-425.39 37.382-149.92-36.589-139.39-94.53-170.15 33.366-39.388-1.2431-78.775-14.18-118.16 142.34 83.095 138.17 6.3591 146.52-56.718 36.237-17.667 74.818-6.7525 108.71 28.359 75.337 78.047 132.06 156.67 155.98 241.05z" stroke="#2d8f06" stroke-miterlimit="7" stroke-width="41" fill="#56bf2d"/></g></g><g transform="translate(-123.11 -234.68)"><path id="path5362" d="m2854.4 2472.7c-84.74-132.78-160.36-336.97-187.4-544.03-49.771-381.21 65.156-772.14 591.12-745.05 162.79-785.4 1074.8-1219.6 1650.3-446.22 700.84-192.89 1008.5 456.6 524.13 878.28 72.085 97.725 297.41 472.85-148.74 509.97" stroke="#d9890c" stroke-width="54" fill="#f2a42e"/></g><g transform="translate(-123.11 -234.68)"><path id="path5375" fill="#fdfe97" d="m5198.7 1437.4c199.26 244.06 182.29 552.99 100.17 881.47 99.114 7.977 114.03 66.471 120.2 130.22l-110.18 150.25c-173.38 61.366-232.29-68.055-295.49-190.32-90.008 155.26-119.05 310.52-30.05 465.78-262.82-1.8284-527.48 25.698-781.3-120.2l-626.04-315.53-290.48-555.93 721.2-671.12z"/><path id="path5373" fill="#c53474" d="m5005.8 2862.3c49.006-125.39 56.768-276.07 46.327-361.85l-32.554-80.134c-146.31 176.79-108.54 387.86-13.773 441.99z"/><path id="path5371" fill="#f67033" d="m4964.5 2550.5c54.639 93.054 40.091 201.66 22.538 298-75.139-63.618-67.267-177.77-22.538-298z"/><path id="path5365" fill="#aa9f37" d="m5092.7 2068.5c7.6924 161.09 43.652 197.36 90.772 237.72s103.25 59.466 165.28 65.938c30.546 3.1868 53.178 27.505 43.938 56.969-22.274 71.024-54.231 113.11-87.094 135.75-32.863 22.643-61.728 29.43-99.063 28.291-85.179-2.5997-149.69-161.84-189.7-208.74-48.914 67.984-95.784 172.51-108 272.5-7.8331 64.114 1.802 132.47 36.062 190.87-109.53 7.3399-303.28 10.657-485.8-23.052-111.87-20.661-237.1-61.934-284.26-95.073 24.951 52.962 158.16 126.69 274.45 148.17 220.06 40.643 435.09 26.88 534.84 18.469l51.594-4.3437-33.094-39.812c-48.586-58.463-60.53-116.58-52.562-185.47 6.1604-53.266 30.384-159.51 67.436-218.26 38.016 88.075 95.123 171.89 172.25 188.66 48.664 10.581 101.17 3.481 146.5-27.75 45.326-31.231 84.668-84.338 107.88-163.78 19.196-65.714-34.351-121.11-90.656-127.19-137.33-14.833-220.23-75.226-260.77-249.88z"/><path id="path5377" fill="#aa9f37" d="m5179.5 2404.4c10.444 25.416 43.081 44.241 83.89 31.302-23.138 92.114-130.39 38.609-83.89-31.302z"/></g><g transform="translate(-123.11 -234.68)"><path id="path3884" d="m4225.7 2498.4c390.94 169.93 785.85 347.41 661.85-461.03-63.603-179.88-148.79-349.94-376.18-455.38-381.58-138.07-547.8 13.937-560.03 373.35 38.254 214.62 94.687 417.76 274.36 543.06z" clip-path="url(#clipPath3903)" fill="#fff"/><path id="path3876" style="color:#000000" d="m4952.6 2151.9c0 263.21-149.43 476.59-333.75 476.59-184.33 0-333.75-213.38-333.75-476.59s149.43-476.59 333.75-476.59c184.33 0 333.75 213.38 333.75 476.59z" clip-path="url(#clipPath3899)" fill-rule="evenodd" transform="translate(-33.941 -16.971)" fill="url(#linearGradient3967)"/><path id="path3878" style="color:#000000" d="m5427.8 1986.5c0 232.75-85.477 421.44-190.92 421.44s-190.92-188.68-190.92-421.44c0-232.75 85.477-421.44 190.92-421.44s190.92 188.68 190.92 421.44z" fill-rule="evenodd" clip-path="url(#clipPath3911)" fill="url(#linearGradient3965)"/><path id="path3882" style="color:#000000" d="m5467.3 2133.5c0 182.77-62.683 330.93-140.01 330.93-77.324 0-140.01-148.16-140.01-330.93s62.683-330.93 140.01-330.93c77.324 0 140.01 148.16 140.01 330.93z" clip-path="url(#clipPath4190)" fill-rule="evenodd" transform="matrix(.99724 0.0743 -.071760 .96314 136.71 -427.49)"/><path id="path3915" d="m4429.3 2178.8-220.62 70.711 93.338 195.16 158.39-93.338z" clip-path="url(#clipPath3947)" fill="#84d85f"/><path id="path3917" d="m4451.9 2323-183.85 82.024 82.024 84.853 118.79-87.681z" clip-path="url(#clipPath3943)" fill="#c7ecb7"/><path id="path3880" style="color:#000000" d="m4978 2190.1c0 210.88-120.3 381.84-268.7 381.84s-268.7-170.95-268.7-381.84c0-210.88 120.3-381.84 268.7-381.84s268.7 170.95 268.7 381.84z" clip-path="url(#clipPath3895)" fill-rule="evenodd" transform="matrix(1 0 0 .95556 -50.912 91.681)"/><path id="path3951" style="color:#000000" d="m4610.3 2033.1c0 103.88-50.02 188.09-111.72 188.09-61.703 0-111.72-84.211-111.72-188.09s50.02-188.09 111.72-188.09c61.703 0 111.72 84.211 111.72 188.09z" fill-rule="evenodd" transform="matrix(.98328 .24579 -.23958 1.0088 558.06 -1136.3)" fill="#fff"/><path id="path3953" style="color:#000000" d="m4666.9 2277.8c0 39.052-22.794 70.711-50.912 70.711s-50.912-31.658-50.912-70.711c0-39.052 22.794-70.711 50.912-70.711s50.912 31.658 50.912 70.711z" fill-rule="evenodd" fill="#fff"/><path id="path3955" style="color:#000000" d="m5309 1829.5c0 78.886-35.457 142.84-79.196 142.84s-79.196-63.95-79.196-142.84c0-78.886 35.457-142.84 79.196-142.84s79.196 63.95 79.196 142.84z" fill-rule="evenodd" transform="matrix(.95448 .31406 -.29921 1.0343 768.48 -1674.1)" fill="#fff"/><path id="path3957" style="color:#000000" d="m5292 2115.2c0 30.461-15.196 55.154-33.941 55.154s-33.941-24.693-33.941-55.154 15.196-55.154 33.941-55.154 33.941 24.694 33.941 55.154z" fill-rule="evenodd" transform="translate(-5.6569 -8.4853)" fill="#fff"/></g><g opacity=".5" transform="translate(-123.11 -234.68)" stroke="#f00" stroke-width="1px" display="none" fill="#0f0"><path id="path3858" style="color:#000000" d="m4944 2218c0 259.57-148.64 470-332 470s-332-210.43-332-470 148.64-470 332-470 332 210.43 332 470z" fill-rule="evenodd" transform="matrix(1.0853 -.33699 .38974 .98515 -1444.7 1420.8)" display="inline"/><path id="path3861" d="m5196 1440c192.18 204.46 174.26 618.42 104 884-85.767-29.8-168.15-66.368-201.66-200.69-16.7-221-22.1-502.9 97.7-683.3z"/></g><g transform="translate(-123.11 -234.68)"><path id="path4024" d="m5216 1416c148.14 274.44 168.22 606.99 86 920" stroke="#aa9f37" stroke-width="54" fill="none"/><path id="path3970" d="m4438 1552.7c-96.911-0.7098-195.95 18.993-277.09 66.375-94.589 55.233-174.64 157.63-180.5 295.07-50.021 1.8044-117.04-9.4507-150.06 14.312 33.812 24.59 112.93 27.887 170.44 30.812l23.344 1.1874-0.2187-23.375c-1.2313-136.47 70.417-228.2 159.19-280.04 87.045-50.828 202.94-67.425 310.5-57.469 163.95 132.83 279.45 357.33 285.71 555.85l43.969-1.375c-6.8-214.1-127.9-450.9-307.4-593l-5.0312-3.9688-6.375-0.6562c-21.89-2.2479-44.136-3.4925-66.5-3.6562z"/><path id="path3972" d="m3860 1720c25.328 31.971 107.37 66.689 161.62 90.344l16.75-40.688c-55.5-24.5-140.4-54.8-178.4-49.6z"/><path id="path3974" d="m3994 1566c6.6153 30.732 56.205 91.598 94.031 131.12l31.938-30.25c-36.4-35-93.5-85.6-125.9-100.8z"/><path id="path3988" d="m5129.2 1566.7c-44.005 124.65-50.145 488.47-24.934 561.98-0.2449-76.395 26.186-433.34 66.434-547.35z"/><path id="path3994" d="m5273.6 1622.6 10.594 42.719c47.729-11.425 119.84-38.469 149.19-62.141-37.08-10.223-109.23 5.0539-159.78 19.422z" mask="url(#mask4048)"/><path id="path4000" d="m5233.7 1524.8 21.9 38.2c47.047-27.521 119.42-76.584 133.97-105.45-35.571-4.5503-107.25 38.879-155.88 67.297z" mask="url(#mask4044)"/><path id="path5365-8" fill="#aa9f37" d="m5092.7 2068.5c7.6924 161.09 43.652 197.36 90.772 237.72s103.25 59.466 165.28 65.938c30.546 3.1868 53.178 27.505 43.938 56.969l51.438 16.437c19.196-65.714-34.351-121.11-90.656-127.19-137.33-14.833-220.23-75.226-260.77-249.88z"/></g><g transform="translate(-123.11 -234.68)"><path id="path4126" fill="#f2a42e" d="m3866.5 1121.2c321.09-177.94 720.43-260.75 1055-384.88 142.36-27.572 284.73-23.87 427.09-14.142l-113.14 531.74c29.478 121.62 61.367 253.87-28.926 375.49-140.16 137.14-353.29 180.18-576.36 113.83-129.13-37.037-251.66-120.23-373.35-209.3z"/><path id="path4124" fill="#f2a42e" d="m2676 1960 852-380 152 440 196 188c40.471 127.83 55.845 250.64-16 356 79.087 115.86 130.15 241.06 188 364 8.8506 138.77 89.892 422.2-224 432-45.323 138-86.733 277.97-220 372-117.4 78.395-248.94 100.24-404 28-89.377-58.257-179.95-114.42-240-224-68.839-141.61 11.012-232.72 122.14-314.34 131.2-29.324 227.49-12.406 337.86 10.343-94.043-202.57-284.62-391.34-448-584-141.76-190.55-260.12-402.16-296-688z"/><path id="path4064" fill="#d9890c" d="m3654.9 1869.4-53.75 5.1876c9.5745 98.779 49.499 158.96 94.656 202.59 45.158 43.631 92.842 72.72 126.75 117.19 95.428 125.15 73.121 252.55 9.5938 373.03-36.793 69.777-120.24 102.16-209.5 104.19-89.263 2.0278-180.58-29.404-219-70.125-43.54-46.148-51.992-125.13-27.312-186.78 24.68-61.647 90.495-108.44 130.67-118.8-44.677-14.61-148.89 19.006-180.8 98.71-31.908 79.703-23.108 178.97 38.188 243.94 56.06 59.419 157.81 89.372 259.47 87.063 101.66-2.3094 206.99-39.986 256.03-133 68.865-130.6 94.672-287.92-14.406-430.97-41.355-54.233-92.638-85.099-132.16-123.28-39.518-38.182-69.979-81.668-78.438-168.94z"/><path id="path5362-2" fill="#d9890c" d="m2693.8 1925.2-53.562 7c27.554 211.05 101.89 418.88 191.62 555.38 148.96 226.59 311.52 396.38 465.34 577.06 40.144 47.152 73.786 111.15 91.688 168.75 17.902 57.602 16.128 108.25 5.5312 123.88-32.6 48.085-67.489 54.082-97.812 45.625-30.323-8.4571-68.416-31.736-70.016-72.526-25.641 36.992 4.6499 110.34 55.516 124.53 50.866 14.186 114.23-4.2615 157-67.344 29.761-43.897 21.504-105.32 1.3437-170.19-20.16-64.868-56.169-133.74-102.12-187.72-155.15-182.24-315.49-349.86-461.34-571.72-83.321-126.74-156.67-329.64-183.19-532.72z"/><path id="path4084" fill="#d9890c" d="m3882.7 2561.8-43.781 31.594c95.453 132.25 155.07 245.61 188.03 378.22 29.769 119.77 8.2649 252.21-67.406 314.94-107.06 88.756-259.89 61.995-338.97-9.5937-60.955-55.184-61.216-146.3-30.812-204.66 34.773-66.746 77.874-91.816 136.75-49.412-24.559-62.248-130.58-79.355-184.66 24.444-40.904 78.515-39.658 195.31 42.469 269.66 99.29 89.889 279.63 118.94 409.69 11.125 99.283-82.305 118.71-235.27 85.344-369.53-34.914-140.48-98.851-261.27-196.66-396.78z"/><path id="path4086" d="m3812.7 3363.9c-35.206 153.95-95.536 318.29-234.76 387.49-138.05 68.618-293.61 74.088-421.44-14.142-110.45-76.232-332.24-262.19-157.71-446.21 116.53-122.85 288.64-91.752 417.92-44.527" stroke="#d9890c" stroke-width="54" fill="none"/><path id="path5362-4" d="m5367.1 738.53c-121.86-44.513-277.32-52.037-458.64-1.1071-158.23 44.442-374.86 311.86-243.65 524.96" stroke="#d9890c" stroke-width="54" fill="none"/><path id="path4118" fill="#d9890c" d="m4953.9 991.56c-5.5063-0.0439-10.985 0.0604-16.438 0.3125-87.244 4.0339-166.99 42.571-218.62 92.75-51.904 50.441-81.705 112.74-85.188 174.19-3.4827 61.448 20.77 122.28 73.188 163.41 70.216 55.089 223.93 30.706 262.66-16.357-57.435 19.405-169.7 20.683-229.34-26.111-38.902-30.521-55.2-71.913-52.594-117.91 2.6068-45.993 25.565-96.38 68.906-138.5 41.246-40.084 110.99-74.18 183.47-77.531 72.479-3.3512 147.38 21.334 209.22 100.28 91.937 117.37 143.61 322.28 8.7377 489.7-44.643 55.414-160.11 103.05-292.47 111.94-132.36 8.8851-308.68-32.877-420.55-111.45-155.2-109-354.6-293.6-506.4-484.1l-42.25 33.656c155.54 195.14 356.82 381.7 517.56 494.59 125.15 87.9 312.81 130.69 455.18 121.13 142.36-9.5569 269-55.053 330.94-131.94 149.51-185.59 98.612-420.37-8.3003-556.85-67.392-86.032-155.16-120.59-237.75-121.25z"/></g><g transform="translate(-123.11 -234.68)"><path id="path4061" fill="#fdfe97" d="m3990.9 1392.5c7.5418-81.082-12.851-162.16-31.113-243.24-60.805-134.12-147.95-255.07-240.42-373.35-68.796-62.287-131.04-67.79-183.85 8.4853-82.001 180.68-166.56 360.95-149.91 557.2 3.2704 193.64 82.646 355.57 175.36 511.95 59.471 73.519 134.42 167.5 183.85 175.36z"/><path id="path4053" fill="#aa9f37" d="m3625.5 706.94c-43.306-0.32877-86.995 28.035-119.28 87.125-158.9 290.81-179.51 552.23-106.81 781.84 49.634 156.77 178.76 369.02 322.17 446.15-119.63-115.2-224.07-315.16-270.7-462.46-68.303-215.74-50.656-458.92 102.72-739.63 26.629-48.736 50.032-59.194 71.5-59.031 21.468 0.16298 47.693 15.179 69.656 36.969 161.96 160.68 270.43 391.82 296.46 545.52 26.038-163.09-85.966-412.75-258.43-583.86-27.719-27.5-63.975-52.296-107.28-52.625z"/><path id="path4059" d="m3592.1 1067.2c-74.923 159.92-23.36 419.03 70.711 503.46-35.901-108.13-78.65-349.26-70.711-503.46z" stroke="#aa9f37" stroke-miterlimit="24" fill="#aa9f37"/></g></svg>