<?xml version="1.0" encoding="UTF-8"?><svg xmlns="http://www.w3.org/2000/svg" xmlns:xlink="http://www.w3.org/1999/xlink" version="1.1" viewBox="0 0 5860.3599 5860.3643" width="5860.3599" height="5860.3643"><defs id="defs4"><linearGradient id="linearGradient4000"><stop id="stop4002" stop-color="#acd69a" offset="0"/><stop id="stop4004" stop-color="#5b9857" offset="1"/></linearGradient><clipPath id="clipPath3966" clipPathUnits="userSpaceOnUse"><path id="path3968" opacity=".5" style="color:#000000" d="m4915.2 1706.3a393.42 560.83 0 1 1 -786.84 0 393.42 560.83 0 1 1 786.84 0z" transform="matrix(.94796 -.23550 .24094 .90631 -173.19 1220.7)" stroke="#f00" stroke-width="1.0327" fill="#0f0"/></clipPath><clipPath id="clipPath3970" clipPathUnits="userSpaceOnUse"><path id="path3972" opacity=".5" style="color:#000000" d="m4915.2 1706.3a393.42 560.83 0 1 1 -786.84 0 393.42 560.83 0 1 1 786.84 0z" transform="matrix(.98653 -.24045 .25074 .92536 -351.81 1166.5)" stroke="#f00" stroke-width="1.0327" fill="#0f0"/></clipPath><clipPath id="clipPath3974" clipPathUnits="userSpaceOnUse"><path id="path3976" opacity=".5" style="color:#000000" d="m4915.2 1706.3a393.42 560.83 0 1 1 -786.84 0 393.42 560.83 0 1 1 786.84 0z" transform="matrix(.96069 -.23792 .24417 .91566 -275.69 1152.8)" stroke="#f00" stroke-width="1.0327" fill="#0f0"/></clipPath><clipPath id="clipPath3978" clipPathUnits="userSpaceOnUse"><path id="path3980" opacity=".5" d="m5298.8 1235.3c-102.06 140.97-187.03 371.82-136.38 724.99 31.418 114.25 103.7 197.97 181.18 229.14 89.081-277.26 144.76-534.84-22.405-923.26z" stroke="#f00" stroke-width="1px" fill="#0f0"/></clipPath><clipPath id="clipPath3982" clipPathUnits="userSpaceOnUse"><path id="path3984" opacity=".5" d="m5393.3 1266.6c-144.46 129.79-279.87 350.74-264.59 707.29 23.456 116.89 101.3 207.59 192.55 246.53 146.66-266.7 249.56-517.26 95.498-920.82z" stroke="#f00" stroke-width="1.113px" fill="#0f0"/></clipPath><clipPath id="clipPath3986" clipPathUnits="userSpaceOnUse"><path id="path3988" opacity=".5" d="m5455.1 1193.8c-126.23 119.8-252.2 331.09-267.35 687.56 9.8755 118.08 65.531 213.66 135.96 258.54 138.54-256.15 240.63-499.11 147.73-911.64z" stroke="#f00" stroke-width="1px" fill="#0f0"/></clipPath><linearGradient id="linearGradient4006" y2="1599.7" xlink:href="#linearGradient4000" gradientUnits="userSpaceOnUse" x2="4726.4" y1="2158.1" x1="4628.1"/><linearGradient id="linearGradient4014" y2="1743" xlink:href="#linearGradient4000" gradientUnits="userSpaceOnUse" x2="5338.6" y1="2117.3" x1="5254.2"/><mask id="mask4080" maskUnits="userSpaceOnUse"><path id="path4082" d="m5504.3 1494.1c3.2623-112.02-5.7393-225.45-26.58-335.2l204.43-41.37 59.189 355.14z" stroke="#fff" stroke-width="31" fill="#fff"/></mask></defs><g display="none" transform="translate(-70.299 -3.7822)"><rect id="rect3862" style="color:#000000" display="inline" height="5989.3" width="6093.7" stroke="#0f0" y="-37.151" x="-39.146"/></g><g opacity=".2" display="none" transform="translate(-70.299 -3.7822)"><path id="path3786" style="color:#000000" d="m5180.3 5566.2c0 139.91-770.62 253.33-1721.2 253.33-950.61 0-1721.2-113.42-1721.2-253.33s770.62-253.33 1721.2-253.33c950.61 0 1721.2 113.42 1721.2 253.33z" transform="translate(-18.941 42.616)" display="inline"/></g><g transform="translate(-70.299 -3.7822)" stroke="#7A175B" stroke-width="49" fill="#943875"><path id="path3781" d="m4138.4 3743.7c23.375 603.2 182.8 1251.9 408.49 1613.9 56.907 91.264 75.482 177.35-60.269 187.5-174.2 13.03-349.48 21.76-532.37-3.3483-37.756-5.1834-60.102-39.016-70.313-90.403-111.11-559.1-199.51-1119.5-133.93-1687.5"/><path id="path3783" d="m3251.2 3850.9c-199.68 367.55-273.69 1105.1 30.134 1456.5 103.77 120.01 34.277 144.37-77.01 160.72-113.84 16.722-231.24 16.996-344.87 10.045-34.501-2.1107-69.929-20.849-100.45-83.706-304.91-628.01-56.451-1172 190.85-1714.3"/></g><g transform="translate(-70.299 -3.7822)"><path id="path3791-1" fill="#FECAE7" d="m2481.2 2860c-124.02-128.69-402.7-389.14-636.71-378.81-234 10.323-356.6 164.25-341.51 359.3 15.094 195.05 173.75 318.62 310.56 469.35s68.689 311.63-127.85 261.82c-196.54-49.809-231.75-119.15-324.51-209.6 16.085 156.02 134.41 353.38 199.09 518.91 122.55 313.68 113.34 579.43-16.767 801.61-121.06 206.73-383.88 389.34-626.1 433.9-297.18 54.668-569.06-105.99-388.4-344.87 104.87-138.66 277.6-285.53 298-468.76 12.548-112.75-15.593-204.08-59.493-289.93-55.63 257.39-231.12 353.61-360.3 187.13-331.96-427.7-448.71-1307.5-104.15-1884.5 442.77-741.5 997.45-740.7 1396.8-629.8 399.38 110.9 771.57 657.5 885.47 1032.3z"/><path id="path3843" fill="#FFEBF5" d="m1748.1 2489.3c-460.86-94.476-705.67 181.66-726.89 584.44-16.622 315.53 91.669 606.38 242.03 850.42 107.12 173.86 264.71 682.41 48.407 1005.1-153.49 127.08-327.48 196.78-525.6 198.88-120.79-2.2718-226.79-37.091-303.05-137.32-39.626-94.727-4.771-178.81 80.498-255.7 194.35-221.34 369.13-445.13 213.08-710.27-52.078 134.18-111.11 257.22-250.96 250.96-352.33-583.1-453.62-1503.4 203.61-2036.2 657.19-532.8 1453.8-88.5 1782.6 561.3l-40.08 44.816c-223-212.9-448.1-414.8-723.6-356.5z"/><path id="path3791" fill="#FD95CD" d="m1867.2 2456.5c-7.9413-0.1956-15.876-0.13-23.781 0.2188-122.17 5.3897-218.35 48.849-281.25 118.41-62.899 69.557-91.604 164.15-83.625 267.25 16.052 207.42 181.89 335.25 316.84 483.94 64.129 70.656 75.794 138.81 57 179.34-9.3967 20.269-25.901 35.429-52.187 44.031-26.287 8.602-62.737 9.8164-108.5-1.7813-186.87-47.359-386.28-240.43-517.34-507.23 79.882 280.64 299.11 502.47 505.31 554.73 52.506 13.307 98.294 13.111 135.78 0.8437 37.487-12.267 66.307-37.43 81.406-70 30.199-65.14 7.5243-152.8-65.156-232.88-138.67-152.78-290.14-272.11-304.28-454.78-7.115-91.941 17.968-171.84 71.094-230.59 52.95-58.554 134.7-97.141 245.97-102.28l1.0938-0.062c107.51-4.743 232.2 54.481 344.5 132.91 112.3 78.425 212.12 174.75 273.5 238.44l35.281-34c-62.644-65.001-164.2-163.24-280.75-244.62-109.26-76.302-231.79-138.94-350.91-141.88z"/><path id="path3793" fill="#FD95CD" d="m1336.2 3331.7c14.249 167.18 137.9 396 201.29 558.25 120.7 308.92 110.96 565.05-15.094 780.31-116.42 198.81-375.76 379.21-609.38 422.19-143.08 26.321-279.69-0.7787-354.06-57.719-37.185-28.47-58.86-62.836-62.844-103.12-3.984-40.289 9.8836-88.849 52.469-145.16 102.05-135.1 280.87-284 302.79-480.9 15.56-139.8-19.83-250.9-80.38-343.3-60.55-92.5-175.36-198.9-263.55-232.4 74.2 58.6 166.9 174.3 222.55 259.3 55.649 84.952 87.025 181.9 72.656 311-18.868 169.54-185.53 314.34-293.19 456.69-47.746 63.131-67.626 124.25-62.156 179.56 5.4694 55.311 36.463 102.47 81.812 137.19 90.7 69.443 238.62 95.347 392.72 67 250.86-46.1 517.16-231 642.86-445.6 134.16-229.1 142.85-504.47 18.438-822.91-57.774-147.87-156.76-342.32-188.81-486.58z"/><path id="path3789" d="m2585.4 2718c-113.9-374.8-486.1-921.4-885.5-1032.3s-954.08-111.7-1396.8 629.8c-344.61 577-227.86 1456.8 104.12 1884.6 129.18 166.48 311.37 70.262 364.61-194.14" stroke="#FD95CD" stroke-width="49" fill="none"/></g><g transform="translate(-70.299 -3.7822)"><path id="path3887" fill="#AB4388" d="m4439.8 2314c-27.404 153.19-1.3141 297.47 23.438 441.97 29.411 233.01 72.362 469.14-10.045 676.35-81.484 261.82-244.85 543.98-686.39 565.86l6.6966 110.49-458.71-6.6965 30.134-117.19c-118.31-21.552-236.61-55.086-354.92-147.32l-90.403 237.73h-559.16c5.9427-100.09 93.896-118.16 187.5-130.58-15.401-112.43-63.109-214.09-103.8-318.08-42.958-165.53-86.93-330.69-60.269-522.33 13.988-166.65 57.446-295.41 133.93-381.7 104.49-99.472 231.56-157.02 398.44-140.63 179.02-3.9053 320.99 84.806 465.41 167.41l214.3-766.8z"/><path id="path3846" d="m4443.1 2344.1c-23.837 191.59 24.593 390.67 50.224 592.64 62.125 489.56-140.96 1030.4-729.92 1058" stroke="#7A175B" stroke-width="49" fill="none"/><path id="path3848" fill="#7A175B" d="m2960 3833.2c113.28 104.47 256.58 156.79 379.06 169.31l5-48.75c-112.48-11.504-246.79-60.637-350.84-156.59-104.06-95.957-188.7-268.58-201.45-468.64-45.899 195.32 54.952 400.21 168.23 504.67z"/><path id="path3855" d="m2995 3835.5c-293.17 580.48-288.54 1210.2-30.778 1633.6 62.616 102.87 104.17 190.55-113.64 213.08-150.17 15.535-298.47 13.526-454.57-7.1027-139.42-18.424-175.4-107.51-189.41-229.65-66.479-579.67-28.119-937.56 134.95-1385 38.767-106.38 97.088-109.99 187.04-106.54" stroke="#7A175B" stroke-width="49" fill="#AB4388"/><path id="path3857" fill="#7A175B" d="m2868.2 2550.3c-58.943-0.2498-118.11 7.4844-176.5 24.812-126.61 37.572-208.63 110.97-260.28 201.38-51.651 90.41-74.16 196.87-88.5 304.38-23.474 175.97-6.9413 342.53 54.938 520.19 47.401 136.09 127.01 307.13 127.84 437.22 57.654-123.24-34.848-319.23-81.561-453.35-59.663-171.3-75.204-328.56-52.656-497.59 14.001-104.96 36.054-205.29 82.469-286.53 46.414-81.244 115.95-144.37 231.69-178.72 214.11-63.537 445.69 13.526 631.91 143.91l28.094-40.125c-145.8-102.1-320.7-174.8-497.5-175.6z"/><path id="path3863" d="m3332.4 4006.2c-2.3171 7.4258-4.593 14.874-6.8281 22.343-155.08 518.2-110.81 1137.7-34.214 1509.8 26.692 129.69 81.524 212.02 184.15 227.68 181.75 27.735 383.79 17.679 552.46 3.3482 214.92-18.26 105.66-129.92 50.224-224.33-193.6-329.72-296.72-955.44-310.81-1499.9-0.2897-11.198-0.5417-22.361-0.7561-33.486" stroke="#7A175B" stroke-width="49" fill="#AB4388"/><path id="path3863-0" fill="#7A175B" d="m3309 3998.9c-2.3458 7.5179-4.6441 15.066-6.9062 22.625l46.937 14.031c2.2081-7.3784 4.4617-14.729 6.75-22.062 22.198-71.139 44.839-145.15 67.28-216.25-57.917 57.808-91.307 128.73-114.06 201.65zm433.12 13.219c0.2154 11.18 0.4589 22.405 0.75 33.656l49-1.2812c-0.2883-11.144-0.5366-22.241-0.75-33.312-1.2721-66.001-14.623-135.67-49.176-192.78 3.9523 58.405-1.1085 127.07 0.176 193.72z"/></g><g transform="translate(-70.299 -3.7822)"><g id="g3945" transform="matrix(.36963 0 .031893 .42040 1567.7 2096)"><path id="path3866" fill="#f4d7e3" d="m2446 3031.9c104.64-129.4 21.776-261.2-63.64-182.43 6.5904-192.25-167.3-188.56-152.74 1.4142-86.972-145.99-181.35 44.072-110.31 169.71-121.16-4.9805-158.23 203.74-26.87 243.24-116.47 114.82-2.519 327.57 89.096 165.46-28.231 226.64 177.41 180.56 149.91-21.213 65.21 193.06 214.83-0.088 108.89-151.32 137.71 12.494 122.72-250.19 5.6568-224.86z"/><path id="path3862" fill="#f4d7e3" d="m2656.7 2097.1c131.71-34.887 90.329-258.5-25.456-231.93 80.402-198.61-104.21-258.92-123.04-76.368-27.821-168.31-180.93-128.98-137.18 74.953-172.59-71.091-187.32 173.17-76.368 205.06-124.59 6.4875-115.13 305.29 31.113 223.45-76.442 224.24 74.396 231.12 141.42 110.31 19.68 158.2 184.73 94.566 130.11-98.995 107.36 77.422 185.62-158.8 59.397-206.48z"/><path id="path3864" fill="#f4d7e3" d="m2953 2725.9c118.52 46.042 97.649 292.31-31.243 269.84 97.86 246.44-85.235 281.3-109.16 148.69-44.232 192.4-202.47 152.5-148.68-83.981-122.78 143.74-181.48-195.14-51.419-202.38-93.242-106.89-67.56-296.95 61.201-243.68-58.45-225.84 107-252.44 143.04-121.15 10.771-158.28 135.97-99.131 96.506 56.446 107.31-106.25 160.47 126.21 39.766 176.22z"/><path id="path3776" style="color:#000000" d="m477.14 1552.9c0 131.76-65.878 238.57-147.14 238.57-81.265 0-147.14-106.81-147.14-238.57s65.878-238.57 147.14-238.57c81.265 0 147.14 106.81 147.14 238.57z" transform="matrix(1 0 -.047904 1.0359 2004.2 1545.8)" fill="#f7f4b1"/><path id="path3778" style="color:#000000" d="m1057.1 1202.9c0 149.91-76.751 271.43-171.43 271.43-94.677 0-171.43-121.52-171.43-271.43s76.751-271.43 171.43-271.43c94.677 0 171.43 121.52 171.43 271.43z" transform="matrix(.88878 .094323 -.093642 .93631 2110.7 1629.9)" fill="#f7f4b1"/><path id="path3780" style="color:#000000" d="m708.57 488.57c0 137.28-71.634 248.57-160 248.57s-160-111.29-160-248.57 71.634-248.57 160-248.57 160 111.29 160 248.57z" transform="matrix(.89813 0 -.045342 1 1995.6 1615.9)" fill="#f7f4b1"/><path id="path3782" fill="#AB4388" d="m2493.5 1954.3c-38.209 5.9847-43.694 68.709-25.481 107.98-0.3585-40.729 2.6841-84.259 28.794-89.261 26.11-5.0025 42.787 37.956 55.928 69.139 1.7123-35.959-21.031-93.843-59.24-87.858z"/><path id="path3788" fill="#AB4388" d="m2492.6 2147.2c-5.5844 31.043-21.857 46.808-37.707 50.81-15.85 4.0023-36.611-12.102-50.666-41.15 0.087 33.582 28.767 66.261 55.322 59.556 26.555-6.7055 42.676-37.629 33.05-69.216z"/><path id="path3794" fill="#AB4388" d="m2378.6 1993c-34.114 4.9067-38.434 63.784-27.473 90.373 0.2472-30.554 9.9248-69.545 31.004-71.685 21.079-2.1398 32.064 32.357 40.388 56.104 1.8946-27.682-9.805-79.698-43.919-74.791z"/><path id="path3826" fill="#AB4388" d="m2706.4 2718.4c17.214-22.357 56.773-47.962 76.513-31.71 19.739 16.253 0.2706 63.329-9.1413 88.872 19.714-14.776 50.631-71.795 21.65-101.92-28.981-30.128-81.711 11.065-89.021 44.761z"/><path id="path3832" fill="#AB4388" d="m2808.5 2840.4c17.372-18.092 48.013-37.689 66.428-15.349 18.416 22.341-5.6001 67.747-17.528 94.117 23.748-16.899 58.103-71.065 31.76-105.04-26.342-33.973-70.75-1.8571-80.661 26.27z"/><path id="path3838" fill="#AB4388" d="m2717.1 2956.7c22.474 22.832 65.448 8.5797 74.216-16.485-16.596 9.3543-46.802 19.346-61.593 3.5857-14.79-15.76-17.005-45.701-9.3716-67.714-21.483 16.34-25.726 57.781-3.2519 80.612z"/><path id="path3844" fill="#AB4388" d="m2295.5 3015c-44.654 10.873-27.251 83.986-10.53 104.09-4.2795-24.899-6.9871-78.596 15.405-85.743 22.392-7.1466 48.852 26.65 58.892 49.398 0.04-26.253-19.113-78.615-63.767-67.741z"/><path id="path3850" fill="#AB4388" d="m2167.4 3085.7c-35.732 15.283-29.144 85.176-7.7149 107.77-8.571-28.408-7.1169-81.194 16.152-90.737 23.269-9.5426 47.444 22.447 54.065 46.638 6.6208-28.809-26.77-78.952-62.502-63.669z"/><path id="path3856" fill="#AB4388" d="m2266.4 3259.4c-20.045 7.7995-40.859-8.9474-54.459-28.832 0.3998 26.116 35.096 57.907 62.147 46.238s36.622-46.116 24.064-67.824c-1.6587 22.171-11.706 42.618-31.751 50.418z"/></g></g><g transform="translate(-70.299 -3.7822)"><path id="path3902" fill="#AB4388" d="m5451 1068.5c103.7 361.98 61.444 741.83-127.23 1064.7 55.535 32.713 128.7 49.394 90.403 167.41-229.37 300.65-574.99 297.77-964.3 180.81l-870.55-147.32 23.438-1148.5 619.43-750.01z"/><path id="path3890" d="m5313.7 2139.9c178.77-259.75 229.15-638.28 164.06-981.04" stroke="#7A175B" stroke-width="31" fill="none"/><path id="path3892" fill="#7A175B" d="m5187.8 1881.4c-10.444 153.95 51.227 265.38 158.04 295.23 41.217 11.519 52.219 28.64 55.156 51.719 2.9372 23.079-7.2762 54.497-24.281 79.656-116.44 172.27-341.79 236.23-594.91 220.59-253.11-15.633-585.19-137.68-781.86-254.33 170.31 150.88 515.71 286.98 778.86 303.23 263.15 16.253 508.86-50.254 638.5-242.06 21.952-32.478 37.473-72.731 32.313-113.28-5.1608-40.55-37.459-74.45-91.281-92.906-101.57-34.831-143.52-103.49-170.54-247.85z"/><path id="path3898" fill="#7A175B" d="m5041.8 2259.9c-15.837 89.616 2.4682 189.35 169.28 204.8l-78.13 36.697c-122.3-38.616-147.56-159.47-91.152-241.49z"/><path id="path3900" fill="#7A175B" d="m5252.5 2275.2c-48.984 3.8217-86.207 6.0939-81.681-61.557-48.52 69.528 9.3094 125.17 81.681 61.557z"/></g><g transform="translate(-70.299 -3.7822)"><path id="path3940" d="m4257.3 1969.1c-73.865-1.9453-121.93 30.508-155.69 82.032-3.4157-69.003 63.847-113.27 137.28-112.17z"/><path id="path3942" d="m4212.1 1934c-89.976-59.484-187.48-73.808-286.28-80.358 79.287-34.591 249.23-6.7058 272.88 35.157z"/></g><g transform="translate(-70.299 -3.7822)"><path id="path3955" d="m5347.2 1165.6 133.93 13.393c97.549 382.96 0.3922 755.54-143.98 971l-207.59-23.438c29.451-318.05 26.378-634.39 217.64-960.95z" clip-path="url(#clipPath3986)" stroke="#000" stroke-width="1px" fill="#fff"/><path id="path3953" d="m4202.1 2106.4c267.7 85.369 351.32 39.035 686.39-363.29-16.389-254.64-17.945-429.65-194.2-604.36-309.84-139.72-581.31-171.3-696.44 237.73 31.853 259.41 92.19 506.16 204.24 729.92z" clip-path="url(#clipPath3974)" fill="#fff"/><path id="path3945" style="color:#000000" d="m5109.4 1932.3c0 264.43-171.64 478.8-383.38 478.8-211.73 0-383.38-214.37-383.38-478.8s171.64-478.8 383.38-478.8c211.73 0 383.38 214.37 383.38 478.8z" clip-path="url(#clipPath3970)" transform="matrix(.97380 0 0 .98951 66.907 -1.4947)" fill="url(#linearGradient4006)"/><path id="path3947" style="color:#000000" d="m5501.2 1932.3c0 216.36-85.447 391.75-190.85 391.75s-190.85-175.39-190.85-391.75 85.447-391.75 190.85-391.75 190.85 175.39 190.85 391.75z" clip-path="url(#clipPath3982)" transform="matrix(.80465 .066324 -.076983 .99691 1212.9 -426.59)" fill="url(#linearGradient4014)"/><path id="path3949" style="color:#000000" d="m4968.8 1962.4c0 179.37-111.68 324.78-249.45 324.78-137.76 0-249.45-145.41-249.45-324.78s111.68-324.78 249.45-324.78c137.76 0 249.45 145.41 249.45 324.78z" clip-path="url(#clipPath3966)" transform="matrix(1.0134 0 0 1.0103 -100.18 -80.5)"/><path id="path3951" style="color:#000000" d="m5437.6 1994.3c0 163.65-59.963 296.32-133.93 296.32-73.968 0-133.93-132.67-133.93-296.32s59.963-296.32 133.93-296.32c73.968 0 133.93 132.67 133.93 296.32z" clip-path="url(#clipPath3978)" transform="matrix(.98295 .18386 -.18386 .98295 473.83 -994.72)"/><path id="path3990" style="color:#000000" d="m4635.7 1743.7c0 102.64-51.94 185.85-116.01 185.85-64.071 0-116.01-83.21-116.01-185.85s51.94-185.85 116.01-185.85c64.071 0 116.01 83.21 116.01 185.85z" transform="matrix(.88964 .50123 -.51215 .86539 1428.5 -2030.7)" fill="#fff"/><path id="path3994" style="color:#000000" d="m4671.2 2019.5c0 33.997-22.79 61.557-50.903 61.557s-50.903-27.56-50.903-61.557 22.79-61.557 50.903-61.557 50.903 27.56 50.903 61.557z" transform="matrix(.37023 .89569 -.85175 .46545 4629.9 -3067.1)" fill="#fff"/><path id="path3996" style="color:#000000" d="m5367.3 1741.4c0 68.648-31.8 124.3-71.027 124.3s-71.027-55.65-71.027-124.3c0-68.648 31.8-124.3 71.027-124.3s71.027 55.65 71.027 124.3z" transform="matrix(.87681 .42215 -.41871 .88402 1374.5 -2048.1)" fill="#fff"/><path id="path3998" style="color:#000000" d="m5305.7 1953.3c0 23.536-13.78 42.616-30.778 42.616s-30.778-19.08-30.778-42.616 13.78-42.616 30.778-42.616 30.778 19.08 30.778 42.616z" transform="matrix(.76737 .60825 -.58804 .79375 2381.6 -2815.1)" fill="#fff"/></g><g opacity=".5" transform="translate(-70.299 -3.7822)" stroke="#f00" display="none" fill="#0f0"><path id="path3905" style="color:#000000" d="m4915.2 1706.3c0 309.74-176.14 560.83-393.42 560.83s-393.42-251.09-393.42-560.83 176.14-560.83 393.42-560.83 393.42 251.09 393.42 560.83z" transform="matrix(.96069 -.23792 .24417 .91566 -275.69 1152.8)" display="inline" stroke-width="1.0327"/><path id="path3907" d="m5455.1 1193.8c-126.23 119.8-252.2 331.09-267.35 687.56 9.8755 118.08 65.531 213.66 135.96 258.54 138.54-256.15 240.63-499.11 147.73-911.64z" stroke-width="1px"/></g><g transform="translate(-70.299 -3.7822)"><path id="path4084" d="m5451 1192.3c-208.38 210.51-283.48 514.66-238.91 795.21" stroke="#000" stroke-width="27" fill="none"/><path id="path3890-7" d="m5313.7 2139.9c178.77-259.75 229.15-638.28 164.06-981.04" stroke="#7A175B" stroke-width="31" fill="none"/><path id="path3892-7" fill="#7A175B" d="m5187.8 1881.4c-10.444 153.95 51.227 265.38 158.04 295.23 41.217 11.519 52.219 28.64 55.156 51.719l48.625-6.1875c-5.1608-40.55-37.459-74.45-91.281-92.906-101.57-34.831-143.52-103.49-170.54-247.85z"/><path id="path4038" d="m5459.3 1349.4 3.4688 30.812s193.32-17.763 190.78-37.156c-2.5379-19.393-194.25 6.3437-194.25 6.3437z" mask="url(#mask4080)"/><path id="path4086" d="m4403.2 1094.6c-79.034-2.8781-143.15 23.924-192.16 67.281-78.417 69.371-129.3 188.98-122.58 306.19 17.248-112.14 72.85-220.79 143.14-282.97 70.291-62.182 170.03-87.789 317.34-22.125 107.26 47.809 202.58 145.73 255.53 268.15 52.95 122.41 78.238 234.59 77.722 373.56 24.343-141.59-2.3374-251.36-57.624-379.17-55.286-127.81-146.16-238.77-263-290.84-58.157-25.922-110.95-38.336-158.38-40.062z"/><path id="path4092" d="m4088.8 1449c-65.328 6.2695-119.51 33.639-169.28 72.211 22.556-59.666 97.84-105.61 176.38-114.83z"/><path id="path4094" d="m4112.5 1344.8c-78.852-24.03-168.87-26.612-253.33-8.2865 79.866-56.392 191.31-40.816 265.17-22.492z"/></g><g transform="translate(-70.299 -3.7822)"><path id="path4128-4" fill="#FECAE7" d="m4043.8 478.25c439.08-280.61 962.58-316.04 1425.3-206.62 224.83 53.167 433.32 207.07 437.02 504.13 2.5135 201.56-124.07 407.51-210.31 472.37-86.242 64.854-230.42 57.86-260.94-42.55-126.57 128.39-267.42 215.22-379.58 225.08-194.67 17.119-351.09-42.712-353.93-164.64-2.8473-121.93 96.138-216.41 180.4-318.08-209.46 142.22-495.44 272.03-693.09 284.6-197.65 12.567-393.13-148.45-327.32-351.97 35.834-110.82 129.32-202.83 252.66-275.69z"/><path id="path4153" fill="#FFEBF5" d="m4522.1 269.9c345.62 151.61 204.39 681.52 16.573 861.8 119.07-42.308 232.83-111.17 345.67-184.67-130.48 136.61-238.67 273.86-151.52 416.69 336.02 166.08 543.27 7.4358 736.32-187.04 99.943-418.62 58.115-764.47-267.54-947.03-232.79-30.594-457.3-3.2606-679.49 40.249z"/><path id="path4097-6" fill="#FECAE7" d="m3608.2 838.12c-74.763 197.73-141.86 392.18-146.79 577.69-10.347 389.12-84.728 790.95-156.26 1112.8-84.562 380.43 96.302 756.11 282.48 942.3 182.71 182.71 348.75 17.664 175.44-288.84 150.53 54.58 356.81 119.53 397.99-97.715 41.177-217.24-69.837-365.47-397.75-435.97 112.29-41.815 323.95-137.81 253.5-311.13-70.447-173.33-188.81-64.994-269.09-34.368 76.718-170.65 73.88-378.82 2.3388-554.68-67.293-165.42-161.45-341.52-56.92-512.28z"/><path id="path4126" fill="#FFEBF5" d="m4017.8 2332.1c-113.24 256.47-486.78 272.92-672.39 47.352l-49.719 172.83c210.58 399.74 519.85 629.48 854.7 530.34 11.234-101.32 32.144-184.16-54.454-279.37-79.761-88.758-183.84-139.3-307.78-158.63 210.72-77.813 271.17-184.26 229.65-312.52z"/><path id="path4097" fill="#FD95CD" d="m3585.3 829.47c-74.927 198.16-143.3 394.73-148.38 585.69-10.276 386.45-84.312 786.99-155.69 1108.1-86.909 390.99 96.838 772.71 289.06 964.94 48.293 48.293 96.967 75.546 142.78 82 45.814 6.4544 89.031-10.547 115.38-45.562 46.355-61.614 46.055-167.23-15.438-299.19 61.694 20.394 128.77 37.519 191.38 34.125 41.504-2.2505 81.849-14.228 114.25-42.062 32.401-27.835 55.467-70.417 66.5-128.62 21.528-113.58 2.7219-214.71-66.062-293.69-58.153-66.774-149.47-117.02-277.09-152.66 44.6-20.354 92.859-47.086 132.75-82 31.252-27.354 57.623-60.111 71.156-99.5s13.145-85.036-6.375-133.06c-19.425-47.793-48.727-83.533-87.531-92.938-150.59-36.496-310.92 96.676-389.8 195.73 107.61-71.667 250.84-154.87 373.33-149.57 24.709 1.0698 42.795 26.379 58.594 65.25 15.703 38.637 15.285 69.992 5.4374 98.656-9.8479 28.664-30.202 55.026-57.094 78.562-53.783 47.074-132.57 81.194-187.69 101.72l-78.625 29.281 82.031 17.625c161.06 34.628 265.53 88.027 323.94 155.09 58.407 67.067 74.523 148.71 54.875 252.38-9.5556 50.414-27.72 81.181-50.281 100.56-22.562 19.382-50.908 28.467-84.938 30.312-68.06 3.6904-155.52-24.496-230.34-51.625l-62.281-22.594 32.594 57.688c84.078 148.7 80.244 257.62 47.562 301.06-16.341 21.72-38.086 30.908-69.375 26.5-31.289-4.4081-71.908-25.064-114.97-68.125-180.14-180.14-358.09-549.78-275.88-919.66 71.689-322.52 146.39-725.62 156.81-1117.4 4.7883-180.07 70.62-372.39 145.22-569.69z"/><path id="path4099" d="m3749.6 2303.2c74.809-171.01 71.971-379.18 0.4295-555.04-67.293-165.42-161.45-341.52-56.92-512.28" stroke="#FD95CD" stroke-width="49" fill="none"/><path id="path4128" d="m4043.8 478.25c439.08-280.61 962.58-316.04 1425.3-206.62 224.83 53.167 433.32 207.07 437.02 504.13 2.5135 201.56-124.07 407.51-210.31 472.37-86.242 64.854-230.42 57.86-259.28-51.274" stroke="#FD95CD" stroke-width="49" fill="none"/><path id="path4130" fill="#FD95CD" d="m3838 873.03c-35.671 110.32 0.29 212.62 71.031 282.03 70.741 69.414 175.21 108.64 281.16 101.91 166.38-10.579 384.06-97.773 573.38-206.5-49.592 64.11-88.655 133.22-86.719 216.12 1.666 71.338 50.378 125.84 119.66 156.31 69.278 30.471 160.52 40.984 260.91 32.156 106.63-9.3774 227.83-78.956 341.5-176.56 113.67-97.607 219.06-219.38 274.99-373.94-95.588 127.18-197.83 243.1-306.93 336.79s-225.81 157.16-313.84 164.91c-94.284 8.2911-178.6-2.5721-236.91-28.219s-89.225-62.005-90.406-112.59c-2.5311-108.38 89.269-198.68 174.78-301.88l110-132.75-142.7 96.84c-206.61 140.29-492.4 268.42-680.88 280.41-91.701 5.8307-183.79-29.136-243.75-87.969-59.957-58.833-88.856-138.79-58.719-232 61.004-188.67 386.13-354.45 593.97-429.24-225.43 19.913-569.98 195.79-640.59 414.18z"/></g><g transform="translate(-70.299 -3.7822)"><path id="path4188" fill="#AB4388" d="m3745.5 1392.1c-114.74-84.407-147.64-230.2-189.41-369.34-32.913-328.49 37.79-622.44 250.96-868.9 58.716-44.691 107.65-122.9 208.35-23.676 134.49 181.55 150.89 385.25 189.41 584.79z"/><path id="path4171" fill="#7A175B" d="m3932.1 59.812c-2.4271 0.006-4.8518 0.13421-7.2813 0.34375-38.872 3.3527-69.69 28.361-100.53 56.688-189.92 174.43-285.76 431.06-298.84 675.69-13.08 244.62 32.076 495.77 219.87 598.19-141.3-150.9-183.4-361.9-170.9-595.58 12.493-233.65 104.79-478.49 283.06-642.22 28.712-26.37 53.107-42.346 71.562-43.938 18.455-1.5918 39.279 6.8015 70.781 48.25 121.13 159.38 168.41 425.91 181.24 643.6 48.35-215.57-8.855-497.8-142.21-673.26-34.233-45.041-70.313-67.841-106.72-67.75z"/><path id="path4177" fill="#7A175B" d="m3830.7 445.1c-35.253 204.24-55.644 428.74 0 620.3-99.55-182.14-85.097-429.49 0-620.3z"/><path id="path4186" fill="#FECAE7" d="m4330.3 504.29 205.98 634.51c-136.04 49.157-269.55 107.57-423.8 89.968-125.61-31.945-240.52-78.384-260.43-253.33 17.314-299.15 302.87-389.25 478.25-471.15z"/><path id="path4130-4" fill="#FD95CD" d="m3838 873.03c-35.671 110.32 0.29 212.62 71.031 282.03 70.741 69.414 175.21 108.64 281.16 101.91 126.74-8.0585 283.24-60.574 434.31-133.2l-10.74-50.022c-151.45 73.421-308.26 126.79-426.66 134.31-91.701 5.8307-183.79-29.136-243.75-87.969-59.957-58.833-88.856-138.79-58.719-232 61.004-188.67 386.13-354.45 593.97-429.24-225.43 19.913-569.98 195.79-640.59 414.18z"/></g></svg>