<?xml version="1.0" encoding="UTF-8" standalone="no"?>
<!-- Created with Inkscape (http://www.inkscape.org/) -->

<svg
   xmlns:dc="http://purl.org/dc/elements/1.1/"
   xmlns:cc="http://creativecommons.org/ns#"
   xmlns:rdf="http://www.w3.org/1999/02/22-rdf-syntax-ns#"
   xmlns:svg="http://www.w3.org/2000/svg"
   xmlns="http://www.w3.org/2000/svg"
   xmlns:xlink="http://www.w3.org/1999/xlink"
   xmlns:sodipodi="http://sodipodi.sourceforge.net/DTD/sodipodi-0.dtd"
   xmlns:inkscape="http://www.inkscape.org/namespaces/inkscape"
   width="9739.3369"
   height="9739.3467"
   id="svg2"
   version="1.1"
   inkscape:version="0.48.4 r9939"
   sodipodi:docname="Cloudchaser.svg">
  <title
     id="title3771">Cloudchaser</title>
  <defs
     id="defs4">
    <linearGradient
       id="linearGradient3845">
      <stop
         style="stop-color:#d995bc;stop-opacity:1;"
         offset="0"
         id="stop3847" />
      <stop
         style="stop-color:#6f3378;stop-opacity:1;"
         offset="1"
         id="stop3849" />
    </linearGradient>
    <clipPath
       clipPathUnits="userSpaceOnUse"
       id="clipPath3827">
      <path
         style="opacity:0.5;fill:#00ff00;fill-opacity:1;stroke:#ff0000;stroke-width:1px;stroke-linecap:butt;stroke-linejoin:miter;stroke-opacity:1"
         d="m 937.52685,2514.9863 c -37.11013,106.7712 -42.19123,229.0898 -10.32892,328.2415 188.52237,-20.1231 379.66917,-15.0169 581.44197,92.2437 80.9748,-114.3046 147.3009,-236.6565 155.3854,-391.0028 z"
         id="path3829"
         inkscape:connector-curvature="0"
         sodipodi:nodetypes="ccccc" />
    </clipPath>
    <clipPath
       clipPathUnits="userSpaceOnUse"
       id="clipPath3831">
      <path
         style="opacity:0.5;fill:#00ff00;fill-opacity:1;stroke:#ff0000;stroke-width:1px;stroke-linecap:butt;stroke-linejoin:miter;stroke-opacity:1"
         d="m 943.35711,2509.618 c -28.09179,113.829 -18.76754,239.2561 28.68763,336.1438 206.57856,-45.5882 419.15236,-65.7942 656.00116,16.7733 75.809,-127.3442 134.391,-260.9481 124.4804,-419.4394 z"
         id="path3833"
         inkscape:connector-curvature="0"
         sodipodi:nodetypes="ccccc" />
    </clipPath>
    <clipPath
       clipPathUnits="userSpaceOnUse"
       id="clipPath3835">
      <path
         style="opacity:0.5;fill:#00ff00;fill-opacity:1;stroke:#ff0000;stroke-width:1px;stroke-linecap:butt;stroke-linejoin:miter;stroke-opacity:1"
         d="m 940.05688,2568.19 c -31.54623,112.2268 -27.93058,237.9364 13.21396,337.089 198.73746,-35.0153 402.12096,-44.3822 624.31636,50.1016 77.5777,-123.2952 139.0047,-253.7164 136.2192,-412.4695 z"
         id="path3837"
         inkscape:connector-curvature="0"
         sodipodi:nodetypes="ccccc" />
    </clipPath>
    <clipPath
       clipPathUnits="userSpaceOnUse"
       id="clipPath3839">
      <path
         style="opacity:0.5;fill:#00ff00;fill-opacity:1;stroke:#ff0000;stroke-width:1px;stroke-linecap:butt;stroke-linejoin:miter;stroke-opacity:1"
         d="m 883.67834,2675.554 c -16.91401,111.4134 0.3798,230.2364 49.64679,318.0829 181.02057,-63.7392 369.20577,-103.8346 586.40087,-48.196 58.514,-128.9858 101.2123,-262.2611 81.0292,-412.5906 z"
         id="path3841"
         inkscape:connector-curvature="0"
         sodipodi:nodetypes="ccccc" />
    </clipPath>
    <linearGradient
       inkscape:collect="always"
       xlink:href="#linearGradient3845"
       id="linearGradient3851"
       x1="1104.7206"
       y1="2967.0007"
       x2="1059.167"
       y2="2602.3264"
       gradientUnits="userSpaceOnUse" />
    <clipPath
       clipPathUnits="userSpaceOnUse"
       id="clipPath3843">
      <path
         style="opacity:0.5;fill:#00ff00;fill-opacity:1;stroke:#ff0000;stroke-width:1px;stroke-linecap:butt;stroke-linejoin:miter;stroke-opacity:1"
         d="m 756.26043,2539.232 c 457.79967,-325.0692 1018.85687,-487.1592 1622.70447,-510.8514 -80.7134,-276.5487 -291.6999,-402.7909 -530.8848,-510.8514 79.2059,-155.1198 208.2554,-280.3694 340.5677,-395.6594 -165.9663,-46.0932 -338.0138,-71.8855 -490.8181,-50.0835 30.0506,-160.26711 95.5662,-320.53422 150.2504,-480.80133 C 1276.5069,871.88109 727.20935,1548.8986 510.85142,2168.6144 z"
         id="path3845"
         inkscape:connector-curvature="0"
         sodipodi:nodetypes="cccccccc" />
    </clipPath>
    <clipPath
       clipPathUnits="userSpaceOnUse"
       id="clipPath3839-8">
      <path
         style="opacity:0.5;fill:#00ff00;fill-opacity:1;stroke:#ff0000;stroke-width:1px;stroke-linecap:butt;stroke-linejoin:miter;stroke-opacity:1"
         d="m 756.26043,2539.232 c 457.79967,-325.0692 1018.85687,-487.1592 1622.70447,-510.8514 -80.7134,-276.5487 -291.6999,-402.7909 -530.8848,-510.8514 79.2059,-155.1198 208.2554,-280.3694 340.5677,-395.6594 -165.9663,-46.0932 -338.0138,-71.8855 -490.8181,-50.0835 30.0506,-160.26711 95.5662,-320.53422 150.2504,-480.80133 C 1276.5069,871.88109 727.20935,1548.8986 510.85142,2168.6144 z"
         id="path3841-2"
         inkscape:connector-curvature="0"
         sodipodi:nodetypes="cccccccc" />
    </clipPath>
  </defs>
  <sodipodi:namedview
     id="base"
     pagecolor="#ffffff"
     bordercolor="#666666"
     borderopacity="1.0"
     inkscape:pageopacity="0.0"
     inkscape:pageshadow="2"
     inkscape:zoom="0.1248"
     inkscape:cx="1701.18"
     inkscape:cy="4217.7522"
     inkscape:document-units="px"
     inkscape:current-layer="layer2"
     showgrid="false"
     fit-margin-top="2937.65"
     fit-margin-left="0"
     fit-margin-right="0"
     fit-margin-bottom="2937.65"
     inkscape:window-width="1280"
     inkscape:window-height="1002"
     inkscape:window-x="-8"
     inkscape:window-y="-2"
     inkscape:window-maximized="1" />
  <metadata
     id="metadata7">
    <rdf:RDF>
      <cc:Work
         rdf:about="">
        <dc:format>image/svg+xml</dc:format>
        <dc:type
           rdf:resource="http://purl.org/dc/dcmitype/StillImage" />
        <dc:title>Cloudchaser</dc:title>
      </cc:Work>
    </rdf:RDF>
  </metadata>
  <g
     inkscape:groupmode="layer"
     id="layer14"
     inkscape:label="Background"
     sodipodi:insensitive="true"
     style="display:none"
     transform="translate(-75.662888,2853.0722)">
    <rect
       style="color:#000000;fill:#000000;fill-opacity:1;fill-rule:nonzero;stroke:#00ff00;stroke-width:1;stroke-linecap:butt;stroke-linejoin:miter;stroke-miterlimit:4;stroke-opacity:1;stroke-dasharray:none;stroke-dashoffset:0;marker:none;visibility:visible;display:inline;overflow:visible;enable-background:accumulate"
       id="rect4057"
       width="10160.257"
       height="4118.5898"
       x="-80.128204"
       y="-54.487179" />
  </g>
  <g
     inkscape:groupmode="layer"
     id="layer2"
     inkscape:label="Rear Legs"
     style="display:inline"
     sodipodi:insensitive="true"
     transform="translate(-75.662888,2853.0722)">
    <path
       style="fill:#ab9dd4;fill-opacity:1;stroke:#726eca;stroke-width:54;stroke-linecap:butt;stroke-linejoin:miter;stroke-miterlimit:4;stroke-opacity:1;stroke-dasharray:none"
       d="m 455.23916,2928.8605 c -98.41352,284.628 -7.0811,503.9871 198.67758,659.1729 190.77836,143.8875 454.14556,197.0403 645.94986,183.5371 l -11.7025,-789.1894 z"
       id="path3767"
       inkscape:connector-curvature="0"
       sodipodi:nodetypes="csccc" />
    <path
       style="fill:#ab9dd4;fill-opacity:1;stroke:#726eca;stroke-width:54;stroke-linecap:butt;stroke-linejoin:miter;stroke-miterlimit:4;stroke-opacity:1;stroke-dasharray:none"
       d="m 5142.0805,2727.2078 c 233.5952,-37.6826 488.2156,3.3885 791.9596,90.2254 l 5.6569,164.333 -769.3322,11.3137 z"
       id="path3769"
       inkscape:connector-curvature="0"
       sodipodi:nodetypes="ccccc" />
  </g>
  <g
     inkscape:groupmode="layer"
     id="layer3"
     inkscape:label="Rear Wing"
     sodipodi:insensitive="true"
     style="display:inline"
     transform="translate(-75.662888,2853.0722)">
    <path
       style="fill:#ab9dd4;fill-opacity:1;stroke:#726eca;stroke-width:54;stroke-linecap:butt;stroke-linejoin:miter;stroke-miterlimit:4;stroke-opacity:1;stroke-dasharray:none"
       d="m 4463.258,1771.1994 c -13.8566,-240.2924 -45.7068,-570.4124 -350.725,-616.5971 92.0578,-242.21242 149.4818,-507.71763 166.8929,-674.63913 35.6353,-341.63923 -161.9325,-330.46595 -523.2747,284.3162 l -169.6735,-53.73056 c 101.8873,-535.40376 -49.5512,-748.395928 -215.2849,-488.48899 -74.2764,116.48193 -142.407,321.17885 -225.9819,655.35664 l 10e-5,1595.23294 480.8326,39.5979 z"
       id="path3774"
       inkscape:connector-curvature="0"
       sodipodi:nodetypes="ccsccscccc" />
  </g>
  <g
     inkscape:groupmode="layer"
     id="layer4"
     inkscape:label="Head"
     style="display:inline"
     sodipodi:insensitive="true"
     transform="translate(-75.662888,2853.0722)">
    <path
       style="fill:#bfaff0;fill-opacity:1;stroke:none"
       d="m 3659.9847,2727.2078 -90.5097,763.6753 -2163.7467,14.1421 -551.54331,-31.1126 C 732.22932,3433.7861 624.09474,3365.3122 528.91587,3270.2658 l 330.92598,33.9411 c 127.41583,14.9551 236.47515,-15.9811 333.75435,-76.3675 -62.1098,-132.5564 -135.862,-249.6677 -316.78379,-166.8773 -119.73675,25.6845 -239.4735,61.5429 -359.21025,50.9118 -44.31202,-9.7322 -88.62405,-26.4467 -132.93607,-73.5391 L 333.7544,2874.286 c -8.02326,-78.279 47.20292,-82.6041 84.85281,-107.4802 l 149.90664,-56.5686 C 545.28591,2320.0225 550.07796,1939.5539 868,1668 l 344,-288 1044,300 z"
       id="path3795"
       inkscape:connector-curvature="0"
       sodipodi:nodetypes="ccccccccccccccccc" />
    <path
       style="fill:#bfecfb;fill-opacity:1;stroke:none"
       d="M 900,1636 C 627.87977,1836.9604 576.3289,2134.9714 568,2452 431.38786,2251.2788 324.61876,2020.7146 252,1756 l 528,-424 z"
       id="path3793"
       inkscape:connector-curvature="0"
       sodipodi:nodetypes="ccccc" />
    <path
       style="fill:none;stroke:#8ac5ed;stroke-width:54;stroke-linecap:butt;stroke-linejoin:miter;stroke-miterlimit:4;stroke-opacity:1;stroke-dasharray:none"
       d="M 564,2464 C 434.71144,2277.1916 340.2624,2034.0028 260,1796"
       id="path3791"
       inkscape:connector-curvature="0"
       sodipodi:nodetypes="cc" />
    <path
       style="fill:#ffffff;fill-opacity:1;stroke:none"
       d="m 478,3102 c 88.66667,10.7732 177.33333,9.1886 266,-12 115.83677,-24.7612 229.28067,-99.7726 350,-22 l 104,160 c -185.6769,117.7409 -398.41191,78.5442 -610,46 z"
       id="path3787"
       inkscape:connector-curvature="0"
       sodipodi:nodetypes="cccccc" />
    <path
       style="fill:none;stroke:#b9dce6;stroke-width:34;stroke-linecap:butt;stroke-linejoin:miter;stroke-miterlimit:4;stroke-opacity:1;stroke-dasharray:none"
       d="m 462.44784,3093.4891 127.27922,181.0193"
       id="path3785"
       inkscape:connector-curvature="0" />
    <path
       style="font-size:medium;font-style:normal;font-variant:normal;font-weight:normal;font-stretch:normal;text-indent:0;text-align:start;text-decoration:none;line-height:normal;letter-spacing:normal;word-spacing:normal;text-transform:none;direction:ltr;block-progression:tb;writing-mode:lr-tb;text-anchor:start;baseline-shift:baseline;color:#000000;fill:#726eca;fill-opacity:1;stroke:none;stroke-width:54;marker:none;visibility:visible;display:inline;overflow:visible;enable-background:accumulate;font-family:Sans;-inkscape-font-specification:Sans"
       d="m 868.125,1630.2188 c -171.22911,118.7376 -256.24964,312.22 -296.9375,512.875 -39.25692,193.5982 -37.7612,395.0198 -30.875,550.25 -41.28589,20.9358 -80.59835,33.3768 -130.90625,42.0624 -41.13969,7.1027 -73.23742,26.328 -89.96875,56.1876 -16.73133,29.8595 -17.92659,65.4498 -12.15625,104.375 18.2561,123.1507 86.23725,221.5694 207.78125,234.875 119.32901,13.063 253.37302,-16.1702 359.84375,-53.3438 107.59741,-37.567 163.12285,-20.7396 205.65625,14.25 36.443,29.9795 62.4794,77.9708 90.5,124.0625 -100.761,62.2844 -196.22264,75.3774 -294.84375,71.5625 -105.67561,-4.0878 -214.1754,-29.062 -328.96875,-34.3438 l -67.8125,-3.125 47.125,48.8438 c 130.60653,135.3343 278.09428,189.203 428.15625,210.375 150.06195,21.172 303.32035,11.2197 452.25005,20.0312 l 3.1874,-53.9062 c -153.3876,-9.0753 -305.3247,0.5228 -447.9062,-19.5938 -120.86061,-17.052 -268.46411,-71.5024 -374.37863,-159.2206 82.91402,9.3076 200.36867,28.858 286.25363,32.1803 112.52712,4.3528 218.5997,-0.7677 337.8113,-82.3347 l 21.7188,-14.8437 -14.2813,-22.0937 c -30.6577,-47.4111 -54.4517,-104.9717 -110.1557,-150.796 -55.704,-45.8243 -128.97922,-62.2481 -247.88171,-20.7341 -101.78785,35.5386 -233.33,62.3772 -340.39889,50.6562 -96.98534,-10.617 -144.45567,-94.1052 -160.21875,-200.4387 -4.85742,-32.7668 -2.09163,-55.9564 5.8125,-70.0624 7.90413,-14.1061 21.11627,-24.0322 52.0625,-29.375 60.67922,-10.4763 110.67606,-27.2194 162.40625,-55.625 l 14.78125,-8.0938 -0.8125,-16.8438 c -7.42199,-155.66 -9.99517,-361.2636 29.125,-554.1874 39.12017,-192.9239 119.32271,-371.4268 274.8125,-479.25 z"
       id="path3777"
       inkscape:connector-curvature="0"
       sodipodi:nodetypes="cscsssssscscccsccscscccsssssscccscc" />
    <path
       style="fill:#726eca;fill-opacity:1;stroke:none"
       d="m 501,2851 c 29,70.2094 -50,73.1623 -73,44 33.45778,0.1498 60.10972,-10.7518 73,-44 z"
       id="path3779"
       inkscape:connector-curvature="0"
       sodipodi:nodetypes="ccc" />
    <path
       style="fill:#726eca;fill-opacity:1;stroke:none"
       d="m 956.00837,2898.3276 c 68.81473,-24.8505 139.11273,33.0546 207.88943,53.7402 -73.6362,4.901 -139.3153,-44.9569 -207.88943,-53.7402 z"
       id="path3789"
       inkscape:connector-curvature="0"
       sodipodi:nodetypes="ccc" />
  </g>
  <g
     inkscape:groupmode="layer"
     id="layer6"
     inkscape:label="Eye"
     sodipodi:insensitive="true"
     style="display:inline"
     transform="translate(-75.662888,2853.0722)">
    <path
       style="fill:#ffffff;fill-opacity:1;stroke:none"
       d="m 962,2496 2,330 c 294.9646,-34.2531 461.3407,29.2211 626,94 119.0884,-114.5557 146.5331,-253.2281 166,-394 z"
       id="path3843"
       inkscape:connector-curvature="0"
       sodipodi:nodetypes="ccccc" />
    <path
       sodipodi:type="arc"
       style="color:#000000;fill:url(#linearGradient3851);fill-opacity:1;fill-rule:nonzero;stroke:none;stroke-width:1px;marker:none;visibility:visible;display:inline;overflow:visible;enable-background:accumulate"
       id="path3812"
       sodipodi:cx="1040.8612"
       sodipodi:cy="2772.4626"
       sodipodi:rx="212.13203"
       sodipodi:ry="387.49451"
       d="m 1252.9932,2772.4626 c 0,214.0074 -94.9747,387.4946 -212.132,387.4946 -117.15728,0 -212.13203,-173.4872 -212.13203,-387.4946 0,-214.0073 94.97475,-387.4945 212.13203,-387.4945 117.1573,0 212.132,173.4872 212.132,387.4945 z"
       transform="matrix(1.1018742,0.24555404,-0.20862921,1.0216757,529.53417,-457.26252)"
       clip-path="url(#clipPath3839)" />
    <path
       sodipodi:type="arc"
       style="color:#000000;fill:#000000;fill-opacity:1;fill-rule:nonzero;stroke:none;stroke-width:1px;marker:none;visibility:visible;display:inline;overflow:visible;enable-background:accumulate"
       id="path3814"
       sodipodi:cx="1042"
       sodipodi:cy="2723"
       sodipodi:rx="150"
       sodipodi:ry="275"
       d="m 1192,2723 c 0,151.8783 -67.1573,275 -150,275 -82.84271,0 -150,-123.1217 -150,-275 0,-151.8783 67.15729,-275 150,-275 82.8427,0 150,123.1217 150,275 z"
       transform="matrix(1.0571625,0.07172611,-0.07602196,0.99742437,146.48377,-135.72515)"
       clip-path="url(#clipPath3835)" />
    <path
       sodipodi:type="arc"
       style="color:#000000;fill:#ffffff;fill-opacity:1;fill-rule:nonzero;stroke:none;stroke-width:1px;marker:none;visibility:visible;display:inline;overflow:visible;enable-background:accumulate"
       id="path3816"
       sodipodi:cx="1202"
       sodipodi:cy="2573"
       sodipodi:rx="94"
       sodipodi:ry="191"
       d="m 1296,2573 c 0,105.4864 -42.0852,191 -94,191 -51.9148,0 -94,-85.5136 -94,-191 0,-105.4864 42.0852,-191 94,-191 51.9148,0 94,85.5136 94,191 z"
       transform="matrix(1.0033717,0.1190522,-0.12030925,0.992888,300.43024,-110.80155)"
       clip-path="url(#clipPath3831)" />
    <path
       sodipodi:type="arc"
       style="color:#000000;fill:#ffffff;fill-opacity:1;fill-rule:nonzero;stroke:none;stroke-width:1px;marker:none;visibility:visible;display:inline;overflow:visible;enable-background:accumulate"
       id="path3818"
       sodipodi:cx="1021"
       sodipodi:cy="2820"
       sodipodi:rx="33"
       sodipodi:ry="52"
       d="m 1054,2820 c 0,28.7188 -14.7746,52 -33,52 -18.2254,0 -33,-23.2812 -33,-52 0,-28.7188 14.7746,-52 33,-52 18.2254,0 33,23.2812 33,52 z"
       transform="matrix(1.1285649,0,0,1.0271964,-113.02209,-90.108103)"
       clip-path="url(#clipPath3827)" />
  </g>
  <g
     inkscape:groupmode="layer"
     id="layer5"
     inkscape:label="Eye Clipping"
     style="opacity:0.5;display:none"
     sodipodi:insensitive="true"
     transform="translate(-75.662888,2853.0722)">
    <path
       style="fill:#00ff00;fill-opacity:1;stroke:#ff0000;stroke-width:1px;stroke-linecap:butt;stroke-linejoin:miter;stroke-opacity:1"
       d="m 945.03781,2493.2768 c -41.88119,109.675 -47.61555,235.3202 -11.65686,337.1685 212.75975,-20.6704 428.48125,-15.4253 656.19505,94.7524 91.3853,-117.4133 166.2386,-243.0927 175.3625,-401.6367 z"
       id="path3798"
       inkscape:connector-curvature="0"
       sodipodi:nodetypes="ccccc" />
  </g>
  <g
     inkscape:groupmode="layer"
     id="layer7"
     inkscape:label="Eyelashes"
     style="display:inline"
     sodipodi:insensitive="true"
     transform="translate(-75.662888,2853.0722)">
    <path
       style="fill:#000600;fill-opacity:1;stroke:none"
       d="m 1728,2542 c -1.7054,144.273 -73.8703,268.9792 -168,362 l 50,26 c 111.3576,-108.0918 194.8382,-229.4818 171,-420.6569 C 1472,2495.7192 1168,2480.362 859,2463 l 100,-137 -59,-4 -128,160 c -27.20515,34.0064 -4.12442,41.9137 16,42 313.3333,1.3433 626.6667,9.2172 940,18 z"
       id="path3856"
       inkscape:connector-curvature="0"
       sodipodi:nodetypes="cccccccssc" />
    <path
       style="fill:#000600;fill-opacity:1;stroke:none"
       d="m 1774.0032,2633.9385 c 64.8833,27.1946 191.7562,88.6807 180.9968,105.1828 -10.7594,16.5021 -135.5843,-35.7419 -195.713,-67.8607 z"
       id="path3858"
       inkscape:connector-curvature="0"
       sodipodi:nodetypes="czcc" />
    <path
       style="fill:#000600;fill-opacity:1;stroke:none"
       d="m 1769.1812,2615.603 c 78.2531,0.9775 235.6331,11.4895 236.1736,-4.3607 0.5405,-15.8502 -156.9777,-35.0727 -234.7594,-39.7161 z"
       id="path3860"
       inkscape:connector-curvature="0"
       sodipodi:nodetypes="czcc" />
    <path
       style="fill:#000600;fill-opacity:1;stroke:none"
       d="m 1739,2514 c 62.3904,-28.7716 194.0566,-84.296 203,-67 8.9434,17.296 -111.1974,80.3366 -171,112 z"
       id="path3862"
       inkscape:connector-curvature="0"
       sodipodi:nodetypes="czcc" />
    <path
       style="fill:#726eca;fill-opacity:1;stroke:none"
       d="m 870,2840 c 154.9017,0.3545 312.7635,-17.8431 462,20 105.498,26.752 201.3333,74.718 306,80 -72.2778,-43.7303 -206.2638,-91.2797 -306,-112 -154.0423,-32.0025 -344,-25.664 -462,12 z"
       id="path3854"
       inkscape:connector-curvature="0"
       sodipodi:nodetypes="cscsc" />
  </g>
  <g
     inkscape:groupmode="layer"
     id="layer8"
     inkscape:label="Mane"
     style="display:inline"
     sodipodi:insensitive="true"
     transform="translate(-75.662888,2853.0722)">
    <path
       style="fill:#bfecfb;fill-opacity:1;stroke:none"
       d="M 3512.9065,526.69149 C 2420.8666,5.3693635 1253.0269,445.74106 1346.3313,1680.6897 c 330.6422,-8.0732 687.5549,111.2211 936.2094,229.1027 l 135.8478,472.6316 c 265.1617,151.7735 578.4728,366.3197 760.7636,556.4305 6.0145,-96.1665 -58.6693,-208.333 -104.8528,-304.4995 340.5581,190.4348 755.8085,204.0306 1049.5474,47.598 -332.4678,-340.4852 -701.6094,-632.2431 -1108.7434,-844.7292 296.9031,20.5346 630.1756,155.8872 865.4987,318.6417 -109.5077,-310.4303 -310.5653,-589.4191 -654.455,-742.0185 380.1833,-150.3114 769.2586,-266.3885 1123.9739,-247.931 C 4016.7678,897.01636 3289.1589,726.82258 2737.9175,679.42655 2936.7624,553.76952 3245.1129,524.69822 3512.9065,526.69149 z"
       id="path3867-7"
       inkscape:connector-curvature="0"
       sodipodi:nodetypes="ccccccccccccc" />
    <!--S#i#g#m#a-->
    <path
       style="fill:#fdfdfd;fill-opacity:1;stroke:none"
       d="m 1912,472 c 92.1628,28.651 183.2861,53.14425 268,52 -140.1882,71.8102 -222.2352,180.29607 -272,271.31371 188.9093,-21.76873 383.1122,-28.70194 576,42.34314 177.0816,65.22329 347.5263,129.74636 528,130.34315 -172.5122,33.4716 -321.5737,110.3477 -471.5147,196.4853 196.7289,37.8547 382.0504,99.4983 539.5147,203.5147 -269.5274,-24.7009 -503.0653,33.3744 -697.1716,182.1421 169.7649,38.6997 440.5559,68.0221 405.1716,237.8579 l -156,732 536,408 -112,-316 188,108 c 67.2655,-30.3672 122.8686,-66.5657 160,-112 -107.0519,-27.7163 -267.1662,-79.2693 -334.6274,-173.1716 l 4.4853,-592.2842 C 3327.6328,1857.9277 3615.1862,2005.343 3864,2132 3777.7357,1833.2168 3533.141,1615.136 3283.0294,1413.1716 3615.3543,1227.0125 3969.5686,1186.7828 4324,1148 3841.4789,836.45665 3297.927,748.54834 2748,684 2941.0356,532.7975 3223.5071,542.57944 3488,520 2995.1048,296.39619 2480.0226,214.78883 1912,472 z"
       id="path3871"
       inkscape:connector-curvature="0"
       sodipodi:nodetypes="cccscccccccccccccccccc" />
    <path
       style="fill:none;stroke:#8ac5ed;stroke-width:54;stroke-linecap:butt;stroke-linejoin:miter;stroke-miterlimit:7;stroke-opacity:1;stroke-dasharray:none"
       d="M 3512.9065,526.6915 C 2420.8666,5.3693683 1253.0269,445.74107 1346.3313,1680.6897 c 330.6422,-8.0732 687.5549,111.2211 936.2094,229.1027 l 135.8478,472.6316 c 265.1617,151.7735 578.4728,366.3197 760.7636,556.4305 6.0145,-96.1665 -58.6693,-208.333 -104.8528,-304.4995 340.5581,190.4348 755.8085,204.0306 1049.5474,47.598 -332.4678,-340.4852 -701.6094,-632.2431 -1108.7434,-844.7292 296.9031,20.5346 630.1756,155.8872 865.4987,318.6417 -109.5077,-310.4303 -310.5653,-589.4191 -654.455,-742.0185 380.1833,-150.3114 769.2586,-266.3885 1123.9739,-247.931 C 4016.7678,897.01637 3289.1589,726.82259 2737.9175,679.42656 2936.7624,553.76953 3245.1129,524.69823 3512.9065,526.6915 z"
       id="path3867"
       inkscape:connector-curvature="0"
       sodipodi:nodetypes="ccccccccccccc" />
    <path
       style="fill:#bfecfb;fill-opacity:1;stroke:none"
       d="m 1912.0167,1239.4551 c -592.8003,376.3814 59.4377,1047.9272 368.6661,1444.841 -487.964,-131.3204 -962.6039,-401.2948 -1071.0866,-1073.4297 -101.4767,273.3906 -21.1191,641.4676 210.2742,912.6946 C 1092.8311,2418.7196 769.63265,2072.6588 741.04791,1539.2684 504.83545,1784.8195 429.63362,2154.2985 541.40115,2442.7082 165.31748,2241.0161 -97.526823,1589.0723 303.12698,1149.6318 702.7777,711.29145 1526.3115,905.87995 1912.0167,1239.4551 z"
       id="path3865-4"
       inkscape:connector-curvature="0"
       sodipodi:nodetypes="ccccccsc" />
    <path
       style="fill:#fdfdfd;fill-opacity:1;stroke:none"
       d="M 825.17157,903.31371 C 673.20851,1053.9249 647.31948,1275.2467 742.14214,1454.1421 844.19005,1356.1305 955.86862,1267.8195 1102.1421,1240 c 29.9862,106.5918 95.7368,217.1341 197.8579,292 37.1498,-61.5168 89.4458,-110.716 141.6569,-157.1716 28.4769,180.4541 124.4512,260.1838 218.3431,338.0589 C 1641.3219,1515.4646 1693.6974,1369.7831 1908,1240 1587.8963,995.04425 1235.6106,854.67989 825.17157,903.31371 z"
       id="path3869"
       inkscape:connector-curvature="0"
       sodipodi:nodetypes="cccccccc" />
    <path
       style="fill:none;stroke:#8ac5ed;stroke-width:54;stroke-linecap:butt;stroke-linejoin:miter;stroke-miterlimit:7;stroke-opacity:1;stroke-dasharray:none"
       d="m 1912.0167,1239.4551 c -592.8003,376.3814 59.4377,1047.9272 368.6661,1444.841 -487.964,-131.3204 -962.6039,-401.2948 -1071.0866,-1073.4297 -101.4767,273.3906 -21.1191,641.4676 210.2742,912.6946 C 1092.8311,2418.7196 769.63265,2072.6588 741.04791,1539.2684 504.83545,1784.8195 429.63362,2154.2985 541.40115,2442.7082 165.31748,2241.0161 -97.526827,1589.0723 303.12698,1149.6318 702.7777,711.29146 1526.3115,905.87996 1912.0167,1239.4551 z"
       id="path3865"
       inkscape:connector-curvature="0"
       sodipodi:nodetypes="ccccccsc" />
  </g>
  <g
     inkscape:groupmode="layer"
     id="layer9"
     inkscape:label="Ear"
     sodipodi:insensitive="true"
     style="display:inline"
     transform="translate(-75.662888,2853.0722)">
    <path
       style="fill:#bfaff0;fill-opacity:1;stroke:none"
       d="m 2081.7224,1904.1355 c 52.7973,-46.4758 105.5946,-68.2381 158.3919,-84.8528 188.3546,-44.4054 379.3657,-75.5281 582.656,-45.2548 231.842,52.1215 436.4273,186.013 630.7392,350.7249 56.7317,66.5419 31.7338,114.2232 -8.4853,158.3919 -308.957,269.5788 -630.5442,243.2387 -953.1799,192.3331 l -217.7889,-82.0244 z"
       id="path3901"
       inkscape:connector-curvature="0"
       sodipodi:nodetypes="cccccccc" />
    <path
       style="font-size:medium;font-style:normal;font-variant:normal;font-weight:normal;font-stretch:normal;text-indent:0;text-align:start;text-decoration:none;line-height:normal;letter-spacing:normal;word-spacing:normal;text-transform:none;direction:ltr;block-progression:tb;writing-mode:lr-tb;text-anchor:start;baseline-shift:baseline;color:#000000;fill:#726eca;fill-opacity:1;stroke:none;stroke-width:54;marker:none;visibility:visible;display:inline;overflow:visible;enable-background:accumulate;font-family:Sans;-inkscape-font-specification:Sans"
       d="m 2631.125,1732.4062 c -204.3202,-2.5451 -409.9556,69.1353 -522.8125,145.9933 127.5595,-39.1074 325.6034,-94.6639 519.3207,-92.8845 250.0367,2.2968 522.0445,94.2588 767.3356,335.86 47.3491,46.6369 65.8193,77.2638 67.8124,91.5312 0.9966,7.1338 0.078,11.1671 -4.5,18.4688 -4.5774,7.3017 -13.7673,16.8805 -27.4374,27.9688 -342.0188,277.42 -705.7583,276.2349 -1054.0943,171.1393 330.4865,189.0608 731.398,160.1489 1088.1255,-129.2019 15.8812,-12.8816 29.3566,-25.5868 39.1562,-41.2187 9.7997,-15.6319 14.9664,-35.1807 12.25,-54.625 -5.4326,-38.8886 -33.5051,-73.3813 -83.4374,-122.5625 -254.2403,-250.4157 -539.0214,-347.1964 -801.7188,-350.4688 z"
       id="path3895"
       inkscape:connector-curvature="0"
       sodipodi:nodetypes="scssscscsssss" />
  </g>
  <g
     inkscape:groupmode="layer"
     id="layer10"
     inkscape:label="Tail"
     sodipodi:insensitive="true"
     style="display:inline"
     transform="translate(-75.662888,2853.0722)">
    <path
       style="fill:#bfecfb;fill-opacity:1;stroke:none"
       d="m 4624,2576 c 720.921,-463.0549 1621.5251,-779.9558 2408,-960 -85.3333,83.1854 -190.6667,150.8525 -292,240 523.9737,-140.1561 1148.3401,-14.762 1460,124 -117.6524,30.4539 -282.6202,53.3643 -414,84 348.4328,134.4606 707.4496,168.1112 1054,236 -84.0642,77.8395 -191.4193,97.4517 -296,124 404.2108,150.1739 832.7725,202.4181 1244,184 -751.5984,750.8172 -2183.5178,457.4158 -3173.4012,237.4903 -560.2639,-124.4756 -1244.7552,-262.1295 -1824.7064,-96.402 z"
       id="path3904-0"
       inkscape:connector-curvature="0"
       sodipodi:nodetypes="ccccccccscc" />
    <path
       style="fill:#fdfdfd;fill-opacity:1;stroke:none"
       d="m 6000,1916 c 126.4685,-7.7641 252.8823,-19.8744 380,24 -66.9009,31.8829 -130.2109,65.5612 -176,108 252,7.77 504,21.2565 756,92 -155.3224,25.6831 -305.8589,58.545 -440,116 196.1297,31.7838 375.8698,90.8836 540,176 -306.8997,19.0677 -611.6761,46.629 -908,108 55.3116,99.355 131.9185,177.4148 208,256 264,56.0868 528,110.4636 792,156 316.2855,75.6298 634.2363,105.2283 952,140 149.4499,-29.3333 279.8273,-58.6667 380,-88 -79.683,-9.7156 -165.6584,-38.3086 -256,-80 204,-25.6152 408,-48.3305 612,-84 -78.7645,-34.7645 -178.7102,-74.7102 -268,-120 177.6908,-8.6184 356.5892,-14.8216 524,-44 -140.6098,-49.575 -280.0427,-104.3309 -412,-192 l -136,-60 c 128.3171,-18.6778 199.3292,-67.7792 272,-116 -334.6667,-60.2924 -669.3333,-106.0728 -1004,-248 l 352,-84 C 7709.1622,1786.3964 7240.1701,1738.9526 6760,1848 l 252,-220 c -337.3333,64.5978 -674.6667,170.4648 -1012,288 z"
       id="path3906"
       inkscape:connector-curvature="0"
       sodipodi:nodetypes="ccccccccccccccccccccccc" />
    <path
       style="font-size:medium;font-style:normal;font-variant:normal;font-weight:normal;font-stretch:normal;text-indent:0;text-align:start;text-decoration:none;line-height:normal;letter-spacing:normal;word-spacing:normal;text-transform:none;direction:ltr;block-progression:tb;writing-mode:lr-tb;text-anchor:start;baseline-shift:baseline;color:#000000;fill:#8ac5ed;fill-opacity:1;stroke:none;stroke-width:54;marker:none;visibility:visible;display:inline;overflow:visible;enable-background:accumulate;font-family:Sans;-inkscape-font-specification:Sans"
       d="m 7461.5313,2120.2598 c 188.1848,35.0066 444.9722,176.2872 584.5312,378.8652 -144.6289,-2.6968 -334.0613,-37.2393 -484.5279,-57.4226 135.5335,63.8168 361.3547,118.4416 535.1529,110.9226 l 45.8125,-1.9688 -23.9688,-39.0937 C 7968.846,2267.3266 7669.3466,2089.2533 7461.5313,2120.2598 z"
       id="path3908"
       inkscape:connector-curvature="0"
       sodipodi:nodetypes="ccccccc" />
    <path
       style="font-size:medium;font-style:normal;font-variant:normal;font-weight:normal;font-stretch:normal;text-indent:0;text-align:start;text-decoration:none;line-height:normal;letter-spacing:normal;word-spacing:normal;text-transform:none;direction:ltr;block-progression:tb;writing-mode:lr-tb;text-anchor:start;baseline-shift:baseline;color:#000000;fill:#8ac5ed;fill-opacity:1;stroke:none;stroke-width:54;marker:none;visibility:visible;display:inline;overflow:visible;enable-background:accumulate;font-family:Sans;-inkscape-font-specification:Sans"
       d="m 7239.4679,2372.0924 c 103.4553,58.4121 358.3244,316.4239 464.5946,483.5951 -147.5882,26.0608 -308.8604,8.3311 -466.5937,-5.4687 L 7232.75,2904 c 171.4874,15.0032 351.3805,34.8568 520.5625,-3.0312 l 36.3125,-8.125 -19,-32 c -110.1221,-185.5842 -386.6123,-487.1634 -531.1571,-488.7514 z"
       id="path3910"
       inkscape:connector-curvature="0"
       sodipodi:nodetypes="cccccccc" />
    <path
       style="fill:none;stroke:#8ac5ed;stroke-width:54;stroke-linecap:butt;stroke-linejoin:miter;stroke-miterlimit:9;stroke-opacity:1;stroke-dasharray:none"
       d="m 4624,2576 c 720.921,-463.0549 1621.5251,-779.9558 2408,-960 -85.3333,83.1854 -190.6667,150.8525 -292,240 523.9737,-140.1561 1148.3401,-14.762 1460,124 -117.6524,30.4539 -282.6202,53.3643 -414,84 348.4328,134.4606 707.4496,168.1112 1054,236 -84.0642,77.8395 -191.4193,97.4517 -296,124 404.2108,150.1739 832.7725,202.4181 1244,184 -751.5984,750.8172 -2183.5178,457.4158 -3173.4012,237.4903 -560.2639,-124.4756 -1244.7552,-262.1295 -1824.7064,-96.402 z"
       id="path3904"
       inkscape:connector-curvature="0"
       sodipodi:nodetypes="ccccccccscc" />
  </g>
  <g
     inkscape:groupmode="layer"
     id="layer11"
     inkscape:label="Body + Forward Legs"
     sodipodi:insensitive="true"
     style="display:inline"
     transform="translate(-75.662888,2853.0722)">
    <path
       style="fill:#bfaff0;fill-opacity:1;stroke:none"
       d="m 3671.2984,2574.4727 -186.6762,791.9596 c -465.7477,7.0065 -931.4953,-27.6296 -1397.243,-73.5391 L 1165.312,3145.815 c -156.6848,-8.5466 -321.12973,-27.9574 -322.44072,181.0193 25.24853,189.8498 102.16439,347.9043 265.87212,452.5484 173.4769,112.2446 346.9537,121.7894 520.4306,141.4213 610.6129,33.7381 1178.928,-80.5661 1747.968,-192.333 307.3557,59.9842 614.7115,52.4999 922.0672,56.5685 282.3936,-45.9209 601.7214,-67.1711 709.9352,-280.0143 338.4684,64.706 662.7948,38.1806 1001.2632,-330.9259 l 181.0194,25.4558 -192.3331,-551.5433 c -98.2959,11.8246 -209.2552,-6.9541 -220.6173,214.9605 -164.0488,-16.2373 -328.0975,-67.4945 -492.1463,-158.3919 C 4896.7817,2486.1916 4596.346,2433.2981 4356,2492 z"
       id="path3965"
       inkscape:connector-curvature="0"
       sodipodi:nodetypes="ccccccccccccccccc" />
    <path
       style="fill:#bfaff0;fill-opacity:1;stroke:#726eca;stroke-width:54;stroke-linecap:butt;stroke-linejoin:miter;stroke-miterlimit:4;stroke-opacity:1;stroke-dasharray:none"
       d="m 5779.3137,2864 c 5.3539,-103.0126 24.9432,-208.1433 178.7452,-212 377.1582,-9.4574 749.3043,-21.4753 1118.6658,-15.3019 181.4268,3.0323 324.1348,84.2983 418.6071,186.6762 94.8542,102.7917 171.3512,232.981 212.1321,339.4113 66.1448,172.6253 -25.7164,267.5259 -200.8183,271.529 -393.0479,8.9856 -850.8697,-202.6441 -1503.309,-254.5585"
       id="path3959"
       inkscape:connector-curvature="0"
       sodipodi:nodetypes="csssssc" />
    <path
       style="font-size:medium;font-style:normal;font-variant:normal;font-weight:normal;font-stretch:normal;text-indent:0;text-align:start;text-decoration:none;line-height:normal;letter-spacing:normal;word-spacing:normal;text-transform:none;direction:ltr;block-progression:tb;writing-mode:lr-tb;text-anchor:start;baseline-shift:baseline;color:#000000;fill:#726eca;fill-opacity:1;stroke:none;stroke-width:54;marker:none;visibility:visible;display:inline;overflow:visible;enable-background:accumulate;font-family:Sans;-inkscape-font-specification:Sans"
       d="m 1055.1562,3110.5938 c -35.7312,-0.4921 -70.5645,2.4781 -102.7812,11.1874 -42.9556,11.6125 -82.09821,35.0427 -107,74.7188 -24.90179,39.6761 -34.85352,93.0858 -28.25,162.0625 14.28724,149.2365 110.19516,329.0554 255.7188,427.7813 152.3422,103.3518 297.7679,137.2375 445.0937,148.5624 699.0962,53.7396 1597.0771,-53.4544 2044.3034,-268.2472 -472.7737,113.2072 -1348.0776,267.6366 -2040.1784,214.4348 -141.9668,-10.9131 -275.1157,-41.8874 -418.9063,-139.4376 -128.86142,-87.4219 -219.86242,-258.499 -232.2812,-388.2187 -5.86504,-61.2629 3.5218,-101.5656 20.25,-128.2187 16.7282,-26.6532 41.53097,-42.1717 75.34375,-51.3126 67.62555,-18.2816 167.93595,-4.4914 257.75005,10.8438 744.7313,127.1588 1935.6085,272.3715 2294.7703,185.8246 -367.7441,-24.3214 -1542.339,-112.1225 -2285.6766,-239.0434 -56.572,-9.6593 -118.6042,-20.1174 -178.1563,-20.9374 z"
       id="path3939"
       inkscape:connector-curvature="0"
       sodipodi:nodetypes="sssssscsssssscss" />
    <path
       style="font-size:medium;font-style:normal;font-variant:normal;font-weight:normal;font-stretch:normal;text-indent:0;text-align:start;text-decoration:none;line-height:normal;letter-spacing:normal;word-spacing:normal;text-transform:none;direction:ltr;block-progression:tb;writing-mode:lr-tb;text-anchor:start;baseline-shift:baseline;color:#000000;fill:#726eca;fill-opacity:1;stroke:none;stroke-width:54;marker:none;visibility:visible;display:inline;overflow:visible;enable-background:accumulate;font-family:Sans;-inkscape-font-specification:Sans"
       d="m 4983.125,3505.3438 c -39.0786,65.6254 -127.188,121.0965 -248.5312,161.8124 -121.3433,40.716 -274.4284,67.1094 -438.9376,80.875 -299.081,25.0262 -636.3128,8.4436 -893.5091,-33.9243 l -85.1783,39.5181 c 270.5608,53.406 648.339,76.2378 983.1874,48.2188 167.4243,-14.0096 323.987,-40.6824 451.5938,-83.5 127.6068,-42.8177 227.7332,-101.3809 277.75,-185.375 z"
       id="path3945"
       inkscape:connector-curvature="0"
       sodipodi:nodetypes="cssccsscc" />
    <path
       style="font-size:medium;font-style:normal;font-variant:normal;font-weight:normal;font-stretch:normal;text-indent:0;text-align:start;text-decoration:none;line-height:normal;letter-spacing:normal;word-spacing:normal;text-transform:none;direction:ltr;block-progression:tb;writing-mode:lr-tb;text-anchor:start;baseline-shift:baseline;color:#000000;fill:#726eca;fill-opacity:1;stroke:none;stroke-width:54;marker:none;visibility:visible;display:inline;overflow:visible;enable-background:accumulate;font-family:Sans;-inkscape-font-specification:Sans"
       d="m 5393.5858,3503.741 c -245.4901,42.9471 -633.4135,-63.0155 -793.1669,-169.7748 128.7462,167.5981 543.3528,267.1092 803.2385,221.1919 361.1606,-63.8107 668.1313,-333.0699 713.9058,-522.9215 -118.2743,121.2753 -387.6437,412.6646 -723.9774,471.5044 z"
       id="path3947"
       inkscape:connector-curvature="0"
       sodipodi:nodetypes="scscs" />
    <path
       style="font-size:medium;font-style:normal;font-variant:normal;font-weight:normal;font-stretch:normal;text-indent:0;text-align:start;text-decoration:none;line-height:normal;letter-spacing:normal;word-spacing:normal;text-transform:none;direction:ltr;block-progression:tb;writing-mode:lr-tb;text-anchor:start;baseline-shift:baseline;color:#000000;fill:#726eca;fill-opacity:1;stroke:none;stroke-width:54;marker:none;visibility:visible;display:inline;overflow:visible;enable-background:accumulate;font-family:Sans;-inkscape-font-specification:Sans"
       d="m 4540.8125,2440.2812 c -71.1827,-0.7582 -141.4833,6.2399 -208.5937,23.1563 l 13.1874,52.375 c 282.2704,-71.1512 649.3019,52.4433 859.4063,178 213.0857,127.3384 488.9262,212.231 627.8021,165.1407 -132.6532,-4.6638 -390.9697,-86.501 -600.1146,-211.4844 -171.9607,-102.7623 -437.4635,-204.4794 -691.6875,-207.1876 z"
       id="path3953"
       inkscape:connector-curvature="0"
       sodipodi:nodetypes="sccscss" />
  </g>
  <g
     inkscape:groupmode="layer"
     id="layer12"
     inkscape:label="Forward Wing"
     sodipodi:insensitive="true"
     style="display:inline"
     transform="translate(-75.662888,2853.0722)">
    <path
       style="fill:#bfaff0;fill-opacity:1;stroke:none"
       d="m 3606.2446,2158.6939 c -15.5783,246.9261 -24.715,492.5639 -76.3675,746.7048 l 172.534,192.333 c 318.3091,-63.2274 602.5508,-170.2558 763.6753,-435.5777 z"
       id="path4002"
       inkscape:connector-curvature="0"
       sodipodi:nodetypes="ccccc" />
    <path
       style="fill:#bfaff0;fill-opacity:1;stroke:#726eca;stroke-width:54;stroke-linecap:butt;stroke-linejoin:miter;stroke-miterlimit:24;stroke-opacity:1;stroke-dasharray:none"
       d="m 3596.9731,2226.5275 c 0.1392,-10.3408 0.2222,-20.694 0.2489,-31.0581 0.4225,-164.3947 -13.3432,-331.5497 -42.0901,-495.868 -82.2823,-470.3281 -45.1028,-1024.39811 171.0782,-1368.55666 117.9808,-187.82448 237.8753,-183.52381 239.2447,48.56854 2.7041,458.31254 -114.0344,913.58202 -214.9604,1374.61562 132.7911,-192.2883 376.9496,-1108.60771 630.7392,-1323.70393 203.3774,-172.3699 295.3813,-115.93873 251.7301,132.93608 -63.6526,362.91118 -261.2668,798.49325 -432.7494,1202.08155 129.0381,-143.6449 274.546,-302.7604 427.0925,-384.6662 226.4961,-121.611 242.873,38.7183 172.534,220.6174 -121.4018,313.9494 -342.3664,586.2746 -613.7687,837.2144 299.1948,-120.0611 401.3167,46.7008 268.7006,251.73 -7.5398,11.6568 -15.538,23.1081 -23.9696,34.3474"
       id="path3976"
       inkscape:connector-curvature="0"
       sodipodi:nodetypes="csssscsscsscsc" />
    <path
       style="fill:#bfaff0;fill-opacity:1;stroke:none"
       d="m 3636.4456,1955.8756 c -9.1974,-68.7746 -60.7641,-143.8459 -58.0754,-217.5703 2.4939,-68.379 10.3689,-133.8789 24.1237,-187.2096 39.5628,-153.3947 124.4437,-203.4375 200.0838,-7.4841 67.9149,175.9403 39.9605,394.3187 32.7695,654.6803 107.4743,-224.7172 326.0557,-557.6136 395.9798,-178.1909 46.1518,250.4292 -166.4344,495.7882 -349.4113,677.5088 284.3983,-65.4303 274.3526,219.4255 183.7057,297.4701"
       id="path4000-8"
       inkscape:connector-curvature="0"
       sodipodi:nodetypes="cssscscc" />
    <path
       style="font-size:medium;font-style:normal;font-variant:normal;font-weight:normal;font-stretch:normal;text-indent:0;text-align:start;text-decoration:none;line-height:normal;letter-spacing:normal;word-spacing:normal;text-transform:none;direction:ltr;block-progression:tb;writing-mode:lr-tb;text-anchor:start;baseline-shift:baseline;color:#000000;fill:#726eca;fill-opacity:1;stroke:none;stroke-width:54;marker:none;visibility:visible;display:inline;overflow:visible;enable-background:accumulate;font-family:Sans;-inkscape-font-specification:Sans"
       d="m 3570.2188,2195.4062 c -0.026,10.2663 -0.1122,20.5073 -0.25,30.75 -3.0531,226.7727 -22.0853,546.4648 -43.474,696.8476 66.2926,-146.602 94.3624,-464.982 97.474,-696.0976 0.1405,-10.4388 0.223,-20.913 0.25,-31.375 z m 861.875,480.375 c -7.1902,11.1163 -14.8078,22.0589 -22.875,32.8126 -147.104,196.0895 -477.2052,336.347 -738.3329,382.4789 264.9598,43.3034 621.1291,-136.2713 781.5203,-350.0727 8.796,-11.725 17.1419,-23.7089 25.0313,-35.9062 z"
       id="path3976-6"
       inkscape:connector-curvature="0"
       sodipodi:nodetypes="cscscccscscc" />
    <path
       style="fill:none;stroke:#726eca;stroke-width:54;stroke-linecap:butt;stroke-linejoin:miter;stroke-miterlimit:9;stroke-opacity:1;stroke-dasharray:none"
       d="m 3588.4456,1957.8756 c -9.1974,-68.7746 -12.7641,-145.8459 -10.0754,-219.5703 2.4939,-68.379 10.3689,-133.8789 24.1237,-187.2096 39.5628,-153.3947 124.4437,-203.4375 200.0838,-7.4841 67.9149,175.9403 39.9605,394.3187 32.7695,654.6803 107.4743,-224.7172 326.0557,-557.6136 395.9798,-178.1909 46.1518,250.4292 -166.4344,495.7882 -349.4113,677.5088 284.3983,-65.4303 274.3526,219.4255 183.7057,297.4701"
       id="path4000"
       inkscape:connector-curvature="0"
       sodipodi:nodetypes="cssscscc" />
  </g>
  <g
     inkscape:groupmode="layer"
     id="layer13"
     inkscape:label="Cutie Mark"
     sodipodi:insensitive="true"
     transform="translate(-75.662888,2853.0722)">
    <g
       id="g4048"
       transform="matrix(0.20159007,-0.15050358,0.15050358,0.20159007,3228.8313,3389.4426)">
      <path
         clip-path="url(#clipPath3843)"
         sodipodi:nodetypes="cccccc"
         inkscape:connector-curvature="0"
         id="path3819"
         d="M 2028.3806,706.17696 C 1470.9892,1112.1891 875.21811,1455.1491 495.82638,2153.5893 l 280.46744,445.7429 1662.77128,-560.9349 -140.2337,-946.5776 z"
         style="fill:#86c3ec;fill-opacity:1;stroke:none"
         transform="translate(5102.3506,1079.8615)" />
      <path
         clip-path="url(#clipPath3839-8)"
         sodipodi:nodetypes="cccccccccc"
         inkscape:connector-curvature="0"
         id="path3817"
         d="M 1853.0885,926.54424 C 1332.2006,1229.9419 903.28643,1648.3067 595.99332,2218.6978 L 460.76795,2128.5476 C 715.09913,1452.6907 1093.9012,852.09527 1918.197,520.86811 z M 666.11018,2323.8731 C 1040.8299,1913.496 1545.1379,1376.2384 2048.414,1322.2037 l 230.384,400.6677 c -645.9484,26.6919 -1171.8235,269.2473 -1577.62939,656.0935 z"
         style="fill:#ddf1fd;fill-opacity:1;stroke:none"
         transform="translate(5102.3506,1079.8615)" />
      <path
         inkscape:connector-curvature="0"
         id="path3765"
         d="m 5487.9933,2952.9834 200.6734,316.5706 255.0862,-46.1199 -120.2003,195.3256 175.2922,350.5843 -285.4758,-85.1419 -130.2171,290.4841 -75.1252,-320.5342 -205.3422,-100.167 199.9509,-146.1281 z"
         style="fill:#f5f0a9;fill-opacity:1;stroke:none"
         sodipodi:nodetypes="ccccccccccc" />
      <path
         inkscape:connector-curvature="0"
         id="path3778"
         d="m 5981.3146,1776.7736 -13.8566,116.8521 -4.5983,38.7813 -38.8061,4.6107 -116.8397,13.869 116.8397,13.8567 38.8061,4.6106 4.5983,38.7937 13.8566,116.8398 13.8691,-116.8398 4.5982,-38.8061 38.7937,-4.5982 116.8522,-13.8567 -116.8522,-13.869 -38.7937,-4.5983 -4.5982,-38.7937 -13.8691,-116.8521 z"
         style="font-size:medium;font-style:normal;font-variant:normal;font-weight:normal;font-stretch:normal;text-indent:0;text-align:start;text-decoration:none;line-height:normal;letter-spacing:normal;word-spacing:normal;text-transform:none;direction:ltr;block-progression:tb;writing-mode:lr-tb;text-anchor:start;baseline-shift:baseline;color:#000000;fill:#ffffff;fill-opacity:1;fill-rule:evenodd;stroke:none;stroke-width:70.40000153;marker:none;visibility:visible;display:inline;overflow:visible;enable-background:accumulate;font-family:Sans;-inkscape-font-specification:Sans" />
      <path
         inkscape:connector-curvature="0"
         id="path3778-1"
         d="m 7095.6666,1241.3138 -13.8567,116.8521 -4.5982,38.7813 -38.8061,4.6107 -116.8397,13.869 116.8397,13.8567 38.8061,4.6106 4.5982,38.7937 13.8567,116.8398 13.8691,-116.8398 4.5982,-38.8061 38.7937,-4.5982 116.8521,-13.8567 -116.8521,-13.869 -38.7937,-4.5983 -4.5982,-38.7937 -13.8691,-116.8521 z"
         style="font-size:medium;font-style:normal;font-variant:normal;font-weight:normal;font-stretch:normal;text-indent:0;text-align:start;text-decoration:none;line-height:normal;letter-spacing:normal;word-spacing:normal;text-transform:none;direction:ltr;block-progression:tb;writing-mode:lr-tb;text-anchor:start;baseline-shift:baseline;color:#000000;fill:#ffffff;fill-opacity:1;fill-rule:evenodd;stroke:none;stroke-width:70.40000153;marker:none;visibility:visible;display:inline;overflow:visible;enable-background:accumulate;font-family:Sans;-inkscape-font-specification:Sans" />
      <path
         inkscape:connector-curvature="0"
         id="path3778-4"
         d="m 7120.7084,3329.7946 -13.8567,116.8521 -4.5982,38.7813 -38.8061,4.6107 -116.8397,13.869 116.8397,13.8567 38.8061,4.6106 4.5982,38.7937 13.8567,116.8398 13.869,-116.8398 4.5983,-38.8061 38.7937,-4.5982 116.8521,-13.8567 -116.8521,-13.869 -38.7937,-4.5983 -4.5983,-38.7937 -13.869,-116.8521 z"
         style="font-size:medium;font-style:normal;font-variant:normal;font-weight:normal;font-stretch:normal;text-indent:0;text-align:start;text-decoration:none;line-height:normal;letter-spacing:normal;word-spacing:normal;text-transform:none;direction:ltr;block-progression:tb;writing-mode:lr-tb;text-anchor:start;baseline-shift:baseline;color:#000000;fill:#ffffff;fill-opacity:1;fill-rule:evenodd;stroke:none;stroke-width:70.40000153;marker:none;visibility:visible;display:inline;overflow:visible;enable-background:accumulate;font-family:Sans;-inkscape-font-specification:Sans" />
    </g>
  </g>
  <!--Created by Sigma
      http://90sigma.deviantart.com/-->
</svg>
