<?xml version="1.0" encoding="UTF-8"?><svg xmlns="http://www.w3.org/2000/svg" xmlns:xlink="http://www.w3.org/1999/xlink" version="1.1" viewBox="0 0 6358.1509 6358.1378" width="6358.1509" height="6358.1378"><defs id="defs4"><linearGradient id="linearGradient4595"><stop id="stop4597" stop-color="#e3fffa" offset="0"/><stop id="stop4599" stop-color="#38ccbd" offset="1"/></linearGradient><clipPath id="clipPath4402" clipPathUnits="userSpaceOnUse"><path id="path4404" opacity=".5" style="color:#000000" d="m918.29 3268.8c-33.69 63.838-75.006 123.04-120.84 173.16-45.829 50.112-96.135 91.092-147.13 119.85-50.991 28.758-102.63 45.271-151.02 48.295-48.391 3.0247-93.497-7.4419-131.92-30.611s-70.132-59.022-92.738-104.86c-22.605-45.835-36.09-101.62-39.437-163.14-3.3467-61.523 3.4468-128.74 19.868-196.59 16.422-67.845 42.458-136.26 76.148-200.1 24.91-47.202 53.991-91.872 85.982-132.21l595.36 66.714c0.7333 7.504 1.3101 15.106 1.7285 22.797 3.3468 61.523-3.4467 128.74-19.868 196.59-16.422 67.845-42.458 136.26-76.148 200.1z" stroke="#f00" fill="#0f0"/></clipPath><clipPath id="clipPath4406" clipPathUnits="userSpaceOnUse"><path id="path4408" opacity=".5" style="color:#000000" d="m2417.7 2322.1c2.3813 72.105-4.1569 144.2-19.122 210.85-14.965 66.648-38.345 127.8-68.378 178.84-30.033 51.044-66.696 91.941-107.22 119.61-40.529 27.669-84.893 42.087-129.75 42.168-44.855 0.081-90.165-14.174-132.52-41.693-42.352-27.518-81.711-68.278-115.11-119.21-33.401-50.929-60.817-111.99-80.182-178.57-19.365-66.585-30.664-138.65-33.046-210.75-1.7607-53.315 1.3549-106.62 9.1479-157.73l550.15-251.45c4.3564 6.0432 8.6252 12.251 12.801 18.618 33.401 50.929 60.817 111.99 80.183 178.57 19.365 66.585 30.664 138.65 33.046 210.75z" stroke="#f00" stroke-width="1.0002" fill="#0f0"/></clipPath><clipPath id="clipPath4410" clipPathUnits="userSpaceOnUse"><path id="path4412" opacity=".5" style="color:#000000" d="m2203.9 2590.6c-3.8104 72.09-16.484 143.14-37.066 207.8-20.582 64.661-49.056 122.88-83.277 170.27-34.221 47.388-74.16 83.908-116.81 106.81-42.649 22.901-87.974 32.163-132.56 27.09-44.585-5.0731-88.394-24.478-128.13-56.753-39.733-32.275-75.358-77.393-104.19-131.96-28.832-54.562-50.848-118.53-64.39-187.07-13.542-68.544-18.598-141.61-14.787-213.7 2.8174-53.303 10.481-106.04 22.604-156.04l568.3-187.23c3.8117 6.5195 7.5223 13.193 11.127 20.014 28.832 54.562 50.848 118.53 64.39 187.07 13.542 68.544 18.598 141.61 14.787 213.7z" stroke="#f00" fill="#0f0"/></clipPath><clipPath id="clipPath4414" clipPathUnits="userSpaceOnUse"><path id="path4416" opacity=".5" style="color:#000000" d="m2926.4 1720.4c19.952 69.394 31.2 140.74 32.895 208.65 1.6952 67.913-6.1631 132.34-22.983 188.44-16.82 56.093-42.588 103.8-75.362 139.54-32.774 35.734-72.528 59.461-116.27 69.395-43.739 9.9339-91.428 6.066-139.47-11.312-48.045-17.378-96.408-48.253-141.44-90.297-45.036-42.044-86.711-95.226-121.88-155.54-35.172-60.31-63.813-127.7-83.765-197.09-14.753-51.31-24.746-103.69-29.639-154.95l475.23-364.7c5.7274 4.9027 11.41 9.9845 17.04 15.241 45.036 42.044 86.711 95.226 121.88 155.54 35.172 60.31 63.813 127.7 83.765 197.09z" stroke="#f00" fill="#0f0"/></clipPath><clipPath id="clipPath4418" clipPathUnits="userSpaceOnUse"><path id="path4420" opacity=".5" style="color:#000000" d="m3616.3 1914.1c-0.5122 67.791-6.2493 135.72-16.779 198.66-10.53 62.944-25.844 120.85-44.789 169.37-18.944 48.514-41.505 87.592-65.98 114.29s-50.846 40.994-77.126 41.812c-26.28 0.8176-52.447-11.844-76.53-37.031s-46.063-62.88-64.284-110.24c-18.22-47.357-32.667-104.34-42.25-166.66-9.5837-62.318-14.297-129.92-13.785-197.71 0.512-67.791 6.2492-135.72 16.779-198.66 8.1123-48.492 19.064-93.997 32.328-134.52 110.86 55.262 222.52 104.83 338.63 122.98 9.5837 62.318 14.297 129.92 13.785 197.71z" stroke="#f00" stroke-width="1.0004" fill="#0f0"/></clipPath><clipPath id="clipPath4422" clipPathUnits="userSpaceOnUse"><path id="path4424" opacity=".5" style="color:#000000" d="m3639.3 2064.6c0.3348 67.776-4.5524 135.47-14.293 197.98-9.7409 62.512-24.328 119.79-42.661 167.52-18.334 47.731-40.399 85.875-64.534 111.56-24.135 25.683-50.32 38.884-76.583 38.609-26.262-0.2749-52.581-14.026-76.972-40.217s-46.836-64.801-65.643-112.92c-18.807-48.12-33.961-105.71-44.321-168.43-10.359-62.722-15.916-130.53-16.251-198.3-0.3349-67.776 4.5522-135.47 14.293-197.98 7.5043-48.16 17.885-93.213 30.639-133.19 111.52 59.877 223.77 114.1 340.07 137.07 10.359 62.722 15.916 130.53 16.251 198.3z" stroke="#f00" stroke-width="1.0001" fill="#0f0"/></clipPath><clipPath id="clipPath4426" clipPathUnits="userSpaceOnUse"><path id="path4428" opacity=".5" style="color:#000000" d="m3867.1 1529.1c9.0286 67.168 12.878 135 11.258 198.38-1.6198 63.383-8.7075 122.27-20.729 172.21-12.022 49.948-28.968 90.92-49.561 119.83-20.593 28.909-44.817 45.731-70.847 49.2-26.03 3.4686-53.844-6.4195-81.348-28.919s-54.674-57.593-79.464-102.64c-24.79-45.042-47.18-99.999-65.482-160.73-18.302-60.728-32.503-127.18-41.532-194.35-9.0287-67.168-12.878-135-11.258-198.38 1.2479-48.83 5.7412-94.991 13.236-136.45 118.07 43.495 236.13 81.274 354.2 87.489 18.302 60.728 32.503 127.18 41.532 194.35z" stroke="#f00" fill="#0f0"/></clipPath><clipPath id="clipPath4410-8" clipPathUnits="userSpaceOnUse"><path id="path4412-6" opacity=".5" style="color:#000000" d="m2203.9 2590.6c-3.8104 72.09-16.484 143.14-37.066 207.8-20.582 64.661-49.056 122.88-83.277 170.27-34.221 47.388-74.16 83.908-116.81 106.81-42.649 22.901-87.974 32.163-132.56 27.09-44.585-5.0731-88.394-24.478-128.13-56.753-39.733-32.275-75.358-77.393-104.19-131.96-28.832-54.562-50.848-118.53-64.39-187.07-13.542-68.544-18.598-141.61-14.787-213.7 2.8174-53.303 10.481-106.04 22.604-156.04l568.3-187.23c3.8117 6.5195 7.5223 13.193 11.127 20.014 28.832 54.562 50.848 118.53 64.39 187.07 13.542 68.544 18.598 141.61 14.787 213.7z" stroke="#f00" fill="#0f0"/></clipPath><clipPath id="clipPath4422-1" clipPathUnits="userSpaceOnUse"><path id="path4424-1" opacity=".5" style="color:#000000" d="m3639.3 2064.6c0.3348 67.776-4.5524 135.47-14.293 197.98-9.7409 62.512-24.328 119.79-42.661 167.52-18.334 47.731-40.399 85.875-64.534 111.56-24.135 25.683-50.32 38.884-76.583 38.609-26.262-0.2749-52.581-14.026-76.972-40.217s-46.836-64.801-65.643-112.92c-18.807-48.12-33.961-105.71-44.321-168.43-10.359-62.722-15.916-130.53-16.251-198.3-0.3349-67.776 4.5522-135.47 14.293-197.98 7.5043-48.16 17.885-93.213 30.639-133.19 111.52 59.877 223.77 114.1 340.07 137.07 10.359 62.722 15.916 130.53 16.251 198.3z" stroke="#f00" stroke-width="1.0001" fill="#0f0"/></clipPath><clipPath id="clipPath4502" clipPathUnits="userSpaceOnUse"><ellipse id="ellipse4504" opacity=".222" style="color:#000000" clip-path="url(#clipPath4410-8)" rx="308.51" ry="463.64" transform="matrix(.94386 -.33035 .32666 .94514 -.000025729 .000019345)" cy="2613.9" cx="1972.2" fill="#f00"/></clipPath><clipPath id="clipPath4506" clipPathUnits="userSpaceOnUse"><ellipse id="ellipse4508" opacity=".222" style="color:#000000" clip-path="url(#clipPath4410-8)" rx="308.51" ry="463.64" transform="matrix(.94386 -.33035 .32666 .94514 -.000025729 .000019345)" cy="2613.9" cx="1972.2" fill="#f00"/></clipPath><clipPath id="clipPath4510" clipPathUnits="userSpaceOnUse"><ellipse id="ellipse4512" opacity=".222" style="color:#000000" clip-path="url(#clipPath4422-1)" rx="189.22" ry="424.26" transform="matrix(.98980 -.14246 .12832 .99173 -.000025729 .000019345)" cy="2137.1" cx="3320.6" fill="#f00"/></clipPath><clipPath id="clipPath4514" clipPathUnits="userSpaceOnUse"><ellipse id="ellipse4516" opacity=".222" style="color:#000000" clip-path="url(#clipPath4422-1)" rx="189.22" ry="424.26" transform="matrix(.98980 -.14246 .12832 .99173 -.000025729 .000019345)" cy="2137.1" cx="3320.6" fill="#f00"/></clipPath><linearGradient id="linearGradient4601" y2="2268" xlink:href="#linearGradient4595" gradientUnits="userSpaceOnUse" x2="1938.3" y1="2989.9" x1="1960.7"/><linearGradient id="linearGradient4609" y2="1847.6" xlink:href="#linearGradient4595" gradientUnits="userSpaceOnUse" x2="3346.4" y1="2456.6" x1="3383.5"/></defs><g display="none" transform="translate(1113.7 -89.285)"><rect id="rect4074" style="color:#000000" display="inline" height="6584.6" width="4197.4" stroke="#0f0" y="-39.324" x="-33.941"/></g><g transform="translate(1113.7 -89.285)"><path id="path4093" fill="#96e5e6" d="m1680.1 5210.2c-207.42 123.46-414.84 243.55-622.25 325.07l30.628-243.93-172.05 286.56c-246.17 0.1514-503.41 32.149-667.51-203.65h226.27c121.57-116.69 106.99-267.41 113.14-412.95-139.54-34.154-279.07-99.772-418.61-209.3 200.53-148.7 172.59-438.01 186.68-701.45 68.507-521.73 169.12-1023.5 667.51-1278.4 436.99-157.91 811.2-37.802 1142.7 271.53z"/><path id="path4091" fill="#cefcf6" d="m1473.6 3185.1c-450.99 79.218-438.2 646.99-316.78 1255.8 69.42 306.17 164.08 632.57 186.68 961.67l328.1-226.27z"/><path id="path4089" fill="#cefcf6" d="m381.84 3824.3c24.067 224.67 106.96 427.57 195.16 627.91 153.97 349.72 285.34 607.64 45.255 1120.1h90.51c295.13-364.1 188.19-839.4 62.22-1349.2-161.27-652.6 16.01-1298.8 591.11-1521.7-662.86-3.5-918.65 669.4-984.26 1122.9z"/><path id="path4079" fill="#4dc3c1" d="m1356.5 2672.3c-145.98 0.4066-289.36 31.999-414.92 102.39-400.54 224.55-576.78 777.43-603.34 1228.9-8.2896 140.95-13.948 299.65-39.467 434.38s-71.22 241.93-149.82 288.71l-38.301 22.797 35.949 26.348c143.4 105.1 344.17 211.23 531.91 202.01-177.13-51.641-333.53-136.43-463.72-226.03 78.782-67.015 118.47-178.91 141.95-302.86 26.785-141.41 32.168-302.03 40.395-441.9 25.805-438.76 202.86-973.24 573.29-1180.9 184.58-103.48 416.27-117.28 634.67-65.164 218.4 52.114 422.41 170.22 550.08 324.14l45.41-37.668c-137.82-166.15-352-289.02-581.8-343.86-86.175-20.563-174.7-31.547-262.29-31.303z"/><path id="path4087" d="m1507.6 5309.2c-152.42 76.934-300.52 161.83-457.72 224.45 24.274-79.757 38.098-164.2 35.799-249.27-43.289 89.957-93.877 187.91-163.71 277.87-190.89 41.245-533.28 40.034-684.34-198.82 70.301 9.4792 151.78 13.659 236.07 6.4853 116.78-104.09 127.24-250.2 118.99-405.78" stroke="#4dc3c1" stroke-miterlimit="9" stroke-width="59" fill="none"/></g><g transform="translate(1113.7 -89.285)"><path id="path4108" fill="#e75f66" d="m3201.8 2967.3c149.55 32.64 317.94 37.644 359.21 229.1l118.79 466.69c-7.1494 33.784-25.96 44.246-48.083 48.083l-36.77 732.56c-62.491 235.38-237.17 222.34-401.64 231.93z"/><path id="path4096" d="m3208 2968c173.34 20.028 282.67 50.535 336.88 188.78 66.23 168.9 113.48 395.6 127.12 507.22 11.258 92.106-142.67 22.511-220-76" stroke="#bf2a37" stroke-width="34" fill="none"/><path id="path4098" d="m3216 3054c170.15-16.733 178.51 147.25 208 376" stroke="#bf2a37" stroke-width="34" fill="none"/><path id="path4100" d="m3626 3702c-8.3174 242.34-16.18 484.79-34 724-16.48 221.23-211.04 245.2-398 244" stroke="#bf2a37" stroke-width="34" fill="none"/><path id="path4102" fill="#bf2a37" d="m3397 4288.8c-7.7646 105.87-21.674 228.64-64.443 309 71.231-69.638 90.591-200.67 98.354-306.51z"/></g><g transform="translate(1113.7 -89.285)" stroke="#d9c8aa" stroke-width="59" fill="#e9dcc5"><path id="path4111" d="m2580 2956c-176.09-98.377-593.53 43.561-844 348"/><path id="path4113" d="m2436 4236-84 1868c160 50.029 328 39.636 480-4l44-1900"/><path id="path4115" d="m2336 4192c-404.99 578.69-607.75 1209.5-384 1864 22.426 65.598 23.184 136.04-88 148-173 18.61-346.5 15.031-520 0-123-10.656-198.82-69.891-192-196 37.77-698.68 264.74-1358 752-1960"/></g><g transform="translate(1113.7 -89.285)"><path id="path4211-8" d="m3213.1 3534.4c49.14-83.074 91.594-168.15 176.78-240.42l-67.882-63.64-135.76 294.16z" fill="#bf84c2"/><path id="path4213-9" d="m3297.9 3226.1c180.86 88.099 244.37 290.68 213.55 468.1-7.5819 43.635-41.875 36.298-39.598 9.8995 7.6408-88.594-21.744-170.32-80.61-247.49-59.809 37.3-96.299 97.92-130.11 161.22" stroke="#69496d" stroke-width="34" fill="none"/><path id="path4134-1" fill="#f9f2de" d="m2224 4176c-145.06 659.45-293.8 1326.3-432 1972-38.367 179.27-29.713 214.21 108 248 147.24 36.124 293.72 20.151 436 4 137.65-15.626 131.62-71.9 136-192 21.242-583.1 83.563-1165.3 128-1748"/><path id="path4151" d="m3162.2 4019.5c78.251 688.25 141.28 1384.1 223.45 2070.4 19.092 159.47 34.506 224.92-121.62 263.04-136.71 33.383-277.76 33.533-415.78 19.799-139.79-13.91-171.96-55.429-155.56-237.59 52.654-584.98 64.473-1163.6 90.51-1742.3" stroke="#d9c8aa" stroke-width="59" fill="#f9f2de"/><path id="path4170" fill="#f9f2de" d="m3512.9 2410.1-1097.4-135.8c24.519 247.02 49.094 494.03 0 741.05-226.46-57.704-345.64 68.518-469.52 186.68l-192.33 814.59c70.087 199.95 228.47 289.52 418.61 339.41l429.92 107.48 599.63-158.39 96.166-627.91c37.92-222.5 20.114-445.01-16.97-667.51-11.038-248.96 110.46-424.29 231.93-599.63z"/><path id="path4118" fill="#d9c8aa" d="m2444.6 2258.3-58.254 9.3477c45.155 281.39 34.449 540.02-1.1621 789.84-23.599 165.56-7.2589 324.39-68.944 486.23 110.85-137.97 103.38-309.69 127.35-477.91 36.182-253.83 47.29-519.09 1.0058-807.52z"/><path id="path4124" d="m2421.1 2992.8c-188.15-18.943-372.63 66.31-469.52 212.13" stroke="#d9c8aa" stroke-width="59" fill="none"/><path id="path4126" d="m2192 4361.7c-158.77-14.83-344.74-135.89-446.89-367.7" stroke="#d9c8aa" stroke-width="59" fill="none"/><path id="path4128" fill="#d9c8aa" d="m2778.6 4371c-86.278 51.616-179.56 92.123-272.14 63.639 91.416 73.516 207.98 43.499 302.43-13.008 146.31-87.532 286.69-244.4 335.08-410.71-95.605 141.69-231.73 280.13-365.37 360.08z"/><path id="path4134" fill="#d9c8aa" d="m2121.7 4503.2c-121.33 549.79-243.56 1101.4-358.52 1638.6-19.36 90.46-30.382 147.64-10.455 195.97 9.9635 24.167 28.998 43.135 52.656 56.221s52.115 21.921 87.617 30.631c153.59 37.682 303.99 20.824 446.36 4.6621 36.408-4.133 65-10.944 88.48-22.584 23.481-11.64 41.471-29.175 52.305-49.869 21.667-41.388 19.204-88.395 21.367-147.79 21.192-581.71 83.451-1163.6 127.93-1746.8l-58.828-4.4882c-44.391 582.07-106.77 1164.7-128.07 1749.2-2.2117 60.71-3.8493 101.89-14.676 122.57-5.4133 10.34-12 17.312-26.24 24.371-14.24 7.0592-36.515 13.14-68.932 16.82-142.19 16.141-284.75 31.227-425.64-3.3379-33.355-8.1831-57.622-16.387-73.119-24.959-15.497-8.5716-22.048-15.878-26.666-27.08-9.2364-22.403-5.4027-72.331 13.604-161.14 114.9-536.86 237.11-1088.4 358.44-1638.2 24.566-111.32 41.096-234.58 68.288-348.92-60.808 101.65-101.34 224.89-125.9 336.21z"/><path id="path4153" d="m3519.3 2411.8c-151.07 151.39-270.82 417.44-236.45 622.34 38.086 227.05 47.947 441.86 5.1716 669.86" stroke="#d9c8aa" stroke-width="59" fill="none"/></g><g transform="translate(1113.7 -89.285)"><path id="path4173-0" fill="#e75f66" d="m1230.8 3642.8c40.287-153.53 97.068-293.08 155.03-426.83 34.227-78.979 92.378-161.69 234.14-208 131.71-43.03 267.14-41.225 400-16 137.23 26.056 135.72 91.656 136 184 0.8307 271.12-34.962 496.97-35.515 736.97-0.3732 161.93 7.5634 346.33-15.314 522.34-8.6677 66.687-32.659 109.97-113.17 152.69-196.72 104.38-428.17 125.83-640 68-126.01-34.402-152.77-159.21-136-320 21.255-203.81 27.411-408 46.464-613.05-35.133 7.6954-47.095-21.209-31.636-80.121z"/><path id="path4173" fill="#bf2a37" d="m1844.7 2957.1c-76.894-0.3581-153.98 9.8694-229.98 34.699-146.14 47.744-209.16 135.95-244.46 217.4-58.066 133.99-115.23 274.4-155.88 429.27-8.176 31.158-10.795 55.946-1.3243 76.373 4.7356 10.214 13.695 18.798 24.48 22.644 0.2176 0.078 0.4477 0.1 0.666 0.1739-12.017 199.42-18.456 398.44-39.115 596.53-8.528 81.774-6.4037 155.41 15.4 215s65.281 104.67 133.03 123.16c215.89 58.94 451.71 37.128 652.45-69.383 83.477-44.292 113-95.78 122.06-165.51 23.138-178.01 15.083-363.15 15.455-524.5 0.5493-238.33 36.351-464.42 35.516-737.06-0.1411-46.067 1.0151-88.32-18.678-124.87-19.693-36.549-59.955-62.262-131.15-75.779-58.971-11.196-118.66-17.88-178.47-18.158zm-0.061 33.986c57.36 0.2758 114.91 6.6989 172.18 17.574 66.036 12.538 93.634 32.653 107.56 58.504 13.929 25.851 14.468 62.57 14.609 108.85 0.826 269.6-34.959 495.21-35.516 736.88-0.3746 162.51 7.4448 346.18-15.172 520.19-8.2721 63.644-26.733 98.713-104.28 139.86-192.69 102.24-419.79 123.34-627.55 66.617-58.262-15.906-91.17-50.433-110.05-102.04-18.885-51.612-21.754-120.78-13.514-199.79 20.869-200.11 27.279-400.02 39.301-599.19 0.073-0.015 0.1434-0.02 0.2168-0.035 36.369-7.6464 71.39-20.403 104.25-39.918 43.311-25.718 85.822-67.721 99.996-139.31 26.434-133.51 79.28-291.24 123.03-396.79 20.206-48.753 47.019-67.917 99.502-78.791 116.36-24.108 232.62-25.67 344.35-17.398-114.54-29.911-230.41-40.932-351.25-15.895-59.161 12.257-100.46 42.235-124.01 99.068-44.618 107.66-97.856 266.26-124.97 403.21-12.223 61.737-45.837 94.02-84.004 116.68-29.352 17.429-60.657 28.894-93.889 35.881-8.3937 1.7647-13.793 1.1979-16.467 0.2441-2.6739-0.9538-3.5363-1.6386-5.0586-4.9219-3.0445-6.5664-3.9177-25.688 3.3653-53.443 39.934-152.18 96.329-290.88 154.19-424.38 33.155-76.506 86.432-153.71 223.82-198.6 72.173-23.579 145.62-33.388 219.37-33.033z"/><path id="path4175" fill="#bf2a37" d="m1419.2 4148.6c-48.195 149.29-51.311 300.42 0.1622 445.08 1.4458 4.2517 4.6496 7.8753 8.6921 9.8311s8.8722 2.2187 13.103 0.7135c4.231-1.5053 7.8093-4.7596 9.7082-8.8291s2.0941-8.9024 0.5297-13.112c-48.832-137.24-46.115-279.89 0.1621-423.24 43.261-134.01 44.912-291.38 27.85-410.41-5.7473 122.8-19.389 273.52-60.208 399.97z"/></g><g transform="translate(1113.7 -89.285)"><path id="path4680" fill="#fff" d="m3384.2 3291.1c-80.832 56.029-129.14 137.36-176.78 219.2l111.72 195.16 110.31 42.426c54.199 10.116 78.63-24.42 87.681-82.024 4.812-143.94-21.439-275.85-132.94-374.77z"/><path id="path4201-6" fill="#fff" d="m3156.5 3547.1c-15.763-93.481-35.934-186.28-121.62-240.42-208.44-131.68-419.88-258.68-624.74-398.18-59.721 82.229-116.77 197.9-147.42 330.3-11.109 47.984 15.416 81.104 36.77 106.99 139.86 169.57 282.64 317.5 418.61 444.55 49.523 46.275 102.16 54.626 137.08 0.4853 62.267-96.556 118.32-204.02 185.36-282.16 19.49 39.533 33.801 68.707 48.083 97.823"/><path id="path4211" fill="#bf84c2" d="m3213.1 3534.4c49.14-83.074 91.594-168.15 176.78-240.42l-34.344 2.3042c-83.615 56.656-137.66 145.57-169.3 228.21z"/><path id="path4221" fill="#bf84c2" d="m3037.7 3504.7-50.912 83.439 103.24 48.083v-29.698z"/><path id="path4219" fill="#bf84c2" d="m3256.9 3629.1c28.751-68.735 70.792-126.84 137.18-165.46 51.218 64.139 71.679 133.4 77.782 205.06l9.8995 77.782c-65.525 8.6704-131.05-29.866-196.58-60.811z"/><path id="path4203" fill="#bf84c2" d="m3082 3340c-126.59 35.949-206.69 219.03-256 362-173.1-104.6-380.6-323.8-552-514l130-278z"/><path id="path4201" d="m3156.5 3547.1c-15.763-93.481-35.934-186.28-121.62-240.42-208.44-131.68-421.88-259.68-626.74-399.18-59.721 82.229-114.77 198.9-145.42 331.3-11.109 47.984 15.416 81.104 36.77 106.99 139.86 169.57 282.64 317.5 418.61 444.55 49.523 46.275 102.16 54.626 137.08 0.4853 62.267-96.556 118.32-204.02 185.36-282.16 19.49 39.533 33.801 68.707 48.083 97.823" stroke="#69496d" stroke-width="34" fill="none"/><path id="path4205" fill="#69496d" d="m3165.3 3538.8 33.391 6.4024c17.32-90.334 91.524-189.09 156.83-248.92-81.771 44.824-169.84 136.22-190.22 242.52z"/><path id="path4213" d="m3364 3267c130.07 100.65 174.24 273.36 147.51 427.17-7.5819 43.635-41.875 36.298-39.598 9.8995 7.6408-88.594-21.744-170.32-80.61-247.49-59.809 37.3-96.299 97.92-130.11 161.22" stroke="#69496d" stroke-width="34" fill="none"/><path id="path4215" d="m2984 3583.9c29.459 24.289 64.503 40.309 96.166 49.497" stroke="#69496d" stroke-width="34" fill="none"/><path id="path4217" d="m3513.7 3680.2c-8.8425 108.92-138.05 67.523-218.61 1.3138" stroke="#69496d" stroke-width="34" fill="none"/><path id="path4227" d="m3138 3652c-45.819 323.33-56.84 646.67-28 970 104.26-94.947 217.18-176.9 332-256-3.2068-252.54-31.361-554.81-172-752" stroke="#bf2a37" stroke-width="34" fill="#e75f66"/><path id="path4225" d="m3090 3584c-143.23 175.38-257.44 363.95-342 566 34.86 77.979 110.58 180.89 188 214 63.442-238.26 133.61-472.76 218-712" stroke="#bf2a37" stroke-width="34" fill="#e75f66"/><path id="path4229" fill="#bf2a37" d="m3229.1 3647.6-32.258 10.748c19.94 59.844 33.418 109.37 40.425 182.08 17.006-72.292 13.246-128.56-8.1668-192.82z"/><path id="path4223" d="m3105.6 3632c-26.808-32.374-27.276-84.643 4.2427-113.14 31.518-28.494 114.46-26.139 145.66 5.6569 31.207 31.796 31.303 83.581-2.8284 114.55-34.131 30.97-120.27 25.303-147.08-7.0711z" stroke="#bf2a37" stroke-width="34" fill="#e75f66"/></g><g transform="translate(1113.7 -89.285)"><path id="path4236-8" fill="#f9f2de" d="m3801.1 1187.6c104.15 269.64 191.72 579.64-11.03 1018.8s-768.61 457.59-1179.5 294.16c-410.84-163.43-525.98-585.07-585.48-978.64l182.9-538 1292-724c164.43-206.14 242.84 275.94 360 448-2.7089 161.42 50.71 327.94-58.878 479.65z"/><path id="path4236" fill="#d9c8aa" d="m3787.3 1147.3c71.892 205.1 174.38 617.17-23.961 1046.8-97.062 210.24-278.82 318.54-490.11 356.38-211.29 37.841-450.91 2.59-651.66-77.266-198.2-78.845-323.78-218.46-409.02-388.8-85.233-170.35-128.64-371.29-158.2-566.83l-58.338 8.8203c29.939 198.03 73.855 404.69 163.78 584.41 89.923 179.72 227.34 332.64 439.97 417.23 210.1 83.576 458.83 120.82 683.87 80.52 225.04-40.305 427.59-160.8 533.27-389.72 207.15-448.7 88.503-882.63-29.606-1071.5z"/><path id="path4257" fill="#d9c8aa" d="m3575.5 182.98c-18.334-0.10965-37.11 5.6604-53.182 16.742-21.428 14.776-39.302 37.386-56.191 68.037l51.676 28.473c14.14-25.661 27.727-40.847 38.01-47.938 10.283-7.0906 16.009-7.697 24.461-5.7422 16.903 3.9097 47.478 31 77.488 78.889 59.582 95.077 120.56 259.19 173.23 407.14 16.832 151.78 12.743 299.29-30.534 441.56l28.828 94.986c72.243-177.23 80.88-361.36 59.996-546.44l-0.3809-3.377-1.1387-3.2012c-53.1-149.17-113.6-315.93-180-421.96-33.225-53.018-67.017-94.13-114.19-105.04-5.8963-1.3638-11.957-2.0533-18.068-2.0898z"/><path id="path4263" fill="#d9c8aa" d="m3266.8 2033.9c24.671-47.965 232.4-63.64 265.87-21.213-39.989-8.0053-215.47 5.4125-265.87 21.213z"/><path id="path4265" fill="#d9c8aa" d="m3555.3 2067.9c9.8168 46.15-0.7335 67.732-25.456 87.681 46.324 30.685 80.066-35.038 25.456-87.681z"/><path id="path4267" fill="#d9c8aa" d="m3370.1 2219.2c-48.312-9.1336-68.954-30.419-72.125-80.61-36.753 63.243-2.2484 118.46 72.125 80.61z"/><path id="path4269" fill="#d9c8aa" d="m3190.5 2277.2c29.019 110.68 116.28 148.04 220.62 132.94 104.34-15.105 156.31-82.731 172.53-189.5 8.1902 110.29-57.607 213.47-169.71 226.27-112.1 12.807-226.84-49.521-223.45-169.71z"/></g><g transform="translate(1113.7 -89.285)"><path id="path4272" d="m3813.4 1335.6 9.207 32.73s193.86-47.4 187.4-70.365c-6.4589-22.965-196.6 37.635-196.6 37.635z"/><path id="path4274" d="m3825.5 1417.6 8.9454 32.801s188.05-47.136 182.53-67.4c-5.5268-20.265-191.47 34.6-191.47 34.6z"/><path id="path4276" d="m3844.7 1487.1 2.6094 33.898s174.29-9.198 172.7-29.949c-1.5963-20.751-175.3-3.9492-175.3-3.9492z"/><path id="path4278" d="m2058 1724c0 19.564 210.84 19 210.84 19l0.3204-34s-211.16-4.564-211.16 15z"/><path id="path4280" d="m2269.7 1785s-196.03 2.3776-195.65 20.996 196.35 12.996 196.35 12.996z"/><path id="path4282" d="m2271.2 1853.7s-175.87 48.02-170.24 67.32c5.6246 19.3 179.76-34.68 179.76-34.68z"/></g><g transform="translate(1113.7 -89.285)"><path id="path4392" clip-path="url(#clipPath4426)" fill="#fff" d="m3374.3 1213.7 500.63 79.196c34.538 254.36 76.263 507.19 8.4852 783.47-142.36 183.51-284.73 115.92-427.09 16.97-99.227-274.04-93.81-575.99-82.024-879.64z"/><ellipse id="path4382" style="color:#000000" d="m 3509.8335,2137.1409 c 0,234.3117 -84.7161,424.2589 -189.2188,424.2589 -104.5026,0 -189.2187,-189.9472 -189.2187,-424.2589 0,-234.3118 84.7161,-424.259 189.2187,-424.259 104.5027,0 189.2188,189.9472 189.2188,424.259 z" clip-path="url(#clipPath4422)" rx="189.22" ry="424.26" transform="matrix(.98980 -.14246 .12832 .99173 0 0)" cy="2137.1" cx="3320.6" fill="url(#linearGradient4609)"/><path id="path4390" clip-path="url(#clipPath4414)" fill="#fff" d="m2177.9 1666.2c67.23 246.78 111.21 503.9 308.3 692.96 284.44-0.141 607.16 62.261 593.97-424.26-87.273-238.82-194.49-466.9-379.01-653.37z"/><ellipse id="path4380" style="color:#000000" d="m 2280.6877,2613.8577 c 0,256.0594 -138.1244,463.6365 -308.5096,463.6365 -170.3852,0 -308.5096,-207.5771 -308.5096,-463.6365 0,-256.0594 138.1244,-463.6366 308.5096,-463.6366 170.3852,0 308.5096,207.5772 308.5096,463.6366 z" clip-path="url(#clipPath4410)" rx="308.51" ry="463.64" transform="matrix(.94386 -.33035 .32666 .94514 0 0)" cy="2613.9" cx="1972.2" fill="url(#linearGradient4601)"/><path id="path4472" d="m2689.8 2107.5-67.882 127.28-118.79-84.853 107.48-104.65z" clip-path="url(#clipPath4506)" fill="#ebfcfb"/><path id="path4474" d="m2622 2070.7-110.31 87.681-115.97-195.16 149.91-65.054z" clip-path="url(#clipPath4502)" fill="#c3f3f0"/><path id="path4476" d="m3679.8 1850.1 90.51 53.74 8.4852-149.91-76.368-2.8284z" clip-path="url(#clipPath4514)" fill="#ebfcfb"/><path id="path4478" d="m3770.3 1799.2-79.196-11.314-2.8284-115.97 90.51 8.4853z" clip-path="url(#clipPath4510)" fill="#c3f3f0"/><ellipse id="path4384" style="color:#000000" d="m 2422.086,2374.033 c 0,209.9625 -100.1099,380.1708 -223.6016,380.1708 -123.4918,0 -223.6016,-170.2083 -223.6016,-380.1708 0,-209.9626 100.1098,-380.1708 223.6016,-380.1708 123.4917,0 223.6016,170.2082 223.6016,380.1708 z" clip-path="url(#clipPath4406)" rx="223.6" ry="380.17" transform="matrix(.97556 -.21971 .24449 .96965 0 0)" cy="2374" cx="2198.5"/><ellipse id="path4388" style="color:#000000" d="m 983.92434,3044.0813 c 0,112.1154 -51.51962,203.0029 -115.07229,203.0029 -63.55267,0 -115.07229,-90.8875 -115.07229,-203.0029 0,-112.1154 51.51962,-203.0029 115.07229,-203.0029 63.55267,0 115.07229,90.8875 115.07229,203.0029 z" clip-path="url(#clipPath4402)" rx="115.07" ry="203" transform="matrix(.72058 -.69337 .69282 .72111 0 0)" cy="3044.1" cx="868.85" fill="#fff"/><ellipse id="path4480" style="color:#000000" d="m 28.701418,3218.4287 c 0,34.7352 -20.6188207,62.8937 -46.053425,62.8937 -25.434604,0 -46.053425,-28.1585 -46.053425,-62.8937 0,-34.7352 20.618821,-62.8937 46.053425,-62.8937 25.4346043,0 46.053425,28.1585 46.053425,62.8937 z" rx="46.053" ry="62.894" transform="matrix(.51689 -.85605 .83283 .55352 0 0)" cy="3218.4" cx="-17.352" fill="#fff"/><ellipse id="path4386" style="color:#000000" d="m 3433.9373,2039.4468 c 0,191.213 -63.3891,346.2218 -141.5835,346.2218 -78.1945,0 -141.5836,-155.0088 -141.5836,-346.2218 0,-191.2131 63.3891,-346.2219 141.5836,-346.2219 78.1944,0 141.5835,155.0088 141.5835,346.2219 z" clip-path="url(#clipPath4418)" rx="141.58" ry="346.22" transform="matrix(.99487 -.10119 .14070 .99005 0 0)" cy="2039.4" cx="3292.4"/><ellipse id="path4482" style="color:#000000" d="m 2670.2211,2969.2334 c 0,99.2121 -33.9121,179.6394 -75.7448,179.6394 -41.8327,0 -75.7448,-80.4273 -75.7448,-179.6394 0,-99.2121 33.9121,-179.6394 75.7448,-179.6394 41.8327,0 75.7448,80.4273 75.7448,179.6394 z" rx="75.745" ry="179.64" transform="matrix(.88034 -.47434 .44186 .89709 0 0)" cy="2969.2" cx="2594.5" fill="#fff"/><ellipse id="path4484" style="color:#000000" d="m 2352.2068,2925.8762 c 0,28.9611 -16.3781,52.4386 -36.5816,52.4386 -20.2034,0 -36.5815,-23.4775 -36.5815,-52.4386 0,-28.961 16.3781,-52.4386 36.5815,-52.4386 20.2035,0 36.5816,23.4776 36.5816,52.4386 z" rx="36.582" ry="52.439" transform="matrix(.91501 -.40343 .49325 .86989 0 0)" cy="2925.9" cx="2315.6" fill="#fff"/></g><g opacity=".5" transform="translate(1113.7 -89.285)" display="none"><ellipse id="path4313" style="color:#000000" d="m 3628.9052,2026.4965 c 0,285.9414 -89.8161,517.7428 -200.6098,517.7428 -110.7937,0 -200.6098,-231.8014 -200.6098,-517.7428 0,-285.9415 89.8161,-517.7428 200.6098,-517.7428 110.7937,0 200.6098,231.8013 200.6098,517.7428 z" rx="200.61" ry="517.74" transform="matrix(.99124 -.13209 .13322 .99109 0 0)" cy="2026.5" cx="3428.3" display="inline" fill="#ff0"/><ellipse id="path4315" style="color:#000000" d="m 2340.8037,2329.5774 c 0,304.6438 -153.4095,551.6064 -342.6498,551.6064 -189.2402,0 -342.6497,-246.9626 -342.6497,-551.6064 0,-304.6438 153.4095,-551.6064 342.6497,-551.6064 189.2403,0 342.6498,246.9626 342.6498,551.6064 z" rx="342.65" ry="551.61" transform="matrix(.97517 -.22148 .27633 .96106 0 0)" cy="2329.6" cx="1998.2" display="inline" fill="#ff0"/><path id="path4315-7" style="color:#000000" d="m2340.8 2329.6c0 72.205-8.9183 144.38-26.083 211.09-17.164 66.709-42.561 127.9-74.277 178.95-31.716 51.057-69.725 91.942-111.16 119.57-41.438 27.632-86.274 41.988-131.13 41.988-44.853 0-89.688-14.357-131.13-41.989-41.438-27.632-79.448-68.516-111.16-119.57-31.716-51.057-57.113-112.25-74.277-178.95-17.164-66.709-26.083-138.89-26.083-211.09 0-53.389 4.8758-106.76 14.356-157.92l558.4-250.79c4.1563 6.0591 8.2197 12.283 12.185 18.666 31.716 51.057 57.113 112.25 74.277 178.95 17.164 66.709 26.083 138.89 26.083 211.09z" transform="matrix(.97517 -.22148 .27633 .96106 0 0)" display="inline" stroke="#f00" stroke-width="1.0008" fill="#0f0"/><path id="path4313-0" style="color:#000000" d="m3628.9 2026.5c0 67.772-5.2213 135.52-15.27 198.13-10.049 62.614-24.918 120.05-43.487 167.97-18.568 47.922-40.822 86.297-65.082 112.23-24.261 25.935-50.51 39.411-76.77 39.411s-52.509-13.476-76.77-39.411-46.514-64.31-65.082-112.23c-18.568-47.922-33.438-105.35-43.487-167.97-10.049-62.614-15.27-130.36-15.27-198.13 0-67.772 5.2213-135.52 15.27-198.13 7.7419-48.238 18.345-93.4 31.296-133.51 111.22 58.709 223.2 111.75 339.38 133.51 10.049 62.614 15.27 130.36 15.27 198.13z" transform="matrix(.99124 -.13209 .13322 .99109 0 0)" display="inline" stroke="#f00" fill="#0f0"/></g><g transform="translate(1113.7 -89.285)"><path id="path4519" d="m2737 1284.8c-102.64 111.95-351.09 291.64-527.38 419.93-31.83 23.162-14.59 48.7 19.414 27.414 155.49-97.332 415.76-275.87 544.21-426.41z"/><path id="path4521" d="m3375.7 1134.5c31 43.716 88.765 85.895 154.64 109.23 105.73 37.454 239.13 75.049 344.57 101.49-138.12 4.5942-305.79-21.634-449.72-76.368-56.01-21.299-85.21-52.677-84.853-107.48z"/><path id="path4523" d="m3456.3 1257.5c-47.525 258.6 63.488 627.36 152.77 731.5-71.034-113.34-153.55-469.72-120.15-721.6z"/><path id="path4525" d="m2689.8 1380.5c198.27 174.15 262.41 435.02 256.89 695.91 59.509-254.84-49.754-573.14-231.44-727.02z"/></g><g stroke-linejoin="round" transform="translate(1113.7 -89.285)" stroke="#bf2a37" stroke-width="59"><path id="path4530" d="m2590.8 353.83c-2.7317-124.22-145.75-355.69-251.73-158.39-102.72-92.192-170.07-75.628-166.88 31.113-102.8-14.178-152.4 27.673-59.397 181.02-107.03-25.906-185.72-0.83013-217.79 70.711l285 269.72z" fill="#e75f66"/><path id="path4528" d="m2520.1 370.8c19.639-146.72-148.91-216.96-169.71-56.569-149.25-98.928-237.36 10.279-144.25 124.45-82.166 31.042-144.19 100.44-132.94 183.85" fill="none"/></g><g transform="translate(1113.7 -89.285)"><path id="path4533" fill="#96e5e6" d="m2071 672c163.2-185.52 539.8-454.97 875.1-527.31 271.3-58.532 513.3-5.58 693.9 131.8 184.4 140.23 274.5 396.22 264 627.51-424.1 286.5-928.6 413.5-1428 408 7.1991-68.012 11.293-186.93 12-294.54-42.828 99.609-88.485 210.53-120 270.54"/><path id="path4537-2" d="m1824.3 1191c-102.51 307.23-206.21 605.15-322.44 919.24 57.856 387.46 441.49 636.21 687.31 687.31-62.057-92.564-112.29-233.73-147.08-342.24 103.98 107.35 204.23 224.46 285.67 316.78 183.82-79.47 215.91-271.01 229.1-458.21-245.78 199.3-552.53-333.84-520.43-783.47" fill="#96e5e6"/><path id="path4539" fill="#cefcf6" d="m1861.1 1284.4c-141.29 422.96-173.23 864.93-118.79 1295.4 136.98 108.22 276.92 183.96 421.44 209.3l-161.3-387.5c-115.3-197-72.2-747.6-22.6-902.3z"/><path id="path4535" fill="#cefcf6" d="m2480.5 362.31c683.4-34.712 748.02 571.85 308.3 936.21 247.15-41.922 495.47-70.891 735.39-192.33 181.99-401.16-134.3-940.26-701.45-919.24-136.35 35.421-235.99 94.789-342.24 175.36z"/><path id="path4537" d="m1824.3 1191c-102.51 307.23-206.21 605.15-322.44 919.24 57.856 387.46 441.49 636.21 687.31 687.31-62.057-92.564-112.29-233.73-147.08-342.24 103.98 107.35 204.23 224.46 285.67 316.78 183.82-79.47 215.91-271.01 229.1-458.21-245.78 199.3-552.53-333.84-520.43-783.47" stroke="#4dc3c1" stroke-miterlimit="9" stroke-width="59" fill="none"/><path id="path4533-3" d="m2071 672c163.2-185.52 539.8-454.97 875.1-527.31 271.3-58.532 513.3-5.58 693.9 131.8 184.4 140.23 274.5 396.22 264 627.51-424.1 286.5-928.6 413.5-1428 408 7.1991-68.012 11.293-186.93 12-294.54-42.828 99.609-88.485 210.53-120 270.54" stroke="#4dc3c1" stroke-miterlimit="9" stroke-width="59" fill="none"/></g><g transform="translate(1113.7 -89.285)"><path id="path4570-4" fill="#f9f2de" d="m2406 1078c-72.694-266.71-217.78-457.01-374-598-102.46-92.47-181.6-67.997-232 66-138.2 367.44-29.28 877.43 306 1152.1"/><path id="path142" fill="#d9c8aa" d="m1918.1 395.22c-10.056 0.19053-20.014 1.6697-29.842 4.5274-52.414 15.241-89.07 64.66-115.85 135.87-81.588 216.92-82.961 479.59-5.5957 718.54 58.243 179.89 173.49 334.6 339.21 443.89-136.28-136.71-227.84-291.45-283.08-462.06-73.372-226.62-71.411-477.27 4.6875-679.6 23.616-62.79 51.73-92.605 77.102-99.982 25.372-7.3776 60.057 2.6613 107.52 45.498 153.16 138.23 294.29 323.32 365.3 583.86l56.922-15.516c-74.4-272.84-223.5-468.35-382.7-612.1-44.7-40.33-90.1-63.7-133.7-62.88z"/><path id="path4593" fill="#d9c8aa" d="m1962 782c-19.6 145.33 79.2 458.7 148 556-97.3-57.3-232.9-412.67-148-556z"/><path id="path4641" fill="#96e5e6" d="m2375.9 806.38c-21.755 195.76-65.657 376.36-229.1 475.18l220.62 16.97 96.166-234.76z"/><path id="path4533-7" fill="#4dc3c1" d="m2362.5 748.51c0.1072 146.44-23.622 239.87-62.227 316.94-38.606 77.073-101.51 136.89-176.56 191.93l-56.621 41.522 69.285 11.377c76.64 12.585 156.98 17.858 235.66 6.9395l15.016-2.084 7.0469-13.422c33.019-62.876 78.29-173.31 120.98-272.61l-54.203-23.305c-39.856 92.696-82.195 194.71-112.09 254.69-43.805 4.7979-88.92 4.3836-134.04 0.3027 55.801-47.424 104.59-101.66 138.29-168.92 44.606-89.052 71.366-201.8 9.4735-343.36z"/></g></svg>