<?xml version="1.0" encoding="UTF-8"?><svg xmlns="http://www.w3.org/2000/svg" xmlns:xlink="http://www.w3.org/1999/xlink" version="1.1" viewBox="0 0 5872.3647 5872.3589" width="5872.3647" height="5872.3589"><defs id="defs4"><linearGradient id="linearGradient5178"><stop id="stop5180" stop-color="#516cd2" offset="0"/><stop id="stop5182" stop-color="#1e1c61" offset="1"/></linearGradient><clipPath id="clipPath4031" clipPathUnits="userSpaceOnUse"><path id="path4033" d="m2982.1 1786.5c23.951-470.54 522.25-335.73 697.39-81.946 152.67 167.48 147.12 636.92-215.91 632.52-210.13-2.5513-449.48-222.65-481.47-550.57z" stroke="#000" stroke-width="1.0254px" fill="#0f0"/></clipPath><clipPath id="clipPath4035" clipPathUnits="userSpaceOnUse"><path id="path4037" d="m3057.9 1854.4c-52.012-475.04 436.64-418.33 628.45-197.17 167.45 142.47 236.29 613.36-99.834 668.89-194.56 32.137-447.39-148.7-528.61-471.71z" stroke="#000" stroke-width="1px" fill="#0f0"/></clipPath><clipPath id="clipPath4039" clipPathUnits="userSpaceOnUse"><path id="path4041" d="m4140.1 1334.5c-147.65 219.42-142.31 529.58-67.26 663.72 47.527 57.776 105.02 66.891 162.25 77.343 76.545-254.31 77.795-503.54-94.988-741.06z" stroke="#000" stroke-width=".96609px" fill="#0f0"/></clipPath><clipPath id="clipPath4043" clipPathUnits="userSpaceOnUse"><path id="path4045" d="m4093 1294.6c-208.31 237.18-191.23 585.08-83.538 730.15 68 62.488 142.63 59.824 224.07 71.148 106.95-274.93 106.89-544.42-140.53-801.3z" stroke="#000" stroke-width="1.1978px" fill="#0f0"/></clipPath><clipPath id="clipPath4047" clipPathUnits="userSpaceOnUse"><path id="path4049" d="m4133.1 1330.3c-125.38 250.74-91.437 589.16-4.9917 726.25 52.231 57.558 109.8 56.79 167.22 62.438 52.005-281.34 30.194-549.85-162.23-788.69z" stroke="#000" stroke-width="1px" fill="#0f0"/></clipPath><clipPath id="clipPath4070" clipPathUnits="userSpaceOnUse"><path id="path4072" d="m2887.8 1803.1c20.692-469.85 624.74-353.02 842.66-107.4 187.75 161.29 189.3 629.36-250.18 638.35-254.39 5.2088-547.97-205.32-592.48-530.96z" stroke="#000" stroke-width="1.1265px" fill="#0f0"/></clipPath><mask id="mask4171" maskUnits="userSpaceOnUse"><path id="path4173" d="m4159.3 1360.6c37.366 58.731 69.158 123.12 94.354 190.75l140.3-53.4-78-202z" stroke="#fff" stroke-width="44" fill="#fff"/></mask><mask id="mask4175" maskUnits="userSpaceOnUse"><path id="path4177" d="m4159.3 1360.6c37.366 58.731 69.158 123.12 94.354 190.75l140.3-53.4-78-202z" stroke="#fff" stroke-width="44" fill="#fff"/></mask><clipPath id="clipPath5054" clipPathUnits="userSpaceOnUse"><path id="path5056" d="m2445.9 3970.4c-84.066-18.152-167.05-37.559-253.24-72.758-14.183-5.7921-13.763-4.7274-17.563-18.35-4.7899-17.172-8.217-33.642-6.5277-53.04 1.8443-21.178 6.9807-18.492 22.822-12.3 81.93 32.023 204.86 62.858 257.31 75.451 14.095 3.3842 14.811 1.5103 17.256 15.407 3.2897 18.698 0.5285 38.736-2.9436 56.617-2.5335 13.048-6.76 11.21-17.118 8.9738z" fill="#00ce00"/></clipPath><clipPath id="clipPath5078" clipPathUnits="userSpaceOnUse"><path id="path5080" d="m2279.5 3425.6c-9.6546-27.298-5.7216-63.886 7.9868-94.628 6.7669-15.175 12.015-14.207 25.494-11.428 66.658 13.743 150.78 32.393 206.29 61.281 12.846 6.6848 16.284 11.22 13.749 24.133-5.6417 28.743-29.198 60.787-59.643 76.647z" fill="#00ce00"/></clipPath><clipPath id="clipPath4031-6" clipPathUnits="userSpaceOnUse"><path id="path4033-0" d="m2982.1 1786.5c23.951-470.54 522.25-335.73 697.39-81.946 152.67 167.48 147.12 636.92-215.91 632.52-210.13-2.5513-449.48-222.65-481.47-550.57z" stroke="#000" stroke-width="1.0254px" fill="#0f0"/></clipPath><clipPath id="clipPath5116" clipPathUnits="userSpaceOnUse"><path id="path5118" d="m3874.9 1997.8a302.64 410.12 0 1 1 -605.28 0 302.64 410.12 0 1 1 605.28 0z" clip-path="url(#clipPath4031-6)" fill-rule="evenodd" transform="matrix(.92396 -.16509 .15756 1.0011 18.089 558.19)" fill="#ff0"/></clipPath><clipPath id="clipPath5120" clipPathUnits="userSpaceOnUse"><path id="path5122" d="m3874.9 1997.8a302.64 410.12 0 1 1 -605.28 0 302.64 410.12 0 1 1 605.28 0z" clip-path="url(#clipPath4031-6)" fill-rule="evenodd" transform="matrix(.92396 -.16509 .15756 1.0011 18.089 558.19)" fill="#ff0"/></clipPath><clipPath id="clipPath4043-9" clipPathUnits="userSpaceOnUse"><path id="path4045-4" d="m4093 1294.6c-208.31 237.18-198.42 572.54-90.726 717.61 68 62.488 149.82 72.366 231.25 83.69 106.95-274.93 106.89-544.42-140.53-801.3z" stroke="#000" stroke-width="1.1978px" fill="#0f0"/></clipPath><clipPath id="clipPath5170" clipPathUnits="userSpaceOnUse"><path id="path5172" d="m4308 1801c0 182.81-84.17 331-188 331-49.885 0-188-148.19-188-331s84.17-331 188-331 188 148.19 188 331z" fill-rule="evenodd" clip-path="url(#clipPath4043-9)" transform="matrix(.69388 -.069194 .080770 .99640 1188.5 323.57)" fill="#0f0"/></clipPath><clipPath id="clipPath5174" clipPathUnits="userSpaceOnUse"><path id="path5176" d="m4308 1801c0 182.81-84.17 331-188 331-76.668 0-188-148.19-188-331s84.17-331 188-331 188 148.19 188 331z" fill-rule="evenodd" clip-path="url(#clipPath4043-9)" transform="matrix(.69388 -.069194 .080770 .99640 1188.5 323.57)" fill="#0f0"/></clipPath><linearGradient id="linearGradient5184" y2="1714.8" xlink:href="#linearGradient5178" gradientUnits="userSpaceOnUse" x2="3531.7" y1="2013.7" x1="3490.5"/><linearGradient id="linearGradient5186" y2="1556.6" xlink:href="#linearGradient5178" gradientUnits="userSpaceOnUse" x2="4118.6" y1="2067.1" x1="4151.5"/></defs><g display="none" transform="translate(623.79 -97.961)"><rect id="rect5203" style="color:#000000" fill-rule="evenodd" display="inline" height="6e3" width="5008.3" stroke="#0f0" y="10.017" x="10.017" stroke-width="1px"/></g><g transform="translate(623.79 -97.961)"><path id="path3938-1" d="m2464 3908.4c32.076 82.255 59.401 166.09 63.534 257.66-75.809 4.5938-121.18-17.267-148.25 84.712-119.86 451.7-162.36 913.1-81.182 1358.5 8.3692 45.914 34.109 117.46 98.83 130.6 150.72 30.604 319.1 36.908 448.27 2.3185 49.079-13.143 41.512-63.999 35.297-102.36-92.214-569.18-110.63-1211.4-24.708-1742z" fill="#7bbeea"/><path id="path3936" d="m3317.2 3788.4c68.602 625.64 181.87 1326.5 357.53 1813.8 19.914 55.247 41.569 133.88-21.178 148.25-133.48 30.57-405.47 26.716-525.92 0-140.34-31.13-108.24-1362-77.652-1933.8z" stroke="#447dc0" stroke-width="54" fill="#7bbeea"/><path id="path3938" d="m2539.1 4165.2c-75.809 4.5938-132.69-16.382-159.76 85.597-119.86 451.7-162.36 913.1-81.182 1358.5 8.3692 45.914 34.109 117.46 98.83 130.6 150.72 30.604 319.1 36.908 448.27 2.3185 49.079-13.143 41.512-63.999 35.297-102.36-92.214-569.18-110.63-1211.4-24.708-1742l-391.79 10.589" stroke="#447dc0" stroke-width="54" fill="none"/><path id="path3439" d="m2544.8 4078.4c8.7382 32.055 22.907 127.89-4.0671 154.86-9.9344-44.399-46.986-121.14-63.98-171.03z" stroke="#447dc0" stroke-width="1px" fill="#447dc0"/></g><g transform="translate(623.79 -97.961)" stroke-width="54"><path id="path3945" d="m2187.9 3031.8c-460.9-437.2-1051.7-583.5-1483.4-352.1-794.14 425.6-445.44 1561.6 16.09 2023.1 157.48 157.5 276.8 390.1-17.13 479.5-211.4 64.4-454.94-56.1-618.3-323.9 70.36 774.5 806.79 848.9 1383.5 605l68.5-1181.6c-367.7-321.5-585.52-728.7-633.62-1232.9 358.72-259.2 711.82-309.1 1198.7 137z" stroke="#a1a4d7" stroke-miterlimit="100" fill="#d2d5f1"/><path id="path3947" d="m2128 3108.8c-445.45-332.91-1043.3-418.25-1292.9-42.811-211.2 317.63 11.899 737.27 196.93 993.21 198.56 274.66 563.68 815.01 206.4 1190.3-187.28 196.72-407.17 302.86-579.77 314.67 401.48 140.75 810.23-44.941 1049.8-237.77 214.89-172.99 202.16-763.93-24.737-1001.3-154.12-161.21-454.55-573.49-504.26-962.22-59.798-467.57 599.17-299.43 880.05-134.26z" stroke="#30309a" stroke-miterlimit="9" fill="#3a39b3"/></g><g transform="translate(623.79 -97.961)" stroke-width="54"><path id="path3960" d="m2315.8 2030.6c-0.1131 547.17 260.72 923.81 600.04 1058.9l-254.1-1041.2z" stroke="#a1a4d7" fill="#d2d5f1"/><path id="path3962" d="m3580 2467.9c403.43 487.9 335.28 867.28-36.33 1204.6l-162-1158.3z" stroke="#30309a" fill="#3a39b3"/></g><g transform="translate(623.79 -97.961)"><path id="path4956" fill="#84c8f3" d="m2817.9 3043.6c-199.64-40.493-399.28-89.626-598.91-70.185 3.3912 359.77-34.56 729.39 219.91 1029.4 65.647 115.13 197.05 98.765 308.81 121.65 219.6-55.874 442.55-81.538 650.38-243.31 347.52-366.86 307.86-688.16 238.63-1006-115.74-235.35-235.72-448.07-388.36-486.62l-846.9-252.67c166.07 294.79 335.29 588.68 416.43 907.73z"/><path id="path3934" d="m3369.1 2490c203.97 170.5 330.21 461.13 320.13 752.81-12.846 371.77-242.74 745.25-767.54 873.81" stroke="#447dc0" stroke-width="54" fill="none"/><path id="path3940" d="m2414.7 2175.6c140.8 245.71 332.08 559.2 395.51 858.57" stroke="#447dc0" stroke-width="54" fill="none"/><path id="path3445" d="m2434.2 4047.2c57.285 44.779 212.8 78.784 322.85 84.881" stroke="#447dc0" stroke-width="34" fill="none"/></g><g transform="translate(623.79 -97.961)"><path id="path6100" fill="#84c8f3" d="m1846.3 3622 711.83-145.2-102.7 531.22-191.24 439.14-471.01-14.166 46.039-187.7 152.28-35.414c-69-175.2-123.3-365.3-145.2-587.8z"/><path id="path5989" fill="#84c8f3" d="m1903.1 3998.4 116 368 464-388-180-300z"/><path id="path4980" fill="#84c8f3" d="m2799.2 3923.2-74.864 280.74h411.75l-28.074-238.63z"/><path id="path4776" d="m2814.7 3025.8c-50.095 72.997-557.55-197.3-828.88 74.032-175.05 175.05-162.72 552.68-89.618 825.49 4.3347 16.177 16.201 49.19 24.85 76.632m51.962 214.64c-50.146 14.597-125.45 3.9801-145.17 77.562-103.54 386.43-298.61 771.23-242.17 1495.4 4.6311 59.428 44.778 112.75 90.815 121.52 181.65 34.598 406.25 42.899 569.11-6.0544 108.75-32.689 107.19-60.328 54.489-176.01-231.08-507.25-111.39-1323 163.47-1719.4" stroke="#447dc0" stroke-width="54" fill="#84c8f3"/><path id="path3954" fill="#447dc0" d="m2284.9 3724.4c-1.5946 71.271 80.187 226.56 158.69 302.72 78.504 76.167 170.21 117.86 316.5 118.54l0.25-54c-135.3-0.6332-226.66-41.146-295.53-107.97-68.874-66.823-133.86-158.93-179.91-259.29z"/><path id="path3956" d="m2744.2 4106.5c-1.4581 6.9723-2.9037 13.954-4.3368 20.945-111.04 541.7-123.5 1138.8-104.7 1627.1 3.5748 92.828 61.234 155.58 128 166.23 177.59 28.322 351.38 30.25 585.56 4.2812 110.58-12.263 118.11-89.758 77.06-179.81-102.99-225.94-233.27-1032.8-299.23-1654.3-0.638-6.0116-1.4251-11.985-2.13-17.944" stroke="#447dc0" stroke-width="54" fill="#84c8f3"/><path id="path3437" d="m1936.1 3963.8c45.886 135.72 102.45 305.66 48.906 335.71-7.0829-77.454-54.286-181.47-97.512-314.86z" stroke="#447dc0" stroke-width="1px" fill="#447dc0"/><path id="path3956-8" fill="#447dc0" d="m2717.7 4101c-1.4655 7.0074-2.9036 14.037-4.3438 21.062l52.906 10.844c1.426-6.9563 2.912-13.896 4.3126-20.844 13.661-67.766 38.347-171.96 45.46-202.94-19.944 6.4475-83.29 119.94-98.335 191.88zm367.34-158.98c1.6844 21.045 7.1685 89.058 12.508 134.2 0.7057 5.967 1.4402 11.958 2.1563 17.969l53.625-6.375c-0.7142-5.9953-1.4523-11.985-2.1563-17.938-5.3256-45.03-7.6637-87.62-66.133-127.86z"/><path id="path4954" d="m2758.1 2937.1c23.988 70.706 42.088 159.36 57.792 245.31 43.722-79.245 23.918-177.57-21.414-300.29z" stroke="#447dc0" stroke-width="1px" fill="#447dc0"/></g><g transform="translate(623.79 -97.961)"><path id="path3386" fill="#ffce00" d="m2029.6 3304c-30.655-19.298-16.722-67.886-3.0132-98.628 6.7669-15.175 12.015-14.207 25.494-11.428 66.658 13.743 150.78 32.393 206.29 61.281 12.846 6.6848 16.284 11.22 13.749 24.133-5.6417 28.743-25.198 77.787-75.643 68.647z"/><path id="path5058" d="m2304.6 3446.7c15.176-46.442 30.886-90.902 45.276-131.59l79.406 23.16c-16.248 37.388-32.946 80.106-48.456 125.83z" clip-path="url(#clipPath5078)" transform="translate(-260.87 -125.6)" fill="#f4ef9c"/><path id="path3388" fill="#bde7f4" d="m2097.5 3280.3c-112.93-18.806-110.89 55.738-70.961 145.89 29.232 65.993 10.842 91.673-31.597 116.27-71.998 41.722-88.303 94.561-43.024 171.01l211.08 57.332c37.461-51.759 6.017-128.52-15.923-170.74-16.625-31.987-100.26-88.463-2.1399-141.16 70.897-38.075 105.52-112.25 43.283-147.34-27.674-15.6-58.494-25.902-90.716-31.268z"/><path id="path3390" fill="#dfd47b" d="m2062.3 3316.3c32.372 4.3271 64.743 8.5901 97.115 27.796 39.586 23.486 8.7858 65.032-21.717 81.942-56.005 31.046-75.513 104.86-37.636 147.7 52.522 59.398 61.195 147.31 45.408 191.26l-181.27-50.335c-35.624-100.29 1.5286-120.71 37.388-145.95 61.641-43.378 72.379-81.384 40.045-156.01-18.64-43.023-45.901-105.29 20.672-96.396z"/><path id="path3392" d="m651.01 869.99c0 2.8065-2.1487 5.0816-4.7993 5.0816s-4.7993-2.2751-4.7993-5.0816 2.1487-5.0816 4.7993-5.0816 4.7993 2.2751 4.7993 5.0816z" fill-rule="evenodd" transform="matrix(5.1925 -.23156 .23156 5.1925 -1502.7 -1035)" fill="#fff"/><path id="path3394" d="m636.33 921.93c0 2.9624-2.2751 5.364-5.0816 5.364s-5.0816-2.4015-5.0816-5.364c0-2.9624 2.2751-5.364 5.0816-5.364s5.0816 2.4015 5.0816 5.364z" fill-rule="evenodd" transform="matrix(5.4388 -.23156 .24254 5.1925 -1670.4 -1050)" fill="#fff"/><path id="path3384" fill="#ffce00" d="m2185 3844.8c-84.066-18.152-167.05-37.559-253.24-72.758-14.183-5.7921-16.893-11.614-20.693-25.236-4.7899-17.172-5.0868-26.756-3.3975-46.154 1.8443-21.178 6.9807-18.492 22.822-12.3 81.93 32.023 204.86 62.858 257.31 75.451 14.095 3.3842 14.811 1.5103 17.256 15.407 3.2897 18.698 0.5285 38.736-2.9436 56.617-2.5335 13.048-6.76 11.21-17.118 8.9738z"/><path id="path4982" d="m2256.4 3937.1c-35.81-44.536-26.353-80.832-23.042-117.45l74.325 21.506c3.2861 40.284 0.7826 86.437 32.317 115.32z" clip-path="url(#clipPath5054)" transform="translate(-260.87 -125.6)" fill="#f4ef9c"/></g><g transform="translate(623.79 -97.961)"><path id="path4105" fill="#c53474" d="m3785.1 2196.4 90 97c4.997 27.907 8.5005 81.182-6 122-97.02-44.829-117.56-120.87-84-219z"/><path id="path4107" fill="#f67033" d="m3776.1 2298.6c37.611 6.7782 72.022 37.785 76 96.828-40.266-9.5093-70.267-36.848-76-96.828z"/><path id="path5082" fill="#84c8f3" d="m3732.9 1037.8c335.29 338.51 358.99 653.06 305.47 961.67 85.711-10.492 75.051 56.114 90.51 101.82l-79.196 192.33c-110.76 21.404-214.6 25.498-265.87-101.82-10.066 94.225-26.77 189.66 124.45 254.56-288.28 182.35-590.71 152.53-893.78 113.14l-237.59-294.16-328.1-39.598-164.05-412.95c-5.2619-455.64 296.66-601.46 543.06-803.27 293.53-104.88 596.5-77.714 905.1 28.284z"/><path id="path3964" fill="#447dc0" d="m3870.2 1933.6c11.161 29.095 44.086 62.185 88.088 75.469 32.502 9.8122 66.418 14.991 97.778 13.59 22.201-0.9916 27.401 4.4313 33.812 15.687 6.4116 11.256 9.7755 31.581 9.5626 52.031-0.2909 27.935-11.784 67.33-31.219 101.59-19.435 34.264-46.714 63.151-73.125 75.375-40.592 18.788-73.678 20.92-103.58 6.8953-43.488-20.398-75.32-49.315-112.16-121.81-21.631 36.143-28.843 86.199-26.323 123.5 2.6584 39.357 17.206 83.646 40.192 112.66 12.574 15.874 30.184 28.817 58.252 41.435-82.328 66.257-238.47 107.97-363.43 125.82-154.17 22.026-323.86 25.508-491-9.6382 28.022 58.192 334.96 75.637 496.38 56.62 149.39-17.6 294.57-60.121 423.28-133.05 43.972-24.915 48.338-43.309 7.1562-54.344-106.3-28.482-141.26-96.727-139.09-184.03 24.909 37.424 51.837 65.609 82.75 83.312 45.264 25.922 98.424 25.612 150.25 1.625 41.636-19.271 74.028-56.504 97.406-97.719s37.823-86.654 38.25-127.69c0.2642-25.382-2.1336-53.871-16.625-79.312-14.492-25.441-45.308-44.597-83.156-42.906-52.994 2.3671-121.08-2.6979-183.46-35.122z"/><path id="path4109" d="m3889.1 2086.4c25.569 58.948 59.586 44.888 93 28-14.129 26.343-33.476 47.544-59 44-21.605-2.9999-37.4-37.633-34-72z" stroke="#447dc0" stroke-width="1px" fill="#447dc0"/></g><g transform="translate(623.79 -97.961)"><path id="path4004" d="m4129.5 1347.2c-148.43 273.1-81.868 523.96-16.971 774.99l181.02 19.799c18.506-122.69 108.31-505.9-164.05-794.79z" clip-path="url(#clipPath4047)" transform="translate(-260.87 -125.6)" fill="#fff"/><path id="path4002" d="m3436.5 1471.7c-315.75-49.594-499.26 240.38-407.29 528.92 118.56 268.12 294.77 334.45 472.35 395.98 370.34-17.463 372.58-246.11 379.01-472.35-118.83-365.6-298.07-377.27-444.06-452.55z" clip-path="url(#clipPath4035)" transform="translate(-260.87 -125.6)" fill="#fff"/><path id="path3974" d="m3874.9 1997.8c0 226.5-135.5 410.12-302.64 410.12s-302.64-183.62-302.64-410.12 135.5-410.12 302.64-410.12 302.64 183.62 302.64 410.12z" clip-path="url(#clipPath4031)" fill-rule="evenodd" transform="matrix(.92396 -.16509 .15756 1.0011 -242.78 432.59)" fill="url(#linearGradient5184)"/><path id="path3976" d="m4308 1801c0 182.81-84.17 331-188 331s-188-148.19-188-331 84.17-331 188-331 188 148.19 188 331z" clip-path="url(#clipPath4043)" fill-rule="evenodd" transform="matrix(.69388 -.069194 .080770 .99640 927.59 197.96)" fill="url(#linearGradient5186)"/><path id="path4074" d="m3336.1 2064.2 213.55-56.569 19.799 121.62-147.08 138.59z" clip-path="url(#clipPath5120)" transform="translate(-260.87 -125.6)" stroke="#abb0ff" stroke-width="1px" fill="#abb0ff"/><path id="path4076" d="m3409.7 2256.6 145.66-138.59 18.385 28.284-106.07 164.05z" clip-path="url(#clipPath5116)" transform="translate(-260.87 -125.6)" stroke="#d8e1ff" stroke-width="1px" fill="#d8e1ff"/><path id="path3998" d="m3870 2019c0 179.49-97.602 325-218 325s-218-145.51-218-325 97.602-325 218-325 218 145.51 218 325z" clip-path="url(#clipPath4070)" fill-rule="evenodd" transform="matrix(.76777 -.10572 .14451 1.0064 316.29 219.46)"/><path id="path4080" d="m3582.2 2089.7c0 26.556-12.98 48.083-28.991 48.083-16.012 0-28.991-21.528-28.991-48.083 0-26.556 12.98-48.083 28.991-48.083 16.012 0 28.991 21.528 28.991 48.083z" fill-rule="evenodd" transform="matrix(1.024 .26043 -.31412 .91627 320.6 -876.65)" fill="#fff"/><path id="path4078" d="m3572.3 1864.8c0 85.915-34.191 155.56-76.368 155.56s-76.368-69.648-76.368-155.56c0-85.915 34.191-155.56 76.368-155.56s76.368 69.648 76.368 155.56z" fill-rule="evenodd" transform="matrix(.99265 .22965 -.21587 1.0543 178.35 -1040.3)" fill="#fff"/><path id="path5124" d="m4035.5 1915 93.848-40.726 5.3122 93.848-65.517 37.185z" clip-path="url(#clipPath5174)" transform="translate(-260.87 -125.6)" stroke="#abb0ff" stroke-width="1px" fill="#abb0ff"/><path id="path5126" d="m4069.1 1999.9 69.058-37.185 15.936 47.809-60.204 38.956z" clip-path="url(#clipPath5170)" transform="translate(-260.87 -125.6)" stroke="#d8e1ff" stroke-width="1px" fill="#d8e1ff"/><path id="path4000" d="m4284 1837c0 143.04-48.801 259-109 259s-109-115.96-109-259 48.801-259 109-259 109 115.96 109 259z" clip-path="url(#clipPath4039)" fill-rule="evenodd" transform="matrix(.98657 -.097985 .092458 1.0768 -335.67 173.34)"/><path id="path4082" d="m4156 1725c0 73.454-19.028 133-42.5 133s-42.5-59.546-42.5-133 19.028-133 42.5-133 42.5 59.546 42.5 133z" fill-rule="evenodd" transform="matrix(1.2092 .10124 -.12924 1.0257 -891.33 -583.35)" fill="#fff"/><path id="path4084" d="m4165 1944c0 19.882-8.5066 36-19 36s-19-16.118-19-36 8.5066-36 19-36 19 16.118 19 36z" fill-rule="evenodd" transform="matrix(1.1152 .16265 -.18383 .98668 -377.62 -768.06)" fill="#fff"/></g><g transform="translate(623.79 -97.961)" stroke="#000" stroke-width="1px" display="none" fill="#0f0"><path id="path3967" d="m2794 1728.8c-52.012-475.04 482.64-410.33 631.45-197.17 167.45 142.47 236.29 613.36-99.834 668.89-194.56 32.137-450.39-148.7-531.61-471.71z"/><path id="path3969" d="m3872.2 1204.7c-125.38 250.74-91.437 584.21-4.9917 721.3 52.231 57.558 109.8 61.739 167.22 67.388 52.005-281.34 30.194-549.85-162.23-788.69z"/></g><g transform="translate(623.79 -97.961)"><path id="path4087" d="m2781.6 1724.4c-11.807-196.32 76.069-325.31 229.54-350 220.31-35.443 430.98 125.56 494 304" stroke="#000" stroke-width="34" fill="none"/><path id="path4091" d="m2783.6 1698.4c-54.506 2.2408-117.41-13.414-158.46 9 32.186 26.447 119.23 24.202 173.64 27.464-0.7095-13.988-1.8477-30.976-2.1716-46.464z" stroke="#000" stroke-width="1px"/><path id="path4093" d="m2797.1 1597.4c-64.838-17.969-166.11-39.717-203-73 60.164-3.4634 142.05 23.607 210.29 42.95z" stroke="#000" stroke-width="1px"/><path id="path4095" d="m2835.1 1470.4c-38.559-31.52-114.26-90.576-122-120 26.148 0.2846 98.403 57.274 142.88 96.536z" stroke="#000" stroke-width="1px"/><path id="path4129" d="m3789.1 1096.4c211.67 215.4 325.31 592.91 243 902" stroke="#447dc0" stroke-width="44" fill="none"/><path id="path4149" d="m4153.5 1411.9c53.757-37.215 123.07-81.803 174.71-101.95-38.522 50.94-98.184 91.128-157.24 129z" mask="url(#mask4175)" transform="translate(-260.87 -125.6)" stroke="#000" stroke-width="1px"/><path id="path4151" d="m4197 1494c53.667-12.328 107.33-37.272 161-36-33.381 37.003-97.959 50.244-148 69z" mask="url(#mask4171)" transform="translate(-260.87 -125.6)" stroke="#000" stroke-width="1px"/><path id="path4089" d="m3934.2 1100.4c-36.749 48.803-81.218 102-98.161 141.81-30.321 71.244-50.318 154.75-58.976 241.47-18.472 185.03 31.24 405.79 96.388 453.35-63.31-148.34-80.642-299.74-65.544-450.98 15.098-151.23 72.305-295.55 145.16-363.53z"/><path id="path3964-0" fill="#447dc0" d="m4136.8 2011.6c-14.492-25.441-45.308-44.597-83.156-42.906-52.994 2.3671-122.14-2.6979-184.52-35.122 11.161 29.095 45.146 62.185 89.148 75.469 32.502 9.8122 66.418 14.991 97.778 13.59 22.201-0.9916 27.401 4.4313 33.812 15.687z"/></g><g transform="translate(623.79 -97.961)"><path id="path5198" d="m2327.9 778.27c169.12-181.66 398.36-229.41 584.34-283.31 253.1-52.72 448.1-153.86 587.88-301.02l-74.37 279.77c643.7-65.87 927.7 234.68 1073.1 676.39-297.6-193.05-596.1-368.23-903-375.37-423.62 11.975-685.62 185.58-903.07 403.72z" fill="#d2d5f1"/><path id="path4186" d="m2321.5 780.4c126.03-126.05 425.06-256.18 690.14-316.78 205.65-47.018 411.53-137.56 480.83-343.65 20.215 118.66 4.3724 248.11-65.054 354.97 677.1-57.64 1006.6 288.93 1072 698.62" stroke="#a1a4d7" stroke-miterlimit="7" stroke-width="44" fill="none"/><path id="path5190" d="m3196.7 407.42c97.74-32.703 234.25-126.07 281.24-198.89-6.5255 87.336-22.082 188.71-68.11 268.28 54.302-6.9983 108.6-7.1159 162.91-7.8923" stroke="#a1a4d7" stroke-width="41" fill="none"/><path id="path5188" d="m4100 590.57c193.05 125.08 317.96 308.73 376.34 537.56" stroke="#a1a4d7" stroke-width="41" fill="none"/></g><g transform="translate(623.79 -97.961)" stroke="#447dc0"><path id="path3972-5" d="m3540.5 846.02c101.21-130.97 201.13-302.65 294.45-372.4 140.71-105.16 131.4-5.3014 121.87 73.567-7.5517 62.504-61.396 288.11-98.297 409.01z" stroke-width="54" fill="#84c8f3"/><path id="path4622" d="m3776.4 531.45c1.6327 105.83 65.25 164.04 143.43 175.3" stroke-width="21" fill="none"/></g><g transform="translate(623.79 -97.961)"><path id="path5194" d="m2667.9 1199.7c204.38-444.88 712.21-493.98 1012.9-471.01 299.84 44.858 571.35 184.15 814.53 417.89l46.039 290.4c-379.5-216.76-768.01-376.47-1175.8-414.35 106.62 88.682 214.2 176.26 265.61 329.35-287.83-93.964-661.69-172.42-928.33-127.47z" stroke="#000" stroke-width="1px" fill="#3a39b3"/><path id="path4180" d="m2355.1 1730.4c48.254 354.82 279.44 417.78 464 526-381.76 182.3-908.2-113.58-660-994z" stroke="#30309a" stroke-width="34" fill="#3a39b3"/><path id="path4184" d="m2697.7 1218.8c322.61-43.888 624.94 10.457 940.01 150.05-60.582-184.43-212.72-294.68-283.16-345.7 232.64 5.5746 846.58 184.25 1190.1 423.58-6.0167-95.224-19.118-196.59-46.171-280.82" stroke="#30309a" stroke-width="44" fill="none"/><path id="path5196" d="m4429.1 1115.2c37.447 32.517 61.032 72.554 66.361 121.77l40.067-17.529c-5.4268-22.541-11.153-40.618-16.738-60.632-15.654-19.216-39.689-40.078-60.892-60.82z" stroke="#30309a" stroke-width="1px" fill="#30309a"/><path id="path5983" d="m4463.4 1123.5c32.491 96.705 51.911 223.32 51.351 299.34" stroke="#30309a" stroke-width="34" fill="none"/><path id="path4182" d="m2676.3 1212.9c98.648-357.95 575.56-493.9 888.89-487.44 352.33 7.2752 662.95 149.05 942.25 446.32" stroke="#30309a" stroke-width="34" fill="none"/></g><g transform="translate(623.79 -97.961)"><path id="path5200" fill="#84c8f3" d="m2458.7 1837.7c56.744-198.82 125.98-395.37 255.43-580.97-52.151-243.04-195.24-362.33-320.53-505.84-64.126-42.067-129.59-92.479-167.78 27.546-101.54 186.7-107.16 368.35-82.638 548.41 43.379 266.32 197.01 473.37 315.53 510.85z"/><path id="path4189" d="m2473.1 1550.4c-79.845-119.27-158.99-312.92-164-524-33.173 169.18 43.479 454.76 164 524z" stroke="#447dc0" stroke-width="1px" fill="#447dc0"/><path id="path4191" fill="#447dc0" d="m2306.2 685.4c-4.6527-0.1288-9.3404 0.14117-14.094 0.8125-38.027 5.3706-65.796 37.151-90.875 87.219-100.67 200.98-116.29 410.83-72.531 588.81 45.442 184.84 160.94 464.12 339.42 482.69-182.52-120.43-256.21-327.35-291.45-492.72-36.282-170.24-26.776-366.89 68.375-556.84 22.301-44.521 40.034-58.697 53.906-60.656 13.873-1.9593 37.855 8.0741 72.656 36.625 171.98 141.09 317.3 348.22 334.83 503.26 75.536-104.96-126.83-395.97-303.77-541.14-33.443-27.437-63.9-47.161-96.469-48.062z"/></g></svg>