<?xml version="1.0" encoding="UTF-8"?><svg xmlns="http://www.w3.org/2000/svg" viewBox="0 0 5823.7 5823.7" width="5823.7" height="5823.7" version="1.1" xmlns:xlink="http://www.w3.org/1999/xlink"><defs id="defs4"><linearGradient id="linearGradient3982"><stop id="stop3984" stop-color="#c6006f" offset="0"/><stop id="stop3986" stop-color="#570030" offset="1"/></linearGradient><clipPath id="clipPath3870" clipPathUnits="userSpaceOnUse"><path id="path3873" opacity=".5" d="m3824 2105.2c39.429 135.47 121.6 246.42 277.89 311.93 147.58-107.66 294.06-152.97 439.99-166.63 11.494-85.24-12.883-155.4-34.272-203.27z" stroke="#f00" stroke-width=".96233px" fill="#0f0"/></clipPath><clipPath id="clipPath3875" clipPathUnits="userSpaceOnUse"><path id="path3878" opacity=".5" d="m3817.9 2032.4c30.203 147.21 105.86 272.87 260.56 358.11 158.66-98.681 311.57-131.58 461.56-131.1 18.059-88.912-1.6231-165.56-19.909-218.34z" stroke="#f00" stroke-width="1.0031px" fill="#0f0"/></clipPath><clipPath id="clipPath3880" clipPathUnits="userSpaceOnUse"><path id="path3882" opacity=".5" d="m3790 1924c-13.309 146.27 23.948 285.04 150 408 183.31-48.144 341.93-36.296 488 6 43.424-78.216 46.496-155.48 44-210z" stroke="#f00" stroke-width="1px" fill="#0f0"/></clipPath><clipPath id="clipPath3884" clipPathUnits="userSpaceOnUse"><path id="path3886" opacity=".5" d="m4778.9 2101.9c10.718 55.754 26.423 109.19 47.428 160.16 32.473 48.801 73.892 58.098 116.63 61.571 34.271-96.684 37.132-263.78 16.071-350.47z" stroke="#f00" stroke-width=".96382px" fill="#0f0"/></clipPath><clipPath id="clipPath3888" clipPathUnits="userSpaceOnUse"><path id="path3890" opacity=".5" d="m4768.6 2156.1c9.04 49.551 22.949 97.207 42.032 142.85 30.205 44.077 69.972 53.551 111.15 57.924 35.352-84.312 42.03-231.74 23.731-308.93z" stroke="#f00" stroke-width=".89018px" fill="#0f0"/></clipPath><clipPath id="clipPath3892" clipPathUnits="userSpaceOnUse"><path id="path3894" opacity=".5" d="m4758 2099.7c6.4005 57.314 18.286 112.8 36 166.34 30.047 52.526 73.067 66.132 118 74 44.855-93.991 62.705-262.18 48.1-351.76z" stroke="#f00" stroke-width="1px" fill="#0f0"/></clipPath><clipPath id="clipPath3909" clipPathUnits="userSpaceOnUse"><path id="path3911" opacity=".5" d="m3800.8 2011.6c22.052 141.64 88.041 264.36 230.57 351.37 154.41-88.422 300.47-114.26 442.3-108.33 21.011-84.222 5.7883-158.11-9.1695-209.17z" stroke="#f00" stroke-width=".95399px" fill="#0f0"/></clipPath><clipPath id="clipPath3913" clipPathUnits="userSpaceOnUse"><path id="path3915" opacity=".5" d="m4758.7 2108.1c18.151 54.74 41.288 106.55 69.724 155.26 40.29 45.15 85.196 49.536 130.78 47.912 24.382-101.25 6.9516-269.49-25.916-354.08z" stroke="#f00" stroke-width="1px" fill="#0f0"/></clipPath><clipPath id="clipPath3966" clipPathUnits="userSpaceOnUse"><path id="path3968" style="color:#000000" d="m4470 1996a222 270 0 1 1 -444 0 222 270 0 1 1 444 0z" transform="matrix(.97480 .27895 -.29040 .93636 658.58 -1044.1)" fill="#00f"/></clipPath><clipPath id="clipPath3970" clipPathUnits="userSpaceOnUse"><path id="path3972" style="color:#000000" d="m4470 1996a222 270 0 1 1 -444 0 222 270 0 1 1 444 0z" transform="matrix(.97480 .27895 -.29040 .93636 658.58 -1044.1)" fill="#00f"/></clipPath><clipPath id="clipPath3974" clipPathUnits="userSpaceOnUse"><path id="path3976" style="color:#000000" d="m4939.8 2088.5a84.146 178.9 0 1 1 -168.29 0 84.146 178.9 0 1 1 168.29 0z" transform="matrix(1.0988 .069605 -.071295 1.144 -328.02 -698.78)" fill="#00f"/></clipPath><clipPath id="clipPath3978" clipPathUnits="userSpaceOnUse"><path id="path3980" style="color:#000000" d="m4939.8 2088.5a84.146 178.9 0 1 1 -168.29 0 84.146 178.9 0 1 1 168.29 0z" transform="matrix(1.0988 .069605 -.071295 1.144 -328.02 -698.78)" fill="#00f"/></clipPath><linearGradient id="linearGradient3988" y2="1941.6" xlink:href="#linearGradient3982" gradientUnits="userSpaceOnUse" x2="4227.6" y1="2197" x1="4288.5"/><linearGradient id="linearGradient3990" y2="2056.2" xlink:href="#linearGradient3982" gradientUnits="userSpaceOnUse" x2="4855" y1="2229.4" x1="4856.3"/><mask id="mask4057" maskUnits="userSpaceOnUse"><path id="path4059" d="m4914 2344c85.24-191.71 83.863-409.72 82-620l214 54 6 412z" stroke="#fff" stroke-width="31" fill="#fff"/></mask><mask id="mask4061" maskUnits="userSpaceOnUse"><path id="path4063" d="m4914 2344c85.24-191.71 83.863-409.72 82-620l214 54 6 412z" stroke="#fff" stroke-width="31" fill="#fff"/></mask></defs><g display="none" transform="translate(70.94 701.5)"><rect id="rect4427" style="color:#000000" display="inline" height="4536.8" width="6120.7" stroke="#0f0" y="-68.915" x="-45.255"/></g><g opacity=".2" display="none" transform="translate(70.94 701.5)"><path id="path3767" d="m6033.4 3913.1c0 258.83-1120.4 468.66-2502.6 468.66-1382.1 0-2502.6-209.83-2502.6-468.66s1120.4-468.66 2502.6-468.66c1382.1 0 2502.6 209.83 2502.6 468.66z" fill-rule="evenodd" transform="matrix(1.0218 .0099488 -.0093965 .84477 -167.5 645.11)"/></g><g transform="translate(70.94 701.5)"><path id="path3781" fill="#262626" d="m3870.5 2485.6c34.098 313.64-2.2604 609.67-70.783 897.66 229.4-178.66 360.21-425.31 341.05-775.39 50.323 216.32 105.66 429.75 115.83 669.22 47.844-259.64 101.58-517.81 183.39-768.96z"/><path id="path3779" fill="#020202" d="m3957.4 2488.9c6.4222 223.23 57.629 448.94-106.17 662.79 43.917-234.7 23.688-451.08 9.6523-669.22z"/><path id="path3777" d="m3860.9 2482.4c42.128 279.21 15.363 627.54-74 888 267.74-138.67 344.35-427.38 344.26-797.92 72.61 228.14 91.417 451.88 122.26 714.26 40.566-272.43 103.07-521.05 183.39-785.05" stroke="#262626" stroke-miterlimit="9" stroke-width="49" fill="none"/></g><g transform="translate(70.94 701.5)" stroke="#b19a41" stroke-width="49" fill="#c5b35c"><path id="path3772" d="m3069.4 2836.3c157.6 330.86 396.65 546.94 606.76 801.52 58.867 71.326 35.291 120.13-78.712 140.23-127.99 22.568-268.26 17.064-392.91 2.2751-99.404-11.793-177.27-51.99-239.03-150.28-148.77-236.75-264.31-471.66-381.93-703.67z"/><path id="path3774" d="m3985.9 2915.9c846.4 340.17 1446 670.3 1710.8 1033.7 63.705 87.404 24.339 115.18-59.151 122.85-188.52 17.331-376.29 26.5-564.21 18.2-109.2-4.8227-152.38-62.555-193.77-121.52-169.03-240.78-663.74-494.9-1103-733.9"/></g><g transform="translate(70.94 701.5)"><path id="path3784" d="m3408 1365.1c0-22.75 286.66-1055.6 286.66-1055.6 281.82-175.5 187.19-15.356 160.76 47.518l248 105.17c293.29-309.3 466.97-227.14 235.34 158.74l-562.1 835.19z" stroke="#b19a41" stroke-width="49" fill="#c5b35c"/></g><g transform="translate(70.94 701.5)"><path id="path4429" d="m3618 3060c-46-22.374-92-63.651-138-118l328-234 156 184z" stroke="#3d462a" stroke-width="49" fill="#6a7647"/><path id="path3789" d="m3819 3301.6c79.536-144.12 168.94-283.31 265.99-418.68-77.779-63.486-155.67-126.97-246.28-190.46-124.75 89.873-201.65 220.97-264.34 369.42 69.575 98.923 153.19 184.55 244.64 239.72z" stroke="#3d462a" stroke-width="49" fill="#6a7647"/><path id="path3787" d="m3812.7 3119.4c0 36.548-21.312 66.176-47.601 66.176s-47.601-29.628-47.601-66.176 21.312-66.176 47.601-66.176 47.601 29.628 47.601 66.176z" fill-rule="evenodd" transform="matrix(.58819 -.80043 .86124 .65587 -1136.7 4081.4)" fill="#eef1d0"/><path id="path3791" fill="#3d462a" d="m3866.1 2722.4c4.7791 100.58-6.2769 202.69-52.245 273.99 66.421-41.94 80.506-166.55 77.786-257.74z"/><path id="path3793" fill="#3d462a" d="m3946.2 2786.2c6.0951 30.734 5.4696 63.708 2.322 97.523 15.82-20.921 23.229-46.048 26.703-73.142z"/><path id="path3795" d="m3102.2 3031.1c146.35 8.5435 337.47-8.3847 469.05-67.279 62.146 29.732 124.09 62.211 189.24 49.923-24.243-76.205-34.732-152.6-45.734-229.88-177.56 110.87-387.13 203.51-612.56 247.23z" stroke="#3d462a" stroke-miterlimit="9" stroke-width="49" fill="#6a7647"/></g><g transform="translate(70.94 701.5)"><path id="path3810" fill="#515151" d="m2170.6 1812.4c-272.38-87.617-496.01-8.665-663.32 262.7-127.22 265.26-171.98 543.69-203.59 824.23-36.267-94.135-37.749-151.5-47.746-245.64-79.898 368.99-97.368 725.48-431.69 1020.6 66.182-194.84 101.25-389.67 114.93-584.51 78.591-503.51 63.19-1007 600.93-1510.5l469.58-26.27z"/><path id="path3808" fill="#737373" d="m2039.2 1684.3c-298.66-69.619-553.51 16.141-729 305.39s-265 746.37-371.07 1109.9l-190.46 259.42c182.97-618.89 48.133-1264.3 604.22-1852.1 177.26-124.03 389.65-72.391 591.08-75.527z"/><path id="path3806" fill="#989898" d="m1993.3 1553c-309.8-128.21-563.75-59.122-751.98 233.15s-221.14 651.88-302.11 975.28c-51.175 204.39-80.289 408.94-187.18 581.23l-226.6 229.9c157.5-705.2 280.79-1426.1 545.1-2081.9 174.7-246.54 433.03-249.81 702.73-220.01z"/><path id="path3804" fill="#4c4c4c" d="m1791.2 1342.9c-265.71-37.179-515.22-9.4469-711.09 303.22-195.87 312.66-241.25 933.59-304.58 1337.5-28.028 178.75-99.283 382.79-236.61 573.69l-269.55 155.4c122.94-114.2 221.51-237.1 222.91-394.7 120.43-644.8 170.99-1301.3 487.62-1913.4 172.32-192.2 419.72-240.4 696.62-232.2z"/><path id="path3802" fill="#262626" d="m1655 1211.5c-455.44 15.045-649.31 201.41-790.83 513.86-141.49 312.4-179.25 951.3-276.37 1456.3-22.89 119-68.9 251.3-177.33 331.7-150.85 60.9-301.59 129.8-453.16 137.9 358.92-144.3 530.97-582.7 561.53-965.4 62.49-483.5 16.5-979.3 488.86-1415.9 149.18-116.85 329.2-177.17 552.63-157.89z"/><path id="path3800" fill="#020202" d="m1638.6 1132.6c-372.75-0.5595-659.96 161.22-827.51 469.58s-219.09 700.36-285.69 1090.2c-91.865 144.31-185.72 286.14-311.96 387.49 127.88-245.27 175.06-525.13 246.28-794.67 94.676-301.93 126.6-599.82 394.05-912.89-119.3 24.177-237.43 57.714-348.08 151.05 139.77-335.91 427.25-487.2 847.21-472.86z"/><path id="path4420" fill="#262626" d="m1945.4 1759c-69.47 1.2648-133.16 17.386-190.69 45.75-115.05 56.728-204.65 160.41-273.38 285.75-110.52 201.55-168.37 460.38-187.03 685.12-8.3977-50.612-14.791-107.85-18.281-167.5-7.7957-133.21-7.4025-282.37-2.3347-395.27-32.287 112.3-54.552 261.75-46.572 398.12 7.9806 136.37 27.056 260.43 62.813 332.59l46.3 93.5 0.1562-104.25c0.3667-244.71 56.82-579.54 187.94-818.66 65.558-119.56 149.27-214.69 252.06-265.38 102.79-50.682 225.46-58.901 376.72-0.5313l17.625-45.719c-80.608-31.106-155.84-44.702-225.31-43.438z"/><path id="path3798" d="m2373.1 1720.4c-330.9-231.4-561.3-605.6-1007.8-664.1-446.46-58.45-750.59 187.4-868.96 488.8 90.27-90.8 258.72-171.5 387.14-171.6-219.46 186.1-314.44 496.6-381.14 742.2-87.817 323.45-118.9 677.23-295.85 962.66 125.55-77.473 230.56-264.14 318.28-402.43-28.707 453.36-244.87 798.9-571.21 967.07 225.59-3.2492 323.5-72.903 478.33-143.96-28.529 82.987-83.828 149.08-160.22 199.69 308.96-86.067 517.18-377.78 671.05-608.36 6.7993 191.4-58.308 431.06-137 592.11 323.48-261.5 406.78-682.1 447.18-1058.2" stroke="#262626" stroke-miterlimit="9" stroke-width="49" fill="none"/></g><g transform="translate(70.94 701.5)"><path id="path3839" fill="#d5c265" d="m3878.9 2602.7-437.76-738.29c-169.73 95.335-337.23 198.03-566.56 97.523-59.46-51.865-112.13-117.3-162.9-186.55-88.353-55.575-181.16-84.409-278.27-87.444l-482.97 190.4c-212.84 171.77-239.69 417.94-236.33 676.19-73.924 28.903-138.36 69.605-180.61 137.92l288.97 239.72 68.959-118.22c143.82-14.313 195.31-121.89 259.42-216.73 69.117 98.801 138.06 198.25 220.01 249.57l706.01 187.18c264.3-90.72 613.62-222.5 802.03-431.26z"/><path id="path3813" d="m3456.8 1856.5c-98.172 77.21-235.6 133.58-363.92 147.25-111.19 11.842-230.9-22.597-301.86-132.52-78.115-121.01-201.83-179.28-380.8-184.63" stroke="#b19a41" stroke-width="49" fill="none"/><path id="path3821" d="m1705.9 2569.3c-44.878 5.0495-100.93 44.169-144.49 93.588-271.73 308.28-528.53 623.8-651.22 998.73-38.244 116.88-3.5074 162.12 76.625 183.44 136.63 36.338 311.62 19.579 464.4 11.61 137.5-7.1722 122.01-86.44 123.07-174.15 3.2457-269.56 112.44-591.7 320.04-871.99" stroke="#b19a41" stroke-width="49" fill="#d5c265"/><path id="path3823" fill="#b19a41" d="m2142.7 2578.6c-45.448 80.618-100.03 141.97-159.53 176.22-59.502 34.246-100.26 49.483-202.3 38.65 73.639 54.843 156.7 44.13 226.74 3.8187 70.041-40.312 129.35-108.72 177.78-194.62z"/><path id="path3829" fill="#b19a41" d="m2171.8 2666.3c65.566 105.22 150.77 176.59 214.81 213.25l24.4-42.6c-56.327-32.242-136.88-99.269-197.56-196.66-60.683-97.388-87.501-205.02-107.59-384.31-46.355 180.29 0.4255 305.02 65.992 410.24z"/><path id="path3835" d="m2438.1 3234.4c183.34 275.41 362.66 545.28 417.96 926.47 15.207 104.84-2.0555 134.09-99.845 146.28-141.2 17.613-331.72 19.394-480.65 6.966-105.03-8.7642-161.89-76.31-167.18-185.76-10.748-222.27-54.85-482.05-127.71-654.8-71.805-170.25 44.469-311.12 130.03-399.38" stroke="#b19a41" stroke-width="49" fill="#d5c265"/><path id="path3837" d="m3897.3 2580.8c-215.07 252.42-568.48 371.11-846.26 451.52" stroke="#b19a41" stroke-width="49" fill="none"/><path id="path3815" fill="#b19a41" d="m1967.2 1845.7c-96.749 41.394-162.65 131.58-205.31 235.5-42.665 103.92-62.698 222.81-65.656 328.16-2.4778 88.242 4.4509 166.15-32.284 240.28 73.272-57.219 78.728-148.98 81.252-238.91 2.811-100.11 22.306-214.25 62-310.94 39.694-96.686 98.966-174.7 179.28-209.06z"/></g><g transform="translate(70.94 701.5)"><g id="g4296" transform="matrix(-.16401 -.31373 -.28861 .32569 2889.1 2045.2)"><path id="path892" style="color:#000000" d="m584.29 524.29c0 156.22-87.304 282.86-195 282.86s-195-126.64-195-282.86 87.304-282.86 195-282.86 195 126.64 195 282.86z" transform="matrix(1.1356 .10469 -.15395 1.0053 1627.2 1506.3)" fill="#6a7647"/><path id="path894" d="m2191.4 1918.6-175.78 59.788-106.19-157.16 14.755 228.7-140.82 173.54 181.18-62.702 113.02 159.56-14.41-228.94z" fill="#98ac68"/><path id="path874" d="m2107.8 1649.1-144.29 335.71-291.43-10 252.86 130-50 375.71 150-337.14 260 14.286-222.86-140z" fill="#ece350"/><path id="path880" d="m2062.1 2017.6-72.075 52.002 117.79-420.57z" fill-opacity=".50196" fill="#fff"/><path id="path882" d="m2025 2143.3-34.932-73.713-115.07 410.86z" fill-opacity=".50196" fill="#fff"/><path id="path884" d="m1990 2069.6-26.496-84.859 144.29-335.71z" fill-opacity=".12549"/><path id="path886" d="m1990 2069.6-65.068 35.141-50 375.71z" fill-opacity=".12549"/><path id="path888" d="m1990 2069.6 34.932 73.713 260 14.286z" fill-opacity=".25098"/><path id="path890" d="m1990 2069.6-65.068 35.141-252.86-130z" fill-opacity=".25098"/><path id="path822" d="m1696.2 1959.9c12.906 12.768 12.049 38.721-14.112 43.449-26.162 4.7281-30.172-25.772-57.143-38.485 30.354 4.9995 58.35-17.732 71.255-4.9641z" fill="#f2fa8d"/><path id="path822-5" d="m2125.8 1670.3c-13.564 12.067-39.409 9.5599-42.462-16.85-3.0533-26.409 27.64-28.47 42.044-54.577-6.9215 29.974 13.982 59.36 0.4184 71.427z" fill="#f2fa8d"/><path id="path822-3" d="m2272.6 2176.6c-9.5118-15.463-2.5287-40.473 24.008-38.866s23.204 32.189 46.394 50.932c-28.304-12.051-60.89 3.398-70.402-12.065z" fill="#f2fa8d"/><path id="path822-2" d="m1859.7 2465.8c14.016-11.539 39.746-8.0457 41.787 18.461s-28.709 27.392-44.101 52.929c8.0628-29.687-11.702-59.851 2.3138-71.39z" fill="#f2fa8d"/></g></g><g transform="translate(70.94 701.5)"><path id="path3874" fill="#98ac68" d="m2867.6 1883c-246.77 23.454-448.42 95.644-541.02 285.6-163.13 266.2-78.675 455.37 32.508 636.22l-85.913 76.625 383.13 174.15 23.22-37.152c149.73 67.142 292.77 33.936 436.53 11.61l44.118-162.54c-254.3-267.2-314.46-572.77-37.152-945.05-85.139 0.1475-170.28 2.4623-255.42-39.474z"/><path id="path4371" style="color:#000000" d="m2608 2203c0 91.127-58.651 165-131 165s-131-73.873-131-165 58.651-165 131-165 131 73.873 131 165z" transform="matrix(.95880 .54960 -.50990 .98677 1211.4 -1342.2)" stroke="#7d8b50" stroke-width="27.993" fill="#d5c265"/><path id="path3872" fill="#6a7647" d="m2904.8 1905.1c-172.4 11.869-404.36 50.385-501.88 263.86-167.96 189.63-110.26 568.62-15.972 614.93l-60.372 51.084c-151.34-229.29-215.12-473.71-13.932-763.93 161.25-139.24 334.55-239.33 547.99-208.98z"/><path id="path3870" fill="#7d8b50" d="m2997.7 1915.5c-129.9 7.3016-254.48 51.828-356.51 146 143.19-52.359 294.59-77.789 437.78-108.85z"/><path id="path3846" d="m3112.6 3019.6c-97.364 46.006-301.64 48.373-455.11 8.1269" stroke="#7d8b50" stroke-width="49" fill="none"/><path id="path3842" d="m3348.3 2823.4c-73.993 88.112-131.92 158.59-236 198.56 20.777-39.252 57.064-108.81 55.446-157.05-89.168 34.354-192.48 60.751-300.1 39.756-135.19-370.55-68.736-755.46 255.42-984.52l109.13 18.576c-370.16 333.39-212.69 806.17 116.1 884.67z" stroke="#3d462a" stroke-width="49" fill="#6a7647"/><path id="path3844" d="m2874.6 1869c-245.33-41.639-405.47 75.728-559.6 204.33-191.64 220.73-154.01 553.71 20.898 756.97" stroke="#3d462a" stroke-width="49" fill="none"/><path id="path3850" fill="#7d8b50" d="m2599.8 3087.5 41.094 26.688c46.254-71.219 90.704-143.25 109.72-232.25-51.804 75.852-103.91 133.35-150.81 205.57z"/><path id="path3856" fill="#7d8b50" d="m2219.7 2913.2 37.406 31.688c78.151-92.191 223.02-206.31 277.74-253.28-90.413 16.877-231.94 123.45-315.14 221.6z"/><path id="path3862" d="m2735.8 3101.1c-62.829 71.43-134.24 144.5-176.08 239.92-183.53-87.779-362.62-179.46-550.31-252.57 54.485-93.767 133.39-166.31 224.94-226.1 174.9 77.384 340.92 156.57 501.46 238.75z" stroke="#3d462a" stroke-width="49" fill="#6a7647"/><path id="path3864" d="m2276.7 3037c0 36.548-26.25 66.176-58.63 66.176s-58.63-29.628-58.63-66.176 26.25-66.176 58.63-66.176 58.63 29.628 58.63 66.176z" fill-rule="evenodd" transform="matrix(.60077 .81504 -.82212 .59559 3385.8 -577.87)" fill="#eef1d0"/><path id="path3866" fill="#3d462a" d="m2705.1 3118.3c-119.71 20.896-234.74-0.3591-348.3-34.83 100.16 64.217 221.43 74.618 330.88 65.016z"/><path id="path3868" fill="#3d462a" d="m2627.3 3204.2c-34.056 8.1235-65.79 7.6585-102.17 4.6439 30.186 12.994 60.372 20.67 90.557 24.381z"/></g><g transform="translate(70.94 701.5)"><path id="path4400" fill="#d5c265" d="m2472 1712c25.861 140.7 53.399 272.3 94.364 369.29l-160.36 154.71c-113.32-29.417-219.6-115.18-328-184z"/><path id="path4374" d="m2181 2115.5c-25.903-17.336-51.855-35.493-77.397-54.369-125.1-92.45-240.35-202.14-291.61-317.12-69.88-156.76-25.078-184.37 160-152-153.99-177.63-358.39-329.91-538.34-502.63-86.9-83.5-164.9-300.86 122.4-193.89 115.1 42.87 232 123.09 348 208.49-131.6-277.6-302.2-505.85-435.5-815.31-73.8-171.26 5.6-277.86 187.5-93.38 180.15 182.74 341.34 488.11 504.69 723.03 1.8862-194.41-122.61-400.26-169.37-603.03-44.55-193.17 77.211-208.89 204.69-36.686 163.85 221.35 304.14 640.97 277.17 897.57-20.038 190.65-17.089 386.05 8.6051 568.11 2.5914 18.362 5.4142 36.587 8.4681 54.659" stroke="#b19a41" stroke-miterlimit="9" stroke-width="49" fill="#d5c265"/><path id="path4376" d="m2148.1 2093c-87.579-105.01-115.78-309.33 45.92-263.01-77.696-122.53-197.34-322.31-208-464-23.186-308.05 184.19-85.117 282 110-21.861-153.85-40.168-300.29-28-432 21.17-229.14 226.4 9.3253 223.01 263.95" stroke="#b19a41" stroke-miterlimit="9" stroke-width="49" fill="none"/><path id="path4374-1" fill="#b19a41" d="m2506 1740.9-48.5 6.875c2.622 18.578 5.471 37.018 8.5626 55.312 15.963 94.459 37.182 186.12 94.849 262.66-27.333-90.465-30.963-178.69-46.536-270.84-3.0162-17.849-5.8141-35.855-8.375-54zm-387.88 300.53-29.125 39.406c25.882 19.127 52.156 37.504 78.344 55.031 85.892 57.486 174 97.913 241 102.54-46.996-35.373-129.73-87.023-213.75-143.26-25.618-17.146-51.267-35.094-76.469-53.719z"/></g><g transform="translate(70.94 701.5)"><path id="path4102-2-7" d="m2872.8 1958.1c281.88-38.306 530.82-171.43 783.24-286.11l1360-624c149.16-85.457 294.99-177.56 433.51-284.28-477.3-62.175-935.05 71.158-1382.2 310.05-514.78 207.32-921.04 496.04-1194.5 884.34z" fill="#9a927a"/><path id="path4102-6" d="m2874.8 1958.1c-56.493-177.62 233.02-424.62 358.04-525.1 395.01-317.46 1079.3-641.16 1550.9-750.01 212.7-49.089 606.37-79.132 663.83 80.719 12.466 34.679-243.65 161.72-408.01 270.26l-1471.8 674.6c-248.9 119.44-681.3 286.28-692.99 249.54z" stroke="#605f46" stroke-width="49" fill="none"/></g><g transform="translate(70.94 701.5)"><path id="path3891" fill="#d5c265" d="m5008 1740c3.8367 212.26-17.312 411.24-100 604 46.644 18.496 111.97 20.978 88 100-1.283 62.025-45.18 102.74-88 144-55.564 34.672-111.68 30.326-168 12-54.924-32.317-103.34-97.65-176-40-35.095 49.333-40.273 98.667-44 148l256 28c-182.57 104.1-374.96 60.963-568 8-152-15.444-304-75.226-456-132l-492-1100 720-448z"/><path id="path3889" fill="#fff" d="m4705.5 2730.5c42.966-30.565 97.15-69.357 113.85-120.94-48.827 5.1488-107.65-32.446-154.48-57.854-38.176-13.84-76.179-25.603-109.13 23.22-35.829 42.855-38.085 91.305-42.957 139.32z"/><path id="path3887" fill="#b9dce6" d="m4544.1 2617.9c40.219 11.668 77.196 34.462 109.13 63.854-41.022-13.728-83.204-32.728-124.23-40.635z"/><path id="path3885" d="m4715.9 2725.9c39.922-29.432 74.622-65.391 102.17-110.29" stroke="#b9dce6" stroke-width="24" fill="none"/><path id="path3877" fill="#b19a41" d="m4783.2 2246.7c8.7661 64.101 80.961 123.68 150.68 132.33 27.088 3.3604 38.915 12.059 44.438 21.219 5.5227 9.1594 6.8589 23.283-0.031 43.812-15.756 46.945-39.346 89.973-91.406 127.19-28.252 20.195-58.8 29.524-91.844 22.185-33.044-7.3398-68.258-25.355-95.567-44.25-21.263-14.712-46.091-29.449-77.683-30.464-31.591-1.0147-58.209 12.533-82.847 51.512-25.652 40.584-44.286 75.926-43.736 136.09l0.2185 23.875 23.875 0.4062c53.615 0.9122 129.62 5.1974 184.29 14.673-192 94.204-773.06-82.519-931.04-126.6 58.746 93.843 720.77 290.47 1001.5 149.57l63-31.5-69-14.3c-67.012-13.89-151.98-29.906-232.91-33.969 4.0974-36.195 18.4-63.964 38.312-95.469 18.66-29.523 32.161-33.845 46.781-33.375 14.62 0.4696 33.978 10.079 52.562 22.938 30.768 21.288 69.323 42.409 111.66 51.812 42.334 9.4032 89.937 6.09 130.94-23.219 61.254-43.787 91.668-98.588 109.41-151.44 9.8036-29.209 10.604-59.721-4.4687-84.719s-43.917-40.009-80.375-44.531c-56.85-7.0523-114.39-27.066-156.71-83.708z"/><path id="path3883" fill="#b19a41" d="m4792.7 2442c-26.5 65.791 24.027 86.636 71.422 43.51-34.172-2.8568-58.106-1.6625-71.422-43.51z"/></g><g transform="translate(70.94 701.5)"><path id="path3833" d="m3615 1980c-1.5995 15.826 186.53 33.438 186.53 33.438l2.9376-28.875s-187.87-20.389-189.47-4.5625z"/><path id="path3840" d="m3800.1 2031.1s-155.46 41.058-148.06 56.938c7.3933 15.879 155.94-29.062 155.94-29.062z"/></g><g transform="translate(70.94 701.5)"><path id="path3859" clip-path="url(#clipPath3892)" fill="#fff" d="m4736 2110 42 206 160 44c36.819-131.04 82.325-263.24 42-384z"/><path id="path3857" d="m3760 1912c-7.7362 162.25-7.5765 322.03 152 432 197.66-75.038 379.55-51.551 556 6 17.13-75.333 37.02-150.67 18-226z" clip-path="url(#clipPath3880)" fill="#fff"/><path id="path3849" style="color:#000000" d="m4470 1996c0 149.12-99.393 270-222 270s-222-120.88-222-270 99.393-270 222-270 222 120.88 222 270z" clip-path="url(#clipPath3875)" transform="matrix(.97480 .27895 -.29040 .93636 658.58 -1044.1)" fill="url(#linearGradient3988)"/><path id="path3851" style="color:#000000" d="m4939.8 2088.5c0 98.803-37.673 178.9-84.146 178.9-46.472 0-84.146-80.095-84.146-178.9 0-98.803 37.673-178.9 84.146-178.9 46.472 0 84.146 80.095 84.146 178.9z" clip-path="url(#clipPath3888)" transform="matrix(1.0988 .069605 -.071295 1.144 -328.02 -698.78)" fill="url(#linearGradient3990)"/><path id="path3939" clip-path="url(#clipPath3970)" fill="#f0aed0" d="m4120 2147-98 57-40-82 123-21z"/><path id="path3941" clip-path="url(#clipPath3966)" fill="#d64a99" d="m4108 2113-112 46-19-70 122-13z"/><path id="path3943" clip-path="url(#clipPath3978)" fill="#f0aed0" d="m4879 2141 41 56 24-68-54-17z"/><path id="path3945" clip-path="url(#clipPath3974)" fill="#d64a99" d="m4889 2119 51 41 10-60-50-12z"/><path id="path3853" style="color:#000000" d="m4398.2 2024.8c0 108.18-64.266 195.87-143.54 195.87-79.276 0-143.54-87.693-143.54-195.87s64.266-195.87 143.54-195.87c79.276 0 143.54 87.693 143.54 195.87z" clip-path="url(#clipPath3870)" transform="matrix(.96550 .38059 -.37924 .96892 896.3 -1571.2)"/><path id="path3896" style="color:#000000" d="m4163.4 2030.5c0 62.874-29.126 113.84-65.054 113.84s-65.054-50.97-65.054-113.84c0-62.874 29.126-113.84 65.054-113.84s65.054 50.97 65.054 113.84z" clip-path="url(#clipPath3909)" transform="matrix(1.0406 .25670 -.25598 .99273 349.68 -1048.6)" fill="#fff"/><path id="path3919" style="color:#000000" d="m4214 2136.5c0 19.054-10.745 34.5-24 34.5s-24-15.446-24-34.5 10.745-34.5 24-34.5 24 15.446 24 34.5z" transform="matrix(.76016 .59595 -.59420 .76241 2273.4 -1989.4)" fill="#fff"/><path id="path3855" style="color:#000000" d="m4925.7 2014.9c0 87.087-24.693 157.68-55.154 157.68s-55.154-70.598-55.154-157.68c0-87.087 24.694-157.68 55.154-157.68 30.461 0 55.154 70.598 55.154 157.68z" clip-path="url(#clipPath3884)" transform="matrix(1.0586 .10216 -.088702 1.0084 -114.4 -508.04)"/><path id="path3898" style="color:#000000" d="m4836.6 2072.2c0 28.118-12.347 50.912-27.577 50.912s-27.577-22.794-27.577-50.912 12.347-50.912 27.577-50.912 27.577 22.794 27.577 50.912z" clip-path="url(#clipPath3913)" transform="matrix(.97825 .20745 -.20745 .97825 540.14 -949.71)" fill="#fff"/><path id="path3921" style="color:#000000" d="m4866 2128c0 12.702-6.7157 23-15 23s-15-10.298-15-23 6.7157-23 15-23 15 10.298 15 23z" transform="matrix(.93958 .34233 -.34233 .93958 1023.6 -1536.1)" fill="#fff"/></g><g opacity=".5" transform="translate(70.94 701.5)" stroke="#f00" stroke-width="1px" display="none" fill="#0f0"><path id="path3816" d="m3790 1924c-13.309 146.27 23.948 285.04 150 408 183.31-48.144 341.93-36.296 488 6 43.424-78.216 46.496-155.48 44-210z"/><path id="path3818" d="m4758 2099.7c6.4005 57.314 18.286 112.8 36 166.34 30.047 52.526 73.067 66.132 118 74 44.855-93.991 62.705-262.18 48.1-351.76z"/></g><g transform="translate(70.94 701.5)"><path id="path4037" d="m4914 2344c85.24-191.71 83.863-409.72 82-620" stroke="#b19a41" stroke-width="31" fill="none"/><path id="path4035" d="m4753.9 2100.5c8.4385 66.652 17.5 132.94 48.083 186.68-16.6-55.929-32.211-122.61-31.82-191.63z"/><path id="path3993" d="m3799.4 1909 661.02 199.99c58.01 17.551 69.667-30.19 72.368-67.054 15.106 35.411 6.4701 74.216-14.385 91.924-16.09 13.662-45.021 9.3707-70.711 2l-657.6-188.7c-37.079-10.638-15.569-45.712 9.3137-38.184z"/><path id="path3995" d="m4749 2089s155.59-81.473 234-128c25.768-15.291 78.293-59.633 85-53 6.7072 6.6329-45.088 60.466-75 77l-237 131c-33.064 18.276-51.779 22.068-67 0-12.748-18.482-16.118-54.721-3-87 5.3251 49.972 20.01 83.924 63 60z"/><path id="path3997" d="m4946.6 2036.9 12.875 20.25s145.3-86.674 138.56-102.12c-6.7417-15.451-151.44 81.875-151.44 81.875z" mask="url(#mask4061)"/><path id="path4003" d="m4943.2 2095.3 5.625 23.312s151.89-34.835 148.19-48.656c-3.7043-13.822-153.81 25.344-153.81 25.344z" mask="url(#mask4057)"/><path id="path4009" d="m3645.8 1866.4c-7.6365 14.344 138.28 78.281 138.28 78.281l11.938-26.438s-142.58-66.187-150.22-51.844z"/><path id="path4015" d="m4457 2129c7.5276 58.018 1.9967 113.19-9.9188 168.64 27.684-51.746 39.479-116.92 32.919-170.64z"/><path id="path3877-5" fill="#b19a41" d="m4783.2 2246.7c8.7661 64.101 80.961 123.68 150.68 132.33 27.088 3.3604 38.915 12.059 44.438 21.219 5.5227 9.1594 6.8589 23.283-0.031 43.812l46.468 15.594c9.8036-29.209 10.604-59.721-4.4687-84.719s-43.917-40.009-80.375-44.531c-56.85-7.0523-114.39-27.066-156.71-83.708z"/><path id="path4065" fill="#b19a41" d="m4400 2377c-49.667 12.64-99.333 21.677-149 29 49.667 14.483 108.33-1.3593 149-29z"/><path id="path4067" fill="#b19a41" d="m4470.3 2357.9c-201.65-62.909-400.3-45.068-598.21-7.071 185.14-89.496 489.43-85.217 598.21 7.071z"/></g><g transform="translate(70.94 701.5)"><path id="path4088" fill="#989898" d="m4457.6 954.98 647.71 282.84c105.11 75.634 190.09 175.41 268.7 282.84-23.051-255.38-159.88-537.79-596.8-684.48z"/><path id="path4086" fill="#737373" d="m4519.8 938.01c291.06 40.669 682.73 267.2 814.59 390.32l36.77 164.05c-86.854-101.01-174.42-197.03-268.7-246.07 56.634 137.42 71.862 275.2 90.51 412.95 20.216 170.76 78.933 264.51 135.76 362.04-303.43-111.34-594.04-276.53-859.84-545.89l-265.87-438.41z"/><path id="path4084" fill="#515151" d="m4287.9 1014.4c204.38 163.63 305.9 403.63 379.01 625.08l-189.5-158.4c20.808 98.052 36.246 196.1 19.799 294.16-123.08-244.7-305.88-455.28-639.22-579.83z"/><path id="path4070" d="m3226 1542c-58.653 139.07-92.572 279.64-98 440 142.14-34.337 247.57-113.01 366-192z" stroke="#262626" stroke-width="49" fill="#020202"/><path id="path4072" fill="#262626" d="m4789.1 816.25-18.188 45.5c156.72 62.68 297.79 146.49 400.28 253.19 79.776 83.049 136.27 179.53 160.22 292.25-106.13-137.27-293.68-242.63-427.06-264.78 115.53 47.151 336.49 191.43 442.74 376.31l49.406 85.969-3.6874-99.094c-6.3-169.6-77.1-311-186.2-424.6-109.2-113.61-256.2-200.25-417.5-264.75z"/><path id="path4074" fill="#262626" d="m3841.6 1180.2-12.469 47.375c318.54 83.789 530.65 330.41 647.59 568.78l33 67.281 13.125-73.781c13.133-73.933 10.234-158.29-6.9376-243.03 250.81 244.87 533.06 402.7 816.78 492.19l106.4 33.4-82.4-75c-91.038-82.84-123.77-209.79-134-319.22-12.828-137.21-44.211-300.29-99.431-429.91l-70.569-34.401c66.718 125.43 106.83 315.02 121.22 468.88 8.3663 89.49 30.878 193.67 89.406 280.5-272.26-99.549-540.17-265.24-776.44-516.06l-74.844-79.437 33.719 103.81c25.013 77.022 37.268 157.24 36.188 229.75-127.34-223.43-337.17-441.51-640.22-521.22z"/></g><g transform="translate(70.94 701.5)"><path id="path4099" fill="#d5c265" d="m3440 1938c-135.8-116.64-173.29-286.52-182-472l478-238 158 102z"/><path id="path4091" fill="#b19a41" d="m3239.5 1469.4c-3.4498 234.29 98.699 424.45 206.15 470.47-70.736-84.082-160.41-248.59-157.15-469.72z"/><path id="path4097" fill="#b19a41" d="m3440 1280c-12.424 131.13-14.197 259.9 68 370-41.446-113.94-58.327-240.17-68-370z"/></g><g transform="translate(70.94 701.5)"><path id="path4141-15" fill="#f2edcf" d="m3246.1 1422.4c-60.75-304.93-79.042-665.38 3.0864-892.27 94.223-260.3 307.41-342.94 566.83-270.14 308.78 86.648 627.7 326.3 753.67 481.34l-481.67 310.66z"/><path id="path4141" d="m3246.1 1422.4c-60.75-304.93-79.042-665.38 3.0864-892.27 94.223-260.3 307.41-342.94 566.83-270.14 308.78 86.648 627.7 326.3 753.67 481.34" stroke="#a09b7d" stroke-width="49" fill="none"/><path id="path4141-1" d="m3222.3 1285.7c-18.971-127.75-29.675-260.03-28.324-384.47 322.2-61.652 644.4-78.57 966.6-98.941 40.526-98.265 85.828-196.53 147.53-294.79 113.05 80.84 206.01 165.58 261.51 233.9l-179.67 150.66-538 302c-204.28-39.495-410.72-12.112-629.66 91.653z" stroke="#7d8b50" stroke-width="49" fill="#98ac68"/><path id="path4161" d="m3192 1012c300.41-89.066 640.79-91.838 918-18" stroke="#7d8b50" stroke-width="31" fill="none"/><path id="path4163" d="m3204 1196c186.56-156.13 464.89-187.17 720-164" stroke="#7d8b50" stroke-width="31" fill="none"/><path id="path4165" d="m4390 568c-98.768 102.4-181.61 217.83-222 368" stroke="#7d8b50" stroke-width="31" fill="none"/><path id="path4167" d="m4480 654c-62.619 45.075-146.7 134.54-162 226" stroke="#7d8b50" stroke-width="31" fill="none"/><path id="path4169" style="color:#000000" d="m3560 654c0 23.196-25.52 42-57 42s-57-18.804-57-42 25.52-42 57-42 57 18.804 57 42z" transform="matrix(1.0097 .073359 -.063921 .87983 2.7211 -170.61)" fill="#a09b7d"/><path id="path4171" style="color:#000000" d="m3473.3 776.78c0 21.088-25.643 38.184-57.276 38.184-31.632 0-57.276-17.095-57.276-38.184 0-21.088 25.643-38.184 57.276-38.184 31.632 0 57.276 17.095 57.276 38.184z" transform="translate(1.4142 8.4853)" fill="#a09b7d"/><path id="path4173" style="color:#000000" d="m3693.9 743.55c0 21.479-24.377 38.891-54.447 38.891s-54.447-17.412-54.447-38.891 24.377-38.891 54.447-38.891 54.447 17.412 54.447 38.891z" transform="matrix(.99385 .10472 -.11072 .93997 106.12 -327.29)" fill="#a09b7d"/><path id="path4102" stroke-linejoin="round" d="m2872.8 1958.1c-55.528-177.92 235.02-424.62 360.04-525.1 395.01-317.46 1079.3-641.16 1550.9-750.01 212.7-49.089 608.51-79.181 665.83 80.719-247.85-29.08-703.97 96.308-1183.8 311.86-504.95 226.82-1060.3 542.53-1392.9 882.53z" stroke="#a09b7d" stroke-width="49" fill="#f2edcf"/><path id="path4102-7" d="m4496.1 978.24c-56.475 22.316-113.73 47.101-171.45 72.241l218.92-300.82c49.56-16.166 97.946-29.743 144.74-42.545z" stroke="#272126" stroke-width="49" fill="#2e2d30"/></g></svg>