<?xml version="1.0" encoding="UTF-8" standalone="no"?>
<!-- Created with Inkscape (http://www.inkscape.org/) -->

<svg
   xmlns:dc="http://purl.org/dc/elements/1.1/"
   xmlns:cc="http://creativecommons.org/ns#"
   xmlns:rdf="http://www.w3.org/1999/02/22-rdf-syntax-ns#"
   xmlns:svg="http://www.w3.org/2000/svg"
   xmlns="http://www.w3.org/2000/svg"
   xmlns:xlink="http://www.w3.org/1999/xlink"
   xmlns:sodipodi="http://sodipodi.sourceforge.net/DTD/sodipodi-0.dtd"
   xmlns:inkscape="http://www.inkscape.org/namespaces/inkscape"
   width="6449.5044"
   height="6449.4971"
   id="svg2998"
   version="1.1"
   inkscape:version="0.48.4 r9939"
   sodipodi:docname="Diamond Tiara.svg">
  <title
     id="title3017">Diamond Dazzle Tiara</title>
  <defs
     id="defs3000">
    <linearGradient
       inkscape:collect="always"
       id="linearGradient4346">
      <stop
         style="stop-color:#8ecfe0;stop-opacity:1"
         offset="0"
         id="stop4348" />
      <stop
         style="stop-color:#255eaa;stop-opacity:1"
         offset="1"
         id="stop4350" />
    </linearGradient>
    <clipPath
       clipPathUnits="userSpaceOnUse"
       id="clipPath4266">
      <path
         style="opacity:0.5;fill:#00ff00;fill-opacity:1;stroke:#ff0000;stroke-width:1.00774014px;stroke-linecap:butt;stroke-linejoin:miter;stroke-opacity:1"
         d="m 213.31641,3370.2707 c -75.45646,127.5477 -115.637764,332.3368 -52.31184,458.5085 282.09238,63.088 547.23445,203.4307 795.42609,421.0281 C 1036.4685,4105.305 1140.7008,3963.5964 1154.7089,3820.5244 854.46261,3627.8809 545.29114,3443.9912 213.31641,3370.2707 z"
         id="path4268"
         inkscape:connector-curvature="0"
         sodipodi:nodetypes="ccccc" />
    </clipPath>
    <clipPath
       clipPathUnits="userSpaceOnUse"
       id="clipPath4270">
      <path
         style="opacity:0.5;fill:#00ff00;fill-opacity:1;stroke:#ff0000;stroke-width:1.00017619px;stroke-linecap:butt;stroke-linejoin:miter;stroke-opacity:1"
         d="m 2165.873,2600.3082 c 24.8135,157.8251 120.0568,353.6307 239.0056,411.6128 230.8286,-149.1441 496.3605,-223.1474 796.5956,-222.0101 -31.8402,-174.9284 -45.4513,-364.7858 -121.6142,-491.5777 -320.897,56.2669 -642.6546,126.0304 -913.987,301.975 z"
         id="path4272"
         inkscape:connector-curvature="0"
         sodipodi:nodetypes="ccccc" />
    </clipPath>
    <clipPath
       clipPathUnits="userSpaceOnUse"
       id="clipPath4274">
      <path
         style="opacity:0.5;fill:#00ff00;fill-opacity:1;stroke:#ff0000;stroke-width:1px;stroke-linecap:butt;stroke-linejoin:miter;stroke-opacity:1"
         d="m 2042.1809,2642.5641 c 17.3292,158.1654 103.2732,355.7377 219.4484,416.1357 237.8459,-144.1617 506.8269,-212.5433 806.9427,-205.1447 -23.5439,-175.3961 -28.1552,-365.3242 -98.2933,-493.5623 -323.4935,49.5102 -648.487,112.484 -928.0978,282.5713 z"
         id="path4276"
         inkscape:connector-curvature="0"
         sodipodi:nodetypes="ccccc" />
    </clipPath>
    <clipPath
       clipPathUnits="userSpaceOnUse"
       id="clipPath4278">
      <path
         style="opacity:0.5;fill:#00ff00;fill-opacity:1;stroke:#ff0000;stroke-width:1px;stroke-linecap:butt;stroke-linejoin:miter;stroke-opacity:1"
         d="m 1402.0917,3031.1362 c -18.3453,158.0508 21.4197,369.8052 121.2183,454.5687 263.9865,-87.5466 541.4418,-94.2809 832.3657,-20.2031 16.1258,-176.233 53.946,-362.4145 14.1421,-503.0559 -326.3932,-23.808 -657.2483,-34.825 -967.7261,68.6903 z"
         id="path4280"
         inkscape:connector-curvature="0"
         sodipodi:nodetypes="ccccc" />
    </clipPath>
    <clipPath
       clipPathUnits="userSpaceOnUse"
       id="clipPath4282">
      <path
         style="opacity:0.5;fill:#00ff00;fill-opacity:1;stroke:#ff0000;stroke-width:1.00061786px;stroke-linecap:butt;stroke-linejoin:miter;stroke-opacity:1"
         d="m -489.02018,3044.8992 c -68.29424,-119.49 -135.39691,-239.9824 -249.56092,-320.8882 -103.3417,170.0515 -152.48191,385.3258 -127.82281,512.2786 91.31514,51.3135 182.89441,82.0175 275.97843,-4.6916 32.657,-60.165 66.19783,-121.9267 101.4053,-186.6988 z"
         id="path4284"
         inkscape:connector-curvature="0"
         sodipodi:nodetypes="ccccc" />
    </clipPath>
    <clipPath
       clipPathUnits="userSpaceOnUse"
       id="clipPath4286">
      <path
         style="opacity:0.5;fill:#00ff00;fill-opacity:1;stroke:#ff0000;stroke-width:1px;stroke-linecap:butt;stroke-linejoin:miter;stroke-opacity:1"
         d="m 1024.2947,2934.1616 c -115.08033,-69.9125 -229.61566,-141.3237 -365.67526,-153.5432 -7.87534,203.177 52.07379,418.1534 133.34013,517.1981 102.4788,-2.0259 195.4175,-22.337 234.00593,-146.8195 -0.5569,-69.8656 -1.1139,-141.5942 -1.6708,-216.8354 z"
         id="path4288"
         inkscape:connector-curvature="0"
         sodipodi:nodetypes="ccccc" />
    </clipPath>
    <clipPath
       clipPathUnits="userSpaceOnUse"
       id="clipPath4290">
      <path
         style="opacity:0.5;fill:#00ff00;fill-opacity:1;stroke:#ff0000;stroke-width:1px;stroke-linecap:butt;stroke-linejoin:miter;stroke-opacity:1"
         d="m 1024.2947,2934.1616 c -115.08033,-69.9125 -229.61566,-141.3237 -365.67526,-153.5432 -7.87534,203.177 52.07379,418.1534 133.34013,517.1981 102.4788,-2.0259 195.4175,-22.337 234.00593,-146.8195 -0.5569,-69.8656 -1.1139,-141.5942 -1.6708,-216.8354 z"
         id="path4292"
         inkscape:connector-curvature="0"
         sodipodi:nodetypes="ccccc" />
    </clipPath>
    <clipPath
       clipPathUnits="userSpaceOnUse"
       id="clipPath4294">
      <path
         style="opacity:0.5;fill:#00ff00;fill-opacity:1;stroke:#ff0000;stroke-width:1px;stroke-linecap:butt;stroke-linejoin:miter;stroke-opacity:1"
         d="m 1024.2947,2934.1616 c -115.08033,-69.9125 -229.61566,-141.3237 -365.67526,-153.5432 -7.87534,203.177 52.07379,418.1534 133.34013,517.1981 102.4788,-2.0259 195.4175,-22.337 234.00593,-146.8195 -0.5569,-69.8656 -1.1139,-141.5942 -1.6708,-216.8354 z"
         id="path4296"
         inkscape:connector-curvature="0"
         sodipodi:nodetypes="ccccc" />
    </clipPath>
    <clipPath
       clipPathUnits="userSpaceOnUse"
       id="clipPath4322">
      <ellipse
         style="opacity:0.21499999;color:#000000;fill:#ff0000;fill-opacity:1;fill-rule:nonzero;stroke:none;stroke-width:1px;marker:none;visibility:visible;display:inline;overflow:visible;enable-background:accumulate"
         id="ellipse4324"
         cx="2454.0916"
         cy="2595.054"
         rx="367.69553"
         ry="411.13208"
         transform="matrix(0.97486462,0.22279807,-0.22279807,0.97486462,0,0)"
         sodipodi:cx="2454.0916"
         sodipodi:cy="2595.054"
         sodipodi:rx="367.69553"
         sodipodi:ry="411.13208" />
    </clipPath>
    <clipPath
       clipPathUnits="userSpaceOnUse"
       id="clipPath4326">
      <ellipse
         style="opacity:0.21499999;color:#000000;fill:#ff0000;fill-opacity:1;fill-rule:nonzero;stroke:none;stroke-width:1px;marker:none;visibility:visible;display:inline;overflow:visible;enable-background:accumulate"
         id="ellipse4328"
         cx="2454.0916"
         cy="2595.054"
         rx="367.69553"
         ry="411.13208"
         transform="matrix(0.97486462,0.22279807,-0.22279807,0.97486462,0,0)"
         sodipodi:cx="2454.0916"
         sodipodi:cy="2595.054"
         sodipodi:rx="367.69553"
         sodipodi:ry="411.13208" />
    </clipPath>
    <clipPath
       clipPathUnits="userSpaceOnUse"
       id="clipPath4330">
      <ellipse
         style="opacity:0.21499999;color:#000000;fill:#ff0000;fill-opacity:1;fill-rule:nonzero;stroke:none;stroke-width:1px;marker:none;visibility:visible;display:inline;overflow:visible;enable-background:accumulate"
         id="ellipse4332"
         cx="876.81244"
         cy="2948.3037"
         rx="165.66501"
         ry="325.26913"
         sodipodi:cx="876.81244"
         sodipodi:cy="2948.3037"
         sodipodi:rx="165.66501"
         sodipodi:ry="325.26913" />
    </clipPath>
    <clipPath
       clipPathUnits="userSpaceOnUse"
       id="clipPath4334">
      <ellipse
         style="opacity:0.21499999;color:#000000;fill:#ff0000;fill-opacity:1;fill-rule:nonzero;stroke:none;stroke-width:1px;marker:none;visibility:visible;display:inline;overflow:visible;enable-background:accumulate"
         id="ellipse4336"
         cx="876.81244"
         cy="2948.3037"
         rx="165.66501"
         ry="325.26913"
         sodipodi:cx="876.81244"
         sodipodi:cy="2948.3037"
         sodipodi:rx="165.66501"
         sodipodi:ry="325.26913" />
    </clipPath>
    <linearGradient
       inkscape:collect="always"
       xlink:href="#linearGradient4346"
       id="linearGradient4352"
       x1="2527.6619"
       y1="2933.9385"
       x2="2425.3945"
       y2="2486.4626"
       gradientUnits="userSpaceOnUse" />
    <linearGradient
       inkscape:collect="always"
       xlink:href="#linearGradient4346"
       id="linearGradient4360"
       x1="862.57599"
       y1="3229.9529"
       x2="894.53687"
       y2="2872.8101"
       gradientUnits="userSpaceOnUse" />
    <mask
       maskUnits="userSpaceOnUse"
       id="mask4409">
      <path
         style="fill:#ffffff;stroke:#ffffff;stroke-width:57;stroke-linecap:butt;stroke-linejoin:miter;stroke-miterlimit:4;stroke-opacity:1;stroke-dasharray:none"
         d="M 805.71426,3311.4287 C 676.23022,3030.2527 623.40985,2707.765 670.26286,2408.8366 l -401.69144,-5.9793 74.28571,994.2856 z"
         id="path4411"
         inkscape:connector-curvature="0"
         sodipodi:nodetypes="ccccc" />
    </mask>
    <mask
       maskUnits="userSpaceOnUse"
       id="mask4413">
      <path
         style="fill:#ffffff;stroke:#ffffff;stroke-width:57;stroke-linecap:butt;stroke-linejoin:miter;stroke-miterlimit:4;stroke-opacity:1;stroke-dasharray:none"
         d="M 805.71426,3311.4287 C 676.23022,3030.2527 623.40985,2707.765 670.26286,2408.8366 l -401.69144,-5.9793 74.28571,994.2856 z"
         id="path4415"
         inkscape:connector-curvature="0"
         sodipodi:nodetypes="ccccc" />
    </mask>
  </defs>
  <sodipodi:namedview
     id="base"
     pagecolor="#ffffff"
     bordercolor="#666666"
     borderopacity="1.0"
     inkscape:pageopacity="0.0"
     inkscape:pageshadow="2"
     inkscape:zoom="0.1767767"
     inkscape:cx="1667.3561"
     inkscape:cy="2563.7931"
     inkscape:document-units="px"
     inkscape:current-layer="layer3"
     showgrid="false"
     fit-margin-top="0"
     fit-margin-left="1167.63"
     fit-margin-right="1167.63"
     fit-margin-bottom="0"
     inkscape:window-width="1920"
     inkscape:window-height="1028"
     inkscape:window-x="1272"
     inkscape:window-y="217"
     inkscape:window-maximized="1"
     inkscape:snap-global="false"
     inkscape:object-nodes="true"
     inkscape:object-paths="true" />
  <metadata
     id="metadata3003">
    <rdf:RDF>
      <cc:Work
         rdf:about="">
        <dc:format>image/svg+xml</dc:format>
        <dc:type
           rdf:resource="http://purl.org/dc/dcmitype/StillImage" />
        <dc:title>Diamond Dazzle Tiara</dc:title>
      </cc:Work>
    </rdf:RDF>
  </metadata>
  <g
     inkscape:groupmode="layer"
     id="layer2"
     inkscape:label="Background"
     sodipodi:insensitive="true"
     style="display:none"
     transform="translate(1111.2129,-35.023872)">
    <rect
       style="color:#000000;fill:#000000;fill-opacity:1;fill-rule:nonzero;stroke:#00ff00;stroke-width:1.00258315;stroke-linecap:butt;stroke-linejoin:miter;stroke-miterlimit:4;stroke-opacity:1;stroke-dasharray:none;stroke-dashoffset:0;marker:none;visibility:visible;display:inline;overflow:visible;enable-background:accumulate"
       id="rect4062"
       width="4347.6938"
       height="6660.8838"
       x="-64.648468"
       y="-80.072731" />
  </g>
  <g
     inkscape:groupmode="layer"
     id="layer3"
     inkscape:label="Shadow"
     style="opacity:0.2;display:none"
     sodipodi:insensitive="true"
     transform="translate(1111.2129,-35.023872)">
    <ellipse
       style="color:#000000;fill:#000000;fill-opacity:1;fill-rule:nonzero;stroke:none;stroke-width:1px;marker:none;visibility:visible;display:inline;overflow:visible;enable-background:accumulate"
       id="path4065"
       cx="1877.1427"
       cy="6160"
       rx="1471.4286"
       ry="225.71428"
       sodipodi:cx="1877.1427"
       sodipodi:cy="6160"
       sodipodi:rx="1471.4286"
       sodipodi:ry="225.71428"
       d="m 3348.5713,6160 c 0,124.6586 -658.781,225.7143 -1471.4286,225.7143 -812.6476,0 -1471.42859,-101.0557 -1471.42859,-225.7143 0,-124.6586 658.78099,-225.7143 1471.42859,-225.7143 812.6476,0 1471.4286,101.0557 1471.4286,225.7143 z" />
  </g>
  <g
     inkscape:groupmode="layer"
     id="layer4"
     inkscape:label="Tail"
     style="display:inline"
     sodipodi:insensitive="true"
     transform="translate(1111.2129,-35.023872)">
    <path
       style="fill:#ba98da;fill-opacity:1;stroke:none"
       d="m 3012.3156,5195.3183 c 91.5879,-374.1856 284.1686,-379.1393 436.2558,-309.604 152.0872,69.5353 186.9113,262.0528 331.4285,308.5714 82.571,26.5787 129.5842,-16.546 134.2857,-74.2857 4.7015,-57.7397 -48.021,-110.332 -104.5011,-152.5822 235.9796,15.764 298.6574,156.1529 324.3366,324.3532 25.6793,168.2004 -9.5711,277.2567 -114.1212,365.3719 -272.2734,229.4732 -849.9415,391.9333 -1308.5714,334.2857 l -114.2857,14.2857 -74.2857,-1020 c 159.7827,96.829 322.0772,173.5635 489.4585,209.604 z"
       id="path4072-5"
       inkscape:connector-curvature="0"
       sodipodi:nodetypes="czszczscccc" />
    <path
       style="fill:#ffffff;stroke:none"
       d="m 3208.2444,5176.7002 c 14.8865,-264.5181 98.3626,-272.659 317.1879,-248.4975 -104.5425,-50.4938 -210.1188,-92.2002 -325.2691,-52.528 -119.3892,66.5747 -157.1696,192.996 -197.9899,317.1879 z"
       id="path4093"
       inkscape:connector-curvature="0"
       sodipodi:nodetypes="ccccc" />
    <path
       style="fill:#ffffff;stroke:none"
       d="m 4134.1211,5279.6492 c 25.6793,168.2004 -9.5711,289.3785 -114.1212,377.4937 -272.2734,229.4732 -906.51,395.9739 -1365.1399,338.3263 l -32.5041,-612.6979 c 161.9159,-74.7311 342.1873,-25.5924 519.2184,10.1015 196.0004,39.5186 300.0295,-22.3799 339.4113,-149.5025 63.7874,-205.9029 186.5587,-126.2935 286.8833,18.1827 86.1056,123.9995 233.2023,139.5736 366.2522,18.0962 z"
       id="path4072-6"
       inkscape:connector-curvature="0"
       sodipodi:nodetypes="csccsssc" />
    <path
       style="font-style:normal;font-variant:normal;font-weight:normal;font-stretch:normal;text-indent:0;text-align:start;text-decoration:none;line-height:normal;letter-spacing:normal;word-spacing:normal;text-transform:none;direction:ltr;block-progression:tb;writing-mode:lr-tb;text-anchor:start;baseline-shift:baseline;color:#000000;fill:#936fb6;fill-opacity:1;stroke:none;stroke-width:57;marker:none;visibility:visible;display:inline;overflow:visible;enable-background:accumulate;font-family:sans-serif;-inkscape-font-specification:sans-serif"
       d="m 2599.2949,4994.9434 -27.1621,50.1132 c 107.2742,58.1443 236.5311,123.3941 359.4258,159.7481 122.8947,36.354 221.5445,13.5056 327.3926,-46.594 -135.5783,30.8141 -195.7861,26.0842 -311.2246,-8.0642 -115.4386,-34.1484 -242.3726,-97.7175 -348.4317,-155.2031 z"
       id="path4070"
       inkscape:connector-curvature="0"
       sodipodi:nodetypes="ccscsc" />
    <path
       style="fill:none;stroke:#936fb6;stroke-width:57;stroke-linecap:butt;stroke-linejoin:miter;stroke-miterlimit:4;stroke-opacity:1;stroke-dasharray:none"
       d="m 3007.3155,5195.3183 c 91.5879,-374.1856 289.1686,-379.1393 441.2558,-309.604 152.0872,69.5353 186.9113,262.0528 331.4286,308.5714 82.571,26.5787 129.5842,-16.546 134.2857,-74.2857 4.7015,-57.7397 -48.021,-110.332 -104.5011,-152.5822 235.9796,15.764 298.6574,156.1529 324.3366,324.3532 25.6793,168.2004 -9.5711,277.2567 -114.1212,365.3719 -272.2734,229.4732 -849.9416,391.9333 -1308.5714,334.2857"
       id="path4072"
       inkscape:connector-curvature="0"
       sodipodi:nodetypes="czszczsc" />
  </g>
  <g
     inkscape:groupmode="layer"
     id="layer5"
     inkscape:label="Rear Legs"
     sodipodi:insensitive="true"
     style="display:inline"
     transform="translate(1111.2129,-35.023872)">
    <path
       style="fill:#f4b3eb;fill-opacity:1;stroke:none"
       d="m 1391.4285,5060 c -377.2931,-81.6716 -410.96318,205.2879 -302.8571,554.2857 -332.87819,-15.415 -648.37137,3.1506 -874.2857,245.7143 -66.76934,71.6901 -112.62165,171.8289 -122.857131,274.2857 -8.664372,86.7301 38.658181,134.1642 157.142851,134.2857 391.8986,0.4021 781.45318,-36.4791 1159.99998,-105.7142 101.4884,-18.5619 95.9935,-70.5608 22.8571,-228.5714 131.4286,72.8557 262.8571,96.6435 394.2857,117.1428 z"
       id="path4117-4"
       inkscape:connector-curvature="0"
       sodipodi:nodetypes="ccssssccc" />
    <path
       style="fill:#f4b3eb;fill-opacity:1;stroke:none"
       d="M 880.77751,4515.7075 C 818.93742,4359.1204 776.24405,4150.313 771.42856,3974.2858 c -2.4292,-88.7977 -44.48143,-134.5996 -122.85715,-171.4286 -152.22809,-71.5325 -351.64581,-69.7988 -459.99999,-40 -87.65091,24.1051 -114.065784,94.342 -99.999994,217.1429 C 137.5381,4407.502 481.40566,4822.8819 791.42855,4988.5715 1017.7734,5109.54 1316.3733,4884.2107 1514.2857,4717.1429 l 108.5714,-648.5714 c -215.2654,176.2022 -430.1737,352.7065 -742.07959,447.136 z"
       id="path4121-2"
       inkscape:connector-curvature="0"
       sodipodi:nodetypes="csssssccc" />
    <path
       style="font-style:normal;font-variant:normal;font-weight:normal;font-stretch:normal;text-indent:0;text-align:start;text-decoration:none;line-height:normal;letter-spacing:normal;word-spacing:normal;text-transform:none;direction:ltr;block-progression:tb;writing-mode:lr-tb;text-anchor:start;baseline-shift:baseline;color:#000000;fill:#e99ad3;fill-opacity:1;stroke:none;stroke-width:57;marker:none;visibility:visible;display:inline;overflow:visible;enable-background:accumulate;font-family:sans-serif;-inkscape-font-specification:sans-serif"
       d="m 1215.5195,5804.1787 c 164.1741,157.3177 373.5918,246.5512 586.7266,272.6807 l 6.9355,-56.5762 c -200.653,-24.5993 -412.122,-113.4223 -593.6621,-216.1045 z"
       id="path4111"
       inkscape:connector-curvature="0"
       sodipodi:nodetypes="cccc" />
    <path
       style="fill:none;stroke:#e99ad3;stroke-width:57;stroke-linecap:butt;stroke-linejoin:miter;stroke-miterlimit:4;stroke-opacity:1;stroke-dasharray:none"
       d="m 1391.4285,5060 c -377.2931,-81.6716 -410.96318,205.2879 -302.8571,554.2857 -332.87819,-15.415 -648.37137,3.1506 -874.2857,245.7143 -66.76934,71.6901 -112.62165,171.8289 -122.857131,274.2857 -8.664372,86.7301 38.658181,134.1642 157.142851,134.2857 391.8986,0.4021 781.45318,-36.4791 1159.99998,-105.7142 101.4884,-18.5619 95.9935,-70.5608 22.8571,-228.5714"
       id="path4117"
       inkscape:connector-curvature="0"
       sodipodi:nodetypes="ccssssc" />
    <path
       style="fill:none;stroke:#e99ad3;stroke-width:57;stroke-linecap:butt;stroke-linejoin:miter;stroke-miterlimit:4;stroke-opacity:1;stroke-dasharray:none"
       d="m 885.71426,4517.1429 c 280.70654,-91.3211 511.01864,-258.2339 731.42854,-440"
       id="path4119"
       inkscape:connector-curvature="0"
       sodipodi:nodetypes="cc" />
    <path
       style="font-style:normal;font-variant:normal;font-weight:normal;font-stretch:normal;text-indent:0;text-align:start;text-decoration:none;line-height:normal;letter-spacing:normal;word-spacing:normal;text-transform:none;direction:ltr;block-progression:tb;writing-mode:lr-tb;text-anchor:start;baseline-shift:baseline;color:#000000;fill:#e99ad3;fill-opacity:1;stroke:none;stroke-width:57;marker:none;visibility:visible;display:inline;overflow:visible;enable-background:accumulate;font-family:sans-serif;-inkscape-font-specification:sans-serif"
       d="m 341.60547,3714.5078 c -61.08155,1.0447 -116.82851,8.8337 -160.5918,20.8692 -49.94364,13.7351 -87.634783,44.2828 -106.673826,87.5644 -19.039043,43.2816 -21.416318,96.2881 -14.083985,160.3027 50.445791,440.4153 397.978311,859.5694 717.738281,1030.4629 124.25506,66.4073 266.22446,36.8737 397.99026,-27.207 131.7658,-64.0807 257.1567,-163.5609 356.6855,-247.5781 l -36.7676,-43.5567 c -98.3836,83.0506 -221.2491,179.7663 -344.8476,239.875 -123.5985,60.1088 -244.10358,82.7566 -346.19337,28.1953 -300.28581,-160.4856 -640.48706,-572.0892 -687.97461,-986.6777 -6.73346,-58.7862 -2.93577,-102.3019 9.6289,-130.8652 12.56468,-28.5634 31.90601,-45.1847 69.61329,-55.5547 100.00625,-27.503 296.9254,-29.0702 440.32226,38.3125 36.84776,17.3149 62.58612,35.6122 79.32813,57.666 16.742,22.0538 26.06483,48.7092 27.16015,88.7481 5.77147,210.9721 63.41836,466.6442 168.94581,625.4158 -48.75827,-184.0855 -106.45149,-425.348 -111.96729,-626.9744 -1.33388,-48.7589 -14.25294,-89.4005 -38.73828,-121.6543 -24.48534,-32.2539 -58.96032,-55.275 -100.48828,-74.7891 -100.66208,-47.3015 -217.28336,-64.2958 -319.08594,-62.5547 z"
       id="path4121"
       inkscape:connector-curvature="0"
       sodipodi:nodetypes="ssssssccsssssssscssss" />
    <path
       style="fill:#e99ad3;fill-opacity:1;stroke:none"
       d="m 168.57143,3951.4286 c 15.95737,139.4606 373.33332,220 491.42855,85.7143 -166.91595,27.3443 -332.07958,23.147 -491.42855,-85.7143 z"
       id="path4136"
       inkscape:connector-curvature="0"
       sodipodi:nodetypes="ccc" />
  </g>
  <g
     inkscape:groupmode="layer"
     id="layer6"
     inkscape:label="Body"
     style="display:inline"
     sodipodi:insensitive="true"
     transform="translate(1111.2129,-35.023872)">
    <path
       style="fill:#fac4fb;fill-opacity:1;stroke:none"
       d="m 1680.8938,3740.2633 c -199.667,411.8068 -292.9,844.9004 -331.33,1288.9546 4.1824,393.4304 74.6116,737.7892 367.6955,917.2185 l 939.5002,44.4834 42.368,-670.7779 -20.203,-537.4012 -242.4366,-246.4772 -16.1625,-1078.8429 z"
       id="path4166"
       inkscape:connector-curvature="0"
       sodipodi:nodetypes="ccccccccc" />
    <path
       style="fill:none;stroke:#e99ad3;stroke-width:57;stroke-linecap:butt;stroke-linejoin:miter;stroke-miterlimit:4;stroke-opacity:1;stroke-dasharray:none"
       d="m 1684.9344,3744.3039 c -154.2863,250.0395 -277.9008,805.7488 -315.1676,1159.6551 -42.1988,400.7435 58.6344,905.5785 375.7768,1038.4368"
       id="path4160"
       inkscape:connector-curvature="0"
       sodipodi:nodetypes="csc" />
    <path
       style="fill:none;stroke:#e99ad3;stroke-width:57;stroke-linecap:butt;stroke-linejoin:miter;stroke-miterlimit:4;stroke-opacity:1;stroke-dasharray:none"
       d="m 2685.7142,4780 c -89.177,-62.2515 -162.155,-140.7021 -228.5714,-225.7142"
       id="path4162"
       inkscape:connector-curvature="0"
       sodipodi:nodetypes="cc" />
    <path
       style="fill:none;stroke:#e99ad3;stroke-width:57;stroke-linecap:butt;stroke-linejoin:miter;stroke-miterlimit:4;stroke-opacity:1;stroke-dasharray:none"
       d="m 2137.1428,4788.5715 c 51.1145,174.6408 246.5642,369.9996 331.4286,440"
       id="path4164"
       inkscape:connector-curvature="0"
       sodipodi:nodetypes="cc" />
  </g>
  <g
     inkscape:groupmode="layer"
     id="layer8"
     inkscape:label="Tiara"
     style="display:inline"
     sodipodi:insensitive="true"
     transform="translate(1111.2129,-35.023872)">
    <path
       style="fill:none;stroke:#92a5ce;stroke-width:37;stroke-linecap:butt;stroke-linejoin:miter;stroke-miterlimit:9;stroke-opacity:1;stroke-dasharray:none"
       d="m 1988.5714,1182.8573 c 94.9353,-124.1243 168.4082,-252.15089 180,-391.42858 -121.6676,36.78159 -239.2101,92.12622 -345.7143,197.14285 78.3139,-190.65314 103.7848,-431.18841 74.2857,-639.99998 -163.2182,106.85919 -320.2902,309.56793 -391.4286,534.2857 -73.745,-185.55628 -169.0497,-355.71279 -348.5714,-465.71428 -25.0047,128.366 -21.346,308.18687 20,477.14285 -80.9524,-55.40266 -173.3333,-78.69823 -259.99997,-80 24.93906,96.23925 80.15274,168.2588 142.85717,234.28574"
       id="path4174"
       inkscape:connector-curvature="0"
       sodipodi:nodetypes="ccccccccc" />
    <path
       style="fill:none;stroke:#bdcbe0;stroke-width:37;stroke-linecap:butt;stroke-linejoin:miter;stroke-miterlimit:9;stroke-opacity:1;stroke-dasharray:none"
       d="m 1885.7142,1145.7145 c 99.7477,-151.25135 170.1165,-317.23695 182.8572,-517.14292 -148.0019,44.21219 -316.2238,147.10541 -411.4286,291.42856 20.7485,-238.74151 17.6629,-479.09961 -111.4286,-702.85712 -133.3835,189.49871 -198.7208,423.02053 -220,657.14284 -104.21,-96.76023 -213.3008,-186.77487 -339.99994,-208.57142 -5.60988,131.19632 82.00194,260.53254 159.99994,334.28566"
       id="path4172"
       inkscape:connector-curvature="0"
       sodipodi:nodetypes="ccccccc" />
    <ellipse
       style="color:#000000;fill:#92a5ce;fill-opacity:1;fill-rule:nonzero;stroke:none;stroke-width:1px;marker:none;visibility:visible;display:inline;overflow:visible;enable-background:accumulate"
       id="path4176"
       cx="958.45642"
       cy="631.01385"
       rx="51.339516"
       ry="54.548237"
       sodipodi:cx="958.45642"
       sodipodi:cy="631.01385"
       sodipodi:rx="51.339516"
       sodipodi:ry="54.548237"
       d="m 1009.7959,631.01385 c 0,30.12616 -22.98545,54.54824 -51.33948,54.54824 -28.35403,0 -51.33951,-24.42208 -51.33951,-54.54824 0,-30.12615 22.98548,-54.54823 51.33951,-54.54823 28.35403,0 51.33948,24.42208 51.33948,54.54823 z" />
    <ellipse
       style="color:#000000;fill:#bdcbe0;fill-opacity:1;fill-rule:nonzero;stroke:none;stroke-width:1px;marker:none;visibility:visible;display:inline;overflow:visible;enable-background:accumulate"
       id="path4178"
       cx="1151.5739"
       cy="381.5062"
       rx="78.791893"
       ry="77.781746"
       sodipodi:cx="1151.5739"
       sodipodi:cy="381.5062"
       sodipodi:rx="78.791893"
       sodipodi:ry="77.781746"
       d="m 1230.3657,381.5062 c 0,42.95767 -35.2763,77.78174 -78.7918,77.78174 -43.5156,0 -78.7919,-34.82407 -78.7919,-77.78174 0,-42.95768 35.2763,-77.78175 78.7919,-77.78175 43.5155,0 78.7918,34.82407 78.7918,77.78175 z" />
    <ellipse
       style="color:#000000;fill:#92a5ce;fill-opacity:1;fill-rule:nonzero;stroke:none;stroke-width:1px;marker:none;visibility:visible;display:inline;overflow:visible;enable-background:accumulate"
       id="path4180"
       cx="1552.6044"
       cy="144.12035"
       rx="93.944183"
       ry="109.09647"
       sodipodi:cx="1552.6044"
       sodipodi:cy="144.12035"
       sodipodi:rx="93.944183"
       sodipodi:ry="109.09647"
       d="m 1646.5486,144.12035 c 0,60.25231 -42.0603,109.09647 -93.9442,109.09647 -51.884,0 -93.9442,-48.84416 -93.9442,-109.09647 0,-60.252323 42.0602,-109.096478 93.9442,-109.096478 51.8839,0 93.9442,48.844155 93.9442,109.096478 z" />
    <ellipse
       style="color:#000000;fill:#bdcbe0;fill-opacity:1;fill-rule:nonzero;stroke:none;stroke-width:1px;marker:none;visibility:visible;display:inline;overflow:visible;enable-background:accumulate"
       id="path4182"
       cx="1915.2491"
       cy="312.81583"
       rx="74.751289"
       ry="79.802048"
       sodipodi:cx="1915.2491"
       sodipodi:cy="312.81583"
       sodipodi:rx="74.751289"
       sodipodi:ry="79.802048"
       d="m 1990.0004,312.81583 c 0,44.07345 -33.4673,79.80204 -74.7513,79.80204 -41.284,0 -74.7512,-35.72859 -74.7512,-79.80204 0,-44.07346 33.4672,-79.80205 74.7512,-79.80205 41.284,0 74.7513,35.72859 74.7513,79.80205 z" />
    <ellipse
       style="color:#000000;fill:#92a5ce;fill-opacity:1;fill-rule:nonzero;stroke:none;stroke-width:1px;marker:none;visibility:visible;display:inline;overflow:visible;enable-background:accumulate"
       id="path4184"
       cx="2096.0667"
       cy="589.5976"
       rx="51.51778"
       ry="53.538082"
       sodipodi:cx="2096.0667"
       sodipodi:cy="589.5976"
       sodipodi:rx="51.51778"
       sodipodi:ry="53.538082"
       d="m 2147.5844,589.5976 c 0,29.56826 -23.0653,53.53808 -51.5177,53.53808 -28.4525,0 -51.5178,-23.96982 -51.5178,-53.53808 0,-29.56827 23.0653,-53.53809 51.5178,-53.53809 28.4524,0 51.5177,23.96982 51.5177,53.53809 z" />
  </g>
  <g
     inkscape:groupmode="layer"
     id="layer7"
     inkscape:label="Rear Mane"
     style="display:inline"
     sodipodi:insensitive="true"
     transform="translate(1111.2129,-35.023872)">
    <!--S.i.g.m.a-->
    <path
       style="fill:#ba98da;fill-opacity:1;stroke:none"
       d="m 2765.7976,2635.1565 c 4.1867,149.6197 -27.9334,294.0526 -60.6092,438.4062 l 301.0255,-149.5026 -92.934,-400.0204 z"
       id="path4480"
       inkscape:connector-curvature="0"
       sodipodi:nodetypes="ccccc" />
    <path
       style="fill:#ba98da;fill-opacity:1;stroke:#936fb6;stroke-width:57;stroke-linecap:butt;stroke-linejoin:miter;stroke-miterlimit:4;stroke-opacity:1;stroke-dasharray:none"
       d="M 2699.1275,1829.0548 C 2428.32,1471.0965 2094.395,1160.6038 1701.0968,972.44542 1458.7639,856.5106 1258.1025,905.92659 1066.7211,996.68908 732.78845,1155.0564 467.56551,1385.01 331.33003,1732.0801 196.16074,2076.434 349.791,2352.0974 715.18798,2463.4305"
       id="path4169"
       inkscape:connector-curvature="0"
       sodipodi:nodetypes="csssc" />
  </g>
  <g
     inkscape:groupmode="layer"
     id="layer9"
     inkscape:label="Head"
     style="display:inline"
     sodipodi:insensitive="true"
     transform="translate(1111.2129,-35.023872)">
    <path
       style="fill:#fac4fb;fill-opacity:1;stroke:none"
       d="m 1244.5079,1566.4151 c -736.88275,485.22 -677.86722,1358.7586 -436.38589,1733.4217 -89.17582,60.9251 -53.73746,144.5074 -28.28427,226.2742 225.34196,355.2618 544.25246,336.2496 852.56876,359.6143 389.8145,-55.6393 767.1341,-161.2579 1135.4114,-303.0458 l -6.0609,-882.8733 -288.9036,-571.7463 z"
       id="path4199"
       inkscape:connector-curvature="0"
       sodipodi:nodetypes="cccccccc" />
    <path
       style="font-style:normal;font-variant:normal;font-weight:normal;font-stretch:normal;text-indent:0;text-align:start;text-decoration:none;line-height:normal;letter-spacing:normal;word-spacing:normal;text-transform:none;direction:ltr;block-progression:tb;writing-mode:lr-tb;text-anchor:start;baseline-shift:baseline;color:#000000;fill:#e99ad3;fill-opacity:1;stroke:none;stroke-width:57;marker:none;visibility:visible;display:inline;overflow:visible;enable-background:accumulate;font-family:sans-serif;-inkscape-font-specification:sans-serif"
       d="m 810.75781,3286.0059 c -50.98976,6.4007 -89.14946,43.2416 -98.04883,90.8046 -8.89936,47.563 5.30727,103.4944 39.75196,163.1543 151.46773,262.3498 436.51206,355.4001 725.15626,365.4336 218.5072,7.5955 465.4063,-19.2276 655.9542,-126.095 -231.6957,60.8179 -443.6131,76.4406 -653.9737,69.1282 -277.8828,-9.6594 -538.83447,-96.3173 -677.77348,-336.9668 -29.90671,-51.7999 -38.2744,-96.4504 -33.08789,-124.1699 5.18651,-27.7195 17.65987,-41.941 49.07812,-44.7285 112.98691,-10.0243 208.87195,-74.4062 208.15105,-191.5694 -57.28952,103.05 -134.64716,124.8962 -215.20769,135.0089 z"
       id="path4187"
       inkscape:connector-curvature="0"
       sodipodi:nodetypes="sssscsssscs" />
    <path
       style="fill:#e99ad3;fill-opacity:1;stroke:none"
       d="m 1571.4285,3545.5707 c 64.7619,9.4083 129.5238,36.9994 196.306,16.1031 -64.7511,-9.4732 -126.29,-38.2196 -196.306,-16.1031 z"
       id="path4189"
       inkscape:connector-curvature="0"
       sodipodi:nodetypes="ccc" />
    <path
       style="fill:#e99ad3;fill-opacity:1;stroke:none"
       d="m 908.57141,3451.4287 c 50.72152,9.3738 74.5343,-7.674 97.14289,-45.7143 25.7462,76.1944 -56.50361,96.5427 -97.14289,45.7143 z"
       id="path4191"
       inkscape:connector-curvature="0"
       sodipodi:nodetypes="ccc" />
    <path
       style="fill:#e99ad3;fill-opacity:1;stroke:none"
       d="m 925.71426,3685.7144 c 116.15704,-27.1307 167.42114,-100.0663 185.71424,-205.7143 31.0243,105.963 -28.698,215.4045 -128.57138,242.8571 z"
       id="path4193"
       inkscape:connector-curvature="0"
       sodipodi:nodetypes="cccc" />
    <path
       style="fill:none;stroke:#e99ad3;stroke-width:57;stroke-linecap:butt;stroke-linejoin:miter;stroke-miterlimit:4;stroke-opacity:1;stroke-dasharray:none"
       d="m 2757.7164,2659.4001 c 7.8919,112.1223 -3.8908,231.9942 -44.4467,321.2285"
       id="path4478"
       inkscape:connector-curvature="0"
       sodipodi:nodetypes="cc" />
  </g>
  <g
     inkscape:groupmode="layer"
     id="layer11"
     inkscape:label="Lower Eyelashes"
     sodipodi:insensitive="true"
     style="display:inline"
     transform="translate(1111.2129,-35.023872)">
    <path
       style="fill:#000000;stroke:none"
       d="m 2363.7569,3003.8622 c 72.731,28.0988 145.4619,41.0753 218.1929,34.3451 -61.9927,37.309 -182.3239,27.8735 -218.1929,15.1523 z"
       id="path4217"
       inkscape:connector-curvature="0"
       sodipodi:nodetypes="cccc" />
    <path
       sodipodi:nodetypes="cccc"
       inkscape:connector-curvature="0"
       id="path4219"
       d="m 2355.6757,3081.6439 c 72.731,28.0988 145.4619,41.0753 218.1929,34.3451 -61.9927,37.309 -182.3239,27.8735 -218.1929,15.1523 z"
       style="fill:#000000;stroke:none" />
  </g>
  <g
     inkscape:groupmode="layer"
     id="layer12"
     inkscape:label="Eyes"
     style="display:inline"
     sodipodi:insensitive="true"
     transform="translate(1111.2129,-35.023872)">
    <path
       style="fill:#ffffff;stroke:none"
       d="m 625.71427,2765.7144 c 8.61787,193.7979 35.04097,383.1445 134.28571,554.2857 l 282.85712,-42.8572 45.7143,-354.2857 z"
       id="path4236"
       inkscape:connector-curvature="0"
       sodipodi:nodetypes="ccccc"
       clip-path="url(#clipPath4294)" />
    <path
       style="fill:#ffffff;stroke:none"
       d="m 1354.2857,3008.5715 c 375.2211,-139.6609 740.3882,-78.2404 1108.5714,-77.1428 7.2852,182.2252 22.268,363.0508 -51.4286,559.9999 -321.9048,-9.1783 -643.8095,-1.1424 -965.7143,42.8572 -115.2264,-161.8565 -119.9747,-341.1569 -91.4285,-525.7143 z"
       id="path4234"
       inkscape:connector-curvature="0"
       sodipodi:nodetypes="ccccc"
       clip-path="url(#clipPath4278)" />
    <ellipse
       style="color:#000000;fill:url(#linearGradient4352);fill-opacity:1;fill-rule:nonzero;stroke:none;stroke-width:1px;marker:none;visibility:visible;display:inline;overflow:visible;enable-background:accumulate"
       id="path4222"
       cx="2454.0916"
       cy="2595.054"
       rx="367.69553"
       ry="411.13208"
       transform="matrix(0.97486462,0.22279807,-0.22279807,0.97486462,0,0)"
       clip-path="url(#clipPath4274)"
       sodipodi:cx="2454.0916"
       sodipodi:cy="2595.054"
       sodipodi:rx="367.69553"
       sodipodi:ry="411.13208"
       d="m 2821.7871,2595.054 c 0,227.0619 -164.6229,411.132 -367.6955,411.132 -203.0727,0 -367.6956,-184.0701 -367.6956,-411.132 0,-227.062 164.6229,-411.1321 367.6956,-411.1321 203.0726,0 367.6955,184.0701 367.6955,411.1321 z" />
    <ellipse
       style="color:#000000;fill:url(#linearGradient4360);fill-opacity:1;fill-rule:nonzero;stroke:none;stroke-width:1px;marker:none;visibility:visible;display:inline;overflow:visible;enable-background:accumulate"
       id="path4228"
       cx="876.81244"
       cy="2948.3037"
       rx="165.66501"
       ry="325.26913"
       clip-path="url(#clipPath4290)"
       sodipodi:cx="876.81244"
       sodipodi:cy="2948.3037"
       sodipodi:rx="165.66501"
       sodipodi:ry="325.26913"
       d="m 1042.4774,2948.3037 c 0,179.6412 -74.1707,325.2691 -165.66496,325.2691 -91.49426,0 -165.66501,-145.6279 -165.66501,-325.2691 0,-179.6412 74.17075,-325.2691 165.66501,-325.2691 91.49426,0 165.66496,145.6279 165.66496,325.2691 z" />
    <path
       style="fill:#f5fbfa;fill-opacity:1;stroke:none"
       d="m 1947.1428,3321.4287 55.7143,107.1428 77.1428,-65.7143 -74.2857,-75.7143 z"
       id="path4298"
       inkscape:connector-curvature="0"
       clip-path="url(#clipPath4326)" />
    <path
       style="fill:#a4c3dc;fill-opacity:1;stroke:none"
       d="m 1994.2857,3291.4286 88.5714,87.1429 65.7143,-100 -107.1429,-32.8571 z"
       id="path4300"
       inkscape:connector-curvature="0"
       sodipodi:nodetypes="ccccc"
       clip-path="url(#clipPath4322)" />
    <path
       style="fill:#f5fbfa;fill-opacity:1;stroke:none"
       d="m 847.14284,3208.5715 -38.57143,54.2857 -45.71429,-40 47.14286,-35.7143 z"
       id="path4310"
       inkscape:connector-curvature="0"
       clip-path="url(#clipPath4334)" />
    <path
       style="fill:#a4c3dc;fill-opacity:1;stroke:none"
       d="m 819.99998,3190.0001 -44.28571,37.1428 -40,-55.7142 54.28571,-24.2858 z"
       id="path4312"
       inkscape:connector-curvature="0"
       clip-path="url(#clipPath4330)" />
    <ellipse
       style="color:#000000;fill:#000000;fill-opacity:1;fill-rule:nonzero;stroke:none;stroke-width:1px;marker:none;visibility:visible;display:inline;overflow:visible;enable-background:accumulate"
       id="path4224"
       cx="2576.5959"
       cy="2522.8733"
       rx="304.88525"
       ry="335.59665"
       transform="matrix(0.97000526,0.24308392,-0.26874373,0.96321172,0,0)"
       clip-path="url(#clipPath4270)"
       sodipodi:cx="2576.5959"
       sodipodi:cy="2522.8733"
       sodipodi:rx="304.88525"
       sodipodi:ry="335.59665"
       d="m 2881.4812,2522.8733 c 0,185.3449 -136.5018,335.5966 -304.8853,335.5966 -168.3834,0 -304.8852,-150.2517 -304.8852,-335.5966 0,-185.3449 136.5018,-335.5967 304.8852,-335.5967 168.3835,0 304.8853,150.2518 304.8853,335.5967 z" />
    <ellipse
       style="color:#000000;fill:#ffffff;fill-opacity:1;fill-rule:nonzero;stroke:none;stroke-width:1px;marker:none;visibility:visible;display:inline;overflow:visible;enable-background:accumulate"
       id="path4226"
       cx="763.17267"
       cy="3637.2874"
       rx="168.2477"
       ry="246.49689"
       transform="matrix(0.85487733,-0.51883018,0.36190931,0.93221331,0,0)"
       clip-path="url(#clipPath4266)"
       sodipodi:cx="763.17267"
       sodipodi:cy="3637.2874"
       sodipodi:rx="168.2477"
       sodipodi:ry="246.49689"
       d="m 931.42036,3637.2874 c 0,136.1364 -75.32705,246.4968 -168.24769,246.4968 -92.92064,0 -168.2477,-110.3604 -168.2477,-246.4968 0,-136.1365 75.32706,-246.4969 168.2477,-246.4969 92.92064,0 168.24769,110.3604 168.24769,246.4969 z" />
    <ellipse
       style="color:#000000;fill:#ffffff;fill-opacity:1;fill-rule:nonzero;stroke:none;stroke-width:1px;marker:none;visibility:visible;display:inline;overflow:visible;enable-background:accumulate"
       id="path4342"
       cx="3241.7974"
       cy="1371.0808"
       rx="53.033009"
       ry="75.256363"
       transform="matrix(0.78217696,0.62305635,-0.62305635,0.78217696,0,0)"
       sodipodi:cx="3241.7974"
       sodipodi:cy="1371.0808"
       sodipodi:rx="53.033009"
       sodipodi:ry="75.256363"
       d="m 3294.8304,1371.0808 c 0,41.563 -23.7437,75.2564 -53.033,75.2564 -29.2894,0 -53.033,-33.6934 -53.033,-75.2564 0,-41.5629 23.7436,-75.2564 53.033,-75.2564 29.2893,0 53.033,33.6935 53.033,75.2564 z" />
    <ellipse
       style="color:#000000;fill:#ffffff;fill-opacity:1;fill-rule:nonzero;stroke:none;stroke-width:1px;marker:none;visibility:visible;display:inline;overflow:visible;enable-background:accumulate"
       id="path4344"
       cx="3375.9875"
       cy="1823.4688"
       rx="36.304703"
       ry="41.066864"
       transform="matrix(0.85604507,0.51690119,-0.59438643,0.80417956,0,0)"
       sodipodi:cx="3375.9875"
       sodipodi:cy="1823.4688"
       sodipodi:rx="36.304703"
       sodipodi:ry="41.066864"
       d="m 3412.2923,1823.4688 c 0,22.6806 -16.2542,41.0668 -36.3048,41.0668 -20.0505,0 -36.3047,-18.3862 -36.3047,-41.0668 0,-22.6807 16.2542,-41.0669 36.3047,-41.0669 20.0506,0 36.3048,18.3862 36.3048,41.0669 z" />
    <ellipse
       style="color:#000000;fill:#000000;fill-opacity:1;fill-rule:nonzero;stroke:none;stroke-width:1px;marker:none;visibility:visible;display:inline;overflow:visible;enable-background:accumulate"
       id="path4230"
       cx="876.81238"
       cy="2961.4355"
       rx="133.34013"
       ry="273.75134"
       clip-path="url(#clipPath4286)"
       sodipodi:cx="876.81238"
       sodipodi:cy="2961.4355"
       sodipodi:rx="133.34013"
       sodipodi:ry="273.75134"
       d="m 1010.1525,2961.4355 c 0,151.1887 -59.6984,273.7514 -133.34012,273.7514 -73.64172,0 -133.34014,-122.5627 -133.34014,-273.7514 0,-151.1886 59.69842,-273.7513 133.34014,-273.7513 73.64172,0 133.34012,122.5627 133.34012,273.7513 z" />
    <ellipse
       style="color:#000000;fill:#ffffff;fill-opacity:1;fill-rule:nonzero;stroke:none;stroke-width:1px;marker:none;visibility:visible;display:inline;overflow:visible;enable-background:accumulate"
       id="path4232"
       cx="-567.96893"
       cy="2959.6726"
       rx="82.792793"
       ry="123.26103"
       transform="matrix(0.85596952,-0.51702629,0.47386825,0.88059575,0,0)"
       clip-path="url(#clipPath4282)"
       sodipodi:cx="-567.96893"
       sodipodi:cy="2959.6726"
       sodipodi:rx="82.792793"
       sodipodi:ry="123.26103"
       d="m -485.17614,2959.6726 c 0,68.0752 -37.0676,123.261 -82.79279,123.261 -45.7252,0 -82.7928,-55.1858 -82.7928,-123.261 0,-68.0752 37.0676,-123.261 82.7928,-123.261 45.72519,0 82.79279,55.1858 82.79279,123.261 z" />
    <ellipse
       style="color:#000000;fill:#ffffff;fill-opacity:1;fill-rule:nonzero;stroke:none;stroke-width:1px;marker:none;visibility:visible;display:inline;overflow:visible;enable-background:accumulate"
       id="path4338"
       cx="1304.0409"
       cy="2796.3276"
       rx="33.840111"
       ry="51.012703"
       transform="matrix(0.98462327,0.17469122,-0.17469122,0.98462327,0,0)"
       sodipodi:cx="1304.0409"
       sodipodi:cy="2796.3276"
       sodipodi:rx="33.840111"
       sodipodi:ry="51.012703"
       d="m 1337.881,2796.3276 c 0,28.1736 -15.1507,51.0127 -33.8401,51.0127 -18.6894,0 -33.8401,-22.8391 -33.8401,-51.0127 0,-28.1735 15.1507,-51.0127 33.8401,-51.0127 18.6894,0 33.8401,22.8392 33.8401,51.0127 z" />
    <ellipse
       style="color:#000000;fill:#ffffff;fill-opacity:1;fill-rule:nonzero;stroke:none;stroke-width:1px;marker:none;visibility:visible;display:inline;overflow:visible;enable-background:accumulate"
       id="path4340"
       cx="864.69055"
       cy="3042.7529"
       rx="22.223356"
       ry="30.809652"
       sodipodi:cx="864.69055"
       sodipodi:cy="3042.7529"
       sodipodi:rx="22.223356"
       sodipodi:ry="30.809652"
       d="m 886.91391,3042.7529 c 0,17.0157 -9.94974,30.8097 -22.22336,30.8097 -12.27362,0 -22.22335,-13.794 -22.22335,-30.8097 0,-17.0157 9.94973,-30.8096 22.22335,-30.8096 12.27362,0 22.22336,13.7939 22.22336,30.8096 z" />
  </g>
  <g
     inkscape:groupmode="layer"
     id="layer10"
     inkscape:label="Eye Clipping"
     style="opacity:0.5;display:none"
     sodipodi:insensitive="true"
     transform="translate(1111.2129,-35.023872)">
    <path
       style="fill:#00ff00;fill-opacity:1;stroke:#ff0000;stroke-width:1px;stroke-linecap:butt;stroke-linejoin:miter;stroke-opacity:1"
       d="m 1024.2947,2934.1616 c -115.08033,-69.9125 -229.61566,-141.3237 -365.67526,-153.5432 -7.87534,203.177 52.07379,418.1534 133.34013,517.1981 102.4788,-2.0259 195.4175,-22.337 234.00593,-146.8195 -0.5569,-69.8656 -1.1139,-141.5942 -1.6708,-216.8354 z"
       id="path4202"
       inkscape:connector-curvature="0"
       sodipodi:nodetypes="ccccc" />
    <path
       style="fill:#00ff00;fill-opacity:1;stroke:#ff0000;stroke-width:1px;stroke-linecap:butt;stroke-linejoin:miter;stroke-opacity:1"
       d="m 1402.0917,3031.1362 c -18.3453,158.0508 21.4197,369.8052 121.2183,454.5687 263.9865,-87.5466 541.4418,-94.2809 832.3657,-20.2031 16.1258,-176.233 53.946,-362.4145 14.1421,-503.0559 -326.3932,-23.808 -657.2483,-34.825 -967.7261,68.6903 z"
       id="path4204"
       inkscape:connector-curvature="0"
       sodipodi:nodetypes="ccccc" />
  </g>
  <g
     inkscape:groupmode="layer"
     id="layer13"
     inkscape:label="Upper Eyelashes"
     style="display:inline"
     sodipodi:insensitive="true"
     transform="translate(1111.2129,-35.023872)">
    <path
       style="fill:none;stroke:#e99ad3;stroke-width:57;stroke-linecap:butt;stroke-linejoin:miter;stroke-miterlimit:4;stroke-opacity:1;stroke-dasharray:none"
       d="M 805.71426,3311.4287 C 530.09329,2712.9148 601.83378,1927.2185 1242.8571,1580.0002"
       id="path4392"
       inkscape:connector-curvature="0"
       sodipodi:nodetypes="cc" />
    <path
       style="fill:#000000;stroke:none"
       d="m 1013.1221,2949.2936 c 6.6,85.5262 4.6482,169.0322 1.0101,254.5584 19.5663,-78.5409 33.3381,-155.5626 34.3452,-239.4061 z"
       id="path4384"
       inkscape:connector-curvature="0"
       sodipodi:nodetypes="cccc" />
    <path
       style="font-style:normal;font-variant:normal;font-weight:normal;font-stretch:normal;text-indent:0;text-align:start;text-decoration:none;line-height:normal;letter-spacing:normal;word-spacing:normal;text-transform:none;direction:ltr;block-progression:tb;writing-mode:lr-tb;text-anchor:start;baseline-shift:baseline;color:#000000;fill:#e99ad3;fill-opacity:1;stroke:none;stroke-width:57;marker:none;visibility:visible;display:inline;overflow:visible;enable-background:accumulate;font-family:sans-serif;-inkscape-font-specification:sans-serif"
       d="m 810.75781,3286.0059 c -50.98976,6.4007 -89.14946,43.2416 -98.04883,90.8046 l 56.02735,10.4844 c 5.18651,-27.7195 17.65987,-41.941 49.07812,-44.7285 112.98691,-10.0243 208.87195,-74.4062 208.15105,-191.5694 -57.28952,103.05 -134.64716,124.8962 -215.20769,135.0089 z"
       id="path4187-4"
       inkscape:connector-curvature="0"
       sodipodi:nodetypes="sccscs" />
    <path
       style="fill:#000000;stroke:none"
       d="m 702.74329,2841.5723 c -34.47402,52.6078 -121.74044,84.0134 -179.88616,79.8564 52.0145,43.9585 142.92918,12.3008 188.52937,-32.5403 z"
       id="path4378"
       inkscape:connector-curvature="0"
       sodipodi:nodetypes="cccc"
       mask="url(#mask4413)" />
    <path
       style="fill:#000000;stroke:none"
       d="m 698.18273,2806.7246 c -62.11143,22.0038 -139.87088,15.4379 -198.18274,-13.8674 35.87941,63.8158 139.46055,77.6254 204.17186,55.8876 z"
       id="path4380"
       inkscape:connector-curvature="0"
       sodipodi:nodetypes="cccc"
       mask="url(#mask4409)" />
    <path
       style="fill:#000000;stroke:none"
       d="m 1067.1428,2780.0001 c 3.7311,42.2632 -0.4991,74.5897 -2.8571,105.7143 -2.8511,37.6334 -13.9964,45.455 -68.57144,4.2857 -99.28247,-74.8949 -212.23314,-99.3846 -322.85713,-122.8571 -69.97014,-14.8465 -110.28647,-47.3003 -158.57142,-120 19.78913,82.773 76.13802,137.5721 161.42856,154.2857 122.24042,23.9543 267.09463,88.0329 324.2857,158.5713 35.37363,43.6292 64.18753,36.4551 75.71423,1.4287 21.3075,-64.747 9.5449,-132.7049 -8.5714,-181.4286 z"
       id="path4382"
       inkscape:connector-curvature="0"
       sodipodi:nodetypes="cssscsssc" />
    <path
       style="fill:#000000;stroke:none"
       d="m 1416.0521,3275.862 c -26.2719,-50.6154 -35.6695,-155.5411 -24.0619,-238.6649 l 29.2944,-4.0406 c -16.8547,82.4352 -14.5004,191.132 -5.2325,242.7055 z"
       id="path4386"
       inkscape:connector-curvature="0"
       sodipodi:nodetypes="cccc" />
    <path
       style="fill:#000000;stroke:none"
       d="m 1373.8074,2839.2073 c -3.0777,40.4061 -8.8654,82.838 -8.0812,123.2386 1.1186,57.6291 26.6498,45.4157 77.7817,28.2842 288.7811,-96.7546 678.5316,-69.8076 912.1678,-46.467 82.2352,8.2154 133.2528,-17.38 193.9493,-98.9949 -23.907,95.4682 -92.9493,157.7193 -200.0102,141.4213 -290.3599,-44.2017 -679.183,-11.9114 -903.0764,59.599 -37.7729,12.0645 -133.6708,38.5914 -131.3198,-27.2741 1.9366,-54.2543 29.518,-122.1837 58.5888,-179.8071 z"
       id="path4388"
       inkscape:connector-curvature="0"
       sodipodi:nodetypes="cssscsssc" />
    <path
       style="fill:#e99ad3;fill-opacity:1;stroke:none"
       d="m 1467.1428,3512.8572 c 188.0926,-72.5959 663.8803,-101.8836 925.7143,-42.8571 -195.7143,-95.7143 -757.6323,-96.8656 -925.7143,42.8571 z"
       id="path4390"
       inkscape:connector-curvature="0"
       sodipodi:nodetypes="ccc" />
  </g>
  <g
     inkscape:groupmode="layer"
     id="layer14"
     inkscape:label="Front Mane"
     style="display:inline"
     sodipodi:insensitive="true"
     transform="translate(1111.2129,-35.023872)">
    <path
       style="fill:#ba98da;fill-opacity:1;stroke:none"
       d="m 2816,2640 -60,248 c -176.6272,126.1184 -348.5498,266.3507 -504,456 -240.6555,373.9963 -143.8942,724.8536 124,840 -92.571,59.0492 -182.0517,130.4598 -264,232 -66.9259,214.3663 -24.9943,368.2561 100,476 188.5166,113.8428 344.7615,79.2365 480,-52 -126.5382,-14.4297 -203.4337,-66.0914 -160,-208 52.2004,-132.1155 150.7318,-136.821 244,-156 l 464,-400 c -20.2055,-107.3992 -93.4481,-207.2217 -188,-304 -97.9409,-103.8106 -154.0232,-230.876 -156,-388 172.2834,-125.2897 371.88,-246.3774 412,-392 48.8822,-269.4195 -46.2549,-481.2314 -264,-644 z"
       id="path4484"
       inkscape:connector-curvature="0"
       sodipodi:nodetypes="ccccccccccccccc" />
    <path
       style="fill:#ffffff;stroke:none"
       d="m 2877.1428,2460.0001 c 85.2847,67.8338 137.7392,152.1361 177.1428,242.8571 49.2621,113.4188 16.0751,199.8511 -42.8571,274.2857 -148.8278,187.9779 -383.23,328.7532 -545.7143,502.8572 -171.7418,184.0236 -257.4217,438.3297 65.7143,551.4285 -69.3448,109.2872 -153.0347,161.1945 -237.1428,211.4286 -310.5879,222.2432 -216.6468,462.4117 -162.8572,568.5714 6.2189,-117.7244 40.7409,-242.3841 140.0288,-334.4006 152.4197,-141.2572 340.2917,-227.4953 531.3998,-268.4565 l 202.8571,-137.1429 c 94.105,-85.2682 74.3721,-189.5094 34.2857,-297.1428 -94.1061,-117.2028 -142.1172,-249.7705 -145.7143,-397.1429 l 351.4286,-245.7142 c 135.5727,-322.8856 95.109,-586.0446 -191.4286,-765.7143 z"
       id="path4482"
       inkscape:connector-curvature="0"
       sodipodi:nodetypes="cssscccsccccccc" />
    <path
       style="fill:#ba98da;fill-opacity:1;stroke:none;display:inline"
       d="M 2699.1275,1829.0548 C 2428.32,1471.0965 2094.395,1160.6038 1701.0968,972.44539 1458.7639,856.51057 1253.9584,897.65952 1066.7211,996.68905 740.00467,1169.4888 507.15028,1334.88 367.69552,1675.5116 L 1046.518,1453.278 c 123.0552,-83.2613 125.4316,-5.6177 157.5838,32.3249 -39.6882,243.7835 -4.9443,487.5669 40.4061,731.3504 197.6706,307.3386 476.1405,364.934 791.9596,307.0864 212.0408,-77.5363 387.1375,-192.0166 545.4823,-323.2488 z"
       id="path4169-6-7"
       inkscape:connector-curvature="0"
       sodipodi:nodetypes="cssccccccc" />
    <path
       style="fill:#ffffff;stroke:none"
       d="m 1348.5714,905.71443 c 148.3182,70.51019 203.606,221.15987 228.5714,388.57137 31.3377,210.1427 5.5084,442.5216 -13.1022,651.4286 -21.8065,244.7824 -16.2122,546.0467 270.2451,591.4286 196.965,7.839 384.1464,-73.8205 532.8151,-178.673 -170.6868,-1.0821 -249.784,-102.8904 -289.958,-255.6127 -39.4602,-150.0089 7.7357,-471.9476 -17.1429,-688.5715 -15.8705,-138.1882 -59.2536,-243.6035 -131.4285,-322.8571 -187.6908,-114.56839 -376.4378,-219.2793 -580,-185.71427 z"
       id="path4439"
       inkscape:connector-curvature="0"
       sodipodi:nodetypes="cssccsscc" />
    <path
       style="fill:none;stroke:#936fb6;stroke-width:57;stroke-linecap:butt;stroke-linejoin:miter;stroke-miterlimit:4;stroke-opacity:1;stroke-dasharray:none;display:inline"
       d="M 2699.1275,1829.0548 C 2428.32,1471.0965 2094.395,1160.6038 1701.0968,972.44539 1458.7639,856.51057 1258.1025,905.92656 1066.7211,996.68905 732.78845,1155.0564 467.56551,1385.01 331.33003,1732.0801"
       id="path4169-6"
       inkscape:connector-curvature="0"
       sodipodi:nodetypes="cssc" />
    <path
       style="font-style:normal;font-variant:normal;font-weight:normal;font-stretch:normal;text-indent:0;text-align:start;text-decoration:none;line-height:normal;letter-spacing:normal;word-spacing:normal;text-transform:none;direction:ltr;block-progression:tb;writing-mode:lr-tb;text-anchor:start;baseline-shift:baseline;color:#000000;fill:#936fb6;fill-opacity:1;stroke:none;stroke-width:57;marker:none;visibility:visible;display:inline;overflow:visible;enable-background:accumulate;font-family:sans-serif;-inkscape-font-specification:sans-serif"
       d="m 1134.043,1390.2148 c -13.4408,0.1038 -27.7334,1.7294 -40.834,8.045 -112.36263,54.1683 -197.75298,167.9421 -242.84832,272.0614 70.61894,-90.1666 159.07762,-178.4579 262.60412,-218.5946 13.825,-5.3599 23.5252,-5.2513 29.9786,-3.5078 6.4533,1.7434 11.3415,5.0107 16.9238,13.6914 11.1646,17.3613 19.4653,58.1409 13.8398,118 -19.7759,210.4295 -4.3749,445.836 55.8965,625.8867 59.3355,177.2546 191.1896,281.5141 342.0918,329.8535 150.9022,48.3394 321.1122,43.3856 467.4297,8.0098 220.7702,-53.3766 376.7877,-185.052 535.2734,-299.5645 l -33.3828,-46.2031 c -160.7651,116.1595 -309.4404,240.5948 -515.2871,290.3633 -137.5662,33.2599 -298.8304,37.2581 -436.6445,-6.8887 -137.8141,-44.1469 -251.9176,-133.8116 -305.4278,-293.6641 -56.3943,-168.4685 -72.3357,-398.8329 -53.1992,-602.459 6.2505,-66.5089 0.7875,-117.7234 -22.6465,-154.164 -11.717,-18.2203 -29.3357,-32.306 -50,-37.8887 -7.749,-2.0935 -15.703,-3.0388 -23.7675,-2.9766 z"
       id="path4433"
       inkscape:connector-curvature="0"
       sodipodi:nodetypes="sscscsssssccsssssss" />
    <path
       style="font-style:normal;font-variant:normal;font-weight:normal;font-stretch:normal;text-indent:0;text-align:start;text-decoration:none;line-height:normal;letter-spacing:normal;word-spacing:normal;text-transform:none;direction:ltr;block-progression:tb;writing-mode:lr-tb;text-anchor:start;baseline-shift:baseline;color:#000000;fill:#936fb6;fill-opacity:1;stroke:none;stroke-width:57;marker:none;visibility:visible;display:inline;overflow:visible;enable-background:accumulate;font-family:sans-serif;-inkscape-font-specification:sans-serif"
       d="m 3057.2695,2333.9473 -23.1113,52.1054 c 137.51,60.992 224.2254,214.1533 249.3242,371.7578 25.0988,157.6046 -13.4453,313.8884 -106.7715,380.3633 -212.5477,151.3945 -465.1339,310.4053 -545.4199,548.309 139.9272,-206.5632 363.796,-348.9597 578.4902,-501.8832 120.2948,-85.6842 157.3706,-263.8331 129.9922,-435.7519 -27.3784,-171.9189 -121.2387,-343.3719 -282.5039,-414.9004 z"
       id="path4456"
       inkscape:connector-curvature="0"
       sodipodi:nodetypes="ccsscssc" />
    <path
       style="fill:none;stroke:#936fb6;stroke-width:57;stroke-linecap:butt;stroke-linejoin:miter;stroke-miterlimit:4;stroke-opacity:1;stroke-dasharray:none"
       d="m 2907.2189,3370.5475 c -23.5678,161.16 40.5768,287.9904 117.1777,377.797 83.3495,97.7186 180.0695,166.8347 210.1118,329.3098"
       id="path4462"
       inkscape:connector-curvature="0"
       sodipodi:nodetypes="csc" />
    <path
       style="font-style:normal;font-variant:normal;font-weight:normal;font-stretch:normal;text-indent:0;text-align:start;text-decoration:none;line-height:normal;letter-spacing:normal;word-spacing:normal;text-transform:none;direction:ltr;block-progression:tb;writing-mode:lr-tb;text-anchor:start;baseline-shift:baseline;color:#000000;fill:#936fb6;fill-opacity:1;stroke:none;stroke-width:57;marker:none;visibility:visible;display:inline;overflow:visible;enable-background:accumulate;font-family:sans-serif;-inkscape-font-specification:sans-serif"
       d="m 2200.207,3377.4102 c -87.6875,155.1997 -128.3055,320.7661 -105.4433,470.2421 22.8621,149.476 111.5136,281.8187 273.6972,362.7286 l 25.4453,-51.0059 c -147.7461,-73.7073 -222.4323,-187.1936 -242.7968,-320.3398 -20.3645,-133.1463 15.9005,-286.9962 98.7246,-433.5879 122.7729,-217.298 371.8697,-393.4102 539.7879,-538.2696 -181.5946,107.6788 -457.0596,275.9744 -589.4149,510.2325 z"
       id="path4464"
       inkscape:connector-curvature="0"
       sodipodi:nodetypes="ssccsscs" />
    <path
       style="font-style:normal;font-variant:normal;font-weight:normal;font-stretch:normal;text-indent:0;text-align:start;text-decoration:none;line-height:normal;letter-spacing:normal;word-spacing:normal;text-transform:none;direction:ltr;block-progression:tb;writing-mode:lr-tb;text-anchor:start;baseline-shift:baseline;color:#000000;fill:#936fb6;fill-opacity:1;stroke:none;stroke-width:57;marker:none;visibility:visible;display:inline;overflow:visible;enable-background:accumulate;font-family:sans-serif;-inkscape-font-specification:sans-serif"
       d="m 2307.6035,4200.1602 c -136.5948,75.0729 -237.9532,220.1885 -259.3359,371.3046 -21.3827,151.1161 44.1654,310.0123 233.3359,392.9414 160.6606,70.4309 338.8358,6.1578 432.4473,-95.7109 l -41.9688,-38.5683 c -76.8383,83.616 -233.5065,140.8577 -367.5937,82.0761 -169.9638,-74.5092 -218.3087,-201.828 -199.7832,-332.7519 18.5255,-130.924 110.8762,-263.6739 230.3515,-329.3379 149.4743,-82.1515 263.8368,-256.6258 280.4479,-384.1072 -48.0387,114.9552 -150.398,247.5899 -307.901,334.1541 z"
       id="path4470"
       inkscape:connector-curvature="0"
       sodipodi:nodetypes="sssccssscs" />
    <path
       style="fill:none;stroke:#936fb6;stroke-width:57;stroke-linecap:butt;stroke-linejoin:miter;stroke-miterlimit:4;stroke-opacity:1;stroke-dasharray:none"
       d="m 2749.6352,4483.7356 c -249.8444,2.0203 -350.0101,354.4587 -64.6498,345.4721"
       id="path4476"
       inkscape:connector-curvature="0"
       sodipodi:nodetypes="cc" />
  </g>
  <g
     inkscape:groupmode="layer"
     id="layer17"
     inkscape:label="Ear"
     sodipodi:insensitive="true"
     transform="translate(1111.2129,-35.023872)">
    <path
       style="fill:#fac4fb;fill-opacity:1;stroke:none"
       d="m 2716,2780 c 533.7235,-338.7452 575.3246,-779.6081 398.3431,-1166.1421 -80.9388,-176.7734 -161.3415,-240.6965 -294.6274,-99.7158 C 2575.0264,1772.9578 2512.6021,2034.5424 2500,2352"
       id="path4620-5"
       inkscape:connector-curvature="0"
       sodipodi:nodetypes="cssc" />
    <path
       style="font-style:normal;font-variant:normal;font-weight:normal;font-stretch:normal;text-indent:0;text-align:start;text-decoration:none;line-height:normal;letter-spacing:normal;word-spacing:normal;text-transform:none;direction:ltr;block-progression:tb;writing-mode:lr-tb;text-anchor:start;baseline-shift:baseline;color:#000000;fill:#e99ad3;fill-opacity:1;stroke:none;stroke-width:57;marker:none;visibility:visible;display:inline;overflow:visible;enable-background:accumulate;font-family:sans-serif;-inkscape-font-specification:sans-serif"
       d="m 2950.207,1408.8965 c -16.6033,0.025 -33.605,3.3628 -50.2363,10.0469 -33.2626,13.3681 -65.922,38.5532 -100.9648,75.6191 -249.6129,264.0235 -328.9011,586.6535 -297.7175,856.7637 28.3552,-275.7761 99.3716,-563.9976 339.1374,-817.6055 31.6001,-33.4245 58.9719,-53.1157 80.8008,-61.8887 21.8289,-8.7729 37.2387,-8.198 54.0351,-0.8691 33.5928,14.6577 73.6443,68.4386 113.168,154.7598 86.4315,188.7694 118.6585,388.4042 65.7676,581.6015 -52.891,193.1973 -205.1892,396.2008 -459.8351,584.3225 288.4121,-120.1768 457.7165,-360.7178 514.8116,-569.2717 57.0951,-208.5539 21.6321,-422.6163 -68.9179,-620.3809 -41.4152,-90.4522 -82.0345,-157.0214 -142.1993,-183.2734 -15.0411,-6.563 -31.2462,-9.8497 -47.8496,-9.8242 z"
       id="path4620"
       inkscape:connector-curvature="0"
       sodipodi:nodetypes="csscssssscsssc" />
    <path
       style="fill:#e99ad3;fill-opacity:1;stroke:none"
       d="m 3054.7013,1768.0414 c 32.1213,195.148 -47.0092,409.9234 -189.5046,490.4895 106.6507,-122.6337 165.7804,-292.4682 189.5046,-490.4895 z"
       id="path4622"
       inkscape:connector-curvature="0"
       sodipodi:nodetypes="ccc" />
  </g>
  <g
     inkscape:groupmode="layer"
     id="layer15"
     inkscape:label="Forward Legs"
     sodipodi:insensitive="true"
     style="display:inline"
     transform="translate(1111.2129,-35.023872)">
    <path
       style="fill:#fac4fb;fill-opacity:1;stroke:none"
       d="m 2658.7215,5312.0606 c -105.8358,-8.2221 -220.0657,-90.4394 -288.4996,-169.7056 l -294.1564,147.0782 c -130.034,179.9428 -195.6435,369.7971 -130.1076,579.8276 l 48.0832,149.9066 820.2439,-22.6274 -158.3919,-93.3381 c 178.7836,-165.127 115.0866,-373.7761 2.8284,-591.1413 z"
       id="path4554"
       inkscape:connector-curvature="0"
       sodipodi:nodetypes="cccccccc" />
    <path
       style="fill:#fac4fb;fill-opacity:1;stroke:none"
       d="m 2232,5968 c -149.2589,-129.5449 -416.6923,-115.0425 -530,16 -63.1557,73.0407 -118.0942,180.8837 -144,278 -22.5227,84.4338 -3.071,169.87 102,182 195.7275,22.5959 383.6466,9.4737 588,-8 62.7845,-5.3685 91.2301,-35.2932 118,-68 30.2012,-36.8991 67.1852,-66.7659 118,-90 108.7343,-49.7167 228.0669,-72.1928 356,-90 215.1939,-29.9531 -45.1386,-233.8072 -174,-284"
       id="path4533-4"
       inkscape:connector-curvature="0"
       sodipodi:nodetypes="csssssssc" />
    <path
       style="fill:#fac4fb;fill-opacity:1;stroke:none;display:inline"
       d="m 2468.5714,5228.5715 c 170.2202,140.4061 315.3764,83.7715 488.5714,-77.1429 208.2279,-193.4633 418.6757,-470.1103 468.0824,-987.7096 10.8229,-113.3832 -70.365,-164.9893 -161.2203,-172.5339 -133.4482,-11.0814 -280.6355,14.171 -415.7788,62.2255 -119.2752,42.4119 -125.7451,118.3375 -115.9655,209.3034 26.5577,247.0281 19.6216,492.3551 -127.2792,695.7931"
       id="path4164-2-3"
       inkscape:connector-curvature="0"
       sodipodi:nodetypes="csssssc" />
    <path
       style="font-style:normal;font-variant:normal;font-weight:normal;font-stretch:normal;text-indent:0;text-align:start;text-decoration:none;line-height:normal;letter-spacing:normal;word-spacing:normal;text-transform:none;direction:ltr;block-progression:tb;writing-mode:lr-tb;text-anchor:start;baseline-shift:baseline;color:#000000;fill:#e99ad3;fill-opacity:1;stroke:none;stroke-width:57;marker:none;visibility:visible;display:inline;overflow:visible;enable-background:accumulate;font-family:sans-serif;-inkscape-font-specification:sans-serif"
       d="m 3187.2324,3960.1758 c -115.6516,1.6892 -236.1628,26.4183 -348.5547,66.3828 -64.5426,22.9501 -104.3893,58.6532 -123.0195,102.0547 -18.6302,43.4015 -16.7857,90.1615 -11.7344,137.1465 26.287,244.5098 -17.2649,533.0956 -116.0416,717.309 157.2234,-161.7865 199.5439,-473.8544 172.7155,-723.4008 -4.7284,-43.981 -4.5392,-80.6665 7.4394,-108.5723 11.9786,-27.9058 35.0057,-51.3701 89.7383,-70.832 131.9582,-46.922 275.7037,-71.3187 403.8711,-60.6758 40.7846,3.3867 77.6493,16.8152 101.75,39.0996 24.1006,22.2844 38.1891,52.7503 33.457,102.3242 -48.7705,510.9349 -253.7919,778.778 -459.1094,969.5371 -84.9103,78.8897 -161.1172,129.621 -231.8886,144.5606 -70.7715,14.9396 -138.5571,-2.0477 -219.1485,-68.5235 -26.5432,-21.8942 -65.4226,-57.5056 -107.0332,-101.1543 l -41.2558,39.3301 c 43.1452,45.2586 83.1844,82.0119 112.0175,105.7949 89.6289,73.9304 179.533,98.829 267.1934,80.3243 87.6604,-18.5048 170.6274,-76.5476 258.9121,-158.5723 211.1383,-196.1673 427.0119,-481.6171 477.0547,-1005.8809 6.0909,-63.8093 -15.0005,-115.8392 -51.5019,-149.5898 -36.5015,-33.7506 -85.6599,-49.8968 -135.7305,-54.0547 -26.0117,-2.16 -52.442,-2.9972 -79.1309,-2.6074 z"
       id="path4164-2"
       inkscape:connector-curvature="0"
       sodipodi:nodetypes="sssscsssssssssccsssssss" />
    <path
       style="font-style:normal;font-variant:normal;font-weight:normal;font-stretch:normal;text-indent:0;text-align:start;text-decoration:none;line-height:normal;letter-spacing:normal;word-spacing:normal;text-transform:none;direction:ltr;block-progression:tb;writing-mode:lr-tb;text-anchor:start;baseline-shift:baseline;color:#000000;fill:#e99ad3;fill-opacity:1;stroke:none;stroke-width:57;marker:none;visibility:visible;display:inline;overflow:visible;enable-background:accumulate;font-family:sans-serif;-inkscape-font-specification:sans-serif"
       d="m 2659.4746,5285.2617 -42.9492,37.4766 c 89.2699,102.3028 135.0761,233.6369 127.4922,349.4297 -8.7812,134.0739 -75.4322,239.1113 -258.5784,316.4734 194.8538,-32.6379 305.3485,-158.4358 315.4553,-312.7488 8.7287,-133.2722 -42.7196,-277.5209 -141.4199,-390.6309 z"
       id="path4521"
       inkscape:connector-curvature="0"
       sodipodi:nodetypes="ccscsc" />
    <path
       style="font-style:normal;font-variant:normal;font-weight:normal;font-stretch:normal;text-indent:0;text-align:start;text-decoration:none;line-height:normal;letter-spacing:normal;word-spacing:normal;text-transform:none;direction:ltr;block-progression:tb;writing-mode:lr-tb;text-anchor:start;baseline-shift:baseline;color:#000000;fill:#e99ad3;fill-opacity:1;stroke:none;stroke-width:57;marker:none;visibility:visible;display:inline;overflow:visible;enable-background:accumulate;font-family:sans-serif;-inkscape-font-specification:sans-serif"
       d="m 1938.752,5891.2207 50.496,-26.4414 c -95.7683,-182.8809 0.7631,-464.0035 109.4051,-592.9255 -155.358,99.078 -271.0918,407.0352 -159.9011,619.3669 z"
       id="path4527"
       inkscape:connector-curvature="0"
       sodipodi:nodetypes="cccc" />
    <path
       style="font-style:normal;font-variant:normal;font-weight:normal;font-stretch:normal;text-indent:0;text-align:start;text-decoration:none;line-height:normal;letter-spacing:normal;word-spacing:normal;text-transform:none;direction:ltr;block-progression:tb;writing-mode:lr-tb;text-anchor:start;baseline-shift:baseline;color:#000000;fill:#e99ad3;fill-opacity:1;stroke:none;stroke-width:57;marker:none;visibility:visible;display:inline;overflow:visible;enable-background:accumulate;font-family:sans-serif;-inkscape-font-specification:sans-serif"
       d="m 1952.4297,5849.8008 c -105.9086,4.0115 -208.4187,42.0391 -271.9883,115.5586 -66.8853,77.354 -122.8407,187.56 -149.9785,289.2949 -12.405,46.5041 -14.3483,95.2113 4.7402,137.2441 19.0886,42.0329 61.62,73.4978 121.5293,80.4141 199.0408,22.9784 389.071,9.5809 593.6953,-7.916 71.0139,-6.0722 109.9861,-44.5748 137.627,-78.3457 27.7524,-33.9072 60.6261,-60.5629 107.7969,-82.1309 104.5169,-47.7884 220.9915,-70.002 348.0781,-87.6914 29.4738,-4.1025 52.6942,-11.1302 71.123,-23.0293 18.4289,-11.899 31.6102,-30.5844 34.8106,-50.666 6.4007,-40.1631 -17.0558,-74.7584 -46.5567,-107.8945 -59.0016,-66.2723 -164.9066,-135.3756 -235.4481,-162.8522 l -20.6876,53.1132 c 58.3199,22.7162 163.982,91.9501 213.5635,147.6413 24.7907,27.8456 34.1231,52.9672 32.8398,61.0195 -0.6416,4.0262 -1.4211,6.5735 -9.4414,11.752 -8.0203,5.1785 -23.7378,11.0732 -48.0625,14.459 -128.7796,17.925 -250.9702,40.6636 -363.9219,92.3086 -54.4588,24.9002 -95.5531,57.9781 -128.2031,97.8691 -25.8989,31.6427 -43.8179,52.9895 -98.373,57.6543 -204.0825,17.4505 -389.8905,30.2974 -582.3047,8.084 -45.1617,-5.2137 -64.8916,-22.5313 -76.166,-47.3574 -11.2744,-24.8262 -11.6822,-61.0547 -1.5645,-98.9844 24.6738,-92.4977 78.5954,-197.9777 138.0215,-266.7051 49.7381,-57.523 137.5976,-92.3063 231.0488,-95.8808 93.4512,-3.5746 176.7006,-10.0818 289.6639,64.512 -79.3697,-97.9402 -193.2849,-125.204 -291.8416,-121.471 z"
       id="path4533"
       inkscape:connector-curvature="0"
       sodipodi:nodetypes="ssssssssssssccscsssssssssscs" />
  </g>
  <g
     inkscape:groupmode="layer"
     id="layer16"
     inkscape:label="Cutie Mark"
     sodipodi:insensitive="true"
     style="display:inline"
     transform="translate(1111.2129,-35.023872)">
    <path
       style="fill:none;stroke:#6e89bd;stroke-width:11;stroke-linecap:butt;stroke-linejoin:miter;stroke-miterlimit:9;stroke-opacity:1;stroke-dasharray:none"
       d="m 2473.4595,5750.4668 c -41.2883,-35.7564 -61.9115,-80.6972 -69.2964,-131.5218 53.6386,13.3346 93.3715,24.4684 123.0365,73.539 -18.8609,-117.3797 -29.652,-223.4457 9.8995,-335.1686 56.5072,104.666 59.4576,193.1893 59.397,319.6123 30.4695,-70.6627 50.4331,-101.2102 94.7523,-145.664 5.0251,54.2115 -7.9895,112.6657 -22.6274,162.6346"
       id="path4599"
       inkscape:connector-curvature="0"
       sodipodi:nodetypes="ccccccc" />
    <path
       style="fill:none;stroke:#6e89bd;stroke-width:11;stroke-linecap:butt;stroke-linejoin:miter;stroke-miterlimit:9;stroke-opacity:1;stroke-dasharray:none"
       d="m 2455.0747,5781.5795 c -28.64,-25.023 -42.0041,-55.1379 -48.0832,-87.6812 29.2271,0.4405 58.4541,6.2612 87.6812,25.4558 -29.9126,-60.2969 -55.229,-159.9797 -52.3259,-233.3452 69.168,50.2159 97.3338,108.2889 120.2082,190.2117 7.1806,-99.0855 22.2001,-176.4121 80.6101,-258.094 22.289,91.2578 15.0601,169.7291 -0.7071,253.1443 18.5661,-30.5689 33.6129,-48.3609 55.8615,-67.8823 3.0317,28.654 0.7102,59.9847 -11.3137,96.1665"
       id="path4601"
       inkscape:connector-curvature="0"
       sodipodi:nodetypes="ccccccccc" />
    <path
       style="font-style:normal;font-variant:normal;font-weight:normal;font-stretch:normal;text-indent:0;text-align:start;text-decoration:none;line-height:normal;letter-spacing:normal;word-spacing:normal;text-transform:none;direction:ltr;block-progression:tb;writing-mode:lr-tb;text-anchor:start;baseline-shift:baseline;color:#000000;fill:#6e89bd;fill-opacity:1;stroke:none;stroke-width:19;marker:none;visibility:visible;display:inline;overflow:visible;enable-background:accumulate;font-family:sans-serif;-inkscape-font-specification:sans-serif"
       d="m 2636.7871,5682.0645 c -65.2324,0.9338 -123.8519,23.4519 -169.4785,62.5781 -51.3178,44.0065 -29.2614,103.4925 25.5256,110.1746 -50.572,-27.2591 -39.4634,-73.1757 -13.2229,-95.6961 48.3961,-41.535 112.24,-64.7631 184.0039,-57.168 44.8014,4.7415 37.5983,52.2783 13.19,87.0223 37.8172,-26.7742 49.7427,-100.1531 -11.6626,-105.9598 -9.5673,-0.9047 -19.0366,-1.0845 -28.3555,-0.9511 z"
       id="path4603"
       inkscape:connector-curvature="0"
       sodipodi:nodetypes="sscsscss" />
    <ellipse
       style="color:#000000;fill:#6e89bd;fill-opacity:1;fill-rule:nonzero;stroke:none;stroke-width:1px;marker:none;visibility:visible;display:inline;overflow:visible;enable-background:accumulate"
       id="path4609"
       cx="2291.938"
       cy="5357.9033"
       rx="31.5"
       ry="44.544922"
       transform="matrix(1,0,0.0448985,0.99899155,0,0)"
       sodipodi:cx="2291.938"
       sodipodi:cy="5357.9033"
       sodipodi:rx="31.5"
       sodipodi:ry="44.544922"
       d="m 2323.438,5357.9033 c 0,24.6015 -14.103,44.5449 -31.5,44.5449 -17.397,0 -31.5,-19.9434 -31.5,-44.5449 0,-24.6015 14.103,-44.5449 31.5,-44.5449 17.397,0 31.5,19.9434 31.5,44.5449 z" />
    <ellipse
       style="color:#000000;fill:#6e89bd;fill-opacity:1;fill-rule:nonzero;stroke:none;stroke-width:1px;marker:none;visibility:visible;display:inline;overflow:visible;enable-background:accumulate"
       id="path4611"
       cx="1241.1154"
       cy="5866.8457"
       rx="25.5"
       ry="37.5"
       transform="matrix(0.97796814,-0.20875422,0.20875422,0.97796814,0,0)"
       sodipodi:cx="1241.1154"
       sodipodi:cy="5866.8457"
       sodipodi:rx="25.5"
       sodipodi:ry="37.5"
       d="m 1266.6154,5866.8457 c 0,20.7107 -11.4168,37.5 -25.5,37.5 -14.0833,0 -25.5,-16.7893 -25.5,-37.5 0,-20.7107 11.4167,-37.5 25.5,-37.5 14.0832,0 25.5,16.7893 25.5,37.5 z" />
    <ellipse
       style="color:#000000;fill:#6e89bd;fill-opacity:1;fill-rule:nonzero;stroke:none;stroke-width:1px;marker:none;visibility:visible;display:inline;overflow:visible;enable-background:accumulate"
       id="path4613"
       cx="1267.126"
       cy="5968.5244"
       rx="19.5"
       ry="28.5"
       transform="matrix(0.98101696,-0.19392196,0.19392196,0.98101696,0,0)"
       sodipodi:cx="1267.126"
       sodipodi:cy="5968.5244"
       sodipodi:rx="19.5"
       sodipodi:ry="28.5"
       d="m 1286.626,5968.5244 c 0,15.7401 -8.7305,28.5 -19.5,28.5 -10.7696,0 -19.5,-12.7599 -19.5,-28.5 0,-15.7401 8.7304,-28.5 19.5,-28.5 10.7695,0 19.5,12.7599 19.5,28.5 z" />
    <ellipse
       style="color:#000000;fill:#6e89bd;fill-opacity:1;fill-rule:nonzero;stroke:none;stroke-width:1px;marker:none;visibility:visible;display:inline;overflow:visible;enable-background:accumulate"
       id="path4615"
       cx="3422.3459"
       cy="4960.4106"
       rx="23"
       ry="30.5"
       transform="matrix(0.98886355,0.14882499,-0.14882499,0.98886355,0,0)"
       sodipodi:cx="3422.3459"
       sodipodi:cy="4960.4106"
       sodipodi:rx="23"
       sodipodi:ry="30.5"
       d="m 3445.3459,4960.4106 c 0,16.8447 -10.2974,30.5 -23,30.5 -12.7025,0 -23,-13.6553 -23,-30.5 0,-16.8446 10.2975,-30.5 23,-30.5 12.7026,0 23,13.6554 23,30.5 z" />
    <ellipse
       style="color:#000000;fill:#6e89bd;fill-opacity:1;fill-rule:nonzero;stroke:none;stroke-width:1px;marker:none;visibility:visible;display:inline;overflow:visible;enable-background:accumulate"
       id="path4617"
       cx="3442.2473"
       cy="5093.5591"
       rx="18"
       ry="24.5"
       transform="matrix(0.99029675,0.13896887,-0.13896887,0.99029675,0,0)"
       sodipodi:cx="3442.2473"
       sodipodi:cy="5093.5591"
       sodipodi:rx="18"
       sodipodi:ry="24.5"
       d="m 3460.2473,5093.5591 c 0,13.531 -8.0589,24.5 -18,24.5 -9.9411,0 -18,-10.969 -18,-24.5 0,-13.531 8.0589,-24.5 18,-24.5 9.9411,0 18,10.969 18,24.5 z" />
  </g>
  <!--Created by Sigma
      http://90sigma.deviantart.com/-->
</svg>
