<?xml version="1.0" encoding="UTF-8"?><svg xmlns="http://www.w3.org/2000/svg" xmlns:xlink="http://www.w3.org/1999/xlink" version="1.1" viewBox="0 0 6449.5044 6449.4971" width="6449.5044" height="6449.4971"><defs id="defs3000"><linearGradient id="linearGradient4346"><stop id="stop4348" stop-color="#8ecfe0" offset="0"/><stop id="stop4350" stop-color="#255eaa" offset="1"/></linearGradient><clipPath id="clipPath4266" clipPathUnits="userSpaceOnUse"><path id="path4268" opacity=".5" d="m213.32 3370.3c-75.456 127.55-115.64 332.34-52.312 458.51 282.09 63.088 547.23 203.43 795.43 421.03 80.06-144.5 184.26-286.2 198.26-429.3-300.24-192.6-609.41-376.5-941.38-450.2z" stroke="#f00" stroke-width="1.0077px" fill="#0f0"/></clipPath><clipPath id="clipPath4270" clipPathUnits="userSpaceOnUse"><path id="path4272" opacity=".5" d="m2165.9 2600.3c24.814 157.83 120.06 353.63 239.01 411.61 230.83-149.14 496.36-223.15 796.6-222.01-31.84-174.93-45.451-364.79-121.61-491.58-320.9 56.267-642.65 126.03-913.99 301.98z" stroke="#f00" stroke-width="1.0002px" fill="#0f0"/></clipPath><clipPath id="clipPath4274" clipPathUnits="userSpaceOnUse"><path id="path4276" opacity=".5" d="m2042.2 2642.6c17.329 158.17 103.27 355.74 219.45 416.14 237.85-144.16 506.83-212.54 806.94-205.14-23.544-175.4-28.155-365.32-98.293-493.56-323.49 49.51-648.49 112.48-928.1 282.57z" stroke="#f00" stroke-width="1px" fill="#0f0"/></clipPath><clipPath id="clipPath4278" clipPathUnits="userSpaceOnUse"><path id="path4280" opacity=".5" d="m1402.1 3031.1c-18.345 158.05 21.42 369.81 121.22 454.57 263.99-87.547 541.44-94.281 832.37-20.203 16.126-176.23 53.946-362.41 14.142-503.06-326.39-23.808-657.25-34.825-967.73 68.69z" stroke="#f00" stroke-width="1px" fill="#0f0"/></clipPath><clipPath id="clipPath4282" clipPathUnits="userSpaceOnUse"><path id="path4284" opacity=".5" d="m-489.02 3044.9c-68.294-119.49-135.4-239.98-249.56-320.89-103.34 170.05-152.48 385.33-127.82 512.28 91.315 51.314 182.89 82.018 275.98-4.6916 32.657-60.165 66.198-121.93 101.41-186.7z" stroke="#f00" stroke-width="1.0006px" fill="#0f0"/></clipPath><clipPath id="clipPath4286" clipPathUnits="userSpaceOnUse"><path id="path4288" opacity=".5" d="m1024.3 2934.2c-115.08-69.912-229.62-141.32-365.68-153.54-7.8753 203.18 52.074 418.15 133.34 517.2 102.48-2.0259 195.42-22.337 234.01-146.82-0.5569-69.866-1.1139-141.59-1.6708-216.84z" stroke="#f00" stroke-width="1px" fill="#0f0"/></clipPath><clipPath id="clipPath4290" clipPathUnits="userSpaceOnUse"><path id="path4292" opacity=".5" d="m1024.3 2934.2c-115.08-69.912-229.62-141.32-365.68-153.54-7.8753 203.18 52.074 418.15 133.34 517.2 102.48-2.0259 195.42-22.337 234.01-146.82-0.5569-69.866-1.1139-141.59-1.6708-216.84z" stroke="#f00" stroke-width="1px" fill="#0f0"/></clipPath><clipPath id="clipPath4294" clipPathUnits="userSpaceOnUse"><path id="path4296" opacity=".5" d="m1024.3 2934.2c-115.08-69.912-229.62-141.32-365.68-153.54-7.8753 203.18 52.074 418.15 133.34 517.2 102.48-2.0259 195.42-22.337 234.01-146.82-0.5569-69.866-1.1139-141.59-1.6708-216.84z" stroke="#f00" stroke-width="1px" fill="#0f0"/></clipPath><clipPath id="clipPath4322" clipPathUnits="userSpaceOnUse"><ellipse id="ellipse4324" opacity="0.215" style="color:#000000" rx="367.7" ry="411.13" transform="matrix(.97486 .22280 -.22280 .97486 0 0)" cy="2595.1" cx="2454.1" fill="#f00"/></clipPath><clipPath id="clipPath4326" clipPathUnits="userSpaceOnUse"><ellipse id="ellipse4328" opacity="0.215" style="color:#000000" rx="367.7" ry="411.13" transform="matrix(.97486 .22280 -.22280 .97486 0 0)" cy="2595.1" cx="2454.1" fill="#f00"/></clipPath><clipPath id="clipPath4330" clipPathUnits="userSpaceOnUse"><ellipse id="ellipse4332" opacity="0.215" style="color:#000000" rx="165.67" ry="325.27" cy="2948.3" cx="876.81" fill="#f00"/></clipPath><clipPath id="clipPath4334" clipPathUnits="userSpaceOnUse"><ellipse id="ellipse4336" opacity="0.215" style="color:#000000" rx="165.67" ry="325.27" cy="2948.3" cx="876.81" fill="#f00"/></clipPath><linearGradient id="linearGradient4352" y2="2486.5" xlink:href="#linearGradient4346" gradientUnits="userSpaceOnUse" x2="2425.4" y1="2933.9" x1="2527.7"/><linearGradient id="linearGradient4360" y2="2872.8" xlink:href="#linearGradient4346" gradientUnits="userSpaceOnUse" x2="894.54" y1="3230" x1="862.58"/><mask id="mask4409" maskUnits="userSpaceOnUse"><path id="path4411" d="m805.71 3311.4c-129.48-281.1-182.3-603.6-135.45-902.6l-401.69-5.9793 74.286 994.29z" stroke="#fff" stroke-width="57" fill="#fff"/></mask><mask id="mask4413" maskUnits="userSpaceOnUse"><path id="path4415" d="m805.71 3311.4c-129.48-281.1-182.3-603.6-135.45-902.6l-401.69-5.9793 74.286 994.29z" stroke="#fff" stroke-width="57" fill="#fff"/></mask></defs><g display="none" transform="translate(1111.2 -35.024)"><rect id="rect4062" style="color:#000000" display="inline" height="6660.9" width="4347.7" stroke="#0f0" y="-80.073" x="-64.648" stroke-width="1.0026"/></g><g opacity=".2" display="none" transform="translate(1111.2 -35.024)"><ellipse id="path4065" style="color:#000000" d="m 3348.5713,6160 c 0,124.6586 -658.781,225.7143 -1471.4286,225.7143 -812.6476,0 -1471.42859,-101.0557 -1471.42859,-225.7143 0,-124.6586 658.78099,-225.7143 1471.42859,-225.7143 812.6476,0 1471.4286,101.0557 1471.4286,225.7143 z" rx="1471.4" ry="225.71" display="inline" cy="6160" cx="1877.1"/></g><g transform="translate(1111.2 -35.024)"><path id="path4072-5" fill="#ba98da" d="m3012.3 5195.3c91.588-374.19 284.17-379.14 436.26-309.6 152.09 69.535 186.91 262.05 331.43 308.57 82.571 26.579 129.58-16.546 134.29-74.286 4.7015-57.74-48.021-110.33-104.5-152.58 235.98 15.764 298.66 156.15 324.34 324.35 25.679 168.2-9.5711 277.26-114.12 365.37-272.27 229.47-849.94 391.93-1308.6 334.29l-114.29 14.286-74.286-1020c159.78 96.829 322.08 173.56 489.46 209.6z"/><path id="path4093" fill="#fff" d="m3208.2 5176.7c14.886-264.52 98.363-272.66 317.19-248.5-104.54-50.494-210.12-92.2-325.27-52.528-119.39 66.575-157.17 193-197.99 317.19z"/><path id="path4072-6" fill="#fff" d="m4134.1 5279.6c25.679 168.2-9.5711 289.38-114.12 377.49-272.27 229.47-906.51 395.97-1365.1 338.33l-32.504-612.7c161.92-74.731 342.19-25.592 519.22 10.102 196 39.519 300.03-22.38 339.41-149.5 63.787-205.9 186.56-126.29 286.88 18.183 86.106 124 233.2 139.57 366.25 18.096z"/><path id="path4070" fill="#936fb6" d="m2599.3 4994.9-27.162 50.113c107.27 58.144 236.53 123.39 359.43 159.75 122.89 36.354 221.54 13.506 327.39-46.594-135.58 30.814-195.79 26.084-311.22-8.0642-115.44-34.148-242.37-97.718-348.43-155.2z"/><path id="path4072" d="m3007.3 5195.3c91.588-374.19 289.17-379.14 441.26-309.6 152.09 69.535 186.91 262.05 331.43 308.57 82.571 26.579 129.58-16.546 134.29-74.286 4.7015-57.74-48.021-110.33-104.5-152.58 235.98 15.764 298.66 156.15 324.34 324.35 25.679 168.2-9.5711 277.26-114.12 365.37-272.27 229.47-849.94 391.93-1308.6 334.29" stroke="#936fb6" stroke-width="57" fill="none"/></g><g transform="translate(1111.2 -35.024)"><path id="path4117-4" fill="#f4b3eb" d="m1391.4 5060c-377.29-81.672-410.96 205.29-302.86 554.29-332.88-15.415-648.37 3.1506-874.29 245.71-66.769 71.69-112.62 171.83-122.86 274.29-8.6644 86.73 38.658 134.16 157.14 134.29 391.9 0.4021 781.45-36.479 1160-105.71 101.49-18.562 95.994-70.561 22.857-228.57 131.43 72.856 262.86 96.644 394.29 117.14z"/><path id="path4121-2" fill="#f4b3eb" d="m880.78 4515.7c-61.84-156.6-104.54-365.4-109.35-541.4-2.4292-88.798-44.481-134.6-122.86-171.43-152.23-71.532-351.65-69.799-460-40-87.651 24.105-114.07 94.342-100 217.14 48.97 427.5 392.84 842.9 702.86 1008.6 226.37 120.9 524.97-104.4 722.87-271.5l108.57-648.57c-215.27 176.2-430.17 352.71-742.08 447.14z"/><path id="path4111" fill="#e99ad3" d="m1215.5 5804.2c164.17 157.32 373.59 246.55 586.73 272.68l6.9355-56.576c-200.65-24.599-412.12-113.42-593.66-216.1z"/><path id="path4117" d="m1391.4 5060c-377.29-81.672-410.96 205.29-302.86 554.29-332.88-15.415-648.37 3.1506-874.29 245.71-66.769 71.69-112.62 171.83-122.86 274.29-8.6644 86.73 38.658 134.16 157.14 134.29 391.9 0.4021 781.45-36.479 1160-105.71 101.49-18.562 95.994-70.561 22.857-228.57" stroke="#e99ad3" stroke-width="57" fill="none"/><path id="path4119" d="m885.71 4517.1c280.71-91.321 511.02-258.23 731.43-440" stroke="#e99ad3" stroke-width="57" fill="none"/><path id="path4121" fill="#e99ad3" d="m341.61 3714.5c-61.082 1.0447-116.83 8.8337-160.59 20.869-49.944 13.735-87.635 44.283-106.67 87.564-19.039 43.282-21.416 96.288-14.084 160.3 50.446 440.42 397.98 859.57 717.74 1030.5 124.26 66.407 266.22 36.874 397.99-27.207s257.16-163.56 356.69-247.58l-36.768-43.557c-98.384 83.051-221.25 179.77-344.85 239.88-123.6 60.109-244.1 82.757-346.19 28.195-300.29-160.49-640.49-572.09-687.97-986.68-6.7335-58.786-2.9358-102.3 9.6289-130.87 12.565-28.563 31.906-45.185 69.613-55.555 100.01-27.503 296.93-29.07 440.32 38.312 36.848 17.315 62.586 35.612 79.328 57.666s26.065 48.709 27.16 88.748c5.7715 210.97 63.418 466.64 168.95 625.42-48.758-184.09-106.45-425.35-111.97-626.97-1.3339-48.759-14.253-89.4-38.738-121.65-24.485-32.254-58.96-55.275-100.49-74.789-100.66-47.302-217.28-64.296-319.09-62.555z"/><path id="path4136" fill="#e99ad3" d="m168.57 3951.4c15.957 139.46 373.33 220 491.43 85.714-166.92 27.344-332.08 23.147-491.43-85.714z"/></g><g transform="translate(1111.2 -35.024)"><path id="path4166" fill="#fac4fb" d="m1680.9 3740.3c-199.67 411.81-292.9 844.9-331.33 1289 4.1824 393.43 74.612 737.79 367.7 917.22l939.5 44.483 42.368-670.78-20.203-537.4-242.44-246.48-16.162-1078.8z"/><path id="path4160" d="m1684.9 3744.3c-154.29 250.04-277.9 805.75-315.17 1159.7-42.199 400.74 58.634 905.58 375.78 1038.4" stroke="#e99ad3" stroke-width="57" fill="none"/><path id="path4162" d="m2685.7 4780c-89.177-62.252-162.16-140.7-228.57-225.71" stroke="#e99ad3" stroke-width="57" fill="none"/><path id="path4164" d="m2137.1 4788.6c51.114 174.64 246.56 370 331.43 440" stroke="#e99ad3" stroke-width="57" fill="none"/></g><g transform="translate(1111.2 -35.024)"><path id="path4174" d="m1988.6 1182.9c94.935-124.12 168.41-252.15 180-391.43-121.67 36.782-239.21 92.126-345.71 197.14 78.314-190.65 103.78-431.19 74.286-640-163.22 106.86-320.29 309.57-391.43 534.29-73.745-185.56-169.05-355.71-348.57-465.71-25.005 128.37-21.346 308.19 20 477.14-80.952-55.403-173.33-78.698-260-80 24.939 96.239 80.153 168.26 142.86 234.29" stroke="#92a5ce" stroke-miterlimit="9" stroke-width="37" fill="none"/><path id="path4172" d="m1885.7 1145.7c99.748-151.25 170.12-317.24 182.86-517.14-148 44.212-316.22 147.11-411.43 291.43 20.748-238.74 17.663-479.1-111.43-702.86-133.38 189.5-198.72 423.02-220 657.14-104.21-96.76-213.3-186.77-340-208.57-5.6099 131.2 82.002 260.53 160 334.29" stroke="#bdcbe0" stroke-miterlimit="9" stroke-width="37" fill="none"/><ellipse id="path4176" style="color:#000000" d="m 1009.7959,631.01385 c 0,30.12616 -22.98545,54.54824 -51.33948,54.54824 -28.35403,0 -51.33951,-24.42208 -51.33951,-54.54824 0,-30.12615 22.98548,-54.54823 51.33951,-54.54823 28.35403,0 51.33948,24.42208 51.33948,54.54823 z" rx="51.34" ry="54.548" cy="631.01" cx="958.46" fill="#92a5ce"/><ellipse id="path4178" style="color:#000000" d="m 1230.3657,381.5062 c 0,42.95767 -35.2763,77.78174 -78.7918,77.78174 -43.5156,0 -78.7919,-34.82407 -78.7919,-77.78174 0,-42.95768 35.2763,-77.78175 78.7919,-77.78175 43.5155,0 78.7918,34.82407 78.7918,77.78175 z" rx="78.792" ry="77.782" cy="381.51" cx="1151.6" fill="#bdcbe0"/><ellipse id="path4180" style="color:#000000" d="m 1646.5486,144.12035 c 0,60.25231 -42.0603,109.09647 -93.9442,109.09647 -51.884,0 -93.9442,-48.84416 -93.9442,-109.09647 0,-60.252323 42.0602,-109.096478 93.9442,-109.096478 51.8839,0 93.9442,48.844155 93.9442,109.096478 z" rx="93.944" ry="109.1" cy="144.12" cx="1552.6" fill="#92a5ce"/><ellipse id="path4182" style="color:#000000" d="m 1990.0004,312.81583 c 0,44.07345 -33.4673,79.80204 -74.7513,79.80204 -41.284,0 -74.7512,-35.72859 -74.7512,-79.80204 0,-44.07346 33.4672,-79.80205 74.7512,-79.80205 41.284,0 74.7513,35.72859 74.7513,79.80205 z" rx="74.751" ry="79.802" cy="312.82" cx="1915.2" fill="#bdcbe0"/><ellipse id="path4184" style="color:#000000" d="m 2147.5844,589.5976 c 0,29.56826 -23.0653,53.53808 -51.5177,53.53808 -28.4525,0 -51.5178,-23.96982 -51.5178,-53.53808 0,-29.56827 23.0653,-53.53809 51.5178,-53.53809 28.4524,0 51.5177,23.96982 51.5177,53.53809 z" rx="51.518" ry="53.538" cy="589.6" cx="2096.1" fill="#92a5ce"/></g><g fill="#ba98da" transform="translate(1111.2 -35.024)"><path id="path4480" d="m2765.8 2635.2c4.1867 149.62-27.933 294.05-60.609 438.41l301.03-149.5-92.934-400.02z"/><path id="path4169" d="m2699.1 1829.1c-270.8-358-604.7-668.5-998-856.65-242.3-115.94-443-66.52-634.4 24.24-333.91 158.41-599.13 388.31-735.37 735.41-135.17 344.3 18.46 620 383.86 731.3" stroke="#936fb6" stroke-width="57"/></g><g transform="translate(1111.2 -35.024)"><path id="path4199" fill="#fac4fb" d="m1244.5 1566.4c-736.88 485.22-677.87 1358.8-436.39 1733.4-89.176 60.925-53.737 144.51-28.284 226.27 225.34 355.26 544.25 336.25 852.57 359.61 389.81-55.639 767.13-161.26 1135.4-303.05l-6.0609-882.87-288.9-571.75z"/><path id="path4187" fill="#e99ad3" d="m810.76 3286c-50.99 6.4007-89.149 43.242-98.049 90.805-8.8994 47.563 5.3073 103.49 39.752 163.15 151.47 262.35 436.51 355.4 725.16 365.43 218.51 7.5955 465.41-19.228 655.95-126.1-231.7 60.818-443.61 76.441-653.97 69.128-277.88-9.6594-538.83-96.317-677.77-336.97-29.907-51.8-38.274-96.45-33.088-124.17 5.1865-27.72 17.66-41.941 49.078-44.728 112.99-10.024 208.87-74.406 208.15-191.57-57.29 103.05-134.65 124.9-215.21 135.01z"/><path id="path4189" fill="#e99ad3" d="m1571.4 3545.6c64.762 9.4083 129.52 36.999 196.31 16.103-64.751-9.4732-126.29-38.22-196.31-16.103z"/><path id="path4191" fill="#e99ad3" d="m908.57 3451.4c50.722 9.3738 74.534-7.674 97.143-45.714 25.746 76.194-56.504 96.543-97.143 45.714z"/><path id="path4193" fill="#e99ad3" d="m925.71 3685.7c116.16-27.131 167.42-100.07 185.71-205.71 31.024 105.96-28.698 215.4-128.57 242.86z"/><path id="path4478" d="m2757.7 2659.4c7.8919 112.12-3.8908 231.99-44.447 321.23" stroke="#e99ad3" stroke-width="57" fill="none"/></g><g transform="translate(1111.2 -35.024)"><path id="path4217" d="m2363.8 3003.9c72.731 28.099 145.46 41.075 218.19 34.345-61.993 37.309-182.32 27.874-218.19 15.152z"/><path id="path4219" d="m2355.7 3081.6c72.731 28.099 145.46 41.075 218.19 34.345-61.993 37.309-182.32 27.874-218.19 15.152z"/></g><g transform="translate(1111.2 -35.024)"><path id="path4236" clip-path="url(#clipPath4294)" fill="#fff" d="m625.71 2765.7c8.6179 193.8 35.041 383.14 134.29 554.29l282.86-42.857 45.714-354.29z"/><path id="path4234" clip-path="url(#clipPath4278)" fill="#fff" d="m1354.3 3008.6c375.22-139.66 740.39-78.24 1108.6-77.143 7.2852 182.23 22.268 363.05-51.429 560-321.9-9.1783-643.81-1.1424-965.71 42.857-115.23-161.86-119.97-341.16-91.428-525.71z"/><ellipse id="path4222" style="color:#000000" d="m 2821.7871,2595.054 c 0,227.0619 -164.6229,411.132 -367.6955,411.132 -203.0727,0 -367.6956,-184.0701 -367.6956,-411.132 0,-227.062 164.6229,-411.1321 367.6956,-411.1321 203.0726,0 367.6955,184.0701 367.6955,411.1321 z" clip-path="url(#clipPath4274)" rx="367.7" ry="411.13" transform="matrix(.97486 .22280 -.22280 .97486 0 0)" cy="2595.1" cx="2454.1" fill="url(#linearGradient4352)"/><ellipse id="path4228" style="color:#000000" d="m 1042.4774,2948.3037 c 0,179.6412 -74.1707,325.2691 -165.66496,325.2691 -91.49426,0 -165.66501,-145.6279 -165.66501,-325.2691 0,-179.6412 74.17075,-325.2691 165.66501,-325.2691 91.49426,0 165.66496,145.6279 165.66496,325.2691 z" clip-path="url(#clipPath4290)" rx="165.67" ry="325.27" cy="2948.3" cx="876.81" fill="url(#linearGradient4360)"/><path id="path4298" d="m1947.1 3321.4 55.714 107.14 77.143-65.714-74.286-75.714z" clip-path="url(#clipPath4326)" fill="#f5fbfa"/><path id="path4300" d="m1994.3 3291.4 88.571 87.143 65.714-100-107.14-32.857z" clip-path="url(#clipPath4322)" fill="#a4c3dc"/><path id="path4310" d="m847.14 3208.6-38.571 54.286-45.714-40 47.143-35.714z" clip-path="url(#clipPath4334)" fill="#f5fbfa"/><path id="path4312" d="m820 3190-44.286 37.143-40-55.714 54.286-24.286z" clip-path="url(#clipPath4330)" fill="#a4c3dc"/><ellipse id="path4224" style="color:#000000" d="m 2881.4812,2522.8733 c 0,185.3449 -136.5018,335.5966 -304.8853,335.5966 -168.3834,0 -304.8852,-150.2517 -304.8852,-335.5966 0,-185.3449 136.5018,-335.5967 304.8852,-335.5967 168.3835,0 304.8853,150.2518 304.8853,335.5967 z" clip-path="url(#clipPath4270)" rx="304.89" ry="335.6" transform="matrix(.97001 .24308 -.26874 .96321 0 0)" cy="2522.9" cx="2576.6"/><ellipse id="path4226" style="color:#000000" d="m 931.42036,3637.2874 c 0,136.1364 -75.32705,246.4968 -168.24769,246.4968 -92.92064,0 -168.2477,-110.3604 -168.2477,-246.4968 0,-136.1365 75.32706,-246.4969 168.2477,-246.4969 92.92064,0 168.24769,110.3604 168.24769,246.4969 z" clip-path="url(#clipPath4266)" rx="168.25" ry="246.5" transform="matrix(.85488 -.51883 .36191 .93221 0 0)" cy="3637.3" cx="763.17" fill="#fff"/><ellipse id="path4342" style="color:#000000" d="m 3294.8304,1371.0808 c 0,41.563 -23.7437,75.2564 -53.033,75.2564 -29.2894,0 -53.033,-33.6934 -53.033,-75.2564 0,-41.5629 23.7436,-75.2564 53.033,-75.2564 29.2893,0 53.033,33.6935 53.033,75.2564 z" rx="53.033" ry="75.256" transform="rotate(38.54)" cy="1371.1" cx="3241.8" fill="#fff"/><ellipse id="path4344" style="color:#000000" d="m 3412.2923,1823.4688 c 0,22.6806 -16.2542,41.0668 -36.3048,41.0668 -20.0505,0 -36.3047,-18.3862 -36.3047,-41.0668 0,-22.6807 16.2542,-41.0669 36.3047,-41.0669 20.0506,0 36.3048,18.3862 36.3048,41.0669 z" rx="36.305" ry="41.067" transform="matrix(.85605 .51690 -.59439 .80418 0 0)" cy="1823.5" cx="3376" fill="#fff"/><ellipse id="path4230" style="color:#000000" d="m 1010.1525,2961.4355 c 0,151.1887 -59.6984,273.7514 -133.34012,273.7514 -73.64172,0 -133.34014,-122.5627 -133.34014,-273.7514 0,-151.1886 59.69842,-273.7513 133.34014,-273.7513 73.64172,0 133.34012,122.5627 133.34012,273.7513 z" clip-path="url(#clipPath4286)" rx="133.34" ry="273.75" cy="2961.4" cx="876.81"/><ellipse id="path4232" style="color:#000000" d="m -485.17614,2959.6726 c 0,68.0752 -37.0676,123.261 -82.79279,123.261 -45.7252,0 -82.7928,-55.1858 -82.7928,-123.261 0,-68.0752 37.0676,-123.261 82.7928,-123.261 45.72519,0 82.79279,55.1858 82.79279,123.261 z" clip-path="url(#clipPath4282)" rx="82.793" ry="123.26" transform="matrix(.85597 -.51703 .47387 .88060 0 0)" cy="2959.7" cx="-567.97" fill="#fff"/><ellipse id="path4338" style="color:#000000" d="m 1337.881,2796.3276 c 0,28.1736 -15.1507,51.0127 -33.8401,51.0127 -18.6894,0 -33.8401,-22.8391 -33.8401,-51.0127 0,-28.1735 15.1507,-51.0127 33.8401,-51.0127 18.6894,0 33.8401,22.8392 33.8401,51.0127 z" rx="33.84" ry="51.013" transform="rotate(10.061)" cy="2796.3" cx="1304" fill="#fff"/><ellipse id="path4340" style="color:#000000" d="m 886.91391,3042.7529 c 0,17.0157 -9.94974,30.8097 -22.22336,30.8097 -12.27362,0 -22.22335,-13.794 -22.22335,-30.8097 0,-17.0157 9.94973,-30.8096 22.22335,-30.8096 12.27362,0 22.22336,13.7939 22.22336,30.8096 z" rx="22.223" ry="30.81" cy="3042.8" cx="864.69" fill="#fff"/></g><g opacity=".5" transform="translate(1111.2 -35.024)" stroke="#f00" stroke-width="1px" display="none" fill="#0f0"><path id="path4202" d="m1024.3 2934.2c-115.08-69.912-229.62-141.32-365.68-153.54-7.8753 203.18 52.074 418.15 133.34 517.2 102.48-2.0259 195.42-22.337 234.01-146.82-0.5569-69.866-1.1139-141.59-1.6708-216.84z"/><path id="path4204" d="m1402.1 3031.1c-18.345 158.05 21.42 369.81 121.22 454.57 263.99-87.547 541.44-94.281 832.37-20.203 16.126-176.23 53.946-362.41 14.142-503.06-326.39-23.808-657.25-34.825-967.73 68.69z"/></g><g transform="translate(1111.2 -35.024)"><path id="path4392" d="m805.71 3311.4c-275.62-598.5-203.88-1384.2 437.19-1731.4" stroke="#e99ad3" stroke-width="57" fill="none"/><path id="path4384" d="m1013.1 2949.3c6.6 85.526 4.6482 169.03 1.0101 254.56 19.566-78.541 33.338-155.56 34.345-239.41z"/><path id="path4187-4" fill="#e99ad3" d="m810.76 3286c-50.99 6.4007-89.149 43.242-98.049 90.805l56.027 10.484c5.1865-27.72 17.66-41.941 49.078-44.728 112.99-10.024 208.87-74.406 208.15-191.57-57.29 103.05-134.65 124.9-215.21 135.01z"/><path id="path4378" mask="url(#mask4413)" d="m702.74 2841.6c-34.474 52.608-121.74 84.013-179.89 79.856 52.014 43.958 142.93 12.301 188.53-32.54z"/><path id="path4380" mask="url(#mask4409)" d="m698.18 2806.7c-62.111 22.004-139.87 15.438-198.18-13.867 35.879 63.816 139.46 77.625 204.17 55.888z"/><path id="path4382" d="m1067.1 2780c3.7311 42.263-0.4991 74.59-2.8571 105.71-2.8511 37.633-13.996 45.455-68.571 4.2857-99.282-74.895-212.23-99.385-322.86-122.86-69.97-14.846-110.29-47.3-158.57-120 19.789 82.773 76.138 137.57 161.43 154.29 122.24 23.954 267.09 88.033 324.29 158.57 35.374 43.629 64.188 36.455 75.714 1.4287 21.308-64.747 9.5449-132.7-8.5714-181.43z"/><path id="path4386" d="m1416.1 3275.9c-26.272-50.615-35.67-155.54-24.062-238.66l29.294-4.0406c-16.855 82.435-14.5 191.13-5.2325 242.71z"/><path id="path4388" d="m1373.8 2839.2c-3.0777 40.406-8.8654 82.838-8.0812 123.24 1.1186 57.629 26.65 45.416 77.782 28.284 288.78-96.755 678.53-69.808 912.17-46.467 82.235 8.2154 133.25-17.38 193.95-98.995-23.907 95.468-92.949 157.72-200.01 141.42-290.36-44.202-679.18-11.911-903.08 59.599-37.773 12.064-133.67 38.591-131.32-27.274 1.9366-54.254 29.518-122.18 58.589-179.81z"/><path id="path4390" fill="#e99ad3" d="m1467.1 3512.9c188.09-72.596 663.88-101.88 925.71-42.857-195.71-95.714-757.63-96.866-925.71 42.857z"/></g><g transform="translate(1111.2 -35.024)"><path id="path4484" fill="#ba98da" d="m2816 2640-60 248c-176.63 126.12-348.55 266.35-504 456-240.66 374-143.89 724.85 124 840-92.571 59.049-182.05 130.46-264 232-66.926 214.37-24.994 368.26 100 476 188.52 113.84 344.76 79.236 480-52-126.54-14.43-203.43-66.091-160-208 52.2-132.12 150.73-136.82 244-156l464-400c-20.206-107.4-93.448-207.22-188-304-97.941-103.81-154.02-230.88-156-388 172.28-125.29 371.88-246.38 412-392 48.882-269.42-46.255-481.23-264-644z"/><path id="path4482" fill="#fff" d="m2877.1 2460c85.285 67.834 137.74 152.14 177.14 242.86 49.262 113.42 16.075 199.85-42.857 274.29-148.83 187.98-383.23 328.75-545.71 502.86-171.74 184.02-257.42 438.33 65.714 551.43-69.345 109.29-153.03 161.19-237.14 211.43-310.59 222.24-216.65 462.41-162.86 568.57 6.2189-117.72 40.741-242.38 140.03-334.4 152.42-141.26 340.29-227.5 531.4-268.46l202.86-137.14c94.105-85.268 74.372-189.51 34.286-297.14-94.106-117.2-142.12-249.77-145.71-397.14l351.43-245.71c135.57-322.89 95.109-586.04-191.43-765.71z"/><path id="path4169-6-7" d="m2699.1 1829.1c-270.8-358-604.7-668.5-998-856.65-242.3-115.94-447.1-74.79-634.4 24.24-326.7 172.81-559.55 338.21-699 678.81l678.8-222.2c123.06-83.261 125.43-5.6177 157.58 32.325-39.688 243.78-4.9443 487.57 40.406 731.35 197.67 307.34 476.14 364.93 791.96 307.09 212.04-77.536 387.14-192.02 545.48-323.25z" fill="#ba98da"/><path id="path4439" fill="#fff" d="m1348.6 905.71c148.32 70.51 203.61 221.16 228.57 388.57 31.338 210.14 5.5084 442.52-13.102 651.43-21.806 244.78-16.212 546.05 270.25 591.43 196.96 7.839 384.15-73.82 532.82-178.67-170.69-1.0821-249.78-102.89-289.96-255.61-39.46-150.01 7.7357-471.95-17.143-688.57-15.87-138.19-59.254-243.6-131.43-322.86-187.69-114.57-376.44-219.28-580-185.71z"/><path id="path4169-6" d="m2699.1 1829.1c-270.8-358-604.7-668.5-998-856.65-242.3-115.94-443-66.52-634.4 24.24-333.91 158.41-599.13 388.31-735.37 735.41" stroke="#936fb6" stroke-width="57" fill="none"/><path id="path4433" fill="#936fb6" d="m1134 1390.2c-13.441 0.1038-27.733 1.7294-40.834 8.045-112.36 54.168-197.75 167.94-242.85 272.06 70.619-90.167 159.08-178.46 262.6-218.59 13.825-5.3599 23.525-5.2513 29.979-3.5078 6.4533 1.7434 11.342 5.0107 16.924 13.691 11.165 17.361 19.465 58.141 13.84 118-19.776 210.43-4.3749 445.84 55.896 625.89 59.336 177.25 191.19 281.51 342.09 329.85 150.9 48.339 321.11 43.386 467.43 8.0098 220.77-53.377 376.79-185.05 535.27-299.56l-33.383-46.203c-160.77 116.16-309.44 240.59-515.29 290.36-137.57 33.26-298.83 37.258-436.64-6.8887s-251.92-133.81-305.43-293.66c-56.394-168.47-72.336-398.83-53.199-602.46 6.2505-66.509 0.7875-117.72-22.646-154.16-11.717-18.22-29.336-32.306-50-37.889-7.749-2.0935-15.703-3.0388-23.768-2.9766z"/><path id="path4456" fill="#936fb6" d="m3057.3 2333.9-23.111 52.105c137.51 60.992 224.23 214.15 249.32 371.76 25.099 157.6-13.445 313.89-106.77 380.36-212.55 151.39-465.13 310.41-545.42 548.31 139.93-206.56 363.8-348.96 578.49-501.88 120.29-85.684 157.37-263.83 129.99-435.75-27.378-171.92-121.24-343.37-282.5-414.9z"/><path id="path4462" d="m2907.2 3370.5c-23.568 161.16 40.577 287.99 117.18 377.8 83.35 97.719 180.07 166.83 210.11 329.31" stroke="#936fb6" stroke-width="57" fill="none"/><path id="path4464" fill="#936fb6" d="m2200.2 3377.4c-87.688 155.2-128.31 320.77-105.44 470.24 22.862 149.48 111.51 281.82 273.7 362.73l25.445-51.006c-147.75-73.707-222.43-187.19-242.8-320.34-20.364-133.15 15.9-287 98.725-433.59 122.77-217.3 371.87-393.41 539.79-538.27-181.59 107.68-457.06 275.97-589.41 510.23z"/><path id="path4470" fill="#936fb6" d="m2307.6 4200.2c-136.59 75.073-237.95 220.19-259.34 371.3-21.383 151.12 44.165 310.01 233.34 392.94 160.66 70.431 338.84 6.1578 432.45-95.711l-41.969-38.568c-76.838 83.616-233.51 140.86-367.59 82.076-169.96-74.509-218.31-201.83-199.78-332.75 18.526-130.92 110.88-263.67 230.35-329.34 149.47-82.152 263.84-256.63 280.45-384.11-48.039 114.96-150.4 247.59-307.9 334.15z"/><path id="path4476" d="m2749.6 4483.7c-249.84 2.0203-350.01 354.46-64.65 345.47" stroke="#936fb6" stroke-width="57" fill="none"/></g><g transform="translate(1111.2 -35.024)"><path id="path4620-5" fill="#fac4fb" d="m2716 2780c533.72-338.75 575.32-779.61 398.34-1166.1-80.939-176.77-161.34-240.7-294.63-99.716-244.7 258.8-307.1 520.3-319.7 837.8"/><path id="path4620" fill="#e99ad3" d="m2950.2 1408.9c-16.603 0.025-33.605 3.3628-50.236 10.047-33.263 13.368-65.922 38.553-100.96 75.619-249.61 264.02-328.9 586.65-297.72 856.76 28.355-275.78 99.372-564 339.14-817.61 31.6-33.424 58.972-53.116 80.801-61.889 21.829-8.7729 37.239-8.198 54.035-0.8691 33.593 14.658 73.644 68.439 113.17 154.76 86.432 188.77 118.66 388.4 65.768 581.6-52.891 193.2-205.19 396.2-459.84 584.32 288.41-120.18 457.72-360.72 514.81-569.27 57.095-208.55 21.632-422.62-68.918-620.38-41.415-90.452-82.034-157.02-142.2-183.27-15.041-6.563-31.246-9.8497-47.85-9.8242z"/><path id="path4622" fill="#e99ad3" d="m3054.7 1768c32.121 195.15-47.009 409.92-189.5 490.49 106.65-122.63 165.78-292.47 189.5-490.49z"/></g><g transform="translate(1111.2 -35.024)"><path id="path4554" fill="#fac4fb" d="m2658.7 5312.1c-105.84-8.2221-220.07-90.439-288.5-169.71l-294.16 147.08c-130.03 179.94-195.64 369.8-130.11 579.83l48.083 149.91 820.24-22.627-158.39-93.338c178.78-165.13 115.09-373.78 2.8284-591.14z"/><path id="path4533-4" fill="#fac4fb" d="m2232 5968c-149.26-129.54-416.69-115.04-530 16-63.156 73.041-118.09 180.88-144 278-22.523 84.434-3.071 169.87 102 182 195.73 22.596 383.65 9.4737 588-8 62.784-5.3685 91.23-35.293 118-68 30.201-36.899 67.185-66.766 118-90 108.73-49.717 228.07-72.193 356-90 215.19-29.953-45.139-233.81-174-284"/><path id="path4164-2-3" d="m2468.6 5228.6c170.22 140.41 315.38 83.772 488.57-77.143 208.23-193.46 418.68-470.11 468.08-987.71 10.823-113.38-70.365-164.99-161.22-172.53-133.45-11.081-280.64 14.171-415.78 62.226-119.28 42.412-125.75 118.34-115.97 209.3 26.558 247.03 19.622 492.36-127.28 695.79" fill="#fac4fb"/><path id="path4164-2" fill="#e99ad3" d="m3187.2 3960.2c-115.65 1.6892-236.16 26.418-348.55 66.383-64.543 22.95-104.39 58.653-123.02 102.05-18.63 43.402-16.786 90.162-11.734 137.15 26.287 244.51-17.265 533.1-116.04 717.31 157.22-161.79 199.54-473.85 172.72-723.4-4.7284-43.981-4.5392-80.666 7.4394-108.57 11.979-27.906 35.006-51.37 89.738-70.832 131.96-46.922 275.7-71.319 403.87-60.676 40.785 3.3867 77.649 16.815 101.75 39.1 24.101 22.284 38.189 52.75 33.457 102.32-48.77 510.93-253.79 778.78-459.11 969.54-84.91 78.89-161.12 129.62-231.89 144.56-70.772 14.94-138.56-2.0477-219.15-68.524-26.543-21.894-65.423-57.506-107.03-101.15l-41.256 39.33c43.145 45.259 83.184 82.012 112.02 105.79 89.629 73.93 179.53 98.829 267.19 80.324s170.63-76.548 258.91-158.57c211.14-196.17 427.01-481.62 477.05-1005.9 6.0909-63.809-15-115.84-51.502-149.59-36.502-33.751-85.66-49.897-135.73-54.055-26.012-2.16-52.442-2.9972-79.131-2.6074z"/><path id="path4521" fill="#e99ad3" d="m2659.5 5285.3-42.949 37.477c89.27 102.3 135.08 233.64 127.49 349.43-8.7812 134.07-75.432 239.11-258.58 316.47 194.85-32.638 305.35-158.44 315.46-312.75 8.7287-133.27-42.72-277.52-141.42-390.63z"/><path id="path4527" fill="#e99ad3" d="m1938.8 5891.2 50.496-26.441c-95.768-182.88 0.7631-464 109.41-592.93-155.36 99.078-271.09 407.04-159.9 619.37z"/><path id="path4533" fill="#e99ad3" d="m1952.4 5849.8c-105.91 4.0115-208.42 42.039-271.99 115.56-66.885 77.354-122.84 187.56-149.98 289.29-12.405 46.504-14.348 95.211 4.7402 137.24 19.089 42.033 61.62 73.498 121.53 80.414 199.04 22.978 389.07 9.5809 593.7-7.916 71.014-6.0722 109.99-44.575 137.63-78.346 27.752-33.907 60.626-60.563 107.8-82.131 104.52-47.788 220.99-70.002 348.08-87.691 29.474-4.1025 52.694-11.13 71.123-23.029s31.61-30.584 34.811-50.666c6.4007-40.163-17.056-74.758-46.557-107.89-59.002-66.272-164.91-135.38-235.45-162.85l-20.688 53.113c58.32 22.716 163.98 91.95 213.56 147.64 24.791 27.846 34.123 52.967 32.84 61.02-0.6416 4.0262-1.4211 6.5735-9.4414 11.752s-23.738 11.073-48.062 14.459c-128.78 17.925-250.97 40.664-363.92 92.309-54.459 24.9-95.553 57.978-128.2 97.869-25.899 31.643-43.818 52.99-98.373 57.654-204.08 17.45-389.89 30.297-582.3 8.084-45.162-5.2137-64.892-22.531-76.166-47.357s-11.682-61.055-1.5645-98.984c24.674-92.498 78.595-197.98 138.02-266.71 49.738-57.523 137.6-92.306 231.05-95.881 93.451-3.5746 176.7-10.082 289.66 64.512-79.37-97.94-193.28-125.2-291.84-121.47z"/></g><g transform="translate(1111.2 -35.024)"><path id="path4599" d="m2473.5 5750.5c-41.288-35.756-61.912-80.697-69.296-131.52 53.639 13.335 93.372 24.468 123.04 73.539-18.861-117.38-29.652-223.45 9.8995-335.17 56.507 104.67 59.458 193.19 59.397 319.61 30.47-70.663 50.433-101.21 94.752-145.66 5.0251 54.212-7.9895 112.67-22.627 162.63" stroke="#6e89bd" stroke-miterlimit="9" stroke-width="11" fill="none"/><path id="path4601" d="m2455.1 5781.6c-28.64-25.023-42.004-55.138-48.083-87.681 29.227 0.4405 58.454 6.2612 87.681 25.456-29.913-60.297-55.229-159.98-52.326-233.35 69.168 50.216 97.334 108.29 120.21 190.21 7.1806-99.086 22.2-176.41 80.61-258.09 22.289 91.258 15.06 169.73-0.7071 253.14 18.566-30.569 33.613-48.361 55.862-67.882 3.0317 28.654 0.7102 59.985-11.314 96.166" stroke="#6e89bd" stroke-miterlimit="9" stroke-width="11" fill="none"/><path id="path4603" fill="#6e89bd" d="m2636.8 5682.1c-65.232 0.9338-123.85 23.452-169.48 62.578-51.318 44.006-29.261 103.49 25.526 110.17-50.572-27.259-39.463-73.176-13.223-95.696 48.396-41.535 112.24-64.763 184-57.168 44.801 4.7415 37.598 52.278 13.19 87.022 37.817-26.774 49.743-100.15-11.663-105.96-9.5673-0.9047-19.037-1.0845-28.356-0.9511z"/><ellipse id="path4609" style="color:#000000" d="m 2323.438,5357.9033 c 0,24.6015 -14.103,44.5449 -31.5,44.5449 -17.397,0 -31.5,-19.9434 -31.5,-44.5449 0,-24.6015 14.103,-44.5449 31.5,-44.5449 17.397,0 31.5,19.9434 31.5,44.5449 z" rx="31.5" ry="44.545" transform="matrix(1 0 .044898 .99899 0 0)" cy="5357.9" cx="2291.9" fill="#6e89bd"/><ellipse id="path4611" style="color:#000000" d="m 1266.6154,5866.8457 c 0,20.7107 -11.4168,37.5 -25.5,37.5 -14.0833,0 -25.5,-16.7893 -25.5,-37.5 0,-20.7107 11.4167,-37.5 25.5,-37.5 14.0832,0 25.5,16.7893 25.5,37.5 z" rx="25.5" ry="37.5" transform="rotate(-12.049)" cy="5866.8" cx="1241.1" fill="#6e89bd"/><ellipse id="path4613" style="color:#000000" d="m 1286.626,5968.5244 c 0,15.7401 -8.7305,28.5 -19.5,28.5 -10.7696,0 -19.5,-12.7599 -19.5,-28.5 0,-15.7401 8.7304,-28.5 19.5,-28.5 10.7695,0 19.5,12.7599 19.5,28.5 z" rx="19.5" ry="28.5" transform="rotate(-11.182)" cy="5968.5" cx="1267.1" fill="#6e89bd"/><ellipse id="path4615" style="color:#000000" d="m 3445.3459,4960.4106 c 0,16.8447 -10.2974,30.5 -23,30.5 -12.7025,0 -23,-13.6553 -23,-30.5 0,-16.8446 10.2975,-30.5 23,-30.5 12.7026,0 23,13.6554 23,30.5 z" rx="23" ry="30.5" transform="matrix(.98886 .14882 -.14882 .98886 0 0)" cy="4960.4" cx="3422.3" fill="#6e89bd"/><ellipse id="path4617" style="color:#000000" d="m 3460.2473,5093.5591 c 0,13.531 -8.0589,24.5 -18,24.5 -9.9411,0 -18,-10.969 -18,-24.5 0,-13.531 8.0589,-24.5 18,-24.5 9.9411,0 18,10.969 18,24.5 z" rx="18" ry="24.5" transform="rotate(7.9882)" cy="5093.6" cx="3442.2" fill="#6e89bd"/></g></svg>