<?xml version="1.0" encoding="UTF-8"?><svg xmlns="http://www.w3.org/2000/svg" xmlns:xlink="http://www.w3.org/1999/xlink" version="1.1" viewBox="0 0 2323.9863 2383.9863"><defs id="defs4"><linearGradient id="linearGradient4172"><stop id="stop4174" stop-color="#c49d40" offset="0"/><stop id="stop4176" stop-color="#f1eb8b" offset="1"/></linearGradient><linearGradient id="linearGradient3990"><stop id="stop3992" stop-color="#d3c0ea" offset="0"/></linearGradient><linearGradient id="linearGradient3978"><stop id="stop3980" stop-color="#f2e99e" offset="0"/></linearGradient><linearGradient id="linearGradient3970"><stop id="stop3972" stop-color="#fdf8e3" offset="0"/></linearGradient><linearGradient id="linearGradient3960"><stop id="stop3962" stop-color="#c5ade3" offset="0"/></linearGradient><linearGradient id="linearGradient3952" gradientTransform="matrix(.81251 0 0 1 216.06 0)"><stop id="stop3954" stop-color="#af8dd3" offset="0"/></linearGradient><linearGradient id="linearGradient3788"><stop id="stop3790" stop-color="#c8ab6d" offset="0"/></linearGradient><clipPath id="clipPath3874" clipPathUnits="userSpaceOnUse"><path id="path3876" d="m1354.6 478.23-44.1-305.76 120-84.998-91.2-116.9-261.3 234.72 157.7 311.59z" stroke="#000" stroke-width=".78338px" fill="none"/></clipPath><clipPath id="clipPath3880" clipPathUnits="userSpaceOnUse"><path id="path3882" d="m1244.3 401.48-95.5-383.87 357 12.301-67.9 367.28z" stroke="#000" stroke-width="1.2152px" fill="none"/></clipPath><linearGradient id="linearGradient4057" y2="546.08" xlink:href="#linearGradient4172" gradientUnits="userSpaceOnUse" x2="1627.8" y1="153.56" x1="1649.4"/><linearGradient id="linearGradient4071" y2="436.62" xlink:href="#linearGradient4172" gradientUnits="userSpaceOnUse" x2="1607.7" y1="147.96" x1="1652.7"/><clipPath id="clipPath4134" clipPathUnits="userSpaceOnUse"><path id="path4136" d="m1743.7 390.26c-53.282 106.23-155.59 154.82-228.5 108.52-72.918-46.297-88.836-169.94-35.554-276.17s155.59-154.82 228.5-108.52c72.918 46.297 88.836 169.94 35.554 276.17z" stroke="#000" stroke-width="0.1" fill="none"/></clipPath><clipPath id="clipPath4138" clipPathUnits="userSpaceOnUse"><path id="path4140" d="m1758.3 393.17c-24.53 104.3-101.22 165.98-171.3 137.78-70.076-28.206-107-135.62-82.468-239.92 24.53-104.3 101.22-165.98 171.3-137.78 70.076 28.206 107 135.62 82.468 239.92z" stroke="#000" stroke-width=".088509" fill="none"/></clipPath><clipPath id="clipPath4164" clipPathUnits="userSpaceOnUse"><path id="path4166" d="m1424.3 255.22c0 53.207-13.203 101.34-34.515 136.04-31.919 8.4003-116.12 12.211-157.78 9.1757-24.834-35.107-40.563-87.14-40.563-145.21 0-105.72 52.127-191.43 116.43-191.43 64.302 0 116.43 85.705 116.43 191.43z" clip-path="url(#clipPath3880)" transform="matrix(.61971 -.17463 .11181 .95312 331.85 244.96)" stroke="#00f" stroke-width=".12152" fill="none"/></clipPath><clipPath id="clipPath4168" clipPathUnits="userSpaceOnUse"><path id="path4170" d="m1424.3 255.22c0 53.207-13.203 101.34-34.515 136.04-31.919 8.4003-116.12 12.211-157.78 9.1757-24.834-35.107-40.563-87.14-40.563-145.21 0-105.72 52.127-191.43 116.43-191.43 64.302 0 116.43 85.705 116.43 191.43z" clip-path="url(#clipPath3880)" transform="matrix(1.2237 0.128 -.14225 .82621 31.682 -72.773)" stroke="#00f" stroke-width=".12152" fill="none"/></clipPath></defs><g transform="translate(-808.85 690.69)"><path id="path4160" fill="url(#linearGradient3960)" d="m2174 1597.4-179 12 7-505 177-24z"/><path id="path3966" fill="url(#linearGradient3970)" d="m2824 1412.4-224 16-10-566-242-210-114 18 4-60 104-124 142.07-96.559 154.86-35.355 135.76 33.941 95.459 68.589 117.38 142.13 31.82 144.96-4.2426 159.1-108.89 161.93 27.577-197.99-94.045 166.88-76.368 182.43-11.314 104.65 35.355 52.326 32.527 5.6568z"/><path id="path3836" fill="url(#linearGradient3978)" d="m2252.9 639.51c209.17-322.71 849.77-135.61 498.57 358.57-217.29 305.75-46.576 414.24 54.286 387.14l72.857-37.143 85.714-78.572-34.286 125.71-77.143 111.43-81.428 42.857-128.57 25.714-81.428-40-62.857-84.286-28.571-108.57 2.8571-124.29 8.5715-120 11.428-140-8.5714-112.86-22.857-87.143-54.286-48.571-77.143-15.714-32.857 14.286-24.286-42.857z"/><path id="path4158" fill="url(#linearGradient3960)" d="m1770 1624.4-119-4-62-19-9-41 59-126 36-217 8-164 157 94z"/><path id="path4154" fill="url(#linearGradient3990)" d="m2250 1656.2h-100.41l-36.77-31.113 22.627-72.125 29.698-152.74v-108.89l-56.569-173.95-140.01 55.154-202.23-22.627-135.76-83.439-70.711-110.31-21.213-151.32 29.698-179.61-142.36 11.092-155-45-93-62-42-74 13-43-56-150-11-249 657.48-349.76 234.76 56.569 43.841 434.16-36.083 440.03 158-2 98 38 64 84 31 112-4 139-47 165h50l37 51 43 160 29 223-27 65-72 20z"/><path id="path3777" fill="url(#linearGradient3788)" d="m2613.2 346.81c-14.775 0.44049-29.706 1.7915-44.719 4.125-120.1 18.668-244.87 99.674-352.69 267l25.219 16.25c104.52-162.21 221.85-236.46 332.09-253.59 110.24-17.136 214.96 22.778 294.84 94.469 79.888 71.691 134.17 175.05 142.56 282.38 6.8825 87.974-16.51 178.53-82.125 258.62 26.388-72.929 37.51-259.16-11.199-323.22 15.065 93.928-11.362 196.01-53.301 270.44-29.663 52.639-72.252 107.24-110.47 240.5-20.064 69.959-20.397 117.21-4.2812 148.56 8.0578 15.676 20.912 26.791 35.688 32.125 14.775 5.3341 30.947 5.2606 47.062 1.75 32.23-7.0214 65.316-27.654 92.812-55.875 6.3123-6.4785 12.304-13.401 17.906-20.656-31.408 152.17-147.97 241.21-253.69 245.28-62.102 2.3933-120.2-23.325-159.16-84.375-38.958-61.05-58.387-159.11-36.031-300.75 33.97-215.23 22.353-342.06-18.781-414.06-20.567-36.003-49.45-57.756-81.75-66.844-32.3-9.0876-67.279-6.0753-102.09 3.5l7.9374 28.906c31.352-8.623 60.91-10.599 86.031-3.5312 25.121 7.0677 46.556 22.612 63.844 52.875 34.576 60.526 48.696 182.2 15.188 394.5-23.102 146.37-3.9756 252.11 40.344 321.56 44.319 69.451 114.23 100.94 185.62 98.188 98.594-3.7998 202.38-69.75 253.51-183.33 27.36-60.776 51.7-137.42 26.836-206.55-8.0723 56.93-77.644 144.56-144.94 161.85-11.946 3.0692-22.444 2.2408-30.469-0.6562-8.0244-2.897-14.218-7.8967-19.219-17.625-10.001-19.457-12.568-60.184 6.4688-126.56 37.213-129.76 76.292-178.69 107.72-233.97 9.2108-16.201 17.575-32.936 24.75-51.969-11.348 74.525-30.924 141.21-53.672 183.43 138.2-53.1 190.3-242.25 179.4-354.51-11.2-115.61-66.9-225.62-152.4-302.34-74.8-67.13-171.4-109.02-274.8-105.94z"/><path id="path3794" d="m1977.9 603.85c437.87-94.759 377.95 360 303.05 525.28 111.55-48.017 138.95 267.23 151.52 375.78 13.422 115.85-3.3568 142.36-117.18 147.48-113.44 5.1074-224.87 27.111-191.93-66.67 88.709-252.56 10.951-399.22-18.183-466.69" stroke="url(#linearGradient3952)" stroke-width="30" fill="none"/><path id="path3798" d="m1738.6 1625.2c-111.27 1.2567-194.83-0.3428-145.71-91.428 77.216-143.21 90.232-345.18 82.857-430" stroke="url(#linearGradient3952)" stroke-width="30" fill="none"/><path id="path3800" d="m2124.3 1598.1-50 2.8571" stroke="url(#linearGradient3952)" stroke-width="30" fill="none"/><path id="path3802" fill="url(#linearGradient3952)" d="m1559.8 614.09c-48.726 177.17-33.338 308.41 19.594 399.97 52.932 91.555 142.6 141.81 237.06 159.56 94.465 17.757 194.28 4.0016 271.53-33.594 42.624-20.744 126.53-72.269 119.15-181.05-22.81 78.752-61.451 119.79-132.21 154.05-70.759 34.263-165.08 47.634-252.91 31.125-87.822-16.509-168.67-62.095-216.66-145.09-45.871-79.341-62.458-194.34-22.512-354.56 1.8412-7.385 6.6597-20.58 8.7438-28.158z"/><path id="path4152" fill="url(#linearGradient3990)" d="m1817.3 1093.4 2.8284 168.29-24.042 181.02-56.568 145.66-8.4853 66.468 48.083 21.213 188.09 1.4142 77.782-18.385 25.456-38.184v-120.21l-29.698-287.09-33.941-118.79z"/><path id="path68" fill="url(#linearGradient3952)" d="m2000.9 1079.2c24.943 112.53 48.189 290.86 54.134 496.49 0.4753 16.441 0.8646 30.093-0.9375 40.156s-4.7851 16.221-12.656 22.5c-15.742 12.558-57.766 23.313-147.38 24.781-46.122 0.7557-80.038-0.4435-103.62-3.625-23.587-3.1816-36.12-8.8106-40.562-13.094-4.4426-4.2832-5.2789-7.816-2.9688-19s9.1522-27.456 18.219-47.375c31.536-69.285 47.638-123.79 59.231-189.06 6.0838-34.254 34.17-232.04-16.874-314.16 5.4071 96.033 17.885 305.49-69.67 490.79-9.4774 20.057-16.901 37.384-20.281 53.75-3.3805 16.366-1.0621 34.515 11.531 46.656 12.593 12.142 31.008 17.698 57.344 21.25 26.335 3.5522 61.308 4.6113 108.16 3.8437 91.517-1.4995 138.29-9.4979 165.59-31.281 13.653-10.892 20.771-25.799 23.438-40.687 2.6663-14.888 1.9073-30.064 1.4375-46.313-2.3206-80.27-7.5224-158.83-14.593-228.26-6.2037-60.918-28.113-213.69-69.541-267.35z"/><path id="path3804" fill="url(#linearGradient3952)" d="m1998.5 336.12c-4.5797-0.1281-9.0419 0.69262-10.531 2.0625-2.9788 2.7398-3.0057 3.7691-3.375 4.5312-0.3694 0.76213-0.5056 1.1689-0.625 1.5l28.219 10.156c-0.1043 0.28895-0.2367 0.66949-0.5937 1.4062-0.3571 0.73676-0.3432 1.7376-3.3126 4.4688-2.9693 2.7311-17.846 3.2278-21.75-1.5312-3.9041-4.7591-3.0617-6.1839-3.2187-7.2188-0.2372-1.5638-0.2451-1.904-0.25-2.3125-0.021 0.17436 0 0.0974-0.031 0.3125-0.1998 1.5573-0.5675 4.2671-1.0624 7.8438-0.99 7.1534-2.4721 17.882-4.1563 31.312-3.3684 26.861-9.7763 64.456-10.375 106.56-0.7045 49.548-23.018 171.1 46.562 243.97-21.407-60.064-22.135-159.52-16.625-241.97 2.7548-41.224 6.8991-78.34 10.219-104.81 1.6598-13.236 3.1059-23.8 4.0937-30.938 0.4939-3.5689 0.8523-6.2429 1.0937-8.125 0.1208-0.94103 0.2343-1.5655 0.3126-2.5312 0.039-0.48287 0.5176 0.42483-0.125-3.8125-0.1607-1.0593 0.6606-2.5142-3.25-7.2812-1.9554-2.3835-6.6391-3.4656-11.219-3.5938z"/><path id="path3846" d="m1424.3 255.22c0 105.72-52.127 191.43-116.43 191.43-64.302 0-116.43-85.705-116.43-191.43s52.127-191.43 116.43-191.43c64.302 0 116.43 85.705 116.43 191.43z" transform="matrix(.66894 -.21049 .21740 .89499 239.05 283.93)"/><path id="path3842" d="m1406.4 255.22c0 105.72-44.133 191.43-98.575 191.43-54.441 0-98.575-85.705-98.575-191.43s44.133-191.43 98.575-191.43c54.441 0 98.575 85.705 98.575 191.43z" clip-path="url(#clipPath3880)" transform="matrix(.67257 -.21278 .19738 .94449 235.07 297.99)" fill="#fff"/><path id="path4009" d="m1767.8 348.79c0 110.52-57.935 200.11-129.4 200.11-71.466 0-129.4-89.593-129.4-200.11s57.935-200.11 129.4-200.11c71.466 0 129.4 89.593 129.4 200.11z" clip-path="url(#clipPath4168)" transform="matrix(.51537 -.28827 .32764 1.0935 242.59 386.7)" fill="url(#linearGradient4071)"/><g id="g4080" transform="matrix(1.1071 -.062059 .077225 .99822 -151.22 74.057)" clip-path="url(#clipPath4164)"><path id="path4005" d="m1767.8 348.79c0 110.52-57.935 200.11-129.4 200.11-71.466 0-129.4-89.593-129.4-200.11s57.935-200.11 129.4-200.11c71.466 0 129.4 89.593 129.4 200.11z" transform="matrix(.39196 -.20971 .17718 .89896 496.97 326.85)"/><path id="path4017" d="m1890 406.36c0 54.124-29.549 98-66 98s-66-43.876-66-98 29.549-98 66-98 66 43.876 66 98z" transform="matrix(.45684 -.34070 .27817 .76827 248.18 519.59)" fill="#fff"/><path id="path4019" d="m1668 409.86c0 14.083-8.9543 25.5-20 25.5s-20-11.417-20-25.5 8.9543-25.5 20-25.5 20 11.417 20 25.5z" transform="matrix(.32189 .093073 -.010844 .49890 677.68 -23.685)" fill="#fff"/><path id="path4021" d="m1588 389.36c0 22.091-13.432 40-30 40s-30-17.909-30-40 13.432-40 30-40 30 17.909 30 40z" transform="matrix(.20906 .33835 -.11172 0.453 888.7 -393.28)" fill="#fff"/></g><path id="path3806" fill="url(#linearGradient3952)" d="m1256.1 348.21c-10.281 18.224-43.361 38.945-75.683 45.067-10.963 2.0764-22.191 4.7229-32.312 10.375s-19.522 15.038-22.969 27.938c-6.0813 38.598 23.203 81.451 43.906 104.97 120.08 136.41 421.24 140.6 548.91 27.281-140.06 90.806-499.38 81.576-559.12-101.97-5.5961-11.77-5.7404-18.738-4.7187-22.562 1.0217-3.8242 3.2317-6.4569 8.625-9.4688 2.7093-1.513 6.1704-2.7643 10.019-4.0504 47.677-15.932 84.251-35.397 83.352-77.579z"/><path id="path3829" d="m1152.3 414.08c-38.64-75.666-60.981-165.16-60.981-261.06 0-34.877 2.9549-68.907 8.5741-101.73" stroke="url(#linearGradient3952)" stroke-width="25" fill="none"/><path id="path3870" d="m1106.3 98.776c-39.004-28.382-43.762-61.283-43.153-79.895 4.166 18.359 3.8706 54.649 51.735 60.995-4.194 6.3832-6.3742 8.7923-8.5818 18.9z"/><path id="path3996" fill="url(#linearGradient3970)" d="m1146-95.638-147 88-53 38-28-10-1-54 63-162 112-131 151-127 155.66-55.292 212.13-28.284-115.97-52.326-60.811-29.698 32.527-39.598 173.95-24.042 158.39 48.083 127.28 63.64 97.581 84.853-66.468 25.456-60.811 124.45z"/><path id="path3838" fill="url(#linearGradient3978)" d="m1915.2-382.05c-52.452-21.105-510.38-74.685-785.25 222.27 0 0-80.714 148.57-82.143 152.14-1.4 3.5736-27.8 82.859-27.8 82.859l5 19.286 20-8.5714 105-69.286 150-95.714 158.57-54.286-62.857 106.43-14.286 49.286 51.428-5.7143 94.286-59.286 225.71-175.71 135-62.143z"/><path id="path3769" fill="url(#linearGradient3788)" d="m1890.5-292.93c-13.932 2.8596-38.797 9.289-53.347 15.001-50.071 19.657-103.58 54.744-159.04 95.207-71.476 52.149-131.77 102.77-202.18 152.63-32.356 22.914-50.144 30.007-65.321 36.036-6.1132 2.4284-11.193 5.8169-13.094 3.75-2.0452-2.224 0.9418-7.8089 3.625-13.281 42.534-86.747 87.762-150.33 150.35-228.79-71.456 64.134-143.56 127.39-178.41 218.19-2.9747 7.7487-4.9872 14.941-5.625 22.156-0.6377 7.2152 0.052 15.388 5.625 22.406 5.5733 7.0187 14.898 9.8419 22.938 9.6562 8.0394-0.18562 16.122-2.4313 25.656-6.2188 19.069-7.5749 23.933-4.7215 76.578-41.984s127.06-98.885 197.55-150.31c70.484-51.426 137.49-92.228 190.12-103.03z"/><path id="path3998" fill="url(#linearGradient3978)" d="m2077.5 708.71-56.568-67.882-38.184-111.72-28.284-125.87-43.841 65.054-19.799-79.196 29.698-123.04 60.811-148.49 9.8995-49.497 162.63-306.88 135.76 222.03 69.296 291.33-31.113-14.142-38.184-84.853-65.054-87.681 43.841 145.66-12.728 137.18-55.154 107.48-97.581 103.24-18.385 73.539z"/><path id="path3840" fill="url(#linearGradient3970)" d="m2340.2 275.97c-6.5-161.21-115.4-394.91-197.3-455.04l-6.9562-124.4 120.73 128.54 73.37 170.85 27.857 155 1.5258 121.67z"/><path id="path3773" fill="url(#linearGradient3788)" d="m2137.1-328.97-18.25 23.812c132.08 101.42 240.41 310.49 220.44 559.06-13.451-70.93-90.078-186.49-194.56-285.48 54.126 73.957 89.062 176.04 102.47 259.29 15.797 98.102-5.4472 205.38-121.19 303.19-36.614 30.942-53.406 67.89-57.219 103.66-1.8109 16.989-0.7862 33.626 1.9063 49.531-1.0791-1.3449-2.138-2.4158-3.2188-3.8438-15.018-19.844-31.09-47.155-45.062-78.844-18.152-41.167-32.726-89.745-38.012-139.47-2.8523-26.827-0.8583-73.988 2.5928-100.5l-31.893 26.839c-4.3177 33.169-3.5732 55.969 0.7587 88.539 6.545 49.209 21.946 95.975 39.116 136.72 26.976 64.009 70.985 119.29 129.03 138.81-14.837-36.916-28.813-80.088-25.375-114.62 2.8915-29.047 15.486-57.485 46.75-83.906 122.83-103.8 147.8-224.81 131.47-330.66-3.8437-24.907-9.9261-48.991-17.344-72 51.301 70.839 72.27 172.63 84.037 215.74 32.37-56.95 29.148-136.56 28.089-193.79-3.8478-207.89-112.16-408.1-234.53-502.07z"/><path id="path3775" fill="url(#linearGradient3788)" d="m1969 69.719c-9.5179 80.104-42.178 138.97-66.062 201.19-23.884 62.219-37.682 128.92-4.7813 216.03l14.625 38.75 13.594-39.156c27.656-79.829 61.873-121.9 98.688-160.55-57.965 23.997-98.597 85.059-110.88 110.71-13.587-59.71-2.0662-105.93 16.781-155.03 22.816-59.436 57.585-122.04 67.844-208.38z"/><path id="path3884" fill="url(#linearGradient3788)" d="m1597.9-690.69c-33.236 0.0268-67.037 3.4232-101.06 10.906-22.278 4.8994-39.608 11.6-52.438 20.531-12.829 8.9317-22.094 21.638-21.656 36.312 0.4373 14.675 10.049 26.792 23.219 35.844 13.17 9.0521 30.898 16.139 53.688 21.562 23.574 5.6102 49.919 13.074 76.938 21.312-255.94-6.7816-524.89 134.94-642.66 419.28-18.22 43.941-29.76 81.144-33.05 109.95-1.6483 14.403-1.4893 26.821 2.5312 37.969 4.0206 11.148 14.507 21.072 26.844 22.844 12.336 1.7718 24.419-2.1689 38.031-9.2812 13.612-7.1124 24.714-16.527 42.57-31.586 9.9514-8.3924 20.766-18.259 32.312-29.375-13.133 27.484-35.796 86.037-28.007 112.34 1.7826 6.0193 6.3568 12.529 13.031 15.844 6.6745 3.3145 13.833 3.2266 20.344 1.7812 13.022-2.8907 26.32-10.804 44.25-24.281 75.358-56.645 229.87-156.31 360.95-193.35 11.245-15.005 15.855-21.038 23.667-37.056-147.9 29.892-319.34 143.81-402.65 206.44-14.835 11.151-25.647 16.63-30.969 18.344 7.4291-87.34 63.655-175.92 88.844-238.09-0.4313 0.39656-0.8761 0.92338-1.3125 1.3438-3.9038 3.7607-7.8519 8.9214-12.406 14.25-50.7 59.365-92.2 101.35-123.15 127.47-16.77 14.149-30.71 23.794-41.34 29.348-10.63 5.553-17.74 6.499-19.91 6.187-2.1699-0.31165-1.4697 0.58404-2.875-3.3125s-2.3207-12.562-0.96875-24.375c2.7039-23.627 15.382-56.413 32.969-98.875 92.02-222.18 279.65-354.68 478.42-389.97 140.14-24.879 219.02-7.8552 336.64 15.987-96.881-55.66-176.84-81.703-272.08-110.3-20.029-6.0136-35.067-11.169-43.688-17.094-8.6205-5.9252-10.137-10.33-10.187-12.031-0.051-1.7014 0.837-5.2505 8.7812-10.781 7.9442-5.5307 22.034-11.508 41.75-15.844 127.22-27.978 253.22 5.1685 353.06 57.688 99.845 52.519 173.2 126.21 192.56 168.53l27.281-12.469c-25.198-55.082-101.44-127.66-205.88-182.59-78.325-41.199-172.7-71.455-272.41-71.375z"/><path id="path4156" fill="url(#linearGradient3990)" d="m1907 112.36 71-29 74-61 62-109 33-139-16-123-65-104-48-34-47 8-52 82-31 120-12 85z"/><path id="path3810" fill="url(#linearGradient3952)" d="m2001.8-500.19c-32.37 1.5911-56.391 26.828-73.563 57.594-27.803 49.812-50.198 138.35-45.863 205 17.453-58.713 40.83-134.94 71.832-190 15.084-26.788 32.435-41.808 49.062-42.625 16.627-0.81729 41.418 12.166 73.344 58.312 32.995 47.692 64.45 135.84 48.281 227.88-28.81 164-125.69 239.35-182.79 285.83 139.95-40.351 202.28-205.62 212.54-282.01 13.503-100.49-15.13-193.52-53.344-248.75-34.532-49.914-67.131-72.81-99.5-71.219z"/><path id="path3986" fill="url(#linearGradient3990)" d="m1190-174.64-83-148-38-90 10-60 57 4 236 177z"/><path id="path3779" d="m1194-173.96c-274.68-437.18-34.046-309.7 159.6-127.28" stroke="url(#linearGradient3952)" stroke-width="30" fill="none"/><path id="path3781" fill="url(#linearGradient3952)" d="m1995-98.352c75.571-49.043 67.062-156.24 51.429-209.29 0.6199 69.762-6.7878 139.52-51.429 209.29z"/><path id="path3783" d="m1136.4-276.92c62.976-28.242 65.498-123.45 62.143-147.86" stroke="url(#linearGradient3952)" stroke-width="15" fill="none"/><path id="path3823" fill="url(#linearGradient3952)" d="m1266.4 580.85c56.099-14.581 61.467-58.966 52.98-89.495-2.6948 37.49-28.182 70.765-77.056 74.74z"/><path id="path3825" fill="url(#linearGradient3952)" d="m1224.5 463.64c24.059 6.8038 30.989-9.5184 31.333-17.757 14.335 25.707-7.5872 42.471-31.333 17.757z"/><path id="path3850" d="m1424.3 255.22c0 105.72-52.127 191.43-116.43 191.43-64.302 0-116.43-85.705-116.43-191.43s52.127-191.43 116.43-191.43c64.302 0 116.43 85.705 116.43 191.43z" clip-path="url(#clipPath3874)" transform="matrix(1.184 .73459 -.52619 1.0252 199.66 -927.96)"/><path id="path3860" d="m1767.2 218.82c45.19 3.427 63.445-14.617 67.451-28.725-16.357 18.019-47.852 16.665-84.135-6.6085z"/><path id="path3862" d="m1743.5 171.98c43.105-13.118 64.316-52.396 67.133-75.553-16.552 36.702-48.276 44.699-81.22 50.388z"/><path id="path3852" d="m1671.1 476.65c30.223-2.416 59.822 13.581 71.786 21.429-3.2897-7.6184-25.721-29.543-61.786-37.857z"/><path id="path3854" d="m1693.6 452.36c40.112-7.6264 65.843 3.0529 93.929 13.929-14.462-13.503-44.383-35.159-91.786-29.286z"/><path id="path3864" d="m1718.2 135.01c35.341-39.227 32.985-75.536 28.118-95.329-0.6474 20.171-10.944 55.177-54.801 80.307z"/><path id="path3844" d="m1424.3 255.22c0 105.72-52.127 191.43-116.43 191.43-64.302 0-116.43-85.705-116.43-191.43s52.127-191.43 116.43-191.43c64.302 0 116.43 85.705 116.43 191.43z" transform="matrix(1.134 .71999 -.50397 1.0048 257.2 -891.66)" fill="#fff"/><path id="path3856" d="m1156.3 393.79c-18.68 5.3835-28.864 12.396-37.535 20.943 3.7386-8.9998 10.367-20.108 32.514-31.921 1.4634 3.1459 3.563 7.9642 5.0218 10.979z"/><path id="path3858" d="m1147.9 375.09c-26.385 2.0752-39.342 7.8238-57.641 20.148 9.5543-13.126 24.756-28.388 52.985-31.486 1.4779 3.7744 3.12 7.6944 4.6566 11.339z"/><path id="path3866" d="m1104.5 180.73c-32.845 2.4269-47.267-8.9872-53.186-16.309 10.433 6.6724 41.74 6.1036 52.618-2.1549 0.1677 8.6997 0.2197 9.9501 0.5686 18.464z"/><path id="path3868" d="m1104.1 137c-26.117-0.58804-47.191-14.666-56.287-26.451 22.781 12.374 41.799 12.49 56.986 8.6158-0.3625 7.3063-0.4279 9.9382-0.6987 17.835z"/><path id="path3984" fill="url(#linearGradient3978)" d="m1387.3-333.7c-85.462 34.206-169.56 84.718-242.17 158.12 28.02 88.934 287.5-71.536 242.17-158.12z"/><path id="path4007" d="m1767.8 348.79c0 110.52-57.935 200.11-129.4 200.11-71.466 0-129.4-89.593-129.4-200.11s57.935-200.11 129.4-200.11c71.466 0 129.4 89.593 129.4 200.11z" clip-path="url(#clipPath4138)" transform="matrix(1.1384 .22902 -.24312 1.0724 -162.39 -434.06)" fill="url(#linearGradient4057)"/><g id="g4086" clip-path="url(#clipPath4134)"><path id="path4003" d="m1767.8 348.79c0 110.52-57.935 200.11-129.4 200.11-71.466 0-129.4-89.593-129.4-200.11s57.935-200.11 129.4-200.11c71.466 0 129.4 89.593 129.4 200.11z" transform="matrix(.90905 .19414 -.19414 .90905 196.3 -319.94)"/><path id="path4011" d="m1890 406.36c0 54.124-29.549 98-66 98s-66-43.876-66-98 29.549-98 66-98 66 43.876 66 98z" transform="matrix(1.3769 -.35961 .39731 1.2849 -1007.2 368.76)" fill="#fff"/><path id="path4013" d="m1668 409.86c0 14.083-8.9543 25.5-20 25.5s-20-11.417-20-25.5 8.9543-25.5 20-25.5 20 11.417 20 25.5z" transform="matrix(.76528 .25273 -.25273 .76528 473.4 -316.15)" fill="#fff"/><path id="path4015" d="m1588 389.36c0 22.091-13.432 40-30 40s-30-17.909-30-40 13.432-40 30-40 30 17.909 30 40z" transform="matrix(.71368 .70047 -.70047 .71368 713.82 -1004.8)" fill="#fff"/></g></g></svg>