<?xml version="1.0" encoding="UTF-8"?><svg xmlns="http://www.w3.org/2000/svg" xmlns:xlink="http://www.w3.org/1999/xlink" version="1.1" viewBox="0 0 5326.73 5326.7363" width="5326.73" height="5326.7363"><defs id="defs4"><linearGradient id="linearGradient3962"><stop id="stop3964" stop-color="#e9f299" offset="0"/><stop id="stop3966" stop-color="#e4a32c" offset="1"/></linearGradient><clipPath id="clipPath3930" clipPathUnits="userSpaceOnUse"><path id="path3932" opacity=".5" style="color:#000000" d="m2257.7 1724.8c-102.27 214.77-327.4 342.2-502.86 284.63-175.45-57.571-234.78-278.35-132.51-493.12s327.4-342.2 502.86-284.63c175.45 57.571 234.78 278.35 132.51 493.12z" fill-rule="evenodd" stroke="#f00" stroke-width=".94783" fill="#0f0"/></clipPath><clipPath id="clipPath3934" clipPathUnits="userSpaceOnUse"><path id="path3936" opacity=".5" style="color:#000000" d="m2334.4 1717c-93.82 241.27-313.96 388.33-491.69 328.46-177.73-59.865-245.76-303.98-151.94-545.26 93.82-241.27 313.96-388.33 491.69-328.46 177.73 59.866 245.76 303.99 151.94 545.26z" fill-rule="evenodd" stroke="#f00" fill="#0f0"/></clipPath><clipPath id="clipPath3938" clipPathUnits="userSpaceOnUse"><path id="path3940" opacity=".5" style="color:#000000" d="m2312.4 1670.7c-113.82 232.51-345.56 360.49-517.62 285.86-172.05-74.63-219.26-323.61-105.44-556.12s345.56-360.49 517.62-285.86c172.05 74.63 219.26 323.61 105.44 556.12z" fill-rule="evenodd" stroke="#f00" fill="#0f0"/></clipPath><clipPath id="clipPath3946" clipPathUnits="userSpaceOnUse"><path id="path3948" opacity=".5" d="m1205.2 1020.3c-121 284.41-106.91 604.4-43.269 834.32 77.276-29.484 128.41-66.214 161.06-148.67 42.254-146.57 47.163-481.96-117.79-685.65z" stroke="#f00" stroke-width=".96077px" fill="#0f0"/></clipPath><clipPath id="clipPath3950" clipPathUnits="userSpaceOnUse"><path id="path3952" opacity=".5" d="m1218.8 908.17c-121 308.11-106.91 654.77-43.269 903.85 77.276-31.941 128.41-71.732 161.06-161.06 42.254-158.78 47.163-522.13-117.79-742.79z" stroke="#f00" stroke-width="1px" fill="#0f0"/></clipPath><linearGradient id="linearGradient3968" y2="1310.3" xlink:href="#linearGradient3962" gradientUnits="userSpaceOnUse" x2="1198.9" y1="1802.9" x1="1229.2"/><linearGradient id="linearGradient3970" y2="1435.3" xlink:href="#linearGradient3962" gradientUnits="userSpaceOnUse" x2="1903.4" y1="2018.3" x1="1920.5"/><clipPath id="clipPath4018" clipPathUnits="userSpaceOnUse"><path id="path4020" opacity=".5" d="m1260 954.3c-120.6 293.37-123.76 631.3-78.834 876.91 69.604-27.028 116.5-63.059 149.32-148.24 44.417-152.24 65.094-505.4-70.485-728.67z" stroke="#f00" stroke-width=".92757px" fill="#0f0"/></clipPath></defs><g display="none" transform="translate(-422.62 18.668)"><rect id="rect3881" style="color:#000000" fill-rule="evenodd" display="inline" height="5365.1" width="6096.2" stroke="#0f0" y="-8.8807" x="-33.743" stroke-width="1px"/></g><g opacity=".2" display="none" transform="translate(-422.62 18.668)"><path id="path3765" style="color:#000000" d="m4682.7 4977.9c0 119.48-669.42 216.35-1495.2 216.35-825.77 0-1495.2-96.861-1495.2-216.35 0-119.48 669.42-216.35 1495.2-216.35 825.77 0 1495.2 96.862 1495.2 216.35z" fill-rule="evenodd" transform="translate(0 -9.6154)" display="inline"/></g><g transform="translate(-422.62 18.668)" stroke="#8183a0" stroke-width="49" fill="#a3aabd"><path id="path3771" d="m2423.1 3261.5c-14.734 528.4-61.326 1047.6-283.65 1528.8-35.328 76.472-11.804 126.46 57.692 134.62 172.38 20.24 372.56 14.868 519.23 2.4039 39.282-3.3382 70.898-23.033 76.923-60.096 86.029-529.24 102.8-1060.9 52.885-1591.3z"/><path id="path3773" d="m3168.3 3338.5c231 421.92 385.24 879.88 104.94 1387.2-59.689 108.03-41.725 120.95 15.248 132.04 142.05 27.654 282 24.893 415.69 6.2158 55.702-7.782 73.252-21.756 88.872-72.115 181.16-584.09 62.623-1102.2-163.22-1602.4z"/></g><g transform="translate(-422.62 18.668)"><path id="path3833-7" d="m2690.3 2407.8c78.352-177.31 161.23-351.4 182.69-552.88 38.709-363.41 118.19-769.32 451.92-1052.9 196.79-167.21 296.37-75.577 221.15 86.538-76.457 164.78-194.57 354.99-245.19 519.23 152.2-153.89 318.94-282.24 490.97-416.11 266.61-207.48 310.05 65.151 167.69 238.22-138.18 167.99-279.98 332.2-437.5 480.77 97.756-27.046 196.27-52.897 293.27-72.115 341.57-67.672 269.17 238.3 24.038 312.5-181.91 55.058-379.03 147.82-471.15 244.08 272 5.4122 199.13 161.98 120.19 227.08-192.71 158.93-411.07 202.98-625 264.42" stroke="#8183a0" stroke-miterlimit="9" stroke-width="49" fill="#a3aabd"/></g><g transform="translate(-422.62 18.668)"><path id="path3781" d="m3481.1 2335.6c439.59-534.1 1131.8-651.79 1521.8-89.555 249 358.97 136.73 786.04 35.162 1211.4-46.387-127.06-88.775-262.12-122.38-414.75-162.86 773.06 374.7 1019.2 809.09 911.08-161.88 240.53-456.6 448.8-829.49 339.96 90.655 84.767 181.31 112.92 271.96 163.18-566.74 147.96-756.13-298.99-707.11-863.49-53.61 120.31-88.867 247.62-91.205 380.75-152.22-279.7-45.937-644.45-4.8077-975.09 48.446-389.46-27.866-940.21-645.09-575.11z" stroke="#e0db6a" stroke-miterlimit="9" stroke-width="49" fill="#fafaaf"/></g><g transform="translate(-422.62 18.668)"><path id="path3785" fill="#bbc4cb" d="m2114.5 2063.6c-34.344 323.28-91.107 649.37 13.598 955.27 132.21 276.69 323.13 476.8 662.91 482.74l363.75-3.3996c298.2-28.816 446.23-222.83 472.54-550.73l-214.1-730.9c-143.78 45.178-277.72 106.75-394.35 197.17-99.779 25.048-223.71 98.403-237.97-47.594l-54.393-411.35z"/><path id="path3769" d="m2121.3 2124.8c-184.85 843.86 104.53 1350 679.91 1373.4" stroke="#8183a0" stroke-width="49" fill="none"/><path id="path3783" d="m2774 2427.4c193.83 95.228 356.84-133.75 652.71-217.57" stroke="#8183a0" stroke-width="49" fill="none"/></g><g transform="translate(-422.62 18.668)"><path id="path3828" fill="#bbc4cb" d="m3406.2 2263.9c-81.251 294.49-63.7 874.5 28.846 1103.4l115.38 197.12 319.71-31.25 19.231-161.06 88.942-411.06c12.377-175.96 14.655-351.05-117.79-514.42z"/><path id="path3826" fill="#bbc4cb" d="m2784.2 3365.7-8.4989 232.87 401.15-6.7991-91.788-227.77z"/><path id="path3824" d="m3427.9 3357.7c277.6 439.3 353.27 920.58 161.06 1420.7-55.795 145.17-73.252 236.58-7.2115 247.6 174.41 29.092 369.54 20.48 528.85 0 131.96-16.964 130.1-108.62 134.62-177.88 27.67-424.62-24.651-862.48-211.54-1274-35.77-78.772-107.01-84.143-163.46-81.731" stroke="#8183a0" stroke-width="49" fill="#bbc4cb"/><path id="path3788" d="m2777.2 3492.4c0.1509 5.5931 0.2989 11.198 0.4436 16.814 11.781 457.12 1.8676 988.44-219.95 1425.4-60.05 118.3-41.248 170.19 62.5 187.5 152.91 25.519 342.54 29.59 495.19 9.6154 135.69-17.756 156.79-100.96 168.27-177.88 79.237-531.06 15.534-1057.7-124.3-1433-2.4638-6.6123-4.9513-13.178-7.462-19.695" stroke="#8183a0" stroke-width="49" fill="#bbc4cb"/><path id="path3788-1" fill="#8183a0" d="m3069.4 3364.3c18.632 27.147 38.142 90.001 59.584 145.66 2.4781 6.4328 4.9425 12.909 7.375 19.438l45.906-17.094c-2.495-6.6962-5.0192-13.367-7.5625-19.969-22.008-57.129-61.435-109.51-105.3-128.04zm-277.46 18.477c-28.091 33.212-40.23 74.476-39.267 110.18 0.1507 5.5837 0.293 11.176 0.4374 16.781l48.969-1.25c-0.145-5.6262-0.2863-11.241-0.4375-16.844-0.9668-35.83-3.2456-75.978-9.7018-108.87z"/><path id="path3812" fill="#8183a0" d="m3614.8 2967.3c-36.601 293.62-228.68 461.74-465.15 512.11l10.188 47.938c254.93-54.302 513.66-258.74 454.96-560.05z"/><path id="path3818" fill="#8183a0" d="m3862.5 2414-37.5 31.531c168.12 200.06 153.27 439.63 100.66 666.19-33.619 144.76-89.905 375.37-55.773 463.75 12.498-91.909 69.648-306.94 103.49-452.66 53.91-232.13 70.627-492.83-110.88-708.81z"/></g><g transform="translate(-422.62 18.668)"><g id="g3862" transform="matrix(.10635 .054025 -.015068 .17803 3379.6 2111.1)"><path id="path3765-1" style="color:#000000" d="m3835.1 2007c-46.854 129.69-137.87 178.37-228.01 145.8-90.136-32.565-147.76-146.57-100.91-276.25 46.854-129.69 167.92-190.89 258.06-158.32 90.136 32.565 117.71 159.09 70.856 288.77z" fill-rule="evenodd" fill="#d9ddf8"/><path id="path3767" style="color:#000000" d="m4827.4 1770.5c0 232.16-184.72 455.68-412.58 455.68s-412.58-198.48-412.58-455.68c0-227.15 184.72-398.09 412.58-398.09s412.58 140.89 412.58 398.09z" fill-rule="evenodd" fill="#d9ddf8"/><path id="path3769-7" style="color:#000000" d="m4489 2738.7c-70.773 138.45-264.52 180.98-345.73 139.47-120.17-61.426-145.9-218.49-68.149-353.15 64.931-112.46 213.21-180 319.43-125.7 120.17 61.426 165.22 200.92 94.442 339.37z" fill-rule="evenodd" fill="#d9ddf8"/><path id="path3771-4" style="color:#000000" d="m5220.6 2733.8c-62.437 157.24-190.68 232.86-342.6 172.54-128.16-50.888-183.94-199.58-121.5-356.82 62.437-157.24 214.44-223.42 342.6-172.54 128.16 50.888 183.94 199.58 121.5 356.82z" fill-rule="evenodd" fill="#d9ddf8"/><path id="path3773-0" style="color:#000000" d="m4944.4 3404.3c-41.784 211.05-219.01 352.27-405.12 315.43-186.11-36.846-278.06-232.8-236.28-443.85 31.865-160.95 201.49-342.25 387.59-305.41 186.11 36.846 287.01 266.13 253.81 433.83z" fill-rule="evenodd" fill="#d9ddf8"/><path id="path3775" style="color:#000000" d="m5409.9 3502.6c-46.868 104.38-156.85 145.53-248.74 104.27s-130.89-149.31-84.022-253.69 156.85-140.52 248.74-99.263c91.89 41.26 130.89 144.3 84.022 248.68z" fill-rule="evenodd" fill="#d9ddf8"/><path id="path3777" style="color:#000000" d="m5254.1 4008.6c-18.59 131.69-115.15 204.06-218.76 189.43-103.61-14.626-175.04-110.7-156.45-242.4 18.59-131.69 115.15-211.57 218.76-196.95 103.61 14.626 175.04 118.22 156.45 249.91z" fill-rule="evenodd" fill="#d9ddf8"/><path id="path3786" fill="#d8fcfa" d="m4282.1 1595.2c-64.846-0.9804-55.561-66.594-33.644-88.536 64.181-64.252 183.18-71.673 270.92-21.249 30.17 17.34 30.906 85.629-10.624 93.848-74.765 14.797-151.11 17.079-226.65 15.936z"/><path id="path3788-9" fill="#d8fcfa" d="m3614.5 1816.5c-22.936 24.514-17.454 52.759 1.7707 58.434 42.51 12.547 88.43 11.356 131.03-7.0828 19.618-8.4912 22.416-40.64 0-58.434-32.234-25.586-98.211-29.889-132.8 7.0828z"/><path id="path3790" fill="#d8fcfa" d="m4163.1 2512.5c-32.043 25.673-13.818 78.334 11.269 81.386 55.083 6.6995 111 1.4359 157.76-26.294 28.377-16.829 42.038-88.873-16.277-100.17-50.01-9.6856-103 5.2125-152.75 45.075z"/><path id="path3792" fill="#d8fcfa" d="m4926.8 2566.3c-24.565-9.3959-25.754-37.521 0-62.604 37.176-36.207 99.732-49.893 146.49 3.7562 20.554 23.581 29.942 75.152-18.781 76.377-42.384 1.0654-85.66-1.4443-127.71-17.529z"/><path id="path3794" fill="#d8fcfa" d="m4503.6 3214.9c-27.741-6.405-48.122-46.056-16.277-78.881 35.627-36.725 125.34-85.975 175.29-22.538 15.255 19.375 12.553 56.107-10.017 82.638-19.333 22.727-99.493 30.212-149 18.781z"/><path id="path3796" fill="#d8fcfa" d="m5173.5 3335.1c-19.51 17.939-12.26 40.841 6.2605 43.823 42.465 6.8371 89.439 12.602 122.7-20.033 17.715-17.379 12.26-62.512-22.538-63.856-39.67-1.533-75.975 12.068-106.43 40.067z"/><path id="path3798" fill="#d8fcfa" d="m5014.5 3908.6c-17.254-11.668-25.077-42.184 2.5042-66.361 26.733-23.434 85.196-27.614 120.2 5.0083 17.475 16.285 20.702 43.945-2.5042 63.856-26.613 22.835-76.471 27.066-120.2-2.5042z"/></g></g><g transform="translate(-422.62 18.668)"><path id="path3875" fill="#bbc4cb" d="m3290.9 2199-86.6 226l158.65 281.25 269.23-72.115z"/><path id="path3833" d="m3286.6 2220.4c2.7294-6.9189 5.4253-13.852 8.0841-20.8 38.054-99.447 68.496-202.09 80.314-313.04 38.709-363.41 118.19-769.32 451.92-1052.9 196.79-167.21 296.37-75.577 221.15 86.538-76.457 164.78-194.57 354.99-245.19 519.23 152.2-153.89 318.94-282.24 490.97-416.11 266.61-207.48 310.05 65.151 167.69 238.22-138.18 167.99-279.98 332.2-437.5 480.77 97.756-27.046 196.27-52.897 293.27-72.115 341.57-67.672 269.17 238.3 24.038 312.5-181.91 55.058-379.03 147.82-471.15 244.08 272 5.4122 199.13 161.98 120.19 227.08-117.46 96.87-244.45 151.06-374.16 192.53-5.0615 1.6181-10.127 3.2167-15.196 4.7977" stroke="#8183a0" stroke-miterlimit="9" stroke-width="49" fill="#bbc4cb"/><path id="path3831" d="m3396.6 1718.3c57.931-136.65 199.38-349.55 276.44-269.23 101.19 105.47-21.802 343.84-96.154 528.85 107.86-89.19 322.68-183.83 324.52-55.288 1.6294 113.7-138.74 307.75-290.87 435.1 171.2 49.619 68.835 227.09-2.4038 290.87" stroke="#8183a0" stroke-miterlimit="9" stroke-width="49" fill="none"/><path id="path3833-4" fill="#8183a0" d="m3271.8 2190.8c-2.6272 6.8658-5.2998 13.718-8 20.562-28.835 73.097-49.74 187.63-80.103 241.88 59.725-42.63 96.239-149.21 125.7-223.88 2.7586-6.9929 5.4659-14 8.1563-21.031zm336.94 432.22c-5.0035 1.5996-10.014 3.1854-15.031 4.75-77.344 24.122-207.18 54.473-262.07 73.054 60.695 18.581 197.7-1.6441 276.66-26.272 5.1219-1.5974 10.256-3.2071 15.375-4.8437z"/></g><g transform="translate(-422.62 18.668)"><path id="path3888" fill="#bbc4cb" d="m1261.2 860.19c-102.71 271.1-186.59 617.51-91.788 945.08-69.598 14.936-132.69 36.694-108.79 149.58 76.616 146.08 181.76 201.48 282.16 271.96 193.7 76.642 395.72 70.172 598.32 57.792l452.14-135.98 350.15-88.388 132.58-866.89-618.72-516.73z"/><path id="path3878" fill="#8183a0" d="m1130.1 1794.9c-26.674 5.9717-48.01 15.068-64.219 28.75-16.208 13.682-26.249 32.447-29.25 51.906-6.0013 38.919 10.352 78.391 32.969 121.28 91.387 173.3 250.83 260.39 424.94 295.47 174.11 35.075 364.15 19.98 526.03-9.0313 91.911-16.472 212.1-74.007 251.82-115.63-50.367 13.679-170.67 51.317-260.48 67.412-158.17 28.346-343.08 42.348-507.69 9.1874-164.6-33.1-307.6-111.6-391.3-270.2-20.877-39.591-30.735-72.592-27.906-90.938 1.4144-9.1725 4.5422-15.247 12.469-21.938 7.9266-6.6908 21.705-13.506 43.312-18.344 99.34-22.24 218.44-109.07 209.25-230-31.286 101.74-137.28 163.64-219.97 182.16z"/><path id="path3880" d="m1241.5 2147.3c98.904-32.744 151.4-92.407 173.66-158.48 17.547 71.612-59.426 165.05-137.31 189.9z" stroke="#8183a0" stroke-miterlimit="24" fill="#8183a0"/><path id="path3882" d="m1227.2 1929.3c32.978 9.9015 58.809 3.1281 78.19-18.698 18.307 58.22-66.743 70.93-78.19 18.698z" stroke="#8183a0" stroke-miterlimit="24" fill="#8183a0"/></g><g transform="translate(-422.62 18.668)"><path id="path3919" d="m1631.8 1954.8c218.08 158.56 466.33 45.636 710.51-30.596 143.7-264.03 125.19-528.06 33.996-792.1-198.42-103.74-399.01-177.2-615.32-30.596-230.69 262.36-203.17 555.09-129.18 853.29z" clip-path="url(#clipPath3938)" fill="#fff"/><path id="path3917" d="m1111.7 1886.8 258.37-81.589c25.538-291.86 29.703-586.39-16.998-887.28l-251.57 3.3996c-53.557 321.82-44.978 643.65 10.199 965.47z" clip-path="url(#clipPath3950)" fill="#fff"/><path id="path3909" style="color:#000000" d="m2211.5 1675c0 233.66-133.45 423.08-298.08 423.08-164.62 0-298.08-189.42-298.08-423.08s133.45-423.08 298.08-423.08c164.62 0 298.08 189.42 298.08 423.08z" clip-path="url(#clipPath3934)" fill-rule="evenodd" transform="matrix(.99644 .084272 -.084272 .99644 130.96 -236.88)" fill="url(#linearGradient3970)"/><path id="path3911" style="color:#000000" d="m1366.6 1529.9c0 191.51-70.014 346.75-156.38 346.75s-156.38-155.25-156.38-346.75c0-191.51 70.013-346.75 156.38-346.75 86.366 0 156.38 155.25 156.38 346.75z" clip-path="url(#clipPath3946)" fill-rule="evenodd" transform="matrix(1 0 0 1.0833 13.598 -197.18)" fill="url(#linearGradient3968)"/><path id="path3913" style="color:#000000" d="m1971.7 1742.4c0 166.16-89.8 300.86-200.57 300.86s-200.57-134.7-200.57-300.86 89.8-300.86 200.57-300.86 200.57 134.7 200.57 300.86z" clip-path="url(#clipPath3930)" fill-rule="evenodd" transform="matrix(.99851 .060653 -.054489 1.1115 151.96 -383.25)"/><path id="path3915" style="color:#000000" d="m1319 1528.2c0 158.65-40.334 287.26-90.088 287.26s-90.088-128.61-90.088-287.26 40.334-287.26 90.088-287.26 90.088 128.61 90.088 287.26z" clip-path="url(#clipPath4018)" fill-rule="evenodd" transform="matrix(1.1305 -.060776 .052291 1.0253 -255.62 6.3456)"/><path id="path3954" style="color:#000000" d="m2063.5 1529.9c0 97.631-52.51 176.78-117.28 176.78-64.774 0-117.28-79.146-117.28-176.78 0-97.631 52.51-176.78 117.28-176.78 64.774 0 117.28 79.146 117.28 176.78z" fill-rule="evenodd" transform="matrix(.94616 -.32369 .32369 .94616 -390.43 688.55)" fill="#fff"/><path id="path3956" style="color:#000000" d="m1863 1740.7c0 31.918-17.503 57.792-39.095 57.792s-39.095-25.875-39.095-57.792c0-31.918 17.503-57.792 39.095-57.792s39.095 25.874 39.095 57.792z" fill-rule="evenodd" transform="matrix(.92631 -.37676 .37676 .92631 -514.62 808.62)" fill="#fff"/><path id="path3958" style="color:#000000" d="m1356.4 1359.9c0 75.101-37.29 135.98-83.289 135.98s-83.289-60.881-83.289-135.98c0-75.101 37.29-135.98 83.289-135.98s83.289 60.881 83.289 135.98z" fill-rule="evenodd" transform="matrix(.73053 -.39844 .31307 .97150 -113.94 522.73)" fill="#fff"/><path id="path3960" style="color:#000000" d="m1257.8 1599.6c0 25.346-13.698 45.894-30.596 45.894s-30.596-20.547-30.596-45.894 13.698-45.894 30.596-45.894 30.596 20.547 30.596 45.894z" fill-rule="evenodd" transform="matrix(.97855 -.20601 .20601 .97855 -303.21 270.14)" fill="#fff"/></g><g opacity=".5" transform="translate(-422.62 18.668)" stroke="#f00" display="none" fill="#0f0"><path id="path3891" style="color:#000000" d="m2341.3 1535.6c0 249.59-143.14 451.92-319.71 451.92s-319.71-202.33-319.71-451.92 143.14-451.92 319.71-451.92 319.71 202.33 319.71 451.92z" fill-rule="evenodd" transform="matrix(.97442 .42266 -.45602 .93155 731.17 -749.36)" display="inline" stroke-width=".95326"/><path id="path3894" d="m1218.8 908.17c-121 308.11-106.91 654.77-43.269 903.85 77.276-31.941 128.41-71.732 161.06-161.06 42.254-158.78 47.163-522.13-117.79-742.79z" stroke-width="1px"/></g><g transform="translate(-422.62 18.668)"><path id="path3993" d="m1242.2 922.19-27.656 19.781c144.09 201.41 152.65 550.23 125.65 709.23 54.722-157.11 54.012-516.53-97.99-729.01z"/><path id="path3991" d="m1254.8 833.65c-110.79 196.89-167.84 697.81-72.115 963.94" stroke="#8183a0" stroke-width="34" fill="none"/><path id="path3878-4" fill="#8183a0" d="m1130.1 1794.9c-26.674 5.9717-48.01 15.068-64.219 28.75-16.208 13.682-26.249 32.447-29.25 51.906-6.0013 38.919 10.352 78.391 32.969 121.28l43.3-22.8c-20.877-39.591-30.735-72.592-27.906-90.938 1.4144-9.1725 4.5422-15.247 12.469-21.938 7.9266-6.6908 21.705-13.506 43.312-18.344 99.34-22.24 218.44-109.07 209.25-230-31.286 101.74-137.28 163.64-219.97 182.16z"/><path id="path3999" d="m2127.3 1086.4c-12.899-0.2277-26.316 0.4065-40.25 2-181.52 20.759-293.83 114.36-368.83 229.96-74.996 115.6-123.55 364.9-68.93 442.07-12.69-87.492 28.131-316.7 97.461-423.57s170.72-194.84 344.14-214.68c100.5-11.493 180.31 40.927 222.76 100.49 42.457 59.561 55.126 139.49 59.263 201.09l1.1875 17.719 17.625-1.9688c57.073-5.7783 147.39-15.69 178.02-36.141-32.172-18.634-112.01-4.8839-164.61 0.4218-6.6045-63.496-20.067-139.5-63.795-200.84-41.851-58.711-123.75-114.96-214.05-116.55z"/><path id="path4005" d="m2365.9 1276.7 10.969 32.188c59.473-20.983 135.77-46.671 160.39-72.578-39.611-5.9656-115.72 19.533-171.36 40.391z"/><path id="path4011" d="m2288.6 1165.2 23.781 24.312c39.371-36.461 97.61-93.196 99.891-121.53-29.045 5.483-88.189 60.507-123.67 97.219z"/></g><g transform="translate(-422.62 18.668)" stroke="#e0db6a" stroke-miterlimit="9" stroke-width="49" fill="#fafaaf"><path id="path4023" d="m2798.1 1237.5c40.972 182.42-49.338 422.14-182.69 581.73-191.91 229.67-308.53 504.46-281.08 714.94 70.646-151.13 144.96-298.77 242.62-440.9-95.696 443.15 44.193 971.87 324.69 1153.3-60.393-149.55-96.278-273.45-113.15-436.92 86.538 91.427 173.08 129.95 259.62 168.27-133.5-217.6-218-552.8-192.3-923.2 23.2-335.6 101-717.9 19.2-1004.8z"/><path id="path4025" d="m2485.6 905.77c-213.2 195.13-506.5 279.03-822.1 206.73 177.7-85 354.2-170.64 456.7-293.27-502.8-68.42-1217.4 232.57-1663.5 706.77 108.73-286.2 232.89-507 442.34-726-168.66 72.54-295.99 129.65-451.92 240.4 147.04-260.31 382.69-707.19 884.58-850.98 450-128.91 891.2 35.94 1197.1 326.93z"/></g><g transform="translate(-422.62 18.668)"><path id="path4036" fill="#bbc4cb" d="m2713.9 1437 81.731-72.115c96.792-124.84 141.94-271.81 149.04-435.1-22.243-223.21-40.522-447.4-187.5-639.42-46.019-67.637-105.5-54.513-170.67-7.2115-74.917 126.52-144.31 254.15-187.5 387.02-25.443 121.43-14.845 235.66-9.6154 350.96 257.84-20.701 249.51 241.94 324.52 415.87z"/><path id="path4028" fill="#8183a0" d="m2676.8 217.66c-32.809-1.1194-64.73 16.895-91.719 46.656-173.42 191.23-277.65 524.51-191.28 769.38-26.614-255.13 66.09-558.38 227.6-736.48 24.483-26.998 42.215-33.441 59.687-29.875s41.521 21.655 67.781 61.219c125.98 189.8 188.82 410.91 161.25 644.81-18.004 152.73-40.976 301.54-177.26 453.94 176.21-124.04 206.98-287.53 225.92-448.22 29.009-246.1-37.513-479.44-169.06-677.62-29.787-44.876-61.11-74.43-98.812-82.125-4.7128-0.96187-9.4068-1.5276-14.094-1.6875z"/><path id="path4034" d="m2687.6 1094.7c81.713-122.14 88.791-331.48 50.36-496.6 5.354 166.67-5.6436 372.43-50.36 496.6z" stroke="#8183a0" stroke-miterlimit="24" fill="#8183a0"/></g></svg>