<?xml version="1.0" encoding="UTF-8"?><svg xmlns="http://www.w3.org/2000/svg" version="1.1" viewBox="0 0 5932.8691 5932.8745"><defs id="defs4"><mask id="mask3909" maskUnits="userSpaceOnUse"><path id="path3911" d="m2564 2920c175.7-67.288 319.65-155.41 252-336-35.064-93.606-50.715-184.77 64-276 103.85-82.591 203.25-155.37 60-292-116.21-110.84-64.081-192.54 14-236 273.28-152.12-20.807-487.95-190-668-168.63-179.44-427.72-271.13-686-232-79.983 12.117-129.42-12.937-146-96-22.699-113.69-247.01-74.344-392-48-117.69 21.384-113.47 145.2-156 232" stroke="#fff" stroke-width="34" fill="#fff"/></mask><mask id="mask3913" maskUnits="userSpaceOnUse"><path id="path3915" d="m2564 2920c175.7-67.288 319.65-155.41 252-336-35.064-93.606-50.715-184.77 64-276 103.85-82.591 203.25-155.37 60-292-116.21-110.84-64.081-192.54 14-236 273.28-152.12-20.807-487.95-190-668-168.63-179.44-427.72-271.13-686-232-79.983 12.117-129.42-12.937-146-96-22.699-113.69-247.01-74.344-392-48-117.69 21.384-113.47 145.2-156 232" stroke="#fff" stroke-width="34" fill="#fff"/></mask><mask id="mask4150" maskUnits="userSpaceOnUse"><path id="path4152" d="m2364.6 1381.2c-163.3-140-338.8-203.3-509.2-242.9" stroke="#fff" stroke-width="34" fill="none"/></mask><clipPath id="clipPath4190" clipPathUnits="userSpaceOnUse"><path id="path4192" opacity=".18056" style="color:#000000" d="m1634.8 1758.8a199.4 292.74 0 1 1 -398.81 0 199.4 292.74 0 1 1 398.81 0z" transform="translate(-4 -.000041553)" fill="#f00"/></clipPath><clipPath id="clipPath4194" clipPathUnits="userSpaceOnUse"><path id="path4196" opacity=".18056" style="color:#000000" d="m1634.8 1758.8a199.4 292.74 0 1 1 -398.81 0 199.4 292.74 0 1 1 398.81 0z" transform="translate(-4 -.000041553)" fill="#f00"/></clipPath><clipPath id="clipPath4198" clipPathUnits="userSpaceOnUse"><path id="path4200" opacity=".5" d="m1425 1604.9c-134.63 112.57-147.98 389.44 25.012 458.84 172.99 69.399 319.02 19.627 384.64-126.61-132.16-127.96-269.6-235.19-409.65-332.24z" stroke="#f00" stroke-width="1.0071px" fill="#0f0"/></clipPath><clipPath id="clipPath4202" clipPathUnits="userSpaceOnUse"><path id="path4204" opacity=".5" d="m1396.4 1628.4c-100.44 138.88-46.087 403.8 134.79 427.67 180.88 23.866 307.34-58.406 334.18-212.46-156.32-89.073-312.65-157.27-468.97-215.21z" stroke="#f00" stroke-width=".98415px" fill="#0f0"/></clipPath><clipPath id="clipPath4206" clipPathUnits="userSpaceOnUse"><path id="path4208" opacity=".5" d="m1401.2 1618.8c-101.17 142.36-46.419 413.94 135.76 438.41 182.18 24.465 309.55-59.873 336.58-217.79-157.45-91.31-314.9-161.22-472.35-220.62z" stroke="#f00" stroke-width="1px" fill="#0f0"/></clipPath><clipPath id="clipPath4210" clipPathUnits="userSpaceOnUse"><path id="path4212" opacity=".5" d="m1397.2 1618.8c-101.17 142.36-46.419 413.94 135.76 438.41 182.18 24.465 309.55-59.873 336.58-217.79-157.45-91.31-314.9-161.22-472.35-220.62z" stroke="#f00" stroke-width="1px" fill="#0f0"/></clipPath><linearGradient id="linearGradient4220" y2="1699.4" gradientUnits="userSpaceOnUse" x2="1547.1" y1="1983.6" x1="1464.1"><stop id="stop4216" stop-color="#a1cbdf" offset="0"/><stop id="stop4218" stop-color="#638691" offset="1"/></linearGradient><clipPath id="clipPath4280" clipPathUnits="userSpaceOnUse"><path id="path4282" d="m1195 1591.9c85.527 83.368 61.78 323.74-7.0105 442.1-65.246-37.482-56.682-139.15-64-227 9.4541-77.921 19.824-155.44 71.01-215.1z" stroke="#f00" stroke-width="1px" fill="#0f0"/></clipPath><mask id="mask5513" maskUnits="userSpaceOnUse"><g id="g5515"><path id="path5517" d="m3815.5 3383.7c110.19-108.86 279.93-94.045 296.98 98.995 15.498 175.46-50.767 328.62-123.39 481.37-78.579 165.29 17.484 468.83 154.53 666.2 127.66 183.85 294.96 189.87 492.12 145.02-220.8-52.235-367.15-353.17-220.56-650.54 61.434-124.62 155.74-225.7 279.96-316.78 180.14-132.08 181.56-440.76-31.113-485.66 33.602-154.78-6.7292-309.08-84.853-469.18-119.85-133.62-271.86-216.81-461.03-233.1-220.64 3.7513-352.84 89.623-424.26 231.93-60.947 178.09-41.61 347.54-13.456 489.32z" fill="#fff"/><path id="path5519" fill="#fff" d="m4090 2608.2c-58.659 0.716-117.8 10.119-175.25 29.719-144.61 49.334-221.48 150.26-254.75 268.38-33.273 118.11-25.099 253.33-5.4688 378.28l33.594-5.2812c-19.263-122.61-26.395-253.67 4.625-363.78s98.056-199.38 232.97-245.41c245.95-83.906 531.19 35.425 644.84 213.66 153.46 240.66 101.24 569.51-87.846 701.82 215.38-88.306 278.59-465.96 116.53-720.1-96.589-151.47-299.76-259.84-509.25-257.28z"/><path id="path5521" d="m3815.5 3383.7c110.19-108.86 279.93-94.045 296.98 98.995 15.498 175.46-50.767 328.62-123.39 481.37-78.579 165.29 17.484 468.83 154.53 666.2 127.66 183.85 294.96 189.87 492.12 145.02-220.8-52.235-367.15-353.17-220.56-650.54 61.434-124.62 155.74-225.7 279.96-316.78 180.14-132.08 181.56-440.76-31.113-485.66" stroke="#fff" stroke-miterlimit="9" stroke-width="34" fill="none"/></g></mask><mask id="mask5523" maskUnits="userSpaceOnUse"><g id="g5525"><path id="path5527" d="m3815.5 3383.7c110.19-108.86 279.93-94.045 296.98 98.995 15.498 175.46-50.767 328.62-123.39 481.37-78.579 165.29 17.484 468.83 154.53 666.2 127.66 183.85 294.96 189.87 492.12 145.02-220.8-52.235-367.15-353.17-220.56-650.54 61.434-124.62 155.74-225.7 279.96-316.78 180.14-132.08 181.56-440.76-31.113-485.66 33.602-154.78-6.7292-309.08-84.853-469.18-119.85-133.62-271.86-216.81-461.03-233.1-220.64 3.7513-352.84 89.623-424.26 231.93-60.947 178.09-41.61 347.54-13.456 489.32z" fill="#fff"/><path id="path5529" fill="#fff" d="m4090 2608.2c-58.659 0.716-117.8 10.119-175.25 29.719-144.61 49.334-221.48 150.26-254.75 268.38-33.273 118.11-25.099 253.33-5.4688 378.28l33.594-5.2812c-19.263-122.61-26.395-253.67 4.625-363.78s98.056-199.38 232.97-245.41c245.95-83.906 531.19 35.425 644.84 213.66 153.46 240.66 101.24 569.51-87.846 701.82 215.38-88.306 278.59-465.96 116.53-720.1-96.589-151.47-299.76-259.84-509.25-257.28z"/><path id="path5531" d="m3815.5 3383.7c110.19-108.86 279.93-94.045 296.98 98.995 15.498 175.46-50.767 328.62-123.39 481.37-78.579 165.29 17.484 468.83 154.53 666.2 127.66 183.85 294.96 189.87 492.12 145.02-220.8-52.235-367.15-353.17-220.56-650.54 61.434-124.62 155.74-225.7 279.96-316.78 180.14-132.08 181.56-440.76-31.113-485.66" stroke="#fff" stroke-miterlimit="9" stroke-width="34" fill="none"/></g></mask></defs><g display="none" transform="translate(522.89 -47.948)"><rect id="rect5478" style="color:#000000" display="inline" height="6110.2" width="5108.5" stroke="#0f0" y="-30.05" x="-40.067"/></g><g transform="translate(522.89 -47.948)"><path id="path3876" fill="#83a6c6" d="m66 3970c-11.146 156.67-19.194 313.33 22 470 280.55 57.162 553.69 71.708 792-114-5.4522-72.071 2.786-135.93 24-192-279.33-105.8-558.67-175.1-838-164z"/><path id="path3778" stroke-linejoin="round" d="m61.858 4019.5c-2.455 134.2-7.819 285.3 24.586 419.5 283.62 87.5 636.68 29.1 804.56-119" stroke="#637a91" stroke-width="34" fill="none"/><path id="path3883" fill="#ebebeb" d="m3060.4 4373.7c17.062 328.06-34.72 608.3-209.3 803.27v212.13c162.33 41.683 203.48-10.582 362.04-162.63 13.009 92.782 6.738 206.33 65.054 250.32 63.457-18.575 65.656-115.11 91.924-181.02 35.691 111.15 70.451 236.45 124.45 69.296 157.23-380.49 201.15-755.01-69.296-1113z"/><path id="path3880" fill="#769cc0" d="m3424 5676c-186.35 36.133-374.34 43.961-566 11l36-297c129.86 47.463 223.73-65.618 320-168 15.357 88.982 10.923 193.51 60 256 52.983-20.034 71.847-108.31 100-178 33.456 99.608 64.04 235.82 118 74z"/><path id="path3878" fill="#fff" d="m1668.8 4286c-105.8 17.862-195.41-16.867-280.01-67.882-130.8-80.793-263.54-156.45-410.12-195.16-81.32 90.3-112.72 191.3-92.67 303-62.013-5.6942-92.901-60.299-118-124-53.686 137.94-124.41 154.73-226-48-39.6 149.09-138.98 154.34-186-74-76.881 132.43-230.36 228.27-278 30-47.54-270.16 107.99-475.82 286-546 417.78-106.78 881.3 12.848 1166 160z"/><path id="path3765" fill="#c5d2d1" d="m720.38 3510.8c-4.4896 0.019-8.9742 0.069-13.469 0.125-120.49 1.4981-224.56 5.0174-315.34 30.375-90.788 25.358-168.08 73.501-230.88 161.25-85.763 119.84-126.31 246.42-113.32 335.78 12.997 89.361 28.824 131.34 52.035 159.03 23.211 27.692 54.503 40.219 87.062 37.281 57.349-5.1752 117.68-53.528 166.84-133.84 4.8235 38.956 13.847 71.787 25.688 98 15.634 34.612 36.102 58.258 60.125 67.812 24.023 9.5544 50.997 1.9736 70.438-20.437 13.704-15.798 24.69-38.537 32.562-68.375 15.746 37.042 33.071 66.572 51.281 88.937 24.187 29.706 50.244 47.206 76.781 50.688 26.537 3.4817 52.12-8.4219 71.156-31.75 12.514-15.335 22.675-35.579 30.406-60.344 10.434 28.664 21.986 51.943 35.938 69.875 20.107 25.844 46.275 42.369 77.469 41.656l20.5-0.4687-3.4375-15.312c-16.01-71.3 1.86-134.8 30.79-199.1 37.384-83.137 133.46-185.6 176.35-214.83-62.107-1.2317-167.04 111.25-201.2 187.34-34.157 76.088-54.143 142.09-42.744 215.05-14.76-4.7-27.02-14-38.79-29.1-16.85-21.7-31.55-55.8-45.09-102.8l-14.53-50.5-8.8438 51.75c-7.1935 42.162-20.189 72.945-35.406 91.594-15.218 18.649-31.365 25.496-49.438 23.125-18.073-2.3712-39.543-15.333-61.281-42.031-21.739-26.698-43.421-66.717-62.188-120.59l-16.281-46.75-6.9375 49c-6.8248 48.228-20.498 80.254-35.188 97.188-14.689 16.934-28.159 19.964-43.469 13.875-15.31-6.0891-33.067-24.352-47.094-55.406-14.027-31.055-24.374-74.391-26.875-128.53l-2.0938-44.781-20.562 39.844c-49.883 96.531-115.99 150.68-167.03 155.28-25.521 2.303-47.578-6.2063-66.5-28.781-18.918-22.571-31.158-60.084-38.421-143.47-7.2627-83.387 26.786-201.35 108.92-316.12 58.626-81.923 127.38-124.56 212.41-148.31 85.031-23.75 186.57-27.633 306.59-29.125 281.76-3.5038 553.61 66.308 821.09 196.28l14.844-30.594c-267-129.9-540-201.2-822.82-200z"/><path id="path3788" d="m3056.5 4400c31.529 293.21-43.549 584.52-194 777" stroke="#c5d2d1" stroke-width="34" fill="none"/><path id="path3790" d="m2931.5 5391.5c93.814 37.031 192.46-79.139 281-172.5 28.704 324.56 81.366 336.44 162.5 74.5 59.528 261.59 103.64 112.25 125.5 70" stroke="#c5d2d1" stroke-miterlimit="9" stroke-width="24" fill="none"/><path id="path3792" d="m2901.5 5688.5c128.87 26.577 302.42 28.018 479-7.5" stroke="#637a91" stroke-width="34" fill="none"/><path id="path4048" d="m976.98 4018.8c100.57 38.205 215.23 87.292 301.47 137.08 110.82 63.984 266.82 162.06 400.22 126.79" stroke="#c5d2d1" stroke-width="34" fill="none"/></g><g transform="translate(522.89 -47.948)"><path id="path3885" fill="#505050" d="m1618 2952c-181.27 89.034-357.53 185.16-450 400 67.315 57.378 143.61 92.302 226 112-74.977 22.541-151.26 33.326-230 22l16 86c-207.07-49.168-416.2-63.218-627.04-48.288-199.52 11.86-317.8 90.19-393.15 203.65 162.48-16.309 303.12 35.626 435.58 113.14 128.42 84.05 237.34 186.11 316.78 315.37l66.468-130.11c116.13 38.588 232.07 78.35 340.83 161.22 100.97 53.81 200.67 115.66 312.54 100.41z"/><path id="path3782" d="m448.1 3540.8c267.45-50.796 585.77-12.688 739.8 38.319" stroke="#252324" stroke-width="34" fill="none"/><path id="path3882" d="m1648 2935c-166.74 59.465-394.38 222.56-484 415 68.979 60.646 161.03 95.978 248 116-81.699 19.977-164.63 26.353-249 17 50.77 295.85 214.95 584.2 409 725" stroke="#252324" stroke-width="34" fill="none"/><path id="path3780" d="m152.49 3724.5c40.124-62.138 121.84-127.86 202.69-165.81 59.008-27.7 114.09-20.377 180.33 1.2963 196.81 64.4 386.51 239.7 424.5 410.5 16.201 72.83-19.892 126.63-51.5 182.5-128.09-206-395.82-454-756.02-428.5z" stroke="#252324" stroke-width="34" fill="none"/><path id="path3784" fill="#252324" d="m903.75 4120.6 29.5 16.875c44.531-77.723 127.41-195.19 178.57-234.17-78.842-0.9813-164.08 140.51-208.07 217.3z"/><path id="path3786" d="m981 4026.5c84.14 26.036 201.59 74.584 269 116.5 114.79 71.382 257.02 156.42 385 149" stroke="#252324" stroke-width="34" fill="none"/><path id="path3824" style="color:#000000" d="m938 4035.5c0 31.756-10.969 57.5-24.5 57.5s-24.5-25.744-24.5-57.5 10.969-57.5 24.5-57.5 24.5 25.744 24.5 57.5z" transform="matrix(.86176 .18753 -.20304 .79592 941.91 646.39)" stroke="#b9c16f" stroke-width="28.207" fill="#e4e384"/></g><g transform="translate(522.89 -47.948)"><path id="path3988" d="m2564 2920c175.7-67.288 319.65-155.41 252-336-35.064-93.606-50.715-184.77 64-276 103.85-82.591 203.25-155.37 60-292-116.21-110.84-64.081-192.54 14-236 273.28-152.12-20.807-487.95-190-668-168.63-179.44-427.72-271.13-686-232-79.983 12.117-129.42-12.937-146-96-22.699-113.69-247.01-74.344-392-48-117.69 21.384-113.47 145.2-156 232" stroke="#4979a0" stroke-width="34" fill="#77a7d0"/><path id="path3990" d="m2542.6 2727.7c92.539-87.606 224.65-233.25 152.94-449.86-61.612-186.12-58.27-342.97 42.083-469.03 123.04-154.55 184.94-338.29-5.3137-425.44" stroke="#4979a0" stroke-width="14" fill="none"/><path id="path3992" d="m2610.6 1143.6c-105.94-119.7-245.04-131.13-356.38-93.338-129.62 43.992-235.82 51.566-288.5-79.196" stroke="#4979a0" stroke-width="14" fill="none"/><path id="path3887" d="m2494 866c-74.842 5.4334-222.94 94.543-160 186 50.353 73.162 39.771 117.12-50 142-76.528 21.211-136.74 64.716-186 120l250 112 152-228c-33.098-116.67 64.427-235.13 160-236z" fill-opacity=".25098" mask="url(#mask3913)" fill="#fff"/><path id="path3889" d="m2980 1962c-54.339 111.57-84.301 265.26-224 158-65.33-50.158-139.67-84.995-214-114l-20 262c68.915 17.705 124.01 56.014 146 116 29.779 81.223 109.06 107.67 170 66l278-306z" fill-opacity=".25098" mask="url(#mask3909)" fill="#fff"/></g><g transform="translate(522.89 -47.948)"><path id="path5455-4" d="m3815.5 3383.7c110.19-108.86 279.93-94.045 296.98 98.995 15.498 175.46-50.767 328.62-123.39 481.37-78.579 165.29 17.484 468.83 154.53 666.2 127.66 183.85 294.96 189.87 492.12 145.02-220.8-52.235-367.15-353.17-220.56-650.54 61.434-124.62 155.74-225.7 279.96-316.78 180.14-132.08 181.56-440.76-31.113-485.66 33.602-154.78-6.7292-309.08-84.853-469.18-119.85-133.62-271.86-216.81-461.03-233.1-220.64 3.7513-352.84 89.623-424.26 231.93-60.947 178.09-41.61 347.54-13.456 489.32z" fill="#77a7d0"/><path id="path5449" fill="#4979a0" d="m4090 2608.2c-58.659 0.716-117.8 10.119-175.25 29.719-144.61 49.334-221.48 150.26-254.75 268.38-33.273 118.11-25.099 253.33-5.4688 378.28l33.594-5.2812c-19.263-122.61-26.395-253.67 4.625-363.78s98.056-199.38 232.97-245.41c245.95-83.906 531.19 35.425 644.84 213.66 153.46 240.66 101.24 569.51-87.846 701.82 215.38-88.306 278.59-465.96 116.53-720.1-96.589-151.47-299.76-259.84-509.25-257.28z"/><path id="path5455" d="m3815.5 3383.7c110.19-108.86 279.93-94.045 296.98 98.995 15.498 175.46-50.767 328.62-123.39 481.37-78.579 165.29 17.484 468.83 154.53 666.2 127.66 183.85 294.96 189.87 492.12 145.02-220.8-52.235-367.15-353.17-220.56-650.54 61.434-124.62 155.74-225.7 279.96-316.78 180.14-132.08 181.56-440.76-31.113-485.66" stroke="#4979a0" stroke-miterlimit="9" stroke-width="34" fill="none"/><path id="path5457" d="m3756.5 3311.9c95.681-303.78 388.88-363.28 551.2-215.5 173.56 158.01 173.14 414.67 82.368 637.08-90.679 222.19-224.33 419.43-193.5 651.31 22.741 171.08 123.67 343.51 221.45 410.32" stroke="#4979a0" stroke-width="24" fill="none"/><path id="path5480" d="m4342 2594c-202.33 40.529-435.44 245.32-264 466 62.055 79.879 131.42 236.4-54 348l24 96c88.124-61.402 173.31-120.63 304-100 158.44 25.012 199.17-85.986 176-236-23.205-150.24 45.767-226.49 164-248z" fill-opacity=".25098" mask="url(#mask5523)" fill="#fff"/><path id="path5482" d="m4028 3656c171.54-10.009 335.82 45.012 232 166-104.46 121.74 40.891 160.81 300 170l-140 212c-45.028-12.983-57.303-46.2-80-72-41.422-47.085-99.905-62.274-156-76-88.194-21.58-178.67-32.529-268-80z" fill-opacity=".25098" mask="url(#mask5513)" fill="#fff"/></g><g transform="translate(522.89 -47.948)"><path id="path3973" fill="#83a6c6" d="m3365.8 5476.7c172.38 210.94 293.7 56.567 418.61-72.125 18.239 96.224 27.512 202.41 77.782 263.04 38.164-14.017 56.431-91.705 76.368-164.05 26.007 80.231 53.051 159.22 115.97 195.16 53.736 0.5045 54.268-44.01 60.811-83.439 14.287 59.925 34.288 94.132 63.64 86.267v97.581c-280.33 125.98-565.37 135.94-857.01-16.971-2.1055-103.22 1.3047-205.97 43.841-305.47z"/><path id="path3795" stroke-linejoin="round" d="m3405.5 5438c-73.717 67.564-78.689 229.17-81 345 313.2 165.33 615.21 128.91 856 16.672 0.1507-72.772-4.3456-141.17-8-212.67" stroke="#637a91" stroke-width="34" fill="none"/><path id="path3975" fill="#fff" d="m3430 4278c122.02 219.52 159.25 451.15 132 692-29.089 192.39-101.09 356.16-194 506 58.466 69.268 121.89 123.65 212 98 84.345-30.05 136.89-104.62 196-170 24.884 93.116 35.766 200.23 90 264 42.526-25.544 52.466-99.967 76-154 27.777 81.334 52.858 166.71 122 186 33.101 4.2951 43.209-28.199 50-66 18.057 29.34 23.613 86.185 66 62-11.318-394.8-51.356-783.86-116-1168-17.51-142.49-104.51-215.49-250-230z"/><path id="path3971" fill="#83a6c6" d="m2185 5328.2c-90.699 170.72-167.96 342.79-147.08 524.67 304.43 176.62 598.74 135.48 888.13-11.314l5.6568-415.78z"/><path id="path3873" stroke-linejoin="round" d="m2178 5332c-65.883 119.46-165.05 352.74-142 518 302.79 196.59 695.05 103.45 901-17" stroke="#637a91" stroke-width="34" fill="none"/><path id="path3968" fill="#fff" d="m2803 4254.9c3.4043 151.75 29.673 294.36 59.397 435.58 47.586 224.56 65.639 445.43 70.711 664.68 2.9871 158 11.504 318.76-5.6568 466.69-57.023 2.3065-87.772-74.21-118.79-149.91-23.386 41.173-40.342 87.973-104.65 93.338-85.453-37.362-86.234-136.3-118.79-212.13-22.807 47.903-30.1 111.32-82.024 130.11-53.273-77.257-32.289-162.76-42.912-244.76-51.061 71.703-96.849 170-208.82 165.56-135.46-50.66-108.68-170.87-90.51-251.73 148.83-302.25 143.29-654.11 82.024-1023.9z"/><path id="path3966" fill="#fff" d="m2604 1748c-42.876 334.67-45.296 669.33-28 1004 21.643 108.24 43.397 215.46 86.828 309.17 316.15-1.0361 647.87 37.562 1061.2 230.83 135.45 93.987 245.82 205.53 232 404 19.228 232.26-39.139 428.01-148 600 119.43 23.775 235.91 51.352 252 208l-512 88c-20.416-90.317-38.966-181.01-96-264-210.67 98.462-421.33 127.56-632 144l-556 12c-192.86-1.8796-384.54 9.7771-592-160-151.09-145.96-244.6-327.12-260-556-11.491-273.41 57.392-556.87 166.26-845.33l237.59-574.17z"/><path id="path3797" fill="#c5d2d1" d="m3247.4 4090.1c78.218 76.823 193.6 218.33 241.67 345.42 122.9 324.89 86.861 667.74-132.09 1033.2l-5.7812 9.6484 7.0624 8.3829c44.543 52.871 86.581 83.961 127.78 97.344 41.2 13.383 80.803 8.6603 116.91-7.1562 65.111-28.524 120.5-91.36 170.91-152 15.053 81.794 28.429 142.21 40.938 182.72 6.9103 22.379 13.489 39.037 20.625 51.156 7.1358 12.12 15.419 21.292 27.625 22.594 12.206 1.3015 21.948-6.663 29.281-16.406 7.3328-9.7433 13.848-22.823 20.625-39.312 9.3317-22.706 19.02-52.226 29.437-86.531 16.326 73.046 46.208 130.33 80.094 158.16 10.363 8.5105 21.389 14.38 33.125 16.156 11.736 1.7764 24.033-1.1166 34.188-8.5 11.682-8.4938 20.841-22.002 27.969-40.625 3.3735 11.408 7.293 21.709 12.281 30.438 5.7293 10.025 13.2 18.589 23.594 22.812 14.655 5.9545 39.056-0.2711 47.344-11-6.7158-246.68-40.914-829.44-130.88-1244.6-14.407-66.489-56.91-107.12-106.41-132.25-49.496-25.126-106.32-36.798-155.28-50.062l-8.875 32.812c50.352 13.642 104.97 25.369 148.75 47.594 43.78 22.224 76.385 52.891 88.562 109.09 87.656 404.55 122.41 976.35 129.78 1227.3-1.3832-0.1682-2.6133-0.5448-3.7812-1.0312-3.7373-1.5565-7.8391-5.3366-11.969-12.562-8.2592-14.452-14.882-41.046-20.594-72.469l-12.625-69.375-11.031 69.656c-6.8779 43.357-19.831 66.777-30.969 74.875-5.5688 4.0489-10.408 5.1048-16.469 4.1875-6.0606-0.9173-13.481-4.3832-21.5-10.969-32.078-26.342-68.877-100.95-80.313-193.69l-7.1562-58-16.281 56.125c-16.268 56.072-30.428 102.3-43.188 133.34-6.3798 15.523-12.508 27.243-17.594 34-5.0854 6.7569-7.5353 6.9717-7.5625 6.9688-0.027 0-4.035-1.6244-9.5-10.906-5.465-9.2819-11.795-24.62-18.406-46.031-13.223-42.823-27.921-109.9-44.906-205.12l-4.5625-25.531-16.5 19.969c-54.706 66.198-114.52 137.04-178.41 165.03-31.945 13.995-64.378 17.833-99.844 6.3125-32.432-10.534-67.808-34.456-106-77.344 224.65-369.73 259.58-726.8 133.41-1060.3-51.155-135.23-169.27-275.89-273.48-333.42z"/><path id="path3801" d="m4053.5 4465.5c-26.6-122.7-150.2-142.6-249.5-169.5 137.7-200.9 177.2-435 152-664-22.9-207.8-175.7-318.8-343.5-391.8-291.3-126.6-648.5-185.7-960.5-184.2" stroke="#c5d2d1" stroke-width="34" fill="none"/><path id="path3807" fill="#c5d2d1" d="m2807.4 4486.9c60.609 339.63 119.61 676.31 114 974.38-2.2038 117.09-7.3752 234.36-5.8125 352.06-48.385-30.706-75.932-89.828-88.781-170.59l-7.9376-49.844-15.344 48.094c-15.371 48.164-34.253 80.9-52.719 98.375s-34.36 20.665-51.938 13.094c-17.577-7.5716-37.618-28.884-55.406-65.344-17.789-36.46-33.431-87.534-44.375-152.66l-8.3438-49.625-14.937 48.062c-16.952 54.505-33.591 94.057-47.906 116.84-7.1575 11.394-13.874 18.412-18.125 21.063-4.2511 2.6499-4.0299 2.3652-6.3125 0.875-2.2826-1.4904-6.979-7.2198-11.125-18.156s-7.9666-26.63-11-46.781c-6.0668-40.302-9.1023-98.465-7.9375-174.75l0.75-48.437-23.281 42.469c-41.701 76.164-84.841 123.14-123.66 147.12-38.815 23.981-72.384 25.54-99.688 12.562-27.304-12.977-48.835-41.982-60.719-83.156-6.2091-21.513-8.2184-102.45 6.375-131.25 137.59-271.49 144.8-556.1 119.93-842.31-9.7255-111.93-32.71-236.77-70.85-331.25 15.599 97.855 26.977 221.31 36.564 331.28 24.359 279.4 19.095 553.96-109.27 813.53-1.9579 3.9592-4.2181 9.4947-5.25 14-13.144 57.386-12.328 109.64-0.625 152.34 12.679 46.271 38.368 81.787 73.531 98.5s78.727 13.277 122.62-13.844c36.272-22.41 73.384-60.93 109.47-117.88 0.3769 55.748 3.1797 100.74 8.2812 134.62 3.1974 21.24 7.2342 38.323 12.312 51.719 5.0783 13.396 10.974 23.572 20.438 29.75 9.4636 6.1785 22.579 5.3254 32.125-0.625 9.5456-5.9504 17.532-15.575 25.75-28.656 11.784-18.758 23.738-45.314 35.938-79.156 10.24 46.085 23.063 84.21 37.75 114.31 19.218 39.39 41.538 65.674 67.469 76.844s54.734 4.27 77.938-17.687c16.547-15.658 31.304-38.627 44.281-68.75 19.058 76.381 53.514 140.65 118.03 159.34l20.813 6.0313-0.469-18.313c-3.1689-123.73 3.082-248.04 5.4375-373.19 5.7035-303.02-53.912-641.31-114.53-981-23.288-130.5-28.288-315.82-28.304-409.81-25.473 94.102-29.317 280.43-5.1644 415.77z"/><path id="path3800" d="m1784.7 2422.7c-87.188 214.16-181.52 438.46-254.2 653.01-136.46 402.83-195.46 837.09 45.467 1140.2 212.27 267.09 487.39 273.45 694 270" stroke="#c5d2d1" stroke-width="34" fill="none"/><path id="path3802" fill="#c5d2d1" d="m2585.8 1753.7c-18.127 137.91-31.183 379.77-32.062 585.12-0.8799 205.35 1.9934 394.11 17.875 475.09 15.276 77.899 34.994 159.97 63.938 230.69 28.944 70.715 81.182 143.63 148.67 161.59-54.131-38.611-89.718-107.31-117.2-174.46-27.487-67.154-46.954-147.49-62.031-224.38-14.247-72.649-18.126-263.96-17.25-468.41s14.076-446.11 31.781-580.81z"/><path id="path3875" d="m2824 4474c229.8-21.974 454.64-56.38 636-146" stroke="#c5d2d1" stroke-width="34" fill="none"/></g><g transform="translate(522.89 -47.948)"><path id="path3978" d="m3592.1 3833.4c4.4988-54.297 16.471-116.42 29.698-168.29-28.332 19.937-55.29 51.248-67.882 91.924-22.796-55.885-47.884-109.81-89.096-149.91-20.136 56.793-19.057 115.94-15.556 175.36-35.721-28.13-71.382-51.491-113.14-59.397 40.493 40.247 74.823 83.602 104.65 137.18 56.838-16.954 105.05-23.122 151.32-26.87z" stroke="#b9c16f" stroke-miterlimit="9" stroke-width="9" fill="#e4e384"/><path id="path3978-8" d="m3776.3 3979.6c4.3365-54.31 16.123-116.47 29.195-168.38-28.272 20.022-55.136 51.413-67.607 92.126-22.963-55.817-48.213-109.66-89.543-149.64-19.966 56.853-18.71 116-15.032 175.41-35.805-28.023-71.536-51.277-113.31-59.058 40.613 40.126 75.073 83.378 105.06 136.87 56.787-17.124 104.98-23.436 151.24-27.323z" stroke="#b9c16f" stroke-miterlimit="9" stroke-width="9" fill="#e4e384"/><path id="path3978-4" d="m3848.1 3768.5c12.916-52.93 34.434-112.42 55.593-161.6-31.096 15.272-62.608 41.993-81.394 80.206-13.797-58.758-30.165-115.93-64.614-161.97-28.751 52.956-36.914 111.55-42.728 170.79-30.894-33.359-62.474-61.998-102.48-76.322 33.717 46.073 60.862 94.252 81.966 151.83 58.787-7.878 107.37-6.4482 153.66-2.9304z" stroke="#b9c16f" stroke-miterlimit="9" stroke-width="9" fill="#e4e384"/><path id="path3991" fill="#854bb2" d="m3504.4 3761.3 12.021 48.083-45.962-41.719z"/><path id="path3989" fill="#e1b8f4" d="m3491.7 3714.6 12.021 47.376 30.406-7.7781z"/><path id="path3986" fill="#c065cc" d="m3492.4 3715.3 24.749 97.581 14.849-59.397-60.104 15.556z"/><path id="path3980" d="m3490 3710-18 58.879 45 44.121 16.293-59.293z" stroke="#69288f" stroke-width="9" fill="none"/><path id="path3982" d="m3490 3710 27 103" stroke="#69288f" stroke-width="9" fill="none"/><path id="path3984" d="m3533.3 3753.7-61.3 15.2" stroke="#69288f" stroke-width="9" fill="none"/><path id="path3991-3" fill="#854bb2" d="m3688.4 3907.7 12.164 48.047-46.086-41.582z"/><path id="path3989-1" fill="#e1b8f4" d="m3675.6 3861.1 12.162 47.34 30.382-7.869z"/><path id="path3986-6" fill="#c065cc" d="m3676.3 3861.8 25.04 97.506 14.672-59.441-60.057 15.736z"/><path id="path3980-8" d="m3673.8 3856.4-17.824 58.932 45.132 43.987 16.116-59.341z" stroke="#69288f" stroke-width="9" fill="none"/><path id="path3982-2" d="m3673.8 3856.4 27.308 102.92" stroke="#69288f" stroke-width="9" fill="none"/><path id="path3984-7" d="m3717.3 3900-61.247 15.355" stroke="#69288f" stroke-width="9" fill="none"/><path id="path3991-7" fill="#854bb2" d="m3772.7 3683.6 4.3711 49.37-38.89-48.38z"/><path id="path3989-12" fill="#e1b8f4" d="m3767.5 3635.5 4.4815 48.671 31.247-2.9386z"/><path id="path3986-60" fill="#c065cc" d="m3768 3636.3 9.2201 100.25 23.935-56.352-61.795 5.9877z"/><path id="path3980-9" d="m3766.5 3630.7-26.966 55.349 37.565 50.602 25.345-56.024z" stroke="#69288f" stroke-width="9" fill="none"/><path id="path3982-4" d="m3766.5 3630.7 10.598 105.95" stroke="#69288f" stroke-width="9" fill="none"/><path id="path3984-6" d="m3802.5 3680.6-62.91 5.4222" stroke="#69288f" stroke-width="9" fill="none"/></g><g transform="translate(522.89 -47.948)"><path id="path4070" fill="#fff" d="m2607.8 2893-22.628-117.38c-240.76 104.27-484.28 201.64-732.56 287.09-73.508 37.272-143.78 77.777-165.46 166.88l-31.113-7.071c9.2715-106.91-55.732-152.65-107.48-209.3-77.971 248.39-157.82 496.62-151.32 752.36 55.501 139.74 121.56 270.53 216.96 381.01 20.059-108.1 75.812-239.91 143.49-302.98-2.1-148.3 18.2-304 38.2-459.6l174-74c217.44-132.64 427.9-269.33 637.81-417.03z"/><path id="path3793" d="m1677.6 3253.6c25.276-80.676 71.681-152.47 176.78-189.15 243.11-84.844 489.58-183.1 732.81-289.85 4.9246 49.853 13.371 99.698 26.009 147.67" stroke="#a3acac" stroke-width="34" fill="none"/><path id="path4076" fill="#505050" d="m3190.5 3530.8c3.7875 385.33-119.76 681.92-364.87 893.78l-565.69 82.024c-130.05 2.2048-229.01-73.296-313.96-183.85-195.82-248.89-203.82-521.64-164.05-800.44l175.36-209.3c219.26-121.67 434.97-268.25 650.54-415.78l48.083 135.76c272.74 15.907 537.13 65.19 794.79 141.42 157.81 62.257 326.63 82.29 463.86 223.45 75.067 138.79 97.819 302 117.38 466.69 21.937 196.25 61.692 360.92 196.08 463.46 110 73.485 220 62.587 330 12-44.748 106.68-125.36 184.39-268 212-140.63 23.568-256.4-33.177-348-168-79.111-123.43-104.18-261.88-116-404-7.9619-180.58-71.431-318.14-230-382z"/><path id="path4074" fill="#505050" d="m2808 4126c1.38 125.52 8.6458 247.13 26 362 40.064 242.67 89.271 485.33 94 728-102 7.9866-204-21.986-306-56-128.31-34.547-253-47.354-376-50 38.51-266.37 30.634-536.31 0-808z"/><path id="path3785" d="m1973 4359c-25.301-301.35 54.681-556.13 281.68-760.94-76.839-23.989-157.68-53.109-234.52-81.782 88.529-58.655 185.92-80.388 285.67-92.277 106.13-161.29 218.85-304.73 312.41-483.62" stroke="#252324" stroke-width="34" fill="none"/><path id="path3787" fill="#252324" d="m2618.8 2866.9-20.281 14.344c-131.28 92.944-440.71 299.46-656.47 423.69l16.969 29.469c208.16-119.85 499.47-313.36 639.12-411.41 25.596 95.682 75.59 255.15 187.97 283.27-86.6-64.9-137.4-220.4-161.2-315.3z"/><path id="path3791" d="m2827 4434.8c258.03-235.76 377.68-571.85 362.34-909.51 106.6 15.817 300.49 59.622 386.1 71.664 158.96 22.36 249.13 217.6 249.13 350.82 0 92.042 14.617 197.87 46.472 285.85 61.609 170.16 175.89 330.01 360.21 323.81 155.65-5.2334 290.04-99.09 331.51-213.57-58.983 28.879-118.04 43.966-176.95 39.665-136.04-9.9331-252.58-104.1-305.47-264.1-51.745-156.53-52.27-449.86-140.36-678.12-54.284-140.66-406.08-254.98-632.86-309.71-118.2-28.528-437.97-87.562-656.75-100.22" stroke="#252324" stroke-width="34" fill="none"/><path id="path3796" d="m1650.7 3244.8c19.205-118.72-18.12-149.87-102.88-234.41-23.45 58.401-40.114 115.29-55.154 171.83-62.5 232.7-118.2 435.4-88.7 675.8" stroke="#a3acac" stroke-width="34" fill="none"/><path id="path4072" fill="#376387" d="m1760 3844c34.03 367.79 232.51 589.37 426 658-105.81-0.7683-212.45-9.7987-322-48-327.23-133.43-444.23-392.62-474-704 61.817 137.89 118.49 278.81 224 391 26.112-106.18 77.867-241.95 146-297z"/><path id="path3803" fill="#252324" d="m2810.1 4070.2c-19.832 123.28-11.481 313.54 9.097 449.81 36.245 240.03 92.543 479.28 88.312 707.16l34 0.625c4.342-233.87-52.726-474.69-88.688-712.84-20.096-133.09-34.203-316.3-42.722-444.75z"/><path id="path3805" d="m2976 5223.5c8.4548 79.333 14.812 158.67 14 238-135.57 10.676-271.64-9.2469-420-49-100.29-26.872-272.25-74.774-414-76 35.167-72.572 68.234-146.04 85-226.5 135.12 4.7193 265.73 3.3756 405 56 105.7 39.94 220.83 49.466 330 57.5z" stroke="#252324" stroke-width="34" fill="#505050"/><path id="path3811" fill="#252324" d="m2220.9 4208.8c22.834 111.7 21.436 219.57 29.105 318.84 15.2 196.77 15.417 391.5-24.094 580.72l33.281 6.9376c40.469-193.81 40.049-391.79 24.719-590.25-7.8051-101.04-16.548-208.75-63.011-316.25z"/><path id="path3877" style="color:#000000" d="m2935.9 5336c0 29.289-32.292 53.033-72.125 53.033-39.834 0-72.125-23.744-72.125-53.033s32.291-53.033 72.125-53.033c39.833 0 72.125 23.744 72.125 53.033z" transform="matrix(.99035 .13858 -.13858 .99035 767.09 -345.37)" stroke="#b9c16f" stroke-width="24" fill="#e4e384"/><path id="path3888" style="color:#000000" d="m1633.4 3798.1c0 24.212-19.628 43.841-43.841 43.841-24.212 0-43.841-19.628-43.841-43.841 0-24.212 19.628-43.841 43.841-43.841s43.841 19.628 43.841 43.841z" transform="translate(4.2426)" stroke="#b9c16f" stroke-width="14" fill="#e4e384"/><path id="path3888-7" style="color:#000000" d="m1633.4 3798.1c0 24.212-19.628 43.841-43.841 43.841-24.212 0-43.841-19.628-43.841-43.841 0-24.212 19.628-43.841 43.841-43.841s43.841 19.628 43.841 43.841z" transform="translate(24.042 -277.19)" stroke="#b9c16f" stroke-width="14" fill="#e4e384"/><path id="path3884" fill="#2b4a5b" d="m1379.3 3679.5c-4.7037 28.974-7.5023 63.949-6.375 84.094 28.19 503.77 451.68 802.02 830.69 752.03l-4.4374-33.719c-344.72 45.469-734.71-213.67-787.62-665.72 50.782 134.5 119.96 245.18 196.72 334.34l8.7187 10.125 3.375-12.937c29.536-114.02 67.149-222.73 144.12-309.66l-10.5-9.2813c-76.295 86.159-114.41 192.34-143.66 302.41-122.4-149.7-178.8-300.5-231-451.6z"/><path id="path3783" d="m2263.4 4499.5c-259.26 31.013-512.07-377.19-505.58-732.56 1.4528-79.542 10.726-173.26 26.516-254.56" stroke="#252324" stroke-width="34" fill="none"/><g id="g4080"><path id="path4078" fill="#b693c1" d="m2016.7 3157.4c-66.88 147.22-102.36 298.93-144.25 449.72l-203.6-213.5c-27.813 5.1476-55.626 1.8891-83.439-15.556l-278.6 138.59c17.365-155.31 35.487-310.54 19.799-469.52 87.704 51.785 171.57 115.09 251.73 189.5 43.841-7.7381 87.681-8.1051 131.52 14.142z"/><path id="path3908" d="m1716.9 3245.1 301.23-91.924c-66.887 148.49-114.58 309.71-149.91 462.45l-205.06-229.1" stroke="#764d80" stroke-width="34" fill="none"/><path id="path3910" d="m1578.3 3236.6c45.255-10.316 150.45-32.742 135.76 60.811-15.272 97.262-78.694 114.38-134.35 77.782" stroke="#764d80" stroke-width="34" fill="none"/><path id="path3912" d="m1327.9 3042.9c9.6603 158.86 9.783 317.73-25.456 476.59 91.924-41.259 183.85-85.556 275.77-134.35 6.5997-49.026 7.5425-98.052 2.8285-147.08-84.381-77.518-168.76-140.22-253.14-195.16z" stroke="#764d80" stroke-width="34" fill="none"/><path id="path3914" fill="#764d80" d="m1707 3337.7c25.456 2.0923 50.912 12.836 76.368 31.82-15.62-25.479-38.252-46.095-72.125-48.79z"/><path id="path3916" fill="#764d80" d="m1574.7 3339.9c-46.739-27.988-99.968-28.392-154.15-24.749 52.936-18.698 105.22-20.324 156.27 9.8995z"/><path id="path3918" fill="#764d80" d="m1577.6 3293.9c-26.87-21.782-53.74-29.024-80.61-36.062 28.049-2.9568 56.097-1.9248 84.146 21.213z"/></g></g><g transform="translate(522.89 -47.948)"><path id="path4105" fill="#fff" d="m2373.1 1386.8c-161.3-124.4-335.7-207.4-523.3-248.9l-591.14 19.799c-91.674 308.07-241.23 503.51-472.35 540.23 6.9576 98.358 14.208 196.66 39.598 291.33 127.28 58.169 254.56 56.808 381.84 48.083-28.943 92.898-105.54 85.72-169.71 104.65l-166.88 8.4853 53.74 107.48c131.38 16.206 259.86 64.225 387.49 121.62 214.02 79.947 437.56 102.44 681.65 5.6568l560.03-568.51z"/><path id="path4103" fill="#fff" d="m899.44 2019c-11.655 50.847-8.6147 94.346 9.8995 130.11 113.66-11.824 243.88 5.5547 296.98-113.14-102.29 4.5909-204.59 4.5735-306.88-16.971z"/><path id="path3812" fill="#b9dce6" d="m1168.3 2041.8c-56.533 26.385-118.39 41.596-179.43 58.513 70.302-0.9616 141.63-19.475 210.72-42.603l5.3033-23.334z"/><path id="path3810" d="m899.62 2022.2c-9.9698 40.255-7.5364 91.925 11.137 128.52" stroke="#b9dce6" stroke-width="19" fill="none"/><path id="path3806" fill="#c5d2d1" d="m1242 1158.2c-48.317 131.61-98.688 251.65-169.72 343.62-71.03 91.973-161.74 156.49-295.22 179.47l-16.156 2.7812 2.2188 16.25c13.355 97.812 25.453 196 40 294 0.74279 5.0041 10.114 8.5369 17.219 11.656 125.5 55.106 248.82 46.816 369.72 41.969-6.6028 16.541-18.241 29.807-34.406 41.063-20.78 14.469-48.973 25.048-80.844 32.344-63.742 14.592-141.78 16.496-204.44 16.438l-22.243-0.021 6.5239 18.333c14.208 39.927 34.397 77.398 61.969 112.97l5.375 6.9063 8.75-0.3437c16.137-0.663 72.087 9.1139 142 30.094 69.914 20.98 154.25 57.416 243.62 94.25 238.27 98.197 611.1 108.84 798.62-108.4-242.62 174.67-553.87 170.59-783.99 77.708-91.502-36.931-176.92-74.654-248.47-96.125-64.549-19.37-113.58-30.307-143.81-31.406-18.45-25.071-32.599-51.737-44.938-80.125 58.511-0.5953 127.03-3.314 186.41-16.906 33.733-7.7223 64.63-18.9 89.187-36 24.558-17.1 42.728-40.744 48.688-71.125l2.9062-14.844-15.125 0.5312c-124.89 4.5324-246.81 15.265-369.44-36.5-13.653-90.545-26.443-181.95-37.438-275.16 132.96-26.95 228.12-95.681 300.22-189.03 74.991-97.102 126.11-220.24 174.75-352.72z"/><path id="path3922" d="m838 1917c39.179-12.437 78.718-24.1 123-10 31.994 10.187 64.281 25.584 91-5-25.333-5.0263-49.014-16.817-73-38-59.753-52.769-112.22-9.2372-141 53z" stroke="#4979a0" stroke-width="14" fill="#77a7d0"/><path id="path3924" d="m795 1923c-17-10.986-34.263-8.1103-51 0-21.604 10.469-40.363 6.9118-67 2 19.578-14.17 32.174-26.087 43-46 25.072-46.117 94-40.709 75 44z" stroke="#4979a0" stroke-width="14" fill="#77a7d0"/><path id="path3926" fill="#c5d2d1" d="m838 1797c19.857 64.317 75.322 38.338 93-21-30.018 23.692-60.352 42.015-93 21z"/><path id="path3994" d="m2364.6 1381.2c-163.3-140-338.8-203.3-509.2-242.9" stroke="#4979a0" stroke-width="34" fill="none"/><path id="path3887-6" d="m2494 866c-74.842 5.4334-222.94 94.543-160 186 50.353 73.162 39.771 117.12-50 142-76.528 21.211-136.74 64.716-186 120l250 112 152-228c-33.098-116.67 64.427-235.13 160-236z" fill-opacity=".25098" mask="url(#mask4150)" transform="translate(0 0.00001)" fill="#fff"/></g><g transform="translate(522.89 -47.948)"><path id="path3967" clip-path="url(#clipPath4210)" fill="#fff" d="m1344 1606c192 66.817 384 156.52 576 266-100.3 228.02-258.8 237.82-422 230-228.69-95.058-203.34-290.78-154-496z"/><path id="path3932" style="color:#000000" d="m1634.8 1758.8c0 161.68-89.276 292.74-199.4 292.74-110.13 0-199.4-131.07-199.4-292.74 0-161.68 89.276-292.74 199.4-292.74 110.13 0 199.4 131.07 199.4 292.74z" clip-path="url(#clipPath4206)" transform="translate(-4)" fill="url(#linearGradient4220)"/><path id="path3936" d="m1536 1858 84 50-50 88-72-56z" clip-path="url(#clipPath4194)" fill="#d1f7ff"/><path id="path3938" d="m1536 1864 84 50 12-50-94-62z" clip-path="url(#clipPath4190)" fill="#abe5ed"/><path id="path3934" style="color:#000000" d="m1560 1773c0 132-62.232 239-139 239s-139-107-139-239 62.232-239 139-239 139 107 139 239z" clip-path="url(#clipPath4202)" transform="matrix(1.0072 0 0 1.0251 -9.223 -50.51)"/><path id="path3963" style="color:#000000" d="m1426 1829c0 18.225-10.745 33-24 33s-24-14.775-24-33 10.745-33 24-33 24 14.775 24 33z" transform="translate(2,2)" fill="#fff"/><path id="path3965" style="color:#000000" d="m1566 1728c0 59.647-30.445 108-68 108s-68-48.353-68-108 30.445-108 68-108 68 48.353 68 108z" clip-path="url(#clipPath4198)" transform="matrix(.95532 -.24729 .24381 .96894 -355.37 416.1)" fill="#fff"/></g><g opacity=".5" display="none" transform="translate(522.89 -47.948)"><path id="path3929" d="m1397.2 1618.8c-101.17 142.36-46.419 413.94 135.76 438.41 182.18 24.465 309.55-59.873 336.58-217.79-157.45-91.31-314.9-161.22-472.35-220.62z" stroke="#f00" stroke-width="1px" fill="#0f0"/></g><g transform="translate(522.89 -47.948)"><path id="path3974" fill-opacity=".062745" d="m1668 1292c-69.743 39.81-174.3 104.26-210 192l-134 114c175.33 62.764 350.67 126.93 526 234 33.798-60.388 17.906-123.88-8-188-72.365-105.58-178.18-183.79-174-352z"/><path id="path3970" d="m1480 1442c-47.789 63.428-122.62 120.52-215 162 264.88 72.061 573.53 227.88 669 288-12.316-29.333-36.131-60.438-78-83-161.18-86.854-331.93-162.08-502-213 54.902-34.013 108.48-90.251 126-154z"/><path id="path3972" fill="#c5d2d1" d="m1732.4 1248.2c-43.614 36.074-58.52 83.484-38.184 137.18 47.383 125.11 126.6 221.64 190.92 313.96-80.055-73.378-187.92-205.01-233.35-326.68-20.189-54.083 2.2714-118.67 80.61-124.45z"/></g><g transform="translate(522.89 -47.948)"><path id="path3981-1" d="m1159.7 1644.2c36.386-90.386 103.21-84.423 124.45 0 25.704 102.15 23.726 213.49 0 304.06-32.702 124.82-122.73 117.09-148.49 0-21.765-98.942-12.898-212.3 24.042-304.06z" fill="#cbf2ef"/><path id="path3979" fill="#2b4a5b" d="m1278.6 2077.5c-49.175 385.69-66.062 680.14 15.281 976.69 48.186 175.67 148.56 280.38 275.03 329.84 126.47 49.462 319.67 48.775 440.81 2.756-123.85 21.981-313.12 32.162-435.72-15.787s-219.37-148.22-266.62-320.5c-80.587-293.8-63.988-586.02-14.875-971.22z"/><path id="path3985" d="m1252 1692-140 119 1 76 151-104z" fill-opacity=".62745" clip-path="url(#clipPath4280)" fill="#fff"/><path id="path3983-8" d="m1195 1591.9c85.527 83.368 61.78 323.74-7.0105 442.1 37.444 11.144 67.554-5.8208 89-56 37.438-106.53 30.286-206.38 15-305-14.056-91.449-66.494-118.26-96.99-81.104z" fill-opacity=".25098"/><path id="path3981" d="m1159.7 1644.2c36.386-90.386 103.21-84.423 124.45 0 25.704 102.15 23.726 213.49 0 304.06-32.702 124.82-122.73 117.09-148.49 0-21.765-98.942-12.898-212.3 24.042-304.06z" stroke="#2b4a5b" stroke-width="14" fill="none"/><path id="path3977" style="color:#000000" d="m1337.8 2034.5c0 27.337-22.161 49.497-49.498 49.497s-49.498-22.161-49.498-49.497c0-27.337 22.161-49.498 49.498-49.498s49.498 22.161 49.498 49.498z" transform="matrix(1.0143 0 0 1.0143 -16.284 -25.529)" stroke="#b9c16f" stroke-width="13.803" fill="#e4e384"/></g><g transform="translate(522.89 -47.948)"><path id="path3997-2" d="m1292 1324c-145.4-273.9-329.99-722.68-470-1112-58.49-162.64 11.44-206.78 122.69-47.72l652.28 932.69" fill="#fff"/><path id="path3997" fill="#c5d2d1" d="m828.44 48.031c-5.5076 0.33262-10.875 1.651-16.062 4.125-10.375 4.9479-17.935 14.258-22.312 24.844s-6.1798 22.723-6.2188 36.531c-0.0779 27.616 7.0864 62.314 22.156 104.22 111.48 309.99 251.06 657.41 377 925.09 32.461 68.993 102.21 193.5 114.55 187.25 12.338-6.2403-51.52-133.12-83.799-201.72-125.3-266.1-264.64-612.96-375.8-922.05-14.17-39.41-20.22-71.19-20.16-92.63 0.03-10.71 1.64-18.742 3.66-23.62 2.017-4.8781 3.8362-6.3627 5.5-7.1562 3.3276-1.587 14.348-1.3612 33.281 12.594s43.348 39.815 70.469 78.594l652.28 932.69 27.875-19.5-652.28-932.67c-28.502-40.755-54.549-69.015-78.188-86.438-17.729-13.067-35.477-21.06-52-20.062z"/><path id="path3999" d="m1042 306c-19.71 81.594-66.306 118.38-134 120" stroke="#c5d2d1" stroke-width="24" fill="none"/><path id="path4001" d="m1176 496c-28.636 80.697-72.595 162.07-168 184" stroke="#c5d2d1" stroke-width="24" fill="none"/><path id="path4003" d="m1354 747.84c-45.063 116.7-124.26 182.47-250.34 178.33" stroke="#c5d2d1" stroke-width="24" fill="none"/><path id="path4005" d="m1196 1132c104.51-2.4745 207.65-66.14 286-196" stroke="#c5d2d1" stroke-width="24" fill="none"/></g><g transform="translate(522.89 -47.948)"><path id="path4306" fill="#fff" d="m2472 1862c132.76-68.476 210.39-182.9 280-304 49.333-130.48 86.842-268.49 78-436-3.364-94.964-51.32-68.894-90-68-233.55 103.3-409.1 232.7-536 384z"/><path id="path4008" fill="#c5d2d1" d="m2781.3 1029.8c-19.012-1.0605-39.961 4.0734-62.25 11.719-205.25 70.405-455.82 271.34-514.06 399.68 101.76-101.66 329.17-300.32 525.09-367.52 32.305-11.081 54.409-12.082 65.844-5.2812 11.435 6.801 21.177 25.194 21.937 69.5 5.7694 336.33-139.94 569.35-336.84 723.82 233.1-107.53 376.8-377.18 370.84-724.38-0.8442-49.22-12.236-82.498-38.562-98.156-9.8726-5.8718-20.593-8.7386-32-9.375z"/><path id="path4010" fill="#c5d2d1" d="m2716 1374c-37.907 133.66-113.85 232.1-238 314 148.42-54.636 257.89-159.62 238-314z"/></g><g transform="translate(522.89 -47.948)"><path id="path4017-1" d="m1926.2 1236.9c-89.12-123.15-283.99-155.23-430.61-36.77-46.073 37.227-85.41 61.573-81.338-39.598 14.468-359.5 274.18-386.67 490.15-394.81 151.48-5.707 209.09 82.389 178.88 195.16-35.987 134.31-48.877 255.84-37.113 391.29 13.23 152.33 174.22 212.66 349.9 102.31-14.009 43.1-36.554 76.347-63.983 102.02 44.507-1.3502 95.942-28.775 133.86-53.598l-46.77 99.338c89.078-33.507 169.01-95.371 236.76-158.88-28.451 172.86-123.42 318.02-294.5 358.04-193.99 45.375-377.97-24.024-424.75-243.24-19.952-104.74-27.761-211.21-10.485-321.27z" fill="#77a7d0"/><path id="path4017" d="m1926.2 1236.9c-89.12-123.15-283.99-155.23-430.61-36.77-46.073 37.227-85.41 61.573-81.338-39.598 14.468-359.5 274.18-386.67 490.15-394.81 151.48-5.707 209.09 82.389 178.88 195.16-35.987 134.31-48.877 255.84-37.113 391.29 13.23 152.33 174.22 212.66 349.9 102.31-14.009 43.1-36.554 76.347-63.983 102.02 44.507-1.3502 95.942-28.775 133.86-53.598l-46.77 99.338c89.078-33.507 169.01-95.371 236.76-158.88-28.451 172.86-123.42 318.02-294.5 358.04-193.99 45.375-377.97-24.024-424.75-243.24-29.542-138.45-15.204-288.69-10.485-437.23 4.7156-148.44-126.77-204.98-265.87-144.25-119.6 52.213-198.08 127.25-234.07 240.9" stroke="#4979a0" stroke-width="34" fill="none"/><path id="path4019" d="m1926.2 1183.2c-71.923-182.18-323.91-171.92-492.15 36.77" stroke="#4979a0" stroke-width="14" fill="none"/></g></svg>