<?xml version="1.0" encoding="UTF-8"?><svg xmlns="http://www.w3.org/2000/svg" xmlns:xlink="http://www.w3.org/1999/xlink" version="1.1" viewBox="0 0 6189.6212 6189.6109" width="6189.6212" height="6189.6109"><defs id="defs4"><linearGradient id="linearGradient4593"><stop id="stop4595" stop-color="#c0ff95" offset="0"/><stop id="stop4597" stop-color="#8bc05a" offset="1"/></linearGradient><clipPath id="clipPath4105" clipPathUnits="userSpaceOnUse"><path id="path4107" d="m405.71 364.29c11.576-146.23 39.059-258.63 150-304.29 70.928-29.187 166.58-21.235 227.14 14.286-41.011 10.191-90.456 35.064-97.143 88.571-6.8332 54.68-30.326 101.45-77.143 151.43-48.52 51.794-123.52 53.168-202.86 50z" stroke="#f00" stroke-width="1px" fill="#0f0"/></clipPath><clipPath id="clipPath4338" clipPathUnits="userSpaceOnUse"><path id="path4340" opacity=".5" d="m2519.2 213.28c25.258-89.133 32.264-176.88 21.885-262.78-57.012 38.825-125.7 44.058-188.72 33.883-26.853 149.97-49.09 304.36-21.446 431.23 69.894-58.52 140.11-116.63 188.28-202.33z" stroke="#f00" stroke-width="1.0081px" fill="#0f0"/></clipPath><clipPath id="clipPath4342" clipPathUnits="userSpaceOnUse"><path id="path4344" opacity=".5" d="m2412.7 810.35c32.173-83.012 46.61-168.97 44.106-257.2-58.419 25.248-125.17 14.185-185.1-10.919-39.034 143.38-73.999 292.27-58.416 425.51 72.574-41.86 145.43-83.238 199.41-157.38z" stroke="#f00" stroke-width="1.0002px" fill="#0f0"/></clipPath><clipPath id="clipPath4346" clipPathUnits="userSpaceOnUse"><path id="path4348" opacity=".5" d="m2475.2 602.37c25.514-85.251 33.074-171.94 23.527-259.46-56.35 30.029-123.92 24.655-185.81 4.7457-27.549 145.85-50.592 296.84-24.384 428.01 69.166-47.739 138.65-95.022 186.66-173.3z" stroke="#f00" stroke-width="1.0002px" fill="#0f0"/></clipPath><clipPath id="clipPath4350" clipPathUnits="userSpaceOnUse"><path id="path4352" opacity=".5" d="m2157 1389.4c49.612-72.945 82.699-153.17 99.88-239.82-62.199 10.106-124.4-17.26-176.88-56.624-69.673 130.1-136.63 266.58-151.14 400.36 79.602-22.786 159.37-45.034 228.14-103.92z" stroke="#f00" stroke-width="1px" fill="#0f0"/></clipPath><clipPath id="clipPath4354" clipPathUnits="userSpaceOnUse"><path id="path4356" opacity=".5" d="m2766.7 799.93c-99.905 117.59-165.89 276.63-124.01 437.17 35.592 136.42 153.41 168.14 320.64 93.744 175.53-78.089 218.17-316.72 199.23-442.41-119.27-5.0862-291.76-14.898-395.86-88.504z" stroke="#f00" stroke-width="1.0001px" fill="#0f0"/></clipPath><clipPath id="clipPath4358" clipPathUnits="userSpaceOnUse"><path id="path4360" opacity=".5" d="m2872.1 496.14c-78.933 127.6-117.3 292.71-48.714 447.67 58.285 131.68 180.19 150.48 333.03 58.531 160.42-96.514 162.23-338.18 122.24-460.99-118.84 7.8162-291.13 16.682-406.55-45.209z" stroke="#f00" stroke-width="1.0005px" fill="#0f0"/></clipPath><clipPath id="clipPath4362" clipPathUnits="userSpaceOnUse"><path id="path4364" opacity=".5" d="m2871.7 551.54c-79.817 126.02-119.27 290.32-51.599 446.55 57.506 132.76 179.41 153.91 332.98 64.954 161.19-93.371 164.53-334.91 125.28-458.44-119 5.5128-291.52 11.04-406.66-53.06z" stroke="#f00" stroke-width="1.0009px" fill="#0f0"/></clipPath><clipPath id="clipPath4366" clipPathUnits="userSpaceOnUse"><path id="path4368" opacity=".5" d="m2613.9 1237.5c-115.74 100.22-204.05 246.92-186.11 412.5 15.24 140.7 126.89 191.08 302.78 144.44 184.62-48.951 261.48-278.16 261.11-405.56-116.97-24.263-285.77-61.784-377.78-151.39z" stroke="#f00" stroke-width="1px" fill="#0f0"/></clipPath><clipPath id="clipPath4521" clipPathUnits="userSpaceOnUse"><path id="path4523" d="m3838.9 1130.6c-297.8-351.5-643.2-662.52-1183.3-808.38l-150 155.56 1202.8 816.67z" stroke="#f00" stroke-width="1px" fill="#0f0"/></clipPath><linearGradient id="linearGradient4599" y2="610.03" xlink:href="#linearGradient4593" gradientUnits="userSpaceOnUse" x2="2947.4" y1="1063.2" x1="2888.1"/><linearGradient id="linearGradient4607" y2="396.16" xlink:href="#linearGradient4593" gradientUnits="userSpaceOnUse" x2="2384.7" y1="679.23" x1="2364.9"/></defs><g display="none" transform="translate(964.18 -114.39)"><rect id="rect6018" style="color:#000000" display="inline" height="6566.7" width="4311.1" stroke="#0f0" y="-33.333" x="-44.444"/></g><g opacity=".2" display="none" transform="translate(964.18 -114.39)"><ellipse id="path4074" style="color:#000000" d="m 3200.1632,6087.8574 c 0,196.378 -692.8634,355.5737 -1547.5537,355.5737 -854.69032,0 -1547.55371,-159.1957 -1547.55371,-355.5737 0,-196.3779 692.86339,-355.5737 1547.55371,-355.5737 854.6903,0 1547.5537,159.1958 1547.5537,355.5737 z" rx="1547.6" ry="355.57" display="inline" cy="6087.9" cx="1652.6"/></g><g transform="translate(964.18 -114.39)"><path id="path4079-9" d="m2028.4 3875.8c-182.84 654.66-159.38 1279.2 24.244 1901 28.118 95.201 67.504 188.96-110.28 211.79-134.35 17.246-269.71 32.636-404.06 8.0812-71.044-12.984-145.24-22.286-140.24-199.66 15.445-547.8 41.81-1083 147.48-1618.3 17.521-88.744 106.78-71.206 172.22-46.467l-123.31-321.09z" fill="#d5d898"/><path id="path5996" fill="#f3f7b2" d="m3311.1 3769.4c70.735 84.82 139.98 171.13 188.89 277.78 56.796 173.57-25.538 258.1-152.78 313.89-86.111 36.645-163.89-18.334-250-61.111z"/><path id="path4079" fill="#aaa658" d="m2004.8 3869.2c-184.07 659.08-160.38 1289 24.344 1914.5 14.32 48.486 28.014 93.369 21.705 120.56-3.1543 13.595-9.2786 23.832-25.598 34.379-16.319 10.546-43.778 20.186-86.01 25.607-134.11 17.215-266.83 31.987-396.54 8.2813-35.988-6.5774-65.811-12.011-85.941-31.629-20.131-19.618-36.615-57.977-34.211-143.24 15.435-547.46 41.808-1081.3 147.03-1614.2 3.5513-17.987 9.9249-27.745 17.596-34.303 7.6709-6.5578 17.791-10.445 31.088-11.873 26.595-2.8565 63.847 6.1923 94.76 17.879l-22.004-58.707c-24.968-6.6997-51.753-10.711-77.99-7.8928-20.369 2.1878-40.921 9.0096-57.695 23.35s-28.617 35.67-33.826 62.055c-106.12 537.51-132.48 1074.2-147.94 1622.3-2.597 92.113 15.517 147.09 48.994 179.71 33.477 32.624 76.274 38.333 111.33 44.74 138.99 25.403 277 9.393 411.58-7.8828 46.661-5.9896 80.948-16.627 106.37-33.055 25.419-16.428 41.025-39.86 46.732-64.459 11.415-49.197-8.644-98.796-22.441-145.51-182.52-617.98-205.75-1237.2-24.145-1887.4z"/><path id="path4081" fill="#aaa658" d="m1627.4 3746.6-48.615 6.1289c19.194 152.27 104.06 406.43 170.53 451.14-30.67-79.577-103.6-311.93-121.92-457.27z"/><path id="path4087" d="m3308.6 3771.4c122.42 159.74 293.14 365.46 154.29 511.43-96.793 101.75-220.84 122.24-332.27 32.756" stroke="#aaa658" stroke-width="49" fill="none"/></g><g transform="translate(964.18 -114.39)" stroke="#c4cae6" stroke-width="29" fill="#f8feff"><path id="path4094" d="m3236.5 3598.8c32.256-10.875 59.544-12.869 96.975-4.0406-14.483 56.739 2.2672 115.03 50.508 127.28-5.8655 93.475-87.121 141.85-143.44 200.01l-276.78-175.77z"/><path id="path4092" d="m3186 3398.8c78.521 61.249 102.49 132.73 94.954 210.11-101.5 87.287-209.64 152.42-327.29 185.87l-74.751-141.42z"/></g><g transform="translate(964.18 -114.39)"><path id="path4097-9" d="m3454.3 1448.6c-73.881 320.65 107.12 387.8 278.47 254.98 37.867 284.26-198.88 347.47-378.47 182.16-39.894 204.76 290.7 259.89 380 128.57 118.63 161.16-135.75 420.47-400 222.86 7.0381 196.9 171.07 201.53 282.86 185.71-108.71 180.77-304.37 140.22-494.29 114.29l7.6985-1064.9z" fill="#c22339"/><path id="path4099" fill="#fff" d="m3668.6 1931.4c-174.54-55.693-285.05-182.54-362.86-345.71l-142.86 8.5714 32.612 384.12c108.18 183.93 326.34 285.35 535.96 222.92 51.946-73.237 47.831-123.91 2.8571-175.61-80.592 94.687-383.32 90.647-380-131.43 116.44 97.011 219.37 96.133 314.29 37.143z"/><path id="path4097" d="m3454.3 1448.6c-73.881 320.65 107.12 387.8 278.47 254.98 37.867 284.26-198.88 347.47-378.47 182.16-39.894 204.76 290.7 259.89 380 128.57 118.63 161.16-135.75 420.47-400 222.86 7.0381 196.9 171.07 201.53 282.86 185.71-108.71 180.77-304.37 140.22-494.29 114.29" stroke="#7a121c" stroke-width="49" fill="none"/></g><g transform="translate(964.18 -114.39)"><path id="path4500" fill="#c22339" d="m1513.9 2822.2c-55-345.3-244.9-493.3-491.7-558.3-323.85-65.8-502.91 61.5-627.76 261.1-60.064 180.01-61.956 355.16-33.333 527.78 4.3662 151.68 61.895 338.29-180.56 327.78 65.542 134.5 168.08 177.75 344.44 38.889-18.44 181.99-65.514 342.29-325 341.67 58.407 318.17 384.54 309.57 561.11 105.56-14.369 117.56-81.995 211.12-222.22 291.67 149.07 67.736 298.15 101.79 447.22-13.889 250.69-223.16 132.56-515.95 111.11-708.33-44.497-164.62-88.957-329.25-25-508.33 62.709-115.77 228.96-119.41 288.89 33.333z"/><path id="path4120" fill="#fff" d="m1455 2801c-11.2-145.7-155.5-319-351-377.5-232.72-69.6-427.5 34.1-536 236.5-89.548 167.04-109.93 388.74-122.83 580.2-6.3066 93.623-45.706 225.04-106.83 283.8 83.961-22.503 139.15-56.515 185.66-94-15.986 211.64-110.61 338.83-330 332 87.674 292.45 303.14 361.06 568 104-2.9084 149.78-112.25 221.5-226 290 53.581 44.172 117.79 67.079 194 66 261.92-262.67 218.78-590.04 124.18-909.64-51.138-172.77-63.388-396.02 36.77-562.86 133.24-221.95 455.71-114.04 520.43 87.681z"/><path id="path4102" fill="#7a121c" d="m873.05 2216.2c-78.833 0.2804-155.9 13.938-226.79 42.25-126.03 50.333-232.05 147.88-290.05 295.39-68.535 174.3-40.967 422.83-13.51 641.58 9.3089 74.164-9.6501 117.97-38.947 140.02-29.297 22.046-74.388 25.643-127.67 3.6445l-47.928-19.787 15.145 49.59c31.197 102.15 101.71 162.17 181.88 169.89 66.928 6.4398 141.83-28.018 200.99-87.79l-5.5292-68.517c-56.993 75.824-131.27 113.26-190.77 107.53-48.332-4.6505-92.547-32.895-121.88-90.617 46.694 8.4375 91.015 0.9517 125.22-24.791 46.433-34.941 68.795-100.1 58.104-185.28-27.353-217.92-50.348-462.82 10.492-617.55 53.309-135.58 147.88-221.99 262.62-267.81 114.74-45.826 250.13-50.166 381.79-17.197 226.8 56.792 407.89 273.61 445.55 539.7l48.516-6.8672c-40.2-283.8-233-517.9-482.2-580.3-61.35-15.3-123.74-23.2-185.05-23z"/><path id="path4104" fill="#7a121c" d="m520.32 3315.7c-0.91135 65.75-28.286 232.23-77.435 312.46-49.149 80.227-123.9 127.39-245.12 98.051l-35.961-8.7031 6.0234 36.504c29.523 178.91 140.88 274.75 267.47 287.07 114.19 11.113 238.23-42.065 329.55-146.43l-11.114-64.577c-83.891 115.56-207.78 172.55-313.69 162.24-98.102-9.5477-183.37-73.107-216.79-211.84 119.88 15.33 209.51-41.99 261.42-126.71 57.13-93.255 70.504-258.14 35.652-338.05z"/><path id="path4106" fill="#7a121c" d="m1210.9 2818.9c-66.39-1.8101-134.65 37.053-162.16 120.92-56.612 172.59-16.518 340.03 22.117 497.15 48.042 195.37 80.909 394.51-13.713 596.71-31.961 68.296-122.22 134.62-223.09 161.09-89.408 23.459-184.22 16.87-256.08-37.018 57.031-29.845 108.51-69.005 146.79-122.85 45.757-64.359 78.79-168.7 47.08-293.71-18.982 99.857-47.808 210.17-87.016 265.31-39.207 55.147-95.505 93.915-160.78 123.09l-32.275 14.424 24.838 25.156c88.845 89.985 217.08 102.58 329.88 72.982 112.79-29.596 213.81-99.635 255.03-187.71 101.72-217.37 65.565-431.32 16.914-629.17-38.555-156.79-74.664-313.09-23.139-470.18 23.309-71.06 72.467-92.164 123.51-86.58 51.047 5.5836 101.89 42.446 118.23 97.258l46.959-13.998c-22.425-75.221-89.509-124.28-159.86-131.97-4.3968-0.4809-8.8142-0.7816-13.24-0.9023z"/></g><g transform="translate(964.18 -114.39)"><path id="path4630" fill="#f3f7b2" d="m2427.7 2214.1c43.835 213 143.52 467.16 0 542.12-276.3-14.246-552.59-22.336-828.89-15.714-131.88-11.42-245.9 26.295-294.63 243.56-158.38 432.47-117.31 833.45-81.997 1235.3-99.559-16.24-157.58 36.742-194.44 125l394.44 36.111c58.621-139.08 111.38-274.25 200-433.33 260.01 47.67 516.66 78.528 766.23 73.976 507.27-1.5643 786.43-259.06 864.24-742.46-9.5039-553.98-18.737-1117.7 11.785-1661.7z"/><path id="path4131-1" fill="#f3f7b2" d="m1224.7 4223.1c-71.314-16.384-139.25 3.2549-175.36 82.024-255.86 558.14-420.54 1156.5-565.35 1698.9-33.711 126.27 1.7818 151.36 64 168 153.99 41.173 310.01 29.515 468-4 85.018-18.035 108.19-77.622 116-172 54.338-656.84 185.33-1687.2 648-2304"/><path id="path4123" d="m3280 1556c-36.577 315.81-48.557 963.05-16 1308 53.616 568.07-184.77 1140.3-772 1152-285.54 5.6776-573.81 16.273-880-72" stroke="#aaa658" stroke-width="49" fill="none"/><path id="path4152-6" fill="#f3f7b2" d="m2278.3 3778.6c-150.6 757.7-305.2 1603.8-286.3 2293.4 4.115 150.48 43.613 175.68 124 192 144.42 29.322 279.81 12.293 416-12 90.343-16.115 154.22-57.713 116-232-164.2-748.7-126.54-1612.1-48-2268"/><path id="path4125" fill="#aaa658" d="m2456.3 2178.2-47.699 11.215c35.017 148.92 66.694 302.84 66.943 411.69 0.1246 54.426-8.3561 96.932-23.348 120.35-14.992 23.419-32.667 32.81-72.457 26.467-282.24-44.993-579.94-31.334-841.33-28.59-48.635 0.5105-90.262 8.5834-124.87 28.574-34.607 19.991-60.678 51.804-78.461 93.865-101.18 239.32-153.54 501.12-164.42 781.91-8.6996 224.48 26.081 582.71 73.117 715.92-9.5326-135.49-32.655-492.99-24.157-713.39 10.641-275.99 61.995-532.15 160.6-765.36 14.702-34.773 33.084-56.217 57.838-70.516 24.753-14.299 57.395-21.55 100.87-22.006 262.67-2.7574 557.7-15.921 833.1 27.98 52.932 8.4379 97.468-10.987 121.44-48.438 23.974-37.451 31.213-87.869 31.078-146.88-0.2702-118.03-33.032-273.05-68.244-422.79z"/><path id="path4131" fill="#aaa658" d="m1531.9 4064.8c-285.5 610.42-380.04 1394-424.32 1929.2-3.7745 45.626-11.517 80.546-25.629 104.03-14.112 23.482-33.446 38.051-71.039 46.025-155.91 33.074-307.7 44.107-456.59 4.2988-29.262-7.8238-44.753-15.361-52.523-30.441-7.7703-15.081-10.331-46.897 5.8672-107.57 144.77-542.25 309.19-1139.2 563.95-1695 15.951-34.795 37.035-54.01 61.654-64.297s54.03-11.392 85.951-4.0586l10.973-47.756c-39.394-9.0503-79.608-8.5272-115.81 6.6015-36.206 15.129-67.148 45.117-87.307 89.092-256.97 560.55-421.9 1160.2-566.75 1702.7-17.513 65.596-19.183 109.46-2.0801 142.65 17.103 33.193 50.468 46.522 83.424 55.334 159.1 42.538 319.35 30.254 479.41-3.7012 47.425-10.061 82.187-34.304 102.87-68.719 20.682-34.415 28.43-76.477 32.463-125.23 44.128-533.43 139.46-1312.9 419.88-1912.5 64.285-137.45 124.1-259.75 207.93-394.45-128.3 128.34-186.87 233.76-252.32 373.69z"/><path id="path4152" fill="#aaa658" d="m2538.3 4120c-48.38 592.6-49.886 1286.7 85.781 1905.2 18.413 83.955 10.832 130.51-6.3282 156.61s-47.476 38.432-90.043 46.025c-135.37 24.148-267.14 40.469-406.82 12.109-38.551-7.827-60.582-16.062-75.902-36.414s-26.482-59.109-28.482-132.25c-16.028-586.14 94.287-1289.3 220.79-1954.2 21.418-112.59 57.437-280.66 81.483-395.7-55.15 105.57-108.17 273.78-129.62 386.55-126.7 666.04-237.85 1371.4-221.63 1964.7 2.115 77.345 12.76 126.43 38.314 160.38 25.554 33.948 63.465 46.471 105.3 54.965 149.16 30.284 288.18 12.548 425.18-11.891 47.776-8.5223 94.57-25.046 122.38-67.346 27.81-42.299 33.059-103.69 13.248-194.02-134-611.01-132.94-1301.2-84.809-1890.8 10.484-128.41 6.2211-260.54-9.6541-387.62-15.875 116.17-28.644 254.56-39.182 383.63z"/></g><g transform="translate(964.18 -114.39)"><g id="g4198" transform="matrix(.51438 .036181 -.11478 .55608 1012.2 1424.3)"><path id="path4074-8" d="m1588.5 2735.2c34.42-72.891 9.5159-145.75-25.714-187.86-11.152-13.33-5.1975-17.263 1.4285-21.429 11.934-7.5027 24.771-7.2583 37.143-8.5714 13.113-1.3917 17.123 4.8397 18.571 12.857 12.784 70.741 13.55 141.09-15.714 210z" fill="#34251a"/><path id="path4076" d="m1777.7 2724.6c-62.635 4.9342-133.34 11.831-179.81-26.264-73.26-60.062-171.26-48.154-246.03-1.1834-104.23 65.483-132.36 285.22-65.098 419.39 23.696 47.265 52.666 89.239 90.914 117.18-31.232 89.467-8.8522 141.99 68.69 94.954 24.829-15.062 37.261-9.6998 44.447 4.0407 18.782 35.916 69.7 41.93 94.954 16.162 15.323-15.635 30.778-9.7733 46.467 4.0406 39.383 34.676 97.614 18.643 103.04-48.487 65.229-30.398 120.32-70.956 169.71-117.18 100.2-93.784 129.21-248.98 58.589-369.72-40.397-69.07-108.68-99.014-185.87-92.934z" fill="#8d1239"/><ellipse id="path4078" style="color:#000000" d="m 209.31313,3399.2026 c 0,55.7556 -25.19325,100.9544 -56.2707,100.9544 -31.07744,0 -56.270686,-45.1988 -56.270686,-100.9544 0,-55.7555 25.193246,-100.9543 56.270686,-100.9543 31.07745,0 56.2707,45.1988 56.2707,100.9543 z" rx="56.271" transform="matrix(.88283 -.46968 .51268 .85858 0 0)" ry="100.95" cy="3399.2" cx="153.04" fill="#fff"/><path id="path4080" d="m1629.9 2734.5c-145.01 157.11-174.45 356.12-106.8 499.75-90.025-9.7206-167.94-54.764-213.2-135.47-51.883-92.502-52.771-264.2 26.94-357.29 42.948-50.158 153.57-82.664 218.77-42.714 21.456 13.147 41.891 23.81 74.286 35.714z" fill="#ffffd7"/><path id="path4082" d="m1479.9 2968.8c-6.0997-16.463-22.585-35.98-32.143-20.714-9.5578 15.266 15.084 21.608 32.143 20.714z" fill="#716f40"/><path id="path4084" d="m1472.1 3015.9c-13.817 5.0179-43.299-4.0348-34.286-17.857 9.0137-13.822 29.453 3.7969 34.286 17.857z" fill="#716f40"/><path id="path4086" d="m1615.7 2761.6c11.576-146.23 39.059-258.63 150-304.29 70.928-29.187 166.58-21.235 227.14 14.286-41.011 10.191-90.456 35.064-97.143 88.571-6.8332 54.68-30.326 101.45-77.143 151.43-48.52 51.794-123.52 53.168-202.86 50z" fill="#a0ef63"/><path id="path4088" d="m782.86 74.286c-196.09-31.349-335.43 137.09-377.15 290v24.286l334.29-24.29z" clip-path="url(#clipPath4105)" transform="translate(1209.9 2397.3)" fill="#639830"/></g></g><g transform="translate(964.18 -114.39)"><path id="path4209-4" fill="#fff" d="m2401.3 2752.3c29.857 37.043 90.77 107.93 90.77 107.93l211.87 45.588 565.83 315.03c-42.96 229.41-108.16 469.01-327.96 644.52-222.44 177.62-508.34 180.1-781.41 156.07-183.58-381.83-207.93-855.47-68.811-1280.4 102.77 1.7258 206.95-0.9322 309.71 11.314z"/><path id="path4211" d="m2486 2850 238 62" stroke="#c4cae6" stroke-width="29" fill="none"/><path id="path4213" fill="#5977d1" d="m2070 2838 412 4 124 146h-572zm-62 324 772 2 148 146c-306.67 23.85-613.33 40.794-920 54zm1180 346c-386.05 16-774.62 32-1166 48l36 156c348.67-3.7643 697.33-13.573 1046-28zm-172 288c-306.67 30.746-613.33 55.92-920 76l60 156c191.48 0.5704 382.94 1.0803 564-40 117.66-45.007 210.07-115.26 296-192z"/><path id="path4209" d="m2401.3 2752.3c206.95 256.76 434.35 458.98 656.2 675.99l212.27-207.45c-42.96 229.41-108.16 469.01-327.96 644.52-222.44 177.62-508.34 180.1-781.41 156.07-183.58-381.83-207.93-855.47-68.811-1280.4 102.77 1.7258 206.95-0.9322 309.71 11.314z" stroke="#2f4ca4" stroke-width="49" fill="none"/><ellipse id="path4215" stroke="#c5c281" style="color:#000000" d="m 3373.0693,3328.0183 c 0,35.3462 -38.0558,64 -85,64 -46.9442,0 -85,-28.6538 -85,-64 0,-35.3462 38.0558,-64 85,-64 46.9442,0 85,28.6538 85,64 z" rx="85" ry="64" transform="matrix(.99613 .087847 -.087847 .99613 0 0)" cy="3328" cx="3288.1" stroke-width="29" fill="#efe98c"/><ellipse id="path4217" stroke="#c5c281" style="color:#000000" d="m 3535.5444,3247.6904 c 0,33.1371 -33.5786,60 -75,60 -41.4213,0 -75,-26.8629 -75,-60 0,-33.1371 33.5787,-60 75,-60 41.4214,0 75,26.8629 75,60 z" rx="75" ry="60" transform="matrix(.98439 .17598 -.17598 .98439 0 0)" cy="3247.7" cx="3460.5" stroke-width="29" fill="#efe98c"/><path id="path4613" fill="#fff" d="m2152.8 4052.8c83.796-4.9015 167.59-17.676 251.39-5.5556 77.315 1.4796 154.63 0.9442 231.94-19.444 77.105-35.869 66.408-112.71 33.333-200-7.155-49.074-8.5278-98.148-8.3333-147.22-139.03-52.164-270.22-37.64-394.44 36.111 0.6177 53.311-2.2124 106.94-41.667 163.89-51.167 57.407-80.227 114.81-72.222 172.22z"/><path id="path4221" fill="#c4cae6" d="m2600 3890c-76.825 2.4168-157.89-37.545-240-88 50.05 89.234 202.67 127.34 240 88z"/><path id="path4225" d="m2152 4044c-5.3473 66.667-2.7803 135.33-38 200 184.55 19.768 361.36 18.061 530 6-17.749-83.849-12.566-153.94-4-222" stroke="#c4cae6" stroke-width="29" fill="#fff"/><path id="path4223" d="m2664 3680c-2.1952 51.333-9.422 101.98 12 154 34.225 83.117 33.153 160.19-46 194-165.42 40.518-231.8-13.514-476 28-11.26-50 7.5608-87.989 50-142 43.202-54.982 69.97-120.35 66-200" stroke="#c4cae6" stroke-width="29" fill="none"/><path id="path4219" fill="#2f4ca4" d="m2190 3800c135.4-133.98 412.24-175.51 532-56-29.333-185.33-452.79-155.87-532 56z"/></g><g transform="translate(964.18 -114.39)"><path id="path4261" d="m2952 2902c-92.068-60.833-308.62-246.23-334-90-22.004 135.44-1.8031 319.11 94 478 71.549 118.66 181.04-13.066 248-120" stroke="#251f26" stroke-width="29" fill="#514e52"/><path id="path4263" d="m3072 3174c82.955 91.626 255.82 181.95 292 106 62.997-132.24 41.22-326.72-10-486-40.632-126.35-217.16-1.91-282 112" stroke="#251f26" stroke-width="29" fill="#514e52"/><path id="path4265" fill="#251f26" d="m3094.3 2992.8c38.343 8.4956 78.451 2.1304 107.48-19.799-20.749 34.2-53.269 51.585-100.41 48.083z"/><path id="path4267" fill="#251f26" d="m3108.4 3060.6c32.309-3.5073 56.995 13.75 65.054 45.255-18.797-20.243-42.991-21.592-69.296-15.556z"/><path id="path4269" fill="#251f26" d="m2927 2990.2c-37.436 2.3558-65.988-12.98-95.752-37.083 16.434 34.196 48.67 64.547 90.51 69.539z"/><path id="path4271" fill="#251f26" d="m2925 3081c-28.024 4.3093-44.972 24.695-47 50 15.356-19.43 34.078-27.676 55-20z"/><path id="path4259" d="m2956 3168c24.438 47.597 100.66 47.084 122-4 30.785-73.69 35.65-143.47 6-236-19.771-61.699-123.13-63.691-142 6-22.545 83.25-26.001 156.09 14 234z" stroke="#251f26" stroke-width="29" fill="#514e52"/></g><g transform="translate(964.18 -114.39)"><path id="path4228-4" fill="#f3f7b2" d="m3309.3 4067.6c63.236-90.313 34.471-207.97-73.539-263.04-95.715-48.805-186.38-21.992-271.53 31.113-219.84 137.11-650.85 581.78-687.31 995.61-8.5538 97.104 39.392 135.82 93.338 164.05 157.41 82.358 351.53 104.44 489.32 16.97 42.434-26.937 85.553-57.629 59.397-138.59-50.681-156.88 79.738-376.04 265.87-644.88"/><path id="path4228" fill="#aaa658" d="m3130.7 3754.9c-63.328 0.6855-124.13 25.428-179.52 59.977-113.91 71.043-277.29 217.53-418.81 399.79s-261.04 399.89-279.94 614.45c-4.653 52.821 6.4494 93.748 27.535 124.01s50.441 49.033 78.85 63.896c163.15 85.359 365.66 109.99 513.81 15.947 21.601-13.712 46.727-29.751 63.246-57.029s20.901-64.688 6.334-109.78c-22.424-69.413-5.2428-157.34 43.086-262.71s134.8-262.64 204.41-378.22c-106.39 92.414-198.2 247.16-248.94 357.79-50.744 110.64-73.43 210.73-45.174 298.2 11.589 35.873 7.4888 54.291-1.621 69.334-9.1099 15.043-26.759 27.818-47.592 41.043-127.42 80.887-313.15 61.362-464.83-17.994-25.537-13.361-47.128-28.062-61.363-48.492s-22.828-47.415-18.928-91.697c17.554-199.27 131.77-410.89 269.83-588.7s300.11-322.21 406.04-388.27c81.667-50.932 160.53-74.386 247.44-30.074 96.999 49.46 118.1 143.9 79.904 248.9 81.807-78.996 61.376-231.87-57.646-292.56-39.198-19.987-78.105-28.237-116.1-27.826z"/></g><g transform="translate(964.18 -114.39)"><path id="path4611" fill="#f3f7b2" d="m3098.4 1939.8 48.831-178.71 136.11-69.444-61.111-602.78-594.44-213.89-469.44 102.78c-110.9 153.91-193.7 326.41-241.7 522.21l-286.11 25 44.444 441.67c107.04 80.363 348.92 54.9 513.89-30.556-5.2171 229.19-150.68 302.18-386.11 275l116.67 233.33c285.98-105.1 575.46-171.81 866.67-219.44 183.62-24.368 269.58-135.55 312.28-285.18z"/><path id="path4609" fill="#fff" d="m1762.5 2006.9 86.111 206.94c259.58 1.8859 343.55-106.88 333.33-275-115.87 70.569-255.42 93.782-419.44 68.056z"/><path id="path4287" d="m1760.7 2002.8c19.89 79.595 53.45 143.16 91.924 207.89" stroke="#b9dce6" stroke-width="29" fill="none"/><path id="path4289" d="m1786.2 2072.1c211.15 24.432 319.54-50.96 397.39-125.86" stroke="#b9dce6" stroke-width="19" fill="none"/><path id="path4274" d="m1636.3 1501.9-23.523 0.8633-0.078 23.539c-0.4777 143.96 2.3022 284.99 43.332 429.52 8.8688 31.239 26.225 39.082 59.246 50.479 146.73 50.64 316.67 20.338 456.2-43.45-3.1189 102.95-48.101 164.56-113.24 200.34-69.746 38.309-164.08 42.7-253.85 30.549l-38.4-5.2 14.01 30.303c35.506 76.799 78.537 173.05 125.82 245.43l11.035 16.889 18.691-7.5879c254.86-103.47 540.97-185.74 864.01-233.29 73.115-10.762 135.15-26.223 187.27-66.879 52.122-40.656 101.49-134.3 111.56-233.54-42.264 101.58-99.696 162.15-141.69 194.91-41.998 32.759-93.932 46.685-164.27 57.037-318.91 46.94-602.57 127.46-856.04 228.71-34.106-56.183-66.873-128.37-97.805-193.09 82.178 7.9374 166.25-1.8332 233.58-38.816 78.024-42.856 131.67-124.04 128.33-248.95l-0.6035-22.606-20.291 9.9805c-133.18 65.512-298.27 97.129-439.62 56.71-28.799-8.2352-28.282-8.8189-35.001-34.303-35.282-133.82-42.885-263.69-43.215-399.52 190.71-7.2328 394.52-35.282 495.2-160.5-135.49 67.11-320.88 105.15-520.7 112.48z" transform="translate(-.000032308)" fill="#aaa658"/><path id="path4291" fill="#aaa658" d="m1882.3 1711.5c22.62 51.051 81.387 46.696 76.368-16.971-17.063 28.737-44.262 29.6-76.368 16.971z"/><path id="path4293" fill="#aaa658" d="m1714 1680.4c-28.486 4.4457-48.71 2.1898-69.296-26.87-7.8919 42.53 33.673 73.908 69.296 26.87z"/></g><g transform="translate(964.18 -114.39)"><path id="path4296" d="m1769.7 1917.6c-191.95 139.15-338.76-51.534-269.09-208.2 32.555 88.773 95.622 130.71 161.06 54.997 25.767-29.811 83.445-38.353 104.1 17.678 33.532-51.301 110.68-39.229 159.1 21.606 70.599 88.697 186.9 75.56 267.13 7.8567-9.8209 278.27-276.95 325.09-422.3 106.07z" stroke="#7a121c" stroke-width="29" fill="#c22339"/></g><g transform="translate(964.18 -114.39)"><path id="path4328" clip-path="url(#clipPath4350)" fill="#fff" d="m1922.9 1491.3 271.06-45.176 119.82-326.05-255.34-39.284z"/><path id="path4320" clip-path="url(#clipPath4366)" fill="#fff" d="m3015 1363.7-404.62-164.99c-212.29 119.95-222.5 322.81-235.7 524.44 70.078 193.1 260.48 145.56 447.83 104.1 158.57-109.06 171.02-288.48 192.49-463.55z"/><ellipse id="path4314" style="color:#000000" d="m 3068.584,829.48981 c 0,166.39602 -80.1607,301.28669 -179.044,301.28669 -98.8832,0 -179.0439,-134.89067 -179.0439,-301.28669 0,-166.39603 80.1607,-301.28665 179.0439,-301.28665 98.8833,0 179.044,134.89062 179.044,301.28665 z" clip-path="url(#clipPath4362)" rx="179.04" ry="301.29" transform="matrix(.96876 .24801 -.30483 .95241 0 0)" cy="829.49" cx="2889.5" fill="url(#linearGradient4599)"/><ellipse id="path4316" style="color:#000000" d="m 3009.4387,763.26282 c 0,139.28366 -58.2809,252.19538 -130.1741,252.19538 -71.8931,0 -130.174,-112.91172 -130.174,-252.19538 0,-139.28367 58.2809,-252.19539 130.174,-252.19539 71.8932,0 130.1741,112.91172 130.1741,252.19539 z" clip-path="url(#clipPath4358)" rx="130.17" ry="252.2" transform="matrix(.96379 .26668 -.31086 .95046 0 0)" cy="763.26" cx="2879.3"/><ellipse id="path4318" style="color:#000000" d="m 2876.8767,914.44226 c 0,59.58714 -29.9719,107.89204 -66.9441,107.89204 -36.9722,0 -66.9441,-48.3049 -66.9441,-107.89204 0,-59.58714 29.9719,-107.89207 66.9441,-107.89207 36.9722,0 66.9441,48.30493 66.9441,107.89207 z" clip-path="url(#clipPath4354)" rx="66.944" ry="107.89" transform="matrix(.98691 .16125 -.14577 .98932 0 0)" cy="914.44" cx="2809.9" fill="#fff"/><ellipse id="path4322" style="color:#000000" d="m 2448.9367,545.03589 c 0,133.62745 -46.3522,241.9539 -103.5304,241.9539 -57.1783,0 -103.5305,-108.32645 -103.5305,-241.9539 0,-133.62745 46.3522,-241.9539 103.5305,-241.9539 57.1782,0 103.5304,108.32645 103.5304,241.9539 z" clip-path="url(#clipPath4346)" rx="103.53" ry="241.95" transform="matrix(.94429 .32912 -.29934 .95415 0 0)" cy="545.04" cx="2345.4" fill="url(#linearGradient4607)"/><ellipse id="path4324" style="color:#000000" d="m 2353.1633,746.26801 c 0,108.79862 -34.5501,196.99734 -77.1699,196.99734 -42.6198,0 -77.1699,-88.19872 -77.1699,-196.99734 0,-108.79863 34.5501,-196.99735 77.1699,-196.99735 42.6198,0 77.1699,88.19872 77.1699,196.99735 z" clip-path="url(#clipPath4342)" rx="77.17" ry="197" transform="matrix(.96866 .24839 -.22222 0.975 0 0)" cy="746.27" cx="2276"/><ellipse id="path4326" style="color:#000000" d="m 2456.3554,88.378853 c 0,53.134907 -15.8714,96.209267 -35.4499,96.209267 -19.5784,0 -35.4499,-43.07436 -35.4499,-96.209267 0,-53.134911 15.8715,-96.2092668 35.4499,-96.2092668 19.5785,0 35.4499,43.0743558 35.4499,96.2092668 z" clip-path="url(#clipPath4338)" rx="35.45" ry="96.209" transform="matrix(.88217 .47093 -.30662 .95183 0 0)" cy="88.379" cx="2420.9" fill="#fff"/></g><g opacity=".5" transform="translate(964.18 -114.39)" stroke="#f00" stroke-width="1px" display="none" fill="#0f0"><path id="path4299" d="m2157 1389.4c49.612-72.945 82.699-153.17 99.88-239.82-62.199 10.106-124.4-17.26-176.88-56.624-69.673 130.1-136.63 266.58-151.14 400.36 79.602-22.786 159.37-45.034 228.14-103.92z"/><path id="path4301" d="m2613.9 1237.5c-115.74 100.22-204.05 246.92-186.11 412.5 15.24 140.7 126.89 191.08 302.78 144.44 184.62-48.951 261.48-278.16 261.11-405.56-116.97-24.263-285.77-61.784-377.78-151.39z"/></g><g transform="translate(964.18 -114.39)"><path id="path4373" d="m2093.8 1095.5c51.584 30.556 97.217 41.038 147.88 35.412 41.814-4.6435 78.449-58.442 109.43-92.373-15.556 47.957-53.304 114.36-98.209 122.76-52.405 9.8037-109.82-15.008-167.94-50.087z" stroke="#000" stroke-width="1px"/><path id="path4375" d="m2266.7 1143.7c-2.6529 45.552-17.198 89.14-48.759 133.71 18.625-45.552 26.756-87.176 20.278-130.76z" stroke="#000" stroke-width="1px"/><path id="path4377" d="m2605.5 1232.1c-69.78 51.683-110.28 116.76-138.31 194.53 45.132-59.036 85.839-125.62 158.94-167.03z" stroke="#000" stroke-width="1px"/><path id="path4379" d="m2971.8 1381.3c14.026 87.542-17.279 167.23-47.427 250.84 57.276-70.05 88.384-148.82 80.818-242z" stroke="#000" stroke-width="1px"/><path id="path4381" d="m3038.6 1394.1c-139.28-29.404-253.03-65.834-374.18-132.58-74.991-41.319-91.378-123.4-47.14-175.79-56.663 33.796-80.193 106.63-22.588 159.1 121.42 110.6 287.73 134.11 443.91 149.28z" stroke="#000" stroke-width="1px"/><path id="path4274-1" fill="#aaa658" d="m1636.3 1501.9-23.523 0.8633-0.078 23.539 49.094 23.617c190.71-7.2328 394.52-35.282 495.2-160.5-135.49 67.11-320.88 105.15-520.7 112.48z"/><path id="path4371" d="m1926.9 1493.3c55.78-268.95 167.54-430.24 290.7-569.61" stroke="#aaa658" stroke-width="49" fill="none"/></g><g transform="translate(964.18 -114.39)"><path id="path4408-1" d="m3347 1381.3c230.46 131.94 460.93 258.8 691.39 361.41l70.234-80.392c-367.9-479.7-1219.6-1243.3-2156.2-1387.8l-34.205 88.725c100.64 143.4 240.17 240.88 360.26 342.44l92.654-52.812c346.92 133.45 667.9 295.45 940.9 510.21z" stroke="#928a37" stroke-width="49" fill="#b1a037"/><path id="path4550" d="m3516.7 1426.4c-107.74-136.67-233.08-251.66-388.89-329.17l4.1666 155.56 15.278 508.33c168.2-63.053 297.46-168.05 369.44-334.72z" fill="#f3f7b2"/><path id="path4391" fill="#aaa658" d="m3554.1 1308.5-48.998 0.3046c0.6504 104.62-37.879 185.55-103.15 255.83-65.276 70.274-171.73 146.34-257.63 197.03 83.029-8.2397 221.8-86.459 293.53-163.68 71.729-77.222 116.98-172.35 116.25-289.48z"/><path id="path4397" fill="#aaa658" d="m3195.7 1530.6c109.43-64.57 189.73-255.68 212.13-392.84 16.448 142.21-72.906 382.76-212.13 392.84z"/><path id="path4399" fill="#aaa658" d="m3195.7 959.03c-70.745 98.864-74.606 199.69-62.854 296.59 19.218-92.591 38.123-185.14 98.209-282.84z"/></g><g transform="translate(964.18 -114.39)"><path id="path4502" fill="#c22339" d="m2795 821.54-652.1-221.95c-85.509 51.551-154.53 115.04-90.352 274.99 27.431 96.239 126.93 99.817 225.88 104.1l384.98 15.713c45.162 178.93 220.12 238.1 341.77 237.67 244.86-69.392 252.38-283.34 141.42-379.09-25.24 59.741-48.431 120.51-102.38 165.9z"/><path id="path136" fill="#7a121c" d="m3116.8 782.72-6.5586 47.818c-9.834 71.707-32.997 117.12-59.412 142.5-26.415 25.376-55.972 32.699-87.543 27.197-63.141-11.003-133.18-81.189-147.3-186.81l-48.568 6.4941c16.523 123.58 97.199 212.86 187.46 228.59 45.131 7.8643 92.946-4.6329 129.9-40.133 28.627-27.501 50.695-67.781 64.281-121.26 23.449 30.903 39.562 65.072 43.736 99.893 5.8559 48.849-9.2833 100.47-65.094 154.95-71.022 69.328-175.7 80.827-266.68 44.775-96.283-38.153-176.89-120.01-199.18-255.14-38.006 143.78 68.499 256.06 181.13 300.69 106.43 42.174 232.66 28.971 318.96-55.264 64.172-62.641 87.167-132.05 79.52-195.85-7.6474-63.792-43.726-120.35-89.916-164.93z"/></g><g transform="translate(964.18 -114.39)"><path id="path4576" fill="#b1a037" d="m3540 1456c-209.8-259.8-738.9-640.37-1220.6-783.78l130.6-83.33c489.67 159.14 845.88 426.8 1152.8 733.33z"/><path id="path4525" fill="#f0eb7a" d="m3694.4 1211.1 275-375c-292.7-356.62-625.2-631.4-1058.3-699.99l-250 363.89c371.55 178.96 713.61 421.09 1033.3 711.11z"/><path id="path4412" d="m3691.7 1216.7 277.7-375.03c-241.8-285.91-597.6-661.52-1055.5-702.78l-252.78 361.11" stroke="#928a37" stroke-width="49" fill="none"/><path id="path4412-2" d="m3691.7 1216.7 277.7-375.03c-241.8-285.91-597.6-661.52-1055.5-702.78l-252.78 361.11" clip-path="url(#clipPath4521)" stroke="#284a9c" stroke-width="49" fill="#5977d1"/><path id="path4527" fill="#f0eb7a" d="m4033.3 1736.1 75-80.556c-579-685.96-1271.5-1193.7-2161.1-1391.6l-19.444 97.222c906.13 195.68 1561.1 714.31 2105.6 1375z"/><path id="path4408" d="m3589.7 1517.6c149.57 81.78 299.14 158.59 448.71 225.18l70.234-80.392c-367.9-479.8-1219.6-1243.4-2156.2-1387.9l-34.205 88.725c100.64 143.4 240.17 240.88 360.26 342.44" stroke="#928a37" stroke-width="49" fill="none"/><path id="path4410" d="m4038.4 1742.7c-504-658.8-1293.8-1224.9-2120.2-1379.5" stroke="#928a37" stroke-width="49" fill="none"/><path id="path4416" fill="#928a37" d="m3020.8 287.5c53.044 34.29 57.836 95.027 31.944 140.28 2.6479-46.759-5.0258-93.519-31.944-140.28z"/><path id="path4418" fill="#928a37" d="m3119.4 419.44c31.587-49.444 25.573-127.2-23.611-165.28 18.721 51.993 30.678 105.92 23.611 165.28z"/><path id="path4420" fill="#928a37" d="m3600 684.72c32.969 37.921 42.521 85.877 50 134.72 14.665-47.949 6.2325-120.25-50-134.72z"/><path id="path4422" fill="#928a37" d="m3709.7 698.61c26.164 63.426 41.887 128.24 45.847 191.67 24.679-62.457 4.3306-142.99-45.847-191.67z"/><path id="path4424" fill="#928a37" d="m3827.8 823.61c36.012 27.869 32.551 71.911-4.1667 93.056 14.464-31.019 22.582-62.037 4.1667-93.056z"/><path id="path4538" fill="#928a37" d="m2334 632.75-17.91 45.609c482.2 162.34 1051.4 568.94 1223.9 777.64-125.9-279-721.7-658.54-1206-823.25z"/></g><g transform="translate(964.18 -114.39)"><path id="path4504" fill="#c22339" d="m3020.9 1021.9 62.854 184.63c102.16-92.086 214.87-180.79 47.14-359.45-16.104 66.838-32.513 133.55-109.99 174.81z"/><path id="path4435" fill="#7a121c" d="m3116.8 782.72-6.5586 47.818c-9.834 71.707-32.997 117.12-59.412 142.5-26.415 25.376-55.972 32.699-87.543 27.197l-8.4121 48.272c45.131 7.8643 92.946-4.6329 129.9-40.133 28.627-27.501 50.695-67.781 64.281-121.26 23.449 30.903 39.562 65.072 43.736 99.893 5.8559 48.849-9.2833 100.47-65.094 154.95-71.022 69.328-175.7 80.827-266.68 44.775-96.283-38.153-176.89-120.01-199.18-255.14-38.006 143.78 68.499 256.06 181.13 300.69 106.43 42.174 232.66 28.971 318.96-55.264 64.172-62.641 87.167-132.05 79.52-195.85-7.6474-63.792-43.726-120.35-89.916-164.93z"/><path id="path4386" d="m3203.6 939.39c-52.055 65.138-114.96 112.2-182.67 151.24 74.657-16.51 144.28-57.974 194.45-119.82z" fill="#7a121c"/><path id="path4388" d="m3140.7 1151.5c-82.182 4.9504-161.96 2.6906-233.74-23.57 60.836 49.589 126.51 55.594 192.49 58.926z" fill="#7a121c"/><path id="path4449" d="m2344.4 968.06c-336.4 89.64-412.4-268.56-201.3-355.56-27.161 124.43 52.816 179.79 163.89 136.11" stroke="#7a121c" stroke-width="49" fill="none"/><path id="path4451" fill="#7a121c" d="m2059.7 680.56c21.488 73.499 58.414 111.8 88.889 147.22-45.076-23.196-88.696-48.264-108.33-104.17z"/><path id="path4453" fill="#7a121c" d="m2058.3 879.17c50.463 22.77 103.7 26.523 151.39 23.611-31.912 19.543-66.257 31.785-105.56 29.167z"/></g><g transform="translate(964.18 -114.39)"><path id="path4483" fill="#f3f7b2" d="m2331.5 1092.6 98.209 27.499 174.81-58.926 31.427-74.639-469.44-738.53c-54.665-85.739-97.626-74.209-74.639 27.499z"/><path id="path4456" fill="#aaa658" d="m2094.7 153.63c-4.6071 0.01-9.3586 0.82506-14.076 2.7793-12.58 5.2113-19.816 16.83-23.012 27.188-3.1958 10.358-3.8198 21.089-3.2832 33.428 1.073 24.677 7.4485 55.966 19.475 95.635l239.06 788.55c1.4443 4.7629 4.3798 9.062 8.2902 12.141s8.8097 4.5814 13.747 5.2107c33.689 4.2942 67.288 3.9802 100.93 3.179-25.376-9.0683-50.752-15.393-76.128-29.508l-239-793.75c-11.229-37.295-16.644-65.883-17.412-83.547-0.095-2.1939 0.06-3.6341 0.1015-5.4648 1.6864 1.4112 3.229 2.5829 5.1758 4.4785 12.977 12.635 30.9 35.658 51.193 68.43 0.026 0.0424 0.052 0.0847 0.078 0.12695l451.27 721.67c-0.2823 22.352-5.0418 44.703-8.8187 67.055 22.22-21.182 38.639-44.709 51.796-69.494 4.107-7.7368 4.0491-17.61-0.6074-25.029l-452.13-720.26 0.078 0.12891c-21.603-34.887-40.877-60.416-58.67-77.74-8.8965-8.6622-17.348-15.4-27.033-20.057-6.0531-2.9105-13.331-5.1317-21.01-5.1152z"/><path id="path4435-0" fill="#7a121c" d="m2861 1186.7c-96.283-38.153-176.89-120.01-199.18-255.14-38.006 143.78 68.499 256.06 181.13 300.69z"/><path id="path4477" d="m2315.3 473.61c-9.0626 63.394-51.326 125.39-120.83 147.22" stroke="#aaa658" stroke-width="29" fill="none"/><path id="path4479" d="m2268.1 879.17c89.5-26.436 141.25-117.07 159.72-215.28" stroke="#aaa658" stroke-width="29" fill="none"/><path id="path4481" d="m2312.5 1019.4c129.64-43.78 175.88-123.3 202.78-211.11" stroke="#aaa658" stroke-width="29" fill="none"/></g></svg>