<?xml version="1.0" encoding="UTF-8"?><svg xmlns="http://www.w3.org/2000/svg" xmlns:xlink="http://www.w3.org/1999/xlink" version="1.1" viewBox="0 0 6020.0669 6020.0747"><defs id="defs4"><linearGradient id="linearGradient4003"><stop id="stop4005" stop-color="#c5acde" offset="0"/><stop id="stop4007" stop-color="#7758b0" offset="1"/></linearGradient><clipPath id="clipPath3905" clipPathUnits="userSpaceOnUse"><path id="path3907" opacity=".5" d="m3080.3 1444.5c-43.446 173.23-74.57 363.01 40.25 524.19 63.957-41.759 95.498-97.102 126-157.6 38.491-85.595 29.034-209.76 31-282.49 6.5693-243.02-134.87-332.84-197.25-84.101z" stroke="#f00" stroke-width=".96003px" fill="#0f0"/></clipPath><clipPath id="clipPath3909" clipPathUnits="userSpaceOnUse"><path id="path3911" opacity=".5" d="m3059.1 1448.2c-43.446 160.19-74.57 335.68 40.25 484.73 63.957-38.616 96.498-89.792 127-145.74 38.491-79.152 29.034-193.97 31-261.22 6.5693-224.72-135.87-307.78-198.25-77.77z" stroke="#f00" stroke-width=".92319px" fill="#0f0"/></clipPath><clipPath id="clipPath3913" clipPathUnits="userSpaceOnUse"><path id="path3915" opacity=".5" d="m3086 1421c-43.446 187.96-74.57 393.86 40.25 568.75 63.957-45.309 97.498-105.36 128-171 38.491-92.872 29.034-227.59 31-306.5 6.5693-263.68-136.87-361.13-199.25-91.25z" stroke="#f00" stroke-width="1px" fill="#0f0"/></clipPath><clipPath id="clipPath3917" clipPathUnits="userSpaceOnUse"><path id="path3919" opacity=".5" d="m4352.8 1825.9c-150.59 152.66-305.48 203.85-636.78 175.7 17.518-207.57 61.138-427.68 217.2-575.5 275.75-261.2 822.52-8.6614 419.59 399.8z" stroke="#f00" stroke-width=".96886px" fill="#0f0"/></clipPath><clipPath id="clipPath3921" clipPathUnits="userSpaceOnUse"><path id="path3923" opacity=".5" d="m4345.6 1824.1c-155.97 172.49-316.4 230.33-659.54 198.52 18.145-234.54 63.323-483.23 224.96-650.26 285.61-295.13 851.92-9.7865 434.58 451.74z" stroke="#f00" stroke-width="1.0481px" fill="#0f0"/></clipPath><clipPath id="clipPath3925" clipPathUnits="userSpaceOnUse"><path id="path3927" opacity=".5" d="m4320.5 1808.7c-152.86 160.21-310.09 213.93-646.4 184.39 17.783-217.84 62.06-448.83 220.48-603.97 279.92-274.12 834.93-9.0899 425.92 419.58z" stroke="#f00" stroke-width="1px" fill="#0f0"/></clipPath><clipPath id="clipPath3958" clipPathUnits="userSpaceOnUse"><path id="path3960" style="color:#000000" d="m3306.4 1735.7a111.02 212.13 0 1 1 -222.03 0 111.02 212.13 0 1 1 222.03 0z" transform="matrix(1 0 0 1.1733 26.87 -278.23)" fill="#f00"/></clipPath><clipPath id="clipPath3962" clipPathUnits="userSpaceOnUse"><path id="path3964" style="color:#000000" d="m3306.4 1735.7a111.02 212.13 0 1 1 -222.03 0 111.02 212.13 0 1 1 222.03 0z" transform="matrix(1 0 0 1.1733 26.87 -278.23)" fill="#f00"/></clipPath><clipPath id="clipPath3995" clipPathUnits="userSpaceOnUse"><path id="path3997" style="color:#000000" d="m4594 1791a301 295 0 1 1 -602 0 301 295 0 1 1 602 0z" transform="matrix(.98007 0 0 .92881 61.575 114.49)" fill="#f00"/></clipPath><clipPath id="clipPath3999" clipPathUnits="userSpaceOnUse"><path id="path4001" style="color:#000000" d="m4594 1791a301 295 0 1 1 -602 0 301 295 0 1 1 602 0z" transform="matrix(.98007 0 0 .92881 61.575 114.49)" fill="#f00"/></clipPath><linearGradient id="linearGradient4009" y2="1582.6" xlink:href="#linearGradient4003" gradientUnits="userSpaceOnUse" x2="4314.3" y1="1931.4" x1="4212.4"/><linearGradient id="linearGradient4017" y2="1605.2" xlink:href="#linearGradient4003" gradientUnits="userSpaceOnUse" x2="3162.4" y1="1866.3" x1="3162.4"/><clipPath id="clipPath4045" clipPathUnits="userSpaceOnUse"><path id="path4047" opacity=".5" d="m4320.5 1808.7c-152.86 160.21-310.09 213.93-646.4 184.39 17.783-217.84 62.06-448.83 220.48-603.97 279.92-274.12 834.93-9.0899 425.92 419.58z" stroke="#f00" stroke-width="1px" fill="#0f0"/></clipPath><clipPath id="clipPath4049" clipPathUnits="userSpaceOnUse"><path id="path4051" opacity=".5" d="m3086 1421c-43.446 187.96-74.57 393.86 40.25 568.75 63.957-45.309 97.498-105.36 128-171 38.491-92.872 29.034-227.59 31-306.5 6.5693-263.68-136.87-361.13-199.25-91.25z" stroke="#f00" stroke-width="1px" fill="#0f0"/></clipPath></defs><g display="none" transform="translate(498.19 -21.964)"><rect id="rect4441" style="color:#000000" display="inline" height="6320" width="6864" stroke="#0f0" y="-108" x="-144"/></g><g transform="translate(498.19 -21.964)"><path id="path3804" d="m3665 440.32-211.45 62.225c31.418-225.2 140.54-234.11 211.45-62.225z" stroke="#cbb5d8" stroke-width="54" fill="#f9f3fa"/></g><g transform="translate(498.19 -21.964)"><path id="path3806-1" fill="#fadefd" d="m4326 470c-359.96-214.36-782.27-111.32-1098 166-205.83 180.79-336.98 396.19-464 617.17-148.98 259.18-140.45 531.23-88 798.83 54.498 278.06-41.079 638.15-223.51 808.24-152.33 142.03-410.57 208.78-574.34 10.628 18.006 113.59 60.51 177.48 125.86 235.27-261.89 65.529-334.75 329.63-207.31 455.96 127.43 126.33 274.51 87.37 347.03 34.184 72.518-53.186 86.866-173.66 24.728-230.63-62.138-56.969-183.56 23.493-112.44 113.62-93.666 27.5-127.72-101.23-22.343-179.51 105.2-78.3 304.2 11.6 390.2 76.2l1275.6 42.651 644.88-2511.6z"/><path id="path3808" fill="#fef5ff" d="m3760 376c-325.1 218.07-569.3 546.6-784 804-235.83 282.76-260.04 656.12-168 1068 104.5 467.64 58.923 903.21-669.71 1012.3-178.76 21.141-229.06 200.28-93.338 214.96-11.177-55.819-37.114-116.25 67.882-135.76 119.46 36.899 96.774 113.28 84.853 186.68-124.35 166.71-266.95 155.42-421.44 28.284-126.34-210.76 0.3705-341.01 203.65-446.89-54.807-61.514-92.216-134.63-101.82-226.27 67.882 65.351 135.76 95.525 203.65 115.97 263.12-2.671 428.78-142.69 526.09-379.01 72.726-216.88 119.05-445.65 42.426-729.73-67.523-308.98 67.921-561.97 214.96-811.76 205.5-339.33 471.8-609.32 894.9-700.8z"/><path id="path3810" fill="#fef5ff" d="m3210.3 2213.7c-63.426 362.21-210.47 631.11-458.21 873.98l237.59 39.598c246.39-263.16 377.12-577.47 415.78-910.75z"/><path id="path3806" fill="#e9a1ea" d="m3904.2 328.47c-246.74 2.2406-492.65 110.37-694.03 287.25-209.55 184.06-342.35 402.63-469.59 624-153.27 266.65-144.1 547.02-91.094 817.47 52.506 267.9-43.462 622.97-215.44 783.31-72.144 67.265-170.18 116.76-266.97 125.75-96.79 8.9946-191.63-20.038-268.12-112.59l-63-76.2 15.469 97.594c15.54 98.032 50.74 164.38 101.12 218.62-113.57 41.042-189.44 120.5-223.41 207.81-38.272 98.363-23.724 208.15 48.5 279.75 68.39 67.799 145.05 92.879 213.38 92.219 68.322-0.6606 127.88-25.556 168.62-55.438 43.414-31.84 68.078-82.002 73.719-132.69 5.6411-50.686-7.8987-104.03-46.719-139.62-42.193-38.683-103.42-30.979-141.69 0.7812-19.135 15.88-33.681 38.694-36.969 65.688-1.4756 12.117-0.393 24.794 3.0313 37.531-6.7832-5.0495-12.084-13.261-14.312-25.438-4.8289-26.391 7.1143-68.786 53-102.88 42.187-31.341 109.41-30.791 179.03-11.156 69.624 19.635 139.18 57.411 179 87.313l32.438-43.188c-46.182-34.68-119.08-74.181-196.78-96.094-77.703-21.913-162.68-27.165-225.88 19.781-59.494 44.198-83.209 105.27-73.938 155.94 4.6356 25.335 17.72 49.312 40 62.531 37.689 22.362 79.86 15.857 118.31-2.6563-31.178-15.732-43.274-48.514-40.312-75.156 1.2979-11.674 7.7775-22.276 17.875-30.656 20.195-16.76 50.742-20.817 70.688-2.5313 23.318 21.378 33.69 56.755 29.562 93.844-4.1278 37.089-22.896 73.748-52 95.094-31.775 23.304-82.013 44.466-137.22 45-55.205 0.5338-115.8-18.031-174.84-76.562-55.208-54.731-67.957-140.16-36.188-221.81 31.77-81.651 107.83-157.95 231.06-188.78l49.75-12.469-38.438-33.969c-42.956-37.986-74.126-76.205-95-131.88 74.895 54.852 161.39 73.759 245.22 65.969 111.36-10.348 218.62-65.233 298.81-140 192.9-179.85 288.08-544.96 231.59-833.19-51.889-264.75-59.785-528.47 84.906-780.19 126.8-220.59 256.29-432.81 458.41-610.34 309.25-271.63 717.66-370.76 1066.4-163.09l27.625-46.375c-139.2-82.898-287.55-119.69-435.59-118.34z"/></g><g transform="translate(498.19 -21.964)"><path id="path4188-9" d="m2675.7 3084.9c-73.776-282.11-287.12-551.93-582.66-695.79-367.22-178.76-838.89-174.15-1125.7 56.568-375.99 302.44-426.6 777.01-164.05 1072 156.94 176.31 183.33 376.34-2.3432 552.86-90.777 86.3-187.18 108.49-265.68 82.967-92.481-30.064-151.07-121.5-105.33-191.76 20.774 127.16 190.84 122.7 203.65 18.385 5.6687-46.18-19.265-122.94-71.764-168.37-116.22-100.57-207.61-51.351-251.5 46.51-101.02 225.22 95.938 829.06 614.6 646.54-177.77 295.75-669.86 15.24-715.59-370.52-112.78 1001.2 875.33 1344.9 1291.2 523.26 23.377 54.828 52.5 86.424 83.439 118.79-19.515-515.72-3.3044-1071.4 206.48-1583.9 122.02-298.09 490.34-434.8 726.91-53.74z" fill="#fadefd"/><path id="path4190" fill="#fef5ff" d="m2520.1 3135.8c-56.038-87.622-124.99-153.72-203.65-203.65-263.04-292.92-525.53-289.04-789.13-288.5-496.2 1.0108-489.29 528.99-376.18 800.44 226.86 544.43 405.59 1115 200.82 1431.2-241.4 253.96-505.07 301.9-789.13 161.22-296.23-191.11-376.38-483.07-353.55-823.07 85.954 186.44 206.36 299.09 339.41 384.67 186.46 92.912 287 13.977 379.01-82.024 224.83-194.95 238.41-571.74 98.995-859.84-157.1-324.64-238.51-844.13-16.971-1233.2 366.07-256.34 717.84-155.29 1069.1-42.426 283.5 151.72 498.7 369.02 593.97 701.45z"/><path id="path4188" fill="#e9a1ea" d="m1537 2235.4c-218.34 1.349-428.28 61.865-586.56 189.19-385.82 310.34-440.57 803.97-167.31 1111 75.596 84.93 117.76 173.35 120.5 259.28 2.7449 85.932-32.599 171.75-121.28 256.06-85.534 81.316-170.77 98.932-238.72 76.844-40.182-13.062-72.83-39.911-89.469-68.656-1.4444-2.4953-2.654-4.9579-3.875-7.4375 24.055 20.64 54.066 31.904 83.469 33 57.826 2.1557 118.5-34.852 126.66-101.31 7.2761-59.274-20.225-139.55-80.906-192.06-62.406-54.002-124.7-71.579-177.81-56.75-53.116 14.829-91.881 58.853-116 112.62-56.881 126.81-29.415 338.1 76.906 501.91 53.161 81.905 127.52 151.66 223.62 188.53 75.098 28.812 163 36.862 262.03 16.469-31.419 25.734-67.56 39.925-107.16 45.031-64.598 8.3297-139-9.1854-210.66-47.812-143.3-77.2-272.65-237.8-294.28-420.2l-27.5-231.94-26.156 232.09c-57.412 509.66 166.63 860.14 464.59 973.47 286.87 109.11 637.73-6.009 853.09-389.41 20.098 32.555 42.484 56.883 64.25 79.656l49.188 51.469-2.6876-71.125c-19.466-514.42-2.9031-1066.1 204.47-1572.7 57.949-141.57 174.24-243.26 300.16-265.16 125.92-21.896 264.64 31.472 378.84 215.44l11.281 18.219 20.313-6.875 158.41-53.75 23.812-8.0938-6.375-24.312c-75.933-290.36-294.09-565.81-596.97-713.25-176.05-85.698-375.22-130.57-567.88-129.38zm1.2187 55.125c183.82-1.1919 374.81 40.923 543.03 122.81 279.68 136.15 484.36 389.02 561.66 654.16l-114.22 38.75c-120.98-183.2-279.11-246.98-422.38-222.06-147.89 25.717-276.81 141.42-340.88 297.94-201.65 492.63-225.91 1022.6-211.03 1517.8-10.408-15.063-20.106-32.026-29.062-53.031l-22.75-53.344-26.188 51.75c-203.4 401.8-538.29 512.3-810.15 408.9-240.76-91.6-435.69-354.7-438.72-755.1 58.414 131.11 162.87 238.06 277.25 299.72 79.306 42.752 164.09 64.012 243.19 53.812 79.095-10.199 151.81-53.702 200.06-133.97l38.625-64.281-70.719 24.906c-124.76 43.905-226.86 39.958-310.41 7.9063-83.54-32-149.37-93.1-197.65-167.5-96.57-148.8-117.08-352-72.94-450.4 19.776-44.088 48.643-73.616 81.25-82.719 32.607-9.1032 74.124-1.0046 127.94 45.562 44.318 38.35 66.718 111.6 62.656 144.69-4.6473 37.859-35.556 57.197-71.031 53.906-78.811-7.3109-93.489-75.353-90.438-142.16-53.16 53.694-71.907 137.49-37.938 197.62 23.898 42.307 67.232 75.967 119.53 92.969 89.057 28.951 196.6 2.1909 292.62-89.094 96.99-92.207 141.3-194.65 138.03-296.94-3.2674-102.29-52.785-202.05-134.12-293.44-251.84-282.9-205.36-738.4 160.81-1033 146.46-117.81 345.6-174.81 553.94-176.16z"/></g><g display="none" transform="translate(498.19 -21.964)"><path id="path4448-8" fill="#f9f3fa" d="m4440 3664c128.93-166.48 205.84-412.73 272-628.97 37.869-123.77 132.1-168.28 220-195.51 274.44-85.048 558.26-135.78 820-159.51 157.8-14.31 285.07 33.087 368 156 105.66 156.61 181.92 324.96 212 500 12.231 71.187 6.9669 121.89-72 140-167.01 38.31-336.32 46.501-504.97 48-29.998 0.2667-71.715-21.336-86-64-27.477-82.063-56.472-164.7-78.243-236.24l-628.8 74.2-272 470c-80.232 101.34-163.89 150.11-260 8z"/><path id="path4446" d="m2760.5 3582.7c-136.74 183.98-220.55 412.06-475.18 497.8-154.97 563.2-217.42 1045-158.39 1651.8 11.671 119.98 55.496 158.07 118.79 164.05 199.48 18.854 402.46 9.9551 600.6-6.3432 91.349-7.5143 89.432-71.33 79.882-147.2-38.859-308.7-335.28-950.26-332.58-1450.2l268.7-659.02" stroke="#cbb5d8" stroke-width="54" fill="#f9f3fa"/><path id="path4448" d="m4440 3664c128.93-166.48 205.84-412.73 272-628.97 37.869-123.77 132.1-168.28 220-195.51 274.44-85.048 558.26-135.78 820-159.51 157.8-14.31 285.07 33.087 368 156 105.66 156.61 181.92 324.96 212 500 12.231 71.187 6.9669 121.89-72 140-167.01 38.31-336.32 46.501-504.97 48-29.998 0.2667-71.715-21.336-86-64-27.477-82.063-56.472-164.7-78.243-236.24" stroke="#cbb5d8" stroke-width="54" fill="none"/><path id="path4450" fill="#cbb5d8" d="m4669.5 3759.1c-38.883 58.686-80.199 78.019-116.41 74.125-36.208-3.8943-74.559-33.012-102.66-92.719l-48.875 23c33.399 70.975 85.59 116.93 145.78 123.41 60.191 6.4738 121.13-28.533 167.16-98 130.09-196.34 365.37-650.38 405.38-744.95-91.994 57.436-323.68 523.91-450.38 715.13z"/><path id="path4456" fill="#cbb5d8" d="m4960.2 3281.3 7.625 53.438c238-33.874 643.42-91.645 734.19-114.46-73.233-40.816-503.81 27.15-741.81 61.024z"/></g><g transform="translate(498.19 -21.964)" stroke="#cbb5d8" stroke-width="54" fill="#f9f3fa"><path id="path4446-4" d="m3000.1 3582.7c-136.74 183.98-220.55 412.06-475.18 497.8-154.97 563.2-217.42 1045-158.39 1651.8 11.671 119.98 55.496 158.07 118.79 164.05 199.48 18.854 402.46 9.9551 600.6-6.3432 91.349-7.5143 89.432-71.33 79.882-147.2-38.859-308.7-346.33-1086.5-343.63-1586.4 267.17-95.676 369.18-271.33 449.31-460.52"/><path id="path4584" d="m4329.2 3730.4c-227.22 662.37-298.26 1337.7-93.967 1964.5 32.4 99.405 1.0067 165.99-110.49 191.51-163.87 37.501-324.5 20.393-486.14 7.3657-50.437-4.065-120.23-17.554-110.49-95.754 85.466-686.06 106.45-1375.5 522.96-2032.9"/></g><g display="none" transform="translate(498.19 -21.964)"><path id="path4443" fill="#fff" d="m3092 3808c198.67 93.446 397.33 197.98 596 256l316 36c441.12-103.99 616.63-393.09 560-844l108-1556-860 524c-65.557 280.55-147.58 552.88-288 796-125.31 31.13-285.62 39.348-435.36-17.128-144.25-39.668-288.5-48.005-432.75-19.799-152.43 51.955-257.41 143.44-274.36 308.3-17.247 128.63 51.968 228.44 147.08 319.61-103.36 15.317-86.352 93.988-48.083 183.85l345.07 127.28c113 26.4 220.2 37.5 266.4-114.1z"/><path id="path4406" d="m2536 3615.1c-80.337 3.4263-94.59 59.93-72 142.92 124.49 457.36 237.32 1219.9 349.86 1667.8 14.799 58.91 63.31 97.832 103.46 97.314 170.3-2.197 467.87-102.63 626.28-165.31 73.762-29.186 71.932-91.992 41.373-147.4-205.75-373.03-633.15-858.26-766.13-1297.7" stroke="#cbb5d8" stroke-width="54" fill="#fff"/><path id="path4386-9" display="inline" fill="#fff" d="m4092.7 3724.1c-50.531 149.23-92.524 289.17-126.28 421.99-158.65 624.28-135.35 1091.3 38.598 1625.8 31.922 98.082 57.555 204.12-53.74 223.45-143.54 24.923-355.63 26.13-500.63 2.8284-65.98-10.603-100.16-67.81-101.82-147.08-11.856-564.52 83.502-1152 335.9-1737.6 55.599-129.01 118.82-257.94 190.19-386.51"/><path id="path3799" fill="#cbb5d8" d="m3775.5 2269.7c-51.13 230.07-145.37 512.6-266.47 734.47-123.03 28.844-243.79 24.734-367.72-16.281-159.78-52.878-363.52-77.051-533.5-18.281-126.81 43.843-245.62 152.17-257.75 287.22-7.2952 81.218 13.716 172.9 56.156 251.44 32.386 59.933 119.35 157.43 209.51 156.91-71.978-56.236-136.29-134.99-162.01-182.59-37.506-69.407-55.988-152.86-49.875-220.91 9.4378-105.07 111.46-202.91 221.62-241 152.72-52.803 347.66-31.542 498.88 18.5 137.04 45.353 273.29 48.788 409.28 14.688l11.344-2.8437 5.6874-10.25c127.61-230.28 224.67-521.36 277.56-759.34z"/><path id="path3803" d="m3702.8 4072.4c-129.2-30.628-262.43-82.812-380.07-156.27-73.038-45.606-153.63-74.71-232.28-109.25" stroke="#cbb5d8" stroke-width="54" fill="none"/><path id="path4210" d="m4524 3172c191.8 447.19-137.48 887.39-536 928" stroke="#cbb5d8" stroke-width="54" fill="none"/><path id="path4408" fill="#cbb5d8" d="m2988 3111.2c76.883 96.632 115.59 435.52 81.286 664.81-11.696 78.168-52.459 116.91-105.78 131.56-53.322 14.65-161.14-6.7826-210.18-37.137 34.4 84.197 152.57 108.99 224.49 89.23 71.919-19.758 130.6-80.498 144.84-175.66 35.124-234.73 20.387-599.73-134.66-672.81z"/><path id="path4386" fill="#cbb5d8" d="m3660 4102.8c-254.02 589.42-350.02 1180.9-338.09 1748.9 0.911 43.376 10.59 82.56 31.312 113.69 20.723 31.127 53.439 53.108 93.219 59.5 149.22 23.979 361.72 22.759 509.53-2.9063 32.097-5.573 57.846-18.37 75.312-37.812s25.429-44.012 27.531-68.656c4.2046-49.288-11.873-102.2-28.062-151.94-172.74-530.74-195.8-990.19-38.094-1610.8 33.554-132.03 116.36-330.72 87.762-437.82-38.493 113.52-106.15 290.89-140.11 424.51-159.6 628.01-136.07 1102.6 39.094 1640.8 15.733 48.34 28.447 97.542 25.625 130.62-1.4111 16.542-5.9059 28.216-13.938 37.156-8.0316 8.9402-20.824 16.63-44.375 20.719-139.27 24.182-350.93 25.405-491.72 2.7812-26.2-4.2102-43.566-16.15-56.844-36.094s-21.527-49.014-22.281-84.906c-11.784-561.09 82.941-1144.5 333.72-1726.4 55.242-128.18 130.79-300.14 185.94-378.94-107.48 41.412-179.58 227.72-235.54 357.56z"/></g><g transform="translate(498.19 -21.964)"><path id="path4443-2" fill="#fff" d="m2416.8 4253.6c112.96 26.398 433.81-113.46 583.13-475.03 198.7 93.4 489.4 227.4 688.1 285.4l316 36c441.12-103.99 616.63-393.09 560-844l108-1556-860 524c-65.557 280.55-147.58 552.88-288 796-125.31 31.13-285.62 39.348-435.36-17.128-144.25-39.668-288.5-48.005-432.75-19.799-152.43 51.955-268.46 128.71-285.41 293.57-65.687 144.8-36.427 440.58-26.222 555.02-30.218 147.34-85.976 280.08-252.41 349.58-184.53 547.28-159.04 1104.1-132.58 1661 11.922 130.38 90.323 146.8 169.41 162.05l519.28-14.731c169.94-3.3329 117.2-129.13 99.437-235.7-143.99-495.25-317.35-986.31-330.6-1500.2z"/><path id="path3803-0" d="m3702.8 4072.4c-129.2-30.628-262.43-82.812-380.07-156.27-73.038-45.606-230.97-100.49-309.62-135.03" stroke="#cbb5d8" stroke-width="54" fill="none"/><path id="path4210-1" d="m4524 3172c191.8 447.19-137.48 887.39-536 928" stroke="#cbb5d8" stroke-width="54" fill="none"/><path id="path4386-9-2" fill="#fff" d="m4092.7 3724.1c-50.531 149.23-92.524 289.17-126.28 421.99-158.65 624.28-135.35 1091.3 38.598 1625.8 31.922 98.082 57.555 204.12-53.74 223.45-143.54 24.923-355.63 26.13-500.63 2.8284-65.98-10.603-100.16-67.81-101.82-147.08-11.856-564.52 83.502-1152 335.9-1737.6 55.599-129.01 118.82-257.94 190.19-386.51"/><path id="path4386-7" fill="#cbb5d8" d="m3660 4102.8c-254.02 589.42-350.02 1180.9-338.09 1748.9 0.911 43.376 10.59 82.56 31.312 113.69 20.723 31.127 53.439 53.108 93.219 59.5 149.22 23.979 361.72 22.759 509.53-2.9063 32.097-5.573 57.846-18.37 75.312-37.812s25.429-44.012 27.531-68.656c4.2046-49.288-11.873-102.2-28.062-151.94-172.74-530.74-195.8-990.19-38.094-1610.8 33.554-132.03 116.36-330.72 87.762-437.82-38.493 113.52-106.15 290.89-140.11 424.51-159.6 628.01-136.07 1102.6 39.094 1640.8 15.733 48.34 28.447 97.542 25.625 130.62-1.4111 16.542-5.9059 28.216-13.938 37.156-8.0316 8.9402-20.824 16.63-44.375 20.719-139.27 24.182-350.93 25.405-491.72 2.7812-26.2-4.2102-43.566-16.15-56.844-36.094s-21.527-49.014-22.281-84.906c-11.784-561.09 82.941-1144.5 333.72-1726.4 55.242-128.18 130.79-300.14 185.94-378.94-107.48 41.412-179.58 227.72-235.54 357.56z"/><path id="path4446-4-7" d="m3792.8 2190c-67.782 288.07-156.4 564.71-289.78 817.94-113.51 20.156-228.89 28.52-347.66-16.531-161.76-61.36-315.85-61.897-471.12-43.219-168.69 20.292-274.8 128.52-329.72 264.03-54.914 135.51-62.837 298.75-44.906 442.53 16.476 132.11 3.8165 238.48-34.906 321.03-38.723 82.552-103.2 142.76-196.97 183.5l-11.844 5.1563-3.4063 12.438c-155.76 566.08-185.34 1043.8-126.09 1652.8 6.1243 62.956 20.69 107.76 45.875 139.06 25.184 31.305 60.838 45.808 97.25 49.25 201.98 19.091 406.51 10.044 605.34-6.3125 51.914-4.2704 87.879-30.273 100.91-65.531 13.027-35.258 8.4267-73.327 3.5625-111.97-20.223-160.65-109.79-429.4-193.75-723-81.485-284.94-157.2-591.77-160.41-832.81 200.64-39.933 347.17-128.49 449.66-248.81 106.32-124.83 227.84-334.5 214.81-503.75-36.471 164.08-157.74 353.5-255.9 468.75-98.161 115.25-238.39 199.25-440.59 235.06l-22.156 3.9375-0.125 22.5c-1.3803 255.77 78.444 575.06 162.78 869.97 84.337 294.91 173.46 566.85 192.09 714.91 4.6858 37.224 5.839 69.005-0.625 86.5-6.4639 17.495-15.252 27.162-54.687 30.406-197.43 16.241-398.87 24.993-595.84 6.375-26.886-2.5413-44.78-10.083-60.25-29.313s-28.641-53.447-34.188-110.47c-58.389-600.23-30.131-1066.2 121.12-1621.1 97.436-45.156 169.7-113.76 212.31-204.59 44.35-94.547 56.961-211.65 39.625-350.66-17.05-136.72-8.4718-292.56 41.375-415.56 49.847-123.01 136.76-212.72 286.09-230.69 151-18.164 294.23-17.296 445.53 40.094 136.67 51.839 268.5 39.346 389.5 16.938l12.781-2.375 6.125-11.469c139.89-262.11 231.29-547.41 300.75-842.62z" fill="#cbb5d8"/></g><g transform="translate(498.19 -21.964)" stroke-miterlimit="9" stroke-width="9" display="none"><path id="path4481" d="m2891.5 3361.1c11.75 29.635-1.237 45.949-24 57 14.701 35.261-21.328 46.692-41 31-22.95 26.755-48.441 15.384-74 3 27.16-6.6592 50.218-37.203 25-42-14.745-2.8046-22.585-10.063-14-30 4.6838-10.878 0.4311-19.178-18-24-40.182-10.513-59.286 19.894-38 43 3.1942-20.343 15.919-32.795 33-22 12.098 7.6464 12.715 22.726 8 34-13.661 32.668-39.331 39.981-67 29-29.689-11.783-45.532-40.444-38-82.464 6.7572-37.697 48.424-44.319 82.929-44.364-29.359-20.21-64.884-36.35-49.05-82.757 7.2143-21.144 4.6741-39.838 1.5355-61.172 18.283 12.628 33.252 23.009 52.586 25.757 46.188 6.5661 55.552 35.544 59 69 14.631-36.978 44.364-63.979 92-45 38.015 15.146 49.794 44.996 44 73-7.2798 35.183-39.25 46.21-57 38-31.68-14.654-22.407-47.238 6-47-9.6337-19.694-48.324-14.375-58 28-2.184 9.5646-0.9313 23.883 12 25 18.554 1.6022 27.986 9.0712 19 25-12.535 22.22 20.936 22.487 43 0z" stroke="#d2d184" fill="#e8e894"/><path id="path4481-2" d="m2624.2 3291.5c6.566 18.014-1.6382 27.932-15.68 34.649 8.2505 21.434-13.857 28.383-25.505 18.844-14.458 16.264-29.724 9.3514-45.012 1.8237 16.628-4.0481 31.225-22.615 15.998-25.531-8.9032-1.7049-13.526-6.1173-7.9257-18.236 3.0552-6.6122 0.6319-11.658-10.472-14.589-24.207-6.3908-36.399 12.093-23.914 26.139 2.333-12.366 10.304-19.936 20.472-13.373 7.2019 4.6481 7.2854 13.814 4.2035 20.668-8.9294 19.858-24.664 24.304-41.261 17.628-17.808-7.1627-26.879-24.585-21.493-50.129 4.8324-22.916 30.272-26.94 51.234-26.968-17.445-12.285-38.715-22.097-28.2-50.307 4.7907-12.853 3.6082-24.217 2.1133-37.185 10.863 7.6764 19.756 13.987 31.448 15.657 27.931 3.9915 33.061 21.606 34.51 41.944 9.602-22.478 28.185-38.892 56.757-27.355 22.801 9.207 29.381 27.352 25.32 44.375-5.1014 21.387-24.736 28.09-35.36 23.099-18.962-8.9079-12.7-28.715 4.552-28.57-5.4723-11.972-29.078-8.7381-35.774 17.021-1.5114 5.8142-1.0266 14.518 6.8073 15.197 11.24 0.9739 16.826 5.5143 11.06 15.197-8.0439 13.507 12.284 13.67 26.122 0z" display="inline" stroke="#9974bc" fill="#cfa1f3"/><path id="path4481-2-5" d="m2869.7 3131.5c6.566 18.298-1.6382 27.861-15.68 33.971 8.2505 21.792-13.857 27.783-25.505 17.74-14.458 15.638-29.724 8.0651-45.012-0.1243 16.628-3.3285 31.225-21.264 15.998-24.839-8.9032-2.0902-13.526-6.7027-7.9257-18.58 3.0552-6.48 0.6319-11.63-10.472-15.042-24.207-7.4384-36.399 10.518-23.914 25.104 2.333-12.265 10.304-19.49 20.472-12.487 7.2019 4.9598 7.2854 14.13 4.2035 20.85-8.9294 19.472-24.664 23.236-41.261 15.843-17.808-7.9334-26.879-25.748-21.493-51.059 4.8324-22.706 30.272-25.63 51.234-24.751-17.445-13.04-38.715-23.772-28.2-51.527 4.7907-12.646 3.6082-24.061 2.1133-37.094 10.863 8.1465 19.756 14.842 31.448 17.018 27.931 5.2003 33.061 23.037 34.51 43.437 9.602-22.063 28.185-37.672 56.757-24.898 22.801 10.194 29.381 28.624 25.32 45.471-5.1014 21.166-24.736 27.02-35.36 21.569-18.962-9.7285-12.7-29.265 4.552-28.373-5.4723-12.209-29.078-9.9965-35.774 15.472-1.5114 5.7488-1.0266 14.474 6.8073 15.492 11.24 1.4604 16.826 6.2425 11.06 15.676-8.0439 13.159 12.284 14.201 26.122 1.1305z" display="inline" stroke="#9974bc" fill="#cfa1f3"/></g><g transform="translate(498.19 -21.964)" stroke-miterlimit="9" stroke-width="9"><path id="path4481-24" d="m2849.7 3551.2c-7.8269 35.638-30.588 42.799-59.25 38.706-8.6298 42.865-50.117 30.638-58.729 3.155-38.893 10.686-55.789-16.425-72.102-44.539 30.021 11.074 71.442-3.1373 50.596-23.836-12.189-12.102-14.977-24.008 5.927-37.425 11.406-7.3202 12.685-17.917-1.7075-34.294-31.378-35.703-68.962-19.09-63.566 16.46 16.052-17.254 36.092-20.918 45.38 0.2603 6.5792 15.001-2.4891 29.701-14.178 37.378-33.869 22.243-62.896 12.744-82.107-15.391-20.614-30.189-17.292-67.524 16.751-102.56 30.541-31.436 74.296-11.036 107.05 11.016-14.907-37.972-38.266-76.033 6.4584-109.92 20.377-15.439 29.935-34.8 40.615-57.049 9.2553 23.687 16.807 43.12 33.384 58.108 39.601 35.805 29.932 69.291 11.785 103.24 37.548-25.711 83.031-32.288 116.06 16.221 26.358 38.711 18.421 74.572-5.0016 97.428-29.426 28.715-66.806 18.705-78.384-0.4497-20.664-34.188 8.9885-59.162 35.778-40.746 3.4709-24.852-36.628-44.581-72.931-10.577-8.194 7.6752-16.172 22.061-4.623 31.401 16.571 13.401 20.735 26.526 2.0158 35.883-26.113 13.053 5.46 34.739 40.781 27.534z" stroke="#d2d184" fill="#e8e894"/><path id="path4481-2-1" d="m2640.7 3314c-5.3047 21.294-19.434 25.449-37.051 22.83-5.8965 25.617-31.311 18.053-36.252 1.5452-24.123 6.171-34.176-10.162-43.856-27.093 18.361 6.8069 44.09-1.4601 31.516-13.977-7.3523-7.3184-8.9115-14.464 4.1574-22.376 7.1304-4.3165 8.062-10.655-0.5919-20.546-18.866-21.563-42.262-11.835-39.413 9.4841 10.129-10.238 22.534-12.315 27.976 0.4217 3.8548 9.0212-1.9338 17.77-9.244 22.299-21.181 13.121-38.95 7.2628-50.417-9.6972-12.304-18.198-9.7542-40.535 11.706-61.318 19.252-18.645 45.956-6.1732 65.854 7.2233-8.6807-22.825-22.572-45.753 5.4591-65.782 12.771-9.1255 18.924-20.663 25.808-33.923 5.3882 14.238 9.783 25.919 19.802 34.991 23.935 21.672 17.524 41.668 5.8786 61.889 23.496-15.176 51.627-18.848 71.339 10.393 15.731 23.335 10.355 44.762-4.3932 58.311-18.529 17.022-41.441 10.809-48.322-0.7286-12.281-20.593 6.3371-35.374 22.606-24.189 2.4739-14.862-21.984-26.91-44.824-6.7607-5.1554 4.5479-10.268 13.116-3.2724 18.776 10.037 8.1216 12.428 16.006 0.7606 21.499-16.276 7.6631 2.8997 20.834 24.774 16.727z" stroke="#9974bc" fill="#cfa1f3"/><path id="path4481-2-5-0" d="m2976 3319.4c-5.4867 21.564-19.389 25.382-36.617 22.186-6.1251 25.956-30.928 17.484-35.545 0.498-23.722 5.5775-33.353-11.382-42.609-28.941 17.9 7.4897 43.225-0.1781 31.073-13.32-7.1057-7.6839-8.5368-15.02 4.377-22.701 7.0457-4.191 8.0445-10.629-0.3018-20.976-18.196-22.557-41.254-13.33-38.75 8.5022 10.064-10.142 22.248-11.892 27.409 1.2622 3.6553 9.317-2.1357 18.07-9.3605 22.472-20.934 12.754-38.266 6.2502-49.274-11.391-11.811-18.93-9.0096-41.638 12.301-62.201 19.119-18.447 45.118-4.9303 64.434 9.3269-8.1973-23.541-21.499-47.342 6.2404-66.94 12.638-8.9288 18.824-20.515 25.75-33.836 5.0872 14.684 9.2356 26.73 18.931 36.282 23.161 22.819 16.608 43.025 4.9226 63.306 23.23-14.782 50.846-17.69 69.767 12.723 15.099 24.271 9.5412 45.968-5.0946 59.351-18.388 16.813-40.756 9.794-47.343-2.1803-11.756-21.371 6.6889-35.895 22.48-24.002 2.6254-15.086-21.179-28.103-43.833-8.2295-5.1135 4.4859-10.239 13.074-3.461 19.055 9.7255 8.5832 11.962 16.696 0.4543 21.953-16.053 7.333 2.5593 21.338 24.05 17.799z" stroke="#9974bc" fill="#cfa1f3"/></g><g transform="translate(498.19 -21.964)"><path id="path3836" fill="#fff" d="m3165 1254.9c-140.56 227.71-208.41 470.33-56.569 758.02l-155.56 93.338c53.312 161.43 154.23 237.16 282.84 263.04 192.33-36.555 384.67-69.978 577-98.995 234.9-9.9422 462.15-42.857 644.88-209.3l197.99-545.89-25.456-633.57-483.66-28.284z"/><path id="path3790" fill="#cbb5d8" d="m3023.6 2138.8c7.9697 10.413 20.941 12.302 36.77 9.1924-23.715 24.646-47.495 15.086-36.77-9.1924z"/><path id="path3792" fill="#cbb5d8" d="m3209.2 2117.2c10.915 38.169-25.577 52.662-33.588 24.042 20.581 4.305 27.937-6.0708 33.588-24.042z"/><path id="path3794" fill="#cbb5d8" d="m3070.6 2259c132.2 38.936 216.15 19.2 257.39-87.328 6.0347 124.89-117.82 149.22-225.21 132.23z"/><path id="path3834" d="m3166 1264c-153.12 165.84-194.58 531.2-50 754" stroke="#cbb5d8" stroke-width="54" fill="none"/><path id="path3796" fill="#cbb5d8" d="m2946.8 2073.3c-6.2475 2.1713-11.634 6.7256-14.813 12.525-3.1795 5.7996-4.1224 12.79-2.593 19.225 33.113 139.34 145.76 263.44 311.72 296.88 3.6936 0.7415 7.5427 0.6986 11.219-0.125 110.2-24.522 226.75-46.782 338.25-68.344 102.87-19.893 310.59-26.274 493.53-67.469 169.99-38.278 378.39-138.39 328.51-319.82-30.088 170.71-210.12 236.81-340.66 267.19-174.76 40.675-377.86 45.093-491.62 67.094-109.44 21.164-224.24 43.126-333.78 67.375-133.06-28.777-224-123.5-258.25-232.28 140.57-53.647 261.54-152.89 270.61-308.61-70.126 122.88-168.34 216.44-312.11 266.36z"/></g><g transform="translate(498.19 -21.964)"><path id="path3862" clip-path="url(#clipPath3913)" fill="#fff" d="m3256 1834c-37.388-161.67-37.799-358.89-186-414-94.422 219.04-53.507 412.7 32 598 81.363-39.311 129.16-103.24 154-184z"/><path id="path3860" clip-path="url(#clipPath3925)" fill="#fff" d="m3653.6 2021.8c239.32 31.749 462.22 14.223 648.4-113.48 65.385-123.77 176.45-227.96 138.59-395.98-225.11 0.8359-663.68 151.88-786.99 509.46z"/><path id="path3852" style="color:#000000" d="m3306.4 1735.7c0 117.16-49.704 212.13-111.02 212.13-61.312 0-111.02-94.975-111.02-212.13s49.703-212.13 111.02-212.13c61.312 0 111.02 94.975 111.02 212.13z" clip-path="url(#clipPath3909)" transform="matrix(1 0 0 1.1733 26.87 -278.23)" fill="url(#linearGradient4017)"/><path id="path3854" style="color:#000000" d="m4594 1791c0 162.92-134.76 295-301 295s-301-132.08-301-295 134.76-295 301-295 301 132.08 301 295z" clip-path="url(#clipPath3921)" transform="matrix(.98007 0 0 .92881 61.575 114.49)" fill="url(#linearGradient4009)"/><path id="path3929" d="m3138.1 1747.8-36.77-15.556 2.1213 82.024 28.284-1.4142z" clip-path="url(#clipPath3962)" fill="#d7c6f1"/><path id="path3931" d="m3131.8 1810-28.991 1.4142 4.9497 38.184 27.577-4.9497z" clip-path="url(#clipPath3958)" fill="#efe7f8"/><path id="path3856" style="color:#000000" d="m3292 1787c0 101.07-37.16 183-83 183s-83-81.932-83-183 37.16-183 83-183 83 81.932 83 183z" clip-path="url(#clipPath3905)" transform="matrix(1 0 0 1.085 5.6569 -146.25)"/><path id="path3782" style="color:#000000" d="m3200 1824.4c0 18.571-10.745 33.625-24 33.625s-24-15.054-24-33.625 10.745-33.625 24-33.625 24 15.054 24 33.625z" fill-rule="evenodd" transform="matrix(.67893 -.82648 .73420 .76427 -322.5 3060.6)" fill="#fff"/><path id="path3784" style="color:#000000" d="m3283.8 1698.3c0 52.33-26.514 94.752-59.22 94.752s-59.22-42.422-59.22-94.752 26.514-94.752 59.22-94.752 59.22 42.422 59.22 94.752z" fill-rule="evenodd" transform="matrix(.86990 -.22440 .19010 1.0268 86.791 686.65)" fill="#fff"/><path id="path3966" d="m4146.5 1738.6-178.19-91.924 80.309-65.498 124.75 82.468z" clip-path="url(#clipPath3999)" fill="#d7c6f1"/><path id="path3968" d="m4149.3 1734.3-173.95-91.924-25.456 173.81 173.95-11.172z" clip-path="url(#clipPath3995)" fill="#efe7f8"/><path id="path3858" style="color:#000000" d="m4521.2 1801.5c0 110.52-83.894 200.11-187.38 200.11s-187.38-89.593-187.38-200.11 83.894-200.11 187.38-200.11 187.38 89.593 187.38 200.11z" clip-path="url(#clipPath3917)" transform="matrix(1.0151 0 0 1.0495 -97.944 -107.5)"/><path id="path3778" style="color:#000000" d="m4151.5 1777.8c0 16.983-17.013 30.75-38 30.75s-38-13.767-38-30.75 17.013-30.75 38-30.75 38 13.767 38 30.75z" fill-rule="evenodd" transform="matrix(1.0033 -.31272 .31103 1.0087 -571.76 1269.6)" fill="#fff"/><path id="path3780" style="color:#000000" d="m4314 1655.2c0 42.25-46.394 76.5-103.62 76.5-57.23 0-103.62-34.25-103.62-76.5s46.394-76.5 103.62-76.5c57.23 0 103.62 34.25 103.62 76.5z" fill-rule="evenodd" transform="matrix(1.0312 -.087712 .083860 .96874 -276.41 421.66)" fill="#fff"/></g><g opacity=".5" transform="translate(498.19 -21.964)" stroke="#f00" stroke-width="1px" display="none" fill="#0f0"><path id="path3787" d="m3086 1421c-43.446 187.96-74.57 393.86 40.25 568.75 63.957-45.309 97.498-105.36 128-171 38.491-92.872 29.034-227.59 31-306.5 6.5693-263.68-136.87-361.13-199.25-91.25z"/><path id="path3838" d="m4320.5 1808.7c-152.86 160.21-310.09 213.93-646.4 184.39 17.783-217.84 62.06-448.83 220.48-603.97 279.92-274.12 834.93-9.0899 425.92 419.58z"/></g><g transform="translate(498.19 -21.964)"><path id="path4032" d="m3242.8 1851.7c120.51-192.25 87.922-476.95 21.213-632.15l-200.82 106.07 1.4142 83.439c156.01 91.191 180.45 293.43 178.19 442.65z" clip-path="url(#clipPath4049)" fill="#c9a1ea"/><path id="path4043" d="m3662.8 2005.9c117.3-319.8 356.3-433 825.2-527.9-128.5-275.95-336.55-260.22-560-188-258.95 214.25-261.13 465.19-265.19 715.85z" clip-path="url(#clipPath4045)" fill="#c9a1ea"/><path id="path4071" d="m3243 1843c-13.204-171.31-56.026-320.98-158.41-400.07-25.426 34.29-53.21 19.051-47.242-39.873-34.622-32.554-62.291-68.234-82.344-114.06 48.185 43.556 99.669 79.827 147 116 128.29 98.044 159.99 258.02 150 424z"/><path id="path4073" d="m3667.8 1993.8c145.4-252.9 406.7-409.9 636.2-443.8 138.19-20.391 282.35-20.139 303.96-297.31-106.6 228-153.7 218.3-300 247.3-261.43 51.752-601.35 224.01-640.24 493.83z"/><path id="path4075" d="m4425 1509c-11.5 101.52-58.897 196.5-98 293 87.715-82.365 138.51-190.38 155-314z"/><path id="path4077" d="m4461 1521c73.667 25.21 155.33 9.4412 219-9-43.678 39.893-150.25 72.782-232 49z"/><path id="path3796-0" fill="#cbb5d8" d="m2946.8 2073.3c-6.2475 2.1713-11.634 6.7256-14.813 12.525-3.1795 5.7996-4.1224 12.79-2.593 19.225l58.906 10.5c140.57-53.647 261.54-152.89 270.61-308.61-70.126 122.88-168.34 216.44-312.11 266.36z"/></g><g transform="translate(498.19 -21.964)"><path id="path4112" fill="#fadefd" d="m4231.3 652.45-517.6 186.68-779.88 424.26-12.083 251.73c33.419-101.04 116.51-164.82 240.42-197.99 170.65-49.221 341.3-57.836 511.95-70.711 228.62-45.183 405.78-165.23 551.54-330.93z"/><path id="path3800" fill="#fadefd" d="m4588 892c18.33 238.87 9.9912 467.75-32 684-41.333 178.36-82.667 353.18-124 524-95.067 248.93-326.58 434.03-608.28 514.34 152.09 56.848 304.19 33.892 456.28-6.3431-16.671 105.34-2.0844 197.27 34 280 35.789 118.64 96.603 241.02-12 338-73.333 49.032-146.67 64.786-220 16l346 232c112-101.38 182.08-226.7 241.73-357.99 52.745-198.58 82.358-381.75 113.14-565.69 59.996-358.12 37.669-736.82 42.426-1108.7-17.362-314.07-30.375-632.66-246.07-741.05z"/><path id="path3791" fill="#fef5ff" d="m4805.5 1288.8c-36.058 233.76-84.187 417-161.22 579.83-121.08 255.92-166.41 531.69-164.05 808.93 2.0315 238.34 40.111 495.52-237.59 602.45-62.916-3.839-129.55 7.1952-178.19-53.74-76.74-64.323-68.315-145.99-25.456-217.79-3.2625 66.272 22.597 96.492 53.74 138.59 71.086 39.907 120.78 8.4948 169.71-25.456 37.392-77.31 27.659-154.62-25.456-231.93-118.14-83.857-214.53-64.428-302.64-5.6569-72.59 80.142-129.65 166.5-90.51 291.33 80.141 172.29 210.95 230.59 350.72 268.7-44.906 42.042-95.976 74.222-178.19 56.569 6.6517-50.518 61.928-103.59-65.054-147.08-82.263 7.2372-81.891 73.5-59.397 155.56 76.036 101.79 170.11 107.72 265.87 104.65 209.16-60.126 353.64-193.55 449.72-381.84-17.71-445.95 1.4046-928.67 200.82-1369 18.136-207.42 16.338-366.75-2.8285-574.17z"/><path id="path136" fill="#e9a1ea" d="m4574.9 687.88-8.8124 53.25c58.124 9.5855 103.68 61.758 139.16 151.44 35.475 89.679 58.19 212.93 71.719 348.25 27.058 270.64 18.327 589.6 16.031 799.41-3.418 312.36-42.594 609.66-110.34 910.34-52.804 234.35-149.61 416.73-327.41 544.5-119.31 85.742-262.93 125.96-385.06 50.469-34.694-21.446-55.368-43.219-61.094-65.875-11.556-45.728 3.8546-97.526 50.125-95.562 33.61 1.426 46.088 22.132 47.75 49.406 0.8279 13.589-0.3742 28.51-3.7188 36.531-14.328 34.359-46.941 0.1743-42.679-28.214-23.723 35.667 5.2872 88.744 46.491 86.714 12.818-0.6316 24.897-7.0899 32.438-15.094 7.5409-8.0038 11.824-16.972 14.906-26.062 6.1656-18.18 6.8998-37.799 6.4688-56.875-1.2872-56.968-48.713-100.53-99.531-100.34-89.712 0.326-129.69 86.93-103.31 167 12.366 37.534 42.185 68.6 83.781 94.313 145.56 89.976 315.14 40.754 444.94-52.531 190.14-136.65 293.97-334.08 348.59-576.5 68.447-303.78 108.19-605.15 111.66-921.66 2.2857-208.88 11.306-529.4-16.281-805.34-13.794-137.97-36.51-264.79-75.25-362.72-38.8-97.78-96.2-170.78-180.6-184.69z"/><path id="path3788" fill="#e9a1ea" d="m4603.6 913.91-51.188 17.188c40.538 120.72 30.789 309.33-2.0312 509.5s-87.378 412.34-130.56 585.88c-81.263 326.55-339.19 464.92-614.72 567.22l-75.125 27.906 76.687 23.25c149.68 45.392 301.75 34.64 441.91 2.3437-7.911 121.55 22.228 232.74 64.438 336.5 35.667 87.671 25.235 157.62-45.188 228.84-27.466 27.777-52.194 39.3-77.188 40.594-24.993 1.2938-52.942-8.0619-85.5-31.156-44.497-31.564-70.98-79.199-76.688-117.16-0.3174-2.1108-0.3399-4.0295-0.5313-6.0625 8.6031 23.199 22.49 44.639 41.031 61.312 62.503 56.208 153.51 47.58 202.12-9.5625 62.989-74.031 53.809-193.6-21.062-271.69-105.24-109.76-276.07-83.686-368.84 16.875-125.2 135.7-93.241 327.39 29.438 430.94 55.842 47.134 127.3 105.63 225.19 131.69-32.026 17.004-71.306 24.245-124.69 14l-10.188 53.031c97.818 18.773 170.1-15.59 218.91-62.969l41.562-40.344-57.625-5.9062c-113.8-11.632-191.86-74.636-258.34-130.75-101.61-85.764-129.78-239.01-24.562-353.06 73.671-79.853 208.27-101.52 290.16-16.125 57.103 59.554 60.9 149.99 18.938 199.31-29.21 34.331-83.197 41.918-124.88 4.4375-13.054-11.74-24.361-30.113-29.312-48.312-10.27-37.745 5.2221-69.082 29-97.031-46.118-0.5253-99.384 21.169-119.78 60.562-12.017 23.209-14.049 50.345-9.9376 77.688 8.2226 54.686 42.174 112.99 98.844 153.19 38.954 27.632 79.019 43.097 119.53 41 40.512-2.0971 78.781-22.178 112.78-56.562 82.293-83.225 98.387-184.96 56.812-287.16-44.811-110.15-73.545-223.35-57.219-347.81l5.1876-39.719-38.781 10.094c-117.96 30.691-243.14 46.385-366.72 26.406 251.52-103.56 488.26-257.45 566.72-572.75 43.099-173.19 98.09-386.61 131.47-590.19 33.378-203.57 46.476-396.85-0.062-535.44z"/><path id="path3772" fill="#e9a1ea" d="m4203.6 888.51c-167.58 220.48-402.96 319.19-632.33 342.11-115.29 11.519-271.74 21.028-406.68 60.83-140.1 41.322-299.48 153.37-233.91 277.94-10.806-134.23 141.37-212.37 246.06-239.83 124.54-32.668 280.06-33.212 399.91-45.188 239.22-23.903 492.45-129.63 669.95-363.17z"/></g><g transform="translate(498.19 -21.964)"><path id="path4115" d="m3702.4 949.43-1101.7-820.24c-167.7-124.85-196.8-102.46-63.6 56.57l827.9 988.78" stroke="#cbb5d8" stroke-width="54" fill="#fff"/><path id="path4117" d="m2623 141c2.2097 47.292-5.2105 94.041-19 136" stroke="#cbb5d8" stroke-width="34" fill="none"/><path id="path4119" d="m2754 249c2.6222 52.756-6.9575 102.91-39 145" stroke="#cbb5d8" stroke-width="34" fill="none"/><path id="path4121" d="m2861 328c10.898 75.018-4.2805 138.63-36 195" stroke="#cbb5d8" stroke-width="34" fill="none"/><path id="path4123" d="m3038 458c3.3024 90.274 5.8358 185.46-64 247" stroke="#cbb5d8" stroke-width="34" fill="none"/><path id="path4125" d="m3191 570c36.379 133.98 23.532 244.98-60 323" stroke="#cbb5d8" stroke-width="34" fill="none"/><path id="path4127" d="m3376 705c19.8 147.44-8.7 284.89-119 345" stroke="#cbb5d8" stroke-width="34" fill="none"/><path id="path4129" d="m3525 818c-7.4 133.57-59.6 249.8-163 346" stroke="#cbb5d8" stroke-width="34" fill="none"/><path id="path4133" fill="#fadefd" d="m3655.7 849.02 121.62 84.853-431.34 295.57-65.054-98.995c166.04-41.876 280.03-149.5 374.77-281.43z"/><path id="path4131" fill="#e9a1ea" d="m3665.6 833.47c-69.5 197.63-222.3 294.73-408.7 304.03 164.5-63.5 291.9-161.75 408.7-304.03z"/></g><g transform="translate(498.19 -21.964)"><path id="path3763-4" d="m4574.3 1081.3c109.3-223.5 52.9-541.7-146.4-714.65-58.4-50.67-100.5-74.85-153.4 34.85-93.3 193.39-98.3 400.53-61.5 606.5z" fill="#fff"/><path id="path3763" fill="#cbb5d8" d="m4354.9 296.91c-2.3691-0.0747-4.8022-0.0712-7.25 0.0625-19.582 1.0696-38.618 10.968-54.219 26.656-15.6 15.688-29.244 37.121-43.25 66.156-96.404 199.85-113.93 458.75-31.556 630.04-19.45-175.2-9.9959-419.66 80.181-606.6 12.452-25.813 23.909-42.483 32.906-51.531 8.9971-9.0479 14.054-10.516 18.906-10.781 9.7048-0.53012 31.183 11.498 59.562 36.125 188.41 163.49 250.96 480.9 162.56 692.39 153.43-187.32 83.054-550.77-127.15-733.18-28.142-24.421-55.151-48.224-90.688-49.344z"/><path id="path3769" fill="#cbb5d8" d="m4470.3 611.44c21.39 70.946 18.87 218.26-27.577 297.69 80.92-67.713 84.962-233.56 27.577-297.69z"/></g></svg>