<?xml version="1.0" encoding="UTF-8"?><svg xmlns="http://www.w3.org/2000/svg" xmlns:xlink="http://www.w3.org/1999/xlink" version="1.1" viewBox="0 -46.858 612.21576 612.21576"><defs id="defs7760"><linearGradient id="linearGradient7877"><stop id="stop7879" stop-color="#035350" offset="0"/><stop id="stop7885" stop-color="#047975" offset=".40462"/><stop id="stop7881" stop-color="#00ada8" offset="1"/></linearGradient><linearGradient id="linearGradient7883" y2="181.89" xlink:href="#linearGradient7877" gradientUnits="userSpaceOnUse" y1="148.86" x2="637.9" x1="623.53"/><clipPath id="clipPath7895" clipPathUnits="userSpaceOnUse"><path id="path7897" d="m637.97 193.36c-5.8235 2.0029-14.019-6.4765-18.306-18.939-4.2865-12.463-3.0405-24.19 2.7829-26.193 5.8235-2.0029 14.019 6.4765 18.306 18.939 4.2865 12.463 3.0405 24.19-2.7829 26.193" fill="url(#linearGradient7883)"/></clipPath><clipPath id="clipPath7903" clipPathUnits="userSpaceOnUse"><path id="path7905" d="m637.97 193.36c-5.8235 2.0029-14.019-6.4765-18.306-18.939-4.2865-12.463-3.0405-24.19 2.7829-26.193 5.8235-2.0029 14.019 6.4765 18.306 18.939 4.2865 12.463 3.0405 24.19-2.7829 26.193" fill="url(#linearGradient7883)"/></clipPath><clipPath id="clipPath7927" clipPathUnits="userSpaceOnUse"><path id="path7929" d="m647.95 182.56c-0.91759-12.191-5.1123-25.168-7.8651-30.543-13.108-12.191-19.102-13.661-22.022-13.108-4.8501 0.9176 3.9325 33.558 19.007 45.355 15.075 11.798 10.88-1.7041 10.88-1.7041z" fill="#fff"/></clipPath><linearGradient id="linearGradient7970" y2="203.77" xlink:href="#linearGradient7877" gradientUnits="userSpaceOnUse" y1="154.87" x2="566.48" x1="547.75"/><clipPath id="clipPath7976" clipPathUnits="userSpaceOnUse"><path id="path7978" d="m566.6 206.45c-11.909 7.2473-28.507 1.7113-37.074-12.365-8.5666-14.076-5.8574-31.363 6.0512-38.61 11.909-7.2473 28.507-1.7113 37.074 12.365 8.5666 14.076 5.8574 31.363-6.0512 38.61" fill="url(#linearGradient7970)"/></clipPath><clipPath id="clipPath7984" clipPathUnits="userSpaceOnUse"><path id="path7986" d="m566.6 206.45c-11.909 7.2473-28.507 1.7113-37.074-12.365-8.5666-14.076-5.8574-31.363 6.0512-38.61 11.909-7.2473 28.507-1.7113 37.074 12.365 8.5666 14.076 5.8574 31.363-6.0512 38.61" fill="url(#linearGradient7970)"/></clipPath><clipPath id="clipPath8016" clipPathUnits="userSpaceOnUse"><path id="path8018" d="m581.95 202.46c-14.005 8.8015-35.193 0.28771-47.324-19.016-2.3603-3.7557-4.2038-7.6431-5.5393-11.534 17.699-15.541 24.256-36.304 45.664-32.735 3.9302 3.3829 7.5466 7.549 10.592 12.395 12.131 19.304 10.613 42.088-3.3925 50.889" fill="#fff"/></clipPath></defs><g transform="translate(-427.5 -28.473)" stroke="#ead463" stroke-width="5" fill="#fee78f"><path id="path10095" d="m722.81 365.78c0.47755 1.9487 1.6668 2.2763 4.344 2.2417 5.2334-0.0678 11.417-1.3883 14.798 4.6889 14.131 25.397 20.45 78.916 14.265 110.62-1.742 8.9301-8.7367 15.017-23.109 15.894-58.22 3.5537-46.612-7.2094-39.413-22.687 17.049-36.649 9.731-70.887 2.932-86.242-11.547-26.078-39.912-27.618-37.11-60.091"/><path id="path10093-1" d="m599.74 339.77c11.947 52.161 16.909 101.03 10.363 140.95-2.8741 17.529-13.477 25.325 48.422 21.895 12.462-0.69054 14.191-8.2369 13.411-18.921-3.5132-48.115-20.676-100.46-39.74-145.46"/></g><g transform="translate(-427.5 -28.473)"><path id="path10147" fill="#f3b6cf" d="m751.17 283.51c63.29-22.627 84.134 9.8506 87.601 54.923 6.6542 86.504-32.728 109.24-18.639 145.29 7.5576 19.338 30.406 33.364 59.322 32.919 48.199-0.74153 67.313-18.503 102.89-19.797 20.392-0.74153 43.318 0.89326 43.729 16.089 0.5243 19.393-35.415 39.976-49.032 17.056 5.217 26.07 62.871 13.815 62.672-19.28-0.1498-24.844-21.034-34.549-58.11-31.953-36.986 2.589-54.042 9.4153-81.479 9.4153-11.123 0-19.387-11.591 0-22.246 97.14-53.39 51.254-341.1-158.6-200.95"/><g><path id="path10137" d="m752.01 285.87s0.0366-0.0131 0.11195-0.04c0.0754-0.0269 0.1895-0.0676 0.34439-0.12246 0.15489-0.0549 0.35053-0.12402 0.58864-0.20745 0.2381-0.0834 0.51867-0.18119 0.84312-0.29299 0.32445-0.11179 0.69278-0.23764 1.1061-0.37683 0.41328-0.13919 0.87151-0.29173 1.3754-0.45644 0.50386-0.16471 1.0534-0.3416 1.6488-0.52897 0.59539-0.18737 1.2367-0.38522 1.9236-0.59129 0.68697-0.20608 1.4196-0.42037 2.1972-0.64002 0.38879-0.10982 0.7888-0.22097 1.1999-0.33304 0.4111-0.11206 0.83328-0.22503 1.2664-0.33845 0.43309-0.11343 0.87709-0.2273 1.3318-0.34113 0.45468-0.11382 0.92005-0.2276 1.3958-0.34078 0.4758-0.11318 0.96204-0.22577 1.4584-0.33719 0.49637-0.11141 1.0029-0.22164 1.5192-0.33007 0.51631-0.10843 1.0424-0.21505 1.578-0.3192 0.53555-0.10415 1.0805-0.20582 1.6345-0.3043 0.55398-0.0985 1.117-0.19378 1.6885-0.28513 0.57154-0.0913 1.1516-0.17876 1.7398-0.26144 0.58813-0.0827 1.1843-0.16062 1.788-0.23299 0.60367-0.0724 1.2148-0.13918 1.8329-0.19954 0.61808-0.0604 1.2431-0.1143 1.8743-0.16089 0.63127-0.0466 1.2688-0.0858 1.912-0.11679 1.4856-0.0715 2.9598-0.0968 4.4182-0.0721s2.9009 0.0994 4.3232 0.22746c1.4223 0.12809 2.8244 0.30956 4.2024 0.54744 1.3781 0.23788 2.7321 0.53217 4.0589 0.88557 1.3267 0.3534 2.6262 0.76591 3.8957 1.24 1.2695 0.47412 2.5091 1.0099 3.7167 1.6096 1.2076 0.59975 2.3833 1.2635 3.5254 1.9937 1.1422 0.73019 2.2509 1.5268 3.3248 2.3923 0.70553 0.56862 1.396 1.167 2.0711 1.7957 0.67505 0.62875 1.3346 1.2879 1.9783 1.9781 0.64365 0.69017 1.2714 1.4114 1.8827 2.1641 0.61129 0.75271 1.2062 1.5369 1.784 2.353 0.5779 0.81613 1.1388 1.6641 1.6823 2.5443 0.54345 0.88014 1.0694 1.7924 1.5774 2.7369 0.50796 0.94445 0.99789 1.9211 1.4693 2.9298 0.47143 1.0087 0.92436 2.0495 1.3583 3.122 0.43397 1.0725 0.84898 2.1768 1.2446 3.3124 0.39566 1.1356 0.77197 2.3025 1.1286 3.5s0.6936 2.4256 1.0107 3.6836c0.31706 1.258 0.61421 2.5457 0.89132 3.8624 0.2771 1.3166 0.53416 2.6621 0.77115 4.0354 0.23698 1.3733 0.45388 2.7743 0.65076 4.202 0.19689 1.4276 0.37376 2.8818 0.53078 4.3613 0.15703 1.4795 0.29421 2.9842 0.41179 4.5128v0.00001 0.00002c0.19372 2.5183 0.34884 4.9924 0.46694 7.4226 0.11809 2.4302 0.19916 4.8166 0.2449 7.1597 0.0457 2.3431 0.0562 4.6429 0.0331 6.9-0.023 2.2572-0.0795 4.4717-0.16753 6.6445-0.088 2.1728-0.20745 4.3037-0.35626 6.3939-0.14882 2.0902-0.32698 4.1395-0.53225 6.1491s-0.43763 3.9795-0.69471 5.9109-0.53888 3.8244-0.8429 5.6802c-0.30402 1.8559-0.63025 3.6746-0.97608 5.4578s-0.71125 3.5308-1.0935 5.2445c-0.38228 1.7137-0.78141 3.3935-1.1946 5.0411-0.41314 1.6476-0.84028 3.2631-1.2785 4.8483-0.43819 1.5852-0.88742 3.1401-1.3446 4.6668s-0.92233 3.0252-1.3922 4.4976c-0.46991 1.4724-0.94459 2.9187-1.4207 4.3411-0.47613 1.4225-0.9537 2.8211-1.4293 4.1983-0.43599 1.2626-0.8703 2.5071-1.3002 3.7356-0.42991 1.2285-0.85543 2.4409-1.2738 3.6393-0.41835 1.1984-0.82952 2.3828-1.2306 3.5553-0.40107 1.1725-0.79203 2.3331-1.1698 3.4841-0.37774 1.151-0.74225 2.2924-1.0902 3.4265s-0.67935 2.2609-0.99065 3.3827c-0.31131 1.1218-0.60251 2.2387-0.8699 3.3529s-0.51095 2.2258-0.72681 3.337c-0.21587 1.1112-0.40403 2.222-0.56052 3.3345-0.1565 1.1125-0.28131 2.2267-0.37045 3.3446-0.0891 1.1178-0.14257 2.2393-0.15634 3.3662-0.0138 1.1269 0.0121 2.2591 0.0816 3.3983s0.18258 2.2853 0.34301 3.4398 0.36821 2.3173 0.62693 3.4899c0.25873 1.1726 0.56839 2.3549 0.93238 3.5484s0.78231 2.3981 1.2582 3.6157v0.00001c0 0.00001 0.00001 0.00002 0.00001 0.00002 0.48862 1.2503 1.0383 2.482 1.6474 3.6922 0.60904 1.2102 1.2774 2.3987 2.0032 3.5628 0.72579 1.1641 1.509 2.3037 2.3475 3.4161 0.83857 1.1124 1.7325 2.1974 2.6796 3.2525 0.94715 1.0551 1.9475 2.0801 2.9989 3.0725 1.0514 0.99238 2.1538 1.9521 3.3049 2.8765 1.1511 0.92441 2.3509 1.8135 3.5972 2.6648 1.2462 0.85126 2.5388 1.6646 3.8754 2.4376 1.3366 0.77298 2.7172 1.5056 4.1394 2.1952 1.4222 0.68964 2.886 1.3364 4.3888 1.9376 1.5028 0.6013 3.0448 1.1572 4.6232 1.6652 1.5784 0.50803 3.1934 0.9682 4.8423 1.3781 1.6489 0.40991 3.3317 0.76955 5.0458 1.0766 1.714 0.30702 3.4593 0.56143 5.2331 0.76092 1.7738 0.1995 3.576 0.34408 5.404 0.43156 1.828 0.0875 3.6817 0.11782 5.5582 0.089 3.0746-0.0473 6.0329-0.16302 8.8854-0.33858 2.8525-0.17557 5.5994-0.41097 8.2512-0.69752 2.6518-0.28654 5.2085-0.62421 7.6807-1.0042 2.4722-0.37998 4.8599-0.80226 7.1736-1.2579 2.3137-0.45567 4.5535-0.94472 6.7298-1.4582 2.1763-0.51353 4.2891-1.0515 6.3489-1.6051 2.0598-0.55361 4.0666-1.1228 6.0309-1.699 1.9643-0.57617 3.886-1.1593 5.7756-1.7409 1.9558-0.60204 3.877-1.2025 5.7753-1.7926 1.8983-0.59005 3.7736-1.1696 5.6371-1.7304 1.8636-0.56079 3.7154-1.1028 5.5668-1.6181 1.8513-0.51534 3.7022-1.004 5.5636-1.4588 1.8614-0.45475 3.7333-0.87553 5.6267-1.2554 1.8934-0.37992 3.8081-0.71899 5.7549-1.0106 1.9468-0.29164 3.9256-0.53585 5.9466-0.72632 1.0105-0.0952 2.0316-0.17705 3.0644-0.24466 1.0328-0.0676 2.0774-0.12101 3.135-0.15947 1.3152-0.0478 2.6337-0.0854 3.9482-0.11002 1.3145-0.0246 2.6248-0.0363 3.9239-0.0326 1.299 0.004 2.5868 0.0227 3.8564 0.0594 1.2696 0.0366 2.521 0.0908 3.7476 0.16451 1.2267 0.0737 2.4286 0.16684 3.5996 0.28104 1.171 0.11421 2.311 0.24948 3.4142 0.40697 1.1033 0.1575 2.1697 0.33723 3.1938 0.53985 0.512 0.10131 1.0135 0.20834 1.5037 0.32111 0.4903 0.11278 0.9693 0.23129 1.4366 0.35553 0.5072 0.13487 1.0005 0.27648 1.4791 0.42476 0.4786 0.14827 0.9426 0.30321 1.3912 0.46464 0.4486 0.16144 0.882 0.32937 1.2994 0.50356 0.4174 0.1742 0.819 0.35465 1.2042 0.54106 0.3852 0.1864 0.7541 0.37875 1.1063 0.57668s0.6878 0.40144 1.0067 0.61012c0.3189 0.20869 0.6211 0.42255 0.9067 0.64123 0.2855 0.21868 0.5545 0.44218 0.8073 0.67023 0.2742 0.24731 0.5292 0.49998 0.7661 0.75795 0.2368 0.25797 0.4553 0.52123 0.6566 0.79017s0.3853 0.54357 0.5529 0.82476c0.1677 0.28118 0.319 0.56894 0.4547 0.86449 0.1357 0.29554 0.2558 0.59889 0.3605 0.9114 0.1048 0.3125 0.1942 0.63417 0.2682 0.96627s0.1326 0.67463 0.1753 1.0286c0.043 0.35393 0.069 0.71928 0.08 1.0966 0.01 0.29765 0.01 0.59532-0.01 0.89293-0.012 0.2976-0.034 0.59515-0.065 0.8925-0.063 0.59468-0.1629 1.1886-0.298 1.78-0.135 0.59143-0.3048 1.1804-0.5062 1.7646-0.2013 0.5843-0.4344 1.164-0.6959 1.7368-0.2615 0.57278-0.5514 1.1387-0.8665 1.6955-0.3152 0.55683-0.6554 1.1046-1.0175 1.6413-0.3621 0.53673-0.7459 1.0624-1.1481 1.5753-0.4022 0.51292-0.8227 1.0131-1.2583 1.499-0.4356 0.48596-0.8862 0.95772-1.3487 1.4142-0.4624 0.45644-0.9367 0.89754-1.4197 1.3225-0.483 0.42493-0.9749 0.83369-1.4727 1.2257-0.4978 0.392-1.0017 0.76724-1.509 1.1254-0.5072 0.35814-1.018 0.69919-1.5298 1.023-0.5119 0.32382-1.025 0.63044-1.5371 0.91991s-1.0233 0.5618-1.5318 0.81724-1.0142 0.494-1.5156 0.71608c-0.5013 0.22208-1.0143 0.43479-1.5379 0.63606s-1.0578 0.3911-1.6014 0.56731c-0.5436 0.1762-1.0965 0.33876-1.6572 0.48544-0.5608 0.14667-1.1294 0.27744-1.7042 0.39003-0.57481 0.11258-1.1558 0.20697-1.7412 0.28088-0.58537 0.0739-1.1751 0.12731-1.7673 0.15793-0.59223 0.0306-1.1869 0.0384-1.7822 0.0211s-1.1912-0.0598-1.7858-0.12978c-0.5946-0.07-1.1879-0.16765-1.7781-0.29553-0.59018-0.12788-1.1772-0.28602-1.7594-0.47745-0.58217-0.19143-1.1595-0.41614-1.7301-0.6777-0.28533-0.13078-0.569-0.27078-0.85078-0.4205-0.28179-0.14972-0.5617-0.30916-0.83951-0.47888-0.2778-0.16972-0.55349-0.34971-0.82684-0.54058-0.27335-0.19086-0.54436-0.3926-0.81276-0.60586-0.26841-0.21325-0.53421-0.43803-0.79714-0.67503s-0.52298-0.48621-0.77985-0.74839-0.51055-0.53733-0.76071-0.82623c-0.25015-0.28889-0.49677-0.59154-0.73946-0.90876-0.2427-0.31722-0.48146-0.649-0.71584-0.9962-0.23438-0.34719-0.46438-0.7098-0.68945-1.0886-2.1852-3.678-3.0231-7.0659-2.9358-10.15-1.8471 3.6424-2.5031 7.7292-1.6649 11.918 0.0883 0.44146 0.19053 0.87647 0.30656 1.3046 0.11603 0.42809 0.24589 0.84927 0.3895 1.263 0.1436 0.41376 0.30094 0.82011 0.47184 1.2185 0.17089 0.39841 0.35534 0.78888 0.55305 1.1709 0.1977 0.38203 0.40868 0.75561 0.63254 1.1203 0.22386 0.36466 0.46061 0.72041 0.70978 1.0668 0.24918 0.34641 0.51079 0.68347 0.7843 1.0108 0.27351 0.32737 0.55892 0.64506 0.85567 0.95277 0.29674 0.30771 0.60481 0.60545 0.92361 0.89301 0.31879 0.28757 0.64831 0.56495 0.98794 0.83204 0.33963 0.26708 0.68938 0.52387 1.0486 0.77029 0.35925 0.24641 0.72802 0.48247 1.1057 0.70816 0.3777 0.2257 0.76433 0.44103 1.1594 0.64604 0.39505 0.20501 0.79849 0.3997 1.2099 0.58415 0.82273 0.36891 1.6771 0.69684 2.5597 0.98453 0.81384 0.26529 1.6516 0.49636 2.5107 0.69366 0.8591 0.19731 1.7395 0.36086 2.6387 0.49101 0.89915 0.13015 1.817 0.22691 2.751 0.2905 0.93396 0.0636 1.884 0.094 2.8474 0.0914 0.96338-0.003 1.94-0.0382 2.9272-0.10689 0.9871-0.0687 1.9846-0.17032 2.9894-0.30506 1.0048-0.13475 2.0169-0.30256 3.033-0.50355s2.0362-0.43515 3.0568-0.70263c0.9613-0.25194 1.9231-0.53344 2.8822-0.84466 0.9592-0.31122 1.9157-0.65215 2.8663-1.023 0.9507-0.37084 1.8955-0.77158 2.831-1.2024 0.9355-0.43086 1.8618-0.89184 2.7753-1.3832s1.8142-1.0131 2.6983-1.5655c0.8841-0.55239 1.7516-1.1354 2.5986-1.7494 0.847-0.61402 1.6735-1.259 2.4753-1.9353s1.5789-1.3839 2.3268-2.1232c0.7149-0.70672 1.4032-1.4424 2.0607-2.2071 0.6574-0.76475 1.284-1.5586 1.8753-2.3817 0.5913-0.82308 1.1473-1.6754 1.6632-2.5566 0.516-0.8813 0.9918-1.7916 1.4227-2.7304s0.8167-1.9061 1.1526-2.9009c0.3359-0.99482 0.6217-2.0172 0.8527-3.0657 0.2309-1.0485 0.4069-2.1232 0.5234-3.2224 0.1165-1.0991 0.1734-2.2227 0.1665-3.3689 0-0.79786-0.03-1.5848-0.076-2.3606-0.046-0.77579-0.1121-1.5405-0.1994-2.2938-0.087-0.75335-0.1956-1.4954-0.3253-2.2258-0.1296-0.73039-0.2806-1.4492-0.4533-2.1559-0.1726-0.70676-0.3669-1.4015-0.5829-2.0838-0.2161-0.68229-0.454-1.3521-0.7139-2.009-0.2599-0.65685-0.5417-1.3007-0.8454-1.931-0.3037-0.63033-0.6294-1.2471-0.9769-1.8498-0.3475-0.60271-0.7168-1.1913-1.1078-1.7653-0.3909-0.57399-0.8035-1.1334-1.2374-1.6776-0.4339-0.54427-0.8891-1.0734-1.3653-1.5871-0.4761-0.51369-0.9732-1.0119-1.4909-1.4944-0.5176-0.48246-1.0557-0.94917-1.6139-1.4-0.5582-0.45081-1.1364-0.88574-1.7343-1.3048-0.5979-0.41901-1.2153-0.82212-1.852-1.2094-0.6366-0.38729-1.2925-0.75875-1.9672-1.1146-0.6519-0.34377-1.3214-0.67292-2.0082-0.98761-0.6868-0.3147-1.391-0.61494-2.1124-0.90092-1.4427-0.57195-2.9542-1.0868-4.5332-1.5462-1.579-0.45934-3.2257-0.86316-4.9393-1.2129-1.7135-0.3497-3.4941-0.64529-5.341-0.88798s-3.7601-0.43247-5.7393-0.57037c-1.9791-0.13789-4.024-0.22389-6.1341-0.25889s-4.2854-0.019-6.525 0.0472-4.5435 0.18255-6.9107 0.34825c-2.3493 0.16445-4.6203 0.346-6.8197 0.54182-2.1994 0.19581-4.3272 0.40591-6.3904 0.6274s-4.0617 0.45438-6.0026 0.69575c-1.9408 0.24137-3.824 0.49123-5.6565 0.74665s-3.6143 0.51639-5.3526 0.78c-1.7382 0.26362-3.4329 0.52987-5.0911 0.79587-1.6582 0.26599-3.28 0.53174-4.8724 0.79438-1.5925 0.26265-3.1556 0.5222-4.6967 0.77587s-3.0601 0.50146-4.5642 0.74068c-1.5041 0.23923-2.9934 0.46987-4.475 0.68933s-2.9556 0.42774-4.4291 0.62232c-1.4736 0.19458-2.9467 0.37547-4.4265 0.54024-1.4799 0.16478-2.9664 0.31344-4.4668 0.44368s-3.0146 0.24205-4.5495 0.33321c-1.5349 0.0912-3.0905 0.16166-4.6735 0.20936s-3.1934 0.0726-4.8376 0.0726c-0.60384 0-1.1942-0.0405-1.7648-0.1175-0.28527-0.0385-0.56558-0.0861-0.84011-0.14234-0.27454-0.0562-0.54329-0.12096-0.80544-0.19366s-0.5177-0.15335-0.76581-0.24123c-0.24811-0.0879-0.4888-0.18299-0.72127-0.28457-0.23248-0.10157-0.45675-0.20962-0.67212-0.3233-0.21537-0.11369-0.42183-0.23303-0.61882-0.35717s-0.38451-0.25309-0.56214-0.38603c-0.17762-0.13293-0.34535-0.26985-0.50295-0.40998s-0.30506-0.28347-0.44232-0.42936c-0.13726-0.14588-0.26433-0.29431-0.3813-0.44476-0.11697-0.15044-0.22384-0.30291-0.32085-0.45706-0.097-0.15415-0.18416-0.30999-0.26174-0.46743-0.0776-0.15745-0.1456-0.3165-0.20433-0.47735-0.0587-0.16086-0.10818-0.32353-0.14848-0.48856-0.0427-0.17493-0.0752-0.35252-0.0972-0.53379s-0.0336-0.36624-0.0341-0.55598c-0.00051-0.18974 0.0101-0.38426 0.0328-0.58447 0.0227-0.2002 0.0576-0.4061 0.10601-0.61826 0.0484-0.21217 0.11032-0.4306 0.18725-0.65548 0.0769-0.22489 0.16886-0.45623 0.27724-0.69381s0.23321-0.48141 0.37574-0.73095c0.14253-0.24955 0.30277-0.5048 0.48173-0.76503 0.18937-0.27536 0.3997-0.55629 0.63195-0.84182 0.23224-0.28554 0.4864-0.57568 0.76315-0.86943s0.5761-0.59111 0.89853-0.89112c0.32242-0.30001 0.66792-0.60267 1.0368-0.90708s0.76114-0.61057 1.177-0.91766c0.41582-0.3071 0.8552-0.61513 1.3182-0.92335 0.46302-0.30822 0.94966-0.61663 1.4599-0.92456 0.51027-0.30794 1.0442-0.61539 1.6016-0.92177 1.6421-0.90255 3.2401-1.8671 4.7942-2.8893 1.5541-1.0223 3.0643-2.1023 4.5309-3.2359s2.8897-2.3208 4.2697-3.5576 2.7169-2.5231 4.0112-3.8552c1.2944-1.332 2.5462-2.7098 3.756-4.1295 1.2099-1.4197 2.3778-2.8814 3.5045-4.3814s2.2121-3.0384 3.2569-4.6117 2.049-3.1816 3.0133-4.8214c0.96432-1.6398 1.8887-3.3113 2.7739-5.0112 0.88519-1.6999 1.7312-3.4282 2.5386-5.1818 0.80745-1.7537 1.5764-3.5327 2.3074-5.3341 0.73106-1.8014 1.4243-3.6252 2.0803-5.4685 0.65599-1.8433 1.2748-3.7062 1.857-5.5858 0.58221-1.8796 1.1278-3.7759 1.6375-5.6863 0.50968-1.9104 0.98341-3.8348 1.4218-5.7706 0.43838-1.9358 0.84142-3.8831 1.2097-5.8393 0.40966-2.1759 0.77634-4.3628 1.1008-6.5573 0.32452-2.1945 0.60687-4.3967 0.84788-6.6033s0.44068-4.4176 0.5998-6.6298c0.15913-2.2123 0.27772-4.4258 0.35658-6.6377 0.0788-2.2118 0.11798-4.422 0.11818-6.6275s-0.0385-4.4065-0.11539-6.6001c-0.0769-2.1936-0.19184-4.3798-0.34416-6.5561-0.15232-2.1762-0.34196-4.3425-0.56814-6.4962-0.22617-2.1537-0.48888-4.2949-0.78732-6.4212s-0.63261-4.2376-1.0017-6.3318c-0.36911-2.0941-0.77316-4.171-1.2113-6.2285-0.43818-2.0575-0.9105-4.0956-1.4162-6.1122-0.50566-2.0166-1.0447-4.0118-1.6162-5.9836-0.57154-1.9718-1.1756-3.9201-1.8114-5.8432-0.63582-1.9231-1.3034-3.8209-2.0019-5.6917-0.69849-1.8708-1.4279-3.7146-2.1875-5.5298-0.89274-2.1334-1.8271-4.2273-2.8018-6.2791-0.97468-2.0519-1.9897-4.0617-3.0437-6.0273s-2.147-3.8869-3.2776-5.7618c-1.1306-1.875-2.299-3.7035-3.5036-5.4839-1.2046-1.7803-2.4456-3.5124-3.7216-5.1945-1.2759-1.6821-2.5868-3.3142-3.9313-4.8947s-2.7225-3.1095-4.1327-4.5855-2.8524-2.8992-4.3254-4.2681c-1.4729-1.369-2.9765-2.6838-4.5092-3.9435s-3.0945-2.4642-4.6838-3.6128-3.2061-2.2412-4.8488-3.2772-3.3112-2.0155-5.004-2.9379c-1.6928-0.92243-3.4097-1.7879-5.1491-2.5961-1.7394-0.80823-3.5013-1.5592-5.2838-2.253-1.7826-0.6938-3.5859-1.3304-5.4082-1.91-1.8223-0.57961-3.6635-1.1022-5.5219-1.5683-1.7073-0.42817-3.4292-0.80861-5.1643-1.1418-1.735-0.3332-3.4833-0.61916-5.2434-0.8585-1.7601-0.23935-3.532-0.43208-5.3146-0.57896-1.7825-0.14688-3.5756-0.2479-5.378-0.30394-2.089-0.0649-4.1654-0.0687-6.226-0.017-2.0607 0.0517-4.1056 0.15881-6.1319 0.31568s-4.034 0.36349-6.0204 0.61425-3.9516 0.54568-5.8931 0.8793-3.8594 0.70594-5.7516 1.1117c-1.8921 0.40574-3.7584 0.8449-5.597 1.3124-1.8386 0.46749-3.6494 0.9633-5.4308 1.4826-1.7813 0.51926-3.5332 1.062-5.254 1.6235-1.7208 0.56149-3.4105 1.1418-5.0678 1.7364-1.6573 0.59465-3.2821 1.2037-4.8732 1.8229-1.5911 0.61922-3.1486 1.2486-4.6713 1.8844-1.5227 0.6357-3.0106 1.2777-4.4629 1.9223-1.4523 0.64461-2.8689 1.2918-4.2491 1.9383-1.3802 0.64646-2.7239 1.2922-4.0306 1.9339-1.3067 0.64178-2.5762 1.2797-3.8083 1.9108-1.232 0.63111-2.4264 1.2554-3.583 1.8704-1.1565 0.61496-2.275 1.2206-3.3554 1.8144-1.0804 0.59386-2.1225 1.176-3.1264 1.7443-1.0038 0.56833-1.9693 1.1228-2.8965 1.6617-0.92715 0.53886-1.816 1.0621-2.6665 1.568-0.85053 0.50597-1.6628 0.99469-2.437 1.4648-0.77418 0.47011-1.5103 0.92162-2.2085 1.3534-0.69828 0.43177-1.3588 0.8438-1.9818 1.2352-0.62302 0.39138-1.2086 0.76211-1.7572 1.1115-0.54859 0.34937-1.0602 0.67739-1.5353 0.98356-0.47513 0.30617-0.9138 0.59048-1.3166 0.85263-0.40281 0.26214-0.76976 0.50212-1.1015 0.7198-0.33176 0.21768-0.62834 0.41306-0.89047 0.58618s-0.4898 0.32397-0.68383 0.45274c-0.19402 0.12878-0.35439 0.23548-0.48195 0.32044-0.12757 0.085-0.22233 0.14819-0.28519 0.19014-0.0629 0.042-0.0938 0.0626-0.0938 0.0626l2.7769 4.158s0.0305-0.0204 0.0925-0.0618 0.15545-0.10372 0.28125-0.18751c0.1258-0.0838 0.28395-0.18901 0.47528-0.316s0.41584-0.27574 0.67429-0.44643c0.25846-0.1707 0.55088-0.36333 0.87795-0.57794 0.32708-0.2146 0.68882-0.45118 1.0859-0.70957 0.39705-0.2584 0.82942-0.53862 1.2977-0.84035 0.46824-0.30173 0.97236-0.62495 1.5129-0.96917 0.5405-0.34422 1.1174-0.70943 1.731-1.0949 0.61366-0.38549 1.2641-0.79126 1.9516-1.2164 0.68755-0.42513 1.4122-0.86961 2.1742-1.3323 0.76199-0.46271 1.5613-0.94363 2.3981-1.4414 0.83677-0.49778 1.711-1.0124 2.6227-1.5423 0.91169-0.52988 1.8609-1.075 2.8474-1.6335 0.98654-0.55853 2.0105-1.1305 3.0715-1.7137 1.0611-0.58325 2.1593-1.1778 3.2944-1.7813 1.135-0.60353 2.3069-1.216 3.5151-1.8349 1.2082-0.61888 2.4527-1.2441 3.733-1.8729 1.2802-0.62877 2.5962-1.2611 3.9472-1.8938 1.3509-0.63271 2.7368-1.2658 4.1567-1.896 1.4199-0.63019 2.8739-1.2574 4.3608-1.8781s3.0068-1.2349 4.5584-1.8386c1.5516-0.60377 3.1349-1.1972 4.7486-1.7761 1.6136-0.57893 3.2576-1.1434 4.9302-1.6891 1.6726-0.54573 3.374-1.0727 5.1022-1.5765 1.7283-0.50375 3.4835-0.98428 5.2636-1.4369 1.7802-0.45263 3.5853-0.87735 5.4132-1.2694 1.8279-0.392 3.6787-0.75127 5.5499-1.0729 1.8712-0.32159 3.7629-0.60549 5.6725-0.84665 1.9096-0.24115 3.8372-0.43955 5.78-0.59005s3.9008-0.25311 5.8712-0.30263c1.9704-0.0495 3.9532-0.046 5.9452 0.0159 1.7188 0.0534 3.4267 0.14959 5.1227 0.2893s3.3802 0.32291 5.0514 0.55016 3.3296 0.49854 4.9741 0.81435c1.6445 0.3158 3.2751 0.67612 4.891 1.0813 1.7588 0.44108 3.5001 0.93537 5.2226 1.4832 1.7225 0.54789 3.4263 1.1494 5.1101 1.8048 1.6838 0.65539 3.3477 1.3647 4.9904 2.1281 1.6427 0.76337 3.2643 1.5808 4.8634 2.4524 1.5992 0.87158 3.176 1.7973 4.7291 2.777 1.5532 0.97971 3.0827 2.0134 4.5873 3.101 1.5046 1.0875 2.9842 2.2288 4.4376 3.4234s2.8805 2.4426 4.28 3.7433 2.7713 2.6542 4.114 4.0596 2.6564 2.8628 3.9395 4.371c1.2831 1.5083 2.5357 3.0675 3.7563 4.6764s2.4092 3.2675 3.5642 4.9744c1.155 1.7068 2.2766 3.4619 3.3631 5.2635s2.138 3.6497 3.153 5.5424 1.9934 3.83 2.9338 5.8097 1.8428 4.0018 2.7057 6.0638c0.73417 1.7545 1.4397 3.5379 2.1158 5.3486 0.67606 1.8107 1.3226 3.6488 1.9388 5.5124 0.61615 1.8636 1.2019 3.7528 1.7564 5.6656 0.55447 1.9129 1.0776 3.8494 1.5687 5.8076 0.49102 1.9582 0.94987 3.9382 1.3757 5.9377 0.42584 1.9995 0.81865 4.0186 1.1776 6.055 0.35894 2.0364 0.684 4.0901 0.97436 6.1588s0.54601 4.1523 0.76614 6.2484 0.40472 4.2047 0.55299 6.3231 0.2602 4.2467 0.33502 6.382c0.0748 2.1354 0.11251 4.2778 0.11231 6.4245s-0.0383 4.2976-0.11502 6.4498c-0.0767 2.1522-0.19212 4.3056-0.34688 6.4571s-0.34889 4.3012-0.58312 6.4457-0.50856 4.2839-0.82366 6.4148-0.67099 4.2532-1.0683 6.3636c-0.35721 1.8973-0.74791 3.7848-1.1726 5.6601-0.42467 1.8752-0.88329 3.7382-1.3763 5.5861-0.49304 1.8479-1.0205 3.6808-1.5828 5.4959-0.56227 1.8151-1.1594 3.6124-1.7917 5.389-0.63233 1.7766-1.2999 3.5326-2.003 5.265-0.70314 1.7324-1.4419 3.4412-2.2165 5.1234-0.77466 1.6822-1.5852 3.3379-2.4321 4.9639-0.84682 1.626-1.7299 3.2224-2.6495 4.7861-1.8392 3.1274-3.8244 6.124-5.958 8.9646-2.1335 2.8406-4.4153 5.5253-6.8477 8.0287-1.2162 1.2517-2.47 2.4581-3.7619 3.6159-1.2919 1.1579-2.6217 2.2672-3.9901 3.3248-1.3683 1.0576-2.7751 2.0636-4.2208 3.0146-1.4457 0.95099-2.9304 1.847-4.4548 2.6848-1.2277 0.67475-2.3689 1.3637-3.4239 2.066-0.5275 0.35115-1.0334 0.70565-1.5179 1.0634-0.48447 0.3578-0.94745 0.71889-1.389 1.0833-0.44155 0.36437-0.86166 0.73203-1.2604 1.103-0.3987 0.37098-0.77598 0.74526-1.1318 1.1229-0.35581 0.37766-0.69015 0.75868-1.0028 1.1431-0.3127 0.38445-0.60376 0.77232-0.87285 1.1636-0.25431 0.36979-0.489 0.74264-0.70363 1.1184-0.21464 0.37578-0.40921 0.75451-0.58315 1.1358-0.17394 0.38131-0.32723 0.76522-0.45919 1.151-0.13195 0.3858-0.24255 0.77349-0.33115 1.162-0.0886 0.38848-0.15516 0.77774-0.19924 1.1662-0.0441 0.38852-0.0656 0.77627-0.0646 1.1614 0.001 0.38512 0.0247 0.7676 0.0706 1.1454 0.0459 0.37776 0.11402 0.75078 0.20347 1.117 0.0844 0.34551 0.18773 0.68498 0.30892 1.017 0.1212 0.332 0.26024 0.65654 0.41583 0.9725 0.15559 0.31597 0.32773 0.62337 0.51503 0.92138 0.18731 0.29801 0.38978 0.58663 0.60607 0.86527 0.21629 0.27863 0.44639 0.54729 0.68903 0.80554s0.49782 0.5061 0.76438 0.74328c0.26656 0.23717 0.54449 0.46367 0.83279 0.6793 0.28829 0.21562 0.58693 0.42037 0.89504 0.61409 0.3081 0.19373 0.62567 0.37643 0.95191 0.54795 0.32624 0.17153 0.66115 0.33188 1.004 0.48087 0.34288 0.14899 0.69374 0.28664 1.0519 0.41268 0.35816 0.12605 0.72364 0.2405 1.0958 0.34305 0.37213 0.10255 0.7509 0.19319 1.1356 0.27153 0.38474 0.0783 0.77545 0.14438 1.1714 0.19764 0.79186 0.10652 1.6047 0.16196 2.4319 0.16196h0.00001c1.6947 0 3.3555-0.0257 4.9882-0.0748 1.6326-0.0492 3.2371-0.12185 4.8191-0.21569 1.582-0.0939 3.1416-0.20886 4.6848-0.34257 1.5432-0.1337 3.0701-0.28611 4.5869-0.45464s3.0237-0.35318 4.5271-0.55131c1.5034-0.19814 3.0034-0.40975 4.5069-0.63214 1.5034-0.22239 3.0104-0.45556 4.5278-0.69678 1.5175-0.24121 3.0455-0.49047 4.5915-0.74502s3.1098-0.51439 4.699-0.77675 3.2038-0.52724 4.8514-0.79188c3.2952-0.52927 6.7223-1.0576 10.343-1.5627 1.8102-0.25258 3.6688-0.49938 5.5834-0.73764 1.9146-0.23827 3.8851-0.46799 5.9191-0.68641 2.034-0.21843 4.1316-0.42555 6.3001-0.61863 2.1685-0.19307 4.4079-0.3721 6.7254-0.53432 2.3044-0.16131 4.5415-0.27416 6.7093-0.33826 2.1679-0.0641 4.2666-0.0794 6.2945-0.0459 2.0279 0.0336 3.985 0.116 5.8698 0.24724 1.8847 0.13124 3.697 0.31127 5.4354 0.5397 1.7385 0.22843 3.403 0.50527 4.9925 0.82972 1.5895 0.32446 3.1038 0.69653 4.5422 1.1151 0.7192 0.20927 1.4194 0.43014 2.1006 0.66245 0.6812 0.2323 1.3434 0.47603 1.9865 0.73101 0.6432 0.25498 1.2673 0.52119 1.8724 0.79846 0.6051 0.27726 1.1913 0.56557 1.7586 0.86473 0.5871 0.30964 1.1541 0.63092 1.7011 0.96363 0.547 0.3327 1.074 0.67684 1.5814 1.0323 0.5074 0.35543 0.9951 0.72215 1.4635 1.1001 0.4685 0.37795 0.9177 0.76715 1.348 1.1676 0.4304 0.40049 0.8418 0.81228 1.2349 1.2356 0.393 0.42326 0.7675 0.858 1.124 1.3045 0.3564 0.44648 0.6947 0.90471 1.0153 1.375 0.3206 0.47032 0.6234 0.95273 0.9086 1.4476 0.2852 0.49489 0.5529 1.0023 0.8033 1.5225 0.2503 0.52027 0.4832 1.0534 0.6988 1.5998 0.2157 0.54642 0.414 1.1061 0.595 1.6794 0.181 0.57329 0.3446 1.1602 0.4909 1.7609 0.1463 0.60076 0.2751 1.2154 0.3864 1.844 0.1113 0.62864 0.2051 1.2713 0.2811 1.928 0.076 0.65675 0.1342 1.3276 0.1745 2.0125 0.04 0.6849 0.063 1.3838 0.067 2.0968 0.01 0.96107-0.042 1.898-0.1387 2.8119-0.097 0.91389-0.2429 1.8048-0.4343 2.6738-0.1914 0.86899-0.4283 1.7161-0.7071 2.542-0.2789 0.82592-0.5998 1.6307-0.9597 2.4147-0.3599 0.78403-0.7586 1.5473-1.1934 2.2899-0.4347 0.74258-0.9053 1.4645-1.4088 2.1654-0.5035 0.70091-1.0399 1.3808-1.606 2.0393s-1.1619 1.2956-1.7841 1.9106c-0.6509 0.64337-1.3307 1.2627-2.0356 1.8573-0.7049 0.59459-1.4349 1.1645-2.1861 1.709-0.7512 0.54458-1.5236 1.0638-2.3134 1.5573-0.7898 0.49344-1.5969 0.96106-2.4174 1.4024-0.8206 0.44138-1.6546 0.85651-2.4984 1.2451-0.8437 0.38857-1.6971 0.75058-2.5565 1.0858-0.8593 0.33523-1.7247 0.64367-2.5924 0.92522-0.8676 0.28154-1.7377 0.53619-2.6066 0.76391-0.9225 0.24176-1.8436 0.45317-2.7594 0.63433-0.9158 0.18115-1.8262 0.33205-2.7274 0.45291-0.9011 0.12085-1.793 0.21168-2.6718 0.27282-0.8788 0.0611-1.7445 0.0926-2.5937 0.0949-0.84915 0.002-1.6817-0.0246-2.4942-0.0799-0.81252-0.0553-1.605-0.13916-2.3744-0.25055-0.76936-0.11139-1.5156-0.25034-2.2358-0.41576-0.72023-0.16542-1.4145-0.3573-2.0803-0.57435-0.36103-0.11768-0.71372-0.24277-1.0577-0.37501-0.34402-0.13225-0.67936-0.27167-1.0058-0.41801-0.32639-0.14634-0.64382-0.2996-0.95209-0.45957-0.30827-0.15996-0.60738-0.32661-0.89719-0.49975-0.2898-0.17314-0.57032-0.35276-0.84147-0.5387-0.27116-0.18594-0.53296-0.37819-0.78541-0.57664-0.25244-0.19845-0.49554-0.4031-0.72932-0.61389-0.23379-0.21079-0.45826-0.42772-0.6735-0.6508-0.21524-0.22309-0.42123-0.45232-0.61806-0.68779-0.19683-0.23548-0.38449-0.47718-0.56304-0.72528-0.17854-0.24809-0.34798-0.50257-0.50831-0.76364-0.16034-0.26107-0.31158-0.52873-0.4537-0.80324-0.14211-0.27452-0.2751-0.55588-0.39888-0.84437-0.12377-0.28849-0.23833-0.58412-0.34352-0.88717-0.10519-0.30304-0.20101-0.61351-0.28724-0.93167-0.0862-0.31815-0.16288-0.644-0.22966-0.97774l-4.6007 1.7675c0.27349 0.46033 0.55497 0.9043 0.84388 1.3323s0.58524 0.84001 0.8884 1.2364c0.60633 0.79279 1.24 1.5231 1.8958 2.1938 0.65583 0.67069 1.3338 1.2818 2.0288 1.8364 0.69495 0.55459 1.4068 1.0527 2.1306 1.4979 0.72375 0.44519 1.4594 0.83746 2.2021 1.1808 0.74274 0.34332 1.4926 0.6377 2.2454 0.8874 0.75275 0.24969 1.5084 0.4547 2.2631 0.61943 0.75478 0.16473 1.5087 0.28919 2.2586 0.37777 0.74991 0.0886 1.4958 0.14128 2.2351 0.16236 0.73926 0.0211 1.4719 0.0105 2.1958-0.0276 0.72386-0.0382 1.439-0.10395 2.1436-0.19367 0.70466-0.0897 1.3989-0.20337 2.0813-0.33761 0.6825-0.13424 1.3532-0.28907 2.0111-0.46148 0.658-0.17241 1.3032-0.3624 1.9348-0.56726 0.6316-0.20487 1.2497-0.42462 1.8537-0.6568 0.6039-0.23217 1.1937-0.47678 1.7689-0.73156 0.5751-0.25478 1.154-0.52787 1.735-0.81975 0.581-0.29189 1.1641-0.60257 1.7476-0.93241 0.5834-0.32985 1.1672-0.67886 1.7493-1.0473s1.1626-0.75632 1.7392-1.1638c0.5766-0.40746 1.1494-0.83451 1.7159-1.2812 0.5666-0.44668 1.127-0.91301 1.6786-1.3989 0.5516-0.48592 1.0945-0.99144 1.6258-1.5164 0.5313-0.52499 1.051-1.0695 1.5561-1.6332 0.5051-0.56374 0.9955-1.1468 1.4679-1.7488 0.4723-0.60201 0.9266-1.223 1.3588-1.8626 0.4323-0.63962 0.8426-1.2979 1.2266-1.9742 0.384-0.67635 0.7416-1.3708 1.0679-2.0827 0.1631-0.35593 0.3184-0.7162 0.4652-1.0807 0.1468-0.36449 0.285-0.73321 0.414-1.106 0.129-0.3728 0.2488-0.74967 0.3585-1.1304 0.1098-0.38076 0.2095-0.76543 0.2985-1.1538 0.089-0.38834 0.1671-0.78035 0.2336-1.1758 0.067-0.39541 0.1213-0.79422 0.1637-1.1961 0.042-0.40188 0.072-0.80681 0.089-1.2144 0.016-0.40758 0.02-0.81781 0.01-1.2302v-0.00001-0.00001c-0.014-0.5264-0.052-1.0468-0.1139-1.5602-0.062-0.51343-0.1482-1.0198-0.2593-1.5179-0.1111-0.49807-0.2471-0.98776-0.4081-1.4675-0.1609-0.47974-0.3468-0.94949-0.5571-1.4076-0.2104-0.45817-0.4452-0.90471-0.7035-1.3382-0.2583-0.4335-0.5401-0.85394-0.844-1.2603s-0.63-0.79863-0.9766-1.1763c-0.3467-0.37769-0.7139-0.74083-1.1003-1.0894-0.3563-0.32145-0.7289-0.63054-1.1168-0.92755-0.3879-0.297-0.791-0.58192-1.2086-0.85519-0.4176-0.27326-0.8496-0.53487-1.2954-0.78533-0.4457-0.25045-0.9051-0.48976-1.3777-0.71843-0.9451-0.45735-1.9427-0.87222-2.9885-1.2486-1.0459-0.37633-2.14-0.71413-3.2783-1.0168-1.0487-0.27883-2.1348-0.52786-3.2547-0.74946-1.12-0.2216-2.2739-0.41578-3.4575-0.58476-1.1836-0.16899-2.397-0.31278-3.6354-0.43358s-2.5019-0.21861-3.7851-0.29569c-1.2833-0.0771-2.5863-0.13342-3.9033-0.17141-1.317-0.038-2.648-0.0576-3.9866-0.0614-1.3386-0.004-2.6848 0.008-4.0318 0.0335-1.347 0.0252-2.6948 0.0637-4.0362 0.11244-1.1061 0.0402-2.1991 0.0961-3.2799 0.16685-1.0808 0.0707-2.1495 0.15637-3.207 0.25603-2.1149 0.19931-4.1849 0.45482-6.2181 0.75937-1.0166 0.15228-2.024 0.3168-3.0232 0.49263-0.99926 0.17583-1.9904 0.36296-2.9745 0.56041-0.9841 0.19746-1.9612 0.40523-2.9324 0.62232-0.97121 0.21709-1.9365 0.4435-2.8972 0.67819-0.96066 0.23469-1.9166 0.47766-2.8692 0.72787-0.95256 0.2502-1.9017 0.50765-2.8487 0.77126-0.94698 0.26362-1.8918 0.53341-2.8358 0.8083-0.94403 0.27489-1.8872 0.55488-2.831 0.8389-1.8875 0.56803-3.7772 1.1522-5.6804 1.7438-1.9032 0.59159-3.82 1.1906-5.7622 1.7885-1.8765 0.57764-3.7768 1.1542-5.7119 1.7218-1.9351 0.56763-3.9051 1.1263-5.9214 1.6682-2.0163 0.54193-4.0788 1.0671-6.1994 1.5675s-4.2992 0.97605-6.5476 1.4189c-2.2485 0.44281-4.5668 0.8528-6.967 1.2217-2.4002 0.36889-4.8823 0.69671-7.4583 0.97504-2.5759 0.27833-5.2457 0.50717-8.0212 0.67799-2.7755 0.17081-5.6566 0.28359-8.6552 0.32973-1.772 0.0273-3.5204-0.001-5.2423-0.0838-1.722-0.0824-3.4176-0.21851-5.0842-0.40598-1.6667-0.18746-3.3044-0.42628-4.9106-0.71402s-3.1809-0.6244-4.7215-1.0074c-1.5406-0.38304-3.0472-0.81248-4.5173-1.2857-1.4701-0.47321-2.9036-0.9902-4.2983-1.5483-1.3947-0.55808-2.7505-1.1573-4.0651-1.7948-1.3146-0.63752-2.588-1.3134-3.8181-2.0248-1.2301-0.71142-2.4168-1.4584-3.5582-2.2381-1.1414-0.77969-2.2374-1.5921-3.2862-2.4344-1.0488-0.84229-2.0503-1.7145-3.003-2.6137-0.95263-0.89923-1.8564-1.8255-2.7096-2.7761-0.85329-0.95056-1.6562-1.9254-2.4073-2.9218-0.75112-0.9964-1.4505-2.0144-2.097-3.0513-0.64648-1.0369-1.2401-2.0928-1.7798-3.1652s-1.0255-2.1613-1.4566-3.2644v-0.00001c-0.00001-0.00001-0.00001-0.00002-0.00001-0.00002-0.43052-1.1016-0.80659-2.1852-1.1325-3.2542-0.32593-1.069-0.60173-2.1234-0.83145-3.167-0.22971-1.0435-0.41334-2.0761-0.55465-3.1014s-0.2403-2.0434-0.30047-3.0577c-0.0602-1.0143-0.0815-2.0249-0.0673-3.035s0.064-2.0197 0.14623-3.0319c0.0822-1.0122 0.19698-2.0268 0.34126-3.0467 0.14427-1.0199 0.31809-2.045 0.51859-3.0776 0.2005-1.0327 0.42768-2.073 0.67869-3.1231s0.52586-2.1099 0.82168-3.1815c0.29583-1.0716 0.61262-2.1548 0.94748-3.2516 0.33485-1.0968 0.68776-2.2071 1.0558-3.3326 0.36798-1.1255 0.75103-2.2662 1.1461-3.4238 0.39507-1.1575 0.80217-2.3319 1.2182-3.5247 0.41602-1.1928 0.84097-2.404 1.2718-3.6352 0.4308-1.2312 0.86743-2.4824 1.3069-3.755 0.47939-1.3882 0.96216-2.802 1.4446-4.2433 0.48242-1.4413 0.96448-2.91 1.4426-4.408 0.47808-1.498 0.95218-3.0252 1.4188-4.5834 0.46661-1.5582 0.92574-3.1474 1.374-4.7691 0.44827-1.6217 0.88569-3.276 1.309-4.9643 0.42334-1.6883 0.83261-3.4107 1.2247-5.1686 0.39212-1.7578 0.76709-3.5512 1.122-5.3812s0.68974-3.6968 1.0018-5.6015c0.31201-1.9047 0.60119-3.8472 0.86496-5.8288 0.26376-1.9816 0.50209-4.0021 0.71256-6.0626s0.39307-4.1609 0.54553-6.302c0.15246-2.1412 0.27477-4.3232 0.36482-6.5467 0.09-2.2235 0.14783-4.4885 0.17138-6.7958 0.0236-2.3072 0.0129-4.6566-0.0338-7.0487s-0.12943-4.8269-0.24984-7.3048c-0.12042-2.4779-0.27851-4.9989-0.47577-7.5634v-0.00001c-0.00001-0.00001-0.00001-0.00002-0.00001-0.00003-0.12114-1.5749-0.26266-3.1276-0.42497-4.657-0.16231-1.5293-0.34541-3.0352-0.54964-4.5165-0.20423-1.4812-0.4296-2.9378-0.6764-4.3686s-0.51503-2.8358-0.80495-4.2141c-0.28991-1.3783-0.60151-2.7298-0.93499-4.0537s-0.68884-2.6202-1.0662-3.888c-0.3774-1.2678-0.77683-2.5073-1.1984-3.7176-0.42155-1.2103-0.86523-2.3915-1.331-3.5428-0.46581-1.1514-0.95376-2.273-1.4638-3.3642-0.51002-1.0912-1.0421-2.152-1.5961-3.1819-0.55398-1.0299-1.1299-2.0288-1.7274-2.9963-0.59749-0.96746-1.2166-1.9035-1.8569-2.8075-0.6403-0.90408-1.3018-1.7762-1.9839-2.6161-0.68214-0.83984-1.3849-1.6474-2.1076-2.4223-0.72272-0.77492-1.4654-1.5172-2.2271-2.2267-0.76173-0.7095-1.5425-1.3862-2.3414-2.03-0.60797-0.48998-1.2264-0.96093-1.8547-1.4129-0.62833-0.45196-1.2666-0.88493-1.9142-1.299-0.64762-0.41408-1.3046-0.80929-1.9704-1.1858-0.66575-0.37649-1.3403-0.73428-2.023-1.0736-0.68269-0.33932-1.3736-0.66017-2.072-0.96286-0.69842-0.30269-1.4044-0.58721-2.1173-0.85392-0.71294-0.26671-1.4328-0.51562-2.1591-0.74712-0.72625-0.23151-1.4588-0.44561-2.1972-0.64277-1.4767-0.39431-2.9765-0.72081-4.4947-0.98357s-3.0547-0.46179-4.6052-0.60166c-1.5504-0.13987-3.1147-0.22058-4.6885-0.24702-1.5737-0.0264-3.1568 0.001-4.7449 0.0783-0.68756 0.0333-1.3678 0.0754-2.0402 0.1253-0.67236 0.0499-1.3368 0.10747-1.9929 0.1718-0.65607 0.0643-1.3037 0.13538-1.9425 0.2122-0.63877 0.0768-1.2686 0.15942-1.8892 0.24688-0.62052 0.0875-1.2317 0.17979-1.8331 0.27613-0.60143 0.0963-1.1931 0.19669-1.7746 0.30026-0.58155 0.10356-1.153 0.21035-1.7139 0.31959-0.56096 0.10925-1.1114 0.22096-1.6512 0.33443-0.53973 0.11348-1.0687 0.22872-1.5866 0.34508-0.51794 0.11636-1.0248 0.23383-1.5205 0.35182-0.49565 0.11798-0.98004 0.23648-1.453 0.35494-0.47293 0.11846-0.93441 0.23687-1.3843 0.35474-0.44986 0.11786-0.88809 0.23517-1.3146 0.35146-0.42649 0.11629-0.84122 0.23156-1.2441 0.34539s-0.79391 0.22622-1.173 0.33678c-0.37911 0.11056-0.74631 0.2193-1.1016 0.32588-0.71048 0.21315-1.3731 0.4176-1.9879 0.61109-0.6148 0.19348-1.1818 0.37601-1.7014 0.54587-0.51963 0.16987-0.9919 0.32709-1.4177 0.47049-0.42577 0.1434-0.80505 0.27299-1.139 0.38807-0.334 0.11509-0.62272 0.21569-0.86769 0.30153-0.24498 0.0858-0.4462 0.15693-0.6055 0.21338-0.15929 0.0565-0.27665 0.0983-0.35414 0.12593-0.0775 0.0276-0.1151 0.0411-0.1151 0.0411l1.6851 4.7082z" fill="#eb81b4"/><path id="path10141" d="m941.71 309.58c-5.7358 95.949-70.921 125.72-71.943 165.17-0.40426 15.616 6.6818 34.691 29.996 39.849" stroke="#eb81b4" stroke-width="2" fill="none"/><path id="path10143" d="m748.23 274.98c52.744-31.015 113.92-26.991 142.02 9.2294 62.067 80.005-39.854 133.75-38.341 199.55 0.32318 14.061 6.8064 25.43 22.685 32.941" stroke="#eb81b4" stroke-width="2" fill="none"/></g></g><g transform="translate(-427.5 -28.473)"><path id="path10089" d="m589.88 266.06c55.58 29.363 87.153-10.637 117.98-13.108 25.728-2.0626 44.312 10.269 50.958 33.595 9.0359 31.715-12.406 56.651-6.4569 74.418 0.72595 2.1682 1.9546 2.5327 4.6217 2.4942 5.2136-0.0754 11.215-1.5446 15.367 5.217 17.351 28.257 30.507 93.804 28.393 129.08-0.59534 9.9359-6.7961 16.708-21.025 17.684-57.641 3.9539-46.837-8.1518-42.232-25.242 9.8007-36.378 0.63763-84.871-8.1121-101.96-14.86-29.015-43.361-30.729-44.722-66.859l26.355 44.299c-62.396 9.9624-167.79 15.206-180.37-110.11" fill="#fdf6af"/><g id="g2996" transform="matrix(-.49923 .052440 .052440 .49923 961.58 63.086)"><g id="g3005"><path id="path4536" fill="#f3b6cf" d="m534.25 390.25c-8 38.5-39.75 11.25-16-7.25-28-14.25-25-38.75 9.25-8.25 11-50 39.75-22 16.75-1.5 32.75 5.5 20.75 44.75-10 17z"/><path id="path4538" fill="#68c8c6" d="m534.62 394c-21.5-33.75-3.875-40.375 0 0z"/><path id="path4540" d="m526.75 368.75c-6.375-30 9.25-22.25 4.125-17.25" stroke="#68c8c6" stroke-linecap="round" stroke-width="1px" fill="none"/><path id="path4542" d="m525.5 368.12c-11.625-27.375-22.875-14.75-14.25-11.5" stroke="#68c8c6" stroke-linecap="round" stroke-width="1px" fill="none"/></g><g id="g3011"><path id="path4544" fill="#f3b6cf" d="m489.25 443.62c-26.75-17.375-16.375-31.25 8-5.5 7.875-40.75 33.875-20.375 13.375-1 24.5 2.125 19.625 35.75-8.25 14.375-9.625 28-31.875 9.375-13.125-7.875z"/><path id="path4546" fill="#68c8c6" d="m503 454.38c-18-29.75-1.625-33.25 0 0z"/><path id="path4548" d="m483.88 421.38c-6.5-1.5 1.875-15.375 12.875 12.625-5-28.375 8-19.625 4.125-15.375" stroke="#68c8c6" stroke-linecap="round" stroke-width="1px" fill="none"/></g><g id="g3016"><path id="path4556" fill="#f3b6cf" d="m560.91 432.56c4.773-34.648 28.284-32.173 9.3692 4.5962 44.725-16.44 42.426 18.385 7.955 11.314 7.0711 28.284-29.875 36.062-19.269 0.35355-31.82 8.8388-29.698-25.986 1.9445-16.263z"/><path id="path4550" fill="#68c8c6" d="m555.25 452.38c22.25-34.875 43.625-28.125 0 0z"/><path id="path4552" d="m576.88 430.75c21.25-19.625 5.375-24.875 5.5-15.75" stroke="#68c8c6" stroke-linecap="round" stroke-width="1px" fill="none"/><path id="path4554" d="m578.62 432.12c19.875-19 25.125-2.375 15.5-3.625" stroke="#68c8c6" stroke-linecap="round" stroke-width="1px" fill="none"/></g></g><g><path id="path8039" d="m589.88 266.06c55.58 29.363 87.153-10.637 117.98-13.108 25.728-2.0626 44.312 10.269 50.958 33.595 9.0359 31.715-12.406 56.651-6.4569 74.418 0.72595 2.1682 1.9546 2.5327 4.6217 2.4942 5.2136-0.0754 11.215-1.5446 15.367 5.217 17.351 28.257 30.507 93.804 28.393 129.08-0.59534 9.9359-6.7961 16.708-21.025 17.684-57.641 3.9539-46.837-8.1518-42.232-25.242 9.8007-36.378 0.63763-84.871-8.1121-101.96-14.86-29.015-43.361-30.729-44.722-66.859" stroke="#ead463" stroke-width="5" fill="none"/><g id="g10360" transform="matrix(1.0948 0 0 1.0948 -142.24 -609.07)"><path id="path9046" fill="#fdf6af" d="m715.73 815.8c-13.604 9.6893-21 28-13 44s35.285 28.438 70.877 4.6841c16.075-10.728 36.735-43.416 29.313-57.452-4.5213-8.5501-39.769-5.3808-68.616 8.5178"/><path id="path9036" fill="#ead463" d="m715.73 815.8s-0.0111 0.006-0.0335 0.0169c-0.0224 0.0113-0.0562 0.0286-0.10147 0.0521-0.0453 0.0235-0.10209 0.0533-0.1706 0.0898-0.0685 0.0366-0.14871 0.0799-0.24073 0.13068-0.092 0.0508-0.19587 0.10887-0.31161 0.17505-0.11574 0.0662-0.24337 0.14041-0.38291 0.22346-0.13955 0.083-0.291 0.17492-0.45429 0.27646-0.1633 0.10153-0.33845 0.21274-0.5253 0.33456s-0.3854 0.25425-0.59541 0.39833c-0.21 0.14408-0.43147 0.2998-0.66403 0.46829-0.23256 0.1685-0.47621 0.34976-0.73046 0.54498-0.25425 0.19523-0.5191 0.40443-0.79389 0.62888-0.2748 0.22446-0.55953 0.46416-0.85338 0.72046-0.29385 0.25631-0.59682 0.52921-0.90786 0.82013-0.31105 0.29091-0.63018 0.59983-0.95613 0.92822-0.32595 0.32838-0.65872 0.67622-0.99679 1.045s-0.68144 0.75851-1.0283 1.1707c-0.34686 0.41216-0.6972 0.84675-1.0489 1.3052-0.35168 0.4585-0.70469 0.9409-1.0565 1.4486-0.35183 0.50775-0.70246 1.0408-1.049 1.6007-0.3465 0.5598-0.68887 1.1463-1.0237 1.7608-0.3348 0.61449-0.66204 1.2569-0.97775 1.9285-0.15785 0.33576-0.31282 0.67879-0.46433 1.0292-0.15152 0.3504-0.29959 0.70818-0.44363 1.0734-0.14404 0.36526-0.28404 0.73801-0.41937 1.1183-0.13533 0.38031-0.26598 0.76819-0.39129 1.1637-0.12531 0.3955-0.24527 0.79863-0.35916 1.2094-0.11388 0.41079-0.2217 0.82925-0.32266 1.2554-0.10096 0.42613-0.19507 0.85994-0.28151 1.3014-0.0864 0.44147-0.1652 0.89059-0.23541 1.3473-0.0702 0.45672-0.13187 0.92104-0.18404 1.3929-0.0522 0.47183-0.0949 0.95115-0.12707 1.4378-0.0322 0.4867-0.0539 0.98075-0.0642 1.482-0.0102 0.50123-0.009 1.0096 0.005 1.525 0.0139 0.51533 0.0405 1.0376 0.0809 1.5665s0.0945 1.0644 0.16368 1.6062c0.0692 0.54179 0.15336 1.0898 0.25385 1.6437 0.10048 0.55389 0.21727 1.1136 0.3517 1.6786 0.13443 0.56503 0.2865 1.1354 0.45761 1.7105 0.17111 0.57509 0.36125 1.1549 0.57188 1.7388 0.21062 0.5839 0.44174 1.1719 0.69483 1.7632 0.25309 0.59132 0.52817 1.186 0.82677 1.7832 0.19911 0.39822 0.41414 0.80409 0.64643 1.2165 0.23229 0.41243 0.48185 0.8314 0.74997 1.2557s0.55482 0.85392 0.86136 1.2875c0.30655 0.43358 0.63294 0.87111 0.9804 1.3111 0.34746 0.43997 0.716 0.88237 1.1068 1.3255 0.39079 0.44316 0.80383 0.88708 1.2402 1.3299 0.4364 0.44285 0.89617 0.88462 1.3803 1.3233 0.48417 0.43869 0.99274 0.87429 1.5267 1.3046 0.53393 0.43033 1.0932 0.8554 1.6788 1.2728 0.58552 0.41744 1.1973 0.82724 1.836 1.2269 0.63876 0.39964 1.3045 0.78911 1.998 1.1657 0.69343 0.3766 1.4145 0.74031 2.1638 1.0882 0.74931 0.34794 1.5268 0.68012 2.333 0.99347 0.80614 0.31336 1.6409 0.6079 2.5046 0.88041 0.86369 0.27251 1.7563 0.523 2.678 0.74812 0.92167 0.22512 1.8724 0.42487 2.8522 0.59578 0.73617 0.12841 1.4888 0.24053 2.2577 0.33486 0.76895 0.0943 1.5543 0.17085 2.3559 0.22803 1.6032 0.11437 3.2716 0.15138 5.0039 0.0984 1.7324-0.053 3.5287-0.19611 5.3873-0.44224s3.7795-0.59533 5.7604-1.0608c1.981-0.4655 4.022-1.0473 6.1204-1.7589 2.0984-0.71156 4.2543-1.5528 6.4646-2.5374 2.2103-0.98453 4.4751-2.1123 6.7911-3.3968s4.6831-2.7259 7.0978-4.3374h0.00001c0-0.00001 0.00001-0.00001 0.00001-0.00001 0.51633-0.3446 1.036-0.70987 1.5585-1.0949 0.5225-0.38504 1.0478-0.78984 1.5754-1.2135 0.52754-0.42362 1.0573-0.86607 1.5885-1.3264 0.53122-0.4603 1.0639-0.93845 1.5973-1.4334 0.53335-0.495 1.0674-1.0068 1.6011-1.5345 0.53377-0.52764 1.0673-1.0711 1.5997-1.6292 0.53235-0.55813 1.0635-1.131 1.5926-1.7174 0.52902-0.5864 1.0559-1.1864 1.5796-1.7987 1.0474-1.2247 2.082-2.4989 3.0956-3.8129 1.0136-1.3139 2.0061-2.6676 2.9688-4.0506 0.96275-1.383 1.8958-2.7955 2.7903-4.227 0.89455-1.4315 1.7506-2.8819 2.5595-4.3409 0.80079-1.4444 1.5553-2.8973 2.2553-4.3485 0.69997-1.4513 1.3454-2.901 1.928-4.3396 0.29132-0.71932 0.56694-1.4359 0.82587-2.1485 0.25892-0.71266 0.50114-1.4214 0.72564-2.1252 0.2245-0.70381 0.43127-1.4026 0.6193-2.0955 0.18802-0.69286 0.3573-1.3797 0.50675-2.0597 0.15248-0.69368 0.28434-1.3801 0.39438-2.0584 0.11005-0.67828 0.19829-1.3484 0.26344-2.0094 0.0652-0.661 0.10724-1.3129 0.12483-1.9549 0.0176-0.64199 0.0107-1.274-0.0223-1.8952-0.033-0.62117-0.092-1.2314-0.17889-1.8296-0.0868-0.59817-0.20151-1.1842-0.34575-1.7565-0.14424-0.57228-0.31807-1.1308-0.52307-1.6733-0.1025-0.27125-0.21279-0.53848-0.33102-0.80137s-0.2444-0.52143-0.37862-0.77526c-0.10623-0.20088-0.22294-0.39525-0.34893-0.58264-0.12599-0.1874-0.26125-0.36783-0.40465-0.54125s-0.29494-0.33984-0.45362-0.49945c-0.15867-0.15961-0.32448-0.31244-0.49661-0.45884-0.17212-0.1464-0.35055-0.28638-0.53465-0.42039s-0.37386-0.26206-0.56881-0.38462-0.3951-0.23962-0.60011-0.35165c-0.20501-0.11204-0.41489-0.21904-0.62942-0.32141-0.21454-0.10238-0.43374-0.20014-0.65747-0.29364-0.22374-0.0935-0.45201-0.18273-0.68474-0.268-0.23273-0.0853-0.46992-0.16657-0.71149-0.24416-0.24158-0.0776-0.48755-0.15145-0.73782-0.22178-0.50056-0.14067-1.0184-0.26725-1.5525-0.38089-0.53409-0.11364-1.0844-0.21432-1.6496-0.30289-0.60871-0.0954-1.2347-0.17673-1.8767-0.24487-0.64191-0.0681-1.2997-0.12307-1.9718-0.16548-0.67213-0.0424-1.3586-0.0723-2.0578-0.0902-0.69921-0.018-1.4112-0.024-2.1342-0.0186-1.4461 0.0108-2.9367 0.067-4.4587 0.16486-0.76101 0.0489-1.5299 0.10819-2.305 0.17736-0.77514 0.0692-1.5566 0.14824-2.3427 0.2367-1.009 0.11353-2.0257 0.24254-3.0471 0.38599-1.0214 0.14344-2.0474 0.30132-3.075 0.47258-1.0276 0.17125-2.0569 0.35588-3.085 0.55281-1.0281 0.19692-2.055 0.40615-3.078 0.62659s-2.0422 0.45209-3.0552 0.69385c-1.0129 0.24176-2.0195 0.49362-3.0176 0.75447-0.99807 0.26084-1.9876 0.53068-2.9665 0.80837-0.97891 0.27769-1.9472 0.56323-2.903 0.85548-0.95584 0.29226-1.8992 0.59123-2.8285 0.89576-0.92925 0.30453-1.8444 0.61462-2.744 0.92912-0.89956 0.3145-1.7835 0.63341-2.6507 0.95558-0.86713 0.32216-1.7174 0.64757-2.5498 0.97508-0.83234 0.32751-1.6468 0.65711-2.4423 0.98766-0.79556 0.33054-1.5723 0.66203-2.3294 0.99331-0.75711 0.33129-1.4946 0.66237-2.2119 0.99211-0.71732 0.32973-1.4144 0.65813-2.0909 0.98406-1.4347 0.69123-2.9467 1.4621-4.517 2.306 1.1128 0.22413 3.7251 1.0576 4.7643 1.397 0.14101 0.0461 0.31678 0.10029 0.51579 0.16139 0.0995 0.0306 0.20482 0.0628 0.31456 0.0966s0.22389 0.0692 0.34112 0.10583c0.11723 0.0367 0.23754 0.0747 0.35966 0.11386 0.12212 0.0391 0.24605 0.0794 0.37061 0.12061 0.12455 0.0412 0.24973 0.0832 0.37444 0.12591 0.12471 0.0427 0.24894 0.086 0.3717 0.12967 0.12276 0.0437 0.24404 0.0877 0.36293 0.13171 0.11889 0.044 0.23538 0.0881 0.34865 0.1319 0.11326 0.0438 0.2233 0.0873 0.32936 0.13013 0.10605 0.0429 0.20812 0.0851 0.30551 0.1263 0.19478 0.0824 0.37082 0.1609 0.52314 0.23239 0.15231 0.0715 0.28093 0.136 0.3812 0.19052 0.36768 0.1999 0.71403 0.40149 1.0408 0.60404 0.32675 0.20256 0.63389 0.40609 0.92308 0.60997 0.2892 0.20389 0.56045 0.40814 0.81536 0.61222s0.49347 0.40799 0.71721 0.6113c0.22374 0.2033 0.43265 0.40599 0.62818 0.6077 0.19554 0.20171 0.37768 0.40244 0.5478 0.60187 0.17011 0.19944 0.32819 0.39758 0.47548 0.59416s0.2838 0.39161 0.41068 0.58486c0.12688 0.19326 0.24413 0.38473 0.3528 0.57424 0.10867 0.1895 0.20877 0.37704 0.30124 0.56243 0.0925 0.1854 0.17733 0.36866 0.25543 0.54962 0.0781 0.18095 0.14945 0.35962 0.21482 0.53583 0.0654 0.17622 0.12477 0.34998 0.1789 0.52116 0.0541 0.17117 0.103 0.33976 0.14724 0.50561 0.0442 0.16585 0.0838 0.32896 0.11943 0.48919 0.0356 0.16024 0.0671 0.31759 0.0952 0.47192 0.0824 0.45319 0.16149 0.93997 0.20864 1.464 0.49134-0.0179 0.99563-0.0271 1.5131-0.0271 1.1499 0 2.237 0.0475 3.2626 0.13654 1.0256 0.089 1.9898 0.21957 2.8939 0.3858 0.90412 0.16622 1.7482 0.36812 2.5338 0.59997 0.39284 0.11592 0.77109 0.23933 1.135 0.36954 0.36392 0.13021 0.71351 0.26721 1.0491 0.41033 0.33556 0.14313 0.65709 0.29238 0.96493 0.44711 0.30783 0.15473 0.60198 0.31495 0.88284 0.48005 0.28085 0.16511 0.5484 0.3351 0.8031 0.50943 0.25469 0.17433 0.49651 0.35299 0.72595 0.53552 0.22944 0.18252 0.44649 0.36889 0.65166 0.5587 0.20516 0.1898 0.39844 0.38304 0.58035 0.57938 0.18192 0.19633 0.35246 0.39575 0.51217 0.59801 0.1597 0.20226 0.30855 0.40736 0.44706 0.61512 0.16877 0.25315 0.32218 0.51026 0.46104 0.77121 0.13887 0.26096 0.26318 0.52577 0.37359 0.79445 0.11041 0.26867 0.20693 0.54122 0.29003 0.81766 0.0831 0.27645 0.1528 0.55679 0.20943 0.84104 0.0566 0.28424 0.10022 0.57239 0.13097 0.86436 0.0308 0.29198 0.0487 0.58778 0.054 0.88726 0.005 0.29949-0.002 0.60265-0.0221 0.90926-0.0199 0.3066-0.0524 0.61665-0.0974 0.92984-0.0449 0.31319-0.10231 0.62951-0.17202 0.9486-0.0697 0.31909-0.15176 0.64094-0.24599 0.96516-0.0942 0.32421-0.20064 0.65077-0.31904 0.97925-0.1184 0.32849-0.24878 0.65888-0.39091 0.99075-0.14212 0.33186-0.29599 0.66519-0.46129 0.99953-0.1653 0.33435-0.34203 0.66972-0.52986 1.0057-0.37565 0.67191-0.79567 1.3462-1.2569 2.0196-0.098 0.14311-0.19666 0.28441-0.29591 0.42388-0.003 0.17482-0.006 0.35125-0.01 0.52932-0.007 0.32667-0.0125 0.64793-0.0184 0.96392-0.006 0.31599-0.0119 0.6267-0.0188 0.93224-0.007 0.30554-0.0146 0.60591-0.0239 0.90122-0.009 0.29531-0.0201 0.58557-0.033 0.87088s-0.0279 0.56568-0.0454 0.84122-0.0375 0.54626-0.0604 0.81229c-0.0229 0.26602-0.0486 0.52736-0.0774 0.78415-0.0289 0.25678-0.0608 0.50902-0.0961 0.75688-0.0353 0.24785-0.0739 0.49132-0.11606 0.73058-0.0421 0.23926-0.0877 0.4743-0.13684 0.70532-0.0983 0.46204-0.21088 0.90797-0.33807 1.3394-0.12719 0.43139-0.26897 0.84824-0.42519 1.2521-0.15622 0.40385-0.32686 0.79469-0.51143 1.1738-0.12139 0.24938-0.24879 0.4937-0.382 0.73326-0.1332 0.23956-0.27221 0.47436-0.41673 0.70463-0.14453 0.23027-0.29457 0.45602-0.44976 0.6774-0.1552 0.22139-0.31555 0.43842-0.48063 0.6512-0.16507 0.21278-0.33487 0.42132-0.50888 0.62568-0.17402 0.20437-0.35225 0.40456-0.53414 0.60062-0.36378 0.39213-0.74221 0.76775-1.1302 1.127-0.38804 0.35926-0.78565 0.70214-1.1874 1.0287-0.40172 0.32655-0.80752 0.63677-1.2118 0.93074-0.40432 0.29398-0.80715 0.57171-1.2031 0.83337s-0.78502 0.50725-1.1622 0.73702c-0.37719 0.22976-0.74251 0.44371-1.0915 0.64215-0.17449 0.0992-0.34491 0.19456-0.51077 0.28608-0.16586 0.0915-0.32714 0.17919-0.48341 0.26309s-0.30752 0.164-0.45333 0.24038c-0.14582 0.0764-0.2862 0.149-0.4208 0.21794-0.13459 0.0689-0.26339 0.1342-0.38607 0.19581-0.12269 0.0616-0.23926 0.11958-0.34945 0.17396-0.1102 0.0544-0.214 0.10516-0.31121 0.1524-0.0972 0.0472-0.18779 0.0909-0.27159 0.13114-0.0838 0.0402-0.16083 0.0769-0.23093 0.11018-0.0701 0.0333-0.13329 0.0631-0.18946 0.0895-0.0562 0.0264-0.10534 0.0494-0.14746 0.0691-0.0421 0.0197-0.0772 0.036-0.10519 0.049-0.056 0.0261-0.0838 0.0389-0.0838 0.0389l1.4709 3.1759s0.0293-0.0135 0.0884-0.041c0.0296-0.0137 0.0666-0.031 0.11104-0.0517 0.0445-0.0208 0.0964-0.0451 0.15573-0.073 0.0593-0.0279 0.12612-0.0594 0.20025-0.0946 0.0741-0.0352 0.1556-0.074 0.24431-0.11657 0.0887-0.0426 0.18466-0.0888 0.28769-0.13891 0.10302-0.0501 0.21312-0.10393 0.3301-0.16166 0.11697-0.0577 0.24082-0.11931 0.3713-0.18483 0.13048-0.0655 0.26759-0.13498 0.41103-0.20846 0.14344-0.0735 0.29322-0.15096 0.44901-0.23255 0.15579-0.0816 0.31757-0.16727 0.48499-0.25715 0.16742-0.0899 0.34047-0.18393 0.51872-0.28228 0.17826-0.0983 0.36172-0.20096 0.54994-0.30797 0.37643-0.214 0.77191-0.44553 1.1823-0.69545 0.4104-0.24992 0.8357-0.51823 1.2712-0.80593 0.43551-0.28771 0.88124-0.5948 1.332-0.92243 0.45075-0.32762 0.90651-0.67577 1.3617-1.0457 0.45516-0.36993 0.90972-0.76167 1.3577-1.1765 0.44803-0.41486 0.88951-0.85287 1.3183-1.3153 0.42879-0.46242 0.84488-0.94927 1.2421-1.4615 0.19861-0.25612 0.39249-0.51858 0.5809-0.78744s0.37136-0.54413 0.54811-0.82581c0.17675-0.28167 0.34732-0.56976 0.51104-0.8642 0.16371-0.29444 0.32058-0.59524 0.47003-0.90226 0.11362-0.23341 0.22295-0.47042 0.3278-0.71093 0.10484-0.24052 0.20521-0.48456 0.30094-0.73201 0.0957-0.24745 0.18683-0.49831 0.2732-0.75247 0.0864-0.25417 0.16803-0.51163 0.24492-0.77227 0.0769-0.26064 0.14904-0.52445 0.21647-0.79131 0.0674-0.26686 0.13013-0.53677 0.18823-0.80959s0.1116-0.54856 0.16067-0.8271c0.0491-0.27854 0.0937-0.55987 0.13418-0.84388 0.0405-0.28401 0.0768-0.5707 0.10927-0.85997 0.0325-0.28927 0.0611-0.58111 0.0864-0.87544s0.0471-0.59114 0.066-0.89036 0.0349-0.60084 0.0486-0.90478c0.0137-0.30395 0.025-0.61022 0.0347-0.91875 0.01-0.30853 0.0176-0.61932 0.0246-0.93228 0.007-0.31297 0.0131-0.62811 0.019-0.94536 0.003-0.14768 0.005-0.29581 0.008-0.44439 0.4039-0.61119 0.7808-1.228 1.1285-1.8497 0.21563-0.38558 0.42001-0.77308 0.61259-1.1623 0.19257-0.38924 0.37334-0.78023 0.54169-1.1728 0.16834-0.39255 0.32426-0.78666 0.46708-1.1821 0.14282-0.39543 0.27254-0.79219 0.38844-1.19 0.1159-0.3978 0.21798-0.79662 0.30545-1.1961 0.0875-0.39949 0.16036-0.79966 0.21784-1.2 0.0575-0.40037 0.0996-0.80095 0.12541-1.2012 0.0259-0.40021 0.0355-0.80005 0.0281-1.1988-0.007-0.39876-0.0318-0.79646-0.074-1.1922-0.0422-0.39577-0.10212-0.78963-0.18051-1.1806-0.0784-0.39095-0.17522-0.779-0.29104-1.163-0.11581-0.38403-0.25062-0.76403-0.40482-1.1388s-0.32778-0.74429-0.52099-1.1073c-0.19322-0.36302-0.40605-0.71953-0.63858-1.0683-0.19084-0.28626-0.39495-0.56733-0.61229-0.8426s-0.44792-0.54474-0.6917-0.80787c-0.24377-0.26313-0.50073-0.51992-0.77083-0.76988-0.2701-0.24995-0.55334-0.49307-0.84967-0.72891-0.59266-0.47167-1.2377-0.91419-1.935-1.3243-0.6973-0.41007-1.4469-0.78775-2.2493-1.1299-0.80241-0.34218-1.6576-0.64889-2.5668-0.9169-0.90916-0.26802-1.8723-0.49735-2.8908-0.68436-0.50925-0.0935-1.0324-0.17641-1.5695-0.24822-0.53716-0.0718-1.0884-0.1325-1.6538-0.18155-0.70082-0.0608-1.4235-0.10367-2.1684-0.1275-0.0444-0.15844-0.0922-0.31915-0.14383-0.482-0.071-0.22396-0.14914-0.45196-0.23537-0.68357-0.0862-0.23161-0.18053-0.46683-0.28385-0.70519s-0.21565-0.47985-0.33795-0.72395-0.25458-0.49081-0.39778-0.73956c-0.14321-0.24875-0.29736-0.49953-0.46343-0.75174-0.33214-0.50443-0.71194-1.0146-1.1475-1.5252-0.43552-0.51062-0.92674-1.0217-1.4821-1.5276-0.2777-0.25297-0.57145-0.50466-0.88237-0.75435-0.31093-0.2497-0.63903-0.49741-0.98549-0.74243s-0.71129-0.48735-1.0957-0.72631c-0.38444-0.23895-0.7885-0.47453-1.2135-0.70605-0.11591-0.0631-0.2603-0.14509-0.42873-0.2405-0.0842-0.0477-0.17444-0.0988-0.2701-0.15256-0.0957-0.0538-0.19677-0.11025-0.30269-0.16876-0.0456-0.0252-0.0921-0.0508-0.1394-0.0766 0.0759-0.0334 0.15195-0.0668 0.22824-0.10013 0.73446-0.32137 1.4882-0.64308 2.2607-0.96401 0.77241-0.32093 1.5634-0.64107 2.3722-0.95928 0.80873-0.31822 1.6352-0.6345 2.4782-0.94771 0.84305-0.31322 1.7027-0.62335 2.5777-0.92927 0.87501-0.30591 1.7653-0.60759 2.6695-0.9039 0.90418-0.29631 1.8222-0.58724 2.7524-0.87165 0.93018-0.28441 1.8725-0.56229 2.8251-0.83251 0.95257-0.27021 1.9154-0.53277 2.8863-0.78652 0.97092-0.25376 1.95-0.49872 2.9348-0.73377 0.98479-0.23505 1.9754-0.46019 2.9691-0.67432 0.99374-0.21414 1.9907-0.41726 2.988-0.60829 0.9973-0.19104 1.995-0.36999 2.99-0.53581 0.99502-0.16582 1.9874-0.31851 2.9738-0.45705 0.98644-0.13853 1.967-0.26293 2.9381-0.3722 0.75664-0.0851 1.5076-0.1611 2.251-0.22744 0.74343-0.0663 1.4794-0.12307 2.206-0.16976 0.72661-0.0467 1.4439-0.0833 2.1499-0.10958 0.70599-0.0262 1.4007-0.0421 2.082-0.0471 0.68136-0.005 1.3494 0.00064 2.0018 0.0174 0.65249 0.0168 1.2895 0.0445 1.9086 0.0836 0.61914 0.0391 1.2205 0.0894 1.8015 0.15106 0.58104 0.0617 1.1418 0.1347 1.6796 0.21898 0.49942 0.0783 0.97903 0.16622 1.4368 0.26359 0.45779 0.0974 0.89378 0.20418 1.3056 0.31982 0.20591 0.0578 0.40578 0.11785 0.59925 0.17994 0.19347 0.0621 0.38054 0.12626 0.56085 0.19232 0.18031 0.0661 0.35386 0.13402 0.5203 0.20363 0.16644 0.0696 0.32576 0.14089 0.47766 0.21352 0.1519 0.0726 0.29638 0.14662 0.4332 0.22162 0.13683 0.075 0.266 0.151 0.3874 0.22761 0.1214 0.0766 0.23503 0.15382 0.34093 0.23122s0.20407 0.15498 0.29471 0.23234c0.0906 0.0774 0.17375 0.15452 0.24972 0.23114 0.076 0.0766 0.1448 0.15268 0.20705 0.22805 0.0622 0.0754 0.1179 0.15003 0.16768 0.22409 0.0498 0.074 0.0937 0.14749 0.13244 0.22081 0.0938 0.17733 0.18264 0.35931 0.26662 0.54606 0.084 0.18674 0.16309 0.37826 0.2373 0.57462 0.0742 0.19636 0.1435 0.39758 0.20785 0.60367 0.0644 0.2061 0.12376 0.41708 0.17817 0.63295 0.1088 0.43172 0.19759 0.883 0.26588 1.3533 0.0683 0.47029 0.11608 0.95958 0.14303 1.4668 0.027 0.50721 0.0331 1.0323 0.0183 1.5739-0.0148 0.54158-0.0505 1.0996-0.10697 1.6725-0.0564 0.57285-0.13361 1.1605-0.23108 1.7614-0.0975 0.60083-0.21525 1.2148-0.35274 1.8403-0.13476 0.61309-0.28846 1.2372-0.4604 1.8708-0.17194 0.63358-0.36212 1.2766-0.56975 1.9275-0.20763 0.65093-0.43271 1.3097-0.67437 1.9749-0.24167 0.66516-0.49991 1.3366-0.77381 2.013-0.27389 0.6763-0.56344 1.3574-0.86766 2.0418s-0.62312 1.3721-0.95567 2.0616c-0.6651 1.379-1.3849 2.7652-2.1508 4.1467-0.77368 1.3955-1.5944 2.7864-2.4533 4.1605-0.85882 1.3742-1.7556 2.7318-2.6812 4.0611-0.92556 1.3293-1.8798 2.6304-2.8533 3.8921-0.97351 1.2617-1.9662 2.484-2.9686 3.656-1.0024 1.1721-2.0145 2.294-3.0267 3.3554-0.50609 0.53073-1.0122 1.0463-1.5171 1.5456-0.50492 0.49928-1.0086 0.98222-1.51 1.4476-0.50132 0.46541-1.0002 0.9133-1.4955 1.3425-0.49524 0.42922-0.98682 0.83978-1.4734 1.2306-0.48663 0.39081-0.96832 0.76189-1.4437 1.1122-0.47541 0.35034-0.94454 0.67995-1.406 0.98793h-0.00001c0 0.00001 0 0.00001-0.00001 0.00001-2.3267 1.5528-4.6003 2.9368-6.8174 4.1665-1.1085 0.61485-2.2029 1.1911-3.2828 1.7307-1.0799 0.53953-2.1452 1.0423-3.1956 1.5102-1.0504 0.46788-2.086 0.90087-3.1063 1.3008-1.0204 0.3999-2.0255 0.76674-3.0152 1.1023-0.98969 0.33559-1.9639 0.63994-2.9225 0.91486-0.95854 0.27491-1.9014 0.52039-2.8284 0.73823s-1.8381 0.40804-2.7333 0.57236c-0.89514 0.16432-1.7743 0.30276-2.6373 0.41705-0.86303 0.11429-1.71 0.20444-2.5408 0.27214-0.83079 0.0677-1.6454 0.11293-2.4439 0.13738-0.79846 0.0244-1.5808 0.0281-2.3469 0.0126-0.76615-0.0155-1.5161-0.0503-2.25-0.10262-0.73389-0.0524-1.4517-0.12232-2.1535-0.20841-0.70177-0.0861-1.3875-0.18828-2.0574-0.30512-0.89155-0.15551-1.7549-0.33696-2.5904-0.54104-0.83552-0.20408-1.6432-0.43079-2.4235-0.67698-0.78026-0.24619-1.5331-0.51186-2.259-0.79402-0.72592-0.28217-1.4249-0.58083-2.0975-0.89317-0.67264-0.31233-1.3189-0.63834-1.9395-0.97536-0.62059-0.33703-1.2155-0.68506-1.7854-1.0416-0.56991-0.35656-1.1148-0.72163-1.6356-1.0929-0.52076-0.37126-1.0174-0.74871-1.4907-1.1302-0.4733-0.38146-0.92331-0.76695-1.351-1.1544-0.42767-0.3875-0.833-0.77702-1.217-1.1667-0.38401-0.38969-0.7467-0.77956-1.0892-1.1679-0.34246-0.38837-0.66468-0.77523-0.96783-1.1591-0.30314-0.38385-0.5872-0.76469-0.85336-1.1412-0.26617-0.37647-0.51445-0.74857-0.74607-1.1151-0.23163-0.36655-0.4466-0.72752-0.6462-1.0819-0.19959-0.35437-0.3838-0.70213-0.55393-1.0424-0.2639-0.5278-0.50742-1.0521-0.73215-1.5726-0.22474-0.52049-0.43069-1.0372-0.61933-1.5497-0.18864-0.51253-0.35996-1.021-0.51534-1.525-0.15537-0.50404-0.2948-1.0037-0.41954-1.4988-0.12474-0.49507-0.23479-0.98554-0.33133-1.4712-0.0965-0.48567-0.17957-0.96655-0.25017-1.4425-0.0706-0.4759-0.1288-0.94683-0.17558-1.4126-0.0468-0.4658-0.0822-0.92647-0.1071-1.3819-0.0249-0.4554-0.0394-0.90552-0.0444-1.3503-0.005-0.44473-0.00029-0.88407 0.0131-1.3179 0.0134-0.43384 0.0354-0.86218 0.0655-1.2849 0.03-0.42275 0.068-0.83991 0.11316-1.2514 0.0452-0.41149 0.0975-0.81731 0.15642-1.2174 0.0589-0.40011 0.12429-0.79449 0.19555-1.1831 0.14251-0.77723 0.30845-1.5314 0.49303-2.2623 0.18459-0.73093 0.38783-1.4386 0.60553-2.1232 0.2177-0.68457 0.44985-1.346 0.69274-1.9846 0.24289-0.63861 0.49651-1.2544 0.7576-1.8478 0.26108-0.59343 0.52963-1.1645 0.80277-1.7139 0.27314-0.54941 0.55087-1.0771 0.83068-1.5839s0.5617-0.99268 0.84349-1.4585 0.56348-0.91158 0.84319-1.3382 0.55743-0.83411 0.83156-1.2234c0.27413-0.3893 0.54467-0.76043 0.81023-1.1143 0.26556-0.35391 0.52616-0.6906 0.78062-1.011 0.25446-0.32042 0.50279-0.62459 0.74402-0.91342 0.24123-0.28882 0.47537-0.56232 0.7016-0.82136 0.22624-0.25905 0.44458-0.50365 0.65438-0.73464 0.20979-0.23098 0.41105-0.44836 0.60326-0.6529 0.19221-0.20455 0.37537-0.39626 0.5491-0.57585 0.17373-0.1796 0.33803-0.34707 0.49262-0.50308 0.15459-0.156 0.29948-0.30054 0.43449-0.43418s0.26014-0.25639 0.37532-0.36875c0.11517-0.11236 0.22039-0.21433 0.31566-0.30635 0.0953-0.092 0.18059-0.17411 0.25604-0.24661 0.0755-0.0725 0.14104-0.13542 0.19692-0.18907 0.0559-0.0537 0.10205-0.098 0.13874-0.1334 0.0367-0.0354 0.0639-0.0617 0.0819-0.0792 0.0185-0.0178 0.0273-0.0265 0.0273-0.0265z"/><path id="path9040" d="m745.58 824.08 48.26-21.567" stroke="#ead463" stroke-width="1.5" fill="none"/><path id="path9042" d="m764.49 833.98 39.598-23.335" stroke="#ead463" stroke-width="1.5" fill="none"/><path id="path9044" d="m763.43 857.13 36.6-26.16" stroke="#ead463" stroke-width="1.5" fill="none"/></g><path id="path10085" d="m711 365.69c-62.39 9.96-167.79 15.2-180.37-110.12" stroke="#ead463" stroke-width="5" fill="none"/></g></g><g transform="translate(-427.5 -28.473)"><path id="path10093" d="m592.75 344.73c0.56773 54.474-5.1205 105.51-20.353 147.2-6.6878 18.306-18.973 26.447 43.582 22.865 12.594-0.72116 15.964-8.6021 17.513-19.76 6.9719-50.248 1.2352-104.91-7.9983-151.91" stroke="#ead463" stroke-width="5" fill="#fdf6af"/></g><g transform="translate(-427.5 -28.473)" stroke="#eb81b4"><path id="path8029" d="m640.22 239.32c17.992 54.654 3.0079 123.07 20.974 148.91 8.2784 11.908 17.197 12.341 22.049 8.3104 7.8609-6.5313 3.1833-18.982-1.8615-19.846-2.3824-0.40769-6.6814 0.60112-5.601 5.6141-10.863-6.3293 4.2648-20.973 16.176-8.3843 7.1805 7.589 6.477 20.947 2.8907 27.243-6.6532 11.68-19.041 19.765-44.402 18.261-30.936-1.8352-52.696-30.149-56.366-75.505-3.6704-45.355 9.9624-52.434 7.8651-84.156" stroke-width="5" fill="#f3b6cf"/><path id="path8032" d="m634 238.65c5.5614 38.559-18.167 159.8 32.256 179.82" stroke-width="2" fill="none"/><path id="path8034" d="m625.11 243.1c8.5275 36.335-33.739 130.14 18.167 175.74" stroke-width="2" fill="none"/></g><g transform="translate(-427.5 -28.473)"><g><path id="path7940" d="m599.52 111.66c31.144 8.5276 48.385 49.126 49.868 77.86l-73.97 85.84-46.92-10.97-13.08-167.69z" fill="#fdf6af"/></g><path id="path7938" d="m599.52 111.66c31.144 8.5276 48.385 49.126 49.868 77.86" stroke="#ead463" stroke-width="5" fill="none"/></g><g transform="translate(-427.5 -28.473)"><path id="path8020" d="m555.5 201.48c-1.9465 2.688-1.9465 7.508-0.18538 11.03-5.1907-3.5222-4.1532-9.1764-2.4848-12.606"/><g fill="#fff"><path id="path7846" d="m648.78 182.47c-1.4737-12.098-5.9465-25.076-8.6993-30.45-13.108-12.191-19.102-13.661-22.022-13.108-4.8501 0.9176 3.9325 33.558 19.007 45.355 15.075 11.798 11.714-1.7968 11.714-1.7968z"/><path id="path7943" d="m581.95 202.46c-14.005 8.8015-35.193 0.28771-47.324-19.016-2.3603-3.7557-4.2038-7.6431-5.5393-11.534 17.699-15.541 24.256-36.304 45.664-32.735 3.9302 3.3829 7.5466 7.549 10.592 12.395 12.131 19.304 10.613 42.088-3.3925 50.889"/></g><g><g id="g7917" clip-path="url(#clipPath7927)"><g id="g7911"><path id="path7871" d="m637.97 193.36c-5.8235 2.0029-14.019-6.4765-18.306-18.939-4.2865-12.463-3.0405-24.19 2.7829-26.193 5.8235-2.0029 14.019 6.4765 18.306 18.939 4.2865 12.463 3.0405 24.19-2.7829 26.193" fill="url(#linearGradient7883)"/><path id="path7887" d="m637.06 175.62 7.9714 1.8538-1.0659 7.1835-7.5543-5.5151z" clip-path="url(#clipPath7903)" fill="#68c8c6"/><path id="path7889" d="m637.06 177.75 8.0641 5.6078-1.2488 6.1982-7.1377-10.552z" clip-path="url(#clipPath7895)" fill="#9ed8d5"/><path id="path7848" d="m636.42 183.52c-3.3358 1.6442-9.1165-3.2647-12.912-10.964-3.795-7.6996-4.1674-15.274-0.83159-16.918 3.3358-1.6442 9.1165 3.2647 12.912 10.964 3.7951 7.6996 4.1674 15.274 0.83159 16.918"/><ellipse id="path7931" rx="2.7528" ry="6.2265" transform="matrix(.97430 -.22527 .43039 .92687 -50.109 152.87)" cy="157.59" cx="628.03" fill="#fff"/><ellipse id="path7933" rx="1.2125" ry="1.9007" transform="matrix(.97334 -.22935 .36361 .94171 -43.895 156.06)" cy="167.49" cx="637.89" fill="#fff"/></g></g><g id="g8004" clip-path="url(#clipPath8016)"><g id="g7996"><path id="path7952" d="m566.6 206.45c-11.909 7.2473-28.507 1.7113-37.074-12.365-8.5666-14.076-5.8574-31.363 6.0512-38.61 11.909-7.2473 28.507-1.7113 37.074 12.365 8.5666 14.076 5.8574 31.363-6.0512 38.61" fill="url(#linearGradient7970)"/><path id="path7960" d="m563.19 186.65 16.592-2.9661-1.483 12.142-15.943-5.6541z" clip-path="url(#clipPath7984)" fill="#68c8c6"/><path id="path7962" d="m557.44 188.6 25.305 3.4296-5.6541 8.3422z" clip-path="url(#clipPath7976)" fill="#9ed8d5"/><path id="path7956" d="m556.27 200.53c-8.3484 3.269-18.657-3.1232-23.025-14.277-4.3678-11.154-1.1408-22.847 7.2076-26.116s18.657 3.1232 23.025 14.277c4.3678 11.154 1.1408 22.847-7.2076 26.116"/><ellipse id="path7992" rx="7.5143" ry="11.863" transform="matrix(1.0879 .069567 -.11895 .99444 -27.98 -37.008)" cy="170.04" cx="553.11" fill="#fff"/><ellipse id="path7994" rx="2.8183" ry="3.8014" transform="matrix(.99306 .11760 -.25458 .97684 50.616 -62.31)" cy="185.44" cx="566.35" fill="#fff"/></g></g></g><g><path id="path7838" d="m639.01 186c-13.18-11.051-18.809-27.221-20.729-38.226-0.43407-2.9406-0.64455-5.2138-0.31302-6.5453 0.16651-0.66875 0.39981-0.80144 0.48393-0.76989 0.54383 0.20397-0.3676-0.093 0.72144 0.16493 1.4526 0.17456 2.9494 0.63273 4.502 1.3441 2.4089 0.92774 4.9251 2.4263 7.5605 4.3211 4.4113 3.1716 8.8917 7.2516 13.599 11.24 4.6704 3.9572 9.4648 7.733 14.365 10.149 4.9232 2.4272 9.8737 3.4409 14.839 2.0076-5.0137 1.0637-9.7644-0.33982-14.314-2.9869-4.5714-2.6599-9.019-6.6236-13.402-10.821-4.3416-4.1571-8.7402-8.667-13.048-12.226-2.599-2.1475-5.2671-4.0382-7.9996-5.3496-1.8749-0.78271-3.7879-1.3103-5.7285-1.469-1.242-0.0425-2.4421 0.25156-3.3094 1.1359-0.82959 0.84585-1.0661 1.9441-1.1057 2.9244-0.0763 1.8888 0.56923 4.5186 1.284 7.2615 2.6094 11.211 8.9522 27.237 22.595 37.846z"/><path id="path7842" d="m644.29 154.12c4.7206 2.1047 11.42 3.6758 16.723 2.9708-3.9969 2.1113-11.625 0.92224-14.22-0.005"/><path id="path7844" d="m653 161.65c3.2771 1.4419 9.8969 3.7359 14.813 2.7528-3.7359 2.5561-11.732 0.45879-14.616-0.78651"/><path id="path7948" d="m593.36 174.51c-1.6128-12.941-5.5838-22.387-10.12-28.718-2.2698-3.1683-4.7094-5.5957-7.1321-7.2821-2.3659-1.6469-4.935-2.7383-7.4264-2.7715-7.4643 0.88412-13.234 4.1576-17.91 8.3518-4.6212 4.145-8.3429 9.3459-11.682 14.2-3.3854 4.9204-6.4837 9.6472-9.9774 13.213-3.4572 3.5282-7.3795 5.9989-12.454 6.1553 5.1244 0.34473 9.443-1.6776 13.472-5.053 3.9878-3.3411 7.6091-7.9403 11.358-12.512 3.8001-4.6344 7.6235-9.101 12.161-12.524 4.4829-3.3816 9.4596-5.5862 15.54-5.8516 0.84584-0.34019 2.5079-0.27536 4.6764 0.68356 2.1254 0.93984 4.5841 2.6671 7.0543 5.291 4.9472 5.255 9.8344 13.991 12.442 26.819z"/><path id="path8022" d="m549.06 198.47c-5.3768 4.0403-6.6595 9.4336-4.9196 13.605-5.0158-3.4789-2.5424-11.583 2.6301-15.466"/><path id="path8024" d="m544.47 193.97c-7.5079 1.2977-12.513 4.0784-15.479 7.8787 0.64883-5.2834 7.1372-8.8983 13.44-10.289"/></g></g><g transform="translate(-427.5 -28.473)"><g><path id="path7828" d="m629.93 181.37c7.0445 4.4492 17.624 2.4949 22.06 0.74153 5.7956-2.2904 9.1544 0.28207 10.241 7.333 6.8986 44.765-49.873 80.244-86.803 85.914" fill="#fdf6af"/></g><g fill="#ead463"><path id="path7818" d="m629.93 181.37c3.3356 2.6049 7.769 3.6852 12.055 3.9458 4.2048 0.25571 8.3151-0.27976 10.925-0.8793 1.2415-0.49064 2.189-0.65328 2.9073-0.63515 0.6853 0.0173 1.1792 0.19643 1.5883 0.49442 0.87925 0.64041 1.8448 2.2146 2.3556 5.5295 2.6068 16.916-4.3736 32.622-16.326 45.893-2.8819 3.4075-6.0791 6.6666-9.5145 9.7531-17.206 15.459-40.142 26.368-58.493 29.887 18.574-2.149 42.502-11.818 61.183-26.705 3.7433-2.9832 7.2867-6.1846 10.54-9.5876 12.589-13.971 20.464-31.105 17.552-50.002-0.57575-3.736-1.8329-6.9736-4.3536-8.8095-1.2909-0.94021-2.7912-1.4154-4.3996-1.4566-1.5754-0.0404-3.2211 0.33432-4.8774 0.9889-1.7658 1.1555-5.286 2.4705-9.1798 3.0311-3.8682 0.55685-8.2591 0.40368-11.962-1.4476z"/><path id="path7822" d="m657.98 217.39c-11.845 7.9508-27.659 6.4282-32.968-7.8232l0.46343-0.33025c6.6547 9.7114 23.672 12.25 33.883 2.2958"/><path id="path7824" d="m622.65 213.43c1.6386-4.3913 7.013-4.3258 7.013-4.3258-7.7995-2.8839-7.013 4.3258-7.013 4.3258z"/><path id="path7826" d="m634.71 189.38c4.588 9.7002 9.7002 2.3595 9.7002 2.3595-5.8988 12.977-9.7002-2.3595-9.7002-2.3595z"/></g></g><g transform="translate(-427.5 -28.473)"><g><path id="path7812" d="m541.31 114.82c14.831-1.483 42.638 1.1123 52.278 8.8983 85.65-68.597 43.48-107.48-33.74-87.506-92.11 23.83-126.4 45.492-129.77 127.55-2.8902 70.53 66.841 212.48 144.63 204.56 23.749-2.4175 39.959-14.574 37.309-41.862-1.917-19.737-12.695-27.554-22.309-23.814-6.0304 2.3456-2.4231 12.018 0.17222 14.243 3.3369-7.786 11.864-5.4079 11.864-0.21719 0 10.434-17.466 21.367-31.886 7.2617-35.714-34.935-49.018-130.35-32.987-195.8 1.1097-4.5302 2.3297-8.8692 3.6454-13.018z" fill="#f3b6cf"/></g><g stroke="#eb81b4" fill="none"><path id="path7771" d="m541.31 114.82c14.831-1.483 42.638 1.1123 52.278 8.8983 85.65-68.597 43.48-107.48-33.74-87.506-92.11 23.83-126.4 45.492-129.77 127.55-2.8902 70.53 66.841 212.48 144.63 204.56 23.749-2.4175 37.805-14.635 38.236-42.048 0.30752-19.551-11.953-27.554-22.495-23.629-6.0638 2.2578-5.2038 11.276-0.56931 14.243 3.3369-7.786 11.864-5.4079 11.864-0.21719 0 10.434-17.466 21.367-31.886 7.2617-35.71-34.93-49.02-130.34-32.98-195.79 25.13-102.62 106.88-107.08 75.99-21.84" stroke-width="5"/><path id="path7804" d="m602.46 31.683c-94.38 24.119-101.19 194.01-53.48 260.6" stroke-width="2"/><path id="path7806" d="m544.79 39.548c-80.23 111.68-22.03 358.64 68.16 291.01" stroke-width="2"/><path id="path7808" d="m510.18 51.083c-59.77 58.197-71.83 139.48-29.89 256.93" stroke-width="2"/><path id="path7810" d="m529.32 355.99c23.333 8.9137 58.726 9.4381 78.651-6.292" stroke-width="2"/></g></g></svg>