<?xml version="1.0" encoding="UTF-8"?><svg xmlns="http://www.w3.org/2000/svg" xmlns:xlink="http://www.w3.org/1999/xlink" version="1.1" viewBox="0 0 5743.9624 5743.9644"><defs id="defs4634"><linearGradient id="linearGradient4213"><stop id="stop4215" stop-color="#00ADA8" offset="0"/><stop id="stop4217" stop-color="#035350" offset="1"/></linearGradient><clipPath id="clipPath4107" clipPathUnits="userSpaceOnUse"><path id="path4109" d="m4247.6 1444.7c75.484-186.79 185.9-308.1 312.5-399.04 46.474-31.88 92.949-61.254 139.42 7.2115 69.339 85.582 72.834 197.73 81.731 307.69-35.96 484.57-185.95 468.48-337.8 394.58-100.08-48.7-190.28-168.09-195.85-310.45z" stroke="#000" stroke-width="1px" fill="#0f0"/></clipPath><clipPath id="clipPath4111" clipPathUnits="userSpaceOnUse"><path id="path4113" d="m5185.6 1339.9c29.236 63.273 83.907 201.72 57.233 285.02-52.186 15.75-103.63 13.51-161.94-29.521-58.696-79.117-190.9-327.07-209.47-550.96 78.06 21.224 141.95 70.839 191.68 148.84 48.803 58.349 83.827 98.382 122.5 146.62z" stroke="#000" stroke-width="1px" fill="#0f0"/></clipPath><clipPath id="clipPath4119" clipPathUnits="userSpaceOnUse"><path id="path4121" d="m5224.3 1415.6c5.0912 69.514 7.5269 218.34-46.764 286.92-54.39-3.6285-101.75-23.834-141.18-84.638-27.087-94.715-63.539-373.34-2.1122-589.43 65.592 47.345 107.93 116.28 127.01 206.79 25.139 71.794 43.828 121.59 63.046 180.35z" stroke="#000" stroke-width="1px" fill="#0f0"/></clipPath><clipPath id="clipPath4127" clipPathUnits="userSpaceOnUse"><path id="path4129" d="m5240.4 1401.4c7.6737 69.277 15.644 217.91-36.058 288.46-54.487-1.6026-102.56-20.032-144.23-79.327-30.592-93.642-77.384-370.71-24.038-588.94 67.308 44.872 112.18 112.18 134.62 201.92 27.792 70.809 48.321 119.88 69.712 177.88z" stroke="#000" stroke-width="1px" fill="#0f0"/></clipPath><clipPath id="clipPath4103-4" clipPathUnits="userSpaceOnUse"><path id="path4105-0" d="m4186.7 1486.3c59.313-191.87 159-321.67 277.41-422.71 43.593-35.595 87.399-68.702 139.53-4.6633 76.37 79.094 89.396 190.15 107.62 298.58 5.4083 484.18-145.4 480.92-303 420.43-103.86-39.868-203.89-150.76-221.56-291.63z" stroke="#000" stroke-width="1px" fill="#0f0"/></clipPath><clipPath id="clipPath4174" clipPathUnits="userSpaceOnUse"><path id="path4176" d="m4620.2 1514.4a212.74 343.75 0 1 1 -425.48 0 212.74 343.75 0 1 1 425.48 0z" clip-path="url(#clipPath4103-4)" fill-rule="evenodd" transform="matrix(.99637 .085101 -.085398 .99986 203.01 -397.7)" fill="#0f0"/></clipPath><clipPath id="clipPath4178" clipPathUnits="userSpaceOnUse"><path id="path4180" d="m4620.2 1514.4a212.74 343.75 0 1 1 -425.48 0 212.74 343.75 0 1 1 425.48 0z" clip-path="url(#clipPath4103-4)" fill-rule="evenodd" transform="matrix(.99637 .085101 -.085398 .99986 203.01 -397.7)" fill="#0f0"/></clipPath><clipPath id="clipPath4209" clipPathUnits="userSpaceOnUse"><path id="path4211" d="m5254.5 1332.3c17.653 55.973 47.403 177.53 8.4533 244.78-52.355 8.0556-101.08 1.0911-149.76-40.774-43.201-72.178-129.2-293.27-110.67-482.94 71.059 25.522 124 73.463 158.82 143.82 37.124 53.777 64.065 90.825 93.16 135.11z" stroke="#000" stroke-width="1px" fill="#0f0"/></clipPath><linearGradient id="linearGradient4219" y2="1206.3" xlink:href="#linearGradient4213" gradientUnits="userSpaceOnUse" x2="5069.9" y1="1595.7" x1="5054.8"/><linearGradient id="linearGradient4221" y2="1286.2" xlink:href="#linearGradient4213" gradientUnits="userSpaceOnUse" x2="4453.3" y1="1704.7" x1="4420.7"/><clipPath id="clipPath4351" clipPathUnits="userSpaceOnUse"><path id="path4353" d="m5232.7 1417.9c3.01 63.078 1.3909 197.75-52.144 257.37-51.718-5.6726-96.298-26.024-132.25-82.736-23.297-86.831-50.648-340.36 13.59-533.05 61.232 45.693 99.739 109.88 115.52 192.56 22.048 66.021 38.534 111.87 55.286 165.85z" stroke="#000" stroke-width="1px" fill="#0f0"/></clipPath><clipPath id="clipPath4351-5" clipPathUnits="userSpaceOnUse"><path id="path4353-2" d="m5232.7 1417.9c3.01 63.078 1.3909 197.75-52.144 257.37-51.718-5.6726-96.298-26.024-132.25-82.736-23.297-86.831-50.648-340.36 13.59-533.05 61.232 45.693 99.739 109.88 115.52 192.56 22.048 66.021 38.534 111.87 55.286 165.85z" stroke="#000" stroke-width="1px" fill="#0f0"/></clipPath><clipPath id="clipPath4397" clipPathUnits="userSpaceOnUse"><path id="path4399" d="m5156.2 1419.5a104.57 272.84 0 1 1 -209.13 0 104.57 272.84 0 1 1 209.13 0z" clip-path="url(#clipPath4351-5)" fill-rule="evenodd" transform="matrix(1.0457 -.089946 .071757 1.1026 -333.02 308.76)" fill="#0f0"/></clipPath><clipPath id="clipPath4401" clipPathUnits="userSpaceOnUse"><path id="path4403" d="m5156.2 1419.5a104.57 272.84 0 1 1 -209.13 0 104.57 272.84 0 1 1 209.13 0z" clip-path="url(#clipPath4351-5)" fill-rule="evenodd" transform="matrix(1.0457 -.089946 .071757 1.1026 -333.02 308.76)" fill="#0f0"/></clipPath><clipPath id="clipPath4460" clipPathUnits="userSpaceOnUse"><path id="path4462" d="m4139.9 1459.4c20.908-214.75 97.905-374.42 198.23-504.55 37.27-46.211 75.275-89.828 141.99-32.217 94.683 68.813 131.1 183.85 172.3 295.09 106.14 511.59-48.884 538.24-222.92 505-114.7-21.906-242.23-117.63-289.61-263.33z" stroke="#000" stroke-width="1px" fill="#0f0"/></clipPath><clipPath id="clipPath4464" clipPathUnits="userSpaceOnUse"><path id="path4466" d="m4228.1 1421.8c49.804-162.95 142.34-277.01 251.36-367.96 40.192-32.152 80.672-62.248 132.37-12.104 75.229 61.226 91.381 152.75 112.38 241.78 21.619 402.05-121.66 408.73-273.4 367.75-100-27.006-201.12-113.44-222.7-229.47z" stroke="#000" stroke-width="1px" fill="#0f0"/></clipPath><clipPath id="clipPath4468" clipPathUnits="userSpaceOnUse"><path id="path4470" d="m4184.3 1486.5c59.313-191.87 161.4-321.88 279.8-422.91 43.593-35.595 87.399-68.702 139.53-4.6632 76.37 79.094 89.396 190.15 107.62 298.58 5.4082 484.18-145.35 481.52-302.94 421.02-96.805-56.095-206.34-151.15-224.01-292.03z" stroke="#000" stroke-width="1px" fill="#0f0"/></clipPath></defs><g display="none" transform="translate(-127 367.66)"><rect id="rect4306" fill-rule="evenodd" height="4990.4" width="5980.8" stroke="#0f0" y="9.6154" x="19.231" stroke-width="1px"/></g><g opacity=".2" display="none" transform="translate(-127 367.66)"><path id="path5162" d="m5971.2 4379.8c0 167.28-996.6 302.88-2226 302.88s-2226-135.61-2226-302.88c0-167.28 996.6-302.88 2226-302.88s2226 135.61 2226 302.88z" fill-rule="evenodd" transform="matrix(.99969 -.024788 .020066 .80928 -48.274 966.63)"/></g><g transform="translate(-127 367.66)" stroke="#EAD463"><path id="path5165" d="m2240.4 2302.9c-85.609 175.01-160.04 536.26-76.923 838.94-72.563 11.118-116.05 23.824-147.33 71.294-162.21 246.2-339.36 691.78-472.86 1060.9-33.203 91.806 23.231 116.09 68.651 127.79 170.76 43.972 338.92 39.106 508.27 11.637 85.257-13.829 84.047-36.422 67.308-115.38-123.95-584.7 176.44-996.12 485.58-1254.8l-100.96-759.62z" stroke-width="49" fill="#FEE785"/><path id="path5167" d="m2094.6 3179.1c60.552-15.099 121.3-19.159 174.17-4.9265-46.479-81.978-110.99-57.64-168.18-44.12z" stroke-width="1px" fill="#EAD463"/><path id="path5169" d="m3253.4 2994.3c-98.238 384.15-129.35 775.02-132.58 1159.2-0.678 80.662 54.27 105.94 95.187 118.98 140.41 44.762 309.62 23.606 428.34-6.7991 42.936-10.996 98.048-33.097 84.989-88.388-102.27-432.99-135.57-852.07-101.99-1257.8z" stroke-width="49" fill="#FEE785"/></g><g transform="translate(-127 367.66)"><path id="path5172" d="m3326 2257.1c-81.229-193.51-311.36-397.22-453.91-673.66-133.49-258.86-421.79-395.5-804.78-367.13-141.58 10.485-184.33 136.34-38.462 173.08 222.34 55.997 442.27 120.58 600.96 293.27-145.9-34.276-455.89-4.0802-567.31 48.077-207.98 97.355-124.6 158.17-14.423 166.28 152.98 11.258 470.69-35.073 677.88 6.7991-132.44 47.617-261.42 102.66-379.81 177.88-210.26 133.59 45.045 234.49 192.31 201.92 144.65-31.992 291.67-63.702 437.5-115.38-206.24 309.59-0.3675 313.75 182.69 230.77z" stroke="#EAD463" stroke-miterlimit="7" stroke-width="49" fill="#FEE785"/></g><g transform="translate(-127 367.66)"><path id="path5175" d="m3865.4 1754.8c-138.84 218.39-290.17 262.12-466.35 346.15l-466.35 76.923v1004.8c235.58-31.833 673.08-84.994 836.54-254.81 286.14-241.7 561.48-645.18 750-961.54z" stroke="#EAD463" stroke-width="49" fill="#FDF6AF"/></g><g transform="translate(-127 367.66)"><path id="path5224" fill="#FDF6AF" d="m3576.9 2865.4-48.1 384.6l394.23-57.692-33.654-427.88z"/><path id="path5178" d="m3211.5 2418.3c345.23-459.19-92.258-237.88-317.31-254.81-44.075-13.691-322.13-86.23-355.77 57.692-121.04 517.8-18.446 738.86 86.538 1014.4-54.238 0.4924-106-2.0607-144.23 91.346-148.58 363.04-205.28 719.38-211.54 1086.5-1.731 101.63 63.299 161.21 120.19 173.08 137.29 28.641 333.27 14.794 456.73 14.423 94.744-0.2849 153-46.118 76.923-177.88-216.71-375.36-57.073-930.84 57.692-1134.6 7.902-14.031 15.751-28.106 23.524-42.23" stroke="#EAD463" stroke-width="49" fill="#FDF6AF"/><path id="path5180" d="m2551.7 3221.2c43.582-8.467 131.24-37.64 179.09 43.269-59.644-5.1056-117.41-6.4616-170.67 1.2019z" stroke="#EAD463" stroke-width="1px" fill="#EAD463"/><path id="path5182" d="m3553.5 3025.7c-1.8741 17.311-3.6122 34.701-5.2198 52.161-39.146 425.17-0.8185 891.18 38.275 1235.5 6.5104 57.334 67.19 158.97 176.78 163.18 127.96 4.9155 256.23 4.2875 384.15-13.598 105.36-14.732 138.56-86.906 67.991-193.77-161.62-244.74-295.55-849.3-321.8-1399.1-0.4555-9.54-0.8786-19.064-1.2689-28.568" stroke="#EAD463" stroke-width="49" fill="#FDF6AF"/><path id="path5182-1" style="block-progression:tb;text-indent:0;color:#000000;text-transform:none" d="m3529.1 3023c-1.8886 17.445-3.662 34.977-5.2812 52.563l48.812 4.4687c1.596-17.333 3.328-34.574 5.1876-51.75 11.799-108.99 39.207-291.09 40.577-324.48-41.124 46.498-77.312 208.51-89.296 319.2zm333.11-311.45c-2.4006 15.788 3.8228 85.865 5.6701 130.85 0.3926 9.5597 0.792 19.125 1.25 28.719l48.969-2.3437c-0.4529-9.4861-0.8932-18.956-1.2812-28.406-1.8261-44.47-26.71-112.31-54.608-128.82z" fill="#EAD463"/><path id="path5178-6" style="block-progression:tb;text-indent:0;color:#000000;text-transform:none" d="m3232.4 2414.8-31.534 6.8437c42.889 304.51-81.187 563.98-218.07 812.72-7.7278 14.043-15.538 28.06-23.406 42.031l42.719 24.031c7.9355-14.091 15.808-28.233 23.625-42.438 138.46-251.6 251.71-523.34 206.66-843.19z" fill="#EAD463"/></g><g transform="translate(-127 367.66)" stroke="#EB81B4"><path id="path5227" d="m2515.7 2171.6c-433.04-332-1100.3-141.81-1459 162.01-431.28 365.31-394.1 1011.6-81.006 1350.8 162.68 176.25 335.73 282.14 506.53 380.75 116.79 67.428 185.01 207.5-78.19 139.38-469.2-121.43-886.19-181.26-1141.6 36.57-148.79 126.9-133.77 354.3-38.049 456.36 163.85 174.7 700.99 283.02 593.1-38.149-40.671 53.418-55.567 107.3-178.36 110.36-97.569 2.4313-251.96-54.922-225.2-185.23 29.87-145.43 154.43-161.93 238.79-169.15 177.03-15.148 562.22 52.64 829.49 122.38 459.6 119.93 874.07-101.21 605.12-472.54-361.33-498.87-482.78-1065.6-95.187-1465.2 124.41-128.27 283.24-226.05 503.13-268.56 93.049-17.992 77.136-116.28 20.397-159.78z" stroke-width="49" fill="#F3B9D8"/><path id="path5229" d="m182.69 4352.2c-2.0017 328.41 290.51 418.21 392.27 416.55" stroke-width="29" fill="none"/><path id="path5231" d="m843.75 4098.6c-180.05 30.384-600.84 289.75-403.85 622.6" stroke-width="29" fill="none"/><path id="path5233" d="m1346.2 2144.2c-770.14 915.54-177.34 1481.9 289.88 1915 199.67 185.11 255.98 425.96-78.337 484.01" stroke-width="29" fill="none"/><path id="path5235" d="m2549.7 2260c-455.79-53.844-817.21 88.117-1033.5 625.52-344.51 856.12 483.44 1034.1 598.32 1557" stroke-width="29" fill="none"/></g><g transform="translate(-127 367.66)"><g id="g5672" transform="matrix(1.0038 -.30529 .13611 .98084 -960.94 1172.8)"><path id="path4745" d="m3607.3 2366.4c25.094-9.0746 64.588-105.39 37.018-121.31-26.96-15.569-66.609 73.734-78.427 109.91l-16.69 9.2175c-7.204-15.501-48.027-76.088-62.026-53.256-16.197 26.416 15.526 89.395 41.854 100-12.366 5.0061-61.055 80.348-22.195 103.7 32.641 19.618 52.046-43.588 63.275-59.218l3.7009-9.4983c26.652 33.809 66.83 36.876 75.253 6.0622 9.0167-32.985 7.3931-45.815-41.763-85.613z" stroke="#f9b8cf" stroke-width=".086761px" fill="#f9b8cf"/><path id="path4747" d="m3556.4 2331c-19.164 36.615 8.2634 121 19.453 132.3-5.8379-39.313-2.2089-113.12-19.453-132.3z" stroke="#32bfb7" stroke-width=".086761px" fill="#32bfb7"/><path id="path4749" style="block-progression:tb;text-indent:0;color:#000000;text-transform:none" d="m3590.4 2242c1.2594-0.1661 2.5086-0.059 3.6921 0.3345 2.3672 0.7866 4.2587 2.6658 5.2716 4.8493 1.6166 3.4849 2.0347 9.5392 0.346 12.294-3.5361 5.7673-4.9726 8.2149-12.815 7.7688 4.8384-2.6703 6.0206-4.533 7.4089-7.085 0.9522-1.7503 1.0938-6.1356 1.1549-7.639 0.1609-3.9577-2.5911-6.637-5.9275-4.903-1.6197 0.9388-3.5975 2.8607-5.5794 6.1704-16.165 26.994-16.716 62.894-20.867 94.388l-4.891-1.2369c4.0976-31.087 4.4757-67.715 21.432-96.032 2.2322-3.7277 4.5834-6.181 7.0249-7.5961 1.2207-0.7076 2.4898-1.1468 3.7491-1.3129z" fill="#32bfb7"/><path id="path4755" style="block-progression:tb;text-indent:0;color:#000000;text-transform:none" d="m3532.2 2264.1c2.0569-0.2493 4.235-0.06 6.35 0.9404 2.82 1.3331 5.1614 4.1254 6.4423 8.0149 7.0853 21.515 12.676 48.827 15.599 70.408l-4.8839 0.028c-2.8833-21.292-8.4611-48.454-15.385-69.48-0.9471-2.876-2.1283-4.0032-3.4045-4.6065s-3.0154-0.6669-4.9373-0.1761c-1.9218 0.4908-3.9316 1.5126-5.5174 2.6426-1.5858 1.1299-2.7636 2.4812-3.0169 2.9764-2.0008 3.9111-2.2321 7.9141-1.1107 10.591 1.1214 2.677 3.0626 5.933 6.8708 7.7966-3.3526 1.0785-9.4773-1.8672-11.392-6.4382-1.9148-4.571-1.2665-9.8156 1.175-14.588 0.8392-1.6405 2.3288-3.0471 4.2714-4.4313 1.9427-1.3842 4.3235-2.6295 6.9313-3.2955 0.6519-0.1665 1.3232-0.2995 2.0088-0.3826z" fill="#32bfb7"/></g><g id="g5684" transform="matrix(.99346 -.16853 -.17449 .92176 -118.36 840.99)"><path id="path4761" d="m3679.5 2626.8c0.7853-32.903 20.562-120.82-1.3966-117.52-28.783 4.3311-32.514 95.962-23.85 117.84-22.915-21.615-64.379-9.2014-58.892 40.653 4.3419 39.449 27.719 58.318 58.737 34.147l5.2007 4.9123c4.59 29.445 20.276 116.02 53.711 111.14 29.898-4.3648 14.876-86.353 1.2775-118.42 29.539 12.931 60-7.1836 59.878-35.338-0.3398-78.669-58.196-38.268-84.202-29.553z" stroke="#f9b8cf" stroke-width=".088986px" fill="#f9b8cf"/><path id="path4767" d="m3696.4 2607.4c-7.5581 45.089-30.442 94.06-44.099 110.61 0.4214-15.05 17.443-103.51 44.099-110.61z" stroke="#32bfb7" stroke-width=".088986px" fill="#32bfb7"/><path id="path4771" style="block-progression:tb;text-indent:0;color:#000000;text-transform:none" d="m3707.4 2518.7c2.2873-0.4183 5.1511 0.3797 7.3745 2.5439 2.2234 2.1641 3.946 5.4188 5.3262 10.162 1.1395 3.9162 0.4495 8.9626-0.9252 15.444-1.3747 6.4815-3.6279 14.176-6.3543 22.225-5.4529 16.098-12.792 33.575-18.844 45.206l-4.4449-2.6633c5.8998-11.339 13.214-28.733 18.594-44.616 2.6901-7.9416 4.8986-15.516 6.2168-21.732 1.3182-6.2153 1.5512-11.296 1.0307-13.085-1.2215-4.1982-2.6941-6.5813-3.8169-7.6741-1.1228-1.0929-1.7549-1.1667-2.6723-0.9989s-2.1539 0.815-2.9162 1.9073c-2.8595 4.0972-2.8613 8.5672-1.1262 14.974-3.1928-0.3492-5.7243-7.9749-5.2435-12.984 0.1923-2.0025 1.1002-3.8258 2.4216-5.3964 1.3215-1.5706 3.0918-2.8942 5.379-3.3126z" fill="#32bfb7"/><path id="path4773" style="block-progression:tb;text-indent:0;color:#000000;text-transform:none" d="m3741.4 2569c1.1088-0.1644 2.1846-0.1605 3.2252 0 2.7749 0.4362 5.1031 2.0932 6.6257 4.0607 1.5225 1.9675 2.3752 4.2229 2.747 6.3731s0.3083 4.2082-0.4963 5.9519c-3.908 8.4686-9.1627 11.58-15.513 9.2336 5.6744-3.6564 12.787-6.6636 11.154-14.975-0.2761-1.4049-0.8498-2.8918-1.6589-3.9373s-1.6834-1.672-3.008-1.8802c-1.3247-0.2082-3.3033 0.074-5.9692 1.6726-19.551 11.723-33.442 29.608-47.389 47.936l-4.0725-3.2528c13.96-18.345 28.135-36.727 48.531-48.957 2.0331-1.2191 3.9764-1.9552 5.8243-2.2292z" fill="#32bfb7"/></g><g id="g5678" transform="matrix(1.0596 -.14291 -.22212 .92833 -223.61 728.97)"><path id="path4763" d="m3521.7 2655c11.883-5.7619 23.099-99.781-7.1818-103.23-27.132-3.0948-26.238 65.875-28.925 94.263l-8.8103 9.522c-14.104-26.854-57.732-61.961-63.923-55.703-10.598 10.715 25.719 75.098 60.645 92.21-18.54 29.531-1.201 78.816 15.956 94.464 28.869 26.329 35.272-13.662 26.181-57.588l2.7097-1.6496c47.967 42.291 74.467 37.05 64.338-6.9492-4.1979-18.234-27.489-64.871-60.99-65.334z" stroke="#f9b8cf" stroke-width=".092273px" fill="#f9b8cf"/><path id="path4765" d="m3522.7 2737.8c-15.799-40.068-29.872-86.494-49.837-111.22-3.2554 26.165 21.409 77.365 49.837 111.22z" stroke="#32bfb7" stroke-width=".092273px" fill="#32bfb7"/><path id="path4783" style="block-progression:tb;text-indent:0;color:#000000;text-transform:none" d="m3472.7 2546.6c0.9484-0.1584 1.9251-0.1543 2.8808 0.0003 5.097 0.8244 9.8075 5.3799 10.576 11.069 0.7573 5.604-0.089 13.627-7.5408 13.471 4.8283-5.7915 3.0464-10.324 2.6493-13.494-0.397-3.1701-3.3797-5.8234-5.8543-6.2237-1.2372-0.2001-2.2771 0.023-3.2254 0.9963-0.9484 0.9731-1.8193 2.8802-1.9092 6.2672-0.5301 19.985-3.3131 31.364 11.306 80.8l-4.7193 0.8033c-14.737-49.836-12.034-62.756-11.514-82.356 0.11-4.1453 1.1901-7.1911 3.0866-9.1371 1.1854-1.2163 2.683-1.9328 4.2637-2.1968z" fill="#32bfb7"/><path id="path4789" style="block-progression:tb;text-indent:0;color:#000000;text-transform:none" d="m3435.1 2564.6c1.1541-0.1451 2.3811-0.075 3.6309 0.2731 2.4997 0.6964 4.9307 2.4969 6.9104 5.2582 16.029 22.357 25.549 48.261 33.004 70.083l-4.6513 1.0148c-7.422-21.724-16.83-47.116-32.25-68.622-1.3942-1.9447-2.6535-2.7266-3.7633-3.0358s-2.2368-0.1602-3.3547 0.4277c-2.2359 1.1757-3.8537 4.2569-3.5973 6.6241 0.6613 6.1079 4.4326 11.056 9.3468 13.768-9.695 1.6055-13.581-8.8984-14.238-13.768-0.6379-4.726 1.8978-8.9803 5.7598-11.011 0.9655-0.5077 2.0481-0.867 3.2022-1.0121z" fill="#32bfb7"/></g></g><g transform="translate(-127 367.66)"><path id="path5715" fill="#FDF6AF" d="m3369 1614-302.56 666.31 156.38-57.792c-89.88 173.58-125.18 316.69 169.98 275.36 156.11-33.23 252.96-129.96 282.16-299.16-145.43-126.64-221.55-362.19-305.96-584.72z"/><path id="path5691" d="m3412.3 1732.8c-4.482-13.375-8.903-26.864-13.277-40.457-102.08-317.21-499.71-625.05-826.92-644.23-193.12-11.321-143.43 129.17-62.5 168.27 237.6 114.79 425.56 259.03 586.54 394.23-160.26-20.711-492.55 8.461-550.17 39.628-193.4 104.62-134.87 186.74 54.976 191.14 170.13 3.9446 329.81 12.236 495.19 62.5-134.74 63.979-250.61 136.49-355.77 230.77-127.22 114.06-66.633 226.38 76.923 206.73 139.51-19.094 286.13-67.888 413.46-120.19-9.8418 15.667-18.42 30.529-25.815 44.622" stroke="#EAD463" stroke-width="49" fill="#FDF6AF"/><path id="path5691-0" style="block-progression:tb;text-indent:0;color:#000000;text-transform:none" d="m3422.4 1684.8-46.656 15c4.401 13.676 8.8583 27.272 13.375 40.75 63.626 189.86 188.11 427.2 301.02 471.35-103.44-124.12-191.93-300-254.58-486.95-4.4473-13.271-8.8087-26.646-13.156-40.156zm-212.34 523.31c-10.143 16.147-19.057 31.532-26.781 46.25-31.448 59.925-56.056 120.83-51.707 162.14 4.3489 41.316 27.941 73.288 59.469 92 63.056 37.424 199.4 36.002 260.35-31.921-80.871 18.615-193.17 14.828-235.35-10.204-21.088-12.516-32.875-27.982-35.719-55-2.8439-27.018 17.591-79.413 46.363-134.24 7.0668-13.466 15.304-27.782 24.844-42.969z" fill="#EAD463"/></g><g transform="translate(-127 367.66)"><path id="path3999" fill="#F3B9D8" d="m4528.8 1937.5 432.7-956.73c-255.7-181.1-513.1-354.33-822.1-269.23l-168.2-182.69c383.76-414.38 759.81-420.73 1134.6-360.58 446.85 37.334 744.9 252.65 730.77 841.35 17.983 188.52-74.287 417.78-471.15 759.62-169.37 201.47-395.37 396.98-403.85 615.38-6.1584 155.2 48.572 245.5 132.23 310.88 124.01 129.09 215.9 47.256 295.65-27.231 26.508-86.416 94.119-179.68-33.654-240.38-55.07-6.981-111.01 4.4026-168.27 43.269 129.65-175.42 268.54-114.53 346.15-67.308 104.21 138.05 80.826 270.03-4.8076 399.04-184.11 147.22-391.94 202.96-639.42 105.77-246.55-116.41-411.07-317.89-413.46-687.5z"/><path id="path3803" d="m3957.1 560.19c306.75-415.96 828.85-507.14 1414.2-333.16 512.12 152.21 582.6 828.17 343.35 1172.8-195.76 282.02-557.16 540.19-698.05 796.45-108.59 197.52-51.788 490.25 161.22 550.39 130.17 36.748 243.98-100.66 254.67-174 18.97-130.12-81.076-182.08-244.77-101.99 116.97-194.26 340.64-114.33 394.35 16.998 45.389 110.98 0.5694 274.12-101.99 353.55-219.51 170.02-511.68 152.09-727.5-10.199-241.15-181.34-346.98-499.88-217.57-917.88" stroke="#EB81B4" stroke-miterlimit="7" stroke-width="49" fill="none"/><path id="path3805" d="m4116.9 727c353.43-85.761 613.81 65.161 839.69 254.72 138.41-215.66 370.8-434.41 560.93-268.56 203.23 177.28-41.298 784.49-295.76 955.27-157.84 105.93-286.03 272.83-401.15 401.15-137.65 153.43-190.78 414.75-203.97 632.32" stroke="#EB81B4" stroke-width="49" fill="none"/><path id="path3809" d="m5014.4 2192.3c-173.82 186.33-152.51 583.2-115.38 721.15" stroke="#EB81B4" stroke-width="29" fill="none"/></g><g transform="translate(-127 367.66)"><path id="path4035" fill="#FDF6AF" d="m5044.9 716.56c162.51 156.24 297.97 362.04 210.77 975.67 51.596 13.574 92.886 34.019 37.395 118.98-93.141 152.28-216.35 261.14-390.95 295.76-174.51 3.7287-349.02 29.066-523.53-44.194l-431.74-146.18-166.58-598.32c52.456-285.41 257.25-498.65 479.34-703.71z"/><path id="path4002" style="block-progression:tb;text-indent:0;color:#000000;text-transform:none" d="m5069.9 1620.2c4.6321 35.718 87.029 101.78 147.16 96.492 24.38-2.1445 49.388 4.6626 60.531 14.875 5.5718 5.1063 8.4821 10.229 9.375 18.375 0.8928 8.1457-0.7988 20.192-9.0313 36.844-75.629 152.97-183.83 233.13-311.5 272.94-127.67 39.807-275.51 37.652-424.66 19.562-58.838-7.1363-184.14-35.424-196.69-38.454 19.752 37.765 130.64 79.784 190.78 87.079 152.46 18.491 306.84 21.72 445.16-21.406s259.89-134.25 340.84-298c11.213-22.68 15.983-44.106 13.812-63.906-2.1704-19.8-11.844-37.1-25-49.156-26.312-24.113-63.24-30.612-97.906-27.562-46.058 4.0513-122.01-25.605-142.88-47.68z" fill="#EAD463"/><path id="path4004" d="m5085.7 757.36c206.77 174.42 235.61 577.98 183.58 931.48" stroke="#EAD463" stroke-width="49" fill="none"/><path id="path4010" d="m4983.7 1835c45.1 62.704 99.995 149.42 190.37 129.18l-81.589 64.592c-54.042-43.412-105.07-122.14-108.79-193.77z" stroke="#EAD463" stroke-width="1px" fill="#EAD463"/><path id="path7013" d="m5201.7 1783.4c-4.7064 24.257-36.636 31.9-48.095 28.614-18.883-7.1712-30.196-31.363-21.965-56.454 16.589 30.994 37.911 40.563 70.06 27.84z" stroke="#EAD463" stroke-width="1.9995px" fill="#EAD463"/></g><g transform="translate(-127 367.66)" stroke="#000" stroke-miterlimit="24"><path id="path4038" d="m4329.3 1657.5c-65.531-12.489-107.04 1.0293-147.84 38.462 14.482-69.996 68.987-78.621 131.01-75.721z"/><path id="path4040" d="m4325.1 1644.2c-72.859 34.033-97.482 93.802-77.51 159.85 17.76-37.026 28.224-97.151 102.36-127.6z"/><path id="path4042" d="m4360.6 1689.9c-36.416 58.689-29.173 117.03-8.4134 163.46 7.2245-44.996 2.5366-87.966 54.086-135.82z"/><path id="path4044" d="m5231.1 1597c21.566-0.2503 43.391 8.7363 62.892 28.046-11.94-37.723-30.396-54.723-62.042-49.293z"/><path id="path4046" d="m5226.8 1608.9c22.893-1.0608 52.979 16.481 59.492 45.044-15.457-17.179-46.086-28.312-66.291-28.046z"/><path id="path4048" d="m5222.6 1632.7c24.5 3.3232 43.171 33.457 48.444 60.342-18.706-24.611-36.768-39.904-56.093-44.194z"/></g><g transform="translate(-127 367.66)"><path id="path4070" clip-path="url(#clipPath4107)" fill="#fff" d="m4259.6 1425.5c67.047-263.83 227.32-356.76 408.65-411.06 136.12 123.74 125.51 316.98 146.63 495.19-4.9395 186.59-111.3 286.24-250 358.17-226.03-8.5487-402.43-72.562-305.29-442.31z"/><path id="path4072" clip-path="url(#clipPath4127)" fill="#fff" d="m5024 1021.6c-57.438 199.5-106.05 400.35 0 625 56.361 86.776 120.74 109.39 189.9 93.75 91.504-65.755 60.153-188.21 76.923-288.46-55.23-205.24-134.91-365.64-266.83-430.29z"/><path id="path4056" d="m4620.2 1514.4c0 189.85-95.247 343.75-212.74 343.75s-212.74-153.9-212.74-343.75 95.247-343.75 212.74-343.75 212.74 153.9 212.74 343.75z" clip-path="url(#clipPath4468)" fill-rule="evenodd" transform="matrix(.99637 .085101 -.085398 .99986 203.01 -397.7)" fill="url(#linearGradient4221)"/><path id="path4058" d="m5156.2 1419.5c0 150.68-46.816 272.84-104.57 272.84-57.751 0-104.57-122.15-104.57-272.84 0-150.68 46.816-272.84 104.57-272.84 57.751 0 104.57 122.15 104.57 272.84z" clip-path="url(#clipPath4351)" fill-rule="evenodd" transform="matrix(1.0457 -.089946 .071757 1.1026 -333.02 308.76)" fill="url(#linearGradient4219)"/><path id="path4133" d="m4536.1 1552.9 165.87 4.8077-43.269 129.81-129.81-64.904z" clip-path="url(#clipPath4178)" stroke="#68C8C6" stroke-width="1px" fill="#68C8C6"/><path id="path4135" d="m4528.8 1605.8 141.83 64.904-69.712 91.346-91.346-105.77z" clip-path="url(#clipPath4174)" stroke="#9ED8D5" stroke-width="1px" fill="#9ED8D5"/><path id="path4060" d="m4538.5 1468.8c0 131.43-65.651 237.98-146.63 237.98-80.984 0-146.63-106.55-146.63-237.98s65.651-237.98 146.63-237.98c80.984 0 146.63 106.55 146.63 237.98z" clip-path="url(#clipPath4464)" fill-rule="evenodd" transform="matrix(1.04 .16389 -.14536 1.1964 54.556 -949.38)"/><path id="path4137" d="m5101 1502.4 93.75 9.6154-9.6153 93.75-91.346-67.308z" clip-path="url(#clipPath4401)" stroke="#68C8C6" stroke-width="1px" fill="#68C8C6"/><path id="path4139" d="m5091.3 1528.8 93.75 72.115-16.827 50.481-91.346-62.5z" clip-path="url(#clipPath4397)" stroke="#9ED8D5" stroke-width="1px" fill="#9ED8D5"/><path id="path4062" d="m5096.2 1431.5c0 133.42-26.368 241.59-58.894 241.59s-58.894-108.16-58.894-241.59c0-133.42 26.368-241.59 58.894-241.59s58.894 108.16 58.894 241.59z" clip-path="url(#clipPath4119)" fill-rule="evenodd" transform="matrix(.99931 -.037202 .037202 .99931 -32.94 181.17)"/><path id="path4066" d="m5076.9 1286.1c0 53.104-17.22 96.154-38.462 96.154s-38.462-43.05-38.462-96.154 17.22-96.154 38.462-96.154 38.462 43.05 38.462 96.154z" clip-path="url(#clipPath4209)" fill-rule="evenodd" transform="matrix(1.0268 .21161 -.18482 1.1756 93.725 -1276)" fill="#fff"/><path id="path4068" d="m5052.9 1508.4c0 20.578-11.839 37.26-26.442 37.26-14.604 0-26.442-16.682-26.442-37.26s11.839-37.26 26.442-37.26c14.604 0 26.442 16.682 26.442 37.26z" clip-path="url(#clipPath4111)" fill-rule="evenodd" transform="matrix(.95106 .31696 -.31784 .94844 734.49 -1513)" fill="#fff"/><path id="path4064" d="m4302.9 1437.5c0 87.622-35.516 158.65-79.327 158.65s-79.327-71.032-79.327-158.65c0-87.622 35.516-158.65 79.327-158.65s79.327 71.032 79.327 158.65z" clip-path="url(#clipPath4460)" fill-rule="evenodd" transform="matrix(.92251 .25375 -.26168 .89455 808 -909.32)" fill="#fff"/><path id="path4131" d="m4435.1 1665.9c0 27.88-13.991 50.481-31.25 50.481s-31.25-22.601-31.25-50.481 13.991-50.481 31.25-50.481 31.25 22.601 31.25 50.481z" fill-rule="evenodd" transform="matrix(.98516 .17531 -.36378 .79052 671.3 -442.32)" fill="#fff"/></g><g transform="translate(-127 367.66)" stroke="#000" stroke-width="1px" display="none" fill="#0f0"><path id="path4051" d="m4247.6 1444.7c75.484-186.79 185.9-308.1 312.5-399.04 46.474-31.88 92.949-61.254 139.42 7.2115 69.339 85.582 72.834 197.73 81.731 307.69-35.96 484.57-185.95 468.48-337.8 394.58-100.08-48.7-190.28-168.09-195.85-310.45z"/><path id="path4053" d="m5240.4 1401.4c7.6737 69.277 15.644 217.91-36.058 288.46-54.487-1.6026-102.56-20.032-144.23-79.327-30.592-93.642-77.384-370.71-24.038-588.94 67.308 44.872 112.18 112.18 134.62 201.92 27.792 70.809 48.321 119.88 69.712 177.88z"/></g><g transform="translate(-127 367.66)"><path id="path4224" style="block-progression:tb;text-indent:0;color:#000000;text-transform:none" d="m4417.9 1125.2c-31.289 38.944-121.38 173.39-162.9 263.53-51.807 112.5-185.11 136.47-253.79 90.023 99.334 109.23 241.15 9.2699 288.33-78.469 13.796-25.656 107.36-169.63 175.57-243.67 66.747-72.446 114.53-90.63 179.88-81.691 35.136 4.8058 73.573 66.068 90.595 105.64 15.405 35.81 39.28 79.998 43.931 211.32 8.5662-41.803 11.287-148.42-13.166-235.59-10.714-38.197-20.714-75.189-37.725-102.51-17.011-27.323-41.89-61.581-69.837-62.68-91.576-3.5998-197.88 80.572-240.89 134.1z"/><path id="path4002-4" style="block-progression:tb;text-indent:0;color:#000000;text-transform:none" d="m5335.7 1744.6c-2.1704-19.8-11.844-37.1-25-49.156-26.312-24.113-63.24-30.612-97.906-27.562-46.058 4.0513-133.01-37.605-153.88-59.68 4.6321 35.718 98.029 113.78 158.16 108.49 24.38-2.1445 49.388 4.6626 60.531 14.875 5.5718 5.1063 8.4821 10.229 9.375 18.375z" fill="#EAD463"/><path id="path4244" style="block-progression:tb;text-indent:0;color:#000000;text-transform:none" d="m5000.6 1072.2c-12.941 111.55-1.5359 147.13 12.949 260.12-0.7682-107.82-3.3307-169.97 9.7877-218.93 3.546-13.234 9.6154-43.051 25.013-44.9 19.75-2.3721 35.243 18 44.966 30.599 14.776 19.145 29.449 41.885 44.296 72.911 29.694 62.053 51.349 111.46 68.238 166.07 14.305 46.254 28.344 96.574 49.031 121.91 23.052 28.23 65.756 32.814 92.456-13.418-26.184 6.6533-61.938 10.103-77.488-9.6147-17.188-21.796-31.756-58.949-45.844-104.5-17.117-55.348-44.524-132.04-74.875-195.47-15.176-31.713-30.756-60.307-47.125-81.094-69.652-88.449-95.472-34.843-101.41 16.313z"/><path id="path4254" d="m4045.5 1382.9c65.286 47.846 145.5 61.336 224.96 24.028l-40.709 40.588c-29.754 26.36-167.66 24.082-184.25-64.616z" stroke="#000" stroke-miterlimit="24"/><path id="path4256" d="m4145.8 1268.1c43.496 54.88 122.46 57.518 176.34 40.151l-30.45 27.221c-32.948 27.633-149.79 5.6214-145.89-67.372z" stroke="#000" stroke-miterlimit="24"/><path id="path4258" d="m5238 1390.6c35.37 0.5142 57.975-14.141 72.115-32.452-1.8034 33.153-14.304 60.957-48.077 78.125z" stroke="#000" stroke-miterlimit="24"/><path id="path4260" d="m5203.1 1280c28.954 19.224 54.067-4.9175 70.914-24.038-4.9161 34.249-22.731 65.509-56.49 80.529z" stroke="#000" stroke-miterlimit="24"/></g><g transform="translate(-127 367.66)"><path id="path4292" fill="#F3B9D8" d="m5316 668-192-504c-368.8-18.87-741.3-58.55-1048 264l92 292c322.88-67.221 559.55 85.897 788 260 98.775-119.92 179.99-253 360-312z"/><path id="path3803-5" d="m3957.1 560.19c306.7-415.96 828.8-507.14 1414.2-333.16" stroke="#EB81B4" stroke-miterlimit="7" stroke-width="49" fill="none"/><path id="path3805-5" d="m4116.9 727c353.43-85.761 613.81 65.161 839.69 254.72 138.41-215.66 370.8-434.41 560.93-268.56" stroke="#EB81B4" stroke-width="49" fill="none"/><path id="path4284" d="m4400 712c-15.593-167.42-20.331-331.22-4-488" stroke="#EB81B4" stroke-width="29" fill="none"/><path id="path4286" d="m4640 160c-139 148.19-145.5 353.61-140 560" stroke="#EB81B4" stroke-width="29" fill="none"/><path id="path4288" d="m4596 748c140.8-232.81 395.6-447.87 680-548" stroke="#EB81B4" stroke-width="29" fill="none"/><path id="path4290" d="m4728 812c196.2-312.26 527.5-410.05 904-436" stroke="#EB81B4" stroke-width="29" fill="none"/><path id="path3807" d="m3889.1 662.17c-414.57 328.56-360.43 764.19-240.54 1234.6 63.796 250.32 180.89 496.21 291.78 706.77 75.16 142.72 203.04 365.16 67.75 540.29-50.742 65.683-158.96 79.617-197.17-13.598-25.056-61.121 1.7068-134.32 91.788-88.388-0.9613-105.34-116.92-116.36-160.04-39.671-63.215 112.44 60.322 362.63 313.02 362.63 330.8 0 509.57-170.11 540.53-479.34 34.089-340.5-225.34-520.15-394.35-778.5-189.97-290.41-435.32-579.14-278.76-934.88z" stroke="#EB81B4" stroke-miterlimit="7" stroke-width="49" fill="#F3B9D8"/><path id="path3811" d="m3572.1 1278.8c67.148 402.13 271.8 735.63 548.08 1043.3 244.58 272.35 361.37 588.54 298.08 927.88" stroke="#EB81B4" stroke-width="29" fill="none"/><path id="path3813" d="m3596.2 1639.4c153.76 352.23 331.64 662 504.81 937.5 160 254.55 255.78 608.97 0 793.27" stroke="#EB81B4" stroke-width="29" fill="none"/></g><g transform="translate(-127 367.66)"><path id="path4303" fill="#FDF6AF" d="m3912 1318c258.87-130.72 398.38-316.01 346-590-27.156-118.84-64.019-235.73-144-344-44.664-60.725-93.594-38.687-144 12-239.4 308-186.57 740.45-58 922z"/><path id="path4295" style="block-progression:tb;text-indent:0;color:#000000;text-transform:none" d="m4049.9 328.69c-4.0095 0.0837-7.9659 0.4464-11.875 1.0625-31.273 4.9288-57.212 23.719-76.594 46.281-149.95 174.56-195.51 424.84-174.22 628.81 12.399 118.77 40.207 250.61 132.96 322.93-47.253-88.897-75.624-225.37-84.117-326.97-16.258-194.48 24.95-432.65 162.56-592.84 13.793-16.056 31.354-27.373 47.031-29.844 15.677-2.4709 30.877 0.87334 50.156 22.281 90.994 101.04 142.51 308.26 163.86 345.19 24.185-50.75-24.772-264.01-127.42-378-24.277-26.958-54.278-39.492-82.344-38.906z" fill="#EAD463"/><path id="path4297" d="m3992 618c-28.814 143.13-30.85 276.17 8 422-76.202-118-73.1-282-8-422z" stroke="#EAD463" stroke-width="1px" fill="#EAD463"/></g></svg>