<?xml version="1.0" encoding="UTF-8"?><svg xmlns="http://www.w3.org/2000/svg" xmlns:xlink="http://www.w3.org/1999/xlink" version="1.1" viewBox="0 0 5864.9834 5864.9678" width="5864.9834" height="5864.9678"><defs id="defs4962"><linearGradient id="linearGradient6536"><stop id="stop6538" stop-color="#bc7acf" offset="0"/><stop id="stop6540" stop-color="#5a2569" offset="1"/></linearGradient><linearGradient id="linearGradient6526"><stop id="stop6528" stop-color="#d0a4df" offset="0"/><stop id="stop6530" stop-color="#773789" offset="1"/></linearGradient><mask id="mask5657" maskUnits="userSpaceOnUse"><path id="path5659" d="m931.94 5056c-15.061 63.142-31.27 125.06-48.468 185.44l-147.24-52.808 17.529-175.29z" stroke="#000" stroke-width="44" fill="#fff"/></mask><mask id="mask5776" maskUnits="userSpaceOnUse"><path id="path5778" d="m1302.4 5120.7c-3.971 56.196-8.9994 112.37-15.172 168.13l-137.86-10.031 2.5042-170.28z" stroke="#000" stroke-width="44" fill="#fff"/></mask><mask id="mask6505" maskUnits="userSpaceOnUse"><path id="path6507" d="m927.72 2873.2c22.456-69.893 38.358-188.49 67.298-253.63l-331-5.2138-26.561 221.34z" stroke="#000" stroke-width="44" fill="#fff"/></mask><mask id="mask6509" maskUnits="userSpaceOnUse"><path id="path6511" d="m927.72 2873.2c21.886-85.733 44.766-171.31 67.298-253.63l-331-5.2138-26.561 221.34z" stroke="#000" stroke-width="44" fill="#fff"/></mask><linearGradient id="linearGradient6532" y2="1221.8" xlink:href="#linearGradient6526" gradientUnits="userSpaceOnUse" x2="357" y1="1525.5" x1="357"/><linearGradient id="linearGradient6544" y2="1220" xlink:href="#linearGradient6536" gradientUnits="userSpaceOnUse" x2="365" y1="1542" x1="364.16"/><linearGradient id="linearGradient6578" y2="1419.7" xlink:href="#linearGradient6526" gradientUnits="userSpaceOnUse" x2="1166.6" y1="1901.4" x1="947.28"/><linearGradient id="linearGradient6588" y2="1407.4" xlink:href="#linearGradient6536" gradientUnits="userSpaceOnUse" x2="1295.9" y1="1944.8" x1="1057.3"/></defs><g transform="translate(556.07 -98.476)" display="none"><rect id="rect6726" fill-rule="evenodd" height="5990" width="4778" stroke="#000" y="10.017" x="20.033" stroke-width="1px"/></g><g transform="translate(556.07 -98.476)"><path id="path5591" d="m1051.8 4016.7c10.442 631.74-152.3 1301.3-358.1 1745.4-19.116 41.252-23.297 104.34 77.629 115.19 206.25 22.174 424.14 9.516 631.05-10.017 67.416-6.364 87.707-34.821 90.15-70.117 40.522-585.47 20.082-1170.3-55.092-1755.4z" stroke="#424864" stroke-width="44" fill="#6e7393"/><path id="path5661" fill="#dedede" d="m841.09 5151.8c201.1 231.09 434.04 244.59 662.25 290.4l-19.478 368.31c-267.38 18.409-534.76 55.88-802.14-1.7708-62.519-31.818-39.646-82.611-19.478-132.8z"/><path id="path5593" d="m2028.6 4101.8c130.98 335.24 300.27 908.8 24.79 1562.6-19.42 46.09-26.142 70.29 35.058 75.125 221.07 17.466 430.13 14.207 646.94 7.3346 77.209-2.4473 107.09-51.22 110.18-110.18 15.656-298.11-133.59-806.32-251.28-1204.3-12.157-41.113-89.684 13.605-135.66 4.709-32.897-6.3651-89.286-43.973-59.662-89.851 101.03-156.47 96.701-317.2 135.23-475.79z" stroke="#424864" stroke-width="44" fill="#6e7393"/><path id="path5606" d="m854.17 5147.5c4.355 9.1266 11.861 19.64 21.989 31.394 101.56 117.86 232.47 210.29 638.87 267.65" stroke="#7c849c" stroke-width="44" fill="none"/><path id="path5608" d="m849.64 5130.3c-41.632 195.46-108.81 398.69-194.48 579.26-19.035 40.121-20.004 91.112 26.561 100.93 261.36 55.113 628.6 30.544 805.68-8.8535" stroke="#7c849c" stroke-width="44" fill="none"/><path id="path5606-6" d="m926.54 5107.4c-89.206-5.2861-92.929 22.203-50.384 71.578" mask="url(#mask5657)" stroke="#7c849c" stroke-width="44" fill="#dedede"/></g><g transform="translate(556.07 -98.476)"><path id="path5664-0" fill="#d4d9fa" d="m2734.6 3185.3c308.21-144.98 1216.1-694.15 1747.9-100.17 362.98 405.44 60.72 951.91-100.17 1312.2-140.84 315.38-453.66 556.6-745.27 549.92-132.8-3.0415-264.89-60.447-383.08-146.32-410.71-298.39-256.43-894.88 241.87-1009.6 68.474-348.94-493.19-378.26-646.08-355.59z"/><path id="path5674" fill="#fff" d="m2823.4 3400c469.95-233.25 882.34-271.27 1171.4-162.3 450.1 169.71 449.19 603.83 286.25 936.41-152.45 311.17-447.08 376.37-753.72 412.88-80.909-34.085-182.45-43.789-194.22-159.59 20.2 33.323 56.099 44.667 92.654 55.092 69.233 48.895 134.21-4.2427 200.33-30.05 146.4-63.637 306.41-154.56 370.62-328.05 106.39-287.46-16.611-596.89-190.32-726.21-282.79-210.54-675.43-89.566-979.13 10.017z"/><path id="path5682" fill="#fff" d="m3148.3 4002.6c140.56-154.43 302.38-247.95 513.51-200.09 187.57 53.519 187.86 204.75 161.14 370.08-35.249 127.28-116.21 212.36-212.49 283.31-80.347 55.618-142.31 64.431-185.93 26.561 71.046-26.715 127.74-82.141 178.84-148.74 48.011-28.794 103.14-23.624 116.87-216.03-22.716-174.22-145.21-191.23-276.23-194.78-101.41 13.759-200.94 36.006-295.71 79.682z"/><path id="path5684" fill="#fff" d="m3194.4 4753.4c-83.119-161.48-35.852-298.52 30.102-432.06 75.3-92.732 147.69-192.49 278-152.28-173.76 93.058-161.43 170.17-177.07 249.67 35.832 150.94 130.9 130.78 205.4 169.99 361.5 108.68 646.14-55.653 809.22-129.26-78.806 183.36-229.49 318.8-421.43 426.74-229.24 99.73-466.77 101.38-724.22-132.8z"/><path id="path5664" d="m2734.6 3185.3c308.21-144.98 1216.1-694.15 1747.9-100.17 362.98 405.44 60.72 951.91-100.17 1312.2-140.84 315.38-453.66 556.6-745.27 549.92-132.8-3.0415-264.89-60.447-383.08-146.32-410.71-298.39-256.43-894.88 241.87-1009.6 68.474-348.94-493.19-378.26-646.08-355.59z" stroke="#a6aef2" stroke-width="44" fill="none"/><path id="path5666" d="m3152.8 4014.2c207.81-131.09 415.15-103.46 492.54-41.588 103.84 83.019 103.87 323.07-47.25 364.35" stroke="#a6aef2" stroke-width="17" fill="none"/><path id="path5668" d="m4363 4434.7c-233.89 162.86-647.24 275.56-956.19 106.24-133.2-73-100.79-282.32 93.848-368.31 101.29-44.752 170.36 40.375 129.26 111.56-53.455 92.586-132.09 189.57-212.49 196.33-38.371 3.228-91.504-32.666-84.995-123.74" stroke="#a6aef2" stroke-width="17" fill="none"/><path id="path5670" fill="#a6aef2" d="m3505.7 3765.9-42.884 53.937c308.85-64.683 402.93 134.33 345.2 368.81-19.617 79.67-91.307 175.16-171.34 237.66-40.018 31.246-82.143 54.257-120.34 63.562-38.2 9.3051-71.71 5.2551-97.812-16.594l-10.906 13.063c30.886 25.853 71.09 30.171 112.72 20.031 41.628-10.14 85.442-34.386 126.81-66.688 82.742-64.604 153.93-161.8 177.38-246.91 70.015-254.13-0.9078-433.82-318.81-426.87z"/><path id="path5672" d="m3514.9 4169.1c-223.35-69.132-461.59 321.47-316.96 575.48" stroke="#a6aef2" stroke-width="17" fill="none"/></g><g transform="translate(556.07 -98.476)"><path id="path5705" d="m2309 4137.2c-222.08 163.81-557.23 156.57-772.03 127.49-272.12 49.57-579.86-141.3-729.54-524.13-75.827-193.95 141.17-959.64 269.15-1413l743.7 24.79-77.912 828.7" stroke="#424864" stroke-width="44" fill="#7e83a8"/></g><g transform="translate(556.07 -98.476)"><path id="path5780" fill="#7e83a8" d="m1267.8 4059.3 456.85 28.332 123.95 283.31-548.92-3.5414z"/><path id="path5708" d="m1284.5 4240.5c1.3138 10.337 2.7009 20.786 3.8372 31.378 47.126 439.29 39.152 1065-101.38 1537.8-17.06 57.399-10.725 112.38 91.617 120.2 202.12 15.436 407.67 16.981 609.55-5.0083 69.778-7.6004 113.48-29.961 115.19-85.142 15.685-505.67-17.995-1029.5-183.97-1532.2-3.2802-9.9341-6.612-19.86-9.9962-29.777" stroke="#424864" stroke-width="44" fill="#7e83a8"/><path id="path5710" d="m2084.3 3839.9c15.267 186 101.62 377.71 216.57 545.41 279.98 408.42 190.7 1049.9 118.13 1339.2-16.364 65.221-44.382 140.3 46.542 145.24 202.77 11.024 404 7.2983 604.54 0 66.066-2.4043 125.41-60.504 120.2-125.21-28.951-359.38-114.93-1015.5-220.37-1237.1-32.294-67.869-97.564-58.21-150.25-45.075-54.327 13.544-75.492-24.474-30.05-120.2 152.72-321.71 278.02-745.53 90.15-1101.8-139.05-263.71-532.59-428.29-976.63-150.25l-160.27 100.17" stroke="#424864" stroke-width="44" fill="#7e83a8"/><path id="path5708-6" fill="#424864" d="m1265.4 4027.9c-12.81 72.98-5.8599 131.45 4.3489 211.77 1.305 10.267-4.5065 24.216-3.2704 34.729l43.719-5.1563c-1.2519-10.648-2.5524-21.156-3.875-31.562-10.347-81.407-24.571-178.28-40.922-209.78zm447.54 33.382c-6.2574 20.616 48.734 144.83 75.596 223.55 3.3605 9.8481 6.6487 19.697 9.9063 29.562l41.781-13.812c-3.3029-10.003-19.05-16.44-22.458-26.427-8.4307-24.706-82.633-198.08-104.83-212.87z"/><path id="path5734" stroke-linejoin="round" d="m1233.3 5192.9c10.67 23.346 50.295 54.278 71.011 74.994 194.7 194.7 637.84 249.54 854.26 213.77 3.2239 119.73-2.4236 235.02-12.521 348.08-234.44 63.591-626.07 92.733-944.07 42.571-96.003-15.143-83.286-77.89-65.108-127.71 61.893-169.64 79.072-375.05 93.54-560.13" stroke="#8f98b1" stroke-width="44" fill="#fff"/><path id="path5734-1" stroke-linejoin="round" d="m1307.2 5161.1c-148.59-7.9669-41.973 67.626-2.8374 106.76" mask="url(#mask5776)" stroke="#8f98b1" stroke-width="44" fill="#fff"/><path id="path5754" d="m2129.8 5667.3c0 58.951-15.416 106.74-34.432 106.74s-34.432-47.789-34.432-106.74 15.416-106.74 34.432-106.74 34.432 47.789 34.432 106.74z" transform="matrix(.85724 0 0 .90703 297.89 531.91)" stroke="#d7bf7c" stroke-width="21.547" fill="#eee484"/><path id="path5756" d="m2061.6 5663.2-56.344 21.286 60.726 18.155z" stroke="#d7bf7c" stroke-width="14" fill="#eee484"/></g><g transform="translate(556.07 -98.476)"><g id="g6823" transform="matrix(-.14026 .34345 .33320 .10974 2255.9 2059)"><path id="path6344-0" fill="#fef6d8" d="m3097.2 2190.7 1090.1 971.06 70.12-63.746c87.387-6.0302 173.66-7.6194 244.36 53.122 49.786 55.955 41.23 111.91 48.872 167.86-66.207 116.52-143.75 114.04-220.99 114.74l-106.24-133.87c-465.92-68.93-924.8-187.1-1385.4-293.23l125.37-129.62-63.746-21.249 135.99-146.62-121.12-65.871 101.99-110.49-70.12-36.123 123.24-127.49-89.244-63.746z"/><path id="path6310-2" d="m4474.8 3136c44.768 0.9214 74.663 98.176 78.312 126.61 6.7172 52.328-20.388 79.188-50.205 111.34-31.979 34.481-82.722 49.384-122.33 60.434-32.592 9.0937-61.486-3.2484-77.766-31.446-16.729-28.975-51.375-68.78-76.37-98.103-504.18-82.56-944.64-182.97-1388.3-300.5l126.21-123.21" stroke="#d1c9ae" stroke-width="29" fill="none"/><path id="path6312-2" d="m3039.5 2709.9-144.24 144.24 105.18 39.065" stroke="#d1c9ae" stroke-width="29" fill="none"/><path id="path6314-1" d="m3018.5 2535.6-104.3 108.88 137.35 77.432" stroke="#d1c9ae" stroke-width="29" fill="none"/><path id="path6316-5" d="m3069.5 2373.3-124.09 123.02 100.05 63.287" stroke="#d1c9ae" stroke-width="29" fill="none"/><path id="path6318-4" d="m3102.6 2199-125.85 109.94 122.84 82.38" stroke="#d1c9ae" stroke-width="29" fill="none"/><path id="path6320-4" d="m3358 1901.5c262.2 431.99 551.56 840.44 898.5 1199 60.1-13.362 120.33-14.456 180.3 12.02 62.856 27.75 55.198 50.979 39.065 84.14-28.943 59.493-112.38 107.53-165.28 123.21-43.457-44.304-78.869-104.7-117.2-159.27-403.58-309.96-907.45-794.22-1181.8-1057.4 86.22-69.006 207.7-146.67 346.46-201.7z" stroke="#d7bf7c" stroke-width="29" fill="#eee484"/><path id="path6322-4" d="m2952.2 2891.7c332.51 121.15 670.02 224.16 1005.4 317.03-349.2-136.74-698.4-242.96-1047.6-364.44z" stroke="#d1c9ae" stroke-miterlimit="24" fill="#d1c9ae"/><path id="path6324-2" d="m3018.3 2722 663.96 311.31c-248.85-149.49-505.75-266.53-757.56-399.79z" stroke="#d1c9ae" stroke-miterlimit="24" fill="#d1c9ae"/><path id="path6326-5" d="m3024.5 2562.6c8.8297 5.0636 810.53 471.26 812.85 464.27-289.96-189.72-584.97-359.24-877.51-538.61z" stroke="#d1c9ae" stroke-miterlimit="24" fill="#d1c9ae"/><path id="path6328-0" d="m3066.5 2386.8c160.27 113.39 320.53 236.45 480.8 339.57-168.07-144.52-354.59-299.6-551.06-420.64z" stroke="#d1c9ae" stroke-miterlimit="24" fill="#d1c9ae"/><path id="path6330-4" d="m4523 3200c-38.82 56.967-92.443 96.172-140.24 142.37 60.71-24.74 119.32-76.288 157.24-116.81z" stroke="#d1c9ae" stroke-miterlimit="24" fill="#d1c9ae"/><path id="path6332-2" d="m4544.2 3261.7c-55.569 53.913-118.29 88.75-179.55 127.49 74.219-11.989 141.1-72.46 192.12-106.81z" stroke="#d1c9ae" stroke-miterlimit="24" fill="#d1c9ae"/><path id="path6334-1" d="m598 331.3c0 27.799-28.926 50.334-64.608 50.334s-64.608-22.535-64.608-50.334 28.926-50.334 64.608-50.334 64.608 22.535 64.608 50.334z" fill-rule="evenodd" transform="matrix(.95878 .28415 -.28415 .95878 2862.6 1678)" stroke="#d7bf7c" stroke-width="1px" fill="#d7bf7c"/><path id="path6336-2" d="m755.76 513.11c0 25.309-22.535 45.826-50.334 45.826s-50.334-20.517-50.334-45.826 22.535-45.826 50.334-45.826 50.334 20.517 50.334 45.826z" fill-rule="evenodd" transform="matrix(.89138 .45326 -.42353 .83293 3029.9 1577.4)" stroke="#d7bf7c" stroke-width="1.0345px" fill="#d7bf7c"/><path id="path6338-7" d="m889.48 685.14c0 18.256-17.826 33.055-39.816 33.055s-39.816-14.799-39.816-33.055 17.826-33.055 39.816-33.055 39.816 14.799 39.816 33.055z" fill-rule="evenodd" transform="matrix(.86919 .49448 -.49448 .86919 3182.9 1480.9)" stroke="#d7bf7c" stroke-width="1px" fill="#d7bf7c"/><path id="path6340-7" d="m997.66 812.85c0 15.766-15.136 28.548-33.806 28.548-18.671 0-33.806-12.781-33.806-28.548 0-15.766 15.136-28.548 33.806-28.548 18.671 0 33.806 12.781 33.806 28.548z" fill-rule="evenodd" transform="matrix(.96171 .27406 -.27406 .96171 2995.7 1581.4)" stroke="#d7bf7c" stroke-width="1px" fill="#d7bf7c"/><path id="path6342-9" d="m1117.9 954.09c0 9.9577-9.7541 18.03-21.786 18.03s-21.786-8.0723-21.786-18.03 9.754-18.03 21.786-18.03 21.786 8.0723 21.786 18.03z" fill-rule="evenodd" transform="matrix(.91042 .41370 -.41370 .91042 3228.9 1446.4)" stroke="#d7bf7c" stroke-width="1px" fill="#d7bf7c"/></g></g><g transform="translate(556.07 -98.476)"><path id="path6485" fill="#fff" mask="url(#mask6505)" d="m994.16 2659.4-45.08 167.8-142.74-15 10.02-137.7z"/><path id="path6519" fill="#fff" d="m1159.4 2659.4c35.532 153.59-33.379 307.18-157.76 460.77-101.84 177.8-241.6 461.79-305.51 533.39 1.1868 84.276 19.752 161.1 67.613 225.38 208.69-43.148 370.15-234.73 533.39-420.7 81.642-130.79 319.98-290.08 621.04-460.77l-37.563-292.99c-241.44-4.6357-491.63 78.261-721.2-45.075z"/><path id="path6517" fill="#3b3c3a" d="m783.81 3881.5c176.72-53.974 317.48-219.39 462.02-373.12l52.588 209.1c-166.14 67.783-306.4 198.4-514.61 164.02z"/><path id="path6515" fill="#fff" d="m418.2 2769.6c-51.887 2.8019-113.73-34.21-127.71 120.2 21.306 119.85 70.924 217.05 125.21 310.52 100.85 166.7 218.81 327.29 230.38 525.88 8.8208 81.597 37.993 145.39 100.17 180.3l35.058-35.058c-76.34-67.9-83.45-187.8-110.19-292.9-19.67-173.8-126.55-270-200.34-395.7-83.03-150.8-194.55-307.4-52.58-413.2z"/><path id="path6513" fill="#fff" d="m1032.3 2685.2-51.351 177.07-46.039-30.102c19.671-59.65 24.261-131.87 97.39-146.97z"/><path id="path6465" fill="#fff" d="m876.46 2877.3-295.49 10.017c-8.0332-64.737-76.218-86.508-127.71-120.2l383.14-95.158c112.61-22.62 47.288 130.43 40.067 205.34z"/><path id="path6463" d="m1064.3 2664.4c-99.286 5.2025-107.6 109.49-127.71 187.81" stroke="#8f98b1" stroke-width="31" fill="none"/><path id="path6461" fill="#c2d1dc" d="m595.99 2887.3c-47.619-50.005-91.079-108.33-157.76-120.2-58.766 12.759-90.258 59.02-85.142 150.25 33.003 165.24 117.42 271.72 195.33 385.64 65.57 118.72 142.94 231.54 157.76 375.63l160.27-338.06 232.89-365.61c42.934-97.32 62.608-201.29 72.621-308.01-44.24-6.1662-88.481-6.1631-132.72 25.042l-192.79 553.5z"/><path id="path6459" fill="#973364" d="m980.98 2860.5c-45.489-36.616-94.482-58.046-154.05-33.644-69.553-54.621-133.42-58.079-184.15 56.663-70.282-4.15-128.68 9.074-138.12 93.848 6.5688 105.19 73.385 168.2 123.95 242.59 61.144 102.7 73.119 205.4 88.536 308.1z"/><path id="path6443" d="m840.15 3892.7c-133.75 42.8-186.99-49.5-209.1-234.1-23.16-193.5-129.52-330.6-245.41-520.9-79.14-129.9-203.14-406.2 90.15-383.1" stroke="#8f98b1" stroke-width="31" fill="none"/><path id="path6451" d="m767.53 3875.2c112.91 77.89 485.63-116.88 619.35-212.85" stroke="#1f2026" stroke-width="44" fill="none"/><path id="path6441" d="m1161.9 2656.9c37.876 237.23-92.439 351.42-190.32 510.85-108.03 175.96-213.78 388.53-275.46 540.9" stroke="#8f98b1" stroke-width="24" fill="none"/><path id="path6445" d="m403.17 2774.6c96.411 1.6687 147.75 45.943 184.27 114.15" stroke="#8f98b1" stroke-width="31" fill="none"/><path id="path6449" d="m674.87 3624.8c-17.442 30.232-28.282 59.113-31.302 86.394l25.042 110.18c2.7636-39.649 3.2427-79.299 18.781-118.95z" stroke="#8f98b1" stroke-width="1px" fill="#8f98b1"/><path id="path6453" d="m959.73 3612.2c0 28.849-21.009 52.236-46.924 52.236s-46.924-23.387-46.924-52.236 21.009-52.236 46.924-52.236 46.924 23.387 46.924 52.236z" transform="matrix(.92277 0 0 .85695 73.959 522.42)" stroke="#d7bf7c" stroke-width="15.744" fill="#eee484"/><path id="path6457" d="m1880.5 2796.8c-82.671 133.69-265.69 228.41-424.97 272.69 153.37-16.607 303.87-101.47 430.28-256.75z" stroke="#8f98b1" stroke-width="1px" fill="#8f98b1"/><path id="path6455" d="m715.37 3524.5c-10.339-115.23-47.652-249.74-120.41-345.29-51.423-67.534-142.28-215.91-70.829-265.61 150.24-104.51 206.95 64.424 168.22 72.599-59.013 12.458-87.201-176.16 38.956-193.01 123.94-16.551 160.82 155.51 93.848 159.36-83.309 4.7994-16.89-234.74 152.28-92.077" stroke="#622042" stroke-width="24" fill="none"/><path id="path6439" d="m871.42 2666.7c-70.057 10.334-139.23 34.806-202.09 55.353-123.17 40.262-348.83 0.9999-314.76 201.86 23.584 139.02 97.698 237.76 169.56 345.59 31.147 46.738 76.439 103.94 100.65 170.4 51.259 140.71 74.347 226.41 74.347 257.9 0 90.852 29.744 131.56 69.362 177.29 218.66-11.151 472.34-391.63 687.04-587.88 152.8-97.951 272.8-182.78 467.47-297.48l-42.497-290.4c-191.24 14.166-543.6 50.72-677.88-20.819-105.48-56.194-162.68-12.897-185.8 61.242-62.75 201.23-113.76 386.81-195.21 554.54-68.252 140.56-117.86 252.5-123 368.4" stroke="#8f98b1" stroke-width="44" fill="none"/><path id="path6439-9" d="m1027 2674.6c-50.863-15.399-103.47-15.536-155.59-7.8474-70.057 10.334-139.23 34.806-202.09 55.353" mask="url(#mask6509)" stroke="#8f98b1" stroke-width="44" fill="none"/></g><g transform="translate(556.07 -98.476)"><path id="path6534" fill="url(#linearGradient6544)" d="m257 1232 57-45 170 27-11 296-189 47c-23.666-105.25-52.259-209.45-27-325z"/><path id="path6524" fill="url(#linearGradient6532)" d="m376 1199c-36.251 48.514-58.337 108.05-61 162-2.0716 41.971 6.4711 93.331-37 118l6 67 119-30c-2.3939-37-2.5721-52.292-13-91-15.64-58.056 21.116-133 86-192l-4-23z"/><path id="path6522" d="m490.24 1214.9c2.6846 98.748-9.2139 198.57-22.728 293.07l-181.51 48c-28.716-94.618-55.149-190.39-34-288 8.3114-38.358 4.2471-91.433 96-80 44.619 5.5597 98.243 12.563 142.24 26.929z" stroke="#3d2d51" stroke-width="39" fill="none"/></g><g transform="translate(556.07 -98.476)"><path id="path6591-6-0" fill="#d4d9fa" d="m880 1072c141.6-664.16 627.8-1033.7 1208-936 428.5 72.15 1097.1 649.87 812 1332-96.244 230.27-293.65 516-364 708z"/><path id="path6612" fill="#fff" d="m2884 788c-17.47 174.86-31.214 335.76-96 471.31-62.658-264.67-166.85-514.05-320-703.31 20.203 98.667 48.788 197.33 48 296-362-458.35-854-391.97-1291.2-150.34 494.5-29.04 1344.5 317.94 1283.2 910.34 59.918-106.04 97.613-223.19 144-336-3.1718 137.33-36.671 274.36-68 412-26.914 118.25-6.5939 224.36 20 328l344-640c43.224-230.76 31.31-431.83-64-588z"/><path id="path6591-6" d="m880 1072c141.6-664.16 627.8-1033.7 1208-936 428.5 72.15 1097.1 649.87 812 1332-96.244 230.27-293.65 516-364 708z" stroke="#a6aef2" stroke-width="44" fill="none"/></g><g transform="translate(556.07 -98.476)"><path id="path6559" fill="#c53474" d="m285.67 1890.3c0.81523 33.973-3.5939 65.363-43.841 106.07l257.39 111.72c-57.07-89.7-105.88-189.5-213.55-217.8z"/><path id="path6561" fill="#f67033" d="m306.88 2017.6c18.69-40.687 82.729-33.12 110.31-21.213l74.953 97.581z"/><path id="path6557" fill="#7e83a8" d="m112 1960 384 140c-77.64-106-89.64-199.4-388-260l36-292c200.29-44.174 370.53-145.71 488-348 277.94-258.04 706.58-315.14 1024-24 174.46 141.54 246.72 385.28 352 596l-156 672c-277.33 4.6773-554.67 36.751-832 8-258.67-42.681-508.56-67.79-860-296z"/><path id="path6547" fill="#424864" d="m1161.8 964.78c-255.28-2.53-470.25 100.62-581.96 267.52-128.96 192.7-247.83 252.3-444.22 305.9l-13.62 3.7-2.28 13.9-41.251 266.2c-4.4561 28.755 1.3494 31.327 28.344 35.531 97.25 15.147 160.21 36.384 223.62 69.719 51.537 27.09 102.33 102.48 140.16 153.78-107.86-53.646-269.07-113.21-340.96-129.47-16.67-3.7701-45.568-12.805-37.692 15.374l53.75 192.31c0.89186 6.7054 3.3063 8.3964 8.5 12.062 129.62 91.391 267.09 156.99 405.19 202.69 323.82 107.15 701.77 116.4 885.14 61.705-355.44 30.159-556.08 0.8605-871.33-103.45-132.18-43.738-263.39-106.15-387.28-192.5l-48.13-148.7c-2.8366-8.7621 10.904-3.9731 16.602-2.1451 84.2 27.016 299.98 105.12 364.73 139.25-29.295-76.309-92.399-169.47-166.3-216.14-63.133-39.87-130.35-57.869-227.75-79.375l35.844-255.88c192.77-54.126 324.86-124.65 455.53-319.91 135.71-202.78 447.47-309.81 799.78-210.34 118.42 33.431 247.85 140.13 352.75 280.09s185.58 312.59 211.88 473.94l43.438-7.0938c-27.774-170.45-111.31-348.07-220.09-493.22-108.78-145.14-242.5-258.36-376.03-296.06-91.699-25.888-181.26-38.5-266.34-39.344z"/><path id="path6555" d="m381 1791c35.534 16.643 44.007-3.0599 60-44 3.4655 30.044 11.385 68.565-15 83-17.471 9.5587-40.621-5.3221-45-39z" stroke="#424864" stroke-width="1px" fill="#424864"/></g><g transform="translate(556.07 -98.476)"><path id="path6580" d="m749.53 1256.7c23.261 241.46-50.147 515.15 181.02 687.31 207.68 82.953 414.19 159.06 562.86-104.65-15.579-206.54-43.118-402.68-229.1-461.03z" stroke="#000" stroke-width="1px" fill="url(#linearGradient6588)"/><path id="path6570" fill="url(#linearGradient6578)" d="m1414 1474c-351.58-3.1569-314.08 267.6-276.53 340.3 36.073 69.823 26.291 164.66-25.473 195.7-142.78-4.0585-223.02-79.591-292-168 54.378-24.606 83.996-62.957 66-158-35.647-188.26 69.864-287.19 246-338 103.61 4.2143 193.18 64.615 282 128z"/><path id="path6564" d="m1293.4 1391.5c168.74 68.598 179.46 260.08 194.33 453.52-68.414 197.67-324.22 187.09-432.75 158.39-357.61-94.554-295.29-479.47-311.47-743.05 181.96 37.41 373.27 59.335 549.89 131.14z" stroke="#3d2d51" stroke-width="39" fill="none"/><path id="path6566" d="m459 1206c87.667 14.714 197.33 35.224 285 55" stroke="#3d2d51" stroke-width="39" fill="none"/><path id="path6568" d="m478.49 1326.1c92.47-21.9 206.36 18.1 269.51 79.9" stroke="#3d2d51" stroke-width="39" fill="none"/></g><g transform="translate(556.07 -98.476)"><path id="path6591-2" fill="#fff" d="m2536 2176c23.161 135.3-223.7 225.58-380 288-245.07 97.874-227.38 215.24-191.21 332.99 6.9281 132.83 107.63 297.58 178.83 533.54 65.16 215.95 108.12 379.97-35.614 570.4-154.07 204.12-357.4 222.82-599.51 81.9-264-153.6-294.5-519.7-212.5-686.8 109.99-224.01 354.54-216.54 472-120 38.267-121.76 62.775-249.02 48-392-130.06-175.38-210.43-441.85 36-628 82.298-62.166 141.06-138.94 204-220"/><path id="path6654" fill="#d4d9fa" d="m1680.1 3409.9c-60.472-33.764-97.91-22.313-107.48 43.841 7.0947 38.546 20.523 73.738 59.397 95.459 39.115 3.0446 88.607 35.034 94.045-55.861 6.0584-41.646-20.937-61.905-45.962-83.439z"/><path id="path6648" fill="#d4d9fa" d="m2076.1 2126.5c-247.62 125.77-375.77 317.67-296.98 581.24-127.31-156.51-102.06-324.33 0.0001-480.83l200.82-195.16z"/><path id="path6652" fill="#d4d9fa" d="m1603.7 3395c-55.256 50.102-47.899 135.37-27.577 163.34 35.147 48.385 109.76 79.171 134.35 77.782 66.786-3.7741 118.41-44.579 104.65-144.96-14.605-106.58-117.61-220.44-253.85-254.56-75.149-18.822-182.2-5.1178-236.88 16.971 127.92-160.79 280.72-156.39 434.87-84.853 117.39 108.35 178.39 238.71 141.42 407.29-48.769 98.137-114.38 128.89-189.5 121.62-75.832-21.3-145.34-55.892-183.85-155.56 2.2893-51.524 5.2404-102.93 48.083-147.08z"/><path id="path6650" fill="#d4d9fa" d="m2265.6 2232.5c-77.037 89.574-168.96 136.18-260.22 192.33-167.41 103.02-118.66 246.36-113.14 333.75l11.314 161.22c107.64 286.78 202.27 628.9 98.995 868.33-48.291 111.96-147.69 138.18-243.2 138.18-116.01 0-188.95-78.735-223.49-163.64-36.764-90.359-77.846-183.64-5.6568-291.33l31.113-73.539c-83.995 31.218-151.35 94.52-161.22 268.7 20.152 183.84 104.13 281.06 197.99 364.87l223.45 50.912c261.8-31.068 303.08-221.4 381.84-384.67-8.6773-166.18-19.604-330.97-96.166-455.38l-144.25-438.41c-6.913-103.85-95.947-206.57 155.56-313.96 133.24-59.312 265.39-121.17 387.49-206.48z"/><path id="path6591" d="m2536 2176c23.161 135.3-223.7 225.58-380 288-245.07 97.874-234.45 215.24-191.21 332.99 8.3423 152.63 107.63 297.58 178.83 533.54 65.16 215.95 108.12 379.97-35.614 570.4-154.07 204.12-357.4 222.82-599.51 81.9-264-153.6-294.5-519.7-212.5-686.8 109.99-224.01 354.54-216.54 472-120 38.267-121.76 62.775-249.02 48-392-130.06-175.38-210.43-441.85 36-628 82.298-62.166 141.06-138.94 204-220" stroke="#a6aef2" stroke-width="44" fill="none"/><path id="path6632" fill="#a6aef2" d="m1745.6 3139-22.125 31.875c126.44 83.802 176.87 216.54 173.97 339.56l22 1.0312c8.7808-133.86-10.724-255.86-173.84-372.47z"/><path id="path6638" fill="#a6aef2" d="m1573.6 3388.4c-36.402 34.046-58.444 79.42-53.969 134.06 4.4753 54.643 36.978 111.86 108.78 156.38 74.536 46.208 148.28 35.793 201.75-3.5312 53.475-39.324 88.806-106.41 89.531-174.16l-22-0.2187c-0.6577 61.388-30.556 123.6-78.781 159.06-48.226 35.464-111.65 45.353-180.47 2.6876-67.847-42.061-97.915-93.426-101.88-141.78-3.9603-48.355 14.692-94.379 47.031-124.62z"/><path id="path6644" d="m1603.1 3389.4c-113.28 21.14-183.8 88.508-199.16 226.27-23.687 212.37 133.71 386.05 216.7 410.88" stroke="#a6aef2" stroke-width="19" fill="none"/><path id="path6646" d="m1583.8 3391.3c72.459-22.129 141.96 40.805 143.24 94.732 1.92 80.565-57.429 79.748-93 62-27.515-13.729-67.676-55.964-58-106 7.5653-39.12 30.858-58.758 86.849-43.636" stroke="#a6aef2" stroke-width="14" fill="none"/><path id="path6674" d="m1777.7 2672.4c-158.16-10.55-98.131 108.95-69.296 152.74 65.26 99.099 185.65 94.678 255.97 90.51 103.62-6.1423 67.169-178.44-8.4853-210.72-54.756-23.359-113.76-28.229-178.19-32.527z" stroke="#d7bf7c" stroke-width="44" fill="#eee484"/></g><g transform="translate(556.07 -98.476)"><path id="path6685" fill="#7e83a8" d="m1926.2 1695.1c408 42.774 744.9 266.43 1018.2 517.6-423.68 243.8-839.5 79.541-1074.8-311.13 103.86-24.476 126.17-91.497 56.569-206.48z"/><path id="path6677" fill="#424864" d="m1934.2 1669.4-6.8125 43.469c303.63 47.434 759.91 257.35 982.94 494.28-125.57 72.701-246.91 106.92-386.25 99.578-239.64-12.628-432.75-137.59-551.66-292.02-47.378-61.529-123.91-156.08-126.64-191.73-29.949 44.645 41.636 153.48 91.762 218.57 125.8 163.38 330.26 295.73 584.22 309.11 157.62 8.3063 295.72-34.897 434.53-119.64 5.4557-3.3368 9.3206-9.1607 10.276-15.484 0.955-6.3235-1.0175-13.029-5.2445-17.828-227.82-258.7-702.2-477.55-1027.1-528.31z"/><path id="path6683" d="m2028 1832c143.61 160.67 308.46 269.84 502 321-180.07-21.838-372.08-118.42-502-321z" stroke="#424864" stroke-width="1px" fill="#424864"/></g><g transform="translate(556.07 -98.476)"><path id="path6690-9" fill="#d4d9fa" d="m1705.5 801.35c152.87 119.32 137.32 286.19 90.51 461.03-48.162 179.89-53.74 358.1-53.74 531.74 0 166.32 136.22 89.681 164.05 39.598 38.456-69.199 14.219-133.38-29.598-174.36 76.833-23.928 167.23 17.724 165.36 103.65-2.7366 126.12-61.076 257.12-211.3 328.93-91.069 43.531-186.86 65.832-289.33 72.711-176.11 11.822-174.41-100.86-165.36-186.68 11.815-112.07 52.756-214.72 86.166-325.27 115.44-217.09 255.16-640.92 183.85-783.47z"/><path id="path6702" fill="#fff" d="m1668.8 829.64c116.68 167.1 53.304 417.35 16.971 554.37-36.624 138.12-58.174 295.19-70.711 415.78 2.3533 51.969 15.819 101.73 29.615 142.87 42.411 101.38 98.742 130.19 168.37 148.46 122.33-28.674 157.76-124.95 212.13-206.48 7.0611-67.882 40.917-135.76-5.6568-203.65l-113.14-31.113c47.3 32.897 89.959 69.028 79.196 138.59-9.2115 59.536-35.887 113.38-81.125 147.03-90.52 67.336-137.46 9.5792-164.95-115.92l16.97-376.18 73.539-353.55c13.58-144.72-46.726-221.98-118.79-288.5z"/><path id="path6692" d="m1660.3 1344.4c-39.77 130.11-84.831 260.22-147.08 390.32-32.319 168.38-17.485 333.13 101.82 421.44" stroke="#a6aef2" stroke-width="17" fill="none"/><path id="path6690" d="m1705.5 801.35c152.87 119.32 137.32 286.19 90.51 461.03-48.162 179.89-53.74 358.1-53.74 531.74 0 166.32 136.22 89.681 164.05 39.598 38.456-69.199 14.219-133.38-29.598-174.36 76.833-23.928 167.23 17.724 165.36 103.65-2.7366 126.12-61.076 257.12-211.3 328.93-91.069 43.531-186.86 65.832-289.33 72.711-176.11 11.822-174.41-100.86-165.36-186.68 11.815-112.07 52.756-214.72 86.166-325.27 115.44-217.09 255.16-640.92 183.85-783.47z" stroke="#a6aef2" stroke-width="31" fill="none"/><path id="path6688-4" fill="#d4d9fa" d="m1056.7 770.14c95.1-115.03 281.6-193.57 409.3-228.83 309.5-85.43 417.9 183.63 193.3 408.35-156.1 156.24-298.6 423.14-215.3 598.34 83.734 176.18 245.91 109.8 292 68 66.246-60.073 95.153-195.02 67.272-248.49-36.536-70.062-99.192-49.86-82.1 48.728-27.9-14.1-91.5-72.3-53.2-156.2 54.083-118.65 190.22-96.946 236-16.929 88.916 155.42-61.259 422.07-167.18 510.39-108.46 90.431-359.93 64.35-434.67-235.8-25.667-103.07-44.124-276.19 11.515-449.66 72.328-225.5 31.454-431.5-256.97-297.86z"/><path id="path6700" fill="#fff" d="m1112 742c119.7-78.481 294.57-126.8 394-122 127.77 6.1681 234.14 73.812 102 266-133.6 194.31-231.94 376.56-232 580-0.039 127.51 98.913 285.93 109 300 117.66 77.715 223.57 15.45 291-38 83.789-104.68 140.5-230.31 143-322-4.3633-99.523-109.82-191.88-169-84l60 48c13.258 93.175-18.984 168.49-66 238-106.43 86.153-205.57 76.475-296-48-57.039-125.47-16.916-240.98 28-356 71.493-122.26 158.93-225.92 246-330 79.972-101.44 71.322-198.09 12-292-69.369-44.032-141.11-67.875-218-48-153.4 44.528-311.9 81.978-418 192z"/><path id="path6688" d="m1056.7 770.14c95.1-115.03 281.6-193.57 409.3-228.83 309.5-85.43 417.9 183.63 193.3 408.35-156.1 156.24-298.6 423.14-215.3 598.34 83.734 176.18 245.91 109.8 292 68 66.246-60.073 95.153-195.02 67.272-248.49-36.536-70.062-99.192-49.86-82.1 48.728-27.9-14.1-91.5-72.3-53.2-156.2 54.083-118.65 190.22-96.946 236-16.929 88.916 155.42-61.259 422.07-167.18 510.39-108.46 90.431-359.93 64.35-434.67-235.8-25.667-103.07-44.124-276.19 11.515-449.66 72.328-225.5 31.454-431.5-256.97-297.86z" stroke="#a6aef2" stroke-miterlimit="9" stroke-width="31" fill="none"/><path id="path6694" fill="#a6aef2" d="m1627.5 1882.6c9.5184 145.75 114.23 220.47 209.93 216.98l-0.75-16.969c-87.168 1.0849-169.69-51.753-209.18-200.01z"/></g></svg>