<?xml version="1.0" encoding="UTF-8"?><svg xmlns="http://www.w3.org/2000/svg" xmlns:xlink="http://www.w3.org/1999/xlink" version="1.1" viewBox="0 0 6229.7617 6229.751" width="6229.7617" height="6229.751"><defs id="defs4"><linearGradient id="linearGradient4610"><stop id="stop4612" stop-color="#6e6e6e" offset="0"/><stop id="stop4614" stop-color="#ccc" offset="1"/></linearGradient><linearGradient id="linearGradient4544"><stop id="stop4546" stop-color="#5f5f5f" offset="0"/><stop id="stop4548" stop-color="#bbb" offset="1"/></linearGradient><linearGradient id="linearGradient4550" y2="4937.9" xlink:href="#linearGradient4544" gradientUnits="userSpaceOnUse" x2="2871.9" gradientTransform="translate(42.738 -427.38)" y1="4937.9" x1="2697.7"/><linearGradient id="linearGradient4558" y2="5522.6" xlink:href="#linearGradient4544" gradientUnits="userSpaceOnUse" x2="2916.9" gradientTransform="translate(42.738 -427.38)" y1="5488.7" x1="2660"/><linearGradient id="linearGradient4566" y2="5414.4" xlink:href="#linearGradient4544" gradientUnits="userSpaceOnUse" x2="3003.3" gradientTransform="translate(42.738 -427.38)" y1="5410.4" x1="3131.7"/><linearGradient id="linearGradient4574" y2="5953.8" xlink:href="#linearGradient4544" gradientUnits="userSpaceOnUse" x2="2950.1" gradientTransform="translate(42.738 -427.38)" y1="5957.8" x1="3077.3"/><linearGradient id="linearGradient4616" y2="3871.5" xlink:href="#linearGradient4610" gradientUnits="userSpaceOnUse" x2="608.75" gradientTransform="translate(42.738 -427.38)" y1="3939.5" x1="478.6"/><linearGradient id="linearGradient4626" y2="4680.5" xlink:href="#linearGradient4610" gradientUnits="userSpaceOnUse" x2="721.25" gradientTransform="translate(42.738 -427.38)" y1="4745.6" x1="466.61"/><linearGradient id="linearGradient4636" y2="4955.6" xlink:href="#linearGradient4610" gradientUnits="userSpaceOnUse" x2="1004.1" gradientTransform="translate(42.738 -427.38)" y1="4834" x1="1162.5"/><linearGradient id="linearGradient4646" y2="4216" xlink:href="#linearGradient4610" gradientUnits="userSpaceOnUse" x2="674.58" gradientTransform="translate(42.738 -427.38)" y1="4320.6" x1="909.34"/><linearGradient id="linearGradient4666" y2="5459.2" xlink:href="#linearGradient4610" gradientUnits="userSpaceOnUse" x2="3785.5" gradientTransform="translate(42.738 -427.38)" y1="5377.5" x1="4003.5"/><linearGradient id="linearGradient4668" y2="4915" xlink:href="#linearGradient4610" gradientUnits="userSpaceOnUse" x2="3572.4" gradientTransform="translate(42.738 -427.38)" y1="5005.5" x1="3358.2"/><linearGradient id="linearGradient4670" y2="5483.2" xlink:href="#linearGradient4610" gradientUnits="userSpaceOnUse" x2="2304" gradientTransform="translate(42.738 -427.38)" y1="5415.3" x1="2503.1"/><linearGradient id="linearGradient4672" y2="4962" xlink:href="#linearGradient4610" gradientUnits="userSpaceOnUse" x2="2104.4" gradientTransform="translate(42.738 -427.38)" y1="5018.5" x1="1875.2"/><linearGradient id="linearGradient4682" y2="5662.1" xlink:href="#linearGradient4610" gradientUnits="userSpaceOnUse" x2="2257.1" gradientTransform="translate(42.738 -427.38)" y1="5687.5" x1="1951.6"/><linearGradient id="linearGradient4700" y2="6142.5" xlink:href="#linearGradient4610" gradientUnits="userSpaceOnUse" x2="2395.3" gradientTransform="translate(42.738 -427.38)" y1="6136.5" x1="2601.9"/><linearGradient id="linearGradient4710" y2="5660.6" xlink:href="#linearGradient4610" gradientUnits="userSpaceOnUse" x2="3753.3" gradientTransform="translate(42.738 -427.38)" y1="5680.4" x1="3459.2"/><linearGradient id="linearGradient4720" y2="6149.2" xlink:href="#linearGradient4610" gradientUnits="userSpaceOnUse" x2="3835.3" gradientTransform="translate(42.738 -427.38)" y1="6156.3" x1="4104"/><linearGradient id="linearGradient4744" y2="3824.5" gradientUnits="userSpaceOnUse" x2="2713.1" gradientTransform="translate(42.738 -427.38)" y1="3148.4" x1="2989.1"><stop id="stop4740" stop-color="#ab1310" offset="0"/><stop id="stop4742" stop-color="#502425" offset="1"/></linearGradient><clipPath id="clipPath4768" clipPathUnits="userSpaceOnUse"><path id="path4770" opacity=".5" d="m856.64 1535.2c13.75 46.463 36.863 97.622 69.846 141.48l285.22-47.279c64.686-69.407 53.234-137.48 63.221-205.93z" stroke="#f00" stroke-width="1px" fill="#0f0"/></clipPath><clipPath id="clipPath4772" clipPathUnits="userSpaceOnUse"><path id="path4774" opacity=".5" d="m836 1506c17.109 45.333 43.9 94.667 80 136l280-68c59.44-73.949 43.043-141 48-210z" stroke="#f00" stroke-width="1px" fill="#0f0"/></clipPath><clipPath id="clipPath4776" clipPathUnits="userSpaceOnUse"><path id="path4778" opacity=".5" d="m872.11 1536.4c7.7578 33.596 21.712 70.819 42.611 103.11l194.5-25.606c46.253-47.719 40.787-96.69 49.884-145.31z" stroke="#f00" stroke-width=".69708px" fill="#0f0"/></clipPath><clipPath id="clipPath4780" clipPathUnits="userSpaceOnUse"><path id="path4782" opacity=".5" d="m836 1504c17.109 45.333 43.9 94.667 80 136l280-68c59.44-73.949 43.043-141 48-210z" stroke="#f00" stroke-width="1px" fill="#0f0"/></clipPath><linearGradient id="linearGradient4865" y2="2591.7" gradientUnits="userSpaceOnUse" x2="1991.2" gradientTransform="translate(42.738 -427.38)" y1="3061.3" x1="1284.1"><stop id="stop4861" stop-color="#6e6e6e" offset="0"/><stop id="stop4867" stop-color="#ccc" offset=".62853"/><stop id="stop4863" stop-color="#6e6e6e" offset="1"/></linearGradient><linearGradient id="linearGradient4877" y2="2591.7" gradientUnits="userSpaceOnUse" x2="1991.2" gradientTransform="translate(42.738 -427.38)" y1="3061.3" x1="1284.1"><stop id="stop4951" stop-color="#6e6e6e" offset="0"/><stop id="stop4953" stop-color="#ccc" offset=".63035"/><stop id="stop4955" stop-color="#6e6e6e" offset="1"/></linearGradient><linearGradient id="linearGradient4887" y2="3178.8" xlink:href="#linearGradient4610" gradientUnits="userSpaceOnUse" x2="689.55" gradientTransform="translate(42.738 -427.38)" y1="3253.8" x1="1124.2"/><linearGradient id="linearGradient4907" y2="3178.8" xlink:href="#linearGradient4544" gradientUnits="userSpaceOnUse" x2="689.55" gradientTransform="translate(42.738 -427.38)" y1="3253.8" x1="1124.2"/><linearGradient id="linearGradient4927" y2="2591.7" gradientUnits="userSpaceOnUse" x2="1991.2" gradientTransform="translate(42.738 -427.38)" y1="3061.3" x1="1284.1"><stop id="stop4923" stop-color="#5f5f5f" offset="0"/><stop id="stop4929" stop-color="#bbb" offset=".63121"/><stop id="stop4925" stop-color="#5f5f5f" offset="1"/></linearGradient><linearGradient id="linearGradient4939" y2="2591.7" gradientUnits="userSpaceOnUse" x2="1991.2" gradientTransform="translate(42.738 -427.38)" y1="3061.3" x1="1284.1"><stop id="stop4943" stop-color="#5f5f5f" offset="0"/><stop id="stop4945" stop-color="#bbb" offset=".63457"/><stop id="stop4947" stop-color="#5f5f5f" offset="1"/></linearGradient><linearGradient id="linearGradient4963" y2="1167.9" gradientUnits="userSpaceOnUse" x2="600.63" gradientTransform="translate(42.738 -427.38)" y1="291.89" x1="133.83"><stop id="stop4959" stop-color="#ca654a" offset="0"/><stop id="stop4965" stop-color="#c10c0c" offset=".17862"/><stop id="stop4969" stop-color="#790b0a" offset=".68296"/><stop id="stop4961" stop-color="#453437" offset="1"/></linearGradient><linearGradient id="linearGradient5015" y2="1486.5" gradientUnits="userSpaceOnUse" y1="668.76" gradientTransform="translate(42.738 -427.38)" x2="1839.6" x1="153.21"><stop id="stop4993" stop-color="#343434" offset="0"/><stop id="stop4995" stop-color="#d2d2d2" offset=".60590"/><stop id="stop4997" stop-color="#343434" offset="1"/></linearGradient><filter id="filter5147" height="1.1955" width="1.2413" y="-.097735" x="-.12067" color-interpolation-filters="sRGB"><feGaussianBlur id="feGaussianBlur5149" stdDeviation="11.064545"/></filter><filter id="filter5155" color-interpolation-filters="sRGB"><feGaussianBlur id="feGaussianBlur5157" stdDeviation="22.366407"/></filter><linearGradient id="linearGradient3965" y2="1627.1" gradientUnits="userSpaceOnUse" x2="955.35" y1="1530" x1="947.6"><stop id="stop3961" stop-color="#530610" offset="0"/><stop id="stop3963" stop-color="#dd492c" offset="1"/></linearGradient></defs><g transform="translate(474.02 326.41)"><path id="path4466" d="m3465.1 2704.6c182.9 59.104 427.42 13.079 610.94-28.284 276.6-62.341 500.46-191.34 769.33-96.166 266.82 94.447 410.68 427.38 113.14 650.54-102.58 76.94-177.23 203.68-220.62 384.67-40.606-113.14-63.08-224.91-33.941-339.41 29.098-114.34 39.669-257.48-220.62-141.42-330.75 147.48-654.31 119.29-972.98-22.627z" stroke="#272727" stroke-width="34" fill="#0a0a0a"/></g><g transform="translate(474.02 326.41)"><path id="path4648" fill="#5f5f5f" d="m1626.7 3640.8c-200.26 140.01-415.13 262.51-642.05 370.52 30.649 87.442 52.36 179.35 113.14 251.73-75.425 66.659-150.85 94.016-226.27 118.79-149.71-246.6-228.85-537.5-149.96-927.7l-67.882 33.941v-118.79c182.49-112.14 415.87-137.78 650.54-161.22z"/><path id="path4638" fill="url(#linearGradient4646)" d="m693.28 3693.1-1.4142 162.63c106.23 37.642 200.24 103.81 295.57 166.88l-28.29-193.7c-85.02-63.3-173.32-110.2-265.87-135.8z"/><path id="path4628" fill="url(#linearGradient4636)" d="m867.22 4380.4c76.04-22.661 153.4-40.11 216.37-114.55 80.47 50.042 132.7 125.19 179.61 205.06 42.551 94.803-30.152 157.81-93.338 223.45-110.13-86.956-213.2-187.42-302.64-313.96z"/><path id="path4618" fill="url(#linearGradient4626)" d="m721.56 3442.8c-32.391 239.67-65.033 479.3 42.426 741.05 85.583 246.75 258.38 371.39 415.78 517.6-82.13 52.712-169.15 101.52-288.5 124.45-49.969-6.1826-99.938-1.8206-149.91-50.912-210.21-132.01-260.82-343.82-325.27-548.71-1.8683-229.09 29.797-438.06 65.054-644.88z"/><path id="path4353" d="m524.37 3483.2c228.35-229.2 509.33-256.5 793.33-272.7" stroke="#171717" stroke-width="34" fill="none"/><path id="path4542" fill="#484848" d="m2540.2 3584.2c26.167 217.42 100.62 413.11 277.19 562.86l345.07-181.02-62.225-296.98z"/><path id="path4402" d="m2722.7 4052.6c7.6054 505.33-44.669 1010.3-108 1516-2.5352 20.245 5.0815 41.873 48 44 131.9 6.5376 294.54 8.8107 426-8 28.166-3.6017 56.371-26.28 60-68 42.363-486.99 120.15-1121.8-10-1692" stroke="#171717" stroke-width="34" fill="#484848"/><path id="path4343" style="block-progression:tb;text-indent:0;color:#000000;text-transform:none" d="m948.26 3817.7c5.321 167.42 31.47 311.07 128.73 461.17l28.531-18.5c-92.835-143.27-118.03-278.26-123.26-440.85-1.23-38.271-6.6655-94.007-2.4131-137.1-24.079 47.217-32.801 97.178-31.59 135.28z" fill="#171717"/><path id="path4345" d="m683.81 3844.7c109.16 50.453 210.71 116.15 310.52 185.31" stroke="#171717" stroke-width="34" fill="none"/><path id="path4347" d="m690.82 3688.6c92.077 27.894 184.15 62.797 276.23 155.82" stroke="#171513" stroke-width="34" fill="none"/><path id="path4349" d="m988.3 4007.3c217.7-111 435.8-221.9 612.7-340" stroke="#171717" stroke-width="34" fill="none"/><path id="path4351" d="m478.33 3610.7 31.88-148.8 152.28-120.4-14.17 145.2" stroke="#171717" stroke-width="34" fill="url(#linearGradient4616)"/><path id="path4355" style="block-progression:tb;text-indent:0;color:#000000;text-transform:none" d="m2568.8 3652.2-33.687 4.5626c24.896 184.16 153.35 442.99 297.78 509.56-101.65-103.13-239.66-333.36-264.09-514.13z" fill="#171717"/><path id="path4360" d="m2952.4 4571.9 29.757-298.95-274.12 160.59-24.074 258.02" stroke="#171717" stroke-width="34" fill="url(#linearGradient4550)"/><path id="path4362-7" d="m2585.5 5551.4c-2.1855 43.575 1.011 80.049 56.663 84.994 160.04 14.221 275.53 1.8905 418.06-7.0829 86.995-5.4773 95.594-91.646 95.619-152.28-66.107-23.734-111.14-37.887-177.25-106.96" stroke="#171513" stroke-width="34" fill="url(#linearGradient4574)"/><path id="path4404" d="m3029.6 4933.4c63.168-10.277 118.34-21.154 181.5-42.083 3.195 50.386 4.3321 110.75-11.314 160.19-64.111 15.905-120.22 18.02-184.33 23.314" stroke="#171717" stroke-width="34" fill="url(#linearGradient4566)"/><path id="path4362" d="m2946.4 5629.3c58.586-369.97 85.625-740.82 92.433-1097.8l-362.7 153.02c-25.88 269.33-53.581 574.24-90.604 866.92-5.4754 43.285 1.2569 77.8 56.663 84.994" stroke="#171717" stroke-width="34" fill="url(#linearGradient4558)"/><path id="path4362-7-6" d="m2585.5 5551.4c-2.1855 43.575 1.011 80.049 56.663 84.994 160.04 14.221 275.53 1.8905 418.06-7.0829 86.995-5.4773 95.594-91.646 95.619-152.28-66.107-23.734-111.14-37.887-177.25-106.96" stroke="#171717" stroke-width="34" fill="none"/><path id="path3979" d="m690.82 3755.9-182.01 174.57-69.436-43.534" stroke="#646464" stroke-width="29" fill="none"/><path id="path3981" d="m797.06 4269.4-123.95 258.5-201.86-102.7" stroke="#646464" stroke-width="29" fill="none"/><path id="path3779" d="m866.09 4376.6c96.845-22.827 133.59-30.73 225.41-116.18 102.38 81.811 212.71 246.54 176.07 311.05-90.398 159.16-228.99 218.16-381.97 246.79-43.395 8.1201-77.415 8.844-113.33-17.707-472.7-349.5-346.9-786.3-290.39-1211.2l247.9-148.74c-133.69 578.55 90.133 992.54 439.47 1251.9" stroke="#171717" stroke-width="34" fill="none"/><path id="path3983" d="m3017.5 4952.9-279.7 148.7-92.1-116.9" stroke="#646464" stroke-width="29" fill="none"/><path id="path4019" d="m2995.2 5279.6-280.5 177.8-105.2-102.6" stroke="#646464" stroke-width="29" fill="none"/><path id="path4362-8" d="m2946.4 5629.3c58.586-369.97 85.625-740.82 92.433-1097.8l-362.7 153.02c-25.88 269.33-53.581 574.24-90.604 866.92-5.4754 43.285 1.2569 77.8 56.663 84.994" stroke="#171717" stroke-width="34" fill="none"/></g><g transform="translate(474.02 326.41)" fill="#0a0a0a"><path id="path4481-7" d="m2034 2088c17.834-82.168 38.396-179.45 203.65-203.65 173.64-25.425 258.8-123.62 248.9-277.19-8.411-130.52-18.904-228.17 152.74-260.22 153.55-28.663 177.98-151.36 192.33-260.22-225.59 121.88-587.75-18.842-294.16-282.84 437.5-393.53 149.1-665.81-341.8-738.71-682.2-101.31-291.5-233.09-20.3-279.53-429.1-153.85-912.7-103.84-1221.9 28.28-340.12 145.32-369.84 516.04-260.22 780.65z"/><path id="path4481" d="m2034 2088c17.834-82.168 38.396-179.45 203.65-203.65 173.64-25.425 258.8-123.62 248.9-277.19-8.411-130.52-18.904-228.17 152.74-260.22 153.55-28.663 177.98-151.36 192.33-260.22-225.59 121.88-587.75-18.842-294.16-282.84 437.5-393.53 149.1-665.81-341.8-738.71-682.2-101.31-291.5-233.09-20.3-279.53-429.1-153.85-912.7-103.84-1221.9 28.28-340.12 145.32-369.84 516.04-260.22 780.65z" stroke="#272727" stroke-width="34"/></g><g transform="translate(474.02 326.41)" stroke="#171717" stroke-width="34" fill="#5f5f5f"><path id="path4407" d="m2566.7 3568.6c-108.6 70.752-236.87 121.7-376 156-130.96 32.286-261.2 16.692-392 0-325.41-41.524-521.41-246.44-624-588l1147.7-460.31z"/><path id="path4471" d="m1892.5 1488.4c-47.415-173.91-69.383-342.73-79.196-509.12l-927.69 944.72 130.09 429.9z"/></g><g transform="translate(474.02 326.41)"><path id="path5163" fill="#5f5f5f" d="m3175.5 3889.8 159.02 151.5 460.42-157.96-51.351-177.07z"/><path id="path4455" d="m3705.1 3614.3c248.06 582.77 384.66 1540.4 484.15 2156.3 6.5908 40.808-8.5571 81.355-59.397 84.853-173.12 11.91-347.12 8.3542-520.43 0-78.684-3.7929-85.158-61.855-87.681-124.45-27.075-671.66-129.83-1256.9-254.56-1748" stroke="#171717" stroke-width="34" fill="#5f5f5f"/><path id="path4712" fill="url(#linearGradient4720)" d="m3834.2 5477.9 8.4852 403.05 309.71-7.0711c68.294-40.104 31.652-140.17 26.87-222.03-125.91 23.118-235.33-76.572-345.07-173.95z"/><path id="path4702" fill="url(#linearGradient4710)" d="m3762.1 4562.9c68.072 441.23 68.809 882.47 87.681 1323.7l-265.87-2.8284c-43.388-18.197-93.383-25.381-93.338-115.97-18.203-329.98-46.648-654.31-101.82-984.29z"/><path id="path4410" d="m2322.5 3502.2c-44.595 106.54 0.073 242.41 33.941 362.04 101.05 356.93 249.75 1236.9 283.12 1844.2 6.9487 31.818-10.222 104.14-56.103 112.47-159.92 29.053-293.83 24.533-453.57 6.9917-39.329-4.3188-89.183-57.475-94.912-93.255-107.54-671.65-153.72-1285.4-218.59-1943.9" stroke="#171717" stroke-width="34" fill="#5f5f5f"/><path id="path4684" fill="url(#linearGradient4700)" d="m2362.1 5541.5 25.221 303.61 209.54-23.6c79.828-37.983 43.326-121.59 49.397-193.99-110.98 24.381-194.27-26.005-284.16-86.024z"/><path id="path4674" fill="url(#linearGradient4682)" d="m1884 4735.4 412.95-118.79c18.832 429 29.077 839.08 100.71 1230.4l-349.99-1.8556c-67.321 2.5113-87.97-37.814-102.8-102.8-7.261-340.12-8.3792-673.26-60.874-1006.9z"/><path id="path4658" fill="#5f5f5f" d="m1473.9 3343.8c108.94 198.76 242.93 379.99 427.09 526.09l418.61-350.72 2.8285-206.48z"/><path id="path4412" style="block-progression:tb;text-indent:0;color:#000000;text-transform:none" d="m1483.1 3335.5-29.625 16.687c117.62 208.73 352.28 483.41 468.87 534.18-95.404-108.23-323.08-344.72-439.25-550.87z" fill="#171717"/><path id="path4443" d="m2181 4653.4-16.971-356.38-296.98 217.79 22.627 223.45" stroke="#171717" stroke-width="34" fill="url(#linearGradient4672)"/><path id="path4445" d="m2319.6 4995.6c85.232-21.756 156.62-58.833 236.54-101.82 10.416 48.956 24.047 100.3 23.799 154.59-81.147 43.317-156.97 67.868-243.37 90.166" stroke="#171717" stroke-width="34" fill="url(#linearGradient4670)"/><path id="path4457" d="m3654.7 4632.6-28-396-288 228 56 308" stroke="#171717" stroke-width="34" fill="url(#linearGradient4668)"/><path id="path4461" d="m3809.4 4939.9c87.303-26.756 140.65-45.247 230.36-94.688 17.188 54.812 29.841 114.16 32 184-94.828 46.769-157.78 63.938-252.61 80.944" stroke="#171717" stroke-width="34" fill="url(#linearGradient4666)"/><path id="path4453" style="block-progression:tb;text-indent:0;color:#000000;text-transform:none" d="m3124.3 3779.7-34.375 27.438c90.873 111.68 165.98 215.34 300.22 268.23-106.75-77.107-175.7-184.88-265.85-295.67z" fill="#171717"/><path id="path4021" d="m2316.5 5024.2-277.96 160.27-112.69-100.17" stroke="#646464" stroke-width="29" fill="none"/><path id="path4023" d="m2351.6 5432.4-285.48 187.81-117.7-77.629" stroke="#646464" stroke-width="29" fill="none"/><path id="path4441" d="m2361.7 5521.5c90.667 104.54 171.76 104.43 275.6 107.47 4.6349 63.019 25.077 188.92-67.858 203.11-171.55 26.204-363.17 32.138-536.25 9.9811-40.98-5.246-82.135-32.866-84.485-96.971-11.121-303.32-23.524-663.84-63.777-1002l406.35-128c5.004 406.67 67.116 826.83 100.96 1231" stroke="#171717" stroke-width="34" fill="none"/><path id="path4025" d="m3803.7 4963.5-237.2 162.9-141.7-85" stroke="#646464" stroke-width="29" fill="none"/><path id="path4027" d="m3831.6 5414.9-210.4 180.3-137.7-95.2" stroke="#646464" stroke-width="29" fill="none"/><path id="path4459" d="m3842.7 5878.8c-16.446-408.89-9.0334-919.78-80-1314.1l-372 220c50.786 330.67 92.862 661.36 100 992 0.9849 45.624 18.826 92.916 85.456 100 174.25 18.526 361.17 7.2096 554.54-6.1421 93.773-6.4748 60.4-121.52 41.858-217.37-141.14 3.593-225.31-70.355-345.17-183.8" stroke="#171717" stroke-width="34" fill="none"/></g><g transform="translate(474.02 326.41)"><path id="path4736" fill="url(#linearGradient4744)" d="m3712.2 3351.1c6.3003 150.84-39.31 263.57-277.46 297.5-252.87 24.747-499.03-76.442-744-200-155.51-131.88-313.87-272.29-480-436-161.33-81.025-322.67-149.47-484-188l556-612c98.885-53.309 178.05 11.706 256 84 236.55 94.865 470.49 161.71 704 224 147.76 54.414 294.78 110.82 380 332 65.09 154.92 107.66 312.35 89.462 498.5z"/><path id="path4358" d="m2273.8 2215.3c55.416-24.308 111.55-18.698 166.45 14.381 210.3 126.73 422.23 184.61 637.46 244.14 179.25 49.583 389.83 69.375 523.15 332.56 86.878 171.5 124.65 459.45 112.3 664.92" stroke="#7a1c03" stroke-width="34" fill="none"/><path id="path4463" d="m3745.5 3330c165.59 265.59 64.271 565.3-359.81 550.89 41.428 26.376 66.996 40.472 119.08 45.539-262.84 66.433-565.69-21.523-848.53-277.19 46.527 87.308 81.276 141.73 138.39 186.68-368.31-87.736-608.78-423.46-783.27-633.57 4.9375 38.947 13.012 92.113 45.255 144.25-160.68-58.841-320.69-167.17-475.18-291.33l96.166-244.62c254.55 65.201 487.31 125.64 719.11 377.35 225.86 245.27 520.98 401.4 813.9 450.89 312 52.715 548.42-85.553 534.89-308.9z" stroke="#9f9f9f" stroke-miterlimit="9" stroke-width="34" fill="#fff"/><path id="path4722" style="color:#000000" d="m1906.4 3448.8c0 24.994-13.296 45.255-29.698 45.255s-29.698-20.261-29.698-45.255 13.296-45.255 29.698-45.255 29.698 20.261 29.698 45.255z" transform="matrix(.84887 -.52860 .52860 .84887 -1496.7 1085.8)" fill="#3a3a3a"/><path id="path4724" style="color:#000000" d="m2237.3 3723.1c0 24.994-15.196 45.255-33.941 45.255s-33.941-20.261-33.941-45.255 15.196-45.255 33.941-45.255 33.941 20.261 33.941 45.255z" transform="matrix(.82763 -.56127 .56127 .82763 -1667.1 1451)" fill="#3a3a3a"/><path id="path4726" style="color:#000000" d="m2480.5 3996.1c0 27.337-14.563 49.498-32.527 49.498s-32.527-22.161-32.527-49.498 14.563-49.497 32.527-49.497 32.527 22.161 32.527 49.497z" transform="matrix(.67416 -.73858 .73858 .67416 -2102.5 2682.7)" fill="#3a3a3a"/><path id="path4728" style="color:#000000" d="m2868 4130.4c0 21.869-12.03 39.598-26.87 39.598s-26.87-17.729-26.87-39.598 12.03-39.598 26.87-39.598 26.87 17.729 26.87 39.598z" transform="matrix(.81450 -.58016 .58016 .81450 -1826.5 1984.3)" fill="#3a3a3a"/><path id="path4730" style="color:#000000" d="m3176.3 4226.6c0 15.621-20.261 28.284-45.255 28.284s-45.255-12.663-45.255-28.284 20.261-28.284 45.255-28.284 45.255 12.663 45.255 28.284z" transform="matrix(.97114 .23850 -.23850 .97114 1141.1 -1043.7)" fill="#3a3a3a"/><path id="path4732" style="color:#000000" d="m3510.1 4134.7c0 14.84-21.528 26.87-48.083 26.87-26.556 0-48.083-12.03-48.083-26.87s21.528-26.87 48.083-26.87c26.556 0 48.083 12.03 48.083 26.87z" transform="matrix(.96668 -.25598 .25598 .96668 -900.29 596.57)" fill="#3a3a3a"/><path id="path4734" style="color:#000000" d="m3716.6 4072.4c0 17.964-8.8643 32.527-19.799 32.527s-19.799-14.563-19.799-32.527 8.8643-32.527 19.799-32.527 19.799 14.563 19.799 32.527z" transform="matrix(.97924 .20273 -.20273 .97924 953.57 -1092.2)" fill="#3a3a3a"/></g><g transform="translate(474.02 326.41)"><path id="path4869" fill="url(#linearGradient4877)" d="m1213.7 3148.7 149.91 299.81c49.686-244.01 106.79-487.48 260.22-724.08 167.97-219.06 351.34-428.09 605.28-591.14l-144.2-150c-251.13 108.28-450.3 275.46-588.31 511.95-120.12 194.82-229.84 398.89-282.84 653.37z"/><path id="path4931" fill="url(#linearGradient4939)" d="m1902.7 1444.6c42.16 200 106.48 376.88 184 540-188.54 62.296-344.5 200.61-488 368-192.65 255.02-315.55 522.35-380 800-88.164-268.13-139.71-540.33-160-816 95.536-234.62 227.86-442.95 376-640 134.29-130.52 281.25-233.9 468-252z"/><path id="path4919" fill="url(#linearGradient4927)" d="m1362.7 3446.6 156 194c18.556-319.49 150.1-616.38 328-904 137.34-196.83 300.02-377.82 480-548l-100-56c-212.82 155.89-400.4 321.49-544 504-126.27 206.86-278.8 467.64-320 810z"/><path id="path4909" fill="url(#linearGradient4907)" d="m886.74 2872.6c154 204.22 306.54 413.31 476 566l148 204c-203.14-70.967-398.86-179.04-586-330z"/><path id="path4899" fill="url(#linearGradient4907)" d="m1055.3 2351.7c19.453 251.35 74.098 493.91 135.76 734.7-105.24-164.4-207.18-332.11-291.33-517.6l25.456-387.49z"/><path id="path4889" fill="url(#linearGradient4887)" d="m1054.7 2192.6-4 158c-91.609-108.75-162.07-226.17-206-372l64-54z"/><path id="path4879" fill="url(#linearGradient4887)" d="m1202.9 3118.5 134.25 306.16c-167.4-161.6-299.7-349-445.93-547.6l19.799-313.96c75.683 192.31 185.21 373.34 291.81 555.34z"/><path id="path4857" fill="url(#linearGradient4865)" d="m1058.7 2352.6-10-170c39.65-211.33 108.01-422.67 208-634 220.26-190.7 434.31-232.52 647.1-244.1l5.6569 141.42c-181.4 19.326-330.34 119.78-466.69 251.73-182.63 188.53-282.19 422.37-384.07 654.95z"/><path id="path4855" fill="#5a5a5a" d="m1222.2 1645.3c10.017 92.865 25.266 183.21 21.213 282.84-30.102-31.541-55.629-70.705-96.166-84.853z"/><path id="path4853" fill="#5a5a5a" d="m1650.7 1346.6 70 134 42-158z"/><path id="path4474" d="m1054.8 2214.6c-46.2-91.4-100.37-191.7-146.56-290.6l-62.225 50.912c21.594 126.77 128.43 279.43 212.13 393.15 144.11-397.15 404.27-870.77 851.7-925.24-4.1422-49.706-4.4088-92.023-6-135.42-221.91-6.096-442.62 86.445-650.54 248.9-88.202 230.59-214.48 445.61-197.99 718.42 30.202 499.79 132.79 1027.5 458.21 1369m820.24-1453.8c-118.31-48.139-188.55-123.84-243.24-203.65-383.38 108.33-783.68 662.94-866.81 1172.6-102.09-197.6-237.89-371.62-320.16-598.94-27.834 252.67-11.945 493.35 23.029 746.02 195.15 169.69 376.69 273.19 586.94 339.01 42.491-518.64 348.47-1047.8 820.24-1455.1z" stroke="#171717" stroke-miterlimit="7" stroke-width="34" fill="none"/><path id="path4476" d="m1907.5 1447.8c28.574 186.17 89.788 367.22 180.3 545.62" stroke="#171717" stroke-width="34" fill="none"/><path id="path4478" d="m926.86 2174.7c-25.872 163.17-20.306 293.02-8.7279 433.72" stroke="#171717" stroke-width="34" fill="none"/><path id="path4847" d="m2234.7 2132.6c-381.8 268.23-753.38 586.05-872 1328-165.5-188.29-305.57-345.37-476-600" stroke="#171717" stroke-width="21" fill="none"/><path id="path4851" style="color:#000000" d="m2212 2641c0 11.598-7.6112 21-17 21s-17-9.402-17-21 7.6112-21 17-21 17 9.402 17 21z" transform="translate(42.738 -429.38)" fill="#ccc"/><path id="path4849" style="color:#000000" d="m2088 2566c0 13.255-8.5066 24-19 24s-19-10.745-19-24 8.5066-24 19-24 19 10.745 19 24z" transform="translate(42.738 -425.38)" fill="#ccc"/></g><g transform="translate(474.02 326.41)"><path id="path4748" fill="#5f5f5f" d="m1706.7 976.62-492 664c-106.64 101.36-248.99 169.98-272 348l-228 40-196-164c113.33-4.4197 226.67-0.9339 340-56 150.2-106.46 147.07-249 176-384-90.996 66.304-189.11 118.04-292 160l-360 16c-60.339-61.062-75.276-158.45-100-248 182.27-63.748 216.69-189.75 260-312l580-407.98z"/><path id="path4746" fill="#fff" d="m416.74 1598.6c32.87 99.13 80.554 183.45 136 260 146.24 12.395 262.32-19.436 352-90 81.449-108.68 127.23-222.01 122-342l-246 142c-121.33 19.216-242.67 36.707-364 30z"/><path id="path4491" d="m504.74 1774.6c9.6428 22.651 24.405 48.715 50 82" stroke="#b2bcb9" stroke-width="21" fill="none"/><path id="path4489" d="m1006.7 1558.6c-80.513 45.589-169.49 77.076-266 96-4.2932 39.333-10.387 78.667-20 118-31.425-17.288-47.823-42.089-58-70l-122 4c3.121 28-5.7958 56-24 84-53.985-52.008-75.055-120.47-98-188" stroke="#b2bcb9" stroke-width="21" fill="none"/><path id="path4469" d="m1222.7 1628.6c-116.42 113.2-279.26 211.9-284 360-72 15.247-144 24.211-216 32-84.735-39.449-149.36-93.984-204-156 72-4 144.88-2.8994 216-14.828 216.86-36.376 278.89-213.72 296-425.17-96.507 56.544-165.59 132.59-312 160-91.203 17.073-183.27 10.338-268 16-36.887 2.4651-75.846 7.7388-100-40-31.869-62.988-54.132-139.83-58.828-212.49 100.93-24.404 205.05-141.41 246.54-293.17" stroke="#171717" stroke-width="34" fill="none"/><path id="path4485" d="m632.46 1396.4c7.6415-39.871 75.303-34.655 82.024-1.4142-27.341-8.9469-54.683-8.4951-82.024 1.4142z" stroke="#171717" stroke-miterlimit="24" fill="#171717"/><path id="path4487" d="m351.04 1389.4c19.328-1.095 38.655-1.5235 57.983 8.4853 6.3403-32.191-50.866-45.342-57.983-8.4853z" stroke="#171717" stroke-miterlimit="24" fill="#171717"/></g><g transform="translate(474.02 326.41)"><path id="path4525" d="m866 1680 420-126-8-232-456 174z" clip-path="url(#clipPath4780)" transform="translate(42.738 -427.38)" fill="#71ff27"/><path id="path4519" style="color:#000000" d="m1016 1552c0 87.261-46.562 158-104 158s-104-70.739-104-158 46.562-158 104-158 104 70.739 104 158z" clip-path="url(#clipPath4776)" transform="matrix(1.4622 -.16689 .17162 1.3879 -660.1 -910.21)" fill="url(#linearGradient3965)"/><path id="path4521" style="color:#000000" d="m1028 1489c0 24.853-19.252 45-43 45s-43-20.147-43-45 19.252-45 43-45 43 20.147 43 45z" clip-path="url(#clipPath4772)" transform="translate(42.738 -429.38)" fill="#fff"/><path id="path4523" style="color:#000000" d="m988 1641c0 86.709-43.428 157-97 157s-97-70.291-97-157 43.428-157 97-157 97 70.291 97 157z" clip-path="url(#clipPath4768)" transform="matrix(.99733 -.073092 .073092 .99733 -88.822 -391.87)" fill="#5d0404"/></g><g transform="translate(474.02 326.41)"><path id="path4528" style="block-progression:tb;text-indent:0;color:#000000;text-transform:none" d="m1085.1 1168.9c-66.612 16.458-173.23 45.999-205.87 77.104 37.363-8.8953 144.65-39.348 210.95-55.72 63.018-15.563 180.04-51.052 232.72-61.182-62.323-8.1296-175.06 24.297-237.8 39.798z" fill="#171717"/><path id="path4530" style="block-progression:tb;text-indent:0;color:#000000;text-transform:none" d="m859.8 1082.4c-9.389-19.109-7.8261-27.557-9.0625-51.781-11.169 22.13-18.14 48.633-16.281 75.469 0.30832 4.452 3.6793 8.3674 7.6463 10.411 3.9671 2.0439 8.8929 2.1134 12.916 0.1825 147.38-70.888 375.31-146.53 477.88-190.73-112.39 5.2912-330.25 88.718-473.09 156.45z"/><path id="path5137" filter="url(#filter5147)" fill="#71ff27" d="m1069.4 1002.5c39.483 66.032 34.729 104.7 21.286 174.04 52.696-6.1356 103.39-22.26 152.75-45.075 50.692-61.023 49.846-112.53 41.319-196.58-76.439 6.2526-146.55 32.769-215.36 67.613z"/></g><g transform="translate(474.02 326.41)"><path id="path4536" d="m1587.1 874.6c-47.373 79.118-102.71 158.38-132.94 243.24-58.195 163.39-185.74 263.21-421.44 330.93 120.4 66.939 178.72 146.12 50.912 212.13-120.16 62.058-181.84 98.228-219.73 189.45 98.864-49.755 195.03-92.183 321.55-118.74 152.64-32.031 314.76-68.192 367.7-237.59 27.262-87.243 14.426-187.93 155.56-260.22 75.35-38.592 113.39-86.614 144.25-147.08z" stroke="#272727" stroke-miterlimit="7" stroke-width="34" fill="#0a0a0a"/></g><g transform="translate(474.02 326.41)"><path id="path5038" fill="#919191" d="m1642.2 709.14c113.96-155.69 134.26-370.36 104.52-616.52-44.365 214.45-151.87 374.78-270 526z"/><path id="path5036" fill="#919191" d="m1946.3-5.0373c2.3 270.66-75.1 530.69-246.1 741.05l144.25 96.166 14.142 45.255c213.8-264.41 186.8-703.63 87.7-882.47z"/><path id="path4497-9" fill="url(#linearGradient5015)" d="m1875.6 1180.1c4.3996-123.51-7.2316-215.9-25.456-339.41-373-286.21-780.8-380.83-1202.1-336.61l-56.569 149.91c483.53-21.882 971.17 176.71 1284.1 526.09z"/><path id="path4979" d="m1301.4 781.27c-233.9-92.53-471.36-134.69-712.78-121.63l-147.08 571.34 42.426 149.91 248.9-107.48 84.853-296.98z" stroke="#000" stroke-width="1px" fill="#0a0a0a"/><path id="path4977" fill-opacity=".50196" fill="#fff" d="m1704.7 212.62c-2.552 104-15.572 232-36 312 51.391-69.188 64.722-145.99 92-220l-12-208z"/><path id="path4975" fill-opacity=".50196" fill="#fff" d="m1932.7 206.62c29.354 119.66 15.606 247.22 0 370 59.571-107.29 77.6-252.1 70-396 6.4221-72.362-21.801-115.03-52-156z"/><path id="path4973" fill="#fff" d="m852.74 666.62 194-156 190 28-208 158z"/><path id="path4499" d="m1473.9 617.22c170.5-176.92 221-370.48 268.7-531.75 31.9 192.73 24.3 453.36-96.1 613.77" stroke="#696969" stroke-miterlimit="7" stroke-width="34" fill="none"/><path id="path4501" d="m1855.8 905.72c204.1-313.48 196.3-722.13 90.5-896.62-20.8 248.28-28.6 461.23-246.1 724.08" stroke="#696969" stroke-miterlimit="7" stroke-width="34" fill="none"/><path id="path4505" d="m522.74 916.62 86 150 206-86" stroke="#808080" stroke-width="21" fill="none"/><path id="path4507" d="m488.74 1062.6 76 96 222-84" stroke="#808080" stroke-width="21" fill="none"/><path id="path4509" d="m734.74 498.62c-43.88-103.57-23.275-203.75 34-302-144.08 71.182-148.65 187.27-124 304" stroke="#a01814" stroke-width="21" fill="#d6261b"/><path id="path4513" d="m822.74 498.62c106.77-119.33 113.69-244.67 114-358 104.25 83.33 87.039 267.16 30 356" stroke="#a01814" stroke-width="21" fill="#d6261b"/><path id="path4971" d="m1236.3 540.85-212.13 155.56m-87.681-19.799 206.48-149.91m-79.196-22.627-206.48 155.56" stroke="#4b4b4b" stroke-width="21" fill="none"/><path id="path4503" d="m563.17 784.09c-28.05 144.6-78.608 300.46-127.28 455.38l48.083 144.25 246.07-113.14 84.853-291.33 488.71-199.89" stroke="#171717" stroke-width="34" fill="none"/><path id="path4497" d="m1875.6 1180.1c4.3996-123.51-7.2316-215.9-25.456-339.41-373-286.21-780.8-380.83-1202.1-336.61l-56.569 149.91c483.53-21.882 971.17 176.71 1284.1 526.09z" stroke="#4b4b4b" stroke-width="34" fill="none"/><path id="path4511" style="color:#000000" d="m898 793c0 69.036-38.951 125-87 125s-87-55.964-87-125 38.951-125 87-125 87 55.964 87 125z" transform="matrix(1 0 -.16 1.04 123.62 -460.1)" stroke="#696969" stroke-width="33.34" fill="#919191"/><path id="path4981" style="color:#000000" d="m820 757c0 23.748-14.775 43-33 43s-33-19.252-33-43 14.775-43 33-43 33 19.252 33 43z" fill-opacity=".50196" transform="matrix(1.0829 0.132 -.16040 1.3158 101.92 -772.36)" fill="#fff"/></g><g transform="translate(474.02 326.41)"><path id="path4533" filter="url(#filter5155)" fill="#6658f1" d="m1216.5 1152.6c74.667 5.7743 163.53 46.863 254.2-96 61.782-97.347 257.48-141.63 405.01-100.44 137.03 38.258 232.07-4.7421 210.99-175.56-8.6757-70.323-11.064-160.73 32-216 46.184-59.27 162.91-146.85 152 24-9.7743 153.11 122.06 117.51 180 0 46.552-94.417 91.926-216 80-320-49.983 41.436-83.708 88.851-104 144-23.317 63.372-119.23 87.75-100-32 22.209-138.33-47.843-226.25-196 0-42.081 64.261-84.332 126.94-140 192-40.63 47.483-175.65 91.507-254 36-67.983-48.16-280.12-59.653-226 28 16.843 27.278 2.2709 31.802-20 36-63.817 27.616-98.7 65.889-104 112-4.2835 37.268-17.822 55.337-44 56-60.497 1.5331-78.275 41.438-87.942 87.605 21.747 78.762 9.3293 161.63-38.255 224.39z"/></g><g transform="translate(474.02 326.41)"><path id="path4494" fill="url(#linearGradient4963)" d="m178.74-255.38c143.89 373.98 306.98 685.09 564.2 877.17 131.18 97.956-90.675 304.44-185.17 224.69-269.16-227.2-513.74-627.76-379.03-1101.9z"/></g></svg>