<?xml version="1.0" encoding="UTF-8"?><svg xmlns="http://www.w3.org/2000/svg" xmlns:xlink="http://www.w3.org/1999/xlink" version="1.1" viewBox="-50.55 0 690.6 690.6" width="640.05" height="690.6"><path id="Fill_10_" d="m348.8 339.9c4.2-8.3 41.3-86.5 122.8-67.8 25.3 29.1 46.2 50 43.5 92 11.3 18.3 18.8 54.1 18.3 79.3s14.8 65.4 29.2 82.6c-7.9 3.3 2 14.2-18.5 17.4s-77.5-44-78-55.2-11.2-85-18.2-98c-7-13-28.5-50-35-53.5s-37.5-14.5-57.5 12.5c-8.6-3.1-7.6-7.4-6.6-9.3z" fill="#F5D754"/><path id="Fill" d="m317.3 328.1c2-23 8.7-123 118.2-100.8-16.6 5.5-42.5 20.3-29.3 19.5s48.8 8.6 65.3 25.2c-15.8-2.2-72.8-20.5-123.5 66.5-29.9 1.4-30.7-10.4-30.7-10.4z" fill="#F7AC00"/><path id="Stroke_13_" d="m351.2 347.9c17.5-16.4 45.6-33.9 72.6-13.9 37.6 27.9 38.9 115.9 65.5 158.3 23.6 37.8 50 45.4 72.7 34 5.6-4.3 30.5-30.5 22.2-4.5s-58.7 39.2-86.5 21.7c-27.8-17.4-55.5-78.1-56.3-90.2-3.5-11.5-8.7-38-9.5-42.7s-5.4-43.7-12-53-23.4-33.3-54.1-16.5" fill="#F7AC00"/><path id="Fill_9_" d="m348.1 344.4c43-46.8 110.6-68.8 163.3-14.3 3.8 19 4.3 22.3 2.7 27.5-30.7-43.3-111.2-74-162.8-11.3-2.8 3.3-5.5 0.6-3.2-1.9z" fill="#F7AC00"/><path id="Stroke_4_" d="m317.3 321.3c6-75 50.7-106.9 116.7-94-16.7 4.5-28 12.7-33 18.3 57.7 0 112 50 113 113.7" stroke="#C46E17" stroke-miterlimit="10" stroke-width="5" fill="none"/><path id="Stroke_3_" d="m473.8 274c-52.9-17.4-98.1 14.3-123.5 62.6" stroke="#C46E17" stroke-miterlimit="10" stroke-width="3" fill="none"/><path d="m562.7 527.6s-0.3 0.1-0.9 0.4-1.4 0.7-2.7 1.2c-2.4 1-6 2.3-10.9 3-4.8 0.7-10.9 0.6-17.4-1.2s-13.4-5.5-19.7-10.7c-6.4-5.2-12.4-11.8-17.8-19.4-2.7-3.8-5.3-7.8-7.8-12.1-2.4-4.3-4.5-8.9-6.4-13.6-3.8-9.4-7-19.4-9.8-29.6-2.9-10.2-5.5-20.6-8.3-31-2.7-10.4-5.6-20.7-8.9-30.7s-7.2-19.6-12-28.3c-4.9-8.6-10.9-16.3-18.3-21.4l-1.4-1-1.4-0.9c-0.9-0.6-1.9-1.1-2.8-1.6-1-0.5-2-0.9-2.9-1.4-1-0.4-2-0.8-3-1.1-4-1.3-8-1.9-11.9-1.9-1.9 0.1-3.8 0.2-5.7 0.6-0.5 0.1-0.9 0.2-1.4 0.3-0.4 0.1-0.9 0.2-1.3 0.4-0.9 0.2-1.7 0.5-2.6 0.8-3.3 1.2-6.3 2.7-9 4.2-5.4 3.2-9.8 6.4-13.3 9.3-3.5 2.8-6.1 5.3-7.8 6.9-1.8 1.7-2.7 2.6-2.7 2.6l-6.8-7.3s0.3-0.2 0.8-0.7 1.3-1.1 2.3-2c2-1.7 5-4.1 9.1-6.8 4.1-2.6 9.4-5.7 15.9-7.9 3.3-1.1 6.8-2.1 10.6-2.6 1-0.1 1.9-0.3 2.9-0.4 0.5-0.1 1-0.1 1.5-0.2 0.5 0 1-0.1 1.5-0.1 2-0.1 4-0.2 6.1-0.2 4.2 0.1 8.5 0.7 12.8 2.1 1.1 0.3 2.1 0.8 3.2 1.2 1 0.5 2.1 0.9 3.1 1.5 1 0.5 2.1 1.1 3.1 1.7l1.5 0.9 1.4 1c7.9 5.4 14.2 13.5 19.2 22.3 5 8.9 8.9 18.7 12.3 28.8s6.2 20.5 9 30.9c2.7 10.4 5.4 20.8 8.2 30.9 2.9 10.1 6 20 9.7 29.3 1.9 4.6 3.9 9.1 6.3 13.2 2.3 4.1 4.9 8.1 7.6 11.8 5.3 7.4 11.1 13.9 17.2 18.8 6.1 5 12.6 8.4 18.7 10.1s11.7 1.8 16.2 1.1c4.5-0.6 7.9-1.9 10.1-2.8 0.6-0.2 1-0.4 1.5-0.6 0.4-0.2 0.8-0.4 1.1-0.5 0.6-0.3 0.9-0.4 0.9-0.4l1.1 3.1z" fill="#C46E17"/><path d="m352.8 341l2.8-1.4c1-0.5 2-0.9 3-1.4 2-0.9 4-1.8 6.1-2.5 4.1-1.5 8.4-2.7 12.8-3.4 4.4-0.6 8.8-0.8 13.3-0.5 4.4 0.4 8.9 1.6 12.9 3.7s7.5 5 10.4 8.3 5.3 7 7.3 10.8c4 7.7 6.4 15.9 8.3 24.1 0.9 4.1 1.6 8.3 2.2 12.5l0.8 6.2c0.3 2.1 0.5 4.1 0.8 6.2 1.2 8.1 2.6 16.3 4.3 24.4 3.4 16.2 7.8 32.1 13.9 47.4 3 7.7 6.5 15.1 10.4 22.3 1.9 3.6 4.1 7.1 6.3 10.6 2.3 3.4 4.6 6.8 7.1 9.9 1.2 1.6 2.6 3.1 3.9 4.7l2.1 2.3c0.7 0.8 1.4 1.5 2.1 2.2 2.8 2.9 5.9 5.6 9 8.1 3.2 2.5 6.5 4.7 10 6.7s7.1 3.6 10.9 4.7c7.6 2.2 15.8 2.7 23.7 1.8 8-0.9 15.8-3.2 22.8-7 7-3.7 13.3-8.9 17.8-15.4 2.2-3.2 4-6.8 5.1-10.5 1.2-3.7 1.7-7.6 1.7-11.5l4.5 1.5c-0.9 1.1-1.8 2.3-2.7 3.4s-1.9 2.2-2.9 3.2l-1.5 1.5c-0.5 0.5-1 1-1.6 1.5-1.1 1-2.1 1.9-3.2 2.8s-2.2 1.8-3.4 2.7-2.3 1.7-3.6 2.5c-1.2 0.8-2.4 1.5-3.7 2.3-1.3 0.7-2.5 1.4-3.8 2l-2.2-4.5c1.2-0.6 2.4-1.2 3.6-1.9s2.3-1.4 3.4-2.1 2.2-1.5 3.3-2.3 2.1-1.6 3.2-2.5c1-0.9 2-1.7 3-2.7 0.5-0.5 1-0.9 1.5-1.4s1-0.9 1.4-1.4c0.9-1 1.8-2 2.7-3s1.7-2.1 2.5-3.1l4.5-5.8v7.3c0 4.4-0.6 8.8-1.9 13s-3.3 8.2-5.8 11.8c-5 7.3-11.9 12.9-19.6 16.9s-16 6.5-24.6 7.5-17.3 0.4-25.7-2c-4.2-1.2-8.2-2.9-12-5.1-3.7-2.1-7.3-4.5-10.7-7.1s-6.6-5.5-9.5-8.5c-0.8-0.7-1.5-1.5-2.2-2.3l-2.1-2.4c-1.4-1.6-2.8-3.2-4.1-4.9-2.7-3.3-5.1-6.8-7.4-10.3-2.3-3.6-4.5-7.2-6.5-10.9-4-7.4-7.6-15.1-10.6-22.9-6.2-15.6-10.7-31.8-14.1-48.2-1.7-8.2-3.1-16.4-4.3-24.7-0.3-2.1-0.6-4.1-0.8-6.2l-0.8-6.2c-0.6-4.1-1.3-8.1-2.1-12.1-1.8-8-4.2-15.8-7.8-22.9s-8.8-13.4-15.6-17c-3.4-1.8-7.1-2.8-11-3.1-3.9-0.4-7.8 0.3-11.5 1.5s-7.3 2.8-10.8 4.7c-1.7 1-3.4 2-5.1 3.1-0.8 0.5-1.6 1.1-2.5 1.7-0.8 0.6-1.6 1.2-2.6 1.8l-5.1-8.5z" fill="#C46E17"/><path id="Stroke_1_" d="m355.3 340.3c63-55.3 137.2-24.1 163.3 27.3 19.3 38 6 115.8 43.3 157.9" stroke="#C46E17" stroke-miterlimit="10" stroke-width="5" fill="none"/><path d="m508.5 330.9s-0.4-0.6-1.2-1.6c-0.4-0.5-0.9-1.2-1.5-1.8-0.6-0.7-1.2-1.5-2.1-2.3-1.7-1.7-3.7-3.7-6.4-5.7-2.6-2.1-5.7-4.1-9.2-6.2-3.5-2-7.5-4-11.9-5.8-4.4-1.7-9.1-3.3-14.1-4.5s-10.2-2.1-15.6-2.5-10.8-0.5-16.3 0c-1.4 0.1-2.7 0.3-4.1 0.4l-2 0.2-2 0.3c-1.3 0.2-2.7 0.4-4 0.7l-3.9 0.9c-1.3 0.3-2.6 0.7-3.9 1.1s-2.6 0.7-3.8 1.2-2.5 0.9-3.7 1.4c-0.6 0.2-1.2 0.4-1.8 0.7s-1.2 0.5-1.8 0.8c-1.2 0.5-2.3 1-3.5 1.5s-2.2 1.1-3.3 1.7-2.2 1.1-3.3 1.7c-1 0.6-2.1 1.2-3.1 1.8l-3 1.8c-0.9 0.6-1.9 1.3-2.8 1.9s-1.8 1.2-2.7 1.9c-0.8 0.7-1.6 1.3-2.4 2-3.2 2.5-5.9 5.2-8.4 7.4-2.3 2.4-4.4 4.5-6 6.2-3.1 3.6-4.9 5.7-4.9 5.7l-3.8-3.3s2-2 5.4-5.5c1.8-1.7 4-3.7 6.5-6 2.7-2.1 5.6-4.7 9.1-7.1 0.9-0.6 1.7-1.2 2.6-1.9 0.9-0.6 1.9-1.2 2.8-1.8s1.9-1.3 2.9-1.9 2-1.2 3.1-1.8c1-0.6 2.1-1.2 3.2-1.9 1.1-0.6 2.2-1.1 3.3-1.7s2.3-1.2 3.4-1.7c1.2-0.5 2.4-1 3.6-1.6 0.6-0.3 1.2-0.5 1.8-0.8 0.6-0.2 1.3-0.5 1.9-0.7 1.3-0.5 2.5-0.9 3.8-1.4 1.3-0.4 2.6-0.8 3.9-1.2s2.6-0.8 4-1.1c1.3-0.3 2.7-0.6 4.1-0.9s2.8-0.5 4.1-0.7l2.1-0.4 2.1-0.2c1.4-0.1 2.8-0.3 4.2-0.4 5.6-0.4 11.3-0.4 16.8 0 5.5 0.5 10.9 1.4 16 2.6 5.1 1.3 10 2.9 14.5 4.7 4.5 1.9 8.6 3.9 12.3 6 3.6 2.2 6.9 4.3 9.6 6.5 2.7 2.1 4.9 4.2 6.7 6 0.9 0.9 1.6 1.8 2.3 2.5s1.1 1.4 1.5 1.9c0.8 1 1.2 1.6 1.2 1.6l-2.3 1.3z" fill="#C46E17"/><path id="Fill_1_" d="m257.2 348.9c43-1.7 112.8 101.1 112.1 132.4-0.2 9.6-70.7-36.3-92-38.7s-137.6-77.2-138-85c-1-22 6.4-43-17.2-39.3-20.4 3.3-55.7 7.7-89.7-15.1 7.9-1.6 0.7-13.6-17.1-14.6-30-39.8-2.3-40.6 1.6-40.1-2-12.5-9.6-69.7 21.7-103s154.4-37 164.4-18.6 37.3 84.4 36.3 92.8c-1 8.3-10.2 86.7-9.9 98.7 0.3 11.9-24 32.6 27.8 30.5z" fill="#86ECD9"/><path d="m312.3 480.3c-1.6-4.8-0.9-13.8 2.5-22.7 1.1-2.7-0.1-4.8-1.2-7.5-8.4 1.7-24.8 4.1-38.4 9.2-13.9 5.2-13.3 4-6.4 16 15.1 26 40.4 73.7 21.7 174.7 17.7 2.3 52 5 55-22.3s13.7-67.7-13-143.3c-3.3-9.4-10.9-12.9-21.3-11.6" fill="#74DED1"/><path d="m312.3 480.3c-0.2-0.3-0.3-0.6-0.5-0.9l-0.4-0.9c-0.3-0.6-0.5-1.3-0.7-1.9-0.4-1.3-0.6-2.7-0.8-4-0.1-0.7-0.1-1.4-0.2-2v-2c0.1-1.4 0.2-2.7 0.4-4.1 0.1-0.7 0.3-1.3 0.5-2s0.4-1.3 0.6-2c0.2-0.6 0.4-1.3 0.6-1.9l0.7-1.8 0.2-0.4v-0.2c0-0.2 0.1-0.4 0.1-0.5 0-0.4 0-0.8-0.1-1.2-0.2-0.9-0.7-2-1.3-3.3l2.8 1.5c-5.1 1-10 1.8-15 2.8-4.9 1-9.8 2.1-14.6 3.5-2.4 0.7-4.8 1.4-7.1 2.3-2.3 0.8-4.8 1.8-7.1 2.6-1.1 0.4-2.3 0.9-3.1 1.4-0.1 0.1-0.2 0.1-0.3 0.2s-0.2 0.1-0.2 0.2c-0.1 0-0.1 0.1-0.1 0.1v-0.1 0.1c0.1 0.5 0.6 1.7 1.2 2.7 0.6 1.1 1.2 2.1 1.9 3.2 2.6 4.4 5.1 8.8 7.5 13.4s4.6 9.2 6.7 13.9c2 4.7 3.9 9.6 5.5 14.5s3 9.8 4.3 14.9c1.2 5 2.3 10 3.1 15.1 0.4 2.5 0.8 5.1 1.1 7.6 0.3 2.6 0.6 5.1 0.8 7.7s0.5 5.1 0.6 7.7l0.2 3.8 0.1 3.8c0.2 5.1 0.2 10.3 0.1 15.4s-0.3 10.2-0.7 15.4c-0.4 5.1-0.8 10.2-1.4 15.3-0.3 2.5-0.6 5.1-0.9 7.6s-0.7 5.1-1.1 7.6c-0.7 5.1-1.6 10.1-2.5 15.1l-2.1-2.9c4.9 0.6 9.8 1.1 14.6 1.3 4.9 0.2 9.7 0 14.4-0.7s9.3-2.1 13.2-4.4 6.9-5.8 8.5-10c0.8-2.1 1.3-4.3 1.5-6.6l0.9-7.5c0.7-5 1.4-9.9 1.9-14.8 1.2-9.8 1.8-19.7 1.7-29.5 0-4.9-0.3-9.8-0.6-14.8-0.4-4.9-0.9-9.8-1.6-14.7s-1.5-9.8-2.5-14.6c-0.5-2.4-1-4.8-1.5-7.3-0.6-2.4-1.1-4.8-1.7-7.2-1.2-4.8-2.5-9.6-4-14.3l-1.1-3.6-1.1-3.5c-0.7-2.4-1.5-4.7-2.3-7-0.4-1.2-0.8-2.4-1.2-3.5-0.2-0.6-0.4-1-0.6-1.5s-0.5-1-0.8-1.4c-1.1-1.9-2.5-3.4-4.3-4.6-3.5-2.3-8.2-2.7-12.8-2.1l-0.6-5c2.6-0.3 5.4-0.4 8.1 0s5.5 1.3 8 2.9c2.4 1.6 4.5 3.8 5.9 6.2 0.4 0.6 0.7 1.2 1 1.9 0.3 0.6 0.6 1.4 0.8 1.9 0.5 1.3 0.8 2.4 1.2 3.6 0.8 2.4 1.6 4.7 2.4 7.1l1.2 3.6 1.1 3.6c1.5 4.8 2.8 9.6 4 14.5 0.6 2.4 1.2 4.9 1.8 7.3 0.5 2.5 1.1 4.9 1.6 7.4 1 4.9 1.8 9.9 2.5 14.9s1.2 10 1.6 15 0.6 10.1 0.6 15.1c0.1 10.1-0.6 20.2-1.7 30.1-0.6 5-1.3 9.9-1.9 14.9-0.3 2.5-0.6 4.9-0.9 7.4-0.3 2.6-0.8 5.3-1.8 7.9s-2.4 5-4.2 7.1-4 3.9-6.3 5.3c-4.7 2.8-9.9 4.3-15 5.1s-10.3 1-15.4 0.8-10.1-0.7-15.1-1.3l-2.6-0.3 0.5-2.6c0.9-5 1.8-10 2.5-15 0.4-2.5 0.7-5 1.1-7.5 0.3-2.5 0.7-5 0.9-7.5 0.6-5 1-10 1.4-15.1 0.3-5 0.6-10.1 0.7-15.1s0.1-10.1-0.1-15.1l-0.1-3.8-0.2-3.8c-0.1-2.5-0.4-5-0.6-7.5s-0.6-5-0.8-7.5c-0.4-2.5-0.7-5-1.1-7.5-0.8-5-1.8-9.9-3-14.8s-2.6-9.7-4.1-14.5c-1.6-4.8-3.3-9.5-5.3-14.1s-4.1-9.1-6.5-13.6c-2.3-4.4-4.8-8.8-7.4-13.2-0.6-1.1-1.3-2.2-1.9-3.4s-1.3-2.3-1.7-4.3c-0.1-0.5-0.1-1.1 0-1.8s0.4-1.3 0.8-1.8c0.7-1 1.5-1.5 2.2-2 1.4-0.8 2.6-1.3 3.8-1.8 2.5-0.9 4.7-1.8 7.2-2.7s4.9-1.7 7.4-2.4c5-1.4 10-2.6 15-3.6s10.1-1.9 15-2.8l2-0.4 0.8 1.9c0.5 1.1 1.1 2.4 1.5 4 0.2 0.8 0.3 1.7 0.3 2.6 0 0.5-0.1 0.9-0.2 1.4l-0.2 0.8-0.2 0.5-0.7 1.8-0.6 1.8c-0.2 0.6-0.4 1.2-0.5 1.8-0.2 0.6-0.3 1.2-0.5 1.8s-0.4 1.2-0.5 1.8c-0.2 0.6-0.3 1.2-0.5 1.8l-0.9 3.6c-0.1 0.6-0.2 1.2-0.4 1.8-0.1 0.6-0.2 1.2-0.3 1.9-0.1 0.6-0.1 1.3-0.2 1.9v1c-0.3 0.3-0.3 0.7-0.3 1z" fill="#2FB5B5"/><path id="Hind_Leg_F" d="m171 457c-8.3 54.6-41.7 150.6-66 178.6-8.1 9.3-26.8 29.6 45.7 23.3 27-2.3 30.9-16.2 40.7-46 13.3-40.5 22.7-104 19.3-142.7" stroke="#2FB5B5" stroke-miterlimit="10" stroke-width="5" fill="#74DED1"/><path id="Fore_Leg_B" d="m311.4 451.6c14.9 20.7 80.6 105.7 50.9 196.3-7.7 23.5-2.9 31.5 62.7 25.3 24.7-2.3 27.3-10.3 17.7-65.7-9.7-55.3-33.7-103.7-40-114.3-6.3-10.7-11.6-18.1-25.8-14" stroke="#2FB5B5" stroke-miterlimit="10" stroke-width="5" fill="#86ECD9"/><path d="m238.7 348.3c108.4-79.2 154.6 35.8 142.3 93.7-3.3 15.7-6 32.3-2.3 44" fill="#86ECD9"/><path d="m237.2 346.2s0.9-0.6 2.6-1.8c0.8-0.6 1.8-1.3 3.1-2.2 1.3-0.8 2.7-1.8 4.3-2.9 1.6-1 3.4-2.2 5.4-3.4s4.2-2.5 6.6-3.7c4.8-2.5 10.3-5.2 16.5-7.5 6.3-2.3 13.3-4.3 21-5.3 3.8-0.5 7.8-0.7 11.9-0.6s8.2 0.6 12.4 1.5c8.3 1.8 16.5 5.4 23.7 10.6 7.3 5.2 13.5 11.8 18.7 19 5.2 7.3 9.3 15.2 12.6 23.4 3.2 8.1 5.6 16.4 7.1 24.6s2.3 16.2 2.3 23.9c0 7.6-0.8 14.9-2.2 21.5-1.3 6.4-2.4 12.2-3 17.4-0.3 2.6-0.5 5-0.7 7.2-0.3 2.2-0.3 4.3-0.5 6.1-0.4 3.7-0.5 6.7-0.4 8.7 0 1 0.1 1.8 0.1 2.3s0.1 0.8 0.1 0.8-0.1-0.2-0.4-0.7c-0.2-0.5-0.6-1.2-1-2.2-0.8-1.9-1.8-4.9-2.4-8.9-0.3-2-0.3-4.1-0.3-6.5 0.1-2.4 0.3-4.9 0.7-7.6 0.7-5.4 1.7-11.3 3.1-17.8 1.4-6.2 2.1-13.1 2.1-20.4s-0.7-15.1-2.2-22.9c-1.5-7.9-3.8-15.9-6.9-23.7s-7.1-15.4-12-22.3-10.8-13.1-17.6-17.9c-6.7-4.8-14.3-8.1-21.9-9.8-3.8-0.8-7.7-1.3-11.5-1.4s-7.5 0.1-11.1 0.6c-7.2 1-13.9 2.8-19.9 5s-11.3 4.8-15.9 7.2c-2.3 1.2-4.4 2.5-6.4 3.6-1.9 1.2-3.7 2.3-5.3 3.3s-2.9 2-4.2 2.8c-1.2 0.8-2.2 1.6-3.1 2.1-1.7 1.2-2.6 1.8-2.6 1.8l-2.8-3.9z" fill="#2FB5B5"/><path d="m322.7 436.8c-11.3 44.6-70.6 53.6-118.7 42.2-79.9-19-89.9-103.8-71.1-162.9" fill="#86ECD9"/><path d="m322.7 436.8s0 0.3-0.1 1c0 0.7-0.1 1.6-0.3 2.9-0.4 2.5-1.2 6.3-3.2 10.7-1 2.2-2.5 4.5-4.2 6.9-1.8 2.3-4 4.6-6.5 6.9-5 4.5-11.5 8.7-19 12s-16.1 5.7-25.3 7.2c-9.2 1.4-19 1.9-29.2 1.5-10.1-0.4-20.5-1.8-30.9-4.3-10.4-2.4-20.7-6.2-30.2-11.6s-18-12.5-25-20.7-12.4-17.4-16.4-26.8-6.5-18.9-8.1-28.1-2.1-18-2.1-26c0-16.2 2.3-29.6 4.4-38.8 1-4.6 2-8.2 2.8-10.6 0.7-2.4 1.1-3.7 1.1-3.7l4.8 1.5s-0.4 1.3-1.1 3.6c-0.7 2.4-1.7 5.8-2.7 10.3-2 8.9-4.2 21.9-4.2 37.7 0 7.8 0.6 16.4 2.1 25.2s4 18 7.8 27 8.9 17.7 15.6 25.5c6.6 7.8 14.7 14.4 23.7 19.6 9 5.1 18.8 8.8 28.8 11.1s20.1 3.7 29.9 4.1 19.3 0 28.2-1.4c8.8-1.4 17-3.7 24.1-6.8s13.1-7 17.6-11.1c2.3-2.1 4.3-4.2 5.9-6.3 1.7-2 3.1-4 4.4-5.9 2.6-3.6 4.4-6.8 5.6-9 0.3-0.6 0.5-1 0.8-1.5 0.2-0.4 0.4-0.8 0.5-1.1 0.2-0.7 0.4-1 0.4-1z" fill="#2FB5B5"/><path d="m252.2 460.3c25.7 37.4 48.2 133.9 42.7 202.3-1.5 18.5 2.1 26.3-75.5 21.7-26.3-1.6-18.7-14.2-8.9-34.9 7-14.9 15.7-52.3 16.6-95.6 0.6-30.7-0.5-67.4-10.9-89" fill="#86ECD9"/><path d="m252.2 460.3s0.5 0.3 1.3 1c0.9 0.7 2.1 1.6 3.6 3.1 3 2.9 6.7 7.6 10.5 14.2 0.5 0.8 1 1.6 1.5 2.5 0.5 0.8 0.8 1.8 1.2 2.8 0.8 1.9 1.6 3.9 2.5 6 0.8 2.1 1.6 4.3 2.5 6.6 0.8 2.3 1.7 4.6 2.5 7.1 3.3 9.8 6.7 21 9.7 33.4 1.5 6.2 2.9 12.6 4.3 19.3 1.3 6.7 2.6 13.7 3.7 20.9s2.1 14.6 3 22.2c0.8 7.6 1.5 15.4 1.9 23.4s0.6 16.1 0.4 24.3c0 2.1-0.1 4.1-0.2 6.2l-0.1 3.1-0.2 3.1c-0.1 2-0.3 4.1-0.4 6.1s-0.3 4.2-0.6 6.6c-0.4 2.4-1.1 5.1-2.7 7.7s-4.1 4.6-6.4 5.8c-2.4 1.3-4.7 2-7 2.6s-4.5 1-6.7 1.3c-4.4 0.6-8.7 0.8-13 1-4.3 0.1-8.5 0.1-12.8 0.1-8.5-0.1-16.9-0.5-25.3-0.9-2.1-0.1-4.2-0.2-6.3-0.4-1-0.1-2.2-0.2-3.3-0.3s-2.3-0.3-3.4-0.5c-2.3-0.4-4.7-1-7.2-2.1-1.2-0.6-2.5-1.3-3.7-2.3s-2.4-2.3-3.2-3.9c-0.8-1.5-1.3-3.2-1.4-4.7-0.2-1.5-0.1-3 0.1-4.3 0.4-2.6 1.1-4.9 1.8-7 1.5-4.2 3.3-8 5.1-11.6 0.8-1.8 1.7-3.6 2.5-5.3l1.2-2.8 1-2.6c1.3-3.5 2.5-7.2 3.5-10.9 2-7.4 3.7-14.8 5-22.1s2.4-14.5 3.2-21.6c1.7-14.1 2.3-27.5 2.4-40s-0.1-23.9-0.8-33.9-1.8-18.7-3.2-25.6c-0.3-3.6-0.6-6.7-1-9.5-0.1-1.4-0.3-2.7-0.4-3.9s-0.2-2.3-0.3-3.3c-0.1-2-0.3-3.5-0.3-4.6-0.1-1.1 0-1.7 0-1.7s0.2 0.5 0.6 1.4c0.2 0.5 0.5 1 0.7 1.7 0.3 0.7 0.6 1.5 1 2.4 1.4 3.7 3.1 9.2 4.5 16.4s2.6 16 3.3 26.2 1 21.7 0.8 34.3-0.7 26.2-2.4 40.5c-0.8 7.2-1.9 14.5-3.2 21.9-1.4 7.4-3 15-5.1 22.6-1 3.8-2.2 7.6-3.6 11.3-1.3 3.8-3.1 7.4-4.9 11-1.7 3.7-3.5 7.3-4.9 11.2-0.7 1.9-1.3 3.9-1.6 5.9s-0.2 4.2 0.8 6 2.7 3.1 4.6 4 3.9 1.4 6 1.7c4.1 0.7 8.3 0.8 12.4 1.1 8.3 0.4 16.7 0.8 25.1 0.9s16.8 0 25.1-1c4.1-0.6 8.3-1.4 12-3.3 1.8-1 3.5-2.3 4.6-4.1s1.7-3.8 2-5.8 0.4-4.1 0.6-6.1c0.1-2 0.3-4.1 0.4-6.1l0.2-3.1 0.1-3.1c0.1-2 0.2-4.1 0.2-6.1 0.2-8.1 0-16.1-0.4-23.9s-1.1-15.6-1.9-23.1-1.8-14.9-2.9-22-2.4-14-3.7-20.7c-1.4-6.6-2.8-13-4.3-19.1-3-12.2-6.3-23.3-9.6-33s-6.6-17.9-9.7-24.6-5.8-11.7-7.9-15.1c-1-1.7-1.9-2.9-2.4-3.8-0.7-0.7-1-1.1-1-1.1z" fill="#2FB5B5"/><path d="m367.2 406.7c-2.1-1.6-3.1-2.5-5.3-4.1-2.3 2.2-3.5 3.3-5.9 5.5 1.3-3.7 1.8-5.6 2.6-9.4-2.3-1.1-3.4-1.6-5.7-2.6 2.7-0.4 4.1-0.6 6.8-1 0.6-3.2 0.8-4.9 1-8.1 1.4 3 2.1 4.5 3.2 7.5 2.7-0.4 4-0.6 6.7-1-2 2.3-3 3.4-5.2 5.7 0.9 3 1.2 4.5 1.8 7.5z" fill="#FEE685"/><path d="m238.7 373.3c-46.1 36.1-0.1 108.3 63.9 75.3 39.1-20.1 54-46.7 62.5-75.3s-19.3-44.8-96-4.9c11.3 2.6 18.6 10.6 17.8 18 16.9-4.3 42.8 9.3 23.3 31.9 6 13.3-3.5 24.8-25.9 37.2" fill="#86ECD9"/><path d="m238.7 373.3c-2.7 2.9-5.1 5.9-7.3 9.1-2.1 3.2-3.8 6.5-5.3 9.9-0.8 1.7-1.3 3.5-1.9 5.2-0.5 1.8-1 3.6-1.3 5.4-0.6 3.6-0.7 7.4-0.2 11 0.8 7.3 3.6 14.5 8 20.5 4.3 6.1 10.1 11.1 16.7 14.5s14 5.3 21.5 5.5 15-1.1 22.2-3.6c3.6-1.2 7.1-2.8 10.4-4.5 3.5-1.8 6.8-3.7 10.1-5.7 6.5-4 12.8-8.6 18.5-13.7s10.8-10.8 15.3-17.1c4.4-6.2 8.1-13 11.2-20 1.5-3.5 2.9-7.1 4.1-10.8 0.6-1.8 1.2-3.7 1.8-5.5l0.2-0.7 0.1-0.3 0.1-0.4c0.1-0.5 0.3-1 0.4-1.4 0.2-0.8 0.4-1.8 0.5-2.6 0.6-3.6 0.5-7.2-0.6-10.4s-3.3-5.8-6.3-7.5-6.5-2.7-10.2-3.1-7.4-0.3-11.2 0.1c-7.5 0.8-15.1 2.6-22.4 4.9-7.4 2.3-14.6 5.1-21.7 8.2s-14.1 6.5-21 10.1l-0.6-4.7c4.8 1.1 9.4 3.2 13.3 6.6 1.9 1.7 3.6 3.7 4.8 6.1s1.9 5.2 1.6 8l-3.1-2.7c5-1.2 10.2-1.1 15.1 0.1 2.5 0.6 4.9 1.5 7.1 2.7 2.3 1.2 4.4 2.7 6.3 4.7 1.8 1.9 3.3 4.3 4.1 7s0.8 5.5 0.3 8.2c-0.5 2.6-1.6 5.1-2.8 7.3-1.3 2.2-2.8 4.2-4.4 6.1l0.4-2.7c0.5 1.1 0.9 2.1 1.2 3.3 0.3 1.1 0.5 2.3 0.7 3.5 0.1 1.2 0.1 2.4 0 3.6s-0.3 2.4-0.7 3.5c-0.3 1.1-0.8 2.3-1.3 3.3-0.5 1.1-1.1 2.1-1.7 3-1.3 1.9-2.7 3.6-4.3 5.2-1.5 1.6-3.2 3-4.9 4.4s-3.4 2.6-5.2 3.8c-3.5 2.4-7.2 4.6-10.9 6.6l-2.4-4.4c3.6-2 7.1-4.1 10.5-6.4 1.7-1.2 3.3-2.3 4.9-3.6s3.1-2.6 4.4-4c1.4-1.4 2.6-2.9 3.7-4.5 0.5-0.8 1-1.6 1.4-2.4s0.7-1.7 1-2.5c0.2-0.9 0.4-1.7 0.5-2.6s0.1-1.8 0-2.7-0.2-1.8-0.5-2.6c-0.2-0.9-0.6-1.7-0.9-2.6l-0.6-1.5 1-1.2c1.4-1.7 2.8-3.4 3.8-5.3 1.1-1.9 1.9-3.8 2.3-5.8s0.4-3.9-0.2-5.8c-0.5-1.8-1.6-3.5-3-5s-3.1-2.7-5-3.7-3.9-1.7-6-2.2c-4.2-1-8.7-1.1-12.7-0.1l-3.5 0.8 0.4-3.5c0.2-1.7-0.2-3.5-1.1-5.2s-2.1-3.3-3.7-4.6c-3.1-2.7-7-4.5-11.1-5.5l-6.5-1.6 5.9-3c7-3.6 14.1-7.1 21.3-10.2 7.2-3.2 14.6-6 22.2-8.4s15.4-4.3 23.4-5.1c4-0.4 8.1-0.5 12.3 0 4.1 0.5 8.3 1.5 12.1 3.7 1.9 1.1 3.7 2.5 5.1 4.3 1.5 1.7 2.6 3.7 3.4 5.8 1.5 4.2 1.5 8.7 0.8 12.8-0.2 1-0.4 2-0.6 3.1-0.1 0.5-0.3 1-0.4 1.5l-0.2 0.8-0.2 0.7-1.8 5.7c-1.3 3.8-2.7 7.5-4.3 11.2-3.2 7.3-7 14.4-11.7 20.9-4.6 6.5-10 12.5-16 17.9-5.9 5.4-12.4 10.1-19.2 14.3-3.4 2.1-6.9 4-10.4 5.8-3.6 1.9-7.3 3.5-11.1 4.8-7.6 2.7-15.8 4.2-24 3.9-4.1-0.1-8.2-0.7-12.2-1.7s-7.8-2.5-11.5-4.4c-7.3-3.8-13.7-9.3-18.4-16.1-4.8-6.7-7.9-14.6-8.8-22.8-0.5-4.1-0.4-8.3 0.3-12.4 0.3-2 0.8-4.1 1.4-6.1 0.7-2 1.4-3.9 2.4-5.7 0.9-1.9 2-3.6 3.2-5.3 1.3-1.6 2.6-3.2 4-4.6 2.9-2.5 6.1-5 9.6-6.9z" fill="#2FB5B5"/><path id="Wing_Detail_2_" d="m286.3 379c10.3-5.3 65-32.6 65-32.6" stroke="#2FB5B5" stroke-miterlimit="10" stroke-width="3" fill="none"/><line id="Wing_Detail_1_" y2="357.6" stroke-width="3" x2="365.8" stroke="#2FB5B5" stroke-miterlimit="10" y1="391.8" x1="311.6" fill="none"/><line id="Wing_Detail" y2="387.6" stroke-width="3" x2="360.1" stroke="#2FB5B5" stroke-miterlimit="10" y1="424.5" x1="311.8" fill="none"/><defs><path id="Eye_White_1_" d="m33.7 150.6c-24.8 36.1-19.5 83-16.7 99 7.7-0.2 12.3-3.6 16.1-9.2 1.9-2.9 3.7-6.2 5.5-10.1 7.6-16.7 10.8-43.7 5.5-75.5-3.1-1.6-10.4-4.2-10.4-4.2z"/></defs><use overflow="visible" xlink:href="#Eye_White_1_" fill="#FFFFFF"/><clipPath id="Eye_White_2_"><use overflow="visible" xlink:href="#Eye_White_1_"/></clipPath><linearGradient id="Iris_2_" y2="239.55" gradientUnits="userSpaceOnUse" x2="10.194" y1="178.42" x1="45.485"><stop stop-color="#AC5621" offset="0"/><stop stop-color="#F7AC00" offset="1"/></linearGradient><path id="Iris_1_" d="m40.7 209.8c-1.3 21.4-8.2 38.5-15.3 38-7.1-0.4-11.8-18.2-10.5-39.6s8.2-38.5 15.3-38c7.1 0.4 11.8 18.1 10.5 39.6z" fill="url(#Iris_2_)" clip-path="url(#Eye_White_2_)"/><ellipse id="Pupil_1_" clip-path="url(#Eye_White_2_)" rx="9.1" transform="matrix(.9971 .075636 -.075636 .9971 16.467 -1.1085)" ry="34.1" cy="216.9" cx="22.9"/><ellipse id="Shine_B_1_" clip-path="url(#Eye_White_2_)" rx="5.5" transform="matrix(.9993 -.037167 .037167 .9993 -7.5065 1.2832)" ry="16.9" cy="202.5" cx="30.8" fill="#fff"/><ellipse id="Shine_S_1_" clip-path="url(#Eye_White_2_)" rx="2.4" transform="matrix(.9898 -.1424 .1424 .9898 -32.047 5.7205)" ry="5" cy="226.7" cx="23.9" fill="#fff"/><path d="m35.2 151.3s-0.2 0.3-0.6 1c-0.4 0.6-1 1.5-1.7 2.7-0.3 0.6-0.7 1.3-1.1 2s-0.8 1.5-1.3 2.4c-0.4 0.9-0.9 1.8-1.4 2.7-0.5 1-0.9 2-1.4 3.1s-0.9 2.2-1.4 3.4c-0.2 0.6-0.5 1.2-0.7 1.8s-0.5 1.3-0.7 1.9c-0.5 1.3-1 2.6-1.4 4s-0.9 2.8-1.3 4.2c-0.5 1.4-0.8 2.9-1.2 4.4s-0.8 3-1.1 4.5c-0.6 3.1-1.3 6.2-1.7 9.3-0.2 1.6-0.5 3.1-0.7 4.7s-0.3 3.2-0.5 4.7c-0.4 3.1-0.4 6.2-0.6 9.2 0 0.7-0.1 1.5-0.1 2.2v2.2 4.2c0 1.4 0 2.7 0.1 4s0.1 2.5 0.2 3.7c0.2 2.4 0.2 4.6 0.4 6.5s0.4 3.6 0.6 5c0.3 2.8 0.5 4.4 0.5 4.4l-3 0.4s-0.2-1.6-0.6-4.4c-0.2-1.4-0.4-3.1-0.7-5.1s-0.4-4.2-0.6-6.6c-0.1-1.2-0.2-2.5-0.3-3.8s-0.1-2.7-0.1-4.1-0.1-2.8-0.1-4.3c0-0.7-0.1-1.5 0-2.2 0-0.8 0-1.5 0.1-2.3 0.1-3.1 0.1-6.2 0.4-9.4 0.1-1.6 0.3-3.2 0.4-4.8 0.2-1.6 0.4-3.2 0.6-4.9 0.4-3.3 1-6.5 1.6-9.6 0.3-1.6 0.7-3.1 1-4.7 0.4-1.5 0.7-3.1 1.1-4.5 0.4-1.5 0.8-2.9 1.3-4.4 0.4-1.4 0.9-2.8 1.4-4.1 0.2-0.7 0.5-1.3 0.7-2 0.2-0.6 0.5-1.3 0.7-1.9 0.5-1.2 0.9-2.5 1.4-3.6s1-2.2 1.4-3.3c0.5-1 1-2 1.4-2.9s0.9-1.8 1.3-2.5c0.4-0.8 0.8-1.5 1.1-2.1 0.7-1.3 1.3-2.3 1.7-2.9s0.6-1 0.6-1l4.3 2.8z" fill="#2FB5B5"/><defs><path id="SVGID_1_" d="m4.3 164c-0.4 6 16.5 5.3 21.5 5.8 0.8-2.2 2.5-5.8 3.8-8.5 0.2-0.5 1.1-2.2 2.2-4.1 0.9-1.7 2-3.6 2.5-4.2-1.4-1.7-17.6-15.3-19.8-12.8s-9.8 17.8-10.2 23.8z"/></defs><clipPath id="SVGID_2_"><use overflow="visible" xlink:href="#SVGID_1_"/></clipPath><g clip-path="url(#SVGID_2_)"><path d="m27.4 166.7s-1.1-0.4-2.7-1.1-3.7-1.6-5.8-2.5-4.2-1.8-5.8-2.5-2.6-1.2-2.6-1.2c-0.5-0.2-0.7-0.8-0.5-1.3s0.7-0.7 1.2-0.6c0 0 1.1 0.3 2.8 0.8s3.9 1.2 6.1 1.8c2.2 0.7 4.4 1.4 6 1.9s2.7 0.9 2.7 0.9c1.1 0.3 1.6 1.5 1.3 2.5-0.3 1.1-1.5 1.6-2.5 1.3-0.1 0.1-0.1 0-0.2 0z"/></g><g clip-path="url(#SVGID_2_)"><path d="m31.7 156.5s-0.9-0.7-2.3-1.7c-1.4-1.1-3.2-2.5-5-3.9s-3.6-2.9-5-3.9c-1.3-1.1-2.2-1.8-2.2-1.8-0.4-0.3-0.5-1-0.2-1.4s0.9-0.5 1.3-0.2l2.5 1.5c1.5 0.9 3.4 2.1 5.4 3.3 1.9 1.2 3.9 2.4 5.3 3.4 1.5 0.9 2.4 1.5 2.4 1.5 0.9 0.6 1.2 1.8 0.6 2.8-0.6 0.9-1.8 1.2-2.8 0.6 0.1-0.1 0.1-0.1 0-0.2z"/></g><path d="m44 153.2l0.3 0.9c0.2 0.6 0.6 1.5 0.9 2.8 0.4 1.2 0.8 2.7 1.2 4.4s0.8 3.6 1.2 5.7c0.7 4.2 1.2 9.2 1.3 14.5v4.1c0 1.4-0.1 2.8-0.1 4.2l-0.3 4.2c-0.1 1.4-0.3 2.8-0.4 4.2l-0.6 4.2c-0.2 1.4-0.5 2.8-0.7 4.1-0.3 1.4-0.6 2.7-0.9 4s-0.7 2.6-1 3.9c-0.4 1.3-0.7 2.5-1.1 3.8-0.4 1.2-0.8 2.4-1.2 3.5-0.9 2.3-1.7 4.4-2.6 6.3s-1.8 3.6-2.6 5.2c-0.8 1.5-1.6 2.8-2.3 3.8-1.4 2-2.2 3.2-2.2 3.2s0.6-1.3 1.8-3.4c0.5-1.1 1.2-2.4 1.9-4s1.5-3.3 2.1-5.3c0.8-1.9 1.5-4.1 2.2-6.4 0.3-1.1 0.7-2.3 1-3.5s0.6-2.4 0.9-3.7 0.5-2.6 0.8-3.9c0.2-1.3 0.5-2.7 0.7-4 0.2-1.4 0.4-2.7 0.6-4.1 0.1-1.4 0.3-2.8 0.4-4.1 0.1-1.4 0.2-2.8 0.3-4.1 0-1.4 0.1-2.7 0.1-4.1v-4c-0.1-1.3-0.1-2.6-0.1-3.9-0.1-2.6-0.4-5.1-0.7-7.4s-0.7-4.6-1-6.6c-0.4-2-0.8-3.9-1.2-5.5s-0.8-3-1.2-4.1c-0.3-1.1-0.7-2-0.9-2.6s-0.4-0.9-0.4-0.9l3.8-1.4z"/><defs><ellipse id="Eye_White" rx="43.5" ry="58.7" transform="matrix(-.7765 -.6301 .6301 -.7765 77.029 485.37)" cy="229" cx="124.6"/></defs><use overflow="visible" xlink:href="#Eye_White" fill="#FFFFFF"/><clipPath id="Eye_White_3_"><use overflow="visible" xlink:href="#Eye_White"/></clipPath><linearGradient id="Iris_3_" y2="284.31" gradientUnits="userSpaceOnUse" x2="102.45" y1="190.09" x1="102.45"><stop stop-color="#AC5621" offset="0"/><stop stop-color="#F7AC00" offset="1"/></linearGradient><path id="Iris" d="m130.6 240.5c-3.1 26-18.1 45.5-33.7 43.7-15.5-1.8-25.7-24.4-22.6-50.3 3.1-26 18.1-45.5 33.7-43.7 15.5 1.8 25.6 24.4 22.6 50.3z" fill="url(#Iris_3_)" clip-path="url(#Eye_White_3_)"/><polygon id="Highlight_L" opacity=".67" clip-path="url(#Eye_White_3_)" display="none" points="120.5 278 92.5 255.6 127.1 268.3" fill="#fff"/><polygon id="Highlight_D" opacity=".33" clip-path="url(#Eye_White_3_)" display="none" points="132 256.7 92.5 255.6 127.1 268.3" fill="#fff"/><ellipse id="Pupil" clip-path="url(#Eye_White_3_)" rx="22.2" transform="matrix(.983 .1835 -.1835 .983 45.468 -13.127)" ry="37" cy="239.1" cx="93.7"/><ellipse id="Shine_B" clip-path="url(#Eye_White_3_)" rx="11" transform="matrix(.9957 -.092382 .092382 .9957 -20.488 11.447)" ry="20" cy="227" cx="113.4" fill="#fff"/><ellipse id="Shine_S" clip-path="url(#Eye_White_3_)" rx="4.2" transform="matrix(.9334 -.3588 .3588 .9334 -84.082 52.092)" ry="5.7" cy="252.6" cx="98.3" fill="#fff"/><path d="m195.1 222c-3.1 0.5-6.1 1-9.2 1.4-1.5 0.2-3.1 0.3-4.6 0.5s-3.1 0.3-4.7 0.5l-2.9 0.3 0.3-3c0.8-6.8 0.7-13.7-1.1-20.1-0.9-3.2-2.2-6.3-4-9-1.8-2.8-4-5.2-6.7-7.2-2.6-2-5.6-3.5-8.8-4.6s-6.5-1.7-9.9-1.9c-6.8-0.4-13.7 0.6-20.3 2.7s-12.8 5.3-18.5 9.2c-5.7 4-10.8 8.8-15.1 14.3-2.2 2.7-4.1 5.7-5.8 8.7s-3.2 6.2-4.5 9.5c-1.2 3.3-2.3 6.6-3.1 10s-1.4 6.9-1.7 10.4c0-3.5 0.3-7.1 0.9-10.6s1.4-7 2.6-10.4c1.1-3.4 2.5-6.7 4.2-9.9s3.6-6.2 5.7-9.1c4.3-5.8 9.4-10.9 15.2-15.2s12.2-7.7 19.1-10.1c6.8-2.4 14.1-3.7 21.5-3.4 3.7 0.1 7.4 0.7 10.9 1.8 3.6 1.1 7 2.7 10.1 5 3.1 2.2 5.8 4.9 7.9 8.1 2.1 3.1 3.7 6.6 4.8 10.2 2.1 7.2 2.3 14.7 1.6 22l-2.6-2.8c1.5 0 3.1 0.1 4.6 0.1s3.1 0.1 4.6 0.1c3.1 0 6.2 0.1 9.3 0.3 0.6 0 1 0.5 0.9 1.1 0.1 0.7-0.3 1-0.7 1.1z"/><path d="m175.6 202s1.3-0.3 3.4-0.7c2-0.4 4.7-0.9 7.4-1.5s5.4-1 7.4-1.4 3.4-0.6 3.4-0.6c0.5-0.1 1.1 0.3 1.1 0.8 0.1 0.5-0.2 0.9-0.6 1.1 0 0-1.3 0.5-3.2 1.2s-4.5 1.6-7.1 2.5-5.2 1.7-7.2 2.4c-2 0.6-3.3 1-3.3 1-1.3 0.4-2.7-0.3-3.1-1.6s0.3-2.7 1.6-3.1c0.1-0.1 0.2-0.1 0.2-0.1z"/><path d="m167.9 186.3s4.1-2.7 8.4-5.3c2.1-1.3 4.2-2.6 5.8-3.5 0.8-0.5 1.5-0.8 2-1.1s0.8-0.4 0.8-0.4c0.5-0.3 1.1-0.1 1.4 0.4 0.2 0.4 0.1 0.9-0.2 1.2l-0.6 0.6c-0.4 0.4-1 0.9-1.7 1.5-1.4 1.2-3.3 2.8-5.2 4.4-3.8 3.2-7.7 6.3-7.7 6.3-1.1 0.9-2.7 0.7-3.5-0.4-0.9-1.1-0.7-2.7 0.4-3.5 0-0.1 0.1-0.1 0.1-0.2z"/><path id="Teeth" d="m43.9 274.3c-1.8 1.7-9.4 13.4-18.4 16.4 0.4 2.6 8.9 11.6 11.5 10.9 2.5-0.7 10.1-10.9 10.1-13.2-0.1-2.2-0.5-16.7-3.2-14.1z" fill="#fff"/><line id="Teeth_Stroke" y2="302.5" stroke-width="3" x2="35.6" stroke="#B0D8E7" stroke-miterlimit="10" y1="289.6" x1="23.8" fill="none"/><path d="m48.4 282.5s-0.1 0.2-0.2 0.5l-0.3 0.6c-0.1 0.2-0.3 0.5-0.4 0.8l-0.6 0.9c-0.2 0.3-0.5 0.6-0.7 0.9l-0.9 0.9-0.9 0.9c-0.3 0.3-0.7 0.5-1 0.8-0.3 0.2-0.7 0.5-1 0.7s-0.7 0.4-1 0.6-0.6 0.3-0.9 0.5c-0.6 0.3-1 0.5-1.4 0.6-0.3 0.1-0.5 0.2-0.5 0.2s0.6-0.6 1.5-1.4c0.4-0.4 0.9-0.9 1.4-1.5 0.2-0.3 0.5-0.6 0.8-0.9s0.5-0.6 0.7-0.9 0.5-0.6 0.7-0.9l0.6-0.9c0.2-0.3 0.3-0.6 0.5-0.9 0.1-0.3 0.2-0.5 0.4-0.8 0.1-0.2 0.2-0.5 0.3-0.7s0.2-0.4 0.2-0.6c0.1-0.3 0.2-0.5 0.2-0.5l2.5 1.1z" fill="#B0D8E7"/><path d="m146.5 309.5c-1.8 1.8-3.9 3.2-6 4.6-2.2 1.3-4.4 2.5-6.7 3.5-1.2 0.5-2.4 1-3.6 1.4s-2.4 0.8-3.7 1c-1.2 0.3-2.5 0.6-3.8 0.8-0.6 0.1-1.3 0.2-1.9 0.3l-1.8 0.2c-5 0.6-9.9 1.1-14.9 1.3-5 0.3-10 0.3-15 0.2-2.5-0.1-5-0.2-7.5-0.4s-5-0.5-7.5-0.8-5-0.8-7.4-1.3c-2.5-0.5-4.9-1.1-7.4-1.7-2.4-0.7-4.9-1.4-7.2-2.3-2.4-0.8-4.7-1.8-7.1-2.8-1.1-0.5-2.3-1-3.4-1.6l-1.7-0.9-1.7-0.9c-2.2-1.2-4.4-2.6-6.5-4l-3.4-2.3 3.6-2c2.7-1.3 5.1-2.9 7.3-4.8 1.1-1 2-2 2.9-3.2l1.2-1.8c0.4-0.6 0.7-1.2 1-1.9s0.5-1.3 0.7-2 0.4-1.4 0.5-2.1c0.1-0.4 0.1-0.7 0.1-1.1s0.1-0.7 0.1-1.1v-2.2c0-0.7-0.1-1.5-0.2-2.2s-0.3-1.5-0.4-2.2c-0.2-0.7-0.4-1.5-0.6-2.2s-0.5-1.4-0.7-2.2l1.9-0.1c-0.7 2.3-1.8 4.3-3.2 6.3-1.3 1.9-2.9 3.7-4.6 5.2-1.7 1.6-3.6 3-5.8 4.1-2.1 1.1-4.5 2-7 2.4-2.5 0.3-5.2 0.2-7.6-0.6-2.5-0.9-4.6-2.3-6.5-4-1.8-1.7-3.4-3.6-4.7-5.6s-2.4-4.1-3.3-6.2c-1-2.2-1.8-4.4-2.3-6.8s-0.8-4.9-0.5-7.4c0.3-2.6 1.2-5.3 3-7.4 1.8-2.2 4.4-3.6 7-4.2 1.3-0.3 2.6-0.4 3.9-0.3 0.3 0 0.7 0 1 0.1 0.2 0 0.3 0 0.5 0.1h0.2 0.1-0.1 0.1l0.8 0.1 0.4 0.1h0.3l0.6 0.1h0.7c0.5 0 0.9-0.1 1.4-0.1 0.9-0.1 1.9-0.3 2.8-0.6 1.9-0.6 3.6-1.8 5.3-3.1 1.7-1.4 3.3-2.9 4.8-4.6-0.9 2.1-2 4.1-3.4 5.9-1.4 1.9-3 3.7-5.1 5-1 0.7-2.2 1.2-3.5 1.6-1.3 0.3-2.5 0.6-3.9 0.5h-0.5-0.4-0.8-0.5-0.3-0.7c-0.9 0-1.8 0-2.7 0.2-1.7 0.4-3.2 1.3-4.2 2.5-1.1 1.3-1.7 2.9-1.9 4.8-0.2 1.8 0 3.8 0.4 5.8s1.1 4 2 5.8c0.9 2 1.8 3.8 3 5.5 1.1 1.7 2.4 3.3 3.8 4.6s3.1 2.3 4.8 3c1.7 0.6 3.6 1 5.5 0.9 3.9-0.2 7.8-2 11.1-4.5 1.7-1.3 3.2-2.7 4.6-4.3s2.6-3.4 3.3-5.3l0.8-2.5 1.1 2.5c0.3 0.7 0.7 1.5 1 2.2s0.6 1.5 0.8 2.3 0.5 1.6 0.6 2.4c0.2 0.8 0.3 1.6 0.5 2.4 0.1 0.8 0.2 1.6 0.2 2.5v1.3c0 0.4 0 0.8-0.1 1.3-0.1 0.8-0.2 1.7-0.4 2.5s-0.4 1.7-0.7 2.5-0.6 1.6-1 2.4-0.8 1.5-1.2 2.2c-0.9 1.4-2 2.8-3.1 4-2.3 2.5-5 4.5-7.9 6.1l0.2-4.3c2 1.3 4 2.6 6.1 3.8l1.6 0.9 1.6 0.8c1.1 0.6 2.2 1 3.2 1.5 2.2 1 4.4 1.9 6.7 2.7s4.6 1.5 6.9 2.2c2.3 0.6 4.7 1.2 7 1.7 2.4 0.5 4.8 0.9 7.1 1.2 2.4 0.3 4.8 0.6 7.2 0.8s4.8 0.3 7.3 0.4c4.9 0.1 9.7 0.1 14.6-0.2s9.7-0.7 14.6-1.3l1.8-0.2 1.8-0.3c1.2-0.1 2.4-0.3 3.5-0.5 1.2-0.2 2.3-0.4 3.5-0.7 1.2-0.2 2.3-0.5 3.5-0.7 2.4-0.5 4.7-1.1 7-1.8 1.2-0.4 2.3-0.8 3.5-1.2 1.3-0.7 2.5-1.2 3.6-1.7z" fill="#2FB5B5"/><path id="Nose" d="m30.6 263.9c-1.2 8.8-7.9 4.5-9.3 2.1 3 1.4 6.6 1.9 9.3-2.1z" fill="#2FB5B5"/><path id="Fill_7_" d="m11.1 62.6c-2.8 8.3-21.6 50.3 9 78.6 10.8 10 27.7 17.3 57.6 14.2 36.9-18.1 62.8-38.8 116.8-22.8s40.4 43.8 39.3 61.7c-0.5 8.8-4.7 46.9-7.2 85.3-2.6 39.8 31.5 2.1 27-10.4 9.6-8.6 19.4-28.9 19.2 2.2 3.9-2.5 37.6-56.4 33.1-138.1-21.9-96.7-87.9-130.5-129.2-130.8-31-0.2-70 16.8-85.8 51.1-15.9 34.4-35.2 70-48.9 56s-27.5-26.3-28.2-32.1-2.7-14.9-2.7-14.9z" fill="#F5D754"/><path id="Fill_6_" d="m237.3 321.4c3.8-4.6 16.6-25.3 15.6-51.5-10.3 7.4-15.9 10.6-12.6-0.7s8.7-61.2-0.6-76.6c-4.9 11.6-9.1 25.3-10.3 44.8-1.1 19.6-4.7 53.1-3.5 58.2 1.2 5 11.4 25.8 11.4 25.8z" fill="#F7AC00"/><path id="Fill_8_" d="m227.1 370.3c3.2 4.5 28.9-33.7-9.2-86-22.2 13.7-8.2 71.9-0.7 78.4 7.5 6.4 8.8 6.1 9.9 7.6z" fill="#F5D754"/><path id="Stroke_11_" d="m219.5 285.2c17.8 26.1 28.2 56.6 11.3 84.4" stroke="#C46E17" stroke-miterlimit="10" stroke-width="5" fill="none"/><path id="Fill_5_" d="m251.7 108.7c11.8 1.3 33.9 4 52.3 22.2 4.9 23.8 1.9 97-32.4 143.8 0.3-16 2.2-65-21.4-102.1 3.9-15.6 7.9-51 1.5-63.9z" fill="#F7AC00"/><path id="Fill_4_" d="m194.5 119c-5.1 2.3-21.7 7.1-9.3 10.8 7.1 4.7 9.3-10.8 9.3-10.8z" fill="#F7AC00"/><path id="Fill_3_" d="m79.1 154.1c5.8-0.9 33-24.1 81-27.3 3.2-11.7 55-81.8 121.2-59.4-8.9-11.4-25.6-34.5-33.3-34.7-85.2-24.3-151.6 69.9-168.9 121.4z" fill="#F7AC00"/><path id="Fill_2_" d="m90.4 52.5c3.3-3.8-2.9-4.7 0.8-23.9-6.7 1.6-50.8 30.4-37.2 77.3-10.4-4.4-28.7-14.7-30-48.4-4.9 10.1-18 39 9.3 58.7 27.3 14.4 33 11.7 38.4 20.9 4.4-5.5 5.1-10 4.2-14.7-1.1-4.6 4.5-58.4 14.5-69.9z" fill="#F7AC00"/><path id="Stroke_10_" d="m252.9 269.8c0.1 10.3 1.5 27-15.6 53.1" stroke="#C46E17" stroke-miterlimit="10" stroke-width="5" fill="none"/><path id="Stroke_9_" d="m241.6 192.5c2.4 15.8 4.9 45.8-3.3 87.3 5.2-3.1 23.3-14.8 33.2-29.3" stroke="#C46E17" stroke-miterlimit="10" stroke-width="5" fill="none"/><path id="Stroke_8_" d="m250.2 172.5c8.7 14.9 24.9 45.9 20.9 107.4 39.6-73.6 41.8-136 24.9-180.8-53.2-141-243.3-132.1-217.9 56.3" stroke="#C46E17" stroke-miterlimit="10" stroke-width="5" fill="none"/><path id="Stroke_7_" d="m189.8 130.2c-9.5-3.9-59.3-10.7-102.8 21.1-15.8 11.5-64.8 11.1-80.8-30-5.5-14-4.2-36.4 5.8-60.8 2.2 22.5 3.1 50.7 33.7 62.5 19 7.3 26.6 9.8 32.4 32.4" stroke="#C46E17" stroke-miterlimit="10" stroke-width="5" fill="none"/><path id="Stroke_6_" d="m18.4 96.2c-3-14-0.8-29.1 5.5-41.1 0.5 13.5 3 37.3 20.3 46.8s27.5 23.3 34 53.5" stroke="#C46E17" stroke-miterlimit="10" stroke-width="5" fill="none"/><path id="Stroke_5_" d="m55.3 109.6c-14.6-34 13-71.6 36.7-84.3-3.7 12.5-4.2 21.8-1.2 28.3" stroke="#C46E17" stroke-miterlimit="10" stroke-width="5" fill="none"/><path id="Detail_3_" d="m78.1 155.4c47-115.5 125.5-139.3 173.6-121.6" stroke="#C46E17" stroke-miterlimit="10" stroke-width="3" fill="none"/><path id="Detail_2_" d="m159.2 126.9c14.2-26.8 67.2-80.7 121.2-59.4" stroke="#C46E17" stroke-miterlimit="10" stroke-width="3" fill="none"/><path id="Detail_1_" d="m177.9 127.6c13.2-9 77.7-39.9 126.1 2.2" stroke="#C46E17" stroke-miterlimit="10" stroke-width="3" fill="none"/><path id="Detail" d="m305.9 162.1c-11.1-13.3-19.3-31.3-57.8-38.3" stroke="#C46E17" stroke-miterlimit="10" stroke-width="3" fill="none"/><path d="m224.7 217.6c4.9-5.6 49.5-57.6 22.3-119.4-6.8-15.4-14.5-19.2-33.7-0.9-11 10.5-22.2 25.4-31.5 52.5" fill="#86ECD9"/><path d="m224.7 217.6l0.3-0.6 0.9-1.8c0.8-1.6 2-3.8 3.5-6.6 0.7-1.4 1.6-2.9 2.7-4.5 0.5-0.8 1-1.7 1.5-2.5 0.6-0.9 1.1-1.8 1.7-2.7 2.3-3.7 4.7-8.1 7-12.9 4.6-9.7 8.7-21.7 10.3-35.1 0.8-6.6 1-13.6 0.3-20.6-0.6-7-2.1-14-4.2-20.8-1.1-3.4-2.3-6.7-3.8-10-0.7-1.7-1.5-3.2-2.3-4.7s-1.7-2.9-2.8-4c-1-1.2-2.2-2.1-3.3-2.6-0.6-0.3-1.2-0.4-1.9-0.5-0.7 0-1.3-0.1-2 0.1-2.8 0.4-5.7 2.1-8.4 3.9-2.7 1.9-5.2 4-7.5 6.2-0.6 0.5-1.2 1.1-1.7 1.6-0.6 0.6-1.2 1.1-1.7 1.7-1.1 1.1-2.2 2.2-3.2 3.4-4.2 4.5-7.5 9.3-10.5 13.7-3 4.5-5.4 8.8-7.6 12.6-1.1 1.9-2.1 3.7-3 5.4s-1.7 3.3-2.4 4.7c-2.8 5.8-4.5 9-4.5 9s0.2-0.9 0.6-2.6c0.2-0.8 0.4-1.9 0.8-3.1 0.3-1.2 0.7-2.6 1.2-4.1 1-3.1 2.2-6.8 3.9-11s4-8.8 7-13.5c1.5-2.4 3.1-4.8 5-7.2 1.8-2.4 3.8-4.8 6-7.2 1.1-1.2 2.2-2.4 3.4-3.6 0.6-0.6 1.2-1.1 1.7-1.7 0.6-0.6 1.2-1.2 1.8-1.7 2.5-2.3 5.1-4.5 8.1-6.6 1.5-1 3.1-2 4.8-2.8s3.6-1.6 5.7-1.9c1-0.2 2.2-0.2 3.3-0.1 1.1 0.2 2.2 0.4 3.3 0.9 2.1 0.9 3.8 2.3 5.1 3.9 2.7 3.1 4.4 6.6 5.9 10s2.8 6.9 4 10.5c2.3 7.1 3.8 14.5 4.5 21.9s0.5 14.7-0.3 21.6c-1.7 14-6 26.5-10.8 36.6-2.4 5.1-4.9 9.5-7.2 13.4-0.6 1-1.2 1.9-1.7 2.8-0.6 0.9-1.2 1.7-1.8 2.5-1.1 1.6-2.3 3-3.4 4.2-2.3 2.4-4.3 4-5.6 5.1-0.7 0.5-1.3 0.9-1.6 1.2-0.9 0-1.1 0.1-1.1 0.1z" fill="#2FB5B5"/><path d="m233.8 126.9s0.2 1 0.5 2.8c0.1 0.9 0.3 2 0.4 3.3s0.3 2.7 0.3 4.3 0.1 3.3 0 5.1c0 0.9-0.1 1.8-0.1 2.8-0.1 0.9-0.2 1.9-0.3 2.9s-0.2 2-0.4 3-0.3 2-0.5 3-0.4 2-0.7 3.1c-0.3 1-0.6 2-0.8 3.1-0.3 1-0.7 2-1 3s-0.7 2-1.1 2.9c-0.8 1.9-1.7 3.8-2.6 5.5-1 1.7-1.9 3.4-3 4.9-0.5 0.7-1 1.5-1.5 2.2s-1 1.3-1.5 1.9c-0.9 1.3-1.9 2.3-2.8 3.3-0.8 1-1.6 1.7-2.3 2.4-1.3 1.3-2.1 2-2.1 2s0.4-1 1.3-2.6c0.4-0.8 0.9-1.8 1.5-2.9s1.2-2.3 1.9-3.7c0.3-0.7 0.7-1.4 1.1-2.1 0.3-0.7 0.7-1.5 1.1-2.3 0.8-1.5 1.4-3.2 2.2-4.9 0.7-1.7 1.4-3.5 2.1-5.4 0.4-0.9 0.7-1.8 1-2.8 0.3-0.9 0.6-1.9 0.9-2.8 0.3-1 0.6-1.9 0.8-2.9s0.5-1.9 0.7-2.9c0.5-1.9 0.9-3.8 1.3-5.6 0.2-0.9 0.4-1.8 0.5-2.7 0.2-0.9 0.3-1.8 0.5-2.6 0.3-1.7 0.6-3.3 0.8-4.9 0.3-1.5 0.5-2.9 0.7-4.1s0.4-2.3 0.5-3.2c0.4-2.1 0.6-3.1 0.6-3.1z" fill="#2FB5B5"/><path id="Fill_Fix" d="m233.9 372.5c0.7-0.7 0-1.9 0-1.9-0.5 0-3.7-2.8-5.4-4.6-5.8-5.9-2.2-35-3.1-47.4-1-12.3 5.5-45-5.8-45.7s-17.6 38.5-16.6 48.4-10 61.6 6.5 61.6 24.4-10.4 24.4-10.4z" fill="#86ECD9"/><path d="m233.3 370.3s-0.2 0-0.5-0.1c-0.3 0-0.8-0.2-1.4-0.6-0.3-0.2-0.6-0.4-0.9-0.7l-0.5-0.5c-0.1-0.1-0.2-0.2-0.3-0.2l-0.1-0.1c-0.1-0.1 0 0 0-0.1l-0.1-0.1c-0.3-0.4-0.6-0.7-0.9-1.1-0.2-0.2-0.3-0.4-0.5-0.7-0.1-0.3-0.3-0.5-0.4-0.8l-0.9-1.8c-0.3-0.6-0.5-1.2-0.8-1.9-0.5-1.4-0.8-2.9-1.2-4.5-0.5-3.2-1-6.8-1.2-10.8-0.3-3.9-0.5-8.2-0.7-12.7-0.1-4.5-0.2-9.2-0.1-14.1 0-4.9 0.1-9.9 0.3-15.1 0.2-5.1 0.4-10.3 0.6-15.5 1-20.8 2.7-41.6 4.3-57.1 0.8-7.8 1.5-14.2 2.1-18.8 0.6-4.5 1-7.1 1-7.1l4.9 0.7s-0.4 2.5-1 7-1.3 10.9-2.1 18.7c-1.5 15.5-3.3 36.2-4.3 56.9-0.3 5.2-0.5 10.4-0.6 15.4-0.1 5.1-0.3 10.1-0.3 15 0 4.8 0 9.5 0.1 14 0.1 4.4 0.3 8.6 0.6 12.4s0.7 7.3 1.2 10.3c0.2 1.5 0.4 3 0.6 4.2 0.1 0.6 0.1 1.3 0.2 1.9s0.1 1.1 0.2 1.6c0 0.3 0.1 0.5 0.1 0.8s0.1 0.5 0.2 0.8c0.1 0.5 0.2 1 0.4 1.4 0 0.3 0.2 0.7 0.3 1s0.3 0.6 0.4 0.9c0.3 0.5 0.5 0.8 0.8 1 0.4 0.3 0.5 0.4 0.5 0.4z" fill="#2FB5B5"/></svg>