<?xml version="1.0" encoding="UTF-8" standalone="no"?>
<!-- Created with Inkscape (http://www.inkscape.org/) -->

<svg
   xmlns:dc="http://purl.org/dc/elements/1.1/"
   xmlns:cc="http://creativecommons.org/ns#"
   xmlns:rdf="http://www.w3.org/1999/02/22-rdf-syntax-ns#"
   xmlns:svg="http://www.w3.org/2000/svg"
   xmlns="http://www.w3.org/2000/svg"
   xmlns:xlink="http://www.w3.org/1999/xlink"
   xmlns:sodipodi="http://sodipodi.sourceforge.net/DTD/sodipodi-0.dtd"
   xmlns:inkscape="http://www.inkscape.org/namespaces/inkscape"
   width="5874.0068"
   height="5874.0005"
   id="svg2998"
   version="1.1"
   inkscape:version="0.48.4 r9939"
   sodipodi:docname="Lotus.svg">
  <title
     id="title3017">Lotus</title>
  <defs
     id="defs3000">
    <linearGradient
       inkscape:collect="always"
       id="linearGradient4217">
      <stop
         style="stop-color:#3b76bc;stop-opacity:1"
         offset="0"
         id="stop4219" />
      <stop
         style="stop-color:#265a8e;stop-opacity:1"
         offset="1"
         id="stop4221" />
    </linearGradient>
    <clipPath
       clipPathUnits="userSpaceOnUse"
       id="clipPath4146">
      <path
         style="opacity:0.5;fill:#00ff00;fill-opacity:1;stroke:#ff0000;stroke-width:0.98692751px;stroke-linecap:butt;stroke-linejoin:miter;stroke-opacity:1"
         d="m 1228.3822,2173.1382 c -88.9275,-271.9462 -127.2688,-690.3807 137.7481,-868.3272 161.2664,-108.2829 371.0517,-110.7215 526.1975,-22.6274 251.2954,616.1892 -109.4454,1049.865 -663.9456,890.9546 z"
         id="path4148"
         inkscape:connector-curvature="0"
         sodipodi:nodetypes="cscc" />
    </clipPath>
    <clipPath
       clipPathUnits="userSpaceOnUse"
       id="clipPath4150">
      <path
         style="opacity:0.5;fill:#00ff00;fill-opacity:1;stroke:#ff0000;stroke-width:0.97954541px;stroke-linecap:butt;stroke-linejoin:miter;stroke-opacity:1"
         d="m 1287.938,2215.2786 c -89.6159,-265.8351 -128.254,-674.8666 138.8146,-848.8143 162.5149,-105.8495 373.9244,-108.2333 530.2714,-22.1189 253.2409,602.3423 -110.2928,1026.2726 -669.086,870.9332 z"
         id="path4152"
         inkscape:connector-curvature="0"
         sodipodi:nodetypes="cscc" />
    </clipPath>
    <clipPath
       clipPathUnits="userSpaceOnUse"
       id="clipPath4154">
      <path
         style="opacity:0.5;fill:#00ff00;fill-opacity:1;stroke:#ff0000;stroke-width:1px;stroke-linecap:butt;stroke-linejoin:miter;stroke-opacity:1"
         d="m 1230.3658,2164.6529 c -91.2989,-271.9462 -130.6626,-690.3807 141.4214,-868.3272 165.5668,-108.2829 380.9464,-110.7215 540.2295,-22.6274 257.9966,616.1892 -112.364,1049.865 -681.6509,890.9546 z"
         id="path4156"
         inkscape:connector-curvature="0"
         sodipodi:nodetypes="cscc" />
    </clipPath>
    <clipPath
       clipPathUnits="userSpaceOnUse"
       id="clipPath4158">
      <path
         style="opacity:0.5;fill:#00ff00;fill-opacity:1;stroke:#ff0000;stroke-width:0.96225047px;stroke-linecap:butt;stroke-linejoin:miter;stroke-opacity:1"
         d="m 783.78859,2082.6284 c -93.02547,-132.8604 -145.121,-545.989 -99.51873,-837.2144 212.25693,-21.9541 190.07834,201.4962 199.03746,379.0092 -5.3906,161.3079 42.14393,338.947 -99.51873,458.2052 z"
         id="path4160"
         inkscape:connector-curvature="0"
         sodipodi:nodetypes="cccc" />
    </clipPath>
    <clipPath
       clipPathUnits="userSpaceOnUse"
       id="clipPath4162">
      <path
         style="opacity:0.5;fill:#00ff00;fill-opacity:1;stroke:#ff0000;stroke-width:1.0846523px;stroke-linecap:butt;stroke-linejoin:miter;stroke-opacity:1"
         d="M 846.53161,2082.6284 C 728.33455,1949.768 662.14257,1536.6394 720.08428,1245.414 c 269.69116,-21.9541 241.5113,201.4962 252.89466,379.0092 -6.84924,161.3079 53.54756,338.947 -126.44733,458.2052 z"
         id="path4164"
         inkscape:connector-curvature="0"
         sodipodi:nodetypes="cccc" />
    </clipPath>
    <clipPath
       clipPathUnits="userSpaceOnUse"
       id="clipPath4166">
      <path
         style="opacity:0.5;fill:#00ff00;fill-opacity:1;stroke:#ff0000;stroke-width:1px;stroke-linecap:butt;stroke-linejoin:miter;stroke-opacity:1"
         d="m 780.64589,2071.3147 c -100.4675,-132.8604 -156.73068,-545.989 -107.48023,-837.2144 229.23749,-21.9541 205.28461,201.4962 214.96046,379.0092 -5.82185,161.3079 45.51545,338.947 -107.48023,458.2052 z"
         id="path4168"
         inkscape:connector-curvature="0"
         sodipodi:nodetypes="cccc" />
    </clipPath>
    <clipPath
       clipPathUnits="userSpaceOnUse"
       id="clipPath4209">
      <path
         sodipodi:type="arc"
         style="color:#000000;fill:#ff0000;fill-opacity:1;fill-rule:nonzero;stroke:none;stroke-width:1px;marker:none;visibility:visible;display:inline;overflow:visible;enable-background:accumulate"
         id="path4211"
         sodipodi:cx="1491.9954"
         sodipodi:cy="1956.7634"
         sodipodi:rx="301.22748"
         sodipodi:ry="369.10974"
         d="m 1793.2228,1956.7634 a 301.22748,369.10974 0 1 1 -602.4549,0 301.22748,369.10974 0 1 1 602.4549,0 z"
         transform="matrix(1.0187793,0,0,1.0229885,-81.758801,-101.55156)"
         clip-path="none" />
    </clipPath>
    <clipPath
       clipPathUnits="userSpaceOnUse"
       id="clipPath4213">
      <path
         sodipodi:type="arc"
         style="color:#000000;fill:#ff0000;fill-opacity:1;fill-rule:nonzero;stroke:none;stroke-width:1px;marker:none;visibility:visible;display:inline;overflow:visible;enable-background:accumulate"
         id="path4215"
         sodipodi:cx="1491.9954"
         sodipodi:cy="1956.7634"
         sodipodi:rx="301.22748"
         sodipodi:ry="369.10974"
         d="m 1793.2228,1956.7634 a 301.22748,369.10974 0 1 1 -602.4549,0 301.22748,369.10974 0 1 1 602.4549,0 z"
         transform="matrix(1.0187793,0,0,1.0229885,-81.758801,-101.55156)"
         clip-path="none" />
    </clipPath>
    <linearGradient
       inkscape:collect="always"
       xlink:href="#linearGradient4217"
       id="linearGradient4223"
       x1="1417.9719"
       y1="2241.0969"
       x2="1417.9719"
       y2="1762.588"
       gradientUnits="userSpaceOnUse" />
    <linearGradient
       inkscape:collect="always"
       xlink:href="#linearGradient4217"
       id="linearGradient4231"
       x1="861.8255"
       y1="2033.131"
       x2="861.8255"
       y2="1628.3922"
       gradientUnits="userSpaceOnUse" />
    <clipPath
       clipPathUnits="userSpaceOnUse"
       id="clipPath4259">
      <path
         style="opacity:0.5;fill:#00ff00;fill-opacity:1;stroke:#ff0000;stroke-width:1px;stroke-linecap:butt;stroke-linejoin:miter;stroke-opacity:1;display:inline"
         d="m 1230.3658,2164.6529 c -91.2989,-271.9462 -130.6626,-690.3807 141.4214,-868.3272 165.5668,-108.2829 380.9464,-110.7215 540.2295,-22.6274 257.9966,616.1892 -112.364,1049.865 -681.6509,890.9546 z"
         id="path4261"
         inkscape:connector-curvature="0"
         sodipodi:nodetypes="cscc" />
    </clipPath>
    <clipPath
       clipPathUnits="userSpaceOnUse"
       id="clipPath4263">
      <path
         style="opacity:0.5;fill:#00ff00;fill-opacity:1;stroke:#ff0000;stroke-width:1px;stroke-linecap:butt;stroke-linejoin:miter;stroke-opacity:1;display:inline"
         d="m 780.64589,2071.3147 c -100.4675,-132.8604 -155.31647,-551.6459 -106.06602,-842.8713 264.46936,-104.2691 275.79981,489.021 213.60305,643.1427 -8.70391,74.331 -35.42127,143.5153 -107.53703,199.7286 z"
         id="path4265"
         inkscape:connector-curvature="0"
         sodipodi:nodetypes="cccc" />
    </clipPath>
    <clipPath
       clipPathUnits="userSpaceOnUse"
       id="clipPath4259-8">
      <path
         style="opacity:0.5;fill:#00ff00;fill-opacity:1;stroke:#ff0000;stroke-width:1px;stroke-linecap:butt;stroke-linejoin:miter;stroke-opacity:1;display:inline"
         d="m 1230.3658,2164.6529 c -91.2989,-271.9462 -130.6626,-690.3807 141.4214,-868.3272 165.5668,-108.2829 380.9464,-110.7215 540.2295,-22.6274 257.9966,616.1892 -112.364,1049.865 -681.6509,890.9546 z"
         id="path4261-0"
         inkscape:connector-curvature="0"
         sodipodi:nodetypes="cscc" />
    </clipPath>
    <clipPath
       clipPathUnits="userSpaceOnUse"
       id="clipPath4263-2">
      <path
         style="opacity:0.5;fill:#00ff00;fill-opacity:1;stroke:#ff0000;stroke-width:1px;stroke-linecap:butt;stroke-linejoin:miter;stroke-opacity:1;display:inline"
         d="m 780.64589,2071.3147 c -100.4675,-132.8604 -155.31647,-551.6459 -106.06602,-842.8713 264.46936,-104.2691 275.79981,489.021 213.60305,643.1427 -8.70391,74.331 -35.42127,143.5153 -107.53703,199.7286 z"
         id="path4265-0"
         inkscape:connector-curvature="0"
         sodipodi:nodetypes="cccc" />
    </clipPath>
  </defs>
  <sodipodi:namedview
     id="base"
     pagecolor="#ffffff"
     bordercolor="#666666"
     borderopacity="1.0"
     inkscape:pageopacity="0.0"
     inkscape:pageshadow="2"
     inkscape:zoom="0.088388348"
     inkscape:cx="2870.7545"
     inkscape:cy="2814.2863"
     inkscape:document-units="px"
     inkscape:current-layer="layer3"
     showgrid="false"
     fit-margin-top="0"
     fit-margin-left="260.98"
     fit-margin-right="260.98"
     fit-margin-bottom="0"
     inkscape:window-width="1920"
     inkscape:window-height="1028"
     inkscape:window-x="1272"
     inkscape:window-y="217"
     inkscape:window-maximized="1"
     inkscape:snap-global="false"
     inkscape:object-paths="true"
     inkscape:object-nodes="false" />
  <metadata
     id="metadata3003">
    <rdf:RDF>
      <cc:Work
         rdf:about="">
        <dc:format>image/svg+xml</dc:format>
        <dc:type
           rdf:resource="http://purl.org/dc/dcmitype/StillImage" />
        <dc:title>Lotus</dc:title>
      </cc:Work>
    </rdf:RDF>
  </metadata>
  <g
     inkscape:groupmode="layer"
     id="layer13"
     inkscape:label="Background"
     sodipodi:insensitive="true"
     style="display:none"
     transform="translate(223.26357,-46.027002)">
    <rect
       style="color:#000000;fill:#000000;fill-opacity:1;fill-rule:nonzero;stroke:#00ff00;stroke-width:1;stroke-linecap:butt;stroke-linejoin:miter;stroke-miterlimit:4;stroke-opacity:1;stroke-dasharray:none;stroke-dashoffset:0;marker:none;visibility:visible;display:inline;overflow:visible;enable-background:accumulate"
       id="rect4311"
       width="5453.2075"
       height="6064.1479"
       x="-22.627417"
       y="-30.206619" />
  </g>
  <g
     inkscape:groupmode="layer"
     id="layer3"
     inkscape:label="Shadow"
     style="opacity:0.2;display:none"
     sodipodi:insensitive="true"
     transform="translate(223.26357,-46.027002)">
    <path
       sodipodi:type="arc"
       style="color:#000000;fill:#000000;fill-opacity:1;fill-rule:nonzero;stroke:none;stroke-width:1px;marker:none;visibility:visible;display:inline;overflow:visible;enable-background:accumulate"
       id="path3972"
       sodipodi:cx="2647.4077"
       sodipodi:cy="5731.2993"
       sodipodi:rx="1646.1445"
       sodipodi:ry="223.44574"
       d="m 4293.5522,5731.2993 c 0,123.4057 -737.004,223.4458 -1646.1445,223.4458 -909.1405,0 -1646.1445,-100.0401 -1646.1445,-223.4458 0,-123.4057 737.004,-223.4457 1646.1445,-223.4457 909.1405,0 1646.1445,100.04 1646.1445,223.4457 z"
       transform="matrix(0.99484536,0,0,1.0759494,-23.12312,-440.94542)" />
  </g>
  <g
     inkscape:groupmode="layer"
     id="layer2"
     inkscape:label="Rear Legs (L)"
     style="display:inline"
     sodipodi:insensitive="true"
     transform="translate(223.26357,-46.027002)">
    <path
       style="fill:#6ecaf4;fill-opacity:1;stroke:none"
       d="m 1490.9852,3575.6339 c -116.3353,-161.9675 -247.8451,-162.4452 -377.7971,-135.3604 -441.05403,91.9251 -817.2464,229.6486 -1006.11193,551.5432 -52.172132,88.92 -81.283212,181.9834 42.42641,220.2133 131.97668,40.7846 264.5779,39.5905 404.06101,12.1218 159.85768,-31.481 274.52258,-124.6358 327.28943,-230.3147 38.19193,-76.489 96.61977,-139.7172 180.99278,-206.0332 C 1264.9422,4031.7441 1505.0916,4003.68 1708,3926 z"
       id="path3943-1"
       inkscape:connector-curvature="0"
       sodipodi:nodetypes="csssssccc" />
    <path
       style="font-size:medium;font-style:normal;font-variant:normal;font-weight:normal;font-stretch:normal;text-indent:0;text-align:start;text-decoration:none;line-height:normal;letter-spacing:normal;word-spacing:normal;text-transform:none;direction:ltr;block-progression:tb;writing-mode:lr-tb;text-anchor:start;baseline-shift:baseline;color:#000000;fill:#449ed1;fill-opacity:1;stroke:none;stroke-width:49;marker:none;visibility:visible;display:inline;overflow:visible;enable-background:accumulate;font-family:Sans;-inkscape-font-specification:Sans"
       d="m 1235.6875,3402.5312 c -43.1085,-1.0955 -85.8623,5.0719 -127.5,13.75 -443.11495,92.3547 -827.74202,231.6137 -1022.25,563.125 -26.967457,45.9623 -50.151629,94.1458 -48.09375,142.5626 1.028939,24.2083 9.584137,48.6204 27.25,68.375 17.665863,19.7545 43.32213,34.6283 77.1875,45.0937 136.52846,42.1912 273.79199,40.7615 416.03125,12.75 166.66847,-32.8223 287.9355,-130.1842 344.46875,-243.4063 39.07157,-78.2506 148.64455,-198.462 194.30635,-236.8213 -70.3381,13.6407 -194.64459,127.8156 -238.1501,214.9463 -49.00043,98.1358 -157.04686,187.0791 -310.09375,217.2188 -136.72696,26.9259 -264.66885,27.878 -392.09375,-11.5 -27.98944,-8.6496 -45.08624,-19.743 -55.125,-30.9688 -10.038762,-11.2257 -14.177023,-22.7988 -14.8125,-37.75 -1.270954,-29.9023 16.20158,-72.7297 41.40625,-115.6874 183.22308,-312.2779 550.97564,-448.4732 989.96875,-539.9688 63.3318,-13.1997 124.5982,-19.0243 182.6875,-3.5312 58.0893,15.493 114.5963,51.7785 170.2188,129.2187 l 39.7812,-28.5937 c -60.7128,-84.5273 -128.1375,-129.5024 -197.375,-147.9688 -25.964,-6.9249 -51.9474,-10.1864 -77.8125,-10.8438 z"
       id="path3943"
       inkscape:connector-curvature="0"
       sodipodi:nodetypes="sssssssscssssssssccss" />
    <path
       style="fill:none;stroke:#449ed1;stroke-width:49;stroke-linecap:butt;stroke-linejoin:miter;stroke-miterlimit:4;stroke-opacity:1;stroke-dasharray:none"
       d="m 1064.8245,3791.4241 c 95.3483,161.0781 400.8757,259.4921 636.2724,137.7632"
       id="path3945"
       inkscape:connector-curvature="0"
       sodipodi:nodetypes="cc" />
    <path
       style="fill:#6ecaf4;fill-opacity:1;stroke:#449ed1;stroke-width:49;stroke-linecap:butt;stroke-linejoin:miter;stroke-miterlimit:4;stroke-opacity:1;stroke-dasharray:none"
       d="m 2604.2857,4039.4286 c 310.5274,448.2217 332.6804,1060.5119 134.8572,1372.8572 -86.182,136.0737 -51.0261,164.6671 -4.8572,173.4285 146.9545,27.8872 305.9063,6.8511 460,5.7143 l 88.5714,-102.8572 c -21.9316,-560.1605 60.7001,-1134.7435 -380,-1637.1428 z"
       id="path3947"
       inkscape:connector-curvature="0"
       sodipodi:nodetypes="csscccc" />
  </g>
  <g
     inkscape:groupmode="layer"
     id="layer15"
     inkscape:label="Rear Legs (A)"
     sodipodi:insensitive="true"
     style="display:none"
     transform="translate(223.26357,-46.027002)">
    <path
       style="fill:#fb98c9;fill-opacity:1;stroke:none;display:inline"
       d="m 1490.9852,3575.634 c -116.3353,-161.9676 -247.8451,-162.4453 -377.7971,-135.3605 -441.05403,91.9252 -817.2464,229.6487 -1006.11193,551.5433 -52.172132,88.92 -81.283212,181.9834 42.42641,220.2133 131.97668,40.7846 264.5779,39.5905 404.06101,12.1218 159.85768,-31.481 274.52258,-124.6358 327.28943,-230.3147 38.19193,-76.489 96.61977,-139.7172 180.99278,-206.0332 203.0964,243.9402 443.2458,215.8761 646.1542,138.1961 z"
       id="path3943-1-9"
       inkscape:connector-curvature="0"
       sodipodi:nodetypes="csssssccc" />
    <path
       style="font-size:medium;font-style:normal;font-variant:normal;font-weight:normal;font-stretch:normal;text-indent:0;text-align:start;text-decoration:none;line-height:normal;letter-spacing:normal;word-spacing:normal;text-transform:none;direction:ltr;block-progression:tb;writing-mode:lr-tb;text-anchor:start;baseline-shift:baseline;color:#000000;fill:#f38fc0;fill-opacity:1;stroke:none;stroke-width:49;marker:none;visibility:visible;display:inline;overflow:visible;enable-background:accumulate;font-family:Sans;-inkscape-font-specification:Sans"
       d="m 1235.6875,3402.5312 c -43.1085,-1.0955 -85.8623,5.0719 -127.5,13.75 -443.11495,92.3548 -827.74202,231.6138 -1022.25,563.1251 -26.967457,45.9623 -50.151629,94.1458 -48.09375,142.5626 1.028939,24.2083 9.584137,48.6204 27.25,68.375 17.665863,19.7545 43.32213,34.6283 77.1875,45.0937 136.52846,42.1912 273.79199,40.7615 416.03125,12.75 166.66847,-32.8223 287.9355,-130.1842 344.46875,-243.4063 39.07157,-78.2506 148.64455,-198.462 194.30635,-236.8213 -70.3381,13.6407 -194.64459,127.8156 -238.1501,214.9463 -49.00043,98.1358 -157.04686,187.0791 -310.09375,217.2188 -136.72696,26.9259 -264.66885,27.878 -392.09375,-11.5 -27.98944,-8.6496 -45.08624,-19.743 -55.125,-30.9688 -10.038762,-11.2257 -14.177023,-22.7988 -14.8125,-37.75 -1.270954,-29.9023 16.20158,-72.7297 41.40625,-115.6874 183.22308,-312.2779 550.97564,-448.4732 989.96875,-539.9689 63.3318,-13.1997 124.5982,-19.0243 182.6875,-3.5312 58.0893,15.493 114.5963,51.7786 170.2188,129.2188 l 39.7812,-28.5937 c -60.7128,-84.5274 -128.1375,-129.5025 -197.375,-147.9689 -25.964,-6.9249 -51.9474,-10.1864 -77.8125,-10.8438 z"
       id="path3943-4"
       inkscape:connector-curvature="0"
       sodipodi:nodetypes="sssssssscssssssssccss" />
    <path
       style="fill:none;stroke:#f38fc0;stroke-width:49;stroke-linecap:butt;stroke-linejoin:miter;stroke-miterlimit:4;stroke-opacity:1;stroke-dasharray:none;display:inline"
       d="m 1064.8245,3791.4242 c 95.3483,161.0781 400.8757,259.4921 636.2724,137.7632"
       id="path3945-6"
       inkscape:connector-curvature="0"
       sodipodi:nodetypes="cc" />
    <path
       style="fill:#fb98c9;fill-opacity:1;stroke:#f38fc0;stroke-width:49;stroke-linecap:butt;stroke-linejoin:miter;stroke-miterlimit:4;stroke-opacity:1;stroke-dasharray:none;display:inline"
       d="m 2604.2857,4039.4287 c 310.5274,448.2216 332.6804,1060.5118 134.8572,1372.8571 -86.182,136.0737 -51.0261,164.6671 -4.8572,173.4285 146.9545,27.8872 305.9063,6.8511 460,5.7143 l 88.5714,-102.8572 c -21.9316,-560.1605 60.7001,-1134.7434 -380,-1637.1427 z"
       id="path3947-0"
       inkscape:connector-curvature="0"
       sodipodi:nodetypes="csscccc" />
  </g>
  <g
     inkscape:groupmode="layer"
     id="layer4"
     inkscape:label="Tail (L)"
     style="display:inline"
     sodipodi:insensitive="true"
     transform="translate(223.26357,-46.027002)">
    <path
       style="fill:#fcb3d7;fill-opacity:1;stroke:none"
       d="m 3264.0049,3100.8622 c 68.178,-173.0332 171.8036,-289.3724 311.127,-350.7249 139.3234,-61.3525 490.1599,-30.6196 520.4306,308.2985 30.2707,338.9181 -183.339,631.0179 -268.7006,1021.0622 -85.3617,390.0443 7.1747,868.4553 263.0437,1097.4297 255.869,228.9745 634.872,192.0514 888.1261,42.4264 253.2542,-149.625 440.882,-413.3068 373.3524,-746.7047 -56.9527,136.9272 -160.9821,243.2006 -294.1564,282.8427 -133.1743,39.6421 -269.7369,21.7028 -325.2692,-130.1077 -55.5322,-151.8104 -28.2156,-286.3246 115.9655,-551.5433 144.1812,-265.2187 473.4901,-789.2265 263.0438,-1366.1302 -210.4463,-576.9037 -1025.2862,-663.3911 -1425.5273,-444.0631 -400.2411,219.328 -515.9328,425.7262 -613.7686,681.6509 z"
       id="path3975-7"
       inkscape:connector-curvature="0"
       sodipodi:nodetypes="czzzzzczzzzzcc" />
    <path
       style="fill:#fcd4e8;fill-opacity:1;stroke:none"
       d="m 5102.4825,3530.7831 c -74.1641,-39.9211 -166.1037,-45.4894 -260.2153,-25.4558 -79.0901,16.8359 -129.0026,-27.5485 -119.6223,-147.2792 21.815,-278.4471 -402.7005,-381.9108 -630.7393,-133.2204 l -39.2548,178.8772 c 214.1866,-159.0736 411.384,-52.1026 366.0387,124.9361 -53.6019,209.2744 -15.4857,406.1438 225.5878,350.0387 116.933,-27.2138 242.5891,-27.2066 280.0143,56.5685 z"
       id="path3977"
       inkscape:connector-curvature="0"
       sodipodi:nodetypes="cssccsscc" />
    <path
       style="fill:none;stroke:#f38fc0;stroke-width:49;stroke-linecap:butt;stroke-linejoin:miter;stroke-miterlimit:4;stroke-opacity:1;stroke-dasharray:none"
       d="m 3264.0049,3100.8622 c 68.178,-173.0332 171.8036,-289.3724 311.127,-350.7249 139.3234,-61.3525 490.1599,-30.6196 520.4306,308.2985 30.2707,338.9181 -183.339,631.0179 -268.7006,1021.0622 -85.3617,390.0443 7.1747,868.4553 263.0437,1097.4297 255.869,228.9745 634.872,192.0514 888.1261,42.4264 253.2542,-149.625 440.882,-413.3068 373.3524,-746.7047 -56.9527,136.9272 -160.9821,243.2006 -294.1564,282.8427 -133.1743,39.6421 -269.7369,21.7028 -325.2692,-130.1077 -55.5322,-151.8104 -28.2156,-286.3246 115.9655,-551.5433 144.1812,-265.2187 473.4901,-789.2265 263.0438,-1366.1302 -210.4463,-576.9037 -1025.2862,-663.3911 -1425.5273,-444.0631 -400.2411,219.328 -515.9328,425.7262 -613.7686,681.6509 z"
       id="path3975"
       inkscape:connector-curvature="0"
       sodipodi:nodetypes="czzzzzczzzzzcc" />
  </g>
  <g
     inkscape:groupmode="layer"
     id="layer16"
     inkscape:label="Tail (A)"
     sodipodi:insensitive="true"
     style="display:none"
     transform="translate(223.26357,-46.027002)">
    <path
       style="fill:#7bd7fc;fill-opacity:1;stroke:none;display:inline"
       d="m 3264.0049,3100.8622 c 68.178,-173.0332 171.8036,-289.3724 311.127,-350.7249 139.3234,-61.3525 490.1599,-30.6196 520.4306,308.2985 30.2707,338.9181 -183.339,631.0179 -268.7006,1021.0622 -85.3617,390.0443 7.1747,868.4553 263.0437,1097.4297 255.869,228.9745 634.872,192.0514 888.1261,42.4264 253.2542,-149.625 440.882,-413.3068 373.3524,-746.7047 -56.9527,136.9272 -160.9821,243.2006 -294.1564,282.8427 -133.1743,39.6421 -269.7369,21.7028 -325.2692,-130.1077 -55.5322,-151.8104 -28.2156,-286.3246 115.9655,-551.5433 144.1812,-265.2187 473.4901,-789.2265 263.0438,-1366.1302 -210.4463,-576.9037 -1025.2862,-663.3911 -1425.5273,-444.0631 -400.2411,219.328 -515.9328,425.7262 -613.7686,681.6509 z"
       id="path3975-7-3"
       inkscape:connector-curvature="0"
       sodipodi:nodetypes="czzzzzczzzzzcc" />
    <path
       style="fill:#b9e4f5;fill-opacity:1;stroke:none;display:inline"
       d="m 5102.4825,3530.7831 c -74.1641,-39.9211 -166.1037,-45.4894 -260.2153,-25.4558 -79.0901,16.8359 -129.0026,-27.5485 -119.6223,-147.2792 21.815,-278.4471 -402.7005,-381.9108 -630.7393,-133.2204 l -39.2548,178.8772 c 214.1866,-159.0736 411.384,-52.1026 366.0387,124.9361 -53.6019,209.2744 -15.4857,406.1438 225.5878,350.0387 116.933,-27.2138 242.5891,-27.2066 280.0143,56.5685 z"
       id="path3977-6"
       inkscape:connector-curvature="0"
       sodipodi:nodetypes="cssccsscc" />
    <path
       style="fill:none;stroke:#449ed1;stroke-width:49;stroke-linecap:butt;stroke-linejoin:miter;stroke-miterlimit:4;stroke-opacity:1;stroke-dasharray:none;display:inline"
       d="m 3264.0049,3100.8622 c 68.178,-173.0332 171.8036,-289.3724 311.127,-350.7249 139.3234,-61.3525 490.1599,-30.6196 520.4306,308.2985 30.2707,338.9181 -183.339,631.0179 -268.7006,1021.0622 -85.3617,390.0443 7.1747,868.4553 263.0437,1097.4297 255.869,228.9745 634.872,192.0514 888.1261,42.4264 253.2542,-149.625 440.882,-413.3068 373.3524,-746.7047 -56.9527,136.9272 -160.9821,243.2006 -294.1564,282.8427 -133.1743,39.6421 -269.7369,21.7028 -325.2692,-130.1077 -55.5322,-151.8104 -28.2156,-286.3246 115.9655,-551.5433 144.1812,-265.2187 473.4901,-789.2265 263.0438,-1366.1302 -210.4463,-576.9037 -1025.2862,-663.3911 -1425.5273,-444.0631 -400.2411,219.328 -515.9328,425.7262 -613.7686,681.6509 z"
       id="path3975-2"
       inkscape:connector-curvature="0"
       sodipodi:nodetypes="czzzzzczzzzzcc" />
  </g>
  <g
     inkscape:groupmode="layer"
     id="layer5"
     inkscape:label="Body + Forward Legs (L)"
     style="display:inline"
     sodipodi:insensitive="true"
     transform="translate(223.26357,-46.027002)">
    <path
       style="fill:#7bd7fc;fill-opacity:1;stroke:none"
       d="m 1656,2444 c -200.4724,402.2581 -345.4528,806.8284 -188,1224 140.9232,280.1366 335.4504,464.9771 612,504 l 424,12 c 149.6543,-15.358 284.0269,-61.2795 396,-152 l 172,444 528,-8 c -59.2776,-120.1499 -45.208,-284.9458 -264,-308 l 108,-484 c 22.5589,-213.2896 25.3172,-427.2863 -160,-648 -219.6531,-259.2078 -422.8571,-164.7604 -628,-112 -126.6667,32.0994 -253.3333,69.1938 -380,168 28.269,-418.6667 149.6867,-837.3333 240,-1256 z"
       id="path4046"
       inkscape:connector-curvature="0"
       sodipodi:nodetypes="cccccccccccccc" />
    <path
       style="fill:#7bd7fc;fill-opacity:1;stroke:none"
       d="m 2409.8199,3983.3315 c 286.4361,510.225 310.6484,1156.8631 291.328,1699.8847 -4.6194,129.8319 -75.7829,191.5573 -195.1615,200.8182 -170.2261,13.2056 -341.7785,18.3004 -511.9453,-2.8283 -78.1408,-9.7023 -140.3562,-51.5218 -50.9116,-223.4458 161.3852,-310.2032 207.0845,-1038.3756 135.7644,-1660.2867"
       id="path4022-4"
       inkscape:connector-curvature="0"
       sodipodi:nodetypes="cssssc" />
    <path
       style="fill:none;stroke:#449ed1;stroke-width:49;stroke-linecap:butt;stroke-linejoin:miter;stroke-miterlimit:4;stroke-opacity:1;stroke-dasharray:none"
       d="M 1648,2476 C 1458.5127,2815.6703 1331.4417,3265.7416 1443.6314,3596.8479 1555.8211,3927.9543 1839.4641,4133.44 2092,4168"
       id="path3998"
       inkscape:connector-curvature="0"
       sodipodi:nodetypes="czc" />
    <path
       style="font-size:medium;font-style:normal;font-variant:normal;font-weight:normal;font-stretch:normal;text-indent:0;text-align:start;text-decoration:none;line-height:normal;letter-spacing:normal;word-spacing:normal;text-transform:none;direction:ltr;block-progression:tb;writing-mode:lr-tb;text-anchor:start;baseline-shift:baseline;color:#000000;fill:#449ed1;fill-opacity:1;stroke:none;stroke-width:49;marker:none;visibility:visible;display:inline;overflow:visible;enable-background:accumulate;font-family:Sans;-inkscape-font-specification:Sans"
       d="m 2352.7188,2439.5312 c -55.1687,160.5881 -127.7035,623.8937 -60.2714,833.7219 10.8637,-197.4654 55.6305,-669.3754 106.6151,-817.7843 z"
       id="path4000"
       inkscape:connector-curvature="0"
       sodipodi:nodetypes="cccc" />
    <path
       style="fill:#7bd7fc;fill-opacity:1;stroke:#449ed1;stroke-width:49;stroke-linecap:butt;stroke-linejoin:miter;stroke-miterlimit:4;stroke-opacity:1;stroke-dasharray:none"
       d="m 3336,4172 c 160.2127,-12.5616 170.4839,86.1414 210,168 165.4168,342.665 235.3111,861.4443 192,1286 -9.1162,89.3616 -87.2177,148.9753 -216,162 -156.9413,15.8726 -310.9822,31.4386 -472,2 -74.2813,-13.5807 -113.3709,-64.9899 -48,-166 200.482,-309.7816 216.8271,-1050.0151 -128,-1574"
       id="path4014"
       inkscape:connector-curvature="0"
       sodipodi:nodetypes="csssssc" />
    <path
       style="font-size:medium;font-style:normal;font-variant:normal;font-weight:normal;font-stretch:normal;text-indent:0;text-align:start;text-decoration:none;line-height:normal;letter-spacing:normal;word-spacing:normal;text-transform:none;direction:ltr;block-progression:tb;writing-mode:lr-tb;text-anchor:start;baseline-shift:baseline;color:#000000;fill:#449ed1;fill-opacity:1;stroke:none;stroke-width:49;marker:none;visibility:visible;display:inline;overflow:visible;enable-background:accumulate;font-family:Sans;-inkscape-font-specification:Sans"
       d="m 3045.345,3583.8533 c -14.5239,139.0147 -59.3673,308.0136 -138.0638,401.0842 -78.6964,93.0706 -205.7592,151.6135 -402.1562,174.7187 l 5.75,48.6876 c 203.5639,-23.9484 340.8267,-88.5419 429.8125,-193.7813 88.9858,-105.2394 121.1815,-299.7239 104.6575,-430.7092 z"
       id="path4016"
       inkscape:connector-curvature="0"
       sodipodi:nodetypes="csccsc" />
    <path
       style="font-size:medium;font-style:normal;font-variant:normal;font-weight:normal;font-stretch:normal;text-indent:0;text-align:start;text-decoration:none;line-height:normal;letter-spacing:normal;word-spacing:normal;text-transform:none;direction:ltr;block-progression:tb;writing-mode:lr-tb;text-anchor:start;baseline-shift:baseline;color:#000000;fill:#449ed1;fill-opacity:1;stroke:none;stroke-width:49;marker:none;visibility:visible;display:inline;overflow:visible;enable-background:accumulate;font-family:Sans;-inkscape-font-specification:Sans"
       d="m 2396.9695,3979.7379 c 36.0044,70.851 74.1352,177.5646 106.718,262.7933 174.1654,455.5747 189.2019,983.5635 172.9687,1439.8126 -2.1555,60.5859 -19.1357,101.3474 -47.25,129.0624 -28.1142,27.7151 -69.4337,43.8527 -125.3124,48.1876 -169.4451,13.145 -339.3406,18.1337 -507.0313,-2.6876 -17.794,-2.2093 -33.6804,-6.2856 -45.2813,-12.2812 -11.6008,-5.9956 -18.849,-13.0004 -23.5,-23.9062 -9.3019,-21.8118 -6.6797,-68.4791 36.5938,-151.6563 145.055,-278.8145 189.3996,-858.2864 153.5,-1414.625 -5.6563,-87.6549 -11.4,-194.6759 -17.7769,-256.3195 -24.3768,64.3563 -36.7353,172.6015 -31.1293,259.4758 35.5798,551.3838 -14.2799,1131.6962 -148.0626,1388.8437 -46.1711,88.7468 -57.1672,148.9954 -38.1874,193.5 9.4898,22.2523 26.816,38.2718 46.0624,48.2187 19.2465,9.947 40.4736,14.7333 61.75,17.375 172.6429,21.4362 345.8367,16.2037 516.8438,2.9376 63.4998,-4.9261 117.4705,-24.2667 155.9375,-62.1876 38.467,-37.9208 59.3488,-92.9415 61.8125,-162.1874 16.3181,-458.6374 2.1365,-992.61 -176.1875,-1459.0626 -33.3608,-87.2638 -82.4724,-188.1444 -152.468,-245.2933 z"
       id="path4022"
       inkscape:connector-curvature="0"
       sodipodi:nodetypes="cssssssssscsssssssssc" />
    <path
       style="font-size:medium;font-style:normal;font-variant:normal;font-weight:normal;font-stretch:normal;text-indent:0;text-align:start;text-decoration:none;line-height:normal;letter-spacing:normal;word-spacing:normal;text-transform:none;direction:ltr;block-progression:tb;writing-mode:lr-tb;text-anchor:start;baseline-shift:baseline;color:#000000;fill:#449ed1;fill-opacity:1;stroke:none;stroke-width:49;marker:none;visibility:visible;display:inline;overflow:visible;enable-background:accumulate;font-family:Sans;-inkscape-font-specification:Sans"
       d="m 2631.719,2893.6905 c -134.6159,40.2736 -258.5333,96.8592 -363.094,181.247 l 30.75,38.125 c 100.8847,-81.4211 222.8816,-136.3808 357.5446,-175.6309 z"
       id="path4008-4"
       inkscape:connector-curvature="0"
       sodipodi:nodetypes="ccccc" />
    <path
       style="fill:#ffffff;stroke:#bcdfd9;stroke-width:49;stroke-linecap:butt;stroke-linejoin:miter;stroke-miterlimit:4;stroke-opacity:1;stroke-dasharray:none"
       d="m 1530.179,2717.6104 c -46.3873,101.9488 -81.9821,206.7745 -96.1664,305.3695 297.3222,130.2491 687.7373,149.3379 944.6946,-1.3137 l -19.799,-195.1614 c -268.3277,-7.7503 -549.7759,-53.3291 -828.7292,-108.8944 z"
       id="path4006"
       inkscape:connector-curvature="0"
       sodipodi:nodetypes="ccccc" />
    <path
       sodipodi:type="arc"
       style="color:#000000;fill:#f38fc0;fill-opacity:1;fill-rule:nonzero;stroke:none;stroke-width:1px;marker:none;visibility:visible;display:inline;overflow:visible;enable-background:accumulate"
       id="path4048"
       sodipodi:cx="1685.7426"
       sodipodi:cy="2909.2363"
       sodipodi:rx="59.396969"
       sodipodi:ry="95.459412"
       d="m 1745.1395,2909.2363 c 0,52.7208 -26.5929,95.4594 -59.3969,95.4594 -32.8041,0 -59.397,-42.7386 -59.397,-95.4594 0,-52.7207 26.5929,-95.4594 59.397,-95.4594 32.804,0 59.3969,42.7387 59.3969,95.4594 z"
       transform="matrix(0.89730253,0.4414161,-0.4414161,0.89730253,1448.82,-455.24218)" />
    <path
       sodipodi:type="arc"
       style="color:#000000;fill:#fcb3d7;fill-opacity:1;fill-rule:nonzero;stroke:none;stroke-width:1px;marker:none;visibility:visible;display:inline;overflow:visible;enable-background:accumulate"
       id="path4050"
       sodipodi:cx="1686.4497"
       sodipodi:cy="2868.9312"
       sodipodi:rx="20.506096"
       sodipodi:ry="31.112698"
       d="m 1706.9558,2868.9312 c 0,17.183 -9.1809,31.1126 -20.5061,31.1126 -11.3252,0 -20.5061,-13.9296 -20.5061,-31.1126 0,-17.1831 9.1809,-31.1127 20.5061,-31.1127 11.3252,0 20.5061,13.9296 20.5061,31.1127 z"
       transform="matrix(0.95131679,0.3082148,-0.3082148,0.95131679,966.34881,-384.36262)" />
  </g>
  <g
     inkscape:groupmode="layer"
     id="layer17"
     inkscape:label="Body + Forward Legs (A)"
     sodipodi:insensitive="true"
     style="display:none"
     transform="translate(223.26357,-46.027002)">
    <path
       style="fill:#fcb3d7;fill-opacity:1;stroke:none;display:inline"
       d="m 1656,2444 c -200.4724,402.2581 -345.4528,806.8284 -188,1224 140.9232,280.1366 335.4504,464.9771 612,504 l 424,12 c 149.6543,-15.358 284.0269,-61.2795 396,-152 l 172,444 528,-8 c -59.2776,-120.1499 -45.208,-284.9458 -264,-308 l 108,-484 c 22.5589,-213.2896 25.3172,-427.2863 -160,-648 -219.6531,-259.2078 -422.8571,-164.7604 -628,-112 -126.6667,32.0994 -253.3333,69.1938 -380,168 28.269,-418.6667 149.6867,-837.3333 240,-1256 z"
       id="path4046-4"
       inkscape:connector-curvature="0"
       sodipodi:nodetypes="cccccccccccccc" />
    <path
       style="fill:#fcb3d7;fill-opacity:1;stroke:none;display:inline"
       d="m 2409.8199,3983.3315 c 286.4361,510.225 310.6484,1156.8631 291.328,1699.8847 -4.6194,129.8319 -75.7829,191.5573 -195.1615,200.8182 -170.2261,13.2056 -341.7785,18.3004 -511.9453,-2.8283 -78.1408,-9.7023 -140.3562,-51.5218 -50.9116,-223.4458 161.3852,-310.2032 207.0845,-1038.3756 135.7644,-1660.2867"
       id="path4022-4-5"
       inkscape:connector-curvature="0"
       sodipodi:nodetypes="cssssc" />
    <path
       style="fill:none;stroke:#f38fc0;stroke-width:49;stroke-linecap:butt;stroke-linejoin:miter;stroke-miterlimit:4;stroke-opacity:1;stroke-dasharray:none;display:inline"
       d="M 1648,2476 C 1458.5127,2815.6703 1331.4417,3265.7416 1443.6314,3596.8479 1555.8211,3927.9543 1839.4641,4133.44 2092,4168"
       id="path3998-8"
       inkscape:connector-curvature="0"
       sodipodi:nodetypes="czc" />
    <path
       style="font-size:medium;font-style:normal;font-variant:normal;font-weight:normal;font-stretch:normal;text-indent:0;text-align:start;text-decoration:none;line-height:normal;letter-spacing:normal;word-spacing:normal;text-transform:none;direction:ltr;block-progression:tb;writing-mode:lr-tb;text-anchor:start;baseline-shift:baseline;color:#000000;fill:#f38fc0;fill-opacity:1;stroke:none;stroke-width:49;marker:none;visibility:visible;display:inline;overflow:visible;enable-background:accumulate;font-family:Sans;-inkscape-font-specification:Sans"
       d="m 2352.7188,2439.5312 c -55.1687,160.5881 -127.7035,623.8937 -60.2714,833.7219 10.8637,-197.4654 55.6305,-669.3754 106.6151,-817.7843 z"
       id="path4000-8"
       inkscape:connector-curvature="0"
       sodipodi:nodetypes="cccc" />
    <path
       style="fill:#fcb3d7;fill-opacity:1;stroke:#f38fc0;stroke-width:49;stroke-linecap:butt;stroke-linejoin:miter;stroke-miterlimit:4;stroke-opacity:1;stroke-dasharray:none;display:inline"
       d="m 3336,4172 c 160.2127,-12.5616 170.4839,86.1414 210,168 165.4168,342.665 235.3111,861.4443 192,1286 -9.1162,89.3616 -87.2177,148.9753 -216,162 -156.9413,15.8726 -310.9822,31.4386 -472,2 -74.2813,-13.5807 -113.3709,-64.9899 -48,-166 200.482,-309.7816 216.8271,-1050.0151 -128,-1574"
       id="path4014-1"
       inkscape:connector-curvature="0"
       sodipodi:nodetypes="csssssc" />
    <path
       style="font-size:medium;font-style:normal;font-variant:normal;font-weight:normal;font-stretch:normal;text-indent:0;text-align:start;text-decoration:none;line-height:normal;letter-spacing:normal;word-spacing:normal;text-transform:none;direction:ltr;block-progression:tb;writing-mode:lr-tb;text-anchor:start;baseline-shift:baseline;color:#000000;fill:#f38fc0;fill-opacity:1;stroke:none;stroke-width:49;marker:none;visibility:visible;display:inline;overflow:visible;enable-background:accumulate;font-family:Sans;-inkscape-font-specification:Sans"
       d="m 3045.345,3583.8533 c -14.5239,139.0147 -59.3673,308.0136 -138.0638,401.0842 -78.6964,93.0706 -205.7592,151.6135 -402.1562,174.7187 l 5.75,48.6876 c 203.5639,-23.9484 340.8267,-88.5419 429.8125,-193.7813 88.9858,-105.2394 121.1815,-299.7239 104.6575,-430.7092 z"
       id="path4016-2"
       inkscape:connector-curvature="0"
       sodipodi:nodetypes="csccsc" />
    <path
       style="font-size:medium;font-style:normal;font-variant:normal;font-weight:normal;font-stretch:normal;text-indent:0;text-align:start;text-decoration:none;line-height:normal;letter-spacing:normal;word-spacing:normal;text-transform:none;direction:ltr;block-progression:tb;writing-mode:lr-tb;text-anchor:start;baseline-shift:baseline;color:#000000;fill:#f38fc0;fill-opacity:1;stroke:none;stroke-width:49;marker:none;visibility:visible;display:inline;overflow:visible;enable-background:accumulate;font-family:Sans;-inkscape-font-specification:Sans"
       d="m 2396.9695,3979.7379 c 36.0044,70.851 74.1352,177.5646 106.718,262.7933 174.1654,455.5747 189.2019,983.5635 172.9687,1439.8126 -2.1555,60.5859 -19.1357,101.3474 -47.25,129.0624 -28.1142,27.7151 -69.4337,43.8527 -125.3124,48.1876 -169.4451,13.145 -339.3406,18.1337 -507.0313,-2.6876 -17.794,-2.2093 -33.6804,-6.2856 -45.2813,-12.2812 -11.6008,-5.9956 -18.849,-13.0004 -23.5,-23.9062 -9.3019,-21.8118 -6.6797,-68.4791 36.5938,-151.6563 145.055,-278.8145 189.3996,-858.2864 153.5,-1414.625 -5.6563,-87.6549 -11.4,-194.6759 -17.7769,-256.3195 -24.3768,64.3563 -36.7353,172.6015 -31.1293,259.4758 35.5798,551.3838 -14.2799,1131.6962 -148.0626,1388.8437 -46.1711,88.7468 -57.1672,148.9954 -38.1874,193.5 9.4898,22.2523 26.816,38.2718 46.0624,48.2187 19.2465,9.947 40.4736,14.7333 61.75,17.375 172.6429,21.4362 345.8367,16.2037 516.8438,2.9376 63.4998,-4.9261 117.4705,-24.2667 155.9375,-62.1876 38.467,-37.9208 59.3488,-92.9415 61.8125,-162.1874 16.3181,-458.6374 2.1365,-992.61 -176.1875,-1459.0626 -33.3608,-87.2638 -82.4724,-188.1444 -152.468,-245.2933 z"
       id="path4022-1"
       inkscape:connector-curvature="0"
       sodipodi:nodetypes="cssssssssscsssssssssc" />
    <path
       style="font-size:medium;font-style:normal;font-variant:normal;font-weight:normal;font-stretch:normal;text-indent:0;text-align:start;text-decoration:none;line-height:normal;letter-spacing:normal;word-spacing:normal;text-transform:none;direction:ltr;block-progression:tb;writing-mode:lr-tb;text-anchor:start;baseline-shift:baseline;color:#000000;fill:#f38fc0;fill-opacity:1;stroke:none;stroke-width:49;marker:none;visibility:visible;display:inline;overflow:visible;enable-background:accumulate;font-family:Sans;-inkscape-font-specification:Sans"
       d="m 2631.719,2893.6905 c -134.6159,40.2736 -258.5333,96.8592 -363.094,181.247 l 30.75,38.125 c 100.8847,-81.4211 222.8816,-136.3808 357.5446,-175.6309 z"
       id="path4008-4-4"
       inkscape:connector-curvature="0"
       sodipodi:nodetypes="ccccc" />
    <path
       style="fill:#ffffff;stroke:#bcdfd9;stroke-width:49;stroke-linecap:butt;stroke-linejoin:miter;stroke-miterlimit:4;stroke-opacity:1;stroke-dasharray:none;display:inline"
       d="m 1530.179,2717.6104 c -46.3873,101.9488 -81.9821,206.7745 -96.1664,305.3695 297.3222,130.2491 687.7373,149.3379 944.6946,-1.3137 l -19.799,-195.1614 c -268.3277,-7.7503 -549.7759,-53.3291 -828.7292,-108.8944 z"
       id="path4006-9"
       inkscape:connector-curvature="0"
       sodipodi:nodetypes="ccccc" />
    <path
       sodipodi:type="arc"
       style="color:#000000;fill:#449ed1;fill-opacity:1;fill-rule:nonzero;stroke:none;stroke-width:1px;marker:none;visibility:visible;display:inline;overflow:visible;enable-background:accumulate"
       id="path4048-8"
       sodipodi:cx="1685.7426"
       sodipodi:cy="2909.2363"
       sodipodi:rx="59.396969"
       sodipodi:ry="95.459412"
       d="m 1745.1395,2909.2363 c 0,52.7208 -26.5929,95.4594 -59.3969,95.4594 -32.8041,0 -59.397,-42.7386 -59.397,-95.4594 0,-52.7207 26.5929,-95.4594 59.397,-95.4594 32.804,0 59.3969,42.7387 59.3969,95.4594 z"
       transform="matrix(0.89730253,0.4414161,-0.4414161,0.89730253,1448.82,-455.2422)" />
    <path
       sodipodi:type="arc"
       style="color:#000000;fill:#7bd7fc;fill-opacity:1;fill-rule:nonzero;stroke:none;stroke-width:1px;marker:none;visibility:visible;display:inline;overflow:visible;enable-background:accumulate"
       id="path4050-2"
       sodipodi:cx="1686.4497"
       sodipodi:cy="2868.9312"
       sodipodi:rx="20.506096"
       sodipodi:ry="31.112698"
       d="m 1706.9558,2868.9312 c 0,17.183 -9.1809,31.1126 -20.5061,31.1126 -11.3252,0 -20.5061,-13.9296 -20.5061,-31.1126 0,-17.1831 9.1809,-31.1127 20.5061,-31.1127 11.3252,0 20.5061,13.9296 20.5061,31.1127 z"
       transform="matrix(0.95131679,0.3082148,-0.3082148,0.95131679,966.34881,-384.3626)" />
  </g>
  <g
     inkscape:groupmode="layer"
     id="layer14"
     inkscape:label="Cutie Mark (L)"
     sodipodi:insensitive="true"
     style="display:inline"
     transform="translate(223.26357,-46.027002)">
    <path
       style="fill:#ffffff;stroke:none;display:inline"
       d="m 3318.1801,3623.2496 c -115.1651,45.1073 -228.6358,0.2463 -281.0575,-245.5478 31.3647,-0.8925 48.7116,11.4415 68.5458,21.4286 -13.5638,-38.0952 -25.24,-76.1905 -28.3266,-114.2857 49.5745,2.186 80.9443,32.4502 108.5167,68.5714 l -4.7299,-102.8572 71.8328,85.7143 -22.0258,-151.4285 c 68.0887,46.7575 82.7169,101.5973 102.1272,155.7142 l -1.3544,-88.5714 c 28.6185,25.5017 50.4574,55.4557 67.4821,88.5714 24.3937,8.3796 43.6677,32.7985 62.0536,60 l -11.336,212.8572 c -48.0036,17.4776 -90.2182,14.8777 -131.728,9.8335 z"
       id="path3861"
       inkscape:connector-curvature="0"
       sodipodi:nodetypes="cccccccccccccc" />
    <!--S^i^g^m^a-->
    <path
       style="fill:none;stroke:#f38fc0;stroke-width:19;stroke-linecap:butt;stroke-linejoin:miter;stroke-miterlimit:4;stroke-opacity:1;stroke-dasharray:none;display:inline"
       d="m 3312.096,3621.886 c 41.7871,-79.8365 76.2704,-148.3508 144.5883,-207.0413 l 0.7939,191.4285 c -45.4127,19.676 -96.6983,27.3495 -145.3822,15.6128 z"
       id="path3829"
       inkscape:connector-curvature="0"
       sodipodi:nodetypes="cccc" />
    <path
       style="fill:none;stroke:#f38fc0;stroke-width:19;stroke-linecap:butt;stroke-linejoin:miter;stroke-miterlimit:4;stroke-opacity:1;stroke-dasharray:none;display:inline"
       d="m 3310.4293,3626.4626 c -172.1742,52.3264 -244.1818,-100.6939 -276.3637,-254.5585 111.7038,33.6383 250.4451,129.5274 276.3637,254.5585 z"
       id="path3831"
       inkscape:connector-curvature="0"
       sodipodi:nodetypes="ccc" />
    <path
       style="fill:none;stroke:#f38fc0;stroke-width:19;stroke-linecap:butt;stroke-linejoin:miter;stroke-miterlimit:4;stroke-opacity:1;stroke-dasharray:none;display:inline"
       d="m 3305.3849,3608.2798 c 17.3891,-126.4132 23.5066,-232.8988 19.6185,-359.6142 63.9031,69.3159 92.7345,123.9717 83.2322,220.2132"
       id="path3833"
       inkscape:connector-curvature="0"
       sodipodi:nodetypes="ccc" />
    <path
       style="fill:none;stroke:#f38fc0;stroke-width:19;stroke-linecap:butt;stroke-linejoin:miter;stroke-miterlimit:4;stroke-opacity:1;stroke-dasharray:none;display:inline"
       d="m 3317.2804,3509.2655 c -22.6155,-100.0923 -77.8463,-185.2152 -141.2425,-252.9228 -1.514,72.731 10.9828,145.2918 39.2102,218.0228"
       id="path3835"
       inkscape:connector-curvature="0"
       sodipodi:nodetypes="ccc" />
    <path
       style="fill:none;stroke:#f38fc0;stroke-width:19;stroke-linecap:butt;stroke-linejoin:miter;stroke-miterlimit:4;stroke-opacity:1;stroke-dasharray:none;display:inline"
       d="m 3245.6863,3344.3525 c -8.2847,-63.7825 -11.854,-101.4072 -26.9959,-155.8921 45.1069,23.4163 90.8845,80.0206 107.3865,145.8112"
       id="path3837"
       inkscape:connector-curvature="0"
       sodipodi:nodetypes="ccc" />
    <path
       style="fill:none;stroke:#f38fc0;stroke-width:19;stroke-linecap:butt;stroke-linejoin:miter;stroke-miterlimit:4;stroke-opacity:1;stroke-dasharray:none;display:inline"
       d="m 3183.3854,3358.9289 c -16.6854,-28.5428 -57.579,-63.9022 -107.0734,-78.9486 1.9419,45.0214 15.7041,91.9036 36.4971,124.1342"
       id="path3839"
       inkscape:connector-curvature="0"
       sodipodi:nodetypes="ccc" />
    <path
       style="fill:none;stroke:#f38fc0;stroke-width:19;stroke-linecap:butt;stroke-linejoin:miter;stroke-miterlimit:4;stroke-opacity:1;stroke-dasharray:none;display:inline"
       d="m 3388.5456,3327.0016 c 30.3295,20.0595 54.7129,53.498 64.3448,96.4145"
       id="path3841"
       inkscape:connector-curvature="0"
       sodipodi:nodetypes="cc" />
    <path
       style="font-size:medium;font-style:normal;font-variant:normal;font-weight:normal;font-stretch:normal;text-indent:0;text-align:start;text-decoration:none;line-height:normal;letter-spacing:normal;word-spacing:normal;text-transform:none;direction:ltr;block-progression:tb;writing-mode:lr-tb;text-anchor:start;baseline-shift:baseline;color:#000000;fill:#449ed1;fill-opacity:1;stroke:none;stroke-width:49;marker:none;visibility:visible;display:inline;overflow:visible;enable-background:accumulate;font-family:Sans;-inkscape-font-specification:Sans"
       d="m 2931.9688,2834.75 c -29.1395,0.3651 -59.2984,3.324 -90.4688,9.1562 -74.52,13.9431 -147.3195,30.7421 -217.1779,52.017 l 20.3874,45.1211 c 65.8092,-19.7654 134.7403,-35.6566 205.7905,-48.9505 114.2322,-21.3735 209.1355,-1.3494 290.125,45.75 80.9895,47.0993 147.9912,122.2081 201.3125,211.8437 125.1606,210.4006 104.4209,490.6009 39.9063,719.5313 -36.1654,128.3326 -73.8609,271.2343 -45.223,389.1895 14.6379,-124.0448 56.4017,-248.2422 92.3792,-375.9083 66.5671,-236.2135 91.0749,-529.2322 -44.9375,-757.875 -56.3779,-94.7738 -128.4242,-176.6092 -218.7813,-229.1562 -67.7678,-39.4104 -145.894,-61.814 -233.3124,-60.7188 z"
       id="path4008"
       inkscape:connector-curvature="0"
       sodipodi:nodetypes="ssccsssscssss" />
  </g>
  <g
     inkscape:groupmode="layer"
     id="layer18"
     inkscape:label="Cutie Mark (A)"
     sodipodi:insensitive="true"
     style="display:none"
     transform="translate(223.26357,-46.027002)">
    <path
       style="fill:#ffffff;stroke:none;display:inline"
       d="m 3318.1801,3623.2496 c -115.1651,45.1073 -228.6358,0.2463 -281.0575,-245.5478 31.3647,-0.8925 48.7116,11.4415 68.5458,21.4286 -13.5638,-38.0952 -25.24,-76.1905 -28.3266,-114.2857 49.5745,2.186 80.9443,32.4502 108.5167,68.5714 l -4.7299,-102.8572 71.8328,85.7143 -22.0258,-151.4285 c 68.0887,46.7575 82.7169,101.5973 102.1272,155.7142 l -1.3544,-88.5714 c 28.6185,25.5017 50.4574,55.4557 67.4821,88.5714 24.3937,8.3796 43.6677,32.7985 62.0536,60 l -11.336,212.8572 c -48.0036,17.4776 -90.2182,14.8777 -131.728,9.8335 z"
       id="path3861-2"
       inkscape:connector-curvature="0"
       sodipodi:nodetypes="cccccccccccccc" />
    <path
       style="fill:none;stroke:#449ed1;stroke-width:19;stroke-linecap:butt;stroke-linejoin:miter;stroke-miterlimit:4;stroke-opacity:1;stroke-dasharray:none;display:inline"
       d="m 3312.096,3621.886 c 41.7871,-79.8365 76.2704,-148.3508 144.5883,-207.0413 l 0.7939,191.4285 c -45.4127,19.676 -96.6983,27.3495 -145.3822,15.6128 z"
       id="path3829-9"
       inkscape:connector-curvature="0"
       sodipodi:nodetypes="cccc" />
    <path
       style="fill:none;stroke:#449ed1;stroke-width:19;stroke-linecap:butt;stroke-linejoin:miter;stroke-miterlimit:4;stroke-opacity:1;stroke-dasharray:none;display:inline"
       d="m 3310.4293,3626.4626 c -172.1742,52.3264 -244.1818,-100.6939 -276.3637,-254.5585 111.7038,33.6383 250.4451,129.5274 276.3637,254.5585 z"
       id="path3831-9"
       inkscape:connector-curvature="0"
       sodipodi:nodetypes="ccc" />
    <path
       style="fill:none;stroke:#449ed1;stroke-width:19;stroke-linecap:butt;stroke-linejoin:miter;stroke-miterlimit:4;stroke-opacity:1;stroke-dasharray:none;display:inline"
       d="m 3305.3849,3608.2798 c 17.3891,-126.4132 23.5066,-232.8988 19.6185,-359.6142 63.9031,69.3159 92.7345,123.9717 83.2322,220.2132"
       id="path3833-8"
       inkscape:connector-curvature="0"
       sodipodi:nodetypes="ccc" />
    <path
       style="fill:none;stroke:#449ed1;stroke-width:19;stroke-linecap:butt;stroke-linejoin:miter;stroke-miterlimit:4;stroke-opacity:1;stroke-dasharray:none;display:inline"
       d="m 3317.2804,3509.2655 c -22.6155,-100.0923 -77.8463,-185.2152 -141.2425,-252.9228 -1.514,72.731 10.9828,145.2918 39.2102,218.0228"
       id="path3835-3"
       inkscape:connector-curvature="0"
       sodipodi:nodetypes="ccc" />
    <path
       style="fill:none;stroke:#449ed1;stroke-width:19;stroke-linecap:butt;stroke-linejoin:miter;stroke-miterlimit:4;stroke-opacity:1;stroke-dasharray:none;display:inline"
       d="m 3245.6863,3344.3525 c -8.2847,-63.7825 -11.854,-101.4072 -26.9959,-155.8921 45.1069,23.4163 90.8845,80.0206 107.3865,145.8112"
       id="path3837-8"
       inkscape:connector-curvature="0"
       sodipodi:nodetypes="ccc" />
    <path
       style="fill:none;stroke:#449ed1;stroke-width:19;stroke-linecap:butt;stroke-linejoin:miter;stroke-miterlimit:4;stroke-opacity:1;stroke-dasharray:none;display:inline"
       d="m 3183.3854,3358.9289 c -16.6854,-28.5428 -57.579,-63.9022 -107.0734,-78.9486 1.9419,45.0214 15.7041,91.9036 36.4971,124.1342"
       id="path3839-6"
       inkscape:connector-curvature="0"
       sodipodi:nodetypes="ccc" />
    <path
       style="fill:none;stroke:#449ed1;stroke-width:19;stroke-linecap:butt;stroke-linejoin:miter;stroke-miterlimit:4;stroke-opacity:1;stroke-dasharray:none;display:inline"
       d="m 3388.5456,3327.0016 c 30.3295,20.0595 54.7129,53.498 64.3448,96.4145"
       id="path3841-9"
       inkscape:connector-curvature="0"
       sodipodi:nodetypes="cc" />
    <path
       style="font-size:medium;font-style:normal;font-variant:normal;font-weight:normal;font-stretch:normal;text-indent:0;text-align:start;text-decoration:none;line-height:normal;letter-spacing:normal;word-spacing:normal;text-transform:none;direction:ltr;block-progression:tb;writing-mode:lr-tb;text-anchor:start;baseline-shift:baseline;color:#000000;fill:#f38fc0;fill-opacity:1;stroke:none;stroke-width:49;marker:none;visibility:visible;display:inline;overflow:visible;enable-background:accumulate;font-family:Sans;-inkscape-font-specification:Sans"
       d="m 2931.9688,2834.75 c -29.1395,0.3651 -59.2984,3.324 -90.4688,9.1562 -74.52,13.9431 -147.3195,30.7421 -217.1779,52.017 l 20.3874,45.1211 c 65.8092,-19.7654 134.7403,-35.6566 205.7905,-48.9505 114.2322,-21.3735 209.1355,-1.3494 290.125,45.75 80.9895,47.0993 147.9912,122.2081 201.3125,211.8437 125.1606,210.4006 104.4209,490.6009 39.9063,719.5313 -36.1654,128.3326 -73.8609,271.2343 -45.223,389.1895 14.6379,-124.0448 56.4017,-248.2422 92.3792,-375.9083 66.5671,-236.2135 91.0749,-529.2322 -44.9375,-757.875 -56.3779,-94.7738 -128.4242,-176.6092 -218.7813,-229.1562 -67.7678,-39.4104 -145.894,-61.814 -233.3124,-60.7188 z"
       id="path4008-8"
       inkscape:connector-curvature="0"
       sodipodi:nodetypes="ssccsssscssss" />
  </g>
  <g
     inkscape:groupmode="layer"
     id="layer6"
     inkscape:label="Head (L)"
     style="display:inline"
     sodipodi:insensitive="true"
     transform="translate(223.26357,-46.027002)">
    <path
       style="fill:#7bd7fc;fill-opacity:1;stroke:none"
       d="M 776,988.00001 C 580.86732,1351.4438 610.62088,1721.9152 756,2096 c -127.13427,19.427 -150.55538,71.8536 -112,144 11.04165,99.8195 69.12214,121.2409 124,148 54.89543,17.6208 109.79086,9.9628 164.68629,-17.6569 C 1062.3458,2316.7383 1127.6779,2379.3425 1160,2468 l -208,76 c 338.7872,40.841 671.7173,19.2066 988,-180 l 628,-400 -64,-592 -620,-511.99999 z"
       id="path4067"
       inkscape:connector-curvature="0"
       sodipodi:nodetypes="cccccccccccc" />
    <path
       style="fill:#ffffff;stroke:none"
       d="m 851,2391 128,135 195,-61 c -38.1668,-55.9165 -70.6082,-120.421 -155,-107 z"
       id="path4065"
       inkscape:connector-curvature="0"
       sodipodi:nodetypes="ccccc" />
    <path
       style="fill:#b9dce6;stroke:none"
       d="m 1093,2377 c -33.8866,24.3333 -75.669,48.6667 -131,73 62.8847,-14.5794 113.1726,-34.1976 163,-54 z"
       id="path4063"
       inkscape:connector-curvature="0"
       sodipodi:nodetypes="cccc" />
    <path
       style="fill:none;stroke:#b9dce6;stroke-width:21;stroke-linecap:butt;stroke-linejoin:miter;stroke-miterlimit:4;stroke-opacity:1;stroke-dasharray:none"
       d="m 851,2392 c 40.64645,53.9041 85.04145,94.6883 131,130"
       id="path4061"
       inkscape:connector-curvature="0"
       sodipodi:nodetypes="cc" />
    <path
       style="font-size:medium;font-style:normal;font-variant:normal;font-weight:normal;font-stretch:normal;text-indent:0;text-align:start;text-decoration:none;line-height:normal;letter-spacing:normal;word-spacing:normal;text-transform:none;direction:ltr;block-progression:tb;writing-mode:lr-tb;text-anchor:start;baseline-shift:baseline;color:#000000;fill:#449ed1;fill-opacity:1;stroke:none;stroke-width:49;marker:none;visibility:visible;display:inline;overflow:visible;enable-background:accumulate;font-family:Sans;-inkscape-font-specification:Sans"
       d="m 685.84375,2090.5625 c -40.28572,12.3022 -66.46551,37.032 -77.03125,65.5313 -10.56574,28.4992 -6.62886,57.8373 2.125,82.1874 21.23675,59.0731 52.36227,109.422 102.625,145.5313 59.90673,43.0376 126.55308,33.297 187.09375,13.4687 95.14312,-31.1613 148.72885,-28.5 180.53125,-12.8437 26.1174,12.8576 42.1996,36.453 56.0625,67.8437 -60.2939,25.8834 -118.0991,42.8278 -182.5625,60.0313 l -90.75,24.2187 91,23.2188 c 181.718,46.3657 384.6361,33.0442 564.4375,-6.9062 179.8014,-39.9505 306.3315,-100.4367 428.1595,-194.3142 -148.2869,67.3428 -264.4131,107.7265 -438.7845,146.4704 -141.6158,31.4659 -330.7187,44.3697 -475.9688,25.125 37.504,-12.1197 94.3795,-26.9198 133.4688,-43.875 l 20.8125,-9.5938 -8.1563,-21.375 c -17.3267,-45.4077 -45.8839,-83.5094 -83.0624,-101.8124 -37.1785,-18.303 -105.87285,-21.1667 -206.50005,13.25 -50.86973,17.3985 -108.38616,5.2771 -146.90625,-22.5313 -41.01232,-29.6076 -66.28309,-69.3618 -85.375,-122.4687 -5.98437,-16.6465 -7.47331,-34.6734 -2.3125,-48.5938 5.16081,-13.9204 15.85995,-26.6649 45.40625,-35.6875 70.51566,-21.5336 163.06613,-71.9493 170.72932,-183.166 -44.66272,78.288 -120.6696,116.6334 -185.04182,136.291 z"
       id="path4053"
       inkscape:connector-curvature="0"
       sodipodi:nodetypes="sssssscscsscscscszssssscs" />
    <path
       style="fill:#449ed1;fill-opacity:1;stroke:none"
       d="m 791.95959,2226.8782 c 45.32113,4.8473 80.74956,-3.7954 84.85282,-55.1543 34.22962,80.7325 -34.38862,100.5368 -84.85282,55.1543 z"
       id="path4059"
       inkscape:connector-curvature="0"
       sodipodi:nodetypes="ccc" />
    <path
       style="fill:none;stroke:#449ed1;stroke-width:49;stroke-linecap:butt;stroke-linejoin:miter;stroke-miterlimit:4;stroke-opacity:1;stroke-dasharray:none"
       d="M 806.10173,962.57129 C 572.04967,1264.3205 601.21514,1813.3338 760.8469,2085.4569"
       id="path4069"
       inkscape:connector-curvature="0"
       sodipodi:nodetypes="cc" />
  </g>
  <g
     inkscape:groupmode="layer"
     id="layer19"
     inkscape:label="Head (A)"
     sodipodi:insensitive="true"
     style="display:none"
     transform="translate(223.26357,-46.027002)">
    <path
       style="fill:#fcb3d7;fill-opacity:1;stroke:none;display:inline"
       d="m 776,988 c -195.13268,363.4438 -165.37912,733.9152 -20,1108 -127.13427,19.427 -150.55538,71.8536 -112,144 11.04165,99.8195 69.12214,121.2409 124,148 54.89543,17.6208 109.79086,9.9628 164.68629,-17.6569 C 1062.3458,2316.7383 1127.6779,2379.3425 1160,2468 l -208,76 c 338.7872,40.841 671.7173,19.2066 988,-180 l 628,-400 -64,-592 -620,-512 z"
       id="path4067-6"
       inkscape:connector-curvature="0"
       sodipodi:nodetypes="cccccccccccc" />
    <path
       style="fill:#ffffff;stroke:none;display:inline"
       d="m 851,2391 128,135 195,-61 c -38.1668,-55.9165 -70.6082,-120.421 -155,-107 z"
       id="path4065-6"
       inkscape:connector-curvature="0"
       sodipodi:nodetypes="ccccc" />
    <path
       style="fill:#b9dce6;stroke:none;display:inline"
       d="m 1093,2377 c -33.8866,24.3333 -75.669,48.6667 -131,73 62.8847,-14.5794 113.1726,-34.1976 163,-54 z"
       id="path4063-2"
       inkscape:connector-curvature="0"
       sodipodi:nodetypes="cccc" />
    <path
       style="fill:none;stroke:#b9dce6;stroke-width:21;stroke-linecap:butt;stroke-linejoin:miter;stroke-miterlimit:4;stroke-opacity:1;stroke-dasharray:none;display:inline"
       d="m 851,2392 c 40.64645,53.9041 85.04145,94.6883 131,130"
       id="path4061-3"
       inkscape:connector-curvature="0"
       sodipodi:nodetypes="cc" />
    <path
       style="font-size:medium;font-style:normal;font-variant:normal;font-weight:normal;font-stretch:normal;text-indent:0;text-align:start;text-decoration:none;line-height:normal;letter-spacing:normal;word-spacing:normal;text-transform:none;direction:ltr;block-progression:tb;writing-mode:lr-tb;text-anchor:start;baseline-shift:baseline;color:#000000;fill:#f38fc0;fill-opacity:1;stroke:none;stroke-width:49;marker:none;visibility:visible;display:inline;overflow:visible;enable-background:accumulate;font-family:Sans;-inkscape-font-specification:Sans"
       d="m 685.84375,2090.5625 c -40.28572,12.3022 -66.46551,37.032 -77.03125,65.5313 -10.56574,28.4992 -6.62886,57.8373 2.125,82.1874 21.23675,59.0731 52.36227,109.422 102.625,145.5313 59.90673,43.0376 126.55308,33.297 187.09375,13.4687 95.14312,-31.1613 148.72885,-28.5 180.53125,-12.8437 26.1174,12.8576 42.1996,36.453 56.0625,67.8437 -60.2939,25.8834 -118.0991,42.8278 -182.5625,60.0313 l -90.75,24.2187 91,23.2188 c 181.718,46.3657 384.6361,33.0442 564.4375,-6.9062 179.8014,-39.9505 306.3315,-100.4367 428.1595,-194.3142 -148.2869,67.3428 -264.4131,107.7265 -438.7845,146.4704 -141.6158,31.4659 -330.7187,44.3697 -475.9688,25.125 37.504,-12.1197 94.3795,-26.9198 133.4688,-43.875 l 20.8125,-9.5938 -8.1563,-21.375 c -17.3267,-45.4077 -45.8839,-83.5094 -83.0624,-101.8124 -37.1785,-18.303 -105.87285,-21.1667 -206.50005,13.25 -50.86973,17.3985 -108.38616,5.2771 -146.90625,-22.5313 -41.01232,-29.6076 -66.28309,-69.3618 -85.375,-122.4687 -5.98437,-16.6465 -7.47331,-34.6734 -2.3125,-48.5938 5.16081,-13.9204 15.85995,-26.6649 45.40625,-35.6875 70.51566,-21.5336 163.06613,-71.9493 170.72932,-183.166 -44.66272,78.288 -120.6696,116.6334 -185.04182,136.291 z"
       id="path4053-8"
       inkscape:connector-curvature="0"
       sodipodi:nodetypes="sssssscscsscscscszssssscs" />
    <path
       style="fill:#f38fc0;fill-opacity:1;stroke:none;display:inline"
       d="m 791.95959,2226.8782 c 45.32113,4.8473 80.74956,-3.7954 84.85282,-55.1543 34.22962,80.7325 -34.38862,100.5368 -84.85282,55.1543 z"
       id="path4059-2"
       inkscape:connector-curvature="0"
       sodipodi:nodetypes="ccc" />
    <path
       style="fill:none;stroke:#f38fc0;stroke-width:49;stroke-linecap:butt;stroke-linejoin:miter;stroke-miterlimit:4;stroke-opacity:1;stroke-dasharray:none;display:inline"
       d="M 806.10173,962.57128 C 572.04967,1264.3205 601.21514,1813.3338 760.8469,2085.4569"
       id="path4069-6"
       inkscape:connector-curvature="0"
       sodipodi:nodetypes="cc" />
  </g>
  <g
     inkscape:groupmode="layer"
     id="layer7"
     inkscape:label="Mane (L)"
     style="display:inline"
     sodipodi:insensitive="true"
     transform="translate(223.26357,-46.027002)">
    <path
       style="fill:#fcb3d7;fill-opacity:1;stroke:none"
       d="M 1349.1597,261.12137 C 1686.7795,45.848595 2150.4519,6.4085545 2542.756,176.26855 c 392.3041,169.85999 560.5183,628.19768 550.3717,890.95455 -65.2628,-104.99495 -118.5482,-186.67619 -253.3869,-305.47013 341.0392,560.34793 267.6359,1200.37863 93.3381,1634.83083 -115.6896,288.3664 -235.6678,605.2538 62.2254,947.5232 -213.0697,-50.1863 -349.6766,-219.3149 -497.8032,-370.524 2.7619,120.6796 37.6767,244.1876 84.8529,342.2397 -354.3217,-293.0215 -332.645,-822.1712 -186.6762,-1170.9689 -72.1077,47.1749 -160.0171,85.3739 -243.2448,87.6813 222.3465,-290.8665 385.8064,-589.2505 257.3869,-924.8957 L 1566.9486,495.88082 z"
       id="path4074-0"
       inkscape:connector-curvature="0"
       sodipodi:nodetypes="czccscccccc" />
    <path
       style="fill:#fcd4e8;fill-opacity:1;stroke:none"
       d="m 3074,1736 c -111.2974,35.5013 -220.0765,37.2409 -250,-100 -37.337,-171.2425 -271.9999,-130.1335 -374,10 l -24,102 c 130.84,-8.5791 200.7878,20.3682 230,148 31.531,137.7629 149.0252,313.8812 376,190 z"
       id="path4094"
       inkscape:connector-curvature="0"
       sodipodi:nodetypes="csccscc" />
    <path
       style="fill:none;stroke:#f38fc0;stroke-width:49;stroke-linecap:butt;stroke-linejoin:miter;stroke-miterlimit:9;stroke-opacity:1;stroke-dasharray:none"
       d="M 1346.1597,261.12137 C 1683.7795,45.848597 2150.4519,6.4085569 2542.756,176.26855 c 392.3041,169.85999 560.5183,628.19768 550.3717,890.95455 -65.2628,-104.99495 -118.5482,-186.67619 -253.3869,-305.47013 341.0392,560.34793 267.6359,1200.37863 93.3381,1634.83083 -115.6896,288.3664 -235.6678,605.2538 62.2254,947.5232 -213.0697,-50.1863 -349.6766,-219.3149 -497.8032,-370.524 2.7619,120.6796 37.6767,244.1876 84.8529,342.2397 -385.4344,-309.9921 -332.645,-822.1712 -186.6762,-1170.9689 -72.1077,47.1749 -160.0171,85.3739 -243.2448,87.6813 222.3465,-290.8665 385.8064,-589.2505 257.3869,-924.8957"
       id="path4074"
       inkscape:connector-curvature="0"
       sodipodi:nodetypes="czccscccccc" />
    <path
       style="fill:#ffffff;stroke:#bcdfd9;stroke-width:49;stroke-linecap:butt;stroke-linejoin:miter;stroke-miterlimit:4;stroke-opacity:1;stroke-dasharray:none"
       d="M 1944,1048 C 1498.8215,978.12237 1118.6611,974.70017 756,1016.4853 825.8897,732.12443 1059.6019,437.82069 1378.3431,240.17158 1639.7189,354.85559 1894.3172,491.9547 2080,644.00001 z"
       id="path4072"
       inkscape:connector-curvature="0"
       sodipodi:nodetypes="ccccc" />
  </g>
  <g
     inkscape:groupmode="layer"
     id="layer20"
     inkscape:label="Mane (A)"
     sodipodi:insensitive="true"
     style="display:none"
     transform="translate(223.26357,-46.027002)">
    <path
       style="fill:#7bd7fc;fill-opacity:1;stroke:none;display:inline"
       d="M 1349.1597,261.12137 C 1686.7795,45.848593 2150.4519,6.4085525 2542.756,176.26855 c 392.3041,169.85999 560.5183,628.19768 550.3717,890.95455 -65.2628,-104.99495 -118.5482,-186.67619 -253.3869,-305.47013 341.0392,560.34793 267.6359,1200.37863 93.3381,1634.83083 -115.6896,288.3664 -235.6678,605.2538 62.2254,947.5232 -213.0697,-50.1863 -349.6766,-219.3149 -497.8032,-370.524 2.7619,120.6796 37.6767,244.1876 84.8529,342.2397 -354.3217,-293.0215 -332.645,-822.1712 -186.6762,-1170.9689 -72.1077,47.1749 -160.0171,85.3739 -243.2448,87.6813 222.3465,-290.8665 385.8064,-589.2505 257.3869,-924.8957 L 1566.9486,495.88082 z"
       id="path4074-0-2"
       inkscape:connector-curvature="0"
       sodipodi:nodetypes="czccscccccc" />
    <path
       style="fill:#b9e4f5;fill-opacity:1;stroke:none;display:inline"
       d="m 3074,1736 c -111.2974,35.5013 -220.0765,37.2409 -250,-100 -37.337,-171.2425 -271.9999,-130.1335 -374,10 l -24,102 c 130.84,-8.5791 200.7878,20.3682 230,148 31.531,137.7629 149.0252,313.8812 376,190 z"
       id="path4094-7"
       inkscape:connector-curvature="0"
       sodipodi:nodetypes="csccscc" />
    <path
       style="fill:none;stroke:#449ed1;stroke-width:49;stroke-linecap:butt;stroke-linejoin:miter;stroke-miterlimit:9;stroke-opacity:1;stroke-dasharray:none;display:inline"
       d="M 1346.1597,261.12137 C 1683.7795,45.848595 2150.4519,6.4085545 2542.756,176.26855 c 392.3041,169.85999 560.5183,628.19768 550.3717,890.95455 -65.2628,-104.99495 -118.5482,-186.67619 -253.3869,-305.47013 341.0392,560.34793 267.6359,1200.37863 93.3381,1634.83083 -115.6896,288.3664 -235.6678,605.2538 62.2254,947.5232 -213.0697,-50.1863 -349.6766,-219.3149 -497.8032,-370.524 2.7619,120.6796 37.6767,244.1876 84.8529,342.2397 -385.4344,-309.9921 -332.645,-822.1712 -186.6762,-1170.9689 -72.1077,47.1749 -160.0171,85.3739 -243.2448,87.6813 222.3465,-290.8665 385.8064,-589.2505 257.3869,-924.8957"
       id="path4074-5"
       inkscape:connector-curvature="0"
       sodipodi:nodetypes="czccscccccc" />
    <path
       style="fill:#ffffff;stroke:#bcdfd9;stroke-width:49;stroke-linecap:butt;stroke-linejoin:miter;stroke-miterlimit:4;stroke-opacity:1;stroke-dasharray:none;display:inline"
       d="M 1944,1048 C 1498.8215,978.12237 1118.6611,974.70017 756,1016.4853 825.8897,732.12443 1059.6019,437.82069 1378.3431,240.17158 1639.7189,354.85559 1894.3172,491.9547 2080,644.00001 z"
       id="path4072-7"
       inkscape:connector-curvature="0"
       sodipodi:nodetypes="ccccc" />
  </g>
  <g
     inkscape:groupmode="layer"
     id="layer8"
     inkscape:label="Ear (L)"
     style="display:inline"
     sodipodi:insensitive="true"
     transform="translate(223.26357,-46.027002)">
    <path
       style="fill:#7bd7fc;fill-opacity:1;stroke:none"
       d="m 2362,1524 c 229.2641,-248.2186 278.8949,-709.77906 30.8493,-1112.97199 -88.0489,-103.4243 -174.0167,-144.41766 -254.5584,-22.62742 -168.7277,235.7004 -209.9271,464.68878 -237.5879,692.96461 0,0 461.5604,452.5202 461.297,442.6348 z"
       id="path4105"
       inkscape:connector-curvature="0"
       sodipodi:nodetypes="ccccc" />
    <path
       style="font-size:medium;font-style:normal;font-variant:normal;font-weight:normal;font-stretch:normal;text-indent:0;text-align:start;text-decoration:none;line-height:normal;letter-spacing:normal;word-spacing:normal;text-transform:none;direction:ltr;block-progression:tb;writing-mode:lr-tb;text-anchor:start;baseline-shift:baseline;color:#000000;fill:#449ed1;fill-opacity:1;stroke:none;stroke-width:49;marker:none;visibility:visible;display:inline;overflow:visible;enable-background:accumulate;font-family:Sans;-inkscape-font-specification:Sans"
       d="m 2245.3125,284.84375 c -24.7956,1.16842 -46.5566,12.92985 -65.25,28.9375 -18.6934,16.00765 -35.4381,36.58838 -52.9063,59.9375 -165.8877,221.73623 -238.9776,532.95038 -222.792,717.62445 26.1855,-185.32597 102.9682,-475.65233 262.042,-688.2807 16.6381,-22.23944 31.8448,-40.34242 45.5313,-52.0625 13.6865,-11.72008 24.7457,-16.70315 35.6875,-17.21875 10.9418,-0.5156 24.4209,3.25202 43.5938,17.375 19.1728,14.12298 42.8779,38.40615 70.9062,74.8125 126.5696,164.4028 175.6614,377.11663 166.0625,577.59375 -9.5989,200.4771 -60.5331,383.9276 -171.0548,520.6031 145.4783,-91.3245 209.934,-308.1877 219.9923,-518.2594 10.0583,-210.07163 -40.9292,-434.12369 -176.1875,-609.81245 -29.6754,-38.54569 -55.6504,-65.9554 -80.6563,-84.375 -25.0058,-18.4196 -50.1731,-28.04342 -74.9687,-26.875 z"
       id="path4097"
       inkscape:connector-curvature="0"
       sodipodi:nodetypes="ssscsssssscssss" />
    <path
       style="fill:#449ed1;fill-opacity:1;stroke:none"
       d="m 2310,642 c 32.6232,164.33551 21.7027,458.3482 -42,578 91.2971,-91.1096 130.0343,-426.22439 42,-578 z"
       id="path4103"
       inkscape:connector-curvature="0"
       sodipodi:nodetypes="ccc" />
  </g>
  <g
     inkscape:groupmode="layer"
     id="layer21"
     inkscape:label="Ear (A)"
     sodipodi:insensitive="true"
     style="display:none"
     transform="translate(223.26357,-46.027002)">
    <path
       style="fill:#fcb3d7;fill-opacity:1;stroke:none;display:inline"
       d="m 2362,1524 c 229.2641,-248.2186 278.8949,-709.77902 30.8493,-1112.97195 -88.0489,-103.4243 -174.0167,-144.41766 -254.5584,-22.62742 -168.7277,235.7004 -209.9271,464.68878 -237.5879,692.96457 0,0 461.5604,452.5202 461.297,442.6348 z"
       id="path4105-8"
       inkscape:connector-curvature="0"
       sodipodi:nodetypes="ccccc" />
    <path
       style="font-size:medium;font-style:normal;font-variant:normal;font-weight:normal;font-stretch:normal;text-indent:0;text-align:start;text-decoration:none;line-height:normal;letter-spacing:normal;word-spacing:normal;text-transform:none;direction:ltr;block-progression:tb;writing-mode:lr-tb;text-anchor:start;baseline-shift:baseline;color:#000000;fill:#f38fc0;fill-opacity:1;stroke:none;stroke-width:49;marker:none;visibility:visible;display:inline;overflow:visible;enable-background:accumulate;font-family:Sans;-inkscape-font-specification:Sans"
       d="m 2245.3125,284.84379 c -24.7956,1.16842 -46.5566,12.92985 -65.25,28.9375 -18.6934,16.00765 -35.4381,36.58838 -52.9063,59.9375 -165.8877,221.73623 -238.9776,532.95038 -222.792,717.62441 26.1855,-185.32593 102.9682,-475.65229 262.042,-688.28066 16.6381,-22.23944 31.8448,-40.34242 45.5313,-52.0625 13.6865,-11.72008 24.7457,-16.70315 35.6875,-17.21875 10.9418,-0.5156 24.4209,3.25202 43.5938,17.375 19.1728,14.12298 42.8779,38.40615 70.9062,74.8125 126.5696,164.4028 175.6614,377.11663 166.0625,577.59371 -9.5989,200.4771 -60.5331,383.9276 -171.0548,520.6031 145.4783,-91.3245 209.934,-308.1877 219.9923,-518.2594 10.0583,-210.07159 -40.9292,-434.12365 -176.1875,-609.81241 -29.6754,-38.54569 -55.6504,-65.9554 -80.6563,-84.375 -25.0058,-18.4196 -50.1731,-28.04342 -74.9687,-26.875 z"
       id="path4097-2"
       inkscape:connector-curvature="0"
       sodipodi:nodetypes="ssscsssssscssss" />
    <path
       style="fill:#f38fc0;fill-opacity:1;stroke:none;display:inline"
       d="m 2310,642.00004 c 32.6232,164.33551 21.7027,458.34816 -42,577.99996 91.2971,-91.1096 130.0343,-426.22435 42,-577.99996 z"
       id="path4103-7"
       inkscape:connector-curvature="0"
       sodipodi:nodetypes="ccc" />
  </g>
  <g
     inkscape:groupmode="layer"
     id="layer12"
     inkscape:label="Lower Eyelashes"
     sodipodi:insensitive="true"
     style="display:inline"
     transform="translate(223.26357,-46.027002)">
    <path
       style="fill:#000000;stroke:none"
       d="m 1964.3426,1522.5998 c 48.5311,-87.4779 126.469,-141.9462 205.061,-188.0903 -68.7934,5.1228 -175.3919,49.5964 -207.8894,140.0071 z"
       id="path4302"
       inkscape:connector-curvature="0"
       sodipodi:nodetypes="cccc" />
    <path
       style="fill:#000000;stroke:none"
       d="m 1967.1711,1604.6242 c 86.5449,-84.2265 175.5647,-104.1071 265.8721,-90.5096 -92.0191,28.3764 -183.2819,55.6891 -253.1442,135.7645 z"
       id="path4304"
       inkscape:connector-curvature="0"
       sodipodi:nodetypes="cccc" />
    <path
       style="fill:#000000;stroke:none"
       d="m 1969.9995,1716.3471 c 93.7445,-24.3886 203.2277,-24.5829 263.0437,7.0711 -90.0383,7.2707 -180.0765,4.4916 -270.1148,43.8406 z"
       id="path4306"
       inkscape:connector-curvature="0"
       sodipodi:nodetypes="cccc" />
    <path
       style="fill:#000000;stroke:none"
       d="m 1923.3304,1898.7807 c 123.878,-20.9553 196.7445,19.0216 261.6296,65.0538 -86.758,-21.5433 -172.1647,-46.33 -277.1859,-24.0416 z"
       id="path4308"
       inkscape:connector-curvature="0"
       sodipodi:nodetypes="cccc" />
  </g>
  <g
     inkscape:groupmode="layer"
     id="layer10"
     inkscape:label="Eyes"
     style="display:inline"
     sodipodi:insensitive="true"
     transform="translate(223.26357,-46.027002)">
    <path
       style="fill:#ffffff;stroke:none"
       d="m 1951.6147,1270.8699 c 210.1119,374.2123 80.5692,630.8519 -96.1665,871.1555 -201.6767,103.16 -409.8102,176.1887 -656.1951,70.7107 -40.2316,-500.6467 4.8338,-946.5746 752.3616,-941.8662 z"
       id="path4135"
       inkscape:connector-curvature="0"
       sodipodi:nodetypes="cccc"
       clip-path="url(#clipPath4154)" />
    <path
       style="fill:#ffffff;stroke:none"
       d="m 763.67532,2093.9421 c 171.09467,-82.6199 229.3094,-520.1432 -53.74011,-879.6408 -174.08839,149.0533 -93.77306,579.7811 53.74011,879.6408 z"
       id="path4133"
       inkscape:connector-curvature="0"
       sodipodi:nodetypes="ccc"
       clip-path="url(#clipPath4166)" />
    <path
       sodipodi:type="arc"
       style="color:#000000;fill:url(#linearGradient4223);fill-opacity:1;fill-rule:nonzero;stroke:none;stroke-width:1px;marker:none;visibility:visible;display:inline;overflow:visible;enable-background:accumulate"
       id="path4125"
       sodipodi:cx="1491.9954"
       sodipodi:cy="1956.7634"
       sodipodi:rx="301.22748"
       sodipodi:ry="369.10974"
       d="m 1793.2228,1956.7634 c 0,203.8537 -134.8641,369.1098 -301.2274,369.1098 -166.3634,0 -301.2275,-165.2561 -301.2275,-369.1098 0,-203.8537 134.8641,-369.1097 301.2275,-369.1097 166.3633,0 301.2274,165.256 301.2274,369.1097 z"
       transform="matrix(1.0187793,0,0,1.0229885,-81.758809,-101.55161)"
       clip-path="url(#clipPath4150)" />
    <path
       sodipodi:type="arc"
       style="color:#000000;fill:url(#linearGradient4231);fill-opacity:1;fill-rule:nonzero;stroke:none;stroke-width:1px;marker:none;visibility:visible;display:inline;overflow:visible;enable-background:accumulate"
       id="path4129"
       sodipodi:cx="831.55756"
       sodipodi:cy="1862.0111"
       sodipodi:rx="197.9899"
       sodipodi:ry="364.8671"
       d="m 1029.5475,1862.0111 c 0,201.5105 -88.64314,364.8671 -197.98994,364.8671 -109.34681,0 -197.9899,-163.3566 -197.9899,-364.8671 0,-201.5105 88.64309,-364.8671 197.9899,-364.8671 109.3468,0 197.98994,163.3566 197.98994,364.8671 z"
       transform="matrix(0.85,0,0,1,61.094024,-11.313709)"
       clip-path="url(#clipPath4162)" />
    <path
       sodipodi:type="arc"
       style="color:#000000;fill:#000000;fill-opacity:1;fill-rule:nonzero;stroke:none;stroke-width:1px;marker:none;visibility:visible;display:inline;overflow:visible;enable-background:accumulate"
       id="path4131"
       sodipodi:cx="787.71698"
       sodipodi:cy="1888.8812"
       sodipodi:rx="106.06602"
       sodipodi:ry="264.45795"
       d="m 893.783,1888.8812 c 0,146.0561 -47.48738,264.458 -106.06602,264.458 -58.57864,0 -106.06602,-118.4019 -106.06602,-264.458 0,-146.0561 47.48738,-264.4579 106.06602,-264.4579 58.57864,0 106.06602,118.4018 106.06602,264.4579 z"
       transform="matrix(1.08,0,0,1,-65.845785,-11.313708)"
       clip-path="url(#clipPath4158)" />
    <path
       style="fill:#76ade6;fill-opacity:1;stroke:none"
       d="m 1546,2060 140,86 58,-122 -176,-14 z"
       id="path4174"
       inkscape:connector-curvature="0"
       clip-path="url(#clipPath4213)" />
    <path
       style="fill:#5790ca;fill-opacity:1;stroke:none"
       d="m 1566,2024 172,22 18,-98 -194,20 z"
       id="path4176"
       inkscape:connector-curvature="0"
       clip-path="url(#clipPath4209)" />
    <path
       sodipodi:type="arc"
       style="color:#000000;fill:#ffffff;fill-opacity:1;fill-rule:nonzero;stroke:none;stroke-width:1px;marker:none;visibility:visible;display:inline;overflow:visible;enable-background:accumulate"
       id="path4180"
       sodipodi:cx="833"
       sodipodi:cy="1730"
       sodipodi:rx="57"
       sodipodi:ry="106"
       d="m 890,1730 c 0,58.5422 -25.51977,106 -57,106 -31.48023,0 -57,-47.4578 -57,-106 0,-58.5422 25.51977,-106 57,-106 31.48023,0 57,47.4578 57,106 z"
       transform="matrix(0.82746966,-0.32278305,0.31381592,0.9672371,-395.18378,326.55803)" />
    <path
       sodipodi:type="arc"
       style="color:#000000;fill:#ffffff;fill-opacity:1;fill-rule:nonzero;stroke:none;stroke-width:1px;marker:none;visibility:visible;display:inline;overflow:visible;enable-background:accumulate"
       id="path4182"
       sodipodi:cx="811"
       sodipodi:cy="1918"
       sodipodi:rx="23"
       sodipodi:ry="32"
       d="m 834,1918 c 0,17.6731 -10.29745,32 -23,32 -12.70255,0 -23,-14.3269 -23,-32 0,-17.6731 10.29745,-32 23,-32 12.70255,0 23,14.3269 23,32 z"
       transform="matrix(0.94827851,-0.31743955,0.31743955,0.94827851,-548.90293,368.64529)" />
    <path
       sodipodi:type="arc"
       style="color:#000000;fill:#000000;fill-opacity:1;fill-rule:nonzero;stroke:none;stroke-width:1px;marker:none;visibility:visible;display:inline;overflow:visible;enable-background:accumulate"
       id="path4127"
       sodipodi:cx="1366.1302"
       sodipodi:cy="1961.0061"
       sodipodi:rx="212.13203"
       sodipodi:ry="251.73001"
       d="m 1578.2623,1961.0061 c 0,139.0266 -94.9748,251.73 -212.1321,251.73 -117.1572,0 -212.132,-112.7034 -212.132,-251.73 0,-139.0266 94.9748,-251.73 212.132,-251.73 117.1573,0 212.1321,112.7034 212.1321,251.73 z"
       transform="matrix(1.0266667,0,0,1,-30.773286,-8.4852814)"
       clip-path="url(#clipPath4146)" />
    <path
       sodipodi:type="arc"
       style="color:#000000;fill:#ffffff;fill-opacity:1;fill-rule:nonzero;stroke:none;stroke-width:1px;marker:none;visibility:visible;display:inline;overflow:visible;enable-background:accumulate"
       id="path4170"
       sodipodi:cx="1464"
       sodipodi:cy="1873"
       sodipodi:rx="88"
       sodipodi:ry="151"
       d="m 1552,1873 c 0,83.395 -39.3989,151 -88,151 -48.6011,0 -88,-67.605 -88,-151 0,-83.395 39.3989,-151 88,-151 48.6011,0 88,67.605 88,151 z"
       transform="matrix(0.86658206,-0.37447927,0.36462555,0.88946092,-499.6198,742.27737)" />
    <path
       sodipodi:type="arc"
       style="color:#000000;fill:#ffffff;fill-opacity:1;fill-rule:nonzero;stroke:none;stroke-width:1px;marker:none;visibility:visible;display:inline;overflow:visible;enable-background:accumulate"
       id="path4172"
       sodipodi:cx="1400"
       sodipodi:cy="2070"
       sodipodi:rx="34"
       sodipodi:ry="46"
       d="m 1434,2070 c 0,25.4051 -15.2223,46 -34,46 -18.7777,0 -34,-20.5949 -34,-46 0,-25.4051 15.2223,-46 34,-46 18.7777,0 34,20.5949 34,46 z"
       transform="matrix(0.80417614,-0.59439106,0.59439106,0.80417614,-960.23609,1231.5029)" />
  </g>
  <g
     inkscape:groupmode="layer"
     id="layer9"
     inkscape:label="Eye Clipping"
     style="opacity:0.5;display:none"
     sodipodi:insensitive="true"
     transform="translate(223.26357,-46.027002)">
    <path
       style="fill:#00ff00;fill-opacity:1;stroke:#ff0000;stroke-width:1px;stroke-linecap:butt;stroke-linejoin:miter;stroke-opacity:1"
       d="m 1230.3658,2164.6529 c -91.2989,-271.9462 -130.6626,-690.3807 141.4214,-868.3272 165.5668,-108.2829 380.9464,-110.7215 540.2295,-22.6274 257.9966,616.1892 -112.364,1049.865 -681.6509,890.9546 z"
       id="path4108"
       inkscape:connector-curvature="0"
       sodipodi:nodetypes="cscc" />
    <path
       style="fill:#00ff00;fill-opacity:1;stroke:#ff0000;stroke-width:1px;stroke-linecap:butt;stroke-linejoin:miter;stroke-opacity:1"
       d="m 780.64589,2071.3147 c -100.4675,-132.8604 -156.73068,-545.989 -107.48023,-837.2144 229.23749,-21.9541 205.28461,201.4962 214.96046,379.0092 -5.82185,161.3079 45.51545,338.947 -107.48023,458.2052 z"
       id="path4110"
       inkscape:connector-curvature="0"
       sodipodi:nodetypes="cccc" />
  </g>
  <g
     inkscape:groupmode="layer"
     id="layer11"
     inkscape:label="Upper Eyelashes (L)"
     style="display:inline"
     sodipodi:insensitive="true"
     transform="translate(223.26357,-46.027002)">
    <path
       style="fill:#b9e4f5;fill-opacity:1;stroke:none"
       d="m 1965.7569,1273.6983 c -378.2243,-0.098 -648.0263,116.5675 -732.5627,432.7493 -63.0331,160.2775 -6.6679,320.5551 -2.8284,480.8326 -204.9934,-309.5364 -82.253,-634.6792 19.799,-958.8368 243.7518,-60.6208 486.643,-108.763 715.5921,45.2549 z"
       id="path4246"
       inkscape:connector-curvature="0"
       sodipodi:nodetypes="ccccc"
       clip-path="url(#clipPath4259)" />
    <path
       style="fill:#b9e4f5;fill-opacity:1;stroke:none"
       d="m 890.95454,1850.6974 c -10.62062,-219.4344 -11.00062,-568.161 -237.58787,-596.7981 16.42415,-110.4542 103.05108,-121.4545 209.3036,-104.6518 43.7782,218.9316 191.30943,392.9035 28.28427,701.4499 z"
       id="path4248"
       inkscape:connector-curvature="0"
       sodipodi:nodetypes="cccc"
       clip-path="url(#clipPath4263)" />
    <path
       style="fill:#000000;stroke:none"
       d="M 836.97056,2022.1005 C 911.02579,1855.6612 896.10587,1589.4222 810.24264,1412 781.68773,1352.996 737.88617,1274.1463 664,1296 c -2.00942,30.7369 -5.6172,63.7746 -7.16039,96.3963 C 586.60983,1388.5438 506.60564,1375.5205 470,1310 c 61.15195,40.4745 106.74755,48.0802 159.41421,43.5355 7.29072,-43.7131 8.0153,-91.1639 31.37259,-116.2218 C 723.07255,1193.102 790.87992,1264.622 838,1394 c 44.85199,123.1505 113.61378,453.5 -1.02944,628.1005 z"
       id="path4267"
       inkscape:connector-curvature="0"
       sodipodi:nodetypes="cscccccsc" />
    <path
       style="fill:#000000;stroke:none"
       d="m 646.2956,1294.9115 c -55.29785,-16.95 -96.96517,-58.2402 -125.86501,-122.3295 -3.38245,90.8404 54.87573,125.0381 120.20815,152.7351 z"
       id="path4269"
       inkscape:connector-curvature="0"
       sodipodi:nodetypes="cccc" />
    <path
       style="fill:#000000;stroke:none"
       d="m 678.1154,1235.5145 c -44.91312,-37.9491 -81.93532,-83.1258 -85.55992,-154.8564 -26.50636,76.7838 16.49077,137.4231 60.81119,182.4336 z"
       id="path4271"
       inkscape:connector-curvature="0"
       sodipodi:nodetypes="cccc" />
    <path
       style="fill:#000000;stroke:none"
       d="m 1230.3658,2164.6529 c -15.233,-185.9369 -28.1626,-385.7476 85.0636,-563.0378 C 1406.6137,1458.8383 1538.5885,1355.2703 1802,1326 c 168.9877,-18.7779 379.3781,-10.4634 413.7157,-169.1716 C 2124.1702,1242.9703 1983.4024,1257.3582 1804,1260 c -230.7852,3.3985 -442.2535,39.1972 -562,332 -78.8465,192.7946 -60.2733,376.5473 -11.6342,572.6529 z"
       id="path4273"
       inkscape:connector-curvature="0"
       sodipodi:nodetypes="csscssc" />
    <path
       style="fill:#000000;stroke:none"
       d="m 1874,1270 c 90.2168,-58.335 136.5579,-129.8326 174,-204 4.9482,85.073 -30.2916,152.9227 -100,206 z"
       id="path4275"
       inkscape:connector-curvature="0"
       sodipodi:nodetypes="cccc" />
    <path
       style="fill:#000000;stroke:none"
       d="m 1732,1294 c 70.92,-75.8678 128.5651,-152.8418 136,-234 37.3143,90.6614 -10.8162,169.5881 -68,222 z"
       id="path4277"
       inkscape:connector-curvature="0"
       sodipodi:nodetypes="cccc" />
    <path
       style="fill:#000000;stroke:none"
       d="m 1608,1302 c 60.6829,-82.4458 40.0429,-158.6147 40,-236 51.06,62 61.7288,152 18,228 z"
       id="path4279"
       inkscape:connector-curvature="0"
       sodipodi:nodetypes="cccc" />
    <path
       style="fill:#000000;stroke:none"
       d="m 1478,1120 c 15.6864,78.2103 8.9063,172.4631 -34,242 l 60,-32 c 28.1523,-52.1767 43.9532,-136.5952 -26,-210 z"
       id="path4281"
       inkscape:connector-curvature="0"
       sodipodi:nodetypes="cccc" />
    <path
       style="font-size:medium;font-style:normal;font-variant:normal;font-weight:normal;font-stretch:normal;text-indent:0;text-align:start;text-decoration:none;line-height:normal;letter-spacing:normal;word-spacing:normal;text-transform:none;direction:ltr;block-progression:tb;writing-mode:lr-tb;text-anchor:start;baseline-shift:baseline;color:#000000;fill:#449ed1;fill-opacity:1;stroke:none;stroke-width:49;marker:none;visibility:visible;display:inline;overflow:visible;enable-background:accumulate;font-family:Sans;-inkscape-font-specification:Sans"
       d="m 685.84375,2090.5625 c -40.28572,12.3022 -66.46551,37.032 -77.03125,65.5313 -10.56574,28.4992 -6.62886,57.8373 2.125,82.1874 l 46.125,-16.5624 c -5.98437,-16.6465 -7.47331,-34.6734 -2.3125,-48.5938 5.16081,-13.9204 15.85995,-26.6649 45.40625,-35.6875 70.51566,-21.5336 163.06613,-71.9493 170.72932,-183.166 -44.66272,78.288 -120.6696,116.6334 -185.04182,136.291 z"
       id="path4053-0"
       inkscape:connector-curvature="0"
       sodipodi:nodetypes="ssccsscs" />
  </g>
  <g
     inkscape:groupmode="layer"
     id="layer22"
     inkscape:label="Upper Eyelashes (A)"
     sodipodi:insensitive="true"
     style="display:none"
     transform="translate(223.26357,-46.027002)">
    <path
       style="fill:#fcd4e8;fill-opacity:1;stroke:none;display:inline"
       d="m 1965.7569,1273.6983 c -378.2243,-0.098 -648.0263,116.5675 -732.5627,432.7493 -63.0331,160.2775 -6.6679,320.5551 -2.8284,480.8326 -204.9934,-309.5364 -82.253,-634.6792 19.799,-958.8368 243.7518,-60.6208 486.643,-108.763 715.5921,45.2549 z"
       id="path4246-8"
       inkscape:connector-curvature="0"
       sodipodi:nodetypes="ccccc"
       clip-path="url(#clipPath4259-8)" />
    <path
       style="fill:#fcd4e8;fill-opacity:1;stroke:none;display:inline"
       d="m 890.95454,1850.6974 c -10.62062,-219.4344 -11.00062,-568.161 -237.58787,-596.7981 16.42415,-110.4542 103.05108,-121.4545 209.3036,-104.6518 43.7782,218.9316 191.30943,392.9035 28.28427,701.4499 z"
       id="path4248-9"
       inkscape:connector-curvature="0"
       sodipodi:nodetypes="cccc"
       clip-path="url(#clipPath4263-2)" />
    <path
       style="fill:#000000;stroke:none;display:inline"
       d="M 836.97056,2022.1005 C 911.02579,1855.6612 896.10587,1589.4222 810.24264,1412 781.68773,1352.996 737.88617,1274.1463 664,1296 c -2.00942,30.7369 -5.6172,63.7746 -7.16039,96.3963 C 586.60983,1388.5438 506.60564,1375.5205 470,1310 c 61.15195,40.4745 106.74755,48.0802 159.41421,43.5355 7.29072,-43.7131 8.0153,-91.1639 31.37259,-116.2218 C 723.07255,1193.102 790.87992,1264.622 838,1394 c 44.85199,123.1505 113.61378,453.5 -1.02944,628.1005 z"
       id="path4267-2"
       inkscape:connector-curvature="0"
       sodipodi:nodetypes="cscccccsc" />
    <path
       style="fill:#000000;stroke:none;display:inline"
       d="m 646.2956,1294.9115 c -55.29785,-16.95 -96.96517,-58.2402 -125.86501,-122.3295 -3.38245,90.8404 54.87573,125.0381 120.20815,152.7351 z"
       id="path4269-8"
       inkscape:connector-curvature="0"
       sodipodi:nodetypes="cccc" />
    <path
       style="fill:#000000;stroke:none;display:inline"
       d="m 678.1154,1235.5145 c -44.91312,-37.9491 -81.93532,-83.1258 -85.55992,-154.8564 -26.50636,76.7838 16.49077,137.4231 60.81119,182.4336 z"
       id="path4271-2"
       inkscape:connector-curvature="0"
       sodipodi:nodetypes="cccc" />
    <path
       style="fill:#000000;stroke:none;display:inline"
       d="m 1230.3658,2164.6529 c -15.233,-185.9369 -28.1626,-385.7476 85.0636,-563.0378 C 1406.6137,1458.8383 1538.5885,1355.2703 1802,1326 c 168.9877,-18.7779 379.3781,-10.4634 413.7157,-169.1716 C 2124.1702,1242.9703 1983.4024,1257.3582 1804,1260 c -230.7852,3.3985 -442.2535,39.1972 -562,332 -78.8465,192.7946 -60.2733,376.5473 -11.6342,572.6529 z"
       id="path4273-0"
       inkscape:connector-curvature="0"
       sodipodi:nodetypes="csscssc" />
    <path
       style="fill:#000000;stroke:none;display:inline"
       d="m 1874,1270 c 90.2168,-58.335 136.5579,-129.8326 174,-204 4.9482,85.073 -30.2916,152.9227 -100,206 z"
       id="path4275-5"
       inkscape:connector-curvature="0"
       sodipodi:nodetypes="cccc" />
    <path
       style="fill:#000000;stroke:none;display:inline"
       d="m 1732,1294 c 70.92,-75.8678 128.5651,-152.8418 136,-234 37.3143,90.6614 -10.8162,169.5881 -68,222 z"
       id="path4277-5"
       inkscape:connector-curvature="0"
       sodipodi:nodetypes="cccc" />
    <path
       style="fill:#000000;stroke:none;display:inline"
       d="m 1608,1302 c 60.6829,-82.4458 40.0429,-158.6147 40,-236 51.06,62 61.7288,152 18,228 z"
       id="path4279-2"
       inkscape:connector-curvature="0"
       sodipodi:nodetypes="cccc" />
    <path
       style="fill:#000000;stroke:none;display:inline"
       d="m 1478,1120 c 15.6864,78.2103 8.9063,172.4631 -34,242 l 60,-32 c 28.1523,-52.1767 43.9532,-136.5952 -26,-210 z"
       id="path4281-7"
       inkscape:connector-curvature="0"
       sodipodi:nodetypes="cccc" />
    <path
       style="font-size:medium;font-style:normal;font-variant:normal;font-weight:normal;font-stretch:normal;text-indent:0;text-align:start;text-decoration:none;line-height:normal;letter-spacing:normal;word-spacing:normal;text-transform:none;direction:ltr;block-progression:tb;writing-mode:lr-tb;text-anchor:start;baseline-shift:baseline;color:#000000;fill:#f38fc0;fill-opacity:1;stroke:none;stroke-width:49;marker:none;visibility:visible;display:inline;overflow:visible;enable-background:accumulate;font-family:Sans;-inkscape-font-specification:Sans"
       d="m 685.84375,2090.5625 c -40.28572,12.3022 -66.46551,37.032 -77.03125,65.5313 -10.56574,28.4992 -6.62886,57.8373 2.125,82.1874 l 46.125,-16.5624 c -5.98437,-16.6465 -7.47331,-34.6734 -2.3125,-48.5938 5.16081,-13.9204 15.85995,-26.6649 45.40625,-35.6875 70.51566,-21.5336 163.06613,-71.9493 170.72932,-183.166 -44.66272,78.288 -120.6696,116.6334 -185.04182,136.291 z"
       id="path4053-0-6"
       inkscape:connector-curvature="0"
       sodipodi:nodetypes="ssccsscs" />
  </g>
  <!--Created by Sigma
      http://90sigma.deviantart.com/-->
</svg>
