<?xml version="1.0" encoding="UTF-8"?><svg xmlns="http://www.w3.org/2000/svg" xmlns:xlink="http://www.w3.org/1999/xlink" version="1.1" viewBox="0 0 6056.9858 6056.9756" width="6056.9858" height="6056.9756"><defs id="defs4200"><linearGradient id="linearGradient4937"><stop id="stop4939" stop-color="#f1d74d" offset="0"/><stop id="stop4941" stop-color="#ea5e01" offset="1"/></linearGradient><clipPath id="clipPath4849" clipPathUnits="userSpaceOnUse"><path id="path4851" d="m3555.3 1527.6c36.367 324.21 251.77 572.59 496.23 591.32 207.31 15.884 396.25-288.3 244.5-627.36-126.65-322.2-718.37-563.5-740.73 36.036z" stroke="#000" stroke-width=".99315px" fill="#0f0"/></clipPath><clipPath id="clipPath4853" clipPathUnits="userSpaceOnUse"><path id="path4855" d="m3525.1 1639.3c87.197 297.64 344.32 495.51 595.31 473.73 212.85-18.465 357.4-333.58 150.81-626.57-178.51-281.23-816.43-411.97-746.12 152.83z" stroke="#000" stroke-width=".98060px" fill="#0f0"/></clipPath><clipPath id="clipPath4857" clipPathUnits="userSpaceOnUse"><path id="path4859" d="m3526.6 1649.8c104.06 304.28 372.1 495.62 621.46 459.23 211.48-30.861 337.82-366.01 114.81-658.9-194.29-282.23-838.72-382.96-736.27 199.67z" stroke="#000" stroke-width="1px" fill="#0f0"/></clipPath><clipPath id="clipPath4861" clipPathUnits="userSpaceOnUse"><path id="path4863" d="m4629.8 961.69c-79.83 331.07 67.445 666.32 265 803.9 52.735 12.306 104.7 19.212 153.89 6.7102-35.222-222.69-116.46-638.2-418.89-810.61z" stroke="#000" stroke-width="1.0228px" fill="#0f0"/></clipPath><clipPath id="clipPath4869" clipPathUnits="userSpaceOnUse"><path id="path4871" d="m4693.8 950.94c-243.2 302.97-228.36 694.38-65.317 905.87 54.72 31.923 111.03 58.134 173.07 63.82 61.806-236.77 159.36-684.32-107.76-969.69z" stroke="#000" stroke-width="1.1751px" fill="#0f0"/></clipPath><clipPath id="clipPath4873" clipPathUnits="userSpaceOnUse"><path id="path4875" d="m4682.2 938.44c-114.11 333.62-24.911 705.48 134.78 878.54 45.757 20.708 91.514 35.663 137.27 29.95-3.0567-237.67-22.691-683.45-272.05-908.49z" stroke="#000" stroke-width="1px" fill="#0f0"/></clipPath><mask id="mask4944" maskUnits="userSpaceOnUse"><path id="path4946" d="m4687.2 938.44c63.038 68.214 111.81 145.25 149.37 227.13l136.72-71.781-70.593-176.48z" stroke="#fff" stroke-width="34" fill="#fff"/></mask><mask id="mask4948" maskUnits="userSpaceOnUse"><path id="path4950" d="m4687.2 938.44c63.038 68.214 111.81 145.25 149.37 227.13l136.72-71.781-70.593-176.48z" stroke="#fff" stroke-width="34" fill="#fff"/></mask><clipPath id="clipPath4869-7" clipPathUnits="userSpaceOnUse"><path id="path4871-4" d="m4693.8 950.94c-243.2 302.97-228.36 694.38-65.317 905.87 54.72 31.923 111.03 58.134 173.07 63.82 61.806-236.77 159.36-684.32-107.76-969.69z" stroke="#000" stroke-width="1.1751px" fill="#0f0"/></clipPath><clipPath id="clipPath4853-0" clipPathUnits="userSpaceOnUse"><path id="path4855-9" d="m3525.1 1639.3c87.197 297.64 344.32 495.51 595.31 473.73 212.85-18.465 357.4-333.58 150.81-626.57-178.51-281.23-816.43-411.97-746.12 152.83z" stroke="#000" stroke-width=".98060px" fill="#0f0"/></clipPath><clipPath id="clipPath4921" clipPathUnits="userSpaceOnUse"><path id="path4923" d="m4410.1 1714.6a304.49 411.81 0 1 1 -608.98 0 304.49 411.81 0 1 1 608.98 0z" clip-path="url(#clipPath4853-0)" fill-rule="evenodd" transform="matrix(.99849 -.054904 .057098 1.0384 -86.718 141.1)" fill="#f0f"/></clipPath><clipPath id="clipPath4925" clipPathUnits="userSpaceOnUse"><path id="path4927" d="m4410.1 1714.6a304.49 411.81 0 1 1 -608.98 0 304.49 411.81 0 1 1 608.98 0z" clip-path="url(#clipPath4853-0)" fill-rule="evenodd" transform="matrix(.99849 -.054904 .057098 1.0384 -86.718 141.1)" fill="#f0f"/></clipPath><clipPath id="clipPath4929" clipPathUnits="userSpaceOnUse"><path id="path4931" d="m4864.4 1534.9a185.94 391.85 0 1 1 -371.88 0 185.94 391.85 0 1 1 371.88 0z" clip-path="url(#clipPath4869-7)" fill-rule="evenodd" transform="matrix(.71916 -.17979 .20063 .95686 1115.8 872.4)" fill="#f0f"/></clipPath><clipPath id="clipPath4933" clipPathUnits="userSpaceOnUse"><path id="path4935" d="m4864.4 1534.9a185.94 391.85 0 1 1 -371.88 0 185.94 391.85 0 1 1 371.88 0z" clip-path="url(#clipPath4869-7)" fill-rule="evenodd" transform="matrix(.71916 -.17979 .20063 .95686 1115.8 872.4)" fill="#f0f"/></clipPath><linearGradient id="linearGradient4943" y2="1382.3" xlink:href="#linearGradient4937" gradientUnits="userSpaceOnUse" x2="4067.2" y1="1807.3" x1="4087"/><linearGradient id="linearGradient4945" y2="1268.1" xlink:href="#linearGradient4937" gradientUnits="userSpaceOnUse" x2="4662.2" y1="1817.6" x1="4669.8"/><clipPath id="clipPath3950" clipPathUnits="userSpaceOnUse"><path id="path3952" opacity=".15972" d="m4752.5 937.85c-147.69 314.28-118.84 689.61 0.2502 877.94 38.076 25.618 76.94 45.589 118.63 45.273 29.799-233.65 73.26-673.49-118.88-923.22z" stroke="#000" stroke-width=".94523px" fill="#0f0"/></clipPath></defs><g transform="translate(640.04 114.24)" stroke="#3dab7e" stroke-width="54" fill="#66dbaf"><path id="path4763" d="m2371 3752.6c5.4054 67.196 3.9084 130.64-38.172 192.62-250.24 368.56-338.49 1079.3-301.26 1534.5 4.6566 56.944 27.23 135.97 74.875 149.75 181.54 52.506 398.14 44.232 549.08 0 64.642-18.943 122.02-64.742 94.842-134.78-230.73-594.45-89.448-1192 14.975-1732.1z"/><path id="path4768" d="m3436.3 3621.6c-43.005 540.75-41.676 1424.5 142.54 1850.2 57.196 132.16 37.791 153.42-34.942 174.71-115.15 33.704-491.5 50.077-633.8-12.051-29.423-12.846-47.573-47.821-54.908-109.82-78.872-666.58 33.01-1284.8 184.69-1846.9z"/></g><g transform="translate(640.04 114.24)"><path id="path4788" d="m1931.1 3144.2c-224.78-75.746-470.9 45.238-535.14 530.85-54.491 411.93 430.03 923.49 21.405 1412.8-232.01 277.8-628.76 310.99-950.4 214.05 253.45-45.543 505.06-104.39 637.15-289.01l-551.18-1793.3c-200.95 133.8-335.79 519.7-463.82 798.1 41.6-2019.1 1685.2-2186.3 2064.5-1053.2" stroke="#4dd0c8" stroke-miterlimit="9" stroke-width="54" fill="#aee8e6"/><path id="path4790" d="m2044.5 3017.3c-467.6-472-892.5-376.7-1220.3-123.7-261.69 201.97-476.74 600.95-490.3 839.82-13.908 245.06 37.396 537.95 124.51 755.09 147.98 368.88 249.54 486.67-231.18 650.72 168.38 60.546 491.13 65.688 715.79-17.602 509.05-188.73 70.991-709.53-39.285-994.31-75.146-194.06-119.12-474.96-25.05-800.76 165.73-574 744.37-656.28 1155.8-305.73z" stroke="#77e9e6" stroke-width="44" fill="#fff"/></g><g transform="translate(640.04 114.24)" stroke="#4dd0c8"><path id="path4793" d="m2198.3 572.13c-170.98 276.21-202.26 570.66-105.73 762.47 33.255 146.29 69.606 316.6 133.97 478.37 202.15 154.3 277.57 368.03 255.12 556.56-20.739 174.23-143.36 370.25-313.36 375.55 58.438 103.34 120.13 188.85 195.9 266.04l444.74-98.83c55.776-128.24 76.439-256.49 95.301-384.73-71.855-128.17-99.68-276.42-189.06-380.33-502.8-436-340-1049.3-516.8-1575.1z" stroke-width="54" fill="#aee8e6"/><path id="path4795" d="m2395.9 1927.5c159.57 172.12 406.78 530.07 180.01 1041.2" stroke-width="44" fill="none"/></g><g transform="translate(640.04 114.24)"><path id="path4847" fill="#91fed9" d="m2190 3816.5c209.57 72.885 415.32 176.34 637.46 148.74 356.39-7.5243 558.21-122.06 743.7-247.9 274.93-225.55 382.85-541.34 254.98-984.52-92.834-284.92-260.68-494.83-432.06-701.2l-938.48-488.72c131.66 278.59 393.38 957.37 467.47 1236-89.716 34.24-168.81 14.397-258.52-17.707-237.73-21.76-465.71-12.324-637.46 177.07z"/><path id="path4766" d="m3519.1 2185.2c619.23 754.9 421.31 1655.8-579.03 1772" stroke="#3dab7e" stroke-width="54" fill="none"/><path id="path4770" d="m2598.6 1927.5c152.84 323.9 263.72 606.05 319.76 861.23" stroke="#3dab7e" stroke-width="54" fill="none"/><path id="path4779" d="m2311.2 3840.6c46.428 48.331 365.38 119.88 374.14 102.36" stroke="#3dab7e" stroke-width="54" fill="none"/></g><g transform="translate(640.04 114.24)"><path id="path6743" fill="#91fed9" d="m1767.5 3588.1 82.638 520.87-162.77 2.5042-105.18 225.38 580.97 60.1c49.612-176.56 125.7-344.3 235.39-500.83l250.5-448.3-833.9-210.4z"/><path id="path4884" fill="#91fed9" d="m2763.7 3777.5c-87.598 101.72-111.6 194.36-134.57 286.86l432.06 56.663 21.249-308.1z"/><path id="path4773" d="m2925.4 2774.6c-142.48 78.965-481.5-194.16-850.65 116.48-369.63 311.05-327.75 694.85-266.95 1029.6m33.994 184.59c-61.181-8.0075-157.5-11.864-183.54 42.356-243.55 507.01-294.54 1092.1-240.02 1524.8 8.9085 70.69 36.286 138.97 98.83 155.3 193.52 50.528 429.35 44.334 592.98 7.0593 98.096-22.346 134.4-58.154 84.712-190.6-232.62-620.02-170.31-1236.9 242.08-1809.7" stroke="#3dab7e" stroke-width="54" fill="#91fed9"/><path id="path4775" d="m2667.5 3940.2c-3.6906 9.1991-7.3093 18.446-10.857 27.739-215.5 564.48-169.48 1299.3-105.52 1779.3 7.3597 55.239 31.903 110.76 88.492 129.99 158.48 53.87 455.23 48.823 663.43 0 75.053-17.6 95.609-56.918 42.356-169.42-143.34-302.82-341.84-1005.2-267.37-1728.9 0.8413-8.1757 1.7174-16.354 2.6289-24.535" stroke="#3dab7e" stroke-width="54" fill="#91fed9"/><path id="path4777" fill="#3dab7e" d="m2252.2 3544.6c-9.5883 68.984 94.508 245.63 167.05 315.25 72.544 69.62 156.77 115.81 260.9 116.58l0.375-59.178c-228.46-12.861-378.7-231.9-428.33-372.65z"/><path id="path4775-1" fill="#3dab7e" d="m2642.5 3930.1c-5.0327 8.7169-7.43 18.723-11.031 28.156l50.438 19.25c3.4945-9.1535 7.0853-18.256 10.719-27.312 24.95-62.188 61.407-150.38 76.597-182.93-22.929 7.9501-106.84 128.4-126.72 162.84zm411.38 21.25c-0.92 8.2565-1.8073 16.531-2.6563 24.781l53.719 5.5313c0.8336-8.1009 1.6908-16.208 2.5938-24.312 10.346-92.854-10.554-129.76-34.553-155.73-3.9646 20.398-13.618 100.49-19.103 149.73z"/><path id="path4882" d="m1828.3 3885.5c15.976 89.902 67.653 271.14 16.379 318.73-0.4737-73.333-49.042-183.04-69.058-312.53z" stroke="#3dab7e" stroke-width="1px" fill="#3dab7e"/><path id="path4845" d="m2873.2 2715.1c24.325 86.787 44.382 139.54 52.895 286.75 52.392-79.671 19.808-232.11-0.5562-296.14z" stroke="#3dab7e" stroke-width="1px" fill="#3dab7e"/><path id="path4770-4" fill="#3dab7e" d="m2913.4 2657.5-52 14.562c1.3943 4.9871 2.7677 9.9417 4.125 14.906 9.9815 36.51 19.233 72.417 27.196 107.75 9.1333 40.522 16.554 88.862 34.465 207.13 39.88-26.727 27.741-176.64 18.192-219.01-8.1536-36.175-17.576-72.847-27.759-110.09-1.3847-5.065-2.797-10.164-4.2188-15.25z"/></g><g transform="translate(640.04 114.24)"><path id="path4823" d="m2051.1 3222.8c-87.807 126.71-159.86 284.94-170.79 449.61" stroke="#3dab7e" stroke-width="9" fill="none"/><path id="path4825" d="m2080.3 3257.8c-92.247 121.61-157.62 315.57-164.95 470.04" stroke="#3dab7e" stroke-width="9" fill="none"/><path id="path4827" d="m2115.4 3307.5c-67.262 108.59-134.84 348.84-137.22 456.9" stroke="#3dab7e" stroke-width="9" fill="none"/><path id="path4821" d="m2048.2 3146.9c5.0789 37.795 78.211 164.07 128.46 164.95l-21.896 39.414c-55.639-32.582-93.434-95.595-138.68-163.49z" stroke="#3dab7e" stroke-width="9" fill="#f3ba38"/><path id="path4819" d="m2048.6 3086.4c-34.983 14.092-50.628 2.3615-36.909-41.893 7.3968-23.86 21.826-33.474 36.909-40.329 26.716-12.142 49.363 7.7373 49.546 39.224 0.136 23.463-28.456 96.679-53.32 134.69-67.384 103.01-129.44 194.87-160.52 299.09-32.366 108.52-7.6255 198.96 25.982 239.22 51.846 62.106 132.41 50.626 161.02-84.641 21.148-99.976 31.761-225.97 76.383-297.28 18.542-29.629 29.691-58.274 61.932-51.61 22.704 4.6924 26.064 19.946 26.837 35.095 1.4894 29.167-13.364 50.029-30.966 53.675-18.143 3.7578-22.101-13.169-28.902-26.837-31.175 60.748-38.16 144.85-43.353 202.31-7.4016 81.901-18.499 174.86-57.804 245.66-34.198 61.608-112.09 77.726-171.35 18.58-48.916-48.828-73.652-128.59-84.641-187.86-12.9-69.581 9.6333-132.91 35.095-194.05 46.35-111.31 149.38-220.16 194.05-343.05z" stroke="#3dab7e" stroke-width="9" fill="#f3ba38"/><path id="path4829" fill="#3dab7e" d="m2031.3 3045.7c7.2821-0.4927 23.796-7.1617 24.848-2.0755 2.7917 13.497-6.8544 31.84-14.775 48.408l8.125 3.875c8.4011-17.573 18.685-38.517 15.26-54.667-1.2613-5.9481-17.02-12.564-33.459 4.4602z"/><path id="path4835" fill="#3dab7e" d="m2182.4 3326.1c-7.4401 8.7552-12.961 21.475-17.969 34.531l8.4063 3.25c4.8979-12.771 10.403-24.905 16.406-31.969 3.0016-3.5321 10.385-8.2591 16.721-8.5846-4.2471-7.6244-19.845-1.6055-23.565 2.7721z"/><path id="path3954" fill-opacity=".25098" fill="#fff" d="m2048.4 3017c20.21 3.5731 32.844 21.779 32.415 41.869 12.17-27.038-3.5493-55.299-32.415-41.869z"/><path id="path3956" fill-opacity=".25098" fill="#fff" d="m2061.1 3206.6c20.292 35.235 36.926 64.836 75.751 95.472 2.9394 2.3194-3.6512 3.0248-7.3142 0.3539-24.784-18.071-56.654-55.896-70.788-90.125-1.8954-4.5904 0.7275-8.5183 2.3505-5.7002z"/><path id="path3958" fill-opacity=".25098" fill="#fff" d="m2181 3311.1c11.478-6.125 28.88-7.0894 44.427 3.5729 0.065-12.995-25.404-43.01-44.427-3.5729z"/></g><g transform="translate(640.04 114.24)"><path id="path4886" fill="#91fed9" d="m2320.9 1086.5c-53.219 224.18-92.343 597.25 396.52 844.42 437.23-39.985 612.14 359.3 910.66 337.55 305.22-59.04 624.91-79.029 801.34-485.81 44.916-172.4-34.107-171.28-120.2-160.27 6.2669-370.79-55.527-705.55-275.46-956.59-972.5-245.15-1623.8 10.58-1712.8 420.67z"/><path id="path4798" fill="#3dab7e" d="m4127.3 1536.9c37.55 61.678 135.6 116.23 219.48 107.87 35.661-3.5553 52.163 7.5067 62.75 26.656 10.587 19.15 11.867 50.605 0.7812 85.969-72.193 230.3-244.53 356.46-457.72 421.65-213.2 65.193-415.1 87.675-707.66 63.569 88.056 75.728 499.17 56.667 723.44-11.913s414.96-205.83 493.04-455.81c14.494-46.405 15.768-92.707-4.625-129.59-20.393-36.887-63.658-59.437-115.38-54.281-66.495 6.6292-140.59-0.9881-214.11-54.119z"/><path id="path4804" d="m4093.1 1822.1c36.424 108.21 108.42 151 228.37 133.53l-37.438 43.677c-115.63 13.841-198.19-67.307-190.93-177.2z" stroke="#3dab7e" stroke-width="1px" fill="#3dab7e"/><path id="path4806" d="m4183.9 1729.4c34.612 57.572 64.46 37.152 98.863 19.236-6.0422 30.967-33.775 56.04-57.316 52.199-26.37-4.3029-44.223-44.056-41.547-71.434z" stroke="#3dab7e" stroke-width="1px" fill="#3dab7e"/></g><g transform="translate(640.04 114.24)"><path id="path4824" d="m3509.2 1672.2c-40.52-513.96 238.27-458.71 494.18-444.26 184.03 112.27 351.62 244.28 404.33 514.14-39.29 363.01-218.61 413.66-429.28 394.34-368.66-145.09-375.53-306.63-469.22-464.23z" clip-path="url(#clipPath4857)" transform="translate(-628.99 -235.75)" fill="#fff"/><path id="path4826" d="m4567.4 1153.1 114.81-224.63c275.54 351.69 281.47 642.1 269.55 928.45-238.88 30.694-359.54-304.28-384.36-703.83z" clip-path="url(#clipPath4873)" transform="translate(-628.99 -235.75)" fill="#fff"/><path id="path4814" d="m4410.1 1714.6c0 227.44-136.33 411.81-304.49 411.81-168.17 0-304.49-184.38-304.49-411.81 0-227.44 136.33-411.81 304.49-411.81 168.17 0 304.49 184.38 304.49 411.81z" clip-path="url(#clipPath4853)" fill-rule="evenodd" transform="matrix(.99849 -.054904 .057098 1.0384 -715.7 -94.649)" fill="url(#linearGradient4943)"/><path id="path4816" d="m4864.4 1534.9c0 216.41-83.248 391.85-185.94 391.85s-185.94-175.44-185.94-391.85 83.248-391.85 185.94-391.85 185.94 175.44 185.94 391.85z" clip-path="url(#clipPath4869)" fill-rule="evenodd" transform="matrix(.71916 -.17979 .20063 .95686 486.83 636.66)" fill="url(#linearGradient4945)"/><path id="path4881" d="m3990.3 1780.3-215.31 58.239 130.6 217.07 142.95-167.66z" clip-path="url(#clipPath4925)" transform="translate(-628.99 -235.75)" stroke="#faff60" stroke-width="1px" fill="#faff60"/><path id="path4883" d="m4043.2 1872.1-151.78 160.6 65.298 58.239 107.65-146.48z" clip-path="url(#clipPath4921)" transform="translate(-628.99 -235.75)" stroke="#fefdd1" stroke-width="1px" fill="#fefdd1"/><path id="path4818" d="m4402.7 1767.1c0 198.49-101.13 359.4-225.87 359.4-124.75 0-225.87-160.91-225.87-359.4s101.13-359.4 225.87-359.4c124.75 0 225.87 160.91 225.87 359.4z" clip-path="url(#clipPath4849)" fill-rule="evenodd" transform="matrix(1.0041 -.22268 .20833 .96349 -990.53 733.84)"/><path id="path4887" d="m4899.2 1640.9 91.771 14.119-19.413 84.712-93.536-38.826z" clip-path="url(#clipPath4933)" transform="translate(-628.99 -235.75)" stroke="#faff60" stroke-width="1px" fill="#faff60"/><path id="path4885" d="m4879.7 1748.5c17.648 17.648 72.358 63.534 72.358 63.534l24.708-74.123-91.771-40.591z" clip-path="url(#clipPath4929)" transform="translate(-628.99 -235.75)" stroke="#fefdd1" stroke-width="1px" fill="#fefdd1"/><path id="path4820" d="m4884.4 1523.7c0 163.34-46.932 295.76-104.83 295.76-57.893 0-104.83-132.41-104.83-295.76 0-163.34 46.932-295.76 104.83-295.76 57.893 0 104.83 132.41 104.83 295.76z" clip-path="url(#clipPath3950)" fill-rule="evenodd" transform="matrix(1.0986 -.12943 .15320 1.0007 -1311.8 379.3)"/><path id="path4889" d="m4756.2 1533.2c0 16.57-8.2965 30.002-18.531 30.002s-18.531-13.432-18.531-30.002 8.2965-30.002 18.531-30.002 18.531 13.432 18.531 30.002z" fill-rule="evenodd" transform="matrix(.95921 .28269 -.28269 .95921 -2.32 -1509)" fill="#fff"/><path id="path4822" d="m4762.1 1335.3c0 63.407-25.142 114.81-56.156 114.81s-56.156-51.402-56.156-114.81c0-63.407 25.142-114.81 56.156-114.81s56.156 51.402 56.156 114.81z" clip-path="url(#clipPath4861)" fill-rule="evenodd" transform="matrix(.89761 .14911 -.12824 1.0437 20.764 -991.38)" fill="#fff"/><path id="path4879" d="m4115.6 1811.2c0 30.703-16.198 55.592-36.179 55.592s-36.179-24.889-36.179-55.592 16.198-55.592 36.179-55.592 36.179 24.889 36.179 55.592z" fill-rule="evenodd" transform="matrix(.83617 .54847 -.54847 .83617 1032.7 -2176.4)" fill="#fff"/><path id="path4877" d="m4105 1595.9c0 98.931-40.297 179.13-90.006 179.13s-90.006-80.199-90.006-179.13 40.297-179.13 90.006-179.13 90.006 80.199 90.006 179.13z" fill-rule="evenodd" transform="matrix(1.0525 .22424 -.24354 .99549 -460.26 -1164.2)" fill="#fff"/></g><g transform="translate(640.04 114.24)"><path id="path4924" d="m4058.2 702.69c232.33 251.41 270.94 622.65 268.3 914.73" stroke="#3dab7e" stroke-width="34" fill="none"/><path id="path4892" d="m2882.1 1419c-50.97-272.26 80.297-418.02 312.5-431.78 204.95-12.144 602 235.69 529.12 608.98" stroke="#000" stroke-width="34" fill="none"/><path id="path4894" d="m2930.4 1103.8c-57.404-29.534-116.53-80.295-171.33-90.367 34.066 59.974 103.31 86.384 153.2 119.65z" stroke="#000" stroke-width="1px"/><path id="path4896" d="m2875.2 1237c-73.575-10.142-147.05-25.852-222.13-20.194 54.746 39.299 148.58 43.665 220.88 54.908z" stroke="#000" stroke-width="1px"/><path id="path4898" d="m2881.8 1385.5c-59.115 6.8554-127.98-0.4892-173.83 28.488 42.929 20.294 129.78 10.748 192.54 9.9833-3.9141-9.6607-3.4153-23.029-10.345-51.165z" stroke="#000" stroke-width="1px"/><path id="path4900" d="m4024.9 715.09c-84.531 284.36-57.278 621.41 144.32 846.83-142.14-194.76-209.7-523.54-101.96-841.54z" stroke="#000" stroke-miterlimit="24"/><path id="path4798-2" fill="#3dab7e" d="m4341.4 1591.1c-66.495 6.6292-140.59-0.9881-214.11-54.119 37.55 61.678 135.6 116.23 219.48 107.87z"/><path id="path4920" d="m4710.9 1027c30.856-23.17 97.028-68.651 153.49-89.85-43.28 50.015-85.747 89.709-133.53 122.3z" mask="url(#mask4948)" transform="translate(-628.99 -235.75)" stroke="#000" stroke-width="1px"/><path id="path4922" d="m4768.3 1115.4c48.996-23.666 105.93-53.204 173.46-55.942-43.528 40.183-103.94 66.128-157.24 88.602z" mask="url(#mask4944)" transform="translate(-628.99 -235.75)" stroke="#000" stroke-width="1px"/></g><g transform="translate(640.04 114.24)"><path id="path4955" d="m2247.7 911.06c-295.7 302.02-269.42 712.8-7.0593 931.75 199.14 166.19 455.27 238.29 698.87 123.54-200.39-58.543-493.34-272.75-497.68-628.28z" stroke="#77e9e6" stroke-width="44" fill="#fff"/><path id="path4957" d="m2297.1 441.54c230-300.25 572.8-456.92 938.9-497.68-92.5 71.068-235 199.87-290.3 296.31 305.4-210.23 646.7-253.33 946.7-171.73 384.3 104.53 676 347.4 795.3 759.72-388.8-187.53-805-67.47-1195.3-57.78l-987.02-35.878z" stroke="#4dd0c8" stroke-miterlimit="9" stroke-width="54" fill="#aee8e6"/><path id="path4959" d="m2628.1 720.16c276.86-157.35 546.38-140.37 808.65-22.463 202.79 91.168 396.58 137.72 591.51 179.7-154.95 105.14-548.41 69.733-733.78 17.471-227.07-64.02-480.07-97.151-651.41-84.859z" stroke="#77e9e6" stroke-width="34" fill="#fff"/><path id="path3929" d="m2168.7 1031.1c-339.17 549.64 130.97 960.89 525.9 986.29" stroke="#77e9e6" stroke-width="34" fill="none"/></g><g transform="translate(640.04 114.24)"><path id="path4962" d="m3479.2 570.41c122.51-204.66 326.43-531.19 441.76-621.46 59.057-46.226 124.02-61.208 114.81 34.942-14.088 147.05-108.44 472.54-194.68 683.86z" stroke="#3dab7e" stroke-width="54" fill="#91fed9"/><path id="path4964" d="m3853.5 11.339c4.7874 105.65 43.84 184.4 144.76 184.69" stroke="#3dab7e" stroke-width="19" fill="none"/><path id="path4966" d="m3711.3 218.49c9.5586 159.75 103.14 229.09 204.66 252.08" stroke="#3dab7e" stroke-width="19" fill="none"/><path id="path4947" fill="#aee8e6" d="m3349.8 505.22c203.12-1.0675 411.34 43.795 628.6 169.99l-127.49 37.185-423.2-118.64z"/><path id="path4968" d="m3356.9 503.02c211.93-14.054 432.36 36.572 628.95 179.7-206.63-95.707-404.1-158.14-628.95-179.7z" stroke="#4dd0c8" stroke-width="1px" fill="#4dd0c8"/></g><g transform="translate(640.04 114.24)"><path id="path4949" fill="#91fed9" d="m2573.9 1593.6c-105.99-40.858-346.51-247.72-410.68-672.37-19.251-185.34 23.758-335.1 47.579-495.83 37.493-67.149 85.212-79.761 142.74-40.067 143.42 115.4 337.82 290.54 388.15 448.25z"/><path id="path4971" fill="#3dab7e" d="m2287.2 332.97c-8.2242-0.49847-16.46 0.15183-24.75 2.2188-33.161 8.2677-55.763 37.613-71.406 78.25-85.48 222.06-93.675 511.74 18.812 770.12 68.641 157.67 225.12 393.27 366.64 393.52-180.45-112.06-252.32-266.28-317.1-415.08-106.16-243.86-98.134-520.82-17.937-729.16 12.673-32.923 24.592-42.889 34.062-45.25 9.4706-2.3612 27.729 1.733 55.344 20.469 157.09 106.58 333.91 272.81 408.32 421.29-2.9646-143.53-216.11-356.14-378.01-465.98-24.833-16.848-49.296-28.911-73.969-30.406z"/><path id="path4973" d="m2326.1 710.17c33.1 209.59 111.6 389.83 224.6 547.63-147.9-111.2-237.9-354.24-224.6-547.63z" stroke="#3dab7e" stroke-width="1px" fill="#3dab7e"/></g></svg>