<?xml version="1.0" encoding="UTF-8"?><svg xmlns="http://www.w3.org/2000/svg" xmlns:xlink="http://www.w3.org/1999/xlink" version="1.1" viewBox="0 0 4994.2251 4994.2375" width="4994.2251" height="4994.2375"><defs id="defs4"><linearGradient id="linearGradient4224"><stop id="stop4226" stop-color="#a4f1da" offset="0"/><stop id="stop4228" stop-color="#287055" offset="1"/></linearGradient><clipPath id="clipPath4161" clipPathUnits="userSpaceOnUse"><path id="path4163" opacity=".5" style="color:#000000" d="m2042.5 1253.4a469.43 361.64 54.423 0 1 -81.094 570.68 469.43 361.64 54.423 0 1 -561.82 -233.26 469.43 361.64 54.423 0 1 81.094 -570.68 469.43 361.64 54.423 0 1 561.82 233.26z" stroke="#f00" fill="#0f0"/></clipPath><clipPath id="clipPath4165" clipPathUnits="userSpaceOnUse"><path id="path4167" opacity=".5" style="color:#000000" d="m2042.5 1253.4a469.43 361.64 54.423 0 1 -81.094 570.68 469.43 361.64 54.423 0 1 -561.82 -233.26 469.43 361.64 54.423 0 1 81.094 -570.68 469.43 361.64 54.423 0 1 561.82 233.26z" stroke="#f00" fill="#0f0"/></clipPath><clipPath id="clipPath4169" clipPathUnits="userSpaceOnUse"><path id="path4171" opacity=".5" style="color:#000000" d="m2042.5 1253.4a469.43 361.64 54.423 0 1 -81.094 570.68 469.43 361.64 54.423 0 1 -561.82 -233.26 469.43 361.64 54.423 0 1 81.094 -570.68 469.43 361.64 54.423 0 1 561.82 233.26z" stroke="#f00" fill="#0f0"/></clipPath><clipPath id="clipPath4173" clipPathUnits="userSpaceOnUse"><path id="path4175" opacity=".5" d="m2503.1 818.21c-182.28 179.83-133.12 482.35-72.013 706.88 34.546 83.088 90.216 113.37 145.55 144.48 36.268-276.65 67.647-553.83-73.539-851.36z" stroke="#f00" stroke-width="1px" fill="#0f0"/></clipPath><clipPath id="clipPath4177" clipPathUnits="userSpaceOnUse"><path id="path4179" opacity=".5" d="m2503.1 818.21c-182.28 179.83-133.12 482.35-72.013 706.88 34.546 83.088 90.216 113.37 145.55 144.48 36.268-276.65 67.647-553.83-73.539-851.36z" stroke="#f00" stroke-width="1px" fill="#0f0"/></clipPath><clipPath id="clipPath4181" clipPathUnits="userSpaceOnUse"><path id="path4183" opacity=".5" d="m2503.1 818.21c-182.28 179.83-133.12 482.35-72.013 706.88 34.546 83.088 90.216 113.37 145.55 144.48 36.268-276.65 67.647-553.83-73.539-851.36z" stroke="#f00" stroke-width="1px" fill="#0f0"/></clipPath><clipPath id="clipPath4208" clipPathUnits="userSpaceOnUse"><ellipse id="ellipse4210" style="color:#000000" rx="240" ry="287" cy="1527" cx="1918" fill="#f00"/></clipPath><clipPath id="clipPath4212" clipPathUnits="userSpaceOnUse"><ellipse id="ellipse4214" style="color:#000000" rx="240" ry="287" cy="1527" cx="1918" fill="#f00"/></clipPath><clipPath id="clipPath4216" clipPathUnits="userSpaceOnUse"><ellipse id="ellipse4218" style="color:#000000" rx="118" ry="245" cy="1363" cx="2548" fill="#f00"/></clipPath><clipPath id="clipPath4220" clipPathUnits="userSpaceOnUse"><ellipse id="ellipse4222" style="color:#000000" rx="118" ry="245" cy="1363" cx="2548" fill="#f00"/></clipPath><linearGradient id="linearGradient4230" y2="1301" xlink:href="#linearGradient4224" gradientUnits="userSpaceOnUse" x2="1898.5" y1="1761" x1="1964"/><linearGradient id="linearGradient4238" y2="1169" xlink:href="#linearGradient4224" gradientUnits="userSpaceOnUse" x2="2541.4" y1="1557" x1="2542"/><clipPath id="clipPath4267" clipPathUnits="userSpaceOnUse"><path id="path4269" opacity=".5" style="color:#000000" d="m2042.5 1253.4a469.43 361.64 54.423 0 1 -81.094 570.68 469.43 361.64 54.423 0 1 -561.82 -233.26 469.43 361.64 54.423 0 1 81.094 -570.68 469.43 361.64 54.423 0 1 561.82 233.26z" stroke="#f00" fill="#0f0"/></clipPath><clipPath id="clipPath4271" clipPathUnits="userSpaceOnUse"><path id="path4273" opacity=".5" d="m2503.1 818.21c-182.28 179.83-133.12 482.35-72.013 706.88 34.546 83.088 90.216 113.37 145.55 144.48 36.268-276.65 67.647-553.83-73.539-851.36z" stroke="#f00" stroke-width="1px" fill="#0f0"/></clipPath></defs><g transform="translate(48.709 336.93)" stroke="#4f3e6b"><path id="path4326" d="m873.98 1024.7c-26.334 493.74-46.549 1012.1-70.711 1501.9 179.97-1.0531 353.57-8.4649 526.09-16.971l-257.4-1462.3z" stroke-width="51" fill="#9681b9"/><path id="path4328" d="m941.87 1152c9.4281 463.34 18.856 921.63 28.284 1377.4" stroke-width="34" fill="none"/></g><g transform="translate(48.709 336.93)" stroke="#4f3e6b"><path id="path4395" d="m2864 3104c736.81-115.29 1399.3-128.4 2052-128 10.726 200.03-0.059 389.3-32 568-309.24-11.13-688.7-25.007-1020-36-312.03-10.354-624-34.414-936-56z" stroke-width="51" fill="#9681b9"/><path id="path4397" d="m2872 3184c716.76-94.738 1387.9-109.09 2052-88" stroke-width="34" fill="none"/><path id="path4399" d="m4916 3256c-598.67-32.956-1353.3-55.261-2032 12" stroke-width="34" fill="none"/><path id="path4401" d="m4900 3384c-661.91-14.092-1327.4-24.55-2e3 -28" stroke-width="34" fill="none"/></g><g transform="translate(48.709 336.93)"><path id="path4470" fill="#b7b5bd" d="m3067.4 3468.4-748.12-48.083 36.77 534.57 370.52-12.728c73.602 16.152 95.352-71.396 130.11-132.94 66.264-85.134 141.74-115.01 219.2-132.94 83.278-20.093 36.989-114.22-8.4853-207.89z"/><path id="path4403" d="m3054.7 3443c71.804 128.04 100.92 223.18 16.485 235.45-94.5 13.722-180.1 77.877-245.59 176.53-26.561 40.016-3.9841 78.158-104.65 85.823-118.92 9.0546-243.13 15.42-367.7 8.1421" stroke="#8a8892" stroke-width="51" fill="none"/><path id="path4345-7" d="m1291.3 3527.6c102.54 361.14-107.52 507.93-332 486-93.019-9.0889-227.28-7.0657-282 42-46.97 42.115-102.82 74.118-194 78-118.84 5.0593-269.14 9.9696-408-10-79.208-11.391-116.51-61.14-90-146 40.393-129.31 132.54-376.83 318-450" stroke="#8a8892" stroke-width="51" fill="#a9a5b0"/><path id="path4368" d="m1124 3128c-114 130.89-228 261.9-342 398 216.51 52.309 390.35 151.55 554 262 68.145-147.04 107.55-299.82 150-452" stroke="#425972" stroke-width="51" fill="#517688"/><path id="path4474" fill="#57849f" d="m1078 2848c-65.442 437.4 236.79 693.17 672 738l596-166c105.6 7.4773 211.05 13.748 324 80 168.64 43.365 303.68 23.738 412-46-13.894-46.763-34.623-92.672-108-132 49.204-60 32.862-120-8-180-163.63-544.24-571.79-805.6-881.45-717.25l200.82 141.42c-352.6 323.5-840.9 312.5-1207.4 281.8z"/><path id="path4337-1" d="m2018 2368c81.516 85.131 169.67 145.35 267.17 193.17-176.36 278.89-957.49 389.13-1405.2 234.49 54.71-49.763 95.124-124.36 108-187.66 28.168-138.47 84.044-169.02 184-170" stroke="#425972" stroke-width="51" fill="#57849f"/><path id="path4476" fill="#b7b5bd" d="m1943.1 2065.5 59.397 316.78c-268.47 198.96-581.15 184.21-893.78 169.71 17.99-477.06-81.869-954.12-229.1-1431.2l806.1 25.456z"/><path id="path4335" d="m888 1144c169.5 483.7 239.6 1039.9 224 1508" stroke="#8a8892" stroke-width="51" fill="none"/><path id="path4478" fill="#57849f" d="m1068.8 2546.7c331.98 12.732 670.22 47.624 935.2-176.74l280 196c-188.86 260.03-869.25 380.26-1406 230z"/><path id="path4339" fill="#425972" d="m1993 2352.9c-66.241 73.625-219.35 129.92-394.86 158.48-175.51 28.568-437.13 33.631-529.38 35.314 79.742 47.683 356.7 44.467 537.58 15.024s341.97-82.897 424.58-174.71z"/><path id="path4345" d="m2324 3644c102.54 361.14-27.52 487.93-252 484-93.448-1.6376-211.28-9.0657-280 58-45.149 44.061-102.82 74.118-194 78-118.84 5.0593-269.14 9.9696-408-10-79.208-11.391-116.51-61.14-90-146 40.393-129.31 132.54-376.83 318-450" stroke="#8a8892" stroke-width="51" fill="#b7b5bd"/><path id="path4370" d="m1748 3581.6c-427-36.2-768.05-301.9-663.3-732.6" stroke="#425972" stroke-width="51" fill="none"/><path id="path4372" fill="#3a4247" d="m2326 3428c117.52-253.39 49.745-581.25-118-782l-138 80c122.53 189.29 179.38 366.02 142 502z"/><path id="path4380" d="m2515.9 3465.6c70.825 7.4109 242.41 63.185 343.65 56.568 80.253-5.2445 159.7-25.852 224.86-63.64-25.797-53.805-54.512-106.15-117.38-141.42" stroke="#425972" stroke-width="51" fill="none"/><path id="path4382" fill="#425972" d="m2171.6 2387.5c-37.142 0.2974-73.48 4.6674-108.11 13.834l13.051 49.301c158.75-42.027 384.95 38.533 517.67 143.36 199.39 157.49 330.2 424.08 374.71 641.95 4.3012 21.053 2.5606 33.748-1.4101 42.469s-10.902 15.62-24.162 22.754c-26.52 14.267-85.969 22.267-130.63 82.22 57.341-20.047 115.72-16.288 154.79-37.308 19.537-10.51 36.845-25.516 46.414-46.533 9.5691-21.017 10.667-45.892 4.9628-73.81-46.761-228.88-180.42-503.8-393.07-671.76-117.23-92.591-293.27-167.76-454.22-166.47z"/><path id="path4468" fill="#b7b5bd" d="m2327.8 3424.6 53.74 169.71 295.88-60.506c-92.417-74.488-187.05-145.47-349.62-109.2z"/><path id="path4405" fill="#8a8892" d="m2420.4 3390c-33.089-1.1698-67.304 2.3334-102.67 11.26l12.48 49.449c123.94-31.282 264.45 29.286 347.17 83.077-47.379-81.974-157.72-140.28-256.98-143.79z"/><path id="path4374" fill="#425972" d="m2302.7 3422.2 36.75 35.361c134.52-139.81 184.72-375.35 156.57-523.13-28.143 144.96-72.78 362.49-193.32 487.77z"/><path id="path4466" fill="#a9a5b0" d="m954.6 3612.8c-121.89-146.1-537.28-203.5-752.6-26.8z"/><path id="path4345-7-8" fill="#8a8892" d="m543.8 3457.7c-86.527 0.2323-171.32 15.168-249.91 46.176-201.04 79.321-292.06 335.11-332.98 466.12l48.68 15.207c39.871-127.6 133.15-366.8 303.03-433.9 70.868-27.961 148.07-41.788 227.41-42.412 119.34-0.9388 288.31-0.6304 414.58 103.9-93.531-143.59-284.33-155.45-410.8-155.11z"/><path id="path4472" fill="#57849f" d="m1834.2 3109.2c-53.476 181.85-69.533 367.44-86.267 552.96 213.13-16.976 432.79 18.27 653.37 60.811-64.559-214.5-103.99-435.84-287.09-618.01z"/><path id="path4347" fill="#425972" d="m1720.6 3659.7-2.6484 29.205 29.289-1.4335c195.41-9.5529 426.26 10.409 645.62 55.51l35.859 7.3711-5.5156-36.191c-33.059-216.95-149.09-507.14-309.24-608.34 113.86 126.8 216.18 386.25 252.64 579.98-201.32-38.694-409.37-56.606-592.33-50.418 16.55-168.29 38.683-384.85 64.65-535.85-72.033 133-102.05 380.85-118.32 560.17z"/><path id="path4464" fill="#b7b5bd" d="m2038.6 3699c-186-100.4-396-110.6-624.6-51l-24 178z"/><path id="path4345-5" fill="#8a8892" d="m1658.5 3588.1c-86.528 0.2323-171.32 15.17-249.91 46.178-201.04 79.321-292.06 335.11-332.98 466.12l48.68 15.207c39.863-127.61 133.14-366.86 303.02-433.88 70.643-27.873 147.59-41.7 226.65-42.406 119.57-1.0673 270 11.872 384.58 59.697-99.412-80.176-253.59-111.25-380.05-110.91z"/><path id="path4337" d="m2018 2368c81.516 85.131 169.67 145.35 267.17 193.17-176.36 278.89-957.49 389.13-1405.2 234.49 54.71-49.763 95.124-124.36 108-187.66" stroke="#425972" stroke-width="51" fill="none"/></g><g transform="translate(48.709 336.93)" stroke="#4f3e6b"><path id="path4331" d="m1842 2088c6.6667 142.52 13.333 284.72 20 422 106.08-37.433 199.22-111.94 268-192-31.19-98.036-67.076-194.9-78-298z" stroke-width="51" fill="#9681b9"/><path id="path4333" d="m1970 2044c7.0012 100.87 14.512 258.03 60 378" stroke-width="34" fill="none"/></g><g transform="translate(48.709 336.93)"><path id="path4091" fill="#b7b5bd" d="m980 1260 224 776l640 128c342.28 17.439 656.46-29.663 856-340 46.814-106.84-9.7252-150.34-128-156 121.08-443.83-22.304-760.32-184-1068l-1324-292z"/><path id="path4079" fill="#8a8892" d="m2431.1 1525.1c19.741 84.458 102.38 165.33 191.2 173.86 23.485 2.2562 38.033 8.4025 46.738 15.164 8.7052 6.7615 12.785 14.15 14.844 24.623 4.1176 20.946-4.9559 54.865-22.223 85.045-94.657 165.45-260.67 264.92-464.81 303.88-204.14 38.958-533.52-3.7945-704.11-52.438 143.42 97.357 498.72 143.55 713.67 102.53 214.95-41.021 396.43-148.46 499.52-328.65 20.966-36.645 36.1-79.003 28-120.21-4.0502-20.603-15.185-40.758-33.602-55.062-18.416-14.304-42.897-22.746-73.146-25.652-71.83-6.9005-149.81-45.555-196.07-123.1z"/><path id="path4087" fill="#8a8892" d="m2511.6 2018.9c-59.256-48.587-186.77-53.902-272.94-42.426 81.668-48.795 247.26-41.466 319.61 2.8285z"/><path id="path4089" fill="#8a8892" d="m2473.5 1760.1c12.573 53.24 46.108 55.573 84.853 45.255-57.238 56.393-95.523 20.771-84.853-45.255z"/></g><g transform="translate(48.709 336.93)"><path id="path4137" clip-path="url(#clipPath4181)" fill="#fff" d="m2352 1330c53.831-110.17 124.5-203.5 242-250 27.714 194.21 26.858 390.46-20 590l-146-78z"/><path id="path4135" clip-path="url(#clipPath4169)" fill="#fff" d="m2126 1454c-195.79-334.04-517.64-284.87-844-222-90.321 394.02 143.77 555.7 444 670 279.02-12.34 475.87-101.96 400-448z"/><ellipse id="path4125" style="color:#000000" d="m 2157.9999,1527 c 0,158.5057 -107.4517,287 -240,287 -132.5484,0 -240,-128.4943 -240,-287 0,-158.5057 107.4516,-287 240,-287 132.5483,0 240,128.4943 240,287 z" clip-path="url(#clipPath4165)" rx="240" ry="287" cy="1527" cx="1918" fill="url(#linearGradient4230)"/><ellipse id="path4131" style="color:#000000" d="m 2666,1363 c 0,135.3098 -52.8304,245 -118,245 -65.1696,0 -118,-109.6902 -118,-245 0,-135.3098 52.8304,-245 118,-245 65.1696,0 118,109.6902 118,245 z" clip-path="url(#clipPath4177)" rx="118" ry="245" cy="1363" cx="2548" fill="url(#linearGradient4238)"/><path id="path4188" clip-path="url(#clipPath4212)" fill="#e2f5ef" d="m1868.2 1706.3-79.196 114.55-70.711-84.853 111.72-72.125z"/><path id="path4190" clip-path="url(#clipPath4208)" fill="#b3e3e1" d="m1837.1 1683.7-84.853 67.882-84.853-128.69 137.18-38.184z"/><path id="path4194" clip-path="url(#clipPath4220)" fill="#e2f5ef" d="m2510.2 1516.8-29.698 87.681-35.355-59.397 50.912-55.154z"/><path id="path4196" clip-path="url(#clipPath4216)" fill="#b3e3e1" d="m2501.7 1497-55.154 43.841-21.213-90.51 66.468-16.971z"/><ellipse id="path4127" style="color:#000000" d="m 2111.9999,1523 c 0,127.5778 -74.7685,231 -167,231 -92.2316,0 -167,-103.4222 -167,-231 0,-127.5778 74.7684,-231 167,-231 92.2315,0 167,103.4222 167,231 z" clip-path="url(#clipPath4161)" rx="167" ry="231" cy="1523" cx="1945"/><ellipse id="path4129" style="color:#000000" d="m 994.98474,2220.9792 c 0,81.6042 -44.28386,147.7574 -98.91077,147.7574 -54.6269,0 -98.91076,-66.1532 -98.91076,-147.7574 0,-81.6041 44.28386,-147.7573 98.91076,-147.7573 54.62691,0 98.91077,66.1532 98.91077,147.7573 z" rx="98.911" ry="147.76" transform="matrix(.86685 -.49857 .53546 .84456 0 0)" cy="2221" cx="896.07" fill="#fff"/><ellipse id="path4186" style="color:#000000" d="m -85.120892,2474.8877 c 0,25.4818 -15.423498,46.1388 -34.449338,46.1388 -19.02584,0 -34.44934,-20.657 -34.44934,-46.1388 0,-25.4818 15.4235,-46.1389 34.44934,-46.1389 19.02584,0 34.449338,20.6571 34.449338,46.1389 z" rx="34.449" ry="46.139" transform="matrix(.64951 -.76035 .79052 .61244 0 0)" cy="2474.9" cx="-119.57" fill="#fff"/><ellipse id="path4133" style="color:#000000" d="m 2608,1365 c 0,104.3818 -31.3401,189 -70,189 -38.6599,0 -70,-84.6182 -70,-189 0,-104.3818 31.3401,-189 70,-189 38.6599,0 70,84.6182 70,189 z" clip-path="url(#clipPath4173)" rx="70" ry="189" cy="1365" cx="2538"/><ellipse id="path4192" style="color:#000000" d="m 1879.3216,2263.3157 c 0,14.8399 -8.5477,26.87 -19.0919,26.87 -10.5441,0 -19.0918,-12.0301 -19.0918,-26.87 0,-14.8399 8.5477,-26.8701 19.0918,-26.8701 10.5442,0 19.0919,12.0302 19.0919,26.8701 z" rx="19.092" ry="26.87" transform="rotate(-20.719)" cy="2263.3" cx="1860.2" fill="#fff"/><ellipse id="path4198" style="color:#000000" d="m 2317.9485,1750.6198 c 0,60.0997 -20.6031,108.8202 -46.0183,108.8202 -25.4152,0 -46.0183,-48.7205 -46.0183,-108.8202 0,-60.0998 20.6031,-108.8203 46.0183,-108.8203 25.4152,0 46.0183,48.7205 46.0183,108.8203 z" rx="46.018" ry="108.82" transform="matrix(.97950 -.20145 .19060 .98167 0 0)" cy="1750.6" cx="2271.9" fill="#fff"/></g><g transform="translate(48.709 336.93)"><path id="path4255" clip-path="url(#clipPath4267)" fill="#9681b9" d="m1274 1218c42.98-155.25 128.49-287.93 430-306 184.34 5.4468 405.08 184.69 416 530-109.11-143.78-239.15-258.25-454-254z"/><path id="path4257" clip-path="url(#clipPath4271)" fill="#9681b9" d="m2356 1328c45.104-115.31 129.57-206.02 260-268-31.8-99.95-51.6-201.11-134-296-162.9 152.61-181.2 347.6-126 564z"/><path id="path4251" d="m2134 1462c-89.14-86.193-173.19-178.49-304-222-84.267-28.026-191.22-27.662-334 22-167 58.088-287.53 7.5596-374-130 114.67 54.1 248.73 60.434 361.68 38.707 118.06-22.708 236.22-37.701 374.32 11.293 125.94 44.679 225.81 154.03 276 280z"/><path id="path4079-2" fill="#8a8892" d="m2431.1 1525.1c19.741 84.458 102.38 165.33 191.2 173.86 23.485 2.2562 38.033 8.4025 46.738 15.164 8.7052 6.7615 12.785 14.15 14.844 24.623l50.043-9.8379c-4.0502-20.603-15.185-40.758-33.602-55.062-18.416-14.304-42.897-22.746-73.146-25.652-71.83-6.9005-149.81-45.555-196.07-123.1z"/><path id="path4290" d="m2406 642c204.1 317.51 244.6 651.8 162 1020" stroke="#8a8892" stroke-width="34" fill="none"/><path id="path4253" d="m2360.3 1338.6c39.215-68.074 88.725-136.05 169.71-186.68 91.842-57.416 201.61-106.33 199.4-214.96-41.955 70.174-139.02 92.232-206.48 125.87-90.672 45.207-161.31 178.28-162.63 275.77z"/></g><g transform="translate(48.709 336.93)" stroke="#4f3e6b"><path id="path4293" d="m1069.1 396.77c246.51-68.339 326.35 305.23 356.38 455.38 463.55-64.111 921.38-128.22 1377.4-192.33-8.2-439.36-139.6-654.05-543-599.63-427.7 57.7-853.9 128.15-1275.6 229.1z" stroke-width="51" fill="#9681b9"/><path id="path4295" d="m2252 54c191.7 177.95 257.7 405.74 276 650" stroke-width="34" fill="none"/><path id="path4297" d="m2156 752c-26.1-184.2-108.9-480.77-282-634" stroke-width="34" fill="none"/><path id="path4299" d="m1464 186c182.95 176.57 247.54 413.26 272 622" stroke-width="34" fill="none"/></g><g transform="translate(48.709 336.93)"><path id="path4302-2" fill="#b7b5bd" d="m998.2 1354.4c-334.54-292.7-331.55-871.06-146.84-1107.5 70.463-90.209 110.36-61.187 158.39-16.971 193.69 178.3 306.56 416.38 359.55 657.71l-345.3 168.36z"/><path id="path4302" fill="#8a8892" d="m933.7 162.4c-33.989 0.86728-67.301 23.779-102.44 68.77-98.28 125.81-149.15 333.73-135.01 549.24s126.72 513.59 301.95 573.99c-140.78-119.5-237.6-372.17-251.06-577.33s37.88-403.85 124.31-514.51c32.978-42.219 52.754-49.941 65.963-49.139 13.208 0.80281 31.589 13.624 55.062 35.232 189 173.98 313.8 461.06 373.83 647.62-3.9661-209.45-140.91-502.52-339.29-685.14-24.559-22.608-50.144-46.407-86.508-48.617-2.2727-0.13813-4.5426-0.17695-6.8086-0.11914z"/><path id="path4319" fill="#8a8892" d="m912 524c-55.92 150.86 19.91 445.01 108 518-58.65-90.67-120.01-369.33-108-518z"/></g></svg>