<?xml version="1.0" encoding="UTF-8" standalone="no"?>
<!-- Created with Inkscape (http://www.inkscape.org/) -->

<svg
   xmlns:dc="http://purl.org/dc/elements/1.1/"
   xmlns:cc="http://creativecommons.org/ns#"
   xmlns:rdf="http://www.w3.org/1999/02/22-rdf-syntax-ns#"
   xmlns:svg="http://www.w3.org/2000/svg"
   xmlns="http://www.w3.org/2000/svg"
   xmlns:xlink="http://www.w3.org/1999/xlink"
   xmlns:sodipodi="http://sodipodi.sourceforge.net/DTD/sodipodi-0.dtd"
   xmlns:inkscape="http://www.inkscape.org/namespaces/inkscape"
   width="4994.2251"
   height="4994.2373"
   id="svg2"
   version="1.1"
   inkscape:version="0.48.4 r9939"
   viewBox="0 0 4994.2251 4994.2375"
   sodipodi:docname="Maud Pie.svg">
  <title
     id="title4085">Maud Pie</title>
  <defs
     id="defs4">
    <linearGradient
       inkscape:collect="always"
       id="linearGradient4224">
      <stop
         style="stop-color:#a4f1da;stop-opacity:1"
         offset="0"
         id="stop4226" />
      <stop
         style="stop-color:#287055;stop-opacity:1"
         offset="1"
         id="stop4228" />
    </linearGradient>
    <clipPath
       clipPathUnits="userSpaceOnUse"
       id="clipPath4161">
      <path
         inkscape:connector-curvature="0"
         style="opacity:0.5;color:#000000;fill:#00ff00;fill-opacity:1;fill-rule:nonzero;stroke:#ff0000;stroke-width:1;stroke-miterlimit:4;stroke-opacity:1;stroke-dasharray:none;marker:none;visibility:visible;display:inline;overflow:visible;enable-background:accumulate"
         d="m 2042.5409,1253.37 a 469.42743,361.6441 54.422773 0 1 -81.0936,570.6757 469.42743,361.6441 54.422773 0 1 -561.8165,-233.2644 469.42743,361.6441 54.422773 0 1 81.0935,-570.6758 469.42743,361.6441 54.422773 0 1 561.8166,233.2645 z"
         id="path4163" />
    </clipPath>
    <clipPath
       clipPathUnits="userSpaceOnUse"
       id="clipPath4165">
      <path
         inkscape:connector-curvature="0"
         style="opacity:0.5;color:#000000;fill:#00ff00;fill-opacity:1;fill-rule:nonzero;stroke:#ff0000;stroke-width:1;stroke-miterlimit:4;stroke-opacity:1;stroke-dasharray:none;marker:none;visibility:visible;display:inline;overflow:visible;enable-background:accumulate"
         d="m 2042.5409,1253.37 a 469.42743,361.6441 54.422773 0 1 -81.0936,570.6757 469.42743,361.6441 54.422773 0 1 -561.8165,-233.2644 469.42743,361.6441 54.422773 0 1 81.0935,-570.6758 469.42743,361.6441 54.422773 0 1 561.8166,233.2645 z"
         id="path4167" />
    </clipPath>
    <clipPath
       clipPathUnits="userSpaceOnUse"
       id="clipPath4169">
      <path
         inkscape:connector-curvature="0"
         style="opacity:0.5;color:#000000;fill:#00ff00;fill-opacity:1;fill-rule:nonzero;stroke:#ff0000;stroke-width:1;stroke-miterlimit:4;stroke-opacity:1;stroke-dasharray:none;marker:none;visibility:visible;display:inline;overflow:visible;enable-background:accumulate"
         d="m 2042.5409,1253.37 a 469.42743,361.6441 54.422773 0 1 -81.0936,570.6757 469.42743,361.6441 54.422773 0 1 -561.8165,-233.2644 469.42743,361.6441 54.422773 0 1 81.0935,-570.6758 469.42743,361.6441 54.422773 0 1 561.8166,233.2645 z"
         id="path4171" />
    </clipPath>
    <clipPath
       clipPathUnits="userSpaceOnUse"
       id="clipPath4173">
      <path
         style="opacity:0.5;fill:#00ff00;fill-opacity:1;stroke:#ff0000;stroke-width:1px;stroke-linecap:butt;stroke-linejoin:miter;stroke-opacity:1"
         d="m 2503.146,818.20623 c -182.2776,179.83496 -133.123,482.35267 -72.0126,706.87617 34.5461,83.088 90.2164,113.3654 145.5517,144.4804 36.2682,-276.6531 67.6468,-553.8312 -73.5391,-851.35657 z"
         id="path4175"
         inkscape:connector-curvature="0"
         sodipodi:nodetypes="cccc" />
    </clipPath>
    <clipPath
       clipPathUnits="userSpaceOnUse"
       id="clipPath4177">
      <path
         style="opacity:0.5;fill:#00ff00;fill-opacity:1;stroke:#ff0000;stroke-width:1px;stroke-linecap:butt;stroke-linejoin:miter;stroke-opacity:1"
         d="m 2503.146,818.20623 c -182.2776,179.83496 -133.123,482.35267 -72.0126,706.87617 34.5461,83.088 90.2164,113.3654 145.5517,144.4804 36.2682,-276.6531 67.6468,-553.8312 -73.5391,-851.35657 z"
         id="path4179"
         inkscape:connector-curvature="0"
         sodipodi:nodetypes="cccc" />
    </clipPath>
    <clipPath
       clipPathUnits="userSpaceOnUse"
       id="clipPath4181">
      <path
         style="opacity:0.5;fill:#00ff00;fill-opacity:1;stroke:#ff0000;stroke-width:1px;stroke-linecap:butt;stroke-linejoin:miter;stroke-opacity:1"
         d="m 2503.146,818.20623 c -182.2776,179.83496 -133.123,482.35267 -72.0126,706.87617 34.5461,83.088 90.2164,113.3654 145.5517,144.4804 36.2682,-276.6531 67.6468,-553.8312 -73.5391,-851.35657 z"
         id="path4183"
         inkscape:connector-curvature="0"
         sodipodi:nodetypes="cccc" />
    </clipPath>
    <clipPath
       clipPathUnits="userSpaceOnUse"
       id="clipPath4208">
      <ellipse
         style="color:#000000;fill:#ff0000;fill-opacity:1;fill-rule:nonzero;stroke:none;stroke-width:1px;marker:none;visibility:visible;display:inline;overflow:visible;enable-background:accumulate"
         id="ellipse4210"
         cx="1917.9999"
         cy="1527"
         rx="240"
         ry="287"
         sodipodi:cx="1917.9999"
         sodipodi:cy="1527"
         sodipodi:rx="240"
         sodipodi:ry="287" />
    </clipPath>
    <clipPath
       clipPathUnits="userSpaceOnUse"
       id="clipPath4212">
      <ellipse
         style="color:#000000;fill:#ff0000;fill-opacity:1;fill-rule:nonzero;stroke:none;stroke-width:1px;marker:none;visibility:visible;display:inline;overflow:visible;enable-background:accumulate"
         id="ellipse4214"
         cx="1917.9999"
         cy="1527"
         rx="240"
         ry="287"
         sodipodi:cx="1917.9999"
         sodipodi:cy="1527"
         sodipodi:rx="240"
         sodipodi:ry="287" />
    </clipPath>
    <clipPath
       clipPathUnits="userSpaceOnUse"
       id="clipPath4216">
      <ellipse
         style="color:#000000;fill:#ff0000;fill-opacity:1;fill-rule:nonzero;stroke:none;stroke-width:1px;marker:none;visibility:visible;display:inline;overflow:visible;enable-background:accumulate"
         id="ellipse4218"
         cx="2548"
         cy="1363"
         rx="118"
         ry="245"
         sodipodi:cx="2548"
         sodipodi:cy="1363"
         sodipodi:rx="118"
         sodipodi:ry="245" />
    </clipPath>
    <clipPath
       clipPathUnits="userSpaceOnUse"
       id="clipPath4220">
      <ellipse
         style="color:#000000;fill:#ff0000;fill-opacity:1;fill-rule:nonzero;stroke:none;stroke-width:1px;marker:none;visibility:visible;display:inline;overflow:visible;enable-background:accumulate"
         id="ellipse4222"
         cx="2548"
         cy="1363"
         rx="118"
         ry="245"
         sodipodi:cx="2548"
         sodipodi:cy="1363"
         sodipodi:rx="118"
         sodipodi:ry="245" />
    </clipPath>
    <linearGradient
       inkscape:collect="always"
       xlink:href="#linearGradient4224"
       id="linearGradient4230"
       x1="1963.9999"
       y1="1761"
       x2="1898.4673"
       y2="1301"
       gradientUnits="userSpaceOnUse" />
    <linearGradient
       inkscape:collect="always"
       xlink:href="#linearGradient4224"
       id="linearGradient4238"
       x1="2542"
       y1="1557"
       x2="2541.4385"
       y2="1169"
       gradientUnits="userSpaceOnUse" />
    <clipPath
       clipPathUnits="userSpaceOnUse"
       id="clipPath4267">
      <path
         style="opacity:0.5;color:#000000;fill:#00ff00;fill-opacity:1;fill-rule:nonzero;stroke:#ff0000;stroke-width:1;stroke-miterlimit:4;stroke-opacity:1;stroke-dasharray:none;marker:none;visibility:visible;display:inline;overflow:visible;enable-background:accumulate"
         d="m 2042.5409,1253.37 a 469.42743,361.6441 54.422773 0 1 -81.0936,570.6757 469.42743,361.6441 54.422773 0 1 -561.8165,-233.2644 469.42743,361.6441 54.422773 0 1 81.0935,-570.6758 469.42743,361.6441 54.422773 0 1 561.8166,233.2645 z"
         id="path4269"
         inkscape:connector-curvature="0" />
    </clipPath>
    <clipPath
       clipPathUnits="userSpaceOnUse"
       id="clipPath4271">
      <path
         style="opacity:0.5;fill:#00ff00;fill-opacity:1;stroke:#ff0000;stroke-width:1px;stroke-linecap:butt;stroke-linejoin:miter;stroke-opacity:1;display:inline"
         d="m 2503.146,818.20623 c -182.2776,179.83496 -133.123,482.35267 -72.0126,706.87617 34.5461,83.088 90.2164,113.3654 145.5517,144.4804 36.2682,-276.6531 67.6468,-553.8312 -73.5391,-851.35657 z"
         id="path4273"
         inkscape:connector-curvature="0"
         sodipodi:nodetypes="cccc" />
    </clipPath>
  </defs>
  <sodipodi:namedview
     id="base"
     pagecolor="#ffffff"
     bordercolor="#666666"
     borderopacity="1.0"
     inkscape:pageopacity="0.0"
     inkscape:pageshadow="2"
     inkscape:zoom="0.125"
     inkscape:cx="1632.5245"
     inkscape:cy="2252.5914"
     inkscape:document-units="px"
     inkscape:current-layer="layer9"
     showgrid="false"
     fit-margin-top="363.32"
     fit-margin-left="0"
     fit-margin-right="0"
     fit-margin-bottom="363.32"
     inkscape:snap-global="false"
     inkscape:window-width="1920"
     inkscape:window-height="1028"
     inkscape:window-x="1272"
     inkscape:window-y="217"
     inkscape:window-maximized="1"
     inkscape:object-nodes="true" />
  <metadata
     id="metadata7">
    <rdf:RDF>
      <cc:Work
         rdf:about="">
        <dc:format>image/svg+xml</dc:format>
        <dc:type
           rdf:resource="http://purl.org/dc/dcmitype/StillImage" />
        <dc:title>Maud Pie</dc:title>
      </cc:Work>
    </rdf:RDF>
  </metadata>
  <g
     inkscape:groupmode="layer"
     id="layer12"
     inkscape:label="Background"
     sodipodi:insensitive="true"
     style="display:none"
     transform="translate(48.708716,336.93073)">
    <rect
       style="color:#000000;fill:#000000;fill-opacity:1;fill-rule:nonzero;stroke:#00ff00;stroke-width:1.00000012;stroke-linecap:butt;stroke-linejoin:miter;stroke-miterlimit:4;stroke-opacity:1;stroke-dasharray:none;stroke-dashoffset:0;marker:none;visibility:visible;display:inline;overflow:visible;enable-background:accumulate"
       id="rect4481"
       width="6120.7168"
       height="4412.3467"
       x="-67.882317"
       y="-33.150349" />
  </g>
  <g
     inkscape:groupmode="layer"
     id="layer9"
     inkscape:label="Rear Mane"
     sodipodi:insensitive="true"
     style="display:inline"
     transform="translate(48.708716,336.93073)">
    <path
       style="fill:#9681b9;fill-opacity:1;stroke:#4f3e6b;stroke-width:51;stroke-linecap:butt;stroke-linejoin:miter;stroke-miterlimit:4;stroke-opacity:1;stroke-dasharray:none"
       d="m 873.98394,1024.6814 c -26.3339,493.7392 -46.5487,1012.1457 -70.71069,1501.8949 179.96623,-1.0531 353.57375,-8.4649 526.08745,-16.9706 L 1071.9739,1047.3088 z"
       id="path4326"
       inkscape:connector-curvature="0"
       sodipodi:nodetypes="ccccc" />
    <path
       style="fill:none;stroke:#4f3e6b;stroke-width:34;stroke-linecap:butt;stroke-linejoin:miter;stroke-miterlimit:4;stroke-opacity:1;stroke-dasharray:none"
       d="m 941.86618,1151.9606 c 9.42809,463.3372 18.85618,921.6288 28.28427,1377.4441"
       id="path4328"
       inkscape:connector-curvature="0"
       sodipodi:nodetypes="cc" />
  </g>
  <g
     inkscape:groupmode="layer"
     id="layer11"
     inkscape:label="Tail"
     sodipodi:insensitive="true"
     style="display:inline"
     transform="translate(48.708716,336.93073)">
    <path
       style="fill:#9681b9;fill-opacity:1;stroke:#4f3e6b;stroke-width:51;stroke-linecap:butt;stroke-linejoin:miter;stroke-miterlimit:4;stroke-opacity:1;stroke-dasharray:none"
       d="m 2864,3104.0001 c 736.8135,-115.2852 1399.321,-128.3998 2052,-128 10.7256,200.0295 -0.059,389.3038 -32,568 -309.2366,-11.1298 -688.6972,-25.007 -1020,-36 -312.0343,-10.3536 -624,-34.4139 -936,-56 z"
       id="path4395"
       inkscape:connector-curvature="0"
       sodipodi:nodetypes="cccscc" />
    <path
       style="fill:none;stroke:#4f3e6b;stroke-width:34;stroke-linecap:butt;stroke-linejoin:miter;stroke-miterlimit:4;stroke-opacity:1;stroke-dasharray:none"
       d="m 2872,3184.0001 c 716.7597,-94.7381 1387.8878,-109.0865 2052,-88"
       id="path4397"
       inkscape:connector-curvature="0"
       sodipodi:nodetypes="cc" />
    <path
       style="fill:none;stroke:#4f3e6b;stroke-width:34;stroke-linecap:butt;stroke-linejoin:miter;stroke-miterlimit:4;stroke-opacity:1;stroke-dasharray:none"
       d="m 4916,3256.0001 c -598.6667,-32.9563 -1353.3333,-55.2612 -2032,12"
       id="path4399"
       inkscape:connector-curvature="0"
       sodipodi:nodetypes="cc" />
    <path
       style="fill:none;stroke:#4f3e6b;stroke-width:34;stroke-linecap:butt;stroke-linejoin:miter;stroke-miterlimit:4;stroke-opacity:1;stroke-dasharray:none"
       d="m 4900,3384.0001 c -661.9084,-14.0916 -1327.45,-24.55 -2000,-28"
       id="path4401"
       inkscape:connector-curvature="0"
       sodipodi:nodetypes="cc" />
  </g>
  <g
     inkscape:groupmode="layer"
     id="layer2"
     inkscape:label="Body + Legs"
     style="display:inline"
     sodipodi:insensitive="true"
     transform="translate(48.708716,336.93073)">
    <path
       style="fill:#b7b5bd;fill-opacity:1;stroke:none"
       d="m 3067.4292,3468.4425 -748.119,-48.0832 36.7696,534.5727 370.5239,-12.7279 c 73.6015,16.1525 95.3523,-71.3963 130.1077,-132.9361 66.264,-85.1341 141.7373,-115.0129 219.2031,-132.9361 83.2777,-20.093 36.9891,-114.2238 -8.4853,-207.8894 z"
       id="path4470"
       inkscape:connector-curvature="0"
       sodipodi:nodetypes="ccccccc" />
    <path
       style="fill:none;stroke:#8a8892;stroke-width:51;stroke-linecap:butt;stroke-linejoin:miter;stroke-miterlimit:4;stroke-opacity:1;stroke-dasharray:none"
       d="m 3054.7013,3442.9867 c 71.8037,128.038 100.925,223.1848 16.4853,235.4457 -94.5,13.7217 -180.1041,77.8769 -245.5879,176.5341 -26.5607,40.016 -3.9841,78.1584 -104.6518,85.8234 -118.9179,9.0546 -243.1303,15.4196 -367.6955,8.1421"
       id="path4403"
       inkscape:connector-curvature="0"
       sodipodi:nodetypes="csssc" />
    <path
       style="fill:#a9a5b0;fill-opacity:1;stroke:#8a8892;stroke-width:51;stroke-linecap:butt;stroke-linejoin:miter;stroke-miterlimit:4;stroke-opacity:1;stroke-dasharray:none;display:inline"
       d="m 1291.2583,3527.6235 c 102.5399,361.1392 -107.5202,507.9338 -332.00004,486 -93.01928,-9.0889 -227.27801,-7.0657 -282.00001,42 -46.96977,42.1148 -102.82291,74.1183 -194.00001,78.0001 -118.8363,5.0593 -269.1409,9.9696 -408.000008,-10 -79.2083001,-11.3911 -116.5084,-61.1401 -90,-146.0001 40.3929,-129.3078 132.539898,-376.8258 318.000008,-450"
       id="path4345-7"
       inkscape:connector-curvature="0"
       sodipodi:nodetypes="csssssc" />
    <path
       style="fill:#517688;fill-opacity:1;stroke:#425972;stroke-width:51;stroke-linecap:butt;stroke-linejoin:miter;stroke-miterlimit:4;stroke-opacity:1;stroke-dasharray:none"
       d="m 1124,3128.0001 c -114,130.8859 -228.00003,261.8966 -342.00005,398 216.50659,52.3094 390.34745,151.5511 554.00005,262 68.1452,-147.0376 107.5521,-299.8229 150,-452"
       id="path4368"
       inkscape:connector-curvature="0"
       sodipodi:nodetypes="cccc" />
    <path
       style="fill:#57849f;fill-opacity:1;stroke:none"
       d="m 1078,2848.0001 c -65.4416,437.4049 236.7852,693.1698 672,738 l 596,-166 c 105.6013,7.4773 211.0518,13.7481 324,80 168.6392,43.3651 303.6826,23.7383 412,-46 -13.8935,-46.7633 -34.6229,-92.6721 -108,-132 49.204,-60 32.8625,-120 -8,-180 -163.6327,-544.2391 -571.7889,-805.6048 -881.4492,-717.2472 l 200.8183,141.4214 C 1932.8149,2889.6661 1444.4606,2878.6742 1078,2848.0001 z"
       id="path4474"
       inkscape:connector-curvature="0"
       sodipodi:nodetypes="cccccccccc" />
    <path
       style="fill:#57849f;fill-opacity:1;stroke:#425972;stroke-width:51;stroke-linecap:butt;stroke-linejoin:miter;stroke-miterlimit:4;stroke-opacity:1;stroke-dasharray:none;display:inline"
       d="m 2018,2368.0001 c 81.5155,85.1306 169.6687,145.3451 267.1716,193.1716 -176.3561,278.8939 -957.4891,389.1294 -1405.17165,234.4853 54.71034,-49.7632 95.12433,-124.3634 108,-187.6569 28.16795,-138.4665 84.04385,-169.017 184.00005,-170"
       id="path4337-1"
       inkscape:connector-curvature="0"
       sodipodi:nodetypes="cccsc" />
    <path
       style="fill:#b7b5bd;fill-opacity:1;stroke:none"
       d="m 1943.1294,2065.5426 59.397,316.7839 c -268.4672,198.9608 -581.1496,184.2147 -893.783,169.7056 17.99,-477.0614 -81.8694,-954.1228 -229.10261,-1431.1842 l 806.10181,25.4559 z"
       id="path4476"
       inkscape:connector-curvature="0"
       sodipodi:nodetypes="cccccc" />
    <path
       style="fill:none;stroke:#8a8892;stroke-width:51;stroke-linecap:butt;stroke-linejoin:miter;stroke-miterlimit:4;stroke-opacity:1;stroke-dasharray:none"
       d="M 887.99995,1144 C 1057.4808,1627.7039 1127.6174,2183.8853 1112,2652.0001"
       id="path4335"
       inkscape:connector-curvature="0"
       sodipodi:nodetypes="cc" />
    <path
       style="fill:#57849f;fill-opacity:1;stroke:none"
       d="m 1068.8031,2546.7437 c 331.9801,12.7317 670.223,47.6236 935.1969,-176.7436 l 280,196 c -188.8567,260.0332 -869.2547,380.2622 -1406.00005,230 z"
       id="path4478"
       inkscape:connector-curvature="0"
       sodipodi:nodetypes="ccccc" />
    <path
       style="font-style:normal;font-variant:normal;font-weight:normal;font-stretch:normal;text-indent:0;text-align:start;text-decoration:none;line-height:normal;letter-spacing:normal;word-spacing:normal;text-transform:none;direction:ltr;block-progression:tb;writing-mode:lr-tb;text-anchor:start;baseline-shift:baseline;color:#000000;fill:#425972;fill-opacity:1;stroke:none;stroke-width:51;marker:none;visibility:visible;display:inline;overflow:visible;enable-background:accumulate;font-family:sans-serif;-inkscape-font-specification:sans-serif"
       d="m 1993.043,2352.9453 c -66.2409,73.6248 -219.3501,129.9161 -394.8555,158.4844 -175.5054,28.5683 -437.1263,33.6312 -529.3844,35.314 79.7419,47.6829 356.6969,44.4672 537.5778,15.0239 180.8808,-29.4433 341.968,-82.8966 424.5761,-174.7129 z"
       id="path4339"
       inkscape:connector-curvature="0"
       sodipodi:nodetypes="cscscc" />
    <path
       style="fill:#b7b5bd;fill-opacity:1;stroke:#8a8892;stroke-width:51;stroke-linecap:butt;stroke-linejoin:miter;stroke-miterlimit:4;stroke-opacity:1;stroke-dasharray:none"
       d="m 2324,3644.0001 c 102.54,361.1392 -27.5202,487.9338 -252,484 -93.4479,-1.6376 -211.278,-9.0657 -280,58 -45.1491,44.061 -102.8229,74.1182 -194,78 -118.8363,5.0593 -269.1409,9.9696 -408,-10 -79.2083,-11.3911 -116.5084,-61.14 -90,-146 40.3929,-129.3078 132.5399,-376.8258 318,-450"
       id="path4345"
       inkscape:connector-curvature="0"
       sodipodi:nodetypes="csssssc" />
    <path
       style="fill:none;stroke:#425972;stroke-width:51;stroke-linecap:butt;stroke-linejoin:miter;stroke-miterlimit:4;stroke-opacity:1;stroke-dasharray:none"
       d="M 1747.968,3581.5796 C 1321.038,3545.4094 979.94771,3279.7187 1084.7018,2849.017"
       id="path4370"
       inkscape:connector-curvature="0"
       sodipodi:nodetypes="cc" />
    <path
       style="fill:#3a4247;fill-opacity:1;stroke:none"
       d="m 2326,3428.0001 c 117.5222,-253.3865 49.7446,-581.2513 -118,-782 l -138,80 c 122.5309,189.2881 179.3822,366.0163 142,502 z"
       id="path4372"
       inkscape:connector-curvature="0"
       sodipodi:nodetypes="ccccc" />
    <path
       style="fill:none;stroke:#425972;stroke-width:51;stroke-linecap:butt;stroke-linejoin:miter;stroke-miterlimit:4;stroke-opacity:1;stroke-dasharray:none"
       d="m 2515.886,3465.6141 c 70.8253,7.4109 242.4101,63.1849 343.6538,56.5685 80.253,-5.2445 159.699,-25.8522 224.86,-63.6396 -25.7967,-53.8054 -54.5118,-106.1515 -117.3797,-141.4213"
       id="path4380"
       inkscape:connector-curvature="0"
       sodipodi:nodetypes="cscc" />
    <path
       style="font-style:normal;font-variant:normal;font-weight:normal;font-stretch:normal;text-indent:0;text-align:start;text-decoration:none;line-height:normal;letter-spacing:normal;word-spacing:normal;text-transform:none;direction:ltr;block-progression:tb;writing-mode:lr-tb;text-anchor:start;baseline-shift:baseline;color:#000000;fill:#425972;fill-opacity:1;stroke:none;stroke-width:51;marker:none;visibility:visible;display:inline;overflow:visible;enable-background:accumulate;font-family:sans-serif;-inkscape-font-specification:sans-serif"
       d="m 2171.5801,2387.5156 c -37.1424,0.2974 -73.4796,4.6674 -108.1055,13.834 l 13.0508,49.3008 c 158.7526,-42.027 384.9507,38.5329 517.6699,143.3613 199.3879,157.4866 330.1994,424.0799 374.7109,641.9473 4.3012,21.0527 2.5606,33.7478 -1.4101,42.4687 -3.9707,8.721 -10.9019,15.6204 -24.1621,22.7539 -26.5204,14.2671 -85.969,22.2672 -130.6281,82.2204 57.341,-20.0468 115.7158,-16.2875 154.7902,-37.3082 19.5372,-10.5104 36.8449,-25.5163 46.4141,-46.5333 9.5691,-21.0169 10.6668,-45.8918 4.9628,-73.8105 -46.7612,-228.8784 -180.4166,-503.7987 -393.0683,-671.7617 -117.2262,-92.5912 -293.2743,-167.7614 -454.2246,-166.4727 z"
       id="path4382"
       inkscape:connector-curvature="0"
       sodipodi:nodetypes="sccsssscsssss" />
    <!--S&i&g&m&a-->
    <path
       style="fill:#b7b5bd;fill-opacity:1;stroke:none"
       d="m 2327.7955,3424.6019 53.7401,169.7056 295.8784,-60.5057 c -92.4167,-74.4885 -187.0546,-145.47 -349.6185,-109.1999 z"
       id="path4468"
       inkscape:connector-curvature="0"
       sodipodi:nodetypes="cccc" />
    <path
       style="font-style:normal;font-variant:normal;font-weight:normal;font-stretch:normal;text-indent:0;text-align:start;text-decoration:none;line-height:normal;letter-spacing:normal;word-spacing:normal;text-transform:none;direction:ltr;block-progression:tb;writing-mode:lr-tb;text-anchor:start;baseline-shift:baseline;color:#000000;fill:#8a8892;fill-opacity:1;stroke:none;stroke-width:51;marker:none;visibility:visible;display:inline;overflow:visible;enable-background:accumulate;font-family:sans-serif;-inkscape-font-specification:sans-serif"
       d="m 2420.4316,3390.0156 c -33.0887,-1.1698 -67.3041,2.3334 -102.6718,11.2598 l 12.4804,49.4492 c 123.9426,-31.2815 264.4455,29.2862 347.1738,83.0772 -47.3794,-81.9735 -157.716,-140.2767 -256.9824,-143.7862 z"
       id="path4405"
       inkscape:connector-curvature="0"
       sodipodi:nodetypes="scccs" />
    <path
       style="font-style:normal;font-variant:normal;font-weight:normal;font-stretch:normal;text-indent:0;text-align:start;text-decoration:none;line-height:normal;letter-spacing:normal;word-spacing:normal;text-transform:none;direction:ltr;block-progression:tb;writing-mode:lr-tb;text-anchor:start;baseline-shift:baseline;color:#000000;fill:#425972;fill-opacity:1;stroke:none;stroke-width:51;marker:none;visibility:visible;display:inline;overflow:visible;enable-background:accumulate;font-family:sans-serif;-inkscape-font-specification:sans-serif"
       d="m 2302.6953,3422.2188 36.75,35.3613 c 134.5243,-139.8059 184.7175,-375.3456 156.5744,-523.1308 -28.143,144.9569 -72.7797,362.4921 -193.3244,487.7695 z"
       id="path4374"
       inkscape:connector-curvature="0"
       sodipodi:nodetypes="cccc" />
    <path
       style="fill:#a9a5b0;fill-opacity:1;stroke:none"
       d="M 954.60268,3612.8362 C 832.70584,3466.738 417.32195,3409.3187 201.99993,3586.0001 z"
       id="path4466"
       inkscape:connector-curvature="0"
       sodipodi:nodetypes="ccc" />
    <path
       style="font-style:normal;font-variant:normal;font-weight:normal;font-stretch:normal;text-indent:0;text-align:start;text-decoration:none;line-height:normal;letter-spacing:normal;word-spacing:normal;text-transform:none;direction:ltr;block-progression:tb;writing-mode:lr-tb;text-anchor:start;baseline-shift:baseline;color:#000000;fill:#8a8892;fill-opacity:1;stroke:none;stroke-width:51;marker:none;visibility:visible;display:inline;overflow:visible;enable-background:accumulate;font-family:sans-serif;-inkscape-font-specification:sans-serif"
       d="m 543.80469,3457.7266 c -86.52749,0.2323 -171.31808,15.1684 -249.90625,46.1757 -201.039827,79.3213 -292.0579944,335.1141 -332.980471,466.1172 l 48.6796872,15.2071 C 49.460981,3857.6141 142.73682,3618.371 312.61719,3551.3438 c 70.8678,-27.9613 148.07401,-41.7876 227.40582,-42.4117 119.33678,-0.9388 288.3119,-0.6304 414.57967,103.9041 -93.53123,-143.5903 -284.33473,-155.4491 -410.79799,-155.1096 z"
       id="path4345-7-8"
       inkscape:connector-curvature="0"
       sodipodi:nodetypes="ssccsscs" />
    <path
       style="fill:#57849f;fill-opacity:1;stroke:none"
       d="m 1834.235,3109.2323 c -53.4759,181.8471 -69.5331,367.4362 -86.267,552.9575 213.1331,-16.976 432.7938,18.2695 653.3666,60.8112 -64.5588,-214.4955 -103.9946,-435.8428 -287.0853,-618.0114 z"
       id="path4472"
       inkscape:connector-curvature="0"
       sodipodi:nodetypes="ccccc" />
    <path
       style="font-style:normal;font-variant:normal;font-weight:normal;font-stretch:normal;text-indent:0;text-align:start;text-decoration:none;line-height:normal;letter-spacing:normal;word-spacing:normal;text-transform:none;direction:ltr;block-progression:tb;writing-mode:lr-tb;text-anchor:start;baseline-shift:baseline;color:#000000;fill:#425972;fill-opacity:1;stroke:none;stroke-width:51;marker:none;visibility:visible;display:inline;overflow:visible;enable-background:accumulate;font-family:sans-serif;-inkscape-font-specification:sans-serif"
       d="m 1720.6035,3659.6973 -2.6484,29.205 29.289,-1.4335 c 195.4122,-9.5529 426.2627,10.4089 645.6211,55.5097 l 35.8594,7.3711 -5.5156,-36.1914 c -33.0594,-216.9474 -149.0946,-507.1412 -309.2388,-608.3413 113.8559,126.8 216.1829,386.2506 252.6353,579.978 -201.3153,-38.6939 -409.3701,-56.6058 -592.334,-50.4179 16.5498,-168.2884 38.6829,-384.8521 64.6498,-535.8511 -72.0331,133.0011 -102.054,380.8511 -118.3178,560.1714 z"
       id="path4347"
       inkscape:connector-curvature="0"
       sodipodi:nodetypes="ccccccccccc" />
    <path
       style="fill:#b7b5bd;fill-opacity:1;stroke:none"
       d="M 2038.5958,3699.0115 C 1852.6284,3598.6407 1642.6181,3588.4306 1414,3648.0001 l -24,178 z"
       id="path4464"
       inkscape:connector-curvature="0"
       sodipodi:nodetypes="cccc" />
    <path
       style="font-style:normal;font-variant:normal;font-weight:normal;font-stretch:normal;text-indent:0;text-align:start;text-decoration:none;line-height:normal;letter-spacing:normal;word-spacing:normal;text-transform:none;direction:ltr;block-progression:tb;writing-mode:lr-tb;text-anchor:start;baseline-shift:baseline;color:#000000;fill:#8a8892;fill-opacity:1;stroke:none;stroke-width:51;marker:none;visibility:visible;display:inline;overflow:visible;enable-background:accumulate;font-family:sans-serif;-inkscape-font-specification:sans-serif"
       d="m 1658.5469,3588.1016 c -86.5275,0.2323 -171.3181,15.1703 -249.9063,46.1777 -201.0398,79.3212 -292.058,335.1141 -332.9804,466.1172 l 48.6796,15.207 c 39.8634,-127.6125 133.1392,-366.8557 303.0196,-433.8828 70.6434,-27.8727 147.5851,-41.7002 226.6523,-42.406 119.5676,-1.0673 269.9957,11.8723 384.5841,59.6968 -99.4115,-80.1755 -253.5857,-111.2494 -380.0489,-110.9099 z"
       id="path4345-5"
       inkscape:connector-curvature="0"
       sodipodi:nodetypes="ssccsscs" />
    <path
       style="fill:none;stroke:#425972;stroke-width:51;stroke-linecap:butt;stroke-linejoin:miter;stroke-miterlimit:4;stroke-opacity:1;stroke-dasharray:none"
       d="m 2018,2368.0001 c 81.5155,85.1306 169.6687,145.3451 267.1716,193.1716 -176.3561,278.8939 -957.4891,389.1294 -1405.17165,234.4853 54.71034,-49.7632 95.12433,-124.3634 108,-187.6569"
       id="path4337"
       inkscape:connector-curvature="0"
       sodipodi:nodetypes="cccc" />
  </g>
  <g
     inkscape:groupmode="layer"
     id="layer10"
     inkscape:label="Lower Mane"
     sodipodi:insensitive="true"
     style="display:inline"
     transform="translate(48.708716,336.93073)">
    <path
       style="fill:#9681b9;fill-opacity:1;stroke:#4f3e6b;stroke-width:51;stroke-linecap:butt;stroke-linejoin:miter;stroke-miterlimit:4;stroke-opacity:1;stroke-dasharray:none"
       d="m 1842,2088 c 6.6667,142.5164 13.3333,284.7181 20,422.0001 106.0795,-37.433 199.2197,-111.9394 268,-192 -31.1896,-98.036 -67.0758,-194.8978 -78,-298.0001 z"
       id="path4331"
       inkscape:connector-curvature="0"
       sodipodi:nodetypes="ccccc" />
    <path
       style="fill:none;stroke:#4f3e6b;stroke-width:34;stroke-linecap:butt;stroke-linejoin:miter;stroke-miterlimit:4;stroke-opacity:1;stroke-dasharray:none"
       d="m 1970,2044 c 7.0012,100.8665 14.5121,258.031 60,378.0001"
       id="path4333"
       inkscape:connector-curvature="0"
       sodipodi:nodetypes="cc" />
  </g>
  <g
     inkscape:groupmode="layer"
     id="layer3"
     inkscape:label="Head"
     style="display:inline"
     sodipodi:insensitive="true"
     transform="translate(48.708716,336.93073)">
    <path
       style="fill:#b7b5bd;fill-opacity:1;stroke:none"
       d="M 979.99995,1260 1204,2036 l 640,128.0001 c 342.2825,17.4389 656.4585,-29.6633 856,-340.0001 46.8142,-106.8431 -9.7252,-150.3405 -128,-156 121.0761,-443.8268 -22.3042,-760.32267 -184,-1067.99999 l -1324,-292 z"
       id="path4091"
       inkscape:connector-curvature="0"
       sodipodi:nodetypes="cccccccc" />
    <path
       style="font-style:normal;font-variant:normal;font-weight:normal;font-stretch:normal;text-indent:0;text-align:start;text-decoration:none;line-height:normal;letter-spacing:normal;word-spacing:normal;text-transform:none;direction:ltr;block-progression:tb;writing-mode:lr-tb;text-anchor:start;baseline-shift:baseline;color:#000000;fill:#8a8892;fill-opacity:1;stroke:none;stroke-width:51;marker:none;visibility:visible;display:inline;overflow:visible;enable-background:accumulate;font-family:sans-serif;-inkscape-font-specification:sans-serif"
       d="m 2431.1454,1525.0824 c 19.7407,84.4577 102.3819,165.3308 191.1964,173.8629 23.4852,2.2562 38.033,8.4025 46.7383,15.1641 8.7052,6.7615 12.785,14.1502 14.8437,24.623 4.1176,20.9457 -4.9559,54.8651 -22.2226,85.0449 -94.6567,165.4473 -260.673,264.9187 -464.8125,303.877 -204.1396,38.9583 -533.5243,-3.7945 -704.1067,-52.4375 143.4176,97.357 498.7174,143.5546 713.6672,102.5332 214.9498,-41.0214 396.4286,-148.4607 499.5176,-328.6465 20.9657,-36.6452 36.1003,-79.0034 28,-120.209 -4.0502,-20.6028 -15.1852,-40.7581 -33.6016,-55.0625 -18.4163,-14.3044 -42.8973,-22.7463 -73.1464,-25.6523 -71.8298,-6.9005 -149.814,-45.555 -196.0734,-123.0973 z"
       id="path4079"
       inkscape:connector-curvature="0"
       sodipodi:nodetypes="cssssscsssssc" />
    <path
       style="fill:#8a8892;fill-opacity:1;stroke:none"
       d="m 2511.6433,2018.8736 c -59.2558,-48.5874 -186.7655,-53.9023 -272.9432,-42.4265 81.6683,-48.7954 247.2602,-41.4665 319.6123,2.8285 z"
       id="path4087"
       inkscape:connector-curvature="0"
       sodipodi:nodetypes="cccc" />
    <path
       style="fill:#8a8892;fill-opacity:1;stroke:none"
       d="m 2473.4595,1760.0724 c 12.5733,53.2401 46.1083,55.5734 84.8528,45.2549 -57.2384,56.3929 -95.5232,20.7708 -84.8528,-45.2549 z"
       id="path4089"
       inkscape:connector-curvature="0"
       sodipodi:nodetypes="ccc" />
  </g>
  <g
     inkscape:groupmode="layer"
     id="layer5"
     inkscape:label="Eyes"
     sodipodi:insensitive="true"
     style="display:inline"
     transform="translate(48.708716,336.93073)">
    <path
       style="fill:#ffffff;stroke:none"
       d="m 2352,1330 c 53.8311,-110.1689 124.5042,-203.4958 242,-250 27.7137,194.211 26.8582,390.4625 -20,590 l -146,-78 z"
       id="path4137"
       inkscape:connector-curvature="0"
       sodipodi:nodetypes="ccccc"
       clip-path="url(#clipPath4181)" />
    <path
       style="fill:#ffffff;stroke:none"
       d="m 2126,1454 c -195.7928,-334.0434 -517.643,-284.872 -844,-222 -90.3209,394.0226 143.7699,555.6963 444,670 279.0249,-12.3397 475.8663,-101.9565 400,-448 z"
       id="path4135"
       inkscape:connector-curvature="0"
       sodipodi:nodetypes="cccc"
       clip-path="url(#clipPath4169)" />
    <ellipse
       style="color:#000000;fill:url(#linearGradient4230);fill-opacity:1;fill-rule:nonzero;stroke:none;stroke-width:1px;marker:none;visibility:visible;display:inline;overflow:visible;enable-background:accumulate"
       id="path4125"
       cx="1917.9999"
       cy="1527"
       rx="240"
       ry="287"
       clip-path="url(#clipPath4165)"
       sodipodi:cx="1917.9999"
       sodipodi:cy="1527"
       sodipodi:rx="240"
       sodipodi:ry="287"
       d="m 2157.9999,1527 c 0,158.5057 -107.4517,287 -240,287 -132.5484,0 -240,-128.4943 -240,-287 0,-158.5057 107.4516,-287 240,-287 132.5483,0 240,128.4943 240,287 z" />
    <ellipse
       style="color:#000000;fill:url(#linearGradient4238);fill-opacity:1;fill-rule:nonzero;stroke:none;stroke-width:1px;marker:none;visibility:visible;display:inline;overflow:visible;enable-background:accumulate"
       id="path4131"
       cx="2548"
       cy="1363"
       rx="118"
       ry="245"
       clip-path="url(#clipPath4177)"
       sodipodi:cx="2548"
       sodipodi:cy="1363"
       sodipodi:rx="118"
       sodipodi:ry="245"
       d="m 2666,1363 c 0,135.3098 -52.8304,245 -118,245 -65.1696,0 -118,-109.6902 -118,-245 0,-135.3098 52.8304,-245 118,-245 65.1696,0 118,109.6902 118,245 z" />
    <path
       style="fill:#e2f5ef;fill-opacity:1;stroke:none"
       d="m 1868.1761,1706.3323 -79.1959,114.5513 -70.7107,-84.8528 111.7229,-72.1249 z"
       id="path4188"
       inkscape:connector-curvature="0"
       clip-path="url(#clipPath4212)" />
    <path
       style="fill:#b3e3e1;fill-opacity:1;stroke:none"
       d="m 1837.0634,1683.7049 -84.8528,67.8823 -84.8528,-128.6935 137.1787,-38.1837 z"
       id="path4190"
       inkscape:connector-curvature="0"
       clip-path="url(#clipPath4208)" />
    <path
       style="fill:#e2f5ef;fill-opacity:1;stroke:none"
       d="m 2510.2291,1516.8277 -29.6985,87.6812 -35.3554,-59.3969 50.9117,-55.1543 z"
       id="path4194"
       inkscape:connector-curvature="0"
       clip-path="url(#clipPath4220)" />
    <path
       style="fill:#b3e3e1;fill-opacity:1;stroke:none"
       d="m 2501.7438,1497.0287 -55.1543,43.8406 -21.2132,-90.5096 66.468,-16.9706 z"
       id="path4196"
       inkscape:connector-curvature="0"
       clip-path="url(#clipPath4216)" />
    <ellipse
       style="color:#000000;fill:#000000;fill-opacity:1;fill-rule:nonzero;stroke:none;stroke-width:1px;marker:none;visibility:visible;display:inline;overflow:visible;enable-background:accumulate"
       id="path4127"
       cx="1944.9999"
       cy="1523"
       rx="167"
       ry="231"
       clip-path="url(#clipPath4161)"
       sodipodi:cx="1944.9999"
       sodipodi:cy="1523"
       sodipodi:rx="167"
       sodipodi:ry="231"
       d="m 2111.9999,1523 c 0,127.5778 -74.7685,231 -167,231 -92.2316,0 -167,-103.4222 -167,-231 0,-127.5778 74.7684,-231 167,-231 92.2315,0 167,103.4222 167,231 z" />
    <ellipse
       style="color:#000000;fill:#ffffff;fill-opacity:1;fill-rule:nonzero;stroke:none;stroke-width:1px;marker:none;visibility:visible;display:inline;overflow:visible;enable-background:accumulate"
       id="path4129"
       cx="896.07397"
       cy="2220.9792"
       rx="98.910767"
       ry="147.75739"
       transform="matrix(0.86684936,-0.49857014,0.53545695,0.84456252,0,0)"
       clip-path="none"
       sodipodi:cx="896.07397"
       sodipodi:cy="2220.9792"
       sodipodi:rx="98.910767"
       sodipodi:ry="147.75739"
       d="m 994.98474,2220.9792 c 0,81.6042 -44.28386,147.7574 -98.91077,147.7574 -54.6269,0 -98.91076,-66.1532 -98.91076,-147.7574 0,-81.6041 44.28386,-147.7573 98.91076,-147.7573 54.62691,0 98.91077,66.1532 98.91077,147.7573 z" />
    <ellipse
       style="color:#000000;fill:#ffffff;fill-opacity:1;fill-rule:nonzero;stroke:none;stroke-width:1px;marker:none;visibility:visible;display:inline;overflow:visible;enable-background:accumulate"
       id="path4186"
       cx="-119.57023"
       cy="2474.8877"
       rx="34.449337"
       ry="46.138851"
       transform="matrix(0.64951451,-0.7603492,0.79051873,0.61243787,0,0)"
       sodipodi:cx="-119.57023"
       sodipodi:cy="2474.8877"
       sodipodi:rx="34.449337"
       sodipodi:ry="46.138851"
       d="m -85.120892,2474.8877 c 0,25.4818 -15.423498,46.1388 -34.449338,46.1388 -19.02584,0 -34.44934,-20.657 -34.44934,-46.1388 0,-25.4818 15.4235,-46.1389 34.44934,-46.1389 19.02584,0 34.449338,20.6571 34.449338,46.1389 z" />
    <ellipse
       style="color:#000000;fill:#000000;fill-opacity:1;fill-rule:nonzero;stroke:none;stroke-width:1px;marker:none;visibility:visible;display:inline;overflow:visible;enable-background:accumulate"
       id="path4133"
       cx="2538"
       cy="1365"
       rx="70"
       ry="189"
       clip-path="url(#clipPath4173)"
       sodipodi:cx="2538"
       sodipodi:cy="1365"
       sodipodi:rx="70"
       sodipodi:ry="189"
       d="m 2608,1365 c 0,104.3818 -31.3401,189 -70,189 -38.6599,0 -70,-84.6182 -70,-189 0,-104.3818 31.3401,-189 70,-189 38.6599,0 70,84.6182 70,189 z" />
    <ellipse
       style="color:#000000;fill:#ffffff;fill-opacity:1;fill-rule:nonzero;stroke:none;stroke-width:1px;marker:none;visibility:visible;display:inline;overflow:visible;enable-background:accumulate"
       id="path4192"
       cx="1860.2297"
       cy="2263.3157"
       rx="19.091883"
       ry="26.870058"
       transform="matrix(0.93533045,-0.35377529,0.35377529,0.93533045,0,0)"
       sodipodi:cx="1860.2297"
       sodipodi:cy="2263.3157"
       sodipodi:rx="19.091883"
       sodipodi:ry="26.870058"
       d="m 1879.3216,2263.3157 c 0,14.8399 -8.5477,26.87 -19.0919,26.87 -10.5441,0 -19.0918,-12.0301 -19.0918,-26.87 0,-14.8399 8.5477,-26.8701 19.0918,-26.8701 10.5442,0 19.0919,12.0302 19.0919,26.8701 z" />
    <ellipse
       style="color:#000000;fill:#ffffff;fill-opacity:1;fill-rule:nonzero;stroke:none;stroke-width:1px;marker:none;visibility:visible;display:inline;overflow:visible;enable-background:accumulate"
       id="path4198"
       cx="2271.9302"
       cy="1750.6198"
       rx="46.018322"
       ry="108.82027"
       transform="matrix(0.9794995,-0.20144661,0.190598,0.98166817,0,0)"
       sodipodi:cx="2271.9302"
       sodipodi:cy="1750.6198"
       sodipodi:rx="46.018322"
       sodipodi:ry="108.82027"
       d="m 2317.9485,1750.6198 c 0,60.0997 -20.6031,108.8202 -46.0183,108.8202 -25.4152,0 -46.0183,-48.7205 -46.0183,-108.8202 0,-60.0998 20.6031,-108.8203 46.0183,-108.8203 25.4152,0 46.0183,48.7205 46.0183,108.8203 z" />
  </g>
  <g
     inkscape:groupmode="layer"
     id="layer4"
     inkscape:label="Eye Clipping"
     style="opacity:0.5;display:none"
     sodipodi:insensitive="true"
     transform="translate(48.708716,336.93073)">
    <ellipse
       style="color:#000000;fill:#ffff00;fill-opacity:1;fill-rule:nonzero;stroke:none;stroke-width:1px;marker:none;visibility:visible;display:inline;overflow:visible;enable-background:accumulate"
       id="path4094"
       cx="748.49597"
       cy="2062.1929"
       rx="363.03571"
       ry="468.35205"
       transform="matrix(0.88546397,-0.46470804,0.51320693,0.8582649,0,0)"
       sodipodi:cx="748.49597"
       sodipodi:cy="2062.1929"
       sodipodi:rx="363.03571"
       sodipodi:ry="468.35205"
       d="m 1111.5317,2062.1929 c 0,258.6637 -162.53664,468.352 -363.03573,468.352 -200.49908,0 -363.0357,-209.6883 -363.0357,-468.352 0,-258.6637 162.53662,-468.3521 363.0357,-468.3521 200.49909,0 363.03573,209.6884 363.03573,468.3521 z" />
    <path
       style="fill:#00ff00;fill-opacity:1;stroke:#ff0000;stroke-width:1px;stroke-linecap:butt;stroke-linejoin:miter;stroke-opacity:1"
       d="m 2503.158,818.20623 c -182.2776,179.83496 -133.123,482.35267 -72.0126,706.87617 34.5461,83.088 90.2164,113.3654 145.5517,144.4804 36.2682,-276.6531 67.6468,-553.8312 -73.5391,-851.35657 z"
       id="path4096"
       inkscape:connector-curvature="0"
       sodipodi:nodetypes="cccc" />
    <path
       transform="matrix(0.88546397,-0.46470804,0.51320693,0.8582649,0,0)"
       style="color:#000000;fill:#00ff00;fill-opacity:1;fill-rule:nonzero;stroke:#ff0000;stroke-width:1.00077391;stroke-miterlimit:4;stroke-opacity:1;stroke-dasharray:none;marker:none;visibility:visible;display:inline;overflow:visible;enable-background:accumulate"
       d="m 1111.5317,2062.1929 a 363.03571,468.35205 0 0 1 -363.03573,468.352 363.03571,468.35205 0 0 1 -363.0357,-468.352 363.03571,468.35205 0 0 1 363.0357,-468.3521 363.03571,468.35205 0 0 1 363.03573,468.3521 z"
       id="path4094-1"
       inkscape:connector-curvature="0" />
  </g>
  <g
     inkscape:groupmode="layer"
     id="layer6"
     inkscape:label="Eyelashes"
     sodipodi:insensitive="true"
     style="display:inline"
     transform="translate(48.708716,336.93073)">
    <path
       style="fill:#9681b9;fill-opacity:1;stroke:none"
       d="m 1274,1218 c 42.9801,-155.2486 128.493,-287.92887 430,-305.99998 184.3448,5.44681 405.0753,184.69458 416,529.99998 -109.1077,-143.7826 -239.1515,-258.2546 -454,-254 z"
       id="path4255"
       inkscape:connector-curvature="0"
       sodipodi:nodetypes="ccccc"
       clip-path="url(#clipPath4267)" />
    <path
       style="fill:#9681b9;fill-opacity:1;stroke:none"
       d="m 2356,1328 c 45.1039,-115.3101 129.5744,-206.016 260,-268 C 2584.1774,960.04893 2564.4386,858.88949 2482,764.00002 2319.0689,916.60555 2300.8097,1111.5541 2356,1328 z"
       id="path4257"
       inkscape:connector-curvature="0"
       sodipodi:nodetypes="cccc"
       clip-path="url(#clipPath4271)" />
    <path
       style="fill:#000000;stroke:none"
       d="m 2134,1462 c -89.14,-86.1933 -173.1881,-178.494 -304,-222 -84.2666,-28.0257 -191.2244,-27.6615 -334,22 -167.0008,58.0877 -287.5332,7.5596 -374,-130 114.6666,54.0997 248.7253,60.4339 361.6777,38.7071 118.0566,-22.7085 236.2201,-37.701 374.3223,11.2929 125.9384,44.6786 225.8094,154.0348 276,280 z"
       id="path4251"
       inkscape:connector-curvature="0"
       sodipodi:nodetypes="csscssc" />
    <path
       style="font-style:normal;font-variant:normal;font-weight:normal;font-stretch:normal;text-indent:0;text-align:start;text-decoration:none;line-height:normal;letter-spacing:normal;word-spacing:normal;text-transform:none;direction:ltr;block-progression:tb;writing-mode:lr-tb;text-anchor:start;baseline-shift:baseline;color:#000000;fill:#8a8892;fill-opacity:1;stroke:none;stroke-width:51;marker:none;visibility:visible;display:inline;overflow:visible;enable-background:accumulate;font-family:sans-serif;-inkscape-font-specification:sans-serif"
       d="m 2431.1454,1525.0824 c 19.7407,84.4577 102.3819,165.3308 191.1964,173.8629 23.4852,2.2562 38.033,8.4025 46.7383,15.1641 8.7052,6.7615 12.785,14.1502 14.8437,24.623 l 50.043,-9.8379 c -4.0502,-20.6028 -15.1852,-40.7581 -33.6016,-55.0625 -18.4163,-14.3044 -42.8973,-22.7463 -73.1464,-25.6523 -71.8298,-6.9005 -149.814,-45.555 -196.0734,-123.0973 z"
       id="path4079-2"
       inkscape:connector-curvature="0"
       sodipodi:nodetypes="cssccssc" />
    <path
       style="fill:none;stroke:#8a8892;stroke-width:34;stroke-linecap:butt;stroke-linejoin:miter;stroke-miterlimit:4;stroke-opacity:1;stroke-dasharray:none"
       d="M 2406,642.00001 C 2610.0738,959.51327 2650.5606,1293.8247 2568,1662"
       id="path4290"
       inkscape:connector-curvature="0"
       sodipodi:nodetypes="cc" />
    <path
       style="fill:#000000;stroke:none"
       d="m 2360.3224,1338.6368 c 39.2151,-68.0737 88.7251,-136.0504 169.7057,-186.6762 91.8415,-57.4156 201.6057,-106.331 199.4041,-214.96043 -41.955,70.17433 -139.0168,92.23173 -206.4752,125.86503 -90.6719,45.207 -161.3079,178.2809 -162.6346,275.7716 z"
       id="path4253"
       inkscape:connector-curvature="0"
       sodipodi:nodetypes="cscsc" />
  </g>
  <g
     inkscape:groupmode="layer"
     id="layer7"
     inkscape:label="Top Mane"
     sodipodi:insensitive="true"
     style="display:inline"
     transform="translate(48.708716,336.93073)">
    <path
       style="fill:#9681b9;fill-opacity:1;stroke:#4f3e6b;stroke-width:51;stroke-linecap:butt;stroke-linejoin:miter;stroke-miterlimit:4;stroke-opacity:1;stroke-dasharray:none"
       d="m 1069.1455,396.77058 c 246.506,-68.33937 326.3506,305.23022 356.3818,455.37678 463.5538,-64.11102 921.3828,-128.22203 1377.444,-192.33305 C 2794.6552,220.46138 2663.3092,5.7744669 2259.9133,60.187744 1832.1655,117.8858 1405.9879,188.34167 984.29259,289.29035 z"
       id="path4293"
       inkscape:connector-curvature="0"
       sodipodi:nodetypes="cccscc" />
    <path
       style="fill:none;stroke:#4f3e6b;stroke-width:34;stroke-linecap:butt;stroke-linejoin:miter;stroke-miterlimit:4;stroke-opacity:1;stroke-dasharray:none"
       d="M 2252,54.000003 C 2443.6635,231.95256 2509.7263,459.73849 2528,704.00002"
       id="path4295"
       inkscape:connector-curvature="0"
       sodipodi:nodetypes="cc" />
    <path
       style="fill:none;stroke:#4f3e6b;stroke-width:34;stroke-linecap:butt;stroke-linejoin:miter;stroke-miterlimit:4;stroke-opacity:1;stroke-dasharray:none"
       d="M 2156,752.00002 C 2129.891,567.80218 2047.1382,271.23134 1874,118"
       id="path4297"
       inkscape:connector-curvature="0"
       sodipodi:nodetypes="cc" />
    <path
       style="fill:none;stroke:#4f3e6b;stroke-width:34;stroke-linecap:butt;stroke-linejoin:miter;stroke-miterlimit:4;stroke-opacity:1;stroke-dasharray:none"
       d="m 1464,186 c 182.9543,176.57078 247.5405,413.26429 272,622.00002"
       id="path4299"
       inkscape:connector-curvature="0"
       sodipodi:nodetypes="cc" />
  </g>
  <g
     inkscape:groupmode="layer"
     id="layer8"
     inkscape:label="Ear"
     style="display:inline"
     sodipodi:insensitive="true"
     transform="translate(48.708716,336.93073)">
    <path
       style="fill:#b7b5bd;fill-opacity:1;stroke:none"
       d="M 998.19774,1354.4345 C 663.66351,1061.7448 666.64508,483.33776 851.35651,246.86391 c 70.46323,-90.2094 110.35879,-61.18683 158.39199,-16.97056 193.6939,178.30209 306.5614,416.37699 359.5534,657.70984 L 1024,1056 z"
       id="path4302-2"
       inkscape:connector-curvature="0"
       sodipodi:nodetypes="cssccc" />
    <path
       style="font-style:normal;font-variant:normal;font-weight:normal;font-stretch:normal;text-indent:0;text-align:start;text-decoration:none;line-height:normal;letter-spacing:normal;word-spacing:normal;text-transform:none;direction:ltr;block-progression:tb;writing-mode:lr-tb;text-anchor:start;baseline-shift:baseline;color:#000000;fill:#8a8892;fill-opacity:1;stroke:none;stroke-width:51;marker:none;visibility:visible;display:inline;overflow:visible;enable-background:accumulate;font-family:sans-serif;-inkscape-font-specification:sans-serif"
       d="m 933.70312,162.39648 c -33.98916,0.86728 -67.30076,23.77879 -102.44335,68.76954 C 732.98406,356.98191 682.10946,564.90162 696.24805,780.41016 710.38664,995.91869 822.97287,1293.9968 998.19774,1354.4345 857.4226,1234.8721 760.59821,982.22837 747.13867,777.07031 733.67913,571.91225 785.0174,373.2185 871.45312,262.56055 c 32.97779,-42.21928 52.75448,-49.94149 65.9629,-49.13867 13.20841,0.80281 31.58875,13.624 55.0625,35.23242 189.00388,173.98477 313.79728,461.0622 373.83128,647.61638 -3.9661,-209.44583 -140.9064,-502.51848 -339.2903,-685.13787 -24.5594,-22.60785 -50.14431,-46.407 -86.50778,-48.61719 -2.27272,-0.13813 -4.54265,-0.17695 -6.8086,-0.11914 z"
       id="path4302"
       inkscape:connector-curvature="0"
       sodipodi:nodetypes="ssscsssscsss" />
    <path
       style="fill:#8a8892;fill-opacity:1;stroke:none"
       d="M 911.99995,524.00001 C 856.0813,674.85674 931.91072,969.00698 1020,1042 961.3474,951.33334 899.99094,672.66667 911.99995,524.00001 z"
       id="path4319"
       inkscape:connector-curvature="0"
       sodipodi:nodetypes="ccc" />
  </g>
  <!--Created by Sigma
      http://90sigma.deviantart.com/-->
</svg>
