<?xml version="1.0" encoding="UTF-8"?><svg xmlns="http://www.w3.org/2000/svg" version="1.1" xmlns:xlink="http://www.w3.org/1999/xlink" viewBox="-288.1 0 2149.5 2149.5" width="2149.5" height="2149.5"><path d="m621.7 1405.9c37 6.5 91.5-9 121-80l-245.5-26.5 111 398c37.5 21.5 117 45.5 156.5-14 46.3-69.7-54.5-267-71.8-291.2" fill="#436D91"/><path d="m621.7 1405.9l2.5-0.1c0.8 0 1.7-0.1 2.5-0.1l2.4-0.2c0.8-0.1 1.6-0.2 2.4-0.2 3.2-0.3 6.4-0.7 9.6-1.3 3.1-0.5 6.2-1.2 9.3-2 0.8-0.2 1.5-0.4 2.3-0.6l2.3-0.6c1.5-0.5 3-0.9 4.5-1.4 2.9-1.1 5.8-2.2 8.6-3.4l2.1-0.9 2.1-1c0.7-0.3 1.4-0.7 2.1-1l2-1.1c1.4-0.7 2.7-1.5 4-2.2s2.6-1.6 3.9-2.4c2.6-1.6 5.1-3.4 7.5-5.2 2.4-1.9 4.8-3.8 7.1-5.8 1.2-1 2.3-2.1 3.4-3.1s2.2-2.1 3.2-3.3l1.6-1.7 1.5-1.7c1-1.2 2.1-2.3 3-3.5 1-1.2 2-2.4 2.9-3.6l2.8-3.7 2.6-3.8c0.9-1.3 1.7-2.6 2.5-3.9l1.3-2 1.2-2c0.8-1.4 1.6-2.7 2.3-4l2.3-4.1c0.8-1.4 1.4-2.8 2.1-4.2l2.1-4.2 2-4.3 6.1 10.3-245.5-26.5 8-9.5 111 398-3.5-4.5c4.2 2.4 8.5 4.6 12.8 6.6 4.4 2 8.9 3.9 13.4 5.6 2.3 0.9 4.6 1.6 6.8 2.4 2.3 0.7 4.6 1.5 6.9 2.1 4.6 1.4 9.3 2.4 14.1 3.3 4.7 0.9 9.5 1.6 14.2 2s9.5 0.6 14.2 0.4c2.4 0 4.7-0.3 7-0.4l3.5-0.4 1.7-0.2 1.7-0.3c4.6-0.7 9-2 13.4-3.5 2.1-0.8 4.3-1.6 6.3-2.6 1-0.5 2.1-0.9 3.1-1.5l3-1.7c1-0.5 1.9-1.2 2.9-1.8l1.4-0.9c0.5-0.3 1-0.6 1.4-1 1.8-1.4 3.7-2.7 5.3-4.3 0.8-0.8 1.7-1.5 2.5-2.3l2.4-2.5 1.2-1.2 1.1-1.3 2.2-2.7c0.7-0.9 1.4-1.9 2.1-2.8l1.9-2.6 2-3.2 1.4-2.7c3.8-8 5.9-17.2 6.8-26.5 0.4-4.7 0.6-9.5 0.6-14.3-0.1-4.8-0.3-9.6-0.7-14.5-0.9-9.7-2.4-19.4-4.3-29-1.9-9.7-4.3-19.3-6.9-28.8-2.6-9.6-5.6-19-8.8-28.5-3.2-9.4-6.6-18.8-10.2-28.1-7.2-18.6-15.1-36.9-23.6-55-4.3-9-8.7-18-13.3-26.8-2.3-4.4-4.7-8.8-7.1-13.1-1.2-2.2-2.4-4.3-3.7-6.3-1.2-2.1-2.5-4.1-3.8-5.9l12.2-8.7c1.7 2.4 3 4.6 4.4 6.8 1.3 2.2 2.6 4.5 3.9 6.7 2.5 4.5 4.9 9 7.3 13.5 4.7 9 9.2 18.1 13.6 27.3 8.7 18.4 16.7 37 24.1 56 3.7 9.5 7.2 19 10.4 28.7 3.3 9.7 6.3 19.4 9 29.2s5.2 19.8 7.2 29.9 3.6 20.3 4.5 30.7c0.4 5.2 0.7 10.4 0.8 15.7 0 5.3-0.2 10.6-0.7 15.9-1.1 10.6-3.4 21.4-8.3 31.6l-2.1 4-2 3.2-0.1 0.2s-0.3 0.5-0.2 0.3l-0.1 0.1-0.3 0.4-0.6 0.8-1.2 1.7c-0.8 1.1-1.5 2.2-2.4 3.3l-2.6 3.2-1.3 1.6-1.4 1.5-2.9 3c-1 1-2 1.9-3.1 2.8-2 1.9-4.2 3.5-6.4 5.2-0.5 0.4-1.1 0.8-1.7 1.2l-1.7 1.1c-1.2 0.7-2.3 1.6-3.5 2.2l-3.6 2c-1.2 0.7-2.5 1.2-3.7 1.8-2.5 1.2-5.1 2.1-7.6 3.1-5.2 1.8-10.5 3.3-15.8 4.1l-2 0.4-2 0.3-4 0.5c-2.7 0.2-5.4 0.5-8 0.5-5.4 0.2-10.7-0.1-16-0.5-5.3-0.5-10.5-1.2-15.7-2.2s-10.3-2.2-15.3-3.6c-2.5-0.7-5-1.5-7.5-2.3s-5-1.7-7.4-2.6c-4.9-1.8-9.7-3.8-14.5-6s-9.4-4.6-14-7.2l-2.7-1.5-0.8-3-111-398-3-10.7 11 1.2 245.5 26.5 10.2 1.1-4 9.2c-1.3 3.1-2.5 6.3-4 9.4-0.7 1.5-1.4 3.1-2.2 4.6l-2.4 4.6c-0.8 1.5-1.7 3-2.5 4.5l-1.3 2.2-1.4 2.2c-1.8 2.9-3.8 5.8-5.8 8.6l-3.2 4.1c-1.1 1.4-2.2 2.7-3.3 4s-2.3 2.6-3.5 3.9l-1.8 1.9-1.9 1.8c-1.2 1.2-2.5 2.4-3.8 3.6s-2.6 2.3-4 3.4c-2.7 2.2-5.5 4.4-8.4 6.3-5.8 3.9-11.9 7.4-18.4 10l-2.4 1c-0.8 0.3-1.6 0.6-2.5 0.9-0.8 0.3-1.7 0.6-2.5 0.8l-2.5 0.7c-3.4 0.9-6.8 1.6-10.2 2.2-1.7 0.3-3.4 0.5-5.1 0.7-1.7 0.1-3.4 0.3-5.2 0.4-1.7 0.1-3.4 0.1-5.1 0-1.7 0-3.4-0.1-5.1-0.3-1.7-0.1-3.4-0.4-5.1-0.6-1.7-0.3-3.3-0.6-5-0.9-0.8-0.2-1.6-0.4-2.5-0.6-0.8-0.2-1.6-0.5-2.4-0.7-1.3-0.6-2.8-1.2-4.4-1.8z" fill="#30516F"/><path d="m1105.1 1206.4c-10-26.3-34.8-46.5-34.8-46.5l-84.8 103.8c58 95.3 122.8 62.7 208.5-8.3l-3.5-45.3" fill="#436D91"/><path d="m1105.1 1206.4c-0.7-1-1.5-2-2.2-3.1-0.4-0.5-0.7-1-1.1-1.5l-1.1-1.4c-0.8-1-1.5-1.9-2.2-2.8l-2.3-2.8-2.4-2.7c-0.8-0.9-1.6-1.8-2.4-2.6l-2.5-2.6c-0.9-0.8-1.7-1.7-2.5-2.5s-1.7-1.6-2.6-2.5c-0.9-0.8-1.7-1.6-2.6-2.4s-1.7-1.6-2.6-2.4l-2.6-2.4c-1.8-1.6-3.5-3.1-5.4-4.5-0.9-0.7-1.9-1.4-2.7-2.2s-1.7-1.6-2.5-2.2l10.5-1.1-84.8 103.8 0.6-8.6c2.7 4.3 5.4 8.6 8.4 12.7l2.2 3.1 2.3 3c1.6 2 3 4 4.7 5.8 3.2 3.8 6.7 7.4 10.3 10.7l2.7 2.4c0.5 0.4 0.9 0.8 1.4 1.2l1.4 1.1c1.9 1.5 3.8 3 5.9 4.2l3 2c1 0.6 2.1 1.1 3.1 1.7l1.6 0.8 0.8 0.4 0.8 0.3 3.2 1.4c1.1 0.5 2.2 0.8 3.3 1.2l3.3 1.1 3.4 0.8 1.7 0.4c0.6 0.1 1.2 0.2 1.7 0.3l3.5 0.5c1.2 0.1 2.3 0.1 3.5 0.2 2.3 0.2 4.7 0 7.1 0 1.2 0 2.4-0.2 3.6-0.3s2.4-0.3 3.6-0.4l3.6-0.7c1.2-0.2 2.4-0.4 3.6-0.8 2.4-0.6 4.7-1.1 7.1-2l3.5-1.1c1.2-0.4 2.3-0.9 3.5-1.3 1.2-0.5 2.3-0.9 3.5-1.3l3.4-1.5c1.1-0.5 2.3-1 3.4-1.5l3.4-1.7c2.3-1.1 4.5-2.3 6.7-3.5s4.4-2.5 6.6-3.8c1.1-0.7 2.2-1.3 3.3-1.9l3.3-2 3.3-2 3.2-2.1c2.1-1.4 4.3-2.8 6.4-4.3s4.2-2.9 6.3-4.5l6.3-4.6 6.2-4.7c4.1-3.2 8.2-6.3 12.3-9.6 4.1-3.2 8.1-6.6 12.1-9.9l-2.7 6.4-3.5-45.3 15-1.2 3.5 45.3 0.3 3.9-3 2.5c-4.1 3.4-8.2 6.7-12.3 10s-8.3 6.6-12.5 9.8l-6.4 4.8-6.5 4.7c-2.1 1.6-4.4 3.1-6.5 4.6l-6.6 4.5-3.3 2.2-3.4 2.1-3.4 2.1c-1.1 0.7-2.3 1.4-3.5 2.1-2.3 1.4-4.6 2.7-7.1 4-2.4 1.3-4.8 2.6-7.2 3.8l-3.7 1.8c-1.2 0.6-2.5 1.1-3.8 1.7l-3.8 1.7c-1.3 0.5-2.6 1-3.9 1.5s-2.6 1-3.9 1.5l-4 1.3c-2.6 0.9-5.4 1.5-8.1 2.2-1.3 0.4-2.7 0.6-4.1 0.9l-4.2 0.8c-1.4 0.2-2.8 0.3-4.3 0.5-1.4 0.1-2.8 0.4-4.3 0.4-2.9 0.1-5.7 0.3-8.6 0-1.4-0.1-2.9-0.1-4.3-0.3l-4.3-0.6c-0.7-0.1-1.4-0.2-2.2-0.3l-2.1-0.5-4.3-1-4.1-1.3c-1.4-0.5-2.8-0.9-4.1-1.5l-4-1.7-1-0.4-1-0.5-1.9-1c-1.3-0.7-2.5-1.4-3.8-2.1l-3.6-2.3c-2.5-1.5-4.6-3.3-6.9-5l-1.7-1.3c-0.5-0.4-1.1-0.9-1.6-1.4l-3.1-2.8c-4.1-3.8-7.9-7.8-11.5-12-1.9-2-3.5-4.2-5.2-6.4l-2.5-3.2-2.3-3.3c-3.2-4.4-6-9-9-13.6l-2.8-4.4 3.4-4.2 84.8-103.8 4.8-5.8 5.8 4.8c1.2 1 2.1 1.8 3.1 2.6s1.8 1.8 2.7 2.8c1.7 1.9 3.4 3.9 5 5.9l2.4 3c0.8 1 1.5 2.1 2.3 3.1s1.5 2.1 2.1 3.2c0.7 1.1 1.4 2.1 2 3.3 0.6 1.1 1.3 2.2 1.9 3.3l1.7 3.4c0.6 1.1 1.1 2.3 1.6 3.5s1.1 2.3 1.5 3.5l1.3 3.6c0.4 1.2 0.7 2.5 1.1 3.7l0.5 1.8c0.1 0.6 0.3 1.2 0.4 1.8 0.2 1.1 0.4 2.3 0.6 3.5z" fill="#30516F"/><path d="m1088.2 1211.4c14.5-60.5 107-141 168.5-48s111.2 245.9 62 353.7c-18 39.4-32 66.7-86.7 26s-117.4-135.2-80-194.7c33.7-53.5 25.7-86 23.2-105" fill="#436D91"/><path d="m1088.2 1211.4s0.1-1 0.2-3.1c0.2-2 0.6-5.1 1.5-8.9 0.9-3.9 2.2-8.6 4.3-14 1-2.7 2.3-5.6 3.7-8.6 1.5-3 3.1-6.1 5.1-9.4 3.9-6.4 9-13.1 15.1-19.9 0.7-0.9 1.6-1.7 2.4-2.5s1.7-1.6 2.6-2.4c1.8-1.6 3.6-3.2 5.5-4.7 3.9-3.1 8-6.2 12.5-9 4.5-2.9 9.4-5.5 14.7-7.8s10.9-4.3 17-5.6c6-1.3 12.4-2.1 19-1.9 6.6 0.1 13.3 1.2 19.9 3.3s12.9 5.1 18.9 8.9c5.9 3.8 11.4 8.4 16.4 13.5s9.5 10.7 13.7 16.6c1 1.5 2.1 2.9 3.1 4.5 0.9 1.5 1.9 2.9 2.8 4.4 1.9 2.9 3.8 6 5.7 9.1 15 24.6 28.5 51.7 40.1 80.8 11.5 29.1 21.1 60.2 27.1 92.6s8.6 66.2 5.2 99.9c-1.7 16.8-5 33.6-10.2 49.8-0.6 2-1.4 4-2.1 6l-2.2 6c-1.6 3.9-3.3 7.8-4.9 11.7-3.4 7.4-6.9 15-11.1 22.5-2.1 3.7-4.5 7.4-7.3 11s-6.1 7-10.1 9.9-8.9 5.1-13.9 6-10.1 0.7-14.6-0.2c-4.6-0.9-8.8-2.4-12.8-4-2-0.9-4-1.7-5.8-2.7-0.9-0.5-1.9-1-2.8-1.5l-2.7-1.6c-7.2-4.2-13.8-8.9-20.1-13.7-1.5-1.1-3.1-2.5-4.7-3.7l-2.3-1.9-2.2-2c-3-2.6-5.9-5.3-8.7-7.9-5.6-5.4-10.9-11-16-16.7-5-5.7-9.8-11.6-14.3-17.5-4.4-6-8.7-12-12.5-18.2-3.9-6.2-7.5-12.4-10.7-18.7-1.7-3.1-3.1-6.3-4.6-9.5-0.8-1.6-1.4-3.2-2.1-4.8s-1.4-3.2-2-4.8l-1.8-4.8c-0.6-1.6-1.1-3.3-1.7-4.9-1.1-3.2-2-6.5-2.9-9.8-0.4-1.6-0.8-3.3-1.2-4.9l-0.6-2.4c-0.2-0.8-0.3-1.6-0.4-2.5-0.3-1.6-0.6-3.3-0.8-4.9s-0.4-3.3-0.6-4.9l-0.3-2.4c0-0.8-0.1-1.6-0.1-2.5-0.1-1.6-0.2-3.3-0.2-4.9s0.1-3.3 0.1-4.9c0-0.8 0-1.6 0.1-2.4s0.1-1.6 0.2-2.4c0.4-6.4 1.8-12.6 3.5-18.6 0.5-1.5 1-2.9 1.5-4.4 0.3-0.7 0.5-1.5 0.8-2.1 0.3-0.7 0.6-1.4 0.9-2.1 0.6-1.4 1.2-2.8 1.9-4.1s1.5-2.6 2.2-3.9c0.4-0.6 0.7-1.3 1.1-1.9l0.1-0.2c0.1-0.1-0.1 0.1 0-0.1l0.3-0.4 0.5-0.8c0.7-1.1 1.3-2.2 2-3.4s1.3-2.2 2-3.3c0.3-0.5 0.7-1.1 1-1.6s0.6-1.1 0.8-1.6c1.1-2.1 2.2-4.2 3.3-6.2 0.6-1 1-2.1 1.5-3.1s1-2.1 1.4-3.1c0.5-1 0.9-2 1.4-3l1.2-3c0.8-2 1.6-4 2.3-5.9 0.6-2 1.3-3.9 1.9-5.7 0.3-0.9 0.6-1.9 0.8-2.8s0.5-1.8 0.7-2.7 0.5-1.8 0.7-2.7 0.4-1.8 0.5-2.6c0.2-1.8 1-3.4 1.3-5 0.4-1.7 0.8-3.3 1.2-4.8 0.3-1.6 0.6-3.1 0.9-4.6s0.5-3 0.7-4.4 0.5-2.8 0.6-4.1c0.9-5.4 1.1-10.1 1.5-13.9 0.3-3.9 0.5-6.9 0.7-8.9 0.1-1 0.2-1.8 0.2-2.3 0.1-0.5 0.1-0.8 0.1-0.8s0.1 0.2 0.3 0.7c0.2 0.5 0.5 1.2 0.9 2.2 0.7 1.9 1.8 4.7 3 8.5 0.6 1.9 1.2 4 1.8 6.4 0.3 1.2 0.6 2.5 0.9 3.8 0.2 1.3 0.5 2.7 0.8 4.2 0.9 5.8 1.3 12.7 0.6 20.4 0 1-0.1 1.9-0.3 2.9-0.1 0.5-0.1 1-0.2 1.5l-0.3 1.5-0.6 3c-0.3 1-0.5 2-0.8 3s-0.5 2-0.8 3.1c-0.3 1-0.6 2.1-0.9 3.1-0.7 2.1-1.4 4.2-2.1 6.4-0.8 2.1-1.7 4.3-2.5 6.5-0.4 1.1-0.9 2.2-1.3 3.3l-1.5 3.3c-0.5 1.1-1 2.2-1.6 3.4-0.5 1.1-1 2.3-1.7 3.4-1.2 2.3-2.4 4.6-3.7 6.9l-0.9 1.8c-0.3 0.5-0.6 1.1-1 1.6-0.7 1.1-1.3 2.2-2 3.3s-1.3 2.2-2 3.4c-0.4 0.6-0.7 1.2-1.1 1.8-0.3 0.5-0.6 1-0.9 1.6-0.6 1-1.2 2.1-1.8 3.1l-1.5 3.3c-0.3 0.6-0.5 1.1-0.8 1.7s-0.4 1.2-0.6 1.7l-1.2 3.6c-1.4 4.9-2.6 10-2.9 15.4-0.1 0.7-0.1 1.3-0.2 2s0 1.4-0.1 2.1c0 1.4 0 2.8-0.1 4.1 0.1 1.4 0.1 2.8 0.2 4.2 0 0.7 0.1 1.4 0.1 2.1 0.1 0.7 0.2 1.4 0.2 2.1 0.2 1.4 0.3 2.9 0.5 4.3 0.3 1.4 0.5 2.9 0.8 4.4 0.1 0.7 0.2 1.5 0.4 2.2s0.3 1.5 0.5 2.2c0.3 1.5 0.6 2.9 1 4.4 0.9 2.9 1.6 5.9 2.6 8.9 0.5 1.5 0.9 3 1.5 4.5s1.1 3 1.7 4.5c0.5 1.5 1.2 3 1.8 4.4 0.6 1.5 1.2 3 1.9 4.5 1.4 2.9 2.8 5.9 4.3 8.9 3 5.9 6.4 11.8 10.1 17.6 3.6 5.8 7.7 11.5 11.9 17.2 4.3 5.6 8.8 11.2 13.5 16.6 4.8 5.4 9.8 10.7 15.1 15.8 2.7 2.5 5.4 5.1 8.2 7.5l2.1 1.8 2.1 1.7c1.4 1.2 2.8 2.3 4.3 3.5 5.9 4.6 12.1 8.9 18.4 12.6l2.4 1.4c0.8 0.4 1.6 0.8 2.4 1.3 1.6 0.9 3.2 1.6 4.9 2.3 3.3 1.4 6.6 2.5 9.8 3.1s6.3 0.7 9.1 0.2 5.4-1.7 7.9-3.5c5-3.6 9.3-9.6 13.1-16.2s7.1-13.9 10.5-21.3c1.5-3.6 3.1-7.2 4.6-10.9l2-5.6c0.6-1.9 1.4-3.7 1.9-5.6 4.8-15.1 7.9-30.8 9.5-46.7 3.3-31.9 0.8-64.4-5-95.6-5.9-31.3-15.1-61.5-26.3-89.8s-24.5-54.7-38.9-78.5c-1.8-2.9-3.6-5.9-5.5-8.8-0.9-1.5-1.9-2.9-2.8-4.4-0.8-1.4-1.8-2.7-2.7-4-3.7-5.3-7.8-10.3-12.1-14.7s-9-8.2-13.8-11.4c-4.9-3.2-10-5.6-15.2-7.2-10.4-3.3-21.2-3.3-31.1-1-9.9 2.2-19 6.5-26.9 11.5-4 2.5-7.7 5.2-11.1 8-1.7 1.4-3.4 2.8-5 4.2-0.8 0.7-1.6 1.4-2.3 2.1l-1.1 1.1c-0.4 0.3-0.8 0.7-1.2 1-6.3 5.4-11.4 11-16 16.3-9.1 10.5-15.2 19.8-19 26.5-1.9 3.3-3.2 6-4.1 7.8-0.7 1-1.2 1.9-1.2 1.9z" fill="#30516F"/><defs><path id="SVGID_1_" d="m457.4 1753.8l-62.6-192.7c4.7-116-79.4-201.3-86-287.1-8.5-110 49-122 90.7-99.2l41.4-148.9c-45.5-44-85.6-66.9-131.6-66.9-57.2 0-117.5 48.2-206.5 45.5 8 11.3 39.3 25.7 75.7 26.7-113 90-162 203.9-170.3 324-7.7 110.9 61.6 269.3 167.7 363.8 152 135.5 147.3 364.8-8 357.2 12.2 25 40.2 42 85.7 34.9-16.9 11.6-33.7 20.9-48.1 27.5 201.8 37.3 295.2-232.2 251.9-384.8z"/></defs><clipPath id="SVGID_2_"><use overflow="visible" xlink:href="#SVGID_1_"/></clipPath><path id="Lighter_1_" d="m457.4 1753.8l-62.6-192.7c4.7-116-79.4-201.3-86-287.1-8.5-110 49-122 90.7-99.2l41.4-148.9c-45.5-44-85.6-66.9-131.6-66.9-57.2 0-117.5 48.2-206.5 45.5 8 11.3 39.3 25.7 75.7 26.7-113 90-162 203.9-170.3 324-7.7 110.9 61.6 269.3 167.7 363.8 152 135.5 147.3 364.8-8 357.2 12.2 25 40.2 42 85.7 34.9-16.9 11.6-33.7 20.9-48.1 27.5 201.8 37.3 295.2-232.2 251.9-384.8z" fill="#fff" clip-path="url(#SVGID_2_)"/><path id="Light_3_" d="m594.7 2082.4l-260.9 34.5c35.6-70.5 57.9-212.5-2.1-344.5s-135.4-256.9-166.9-428.7 108.9-346.3 236-253.2" clip-path="url(#SVGID_2_)" stroke="#9EA6E6" stroke-miterlimit="25" stroke-width="8" fill="#E1E4F8"/><path id="Dark_1_" d="m553.7 1965.4l-103-5c-24-206-94-403.3-185-544 26 12.5 88 55.5 121.5 95.5" clip-path="url(#SVGID_2_)" stroke="#9EA6E6" stroke-miterlimit="25" stroke-width="8" fill="#C6CCF0"/><path d="m258.7 2110.1c-2 1.2-4 2.5-6.1 3.5-2.1 1.1-4.2 2.2-6.4 3.2-2.2 0.9-4.4 1.9-6.7 2.7-0.6 0.2-1.1 0.5-1.7 0.6s-1.2-0.1-1.7 0c-1.2 0-2.3 0.1-3.5 0l-3.5-0.1-3.5-0.2c-2.3-0.2-4.7-0.4-7-0.7s-4.7-0.7-7-1.3c-1.2-0.2-2.3-0.5-3.5-0.8s-2.3-0.6-3.5-1c-2.3-0.7-4.6-1.5-6.8-2.4s-4.4-2-6.6-3.1c-1.1-0.6-2.1-1.2-3.2-1.8-1-0.6-2.1-1.3-3.1-2-2-1.4-4-2.8-5.9-4.4l-1.4-1.2-1.4-1.2c-0.9-0.8-1.8-1.7-2.6-2.6-0.9-0.9-1.7-1.8-2.5-2.7s-1.6-1.9-2.3-2.9c-1.5-1.9-2.9-3.9-4.2-6s-2.5-4.2-3.5-6.4l-5.7-11.3 12.8 0.5c12.4 0.6 24.8-0.3 36.6-3.4 11.8-3 22.8-8.2 32.4-15.4 4.8-3.6 9.2-7.7 13.2-12.2s7.5-9.5 10.7-14.7c6.2-10.5 10.7-22.1 13.7-34.1s4.5-24.5 4.8-37.1-0.5-25.2-2.4-37.7c-3.6-25.1-11.1-49.6-21.3-72.9s-23.2-45.5-38.5-65.9c-7.6-10.2-15.9-20-24.6-29.3-4.4-4.6-8.9-9.2-13.5-13.6-2.3-2.2-4.6-4.4-7-6.5l-7.3-6.6c-19.6-18.1-37.3-37.7-53.5-58.6s-30.9-42.9-44.1-65.8c-13.1-22.9-24.7-46.7-34.6-71.2-9.8-24.5-17.9-49.8-23.8-75.7-2.9-12.9-5.2-26-6.8-39.3-1.6-13.2-2.4-26.6-2.2-40 0-3.4 0.2-6.7 0.3-10.1 0.1-1.7 0.2-3.3 0.3-5.1l0.4-4.9 0.4-4.9 0.5-5c0.4-3.3 0.6-6.6 1.1-9.9 0.4-3.3 0.8-6.6 1.3-9.8l1.5-9.8 1.7-9.8c0.6-3.3 1.3-6.5 1.9-9.8 5.3-25.9 12.6-51.5 22.4-76.2 4.9-12.3 10.3-24.5 16.3-36.3 5.9-11.9 12.6-23.4 19.6-34.6 14.1-22.5 30.3-43.6 48.1-63.2 9-9.8 18.3-19.1 28-28.2 9.7-9 19.8-17.6 30.1-25.9l4.5 13.4c-1.8-0.1-3.6-0.1-5.4-0.3-1.8-0.1-3.6-0.3-5.4-0.4l-5.4-0.6c-1.8-0.2-3.6-0.5-5.3-0.8-7.1-1.2-14.1-2.8-21-4.9-3.4-1.1-6.9-2.3-10.2-3.6-3.4-1.4-6.7-2.8-10-4.5-1.6-0.8-3.3-1.8-4.9-2.7-1.6-1-3.2-2-4.8-3.2-1.6-1.1-3.2-2.4-4.7-3.8s-3.1-3-4.5-5l-8.7-12.2 15.1 0.4c7.3 0.2 14.7 0.1 22-0.4s14.7-1.3 22-2.4c14.6-2.3 29-5.8 43.3-10.2 14.3-4.3 28.4-9.5 42.8-14.6 14.3-5.1 28.9-10.3 44.2-13.9 7.7-1.8 15.6-3.2 23.6-3.7 2-0.1 4-0.2 6.1-0.3h1.5 0.8 0.8 2.8c1.9 0.1 4.1 0.2 6.1 0.3 2 0.2 4 0.3 6 0.5 8 0.9 15.9 2.5 23.6 4.7s15.2 5.1 22.4 8.4 14.1 7.1 20.8 11.3 13.1 8.6 19.3 13.3c12.4 9.4 24 19.7 35.1 30.4l3.2 3.1-1.2 4.3-41.4 148.9-2.5 9.1-8.3-4.5c-8-4.3-16.7-7.4-25.4-8.4-4.4-0.5-8.7-0.5-12.9 0.2-4.2 0.6-8.2 1.9-11.9 3.8s-7.1 4.4-10.1 7.3c-3 3-5.6 6.5-7.9 10.3-4.5 7.6-7.4 16.5-9.3 25.6-1.9 9.2-2.7 18.7-2.9 28.3s0.2 19.3 1.1 28.9l0.4 3.4 0.5 3.5c0.4 2.3 0.8 4.7 1.2 7 0.9 4.7 2.1 9.3 3.3 14 2.6 9.3 5.8 18.4 9.3 27.5 7.1 18.2 15.6 36.1 24 54.1s16.8 36.3 24.1 55.1c3.7 9.4 7 19 10 28.7s5.6 19.6 7.6 29.6c1 5 1.9 10 2.7 15.1s1.3 10.2 1.8 15.3c0.9 10.2 1.1 20.5 0.7 30.8l-0.4-2.6 57.4 176.7 3.6 11 0.9 2.8 0.4 1.4 0.2 0.7 0.2 0.7 0.1 0.3 0.8 2.8 0.8 2.9c2 7.8 3.6 15.5 4.8 23.4 2.5 15.7 3.8 31.5 4.1 47.3s-0.5 31.6-2.1 47.3c-1.7 15.7-4.2 31.3-7.6 46.6-3.4 15.4-7.7 30.6-12.8 45.5-5.2 14.9-11.2 29.5-18.2 43.7s-14.9 28-23.9 41c-9 13.1-19.1 25.5-30.3 36.8-11.3 11.3-23.7 21.6-37.2 30.3s-28.2 15.7-43.6 20.6-31.4 7.8-47.5 8.6c-8 0.4-16.1 0.2-24.1-0.3-8-0.6-16-1.6-23.8-3.1l-23.5-3.9 21.7-10.3c3.3-1.6 6.6-3.2 9.9-4.9 1.7-0.8 3.3-1.7 4.9-2.6 1.6-0.8 3.3-1.7 4.9-2.6 3.3-1.8 6.5-3.6 9.7-5.5s6.4-3.8 9.5-5.7l4.7-3 4.7-3 4.6-3.1 4.6-3.2c3-2.1 6.1-4.3 9-6.5 3-2.2 5.9-4.5 8.8-6.9 2.9-2.3 5.8-4.7 8.6-7.1 1.4-1.2 2.8-2.4 4.2-3.7l2.1-1.9 2-1.9c1.4-1.3 2.7-2.6 4-3.9s2.7-2.6 3.9-3.9c2.6-2.6 5.1-5.4 7.6-8.1s4.9-5.6 7.3-8.5c1.2-1.5 2.4-2.9 3.5-4.4l3.4-4.5 3.3-4.6 3.2-4.7c1-1.6 2-3.2 3.1-4.8 1-1.6 2-3.2 3-4.9-0.5 1.8-1 3.7-1.6 5.5s-1.3 3.6-1.9 5.4c-0.7 1.8-1.4 3.6-2.2 5.3-0.8 1.8-1.6 3.5-2.5 5.2-0.8 1.7-1.8 3.4-2.7 5.1s-1.9 3.3-2.9 5c-2 3.3-4.2 6.5-6.4 9.7-1.1 1.6-2.3 3.1-3.4 4.7-1.2 1.6-2.4 3.1-3.6 4.6s-2.4 3-3.7 4.5-2.5 2.9-3.9 4.3l-2 2.2-2 2.1c-1.3 1.4-2.7 2.8-4 4.2-2.7 2.8-5.5 5.5-8.4 8.1s-5.8 5.2-8.7 7.7c-3 2.5-5.9 5-9 7.4l-4.6 3.5-4.7 3.4c-3.1 2.3-6.3 4.5-9.5 6.6s-6.5 4.2-9.8 6.3c-3.3 2-6.6 4-10 5.9s-6.8 3.8-10.3 5.5c-3.5 1.8-7 3.4-10.5 5l-1.8-14.2c7.4 1.3 14.8 2.3 22.2 2.9 7.4 0.5 14.9 0.7 22.3 0.3 14.8-0.7 29.5-3.3 43.6-7.9 14.1-4.5 27.6-11 40.1-19s24.1-17.6 34.7-28.2 20.1-22.3 28.6-34.8c8.6-12.4 16.1-25.6 22.8-39.1 6.7-13.6 12.5-27.7 17.4-42 4.9-14.4 9.1-29 12.3-43.9 3.3-14.8 5.7-29.9 7.3-45s2.3-30.3 2.1-45.5c-0.3-15.2-1.5-30.3-3.9-45.2-1.2-7.4-2.7-14.8-4.6-22.1l-0.7-2.7-0.8-2.8-0.1-0.3v-0.2c0-0.1 0.2 0.5 0 0.2l-0.2-0.7-0.4-1.4-0.9-2.8-3.6-11-57.4-176.7-0.4-1.3 0.1-1.4c0.4-9.6 0.2-19.3-0.7-28.9-0.4-4.8-1-9.6-1.7-14.4s-1.5-9.5-2.5-14.3c-1.9-9.5-4.4-18.9-7.2-28.2-2.9-9.3-6.1-18.5-9.7-27.6-7.1-18.3-15.3-36.2-23.7-54.2-4.2-9-8.4-18-12.5-27.2-4.1-9.1-8.1-18.4-11.8-27.8s-7.1-19.1-9.8-29c-1.4-5-2.6-10-3.6-15-0.5-2.5-1-5.1-1.4-7.7l-0.6-3.9-0.5-4c-1-10.2-1.4-20.3-1.2-30.6s1.1-20.7 3.2-31 5.4-20.6 11-30.2c2.8-4.8 6.2-9.3 10.2-13.3 4.1-4 8.8-7.5 14-10.1s10.8-4.3 16.4-5.2 11.3-0.9 16.8-0.3c11.1 1.2 21.5 5 30.9 10.1l-10.8 4.6 41.4-148.9 2 7.4c-10.7-10.4-21.9-20.3-33.7-29.3-5.9-4.5-11.9-8.7-18.1-12.5-6.2-3.9-12.6-7.3-19.2-10.4-6.6-3-13.3-5.6-20.2-7.6s-13.9-3.4-21.1-4.2c-1.8-0.2-3.6-0.3-5.3-0.5-0.9-0.1-1.7-0.1-2.6-0.1s-1.7-0.1-2.7-0.1h-2.8-0.6-0.7-1.3c-1.8 0-3.5 0.1-5.3 0.2-7.1 0.5-14.2 1.7-21.3 3.4-14.2 3.3-28.4 8.3-42.6 13.4-14.3 5.1-28.7 10.3-43.4 14.8-14.8 4.5-29.9 8.2-45.3 10.6-7.7 1.2-15.5 2.1-23.3 2.6s-15.6 0.6-23.5 0.4l6.4-11.8c0.5 0.8 1.4 1.7 2.4 2.6s2.1 1.8 3.3 2.6c1.2 0.9 2.5 1.7 3.8 2.5s2.7 1.5 4.1 2.3c2.8 1.4 5.7 2.8 8.7 3.9 3 1.2 6 2.3 9.1 3.2 6.2 1.9 12.5 3.4 19 4.5 1.6 0.3 3.2 0.5 4.8 0.7s3.2 0.4 4.9 0.6c1.6 0.1 3.2 0.3 4.9 0.4 1.6 0.1 3.2 0.2 4.9 0.2l20 0.8-15.5 12.5c-10 8.1-19.8 16.4-29.2 25.1-9.4 8.8-18.4 17.9-27.1 27.3-17.2 19-33 39.3-46.5 61.1-6.8 10.8-13.2 22-18.9 33.4-5.8 11.4-11 23.1-15.7 35-9.5 23.8-16.5 48.5-21.7 73.7-0.6 3.2-1.3 6.3-1.8 9.4l-1.6 9.5-1.4 9.5c-0.5 3.2-0.8 6.4-1.2 9.6s-0.7 6.4-1 9.5l-0.5 4.8-0.4 4.9-0.4 4.9c-0.1 1.5-0.2 3.1-0.3 4.7-0.2 3.2-0.3 6.3-0.3 9.5-0.2 12.7 0.6 25.4 2.1 38 1.5 12.7 3.7 25.3 6.5 37.8 5.6 25 13.5 49.5 23 73.4 9.6 23.9 20.9 47.1 33.7 69.4s27.1 43.8 42.9 64.1 33.1 39.4 51.8 56.8c2.3 2.2 4.8 4.4 7.2 6.5 2.5 2.2 4.9 4.5 7.3 6.8 4.8 4.6 9.5 9.3 14.1 14.2 9.1 9.7 17.7 19.9 25.7 30.6 16 21.3 29.6 44.4 40.3 68.9 10.7 24.4 18.5 50.2 22.4 76.8 1.9 13.3 2.8 26.7 2.5 40.2s-1.9 27.1-5.2 40.3c-3.3 13.3-8.3 26.2-15.4 38.2-3.6 6-7.7 11.6-12.3 16.9-4.6 5.2-9.8 10.1-15.4 14.3-11.2 8.5-24.2 14.5-37.7 18s-27.4 4.5-41 3.8l7.1-10.8c0.9 1.7 1.8 3.4 2.8 5.1s2.1 3.2 3.3 4.7c0.6 0.8 1.2 1.5 1.8 2.2 0.7 0.7 1.3 1.4 1.9 2.1 0.7 0.7 1.3 1.4 2.1 2l1.1 1 1.1 0.9c1.5 1.2 3 2.4 4.6 3.5l2.4 1.5c0.8 0.5 1.7 1 2.5 1.4 1.7 0.9 3.5 1.7 5.3 2.5 1.8 0.7 3.7 1.4 5.5 2 0.9 0.3 1.9 0.6 2.8 0.8 1 0.2 1.9 0.5 2.9 0.7 1.9 0.4 3.9 0.8 5.9 1.1s4 0.5 6 0.6l3 0.2 3.1 0.1c2 0 4.1 0 6.1-0.1s4.1-0.3 6.2-0.5 4.1-0.5 6.1-0.8c1.9-0.2 4.2-0.7 6.3-1.1l0.9 8.2z" fill="#9EA6E6"/><path id="Wing_BG" d="m768 957.3s12.7-47.3 11.4-147.1l152.7 107c0 0.1-96.1 149.7-164.1 40.1z" stroke="#30516F" stroke-miterlimit="25" stroke-width="15" fill="#436D91"/><path id="Back_Hoof_2_" d="m438.7 1297.1c-47.7-4.7-88 19.7-94.7 39.3-6.7 19.7 26.5 63.8 37.7 178 12 122.5-22.5 164.5 8 203.5s140.5 94.5 192 57.5 39.1-193.5-43-364" stroke="#30516F" stroke-miterlimit="25" stroke-width="15" fill="#4F7EAC"/><path d="m437.7 1350.4c11-25-9.5-68-26-113s-37-131.7 24.9-222 213.6-85 213.6-85c88.5 37 128.8 35.3 221.2 0.3l-90.7 334.7-143.3 49.7c-10.7 40.8-70.7 139.8-148.7 127.3" fill="#4F7EAC"/><path d="m437.7 1350.4c0.9-6.3 0.4-12.2-0.7-17.9-1.1-5.8-2.8-11.4-4.6-17s-3.7-11.3-5.9-16.8c-0.5-1.4-1.2-2.8-1.6-4.2s-0.9-2.9-1.4-4.3c-1-2.9-2-5.7-3.1-8.6-4.2-11.4-8.7-22.8-13.1-34.4l-3.2-8.7c-1.1-3-2.1-5.9-3.1-8.9-2-6-3.7-12-5.3-18.1-6.3-24.4-9.4-49.8-8.2-75.2 0.6-12.7 2.2-25.3 4.8-37.7s6.3-24.6 11-36.4c4.6-11.8 10.2-23.2 16.6-34.1 3.2-5.5 6.6-10.8 10.1-16s7.6-10.5 11.9-15.3c8.5-9.7 18.2-18.3 28.7-25.6 10.4-7.4 21.6-13.7 33.1-19.1 23-10.7 47.4-17.7 72-22.4 12.3-2.3 24.7-4 37.2-5.1 6.2-0.6 12.5-1 18.7-1.3 3.1-0.1 6.3-0.2 9.4-0.3h4.7c1.6 0 3.1 0 4.9 0.1h1.3l1.3 0.5c4.4 1.8 8.7 3.6 13.1 5.3 2.2 0.9 4.4 1.7 6.6 2.5s4.4 1.7 6.6 2.5c4.4 1.6 8.8 3.1 13.3 4.6 4.4 1.4 8.9 2.8 13.4 4s9 2.4 13.5 3.3c2.3 0.5 4.5 1 6.8 1.3l3.4 0.6 3.4 0.5c4.5 0.7 9.1 1.1 13.7 1.5 2.3 0.2 4.6 0.2 6.8 0.3 2.3 0 4.6 0.1 6.9 0s4.6-0.1 6.9-0.2l3.4-0.2 3.4-0.3c2.3-0.2 4.6-0.5 6.8-0.7 2.3-0.2 4.6-0.6 6.8-1 2.3-0.3 4.5-0.8 6.8-1.2s4.5-0.9 6.8-1.4l6.8-1.6 6.8-1.8 6.8-1.9 6.7-2c4.5-1.4 9-2.8 13.4-4.4 2.2-0.7 4.5-1.5 6.7-2.3s4.5-1.6 6.7-2.4c4.4-1.6 8.9-3.3 13.3-4.9l13.7-5.1-3.8 14.1-90.7 334.7-1 3.8-3.8 1.3-17.8 6.4-17.9 6.3c-11.9 4.2-23.8 8.5-35.8 12.6l-35.8 12.5-35.8 12.4 5.2-5.6c-1.2 4.7-2.8 9.1-4.5 13.4s-3.5 8.5-5.5 12.6c-3.9 8.2-8.4 16.2-13.2 23.9s-10 15.1-15.7 22.3c-5.6 7.1-11.7 14-18.1 20.4-3.2 3.2-6.6 6.4-10.1 9.3-3.5 3-7.2 5.8-11 8.4s-7.8 5-11.9 7.1-8.4 4-12.7 5.6c-4.4 1.6-8.8 2.9-13.3 3.9s-9.1 1.6-13.7 1.8c-9.2 0.5-18.3-0.6-26.8-3.4 4.5 0 8.8-0.2 13.2-0.7 4.3-0.5 8.5-1.3 12.7-2.4 4.1-1 8.1-2.4 12.1-4 3.9-1.6 7.7-3.4 11.4-5.4s7.2-4.3 10.7-6.6c3.5-2.4 6.8-4.9 10.1-7.5s6.5-5.3 9.7-8.1c3.1-2.8 6.2-5.7 9.2-8.7 5.9-6 11.5-12.5 16.7-19.2s10-13.8 14.4-21.1c4.5-7.3 8.6-14.8 12.1-22.4 1.8-3.8 3.5-7.7 5-11.6s2.8-7.8 3.8-11.7l1.1-4.2 4.1-1.4 35.8-12.4 35.9-12.4c11.9-4.1 23.9-8.1 35.9-12.2l18-6.1 18-6-4.8 5.1 90.7-334.7 9.9 9c-4.5 1.7-9 3.4-13.5 5-2.3 0.8-4.5 1.6-6.8 2.4s-4.5 1.6-6.8 2.4c-4.6 1.6-9.2 3-13.8 4.5l-7 2.1-7 2-7.6 1.9-7.2 1.7c-2.4 0.5-4.8 1-7.2 1.5-2.4 0.4-4.8 0.9-7.3 1.3-2.4 0.4-4.9 0.8-7.3 1.1-2.5 0.3-4.9 0.6-7.4 0.8l-3.7 0.3-3.7 0.2c-2.5 0.2-5 0.2-7.4 0.2-2.5 0.1-5 0-7.5 0-2.5-0.1-5-0.2-7.4-0.4-5-0.4-9.9-0.9-14.8-1.6l-3.7-0.5-3.6-0.7c-2.4-0.4-4.9-0.9-7.3-1.4-4.8-1-9.6-2.2-14.3-3.5s-9.4-2.7-14-4.2-9.2-3.1-13.8-4.7c-2.3-0.8-4.6-1.7-6.8-2.5-2.3-0.9-4.5-1.7-6.8-2.6-4.5-1.8-9-3.6-13.4-5.4l2.6 0.6c-1.3 0-2.9-0.1-4.3-0.1h-4.5c-3 0-6 0.1-9 0.3-6 0.3-12 0.7-18 1.2-12 1.1-24 2.7-35.8 4.9-23.6 4.4-46.8 11.2-68.4 21.2-10.8 5-21.1 10.9-30.7 17.7s-18.4 14.6-26.1 23.3c-3.9 4.4-7.3 8.8-10.7 13.8-3.4 4.9-6.6 10-9.5 15.1-6 10.3-11.2 21-15.6 32.1-8.7 22.1-13.7 45.6-14.8 69.3s1.8 47.6 7.8 70.8c1.5 5.8 3.2 11.5 5.1 17.2 0.9 2.9 1.9 5.7 2.9 8.5l3.2 8.6c4.3 11.4 8.8 22.9 13.1 34.5 1.1 2.9 2.1 5.8 3.2 8.8 0.5 1.5 1 3 1.6 4.4 0.5 1.5 0.9 3 1.3 4.5 1.5 6.1 3 12.3 3.9 18.7 0.8 6.4 1.1 12.9 0.3 19.5-0.4 3.3-1.1 6.5-2.2 9.6-1.5 2.9-3.1 5.9-5.1 8.3z" fill="#30516F"/><g enable-background="new    "><defs><polygon id="SVGID_3_" enable-background="new    " points="427.2 1280.1 414.4 1089.5 530.7 1076.7 543.5 1267.3"/></defs><clipPath id="SVGID_4_"><use overflow="visible" xlink:href="#SVGID_3_"/></clipPath><g clip-path="url(#SVGID_4_)"><path d="m523.7 1249c-0.2 0.3-0.4 0.6-0.5 0.9 0.2-0.3 0.3-0.6 0.5-0.9m0.2-0.4c0 0.1-0.1 0.1-0.1 0.2 0 0 0.1-0.1 0.1-0.2m0.2-0.3c0 0.1-0.1 0.1-0.1 0.2 0.1-0.1 0.1-0.2 0.1-0.2m-64.6 6.4c4.7 9 14.1 17.6 24.5 17 3.9-3.6 6.8-8 9.3-12.6-2.7 0.9-5.4 1.5-8.3 1.8-8.2 0.9-16.9-0.7-25.5-6.2m65.1-7.3m0.3-0.4m-3.8-10.2c-1.6 2.7-3.3 5-5 7-5.4 6.2-13.1 11.9-21.9 15-1.5 6.7-3.9 11-6.5 14.6 16.4-2.5 27.7-11.1 35.4-23.5-0.6 1-1.2 1.9-1.9 2.8-2.9 2.7-6.2 5.1-9.5 6.6 4-4.8 8.4-14 9.4-22.5m-54.3 5.7c-2.9 0.3-5.2 1.1-6.6 2.9 6.9 4.7 16.2 7.1 25.5 6.1 8.3-0.9 16.7-4.6 23.6-11.8-1.8 0.3-3.5 0.5-5.1 0.7-4.1 0.5-7.9 0.7-11.5 0.7-0.5 0.1-1.1 0.3-1.6 0.4-1.4 0.3-2.8 0.5-4.1 0.7-3.7 0.4-7.4 0.3-10.8 0.3-3.5-0.1-6.7-0.2-9.4 0m34.8-5.4v0 0m0.5-0.2s-0.1 0 0 0c-0.1 0 0 0 0 0m0.4-0.3m0.4-0.3m0.4-0.3m0.4-0.3m0.4-0.3m0.4-0.3m0.4-0.4v0 0m0.4-0.3m0.4-0.3m26.1-3.9m-6.8-52.9c-1 2.1-1.6 5.6-0.3 8.5-0.7-0.6-1.9-1.1-3.1-1-0.9 0.1-1.6 0.6-1.9 1.6-0.8 3.1 3.6 5.7 3.7 9.1 0.2 7.1-14.9 25.6-14.9 25.6l6.8-0.3c-2.5 5.1-5.5 9.1-8.9 12.3 3.5-0.5 6.6-1.1 9.1-2 6.8-10.7 13.8-29.8 9.5-53.8" fill="#9AA3E4"/><path d="m534.6 1180.3c-0.6 0.1-1.3 0.6-1.8 1.6 1.3 23-4.2 42.4-11.6 54.9-1.1 8.5-5.5 17.7-9.4 22.5 3.3-1.4 6.7-3.8 9.5-6.6 0.7-0.9 1.3-1.9 1.9-2.8 0.2-0.3 0.4-0.6 0.5-0.9l0.1-0.1c0-0.1 0.1-0.1 0.1-0.2s0.1-0.1 0.1-0.2 0.1-0.1 0.1-0.2c0.2-0.3 0.3-0.5 0.5-0.8 0.1-0.1 0.2-0.3 0.2-0.4 2.8-5.1 5.1-10.7 6.9-16.8 0.1-0.2 0.1-0.4 0.2-0.5 3.4-11.5 2-30.3 3-32.9 1.1-2.8 3.8-3.1 3.4-6.6-0.1-1.2-1.1-2.4-2.3-2.3-0.5 0.1-1 0.3-1.5 0.9 2.5-6 1.6-8.7 0.1-8.6" fill="#7680DA"/><path d="m515.6 1231.4c-2.5 0.9-5.6 1.5-9.1 2-0.3 0.2-0.5 0.5-0.8 0.7-0.1 0.1-0.2 0.2-0.4 0.3l-0.3 0.3h-0.1l-0.3 0.3h-0.1l-0.3 0.3-0.1 0.1-0.3 0.3s-0.1 0-0.1 0.1c-0.1 0.1-0.2 0.2-0.3 0.2 0 0-0.1 0-0.1 0.1-0.1 0.1-0.2 0.2-0.3 0.2l-0.1 0.1c-0.1 0.1-0.2 0.2-0.3 0.2h-0.1c-0.1 0.1-0.2 0.2-0.4 0.2-0.1 0.1-0.3 0.2-0.4 0.3-2.8 1.8-5.8 3.1-8.9 4 3.6 0 7.4-0.2 11.5-0.7 1.7-0.2 3.4-0.4 5.1-0.7 1.1-1.1 2.1-2.3 3.1-3.6 0.9-1.3 2-2.9 3.1-4.7" fill="#3D5480"/><path d="m524.8 1153.9c-0.8 0.1-1.6 0.3-2.3 0.7-1.4 0.7-3.2 3.3-2.2 6 2.2 5.8 3.7 11.4 4.7 16.8 4.3 24-2.7 43-9.4 54-1.1 1.8-2.2 3.4-3.3 4.8-1 1.3-2 2.5-3.1 3.6-6.9 7.2-15.3 10.9-23.6 11.8-9.3 1-18.6-1.4-25.5-6.1-0.6-0.4-1.1-0.8-1.7-1.2-0.5-0.4-1.1-0.6-1.6-0.5-1 0.1-1.9 1-2.3 2.3-0.7 1.9-0.5 4.7 0.9 5.8s2.7 2.1 4.1 2.9c8.6 5.4 17.3 7 25.5 6.1 2.8-0.3 5.6-0.9 8.3-1.8 0.3-0.1 0.6-0.2 0.9-0.3 8.8-3 16.5-8.7 21.9-15 1.7-2 3.4-4.3 5-7 7.4-12.5 12.9-31.9 11.6-54.9-0.4-8.1-1.7-16.6-4-25.5-0.5-2-2.1-2.7-3.9-2.5" fill="#D7DEFD"/><path d="m473.8 1129.5c-0.7 0.1-1.3 0.2-2 0.3-18.3 3.6-30.8 28.6-27.9 55.7 2.8 26.2 18.9 44.8 36.4 42.9 0.7-0.1 1.3-0.2 2-0.3 18.3-3.6 30.8-28.6 27.9-55.7-0.9-8.2-3-15.6-6.1-21.9 1.8 4.2 3 9 3.6 14.2 2.2 20.8-7.4 39.9-21.5 42.7-0.5 0.1-1 0.2-1.5 0.2-13.5 1.5-25.9-12.8-28-32.8-2.2-20.8 7.4-39.9 21.5-42.7 0.5-0.1 1-0.2 1.5-0.2 4.2-0.5 8.3 0.6 12 2.9-5.4-4.1-11.6-6-17.9-5.3" fill="#F6FECA"/><path d="m479.6 1131.9c-0.5 0.1-1 0.1-1.5 0.2-14.1 2.8-23.8 21.9-21.5 42.7 2.1 20 14.5 34.3 28 32.8 0.5-0.1 1-0.1 1.5-0.2 14.1-2.8 23.8-21.9 21.5-42.7-0.6-5.2-1.8-10-3.6-14.2-2.9-7.1-7.4-12.6-12.5-15.7-3.6-2.3-7.7-3.4-11.9-2.9" fill="#3F5C7D"/><path d="m426.2 1126.4c0 0.1-0.1 0.2-0.1 0.3 0-0.1 0-0.2 0.1-0.3m25.2-3c-3.5 0.5-6.6 1.1-9.1 2-6.7 11-13.7 30-9.4 54 1-2.1 1.6-5.6 0.3-8.5 0.7 0.6 1.9 1.1 3 1 0.9-0.1 1.6-0.6 1.9-1.6 0.9-3.1-3.6-5.7-3.7-9.1-0.2-7.1 14.9-25.6 14.9-25.6l-6.8 0.3c2.5-5.2 5.5-9.3 8.9-12.5m12.5-7.3m0.5-0.2h-0.1 0.1m0.6-0.2c-0.1 0-0.2 0.1-0.3 0.1 0.1 0 0.2 0 0.3-0.1m7.3-10.5c-8.3 0.9-16.7 4.6-23.6 11.8 1.7-0.3 3.5-0.5 5.1-0.7 4.1-0.5 7.9-0.7 11.5-0.7-0.1 0-0.1 0-0.2 0.1 0.6-0.2 1.2-0.3 1.8-0.4 1.4-0.3 2.7-0.5 4.1-0.7 3.7-0.4 7.4-0.4 10.9-0.3 3.4 0.1 6.6 0.2 9.3-0.1 2.9-0.3 5.2-1.1 6.6-2.9-6.9-4.7-16.2-7.1-25.5-6.1m1.6-20.1c-3.9 3.6-6.8 8-9.3 12.6 2.7-0.9 5.4-1.5 8.3-1.8 8.2-0.9 17 0.7 25.5 6.1-4.7-9-14.1-17.5-24.5-16.9m-3.7-1.7c-24 3.6-37.1 20.5-44 42.9 2.5-8.3 5.9-15.8 10.4-22.2 2.9-2.7 6.2-5.1 9.5-6.6-3.9 4.8-8.3 14-9.4 22.5 1.6-2.7 3.3-5 5-7 5.4-6.2 13.1-11.9 21.9-15 1.6-6.7 4-11 6.6-14.6" fill="#9AA3E4"/><path d="m446.1 1097.5c-3.3 1.4-6.7 3.8-9.5 6.6-4.5 6.4-7.9 13.9-10.4 22.2v0.1c0 0.1-0.1 0.2-0.1 0.3 0 0.2-0.1 0.3-0.1 0.5-3.4 11.5-2 30.3-2.9 32.9-1.1 2.8-3.8 3.1-3.4 6.6 0.1 1.2 1.1 2.4 2.3 2.3 0.5-0.1 1-0.3 1.5-0.9-2.5 6-1.5 8.7-0.1 8.5 0.6-0.1 1.3-0.6 1.8-1.6-1.3-23 4.2-42.4 11.6-54.9 1-8.7 5.4-17.8 9.3-22.6" fill="#7680DA"/><path d="m453.8 1116.3c-1.7 0.2-3.4 0.4-5.1 0.7-1.1 1.1-2.1 2.3-3.1 3.6-1.1 1.4-2.2 3-3.3 4.8 2.5-0.9 5.6-1.5 9.1-2 3.7-3.5 7.9-5.9 12.4-7.3 0.1 0 0.3-0.1 0.4-0.1h0.1c0.1 0 0.2-0.1 0.3-0.1s0.2-0.1 0.3-0.1h0.1c0.1 0 0.1 0 0.2-0.1-3.5 0-7.3 0.2-11.4 0.6" fill="#3D5480"/><path d="m472.9 1095.9c-2.8 0.3-5.6 0.9-8.3 1.8-0.3 0.1-0.6 0.2-0.9 0.3-8.8 3-16.5 8.7-21.9 15-1.7 2-3.4 4.3-5 7-7.4 12.5-12.9 31.9-11.6 54.9 0.4 8.1 1.7 16.6 4 25.5 0.5 2 2.1 2.7 3.9 2.5 0.8-0.1 1.6-0.3 2.3-0.7 1.4-0.8 3.2-3.3 2.2-6-2.2-5.8-3.7-11.4-4.7-16.8-4.3-24 2.7-43 9.4-54 1.1-1.8 2.2-3.5 3.3-4.8 1-1.3 2-2.5 3.1-3.6 6.9-7.2 15.3-10.9 23.6-11.8 9.3-1 18.6 1.4 25.5 6.1 0.6 0.4 1.1 0.8 1.7 1.2 0.5 0.4 1.1 0.6 1.6 0.5 1-0.1 1.9-1 2.4-2.3 0.7-1.9 0.5-4.7-0.9-5.8s-2.7-2.1-4.1-2.9c-8.7-5.4-17.4-7-25.6-6.1" fill="#D7DEFD"/></g></g><path id="Lighter" d="m873.4 917.3c-56.2-25.8-117.7-54.3-131.7-142.3-63.7-35.5-95.1-53.9-142.5-110.6l-19.5-161.4c39 28 100.5 24.5 132 14.5l183-59.7s138.7 330.3-21.3 459.5z" fill="#fff"/><path id="Light_1_" d="m762 561.1c33.4 7 77.7 12.3 142.2 16.3l-38.2-109.7-174.2 51.7" fill="#E1E4F8"/><g fill="#C6CCF0"><path d="m691.8 519.3l-23.6 7c26.5 14.5 51.3 25.9 93.8 34.7"/><path d="m919.9 764.1c-83.8-15.6-210.1-45-311.7-180.7l10.1 109.6c70.9 51.5 130.7 106.6 291.5 120.8l10.1-49.7z"/></g><path id="Lighter_Shape" d="m919.9 764.1c-129.7-19.6-233.7-78.1-311.7-179.7l-4.1-33.6c88 88.7 184.6 137.1 318.1 147.6l-2.3 65.7z" stroke="#9EA6E6" stroke-miterlimit="25" stroke-width="8" fill="#E1E4F8"/><path stroke="#9EA6E6" stroke-width="8" stroke-miterlimit="25" d="m664.4 524.7c35 25.1 130.3 52 239.8 52.7" fill="none"/><path d="m748.6 770.2s2.3 1.2 6.4 3.3c2.1 1 4.6 2.1 7.5 3.5 1.5 0.6 3 1.3 4.7 2s3.4 1.4 5.2 2.1 3.8 1.4 5.7 2.2c2 0.7 4.1 1.4 6.2 2.1 2.1 0.8 4.3 1.4 6.6 2.1s4.6 1.5 6.9 2.1c2.4 0.7 4.8 1.4 7.2 2s4.9 1.3 7.4 1.9c2.5 0.7 5 1.3 7.6 1.9 2.5 0.6 5.1 1.2 7.7 1.8 2.6 0.5 5.1 1.1 7.7 1.6s5.1 1 7.6 1.5c5.1 1 10.1 1.8 14.9 2.7 4.8 0.8 9.5 1.5 14 2.3 4.5 0.6 8.7 1.2 12.6 1.8 3.9 0.5 7.5 1 10.6 1.4 3.2 0.4 5.9 0.7 8.2 1 4.6 0.5 7.2 0.8 7.2 0.8l-0.9 8s-2.6-0.3-7.2-0.8c-2.3-0.3-5.1-0.6-8.3-1s-6.8-0.9-10.7-1.4c-3.9-0.6-8.2-1.2-12.7-1.8-4.5-0.7-9.2-1.4-14.1-2.3s-10-1.7-15.1-2.8c-2.6-0.5-5.2-1-7.7-1.5-2.6-0.6-5.2-1.1-7.8-1.7-2.6-0.5-5.2-1.2-7.8-1.8s-5.2-1.2-7.7-1.9-5.1-1.3-7.6-2-4.9-1.4-7.3-2.1-4.8-1.5-7.1-2.2-4.6-1.4-6.8-2.2-4.3-1.5-6.4-2.2c-2-0.8-4-1.5-5.9-2.2s-3.7-1.5-5.4-2.2-3.3-1.4-4.9-2c-3.1-1.4-5.8-2.6-7.9-3.7-4.1-2.1-6.4-3.3-6.4-3.3l3.8-7z" fill="#9EA6E6"/><path id="Outline_4_" d="m873.4 917.3c-56.2-25.8-117.7-54.3-131.7-142.3-63.7-35.5-95.1-53.9-142.5-110.6l-19.5-161.4c39 28 100.5 24.5 132 14.5" stroke="#9EA6E6" stroke-miterlimit="25" stroke-width="15" fill="none"/><path d="m683.4 1008.4c-46.7-112-53.7-204.7-67.7-354.3s-36.3-306.5-121.2-395.8c-74.8-78.8-122.8-54.8-38.8 240.2-39-91-138.9-236-215-212-63.3 20 114 291 173 384-69.7-74-136-102-172-76s28.2 140.7 213.6 308c-59.3-13.3-81.9 3.3-67.3 53.3 14.7 50 104.7 108 249.3 153.3" fill="#4F7EAC"/><path d="m683.4 1008.4c-12.3-20.8-22-43.1-30-65.9l-2.9-8.6c-0.9-2.9-1.9-5.7-2.7-8.7l-5-17.5c-1.5-5.9-3.1-11.7-4.5-17.6-1.3-5.9-2.4-11.8-3.7-17.8-4.6-23.7-8.3-47.6-11.4-71.5s-5.6-47.8-7.9-71.7-4.5-47.8-6.8-71.6c-2.2-23.9-4.6-47.6-7.4-71.3s-6.1-47.3-9.9-70.8c-4-23.5-8.5-46.8-14.2-69.9l-2.2-8.6c-0.7-2.9-1.5-5.7-2.3-8.6-1.5-5.7-3.2-11.4-4.9-17.1-0.8-2.8-1.8-5.6-2.6-8.5l-2.7-8.4-2.8-8.4-3-8.3-1.5-4.2-1.6-4.1c-1.1-2.7-2.1-5.5-3.3-8.2l-3.5-8.1c-0.6-1.4-1.2-2.7-1.8-4l-1.9-4c-2.4-5.4-5.1-10.6-7.7-15.8-2.8-5.1-5.5-10.4-8.6-15.4-2.9-5.1-6.1-10-9.3-14.9-3.4-4.8-6.6-9.6-10.2-14.2l-2.6-3.5c-0.9-1.2-1.8-2.3-2.8-3.4-1.9-2.2-3.7-4.5-5.6-6.7l-5.9-6.5-0.7-0.8-0.3-0.4-0.4-0.4-1.6-1.6-1.6-1.6-1.5-1.5c-8.2-8.2-16.9-16.1-26.1-22.3-2.3-1.5-4.7-3-7-4.2-1.2-0.7-2.4-1.2-3.6-1.8-1.2-0.5-2.4-1-3.5-1.4-2.3-0.8-4.6-1.3-6.7-1.4s-3.9 0.2-5.4 0.9c-1.6 0.7-3 1.8-4.3 3.4s-2.5 3.6-3.4 5.9c-0.3 0.5-0.5 1.1-0.7 1.7s-0.5 1.2-0.6 1.8c-0.4 1.3-0.8 2.5-1.1 3.8l-0.5 2-0.4 2c-0.3 1.3-0.4 2.7-0.7 4.1-0.8 5.5-1.1 11.2-1.2 17s0.1 11.6 0.4 17.4c0.7 11.7 2 23.4 3.6 35.1s3.6 23.4 5.9 35.1c4.5 23.4 9.8 46.6 15.5 69.8s12 46.2 18.5 69.2l30.4 107.3-44.5-102.3c-6.1-14.3-13-28.3-20.4-42s-15.3-27.2-23.7-40.4-17.3-26-26.7-38.4-19.4-24.4-30-35.6-21.9-21.8-34.1-30.9c-3-2.3-6.2-4.4-9.3-6.5-3.2-2-6.4-4-9.7-5.7-1.6-0.9-3.3-1.7-5-2.5-1.7-0.7-3.3-1.6-5.1-2.2-3.4-1.4-6.8-2.6-10.3-3.5-3.5-1-7-1.6-10.5-2-1.7-0.2-3.5-0.3-5.2-0.3s-3.5 0-5.2 0.2c-3.4 0.3-6.8 0.9-10.1 1.9l-0.3 0.1h-0.2c0.1 0-0.4 0.1 0.1 0l-0.7 0.2-0.7 0.2c-0.1 0.1-0.2 0.1-0.3 0.2-0.1 0-0.2 0.1-0.3 0.1l-0.4 0.2c-0.3 0.1-0.5 0.3-0.7 0.4-0.9 0.6-1.7 1.3-2.3 2.2-1.3 1.8-2.3 4.5-2.7 7.7-0.2 1.6-0.3 3.2-0.4 4.9 0 1.7 0 3.5 0.2 5.2 0.6 7.1 2.2 14.5 4.2 21.8 4.1 14.7 9.7 29.2 15.9 43.5s13 28.4 20 42.4c14.2 28 29.5 55.5 45.4 82.7s32.3 54.1 48.9 80.9c8.3 13.4 16.8 26.7 25.2 40.1l25.5 40 42.5 66.8-54.3-57.7c-16.8-17.8-34.7-34.4-54.2-48.8-9.7-7.2-19.9-13.7-30.4-19.3-5.3-2.7-10.6-5.3-16.1-7.5-5.5-2.1-11-4-16.6-5.3s-11.3-2.1-16.8-2.2-11 0.6-16 2.2l-1.9 0.6-0.9 0.3-0.9 0.4c-1.2 0.5-2.4 1-3.5 1.7l-1.7 0.9-1.6 1.1-0.8 0.5-0.4 0.3-0.1 0.1c0.5-0.4 0.1-0.1 0.2-0.1l-0.2 0.2-0.9 0.7c-0.1 0.1-0.4 0.3-0.4 0.3l-0.2 0.2-0.4 0.4c-0.1 0.1-0.3 0.4-0.5 0.5-0.2 0.2-0.3 0.4-0.5 0.6l-0.4 0.6c-0.6 0.8-1 1.8-1.5 2.7-0.8 2-1.3 4.3-1.5 6.8-0.4 5 0.3 10.5 1.7 16 1.3 5.5 3.3 11.1 5.5 16.5 4.5 11 10.2 21.6 16.5 32s13.1 20.5 20.2 30.5c7.1 9.9 14.6 19.7 22.3 29.2 15.4 19.1 31.7 37.6 48.5 55.7 16.8 18 34.1 35.6 51.8 52.8s35.8 34.1 54.1 50.6l21.1 19-27.7-6.2c-8.2-1.8-16.5-3.3-24.7-3.9-4.1-0.3-8.1-0.4-12-0.1-3.9 0.2-7.7 0.8-11 1.9-3.4 1.1-6.3 2.6-8.5 4.7-2.3 2-3.8 4.6-4.8 7.7s-1.5 6.7-1.4 10.5c0 3.8 0.5 7.7 1.2 11.7l0.6 3 0.7 3c0.2 1 0.5 2 0.8 3l0.4 1.5 0.2 0.7 0.1 0.2v0.1c0-0.1 0.1 0.4-0.1-0.2l0.1 0.4 1 3.1 0.3 0.8c0.1 0.3 0.2 0.5 0.3 0.7l0.5 1.2 1.1 2.5 1.4 2.6c3.7 7 8.5 13.6 14 19.8s11.6 11.9 18 17.4c6.4 5.4 13.2 10.6 20.1 15.5 1.7 1.2 3.5 2.4 5.3 3.6s3.5 2.4 5.3 3.5l5.4 3.4 5.5 3.3c1.8 1.1 3.7 2.2 5.5 3.3l5.6 3.2 5.6 3.1c1.9 1 3.8 2.1 5.7 3.1l5.7 3 5.7 2.9c3.8 2 7.7 3.8 11.6 5.7s7.8 3.6 11.7 5.5c1.9 0.9 3.9 1.7 5.9 2.6l5.8 2.9c3.9 1.8 7.8 3.7 11.7 5.5l11.8 5.3 23.7 10.7 23.9 10.6c4 1.7 8 3.5 12 5.3 4 1.7 8 3.5 12 5.3-4.3-0.8-8.6-1.7-12.9-2.6s-8.5-1.9-12.8-3c-8.5-2.1-17-4.3-25.4-6.8-4.2-1.2-8.4-2.5-12.6-3.8s-8.3-2.7-12.5-4.1c-4.1-1.4-8.3-3-12.4-4.5l-12.3-4.7-6.1-2.4c-1-0.4-2-0.9-3-1.3s-2-0.9-3-1.4c-4-1.9-8-3.6-12-5.6-4-1.9-7.9-3.8-11.9-5.8l-5.9-3-5.9-3.1c-2-1-3.9-2.1-5.8-3.1l-5.8-3.2-5.7-3.3c-1.9-1.1-3.8-2.2-5.7-3.4l-5.7-3.4-5.6-3.6c-1.9-1.2-3.7-2.4-5.6-3.7-1.8-1.3-3.7-2.5-5.5-3.8-7.3-5.1-14.4-10.5-21.3-16.3s-13.4-12-19.5-18.9c-6.1-6.8-11.6-14.3-16.1-22.8l-1.6-3.2-1.5-3.5-0.7-1.8c-0.1-0.3-0.2-0.6-0.3-0.8l-0.3-0.8-1-3.1-0.1-0.4-0.1-0.4v-0.1l-0.1-0.2-0.2-0.8-0.5-1.7-0.9-3.3-0.8-3.4-0.7-3.4c-0.8-4.6-1.4-9.3-1.5-14.3 0-4.9 0.5-10.1 2.2-15.2s4.6-10.3 8.9-14.1c4.2-3.9 9.2-6.4 14.1-7.9 4.9-1.6 9.8-2.3 14.6-2.6s9.5-0.2 14.1 0.2c9.2 0.7 18.1 2.3 26.8 4.2l-6.7 12.9c-18.5-16.7-36.7-33.6-54.5-51s-35.3-35.1-52.3-53.4-33.5-37-49.2-56.5c-7.8-9.8-15.5-19.7-22.8-29.9s-14.4-20.7-20.9-31.5c-6.5-10.9-12.6-22.1-17.5-34.1-2.5-6-4.6-12.2-6.2-18.7-0.8-3.3-1.4-6.6-1.8-10.1s-0.5-7-0.2-10.7c0.6-7.3 3.2-15.5 9.9-21.6l0.7-0.6c0.2-0.2 0.3-0.3 0.5-0.4l0.9-0.7 0.2-0.2 0.4-0.3 0.1-0.1 0.6-0.4 1.1-0.7 2.3-1.5 2.4-1.3c1.6-0.9 3.2-1.6 4.9-2.3l1.2-0.5 1.3-0.4 2.5-0.9c6.8-2.1 13.8-2.9 20.7-2.8s13.6 1.1 20 2.6c6.5 1.5 12.7 3.6 18.8 6s11.9 5.2 17.6 8.2c11.3 6 22.1 13 32.3 20.5 20.4 15.1 39 32.3 56.2 50.6l-11.8 9.2-25.4-40c-8.5-13.4-16.9-26.7-25.3-40.2-16.7-26.9-33.2-53.9-49.2-81.3-15.9-27.4-31.4-55.1-45.8-83.5-7.2-14.2-14.1-28.6-20.4-43.3-3.2-7.3-6.2-14.8-9-22.3-2.8-7.6-5.4-15.2-7.6-23.1-2.1-7.9-4-16-4.7-24.7-0.2-2.2-0.3-4.4-0.2-6.6 0-2.2 0.2-4.5 0.5-6.9 0.3-2.3 0.9-4.7 1.7-7.2 0.9-2.4 2.1-4.9 3.7-7.2 1.7-2.3 3.8-4.3 6.2-5.9 0.6-0.4 1.2-0.8 1.8-1.1l0.9-0.5 1.1-0.5 1.1-0.4 0.7-0.2 0.7-0.2c0.6-0.2 0.3-0.1 0.5-0.1l0.2-0.1 0.4-0.1c4.3-1.3 8.7-2.1 13.1-2.5 2.2-0.2 4.4-0.2 6.7-0.3 2.2 0.1 4.4 0.2 6.6 0.4 4.4 0.5 8.7 1.3 12.8 2.4 4.2 1.1 8.2 2.5 12.1 4.1 2 0.8 3.9 1.7 5.8 2.5 1.9 0.9 3.8 1.8 5.6 2.8 3.7 1.9 7.2 4.1 10.7 6.3 3.4 2.3 6.9 4.6 10.1 7 13.2 9.8 25 20.9 36.1 32.6s21.3 24.1 31 36.9 18.8 25.9 27.4 39.4 16.7 27.3 24.3 41.3c7.6 14.1 14.7 28.5 21 43.2l-14.1 5c-6.6-23.1-12.9-46.3-18.7-69.7s-11.2-46.9-15.7-70.6c-2.3-11.9-4.3-23.8-6-35.8s-3.1-24.1-3.8-36.4c-0.4-6.1-0.5-12.3-0.5-18.5 0.1-6.2 0.4-12.5 1.3-18.8 0.2-1.6 0.4-3.2 0.8-4.8l0.5-2.4 0.6-2.4c0.8-3.2 1.8-6.5 3.2-9.7s3.2-6.5 5.7-9.5 5.9-5.8 9.8-7.5 8.2-2.3 12.1-2.1 7.5 1.1 10.8 2.2c1.7 0.5 3.2 1.2 4.8 1.9 1.5 0.7 3.1 1.4 4.5 2.2 2.9 1.5 5.7 3.3 8.4 5 10.6 7.2 19.7 15.5 28.5 24.3l1.6 1.7 1.6 1.6 1.6 1.6 0.4 0.4 0.4 0.5 0.8 0.9 6.2 6.9c2 2.3 4 4.7 5.9 7.1 1 1.2 2 2.3 2.9 3.6l2.8 3.7c3.8 4.8 7.2 9.9 10.7 15 3.3 5.2 6.7 10.3 9.7 15.6 3.2 5.2 6 10.7 8.9 16 2.7 5.5 5.6 10.9 8.1 16.5l1.9 4.2c0.7 1.4 1.3 2.8 1.9 4.2l3.6 8.4c1.2 2.8 2.3 5.7 3.4 8.5l1.7 4.2c0.5 1.4 1.1 2.9 1.6 4.3l3.1 8.6 2.9 8.6c1 2.9 1.9 5.8 2.8 8.7l2.7 8.7c1.7 5.8 3.4 11.6 5 17.5 0.8 2.9 1.6 5.8 2.3 8.8l2.2 8.8c5.8 23.5 10.4 47.2 14.4 71 3.9 23.8 7.2 47.7 10 71.5 2.8 23.9 5.2 47.8 7.5 71.7 2.2 23.9 4.4 47.7 6.8 71.5s4.8 47.6 7.9 71.2 6.7 47.2 11.2 70.5l7.2 34.9c1.3 5.8 2.7 11.6 4.1 17.3 0.7 2.9 1.4 5.8 2.2 8.6l2.2 8.6c1.4 5.8 3 11.5 4.5 17.3 0.8 2.9 1.5 5.8 2.3 8.7l2.4 8.6c0.8 2.9 1.6 5.8 2.3 8.7l1.1 4.4 1.2 4.3c1.5 6 3 11.8 4.4 17.7z" fill="#30516F"/><path id="Smaller_Feathers" d="m620 699.9c-11.3-47-26.8-97-62.3-94s-35 125.8-12.3 213.8c-74.7-107.3-119.3-67.3-121.3-36.7s2 112 143.3 202c-77.2-16.2-83.7 42.8-53 76.5" stroke="#30516F" stroke-miterlimit="25" stroke-width="15" fill="none"/><path d="m815.4 997.8c72-64.7 144-248 84.3-435.3l267 360c-33 187-113 312-224 372s-298.5 75-371.5-10.5" fill="#4F7EAC"/><path d="m815.4 997.8c3-3.9 5.9-7.8 8.7-11.7 1.4-2 2.8-3.9 4.1-5.9 1.4-2 2.7-4 4-5.9 5.3-8 10.2-16.1 15.1-24.3 2.4-4.1 4.8-8.2 7-12.4l3.3-6.3c1.1-2.1 2-4.3 3.3-6.3 4.5-8.3 8.7-16.8 12.7-25.5 7.8-17.3 14.5-35.2 20-53.4s10-36.8 13.3-55.5c1.7-9.4 3.1-18.8 4.2-28.3s2-19 2.5-28.5 0.8-19 0.8-28.6c0-9.5-0.3-19-0.9-28.5s-1.5-19-2.6-28.4c-1.1-9.5-2.6-18.9-4.4-28.2-1.8-9.4-3.7-18.7-6.1-27.9-2.3-9.2-4.9-18.4-7.8-27.5l-13.5-42.6 26.6 35.9 267 360 1.9 2.6-0.6 3.2c-1.6 8.7-3.2 17.4-5 26.1s-3.7 17.4-5.8 26c-4.1 17.3-8.8 34.4-14.1 51.4-10.6 33.9-23.7 67.2-40 99-16.3 31.7-35.7 62-58.9 89.4-11.6 13.7-24.1 26.6-37.5 38.6s-27.7 23-42.8 32.7c-15.1 9.8-31 18.4-47.4 25.7s-33.2 13.5-50.4 18.6c-17.1 5.2-34.5 9.3-52.1 12.5s-35.4 5.4-53.2 6.6c-17.9 1.2-35.8 1.2-53.7 0-9-0.6-17.9-1.4-26.8-3.2-8.9-1.6-17.7-3.6-26.3-6.1-17.3-4.9-34.2-12-49.5-21.4-7.7-4.7-14.9-10.1-21.6-16-3.3-3-6.5-6.1-9.5-9.4s-5.8-6.8-8.4-10.3c3.2 3.1 6.4 6.1 9.8 8.8 3.4 2.8 6.9 5.3 10.5 7.8 7.2 4.9 14.8 9.1 22.6 12.7 15.7 7.3 32.3 12.1 49 15.6 8.4 1.7 16.9 3.1 25.4 4.1 8.6 0.8 17.1 1.9 25.7 2.4 17.2 1.2 34.5 1.1 51.7 0 17.3-1.1 34.5-3.3 51.5-6.4s33.9-7.1 50.5-12.1 32.8-10.9 48.6-18c15.8-7 30.9-15.2 45.3-24.6s28.1-19.9 41-31.4 24.9-23.9 36-37.1c22.3-26.3 41.2-55.6 57-86.5s28.6-63.4 39-96.6c5.2-16.6 9.8-33.4 13.8-50.4 2-8.5 3.9-17 5.7-25.5 1.7-8.5 3.4-17.1 4.9-25.7l1.4 5.8-267-360 13.2-6.7c3 9.4 5.6 18.8 8.1 28.4 2.4 9.5 4.5 19.1 6.3 28.8s3.3 19.4 4.5 29.1c1.2 9.8 2.1 19.5 2.7 29.3s0.9 19.6 0.9 29.4-0.3 19.6-0.8 29.4c-0.6 9.8-1.4 19.6-2.6 29.3-1.1 9.8-2.6 19.5-4.3 29.1-3.4 19.3-8 38.5-13.7 57.3s-12.6 37.3-20.7 55.2c-4.1 9-8.4 17.8-13.1 26.5-0.6 1.1-1.2 2.2-1.8 3.2-0.7 1-1.3 2.1-2 3.1-1.3 2.1-2.6 4.2-4 6.2-1.4 2.1-2.7 4.1-4.1 6.2-1.4 2-2.8 4.1-4.3 6.1-5.8 8-12.3 15.5-19.3 22.5l-5.4 5.1c-1.8 1.6-3.7 3.2-5.6 4.8-3.8 3.1-7.8 6-12 8.6z" fill="#30516F"/><polygon id="Filling" points="790.7 1277.9 892.7 1273.1 980.2 1480.4 956.2 1484.8" fill="#4F7EAC"/><path d="m790.7 1277.9c-25 90.5 39 201 174.5 207.5" fill="#4F7EAC"/><path d="m790.7 1277.9s-0.2 1.2-0.5 3.5c-0.2 1.1-0.4 2.5-0.6 4.2-0.1 0.8-0.2 1.7-0.3 2.7-0.1 0.9-0.2 1.9-0.3 3l-0.3 3.3c-0.1 1.2-0.1 2.4-0.2 3.7 0 1.3-0.1 2.6-0.1 4 0 0.7-0.1 1.4-0.1 2.1s0 1.4 0.1 2.2c0.1 2.9 0.1 6 0.4 9.3 0.1 1.6 0.3 3.3 0.4 5 0.2 1.7 0.5 3.4 0.7 5.2 0.4 3.5 1.2 7.2 1.9 10.9 0.2 0.9 0.4 1.9 0.6 2.8s0.5 1.9 0.7 2.9c0.5 1.9 0.9 3.9 1.5 5.8s1.2 3.9 1.7 5.9c0.7 2 1.4 3.9 2.1 5.9 0.4 1 0.7 2 1.1 3l1.2 3 1.2 3 0.6 1.5 0.7 1.5c3.2 8.1 7.3 16.2 12 24 4.7 7.9 10.4 15.3 16.5 22.3l2.3 2.6 1.2 1.3 1.2 1.2 4.9 4.9c1.7 1.6 3.5 3.1 5.2 4.6 1.7 1.6 3.5 3 5.3 4.4l2.7 2.1 1.3 1.1 1.4 1c1.9 1.3 3.7 2.6 5.6 3.9s3.8 2.4 5.7 3.6c0.9 0.6 1.9 1.2 2.8 1.8s1.9 1.1 2.9 1.6c1.9 1.1 3.8 2.1 5.7 3.1s3.9 1.9 5.8 2.8c3.8 1.9 7.7 3.4 11.4 4.9 1.8 0.8 3.7 1.4 5.6 2.1 1.9 0.6 3.7 1.3 5.5 1.9 3.6 1.2 7.2 2.1 10.6 3.1 3.4 0.9 6.7 1.6 9.9 2.3 1.6 0.4 3.1 0.6 4.6 0.9s3 0.5 4.4 0.8c1.4 0.2 2.8 0.5 4.1 0.7s2.6 0.3 3.9 0.5c2.5 0.3 4.7 0.6 6.8 0.8 4.1 0.4 7.4 0.6 9.6 0.7 2.2 0.2 3.4 0.2 3.4 0.2l-0.7 15s-1.3-0.1-3.6-0.3-5.8-0.4-10.2-0.8c-2.2-0.3-4.6-0.6-7.2-0.9-1.3-0.2-2.7-0.3-4.1-0.5s-2.9-0.5-4.4-0.8-3.1-0.5-4.7-0.8-3.3-0.6-4.9-1c-3.4-0.8-6.9-1.6-10.6-2.5-3.6-1.1-7.5-2.1-11.4-3.3-1.9-0.7-3.9-1.4-5.9-2.1s-4-1.4-6-2.2c-4-1.7-8.2-3.3-12.3-5.4-2.1-1-4.2-2-6.2-3-2.1-1.1-4.1-2.3-6.2-3.4-1-0.6-2.1-1.1-3.1-1.8-1-0.6-2-1.3-3.1-1.9-2-1.3-4.1-2.5-6.2-3.9-2-1.4-4-2.8-6-4.3l-1.5-1.1-1.5-1.2c-1-0.8-2-1.6-2.9-2.3-2-1.6-4-3.1-5.8-4.8l-5.7-5.1-5.4-5.4-1.3-1.4-1.3-1.4-2.5-2.9c-6.7-7.6-12.9-15.8-18.1-24.5-0.6-1.1-1.4-2.1-2-3.2l-1.8-3.3c-1.2-2.2-2.4-4.3-3.5-6.6-1.1-2.2-2.1-4.4-3.2-6.6-0.9-2.3-2-4.4-2.7-6.7l-0.6-1.7-0.5-1.7c-0.3-1.1-0.7-2.3-1-3.4s-0.7-2.2-1-3.4c-0.3-1.1-0.5-2.3-0.8-3.4-0.5-2.2-1.1-4.4-1.5-6.6s-0.7-4.4-1.1-6.5-0.6-4.3-0.8-6.4c-0.1-1.1-0.2-2.1-0.3-3.1s-0.2-2.1-0.2-3.1c-0.2-4.1-0.4-8-0.2-11.8 0.1-1.9 0.1-3.7 0.2-5.5s0.3-3.5 0.4-5.3c0.2-3.4 0.8-6.6 1.2-9.6 0.1-0.7 0.2-1.5 0.3-2.2s0.3-1.4 0.4-2.1c0.3-1.4 0.6-2.7 0.8-4 0.3-1.3 0.5-2.5 0.8-3.7s0.6-2.3 0.9-3.3 0.6-2 0.8-3c0.3-0.9 0.5-1.8 0.8-2.6 0.5-1.6 1-2.9 1.4-4 0.8-1.6 1.2-2.8 1.2-2.8z" fill="#30516F"/><path d="m892.7 1273.1c26.3 48.3 64.5 54.3 94.5 58.8s47.9 11.6 75.5 64.5c25.7 49.3 81.2 184.2 44 328-35.6 137.3-88.9 145.9-154.7 59.3-61.2-80.6-62.7-164-30-203.3s43.2-74 38.2-114.5" fill="#4F7EAC"/><path d="m892.7 1273.1s0.7 0.9 2.2 2.6c0.7 0.9 1.6 1.9 2.6 3.2 0.5 0.6 1.1 1.3 1.6 2 0.6 0.7 1.3 1.4 2 2.2 5.4 6.2 14 15.1 26.6 22.9 6.3 3.9 13.6 7.6 22 10.4 1.1 0.4 2.1 0.7 3.2 1.1 1.1 0.3 2.2 0.6 3.3 0.9s2.2 0.6 3.4 0.9 2.3 0.5 3.5 0.8c2.4 0.6 4.9 0.9 7.3 1.4 1.3 0.2 2.5 0.5 3.8 0.7s2.6 0.5 3.9 0.7c2.6 0.4 5.3 0.9 8.1 1.3 3 0.5 5.6 0.9 8.6 1.4 1.5 0.3 3.1 0.6 4.6 0.9 1.5 0.4 3.1 0.7 4.7 1.1 3.1 0.9 6.3 1.8 9.5 3.1 6.4 2.5 12.6 6.1 18.2 10.6 0.7 0.6 1.4 1.1 2.1 1.7s1.4 1.1 2 1.8c1.3 1.2 2.6 2.5 3.8 3.8s2.4 2.7 3.6 4 2.3 2.7 3.4 4.1c4.5 5.6 8.3 11.6 12.2 17.7 1.8 3.1 3.7 6.2 5.5 9.4 1.7 3.2 3.5 6.5 5.2 9.7 6.8 13.1 13.1 27 18.9 41.5 11.6 29.1 21.5 60.7 28.3 94.2s10.6 68.9 9.7 104.9c-0.4 18-2 36.1-4.8 54.1l-1.1 6.8-0.6 3.4c-0.2 1.1-0.4 2.2-0.7 3.4l-1.4 6.7c-0.4 2.2-0.9 4.5-1.5 6.7-1.1 4.4-2.1 8.9-3.3 13.3-1.1 4.3-2.4 8.8-3.6 13.2-5.1 17.5-11 34.9-19 51.6-2 4.2-4.1 8.3-6.4 12.4s-4.8 8.1-7.6 11.9c-5.5 7.7-12 15.1-20.3 20.8-4.2 2.8-8.8 5.2-13.8 6.8-5 1.5-10.3 2.4-15.4 2.2-5.2-0.1-10.2-1.1-14.9-2.6s-9.1-3.5-13.3-5.8c-8.3-4.6-15.5-10.3-22.2-16.3-6.6-6-12.6-12.4-18.3-19-5.6-6.6-10.9-13.3-15.9-20.1-2.5-3.2-4.9-6.9-7.3-10.4-1.2-1.8-2.3-3.5-3.4-5.3s-2.3-3.5-3.3-5.3c-1.1-1.8-2.1-3.6-3.2-5.3l-3-5.4-1.5-2.7-1.4-2.7c-0.9-1.8-1.9-3.6-2.8-5.5-3.6-7.3-6.8-14.7-9.7-22.2-2.8-7.5-5.2-15-7.2-22.5-1.9-7.5-3.5-15-4.6-22.5s-1.7-14.9-1.8-22.3c-0.2-7.3 0.2-14.6 1.1-21.6 1.8-14.1 5.6-27.6 11.9-39.4 0.7-1.5 1.6-2.9 2.4-4.3 0.4-0.7 0.8-1.4 1.3-2.1s0.9-1.4 1.4-2c0.5-0.7 0.9-1.4 1.4-2 0.5-0.7 1-1.3 1.5-1.9s1-1.3 1.5-1.9c0.4-0.6 0.9-1.1 1.3-1.7 1.8-2.3 3.7-4.5 5.3-6.7s3.2-4.3 4.7-6.4c1.5-2.2 2.9-4.3 4.4-6.4 1.4-2.1 2.6-4.3 3.9-6.4 2.5-4.2 4.6-8.4 6.8-12.3 4.3-7.9 7.3-15.7 9.7-22.8 0.6-1.8 1.1-3.5 1.7-5.2 0.5-1.7 0.9-3.4 1.4-5s0.8-3.2 1.1-4.8c0.2-0.8 0.3-1.5 0.5-2.3 0.1-0.4 0.2-0.8 0.3-1.1 0.1-0.4 0.1-0.7 0.2-1.1 1.1-5.9 1.7-11 2.1-15.1 0.2-2.1 0.4-3.9 0.5-5.5s0.2-3 0.2-4.1c0.2-2.2 0.2-3.3 0.2-3.3s0.3 1.1 0.9 3.2c0.3 1.1 0.6 2.4 1 4s0.7 3.5 1.1 5.6c0.5 2.1 0.7 4.5 1 7.2 0.1 0.7 0.2 1.3 0.2 2 0.1 0.7 0.1 1.4 0.1 2.1 0.1 1.5 0.2 3 0.2 4.6 0.1 6.3 0 13.7-1.5 21.8-1.4 8.1-4.1 16.9-7.9 26.1-0.5 1.1-1 2.3-1.5 3.5s-1 2.3-1.7 3.4c-1.3 2.2-2.5 4.6-3.9 6.9s-2.8 4.6-4.3 6.9-3.1 4.6-4.7 6.9c-1.7 2.3-3.4 4.6-5.2 7-1.8 2.3-3.6 4.5-5.4 6.8l-0.7 0.9-0.7 0.9c-0.4 0.5-0.8 1-1.2 1.6-0.4 0.5-0.8 1-1.2 1.6s-0.8 1.1-1.1 1.7c-0.4 0.6-0.8 1.1-1.1 1.7-0.4 0.6-0.7 1.2-1.1 1.8-0.7 1.2-1.4 2.4-2 3.6-2.6 5-4.8 10.4-6.5 16.1-1.7 5.8-2.9 11.8-3.7 18.1s-1.2 12.8-1 19.5c0.1 6.7 0.7 13.5 1.7 20.4s2.5 13.9 4.3 20.9c1.9 7 4.1 14 6.7 21 2.7 7 5.7 13.9 9.1 20.8 0.8 1.7 1.8 3.4 2.6 5.2l1.3 2.6 1.4 2.6c1 1.7 1.9 3.4 2.9 5.1l3 5.1c1 1.7 2.1 3.4 3.1 5 1.1 1.7 2.1 3.4 3.2 5s2.2 3.2 3.4 4.9c0.6 0.8 1.1 1.6 1.7 2.5l1.8 2.5c4.7 6.6 9.8 13 15.2 19.2 5.3 6.2 11 12.2 17 17.7s12.5 10.5 19.3 14.3c6.9 3.8 14.2 6.4 21.3 6.6 3.6 0.1 7.1-0.4 10.5-1.5s6.7-2.8 9.8-4.9c6.3-4.3 11.8-10.4 16.6-17.1 2.4-3.4 4.6-7 6.8-10.7 2.1-3.7 4.1-7.5 5.9-11.4 7.4-15.6 13.2-32.3 18.1-49.3 1.2-4.3 2.4-8.4 3.5-12.8 1.1-4.3 2.1-8.6 3.1-12.8 0.5-2.1 1-4.3 1.4-6.4l1.3-6.5c0.2-1.1 0.5-2.1 0.6-3.2l0.5-3.3 1.1-6.5c2.7-17.3 4.2-34.8 4.6-52.2 0.8-34.7-2.8-69-9.4-101.5s-16.2-63.3-27.5-91.6c-5.7-14.1-11.7-27.6-18.3-40.3-6.5-12.6-13.5-24.5-21.3-34.4-1-1.3-1.9-2.5-3-3.6-1-1.1-2-2.3-3.1-3.4-1.1-1-2.1-2.1-3.2-3.1-0.5-0.5-1.1-1-1.6-1.5l-1.7-1.4c-4.5-3.6-9.2-6.3-14.3-8.3-2.5-1-5.1-1.8-7.8-2.5-1.3-0.3-2.7-0.6-4-1-1.3-0.3-2.7-0.5-4-0.8-2.7-0.5-5.7-1-8.3-1.4-2.8-0.4-5.6-0.9-8.4-1.3-1.4-0.2-2.8-0.5-4.1-0.7-1.4-0.2-2.7-0.4-4.1-0.8-2.7-0.7-5.3-1.3-7.9-2.1-1.3-0.4-2.6-0.8-3.8-1.1-1.3-0.4-2.5-0.9-3.7-1.3s-2.4-0.8-3.6-1.3-2.4-1-3.5-1.4c-9.3-3.8-17.3-8.8-23.7-14.1-1.6-1.4-3.1-2.6-4.6-4-1.4-1.4-2.7-2.8-4-4.1s-2.4-2.7-3.5-4-2.1-2.6-3.1-3.9c-1.8-2.6-3.4-5.1-4.8-7.3-1.4-2.3-2.5-4.5-3.5-6.4-0.5-1-1-1.9-1.4-2.7-0.4-0.9-0.7-1.7-1-2.4-0.6-1.5-1.1-2.8-1.5-3.8-0.1-2.7-0.5-3.8-0.5-3.8z" fill="#30516F"/><path id="Fill_2_" d="m928.1 571.8c17.3 220.7 69.3 383.3 238.7 350.7 146 19.3 314.7-64 342-169 9.3-95 42.7-273-75.3-354.3s-484.8-182.1-505.4 172.6z" fill="#4F7EAC"/><path id="Head_Outline" d="m1441.8 407.6c85.4 58.8 113.4 248.8 57.8 386" stroke="#30516F" stroke-miterlimit="10" stroke-width="15" fill="none"/><path d="m1501.3 512.2s59-22.5 61.2-19.5-57 30.7-57 30.7"/><path d="m1514.9 544.3s56.7-6.5 58.3-2.4c1.7 4.1-56.3 11.7-56.3 11.7"/><path id="Fill_4_" d="m1458.7 753.4c-32-103.7-2-218.3 39-268 45 102.5 31 240 1.8 308.1 0.1 0.1-32.1-16.4-40.8-40.1z" fill="#fff"/><defs><path id="Fill_5_" d="m1458.7 753.4c-32-103.7-2-218.3 39-268 45 102.5 31 240 1.8 308.1 0.1 0.1-32.1-16.4-40.8-40.1z"/></defs><clipPath id="Fill_9_"><use overflow="visible" xlink:href="#Fill_5_"/></clipPath><g clip-path="url(#Fill_9_)"><defs><ellipse id="Gradient_3_" rx="51.3" ry="111.5" transform="matrix(.9993 .036714 -.036714 .9993 24.679 -53.798)" cy="645.1" cx="1477.2"/></defs><clipPath id="Gradient_4_"><use overflow="visible" xlink:href="#Gradient_3_"/></clipPath><linearGradient id="Gradient_5_" y2="756.5" gradientUnits="userSpaceOnUse" x2="1477.2" y1="533.65" x1="1477.2"><stop stop-color="#1B7FA8" offset=".15"/><stop stop-color="#55D3FD" offset=".6"/><stop stop-color="#7BE1FF" offset="1"/></linearGradient><path id="Gradient_2_" d="m1528.4 647c-2.3 61.5-27 110.6-55.3 109.5-28.3-1-49.4-51.8-47.1-113.3s27-110.6 55.3-109.5c28.2 1 49.3 51.7 47.1 113.3z" fill="url(#Gradient_5_)" clip-path="url(#Gradient_4_)"/><polyline id="HL_Light_1_" fill="#D8F5FF" points="1526.6 693.4 1502.1 686.8 1495.7 713.2 1515.4 727.6" clip-path="url(#Gradient_4_)"/><polyline id="HL_Dark_1_" fill="#98E6FF" points="1525.5 672.4 1506.4 669.8 1502.1 691.8 1523.1 697.8" clip-path="url(#Gradient_4_)"/></g><ellipse id="Black_Mid_1_" clip-path="url(#Fill_9_)" rx="38.3" transform="matrix(.9996 .028692 -.028692 .9996 19.396 -41.977)" ry="90.9" cy="654.9" cx="1472.4"/><ellipse id="Smaller_Reflection_1_" clip-path="url(#Fill_9_)" rx="8" transform="matrix(.9395 .3424 -.3424 .9395 323.05 -461.23)" ry="12.4" cy="684.3" cx="1467.7" fill="#fff"/><ellipse id="Bigger_Reflection_1_" clip-path="url(#Fill_9_)" rx="20" transform="matrix(.974 .2268 -.2268 .974 176.68 -315.57)" ry="41.8" cy="611.2" cx="1461.9" fill="#fff"/><path d="m1458.7 753.4s-0.4-1-1.3-2.9c-0.4-0.9-0.9-2.1-1.5-3.5s-1.3-2.9-1.9-4.8c-0.7-1.8-1.4-3.8-2.2-6-0.2-0.5-0.4-1.1-0.6-1.7l-0.6-1.8c-0.4-1.2-0.8-2.4-1.2-3.7s-0.8-2.6-1.2-4-0.8-2.8-1.1-4.3c-0.8-2.9-1.6-6-2.3-9.3-0.3-1.6-0.7-3.3-1.1-5s-0.6-3.4-1-5.2l-0.9-5.4c-0.2-1.8-0.5-3.7-0.7-5.6-1.1-7.6-1.6-15.6-2-23.9-0.1-4.2-0.3-8.4-0.3-12.7 0.1-2.1 0.1-4.3 0.2-6.5s0.2-4.3 0.3-6.5c0.5-8.7 1.3-17.6 2.6-26.4 1.2-8.8 2.8-17.5 4.8-26.1 0.5-2.1 0.9-4.3 1.5-6.4 0.5-2.1 1.1-4.2 1.6-6.3 1.2-4.1 2.3-8.2 3.5-12.2s2.5-7.9 3.8-11.7c0.7-1.9 1.4-3.7 2-5.6 0.3-0.9 0.7-1.8 1-2.7 0.4-0.9 0.7-1.8 1.1-2.7 2.7-7.1 5.7-13.7 8.5-19.8 2.9-6 5.7-11.4 8.4-16.2 1.3-2.4 2.6-4.6 3.8-6.6s2.3-3.9 3.4-5.5 2-3.1 2.8-4.4c0.9-1.3 1.6-2.3 2.2-3.2 1.2-1.7 1.8-2.6 1.8-2.6l7.3 5.2s-0.6 0.9-1.7 2.5c-0.6 0.8-1.3 1.9-2.1 3.1s-1.7 2.6-2.7 4.2-2.1 3.4-3.3 5.3-2.4 4.1-3.7 6.4c-2.6 4.6-5.3 9.8-8.1 15.7-2.7 5.9-5.6 12.2-8.3 19.2-0.3 0.9-0.7 1.7-1 2.6s-0.7 1.8-1 2.7c-0.7 1.8-1.3 3.6-2 5.4-1.2 3.7-2.6 7.4-3.7 11.3-1.2 3.9-2.3 7.8-3.4 11.8-0.5 2-1 4.1-1.5 6.1s-1 4.1-1.5 6.2c-1.9 8.3-3.4 16.8-4.6 25.3-1.3 8.5-2 17.1-2.6 25.6l-0.3 6.3c-0.1 2.1-0.1 4.2-0.1 6.3-0.2 4.2-0.2 8.3-0.2 12.3 0.1 8.1 0.4 15.9 1 23.3 0.2 1.9 0.3 3.7 0.4 5.5 0.2 1.8 0.4 3.6 0.6 5.3s0.3 3.5 0.6 5.1c0.2 1.7 0.5 3.3 0.7 4.9s0.4 3.2 0.6 4.7 0.5 3 0.7 4.5 0.4 2.9 0.7 4.3 0.5 2.7 0.7 4c0.9 5.2 1.9 9.7 2.6 13.5s1.5 6.7 1.9 8.7c0.4 2.9 0.6 3.9 0.6 3.9z"/><path id="Update_if_Line_is_modified" d="m1499.4 488l-7.3-5.2s34.8-40.1 38.2-36.8c3.3 3.3-30.9 42-30.9 42z"/><path d="m1102.7 907.8c77 40.9 247 82.2 371 9.7 70.7-41.3 92-104.3 45.7-117-44.5-12.3-54.5-32.8-60.7-47" fill="#4F7EAC"/><path d="m1102.7 907.8s0.6 0.2 1.6 0.7c1.1 0.5 2.7 1.1 4.8 2 4.2 1.8 10.4 4.2 18.4 7.1s17.8 6.1 29.1 9.4 24.2 6.7 38.3 9.8 29.5 5.9 45.9 8.2c16.4 2.2 33.7 4 51.7 4.4 2.2 0.1 4.5 0.1 6.8 0.1h6.8c4.6 0 9.1 0 13.8-0.1 9.2-0.2 18.6-0.6 27.9-1.5 18.7-1.7 37.6-4.9 55.9-9.8 18.4-4.9 36.2-11.7 52.8-20.1s32-18.5 45.1-30.1c6.5-5.8 12.5-12 17.6-18.5s9.5-13.3 12.5-20.3c3.1-6.9 4.8-14 4.5-20.3s-2.6-11.4-6.7-15c-2-1.8-4.4-3.3-7-4.4-1.3-0.6-2.7-1.1-4-1.5-1.6-0.5-3.2-0.9-4.7-1.4-6.8-2-12.9-4.3-18.8-6.8-2.8-1.5-5.5-3-8-4.7-2.5-1.6-4.9-3.3-7-5-4.4-3.5-7.9-7.2-10.7-10.9s-4.8-7.3-6.2-10.5c-1.5-3.2-2.4-6-3-8.3s-1-4-1.3-5.2l-0.3-1.8s0.4 0.5 1.1 1.5c0.7 1 1.8 2.4 3.2 4.2 2.8 3.6 7 8.7 13.3 13.5 3.2 2.4 6.8 4.8 11 7.1 4.1 2.3 8.8 4.5 14.1 6.4 5 2.3 10.7 4.4 16.8 6.1 1.6 0.5 3.3 1 5 1.5 1.9 0.6 3.8 1.3 5.7 2.1 3.8 1.7 7.6 3.9 11 7 1.7 1.6 3.3 3.3 4.7 5.2s2.6 4 3.6 6.2c2 4.4 3 9.2 3.2 14 0.2 4.7-0.3 9.4-1.4 13.9-1 4.5-2.6 8.9-4.4 13.1-3.7 8.4-8.7 16.2-14.5 23.5s-12.3 14.1-19.4 20.4c-14.2 12.7-30.7 23.4-48.3 32.3s-36.4 16-55.7 21.2-39 8.5-58.5 10.3c-9.7 0.9-19.4 1.4-29 1.6-2.4 0-4.8 0.1-7.2 0.1s-4.7 0-7.1-0.1-4.7-0.2-7-0.3-4.7-0.2-7-0.4c-18.5-1.2-36.3-3.4-53-6.4s-32.3-6.7-46.5-10.9-26.9-8.6-38.1-13.1c-11.1-4.4-20.6-8.8-28.3-12.6-7.7-3.9-13.5-7.2-17.5-9.5l-4.5-2.7c-0.6-0.4-1.1-0.7-1.1-0.7z" fill="#30516F"/><path d="m1467.7 926.6s-1.5-0.5-4-1.5c-1.3-0.5-2.8-1-4.7-1.9-1.9-0.8-4-1.7-6.2-2.8-1.1-0.6-2.3-1.2-3.4-1.8-0.6-0.3-1.2-0.6-1.8-1s-1.2-0.7-1.8-1.1c-1.2-0.8-2.5-1.5-3.8-2.4s-2.5-1.8-3.8-2.8c-0.6-0.5-1.3-0.9-1.9-1.5-0.6-0.5-1.2-1.1-1.8-1.6-1.2-1.1-2.5-2.2-3.6-3.5-0.6-0.6-1.1-1.3-1.7-1.9s-1.2-1.2-1.6-1.9c-1-1.4-2-2.8-3-4.1-0.9-1.5-1.7-3-2.6-4.4-0.4-0.7-0.8-1.5-1.1-2.3s-0.7-1.5-1-2.3-0.7-1.5-0.9-2.3c-0.3-0.8-0.5-1.5-0.8-2.3-0.5-1.5-1-3-1.3-4.5s-0.7-3-1-4.4c-0.2-1.4-0.4-2.9-0.6-4.2-0.1-0.7-0.2-1.4-0.3-2 0-0.7-0.1-1.3-0.1-2-0.1-1.3-0.2-2.5-0.2-3.7-0.1-2.4 0-4.6 0-6.5s0.1-3.6 0.2-5c0.2-2.7 0.3-4.3 0.3-4.3s0.3 1.5 0.8 4.2c0.3 1.3 0.5 3 1 4.8 0.2 0.9 0.4 1.9 0.7 2.9 0.2 1 0.4 2.1 0.8 3.2 0.3 1.1 0.6 2.3 1 3.4 0.2 0.6 0.3 1.2 0.5 1.8l0.6 1.8c0.4 1.2 0.9 2.5 1.3 3.8 0.5 1.2 1.1 2.5 1.6 3.8s1.2 2.5 1.9 3.8c0.7 1.2 1.3 2.5 2.1 3.7l1.2 1.8c0.4 0.6 0.8 1.2 1.2 1.7l2.7 3.3c1 1 2 2 2.9 3 0.5 0.5 1 0.9 1.6 1.4 0.5 0.4 1.1 0.9 1.6 1.3 1 0.9 2.2 1.7 3.3 2.4 0.6 0.4 1.1 0.8 1.6 1.2s1.2 0.7 1.7 1c1.1 0.7 2.3 1.3 3.4 2 1.2 0.6 2.3 1.1 3.4 1.7 0.6 0.3 1.1 0.5 1.6 0.8 0.6 0.2 1.1 0.5 1.7 0.7 1.1 0.5 2.1 0.9 3.1 1.3 1 0.5 2 0.7 2.9 1.1 0.9 0.3 1.8 0.7 2.6 1 1.6 0.6 3.3 1.1 4.5 1.5 2.6 0.9 4.1 1.3 4.1 1.3l-4.9 14.3z" fill="#30516F"/><path id="Nostril" d="m1458.7 819.9c-6.2 22-0.3 48.1 27.2 20.3-11.7 1.1-26.3 4.7-27.2-20.3z" fill="#30516F"/><path d="m1075.9 641.3s-62.4-11.6-61.7-18.5 62.9 4.9 62.9 4.9"/><path d="m1078.4 594.3s-66.8-31.3-63.5-36.6c3.3-5.4 67.3 23.8 67.3 23.8"/><path d="m1102 550.3s-41.5-46.1-36.8-49.6 46.4 40.9 46.4 40.9"/><ellipse id="Fill" rx="121.2" transform="matrix(.8697 -.4935 .4935 .8697 -180.92 685.3)" ry="166.8" cy="685.4" cx="1207.7" fill="#fff"/><defs><ellipse id="Fill_3_" rx="121.2" ry="166.8" transform="matrix(.8697 -.4935 .4935 .8697 -180.92 685.3)" cy="685.4" cx="1207.7"/></defs><clipPath id="Fill_10_"><use overflow="visible" xlink:href="#Fill_3_"/></clipPath><g clip-path="url(#Fill_10_)"><defs><ellipse id="Gradient_1_" rx="101.8" ry="122.5" transform="matrix(.9356 -.3532 .3532 .9356 -160.08 481.58)" cy="679.5" cx="1239.7"/></defs><clipPath id="Gradient_6_"><use overflow="visible" xlink:href="#Gradient_1_"/></clipPath><linearGradient id="Gradient_7_" y2="789.45" gradientUnits="userSpaceOnUse" x2="1196" gradientTransform="matrix(.9993 -.3772 .3594 .9522 -239.19 499.49)" y1="567.81" x1="1275.7"><stop stop-color="#1B7FA8" offset=".15"/><stop stop-color="#55D3FD" offset=".6"/><stop stop-color="#7BE1FF" offset="1"/></linearGradient><path id="Gradient" d="m1335 643.5c23.9 63.3 0.6 130.7-52 150.5s-114.6-15.3-138.5-78.6-0.6-130.7 52-150.5c52.6-19.8 114.6 15.4 138.5 78.6z" fill="url(#Gradient_7_)" clip-path="url(#Gradient_6_)"/><polyline id="HL_Light" fill="#D8F5FF" points="1140.2 729.4 1195.7 715.9 1205.2 735.9 1159.7 771.8" clip-path="url(#Gradient_6_)"/><polyline id="HL_Dark" fill="#98E6FF" points="1128.7 700.9 1190.2 700.9 1196.2 718.4 1142.2 736.4" clip-path="url(#Gradient_6_)"/></g><ellipse id="Black_Mid" clip-path="url(#Fill_10_)" rx="69.8" transform="matrix(.9871 -.1599 .1599 .9871 -92.791 209.07)" ry="99.9" cy="681.2" cx="1252.9"/><ellipse id="Smaller_Reflection" clip-path="url(#Fill_10_)" rx="12.3" transform="matrix(.5855 .8107 -.8107 .5855 1091.5 -726.31)" ry="17.1" cy="704.2" cx="1256" fill="#fff"/><ellipse id="Bigger_Reflection" clip-path="url(#Fill_10_)" rx="38.6" transform="matrix(.9463 .3232 -.3232 .9463 269.22 -357.54)" ry="53.5" cy="631.9" cx="1211.3" fill="#fff"/><path d="m1073.9 645.4s-0.1-0.5-0.3-1.4c-0.2-1-0.5-2.4-0.8-4.2-0.2-0.9-0.4-2-0.6-3.1-0.2-1.2-0.3-2.4-0.5-3.8-0.1-1.4-0.3-2.9-0.5-4.5-0.1-1.6-0.2-3.3-0.3-5-0.1-1.8-0.2-3.7-0.1-5.7s0.1-4.1 0.2-6.2c0.2-2.2 0.4-4.4 0.6-6.8 0.1-0.6 0.1-1.2 0.2-1.8l0.3-1.8c0.2-1.2 0.4-2.5 0.6-3.7 0.3-2.5 1-5.1 1.7-7.8 0.6-2.7 1.5-5.3 2.4-8.1 1.9-5.5 4.5-11.1 7.7-16.8 0.8-1.4 1.7-2.8 2.6-4.2 0.4-0.7 0.9-1.4 1.3-2.1l0.7-1.1 0.7-1c2-2.8 4-5.7 6.4-8.3 4.9-5.2 10.7-9.9 17-14.3 1.6-1 3.3-2 4.9-3.1l0.6-0.4 0.3-0.2 0.2-0.1c-0.3 0.1 0.5-0.3 0.5-0.3l1.1-0.6c0.8-0.4 1.5-0.8 2.3-1.2l1.2-0.6 0.6-0.3 0.6-0.3c1-0.4 1.9-0.9 2.9-1.3s1.9-0.8 2.9-1.3c0.5-0.2 1-0.4 1.4-0.6l1.4-0.5c7.5-2.8 15.5-4.8 23.7-5.7 16.4-2 33.5-0.3 49.6 4.7 8 2.5 15.9 5.6 23.4 9.3 1.9 1 3.8 1.8 5.6 2.9l5.5 3.1 5.4 3.3c0.9 0.5 1.8 1.1 2.6 1.7l2.6 1.7c6.9 4.7 13.5 9.7 19.7 15.2s12.1 11.1 17.5 17.2c1.4 1.5 2.7 3 4 4.6 1.3 1.5 2.6 3 3.9 4.6 2.5 3.2 5 6.3 7.2 9.5 4.7 6.4 8.9 12.9 12.7 19.6 0.9 1.7 1.8 3.3 2.8 5l0.7 1.2 0.2 0.3 0.1 0.2 0.2 0.3 0.3 0.6 1.2 2.4 2.4 4.8 0.6 1.2 0.6 1.3c0.4 0.9 0.8 1.7 1.1 2.6 0.8 1.7 1.5 3.4 2.3 5.1 0.4 0.8 0.7 1.7 1.1 2.5 0.3 0.8 0.7 1.7 1 2.5 0.7 1.7 1.3 3.3 1.9 5 0.7 1.6 1.2 3.3 1.7 5 0.6 1.7 1.1 3.3 1.7 4.9s1 3.3 1.4 4.9c0.9 3.3 1.8 6.5 2.5 9.7 1.5 6.4 2.6 12.7 3.4 18.7 0.3 3 0.7 6 0.9 8.9s0.4 5.7 0.5 8.5v8.1c0 1.3 0 2.6-0.1 3.9s-0.1 2.5-0.2 3.7c-0.7 9.8-2 18.3-3.8 25.1-0.4 1.7-0.8 3.3-1.2 4.8-0.5 1.5-0.9 2.9-1.3 4.2s-0.8 2.5-1.2 3.6-0.8 2-1.1 2.9c-1.4 3.4-2.2 5.3-2.2 5.3s0.5-1.9 1.5-5.4c0.2-0.9 0.5-1.9 0.8-3 0.2-1.1 0.5-2.3 0.8-3.6s0.6-2.7 0.9-4.2c0.2-1.5 0.5-3.1 0.7-4.8 0.6-3.4 0.9-7.2 1.3-11.3 0.1-1 0.1-2.1 0.2-3.2 0-1.1 0.1-2.2 0.1-3.3s0.1-2.3 0.1-3.4v-3.5c0-1.2 0-2.4-0.1-3.6 0-1.2 0-2.5-0.1-3.8-0.2-2.5-0.3-5.1-0.5-7.8-0.3-2.7-0.6-5.4-1-8.2s-0.9-5.6-1.4-8.5c-2.1-11.6-5.5-23.9-10.2-36.6-4.7-12.6-11-25.5-18.6-38.1-0.9-1.6-2-3.1-2.9-4.7-1-1.6-2-3.1-3.1-4.7-2.1-3.1-4.2-6.2-6.6-9.2-2.2-3.1-4.7-6-7.1-9-1.2-1.5-2.5-2.9-3.8-4.4s-2.5-2.9-3.9-4.3c-10.5-11.3-22.5-21.7-35.6-30.3-1.7-1-3.3-2.2-5-3.2l-5.1-3-5.2-2.8c-1.7-0.9-3.5-1.7-5.3-2.6-7.1-3.3-14.4-6.1-21.8-8.3-14.8-4.3-30.3-5.8-44.9-4-14.6 1.7-28.2 7-39.5 14.5-5.5 3.8-10.7 7.9-15 12.6-2.3 2.2-4.2 4.7-6.2 7l-0.7 0.9-0.7 0.9c-0.4 0.6-0.9 1.2-1.3 1.8-0.9 1.2-1.8 2.4-2.6 3.7-6.4 9.9-10.6 20-13.4 29.1-0.3 1.1-0.7 2.3-1 3.4-0.2 0.6-0.3 1.1-0.5 1.7-0.1 0.6-0.3 1.1-0.4 1.6-0.5 2.2-1 4.3-1.4 6.3-0.7 4.1-1.4 7.8-1.8 11.2-0.2 1.7-0.4 3.3-0.6 4.8-0.1 1.5-0.2 3-0.3 4.3s-0.2 2.6-0.2 3.7c0 1.1 0 2.2-0.1 3.1 0.5 3.9 0.4 5.8 0.4 5.8z"/><defs><path id="Dark_Fill_1_" d="m1491.2 117.2c4.7 55.6 8.9 138-16.7 201.6 4.7-59.8 3.7-183.5-127.8-267-140.7-89.3-308.9-20.9-373 9.7-84 40-169 116.5-293 138 16.5 13 66.7 28.8 144.3 21-94 37.9-197 37.8-287.1 6.9 29.8 52.2 61.3 77.2 141.8 118.2-26-1.5-68.7-12-95.3-25.7 14.3 29.9 33.3 57.2 66.8 76.4-16.3-0.3-52.5-11.5-72-31 17.8 61.2 44.7 126.8 161.2 182.7l311.6-168.6c61-32.1 139.2-33.5 211.3-7 48.4 17.8 94.1 48.3 130 90.6 114.9-76.1 184.9-212.8 97.9-345.8z"/></defs><clipPath id="Dark_Fill_2_"><use overflow="visible" xlink:href="#Dark_Fill_1_"/></clipPath><path id="Dark" d="m1491.2 117.2c4.7 55.6 8.9 138-16.7 201.6 4.7-59.8 3.7-183.5-127.8-267-140.7-89.3-308.9-20.9-373 9.7-84 40-169 116.5-293 138 16.5 13 66.7 28.8 144.3 21-94 37.9-197 37.8-287.1 6.9 29.8 52.2 61.3 77.2 141.8 118.2-26-1.5-68.7-12-95.3-25.7 14.3 29.9 33.3 57.2 66.8 76.4-16.3-0.3-52.5-11.5-72-31 17.8 61.2 44.7 126.8 161.2 182.7l311.6-168.6c61-32.1 139.2-33.5 211.3-7 48.4 17.8 94.1 48.3 130 90.6 114.9-76.1 184.9-212.8 97.9-345.8z" fill="#E1E4F8" clip-path="url(#Dark_Fill_2_)"/><path id="Light_2_" d="m605.7 432.1c83.5 63.3 185 33.8 260.6-24.4l173.1-105.4c171.4-84.6 298.7 38.1 354 160.8 14-96 25.3-221.3-55.3-316.7s-178-84.7-265.3-66c-87.4 18.7-166.1 83.4-328.8 139.6 0 0-374-88.1-138.3 212.1z" fill="#fff" clip-path="url(#Dark_Fill_2_)"/><path id="Line" d="m744 220c162.7-56.2 241.4-120.9 328.7-139.5 87.3-18.7 184.7-29.3 265.3 66s69.3 220.7 55.3 316.7c-55.3-122.7-182.7-245.3-354-160.8l-173 105.4c-75.5 58.2-177 87.7-260.6 24.4" stroke="#9EA6E6" stroke-miterlimit="1" stroke-width="8" fill="none"/><path d="m1466.1 329.6c1-10.7 1.8-21.3 2.1-31.9s0.2-21.2-0.5-31.8c-1.3-21.1-4.8-42.1-10.9-62.2-6-20.2-14.5-39.6-25.4-57.5-5.4-9-11.5-17.6-18.1-25.8s-13.7-16-21.2-23.4c-7.6-7.4-15.5-14.3-23.9-20.8-2.1-1.7-4.2-3.2-6.3-4.8s-4.3-3.1-6.4-4.6l-6.6-4.5-6.6-4.3c-2.3-1.4-4.6-2.9-6.9-4.2s-4.5-2.6-6.8-3.9c-4.6-2.5-9.3-5-14.1-7.2-9.5-4.6-19.3-8.5-29.3-12-19.9-6.9-40.7-11.3-61.7-13.6s-42.3-2.5-63.5-0.9-42.3 4.9-63.1 9.7c-20.8 4.7-41.3 10.8-61.5 18-10.1 3.6-20 7.5-29.9 11.6-4.9 2.1-9.8 4.2-14.7 6.4l-7.3 3.3-3.6 1.7-3.6 1.7-7.3 3.6-7.1 3.6c-4.7 2.5-9.4 5-14.1 7.6-9.4 5.2-18.6 10.7-27.9 16.2-18.5 11.1-36.9 22.6-55.7 33.7-18.7 11.1-37.8 21.8-57.5 31.5s-39.9 18.4-60.8 25.5c-10.4 3.6-21 6.7-31.7 9.5s-21.5 5-32.4 7l3.4-13.3c2.1 1.6 4.6 3.2 7.3 4.6s5.5 2.6 8.4 3.8 5.9 2.2 8.9 3.2c3 0.9 6.1 1.8 9.2 2.6 1.5 0.4 3.1 0.8 4.7 1.1 1.6 0.4 3.1 0.7 4.7 1 3.2 0.6 6.3 1.2 9.5 1.7s6.4 1 9.6 1.3c1.6 0.2 3.2 0.4 4.8 0.5 1.6 0.2 3.2 0.3 4.9 0.5 3.2 0.3 6.5 0.5 9.7 0.7 3.3 0.1 6.5 0.3 9.8 0.4 1.6 0.1 3.3 0.1 4.9 0.1h4.9c3.3 0 6.5-0.1 9.8-0.2s6.5-0.3 9.8-0.4c3.3-0.2 6.5-0.4 9.8-0.7 3.3-0.2 6.5-0.6 9.8-0.9s6.5-0.7 9.8-1.1l0.9 7.4c-3.2 0.9-6.5 1.9-9.8 2.7-3.3 0.9-6.6 1.7-9.9 2.4-3.3 0.8-6.6 1.5-10 2.2-3.3 0.7-6.7 1.4-10.1 1.9-3.4 0.6-6.8 1.3-10.2 1.6-3.4-0.1-6.8 0-10.2-0.1s-6.8-0.2-10.2-0.4-6.8-0.4-10.2-0.7c-1.7-0.1-3.4-0.3-5.1-0.5s-3.4-0.3-5.1-0.6c-3.4-0.4-6.8-0.9-10.2-1.4s-6.8-1.1-10.2-1.8c-1.7-0.3-3.4-0.7-5.1-1.1s-3.4-0.8-5-1.2c-3.4-0.8-6.7-1.8-10-2.8-3.3-1.1-6.7-2.2-9.9-3.5-3.3-1.3-6.6-2.7-9.8-4.5-3.2-1.7-6.5-3.6-9.6-6.1l-12.8-10 16.4-3.1c10.5-1.9 20.9-4.1 31.2-6.8s20.5-5.7 30.6-9.2c20.2-6.9 39.8-15.3 59-24.8s37.9-20 56.5-30.9c18.6-11 36.9-22.4 55.6-33.6 9.3-5.6 18.7-11.1 28.3-16.5 4.8-2.7 9.6-5.3 14.5-7.8l7.4-3.8 7.3-3.6 3.8-1.8 3.7-1.7 7.5-3.4c5-2.2 10-4.4 15.1-6.5 10.1-4.2 20.3-8.2 30.7-11.9 20.7-7.4 41.8-13.7 63.2-18.6 21.5-4.9 43.3-8.3 65.3-10s44.2-1.5 66.3 0.9c22 2.5 43.9 7.1 65 14.3 10.5 3.6 20.8 7.8 30.9 12.6 5 2.4 10 5 14.8 7.6 2.4 1.3 4.9 2.8 7.3 4.2s4.6 2.8 7 4.3l7 4.6 6.9 4.7c2.2 1.6 4.5 3.2 6.7 4.9s4.5 3.3 6.6 5c8.7 6.8 17.1 14.1 25.1 21.9s15.4 16.1 22.4 24.7c6.9 8.7 13.4 17.8 19.2 27.4 11.6 19.1 20.7 39.7 27 61 6.4 21.4 10 43.4 11.5 65.6 0.7 11.1 0.9 22.1 0.5 33.2l-0.1 4.1v0.5c0 0.2-0.1 0.3-0.1 0.5l-0.3 1-0.6 2-2.7 8.1c-1.8 5.4-3.8 10.6-5.7 15.9l-7.7-0.6z" fill="#9EA6E6"/><path d="m1048.7 372.8l5.3-2.7c1.9-0.9 3.8-1.8 5.6-2.6 3.7-1.7 7.5-3.3 11.3-4.7 7.6-3 15.3-5.5 23.2-7.6 15.7-4.3 31.8-6.9 47.9-8 16.2-1.1 32.4-0.8 48.5 0.8s32 4.6 47.6 8.7c15.6 4.2 30.8 9.5 45.6 16s29.1 14 42.7 22.6 26.6 18.2 38.8 28.8 23.6 22 34 34.3l-9.9-1.4c13.7-9.1 26.8-19.1 39.2-30 12.3-10.9 23.9-22.6 34.4-35.2s20.1-25.9 28.3-40.1c8.2-14.1 15.1-29 20.3-44.4s8.7-31.3 10.3-47.5c1.6-16.1 1.2-32.4-1.3-48.4-2.4-16-6.8-31.7-12.9-46.8s-13.8-29.5-22.7-43.2l13.8-4.7c1.8 21.7 3.2 43.5 3.5 65.4 0.1 11 0 21.9-0.4 32.9-0.2 5.5-0.6 11-1 16.5-0.2 2.7-0.4 5.5-0.7 8.2s-0.5 5.5-1 8.2c-0.8 5.5-1.7 10.9-2.8 16.3-1 5.4-2.2 10.8-3.5 16.2-1.4 5.4-2.8 10.7-4.5 16s-3.6 10.5-5.8 15.6c-4.3 10.2-9.4 20.1-15.5 29.4-3 4.6-6.3 9-9.9 13.3-3.6 4.2-7.3 8.2-11.4 11.8 3.2-4.4 6.2-8.9 8.8-13.6 2.7-4.6 5.2-9.4 7.4-14.3 4.5-9.7 8.1-19.7 11.1-29.9 1.5-5.1 2.8-10.2 4-15.4s2.3-10.4 3.2-15.6 1.8-10.5 2.5-15.7c0.7-5.3 1.2-10.6 1.7-15.9 0.2-2.7 0.5-5.3 0.8-7.9s0.5-5.3 0.7-8c0.4-5.3 0.7-10.6 1-16 0.5-10.7 0.6-21.4 0.4-32.1-0.3-21.4-1.6-42.9-3.4-64.4l-2.4-29.6 16.2 24.9c9.4 14.4 17.6 29.8 24.1 45.9s11.2 33 13.8 50.2 3 34.8 1.4 52.1c-1.7 17.3-5.4 34.4-11 50.8s-12.9 32.2-21.6 47.1-18.7 29-29.8 42.2-23.1 25.4-36 36.8c-12.9 11.3-26.5 21.8-40.8 31.2l-5.5 3.7-4.3-5.1c-9.9-11.7-20.8-22.6-32.4-32.7s-24-19.2-37-27.4-26.6-15.4-40.7-21.6-28.6-11.3-43.5-15.2c-14.8-4-30-6.8-45.2-8.3-15.3-1.6-30.6-1.8-45.9-0.8-15.2 1.1-30.4 3.6-45.1 7.6-7.3 2-14.6 4.4-21.7 7.1-3.5 1.4-7 2.9-10.5 4.4l-5.1 2.4-5.2 2.7-7-13.3z" fill="#9EA6E6"/><path d="m1135.4 138.8c-6.4-0.6-12.9-1.1-19.4-1.5s-12.9-0.8-19.4-1c-12.9-0.4-25.8-0.1-38.6 0.8-12.8 1-25.6 2.8-38.1 5.3-12.6 2.6-25 6-37.2 9.9s-24.2 8.5-36 13.6c-11.8 5-23.4 10.5-34.9 16.3-11.4 5.8-22.8 11.9-33.9 18.4l-8.5 4.8-4.2 2.4c-1.4 0.8-2.9 1.5-4.4 2.3-5.8 3.1-11.7 6-17.7 8.8-11.9 5.6-24.1 10.5-36.5 14.9-12.4 4.3-25 8.1-37.8 11.2-12.8 3.2-25.7 5.6-38.7 7.5s-26.1 3.1-39.3 3.8c-13.1 0.7-26.3 0.7-39.5 0.1s-26.3-1.8-39.3-3.6c-1.6-0.2-3.3-0.4-4.9-0.7l-4.9-0.8-4.9-0.8-4.9-0.9c-3.2-0.6-6.5-1.2-9.7-2-3.2-0.7-6.4-1.4-9.6-2.2-12.8-3.1-25.5-6.8-37.9-11l8.9-10.8c2.1 3.7 4.3 7.3 6.6 10.9 1.1 1.8 2.3 3.6 3.5 5.3 1.2 1.8 2.4 3.5 3.6 5.2s2.5 3.4 3.8 5.1 2.6 3.3 3.9 5c2.7 3.3 5.4 6.5 8.3 9.6l2.1 2.3 2.2 2.3c1.4 1.5 3 3 4.5 4.5s3.1 2.9 4.6 4.4l4.7 4.2c1.6 1.4 3.2 2.8 4.9 4.1s3.3 2.7 5 4c3.4 2.6 6.8 5.2 10.2 7.6 6.9 4.9 14.1 9.6 21.5 14 1.8 1.1 3.7 2.2 5.5 3.3l5.6 3.2 5.7 3.1 5.7 3c1.9 1 3.8 2 5.8 2.9 1.9 1 3.8 1.9 5.8 2.9 3.9 1.9 7.8 3.7 11.7 5.6 3.9 1.8 7.9 3.6 11.8 5.4s7.9 3.5 11.9 5.2l48.1 20.8-52-6.5c-2.6-0.3-5.3-0.7-7.8-1.1-2.6-0.4-5.1-0.9-7.7-1.4-5.1-1-10.1-2.1-15.1-3.2-10-2.3-19.9-4.9-29.7-7.7s-19.6-5.8-29.3-9.2c-4.9-1.7-9.7-3.5-14.5-5.4l-7.2-3c-2.4-1.1-4.8-2.2-7.2-3.4l10.2-9.9c1 2.1 2 4.1 3.1 6.2 1.1 2 2.2 4.1 3.3 6 1.1 2 2.3 4 3.5 5.9s2.5 3.8 3.8 5.7 2.6 3.7 4 5.6l4.2 5.4c2.9 3.5 5.9 6.9 9.1 10.2s6.5 6.4 10 9.4c1.7 1.5 3.5 2.9 5.3 4.4 1.8 1.4 3.6 2.8 5.5 4.1l2.8 2 2.8 1.9c1.9 1.3 3.8 2.5 5.8 3.7l3 1.8c1 0.6 2 1.2 3 1.7 2 1.1 4 2.2 6.1 3.3l25.1 13.4-28.3 0.8c-2.2 0.1-4.4 0.1-6.6-0.1-1.1-0.1-2.1-0.1-3.2-0.3-1.1-0.1-2.1-0.2-3.1-0.4-4.2-0.6-8.2-1.4-12.2-2.4s-7.9-2.2-11.7-3.5l-5.7-2.1c-1.9-0.7-3.8-1.5-5.6-2.3-3.7-1.6-7.4-3.3-11-5.2-1.8-0.9-3.6-1.9-5.3-2.9-1.8-1-3.5-2-5.2-3.1-3.5-2.2-6.9-4.5-10.1-7-1.6-1.3-3.3-2.6-4.9-3.9-1.6-1.4-3.1-2.8-4.7-4.3l12.5-7.4c1.7 5.6 3.3 11.2 5.1 16.7s3.7 11 5.8 16.4c2 5.4 4.3 10.7 6.6 15.9 2.4 5.2 4.9 10.4 7.7 15.4 2.7 5 5.7 9.9 8.8 14.7 1.6 2.4 3.2 4.7 4.8 7.1 1.7 2.3 3.3 4.6 5.1 6.9 1.8 2.2 3.5 4.5 5.4 6.7s3.7 4.4 5.6 6.5l2.9 3.2c1 1.1 2 2.1 3 3.1l3 3.1c1 1 2.1 2 3.1 3l3.1 3c1 1 2.1 1.9 3.2 2.9 2.2 1.9 4.3 3.8 6.5 5.6s4.4 3.7 6.7 5.4c2.2 1.8 4.4 3.7 6.7 5.5l6.9 5.3 7.1 5.1c2.4 1.7 4.8 3.2 7.2 4.9s4.9 3.2 7.3 4.8l3.7 2.4c1.2 0.8 2.4 1.6 3.7 2.3 2.5 1.5 5 3.1 7.4 4.7l7.5 4.6 3.8 2.3 3.8 2.2 7.6 4.5c2.5 1.5 5.1 3 7.6 4.5 5.1 3.1 10.2 6 15.3 9.2-2.9-0.7-5.8-1.5-8.7-2.3-1.4-0.4-2.9-0.8-4.3-1.2s-2.8-0.9-4.3-1.4c-2.8-0.9-5.7-1.9-8.5-2.9s-5.6-2.1-8.4-3.2-5.6-2.2-8.3-3.4-5.5-2.4-8.2-3.6c-5.4-2.6-10.8-5.2-16.1-8.1l-4-2.1c-1.3-0.7-2.6-1.5-3.9-2.3-2.6-1.5-5.2-3-7.7-4.6l-7.6-4.9-7.5-5.1c-2.5-1.7-4.9-3.5-7.4-5.3-2.4-1.8-4.7-3.8-7.1-5.7s-4.6-3.9-6.9-5.9c-1.1-1-2.3-2-3.4-3l-3.3-3.1c-1.1-1.1-2.2-2.1-3.3-3.2l-3.2-3.3c-1.1-1.1-2.2-2.2-3.2-3.3l-3.1-3.4c-2.1-2.2-4-4.6-6-6.9s-3.8-4.7-5.8-7.1c-1.9-2.4-3.7-4.9-5.5-7.3-1.8-2.5-3.5-5-5.2-7.6-3.3-5.1-6.5-10.3-9.4-15.7-3-5.3-5.6-10.8-8.2-16.3-2.5-5.6-4.9-11.1-7-16.8-2.2-5.7-4.1-11.4-6-17.1s-3.6-11.5-5.3-17.2l-8-27.1 20.5 19.7c4.9 4.9 10.8 9.2 17 13.1 1.6 1 3.1 1.9 4.7 2.8s3.2 1.8 4.8 2.6c3.3 1.7 6.6 3.3 10 4.7 1.7 0.7 3.4 1.4 5.1 2.1s3.4 1.3 5.2 1.9c3.5 1.2 7 2.3 10.5 3.2s7.1 1.6 10.5 2.1c0.9 0.1 1.7 0.2 2.6 0.3s1.7 0.2 2.6 0.2c1.7 0.1 3.4 0.1 5 0.1l-3.2 14.1c-2.2-1.2-4.4-2.3-6.5-3.6-1.1-0.6-2.2-1.2-3.2-1.9-1.1-0.6-2.1-1.3-3.2-1.9-2.1-1.3-4.2-2.6-6.3-4l-3.1-2.1-3-2.2-6-4.5c-2-1.5-3.9-3.1-5.8-4.8-3.8-3.3-7.4-6.7-10.9-10.2-3.5-3.6-6.8-7.3-10-11.2-1.6-1.9-3.1-3.9-4.6-5.9s-3-4-4.4-6.1-2.8-4.1-4.1-6.3c-1.3-2.1-2.6-4.2-3.8-6.4s-2.4-4.3-3.6-6.5-2.3-4.4-3.3-6.6l-9.6-19.8 19.8 9.9c2.1 1.1 4.2 2.1 6.5 3.1 2.2 1 4.5 1.9 6.7 2.8 4.5 1.8 9.2 3.5 13.9 5.2 9.4 3.2 18.9 6.2 28.5 8.9s19.3 5.2 28.9 7.5c4.8 1.1 9.7 2.2 14.5 3.1 2.4 0.5 4.8 0.9 7.2 1.3s4.8 0.7 7.2 1l-3.8 14.4c-4-1.8-8.1-3.5-12.1-5.3s-8.1-3.6-12.1-5.5l-12-5.7c-2-1-4-1.9-5.9-3-2-1-4-2-5.9-3l-5.9-3.1-5.8-3.2-5.8-3.3c-1.9-1.1-3.8-2.3-5.8-3.4-7.6-4.6-15.2-9.4-22.5-14.6-3.7-2.6-7.3-5.3-10.8-8-1.8-1.4-3.5-2.8-5.3-4.2-1.7-1.4-3.4-2.9-5.2-4.4-1.7-1.5-3.4-3-5-4.5-1.6-1.6-3.3-3.1-4.9-4.7l-4.8-4.8-2.4-2.4-2.3-2.5c-3.1-3.3-6-6.8-8.9-10.3-1.4-1.8-2.8-3.5-4.2-5.3-1.3-1.8-2.7-3.6-4-5.4s-2.6-3.7-3.9-5.5c-1.3-1.9-2.5-3.7-3.7-5.6-2.4-3.8-4.7-7.6-7-11.5l-10.2-17.4 19.1 6.5c12 4.1 24.2 7.7 36.6 10.6 3.1 0.8 6.2 1.4 9.3 2.1s6.2 1.3 9.3 1.9l4.7 0.9 4.7 0.8 4.7 0.8c1.6 0.3 3.1 0.5 4.7 0.7 12.6 1.9 25.2 3.2 37.9 3.9s25.4 0.8 38.2 0.4c12.7-0.5 25.4-1.5 38-3.2s25.2-3.9 37.6-6.7c12.4-2.9 24.7-6.3 36.8-10.3 6.1-2 12-4.2 18-6.5l8.9-3.5 8.8-3.8c5.8-2.6 11.6-5.3 17.3-8.1 1.4-0.7 2.8-1.4 4.3-2.1l4.3-2.3 8.5-4.6c11.4-6.2 23-12.2 34.8-17.7 11.8-5.6 23.7-10.8 35.9-15.6 12.2-4.7 24.5-9 37.1-12.5 12.6-3.6 25.3-6.5 38.2-8.6 12.9-2 25.9-3.3 38.9-3.8 13-0.4 26 0 39 1.1 13.9 0.5 26.8 2.1 39.6 4.1z" fill="#9EA6E6"/><path d="m946.1 629.1c-106.8-104.7-90.2-277.8-45.3-355.7 46.7-81 62.7-77 106-21 40.6 52.5 63.3 110.7 62.7 144" fill="#4F7EAC"/><path d="m946.1 629.1s-0.6-0.4-1.6-1.2c-1.1-0.8-2.7-1.9-4.7-3.5-4-3.2-9.8-8.2-16.5-15.2-3.3-3.5-6.9-7.5-10.6-12.1s-7.4-9.6-11.1-15.3c-7.5-11.3-14.6-24.9-21.1-40.3-1.6-3.8-3.2-7.8-4.7-11.9s-2.8-8.3-4.1-12.6c-2.5-8.6-4.8-17.7-6.6-27-1.9-9.4-3.4-19.1-4.5-29s-1.8-20.2-2-30.5c-0.5-20.8 0.8-42.3 4.1-63.8 3.3-21.6 8.5-43.2 16.3-64.2 3.9-10.5 8.5-20.7 14-30.6 5.4-9.6 11-18.9 17-28.1 3-4.6 6.1-9.1 9.4-13.5s6.9-8.7 10.9-12.8c4.1-4 8.7-7.9 14.6-10.7 2.9-1.4 6.2-2.5 9.7-2.8 1.7-0.2 3.5-0.2 5.2-0.1 1.7 0.2 3.4 0.4 5 0.8 3.3 0.8 6.2 2.1 8.8 3.5 2.6 1.5 5 3.1 7.2 4.8 4.4 3.4 8.2 7.1 11.7 10.9 7 7.5 13.1 15.1 18.9 22.5 11.7 15 21.6 30 29.9 44.4 8.2 14.4 15.3 28 19.5 41 4.6 12.7 7.3 24.3 8.6 34 0.6 4.9 1 9.2 1.1 13 0 1.9 0.1 3.7 0 5.3 0 0.8-0.1 1.6-0.1 2.3-0.1 0.7-0.1 1.4-0.2 2.1-0.1 1.3-0.2 2.4-0.4 3.4-0.1 1-0.2 1.8-0.4 2.5-0.2 1.3-0.4 2-0.4 2s-0.1-0.7-0.4-2c-0.1-0.7-0.3-1.5-0.5-2.4-0.2-1-0.4-2.1-0.7-3.3-0.6-2.5-1.4-5.5-2.4-9-1.1-3.5-2.4-7.5-4-11.8-3.3-8.7-7.6-19.2-13-30.9-5.8-11.5-11.8-24.9-19.9-38.6-8-13.8-17.5-28.3-28.8-42.7-5.7-7.3-11.6-14.6-18-21.4-3.2-3.4-6.5-6.6-10-9.3s-7.1-4.8-10.5-5.7-6.5-0.5-10 1.1-7 4.5-10.4 7.8c-3.3 3.4-6.5 7.2-9.6 11.2s-6 8.3-8.9 12.6c-5.7 8.7-11.2 17.9-16.4 27.1-5 9-9.3 18.6-13 28.5-7.4 19.8-12.4 40.5-15.6 61.2-3.1 20.7-4.4 41.3-3.9 61.2 0.2 10 0.9 19.7 1.9 29.3 1.1 9.5 2.5 18.8 4.3 27.7s3.9 17.5 6.3 25.7c0.6 2.1 1.2 4.1 1.9 6.1 0.3 1 0.7 2 1 3s0.6 2 0.9 3c1.2 3.9 2.5 7.8 3.9 11.5 2.7 7.5 5.7 14.5 8.7 21.1 1.5 3.3 3.1 6.4 4.6 9.5 1.6 3 3.1 6 4.6 8.9 6.1 11.4 12.2 21 17.3 28.9 5.2 7.8 9.6 13.9 12.5 18 3.6 4.1 5.2 6.4 5.2 6.4z" fill="#30516F"/><path d="m941.7 331.1s0 0.8 0.1 2.2c0 1.4 0.1 3.6 0 6.2-0.1 2.7 0.1 5.9 0 9.6s0.1 7.8 0.1 12.4v3.5c0 1.2 0.1 2.4 0.1 3.6 0.1 2.4 0.1 4.9 0.2 7.5s0.2 5.2 0.3 7.9c0.1 1.4 0.1 2.7 0.1 4.1 0.1 1.4 0.2 2.8 0.2 4.2 0.1 2.8 0.3 5.7 0.4 8.5l0.6 8.7c0.1 2.9 0.5 5.9 0.7 8.8 0.1 1.5 0.2 3 0.4 4.5l0.2 2.2 0.3 2.2c0.3 3 0.6 5.9 0.9 8.9s0.7 5.9 1.1 8.8c0.6 5.8 1.7 11.5 2.4 17.1 0.5 2.8 1 5.4 1.4 8.1 0.2 1.3 0.4 2.6 0.7 3.9s0.5 2.6 0.8 3.8c0.5 2.5 1 5 1.5 7.3 0.4 2.4 1.1 4.6 1.6 6.8s1 4.3 1.4 6.3c0.5 2 1 3.9 1.5 5.6 0.5 1.8 0.9 3.5 1.3 5 0.4 1.6 0.9 2.9 1.2 4.2 0.8 2.5 1.3 4.6 1.7 6l0.6 2.1s-0.4-0.6-1.2-1.8c-0.8-1.2-2-3-3.4-5.2-0.7-1.1-1.6-2.4-2.3-3.8-0.8-1.4-1.6-3-2.5-4.6-0.9-1.7-1.8-3.5-2.8-5.3-0.9-1.9-1.7-4-2.7-6.1-0.5-1.1-0.9-2.2-1.4-3.3s-1-2.2-1.4-3.4c-0.8-2.4-1.7-4.8-2.6-7.3-0.4-1.3-0.9-2.5-1.3-3.8s-0.8-2.6-1.1-4c-0.8-2.7-1.5-5.4-2.3-8.2-0.7-2.8-1.3-5.7-1.9-8.6-0.3-1.5-0.7-2.9-0.9-4.4s-0.5-3-0.7-4.5c-0.5-3-1.1-6-1.4-9.1s-0.7-6.1-1-9.2l-0.2-2.3-0.2-2.3c-0.1-1.5-0.2-3.1-0.3-4.6-0.2-3.1-0.4-6.1-0.4-9.2-0.1-3-0.1-6-0.1-9s0.1-5.9 0.2-8.8c0-1.4 0.1-2.9 0.1-4.3l0.3-4.2c0.2-2.8 0.4-5.5 0.6-8.1 0.3-2.6 0.6-5.2 0.9-7.7s0.6-4.8 1-7.1c0.8-4.6 1.5-8.7 2.4-12.4s1.6-6.9 2.4-9.4c0.7-2.6 1.4-4.6 1.8-6 0.4-1.3 0.6-2 0.6-2z" fill="#30516F"/></svg>