<?xml version="1.0" encoding="UTF-8" standalone="no"?>
<!-- Created with Inkscape (http://www.inkscape.org/) -->

<svg
   xmlns:dc="http://purl.org/dc/elements/1.1/"
   xmlns:cc="http://creativecommons.org/ns#"
   xmlns:rdf="http://www.w3.org/1999/02/22-rdf-syntax-ns#"
   xmlns:svg="http://www.w3.org/2000/svg"
   xmlns="http://www.w3.org/2000/svg"
   xmlns:sodipodi="http://sodipodi.sourceforge.net/DTD/sodipodi-0.dtd"
   xmlns:inkscape="http://www.inkscape.org/namespaces/inkscape"
   id="svg2"
   version="1.1"
   inkscape:version="0.48.4 r9939"
   width="7269.6592"
   height="7269.6626"
   sodipodi:docname="octavia.svg"
   inkscape:export-filename="C:\Users\Tommy\Desktop\svg\Octavia_Final.png"
   inkscape:export-xdpi="90"
   inkscape:export-ydpi="90">
  <metadata
     id="metadata8">
    <rdf:RDF>
      <cc:Work
         rdf:about="">
        <dc:format>image/svg+xml</dc:format>
        <dc:type
           rdf:resource="http://purl.org/dc/dcmitype/StillImage" />
        <dc:title />
      </cc:Work>
    </rdf:RDF>
  </metadata>
  <defs
     id="defs6" />
  <sodipodi:namedview
     pagecolor="#ffffff"
     bordercolor="#666666"
     borderopacity="1"
     objecttolerance="10"
     gridtolerance="10"
     guidetolerance="10"
     inkscape:pageopacity="0"
     inkscape:pageshadow="2"
     inkscape:window-width="1920"
     inkscape:window-height="1028"
     id="namedview4"
     showgrid="false"
     inkscape:zoom="0.125"
     inkscape:cx="2638.1345"
     inkscape:cy="2942.9773"
     inkscape:window-x="1272"
     inkscape:window-y="217"
     inkscape:window-maximized="1"
     inkscape:current-layer="layer1"
     showguides="true"
     inkscape:guide-bbox="true"
     fit-margin-top="0"
     fit-margin-left="1106.13"
     fit-margin-right="1106.13"
     fit-margin-bottom="0" />
  <g
     inkscape:groupmode="layer"
     id="layer1"
     inkscape:label="Background"
     style="display:inline"
     transform="translate(1074.9668,6466.8862)" />
  <g
     inkscape:groupmode="layer"
     id="layer11"
     inkscape:label="Tail"
     style="display:inline"
     transform="translate(1074.9668,6466.8862)">
    <path
       style="fill:#333333;fill-opacity:1;stroke:none"
       d="M 160.69151,27.759576 C 95.967868,189.1777 -95.5492,379.30374 262.96969,444.89364 779.04458,495.21242 2012.201,378.93701 1811.1946,595.8498 l -21.6593,39.45072 113.7011,-35.06228 92.1982,-66.98869 17.2441,-75.64772 -105.0413,-63.92482 -230.2137,-147.7089 -99.2244,-215.958564 6.7501,-144.000336 78.7504,-213.75051 124.1173,-379.3932 -101.6173,-14.35779 -342.0018,-434.25091 -135.0007,200.25042 -234.00133,211.50051 -197.61506,130.34038 -164.41077,111.95427 -180.00102,161.61443 -160.13691,187.29635 z"
       id="path4322"
       inkscape:connector-curvature="0"
       sodipodi:nodetypes="cccccccccccccccccccccc" />
    <path
       style="font-size:medium;font-style:normal;font-variant:normal;font-weight:normal;font-stretch:normal;text-indent:0;text-align:start;text-decoration:none;line-height:normal;letter-spacing:normal;word-spacing:normal;text-transform:none;direction:ltr;block-progression:tb;writing-mode:lr-tb;text-anchor:start;baseline-shift:baseline;color:#000000;fill:#000000;fill-opacity:1;stroke:none;stroke-width:4;marker:none;visibility:visible;display:inline;overflow:visible;enable-background:accumulate;font-family:Sans;-inkscape-font-specification:Sans"
       d="M 1341.6336,-1188.3104 C 1135.4209,-884.49319 916.27814,-747.32469 728.33706,-610.65458 540.39594,-473.98456 317.69119,-302.26205 119.10082,-0.62679182 L 177.97263,16.183083 C 373.59853,-280.94954 574.34944,-437.99829 762.27204,-574.65487 950.1945,-711.31154 1143.2254,-826.53617 1352.3543,-1134.6499 z"
       id="path4288"
       inkscape:connector-curvature="0"
       sodipodi:nodetypes="csccscc" />
    <path
       style="font-size:medium;font-style:normal;font-variant:normal;font-weight:normal;font-stretch:normal;text-indent:0;text-align:start;text-decoration:none;line-height:normal;letter-spacing:normal;word-spacing:normal;text-transform:none;direction:ltr;block-progression:tb;writing-mode:lr-tb;text-anchor:start;baseline-shift:baseline;color:#000000;fill:#666666;fill-opacity:1;stroke:none;stroke-width:2;marker:none;visibility:visible;display:inline;overflow:visible;enable-background:accumulate;font-family:Sans;-inkscape-font-specification:Sans"
       d="M 1348.6981,-1106.2431 C 1124.6872,-751.1404 832.57675,-428.69458 561.11378,-126.55932 263.42644,204.02673 531.12724,360.21219 834.984,354.57941 817.15819,351.62763 856.40505,337.4386 839.31158,337.38817 536.64616,336.4963 290.90864,190.21025 586.22508,-130.30548 855.68913,-430.53719 1171.6977,-777.51117 1367.2606,-1092.1828 z"
       id="path4290"
       inkscape:connector-curvature="0"
       sodipodi:nodetypes="cccsccc" />
    <path
       style="fill:none;stroke:#666666;stroke-width:16.20006371;stroke-linecap:butt;stroke-linejoin:miter;stroke-miterlimit:4;stroke-opacity:1;stroke-dasharray:none"
       d="M 855.80637,-446.19403 C 650.24065,-216.86509 235.93159,-14.478786 313.87238,447.54685"
       id="path3880"
       inkscape:connector-curvature="0"
       sodipodi:nodetypes="cc" />
    <path
       style="font-size:medium;font-style:normal;font-variant:normal;font-weight:normal;font-stretch:normal;text-indent:0;text-align:start;text-decoration:none;line-height:normal;letter-spacing:normal;word-spacing:normal;text-transform:none;direction:ltr;block-progression:tb;writing-mode:lr-tb;text-anchor:start;baseline-shift:baseline;color:#000000;fill:#666666;fill-opacity:1;stroke:none;stroke-width:2;marker:none;visibility:visible;display:inline;overflow:visible;enable-background:accumulate;font-family:Sans;-inkscape-font-specification:Sans"
       d="m 465.86112,29.670621 c 384.45914,257.370859 192.22969,128.685429 0,0 z"
       id="path4292"
       inkscape:connector-curvature="0"
       sodipodi:nodetypes="cc" />
    <path
       style="font-size:medium;font-style:normal;font-variant:normal;font-weight:normal;font-stretch:normal;text-indent:0;text-align:start;text-decoration:none;line-height:normal;letter-spacing:normal;word-spacing:normal;text-transform:none;direction:ltr;block-progression:tb;writing-mode:lr-tb;text-anchor:start;baseline-shift:baseline;color:#000000;fill:#666666;fill-opacity:1;stroke:none;stroke-width:2;marker:none;visibility:visible;display:inline;overflow:visible;enable-background:accumulate;font-family:Sans;-inkscape-font-specification:Sans"
       d="M 1342.7917,-965.61787 C 1276.9574,-842.79181 1138.2674,-655.4439 1009.79,-468.9291 885.21477,-288.07937 774.04616,-128.68262 750.3088,-2.9890524 721.26239,150.8165 780.35337,253.82296 869.0306,304.6155 l 18.13368,-15.57453 C 584.4725,110.29539 934.6535,-327.17217 1024.415,-458.52332 c 128.2364,-186.16472 266.9314,-373.2922 334.1268,-498.65743 z"
       id="path4294"
       inkscape:connector-curvature="0"
       sodipodi:nodetypes="cssccccc" />
    <path
       style="fill:none;stroke:#666666;stroke-width:18.00007057;stroke-linecap:butt;stroke-linejoin:miter;stroke-miterlimit:4;stroke-opacity:1;stroke-dasharray:none"
       d="M 956.39443,7.1097151 C 921.09732,-160.35901 902.16432,-356.24986 1414.4616,-778.89381"
       id="path4296"
       inkscape:connector-curvature="0"
       sodipodi:nodetypes="cc" />
    <path
       style="font-size:medium;font-style:normal;font-variant:normal;font-weight:normal;font-stretch:normal;text-indent:0;text-align:start;text-decoration:none;line-height:normal;letter-spacing:normal;word-spacing:normal;text-transform:none;direction:ltr;block-progression:tb;writing-mode:lr-tb;text-anchor:start;baseline-shift:baseline;color:#000000;fill:#000000;fill-opacity:1;stroke:none;stroke-width:4;marker:none;visibility:visible;display:inline;overflow:visible;enable-background:accumulate;font-family:Sans;-inkscape-font-specification:Sans"
       d="m 1547.4599,-111.20706 c -91.8281,338.23787 206.2488,447.11042 432.5663,553.74066 15.3593,7.5985 34.218,11.86769 19.4692,39.00233 -16.5976,30.53592 -25.516,47.5261 -53.5655,72.56639 -27.9323,24.93564 -68.3192,44.42079 -125.4381,54.00012 117.7284,-86.66175 -43.4869,-119.82466 -124.032,-136.40659 -34.2454,-8.0376 -268.0174,-42.73701 -396.8459,-45.84382 C 1050.2945,419.7548 1053.6178,410.04958 848.21141,404.27226 365.45324,470.4078 -158.74811,494.66476 217.64546,-42.353862 205.12437,-52.029794 177.31227,-56.301645 164.17009,-65.135163 143.10902,-36.387116 131.41773,-23.113118 97.826438,39.132383 -183.54547,615.29919 495.73394,480.86194 834.42421,460.72714 c 45.89652,-3.12068 433.87809,21.3688 470.53339,13.50001 l 0.2803,0 c 106.5632,3.87659 272.2243,9.5045 383.9084,32.62509 97.8851,26.98304 190.6502,35.23665 71.4379,110.53148 l -45.5628,35.43762 57.6566,-3.09378 c 90.8895,-4.98449 154.6695,-30.72573 197.4386,-68.9064 42.769,-38.1807 68.3173,-68.52205 71.3331,-118.59964 1.2478,-20.72162 -13.1758,-47.28117 -38.5714,-56.83595 C 1341.6937,98.033512 1621.1471,-64.478148 1830.7426,-726.83174 l -76.6272,44.83733 c -56.0597,219.53726 -158.797,394.50434 -206.6559,570.78735 z"
       id="path3872"
       inkscape:connector-curvature="0"
       sodipodi:nodetypes="scssccccccccccccccsscccs" />
  </g>
  <g
     inkscape:groupmode="layer"
     id="layer9"
     inkscape:label="Back Bowtie"
     style="display:inline"
     transform="translate(1074.9668,6466.8862)">
    <path
       style="font-size:medium;font-style:normal;font-variant:normal;font-weight:normal;font-stretch:normal;text-indent:0;text-align:start;text-decoration:none;line-height:normal;letter-spacing:normal;word-spacing:normal;text-transform:none;direction:ltr;block-progression:tb;writing-mode:lr-tb;text-anchor:start;baseline-shift:baseline;color:#000000;fill:#b5e1fa;fill-opacity:1;stroke:#ffffff;stroke-width:12.60004902;stroke-miterlimit:4;stroke-opacity:1;stroke-dasharray:none;marker:none;visibility:visible;display:inline;overflow:visible;enable-background:accumulate;font-family:Sans;-inkscape-font-specification:Sans"
       d="m 2261.0292,-2900.4849 c -4.8632,9.3881 -12.7142,-22.2616 52.2943,70.2988 10.0472,14.3055 27.8678,17.2392 33.8366,23.2849 l 11.6205,-37.3437 c -47.7175,-70.3669 -39.5835,-96.7218 -97.7514,-56.24 z"
       id="path3854"
       inkscape:connector-curvature="0"
       sodipodi:nodetypes="csccc" />
  </g>
  <g
     inkscape:groupmode="layer"
     id="layer8"
     inkscape:label="Hair"
     style="display:inline"
     transform="translate(1074.9668,6466.8862)">
    <path
       style="fill:#333333;fill-opacity:1;stroke:none"
       d="m 1107.9467,-3162.7481 15.7501,391.5011 -11.2501,459.001 -18.0001,326.2507 22.5001,375.751 92.2506,270.0005 87.7504,72.0002 99.0006,9.0001 87.7506,-49.5001 94.5004,-87.7502 69.7503,-126.0003 132.7509,-634.5016 -67.5004,-339.7508 -74.2505,-182.2504 -218.2512,-283.5007 -90.0004,-168.7505 z"
       id="path4257"
       inkscape:connector-curvature="0" />
    <path
       style="fill:none;stroke:#666666;stroke-width:18.00007057;stroke-linecap:butt;stroke-linejoin:miter;stroke-miterlimit:4;stroke-opacity:1;stroke-dasharray:none"
       d="m 1126.8711,-2437.1232 c 104.7314,-230.8681 166.0231,-450.5041 209.659,-683.0686"
       id="path4149"
       inkscape:connector-curvature="0"
       sodipodi:nodetypes="cc" />
    <path
       style="fill:none;stroke:#666666;stroke-width:18.00007057;stroke-linecap:butt;stroke-linejoin:miter;stroke-miterlimit:4;stroke-opacity:1;stroke-dasharray:none"
       d="m 1202.3403,-1661.2308 c 21.7019,-500.2251 300.6807,-980.0196 299.8467,-1164.7401"
       id="path4151"
       inkscape:connector-curvature="0"
       sodipodi:nodetypes="cc" />
    <path
       style="fill:none;stroke:#666666;stroke-width:18.00007057;stroke-linecap:butt;stroke-linejoin:miter;stroke-miterlimit:4;stroke-opacity:1;stroke-dasharray:none"
       d="m 1310.5282,-1462.3428 c -53.722,-491.559 128.4236,-823.1058 273.6518,-1027.7823"
       id="path4153"
       inkscape:connector-curvature="0"
       sodipodi:nodetypes="cc" />
    <path
       style="fill:none;stroke:#666666;stroke-width:18.00007057;stroke-linecap:butt;stroke-linejoin:miter;stroke-miterlimit:4;stroke-opacity:1;stroke-dasharray:none"
       d="m 1424.887,-1444.569 c -7.9791,-501.9295 237.3398,-746.007 299.1079,-861.0337"
       id="path4155"
       inkscape:connector-curvature="0"
       sodipodi:nodetypes="cc" />
    <path
       style="fill:none;stroke:#666666;stroke-width:18.00007057;stroke-linecap:butt;stroke-linejoin:miter;stroke-miterlimit:4;stroke-opacity:1;stroke-dasharray:none"
       d="m 1553.8379,-1634.1371 c -0.063,-208.102 104.7957,-348.6802 171.7478,-443.2946"
       id="path4157"
       inkscape:connector-curvature="0"
       sodipodi:nodetypes="cc" />
    <path
       style="fill:none;stroke:#666666;stroke-width:18.00007057;stroke-linecap:butt;stroke-linejoin:miter;stroke-miterlimit:4;stroke-opacity:1;stroke-dasharray:none"
       d="m 1136.0642,-2768.8221 c 43.3662,-90.2381 81.1725,-183.4906 127.4729,-358.8257"
       id="path4159"
       inkscape:connector-curvature="0"
       sodipodi:nodetypes="cc" />
  </g>
  <g
     inkscape:groupmode="layer"
     id="layer12"
     inkscape:label="Cello"
     style="display:inline"
     transform="translate(1074.9668,6466.8862)">
    <path
       style="fill:#636c7b;fill-opacity:1;stroke:none"
       d="m 3874.8497,252.02774 c 18.0461,47.95438 41.5979,99.40257 101.2507,105.75028 l 121.5006,-27.00007 c 61.3942,-14.3805 32.4799,-67.39805 45.0003,-103.50024 z"
       id="path4113"
       inkscape:connector-curvature="0"
       sodipodi:nodetypes="ccccc" />
    <path
       style="fill:#673620;fill-opacity:1;stroke:none;display:inline"
       d="m 2676.2054,-1337.3087 123.7506,-83.2502 69.7503,-101.2503 47.2501,-186.7505 6.7503,-157.5003 -33.7501,-123.7503 -40.5004,-114.7501 24.7502,-15.7501 36.0001,24.75 105.7506,213.7505 24.7501,128.2503 31.5004,234.0005 c 8.7595,69.2849 -3.0726,130.8482 -18.0003,191.2505 l -45.0001,101.2502 -83.2505,-20.25 -72.0003,-40.5001 z"
       id="path3846"
       inkscape:connector-curvature="0"
       sodipodi:nodetypes="ccccccccccccccccc" />
    <path
       style="fill:#a65a27;fill-opacity:1;stroke:none"
       d="m 2370.1337,-1256.3718 445.005,-58.5938 191.3943,574.07591 -63.6396,639.57959 975.0091,368.85701 C 3756.9113,297.46473 2680.195,437.2895 2336.3672,-304.9096 c -50.7234,-352.09938 430.4311,-591.46548 33.7665,-951.4622 z"
       id="path3887"
       inkscape:connector-curvature="0"
       sodipodi:nodetypes="ccccccc" />
    <path
       style="fill:#a55b25;fill-opacity:1;stroke:none;display:inline"
       d="m 3070.842,-3390.121 c -237.1632,99.061 -341.7742,135.7233 -646.0119,445.7046 -108.5902,194.9794 24.6383,440.6656 128.1531,657.5039 83.177,174.2354 250.4829,86.4216 256.2291,100.515"
       id="path3867"
       inkscape:connector-curvature="0"
       sodipodi:nodetypes="ccsc" />
    <path
       style="fill:#a65a27;fill-opacity:1;stroke:none"
       d="m 4154.2694,-1677.0065 c 75.1146,38.1832 147.9926,11.1144 279.0604,-28.3435 l -1.2614,16.2278 -14.3192,60.4578 -144.781,103.4146 z"
       id="path4144"
       inkscape:connector-curvature="0"
       sodipodi:nodetypes="cccccc" />
    <path
       style="fill:#67371d;fill-opacity:1;stroke:none"
       d="m 4033.5229,-2319.9514 222.7397,-58.8668 -16.7052,-24.6604 c 0,0 -144.7808,4.7729 -157.509,10.3416 -12.7282,5.5685 -58.0715,54.8892 -58.0715,54.8892 z"
       id="path4146"
       inkscape:connector-curvature="0" />
    <path
       style="fill:#d18d44;fill-opacity:1;stroke:none"
       d="m 2814.6996,-1314.8137 c 1.8912,-3.2595 99.9313,95.9791 188.9741,24.6601 177.8035,-142.4119 -34.2177,-703.1375 -312.7635,-1019.16 -225.4023,-288.9936 -193.0676,-370.9397 -192.468,-471.2188 1.5714,-262.9379 542.3643,-623.623 568.1359,-575.2239 37.9111,71.1969 250.4444,-43.9906 261.2761,-44.2904 114.4516,-3.1702 462.0079,-30.4338 676.4144,229.5067 232.5621,319.5125 40.5739,416.4657 54.496,561.8979 12.1039,126.4388 68.3312,170.7452 192.9939,202.034 0.4942,-7.5901 -3.5305,9.4519 -8.6863,10.6462 -103.6391,24.0056 -217.4167,10.7171 -215.9834,117.6922 2.6164,195.2986 36.4657,365.6851 136.9198,597.4416 110.6473,180.1253 205.8846,70.0168 267.5074,-23.2398 2.2286,-3.3724 3.0917,-0.264 5.8688,-0.3419 -112.216,487.4032 347.2923,604.4879 465.619,1039.88815 144.3661,1097.01613 -1753.2895,1202.30232 -2146.2579,512.30013 -149.7308,-199.53506 43.9266,-523.96164 62.2521,-651.6759 108.9627,-258.72608 34.0115,-385.83178 -5.0654,-507.31648"
       id="path3882"
       inkscape:connector-curvature="0"
       sodipodi:nodetypes="cscssscscsscsccccc" />
    <path
       style="fill:#000000;fill-opacity:1;stroke:none"
       d="m 2237.2849,-5594.217 c -279.3276,99.3454 -223.4043,351.3158 101.8242,307.8571 z"
       id="path4030"
       inkscape:connector-curvature="0"
       sodipodi:nodetypes="ccc" />
    <path
       style="fill:#000000;fill-opacity:1;stroke:none;display:inline"
       d="m 2391.001,-5121.8771 c -267.5783,92.8612 -250.9123,409.3502 120.9495,308.9822 z"
       id="path4030-4"
       inkscape:connector-curvature="0"
       sodipodi:nodetypes="ccc" />
    <path
       style="fill:#a5adb8;fill-opacity:1;stroke:none"
       d="m 3978.4868,355.66447 119.2504,429.75104 c 22.2737,33.59448 30.4367,10.74584 40.5003,-4.50005 -12.1296,-151.62965 -32.2758,-311.27633 -33.7501,-452.25102"
       id="path3844"
       inkscape:connector-curvature="0"
       sodipodi:nodetypes="cccc" />
    <path
       style="fill:#efddbf;fill-opacity:1;stroke:none;display:inline"
       d="m 3476.1762,-1246.5034 41.3657,127.2795 388.2038,-95.4595 -9.5458,-95.4597 z"
       id="path3934"
       inkscape:connector-curvature="0" />
    <path
       style="fill:#d18d44;fill-opacity:1;stroke:none;display:inline"
       d="m 2689.9636,-5637.8655 133.9421,-63.2032 c 23.4878,-11.0833 21.7274,-28.3803 21.5653,-42.3253 -4.1634,-357.6781 16.6664,-858.4873 -403.9739,-689.7519 341.9792,142.3312 262.858,723.0922 248.4665,795.2804 z"
       id="path3940"
       inkscape:connector-curvature="0"
       sodipodi:nodetypes="csscc" />
    <path
       style="fill:#000000;fill-opacity:1;stroke:none;display:inline"
       d="m 3585.6909,-2518.239 -310.5018,90.0003 -48.954,-4.5 -198.5471,-927.0023 -72.0006,13.5 c -58.3014,-504.3672 -133.4518,-998.906 -292.5016,-1444.5035 l 148.5008,-9 96.7506,-20.2498 z"
       id="path3936"
       inkscape:connector-curvature="0"
       sodipodi:nodetypes="ccccccccc" />
    <path
       style="fill:none;stroke:#b3b3b3;stroke-width:18.00007057;stroke-linecap:butt;stroke-linejoin:miter;stroke-miterlimit:4;stroke-opacity:1;stroke-dasharray:none;display:inline"
       d="m 2816.6802,-4827.431 c 830.2817,3593.1069 823.3749,3246.9746 953.1632,4115.79951"
       id="path3889-1"
       inkscape:connector-curvature="0"
       sodipodi:nodetypes="cc" />
    <path
       style="fill:none;stroke:#b3b3b3;stroke-width:18.00007057;stroke-linecap:butt;stroke-linejoin:miter;stroke-miterlimit:4;stroke-opacity:1;stroke-dasharray:none;display:inline"
       d="m 2884.8788,-4823.5862 c 851.4258,3364.0322 942.914,3266.2248 1008.6931,4071.35369"
       id="path3932"
       inkscape:connector-curvature="0"
       sodipodi:nodetypes="cc" />
    <path
       style="fill:none;stroke:#b3b3b3;stroke-width:18.00007057;stroke-linecap:butt;stroke-linejoin:miter;stroke-miterlimit:4;stroke-opacity:1;stroke-dasharray:none;display:inline"
       d="m 2781.0838,-4830.9241 c 809.3922,3760.2233 788.9294,3273.0179 919.3497,4136.7895"
       id="path3889"
       inkscape:connector-curvature="0"
       sodipodi:nodetypes="cc" />
    <path
       style="fill:none;stroke:#b3b3b3;stroke-width:18.00007057;stroke-linecap:butt;stroke-linejoin:miter;stroke-miterlimit:4;stroke-opacity:1;stroke-dasharray:none;display:inline"
       d="m 2854.5358,-4822.0337 c 586.5032,2473.5056 926.2306,3395.8997 974.2554,4097.25956"
       id="path3930"
       inkscape:connector-curvature="0"
       sodipodi:nodetypes="cc" />
    <path
       style="fill:#333232;fill-opacity:1;stroke:none"
       d="m 4073.3586,255.72681 c -34.5213,-214.959532 -170.687,-709.45965 -31.5318,-826.62931 10.5256,-66.17106 6.6027,-180.71719 14.4075,-229.81564 l -540.9505,143.4418 c 32.0363,98.14428 56.2073,145.4057 87.9823,200.32219 202.2946,21.52845 304.7125,471.380267 347.1664,729.14383 36.4899,-1.00202 81.7266,-10.75111 122.9261,-16.46287 z"
       id="path3890"
       inkscape:connector-curvature="0"
       sodipodi:nodetypes="ccccccc" />
    <path
       style="fill:#a65a27;fill-opacity:1;stroke:none;display:inline"
       d="m 2836.8699,-4804.2775 c -53.4116,10.803 -115.6925,9.7803 -173.5475,14.6581 -159.9195,-558.4687 -494.9979,-1322.094 -221.7626,-1643.629 309.1061,105.5656 286.2201,613.9249 250.8762,793.1268 -44.3452,10.9867 -88.259,16.3627 -130.5009,0 z"
       id="path3942"
       inkscape:connector-curvature="0"
       sodipodi:nodetypes="cccccc" />
    <path
       style="fill:#333432;fill-opacity:1;stroke:none"
       d="m 2596.0553,-5082.7127 -159.8953,66.8216 -53.2986,-100.2323 c -224.0763,126.3027 -109.8753,343.2298 128.8709,296.7204 -14.992,-42.944 -47.0275,-90.7879 -46.9344,-128.0752 l 148.7586,-93.8687 c 5.5926,-16.5438 2.6234,-33.1834 -17.5012,-41.3658 z"
       id="path4010"
       inkscape:connector-curvature="0"
       sodipodi:nodetypes="ccccccc" />
    <path
       style="fill:#333432;fill-opacity:1;stroke:none;display:inline"
       d="m 2449.8841,-5533.2641 -170.475,48.5288 -35.3274,-113.4384 c -240.4413,91.382 -145.6372,324.5358 97.3792,314.2436 -8.4032,-44.703 -47.2441,-98.3893 -41.5774,-135.2437 l 161.1206,-70.5728 c 8.0031,-15.5219 7.5549,-32.4185 -11.12,-43.5175 z"
       id="path4010-7"
       inkscape:connector-curvature="0"
       sodipodi:nodetypes="ccccccc" />
    <path
       style="font-size:medium;font-style:normal;font-variant:normal;font-weight:normal;font-stretch:normal;text-indent:0;text-align:start;text-decoration:none;line-height:normal;letter-spacing:normal;word-spacing:normal;text-transform:none;direction:ltr;block-progression:tb;writing-mode:lr-tb;text-anchor:start;baseline-shift:baseline;color:#000000;fill:#111111;fill-opacity:1;stroke:none;stroke-width:4.5999999;marker:none;visibility:visible;display:inline;overflow:visible;enable-background:accumulate;font-family:Sans;-inkscape-font-specification:Sans"
       d="m 3755.649,-2105.2455 c 17.4374,-5.5838 34.8752,-11.2203 52.3127,-25.5939 -54.6795,-6.8684 -62.1782,-28.1146 -66.3753,-42.4688 -19.4231,-97.7884 82.7375,-108.4467 104.0628,-33.75 10.039,25.9254 9.2223,55.2181 8.4361,79.8751 -1.3784,42.6699 -6.4636,97.7412 -11.8124,157.2192 -10.6975,118.9558 -23.1253,263.9044 -5.625,362.8133 25.0767,96.0093 91.953,149.6658 162.2819,149.9066 35.1912,3.3389 67.566,-14.2364 91.1257,-48.6563 23.5595,-34.42 30.4204,-89.0788 23.6251,-165.0942 -11.9808,-118.8405 -108.7594,-160.4414 -167.6494,-102.247 l 71.4613,25.7468 c 14.3051,-0.2347 26.0631,6.6531 36.8442,21.3751 10.781,14.7219 18.9464,37.0106 21.0936,61.0313 5.8813,56.6633 -7.264,169.244 -79.0314,160.3129 -66.1003,-11.2263 -105.0491,-67.9186 -118.1257,-124.0316 -20.0808,-90.2239 -11.4374,-220.4753 5.3436,-337.5007 8.4633,-59.0201 10.3653,-114.665 11.8126,-159.4693 0.7238,-22.402 0.667,-42.2586 -1.1251,-59.0625 -15.0021,-67.974 -65.0148,-112.7293 -111.4544,-106.9437 -102.0812,0.54 -99.642,173.5531 -27.2009,186.5377 z"
       id="path4050"
       inkscape:connector-curvature="0"
       sodipodi:nodetypes="cccccsccscccscccssccc" />
    <path
       style="fill:#d18d44;fill-opacity:1;stroke:none;display:inline"
       d="m 3149.1884,-4862.7447 -331.8083,61.6823 -258.2406,-842.594 c 46.2359,18.4225 94.8414,15.522 145.3186,-4.227 z"
       id="path3938"
       inkscape:connector-curvature="0"
       sodipodi:nodetypes="ccccc" />
    <path
       style="fill:none;stroke:#6c3614;stroke-width:18.00007057;stroke-linecap:butt;stroke-linejoin:miter;stroke-miterlimit:4;stroke-opacity:1;stroke-dasharray:none;display:inline"
       d="m 2701.5612,-5653.5523 c -114.3963,92.7047 -235.1998,-35.4115 -259.2155,-360.0351 -12.6587,-171.104 139.8136,-176.8586 113.7564,-14.319"
       id="path3944"
       inkscape:connector-curvature="0"
       sodipodi:nodetypes="csc" />
    <path
       style="font-size:medium;font-style:normal;font-variant:normal;font-weight:normal;font-stretch:normal;text-indent:0;text-align:start;text-decoration:none;line-height:normal;letter-spacing:normal;word-spacing:normal;text-transform:none;direction:ltr;block-progression:tb;writing-mode:lr-tb;text-anchor:start;baseline-shift:baseline;color:#000000;fill:#111111;fill-opacity:1;stroke:none;stroke-width:4.5999999;marker:none;visibility:visible;display:inline;overflow:visible;enable-background:accumulate;font-family:Sans;-inkscape-font-specification:Sans"
       d="m 3234.771,-2163.7457 c -7.7126,0.5427 -15.4842,2.3233 -23.0628,5.3437 -29.5236,11.7661 -65.4481,55.2193 -60.6939,103.9497 10.2191,104.7426 59.0744,161.8174 94.219,231.4454 53.3806,106.7565 124.0956,217.1225 132.0835,313.8358 5.4211,65.6387 -23.7147,133.1051 -64.0772,155.4269 -20.1813,11.1609 -40.8982,13.3443 -62.4379,3.9375 -21.5392,-9.4068 -45.0838,-32.0479 -65.5315,-76.219 -9.5428,-20.6145 -22.7977,-56.0595 -23.0545,-88.5056 -0.1276,-16.2231 6.5128,-34.43 9.8357,-44.2446 8.0638,-14.1423 26.6444,2.035 38.2067,7.5212 l 62.018,-56.1377 c 6.0204,-6.5961 -70.1373,-35.0533 -113.238,-5.5297 -14.3702,9.8434 -24.8979,18.5273 -30.0583,33.7679 -5.6052,16.5545 -10.6476,40.8119 -10.4946,60.1311 0.3066,38.6384 6.0994,80.5809 19.5514,109.6394 23.3128,50.3608 54.6712,89.2599 88.2162,103.9099 33.5452,14.6499 89.449,10.3745 118.8882,-5.9064 58.8786,-32.5616 92.3381,-117.5153 79.3213,-199.4866 -15.8553,-99.8474 -83.2822,-221.1751 -136.8165,-328.3161 -43.1713,-68.1483 -85.5009,-147.2616 -90.9323,-184.1394 -20.4916,-42.2981 4.0205,-92.4984 30.4626,-96.5487 87.3447,-26.0415 123.3627,83.3259 39.4319,119.4502 l 41.8649,0.8136 c 89.7363,-52.2463 23.208,-190.9669 -73.7028,-164.1388 z"
       id="path4050-0"
       inkscape:connector-curvature="0"
       sodipodi:nodetypes="csscssssccccsssssssccccccc" />
    <path
       sodipodi:type="arc"
       style="fill:#111111;fill-opacity:1;fill-rule:evenodd;stroke:none"
       id="path4078"
       sodipodi:cx="389.30649"
       sodipodi:cy="538.64178"
       sodipodi:rx="6.7617087"
       sodipodi:ry="7.2920389"
       d="m 396.0682,538.64178 c 0,4.02729 -3.02732,7.29204 -6.76171,7.29204 -3.73439,0 -6.76171,-3.26475 -6.76171,-7.29204 0,-4.02728 3.02732,-7.29203 6.76171,-7.29203 3.73439,0 6.76171,3.26475 6.76171,7.29203 z"
       transform="matrix(9.0000496,0,0,9.0000219,-258.99234,-6400.4825)" />
    <path
       sodipodi:type="arc"
       style="fill:#111111;fill-opacity:1;fill-rule:evenodd;stroke:none;display:inline"
       id="path4078-9"
       sodipodi:cx="389.30649"
       sodipodi:cy="538.64178"
       sodipodi:rx="6.7617087"
       sodipodi:ry="7.2920389"
       d="m 396.0682,538.64178 c 0,4.02729 -3.02732,7.29204 -6.76171,7.29204 -3.73439,0 -6.76171,-3.26475 -6.76171,-7.29204 0,-4.02728 3.02732,-7.29203 6.76171,-7.29203 3.73439,0 6.76171,3.26475 6.76171,7.29203 z"
       transform="matrix(9.0000496,0,0,9.0000219,479.3559,-6568.9228)" />
    <path
       style="fill:none;stroke:#a9ac8a;stroke-width:40.50016022;stroke-linecap:butt;stroke-linejoin:miter;stroke-miterlimit:4;stroke-opacity:1;stroke-dasharray:none"
       d="m 2948.4567,-1824.4349 1914.7607,-616.5014"
       id="path4111"
       inkscape:connector-curvature="0" />
    <path
       style="fill:#684721;fill-opacity:1;stroke:none"
       d="m 2894.4568,-1963.9351 c 552.1646,-174.24 1148.5298,-387.8399 1644.7587,-515.2514 286.2036,-73.4854 434.4504,-4.5769 541.2088,58.3632 12.9261,9.653 9.8362,14.808 -4.9036,16.6742 l -124.0458,27.3865 c -19.7218,7.0047 -25.5778,5.0372 -37.8353,-7.7443 -95.8641,-97.6094 -174.2578,-86.6579 -304.6737,-54.1796 -605.7497,150.8534 -1119.3374,343.0432 -1676.2593,515.2514"
       id="path4109"
       inkscape:connector-curvature="0"
       sodipodi:nodetypes="csccccsc" />
  </g>
  <g
     inkscape:groupmode="layer"
     id="layer10"
     inkscape:label="Back Leg"
     style="display:inline"
     transform="translate(1074.9668,6466.8862)">
    <path
       style="fill:#a6a29b;fill-opacity:1;stroke:none;display:inline"
       d="m 2091.7085,14.099642 229.532,406.048078 c 125.0628,10.99055 327.661,-0.67409 450.478,-29.57842 41.818,-9.84169 63.686,-32.48548 24.3343,-82.41111 C 2635.5247,99.331212 2493.7627,-19.418676 2306.4937,-356.60194 l -50.9121,-187.7373 22.2739,-85.91366 89.0959,-210.01129 60.4581,-165.46331 3.1819,-203.6473 -79.55,127.2795 -159.0998,162.28147 -159.1,82.73162 -9.546,143.18953 -105.0059,1.59103 35.0021,280.01498 62.0489,198.87416 z"
       id="path4265"
       inkscape:connector-curvature="0"
       sodipodi:nodetypes="ccsccccccccccccccc" />
    <path
       style="font-size:medium;font-style:normal;font-variant:normal;font-weight:normal;font-stretch:normal;text-indent:0;text-align:start;text-decoration:none;line-height:normal;letter-spacing:normal;word-spacing:normal;text-transform:none;direction:ltr;block-progression:tb;writing-mode:lr-tb;text-anchor:start;baseline-shift:baseline;color:#000000;fill:#676153;fill-opacity:1;stroke:none;stroke-width:4;marker:none;visibility:visible;display:inline;overflow:visible;enable-background:accumulate;font-family:Sans;-inkscape-font-specification:Sans"
       d="m 2021.3241,-713.56782 -106.5942,1.68753 c -19.1302,0.30275 -20.2739,15.10888 -19.9693,24.46831 9.2047,282.75308 179.6844,836.89442 395.7641,1109.47447 7.6033,11.39517 17.751,9.61507 28.4568,10.59577 118.7523,-2.49846 536.3892,36.15865 514.6832,-116.09516 l -37.5198,-1.15207 c 45.5667,124.94022 -386.3259,88.48315 -451.9786,86.90449 -7.3188,-0.86399 -7.514,-1.14117 -11.2213,-4.75736 C 2148.9355,162.29971 1932.8274,-442.6119 1934.417,-676.16195 l 87.469,-1.40623 -0.5624,-36.00009 z"
       id="path3794"
       inkscape:connector-curvature="0"
       sodipodi:nodetypes="csscccccccccc" />
    <path
       style="font-size:medium;font-style:normal;font-variant:normal;font-weight:normal;font-stretch:normal;text-indent:0;text-align:start;text-decoration:none;line-height:normal;letter-spacing:normal;word-spacing:normal;text-transform:none;direction:ltr;block-progression:tb;writing-mode:lr-tb;text-anchor:start;baseline-shift:baseline;color:#000000;fill:#676153;fill-opacity:1;stroke:none;stroke-width:4;marker:none;visibility:visible;display:inline;overflow:visible;enable-background:accumulate;font-family:Sans;-inkscape-font-specification:Sans"
       d="m 2064.4438,-857.83033 -50.3702,11.31672 c 35.1192,65.5648 -14.1962,147.21183 4.5666,222.46929 38.8011,-97.83075 50.9761,-119.99408 45.8036,-233.78601 z"
       id="path3796"
       inkscape:connector-curvature="0"
       sodipodi:nodetypes="cccc" />
    <path
       style="font-size:medium;font-style:normal;font-variant:normal;font-weight:normal;font-stretch:normal;text-indent:0;text-align:start;text-decoration:none;line-height:normal;letter-spacing:normal;word-spacing:normal;text-transform:none;direction:ltr;block-progression:tb;writing-mode:lr-tb;text-anchor:start;baseline-shift:baseline;color:#000000;fill:#676153;fill-opacity:1;stroke:none;stroke-width:4;marker:none;visibility:visible;display:inline;overflow:visible;enable-background:accumulate;font-family:Sans;-inkscape-font-specification:Sans"
       d="m 2462.6339,-1222.9771 -50.3703,25.0957 c 22.0547,112.1711 -7.5611,217.55779 -50.3439,323.15693 -38.4287,94.85196 -89.5749,192.19347 -117.8886,290.96184 -5.6538,14.59491 -6.0316,28.8889 -5.9523,43.24108 5.8709,131.02919 50.3104,273.51077 558.1676,867.17848 2.4961,2.9182 5.9319,6.92411 6.5299,13.7827 0.9472,10.87253 25.7128,0.87575 28.8028,-9.22577 1.5938,-5.21032 2.8028,-15.1534 1.2174,-18.04798 -213.8797,-265.63546 -531.1445,-642.91356 -556.0345,-840.47245 -1.2154,-9.64646 1.1489,-42.96974 3.327,-51.17723 25.8658,-97.45333 74.0777,-181.68838 115.0183,-282.74083 43.7217,-107.91643 74.6936,-199.55347 67.5266,-361.75267 z"
       id="path3798"
       inkscape:connector-curvature="0"
       sodipodi:nodetypes="ccsccssscssscc" />
  </g>
  <g
     inkscape:groupmode="layer"
     id="layer2"
     inkscape:label="Body"
     style="display:inline"
     transform="translate(1074.9668,6466.8862)">
    <path
       style="fill:#bbb8b1;fill-opacity:1;stroke:none"
       d="m 954.14439,30.009546 108.18791,-295.924876 127.2799,-264.10502 117.734,-175.00933 140.0079,-15.90997 -82.7319,-184.55533 -15.91,-140.00752 3.182,-181.3732 31.8199,-120.9156 47.73,-98.6416 105.0059,-152.7355 136.826,-264.105 60.458,-273.651 -3.1821,-283.1969 -12.7279,-111.3696 340.4737,-22.274 286.3798,-89.0955 38.1839,-19.092 60.4579,54.0938 54.0944,111.3696 63.6396,162.2815 28.6381,85.9135 -57.2758,833.6809 -28.6385,98.6417 -114.5517,181.3733 -190.9199,203.64725 -136.8259,70.00369 -127.2798,28.63795 -143.1899,149.5534 -140.008,105.00557 C 1401.7,-297.57455 1355.1067,255.76478 1312.8581,542.25817 1145.4787,621.45753 972.07364,634.37501 787.7566,527.26014 z"
       id="path4259"
       inkscape:connector-curvature="0"
       sodipodi:nodetypes="ccccccccccccccccccccccccccccccccc" />
    <path
       style="font-size:medium;font-style:normal;font-variant:normal;font-weight:normal;font-stretch:normal;text-indent:0;text-align:start;text-decoration:none;line-height:normal;letter-spacing:normal;word-spacing:normal;text-transform:none;direction:ltr;block-progression:tb;writing-mode:lr-tb;text-anchor:start;baseline-shift:baseline;color:#000000;fill:#676153;fill-opacity:1;stroke:none;stroke-width:4;marker:none;visibility:visible;display:inline;overflow:visible;enable-background:accumulate;font-family:Sans;-inkscape-font-specification:Sans"
       d="m 1276.3364,-706.77117 c -132.63,113.2244 -468.45389,935.14831 -501.17701,1222.67344 l 58.19868,12.66643 C 813.2546,511.59416 818.0605,508.22318 818.38899,506.85215 912.22839,86.59772 1196.2708,-586.12569 1309.6902,-671.76245 c 7.3287,-5.53348 23.1663,-19.01802 35.1924,-22.57193 31.9267,-9.43484 77.0175,-7.8968 113.2356,-5.77344 l -29.3216,-36.00011 c -74.8954,-9.11956 -138.0783,17.0993 -152.4602,29.33649 z"
       id="path3786"
       inkscape:connector-curvature="0"
       sodipodi:nodetypes="ccccsscccc" />
    <path
       style="font-size:medium;font-style:normal;font-variant:normal;font-weight:normal;font-stretch:normal;text-indent:0;text-align:start;text-decoration:none;line-height:normal;letter-spacing:normal;word-spacing:normal;text-transform:none;direction:ltr;block-progression:tb;writing-mode:lr-tb;text-anchor:start;baseline-shift:baseline;color:#000000;fill:#676153;fill-opacity:1;stroke:none;stroke-width:4;marker:none;visibility:visible;display:inline;overflow:visible;enable-background:accumulate;font-family:Sans;-inkscape-font-specification:Sans"
       d="m 1387.0769,30.901041 c -229.6846,256.550639 -114.8423,128.275309 0,0 z"
       id="path3788"
       inkscape:connector-curvature="0"
       sodipodi:nodetypes="cc" />
    <path
       style="font-size:medium;font-style:normal;font-variant:normal;font-weight:normal;font-stretch:normal;text-indent:0;text-align:start;text-decoration:none;line-height:normal;letter-spacing:normal;word-spacing:normal;text-transform:none;direction:ltr;block-progression:tb;writing-mode:lr-tb;text-anchor:start;baseline-shift:baseline;color:#000000;fill:#676153;fill-opacity:1;stroke:none;stroke-width:4;marker:none;visibility:visible;display:inline;overflow:visible;enable-background:accumulate;font-family:Sans;-inkscape-font-specification:Sans"
       d="m 2045.1482,-1316.1727 c -28.4678,186.9154 -38.2072,554.75499 -469.0808,766.2722 l 43.096,-2.33409 c 265.1411,-124.82558 474.6507,-377.1648 425.9848,-763.93811 z"
       id="path3790"
       inkscape:connector-curvature="0"
       sodipodi:nodetypes="cccc" />
    <path
       style="font-size:medium;font-style:normal;font-variant:normal;font-weight:normal;font-stretch:normal;text-indent:0;text-align:start;text-decoration:none;line-height:normal;letter-spacing:normal;word-spacing:normal;text-transform:none;direction:ltr;block-progression:tb;writing-mode:lr-tb;text-anchor:start;baseline-shift:baseline;color:#000000;fill:#676153;fill-opacity:1;stroke:none;stroke-width:4;marker:none;visibility:visible;display:inline;overflow:visible;enable-background:accumulate;font-family:Sans;-inkscape-font-specification:Sans"
       d="m 2518.9857,-1434.4627 c -161.6677,424.9638 -411.2025,569.92692 -587.2533,580.50138 l -13.6335,49.6527 c 198.5782,8.76421 491.4243,-182.63144 634.6369,-617.49778 z"
       id="path3792"
       inkscape:connector-curvature="0"
       sodipodi:nodetypes="ccccc" />
    <path
       style="font-size:medium;font-style:normal;font-variant:normal;font-weight:normal;font-stretch:normal;text-indent:0;text-align:start;text-decoration:none;line-height:normal;letter-spacing:normal;word-spacing:normal;text-transform:none;direction:ltr;block-progression:tb;writing-mode:lr-tb;text-anchor:start;baseline-shift:baseline;color:#000000;fill:#676153;fill-opacity:1;stroke:none;stroke-width:4;marker:none;visibility:visible;display:inline;overflow:visible;enable-background:accumulate;font-family:Sans;-inkscape-font-specification:Sans"
       d="m 1721.5102,-2539.2971 -36.2303,12.2327 c 112.9018,475.8786 -65.5008,769.8718 -292.8618,1116.8407 -90.3877,257.1415 -91.2705,476.77483 40.7227,688.99472 l 47.8302,62.97546 -17.583,-50.20949 c -118.6048,-258.41338 -131.2473,-452.50139 -32.2053,-691.18539 359.0139,-509.674 360.7234,-807.6599 290.3275,-1139.6487 z"
       id="path3802"
       inkscape:connector-curvature="0"
       sodipodi:nodetypes="cccccccc" />
    <path
       style="font-size:medium;font-style:normal;font-variant:normal;font-weight:normal;font-stretch:normal;text-indent:0;text-align:start;text-decoration:none;line-height:normal;letter-spacing:normal;word-spacing:normal;text-transform:none;direction:ltr;block-progression:tb;writing-mode:lr-tb;text-anchor:start;baseline-shift:baseline;color:#000000;fill:#676153;fill-opacity:1;stroke:none;stroke-width:4;marker:none;visibility:visible;display:inline;overflow:visible;enable-background:accumulate;font-family:Sans;-inkscape-font-specification:Sans"
       d="m 2425.0475,-2662.1219 -28.6875,21.6564 c 19.9447,26.6468 57.4291,95.3843 92.2504,172.4067 34.8214,77.0222 67.7069,163.4673 81.8444,227.2504 l 35.1561,-7.875 c -15.1857,-68.5132 -48.6382,-155.5752 -84.0939,-234.0005 -35.4559,-78.4254 -72.0677,-146.8366 -96.4695,-179.438 z"
       id="path3804"
       inkscape:connector-curvature="0"
       sodipodi:nodetypes="ccsccsc" />
    <path
       style="font-size:medium;font-style:normal;font-variant:normal;font-weight:normal;font-stretch:normal;text-indent:0;text-align:start;text-decoration:none;line-height:normal;letter-spacing:normal;word-spacing:normal;text-transform:none;direction:ltr;block-progression:tb;writing-mode:lr-tb;text-anchor:start;baseline-shift:baseline;color:#000000;fill:#676153;fill-opacity:1;stroke:none;stroke-width:4;marker:none;visibility:visible;display:inline;overflow:visible;enable-background:accumulate;font-family:Sans;-inkscape-font-specification:Sans"
       d="M 1619.5114,-564.57775 C 1286.222,-84.463882 1377.9525,209.2711 1296.7041,516.89051 c -1.1109,10.20149 -4.1109,13.2903 -12.3215,17.14858 -155.6096,71.89033 -306.68452,61.61068 -470.20895,-22.68688 -12.09684,1.23075 -10.57337,-9.11448 -39.09395,3.09378 -0.39689,11.27862 11.83756,26.60341 17.15639,30.93754 182.45464,98.85823 350.13221,100.70955 525.09661,13.2188 6.6524,-4.09283 7.2423,-5.06961 9.5625,-11.81255 85.241,-341.84007 10.6145,-706.18571 361.6744,-1139.23474 z"
       id="path3866"
       inkscape:connector-curvature="0"
       sodipodi:nodetypes="cccccccccc" />
  </g>
  <g
     inkscape:groupmode="layer"
     id="layer13"
     inkscape:label="Cm"
     style="display:inline"
     transform="translate(1106.13,-3.4091398e-5)">
    <path
       style="font-size:medium;font-style:normal;font-variant:normal;font-weight:normal;font-stretch:normal;text-indent:0;text-align:start;text-decoration:none;line-height:normal;letter-spacing:normal;word-spacing:normal;text-transform:none;direction:ltr;block-progression:tb;writing-mode:lr-tb;text-anchor:start;baseline-shift:baseline;color:#000000;fill:#a75dbe;fill-opacity:1;stroke:none;stroke-width:4.5;marker:none;visibility:visible;display:inline;overflow:visible;enable-background:accumulate;font-family:Sans;-inkscape-font-specification:Sans"
       d="m 1482.0867,5073.3588 c -27.621,1.9728 -50.4307,15.7554 -61.0312,36.8433 -10.6005,21.0888 -10.3785,45.864 -5.0625,72 7.7401,38.0556 29.43,80.7606 55.4062,123.4692 -0.3915,0.9864 -0.7335,1.8252 -1.125,2.8125 -23.7397,59.9013 -48.0384,122.4198 -52.3125,178.0317 -2.137,27.8055 0.6912,54.7308 13.5,77.625 12.8085,22.8933 35.7855,40.1958 66.6563,48.6558 34.5156,9.459 69.8964,-1.4355 99.2812,-20.8125 29.3849,-19.377 53.9556,-47.7693 70.3125,-78.75 0.9527,-1.8045 1.0715,-3.7989 1.9688,-5.625 17.0025,7.8228 34.0785,13.9347 51.1875,14.9067 25.7205,1.4598 51.8661,-7.8786 70.5937,-28.6884 5.5518,-21.123 4.5678,-29.0214 -9.0337,-34.1019 -4.9617,-2.2104 -5.2637,0.09 -8.9238,2.4849 -12.7505,10.8576 -35.9985,20.6055 -50.105,19.8054 -11.2021,-0.639 -28.4161,-6.8211 -43.0312,-13.7817 8.8686,-73.8855 -30.8178,-107.8236 -78.4688,-117.5625 -16.09,-3.0096 -36.6764,2.3463 -50.9381,8.0271 -18.7675,-24.6677 -28.0539,-43.3833 -34.5619,-57.2463 20.5383,-51.2757 40.4979,-100.6263 45.8438,-141.4683 3.0616,-23.3901 1.8868,-46.3221 -12.375,-64.125 -14.2619,-17.8029 -38.8971,-24.5628 -67.7813,-22.5 z m 3.0938,40.5 c 21.8416,-1.5597 29.2689,2.772 32.9062,7.3125 3.6374,4.5405 6.3141,15.3117 3.9375,33.4692 -3.3507,25.5987 -16.8822,63.1323 -32.3437,103.2183 -16.2333,-30.6297 -29.1998,-60.0579 -34.0313,-83.8125 -4.2862,-21.0735 -2.6158,-37.0008 1.6875,-45.5625 4.3035,-8.5617 10.0161,-13.3515 27.8438,-14.625 z m 12.9375,235.6875 c 0.9369,1.3086 1.5846,2.6334 2.5312,3.9375 6.3426,8.739 14.0766,16.0056 20.8125,24.4683 -8.8701,7.9254 -17.0602,16.6554 -23.625,25.875 -11.4259,16.0488 -19.5456,33.5565 -19.6875,52.5942 -0.1425,19.0377 12.4712,39.996 33.1875,47.8125 13.5228,5.1021 26.5961,1.2762 36.5625,-3.9375 9.9666,-5.2137 18.4484,-12.3669 26.1563,-19.9692 8.9586,-8.8353 13.0957,-12.0384 19.125,-20.2095 13.539,11.9007 27.2506,22.554 41.0625,31.7808 -1.0251,2.1996 -1.0886,0.288 -2.25,2.4921 -13.0967,24.8058 -34.2678,48.7908 -57.0938,63.8433 -22.8259,15.0525 -46.1556,20.9331 -66.0937,15.4683 -22.9334,-6.2847 -34.5068,-16.3044 -41.9063,-29.5308 -7.3995,-13.2264 -10.1995,-31.6368 -8.4375,-54.5625 3.0017,-39.0564 20.2241,-89.3205 39.6563,-140.0625 z m 142.6012,98.5578 c -22.4547,-14.7647 -50.996,-36.7924 -67.5968,-61.0383 45.0884,-13.41 71.0287,26.0175 67.5968,61.0383 z m -71.3932,-8.9799 c -9.7988,16.7661 -23.2652,30.3993 -40.3869,34.7184 -41.3562,10.9214 -11.781,-82.8106 16.0314,-65.5527 10.1672,6.3089 12.1362,14.1418 24.3555,30.8343 z"
       id="path3869"
       inkscape:connector-curvature="0"
       sodipodi:nodetypes="scsccsssscccccccccccssscsscsscccccccsccccscssccccccsc" />
    <path
       sodipodi:type="arc"
       style="fill:#a75dbe;fill-opacity:1;fill-rule:evenodd;stroke:none"
       id="path3875"
       sodipodi:cx="1591.5"
       sodipodi:cy="5429.1626"
       sodipodi:rx="22.75"
       sodipodi:ry="18.75"
       d="m 1614.25,5429.1626 c 0,10.3553 -10.1855,18.75 -22.75,18.75 -12.5645,0 -22.75,-8.3947 -22.75,-18.75 0,-10.3553 10.1855,-18.75 22.75,-18.75 12.5645,0 22.75,8.3947 22.75,18.75 z"
       transform="matrix(1.1098901,0,0,1.48,-196.39011,-2595.9981)" />
  </g>
  <g
     inkscape:groupmode="layer"
     id="layer3"
     inkscape:label="Arm"
     style="display:inline"
     transform="translate(1074.9668,6466.8862)">
    <path
       style="fill:#bbb8b1;fill-opacity:1;stroke:none"
       d="m 2084.452,-2053.4953 301.5017,-153.0004 202.5013,-31.5002 121.5004,9 112.5006,103.5002 99.0007,153.0004 13.5,157.5004 13.5,139.5003 -31.5003,99.0003 -58.5002,148.5004 -162.0007,148.5003 -81.0007,-54 -85.5003,-85.5003 -58.5002,-103.5002 -45.0002,-135.0004 9.0001,-94.5002 z"
       id="path4263"
       inkscape:connector-curvature="0" />
    <path
       style="font-size:medium;font-style:normal;font-variant:normal;font-weight:normal;font-stretch:normal;text-indent:0;text-align:start;text-decoration:none;line-height:normal;letter-spacing:normal;word-spacing:normal;text-transform:none;direction:ltr;block-progression:tb;writing-mode:lr-tb;text-anchor:start;baseline-shift:baseline;color:#000000;fill:#676153;fill-opacity:1;stroke:none;stroke-width:4;marker:none;visibility:visible;display:inline;overflow:visible;enable-background:accumulate;font-family:Sans;-inkscape-font-specification:Sans"
       d="m 1888.4101,-2349.0803 -3.9472,5.3881 c -5.4392,6.4056 -1.8975,7.1502 1.6131,11.039 l 16.0026,3.0418 c 180.0731,-36.9286 264.9379,127.5869 266.637,222.7355 l 32.2431,-16.5814 c -7.4745,-154.0937 -128.2024,-290.1035 -312.5486,-225.623 z"
       id="path3807"
       inkscape:connector-curvature="0"
       sodipodi:nodetypes="ccccccc" />
    <path
       style="font-size:medium;font-style:normal;font-variant:normal;font-weight:normal;font-stretch:normal;text-indent:0;text-align:start;text-decoration:none;line-height:normal;letter-spacing:normal;word-spacing:normal;text-transform:none;direction:ltr;block-progression:tb;writing-mode:lr-tb;text-anchor:start;baseline-shift:baseline;color:#000000;fill:#676153;fill-opacity:1;stroke:none;stroke-width:4;marker:none;visibility:visible;display:inline;overflow:visible;enable-background:accumulate;font-family:Sans;-inkscape-font-specification:Sans"
       d="m 2043.263,-2012.6211 c 183.0315,-72.7931 422.8938,-249.515 642.4061,-195.7216 89.1359,21.8434 226.5088,208.3834 234.254,427.7061 6.4199,181.7917 -57.1163,360.5463 -224.3547,478.8409 -6.1541,6 -9.6786,1.1928 -15.0527,-2.9215 -215.9852,-168.3625 -222.4125,-317.6726 -230.1555,-456.5589 l -35.719,3.3752 c 9.8714,129.2454 -8.2707,312.2168 259.8291,492.0456 7.9753,5.3498 31.9829,1.835 43.2888,-3.7039 257.3068,-126.0583 406.1558,-682.7403 6.1626,-977.2411 -233.232,-87.6757 -599.6637,137.3918 -680.6587,234.1797 z"
       id="path3809"
       inkscape:connector-curvature="0"
       sodipodi:nodetypes="cssccccssccc" />
    <path
       style="font-size:medium;font-style:normal;font-variant:normal;font-weight:normal;font-stretch:normal;text-indent:0;text-align:start;text-decoration:none;line-height:normal;letter-spacing:normal;word-spacing:normal;text-transform:none;direction:ltr;block-progression:tb;writing-mode:lr-tb;text-anchor:start;baseline-shift:baseline;color:#000000;fill:#676153;fill-opacity:1;stroke:none;stroke-width:4;marker:none;visibility:visible;display:inline;overflow:visible;enable-background:accumulate;font-family:Sans;-inkscape-font-specification:Sans"
       d="m 1865.2523,-2015.56 c -64.3167,124.5845 58.1287,321.9539 153.3678,335.2746 156.3594,21.8694 468.543,-60.5025 547.1965,-118.2968 l -25.4653,-5.8729 c -143.0776,36.302 -370.029,105.8534 -513.2937,88.1601 -85.3234,-23.891 -163.677,-203.984 -161.8053,-299.265 z"
       id="path3811"
       inkscape:connector-curvature="0"
       sodipodi:nodetypes="cscccc" />
    <path
       style="fill:#bbb8b1;fill-opacity:1;stroke:none"
       d="m 3493.3788,-3400.1735 -167.1234,0.3735 -29.7627,-96.6289 -110.1766,-59.662 -100.2328,-141.5987 -19.0924,-189.3281 4.7733,-152.7356 38.1842,-159.0993 68.4126,28.638 152.736,124.0975 111.3698,106.5964 60.458,100.2327 47.7301,97.0506 17.501,57.2759 -4.7731,101.8235 c -13.7317,21.2854 -45.6297,128.9241 -70.004,182.9645 z"
       id="path4285"
       inkscape:connector-curvature="0"
       sodipodi:nodetypes="ccccccccccccccccc" />
    <path
       style="font-size:medium;font-style:normal;font-variant:normal;font-weight:normal;font-stretch:normal;text-indent:0;text-align:start;text-decoration:none;line-height:normal;letter-spacing:normal;word-spacing:normal;text-transform:none;direction:ltr;block-progression:tb;writing-mode:lr-tb;text-anchor:start;baseline-shift:baseline;color:#000000;fill:#676153;fill-opacity:1;stroke:none;stroke-width:3.70000005;marker:none;visibility:visible;display:inline;overflow:visible;enable-background:accumulate;font-family:Sans;-inkscape-font-specification:Sans"
       d="m 3092.763,-4204.4164 c -101.402,272.9216 -79.1161,756.3402 287.5706,711.4048 14.3774,-0.5445 -7.5955,-10.824 -11.0496,-13.7225 -320.6806,-35.1523 -317.4574,-388.7779 -253.3106,-657.3993 1.0919,-12.1531 7.2797,-5.4901 14.3814,-1.2474 268.1749,138.92 323.5496,288.3392 406.41,448.2937 14.0537,24.6061 9.3591,42.9101 6.3444,70.9667 -23.6031,133.4026 -44.7774,182.2386 -75.828,245.979 13.6437,0.2285 26.3046,-0.5254 40.9495,0.7039 36.2314,-109.3086 102.4213,-233.3153 67.8061,-321.3006 -57.2228,-145.4506 -116.2406,-228.1924 -201.5698,-321.4294 -51.0351,-55.7648 -146.995,-130.7255 -235.0098,-160.2405 -10.4771,-6.1543 -40.0149,-18.9789 -46.6942,-2.0085 z"
       id="path3813"
       inkscape:connector-curvature="0"
       sodipodi:nodetypes="cccccccccssccc" />
  </g>
  <g
     inkscape:groupmode="layer"
     id="layer4"
     inkscape:label="Head"
     style="display:inline"
     transform="translate(1074.9668,6466.8862)">
    <path
       style="fill:#bbb8b1;fill-opacity:1;stroke:none"
       d="m 2176.8271,-2959.4683 212.3983,-117.7334 206.8299,-187.7374 c 30.9843,-47.6776 78.4779,-91.8045 71.5951,-152.7356 l 23.8649,-57.2757 9.5461,-49.3209 11.1368,-70.0034 -6.3641,-95.46 -20.6828,-68.4127 c -9.295,-31.4574 -130.3308,18.0751 -73.5057,7.1829 -54.8854,1.1739 -35.6776,-17.1916 -69.2818,-51.9401 l -9.4658,-26.7575 -29.1209,-38.2638 -41.3658,-62.0487 -39.422,-56.3769 c -115.5603,-153.8459 -188.4209,-167.4492 -276.8336,-237.1382 l -52.8561,-18.3199 -128.8707,15.9099 -537.7578,342.0638 -230.6948,152.7353 -159.0999,-77.9584 -97.05096,-27.0471 -125.68891,-17.5009 -108.18801,-14.3189 -23.86501,25.4559 -6.36387,63.6397 22.38695,150.2926 96.93791,194.9532 c 0,0 85.91387,103.4145 89.09588,109.7787 3.18213,6.3639 157.50902,117.7333 157.50902,117.7333 l 216.3758,81.1407 81.1409,0 33.4111,71.5948 292.7437,464.5704 420.0238,-85.9138 246.6049,-100.2325 c 0,0 -41.366,-68.413 -52.503,-74.7768 -11.1372,-6.3639 -92.278,-95.4598 -92.278,-95.4598"
       id="path4211"
       inkscape:connector-curvature="0"
       sodipodi:nodetypes="ccccccccccccccccccccccccccccccccccccsc" />
    <path
       style="font-size:medium;font-style:normal;font-variant:normal;font-weight:normal;font-stretch:normal;text-indent:0;text-align:start;text-decoration:none;line-height:normal;letter-spacing:normal;word-spacing:normal;text-transform:none;direction:ltr;block-progression:tb;writing-mode:lr-tb;text-anchor:start;baseline-shift:baseline;color:#000000;fill:#676153;fill-opacity:1;stroke:none;stroke-width:4;marker:none;visibility:visible;display:inline;overflow:visible;enable-background:accumulate;font-family:Sans;-inkscape-font-specification:Sans"
       d="m 725.44463,-3889.4997 c -20.70623,-0.4077 -51.94592,-1.1056 -59.90613,21.0937 -40.95856,444.7255 369.5464,787.5218 685.8247,748.3262 l 14.6995,-18.1958 c -393.18854,21.4362 -716.47841,-471.5556 -667.52876,-704.1402 0.73111,-3.4722 1.11784,-7.0997 4.14884,-9.8136 5.74684,-0.5454 11.2745,-1.5106 21.9185,-1.2699 24.57892,0.5554 60.59104,3.7846 105.18803,11.5313 54.76801,9.5134 122.56917,25.789 198.70779,51.9152 84.5976,32.3879 172.9258,103.9729 213.9742,102.7471 -145.5464,-130.0922 -276.52387,-177.5336 -406.49442,-190.0998 -46.12264,-8.0123 -83.58373,-11.4858 -110.53225,-12.0942 z"
       id="path3816"
       inkscape:connector-curvature="0"
       sodipodi:nodetypes="ccccsccscccc" />
    <path
       style="font-size:medium;font-style:normal;font-variant:normal;font-weight:normal;font-stretch:normal;text-indent:0;text-align:start;text-decoration:none;line-height:normal;letter-spacing:normal;word-spacing:normal;text-transform:none;direction:ltr;block-progression:tb;writing-mode:lr-tb;text-anchor:start;baseline-shift:baseline;color:#000000;fill:#676153;fill-opacity:1;stroke:none;stroke-width:4;marker:none;visibility:visible;display:inline;overflow:visible;enable-background:accumulate;font-family:Sans;-inkscape-font-specification:Sans"
       d="m 2138.1469,-4202.7145 c 249.4442,92.2607 442.4857,448.2344 408.8864,464.7505 26.6085,-8.2485 21.6973,-5.1588 37.8228,-14.2901 0.5597,-7.0284 -202.2817,-363.728 -433.9923,-484.2631 -8.886,18.2555 -7.8538,16.6493 -12.7169,33.8027 z"
       id="path3818"
       inkscape:connector-curvature="0"
       sodipodi:nodetypes="ccccc" />
    <path
       style="font-size:medium;font-style:normal;font-variant:normal;font-weight:normal;font-stretch:normal;text-indent:0;text-align:start;text-decoration:none;line-height:normal;letter-spacing:normal;word-spacing:normal;text-transform:none;direction:ltr;block-progression:tb;writing-mode:lr-tb;text-anchor:start;baseline-shift:baseline;color:#000000;fill:#676153;fill-opacity:1;stroke:none;stroke-width:4;marker:none;visibility:visible;display:inline;overflow:visible;enable-background:accumulate;font-family:Sans;-inkscape-font-specification:Sans"
       d="m 2703.5964,-3606.1248 c 2.7576,147.4664 -103.7489,173.8511 -188.8931,221.0385 -5.3004,2.9375 23.4365,-3.5964 18.6431,-0.9773 67.7579,-7.5838 137.2571,-39.2632 167.5614,-92.6815 38.3223,-67.5492 33.7778,-147.8901 21.9089,-213.3384 -28.1302,-155.1185 -97.9299,-81.5236 -201.4825,-56.6021 -22.5519,5.4275 -48.4548,9.7861 -76.1921,7.5698 183.1072,57.6222 240.1763,-158.6003 258.4543,134.991 z"
       id="path3820"
       inkscape:connector-curvature="0"
       sodipodi:nodetypes="cscssscc" />
    <path
       style="font-size:medium;font-style:normal;font-variant:normal;font-weight:normal;font-stretch:normal;text-indent:0;text-align:start;text-decoration:none;line-height:normal;letter-spacing:normal;word-spacing:normal;text-transform:none;direction:ltr;block-progression:tb;writing-mode:lr-tb;text-anchor:start;baseline-shift:baseline;color:#000000;fill:#676153;fill-opacity:1;fill-rule:nonzero;stroke:none;stroke-width:4;marker:none;visibility:visible;display:inline;overflow:visible;enable-background:accumulate;font-family:Sans;-inkscape-font-specification:Sans"
       d="m 2670.8227,-3463.7403 c -20.3783,266.2355 -534.7643,509.7053 -617.1223,537.4286 58.3876,32.5314 573.6195,-213.6206 639.8331,-515.268 12.2548,-55.8282 -12.6281,-11.3106 6.6771,-82.9224 z"
       id="path3822"
       inkscape:connector-curvature="0"
       sodipodi:nodetypes="ccscc" />
    <path
       style="font-size:medium;font-style:normal;font-variant:normal;font-weight:normal;font-stretch:normal;text-indent:0;text-align:start;text-decoration:none;line-height:normal;letter-spacing:normal;word-spacing:normal;text-transform:none;direction:ltr;block-progression:tb;writing-mode:lr-tb;text-anchor:start;baseline-shift:baseline;color:#000000;fill:#676153;fill-opacity:1;stroke:none;stroke-width:4;marker:none;visibility:visible;display:inline;overflow:visible;enable-background:accumulate;font-family:Sans;-inkscape-font-specification:Sans"
       d="m 1632.5168,-2626.5305 45.6999,-2.5937 c -230.764,-356.2521 -270.2532,-386.1407 -325.648,-498.029 -16.5173,7.9186 -19.5187,-3.9306 -37.9287,8.7258 26.7714,73.6594 198.7026,317.0443 317.8768,491.8969 z"
       id="path3824"
       inkscape:connector-curvature="0"
       sodipodi:nodetypes="ccccc" />
    <path
       style="font-size:medium;font-style:normal;font-variant:normal;font-weight:normal;font-stretch:normal;text-indent:0;text-align:start;text-decoration:none;line-height:normal;letter-spacing:normal;word-spacing:normal;text-transform:none;direction:ltr;block-progression:tb;writing-mode:lr-tb;text-anchor:start;baseline-shift:baseline;color:#000000;fill:#676153;fill-opacity:1;fill-rule:nonzero;stroke:none;stroke-width:3;marker:none;visibility:visible;display:inline;overflow:visible;enable-background:accumulate;font-family:Sans;-inkscape-font-specification:Sans"
       d="m 2197.1863,-2968.926 -33.2925,19.5708 c 24.5503,28.8687 75.4943,88.0127 117.401,142.5203 l 43.5603,2.8864 c -39.6568,-69.1189 -103.1224,-136.1134 -127.6688,-164.9775 z"
       id="path3826"
       inkscape:connector-curvature="0"
       sodipodi:nodetypes="ccccc" />
    <path
       style="font-size:medium;font-style:normal;font-variant:normal;font-weight:normal;font-stretch:normal;text-indent:0;text-align:start;text-decoration:none;line-height:normal;letter-spacing:normal;word-spacing:normal;text-transform:none;direction:ltr;block-progression:tb;writing-mode:lr-tb;text-anchor:start;baseline-shift:baseline;color:#000000;fill:#676153;fill-opacity:1;fill-rule:nonzero;stroke:none;stroke-width:2;marker:none;visibility:visible;display:inline;overflow:visible;enable-background:accumulate;font-family:Sans;-inkscape-font-specification:Sans"
       d="m 2602.2339,-3636.3335 c -17.8698,40.5153 -33.3445,50.3004 -73.1137,27.8219 47.1039,64.6005 80.008,7.9494 73.1137,-27.8219 z"
       id="path3845"
       inkscape:connector-curvature="0"
       sodipodi:nodetypes="ccc" />
    <path
       style="font-size:medium;font-style:normal;font-variant:normal;font-weight:normal;font-stretch:normal;text-indent:0;text-align:start;text-decoration:none;line-height:normal;letter-spacing:normal;word-spacing:normal;text-transform:none;direction:ltr;block-progression:tb;writing-mode:lr-tb;text-anchor:start;baseline-shift:baseline;color:#000000;fill:#676153;fill-opacity:1;fill-rule:nonzero;stroke:none;stroke-width:4;marker:none;visibility:visible;display:inline;overflow:visible;enable-background:accumulate;font-family:Sans;-inkscape-font-specification:Sans"
       d="m 1204.6092,-3328.8577 c -76.6418,-55.7749 -219.47196,-134.4966 -342.32606,-287.17 -10.68425,3.1353 37.12589,93.0658 139.21626,173.9589 49.08,38.8894 145.5683,92.8482 160.9357,98.8871 18.2765,7.1823 42.1741,14.324 42.1741,14.324 z"
       id="path3847"
       inkscape:connector-curvature="0"
       sodipodi:nodetypes="ccssc" />
  </g>
  <g
     inkscape:groupmode="layer"
     id="layer7"
     inkscape:label="Hair Forhead"
     style="display:inline"
     transform="translate(1074.9668,6466.8862)">
    <path
       style="fill:#333333;fill-opacity:1;stroke:none;display:inline"
       d="m 1012.5242,-3834.6712 41.8531,-388.0463 47.73,-197.2832 114.5519,-181.3735 194.1019,-120.9155 c 80.5911,-29.8742 162.5463,-47.4716 245.0138,-60.4577 l 189.3291,28.638 147.9627,73.1858 82.732,101.8234 60.458,143.1895 6.3638,197.2833 -57.2759,190.9192 -9.5459,-114.5516 -28.6381,-89.0957 -60.458,73.1858 -89.0958,124.0975 -184.5558,203.6473 -165.4639,114.5516 -241.832,114.5518 -134.9698,31.0241 c 26.339,-68.3545 73.6874,-98.0493 37.7836,-123.7073 2.9002,-2.5852 -106.4922,-87.8251 -196.0447,-120.6665 z"
       id="path4219"
       inkscape:connector-curvature="0"
       sodipodi:nodetypes="cccccccccccccccccccccc" />
    <path
       style="font-size:medium;font-style:normal;font-variant:normal;font-weight:normal;font-stretch:normal;text-indent:0;text-align:start;text-decoration:none;line-height:normal;letter-spacing:normal;word-spacing:normal;text-transform:none;direction:ltr;block-progression:tb;writing-mode:lr-tb;text-anchor:start;baseline-shift:baseline;color:#000000;fill:#666666;fill-opacity:1;stroke:none;stroke-width:0.2;marker:none;visibility:visible;display:inline;overflow:visible;enable-background:accumulate;font-family:Sans;-inkscape-font-specification:Sans"
       d="m 1690.6781,-4671.5797 c -18.6717,1.3853 -37.7087,4.5929 -56.8128,9.8441 -152.8339,42.0091 -314.3215,201.9512 -376.3147,417.9383 -36.2209,126.1952 -86.4952,333.0074 -202.9045,427.5155 l 17.1534,9.0337 c 122.5458,-99.4898 163.4904,-307.0397 199.5324,-432.6116 60.6775,-211.403 219.9164,-367.6074 366.1895,-407.8135 73.1367,-20.1031 142.6103,-11.5959 196.3137,32.3438 49.3592,40.3852 84.8669,113.2718 97.5942,222.1881 -23.1897,-39.7604 -49.5703,-71.5443 -75.6568,-104.0627 l -15.0435,-20.0537 3.6971,25.1161 c 24.369,190.7115 5.8028,304.6258 -29.716,381.657 -34.7055,75.2669 -88.8123,126.5753 -144.8447,183.0944 18.0486,-77.5592 33.9147,-155.2899 23.0625,-247.2192 l -3.5282,-21.8123 -7.1592,20.6873 c -39.2693,126.0913 -121.6165,255.3043 -264.6578,379.4075 1.2504,-89.1869 -10.4624,-183.3775 -64.9691,-228.938 l -10.125,-8.4376 -1.4063,13.2187 c -12.6412,105.1707 -0.154,245.529 -119.4203,354.7301 l -8.0027,21.0772 c 127.4837,-95.1771 129.5013,-253.7976 140.0792,-358.6514 41.6537,46.5526 52.4699,137.3038 49.7816,222.7506 l -0.5625,16.0311 12.3751,-10.4062 c 140.445,-118.5699 221.8694,-243.7517 266.3452,-366.1884 4.0746,84.5346 -13.2725,159.2671 -30.9377,235.1256 l -5.9063,25.3125 18.0001,-18.5625 c 62.0656,-63.7483 124.764,-118.7174 164.8135,-205.0317 37.9507,-81.7912 53.7845,-193.0907 32.0627,-363.0946 28.5768,36.6969 55.2505,61.9773 86.3442,129.3751 9.2957,-97.8068 -32.7196,-235.3648 -103.2194,-288.563 -43.2916,-35.4211 -96.1428,-49.1557 -152.1569,-45.0003 z"
       id="path4161"
       inkscape:connector-curvature="0"
       sodipodi:nodetypes="sssccsssccccsccccccccccccccccccscccs" />
    <path
       style="font-size:medium;font-style:normal;font-variant:normal;font-weight:normal;font-stretch:normal;text-indent:0;text-align:start;text-decoration:none;line-height:normal;letter-spacing:normal;word-spacing:normal;text-transform:none;direction:ltr;block-progression:tb;writing-mode:lr-tb;text-anchor:start;baseline-shift:baseline;color:#000000;fill:#000000;fill-opacity:1;stroke:none;stroke-width:4;marker:none;visibility:visible;display:inline;overflow:visible;enable-background:accumulate;font-family:Sans;-inkscape-font-specification:Sans"
       d="m 1665.9498,-4803.002 c -298.3474,-2.952 -624.0753,218.5197 -646.5973,706.5018 0.1064,-2.2948 -0.3011,4.7336 -0.8429,12.3749 -0.5426,7.6412 -1.3346,18.1627 -2.25,30.9376 -1.8308,25.5496 -4.3247,59.3345 -6.75,93.0939 -0.842,39.7835 -7.8813,87.7764 -10.83731,119.434 l 37.11101,15.5727 c 0.8961,-12.1384 2.06,-26.6107 2.9769,-39.3814 1.826,-25.552 4.3246,-59.3357 6.7501,-93.094 2.4252,-33.7585 4.9187,-67.2559 6.75,-92.8129 0.9157,-12.7783 1.7063,-23.562 2.25,-31.2186 0.5436,-7.6564 0.695,-9.9835 0.8429,-13.2187 23.2704,-504.2002 372.1593,-701.5407 665.7224,-668.8144 146.7815,16.3636 278.8637,90.7195 350.4394,214.5944 63.6782,110.2068 79.627,228.3901 23.8898,415.2324 -1.76,-49.1327 -6.7139,-80.4511 -46.7594,-159.8732 -152.4662,230.2774 -312.3015,439.5941 -513.1959,550.1427 -132.9365,75.7238 -251.4477,114.8727 -342.4197,143.6543 41.9519,-79.4729 87.6242,-201.3521 7.4491,-278.6545 43.1507,115.6554 -23.1235,242.2129 -52.8753,314.7195 67.1532,-9.9912 241.1188,-52.496 404.7211,-145.6879 155.6912,-88.6858 267.9749,-160.1006 491.8689,-496.5771 11.647,-0.9578 23.3004,106.3702 29.8927,208.706 105.0112,-166.7033 121.0489,-416.5899 28.6476,-569.6622 -80.6179,-133.5517 -221.3292,-214.8784 -377.7213,-232.3131 -19.5491,-2.1794 -39.173,-3.4593 -59.0628,-3.6562 z"
       id="path4143"
       inkscape:connector-curvature="0"
       sodipodi:nodetypes="sccsccccssccssccccccsccsss" />
    <path
       style="fill:#333333;fill-opacity:1;stroke:none"
       d="m 1412.3521,-1390.7481 160.6909,-28.638 -17.501,50.9119 -66.8219,58.8667 -92.2781,44.5479 -101.8238,3.1819 24.2345,-170.7967 z"
       id="path4261"
       inkscape:connector-curvature="0"
       sodipodi:nodetypes="cccccccc" />
    <path
       style="font-size:medium;font-style:normal;font-variant:normal;font-weight:normal;font-stretch:normal;text-indent:0;text-align:start;text-decoration:none;line-height:normal;letter-spacing:normal;word-spacing:normal;text-transform:none;direction:ltr;block-progression:tb;writing-mode:lr-tb;text-anchor:start;baseline-shift:baseline;color:#000000;fill:#000000;fill-opacity:1;stroke:none;stroke-width:4;marker:none;visibility:visible;display:inline;overflow:visible;enable-background:accumulate;font-family:Sans;-inkscape-font-specification:Sans"
       d="m 1116.0568,-3153.5695 c -15.5459,-5.9659 -24.5552,-10.455 -36.7977,-15.5067 65.534,487.8633 -24.5012,960.7778 1.4062,1385.0189 12.8378,210.2219 53.756,345.1586 102.0944,429.751 48.3384,84.5926 111.4226,118.2197 172.9697,116.719 61.547,-1.5006 119.02,-35.049 164.8132,-74.5314 56.0159,-46.8898 82.8288,-91.9593 110.532,-156.0941 -74.4946,41.3767 -168.0976,72.1184 -242.7201,47.8126 -51.7131,-17.9111 -92.2723,-60.3544 -123.4694,-117.2815 -79.2984,-166.6611 -80.5962,-208.3701 -101.0507,-348.5041 -5.617,116.7444 1.7646,242.2492 69.5505,365.9417 33.8929,61.8462 80.3661,112.1273 143.157,133.8752 49.473,17.1353 108.1216,14.633 174.9386,-10.4062 -14.7335,18.816 -33.3391,39.0762 -54.5629,57.3751 -41.9872,36.2007 -93.3956,64.6269 -142.032,65.8127 -48.6365,1.1858 -96.9573,-21.8067 -140.9071,-98.719 -43.9497,-76.9124 -88.8998,-207.3573 -97.5943,-414.8447 -19.6914,-469.9251 74.8063,-882.21 -0.3271,-1366.4185 z"
       id="path4147"
       inkscape:connector-curvature="0"
       sodipodi:nodetypes="ccssscccccsscsssscc" />
  </g>
  <g
     inkscape:groupmode="layer"
     id="layer5"
     inkscape:label="Eye"
     style="display:inline"
     transform="translate(1074.9668,6466.8862)">
    <path
       style="font-size:medium;font-style:normal;font-variant:normal;font-weight:normal;font-stretch:normal;text-indent:0;text-align:start;text-decoration:none;line-height:normal;letter-spacing:normal;word-spacing:normal;text-transform:none;direction:ltr;block-progression:tb;writing-mode:lr-tb;text-anchor:start;baseline-shift:baseline;color:#000000;fill:#000000;fill-opacity:1;stroke:none;stroke-width:3;marker:none;visibility:visible;display:inline;overflow:visible;enable-background:accumulate;font-family:Sans;-inkscape-font-specification:Sans"
       d="m 2189.4662,-3621.963 c -25.2427,-4.8018 -36.9224,-0.853 -30.2011,15.9639 189.446,229.7232 -127.7056,483.8348 -375.2887,451.2975 -3.3977,-0.6147 -6.2212,-1.6821 -5.1719,2.9166 0.015,2.9248 -1.2728,4.4135 12.7336,22.89 141.7857,29.9718 222.8901,6.8287 332.4589,-70.3996 159.0966,-112.138 181.0823,-340.1735 65.4692,-422.6684 z"
       id="path3829"
       inkscape:connector-curvature="0"
       sodipodi:nodetypes="cccccsc" />
    <path
       style="font-size:medium;font-style:normal;font-variant:normal;font-weight:normal;font-stretch:normal;text-indent:0;text-align:start;text-decoration:none;line-height:normal;letter-spacing:normal;word-spacing:normal;text-transform:none;direction:ltr;block-progression:tb;writing-mode:lr-tb;text-anchor:start;baseline-shift:baseline;color:#000000;fill:#000000;fill-opacity:1;stroke:none;stroke-width:3;marker:none;visibility:visible;display:inline;overflow:visible;enable-background:accumulate;font-family:Sans;-inkscape-font-specification:Sans"
       d="m 1804.5307,-3140.0049 c -70.3774,65.6943 -119.2623,75.1676 -175.9255,86.127 79.8327,42.7121 164.9245,-33.0852 204.8632,-72.9749 z"
       id="path3831"
       inkscape:connector-curvature="0"
       sodipodi:nodetypes="cccc" />
    <path
       style="font-size:medium;font-style:normal;font-variant:normal;font-weight:normal;font-stretch:normal;text-indent:0;text-align:start;text-decoration:none;line-height:normal;letter-spacing:normal;word-spacing:normal;text-transform:none;direction:ltr;block-progression:tb;writing-mode:lr-tb;text-anchor:start;baseline-shift:baseline;color:#000000;fill:#000000;fill-opacity:1;stroke:none;stroke-width:3;marker:none;visibility:visible;display:inline;overflow:visible;enable-background:accumulate;font-family:Sans;-inkscape-font-specification:Sans"
       d="m 1874.6193,-3130.0773 c -22.6663,33.1556 -57.0123,59.6982 -103.9562,78.2127 68.4341,22.8287 132.2409,-51.953 143.3506,-67.571 z"
       id="path3833"
       inkscape:connector-curvature="0"
       sodipodi:nodetypes="cccc" />
    <path
       style="font-size:medium;font-style:normal;font-variant:normal;font-weight:normal;font-stretch:normal;text-indent:0;text-align:start;text-decoration:none;line-height:normal;letter-spacing:normal;word-spacing:normal;text-transform:none;direction:ltr;block-progression:tb;writing-mode:lr-tb;text-anchor:start;baseline-shift:baseline;color:#000000;fill:#000000;fill-opacity:1;stroke:none;stroke-width:3;marker:none;visibility:visible;display:inline;overflow:visible;enable-background:accumulate;font-family:Sans;-inkscape-font-specification:Sans"
       d="m 1962.3363,-3137.6499 c -2.194,19.446 8.7383,32.3499 -96.9863,94.4976 87.4651,14.2624 143.6244,-75.2032 158.776,-109.504 z"
       id="path3835"
       inkscape:connector-curvature="0"
       sodipodi:nodetypes="cccc" />
    <path
       style="font-size:medium;font-style:normal;font-variant:normal;font-weight:normal;font-stretch:normal;text-indent:0;text-align:start;text-decoration:none;line-height:normal;letter-spacing:normal;word-spacing:normal;text-transform:none;direction:ltr;block-progression:tb;writing-mode:lr-tb;text-anchor:start;baseline-shift:baseline;color:#000000;fill:#000000;fill-opacity:1;stroke:none;stroke-width:3;marker:none;visibility:visible;display:inline;overflow:visible;enable-background:accumulate;font-family:Sans;-inkscape-font-specification:Sans"
       d="m 2428.7191,-3978.9777 c -0.2854,0.081 -6.0299,-1.9756 -8.5387,0.621 -1.6096,1.6663 -0.4254,10.5408 0.8563,13.6727 216.7772,256.264 -6.351,239.2721 -147.6901,102.5685 110.7725,195.8575 441.1201,166.8721 155.3721,-116.8624 z"
       id="path3837"
       inkscape:connector-curvature="0"
       sodipodi:nodetypes="cscccc" />
    <path
       style="font-size:medium;font-style:normal;font-variant:normal;font-weight:normal;font-stretch:normal;text-indent:0;text-align:start;text-decoration:none;line-height:normal;letter-spacing:normal;word-spacing:normal;text-transform:none;direction:ltr;block-progression:tb;writing-mode:lr-tb;text-anchor:start;baseline-shift:baseline;color:#000000;fill:#000000;fill-opacity:1;stroke:none;stroke-width:3;marker:none;visibility:visible;display:inline;overflow:visible;enable-background:accumulate;font-family:Sans;-inkscape-font-specification:Sans"
       d="m 2492.2179,-4034.9064 c -4.2558,34.609 -3.9722,73.7775 -43.9111,81.9798 l 21.4599,26.3017 c 43.0736,-15.5485 40.8701,-81.0178 22.4512,-108.2815 z"
       id="path3839"
       inkscape:connector-curvature="0"
       sodipodi:nodetypes="cccc" />
    <path
       style="font-size:medium;font-style:normal;font-variant:normal;font-weight:normal;font-stretch:normal;text-indent:0;text-align:start;text-decoration:none;line-height:normal;letter-spacing:normal;word-spacing:normal;text-transform:none;direction:ltr;block-progression:tb;writing-mode:lr-tb;text-anchor:start;baseline-shift:baseline;color:#000000;fill:#000000;fill-opacity:1;stroke:none;stroke-width:3;marker:none;visibility:visible;display:inline;overflow:visible;enable-background:accumulate;font-family:Sans;-inkscape-font-specification:Sans"
       d="m 2559.2047,-3981.7501 c -6.3478,27.2717 -27.5171,91.5803 -72.1998,79.8908 l 5.2355,27.6647 c 67.9666,3.1708 92.1497,-82.7029 66.9643,-107.5555 z"
       id="path3841"
       inkscape:connector-curvature="0"
       sodipodi:nodetypes="cccc" />
    <path
       style="font-size:medium;font-style:normal;font-variant:normal;font-weight:normal;font-stretch:normal;text-indent:0;text-align:start;text-decoration:none;line-height:normal;letter-spacing:normal;word-spacing:normal;text-transform:none;direction:ltr;block-progression:tb;writing-mode:lr-tb;text-anchor:start;baseline-shift:baseline;color:#000000;fill:#000000;fill-opacity:1;stroke:none;stroke-width:3;marker:none;visibility:visible;display:inline;overflow:visible;enable-background:accumulate;font-family:Sans;-inkscape-font-specification:Sans"
       d="m 2619.6739,-3920.9999 c -21.7386,52.5022 -42.0453,69.0577 -102.1257,77.4727 l 0.3118,36.4337 c 32.4195,-5.95 114.2061,-28.7338 101.8133,-113.9064 z"
       id="path3843"
       inkscape:connector-curvature="0"
       sodipodi:nodetypes="ccccc" />
  </g>
  <g
     inkscape:groupmode="layer"
     id="layer6"
     inkscape:label="Bowtie"
     style="display:inline"
     transform="translate(1074.9668,6466.8862)">
    <path
       style="fill:#ffffff;fill-opacity:1;stroke:none"
       d="m 1577.368,-2707.2616 52.5709,76.8897 347.9427,-59.8942 47.784,30.7184 44.3712,150.1782 -119.4605,25.5987 -305.4773,13.6526 -107.5143,-56.3169 -37.5447,-92.1549 10.2395,-32.4248 z"
       id="path4119"
       inkscape:connector-curvature="0"
       sodipodi:nodetypes="ccccccccccc" />
    <path
       style="font-size:medium;font-style:normal;font-variant:normal;font-weight:normal;font-stretch:normal;text-indent:0;text-align:start;text-decoration:none;line-height:normal;letter-spacing:normal;word-spacing:normal;text-transform:none;direction:ltr;block-progression:tb;writing-mode:lr-tb;text-anchor:start;baseline-shift:baseline;color:#000000;fill:#b5e1fa;fill-opacity:1;stroke:none;stroke-width:4;marker:none;visibility:visible;display:inline;overflow:visible;enable-background:accumulate;font-family:Sans;-inkscape-font-specification:Sans"
       d="m 1990.4949,-2732.5108 c -81.9033,30.2099 -178.2231,63.7421 -263.7948,80.2327 -42.7859,8.2454 -82.2804,13.9199 -115.0317,16.3126 -32.7516,2.3925 -59.0567,1.221 -72.0006,-2.5314 -5.8313,-1.6903 -7.244,-3.4572 -7.3125,-3.375 0.1186,-0.2412 0.1096,0.111 0.2803,-0.2808 2.9262,-6.6754 19.7212,-25.8013 55.215,-49.8159 l -20.3257,-29.6616 c -30.4757,20.6193 -47.8233,37.3532 -65.6808,54.8377 -4.2302,4.1421 -7.5004,8.7989 -11.0746,13.8545 -6.7669,9.5727 4.0528,21.0305 10.9286,31.0355 6.8756,10.0049 17.0447,14.8695 27.8437,17.9999 21.5982,6.2609 49.8868,6.4775 84.6568,3.9376 34.7699,-2.5402 75.7195,-8.4318 119.5321,-16.875 133.0676,-29.3653 340.7523,-49.0769 473.9901,-149.202 -5.3965,-20.0537 -16.0616,-52.6021 -31.7207,-65.083 -27.5502,3.6581 -128.9028,77.2433 -185.5056,98.6142 z"
       id="path3850"
       inkscape:connector-curvature="0"
       sodipodi:nodetypes="csssccccssssscccc" />
    <path
       style="font-size:medium;font-style:normal;font-variant:normal;font-weight:normal;font-stretch:normal;text-indent:0;text-align:start;text-decoration:none;line-height:normal;letter-spacing:normal;word-spacing:normal;text-transform:none;direction:ltr;block-progression:tb;writing-mode:lr-tb;text-anchor:start;baseline-shift:baseline;color:#000000;fill:#b5e1fa;fill-opacity:1;stroke:none;stroke-width:4;marker:none;visibility:visible;display:inline;overflow:visible;enable-background:accumulate;font-family:Sans;-inkscape-font-specification:Sans"
       d="m 1501.7059,-2666.9746 c -65.618,42.553 5.3077,137.7153 48.9308,168.8218 42.4059,30.239 102.8062,41.1187 167.0633,45.2813 128.5143,8.3253 277.7772,-18.179 361.4082,-46.125 l -11.2499,-34.3126 c -77.746,25.9794 -226.002,52.3165 -347.6269,44.4375 -60.8125,-3.9394 -114.9881,-16.5973 -149.9071,-39.3749 -34.9192,-22.7778 -52.3287,-52.559 -46.1254,-102.6565 z"
       id="path3852"
       inkscape:connector-curvature="0"
       sodipodi:nodetypes="cssccsscc" />
    <path
       style="fill:#ff98f3;fill-opacity:1;stroke:none"
       d="m 2359.3015,-2795.2204 67.4099,-157.0044 46.931,17.0658 68.2629,79.3555 c 0,0 22.1851,56.3169 23.0386,60.5831 0.8531,4.2666 -0.8536,141.6456 -0.8536,141.6456 l -157.0049,0 -15.3593,-106.6606 z"
       id="path4106"
       inkscape:connector-curvature="0" />
    <path
       style="font-size:medium;font-style:normal;font-variant:normal;font-weight:normal;font-stretch:normal;text-indent:0;text-align:start;text-decoration:none;line-height:normal;letter-spacing:normal;word-spacing:normal;text-transform:none;direction:ltr;block-progression:tb;writing-mode:lr-tb;text-anchor:start;baseline-shift:baseline;color:#000000;fill:#d272c4;fill-opacity:1;stroke:none;stroke-width:3.20000005;marker:none;visibility:visible;display:inline;overflow:visible;enable-background:accumulate;font-family:Sans;-inkscape-font-specification:Sans"
       d="m 2419.4225,-2967.2788 c -28.6644,47.9477 -56.6945,97.9211 -73.1251,157.2191 l -2.5314,9.2812 7.5939,5.9062 c 31.6542,24.481 45.0481,46.4454 50.9064,68.0628 5.8582,21.6174 3.8059,43.8715 1.1249,68.0626 l -1.6874,15.7501 15.75,0.2807 149.6258,1.6876 c 10.3859,-0.1396 12.9527,-3.1766 14.344,-12.6568 9.354,-81.2258 0.4968,-146.5151 -24.4689,-198.8442 -24.9659,-52.3292 -65.8627,-91.103 -118.1254,-120.094 -9.8565,-3.8165 -12.1898,-3.6041 -19.4068,5.3447 z m 18.6444,28.4471 c 42.0001,25.6698 72.8905,56.7832 93.0125,98.9593 20.7889,43.5736 28.9554,99.0143 22.5004,169.8755 l -120.3759,-1.125 c 1.8328,-20.1045 2.9176,-41.0986 -3.0937,-63.2814 -6.825,-25.1858 -24.1379,-50.5281 -53.1566,-75.3752 14.0548,-46.908 37.0174,-88.0898 61.1133,-129.0532 z"
       id="path3858"
       inkscape:connector-curvature="0"
       sodipodi:nodetypes="ccccscccccscccsccscc" />
    <path
       sodipodi:type="arc"
       style="fill:#ff98f3;fill-opacity:1;stroke:#d272c4;stroke-width:3.65833664;stroke-linecap:butt;stroke-linejoin:miter;stroke-miterlimit:4;stroke-opacity:1;stroke-dasharray:none"
       id="path3860"
       sodipodi:cx="286.51376"
       sodipodi:cy="412.51535"
       sodipodi:rx="12.70445"
       sodipodi:ry="13.747352"
       d="m 299.21821,412.51535 c 0,7.59245 -5.68797,13.74735 -12.70445,13.74735 -7.01647,0 -12.70445,-6.1549 -12.70445,-13.74735 0,-7.59245 5.68798,-13.74735 12.70445,-13.74735 7.01648,0 12.70445,6.1549 12.70445,13.74735 z"
       transform="matrix(8.2157178,0,0,8.2131242,-54.31989,-6083.9256)" />
    <path
       style="fill:#ff98f3;fill-opacity:1;stroke:none"
       d="m 1993.2353,-2746.6728 216.0053,1.2067 34.9951,55.5095 22.9279,103.7787 -41.0288,82.0575 -56.7166,107.3989 -71.1972,-78.4373 -79.6443,-135.1539 z"
       id="path4104"
       inkscape:connector-curvature="0" />
    <path
       style="font-size:medium;font-style:normal;font-variant:normal;font-weight:normal;font-stretch:normal;text-indent:0;text-align:start;text-decoration:none;line-height:normal;letter-spacing:normal;word-spacing:normal;text-transform:none;direction:ltr;block-progression:tb;writing-mode:lr-tb;text-anchor:start;baseline-shift:baseline;color:#000000;fill:#d272c4;fill-opacity:1;stroke:none;stroke-width:1.79999995;marker:none;visibility:visible;display:inline;overflow:visible;enable-background:accumulate;font-family:Sans;-inkscape-font-specification:Sans"
       d="m 2232.1996,-2672.2471 c -16.0528,19.0368 -33.6782,76.575 -53.657,151.9019 50.6101,-52.7962 38.2284,-108.821 77.5232,-113.7198 z"
       id="path4065"
       inkscape:connector-curvature="0"
       sodipodi:nodetypes="cccc" />
    <path
       style="font-size:medium;font-style:normal;font-variant:normal;font-weight:normal;font-stretch:normal;text-indent:0;text-align:start;text-decoration:none;line-height:normal;letter-spacing:normal;word-spacing:normal;text-transform:none;direction:ltr;block-progression:tb;writing-mode:lr-tb;text-anchor:start;baseline-shift:baseline;color:#000000;fill:#d272c4;fill-opacity:1;stroke:none;stroke-width:1.79999995;marker:none;visibility:visible;display:inline;overflow:visible;enable-background:accumulate;font-family:Sans;-inkscape-font-specification:Sans"
       d="m 2232.7122,-2693.2025 c -26.2305,33.5524 -74.1561,41.2745 -99.4474,80.9693 19.2922,-7.3865 78.5577,-35.1924 117.7073,-52.4784 z"
       id="path4063"
       inkscape:connector-curvature="0"
       sodipodi:nodetypes="cccc" />
    <path
       style="font-size:medium;font-style:normal;font-variant:normal;font-weight:normal;font-stretch:normal;text-indent:0;text-align:start;text-decoration:none;line-height:normal;letter-spacing:normal;word-spacing:normal;text-transform:none;direction:ltr;block-progression:tb;writing-mode:lr-tb;text-anchor:start;baseline-shift:baseline;color:#000000;fill:#d272c4;fill-opacity:1;stroke:none;stroke-width:3.20000005;marker:none;visibility:visible;display:inline;overflow:visible;enable-background:accumulate;font-family:Sans;-inkscape-font-specification:Sans"
       d="m 2060.5456,-2763.9347 c -19.8133,-0.487 -41.4118,0.3933 -65.5314,1.4064 -7.9996,0.3357 -14.6276,3.8708 -14.3439,14.6254 4.4019,166.9174 86.7371,271.2228 178.3136,361.4071 12.7981,9.7552 13.6168,6.7116 22.2188,-2.5312 30.977,-78.9619 84.7197,-135.2642 97.8264,-206.5392 7.508,-62.2495 -14.01,-119.6273 -50.3436,-150.7504 -7.9609,-7.7897 -6.1559,-5.563 -13.5096,-10.7158 -50.056,-2.9982 -94.4251,-5.4224 -154.6303,-6.9005 z m -0.5625,28.6877 c 54.9225,1.4166 96.5692,8.5322 145.4072,10.4062 5.9503,10.7842 13.5336,21.5368 21.6562,37.6877 5.0399,10.0215 9.8646,21.311 13.6815,34.0132 3.564,11.8601 6.2497,24.952 7.4124,39.3932 0.4786,5.9472 0.6653,12.1458 0.5625,18.5625 -7.2355,48.2913 -44.2595,112.6963 -82.4065,174.3755 -80.9153,-81.9115 -147.0446,-172.0861 -155.5323,-313.3134 17.3335,-0.7082 34.3287,-1.5091 49.219,-1.1249 z"
       id="path3856"
       inkscape:connector-curvature="0"
       sodipodi:nodetypes="csscccccccscssscccs" />
    <path
       style="font-size:medium;font-style:normal;font-variant:normal;font-weight:normal;font-stretch:normal;text-indent:0;text-align:start;text-decoration:none;line-height:normal;letter-spacing:normal;word-spacing:normal;text-transform:none;direction:ltr;block-progression:tb;writing-mode:lr-tb;text-anchor:start;baseline-shift:baseline;color:#000000;fill:#d272c4;fill-opacity:1;stroke:none;stroke-width:1.79999995;marker:none;visibility:visible;display:inline;overflow:visible;enable-background:accumulate;font-family:Sans;-inkscape-font-specification:Sans"
       d="m 2466.0682,-2837.3709 -99.2396,57.1238 16.0001,16.7777 c 28.8114,-24.3417 75.7236,-52.965 83.2395,-73.9015 z"
       id="path4067"
       inkscape:connector-curvature="0"
       sodipodi:nodetypes="cccc" />
  </g>
</svg>
