<?xml version="1.0" encoding="UTF-8"?><svg xmlns="http://www.w3.org/2000/svg" version="1.1" viewBox="0 0 7269.6592 7269.6626" width="7269.6592" height="7269.6626"><g transform="translate(1075 6466.9)"><path id="path4322" fill="#333" d="m160.69 27.76c-64.722 161.42-256.24 351.54 102.28 417.13 516.07 50.32 1749.2-65.95 1548.2 150.96l-21.659 39.451 113.7-35.062 92.198-66.989 17.244-75.648-105.04-63.925-230.21-147.71-99.224-215.96 6.7501-144 78.75-213.75 124.12-379.39-101.62-14.358-342-434.25-135 200.25-234 211.5-197.62 130.34-164.41 111.95-180 161.61-160.14 187.3z"/><path id="path4288" d="m1341.6-1188.3c-206.2 303.81-425.32 440.98-613.26 577.65s-410.65 308.39-609.24 610.02l58.87 16.813c195.63-297.13 396.38-454.18 584.3-590.83 187.92-136.66 380.93-251.89 590.13-559.95z"/><path id="path4290" fill="#666" d="m1348.7-1106.2c-224 355.06-516.12 677.51-787.59 979.64-297.68 330.59-29.98 486.77 273.87 481.14-17.82-2.95 21.43-17.14 4.33-17.19-302.66-0.89-548.4-147.18-253.08-467.7 269.46-300.23 585.47-647.2 781.07-961.89z"/><path id="path3880" d="m855.81-446.19c-205.57 229.32-619.88 431.71-541.94 893.74" stroke="#666" stroke-width="16.2" fill="none"/><path id="path4292" fill="#666" d="m465.86 29.671c384.46 257.37 192.23 128.69 0 0z"/><path id="path4294" fill="#666" d="m1342.8-965.62c-65.8 122.83-204.5 310.18-333 496.69-124.59 180.85-235.75 340.25-259.49 465.94-29.05 153.81 30.04 256.81 118.72 307.61l18.134-15.575c-302.69-178.74 47.49-616.21 137.24-747.56 128.24-186.16 266.93-373.29 334.13-498.66z"/><path id="path4296" d="m956.39 7.1097c-35.29-167.47-54.23-363.36 458.11-786" stroke="#666" stroke-width="18" fill="none"/><path id="path3872" d="m1547.5-111.21c-91.828 338.24 206.25 447.11 432.57 553.74 15.359 7.5985 34.218 11.868 19.469 39.002-16.598 30.536-25.516 47.526-53.566 72.566-27.932 24.936-68.319 44.421-125.44 54 117.73-86.662-43.487-119.82-124.03-136.41-34.245-8.0376-268.02-42.737-396.85-45.844-249.3-6.1-246-15.8-451.39-21.58-482.76 66.14-1007 90.39-630.56-446.62-12.53-9.68-40.34-13.952-53.48-22.785-21.06 28.748-32.75 42.022-66.344 104.27-281.38 576.16 397.9 441.72 736.59 421.6 45.897-3.1207 433.88 21.369 470.53 13.5h0.2803c106.56 3.8766 272.22 9.5045 383.91 32.625 97.885 26.983 190.65 35.237 71.438 110.53l-45.563 35.438 57.657-3.0938c90.89-4.9845 154.67-30.726 197.44-68.906 42.769-38.181 68.317-68.522 71.333-118.6 1.2478-20.722-13.176-47.281-38.571-56.836-661.2-307.36-381.8-469.87-172.2-1132.2l-76.627 44.837c-56.06 219.54-158.8 394.5-206.66 570.79z"/></g><g transform="translate(1075 6466.9)"><path id="path3854" d="m2261-2900.5c-4.8632 9.3881-12.714-22.262 52.294 70.299 10.047 14.306 27.868 17.239 33.837 23.285l11.62-37.344c-47.718-70.367-39.584-96.722-97.751-56.24z" stroke="#fff" stroke-width="12.6" fill="#b5e1fa"/></g><g transform="translate(1075 6466.9)"><path id="path4257" fill="#333" d="m1107.9-3162.7 15.75 391.5-11.25 459-18 326.25 22.5 375.75 92.251 270 87.75 72 99.001 9.0001 87.751-49.5 94.5-87.75 69.75-126 132.75-634.5-67.5-339.75-74.25-182.25-218.25-283.5-90-168.75z"/><path id="path4149" d="m1126.9-2437.1c104.73-230.87 166.02-450.5 209.66-683.07" stroke="#666" stroke-width="18" fill="none"/><path id="path4151" d="m1202.3-1661.2c21.702-500.23 300.68-980.02 299.85-1164.7" stroke="#666" stroke-width="18" fill="none"/><path id="path4153" d="m1310.5-1462.3c-53.722-491.56 128.42-823.11 273.65-1027.8" stroke="#666" stroke-width="18" fill="none"/><path id="path4155" d="m1424.9-1444.6c-7.9791-501.93 237.34-746.01 299.11-861.03" stroke="#666" stroke-width="18" fill="none"/><path id="path4157" d="m1553.8-1634.1c-0.063-208.1 104.8-348.68 171.75-443.29" stroke="#666" stroke-width="18" fill="none"/><path id="path4159" d="m1136.1-2768.8c43.366-90.238 81.172-183.49 127.47-358.83" stroke="#666" stroke-width="18" fill="none"/></g><g transform="translate(1075 6466.9)"><path id="path4113" fill="#636c7b" d="m3874.8 252.03c18.046 47.954 41.598 99.403 101.25 105.75l121.5-27c61.394-14.38 32.48-67.398 45-103.5z"/><path id="path3846" fill="#673620" d="m2676.2-1337.3 123.75-83.25 69.75-101.25 47.25-186.75 6.7503-157.5-33.75-123.75-40.5-114.75 24.75-15.75 36 24.75 105.75 213.75 24.75 128.25 31.5 234c8.7595 69.285-3.0726 130.85-18 191.25l-45 101.25-83.25-20.25-72-40.5z"/><path id="path3887" fill="#a65a27" d="m2370.1-1256.4 445-58.594 191.39 574.08-63.64 639.58 975.01 368.86c-161 29.94-1237.7 169.77-1581.5-572.43-50.723-352.1 430.43-591.47 33.766-951.46z"/><path id="path3867" fill="#a55b25" d="m3070.8-3390.1c-237.16 99.061-341.77 135.72-646.01 445.7-108.59 194.98 24.638 440.67 128.15 657.5 83.177 174.24 250.48 86.422 256.23 100.52"/><path id="path4144" fill="#a65a27" d="m4154.3-1677c75.115 38.183 147.99 11.114 279.06-28.344l-1.2614 16.228-14.319 60.458-144.78 103.41z"/><path id="path4146" fill="#67371d" d="m4033.5-2320 222.74-58.867-16.705-24.66s-144.78 4.7729-157.51 10.342c-12.728 5.5685-58.072 54.889-58.072 54.889z"/><path id="path3882" fill="#d18d44" d="m2814.7-1314.8c1.8912-3.2595 99.931 95.979 188.97 24.66 177.8-142.41-34.218-703.14-312.76-1019.2-225.4-288.99-193.07-370.94-192.47-471.22 1.5714-262.94 542.36-623.62 568.14-575.22 37.911 71.197 250.44-43.991 261.28-44.29 114.45-3.1702 462.01-30.434 676.41 229.51 232.56 319.51 40.574 416.47 54.496 561.9 12.104 126.44 68.331 170.75 192.99 202.03 0.4942-7.5901-3.5305 9.4519-8.6863 10.646-103.64 24.006-217.42 10.717-215.98 117.69 2.6164 195.3 36.466 365.69 136.92 597.44 110.65 180.13 205.88 70.017 267.51-23.24 2.2286-3.3724 3.0917-0.264 5.8688-0.3419-112.22 487.4 347.29 604.49 465.62 1039.9 144.37 1097-1753.3 1202.3-2146.3 512.3-149.73-199.54 43.927-523.96 62.252-651.68 108.96-258.73 34.012-385.83-5.0654-507.32"/><path id="path4030" d="m2237.3-5594.2c-279.33 99.345-223.4 351.32 101.82 307.86z"/><path id="path4030-4" d="m2391-5121.9c-267.58 92.861-250.91 409.35 120.95 308.98z"/><path id="path3844" fill="#a5adb8" d="m3978.5 355.66 119.25 429.75c22.274 33.594 30.437 10.746 40.5-4.5-12.13-151.63-32.276-311.28-33.75-452.25"/><path id="path3934" fill="#efddbf" d="m3476.2-1246.5 41.366 127.28 388.2-95.46-9.5458-95.46z"/><path id="path3940" fill="#d18d44" d="m2690-5637.9 133.94-63.203c23.488-11.083 21.727-28.38 21.565-42.325-4.1634-357.68 16.666-858.49-403.97-689.75 341.98 142.33 262.86 723.09 248.47 795.28z"/><path id="path3936" d="m3585.7-2518.2-310.5 90-48.954-4.5-198.55-927-72.001 13.5c-58.301-504.37-133.45-998.91-292.5-1444.5l148.5-9 96.751-20.25z"/><path id="path3889-1" d="m2816.7-4827.4c830.28 3593.1 823.37 3247 953.16 4115.8" stroke="#b3b3b3" stroke-width="18" fill="none"/><path id="path3932" d="m2884.9-4823.6c851.43 3364 942.91 3266.2 1008.7 4071.4" stroke="#b3b3b3" stroke-width="18" fill="none"/><path id="path3889" d="m2781.1-4830.9c809.39 3760.2 788.93 3273 919.35 4136.8" stroke="#b3b3b3" stroke-width="18" fill="none"/><path id="path3930" d="m2854.5-4822c586.5 2473.5 926.23 3395.9 974.26 4097.3" stroke="#b3b3b3" stroke-width="18" fill="none"/><path id="path3890" fill="#333232" d="m4073.4 255.73c-34.521-214.96-170.69-709.46-31.532-826.63 10.526-66.171 6.6027-180.72 14.408-229.82l-540.95 143.44c32.036 98.144 56.207 145.41 87.982 200.32 202.29 21.528 304.71 471.38 347.17 729.14 36.49-1.002 81.727-10.751 122.93-16.463z"/><path id="path3942" fill="#a65a27" d="m2836.9-4804.3c-53.412 10.803-115.69 9.7803-173.55 14.658-159.92-558.47-495-1322.1-221.76-1643.6 309.11 105.57 286.22 613.92 250.88 793.13-44.345 10.987-88.259 16.363-130.5 0z"/><path id="path4010" fill="#333432" d="m2596.1-5082.7-159.9 66.822-53.299-100.23c-224.08 126.3-109.88 343.23 128.87 296.72-14.992-42.944-47.028-90.788-46.934-128.08l148.76-93.869c5.5926-16.544 2.6234-33.183-17.501-41.366z"/><path id="path4010-7" fill="#333432" d="m2449.9-5533.3-170.48 48.529-35.327-113.44c-240.44 91.382-145.64 324.54 97.379 314.24-8.4032-44.703-47.244-98.389-41.577-135.24l161.12-70.573c8.0031-15.522 7.5549-32.418-11.12-43.518z"/><path id="path4050" fill="#111" d="m3755.6-2105.2c17.437-5.5838 34.875-11.22 52.313-25.594-54.68-6.8684-62.178-28.115-66.375-42.469-19.423-97.788 82.738-108.45 104.06-33.75 10.039 25.925 9.2223 55.218 8.4361 79.875-1.3784 42.67-6.4636 97.741-11.812 157.22-10.698 118.96-23.125 263.9-5.625 362.81 25.077 96.009 91.953 149.67 162.28 149.91 35.191 3.3389 67.566-14.236 91.126-48.656s30.42-89.079 23.625-165.09c-11.981-118.84-108.76-160.44-167.65-102.25l71.461 25.747c14.305-0.2347 26.063 6.6531 36.844 21.375s18.946 37.011 21.094 61.031c5.8813 56.663-7.264 169.24-79.031 160.31-66.1-11.226-105.05-67.919-118.13-124.03-20.081-90.224-11.437-220.48 5.3436-337.5 8.4633-59.02 10.365-114.66 11.813-159.47 0.7238-22.402 0.667-42.259-1.1251-59.062-15.002-67.974-65.015-112.73-111.45-106.94-102.08 0.54-99.642 173.55-27.201 186.54z"/><path id="path3938" fill="#d18d44" d="m3149.2-4862.7-331.81 61.682-258.24-842.59c46.236 18.422 94.841 15.522 145.32-4.227z"/><path id="path3944" d="m2701.6-5653.6c-114.4 92.705-235.2-35.412-259.22-360.04-12.659-171.1 139.81-176.86 113.76-14.319" stroke="#6c3614" stroke-width="18" fill="none"/><path id="path4050-0" fill="#111" d="m3234.8-2163.7c-7.7126 0.5427-15.484 2.3233-23.063 5.3437-29.524 11.766-65.448 55.219-60.694 103.95 10.219 104.74 59.074 161.82 94.219 231.45 53.381 106.76 124.1 217.12 132.08 313.84 5.4211 65.639-23.715 133.11-64.077 155.43-20.181 11.161-40.898 13.344-62.438 3.9375-21.539-9.4068-45.084-32.048-65.532-76.219-9.5428-20.614-22.798-56.06-23.054-88.506-0.1276-16.223 6.5128-34.43 9.8357-44.245 8.0638-14.142 26.644 2.035 38.207 7.5212l62.018-56.138c6.0204-6.5961-70.137-35.053-113.24-5.5297-14.37 9.8434-24.898 18.527-30.058 33.768-5.6052 16.554-10.648 40.812-10.495 60.131 0.3066 38.638 6.0994 80.581 19.551 109.64 23.313 50.361 54.671 89.26 88.216 103.91s89.449 10.374 118.89-5.9064c58.879-32.562 92.338-117.52 79.321-199.49-15.855-99.847-83.282-221.18-136.82-328.32-43.171-68.148-85.501-147.26-90.932-184.14-20.492-42.298 4.0205-92.498 30.463-96.549 87.345-26.042 123.36 83.326 39.432 119.45l41.865 0.8136c89.736-52.246 23.208-190.97-73.703-164.14z"/><path id="path4078" d="m396.07 538.64c0 4.0273-3.0273 7.292-6.7617 7.292s-6.7617-3.2648-6.7617-7.292c0-4.0273 3.0273-7.292 6.7617-7.292s6.7617 3.2648 6.7617 7.292z" fill-rule="evenodd" transform="matrix(9 0 0 9 -258.99 -6400.5)" fill="#111"/><path id="path4078-9" d="m396.07 538.64c0 4.0273-3.0273 7.292-6.7617 7.292s-6.7617-3.2648-6.7617-7.292c0-4.0273 3.0273-7.292 6.7617-7.292s6.7617 3.2648 6.7617 7.292z" fill-rule="evenodd" transform="matrix(9 0 0 9 479.36 -6568.9)" fill="#111"/><path id="path4111" d="m2948.5-1824.4 1914.8-616.5" stroke="#a9ac8a" stroke-width="40.5" fill="none"/><path id="path4109" fill="#684721" d="m2894.5-1963.9c552.16-174.24 1148.5-387.84 1644.8-515.25 286.2-73.485 434.45-4.5769 541.21 58.363 12.926 9.653 9.8362 14.808-4.9036 16.674l-124.05 27.386c-19.722 7.0047-25.578 5.0372-37.835-7.7443-95.864-97.609-174.26-86.658-304.67-54.18-605.75 150.85-1119.3 343.04-1676.3 515.25"/></g><g transform="translate(1075 6466.9)"><path id="path4265" fill="#a6a29b" d="m2091.7 14.1 229.53 406.05c125.06 10.991 327.66-0.67409 450.48-29.578 41.818-9.8417 63.686-32.485 24.334-82.411-160.5-208.83-302.2-327.58-489.5-664.76l-50.912-187.74 22.274-85.914 89.096-210.01 60.458-165.46 3.1819-203.65-79.55 127.28-159.1 162.28-159.1 82.732-9.546 143.19-105.01 1.591 35.002 280.01 62.049 198.87z"/><path id="path3794" fill="#676153" d="m2021.3-713.57-106.59 1.6875c-19.13 0.30275-20.274 15.109-19.969 24.468 9.2047 282.75 179.68 836.89 395.76 1109.5 7.6033 11.395 17.751 9.6151 28.457 10.596 118.75-2.4985 536.39 36.159 514.68-116.1l-37.52-1.1521c45.567 124.94-386.33 88.483-451.98 86.904-7.3188-0.86399-7.514-1.1412-11.221-4.7574-184-235.32-400.1-840.23-398.5-1073.8l87.469-1.4062-0.5624-36z"/><path id="path3796" fill="#676153" d="m2064.4-857.83-50.37 11.317c35.119 65.565-14.196 147.21 4.5666 222.47 38.801-97.831 50.976-119.99 45.804-233.79z"/><path id="path3798" fill="#676153" d="m2462.6-1223-50.37 25.096c22.055 112.17-7.5611 217.56-50.344 323.16-38.429 94.852-89.575 192.19-117.89 290.96-5.6538 14.595-6.0316 28.889-5.9523 43.241 5.8709 131.03 50.31 273.51 558.17 867.18 2.4961 2.9182 5.9319 6.9241 6.5299 13.783 0.9472 10.873 25.713 0.87575 28.803-9.2258 1.5938-5.2103 2.8028-15.153 1.2174-18.048-213.88-265.64-531.14-642.91-556.03-840.47-1.2154-9.6465 1.1489-42.97 3.327-51.177 25.866-97.453 74.078-181.69 115.02-282.74 43.722-107.92 74.694-199.55 67.527-361.75z"/></g><g transform="translate(1075 6466.9)"><path id="path4259" fill="#bbb8b1" d="m954.14 30.01 108.19-295.92 127.28-264.11 117.73-175.01 140.01-15.91-82.732-184.56-15.91-140.01 3.182-181.37 31.82-120.92 47.73-98.642 105.01-152.74 136.83-264.1 60.458-273.65-3.1821-283.2-12.728-111.37 340.47-22.274 286.38-89.096 38.184-19.092 60.458 54.094 54.094 111.37 63.64 162.28 28.638 85.914-57.276 833.68-28.638 98.642-114.55 181.37-190.92 203.65-136.83 70.004-127.28 28.638-143.19 149.55-140.01 105.01c-249.3 280.08-295.9 833.41-338.1 1119.9-167.4 79.21-340.83 92.13-525.14-14.99z"/><path id="path3786" fill="#676153" d="m1276.3-706.77c-132.63 113.22-468.45 935.15-501.18 1222.7l58.199 12.666c-20.07-17.01-15.26-20.38-14.93-21.75 93.84-420.25 377.91-1093 491.31-1178.6 7.3287-5.5335 23.166-19.018 35.192-22.572 31.927-9.4348 77.018-7.8968 113.24-5.7734l-29.322-36c-74.895-9.1196-138.08 17.099-152.46 29.336z"/><path id="path3788" fill="#676153" d="m1387.1 30.901c-229.68 256.55-114.84 128.28 0 0z"/><path id="path3790" fill="#676153" d="m2045.1-1316.2c-28.468 186.92-38.207 554.75-469.08 766.27l43.096-2.3341c265.14-124.83 474.65-377.16 425.98-763.94z"/><path id="path3792" fill="#676153" d="m2519-1434.5c-161.67 424.96-411.2 569.93-587.25 580.5l-13.634 49.653c198.58 8.7642 491.42-182.63 634.64-617.5z"/><path id="path3802" fill="#676153" d="m1721.5-2539.3-36.23 12.233c112.9 475.88-65.501 769.87-292.86 1116.8-90.388 257.14-91.27 476.77 40.723 688.99l47.83 62.975-17.583-50.209c-118.6-258.41-131.25-452.5-32.205-691.19 359.01-509.67 360.72-807.66 290.33-1139.6z"/><path id="path3804" fill="#676153" d="m2425-2662.1-28.688 21.656c19.945 26.647 57.429 95.384 92.25 172.41 34.821 77.022 67.707 163.47 81.844 227.25l35.156-7.875c-15.186-68.513-48.638-155.58-84.094-234-35.456-78.425-72.068-146.84-96.47-179.44z"/><path id="path3866" fill="#676153" d="m1619.5-564.58c-333.3 480.12-241.5 773.85-322.8 1081.5-1.1109 10.201-4.1109 13.29-12.322 17.149-155.61 71.89-306.68 61.611-470.21-22.687-12.097 1.2308-10.573-9.1145-39.094 3.0938-0.39689 11.279 11.838 26.603 17.156 30.938 182.45 98.858 350.13 100.71 525.1 13.219 6.6524-4.0928 7.2423-5.0696 9.5625-11.813 85.241-341.84 10.614-706.19 361.67-1139.2z"/></g><g transform="translate(1106.1 -.000034091)" fill="#a75dbe"><path id="path3869" d="m1482.1 5073.4c-27.621 1.9728-50.431 15.755-61.031 36.843-10.6 21.089-10.378 45.864-5.0625 72 7.7401 38.056 29.43 80.761 55.406 123.47-0.3915 0.9864-0.7335 1.8252-1.125 2.8125-23.74 59.901-48.038 122.42-52.312 178.03-2.137 27.806 0.6912 54.731 13.5 77.625 12.808 22.893 35.786 40.196 66.656 48.656 34.516 9.459 69.896-1.4355 99.281-20.812 29.385-19.377 53.956-47.769 70.312-78.75 0.9527-1.8045 1.0715-3.7989 1.9688-5.625 17.002 7.8228 34.078 13.935 51.188 14.907 25.72 1.4598 51.866-7.8786 70.594-28.688 5.5518-21.123 4.5678-29.021-9.0337-34.102-4.9617-2.2104-5.2637 0.09-8.9238 2.4849-12.75 10.858-35.998 20.606-50.105 19.805-11.202-0.639-28.416-6.8211-43.031-13.782 8.8686-73.886-30.818-107.82-78.469-117.56-16.09-3.0096-36.676 2.3463-50.938 8.0271-18.768-24.668-28.054-43.383-34.562-57.246 20.538-51.276 40.498-100.63 45.844-141.47 3.0616-23.39 1.8868-46.322-12.375-64.125s-38.897-24.563-67.781-22.5zm3.0938 40.5c21.842-1.5597 29.269 2.772 32.906 7.3125 3.6374 4.5405 6.3141 15.312 3.9375 33.469-3.3507 25.599-16.882 63.132-32.344 103.22-16.233-30.63-29.2-60.058-34.031-83.812-4.2862-21.074-2.6158-37.001 1.6875-45.562 4.3035-8.5617 10.016-13.352 27.844-14.625zm12.938 235.69c0.9369 1.3086 1.5846 2.6334 2.5312 3.9375 6.3426 8.739 14.077 16.006 20.812 24.468-8.8701 7.9254-17.06 16.655-23.625 25.875-11.426 16.049-19.546 33.556-19.688 52.594-0.1425 19.038 12.471 39.996 33.188 47.812 13.523 5.1021 26.596 1.2762 36.562-3.9375 9.9666-5.2137 18.448-12.367 26.156-19.969 8.9586-8.8353 13.096-12.038 19.125-20.21 13.539 11.901 27.251 22.554 41.062 31.781-1.0251 2.1996-1.0886 0.288-2.25 2.4921-13.097 24.806-34.268 48.791-57.094 63.843s-46.156 20.933-66.094 15.468c-22.933-6.2847-34.507-16.304-41.906-29.531-7.3995-13.226-10.2-31.637-8.4375-54.562 3.0017-39.056 20.224-89.32 39.656-140.06zm142.6 98.558c-22.455-14.765-50.996-36.792-67.597-61.038 45.088-13.41 71.029 26.018 67.597 61.038zm-71.393-8.9799c-9.7988 16.766-23.265 30.399-40.387 34.718-41.356 10.921-11.781-82.811 16.031-65.553 10.167 6.3089 12.136 14.142 24.356 30.834z"/><path id="path3875" d="m1614.2 5429.2c0 10.355-10.186 18.75-22.75 18.75s-22.75-8.3947-22.75-18.75 10.186-18.75 22.75-18.75 22.75 8.3947 22.75 18.75z" fill-rule="evenodd" transform="matrix(1.1099 0 0 1.48 -196.39 -2596)"/></g><g transform="translate(1075 6466.9)"><path id="path4263" fill="#bbb8b1" d="m2084.5-2053.5 301.5-153 202.5-31.5 121.5 9 112.5 103.5 99.001 153 13.5 157.5 13.5 139.5-31.5 99-58.5 148.5-162 148.5-81.001-54-85.5-85.5-58.5-103.5-45-135 9.0001-94.5z"/><path id="path3807" fill="#676153" d="m1888.4-2349.1-3.9472 5.3881c-5.4392 6.4056-1.8975 7.1502 1.6131 11.039l16.003 3.0418c180.07-36.929 264.94 127.59 266.64 222.74l32.243-16.581c-7.4745-154.09-128.2-290.1-312.55-225.62z"/><path id="path3809" fill="#676153" d="m2043.3-2012.6c183.03-72.793 422.89-249.52 642.41-195.72 89.136 21.843 226.51 208.38 234.25 427.71 6.4199 181.79-57.116 360.55-224.35 478.84-6.1541 6-9.6786 1.1928-15.053-2.9215-215.99-168.36-222.41-317.67-230.16-456.56l-35.719 3.3752c9.8714 129.25-8.2707 312.22 259.83 492.05 7.9753 5.3498 31.983 1.835 43.289-3.7039 257.31-126.06 406.16-682.74 6.1626-977.24-233.23-87.676-599.66 137.39-680.66 234.18z"/><path id="path3811" fill="#676153" d="m1865.3-2015.6c-64.317 124.58 58.129 321.95 153.37 335.27 156.36 21.869 468.54-60.502 547.2-118.3l-25.465-5.8729c-143.08 36.302-370.03 105.85-513.29 88.16-85.323-23.891-163.68-203.98-161.81-299.26z"/><path id="path4285" fill="#bbb8b1" d="m3493.4-3400.2-167.12 0.3735-29.763-96.629-110.18-59.662-100.23-141.6-19.092-189.33 4.7733-152.74 38.184-159.1 68.413 28.638 152.74 124.1 111.37 106.6 60.458 100.23 47.73 97.051 17.501 57.276-4.7731 101.82c-13.732 21.285-45.63 128.92-70.004 182.96z"/><path id="path3813" fill="#676153" d="m3092.8-4204.4c-101.4 272.92-79.116 756.34 287.57 711.4 14.377-0.5445-7.5955-10.824-11.05-13.722-320.68-35.152-317.46-388.78-253.31-657.4 1.0919-12.153 7.2797-5.4901 14.381-1.2474 268.17 138.92 323.55 288.34 406.41 448.29 14.054 24.606 9.3591 42.91 6.3444 70.967-23.603 133.4-44.777 182.24-75.828 245.98 13.644 0.2285 26.305-0.5254 40.95 0.7039 36.231-109.31 102.42-233.32 67.806-321.3-57.223-145.45-116.24-228.19-201.57-321.43-51.035-55.765-147-130.73-235.01-160.24-10.477-6.1543-40.015-18.979-46.694-2.0085z"/></g><g transform="translate(1075 6466.9)"><path id="path4211" fill="#bbb8b1" d="m2176.8-2959.5 212.4-117.73 206.83-187.74c30.984-47.678 78.478-91.804 71.595-152.74l23.865-57.276 9.5461-49.321 11.137-70.003-6.3641-95.46-20.683-68.413c-9.295-31.457-130.33 18.075-73.506 7.1829-54.885 1.1739-35.678-17.192-69.282-51.94l-9.4658-26.758-29.121-38.264-41.366-62.049-39.422-56.377c-115.56-153.85-188.42-167.45-276.83-237.14l-52.856-18.32-128.87 15.91-537.76 342.06-230.69 152.74-159.1-77.958-97.051-27.047-125.69-17.501-108.19-14.319-23.865 25.456-6.3639 63.64 22.387 150.29 96.938 194.95s85.914 103.41 89.096 109.78c3.1821 6.3639 157.51 117.73 157.51 117.73l216.38 81.141h81.141l33.411 71.595 292.74 464.57 420.02-85.914 246.6-100.23s-41.366-68.413-52.503-74.777c-11.137-6.3639-92.278-95.46-92.278-95.46"/><path id="path3816" fill="#676153" d="m725.44-3889.5c-20.706-0.4077-51.946-1.1056-59.906 21.094-40.959 444.73 369.55 787.52 685.82 748.33l14.7-18.196c-393.19 21.436-716.48-471.56-667.53-704.14 0.73111-3.4722 1.1178-7.0997 4.1488-9.8136 5.7468-0.5454 11.274-1.5106 21.918-1.2699 24.579 0.5554 60.591 3.7846 105.19 11.531 54.768 9.5134 122.57 25.789 198.71 51.915 84.598 32.388 172.93 103.97 213.97 102.75-145.55-130.09-276.52-177.53-406.49-190.1-46.123-8.0123-83.584-11.486-110.53-12.094z"/><path id="path3818" fill="#676153" d="m2138.1-4202.7c249.44 92.261 442.49 448.23 408.89 464.75 26.608-8.2485 21.697-5.1588 37.823-14.29 0.5597-7.0284-202.28-363.73-433.99-484.26-8.886 18.256-7.8538 16.649-12.717 33.803z"/><path id="path3820" fill="#676153" d="m2703.6-3606.1c2.7576 147.47-103.75 173.85-188.89 221.04-5.3004 2.9375 23.436-3.5964 18.643-0.9773 67.758-7.5838 137.26-39.263 167.56-92.682 38.322-67.549 33.778-147.89 21.909-213.34-28.13-155.12-97.93-81.524-201.48-56.602-22.552 5.4275-48.455 9.7861-76.192 7.5698 183.11 57.622 240.18-158.6 258.45 134.99z"/><path id="path3822" d="m2670.8-3463.7c-20.378 266.24-534.76 509.71-617.12 537.43 58.388 32.531 573.62-213.62 639.83-515.27 12.255-55.828-12.628-11.311 6.6771-82.922z" fill="#676153"/><path id="path3824" fill="#676153" d="m1632.5-2626.5 45.7-2.5937c-230.76-356.25-270.25-386.14-325.65-498.03-16.517 7.9186-19.519-3.9306-37.929 8.7258 26.771 73.659 198.7 317.04 317.88 491.9z"/><path id="path3826" d="m2197.2-2968.9-33.292 19.571c24.55 28.869 75.494 88.013 117.4 142.52l43.56 2.8864c-39.657-69.119-103.12-136.11-127.67-164.98z" fill="#676153"/><path id="path3845" d="m2602.2-3636.3c-17.87 40.515-33.344 50.3-73.114 27.822 47.104 64.6 80.008 7.9494 73.114-27.822z" fill="#676153"/><path id="path3847" d="m1204.6-3328.9c-76.642-55.775-219.47-134.5-342.33-287.17-10.684 3.1353 37.126 93.066 139.22 173.96 49.08 38.889 145.57 92.848 160.94 98.887 18.276 7.1823 42.174 14.324 42.174 14.324z" fill="#676153"/></g><g transform="translate(1075 6466.9)"><path id="path4219" fill="#333" d="m1012.5-3834.7 41.853-388.05 47.73-197.28 114.55-181.37 194.1-120.92c80.591-29.874 162.55-47.472 245.01-60.458l189.33 28.638 147.96 73.186 82.732 101.82 60.458 143.19 6.3638 197.28-57.276 190.92-9.5459-114.55-28.638-89.096-60.458 73.186-89.096 124.1-184.56 203.65-165.46 114.55-241.83 114.55-134.97 31.024c26.339-68.354 73.687-98.049 37.784-123.71 2.9002-2.5852-106.49-87.825-196.04-120.67z"/><path id="path4161" fill="#666" d="m1690.7-4671.6c-18.672 1.3853-37.709 4.5929-56.813 9.8441-152.83 42.009-314.32 201.95-376.31 417.94-36.221 126.2-86.495 333.01-202.9 427.52l17.153 9.0337c122.55-99.49 163.49-307.04 199.53-432.61 60.678-211.4 219.92-367.61 366.19-407.81 73.137-20.103 142.61-11.596 196.31 32.344 49.359 40.385 84.867 113.27 97.594 222.19-23.19-39.76-49.57-71.544-75.657-104.06l-15.044-20.054 3.6971 25.116c24.369 190.71 5.8028 304.63-29.716 381.66-34.706 75.267-88.812 126.58-144.84 183.09 18.049-77.559 33.915-155.29 23.062-247.22l-3.5282-21.812-7.1592 20.687c-39.269 126.09-121.62 255.3-264.66 379.41 1.2504-89.187-10.462-183.38-64.969-228.94l-10.125-8.4376-1.4063 13.219c-12.641 105.17-0.154 245.53-119.42 354.73l-8.0027 21.077c127.48-95.177 129.5-253.8 140.08-358.65 41.654 46.553 52.47 137.3 49.782 222.75l-0.5625 16.031 12.375-10.406c140.44-118.57 221.87-243.75 266.35-366.19 4.0746 84.535-13.272 159.27-30.938 235.13l-5.9063 25.312 18-18.562c62.066-63.748 124.76-118.72 164.81-205.03 37.951-81.791 53.784-193.09 32.063-363.09 28.577 36.697 55.25 61.977 86.344 129.38 9.2957-97.807-32.72-235.36-103.22-288.56-43.292-35.421-96.143-49.156-152.16-45z"/><path id="path4143" d="m1665.9-4803c-298.35-2.952-624.08 218.52-646.6 706.5 0.1064-2.2948-0.3011 4.7336-0.8429 12.375-0.5426 7.6412-1.3346 18.163-2.25 30.938-1.8308 25.55-4.3247 59.334-6.75 93.094-0.842 39.784-7.8813 87.776-10.837 119.43l37.111 15.573c0.8961-12.138 2.06-26.611 2.9769-39.381 1.826-25.552 4.3246-59.336 6.7501-93.094 2.4252-33.758 4.9187-67.256 6.75-92.813 0.9157-12.778 1.7063-23.562 2.25-31.219 0.5436-7.6564 0.695-9.9835 0.8429-13.219 23.27-504.2 372.16-701.54 665.72-668.81 146.78 16.364 278.86 90.72 350.44 214.59 63.678 110.21 79.627 228.39 23.89 415.23-1.76-49.133-6.7139-80.451-46.759-159.87-152.47 230.28-312.3 439.59-513.2 550.14-132.94 75.724-251.45 114.87-342.42 143.65 41.952-79.473 87.624-201.35 7.4491-278.65 43.151 115.66-23.124 242.21-52.875 314.72 67.153-9.9912 241.12-52.496 404.72-145.69 155.69-88.686 267.97-160.1 491.87-496.58 11.647-0.9578 23.3 106.37 29.893 208.71 105.01-166.7 121.05-416.59 28.648-569.66-80.618-133.55-221.33-214.88-377.72-232.31-19.549-2.1794-39.173-3.4593-59.063-3.6562z"/><path id="path4261" fill="#333" d="m1412.4-1390.7 160.69-28.638-17.501 50.912-66.822 58.867-92.278 44.548-101.82 3.1819 24.234-170.8z"/><path id="path4147" d="m1116.1-3153.6c-15.546-5.9659-24.555-10.455-36.798-15.507 65.534 487.86-24.501 960.78 1.4062 1385 12.838 210.22 53.756 345.16 102.09 429.75 48.338 84.593 111.42 118.22 172.97 116.72 61.547-1.5006 119.02-35.049 164.81-74.531 56.016-46.89 82.829-91.959 110.53-156.09-74.495 41.377-168.1 72.118-242.72 47.813-51.713-17.911-92.272-60.354-123.47-117.28-79.298-166.66-80.596-208.37-101.05-348.5-5.617 116.74 1.7646 242.25 69.55 365.94 33.893 61.846 80.366 112.13 143.16 133.88 49.473 17.135 108.12 14.633 174.94-10.406-14.734 18.816-33.339 39.076-54.563 57.375-41.987 36.201-93.396 64.627-142.03 65.813-48.636 1.1858-96.957-21.807-140.91-98.719-43.95-76.912-88.9-207.36-97.594-414.84-19.691-469.93 74.806-882.21-0.3271-1366.4z"/></g><g transform="translate(1075 6466.9)"><path id="path3829" d="m2189.5-3622c-25.243-4.8018-36.922-0.853-30.201 15.964 189.45 229.72-127.71 483.83-375.29 451.3-3.3977-0.6147-6.2212-1.6821-5.1719 2.9166 0.015 2.9248-1.2728 4.4135 12.734 22.89 141.79 29.972 222.89 6.8287 332.46-70.4 159.1-112.14 181.08-340.17 65.469-422.67z"/><path id="path3831" d="m1804.5-3140c-70.377 65.694-119.26 75.168-175.93 86.127 79.833 42.712 164.92-33.085 204.86-72.975z"/><path id="path3833" d="m1874.6-3130.1c-22.666 33.156-57.012 59.698-103.96 78.213 68.434 22.829 132.24-51.953 143.35-67.571z"/><path id="path3835" d="m1962.3-3137.6c-2.194 19.446 8.7383 32.35-96.986 94.498 87.465 14.262 143.62-75.203 158.78-109.5z"/><path id="path3837" d="m2428.7-3979c-0.2854 0.081-6.0299-1.9756-8.5387 0.621-1.6096 1.6663-0.4254 10.541 0.8563 13.673 216.78 256.26-6.351 239.27-147.69 102.57 110.77 195.86 441.12 166.87 155.37-116.86z"/><path id="path3839" d="m2492.2-4034.9c-4.2558 34.609-3.9722 73.778-43.911 81.98l21.46 26.302c43.074-15.548 40.87-81.018 22.451-108.28z"/><path id="path3841" d="m2559.2-3981.8c-6.3478 27.272-27.517 91.58-72.2 79.891l5.2355 27.665c67.967 3.1708 92.15-82.703 66.964-107.56z"/><path id="path3843" d="m2619.7-3921c-21.739 52.502-42.045 69.058-102.13 77.473l0.3118 36.434c32.42-5.95 114.21-28.734 101.81-113.91z"/></g><g transform="translate(1075 6466.9)"><path id="path4119" fill="#fff" d="m1577.4-2707.3 52.571 76.89 347.94-59.894 47.784 30.718 44.371 150.18-119.46 25.599-305.48 13.653-107.51-56.317-37.545-92.155 10.24-32.425z"/><path id="path3850" fill="#b5e1fa" d="m1990.5-2732.5c-81.903 30.21-178.22 63.742-263.79 80.233-42.786 8.2454-82.28 13.92-115.03 16.313-32.752 2.3925-59.057 1.221-72.001-2.5314-5.8313-1.6903-7.244-3.4572-7.3125-3.375 0.1186-0.2412 0.1096 0.111 0.2803-0.2808 2.9262-6.6754 19.721-25.801 55.215-49.816l-20.326-29.662c-30.476 20.619-47.823 37.353-65.681 54.838-4.2302 4.1421-7.5004 8.7989-11.075 13.854-6.7669 9.5727 4.0528 21.03 10.929 31.036 6.8756 10.005 17.045 14.87 27.844 18 21.598 6.2609 49.887 6.4775 84.657 3.9376 34.77-2.5402 75.72-8.4318 119.53-16.875 133.07-29.365 340.75-49.077 473.99-149.2-5.3965-20.054-16.062-52.602-31.721-65.083-27.55 3.6581-128.9 77.243-185.51 98.614z"/><path id="path3852" fill="#b5e1fa" d="m1501.7-2667c-65.618 42.553 5.3077 137.72 48.931 168.82 42.406 30.239 102.81 41.119 167.06 45.281 128.51 8.3253 277.78-18.179 361.41-46.125l-11.25-34.313c-77.746 25.979-226 52.316-347.63 44.438-60.812-3.9394-114.99-16.597-149.91-39.375-34.919-22.778-52.329-52.559-46.125-102.66z"/><path id="path4106" fill="#ff98f3" d="m2359.3-2795.2 67.41-157 46.931 17.066 68.263 79.356s22.185 56.317 23.039 60.583c0.8531 4.2666-0.8536 141.65-0.8536 141.65h-157l-15.359-106.66z"/><path id="path3858" fill="#d272c4" d="m2419.4-2967.3c-28.664 47.948-56.694 97.921-73.125 157.22l-2.5314 9.2812 7.5939 5.9062c31.654 24.481 45.048 46.445 50.906 68.063 5.8582 21.617 3.8059 43.872 1.1249 68.063l-1.6874 15.75 15.75 0.2807 149.63 1.6876c10.386-0.1396 12.953-3.1766 14.344-12.657 9.354-81.226 0.4968-146.52-24.469-198.84-24.966-52.329-65.863-91.103-118.13-120.09-9.8565-3.8165-12.19-3.6041-19.407 5.3447zm18.644 28.447c42 25.67 72.89 56.783 93.012 98.959 20.789 43.574 28.955 99.014 22.5 169.88l-120.38-1.125c1.8328-20.104 2.9176-41.099-3.0937-63.281-6.825-25.186-24.138-50.528-53.157-75.375 14.055-46.908 37.017-88.09 61.113-129.05z"/><path id="path3860" d="m299.22 412.52c0 7.5924-5.688 13.747-12.704 13.747-7.0165 0-12.704-6.1549-12.704-13.747 0-7.5924 5.688-13.747 12.704-13.747 7.0165 0 12.704 6.1549 12.704 13.747z" transform="matrix(8.2157 0 0 8.2131 -54.32 -6083.9)" stroke="#d272c4" stroke-width="3.6583" fill="#ff98f3"/><path id="path4104" fill="#ff98f3" d="m1993.2-2746.7 216.01 1.2067 34.995 55.51 22.928 103.78-41.029 82.058-56.717 107.4-71.197-78.437-79.644-135.15z"/><path id="path4065" fill="#d272c4" d="m2232.2-2672.2c-16.053 19.037-33.678 76.575-53.657 151.9 50.61-52.796 38.228-108.82 77.523-113.72z"/><path id="path4063" fill="#d272c4" d="m2232.7-2693.2c-26.23 33.552-74.156 41.274-99.447 80.969 19.292-7.3865 78.558-35.192 117.71-52.478z"/><path id="path3856" fill="#d272c4" d="m2060.5-2763.9c-19.813-0.487-41.412 0.3933-65.531 1.4064-7.9996 0.3357-14.628 3.8708-14.344 14.625 4.4019 166.92 86.737 271.22 178.31 361.41 12.798 9.7552 13.617 6.7116 22.219-2.5312 30.977-78.962 84.72-135.26 97.826-206.54 7.508-62.25-14.01-119.63-50.344-150.75-7.9609-7.7897-6.1559-5.563-13.51-10.716-50.056-2.9982-94.425-5.4224-154.63-6.9005zm-0.5625 28.688c54.922 1.4166 96.569 8.5322 145.41 10.406 5.9503 10.784 13.534 21.537 21.656 37.688 5.0399 10.022 9.8646 21.311 13.682 34.013 3.564 11.86 6.2497 24.952 7.4124 39.393 0.4786 5.9472 0.6653 12.146 0.5625 18.562-7.2355 48.291-44.26 112.7-82.406 174.38-80.915-81.912-147.04-172.09-155.53-313.31 17.334-0.7082 34.329-1.5091 49.219-1.1249z"/><path id="path4067" fill="#d272c4" d="m2466.1-2837.4-99.24 57.124 16 16.778c28.811-24.342 75.724-52.965 83.24-73.902z"/></g></svg>