<?xml version="1.0" encoding="UTF-8" standalone="no"?>
<!-- Generator: Adobe Illustrator 15.1.0, SVG Export Plug-In . SVG Version: 6.00 Build 0)  -->

<svg
   xmlns:dc="http://purl.org/dc/elements/1.1/"
   xmlns:cc="http://creativecommons.org/ns#"
   xmlns:rdf="http://www.w3.org/1999/02/22-rdf-syntax-ns#"
   xmlns:svg="http://www.w3.org/2000/svg"
   xmlns="http://www.w3.org/2000/svg"
   xmlns:sodipodi="http://sodipodi.sourceforge.net/DTD/sodipodi-0.dtd"
   xmlns:inkscape="http://www.inkscape.org/namespaces/inkscape"
   version="1.1"
   x="0px"
   y="0px"
   width="3509.6299"
   height="3509.6299"
   viewBox="0 0 3509.6299 3509.63"
   enable-background="new 0 0 4000 3200"
   xml:space="preserve"
   id="svg3108"
   inkscape:version="0.48.4 r9939"
   sodipodi:docname="pinkie.svg"
   inkscape:export-filename="C:\Users\John\Pictures\Vectors\Pinkie Pie\Pinkie Party.png"
   inkscape:export-xdpi="90"
   inkscape:export-ydpi="90"><metadata
   id="metadata3229"><rdf:RDF><cc:Work
       rdf:about=""><dc:format>image/svg+xml</dc:format><dc:type
         rdf:resource="http://purl.org/dc/dcmitype/StillImage" /><dc:title /></cc:Work></rdf:RDF></metadata><defs
   id="defs3227" /><sodipodi:namedview
   pagecolor="#ffffff"
   bordercolor="#666666"
   borderopacity="1"
   objecttolerance="10"
   gridtolerance="10"
   guidetolerance="10"
   inkscape:pageopacity="0"
   inkscape:pageshadow="2"
   inkscape:window-width="1920"
   inkscape:window-height="1028"
   id="namedview3225"
   showgrid="false"
   inkscape:zoom="0.1767767"
   inkscape:cx="1352.7798"
   inkscape:cy="1646.6201"
   inkscape:window-x="1272"
   inkscape:window-y="217"
   inkscape:window-maximized="1"
   inkscape:current-layer="layer12"
   fit-margin-top="194.83"
   fit-margin-left="0"
   fit-margin-right="0"
   fit-margin-bottom="194.83" />
<g
   inkscape:groupmode="layer"
   id="layer11"
   inkscape:label="Shadowed Limb Fill"
   style="display:inline"
   sodipodi:insensitive="true"
   transform="translate(-172.35283,146.39761)"><path
     transform="matrix(2.5540512,0,0,2.5540512,-5149.7386,-3007.293)"
     clip-rule="evenodd"
     d="m 2566.666,1939 -22,27 -12.333,56.333 -4,54.334 6,54.666 31,62.667 31,16.667 c 0,0 15.62,-5.199 27.263,-17.757 11.69,-12.609 19.404,-32.577 19.404,-32.577 l 8.333,-49.666 L 2648,2073 l -28.667,-30 -7.667,-17.333 23.667,3.333 25,6 20.333,-2 -88.333,-99 -25.667,5 z m 600,86.667 c 0,0 -30.974,-49.776 -50.061,-98.513 -14.653,-37.416 -18.605,-76.821 -18.605,-76.821 0,0 -2,-18.667 -38.333,-12 C 3035.805,1842.712 3036,1857 3036,1857 c 0,0 0.059,-25.614 -2.461,-46.985 -1.888,-16.011 -6.539,-29.349 -6.539,-29.349 l -48.334,3.334 -6.333,53.333 -13.667,59 -10.999,28.334 c 0,0 14.929,8.11 30.084,13.076 14.321,4.692 28.916,6.257 28.916,6.257 0,0 2.084,66.412 19.78,115.32 15.295,42.273 46.553,68.013 46.553,68.013 0,0 35.392,-1.097 73.998,-43.001 20.535,-22.288 19.668,-58.665 19.668,-58.665 z"
     id="path3122"
     inkscape:connector-curvature="0"
     style="fill:#f5a3cb;fill-rule:evenodd;display:inline" /></g><g
   inkscape:groupmode="layer"
   id="layer12"
   inkscape:label="Shadow"
   style="display:inline"
   sodipodi:insensitive="true"
   transform="translate(-172.35283,146.39761)"><ellipse
     transform="matrix(2.5540512,0,0,2.5540512,-5149.7386,-3007.293)"
     clip-rule="evenodd"
     cx="2883"
     cy="2369.5"
     rx="340"
     ry="48.5"
     id="ellipse3116"
     d="m 3223,2369.5 c 0,26.7858 -152.2232,48.5 -340,48.5 -187.7768,0 -340,-21.7142 -340,-48.5 0,-26.7858 152.2232,-48.5 340,-48.5 187.7768,0 340,21.7142 340,48.5 z"
     sodipodi:cx="2883"
     sodipodi:cy="2369.5"
     sodipodi:rx="340"
     sodipodi:ry="48.5"
     style="opacity:0.30199998;fill-rule:evenodd;display:inline" /></g><g
   inkscape:groupmode="layer"
   id="layer5"
   inkscape:label="Body Fill + Mane/Tail Fill"
   style="display:inline"
   sodipodi:insensitive="true"
   transform="translate(-172.35283,146.39761)"><g
     id="Pinkie_Pie_1_"
     transform="matrix(2.5540512,0,0,2.5540512,-5149.7386,-3007.293)"><g
       id="Shadow"
       style="opacity:0.30199998"><g
         id="g3114" /></g><g
       id="Fill_1_"><g
         id="Shadow_Fill"><g
           id="g3120" /></g><g
         id="Body_Fill"><g
           id="g3125"><path
             clip-rule="evenodd"
             d="m 3376,1638.5 c 0,0 -78.393,-21.026 -154.512,-19.605 C 3150.539,1620.22 3088,1641 3088,1641 c 0,0 -7.365,7.415 -11.568,15.967 -2.707,5.507 -2.932,13.533 -2.932,13.533 0,0 -66.635,-40.525 -148.37,-47.113 C 2876.415,1619.459 2844,1652 2844,1652 l -174,-44 c 0,0 18.128,-87.069 -16.863,-147.09 -36.682,-62.92 -61.449,-77.924 -93.203,-3.252 -11.593,27.262 -11.434,44.842 -11.434,44.842 0,0 -58.921,-21.03 -120.003,16.174 -40.746,24.818 -44.997,84.326 -44.997,84.326 0,0 -8.785,-17.799 -20.99,-31.01 -12.044,-13.038 -27.51,-21.49 -27.51,-21.49 0,0 -41.746,43.519 -47.739,120.364 C 2280.978,1751.417 2313,1801 2313,1801 l -17,11 1,17.5 13.5,20 22,9.5 20,0.5 16.5,-10 10,-21 3.5,-11.5 c 0,0 31.945,36.916 42.945,68.344 7.614,21.752 -4.445,41.656 -4.445,41.656 0,0 41.68,-11.794 75.83,-27.92 28.297,-13.362 47.793,-33.1416 47.793,-33.1416 0,0 10.2696,8.5745 21.4551,26.0871 22.6692,35.4918 61.4942,98.9463 112.9939,140.8855 43.934,35.777 104.428,25.089 104.428,25.089 0,0 17.225,40.431 30.039,88.99 15.439,58.508 26.961,127.01 26.961,127.01 l -4.5,90.5 8.5,24 c 0,0 43.596,8.24 84.51,7.559 33.295,-0.556 65.49,-10.059 65.49,-10.059 l 4.5,-32 -31.5,-114 -47.5,-112.5 -65,-105 c 0,0 57.813,-30.699 93.526,-98.017 C 2974.08,1876.316 2981,1785 2981,1785 c 0,0 47.665,-0.685 88.854,-16.236 30.769,-11.616 58.146,-39.264 58.146,-39.264 0,0 76.142,0.035 137.881,14.36 59.985,13.919 105.619,42.14 105.619,42.14 0,0 32.549,-12.515 34.622,-80.45 1.567,-51.368 -30.122,-67.05 -30.122,-67.05 z"
             id="path3127"
             inkscape:connector-curvature="0"
             style="fill:#fcbcd8;fill-rule:evenodd;stroke:none"
             sodipodi:nodetypes="csccccccsscscccccccccccccccscsccscccccccccccccccsc" /></g></g><g
         id="Tail_Fill"><g
           id="g3130"><path
             clip-rule="evenodd"
             d="m 3454.5,1290 c 0,0 0.884,-25.748 -12.679,-41.698 C 3424.58,1228.025 3392,1216.5 3392,1216.5 c 0,0 17.907,29.133 21.353,56.146 2.718,21.303 -8.853,41.854 -8.853,41.854 0,0 -4.121,-20.615 -13.983,-35.346 C 3381.142,1265.153 3366,1257 3366,1257 l -36.5,6.5 c 0,0 -42.177,-69.066 -99.829,-45.816 -34.326,13.843 -65.671,54.816 -65.671,54.816 0,0 -44.971,-57.564 -97.427,-68.84 -86.604,-18.615 -145.368,42.744 -148.667,90.333 -2.676,38.612 21.594,84.007 21.594,84.007 0,0 -55.224,-27.596 -104.849,-0.641 C 2779.54,1407.294 2760,1475.5 2760,1475.5 V 1605 c 0,0 26.292,-2.119 45.185,8.677 22.747,12.999 38.815,39.323 38.815,39.323 0,0 11.548,-10.868 24.146,-16.683 C 2886.821,1627.697 2909,1623 2909,1623 c 0,0 -4.467,-8.864 -6.698,-22.889 -2.924,-18.38 -2.802,-39.611 -2.802,-39.611 0,0 31.859,60.667 129.5,51 50.5,-5 91.5,-86 91.5,-86 0,0 60.268,57.636 155,11.5 77,-37.5 92,-191 92,-191 0,0 35.17,67.096 78.394,-2.566 11.746,-18.931 8.606,-53.434 8.606,-53.434 z"
             id="path3132"
             inkscape:connector-curvature="0"
             style="fill:#fa5097;fill-rule:evenodd" /></g></g><g
         id="Mane_Fill"><g
           id="g3135"><path
             clip-rule="evenodd"
             d="m 2855.5,1700.5 c -17.25,-116.254 -94,-94 -94,-94 l 10,-92 c 0,0 -12.309,-48.843 -31.012,-83.928 C 2720.959,1393.94 2695,1371 2695,1371 c 0,0 -31.5,-39 -92.5,-32.5 -61,6.5 -85.5,89 -85.5,89 0,0 -6.518,-57.12 -56.565,-90.648 -25.735,-17.241 -78.062,-35.968 -115.435,-21.352 -85.597,33.476 -44,112 -44,112 0,0 -35.96,-17.037 -55.344,-11.459 -14.715,4.234 -14.156,31.459 -14.156,31.459 0,0 -69.5,-13 -120.5,39 -51,52 -4.5,130.5 -4.5,130.5 0,0 14.641,24.52 32.852,43.665 20.636,21.695 44.148,37.335 44.148,37.335 0,0 -10.795,3.633 -27.27,-3.53 -17.961,-7.809 -41.73,-26.47 -41.73,-26.47 0,0 7.343,88.221 77.5,65 71.813,-23.77 -73.061,-144.425 75,-191 67.666,-21.286 117,60.5 117,60.5 0,0 16,-132.5 163,-99.5 -0.356,-0.08 10.563,-38.27 24.34,-67.313 C 2581.96,1413.3 2599,1407 2599,1407 c 0,0 42.841,26.993 62.204,81.427 16.079,45.203 9.296,119.573 9.296,119.573 0,0 -60,18.5 -58,78.5 1.201,36.035 34,48.5 34,48.5 0,0 -46,39.5 -39.5,88 10.039,74.911 95,77.5 95,77.5 0,0 -48.5,16.5 -34,46.5 6.793,14.054 32.836,29.953 59.136,25.875 29.84,-4.628 61.864,-34.375 61.864,-34.375 0,0 -26.854,3.481 -45.66,1.891 C 2731.102,1939.355 2724,1933 2724,1933 c 0,0 101,-7.5 96,-75 -3.658,-49.388 -53,-51 -53,-51 0,0 102.268,-13.716 88.5,-106.5 z"
             id="path3137"
             inkscape:connector-curvature="0"
             style="fill:#fa5097;fill-rule:evenodd" /></g></g></g><g
       id="Torso_2_"><g
         id="Back_1_"><g
           id="Tail_2_"><g
             id="Tail"><g
               id="g3143" /></g></g><g
           id="Shadow_Legs"><g
             id="g3148" /></g></g><g
         id="Front_1_"><g
           id="Leg"><g
             id="g3154" /></g><g
           id="Torso"><g
             id="g3159" /></g><g
           id="Forleg"><g
             id="g3164" /></g></g></g><g
       id="Cutie_Mark_1_"><g
         id="Yellow_Balloon"><g
           id="g3170" /></g><g
         id="Yellow_String"><g
           id="g3175" /></g><g
         id="Blue_Balloon"><g
           id="g3180" /></g><g
         id="Blue_String"><g
           id="g3185" /></g></g><g
       id="Head_1_"><g
         id="Mouth"><g
           id="g3191" /></g><g
         id="Tongue"><g
           id="g3196" /></g><g
         id="Face"><g
           id="g3201" /></g><g
         id="Mane_Top"><g
           id="g3206" /></g><g
         id="Ear"><g
           id="g3211" /></g><g
         id="Mane_Bottom"><g
           id="g3216" /></g><g
         id="Eyelashes"><g
           id="g3221" /></g></g></g></g><g
   inkscape:groupmode="layer"
   id="layer10"
   inkscape:label="Cutie Mark"
   style="display:inline"
   sodipodi:insensitive="true"
   transform="translate(-172.35283,146.39761)"><path
     transform="matrix(2.5540512,0,0,2.5540512,-5149.7386,-3007.293)"
     clip-rule="evenodd"
     d="m 2906.724,1665.915 c 0,0 -8.589,-8.111 -29.288,-8.039 -32.075,0.11 -27.809,17.543 7.227,18.923 21.509,0.847 23.247,-6.866 23.247,-6.866 l 8.079,2.778 3.533,-8.291 -12.798,1.495 z"
     id="path3172"
     inkscape:connector-curvature="0"
     style="fill:#fff797;fill-rule:evenodd;display:inline" /><path
     transform="matrix(2.5540512,0,0,2.5540512,-5149.7386,-3007.293)"
     clip-rule="evenodd"
     d="m 3021.059,1676.295 c -2.49,-1.068 -5.862,-1.65 -9.156,-1.718 -3.766,-0.077 -7.43,0.518 -9.558,1.825 -2.617,1.608 -1.532,3.675 -1.532,3.675 l 0.665,-0.153 c 0,0 -1.815,-4.443 9.351,-4.922 3.623,-0.155 7.695,0.669 9.91,1.688 2.819,1.297 3.518,3.413 3.518,3.413 0,0 4.722,8.662 -9.033,9.271 -8.475,0.374 -19.062,-2.286 -19.062,-2.286 0,0 -8.282,-2.063 -12.666,-1.66 -3.942,0.361 -6.595,1.947 -6.595,1.947 l 0.414,0.486 c 0,0 3.206,-2.169 8.438,-2.022 4.928,0.138 11.604,2.332 17.991,3.184 8.102,1.079 17.926,1.587 21.22,-2.461 2.106,-2.589 0.763,-8.261 -3.905,-10.267 z m 10.395,-13.118 c -5.475,-0.198 -10.515,0.36 -10.515,0.36 0,0 -5.229,0.329 -10.261,1.323 -5.133,1.014 -11.302,1.093 -16.798,0.251 -10.826,-1.66 -18.177,-7.051 -18.177,-7.051 l -0.188,0.712 c 0,0 4.12,2.454 8.597,4.192 4.123,1.603 9.76,3.351 19.6,3.129 4.618,-0.104 11.163,-1.324 11.163,-1.324 0,0 3.687,-0.728 11.085,-0.982 21.732,-0.747 31.478,6.443 20.226,10.112 -7.306,2.382 -13.757,-0.376 -13.757,-0.376 l -0.471,0.309 c 0,0 4.837,2.488 13.228,0.863 3.457,-0.67 6.191,-2.493 6.504,-4.445 0.749,-4.688 -13.541,-6.831 -20.236,-7.073 z"
     id="path3177"
     inkscape:connector-curvature="0"
     style="fill:#fff797;fill-rule:evenodd;display:inline" /><path
     transform="matrix(2.5540512,0,0,2.5540512,-5149.7386,-3007.293)"
     clip-rule="evenodd"
     d="m 2973.662,1682.719 -9.674,2.268 c 0,0 -9.76,-6.857 -28.115,-5.709 -32.538,2.036 -24.31,20.185 12.332,18.547 15.804,-0.706 19.051,-8.438 19.051,-8.438 l 14.1,2.61 -7.694,-9.278 z m -36.514,-25.39 c 17.085,4.79 27.239,-0.566 27.239,-0.566 l 9.23,5.616 5.605,-8.464 -13.013,-1.238 c 0,0 -2.324,-7.577 -20.616,-12.369 -32.423,-8.495 -44.255,6.983 -8.445,17.021 z"
     id="path3182"
     inkscape:connector-curvature="0"
     style="fill:#72cdf4;fill-rule:evenodd;display:inline" /><path
     transform="matrix(2.5540512,0,0,2.5540512,-5149.7386,-3007.293)"
     clip-rule="evenodd"
     d="m 2983.98,1670.7 c -1.928,-1.166 -4.69,-2.26 -8.639,-2.89 -6.316,-1.006 -14.035,1.285 -18.152,2.775 -6.348,2.297 -10.271,6.411 -22.159,4.835 -8.618,-1.143 -18.503,-6.238 -18.503,-6.238 l 0,0.556 c 0,0 11.2,5.16 18.381,6.074 11.672,1.487 17.594,-2.566 17.594,-2.566 0,0 6.389,-3.632 15.542,-5.004 5.753,-0.862 10.859,0.463 14.378,2.244 8.953,4.53 3.781,7.82 -2.094,7.905 -3.869,0.056 -7.892,-1.187 -8.2,-2.874 -0.124,-0.678 0.539,-1.319 1.032,-1.693 0.999,-0.756 -0.164,-0.681 -0.6,-0.339 -0.269,0.211 -0.609,0.511 -0.849,0.836 -1.53,2.075 2.653,4.542 8.681,4.502 3.731,-0.025 13.314,-2.238 3.59,-8.123 z"
     id="path3187"
     inkscape:connector-curvature="0"
     style="fill:#72cdf4;fill-rule:evenodd;display:inline" /></g><g
   inkscape:groupmode="layer"
   id="layer3"
   inkscape:label="Tail"
   style="display:inline"
   sodipodi:insensitive="true"
   transform="translate(-172.35283,146.39761)"><path
     transform="matrix(2.5540512,0,0,2.5540512,-5149.7386,-3007.293)"
     clip-rule="evenodd"
     d="m 3437.615,1236.888 c -27.406,-28.151 -69.638,-32.988 -69.638,-32.988 0,0 26.764,18.874 36.21,45.464 9.481,26.685 1.646,61.085 1.646,61.085 0,0 -10.138,-40.101 -26.395,-50.949 -23.43,-15.636 -48.045,1.272 -48.045,1.272 0,0 -18.428,-48.228 -70.678,-50.021 -58.923,-2.022 -95.896,57.819 -95.896,57.819 0,0 -17.604,-27.954 -52.325,-51.11 -61.161,-40.791 -189.364,-25.053 -198.011,71.706 -3.901,43.66 16.439,80.154 16.439,80.154 0,0 -82.219,-34.656 -141.77,40.375 -14.965,18.856 -25.303,37.696 -32,56.176 l 6.505,13.009 c 6.667,-25.316 18.408,-46.359 31.533,-62.986 65.132,-82.509 153.218,-30.042 153.218,-30.042 0,0 -62.776,-91.508 7.149,-153.91 24.914,-22.234 73.565,-30.725 110.49,-22.298 65.608,14.974 98.954,71.247 98.954,71.247 0,0 19.137,-33.34 47.682,-49.569 77.744,-44.201 111.895,32.048 111.895,32.048 0,0 -32.771,20.327 -43.393,48.979 -24.412,65.856 22.399,87.298 50.612,22.776 11.94,-27.308 0.696,-68.365 0.696,-68.365 0,0 24.775,-12.447 41.769,-1.426 16.537,10.726 24.14,41.671 24.14,41.671 0,0 1.109,13.161 4.821,13.605 11.757,1.407 16.173,-31.488 12.353,-56.598 -3.779,-24.844 -15.734,-41.897 -15.734,-41.897 0,0 26.09,8.888 41.784,36.882 26.975,48.115 -9.528,118.576 -41.944,109.706 -19.5,-5.336 -37.053,-39.828 -37.053,-39.828 0,0 1.908,47.521 -14.271,98.742 -4.966,-8.21 -20.219,-28.078 -52.081,-29.189 -47.396,-1.653 -68.661,34.349 -68.661,34.349 0,0 -23.698,-144.834 -150.744,-144.078 -63.917,0.381 -89.148,66.082 -82.387,105.351 4.313,25.044 12.68,44.657 12.68,44.657 0,0 -100.645,-76.762 -186.253,30.478 -60.975,76.38 10.071,167.029 22.954,182.29 1.688,-1.375 3.408,-2.744 5.161,-4.104 -10.856,-12.605 -80.464,-98.999 -21.022,-177.512 81.574,-107.746 190.564,-15.518 190.564,-15.518 0,0 -24.482,-43.232 -17.432,-88.345 4.617,-29.542 24.867,-67.772 67,-71.528 134.254,-11.966 156.829,155.71 156.829,155.71 0,0 15.919,-43.529 66.895,-46.391 28.628,-1.606 48.417,21.566 54.524,29.817 -16.96,49.529 -51.405,100.907 -121.189,115.023 -58.146,11.763 -99.098,-24.385 -99.098,-24.385 0,0 26.39,-39.286 14.078,-95.899 -14.973,-68.848 -80.863,-52.019 -67.1,29.782 7.144,42.458 41.589,69.125 41.589,69.125 0,0 -23.856,67.521 -100.115,82.01 -65.695,12.481 -120.65,-63.236 -120.65,-63.236 0,0 -1.68,36.757 5.04,65.965 0.907,3.942 2.188,7.167 3.536,9.549 2.264,-0.374 4.474,-0.676 6.606,-0.923 -0.254,-2.445 -0.998,-5.731 -2.413,-9.948 -6.358,-18.942 -5.71,-44.712 -5.71,-44.712 0,0 49.08,58.324 114.21,51.244 73.163,-7.954 106.979,-87.744 106.979,-87.744 0,0 48.579,36.967 102.764,28.522 141.069,-21.985 143.834,-205.07 143.834,-205.07 0,0 16.065,24.438 32.754,24.304 62.368,-0.506 70.889,-104.605 36.115,-140.323 z m -111.504,91.643 c -19.146,54.13 -58.832,42.935 -39.262,-12.393 8.756,-24.754 39.484,-46.909 39.484,-46.909 0,0 8.833,33.704 -0.222,59.302 z m -205.777,193.777 c 0,0 -33.585,-22.943 -40.979,-67.195 -11.49,-68.778 39.36,-87.977 53.976,-28.835 13.562,54.883 -12.997,96.03 -12.997,96.03 z"
     id="path3145"
     inkscape:connector-curvature="0"
     style="fill:#cd2e72;fill-rule:evenodd" /></g>

<g
   inkscape:groupmode="layer"
   id="layer7"
   inkscape:label="Shadowed Limbs"
   style="display:inline"
   sodipodi:insensitive="true"
   transform="translate(-172.35283,146.39761)"><path
     transform="matrix(2.5540512,0,0,2.5540512,-5149.7386,-3007.293)"
     clip-rule="evenodd"
     d="m 2664.133,2031.526 c -9.537,-0.873 -20.686,-4.356 -30.882,-6.687 -11.351,-2.594 -21.272,-4.007 -21.272,-4.007 l -7.813,-15.625 c 0,0 -0.865,14.231 5.452,25.951 2.339,4.339 8.787,18.075 18.6,26.443 10.28,8.768 15.532,21.043 15.532,21.043 0,0 8.984,42.876 -5.352,76.278 -32.661,76.105 -65.55,55.433 -91.723,-4.838 -23.318,-53.695 -15.199,-144.827 4.646,-188.453 13.068,-28.729 43.47,-22.05 43.47,-22.05 l -1.563,-6.25 c 0,0 -28.475,-9.329 -46.986,24.13 -16.615,30.03 -35.769,136.949 -4.455,206.023 32.434,71.545 77.871,68.891 109.785,-12.533 11.775,-30.045 8.348,-83.559 -18.783,-100.148 -9.997,-6.112 -15.081,-21.117 -15.081,-21.117 0,0 24.594,3.903 40.136,7.627 18.711,4.484 26.594,-2.981 26.594,-2.981 l -5.729,-5.25 c -10e-4,10e-4 -3.47,3.462 -14.576,2.444 z m 498.741,-22.401 c -10.376,-15.516 -25.542,-40.397 -36.186,-67.398 -11.614,-29.465 -17.896,-61.429 -20.85,-80.005 -2.626,-16.51 -11.8676,-29.6367 -35.9506,-28.1357 -30.746,1.917 -29.2634,11.7047 -29.2634,11.7047 0,0 -0.084,-19.332 -2.626,-36.575 -2.181,-14.799 -6.874,-27.883 -6.874,-27.883 l -7.646,1.604 c 0,0 5.471,11.294 7.081,28.095 4.775,49.846 0.221,65.119 6.159,65.119 6.598,0 3.178,-4.074 4.009,-17.466 0.702,-11.307 14.556,-16.82 27.271,-17.543 17.477,-0.993 23.611,1.322 27.467,23.825 3.002,17.523 9.998,47.364 26.236,87.787 11.218,27.923 27.369,52.084 36.639,64.787 7.756,10.629 6.029,14.929 4.426,20.325 -12.58,42.344 -33.217,68.221 -72.196,80.688 -20.321,6.498 -19.464,5.552 -34.784,-15.422 -9.703,-13.282 -20.294,-33.521 -28.156,-56.287 -15.237,-44.124 -15.129,-97.908 -15.129,-97.908 0,0 9.646,-1.308 16.682,-4.695 7.026,-3.383 11.443,-8.847 11.443,-8.847 0,0 -20.731,9.62 -39.16,6.91 -24.863,-3.656 -52.507,-22.014 -52.507,-22.014 l -5.208,8.854 c 0,0 12.415,7.841 27.238,12.706 38.938,12.779 31.04,-3.052 32.989,28.337 1.192,19.202 4.544,48.404 13.825,75.466 8.26,24.087 16.846,44.972 27.128,59.894 19.472,28.255 23.503,29.581 49.213,21.403 35.785,-11.384 64.826,-41.979 75.727,-80.951 5.211,-18.633 0.188,-25.631 -6.997,-36.375 z"
     id="path3150"
     inkscape:connector-curvature="0"
     style="fill:#ed8cb2;fill-rule:evenodd;display:inline"
     sodipodi:nodetypes="ccccccccsccccscccccccsccccccccsccccccccccccsccccccccs" /></g><g
   inkscape:groupmode="layer"
   id="layer1"
   inkscape:label="Body"
   style="display:inline"
   sodipodi:insensitive="true"
   transform="translate(-172.35283,146.39761)"><path
     transform="matrix(2.5540512,0,0,2.5540512,-5149.7386,-3007.293)"
     clip-rule="evenodd"
     d="m 2708.325,2044.087 c -63.188,-27.489 -102.468,-93.091 -126.646,-136.594 -19.375,-34.862 -33.305,-44.779 -33.305,-44.779 l -4.518,4.411 c 0,0 14.391,15.288 30.551,43.029 53.065,91.099 119.864,167.963 210.554,151.567 l -3.207,-10.127 c -24.405,4.527 -49.384,2.953 -73.429,-7.507 z m 264.368,-258.67 c 0,0 2.614,66.645 -26.836,133.766 -14.313,32.619 -49.672,74.565 -93.595,102.94 l 5.844,7.21 c 41.265,-29.103 75.911,-70.843 87.765,-93.42 35.016,-66.69 36.346,-149.976 36.346,-149.976 l -9.524,-0.52 z"
     id="path3161"
     inkscape:connector-curvature="0"
     style="fill:#ed8cb2;fill-rule:evenodd;display:inline" /></g><g
   inkscape:groupmode="layer"
   id="layer9"
   inkscape:label="Foreground Legs"
   style="display:inline"
   sodipodi:insensitive="true"
   transform="translate(-172.35283,146.39761)"><path
     transform="matrix(2.5540512,0,0,2.5540512,-5149.7386,-3007.293)"
     clip-rule="evenodd"
     d="m 3379.688,1635.938 c 0,0 -71.459,-23.203 -143.426,-22.639 -55.9,0.439 -112.254,13.383 -138.998,20.461 -26.008,6.884 -26.821,33.753 -26.821,33.753 0,0 -75.952,-49.899 -151.854,-48.245 -49.091,1.069 -77.443,32.815 -77.443,32.815 l 2.604,5.841 c 0,0 25.659,-31.225 75.862,-31.684 67.716,-0.619 127.695,34.236 154.238,50.517 14.02,8.6 19.614,7.82 20.114,7.301 2.521,-2.624 -17.402,-11.401 -17.402,-11.401 0,0 0.469,-25.95 22.886,-32.143 23.556,-6.506 80.784,-17.535 136.813,-18.766 69.111,-1.52 136.396,18.877 136.396,18.877 0,0 30.005,9.167 28.658,69.774 -0.779,35.032 -11.369,53.269 -20.113,62.403 -17.938,18.736 -10.953,-10.636 -132.183,-37.753 -57.038,-12.759 -116.987,-6.925 -116.987,-6.925 l 3.906,-20.313 c 0,0 -12.177,35.554 -72.548,59.075 -54.413,21.199 -110.005,11.237 -110.005,11.237 0,0 31.806,26.588 112.932,-4.444 35.953,-13.752 60.246,-36.962 60.246,-36.962 0,0 60.709,-5.286 116.841,6.54 122.756,25.864 118.868,56.38 136.233,42.614 9.033,-7.161 28.23,-27.404 29.559,-70.822 1.897,-61.971 -29.508,-79.111 -29.508,-79.111 z"
     id="path3156"
     inkscape:connector-curvature="0"
     style="fill:#ed8cb2;fill-rule:evenodd;display:inline" /><path
     transform="matrix(2.5540512,0,0,2.5540512,-5149.7386,-3007.293)"
     clip-rule="evenodd"
     d="m 2986.835,2291.986 c -9.258,-33.063 -21.328,-77.807 -44.259,-127.211 -56.133,-120.938 -119.139,-179.619 -119.139,-179.619 0,0 76.47,102.989 119.166,202.947 41.451,97.041 53.235,171.865 48.133,184.288 -4.674,11.38 -22.602,16.911 -71.197,17.431 -95.755,1.024 -75.521,-14.372 -76.233,-63.537 -0.492,-33.98 -1.004,-81.171 -11.37,-128.778 -22.054,-101.283 -71.779,-206.882 -71.779,-206.882 0,0 40.339,109.363 61.197,210.508 30.755,149.13 -8.354,164.379 20.305,190.246 11.176,10.088 147.896,19.242 159.139,-14.121 5.064,-15.032 -1.481,-40.695 -13.963,-85.272 z"
     id="path3166"
     inkscape:connector-curvature="0"
     style="fill:#ed8cb2;fill-rule:evenodd;display:inline" /></g><g
   inkscape:groupmode="layer"
   id="layer2"
   inkscape:label="Head"
   style="display:inline"
   sodipodi:insensitive="true"
   transform="translate(-172.35283,146.39761)"><path
     transform="matrix(2.5540512,0,0,2.5540512,-5149.7386,-3007.293)"
     clip-rule="evenodd"
     d="m 2406.333,1846.666 -23,-28.999 -12.333,27.999 -6.334,8 c 0,0 18.157,13.921 36.109,37.489 C 2412.525,1906.582 2420,1928 2420,1928 l 7.667,-36.667 -21.334,-44.667 z"
     id="path3193"
     inkscape:connector-curvature="0"
     style="fill:#c83086;fill-rule:evenodd;display:inline" /><path
     transform="matrix(2.5540512,0,0,2.5540512,-5149.7386,-3007.293)"
     clip-rule="evenodd"
     d="m 2419.666,1869.666 -6,-7.333 c 0,0 -5.367,15.621 -2.564,28.499 2.514,11.549 13.231,20.501 13.231,20.501 l 3.334,-18.333 -8.001,-23.334 z"
     id="path3198"
     inkscape:connector-curvature="0"
     style="fill:#ff795e;fill-rule:evenodd;display:inline" /><path
     transform="matrix(2.5540512,0,0,2.5540512,-5149.7386,-3007.293)"
     clip-rule="evenodd"
     d="m 2498.149,1893.797 c -31.816,16.74 -68.281,23.888 -68.281,23.888 0,0 3.971,-23.815 -4.587,-44.02 -13.47,-31.804 -47.399,-65.44 -47.399,-65.44 0,0 1.173,15.995 -6.36,29.844 -4.33,7.96 -10.373,15.253 -19.738,17.107 -37.619,7.448 -59.045,-30.27 -52.948,-40.751 3.049,-5.241 12.819,-7.117 17.368,-9.334 6.07,-2.957 11.354,-6.55 15.742,-11.023 6.592,-6.719 6.561,-17.08 6.561,-17.08 0,0 -1.619,8.014 -13.164,15.637 -3.241,2.14 -6.257,3.812 -9.059,5.187 -4.474,-7.285 -32.645,-56.399 -25.798,-127.824 7.938,-82.818 47.64,-114.361 47.64,-114.361 l -6.25,-6.875 c 0,0 -42.17,41.742 -48.373,120.457 -5.783,73.367 20.63,120.895 27.01,131.183 -10.266,4.185 -16.793,5.08 -19.604,13.61 -11.49,34.853 61.97,75.455 85,30.961 4.804,-9.28 6.471,-21.813 6.471,-21.813 0,0 33.262,35.726 38.472,61.956 5.384,27.107 -5.403,45.999 -5.403,45.999 0,0 57.017,-14.401 99.622,-38.482 29.549,-16.702 49.572,-45.845 49.572,-45.845 0,0 -31.114,28.405 -66.494,47.019 z m -168.852,-71.531 c 0,0 8.227,6.674 13.773,3.291 5.541,-3.378 2.242,-13.057 2.242,-13.057 0,0 -1.191,5.909 -5.155,8.326 -4.043,2.466 -10.86,1.44 -10.86,1.44 z"
     id="path3203"
     inkscape:connector-curvature="0"
     style="fill:#ed8cb2;fill-rule:evenodd;display:inline" /><path
     transform="matrix(2.5540512,0,0,2.5540512,-5149.7386,-3007.293)"
     clip-rule="evenodd"
     d="m 2304.125,1635.875 c -11.272,0 -13.375,39.047 -13.369,68.301 -1.509,0.056 -3.756,0.201 -6.91,0.557 -7.87,0.887 -19.783,-6.295 -19.783,-6.295 0,0 7.619,7.97 16.704,11.357 2.445,0.911 6.809,0.794 10.021,0.537 0.031,3.162 0.084,6.143 0.146,8.881 -2.932,1.445 -7.723,3.465 -12.273,3.873 -9.813,0.879 -19.807,-2.253 -19.807,-2.253 0,0 7.39,6.779 17.774,8.435 4.378,0.698 10.639,-0.622 14.549,-1.652 0.177,5.035 0.343,8.093 0.343,8.093 0,0 -0.966,3.475 -5.399,5.351 -5.588,2.363 -14.246,1.91 -14.246,1.91 0,0 5.364,4.136 11.938,4.136 6.313,0 13.844,-4.136 13.844,-4.136 0,0 -6.963,-95.546 7.813,-97.656 16.388,-2.342 33.594,103.906 33.594,103.906 0,0 -6.288,-113.345 -34.939,-113.345 z m 275.947,94.574 c -6.065,-0.1 -12.135,-1.607 -16.521,-3.012 0.158,-3.078 0.281,-7.833 0.032,-13.561 6.102,0.702 21.328,2.029 30.138,-0.943 9.491,-3.204 8.884,-13.454 8.884,-13.454 0,0 -3.843,7.758 -13.711,9.402 -8.252,1.376 -19.604,-0.195 -25.718,-1.271 -0.295,-3.391 -0.732,-6.989 -1.363,-10.69 4.673,-0.01 15.034,-0.515 21.807,-4.465 6.076,-3.545 7.006,-13.81 7.006,-13.81 0,0 -5.337,7.594 -12.557,9.704 -6.277,1.835 -13.649,1.309 -17.867,0.754 -2.219,-9.068 -5.763,-18.273 -11.354,-26.114 -31.536,-44.22 -86.878,-40.915 -116.782,20.238 -21.75,44.479 -10.189,89.429 -10.189,89.429 0,0 -1.794,-51.356 18.467,-88.793 29.108,-53.789 79.148,-49.661 102.492,-16.807 13.516,19.021 14.456,47.708 14.321,57.999 -0.08,-0.036 -0.124,-0.056 -0.124,-0.056 l 0.109,0.877 c -0.039,1.922 -0.109,3.029 -0.109,3.029 l 0.513,0.192 0.269,2.151 c 0,0 12.191,4.214 23.014,4.849 15.842,0.931 23.861,-10.317 23.861,-10.317 0,0 -12.325,4.87 -24.618,4.669 z"
     id="path3223"
     inkscape:connector-curvature="0"
     style="fill-rule:evenodd;display:inline" /></g><g
   inkscape:groupmode="layer"
   id="layer6"
   inkscape:label="Mane"
   style="display:inline"
   sodipodi:insensitive="true"
   transform="translate(-172.35283,146.39761)"><path
     transform="matrix(2.5540512,0,0,2.5540512,-5149.7386,-3007.293)"
     clip-rule="evenodd"
     d="m 2719.176,1390.763 c -31.965,-44.309 -69.501,-57.407 -98.877,-59.306 -81.575,-5.271 -102.62,86.802 -102.62,86.802 0,0 -20.75,-117.874 -154.727,-108.843 -37.751,2.545 -67.155,28.341 -74.438,58.751 -7.857,32.81 7.117,53.316 7.117,53.316 0,0 -16.586,-12.708 -39.293,-9.754 -31.153,4.054 -26.519,33.955 -26.519,33.955 0,0 -64.428,-8.797 -107.795,24.347 -51.659,39.481 -56.401,123.537 19.558,197.385 19.465,18.924 38.59,30 38.59,30 0,0 -13.687,-0.412 -30.605,-8.674 -18.082,-8.83 -37.91,-34.141 -37.91,-34.141 0,0 -12.453,36.678 26.432,70.39 31.424,27.244 94.344,22.951 73.451,-52.852 -5.782,-20.98 -11.521,-45.867 -8.181,-65.98 8.542,-51.422 66.584,-74.176 120.005,-55.479 39.166,13.709 62.574,61.039 62.574,61.039 0,0 -4.986,-55.813 57.842,-96.896 37.712,-24.659 106.221,-8.572 106.221,-8.572 l 0,-7.031 c 0,0 -38.003,-8.772 -73.059,-3.981 4.999,-10.279 13.819,-32.772 3.605,-46.946 -15.026,-20.853 -31.811,-10.638 -31.811,-10.638 0,0 17.916,-24.629 17.023,-52.992 -0.701,-22.292 -12.195,-42.44 -18.852,-52.313 61.104,32.708 70.279,105.934 70.279,105.934 0,0 21.859,-100.113 103.035,-95.918 39.482,2.041 73.7,27.801 98.946,63.642 1.614,7.547 3.087,21.613 -4.405,33.334 -16.174,25.305 -37.151,23.971 -37.151,23.971 0,0 16.802,8.398 15.892,32.197 -0.684,17.854 -21.261,38.411 -21.261,38.411 l 2.579,3.936 c 0,0 20.939,-16.764 24.811,-37.73 3.961,-21.452 -8.647,-32.874 -8.647,-32.874 0,0 21.657,-10.4 30.419,-25.723 4.502,-7.874 4.667,-18.365 3.843,-26.438 19.864,31.311 33.229,68.893 37.909,104.765 7.515,57.602 -6.99,78.225 -6.99,78.225 -17.7303,4.7115 -32.143,12.5563 -41.017,21.662 l 48.765,-15.794 c 0,0 43.704,-90.59 -44.738,-213.187 z m -290.949,125.566 c -42.004,33.159 -46.195,78.202 -46.195,78.202 0,0 -11.724,-24.543 -37.422,-41.5 -57.306,-37.813 -152.425,-6.18 -150.386,69.654 0.523,19.46 3.751,37.354 9.352,51.852 22.399,57.987 -37.022,84.868 -75.786,26.467 -8.535,-12.857 -10.32,-27.686 -10.32,-27.686 0,0 24.002,21.027 43.41,27.078 16.104,5.02 28.733,-1.243 28.733,-1.243 0,0 -37.778,-17.468 -74.997,-77.206 -49.134,-78.858 -10.951,-128.963 13.52,-147.722 40.967,-31.404 102.698,-22.083 102.698,-22.083 0,0 1.586,11.222 5.695,22.844 3.052,8.629 12.091,24.641 15.435,28.929 17.781,22.804 53.223,4.158 39.678,-21.155 -14.35,-26.816 -56.248,-36.243 -56.248,-36.243 0,0 -5.041,-27.505 21.881,-28.997 26.777,-1.483 59.929,22.44 59.929,22.44 0,0 -21.916,-18.575 -23.884,-40.332 -0.61,-6.746 -0.412,-13.969 0.771,-21.231 10.494,-5.899 51.916,-26.293 76.226,3.927 28.295,35.173 11.966,92.748 11.966,92.748 0,0 22.547,-11.715 40.586,1.572 9.352,6.89 7.309,28.062 5.358,39.685 z m -191.734,-63.581 c 0,0 26.075,6.18 44.525,24.315 21.354,20.99 -10.058,45.36 -27.304,18.559 -15.777,-24.522 -17.221,-42.874 -17.221,-42.874 z m 222.327,-66.352 c 0.949,31.087 -19.427,57.351 -19.427,57.351 0,0 19.796,-10.606 33.99,7.98 10.833,14.187 1.001,35.65 -4.109,44.798 -9.135,1.834 -17.852,4.736 -25.379,9.133 -3.083,1.801 -6.006,3.672 -8.792,5.595 2.097,-10.429 3.069,-27.145 -8.232,-38.273 -12.432,-12.241 -36.207,-7.919 -36.207,-7.919 0,0 7.796,-62.873 -13.931,-86.757 -29.034,-31.916 -67.184,-15.63 -80.873,-8.125 6.808,-25.182 26.436,-48.837 66.616,-52.474 31.216,-2.825 56.207,1.806 76.22,10.643 6.966,12.106 19.472,36.679 20.124,58.048 z"
     id="path3208"
     inkscape:connector-curvature="0"
     style="fill:#cd2e72;fill-rule:evenodd;display:inline"
     sodipodi:nodetypes="sccsccccsscccsccccccccccccccccccccccccscccsccscccccccscccccccccsccccsccccccscccscccc" /><path
     transform="matrix(2.5540512,0,0,2.5540512,-5149.7386,-3007.293)"
     clip-rule="evenodd"
     d="m 2621.3,1415.229 c -10.208,-8.901 -35.447,-31.675 -62.909,37.477 -14.077,35.448 -11.516,75.263 -11.516,75.263 0,0 5.997,-40.417 20.225,-72.471 16.73,-37.694 27.296,-48.962 43.539,-35.668 27.709,22.679 45.102,53.871 52.229,85.474 12.197,54.072 0.132,107.415 0.132,107.415 l 10.875,-5.625 c 0,0 25.733,-123.584 -52.575,-191.865 z m -0.206,67.584 c 0,0 6,27.081 6.557,55.463 0.612,31.246 -4.213,64.068 -4.213,64.068 0,0 10.963,-39.342 10.31,-72.659 -0.498,-25.343 -12.654,-46.872 -12.654,-46.872 z"
     id="path3213"
     inkscape:connector-curvature="0"
     style="fill:#ed8cb2;fill-rule:evenodd;display:inline" /><path
     transform="matrix(2.5540512,0,0,2.5540512,-5149.7386,-3007.293)"
     clip-rule="evenodd"
     d="m 2811.62,1612.389 c -24.086,-15.665 -49.99,-13.533 -65.102,-9.119 -14.96,4.371 -26.033,12.842 -26.033,12.842 0,0 28.592,-9.271 57.917,-5.783 12.612,11.832 43.512,43.808 37,67.605 -9.67,35.346 -70.762,32.267 -70.762,32.267 0,0 37.047,27.328 20.104,57.434 -16.639,29.563 -71.31,33.551 -71.31,33.551 0,0 59.975,13.071 59.404,53.495 -0.341,24.153 -36.802,37.833 -53.086,42.743 -32.379,-4.995 -84.57,-21.49 -87.219,-75.903 -2.682,-55.099 40.36,-82.933 40.36,-82.933 0,0 30.635,12.158 54.229,10.3 35.659,-2.808 36.602,-30.486 0.269,-30.23 -23.907,0.168 -56.124,13.983 -56.124,13.983 0,0 -33.5611,-13.5189 -33.8948,-52.4082 -0.3336,-38.8893 42.0142,-81.9046 85.1218,-71.9318 0,0 -17.421,-5.594 -35.79,-2.636 -38.427,6.189 -82.539,71.034 -47.533,111.957 11.338,13.256 26.929,18.42 26.929,18.42 0,0 -18.761,12.631 -31.848,34.62 -31.75,53.345 -2.081,102.627 38.307,121.983 21.769,10.433 42.181,10.933 42.181,10.933 0,0 -37.637,6.094 -29.625,42.513 6.41,29.135 44.834,35.238 72.581,28.48 37.645,-9.169 60.919,-38.998 60.919,-38.998 0,0 -30.268,3.549 -48.587,3.374 -15.041,-0.144 -18.784,-4.018 -18.784,-4.018 0,0 98.822,-14.793 91.397,-74.433 -7.086,-56.919 -44.44,-52.277 -44.44,-52.277 0,0 20.221,-2.962 38.479,-13.133 66.088,-36.813 51.644,-145.817 -5.06,-182.697 z m -108.689,111.275 c 30.884,-1.663 33.638,17.528 1.977,19.232 -19.438,1.047 -45.009,-7.235 -45.009,-7.235 0,0 23.251,-10.932 43.032,-11.997 z m 112.111,138.864 c -3.232,60.919 -100.291,68.728 -100.291,68.728 0,0 7.382,10.708 25.397,13.209 27.672,3.842 43.262,-2.954 43.262,-2.954 0,0 -24.561,27.822 -65.494,27.019 -52.59,-1.033 -55.666,-38.583 -38.482,-51.016 15.794,-11.428 45.678,-17.926 45.678,-17.926 0,0 -6.604,0.064 -16.606,-1.019 13.259,-3.713 45.71,-15.423 49.2,-41.799 4.786,-36.17 -41.927,-54.15 -41.927,-54.15 0,0 41.662,-6.952 54.236,-32.003 15.331,-30.542 -10.034,-56.055 -10.034,-56.055 0,0 52.971,1.846 60.496,-33.748 5.507,-26.042 -19.633,-56.115 -31.576,-68.652 7.397,1.742 14.628,4.477 21.232,8.571 45.678,28.315 52.509,121.403 19.789,153.314 -28.366,27.665 -88.038,32.165 -88.038,32.165 0,0 76.032,2.153 73.158,56.316 z"
     id="path3218"
     inkscape:connector-curvature="0"
     style="fill:#cd2e72;fill-rule:evenodd;display:inline"
     sodipodi:nodetypes="ccccccccscscscczcccccsccscccscccsccsscccccccsccccccscs" /></g></svg>
