<?xml version="1.0" encoding="UTF-8"?><svg xmlns="http://www.w3.org/2000/svg" xmlns:xlink="http://www.w3.org/1999/xlink" version="1.1" viewBox="0 20 5800 5800" width="5800" height="5800"><defs id="defs4"><linearGradient id="linearGradient4089"><stop id="stop4091" stop-color="#ff311b" offset="0"/><stop id="stop4093" stop-color="#b60c0b" offset="1"/></linearGradient><clipPath id="clipPath3903" clipPathUnits="userSpaceOnUse"><path id="path3905" opacity=".5" d="m2061.2 3931.3-90.834-370.65 286.59-241.04-384.54 95.214-262.68-304.22 124.07 381.35-286.52 280.91 375.13-116.91z" stroke="#f00" stroke-width="1px" fill="#0f0"/></clipPath><clipPath id="clipPath3907" clipPathUnits="userSpaceOnUse"><path id="path3909" opacity=".5" d="m2061.2 3931.3-90.834-370.65 286.59-241.04-384.54 95.214-262.68-304.22 124.07 381.35-286.52 280.91 375.13-116.91z" stroke="#f00" stroke-width="1px" fill="#0f0"/></clipPath><clipPath id="clipPath3911" clipPathUnits="userSpaceOnUse"><path id="path3913" opacity=".5" d="m2061.2 3931.3-90.834-370.65 286.59-241.04-384.54 95.214-262.68-304.22 124.07 381.35-286.52 280.91 375.13-116.91z" stroke="#f00" stroke-width="1px" fill="#0f0"/></clipPath><clipPath id="clipPath3915" clipPathUnits="userSpaceOnUse"><path id="path3917" opacity=".5" d="m2061.2 3931.3-90.834-370.65 286.59-241.04-384.54 95.214-262.68-304.22 124.07 381.35-286.52 280.91 375.13-116.91z" stroke="#f00" stroke-width="1px" fill="#0f0"/></clipPath><clipPath id="clipPath3919" clipPathUnits="userSpaceOnUse"><path id="path3921" opacity=".5" d="m2061.2 3931.3-90.834-370.65 286.59-241.04-384.54 95.214-262.68-304.22 124.07 381.35-286.52 280.91 375.13-116.91z" stroke="#f00" stroke-width="1px" fill="#0f0"/></clipPath><clipPath id="clipPath3923" clipPathUnits="userSpaceOnUse"><path id="path3925" opacity=".5" d="m2061.2 3931.3-90.834-370.65 286.59-241.04-384.54 95.214-262.68-304.22 124.07 381.35-286.52 280.91 375.13-116.91z" stroke="#f00" stroke-width="1px" fill="#0f0"/></clipPath><clipPath id="clipPath3927" clipPathUnits="userSpaceOnUse"><path id="path3929" opacity=".5" d="m2061.2 3931.3-90.834-370.65 286.59-241.04-384.54 95.214-262.68-304.22 124.07 381.35-286.52 280.91 375.13-116.91z" stroke="#f00" stroke-width="1px" fill="#0f0"/></clipPath><clipPath id="clipPath3931" clipPathUnits="userSpaceOnUse"><path id="path3933" opacity=".5" d="m2061.2 3931.3-90.834-370.65 286.59-241.04-384.54 95.214-262.68-304.22 124.07 381.35-286.52 280.91 375.13-116.91z" stroke="#f00" stroke-width="1px" fill="#0f0"/></clipPath><clipPath id="clipPath3952" clipPathUnits="userSpaceOnUse"><path id="path3954" opacity=".5" d="m1945.8 3116.6-11.445 354.55 314.28 161.8l-332.7-3-174.4 295.9 10.4-311.9-331.5-139.2 361.5-34.8z" stroke="#f00" stroke-width="1px" fill="#0f0"/></clipPath><clipPath id="clipPath3956" clipPathUnits="userSpaceOnUse"><path id="path3958" opacity=".5" d="m1945.8 3116.6-11.445 354.55 314.28 161.8l-332.7-3-174.4 295.9 10.4-311.9-331.5-139.2 361.5-34.8z" stroke="#f00" stroke-width="1px" fill="#0f0"/></clipPath><clipPath id="clipPath3960" clipPathUnits="userSpaceOnUse"><path id="path3962" opacity=".5" d="m1945.8 3116.6-11.445 354.55 314.28 161.8l-332.7-3-174.4 295.9 10.4-311.9-331.5-139.2 361.5-34.8z" stroke="#f00" stroke-width="1px" fill="#0f0"/></clipPath><clipPath id="clipPath3964" clipPathUnits="userSpaceOnUse"><path id="path3966" opacity=".5" d="m1945.8 3116.6-11.445 354.55 314.28 161.8l-332.7-3-174.4 295.9 10.4-311.9-331.5-139.2 361.5-34.8z" stroke="#f00" stroke-width="1px" fill="#0f0"/></clipPath><clipPath id="clipPath3968" clipPathUnits="userSpaceOnUse"><path id="path3970" opacity=".5" d="m1945.8 3116.6-11.445 354.55 314.28 161.8l-332.7-3-174.4 295.9 10.4-311.9-331.5-139.2 361.5-34.8z" stroke="#f00" stroke-width="1px" fill="#0f0"/></clipPath><clipPath id="clipPath3972" clipPathUnits="userSpaceOnUse"><path id="path3974" opacity=".5" d="m1945.8 3116.6-11.445 354.55 314.28 161.8l-332.7-3-174.4 295.9 10.4-311.9-331.5-139.2 361.5-34.8z" stroke="#f00" stroke-width="1px" fill="#0f0"/></clipPath><clipPath id="clipPath3976" clipPathUnits="userSpaceOnUse"><path id="path3978" opacity=".5" d="m1945.8 3116.6-11.445 354.55 314.28 161.8l-332.7-3-174.4 295.9 10.4-311.9-331.5-139.2 361.5-34.8z" stroke="#f00" stroke-width="1px" fill="#0f0"/></clipPath><clipPath id="clipPath3980" clipPathUnits="userSpaceOnUse"><path id="path3982" opacity=".5" d="m1945.8 3116.6-11.445 354.55 314.28 161.8l-332.7-3-174.4 295.9 10.4-311.9-331.5-139.2 361.5-34.8z" stroke="#f00" stroke-width="1px" fill="#0f0"/></clipPath><linearGradient id="linearGradient4095" y2="3239.8" xlink:href="#linearGradient4089" gradientUnits="userSpaceOnUse" x2="3672.7" y1="3263.9" x1="3709.7"/><linearGradient id="linearGradient4105" y2="3165.9" xlink:href="#linearGradient4089" gradientUnits="userSpaceOnUse" x2="3652.3" y1="3279.8" x1="3541.3"/></defs><g id="layer3" stroke-width="34"><path id="path3774" d="m2316.1 5408.6c-1.891 108.06 32.086 211.6 118.64 235.51 263.3 72.735 553.45 81.346 826.93 37.185l-97.39-593.19z" stroke="#8b9dbb" fill="#9babc4"/><path id="path3772" d="m2794.7 4257.1c-148.56 231.53-517.06 769.47-483.31 1170.7 17.36 206.38 146.11 137.47 207.85 20.033-8.708 142.9 114.91 40.961 181.55-113.94 4.2714 257.06 190.02 39.019 254.17-57.596 268.74-308.39 203.08-653.93 252.92-986.64z" stroke="#baccdb" stroke-miterlimit="9" fill="#e7ecf2"/><path id="path3776" d="m2261.9 4061.6c-321.13 95.315-577.92 305.69-742.66 553.68l-396.39 6.0456c75.497-216.64 192.25-388.38 309.62-581.53 21.195-34.877 49.145-60.554 122.18-15.936 239.93-90.716 480.66-128.52 707.25 37.741z" stroke="#baccdb" fill="#e7ecf2"/><path id="path3778" d="m1057.1 4838.4-86.765 331.12c-76.783-132.23 8.8536-279.77 86.765-331.12z" stroke="#8b9dbb" fill="#9babc4"/></g><g id="layer4"><path id="path3781" d="m4262.1 1081.8c-65.9-137.07-121.5-283.86-225.4-378.86-35.6-32.63-72-31.72-97.6 10.75-82.1 136.22-122.6 277.65-137.8 425.71" stroke="#baccdb" stroke-width="34" fill="#fff"/></g><g id="layer5" stroke="#c8a62b"><path id="path3784" d="m3540.9 1194.5c172.25-242.64 524.19-349.29 768.78-298 244.59 51.294 445.04 360.58 385.64 673.62" stroke-width="34" fill="#e7c357"/><path id="path3786" d="m4660.3 1522.5c-12.4-272.1-122.4-554.19-458.3-633.52" stroke-width="24" fill="none"/></g><g id="layer6"><path id="path3793" d="m1551.1 3186.3c-35.154-198.25-258.5-435.24-483.41-522.36-217.48-84.25-354.43-58.937-462.16 132.8-102.59 182.6-174.2 587.67-199.35 936.37-26.318 364.94-84.684 719.36-133.54 1027.4-27.657 174.34-84.869 243.82-169.41 163.44-15.886 77.27 30.318 147.58 97.055 162.04 193.57 41.934 439.05-41.523 540.9-210.35 147.01-243.69 143.48-580.49 165.85-867.93 20.915-268.76 34.054-548.04 145.33-768.73 95.557-189.52 365.6-181.83 392.49 41.208z" stroke="#c8a62b" stroke-width="34" fill="#e7c357"/><path id="path3795" d="m991.65 2636.9c-157.47 12.493-293.82 93.725-340.57 333.06-93.901 480.72-157.44 1156.3-272.95 1725.4-31.373 154.57-71.98 297.43-185.31 388.15" stroke="#c8a62b" stroke-width="24" fill="none"/><path id="path3797" d="m1384.8 3147.7c-56.521-143.96-277.05-171.39-420.7-50.075-137.1 115.79-182.75 481.64-211.43 883.56-17.055 239.03-57.158 480.36-82.291 678.44-17.015 134.09-65.849 290.6-126.98 383.75" stroke="#c8a62b" stroke-width="24" fill="none"/><path id="path3799" fill="#c8a62b" d="m108.9 5037.6c-40.293-51.55-46.625-214.47-17.555-249.68 29.069-35.211 80.669-28.8 95.954-7.7719s13.283 66.594 4.3823 82.155c-8.9006 15.562-27.873 27.262-52.679 23.019 20.311-15.085 22.816-35.495 20.363-59.762s-37.566-27.486-43.383 5.7548-18.2 97.513 52.236 111.11l-59.319 0.4428z"/></g><g id="layer7"><path id="path3866" fill="#fff" d="m1299.7 4197 478.3 155.26c61.438-77.616 128.92-125.03 197.83-165.28 76.177-44.186 120.8-96.26 167.78-147.75 238.43 197.38 507.78 271.04 791.32 287.98l563.44 10.017c328.3-75.384 557.13-284.09 645.15-578.96 70.492-224.87 58.26-481.57 31.873-743.7-26.168-192.42-51.55-384.84-84.994-577.25-0.6036-98.721-6.9319-198.87 21.249-290.4l-619.75-74.37-474.55 690.58c-148.2 131.96-297.04 262.18-500.61 241.88-148.58 2.9849-297.16-28.513-445.74-67.613-151.56-56.985-293.28-22.159-430.72 52.588-126.38 63.469-200.92 160.64-232.89 285.48-75.64 158.22-34.225 306.69 0 455.76 43.672 134.5 98.115 266.85 120.2 405.68-98.123-18.752-185.88-19.369-227.88 60.1z"/><path id="path3810" d="m1611.8 5363.5c22.224 141.26 162.46 332.86 1.315 339.03-159.35 6.102-321.12 16.253-479.35-3.2376-96.938-11.941-193.59-50.26-196.09-214.04 213.88-128.24 451.13-280.84 674.12-121.75z" stroke="#8b9dbb" stroke-width="34" fill="#a0aecd"/><path id="path3814" d="m3728.5 5404c11.308 112.18-31.016 203.36-93.24 287.89-52.336 71.1-129.68 89.868-226.65 88.536-194.66-2.6745-476.63-208.23-522.36-291.65-49.436-90.181-30.77-169.23 74.37-257.27 270.26 2.4938 560.97-24.561 767.88 172.49z" stroke="#8b9dbb" stroke-width="34" fill="#a0aecd"/><path id="path3808-7" fill="#fff" d="m2333.8 3676.8c-81.854 250.25-210.66 424.74-388.31 531-115.53 69.104-184.66 164.11-223.93 273.34-100.81 280.39-180.25 642.94-95.834 935.76 35.876 124.45-104.26 80.489-143.64-49.947-55.239 117.52-164.15 253.85-225.77 61.09-33.494 84.013-119.68 223.32-148.74 97.39-58.99 145.28-166.58 70.057-169.1-10.624-15.374-491.8 104.61-935.47 367.27-1316.8 63.276-91.863 108.77-75.245 220.61-59.56"/><path id="path3812-1" fill="#fff" d="m2784.6 4059.3c87.535 142.6 151.1 257.02 189.46 413.92 49.716 203.37 147.75 568.41-26.89 749.68-156.93 162.89-84.952 248.33 132.07 104.26-112.12 130.1 127.45 62.923 231.96-30.102-121.62 165.47 89.216 158.33 263.84 38.956-62.992 174.84 53.36 212.43 152.28 150.51 27.254-230.66-7.2032-723.81-169.99-1005.8-31.743-54.981-88.857-146.71-38.956-208.94 97.177-121.2 121.38-261.54 132.8-401.95"/><path id="path3802" fill="#baccdb" d="m3014.3 2742c-118.9 114.75-201.24 178.12-279.66 211.81-78.413 33.695-154.32 38.83-263.94 34.875-111.15-4.0104-268.88-31.811-397.5-71.844-126.07-39.239-246.95-23.067-366.06 20.188-180.71 65.621-277.07 186-328.69 361.72-60.991 207.63-9.0427 402.57 54.188 568.81 38.193 100.42 87.656 226.91 94.04 347.47 35.182-118.58-24.114-259.24-62.259-359.53-62.289-163.77-111.24-350.09-53.344-547.19 49.654-169.03 135.59-276.86 307.66-339.34 114.79-41.683 226.66-56.295 344.38-19.656 131.85 41.038 290.79 69.204 406.38 73.375 111.27 4.0149 193.93-1.2879 278.56-37.656 84.634-36.368 169.85-102.72 289.88-218.56z"/><path id="path3808" fill="#baccdb" d="m1936.8 4193.2c-118.86 71.094-190.86 169.93-231.22 282.19-101.43 282.11-182.39 647.08-96.156 946.22 8.2269 28.537 4.4967 43.496 1.0626 47.969-1.7171 2.2362-3.2812 3.2366-6.875 3.8437-3.5939 0.6071-9.2217 0.2218-16.125-2.0625-27.614-9.1373-70.863-48.93-89.094-109.31l-12.812-42.438-18.844 40.125c-26.866 57.16-68.711 118.8-103.75 139.47-17.52 10.334-29.869 11.762-44.063 2.7812-14.193-8.9812-31.59-32.873-46.375-79.125l-14.437-45.125-17.563 44c-16.086 40.35-46.412 95.654-72.312 121.75-6.4751 6.524-12.577 11.11-17.156 13.375-4.5791 2.2646-6.9003 2.2315-8.375 1.8438-1.4747-0.3878-3.8148-1.4378-7.4375-7.0626-3.6227-5.6247-7.7452-15.521-11.094-30.031l-12.094-52.375-20.219 49.812c-13.878 34.178-30.03 53.597-44.563 63.156-14.532 9.5592-27.426 10.424-40.375 6.4062-25.898-8.0355-50.407-41.384-51.437-74.344-15.278-488.72 103.74-928.37 364.28-1306.6 30.286-43.969 52.278-58.364 80.812-62.969 28.535-4.6048 67.017 2.6803 123.44 10.594l4.7188-33.656c-55.413-7.7721-95.602-16.631-133.59-10.5-37.991 6.1308-70.386 29.357-103.38 77.25-264.79 384.42-385.72 832.09-370.25 1327 1.4918 47.721 32.037 92.323 75.312 105.75 21.638 6.7136 46.846 4.2068 69.156-10.469 14.428-9.4908 27.638-23.646 39.406-42.812 0.4372 0.7291 0.8277 1.5458 1.2812 2.25 6.7841 10.533 16.191 18.614 27.406 21.562 11.215 2.9487 22.526 0.4662 32.062-4.25 9.5362-4.7162 18.011-11.636 26.219-19.906 23.833-24.013 45.868-60.306 62.844-95.094 12.848 27.865 27.69 47.035 45.562 58.344 25.283 15.999 55.185 12.124 79.5-2.2188 39.469-23.281 73.256-70.673 99.812-119.97 24.088 49.867 61.447 83.454 96.719 95.125 10.833 3.5847 21.79 5.1216 32.5 3.3126 10.71-1.8091 21.165-7.5514 28.156-16.656 13.982-18.21 14.336-44.408 4.625-78.094-82.596-286.5-4.6961-646.63 95.5-925.31 38.185-106.2 104.45-197.39 216.66-264.5 181.57-108.61 367.88-342.17 382.73-562.72-73.678 209.73-226.46 429.63-400.17 533.53z"/><path d="m3505.2 4261.2c-29.48 36.768-26.945 82.681-14.062 123 12.883 40.32 35.851 77.85 51.562 105.06 157.13 272.16 193.63 757.27 168.69 986.97-43.361 24.656-86.933 26.824-111.09 9.9063-12.73-8.914-21.9-22.971-25-46.375-3.1001-23.404 0.696-56.012 15.812-97.969l17.844-49.469-43.406 29.656c-84.809 57.977-180.17 87.899-232.28 84.406-13.027-0.8733-23.052-3.7604-29.375-7.4688-6.3229-3.7084-9.218-7.4254-10.781-13.438-3.1265-12.024 2.8225-38.819 31.875-78.344l57.438-78.156-80.594 53.969c-58.33 39.048-144.31 78.798-197.72 91.656-13.353 3.2145-24.664 4.6723-31.938 4.4687-3.104-0.087-4.9221-0.5174-6.0938-0.8437 0.2025-0.8818 0.3916-1.9439 1.6876-4.9375 3.2006-7.3934 11.055-19.502 24.437-35.031l80.656-93.594-102.94 68.344c-53.25 35.351-97.232 56.219-129.41 65.187-32.174 8.9688-50.264 4.7169-55.875-0.5-2.8057-2.6084-4.5331-5.8441-4.7813-12.844-0.2482-6.9996 1.6823-17.378 7-30.156 10.635-25.556 34.358-60.28 72.625-100 92.381-95.887 111.35-237.84 102.31-379.44-9.0372-141.59-46.322-284.6-71.125-386.06-38.931-159.26-126.78-330.74-206.99-412.48 50.831 95.328 136.18 266 173.95 420.55 24.913 101.91 61.469 243.1 70.219 380.19 8.7496 137.09-10.58 268.27-92.844 353.66-40.198 41.724-66.308 78.757-79.531 110.53-6.6117 15.887-10.116 30.582-9.625 44.437 0.4913 13.855 5.6776 27.283 15.625 36.531 19.895 18.496 50.701 18.785 88.156 8.3437 23.881-6.6571 51.405-18.274 82.531-35.281-0.9225 8.1666 0.4308 16.27 5.5 23.125 8.4098 11.373 21.312 13.939 33.531 14.281s25.753-1.7659 40.875-5.4062c43.675-10.514 100.61-34.533 152.31-62.688-6.5419 17.942-8.0639 34.124-4.1876 49.031 3.8281 14.722 13.822 26.833 26.469 34.25 12.647 7.4173 27.672 10.947 44.312 12.062 57.124 3.8293 136.93-20.244 215.19-65.937-5.8635 26.372-7.2771 49.586-4.5938 69.844 4.0908 30.883 18.37 55.151 39.219 69.75 41.698 29.198 102.31 20.341 155.62-13.031l6.9062-4.3124 0.9688-8.0938c27.781-235.12-5.598-727.79-172.16-1016.3-16.032-27.769-37.49-63.558-48.625-98.406-11.135-34.849-12.202-65.938 8.2187-91.406 100.32-125.12 123.19-250.27 118.73-385.49-25.708 133.93-51.232 246.96-145.26 364.24z" fill="#baccdb"/><path id="path3816" d="m2932.3 4339.1c-275.34-34.782-552.82-104.02-791.51-297.48" stroke="#baccdb" stroke-width="34" fill="none"/><path id="path3818" d="m3497.2 4335.5c383.19-87.046 587.55-345.9 656.94-610.9 67.659-258.38 37.7-522.47 14.166-777.35-22.585-244.6-103.92-494.62-67.287-733.08" stroke="#baccdb" stroke-width="34" fill="none"/></g><g id="layer8"><path id="path3897" clip-path="url(#clipPath3931)" fill="#b7b4e8" d="m1443.7 3774.8 348.54-195.12-181.49-25.008z"/><path id="path3899" clip-path="url(#clipPath3927)" fill="#b7b4e8" d="m2065 3938.2-193.72-352.16 167.85 45.052z"/><path id="path3901" clip-path="url(#clipPath3923)" fill="#b7b4e8" d="m1602.6 3097.8 248.78 448.85 415.43-232.56z"/><path id="path3891" clip-path="url(#clipPath3919)" fill="#9892dc" d="m1435.5 3779.4 415.01-231.29 215.96 392.6z"/><path id="path3893" clip-path="url(#clipPath3915)" fill="#9892dc" d="m1602.5 3097.4 206.44 375.28-152.23-20.648z"/><path id="path3895" clip-path="url(#clipPath3911)" fill="#9892dc" d="m1917.5 3509.6 88.763 77.087 251.99-267.84z"/><path id="path3885" d="m2070.4 3948-473.76-861.26" clip-path="url(#clipPath3907)" stroke="#dddeff" stroke-width="9" fill="none"/><path id="path3950" clip-path="url(#clipPath3980)" fill="#ffff73" d="m1835.9 3552.1 205.89 110.26-302.06 270.87z"/><path id="path3946" clip-path="url(#clipPath3976)" fill="#ffff73" d="m1949.3 3102.8-114.13 452.3-425.44-82.346z"/><path id="path3887" d="m1419.9 3788.2 851.36-476.59" clip-path="url(#clipPath3903)" stroke="#dddeff" stroke-width="9" fill="none"/><path id="path3948" clip-path="url(#clipPath3972)" fill="#ffff73" d="m1843 3524.1 132.36-97.894 273.14 206.65-414.29-79.093z"/><path id="path3879" clip-path="url(#clipPath3968)" fill="#f9da66" d="m1835.4 3554 98.931-82.862 82.325-90.295-70.881-264.26z"/><path id="path3881" clip-path="url(#clipPath3964)" fill="#f9da66" d="m1835.4 3554 80.6 76l63.899 78.974 263.04-28.284 5.6756-47.718z"/><path id="path3883" clip-path="url(#clipPath3960)" fill="#f9da66" d="m1406 3472 429.41 82.034l-99.4 394z"/><path id="path3871" d="m1952 3092-216 856" clip-path="url(#clipPath3956)" stroke="#ffffa0" stroke-width="9" fill="none"/><path id="path3873" d="m2254 3634-848-162" clip-path="url(#clipPath3952)" stroke="#ffffa0" stroke-width="9" fill="none"/></g><g id="layer9"><path id="path3997" fill="#3c3637" d="m4198 3266 170 80c-88.506 199.06-192.89 384.22-324 546-261.14-151.12-518.78-351.07-718-606l184-524 140 256z"/><path id="path3995" fill="#cfdfed" d="m3762 3258 282 490c60.667-210.81 121.33-391.69 182-560l-318-68z"/><path id="path3985" style="color:#000000" d="m4092 3545a48 43 0 1 1 -96 0 48 43 0 1 1 96 0z" transform="matrix(.91949 .31883 -.32497 .90212 1464.9 -941.67)" stroke="#c8a62b" stroke-width="14.493" fill="#e7c357"/><path id="path3987" style="color:#000000" d="m4098.4 3331.4a42.426 46.669 0 1 1 -84.853 0 42.426 46.669 0 1 1 84.853 0z" transform="matrix(.78871 -.61476 .61476 .78871 -1188.2 3198.7)" stroke="#c8a62b" stroke-width="14" fill="#e7c357"/><path id="path3989" d="m4226 3190c-59.538 170.6-136.53 394.53-183 556l-278-488" stroke="#231e1d" stroke-width="14" fill="none"/><path id="path3991" d="m4252 3288.2 115.88 62.121c-86.4 181-189.2 371.7-323.9 539.7-174.5-95.2-527.5-342-720.5-603.9" stroke="#231e1d" stroke-width="24" fill="none"/><path id="path3993" d="m3656.4 3038.6-143.5-277.1" stroke="#231e1d" stroke-width="24" fill="none"/></g><g id="layer10" stroke="#35398c" stroke-width="24" fill="#494fbb"><path id="path4000" d="m4156 2956 260-120c26.016 213.64-23.032 399.12-121.07 552.93l-182.9-220.9"/><path id="path4002" d="m4017.8 2905.7-31.113 255.97c34.375 39.442 121.7 71.439 173.95 32.527 56.633-42.177 65.93-164.2 25.456-241.83-29.907-57.362-105.4-51.696-168.29-46.669z"/><path id="path4004" d="m4012.1 2940.5c-71.158-84.357-195.16-159.52-295.57-233.42-83.349 211.06-52.975 421.42-7.0711 610.18 112.98-20.581 251.22-58.26 298.4-142.84 41.6-74.579 54.44-174.42 4.2426-233.93z"/></g><g id="layer11"><path id="path4023" fill="#fff" d="m4381.2 1211.5-718.42-19.799-206.48 610.94-14.142 483.66 656.2 39.598c91.452 33.145 182.9 9.5271 274.36-2.8285l557.2-169.71c94.278-153.21 81.084-301.66 59.397-449.72-92.395-49.785-184.79-110.62-277.19-192.33z"/><path id="path4007" fill="#baccdb" d="m4382.3 1194.5-20.625 27.062c129.54 98.826 251.94 221.88 382.78 342.94 76.616 70.89 158.55 117.63 236.53 155.44 29.55 139.68 6.0971 280.03-66.312 415.88-198.46 65.509-396.01 132.01-600.53 179.66-152.13 35.438-249.86-11.383-354.04-105.52 61.283 119.41 192.95 177.96 361.72 138.65 208.9-48.661 409.55-116.5 610.06-182.66 4.0652-1.3373 7.5814-4.2712 9.625-8.0312 79.535-146.24 105.51-300.68 71.063-453.28-1.1268-4.9902-4.6347-9.3869-9.25-11.594-78.82-37.767-160.2-83.505-235.81-153.47-130.15-120.43-253.08-244.25-385.22-345.06z"/><path id="path4013" fill="#baccdb" d="m4583 1913c64.289 112.21 225.97 150.7 352 42-165.35 67.183-229.04 43.27-352-42z"/><path id="path4015" fill="#baccdb" d="m4755 1852c-22.102-47.822-57.746-39.935-91-12 37.627-81.155 103.63-69.932 91 12z"/><path id="path4017" fill="#baccdb" d="m4915 1798c-33.686-89.752 24.667-94.333 65-47-43.952-12.457-59.662-3.473-65 47z"/><path id="path4019" d="m3788 1882c182.38 0.6389 427.77-182.55 380-298-38.873 108.84-187.68 251.19-380 298z" stroke="#000" stroke-width="1px"/><path id="path4021" d="m3717 1817c143.84-157.89 313.27-452.48 292-581l50 18c7.2606 166.49-180.17 435.52-342 563z" stroke="#000" stroke-width="1px"/></g><g id="layer12" stroke="#baccdb"><path id="path4026" d="m4333.2 1256.7 294.16-978.64c81.959-272.67 2.524-296.38-127.28-45.255l-432.75 837.21" stroke-width="34" fill="#fff"/><path id="path4028" d="m4586.3 411.03c-48.973-14.18-93.843-43.404-131.52-98.995" stroke-width="24" fill="none"/><path id="path4030" d="m4494.4 723.57c-78.217-9.6051-145.31-47.534-185.26-124.45" stroke-width="24" fill="none"/><path id="path4032" d="m4406.7 1005c-91.9 11.7-184.5-33.23-234.8-127.28" stroke-width="24" fill="none"/></g><g id="layer13"><path id="path4035" d="m3539.8 1176.1c162.74-137.15 339.3-201.89 494.89-195.82 207.8 8.1056 380.41 133.64 454.05 296.23 94.671 209.03 150.02 314.44 274.36 386.08-209.8 50.421-388.19-44.175-577-250.32-173.63-189.57-368.35-228.83-582.66-144.25z" stroke="#c8a62b" stroke-width="34" fill="#e7c357"/><path id="path4037" d="m3578 1164c394.93-200.45 754.9-36.587 888 242 56.192 117.62 139.64 208.12 234 214" stroke="#c8a62b" stroke-width="24" fill="none"/><path id="path4039" d="m4710 1630c-159.16 9.3609-280-84.131-358-200-183.16-272.08-486.24-343.48-760-222" stroke="#c8a62b" stroke-width="24" fill="none"/><path id="path4041" d="m3536 1760c-16.033 186.49 50.56 459.79 125 675-97.496 84.302-178.28 153.29-145 277 9.8171 36.49 24.092 66.523 36 98 17.981 47.53-2.6762 66.693-24 82-47.462 34.07-33.837 75.228-5 119 61.003 92.598 97.481 191.4-29 287-133.27 100.73-235.07 200.64-259.41 324.93-49.4-141.9-99-272-154.6-402.9-77.768-183.22-99.496-369.85-104-558 196.24-134.35 384.73-698.08 472-1034" stroke="#c8a62b" stroke-width="34" fill="#e7c357"/><path id="path4043" d="m3382 1861c10.529 155.33 58.115 503.42-2 627-45.852 94.263-67.774 176.64-15 268 41.541 71.914 86.242 158.16 47 236-28.301 56.138-12.363 99.059 18 144 38.846 57.497 20.657 146-8 219" stroke="#c8a62b" stroke-width="24" fill="none"/><path id="path4045" d="m3150.9 2444.7c5.8563 68.961 35.319 126.23 60.811 185.26 27.795 64.37 38.158 127.37-1.4142 186.68-55.63 83.368-11.05 147.65 32.527 206.48 57.058 77.023 67.1 163.55 43.841 254.56-16.944 66.296-18.194 149.31 19.799 202.23" stroke="#c8a62b" stroke-width="24" fill="none"/><path id="path4047" d="m3036.3 2614.4c11.638 62.599 11.363 108.9 11.314 164.05-0.049 54.826 27.162 112.24 53.74 161.22 33.524 61.781 32.05 114.63 38.184 166.88 7.2723 61.952 16.978 122.04 52.326 192.33 39.461 78.471 64.278 163.35 56.569 261.63" stroke="#c8a62b" stroke-width="24" fill="none"/><path id="path4049" d="m3638 2458c-6.4342 31.699-24.637 50.368-49 69-45.254 34.61-31.954 78.62-22 119 12.654 51.332 46.574 91.092 76 138 34.576 55.119 43.843 100.33 12 126-55.661 44.871-28.461 102.87-6 142" stroke="#c8a62b" stroke-width="24" fill="none"/><path id="path4051" fill="#c8a62b" d="m3724.8 1229.5c-4.9129 0.047-10.081 0.2271-15.469 0.5312l1.375 23.938c40.15-2.2666 62.014 4.6025 70.812 11.969 4.3993 3.6831 6.135 7.1478 6.8125 11.531 0.6775 4.3834-0.07 9.9261-2.5 16.156-5.1937 13.313-2.9726 27.441 3.75 38.125s17.114 18.672 28.844 24.844c23.46 12.344 52.764 17.916 76.906 13.187 22.525-4.4115 38.554-5.6902 48.469-5.0312 9.2324 0.6136 11.344 2.7717 11.219 2.4062-0.092 0.348-0.2894 1.6637-2.1562 4.875-2.7962 4.8099-8.566 11.464-15.875 18.031-11.496 10.329-18.549 19.915-20.875 30.5-2.3263 10.585 2.0949 21.402 8.9687 27.781 13.748 12.759 33.911 15.606 51.906 15.656 41.116 0.1144 62.316 7.637 92.215 62.584 3.7358-71.625-43.67-86.449-92.152-86.584-14.219-0.04-30.968-4.8967-35.625-9.2188-2.3284-2.161-2.504-2.2314-1.875-5.0937 0.6291-2.8623 4.0792-9.2854 13.5-17.75 8.494-7.6318 15.697-15.474 20.563-23.844 4.8655-8.3697 8.1248-19.4 2.2187-29.219-5.9061-9.8189-16.995-13.169-30.438-14.062-13.442-0.8935-30.977 0.7627-54.688 5.4063-16.316 3.1954-42.8-1.2331-61.125-10.875-9.1624-4.821-16.194-10.823-19.688-16.375-3.4938-5.5525-4.2921-9.9173-1.6875-16.594 3.5577-9.1196 5.3475-18.834 3.8437-28.562-1.5037-9.729-6.6839-19.214-15.125-26.281-14.772-12.367-37.734-18.357-72.125-18.031z"/></g><g id="layer14"><path id="path4066" fill="#fff" d="m3569.5 1854.9 169.71-504.87c-50.614-162.22-131.19-305.38-305.47-388.91-77.519-44.113-116.64-22.726-130.11 42.426-19.457 186.91-17.593 368.71 56.568 533.16 44.616 142.65 123.66 235.22 209.3 318.2z"/><path id="path4058" fill="#baccdb" d="m3364 918.88c-10.311-0.36395-19.868 1.3237-28.688 5.2812-23.518 10.553-35.219 35.039-40.031 62.969-61.034 354.21 34.855 701.44 280.95 872.61-197.97-206.42-306.93-521.65-247.45-866.86 3.8589-22.395 11.134-33.513 20.438-37.688 9.303-4.1747 27.18-3.5527 56.969 11.906 164.74 85.489 276.64 203.12 332.98 391.99-12.949-192.97-147.6-334.11-317.3-422.18-21.411-11.111-40.69-17.425-57.875-18.031z"/><path id="path4060" fill="#baccdb" d="m3378.6 1149.2c1.4796 103.48 60.659 260.3 123.04 340.83-88.158-56.963-147.77-230.69-123.04-340.83z"/></g><g id="layer15"><path id="path4071" fill="#80bd11" d="m3606.2 3450.2c-66.94-12.67-133.88 0.1522-200.82 21.213 82.303 139.35 271.51 155.38 353.55 35.355z"/><path id="path4069" fill="#587720" d="m3766 3506c161.41-5.2968 317.43-188.01 316-302-30 9.0013-59.996 10.226-90 8-71.071-5.2718-154.35 193.13-226 294z"/><path id="path4097" fill="url(#linearGradient4105)" d="m3667.1 3302.4c-31.276 17.451-67.991 25.384-106.77 29.698-47.747-1.0469-104.15 4.635-70.004-60.104 34.711-49.109 65.504-99.411 142.13-135.76 28.522-18.082 61.447-23.036 95.46-24.749 12.417 13.658 20.544 28.543 19.799 45.962-5.9236 23.539-17.704 41.222-31.113 57.276-28.255 17.59-51.226 19.328-55.154-36.062-70.414 31.981-58.032 89.875 5.6568 123.74z"/><path id="path4087" fill="url(#linearGradient4095)" d="m3751.2 3160.3c-0.1607 36.353-5.0493 71.356-18.385 103.94l-65.761 38.184c-21.286-13.677-43.989-29.473-55.861-54.447-4.4534-37.087 25.09-53.552 52.326-71.418-3.7853 34.428 4.3743 55.717 38.184 48.79 24.27-13.914 38.329-38.039 49.498-65.054z"/><path id="path4085" fill="#c90c09" d="m3731 3111c31.333 2.6787 62.667 6.8439 94 17-17.03 58.208-56.951 95.238-95 134 17.596-45.858 33.276-92.212 1-151z"/><path id="path4081" fill="#e80d0b" d="m3826 3132c-5.406 35.766 9.4358 57.07 22 80 23.804 44.667 54.26 89.333 45 134-8.7607 51.167-29.291 95.469-70 128-42.633 41.553-99.847 49.779-161 49-95.18-29.903-101.89-107.63-100-190 135.41-21.031 216.48-94.747 264-201z"/><path id="path4079" fill="#c90c09" d="m3824 3130c-81-22.097-162-31.46-243 36l-59-66c64.843-88.3 187.07-97.7 337-69-5.6841 33.803-15.727 67.02-35 99z"/><path id="path4073" d="m3581.1 3165-58.335-65.526c72.093-96.44 216.59-90.354 335.17-67.882 0.643 29.784-12.248 52.995-23.335 77.075-14.773 32.085-11.551 70.785 10.607 101.12 22.563 30.885 39.738 63.344 45.255 89.096 7.3542 34.329 3.0927 63.863-9.8995 94.752-37.427 88.982-124.03 146.52-223.45 125.87-82.604-17.162-104.2-107.5-94.752-193.75" stroke="#a11109" stroke-width="14" fill="none"/><path id="path4075" d="m3834.9 3108c-43.587 124.19-148.05 214.47-276.76 223.34-67.249 4.6331-97.207-6.3626-65.054-65.054 34.508-62.988 103.6-129.68 187.43-150.39 85.101-21.026 74.958 50.99 43.083 90.995-35.899 45.056-70.164 5.4515-59.397-29.698-77.297 36.065-61.715 91.178 2.3537 124.52" stroke="#a11109" stroke-width="14" fill="none"/><path id="path4077" d="m3826 3131c-33.153-13.033-90.295-21.151-120.62-18.778" stroke="#a11109" stroke-width="14" fill="none"/><path id="path4083" d="m3745.5 3136.6c9.2493 37.436 6.0856 92.13-17.083 126.74" stroke="#a11109" stroke-width="14" fill="none"/><path id="path4107" fill="#a11109" d="m3680.5 3225.5c-27.845 10.181-47.659 25.251-45 54-35.781-34.387-35.58-67.775 24.5-99.5 2.645 18.098 4.882 36.483 20.5 45.5z"/></g></svg>