<?xml version="1.0" encoding="UTF-8" standalone="no"?>
<!-- Created with Inkscape (http://www.inkscape.org/) -->

<svg
   xmlns:dc="http://purl.org/dc/elements/1.1/"
   xmlns:cc="http://creativecommons.org/ns#"
   xmlns:rdf="http://www.w3.org/1999/02/22-rdf-syntax-ns#"
   xmlns:svg="http://www.w3.org/2000/svg"
   xmlns="http://www.w3.org/2000/svg"
   xmlns:xlink="http://www.w3.org/1999/xlink"
   xmlns:sodipodi="http://sodipodi.sourceforge.net/DTD/sodipodi-0.dtd"
   xmlns:inkscape="http://www.inkscape.org/namespaces/inkscape"
   width="5100"
   height="6000"
   id="svg2"
   version="1.1"
   inkscape:version="0.48.4 r9939"
   sodipodi:docname="Blueblood.svg">
  <title
     id="title3768">Prince Blueblood</title>
  <defs
     id="defs4">
    <linearGradient
       id="linearGradient4089">
      <stop
         style="stop-color:#ff311b;stop-opacity:1;"
         offset="0"
         id="stop4091" />
      <stop
         style="stop-color:#b60c0b;stop-opacity:1;"
         offset="1"
         id="stop4093" />
    </linearGradient>
    <clipPath
       clipPathUnits="userSpaceOnUse"
       id="clipPath3903">
      <path
         style="opacity:0.5;fill:#00ff00;fill-opacity:1;stroke:#ff0000;stroke-width:1px;stroke-linecap:butt;stroke-linejoin:miter;stroke-opacity:1"
         d="m 2061.2111,3931.2557 -90.8338,-370.6541 286.594,-241.0413 -384.5385,95.2143 -262.6763,-304.2228 124.0691,381.3529 -286.5207,280.9074 375.1303,-116.9115 z"
         id="path3905"
         inkscape:connector-curvature="0"
         sodipodi:nodetypes="ccccccccc" />
    </clipPath>
    <clipPath
       clipPathUnits="userSpaceOnUse"
       id="clipPath3907">
      <path
         style="opacity:0.5;fill:#00ff00;fill-opacity:1;stroke:#ff0000;stroke-width:1px;stroke-linecap:butt;stroke-linejoin:miter;stroke-opacity:1"
         d="m 2061.2111,3931.2557 -90.8338,-370.6541 286.594,-241.0413 -384.5385,95.2143 -262.6763,-304.2228 124.0691,381.3529 -286.5207,280.9074 375.1303,-116.9115 z"
         id="path3909"
         inkscape:connector-curvature="0"
         sodipodi:nodetypes="ccccccccc" />
    </clipPath>
    <clipPath
       clipPathUnits="userSpaceOnUse"
       id="clipPath3911">
      <path
         style="opacity:0.5;fill:#00ff00;fill-opacity:1;stroke:#ff0000;stroke-width:1px;stroke-linecap:butt;stroke-linejoin:miter;stroke-opacity:1"
         d="m 2061.2111,3931.2557 -90.8338,-370.6541 286.594,-241.0413 -384.5385,95.2143 -262.6763,-304.2228 124.0691,381.3529 -286.5207,280.9074 375.1303,-116.9115 z"
         id="path3913"
         inkscape:connector-curvature="0"
         sodipodi:nodetypes="ccccccccc" />
    </clipPath>
    <clipPath
       clipPathUnits="userSpaceOnUse"
       id="clipPath3915">
      <path
         style="opacity:0.5;fill:#00ff00;fill-opacity:1;stroke:#ff0000;stroke-width:1px;stroke-linecap:butt;stroke-linejoin:miter;stroke-opacity:1"
         d="m 2061.2111,3931.2557 -90.8338,-370.6541 286.594,-241.0413 -384.5385,95.2143 -262.6763,-304.2228 124.0691,381.3529 -286.5207,280.9074 375.1303,-116.9115 z"
         id="path3917"
         inkscape:connector-curvature="0"
         sodipodi:nodetypes="ccccccccc" />
    </clipPath>
    <clipPath
       clipPathUnits="userSpaceOnUse"
       id="clipPath3919">
      <path
         style="opacity:0.5;fill:#00ff00;fill-opacity:1;stroke:#ff0000;stroke-width:1px;stroke-linecap:butt;stroke-linejoin:miter;stroke-opacity:1"
         d="m 2061.2111,3931.2557 -90.8338,-370.6541 286.594,-241.0413 -384.5385,95.2143 -262.6763,-304.2228 124.0691,381.3529 -286.5207,280.9074 375.1303,-116.9115 z"
         id="path3921"
         inkscape:connector-curvature="0"
         sodipodi:nodetypes="ccccccccc" />
    </clipPath>
    <clipPath
       clipPathUnits="userSpaceOnUse"
       id="clipPath3923">
      <path
         style="opacity:0.5;fill:#00ff00;fill-opacity:1;stroke:#ff0000;stroke-width:1px;stroke-linecap:butt;stroke-linejoin:miter;stroke-opacity:1"
         d="m 2061.2111,3931.2557 -90.8338,-370.6541 286.594,-241.0413 -384.5385,95.2143 -262.6763,-304.2228 124.0691,381.3529 -286.5207,280.9074 375.1303,-116.9115 z"
         id="path3925"
         inkscape:connector-curvature="0"
         sodipodi:nodetypes="ccccccccc" />
    </clipPath>
    <clipPath
       clipPathUnits="userSpaceOnUse"
       id="clipPath3927">
      <path
         style="opacity:0.5;fill:#00ff00;fill-opacity:1;stroke:#ff0000;stroke-width:1px;stroke-linecap:butt;stroke-linejoin:miter;stroke-opacity:1"
         d="m 2061.2111,3931.2557 -90.8338,-370.6541 286.594,-241.0413 -384.5385,95.2143 -262.6763,-304.2228 124.0691,381.3529 -286.5207,280.9074 375.1303,-116.9115 z"
         id="path3929"
         inkscape:connector-curvature="0"
         sodipodi:nodetypes="ccccccccc" />
    </clipPath>
    <clipPath
       clipPathUnits="userSpaceOnUse"
       id="clipPath3931">
      <path
         style="opacity:0.5;fill:#00ff00;fill-opacity:1;stroke:#ff0000;stroke-width:1px;stroke-linecap:butt;stroke-linejoin:miter;stroke-opacity:1"
         d="m 2061.2111,3931.2557 -90.8338,-370.6541 286.594,-241.0413 -384.5385,95.2143 -262.6763,-304.2228 124.0691,381.3529 -286.5207,280.9074 375.1303,-116.9115 z"
         id="path3933"
         inkscape:connector-curvature="0"
         sodipodi:nodetypes="ccccccccc" />
    </clipPath>
    <clipPath
       clipPathUnits="userSpaceOnUse"
       id="clipPath3952">
      <path
         style="opacity:0.5;fill:#00ff00;fill-opacity:1;stroke:#ff0000;stroke-width:1px;stroke-linecap:butt;stroke-linejoin:miter;stroke-opacity:1"
         d="m 1945.7877,3116.619 -11.4446,354.5526 314.2752,161.8003 L 1916,3630 1741.5827,3925.876 1752,3614 1420.5134,3474.7726 1782,3440 z"
         id="path3954"
         inkscape:connector-curvature="0"
         sodipodi:nodetypes="ccccccccc" />
    </clipPath>
    <clipPath
       clipPathUnits="userSpaceOnUse"
       id="clipPath3956">
      <path
         style="opacity:0.5;fill:#00ff00;fill-opacity:1;stroke:#ff0000;stroke-width:1px;stroke-linecap:butt;stroke-linejoin:miter;stroke-opacity:1"
         d="m 1945.7877,3116.619 -11.4446,354.5526 314.2752,161.8003 L 1916,3630 1741.5827,3925.876 1752,3614 1420.5134,3474.7726 1782,3440 z"
         id="path3958"
         inkscape:connector-curvature="0"
         sodipodi:nodetypes="ccccccccc" />
    </clipPath>
    <clipPath
       clipPathUnits="userSpaceOnUse"
       id="clipPath3960">
      <path
         style="opacity:0.5;fill:#00ff00;fill-opacity:1;stroke:#ff0000;stroke-width:1px;stroke-linecap:butt;stroke-linejoin:miter;stroke-opacity:1"
         d="m 1945.7877,3116.619 -11.4446,354.5526 314.2752,161.8003 L 1916,3630 1741.5827,3925.876 1752,3614 1420.5134,3474.7726 1782,3440 z"
         id="path3962"
         inkscape:connector-curvature="0"
         sodipodi:nodetypes="ccccccccc" />
    </clipPath>
    <clipPath
       clipPathUnits="userSpaceOnUse"
       id="clipPath3964">
      <path
         style="opacity:0.5;fill:#00ff00;fill-opacity:1;stroke:#ff0000;stroke-width:1px;stroke-linecap:butt;stroke-linejoin:miter;stroke-opacity:1"
         d="m 1945.7877,3116.619 -11.4446,354.5526 314.2752,161.8003 L 1916,3630 1741.5827,3925.876 1752,3614 1420.5134,3474.7726 1782,3440 z"
         id="path3966"
         inkscape:connector-curvature="0"
         sodipodi:nodetypes="ccccccccc" />
    </clipPath>
    <clipPath
       clipPathUnits="userSpaceOnUse"
       id="clipPath3968">
      <path
         style="opacity:0.5;fill:#00ff00;fill-opacity:1;stroke:#ff0000;stroke-width:1px;stroke-linecap:butt;stroke-linejoin:miter;stroke-opacity:1"
         d="m 1945.7877,3116.619 -11.4446,354.5526 314.2752,161.8003 L 1916,3630 1741.5827,3925.876 1752,3614 1420.5134,3474.7726 1782,3440 z"
         id="path3970"
         inkscape:connector-curvature="0"
         sodipodi:nodetypes="ccccccccc" />
    </clipPath>
    <clipPath
       clipPathUnits="userSpaceOnUse"
       id="clipPath3972">
      <path
         style="opacity:0.5;fill:#00ff00;fill-opacity:1;stroke:#ff0000;stroke-width:1px;stroke-linecap:butt;stroke-linejoin:miter;stroke-opacity:1"
         d="m 1945.7877,3116.619 -11.4446,354.5526 314.2752,161.8003 L 1916,3630 1741.5827,3925.876 1752,3614 1420.5134,3474.7726 1782,3440 z"
         id="path3974"
         inkscape:connector-curvature="0"
         sodipodi:nodetypes="ccccccccc" />
    </clipPath>
    <clipPath
       clipPathUnits="userSpaceOnUse"
       id="clipPath3976">
      <path
         style="opacity:0.5;fill:#00ff00;fill-opacity:1;stroke:#ff0000;stroke-width:1px;stroke-linecap:butt;stroke-linejoin:miter;stroke-opacity:1"
         d="m 1945.7877,3116.619 -11.4446,354.5526 314.2752,161.8003 L 1916,3630 1741.5827,3925.876 1752,3614 1420.5134,3474.7726 1782,3440 z"
         id="path3978"
         inkscape:connector-curvature="0"
         sodipodi:nodetypes="ccccccccc" />
    </clipPath>
    <clipPath
       clipPathUnits="userSpaceOnUse"
       id="clipPath3980">
      <path
         style="opacity:0.5;fill:#00ff00;fill-opacity:1;stroke:#ff0000;stroke-width:1px;stroke-linecap:butt;stroke-linejoin:miter;stroke-opacity:1"
         d="m 1945.7877,3116.619 -11.4446,354.5526 314.2752,161.8003 L 1916,3630 1741.5827,3925.876 1752,3614 1420.5134,3474.7726 1782,3440 z"
         id="path3982"
         inkscape:connector-curvature="0"
         sodipodi:nodetypes="ccccccccc" />
    </clipPath>
    <linearGradient
       inkscape:collect="always"
       xlink:href="#linearGradient4089"
       id="linearGradient4095"
       x1="3709.741"
       y1="3263.8503"
       x2="3672.7124"
       y2="3239.8088"
       gradientUnits="userSpaceOnUse" />
    <linearGradient
       inkscape:collect="always"
       xlink:href="#linearGradient4089"
       id="linearGradient4105"
       x1="3541.345"
       y1="3279.76"
       x2="3652.2537"
       y2="3165.916"
       gradientUnits="userSpaceOnUse" />
  </defs>
  <sodipodi:namedview
     id="base"
     pagecolor="#ffffff"
     bordercolor="#666666"
     borderopacity="1.0"
     inkscape:pageopacity="0.0"
     inkscape:pageshadow="2"
     inkscape:zoom="0.099833333"
     inkscape:cx="2550"
     inkscape:cy="3000"
     inkscape:document-units="px"
     inkscape:current-layer="layer2"
     showgrid="false"
     fit-margin-top="0"
     fit-margin-left="0"
     fit-margin-right="0"
     fit-margin-bottom="0"
     inkscape:window-width="1280"
     inkscape:window-height="778"
     inkscape:window-x="-8"
     inkscape:window-y="-8"
     inkscape:window-maximized="1"
     inkscape:object-paths="false"
     inkscape:object-nodes="false"
     inkscape:snap-intersection-paths="false"
     inkscape:snap-global="true"
     showguides="true"
     inkscape:guide-bbox="true" />
  <metadata
     id="metadata7">
    <rdf:RDF>
      <cc:Work
         rdf:about="">
        <dc:format>image/svg+xml</dc:format>
        <dc:type
           rdf:resource="http://purl.org/dc/dcmitype/StillImage" />
        <dc:title>Prince Blueblood</dc:title>
      </cc:Work>
    </rdf:RDF>
  </metadata>
  <g
     inkscape:groupmode="layer"
     id="layer16"
     inkscape:label="Background"
     sodipodi:insensitive="true"
     style="display:none">
    <rect
       style="color:#000000;fill:#000000;fill-opacity:1;fill-rule:nonzero;stroke:#00ff00;stroke-width:1;stroke-linecap:butt;stroke-linejoin:miter;stroke-miterlimit:4;stroke-opacity:1;stroke-dasharray:none;stroke-dashoffset:0;marker:none;visibility:visible;display:inline;overflow:visible;enable-background:accumulate"
       id="rect4114"
       width="5178.6309"
       height="6070.1167"
       x="-30.050083"
       y="-30.050083" />
  </g>
  <g
     inkscape:groupmode="layer"
     id="layer2"
     inkscape:label="Shadow"
     style="opacity:0.2;display:none"
     sodipodi:insensitive="true">
    <path
       sodipodi:type="arc"
       style="color:#000000;fill:#000000;fill-opacity:1;fill-rule:nonzero;stroke:none;stroke-width:1px;marker:none;visibility:visible;display:inline;overflow:visible;enable-background:accumulate"
       id="path3765"
       sodipodi:cx="2447.1326"
       sodipodi:cy="5585.6519"
       sodipodi:rx="1852.1711"
       sodipodi:ry="301.02209"
       d="m 4299.3037,5585.6519 a 1852.1711,301.02209 0 1 1 -3704.34227,0 1852.1711,301.02209 0 1 1 3704.34227,0 z"
       transform="matrix(1.0350541,0.06822284,-0.08126368,0.75632705,318.54864,1335.7794)" />
  </g>
  <g
     inkscape:groupmode="layer"
     id="layer3"
     inkscape:label="Rear Legs"
     style="display:inline"
     sodipodi:insensitive="true">
    <path
       style="fill:#9babc4;fill-opacity:1;stroke:#8b9dbb;stroke-width:34;stroke-linecap:butt;stroke-linejoin:miter;stroke-miterlimit:4;stroke-opacity:1;stroke-dasharray:none"
       d="m 2316.0993,5408.5801 c -1.891,108.057 32.0855,211.5963 118.6382,235.5056 263.3041,72.735 553.4455,81.3459 826.9254,37.185 l -97.3896,-593.1905 z"
       id="path3774"
       inkscape:connector-curvature="0"
       sodipodi:nodetypes="csccc" />
    <path
       style="fill:#e7ecf2;fill-opacity:1;stroke:#baccdb;stroke-width:34;stroke-linecap:butt;stroke-linejoin:miter;stroke-miterlimit:9;stroke-opacity:1;stroke-dasharray:none"
       d="m 2794.6578,4257.0952 c -148.5627,231.5272 -517.0557,769.4673 -483.3055,1170.7011 17.3596,206.3775 146.1086,137.4737 207.8464,20.0334 -8.708,142.9023 114.9108,40.9614 181.5526,-113.9399 4.2714,257.059 190.0181,39.0188 254.1735,-57.5959 268.7424,-308.3887 203.0844,-653.933 252.9216,-986.6445 z"
       id="path3772"
       inkscape:connector-curvature="0"
       sodipodi:nodetypes="csccccc" />
    <path
       style="fill:#e7ecf2;fill-opacity:1;stroke:#baccdb;stroke-width:34;stroke-linecap:butt;stroke-linejoin:miter;stroke-miterlimit:4;stroke-opacity:1;stroke-dasharray:none"
       d="m 2261.9406,4061.6191 c -321.1301,95.3154 -577.9174,305.6877 -742.6644,553.6793 l -396.3892,6.0456 c 75.497,-216.6447 192.2455,-388.3838 309.624,-581.529 21.1954,-34.8769 49.1452,-60.5545 122.1795,-15.9365 239.9324,-90.7164 480.6619,-128.5249 707.2501,37.7406 z"
       id="path3776"
       inkscape:connector-curvature="0"
       sodipodi:nodetypes="cccscc" />
    <path
       style="fill:#9babc4;fill-opacity:1;stroke:#8b9dbb;stroke-width:34;stroke-linecap:butt;stroke-linejoin:miter;stroke-miterlimit:4;stroke-opacity:1;stroke-dasharray:none"
       d="m 1057.1188,4838.4089 -86.76525,331.1243 c -76.78315,-132.2285 8.85361,-279.7735 86.76525,-331.1243 z"
       id="path3778"
       inkscape:connector-curvature="0"
       sodipodi:nodetypes="ccc" />
  </g>
  <g
     inkscape:groupmode="layer"
     id="layer4"
     inkscape:label="Rear Ear"
     style="display:inline"
     sodipodi:insensitive="true">
    <path
       style="fill:#ffffff;stroke:#baccdb;stroke-width:34;stroke-linecap:butt;stroke-linejoin:miter;stroke-miterlimit:4;stroke-opacity:1;stroke-dasharray:none"
       d="M 4262.1035,1081.803 C 4196.1529,944.73085 4140.5577,797.93612 4036.7279,702.93933 4001.0657,670.31102 3964.6516,671.22159 3939.0651,713.68948 3856.9963,849.9055 3816.4908,991.3449 3801.3356,1139.399"
       id="path3781"
       inkscape:connector-curvature="0"
       sodipodi:nodetypes="cssc" />
  </g>
  <g
     inkscape:groupmode="layer"
     id="layer5"
     inkscape:label="Rear Mane"
     style="display:inline"
     sodipodi:insensitive="true">
    <path
       style="fill:#e7c357;fill-opacity:1;stroke:#c8a62b;stroke-width:34;stroke-linecap:butt;stroke-linejoin:miter;stroke-miterlimit:4;stroke-opacity:1;stroke-dasharray:none"
       d="m 3540.9015,1194.4908 c 172.2502,-242.64386 524.1875,-349.29028 768.7813,-297.99665 244.5938,51.29363 445.0398,360.58215 385.6427,673.62275"
       id="path3784"
       inkscape:connector-curvature="0"
       sodipodi:nodetypes="czc" />
    <path
       style="fill:none;stroke:#c8a62b;stroke-width:24;stroke-linecap:butt;stroke-linejoin:miter;stroke-miterlimit:4;stroke-opacity:1;stroke-dasharray:none"
       d="M 4660.2671,1522.5376 C 4647.8668,1250.3862 4537.8915,968.31074 4202.0033,888.98163"
       id="path3786"
       inkscape:connector-curvature="0"
       sodipodi:nodetypes="cc" />
  </g>
  <g
     inkscape:groupmode="layer"
     id="layer6"
     inkscape:label="Tail"
     style="display:inline"
     sodipodi:insensitive="true">
    <path
       style="fill:#e7c357;fill-opacity:1;stroke:#c8a62b;stroke-width:34;stroke-linecap:butt;stroke-linejoin:miter;stroke-miterlimit:4;stroke-opacity:1;stroke-dasharray:none"
       d="m 1551.1491,3186.3288 c -35.1545,-198.2516 -258.4992,-435.2351 -483.406,-522.3618 -217.47986,-84.2495 -354.42803,-58.9366 -462.1575,132.8039 -102.59318,182.5987 -174.20431,587.67 -199.351,936.3709 -26.31778,364.9401 -84.68381,719.3578 -133.54401,1027.3555 -27.65674,174.3385 -84.86864,243.825 -169.41186,163.4415 -15.886198,77.2701 30.31823,147.5804 97.05516,162.0378 193.5706,41.9336 439.05347,-41.5231 540.9015,-210.3505 147.0103,-243.6903 143.48431,-580.4851 165.85328,-867.9299 20.91506,-268.7618 34.05436,-548.0427 145.32553,-768.7275 95.5574,-189.5196 365.5998,-181.8286 392.4918,41.2082 z"
       id="path3793"
       inkscape:connector-curvature="0"
       sodipodi:nodetypes="csssscsssscc" />
    <path
       style="fill:none;stroke:#c8a62b;stroke-width:24;stroke-linecap:butt;stroke-linejoin:miter;stroke-miterlimit:4;stroke-opacity:1;stroke-dasharray:none"
       d="m 991.65276,2636.8948 c -157.47315,12.4928 -293.81806,93.7254 -340.56762,333.0551 -93.90098,480.7167 -157.44131,1156.2775 -272.95492,1725.3756 -31.37316,154.5654 -71.9795,297.4345 -185.30885,388.147"
       id="path3795"
       inkscape:connector-curvature="0"
       sodipodi:nodetypes="cssc" />
    <path
       style="fill:none;stroke:#c8a62b;stroke-width:24;stroke-linecap:butt;stroke-linejoin:miter;stroke-miterlimit:4;stroke-opacity:1;stroke-dasharray:none"
       d="m 1384.808,3147.7379 c -56.5213,-143.9597 -277.0457,-171.3931 -420.70115,-50.0751 -137.10496,115.7861 -182.75388,481.6442 -211.43045,883.5603 -17.05454,239.0276 -57.15809,480.3595 -82.29132,678.4364 -17.01451,134.0926 -65.84922,290.5974 -126.9794,383.7462"
       id="path3797"
       inkscape:connector-curvature="0"
       sodipodi:nodetypes="csssc" />
    <path
       style="fill:#c8a62b;fill-opacity:1;stroke:none"
       d="m 108.89917,5037.6147 c -40.29289,-51.5496 -46.624695,-214.4736 -17.555282,-249.6843 29.069422,-35.2108 80.669072,-28.8 95.954052,-7.7719 15.28497,21.0282 13.28292,66.5936 4.38229,82.1551 -8.90063,15.5615 -27.87299,27.2623 -52.67885,23.0193 20.31074,-15.0848 22.81629,-35.4948 20.36325,-59.7617 -2.45303,-24.2669 -37.56565,-27.486 -43.38259,5.7548 -5.81695,33.2408 -18.200461,97.5128 52.23619,111.1125 l -59.31906,0.4428 z"
       id="path3799"
       inkscape:connector-curvature="0"
       sodipodi:nodetypes="czzzczzccc" />
  </g>
  <g
     inkscape:groupmode="layer"
     id="layer7"
     inkscape:label="Body + Forward Legs"
     style="display:inline"
     sodipodi:insensitive="true">
    <path
       style="fill:#ffffff;stroke:none"
       d="m 1299.6661,4196.995 478.2972,155.2588 c 61.4385,-77.6157 128.9169,-125.0313 197.8297,-165.2755 76.1768,-44.1862 120.8027,-96.2601 167.7796,-147.7462 238.4267,197.3783 507.7838,271.0351 791.3189,287.9799 l 563.4391,10.0167 c 328.2967,-75.3835 557.1252,-284.0859 645.1499,-578.9579 70.492,-224.8745 58.2599,-481.566 31.8729,-743.7016 -26.1679,-192.418 -51.5496,-384.8361 -84.9945,-577.2541 -0.6036,-98.7209 -6.9319,-198.8729 21.2486,-290.3978 l -619.7513,-74.3702 -474.5525,690.5801 c -148.2042,131.9572 -297.0384,262.1821 -500.6092,241.8811 -148.581,2.9849 -297.1619,-28.5134 -445.7429,-67.6126 -151.5563,-56.9848 -293.2757,-22.1591 -430.7179,52.5876 -126.3824,63.4691 -200.9232,160.6353 -232.8881,285.4758 -75.6401,158.2232 -34.2254,306.6919 0,455.7596 43.6716,134.5044 98.115,266.8544 120.2003,405.6761 -98.1227,-18.7515 -185.8831,-19.3689 -227.8798,60.1002 z"
       id="path3866"
       inkscape:connector-curvature="0"
       sodipodi:nodetypes="ccccccccccccccccccc" />
    <path
       style="fill:#a0aecd;fill-opacity:1;stroke:#8b9dbb;stroke-width:34;stroke-linecap:butt;stroke-linejoin:miter;stroke-miterlimit:4;stroke-opacity:1;stroke-dasharray:none"
       d="m 1611.8092,5363.4897 c 22.2244,141.2635 162.4631,332.859 1.315,339.0297 -159.3543,6.102 -321.1223,16.2529 -479.346,-3.2376 -96.9379,-11.9412 -193.58647,-50.2597 -196.09395,-214.0422 213.87705,-128.2415 451.12635,-280.8361 674.12495,-121.7499 z"
       id="path3810"
       inkscape:connector-curvature="0"
       sodipodi:nodetypes="csscc" />
    <path
       style="fill:#a0aecd;fill-opacity:1;stroke:#8b9dbb;stroke-width:34;stroke-linecap:butt;stroke-linejoin:miter;stroke-miterlimit:4;stroke-opacity:1;stroke-dasharray:none"
       d="m 3728.5248,5404.0015 c 11.3076,112.1838 -31.0162,203.36 -93.2405,287.8935 -52.3358,71.0998 -129.684,89.8682 -226.6519,88.5359 -194.6576,-2.6745 -476.6309,-208.2268 -522.3618,-291.6498 -49.4355,-90.181 -30.77,-169.2287 74.3701,-257.2728 270.259,2.4938 560.9705,-24.5614 767.8841,172.4932 z"
       id="path3814"
       inkscape:connector-curvature="0"
       sodipodi:nodetypes="cssscc" />
    <path
       style="fill:#ffffff;stroke:none"
       d="m 2333.8065,3676.8178 c -81.8543,250.2498 -210.661,424.7422 -388.3059,531.0006 -115.5301,69.1045 -184.6606,164.1062 -223.9329,273.3351 -100.8127,280.3931 -180.2501,642.9425 -95.8336,935.7616 35.8762,124.4454 -104.2618,80.4892 -143.643,-49.9469 -55.2394,117.5244 -164.1512,253.8477 -225.7665,61.0898 -33.494,84.0132 -119.6783,223.3239 -148.7404,97.3895 -58.9905,145.2841 -166.58138,70.0572 -169.10358,-10.6243 -15.37413,-491.7973 104.60628,-935.4729 367.27218,-1316.8067 63.2758,-91.8628 108.7733,-75.2454 220.6062,-59.5599"
       id="path3808-7"
       inkscape:connector-curvature="0"
       sodipodi:nodetypes="cssscccssc" />
    <path
       style="fill:#ffffff;stroke:none"
       d="m 2784.6411,4059.2654 c 87.535,142.6047 151.1032,257.0228 189.4578,413.9222 49.7157,203.3743 147.7535,568.4088 -26.8904,749.682 -156.9307,162.8876 -84.9517,248.3324 132.0704,104.2575 -112.1215,130.1017 127.4532,62.9234 231.964,-30.1022 -121.6248,165.4652 89.2165,158.3289 263.837,38.9558 -62.992,174.8378 53.3604,212.4321 152.2818,150.5111 27.2538,-230.6561 -7.2032,-723.8148 -169.989,-1005.768 -31.7434,-54.9812 -88.8567,-146.709 -38.9557,-208.9447 97.177,-121.1976 121.3813,-261.5353 132.8038,-401.953"
       id="path3812-1"
       inkscape:connector-curvature="0"
       sodipodi:nodetypes="cssccccssc" />
    <path
       style="font-size:medium;font-style:normal;font-variant:normal;font-weight:normal;font-stretch:normal;text-indent:0;text-align:start;text-decoration:none;line-height:normal;letter-spacing:normal;word-spacing:normal;text-transform:none;direction:ltr;block-progression:tb;writing-mode:lr-tb;text-anchor:start;baseline-shift:baseline;color:#000000;fill:#baccdb;fill-opacity:1;stroke:none;stroke-width:34;marker:none;visibility:visible;display:inline;overflow:visible;enable-background:accumulate;font-family:Sans;-inkscape-font-specification:Sans"
       d="m 3014.3438,2742.0312 c -118.8984,114.7545 -201.2435,178.1176 -279.6563,211.8126 -78.4128,33.6949 -154.3172,38.8303 -263.9375,34.875 -111.1472,-4.0104 -268.8839,-31.8109 -397.5,-71.8438 -126.0658,-39.2391 -246.9486,-23.0668 -366.0625,20.1875 -180.707,65.6209 -277.0679,185.9961 -328.6875,361.7187 -60.991,207.6252 -9.0427,402.5663 54.1875,568.8126 38.1926,100.4166 87.6564,226.9056 94.04,347.4699 35.1816,-118.5843 -24.1141,-259.2417 -62.2587,-359.5325 -62.2887,-163.7707 -111.2416,-350.0922 -53.3438,-547.1874 49.6538,-169.031 135.5944,-276.8623 307.6562,-339.3438 114.7878,-41.6833 226.6631,-56.2952 344.375,-19.6562 131.8456,41.0381 290.7859,69.2043 406.375,73.375 111.2734,4.0149 193.9281,-1.2879 278.5626,-37.6563 84.6344,-36.3684 169.8453,-102.7162 289.875,-218.5625 z"
       id="path3802"
       inkscape:connector-curvature="0"
       sodipodi:nodetypes="csssssscsssssscc" /><!--S[i]g[m]a-->
    <path
       style="font-size:medium;font-style:normal;font-variant:normal;font-weight:normal;font-stretch:normal;text-indent:0;text-align:start;text-decoration:none;line-height:normal;letter-spacing:normal;word-spacing:normal;text-transform:none;direction:ltr;block-progression:tb;writing-mode:lr-tb;text-anchor:start;baseline-shift:baseline;color:#000000;fill:#baccdb;fill-opacity:1;stroke:none;stroke-width:34;marker:none;visibility:visible;display:inline;overflow:visible;enable-background:accumulate;font-family:Sans;-inkscape-font-specification:Sans"
       d="m 1936.7812,4193.2188 c -118.8566,71.0942 -190.8592,169.9347 -231.2187,282.1874 -101.4293,282.108 -182.3937,647.0834 -96.1563,946.2188 8.2269,28.5368 4.4967,43.4962 1.0626,47.9688 -1.7171,2.2362 -3.2812,3.2366 -6.875,3.8437 -3.5939,0.6071 -9.2217,0.2218 -16.125,-2.0625 -27.6135,-9.1373 -70.8632,-48.93 -89.0938,-109.3125 l -12.8125,-42.4375 -18.8437,40.125 c -26.8665,57.1597 -68.7107,118.8005 -103.75,139.4688 -17.5197,10.3341 -29.8693,11.7624 -44.0626,2.7812 -14.1932,-8.9812 -31.5903,-32.8726 -46.375,-79.125 l -14.4374,-45.125 -17.5626,44 c -16.0865,40.3499 -46.4121,95.6539 -72.3124,121.75 -6.4751,6.524 -12.5772,11.1104 -17.1563,13.375 -4.5791,2.2646 -6.9003,2.2315 -8.375,1.8438 -1.4747,-0.3878 -3.8148,-1.4378 -7.4375,-7.0626 -3.6227,-5.6247 -7.7452,-15.5209 -11.0938,-30.0312 l -12.0937,-52.375 -20.2187,49.8125 c -13.8776,34.1783 -30.0301,53.597 -44.5626,63.1563 -14.5324,9.5592 -27.4259,10.424 -40.375,6.4062 -25.89805,-8.0355 -50.40708,-41.3837 -51.43745,-74.3438 -15.27784,-488.7172 103.73785,-928.3725 364.28125,-1306.625 30.2865,-43.9694 52.2778,-58.3639 80.8125,-62.9687 28.5347,-4.6048 67.0173,2.6803 123.4375,10.5937 l 4.7188,-33.6562 c -55.4128,-7.7721 -95.6025,-16.6308 -133.5938,-10.5 -37.9913,6.1308 -70.3857,29.3567 -103.375,77.25 -264.7884,384.4152 -385.72042,832.0914 -370.25,1326.9688 1.49183,47.7214 32.03698,92.3227 75.3125,105.75 21.6378,6.7136 46.8456,4.2068 69.1563,-10.4688 14.4284,-9.4908 27.6379,-23.6459 39.4062,-42.8125 0.4372,0.7291 0.8277,1.5458 1.2812,2.25 6.7841,10.5331 16.191,18.6138 27.4063,21.5625 11.2153,2.9487 22.5263,0.4662 32.0625,-4.25 9.5362,-4.7162 18.011,-11.6365 26.2188,-19.9062 23.833,-24.0132 45.8675,-60.3059 62.8437,-95.0938 12.8482,27.8652 27.6902,47.0346 45.5625,58.3438 25.2832,15.9986 55.1849,12.1237 79.5,-2.2188 39.4692,-23.2813 73.2565,-70.6726 99.8125,-119.9688 24.0882,49.867 61.4471,83.4537 96.7187,95.125 10.833,3.5847 21.7905,5.1216 32.5,3.3126 10.7096,-1.8091 21.1652,-7.5514 28.1563,-16.6563 13.9822,-18.2098 14.3363,-44.4078 4.625,-78.0937 -82.5956,-286.5028 -4.6961,-646.6343 95.5,-925.3126 38.1851,-106.205 104.4527,-197.3852 216.6563,-264.5 181.5742,-108.6087 367.8756,-342.1657 382.7339,-562.7223 -73.6776,209.7278 -226.4559,429.6268 -400.1715,533.5349 z"
       id="path3808"
       inkscape:connector-curvature="0"
       sodipodi:nodetypes="ssscsssccsscccsscscccsssssccsssssccssscsscsssssscs" />
    <path
       style="font-size:medium;font-style:normal;font-variant:normal;font-weight:normal;font-stretch:normal;text-indent:0;text-align:start;text-decoration:none;line-height:normal;letter-spacing:normal;word-spacing:normal;text-transform:none;direction:ltr;block-progression:tb;writing-mode:lr-tb;text-anchor:start;baseline-shift:baseline;color:#000000;fill:#baccdb;fill-opacity:1;stroke:none;stroke-width:34;marker:none;visibility:visible;display:inline;overflow:visible;enable-background:accumulate;font-family:Sans;-inkscape-font-specification:Sans"
       d="m 3505.1562,4261.1562 c -29.4804,36.7675 -26.9451,82.6806 -14.0624,123 12.8826,40.3195 35.8513,77.85 51.5624,105.0626 157.1335,272.163 193.6347,757.2668 168.6876,986.9687 -43.3607,24.656 -86.933,26.8243 -111.0938,9.9063 -12.73,-8.914 -21.8999,-22.9709 -25,-46.375 -3.1001,-23.4042 0.696,-56.0122 15.8125,-97.9688 l 17.8437,-49.4688 -43.4062,29.6563 c -84.809,57.9767 -180.1726,87.8993 -232.2812,84.4063 -13.0272,-0.8733 -23.0522,-3.7604 -29.375,-7.4688 -6.3229,-3.7084 -9.218,-7.4254 -10.7813,-13.4375 -3.1265,-12.0242 2.8225,-38.8191 31.875,-78.3437 l 57.4375,-78.1563 -80.5938,53.9687 c -58.3301,39.0478 -144.3059,78.7984 -197.7187,91.6563 -13.3532,3.2145 -24.6635,4.6723 -31.9375,4.4687 -3.104,-0.087 -4.9221,-0.5174 -6.0938,-0.8437 0.2025,-0.8818 0.3916,-1.9439 1.6876,-4.9375 3.2006,-7.3934 11.0548,-19.5025 24.4374,-35.0312 l 80.6563,-93.5938 -102.9375,68.3438 c -53.2497,35.3509 -97.2325,56.2187 -129.4062,65.1874 -32.1738,8.9688 -50.2637,4.7169 -55.875,-0.5 -2.8057,-2.6084 -4.5331,-5.8441 -4.7813,-12.8437 -0.2482,-6.9996 1.6823,-17.3782 7,-30.1563 10.6354,-25.556 34.3581,-60.2805 72.625,-100 92.3806,-95.8872 111.3497,-237.8449 102.3125,-379.4374 -9.0372,-141.5926 -46.3221,-284.6002 -71.125,-386.0626 -38.9308,-159.2563 -126.783,-330.7409 -206.9853,-412.4847 50.831,95.3279 136.1756,266.0048 173.9541,420.5473 24.9128,101.9119 61.4691,243.1008 70.2187,380.1874 8.7496,137.0867 -10.5804,268.2703 -92.8437,353.6563 -40.1985,41.7243 -66.308,78.7566 -79.5313,110.5313 -6.6117,15.8873 -10.1163,30.5821 -9.625,44.4374 0.4913,13.8554 5.6776,27.2833 15.625,36.5313 19.8948,18.496 50.7006,18.7849 88.1563,8.3437 23.8811,-6.6571 51.4052,-18.2737 82.5312,-35.2812 -0.9225,8.1666 0.4308,16.2699 5.5,23.125 8.4098,11.3727 21.3125,13.9393 33.5312,14.2812 12.2188,0.342 25.7531,-1.7659 40.875,-5.4062 43.6746,-10.5136 100.6107,-34.5328 152.3126,-62.6875 -6.5419,17.9416 -8.0639,34.1235 -4.1876,49.0313 3.8281,14.7221 13.8221,26.8326 26.4688,34.25 12.6467,7.4173 27.6723,10.947 44.3125,12.0624 57.1241,3.8293 136.9319,-20.2435 215.1875,-65.9374 -5.8635,26.372 -7.2771,49.5856 -4.5938,69.8437 4.0908,30.8829 18.3696,55.1508 39.2188,69.75 41.6985,29.1985 102.3119,20.3407 155.625,-13.0313 l 6.9062,-4.3124 0.9688,-8.0938 c 27.7811,-235.1185 -5.598,-727.7941 -172.1562,-1016.2812 -16.0323,-27.7687 -37.4904,-63.5577 -48.625,-98.4063 -11.1347,-34.8486 -12.2019,-65.938 8.2187,-91.4063 100.3217,-125.1195 123.1924,-250.2698 118.7331,-385.4863 -25.708,133.9326 -51.232,246.9607 -145.2644,364.2363 z"
       inkscape:connector-curvature="0"
       sodipodi:nodetypes="ssscsscccssscccsccccccscssssscssssssscssscssscsscccssscs" />
    <path
       style="fill:none;stroke:#baccdb;stroke-width:34;stroke-linecap:butt;stroke-linejoin:miter;stroke-miterlimit:4;stroke-opacity:1;stroke-dasharray:none"
       d="m 2932.3093,4339.0664 c -275.3382,-34.7821 -552.8221,-104.0152 -791.5111,-297.4807"
       id="path3816"
       inkscape:connector-curvature="0"
       sodipodi:nodetypes="cc" />
    <path
       style="fill:none;stroke:#baccdb;stroke-width:34;stroke-linecap:butt;stroke-linejoin:miter;stroke-miterlimit:4;stroke-opacity:1;stroke-dasharray:none"
       d="m 3497.1684,4335.5249 c 383.1923,-87.0463 587.5461,-345.9013 656.9364,-610.8978 67.6589,-258.3845 37.6998,-522.4667 14.1657,-777.3452 -22.5852,-244.6015 -103.921,-494.6245 -67.2873,-733.0773"
       id="path3818"
       inkscape:connector-curvature="0"
       sodipodi:nodetypes="cssc" />
  </g>
  <g
     inkscape:groupmode="layer"
     id="layer8"
     inkscape:label="Cutie Mark"
     style="display:inline"
     sodipodi:insensitive="true">
    <path
       style="fill:#b7b4e8;fill-opacity:1;stroke:none"
       d="m 1443.7294,3774.8137 348.5448,-195.1156 -181.4851,-25.008 z"
       id="path3897"
       inkscape:connector-curvature="0"
       clip-path="url(#clipPath3931)" />
    <path
       style="fill:#b7b4e8;fill-opacity:1;stroke:none"
       d="m 2065.0337,3938.2049 -193.7152,-352.1569 167.8519,45.0525 z"
       id="path3899"
       inkscape:connector-curvature="0"
       clip-path="url(#clipPath3927)" />
    <path
       style="fill:#b7b4e8;fill-opacity:1;stroke:none"
       d="m 1602.5851,3097.7746 248.7776,448.8457 415.4284,-232.5571 z"
       id="path3901"
       inkscape:connector-curvature="0"
       clip-path="url(#clipPath3923)" />
    <path
       style="fill:#9892dc;fill-opacity:1;stroke:none"
       d="m 1435.4604,3779.4427 415.0142,-231.287 215.9624,392.6003 z"
       id="path3891"
       inkscape:connector-curvature="0"
       clip-path="url(#clipPath3919)" />
    <path
       style="fill:#9892dc;fill-opacity:1;stroke:none"
       d="m 1602.5301,3097.4148 206.4362,375.2826 -152.226,-20.6483 z"
       id="path3893"
       inkscape:connector-curvature="0"
       clip-path="url(#clipPath3915)" />
    <path
       style="fill:#9892dc;fill-opacity:1;stroke:none"
       d="m 1917.5148,3509.5883 88.763,77.0874 251.9867,-267.8393 z"
       id="path3895"
       inkscape:connector-curvature="0"
       clip-path="url(#clipPath3911)" />
    <path
       style="fill:none;stroke:#dddeff;stroke-width:9;stroke-linecap:butt;stroke-linejoin:miter;stroke-miterlimit:4;stroke-opacity:1;stroke-dasharray:none"
       d="m 2070.4087,3947.9761 -473.7616,-861.256"
       id="path3885"
       inkscape:connector-curvature="0"
       sodipodi:nodetypes="cc"
       clip-path="url(#clipPath3907)" />
    <path
       style="fill:#ffff73;fill-opacity:1;stroke:none"
       d="m 1835.9095,3552.062 205.8899,110.2554 -302.061,270.8674 z"
       id="path3950"
       inkscape:connector-curvature="0"
       clip-path="url(#clipPath3980)" />
    <path
       style="fill:#ffff73;fill-opacity:1;stroke:none"
       d="m 1949.2851,3102.7591 -114.1312,452.2975 -425.4359,-82.3463 z"
       id="path3946"
       inkscape:connector-curvature="0"
       clip-path="url(#clipPath3976)" />
    <path
       style="fill:none;stroke:#dddeff;stroke-width:9;stroke-linecap:butt;stroke-linejoin:miter;stroke-miterlimit:4;stroke-opacity:1;stroke-dasharray:none"
       d="m 1419.8704,3788.17 851.3565,-476.59"
       id="path3887"
       inkscape:connector-curvature="0"
       sodipodi:nodetypes="cc"
       clip-path="url(#clipPath3903)" />
    <path
       style="fill:#ffff73;fill-opacity:1;stroke:none"
       d="m 1842.9581,3524.1289 132.3557,-97.8943 273.141,206.6531 -414.2933,-79.0927 z"
       id="path3948"
       inkscape:connector-curvature="0"
       clip-path="url(#clipPath3972)" />
    <path
       style="fill:#f9da66;fill-opacity:1;stroke:none"
       d="m 1835.412,3554.0339 98.9311,-82.8623 82.3254,-90.2951 -70.8808,-264.2574 z"
       id="path3879"
       inkscape:connector-curvature="0"
       clip-path="url(#clipPath3968)" />
    <path
       style="fill:#f9da66;fill-opacity:1;stroke:none"
       d="M 1835.412,3554.0339 1916,3630 l 63.899,78.974 263.0437,-28.2842 5.6756,-47.7179 z"
       id="path3881"
       inkscape:connector-curvature="0"
       clip-path="url(#clipPath3964)" />
    <path
       style="fill:#f9da66;fill-opacity:1;stroke:none"
       d="m 1406,3472 429.412,82.0339 L 1736,3948 z"
       id="path3883"
       inkscape:connector-curvature="0"
       clip-path="url(#clipPath3960)" />
    <path
       style="fill:none;stroke:#ffffa0;stroke-width:9;stroke-linecap:butt;stroke-linejoin:miter;stroke-miterlimit:4;stroke-opacity:1;stroke-dasharray:none"
       d="m 1952,3092 -216,856"
       id="path3871"
       inkscape:connector-curvature="0"
       sodipodi:nodetypes="cc"
       clip-path="url(#clipPath3956)" />
    <path
       style="fill:none;stroke:#ffffa0;stroke-width:9;stroke-linecap:butt;stroke-linejoin:miter;stroke-miterlimit:4;stroke-opacity:1;stroke-dasharray:none"
       d="M 2254,3634 1406,3472"
       id="path3873"
       inkscape:connector-curvature="0"
       sodipodi:nodetypes="cc"
       clip-path="url(#clipPath3952)" />
  </g>
  <g
     inkscape:groupmode="layer"
     id="layer9"
     inkscape:label="Tuxedo"
     style="display:inline"
     sodipodi:insensitive="true">
    <path
       style="fill:#3c3637;fill-opacity:1;stroke:none"
       d="m 4198,3266 170,80 c -88.5055,199.0577 -192.8921,384.2194 -324,546 -261.1383,-151.1218 -518.7804,-351.0679 -718,-606 l 184,-524 140,256 z"
       id="path3997"
       inkscape:connector-curvature="0"
       sodipodi:nodetypes="ccccccc" />
    <path
       style="fill:#cfdfed;fill-opacity:1;stroke:none"
       d="m 3762,3258 282,490 c 60.6667,-210.8083 121.3333,-391.6911 182,-560 l -318,-68 z"
       id="path3995"
       inkscape:connector-curvature="0"
       sodipodi:nodetypes="ccccc" />
    <path
       sodipodi:type="arc"
       style="color:#000000;fill:#e7c357;fill-opacity:1;fill-rule:nonzero;stroke:#c8a62b;stroke-width:14.49313736;stroke-miterlimit:4;stroke-opacity:1;stroke-dasharray:none;marker:none;visibility:visible;display:inline;overflow:visible;enable-background:accumulate"
       id="path3985"
       sodipodi:cx="4044"
       sodipodi:cy="3545"
       sodipodi:rx="48"
       sodipodi:ry="43"
       d="m 4092,3545 a 48,43 0 1 1 -96,0 48,43 0 1 1 96,0 z"
       transform="matrix(0.91949487,0.31883313,-0.32497413,0.90211925,1464.8682,-941.66685)" />
    <path
       sodipodi:type="arc"
       style="color:#000000;fill:#e7c357;fill-opacity:1;fill-rule:nonzero;stroke:#c8a62b;stroke-width:14;stroke-miterlimit:4;stroke-opacity:1;stroke-dasharray:none;marker:none;visibility:visible;display:inline;overflow:visible;enable-background:accumulate"
       id="path3987"
       sodipodi:cx="4055.9646"
       sodipodi:cy="3331.3789"
       sodipodi:rx="42.426407"
       sodipodi:ry="46.669048"
       d="m 4098.391,3331.3789 a 42.426407,46.669048 0 1 1 -84.8528,0 42.426407,46.669048 0 1 1 84.8528,0 z"
       transform="matrix(0.78871418,-0.61476007,0.61476007,0.78871418,-1188.2025,3198.7324)" />
    <path
       style="fill:none;stroke:#231e1d;stroke-width:14;stroke-linecap:butt;stroke-linejoin:miter;stroke-miterlimit:4;stroke-opacity:1;stroke-dasharray:none"
       d="m 4226,3190 c -59.5385,170.6026 -136.5257,394.5277 -183,556 l -278,-488"
       id="path3989"
       inkscape:connector-curvature="0"
       sodipodi:nodetypes="ccc" />
    <path
       style="fill:none;stroke:#231e1d;stroke-width:24;stroke-linecap:butt;stroke-linejoin:miter;stroke-miterlimit:4;stroke-opacity:1;stroke-dasharray:none"
       d="m 4252,3288.2426 115.8787,62.1214 C 4281.5046,3531.3133 4178.6552,3721.9938 4044,3890 3869.5046,3794.765 3516.5089,3547.9884 3323.5147,3286.1421"
       id="path3991"
       inkscape:connector-curvature="0"
       sodipodi:nodetypes="cccc" />
    <path
       style="fill:none;stroke:#231e1d;stroke-width:24;stroke-linecap:butt;stroke-linejoin:miter;stroke-miterlimit:4;stroke-opacity:1;stroke-dasharray:none"
       d="M 3656.4284,3038.5952 3512.9065,2761.4509"
       id="path3993"
       inkscape:connector-curvature="0"
       sodipodi:nodetypes="cc" />
  </g>
  <g
     inkscape:groupmode="layer"
     id="layer10"
     inkscape:label="Bow"
     style="display:inline"
     sodipodi:insensitive="true">
    <path
       style="fill:#494fbb;fill-opacity:1;stroke:#35398c;stroke-width:24;stroke-linecap:butt;stroke-linejoin:miter;stroke-miterlimit:4;stroke-opacity:1;stroke-dasharray:none"
       d="m 4156,2956 260,-120 c 26.0158,213.6405 -23.0324,399.1227 -121.0711,552.9289 L 4112,3168"
       id="path4000"
       inkscape:connector-curvature="0"
       sodipodi:nodetypes="cccc" />
    <path
       style="fill:#494fbb;fill-opacity:1;stroke:#35398c;stroke-width:24;stroke-linecap:butt;stroke-linejoin:miter;stroke-miterlimit:4;stroke-opacity:1;stroke-dasharray:none"
       d="m 4017.7807,2905.7008 -31.1127,255.9726 c 34.3751,39.4417 121.698,71.4394 173.9483,32.5269 56.6331,-42.1767 65.9305,-164.2005 25.4559,-241.8305 -29.9074,-57.3621 -105.4028,-51.6961 -168.2915,-46.669 z"
       id="path4002"
       inkscape:connector-curvature="0"
       sodipodi:nodetypes="ccssc" />
    <path
       style="fill:#494fbb;fill-opacity:1;stroke:#35398c;stroke-width:24;stroke-linecap:butt;stroke-linejoin:miter;stroke-miterlimit:4;stroke-opacity:1;stroke-dasharray:none"
       d="m 4012.1238,2940.4702 c -71.158,-84.3572 -195.1614,-159.5158 -295.5706,-233.4162 -83.3489,211.0604 -52.975,421.4247 -7.0711,610.1829 112.9819,-20.5809 251.2234,-58.2599 298.3991,-142.8356 41.5996,-74.579 54.4401,-174.4225 4.2426,-233.9311 z"
       id="path4004"
       inkscape:connector-curvature="0"
       sodipodi:nodetypes="sccss" />
  </g>
  <g
     inkscape:groupmode="layer"
     id="layer11"
     inkscape:label="Head + Eyes"
     sodipodi:insensitive="true"
     style="display:inline">
    <path
       style="fill:#ffffff;stroke:none"
       d="m 4381.2336,1211.4729 -718.4205,-19.799 -206.4752,610.9402 -14.1421,483.6611 656.1951,39.598 c 91.4525,33.1448 182.9049,9.5271 274.3574,-2.8285 l 557.2002,-169.7056 c 94.2785,-153.2145 81.0845,-301.6558 59.3969,-449.7199 -92.3953,-49.7853 -184.7905,-110.6186 -277.1858,-192.333 z"
       id="path4023"
       inkscape:connector-curvature="0"
       sodipodi:nodetypes="cccccccccc" />
    <path
       style="font-size:medium;font-style:normal;font-variant:normal;font-weight:normal;font-stretch:normal;text-indent:0;text-align:start;text-decoration:none;line-height:normal;letter-spacing:normal;word-spacing:normal;text-transform:none;direction:ltr;block-progression:tb;writing-mode:lr-tb;text-anchor:start;baseline-shift:baseline;color:#000000;fill:#baccdb;fill-opacity:1;stroke:none;stroke-width:34;marker:none;visibility:visible;display:inline;overflow:visible;enable-background:accumulate;font-family:Sans;-inkscape-font-specification:Sans"
       d="m 4382.3125,1194.4688 -20.625,27.0624 c 129.5369,98.8256 251.944,221.8798 382.7813,342.9376 76.6165,70.8897 158.5502,117.6293 236.5312,155.4374 29.55,139.6819 6.0971,280.0291 -66.3125,415.875 -198.4637,65.5092 -396.007,132.0139 -600.5313,179.6563 -152.1339,35.4384 -249.855,-11.3826 -354.0353,-105.5233 61.2827,119.4055 192.9536,177.9619 361.7229,138.6483 208.8968,-48.661 409.5461,-116.5013 610.0624,-182.6563 4.0652,-1.3373 7.5814,-4.2712 9.625,-8.0312 79.5352,-146.2422 105.5135,-300.6831 71.0626,-453.2812 -1.1268,-4.9902 -4.6347,-9.3869 -9.25,-11.5938 -78.82,-37.7672 -160.1972,-83.5054 -235.8126,-153.4688 -130.1543,-120.4258 -253.0824,-244.2538 -385.2187,-345.0624 z"
       id="path4007"
       inkscape:connector-curvature="0"
       sodipodi:nodetypes="ccsccscsccccsc" />
    <path
       style="fill:#baccdb;fill-opacity:1;stroke:none"
       d="m 4583,1913 c 64.2892,112.2082 225.973,150.7037 352,42 -165.3452,67.1831 -229.0401,43.2701 -352,-42 z"
       id="path4013"
       inkscape:connector-curvature="0"
       sodipodi:nodetypes="ccc" />
    <path
       style="fill:#baccdb;fill-opacity:1;stroke:none"
       d="m 4755,1852 c -22.1022,-47.8223 -57.7463,-39.935 -91,-12 37.6267,-81.155 103.6343,-69.9321 91,12 z"
       id="path4015"
       inkscape:connector-curvature="0"
       sodipodi:nodetypes="ccc" />
    <path
       style="fill:#baccdb;fill-opacity:1;stroke:none"
       d="m 4915,1798 c -33.6864,-89.7521 24.6667,-94.3333 65,-47 -43.9516,-12.4573 -59.6619,-3.473 -65,47 z"
       id="path4017"
       inkscape:connector-curvature="0"
       sodipodi:nodetypes="ccc" />
    <path
       style="fill:#000000;stroke:#000000;stroke-width:1px;stroke-linecap:butt;stroke-linejoin:miter;stroke-opacity:1"
       d="m 3788,1882 c 182.3781,0.6389 427.7652,-182.5466 380,-298 -38.873,108.839 -187.6833,251.1917 -380,298 z"
       id="path4019"
       inkscape:connector-curvature="0"
       sodipodi:nodetypes="ccc" />
    <path
       style="fill:#000000;stroke:#000000;stroke-width:1px;stroke-linecap:butt;stroke-linejoin:miter;stroke-opacity:1"
       d="m 3717,1817 c 143.8449,-157.8885 313.2705,-452.4843 292,-581 l 50,18 c 7.2606,166.4915 -180.1667,435.5172 -342,563 z"
       id="path4021"
       inkscape:connector-curvature="0"
       sodipodi:nodetypes="cccc" />
  </g>
  <g
     inkscape:groupmode="layer"
     id="layer12"
     inkscape:label="Horn"
     sodipodi:insensitive="true"
     style="display:inline">
    <path
       style="fill:#ffffff;stroke:#baccdb;stroke-width:34;stroke-linecap:butt;stroke-linejoin:miter;stroke-miterlimit:4;stroke-opacity:1;stroke-dasharray:none"
       d="m 4333.1504,1256.7278 294.1564,-978.63587 c 81.9589,-272.6710182 2.524,-296.377318 -127.2792,-45.25484 l -432.7494,837.21441"
       id="path4026"
       inkscape:connector-curvature="0"
       sodipodi:nodetypes="cssc" />
    <path
       style="fill:none;stroke:#baccdb;stroke-width:24;stroke-linecap:butt;stroke-linejoin:miter;stroke-miterlimit:4;stroke-opacity:1;stroke-dasharray:none"
       d="m 4586.2946,411.028 c -48.973,-14.17976 -93.8429,-43.40382 -131.5219,-98.99495"
       id="path4028"
       inkscape:connector-curvature="0"
       sodipodi:nodetypes="cc" />
    <path
       style="fill:none;stroke:#baccdb;stroke-width:24;stroke-linecap:butt;stroke-linejoin:miter;stroke-miterlimit:4;stroke-opacity:1;stroke-dasharray:none"
       d="m 4494.3707,723.5692 c -78.2167,-9.60512 -145.3128,-47.53436 -185.262,-124.4508"
       id="path4030"
       inkscape:connector-curvature="0"
       sodipodi:nodetypes="cc" />
    <path
       style="fill:none;stroke:#baccdb;stroke-width:24;stroke-linecap:butt;stroke-linejoin:miter;stroke-miterlimit:4;stroke-opacity:1;stroke-dasharray:none"
       d="M 4406.6895,1004.9977 C 4314.8311,1016.6518 4222.2472,971.77421 4171.93,877.71848"
       id="path4032"
       inkscape:connector-curvature="0"
       sodipodi:nodetypes="cc" />
  </g>
  <g
     inkscape:groupmode="layer"
     id="layer13"
     inkscape:label="Front Mane"
     sodipodi:insensitive="true"
     style="display:inline">
    <path
       style="fill:#e7c357;fill-opacity:1;stroke:#c8a62b;stroke-width:34;stroke-linecap:butt;stroke-linejoin:miter;stroke-miterlimit:4;stroke-opacity:1;stroke-dasharray:none"
       d="m 3539.7766,1176.1176 c 162.7358,-137.1521 339.2996,-201.88688 494.89,-195.81783 207.8019,8.10565 380.4093,133.64033 454.0472,296.22693 94.6706,209.0251 150.0239,314.4352 274.3575,386.0803 -209.8016,50.4207 -388.1926,-44.1749 -576.9991,-250.3158 -173.6331,-189.5743 -368.3461,-228.8324 -582.6561,-144.2498 z"
       id="path4035"
       inkscape:connector-curvature="0"
       sodipodi:nodetypes="csscscc" />
    <path
       style="fill:none;stroke:#c8a62b;stroke-width:24;stroke-linecap:butt;stroke-linejoin:miter;stroke-miterlimit:4;stroke-opacity:1;stroke-dasharray:none"
       d="m 3578,1164 c 394.9297,-200.44666 754.9026,-36.5867 888,242 56.1924,117.6165 139.6355,208.1248 234,214"
       id="path4037"
       inkscape:connector-curvature="0"
       sodipodi:nodetypes="csc" />
    <path
       style="fill:none;stroke:#c8a62b;stroke-width:24;stroke-linecap:butt;stroke-linejoin:miter;stroke-miterlimit:4;stroke-opacity:1;stroke-dasharray:none"
       d="m 4710,1630 c -159.1573,9.3609 -279.998,-84.1308 -358,-200 -183.161,-272.0791 -486.2437,-343.4767 -760,-222"
       id="path4039"
       inkscape:connector-curvature="0"
       sodipodi:nodetypes="csc" />
    <path
       style="fill:#e7c357;fill-opacity:1;stroke:#c8a62b;stroke-width:34;stroke-linecap:butt;stroke-linejoin:miter;stroke-miterlimit:4;stroke-opacity:1;stroke-dasharray:none"
       d="m 3536,1760 c -16.033,186.4856 50.5597,459.7925 125,675 -97.4955,84.3015 -178.2821,153.291 -145,277 9.8171,36.4899 24.0922,66.523 36,98 17.9806,47.5299 -2.6762,66.6929 -24,82 -47.4624,34.0704 -33.8366,75.228 -5,119 61.0028,92.598 97.4813,191.4011 -29,287 -133.271,100.7308 -235.0736,200.6412 -259.4142,324.9289 C 3185.2129,3481.008 3135.558,3350.8963 3080,3220 c -77.768,-183.2237 -99.4965,-369.8455 -104,-558 196.2382,-134.3546 384.7272,-698.0782 472,-1034"
       id="path4041"
       inkscape:connector-curvature="0"
       sodipodi:nodetypes="ccssssscscc" />
    <path
       style="fill:none;stroke:#c8a62b;stroke-width:24;stroke-linecap:butt;stroke-linejoin:miter;stroke-miterlimit:4;stroke-opacity:1;stroke-dasharray:none"
       d="m 3382,1861 c 10.5286,155.332 58.1149,503.4156 -2,627 -45.852,94.2628 -67.7735,176.6408 -15,268 41.5412,71.9143 86.2421,158.1599 47,236 -28.301,56.1376 -12.3631,99.0592 18,144 38.8463,57.4968 20.657,146 -8,219"
       id="path4043"
       inkscape:connector-curvature="0"
       sodipodi:nodetypes="cssssc" />
    <path
       style="fill:none;stroke:#c8a62b;stroke-width:24;stroke-linecap:butt;stroke-linejoin:miter;stroke-miterlimit:4;stroke-opacity:1;stroke-dasharray:none"
       d="m 3150.8678,2444.6671 c 5.8563,68.961 35.3192,126.2262 60.8112,185.262 27.7953,64.3699 38.1581,127.3721 -1.4142,186.6762 -55.6296,83.3681 -11.05,147.6501 32.5269,206.4752 57.0578,77.0232 67.1003,163.5539 43.8406,254.5584 -16.9444,66.2955 -18.1937,149.3108 19.799,202.2325"
       id="path4045"
       inkscape:connector-curvature="0"
       sodipodi:nodetypes="cssssc" />
    <path
       style="fill:none;stroke:#c8a62b;stroke-width:24;stroke-linecap:butt;stroke-linejoin:miter;stroke-miterlimit:4;stroke-opacity:1;stroke-dasharray:none"
       d="m 3036.3165,2614.3727 c 11.6378,62.5986 11.363,108.898 11.3138,164.0488 -0.049,54.8261 27.1617,112.2387 53.74,161.2204 33.5237,61.7814 32.0502,114.6257 38.1838,166.8772 7.2723,61.952 16.9779,122.0418 52.3259,192.333 39.4614,78.4708 64.2783,163.3506 56.5686,261.6295"
       id="path4047"
       inkscape:connector-curvature="0"
       sodipodi:nodetypes="cssssc" />
    <path
       style="fill:none;stroke:#c8a62b;stroke-width:24;stroke-linecap:butt;stroke-linejoin:miter;stroke-miterlimit:4;stroke-opacity:1;stroke-dasharray:none"
       d="m 3638,2458 c -6.4342,31.6988 -24.6374,50.3679 -49,69 -45.2541,34.6096 -31.9542,78.6201 -22,119 12.6541,51.3322 46.5744,91.0915 76,138 34.5758,55.1186 43.8432,100.3295 12,126 -55.6608,44.8711 -28.4613,102.8737 -6,142"
       id="path4049"
       inkscape:connector-curvature="0"
       sodipodi:nodetypes="cssssc" />
    <path
       style="font-size:medium;font-style:normal;font-variant:normal;font-weight:normal;font-stretch:normal;text-indent:0;text-align:start;text-decoration:none;line-height:normal;letter-spacing:normal;word-spacing:normal;text-transform:none;direction:ltr;block-progression:tb;writing-mode:lr-tb;text-anchor:start;baseline-shift:baseline;color:#000000;fill:#c8a62b;fill-opacity:1;stroke:none;stroke-width:24;marker:none;visibility:visible;display:inline;overflow:visible;enable-background:accumulate;font-family:Sans;-inkscape-font-specification:Sans"
       d="m 3724.7812,1229.5 c -4.9129,0.047 -10.0807,0.2271 -15.4687,0.5312 l 1.375,23.9376 c 40.1499,-2.2666 62.014,4.6025 70.8125,11.9687 4.3993,3.6831 6.135,7.1478 6.8125,11.5313 0.6775,4.3834 -0.07,9.9261 -2.5,16.1562 -5.1937,13.3134 -2.9726,27.4413 3.75,38.125 6.7226,10.6837 17.1138,18.6718 28.8437,24.8438 23.46,12.3439 52.7645,17.9155 76.9063,13.1874 22.5254,-4.4115 38.5536,-5.6902 48.4687,-5.0312 9.2324,0.6136 11.3441,2.7717 11.2188,2.4062 -0.092,0.348 -0.2894,1.6637 -2.1562,4.875 -2.7962,4.8099 -8.566,11.4641 -15.875,18.0313 -11.4956,10.3287 -18.5488,19.9151 -20.875,30.5 -2.3263,10.5849 2.0949,21.4018 8.9687,27.7813 13.7477,12.7589 33.9108,15.6061 51.9063,15.6562 41.1156,0.1144 62.3159,7.637 92.2146,62.5845 3.7358,-71.6246 -43.6696,-86.4493 -92.1522,-86.5845 -14.2188,-0.04 -30.968,-4.8967 -35.625,-9.2188 -2.3284,-2.161 -2.504,-2.2314 -1.875,-5.0937 0.6291,-2.8623 4.0792,-9.2854 13.5,-17.75 8.494,-7.6318 15.697,-15.4741 20.5626,-23.8437 4.8655,-8.3697 8.1248,-19.3999 2.2187,-29.2188 -5.9061,-9.8189 -16.9951,-13.169 -30.4375,-14.0625 -13.4424,-0.8935 -30.9774,0.7627 -54.6875,5.4063 -16.3158,3.1954 -42.8002,-1.2331 -61.125,-10.875 -9.1624,-4.821 -16.1937,-10.8226 -19.6875,-16.375 -3.4938,-5.5525 -4.2921,-9.9173 -1.6875,-16.5938 3.5577,-9.1196 5.3475,-18.8335 3.8437,-28.5625 -1.5037,-9.729 -6.6839,-19.2143 -15.125,-26.2813 -14.7718,-12.3671 -37.7342,-18.3571 -72.125,-18.0312 z"
       id="path4051"
       inkscape:connector-curvature="0"
       sodipodi:nodetypes="cccsscssssccsssscsscscssssssssc" />
  </g>
  <g
     inkscape:groupmode="layer"
     id="layer14"
     inkscape:label="Forward Ear"
     sodipodi:insensitive="true">
    <path
       style="fill:#ffffff;stroke:none"
       d="m 3569.475,1854.94 169.7057,-504.8742 c -50.6144,-162.2238 -131.1883,-305.3824 -305.4702,-388.90872 -77.5189,-44.1132 -116.641,-22.72612 -130.1076,42.42642 -19.4566,186.9146 -17.5927,368.7122 56.5685,533.1585 44.616,142.6506 123.6594,235.2249 209.3036,318.198 z"
       id="path4066"
       inkscape:connector-curvature="0"
       sodipodi:nodetypes="cccccc" />
    <path
       style="font-size:medium;font-style:normal;font-variant:normal;font-weight:normal;font-stretch:normal;text-indent:0;text-align:start;text-decoration:none;line-height:normal;letter-spacing:normal;word-spacing:normal;text-transform:none;direction:ltr;block-progression:tb;writing-mode:lr-tb;text-anchor:start;baseline-shift:baseline;color:#000000;fill:#baccdb;fill-opacity:1;stroke:none;stroke-width:34;marker:none;visibility:visible;display:inline;overflow:visible;enable-background:accumulate;font-family:Sans;-inkscape-font-specification:Sans"
       d="m 3363.9688,918.875 c -10.3108,-0.36395 -19.8685,1.32371 -28.6876,5.28125 -23.5175,10.55345 -35.2187,35.03941 -40.0312,62.96875 -61.0336,354.2067 34.8549,701.4397 280.9482,872.6115 -197.9697,-206.4232 -306.9314,-521.6524 -247.4482,-866.8615 3.8589,-22.39462 11.1345,-33.5128 20.4375,-37.6875 9.303,-4.1747 27.1796,-3.55268 56.9687,11.90625 164.7353,85.48855 276.637,203.12215 332.9845,391.99135 -12.949,-192.9685 -147.5956,-334.1132 -317.2969,-422.17885 -21.4108,-11.11102 -40.6905,-17.42466 -57.875,-18.03125 z"
       id="path4058"
       inkscape:connector-curvature="0"
       sodipodi:nodetypes="ssscssscss" />
    <path
       style="fill:#baccdb;fill-opacity:1;stroke:none"
       d="m 3378.5562,1149.2475 c 1.4796,103.4836 60.6593,260.3032 123.0366,340.8254 -88.1577,-56.9634 -147.7732,-230.6911 -123.0366,-340.8254 z"
       id="path4060"
       inkscape:connector-curvature="0"
       sodipodi:nodetypes="ccc" />
  </g>
  <g
     inkscape:groupmode="layer"
     id="layer15"
     inkscape:label="Rose"
     sodipodi:insensitive="true">
    <path
       style="fill:#80bd11;fill-opacity:1;stroke:none"
       d="m 3606.2446,3450.1729 c -66.9395,-12.6699 -133.8789,0.1522 -200.8184,21.2132 82.3034,139.3526 271.5109,155.3809 353.5534,35.3554 z"
       id="path4071"
       inkscape:connector-curvature="0"
       sodipodi:nodetypes="cccc" />
    <path
       style="fill:#587720;fill-opacity:1;stroke:none"
       d="m 3766,3506 c 161.4085,-5.2968 317.4281,-188.0109 316,-302 -30,9.0013 -59.9962,10.2256 -90,8 -71.0707,-5.2718 -154.3545,193.1317 -226,294 z"
       id="path4069"
       inkscape:connector-curvature="0"
       sodipodi:nodetypes="ccsc" />
    <path
       style="fill:url(#linearGradient4105);fill-opacity:1;stroke:none"
       d="m 3667.0557,3302.3876 c -31.2758,17.451 -67.9906,25.384 -106.7731,29.6985 -47.7474,-1.0469 -104.1461,4.635 -70.0035,-60.1041 34.711,-49.1094 65.5039,-99.4113 142.1284,-135.7645 28.5221,-18.0821 61.4474,-23.0358 95.4595,-24.7487 12.4171,13.6585 20.5437,28.5429 19.7989,45.9619 -5.9236,23.5392 -17.7038,41.2218 -31.1127,57.2757 -28.255,17.5898 -51.2261,19.3282 -55.1543,-36.0625 -70.4142,31.9814 -58.0315,89.8752 5.6568,123.7437 z"
       id="path4097"
       inkscape:connector-curvature="0"
       sodipodi:nodetypes="ccccccccc" />
    <path
       style="fill:url(#linearGradient4095);fill-opacity:1;stroke:none"
       d="m 3751.2015,3160.2592 c -0.1607,36.3533 -5.0493,71.3557 -18.3848,103.9447 l -65.761,38.1837 c -21.2865,-13.677 -43.9893,-29.4729 -55.8614,-54.4472 -4.4534,-37.0866 25.0898,-53.5525 52.3259,-71.4178 -3.7853,34.428 4.3743,55.7167 38.1838,48.7904 24.2701,-13.9137 38.3289,-38.0386 49.4975,-65.0538 z"
       id="path4087"
       inkscape:connector-curvature="0"
       sodipodi:nodetypes="ccccccc" />
    <path
       style="fill:#c90c09;fill-opacity:1;stroke:none"
       d="m 3731,3111 c 31.3333,2.6787 62.6667,6.8439 94,17 -17.0302,58.2079 -56.9512,95.2379 -95,134 17.5963,-45.8578 33.2758,-92.2124 1,-151 z"
       id="path4085"
       inkscape:connector-curvature="0"
       sodipodi:nodetypes="cccc" />
    <path
       style="fill:#e80d0b;fill-opacity:1;stroke:none"
       d="m 3826,3132 c -5.406,35.7662 9.4358,57.0696 22,80 23.8042,44.6667 54.2603,89.3333 45,134 -8.7607,51.1674 -29.2909,95.4692 -70,128 -42.6331,41.5529 -99.8466,49.7791 -161,49 -95.1797,-29.9029 -101.887,-107.6286 -100,-190 135.4058,-21.0307 216.48,-94.7467 264,-201 z"
       id="path4081"
       inkscape:connector-curvature="0"
       sodipodi:nodetypes="ccccccc" />
    <path
       style="fill:#c90c09;fill-opacity:1;stroke:none"
       d="m 3824,3130 c -81,-22.097 -162,-31.4604 -243,36 l -59,-66 c 64.8427,-88.2996 187.067,-97.6995 337,-69 -5.6841,33.8027 -15.7273,67.0205 -35,99 z"
       id="path4079"
       inkscape:connector-curvature="0"
       sodipodi:nodetypes="ccccc" />
    <path
       style="fill:none;stroke:#a11109;stroke-width:14;stroke-linecap:butt;stroke-linejoin:miter;stroke-miterlimit:4;stroke-opacity:1;stroke-dasharray:none"
       d="m 3581.1412,3164.9741 -58.3353,-65.5261 c 72.093,-96.4396 216.5878,-90.354 335.1687,-67.8823 0.643,29.7843 -12.2475,52.9946 -23.3346,77.0747 -14.7726,32.0847 -11.551,70.7854 10.6067,101.1162 22.5628,30.8853 39.738,63.3438 45.2548,89.0955 7.3542,34.3289 3.0927,63.8632 -9.8995,94.7523 -37.4269,88.9824 -124.0281,146.5201 -223.4457,125.8651 -82.6041,-17.1619 -104.203,-107.5012 -94.7523,-193.7473"
       id="path4073"
       inkscape:connector-curvature="0"
       sodipodi:nodetypes="cccsssssc" />
    <path
       style="fill:none;stroke:#a11109;stroke-width:14;stroke-linecap:butt;stroke-linejoin:miter;stroke-miterlimit:4;stroke-opacity:1;stroke-dasharray:none"
       d="m 3834.9182,3108.0371 c -43.5873,124.191 -148.0505,214.4748 -276.7569,223.3419 -67.2494,4.6331 -97.2074,-6.3626 -65.0538,-65.0539 34.5078,-62.9883 103.601,-129.6788 187.4335,-150.3918 85.1014,-21.0265 74.9576,50.9897 43.0833,90.9949 -35.8987,45.0562 -70.1644,5.4515 -59.397,-29.6985 -77.2971,36.0653 -61.7151,91.1785 2.3537,124.5191"
       id="path4075"
       inkscape:connector-curvature="0"
       sodipodi:nodetypes="csssscc" />
    <path
       style="fill:none;stroke:#a11109;stroke-width:14;stroke-linecap:butt;stroke-linejoin:miter;stroke-miterlimit:4;stroke-opacity:1;stroke-dasharray:none"
       d="m 3825.9587,3130.9816 c -33.1526,-13.0333 -90.2946,-21.1513 -120.6187,-18.7784"
       id="path4077"
       inkscape:connector-curvature="0"
       sodipodi:nodetypes="cc" />
    <path
       style="fill:none;stroke:#a11109;stroke-width:14;stroke-linecap:butt;stroke-linejoin:miter;stroke-miterlimit:4;stroke-opacity:1;stroke-dasharray:none"
       d="m 3745.4939,3136.5565 c 9.2493,37.436 6.0856,92.1299 -17.0833,126.7375"
       id="path4083"
       inkscape:connector-curvature="0"
       sodipodi:nodetypes="cc" />
    <path
       style="fill:#a11109;fill-opacity:1;stroke:none"
       d="m 3680.5,3225.5 c -27.8454,10.1811 -47.6589,25.2511 -45,54 -35.781,-34.3874 -35.5804,-67.7754 24.5,-99.5 2.645,18.0985 4.882,36.4826 20.5,45.5 z"
       id="path4107"
       inkscape:connector-curvature="0"
       sodipodi:nodetypes="cccc" />
  </g>
  <!--Created by Sigma
      http://90sigma.deviantart.com/-->
</svg>
