<?xml version="1.0" encoding="UTF-8"?><svg xmlns="http://www.w3.org/2000/svg" xmlns:xlink="http://www.w3.org/1999/xlink" version="1.1" viewBox="0 0 5761.998 5761.9981" width="5761.998" height="5761.9981"><defs id="defs4"><linearGradient id="linearGradient4579"><stop id="stop4581" stop-color="#c37fd9" offset="0"/><stop id="stop4583" stop-color="#4e2671" offset="1"/></linearGradient><linearGradient id="linearGradient4150"><stop id="stop4152" stop-color="#f5a5c8" offset="0"/><stop id="stop4154" stop-color="#a95ae2" offset="1"/></linearGradient><linearGradient id="linearGradient4140"><stop id="stop4142" stop-color="#fdcced" offset="0"/><stop id="stop4144" stop-color="#c78ff4" offset="1"/></linearGradient><linearGradient id="linearGradient4117"><stop id="stop4119" stop-color="#7532a4" offset="0"/><stop id="stop4125" stop-color="#ba98d1" offset="1"/></linearGradient><linearGradient id="linearGradient4107"><stop id="stop4109" stop-color="#f8ebad" offset="0"/><stop id="stop4111" stop-color="#fff" offset="1"/></linearGradient><linearGradient id="linearGradient4097"><stop id="stop4099" stop-color="#d43093" offset="0"/><stop id="stop4101" stop-color="#fff" offset="1"/></linearGradient><linearGradient id="linearGradient4103" y2="2435.2" xlink:href="#linearGradient4097" gradientUnits="userSpaceOnUse" x2="2608.6" y1="4458.1" x1="2411.4"/><linearGradient id="linearGradient4113" y2="2583" xlink:href="#linearGradient4107" gradientUnits="userSpaceOnUse" x2="2464.1" y1="4130.5" x1="2294.7"/><linearGradient id="linearGradient4123" y2="3482.9" xlink:href="#linearGradient4117" gradientUnits="userSpaceOnUse" x2="2538.6" y1="4796.1" x1="2463.5"/><linearGradient id="linearGradient4146" y2="1944.9" xlink:href="#linearGradient4140" gradientUnits="userSpaceOnUse" x2="1742.8" y1="2034.1" x1="2261.5"/><linearGradient id="linearGradient4148" y2="2070.8" xlink:href="#linearGradient4140" gradientUnits="userSpaceOnUse" x2="4254.5" y1="2087.6" x1="3611.6"/><linearGradient id="linearGradient4156" y2="2070.8" xlink:href="#linearGradient4150" gradientUnits="userSpaceOnUse" x2="4254.5" y1="2087.6" x1="3611.6"/><linearGradient id="linearGradient4158" y2="1944.9" xlink:href="#linearGradient4150" gradientUnits="userSpaceOnUse" x2="1742.8" y1="2034.1" x1="2261.5"/><linearGradient id="linearGradient4203" y2="5587.2" xlink:href="#linearGradient4097" gradientUnits="userSpaceOnUse" x2="4767.6" y1="3104.3" x1="3612.1"/><linearGradient id="linearGradient4213" y2="882.51" xlink:href="#linearGradient4107" gradientUnits="userSpaceOnUse" x2="3870.1" y1="3250.5" x1="3816"/><linearGradient id="linearGradient4225" y2="4784.5" xlink:href="#linearGradient4117" gradientUnits="userSpaceOnUse" x2="3767.5" y1="2957.3" x1="3439.4"/><linearGradient id="linearGradient4385" y2="931.93" xlink:href="#linearGradient4097" gradientUnits="userSpaceOnUse" x2="1924.5" y1="2475.9" x1="2626.9"/><linearGradient id="linearGradient4395" y2="807.91" xlink:href="#linearGradient4107" gradientUnits="userSpaceOnUse" x2="2088.9" y1="2095.9" x1="2602.4"/><linearGradient id="linearGradient4405" y2="3548.5" xlink:href="#linearGradient4117" gradientUnits="userSpaceOnUse" x2="2454" y1="2629.3" x1="2565.4"/><clipPath id="clipPath4479" clipPathUnits="userSpaceOnUse"><path id="path4481" opacity=".5" d="m2293.1 1610.4c166.93-2.0872 308.3 33.571 319.34 261.72 15.604 115.99 22.526 231.01-24.822 339.98-8.0151 46.997-9.4283 86.093-8.8032 122.75-24.331-23.579-54.315-39.695-91.886-45.796-67.693-3.4322-131.75-29.954-187.75-107.68-76.124-201.09-53.411-410.09-6.0746-570.98z" stroke="#f00" stroke-width="1px" fill="#0f0"/></clipPath><clipPath id="clipPath4483" clipPathUnits="userSpaceOnUse"><path id="path4485" opacity=".5" d="m2299.6 1531.3c166.97-7.835 308.52 22.952 320.38 250.7 16.03 115.44 23.371 230.21-23.597 340.8-7.847 47.268-9.1188 86.409-8.3606 123.04-24.424-22.738-54.475-37.821-92.079-42.627-67.725-1.101-131.9-25.414-188.2-101.2-76.875-198.45-54.914-408.21-8.1469-570.71z" stroke="#f00" stroke-width="1.0002px" fill="#0f0"/></clipPath><clipPath id="clipPath4487" clipPathUnits="userSpaceOnUse"><path id="path4489" opacity=".5" d="m3715.1 1004.4c-103.73 10.162-206.76 21.828-282.61 92.41-68.916 61.686-97.751 327.78-55.373 461.09 7.1632 53.492 16.75 105.48 17.236 163.12 31.16-24.802 64.098-30.558 97.336-33.102 98.913-2.6694 190.9-25.762 238.21-180.71 53.096-225.86 9.2959-394.75-14.803-502.81z" stroke="#f00" stroke-width="1px" fill="#0f0"/></clipPath><clipPath id="clipPath4491" clipPathUnits="userSpaceOnUse"><path id="path4493" opacity=".5" d="m3685.1 1111.9c-103.98 7.1449-207.3 15.814-285.14 84.161-70.648 59.658-107.06 324.8-68.494 459.28 5.6359 53.676 13.737 105.92 12.581 163.55 31.855-23.886 64.945-28.683 98.243-30.26 98.951 0.2041 191.57-20.206 243.27-173.71 59.513-224.22 20.543-394.3-0.4667-503.02z" stroke="#f00" stroke-width="1px" fill="#0f0"/></clipPath><clipPath id="clipPath4541" clipPathUnits="userSpaceOnUse"><ellipse id="ellipse4543" style="color:#000000" rx="168.99" ry="315.96" transform="matrix(.99707 -.076547 .10223 .99476 0 0)" cy="1909" cx="2496.3" fill="#f00"/></clipPath><clipPath id="clipPath4545" clipPathUnits="userSpaceOnUse"><ellipse id="ellipse4547" style="color:#000000" rx="168.99" ry="315.96" transform="matrix(.99707 -.076547 .10223 .99476 0 0)" cy="1909" cx="2496.3" fill="#f00"/></clipPath><clipPath id="clipPath4571" clipPathUnits="userSpaceOnUse"><ellipse id="ellipse4573" style="color:#000000" rx="172.98" ry="330.01" transform="matrix(.99801 .063078 -.064542 .99792 0 0)" cy="1497.8" cx="3540.7" fill="#f00"/></clipPath><clipPath id="clipPath4575" clipPathUnits="userSpaceOnUse"><ellipse id="ellipse4577" style="color:#000000" rx="172.98" ry="330.01" transform="matrix(.99801 .063078 -.064542 .99792 0 0)" cy="1497.8" cx="3540.7" fill="#f00"/></clipPath><linearGradient id="linearGradient4585" y2="1704.3" xlink:href="#linearGradient4579" gradientUnits="userSpaceOnUse" x2="2506.8" y1="2198.6" x1="2512.3"/><linearGradient id="linearGradient4593" y2="1262.7" xlink:href="#linearGradient4579" gradientUnits="userSpaceOnUse" x2="3556.5" y1="1770.3" x1="3519.9"/><linearGradient id="linearGradient4637" y2="419.51" xlink:href="#linearGradient4097" gradientUnits="userSpaceOnUse" x2="2279.7" y1="1140.8" x1="3628.9"/><linearGradient id="linearGradient4647" y2="459.11" xlink:href="#linearGradient4107" gradientUnits="userSpaceOnUse" x2="2921.8" y1="1188.8" x1="3883.4"/><linearGradient id="linearGradient4729" y2="796.32" xlink:href="#linearGradient4117" gradientUnits="userSpaceOnUse" x2="2525.5" y1="1136.3" x1="3357.6"/></defs><g transform="translate(-64.489 13.398)"><path id="path4115" fill="url(#linearGradient4123)" d="m2448.6 3102.9c-84.753 323.24-64.263 636.91-32.325 949.54-2.1492 239.95 10.309 481.53-84.853 711.15-75.447-27.841-149.94-45.874-214.15 42.426-48.023 126.56-76.751 253.82-30.304 383.86 80.236 122.35 199.99 117.04 329.31 80.812 281.46-622.63 235.27-1293.8 238.4-1957.7z"/><path id="path4105" fill="url(#linearGradient4113)" d="m2266.8 2807.9c-124.01 224.09-182.26 472.62-152.85 755.84 21.259 190.15 73.116 407.95 92.241 577.56-146.15-91.669-259.1-23.957-367.7 64.65-111.17 126.77-189.14 289.51-171.73 555.58 390.61 209.29 519.35-6.9411 658.62-206.07 63.54-193.22 123.43-389.09 78.792-660.64-99.744-344.31-68.852-697.62-14.142-1052.6z"/><path id="path4095" fill="url(#linearGradient4103)" d="m2397.1 2925.7c-209.45 234.46-133.82 542.17-63.204 805.71 45.57 170.07 124.76 605.51-139.65 957.14-164.33 218.53-427.74 156.08-531.43 15.714 24.088 330.12 160.09 528.18 428.57 478.57-60.409-125.4-31.192-245.02 25.714-362.86 79.485-103.93 163.39-122.48 254.29-5.7143 111.56-167.64 121.87-512.35 91.428-751.43-38.474-302.17-63.881-604.32 71.429-822.86z"/><path id="path4079" fill="#852fbb" d="m2225.5 2845c-167.85 304.55-163.99 719.72-75.025 1064.8 43.764 169.78 50.673 420.42 27.066 527.01-23.682 106.94-91.93 166.42-172.46 217.06-19.058 11.986-34.322 17.807-45.525 19.516-11.204 1.7089-18.098-0.023-24.438-3.8964-12.678-7.7467-24.522-30.007-32.098-62.172-25.631-108.82 2.7398-235.68 77.326-283.44 39.983-25.601 64.93-26.364 72.455-23.293 3.7624 1.5356 4.6459 2.7897 5.6094 5.9903 0.9634 3.2005 1.0438 8.9245-1.6211 16.084-14.143 37.994-40.697 88.759-70.149 124.56 40.753-22.283 90.152-66.498 106.7-110.95 5.0078-13.453 6.4254-27.611 2.4161-40.93-4.0094-13.319-14.408-25.224-28.217-30.859-27.617-11.271-62.958-2.4245-108.22 26.559-95.908 61.411-122.8 204.03-94.258 325.22 8.5336 36.23 21.279 69.13 49.723 86.51 14.222 8.6901 32.023 12.014 50.654 9.1718 18.631-2.8417 38.342-11.18 60.406-25.057 83.965-52.807 163.27-121.99 189.77-241.64 26.574-119.99 18.372-367.7-27.379-545.18-87.124-337.99-89.012-745.19 71.416-1036.3z"/><path id="path4085" d="m2202.1 4153.4c-91.587-81.73-181.53-62.762-272.74-10.102-310.8 179.44-330.92 654.19-155.56 927.32 83.863 130.62 206.64 132.38 321.23 117.18" stroke="#852fbb" stroke-width="39" fill="none"/><path id="path4087" fill="#69288f" d="m2242.8 4716.9c-41.738 1.5086-83.797 18.892-116.71 52.318-39.318 39.935-63.239 109.08-74.33 185.33-11.091 76.252-8.3524 159.54 13.992 227.31 23.742 72.01 90.767 111.39 158.83 126.29 68.059 14.895 138.7 8.2301 183.09-20.27l-21.072-32.818c-29.44 18.904-94.251 27.996-153.68 14.99-59.427-13.006-111.92-45.182-130.12-100.4-19.602-59.456-22.795-138.28-12.438-209.49 10.358-71.209 35.267-134.88 63.529-163.59 59.938-60.879 150.6-55.242 195.45 14.057 22.66 35.015 26.112 72.385 19.146 105.09-6.9651 32.709-25.373 60.067-42.199 71.869-19.87 13.938-37.804 19.635-51.992 19.26s-25.517-5.7333-36.264-19.059c-9.5118-11.794-13.631-30.702-11.434-48.606 2.1977-17.903 10.713-33.612 19.424-38.828 28.733-17.207 46.727-15.702 55.638 25.705 20.022-42.436-29.028-89.328-77.097-58.272-22.298 14.406-33.423 40.158-36.674 66.643-3.2511 26.484 1.7329 55.459 19.785 77.842 16.817 20.852 40.504 32.898 65.59 33.56 25.086 0.663 50.685-8.9687 75.42-26.318 27.779-19.485 49.13-54.259 57.949-95.674 8.8191-41.415 4.0814-90.161-24.551-134.4-32.478-50.185-85.612-74.488-139.28-72.549z"/></g><g transform="translate(-64.489 13.398)"><path id="path4128" d="m2771.9 2706.9c-291.54 6.1407-376.68-216.58-395.98-537.4-13.652-226.91-34.985-450.87-88.893-666.7-55.587-222.56-278.2-285.64-404.06-303.05-245.4-33.9-490.4-53.7-741.5-103-369.07-72.4-489.94-248.38-523.29-517.18-28.04-226.04-200.03-224.64-258.6-6.06-62.393 232.85 69.83 530.79 317.19 699.03-216.45 33.386-474.06-296.08-531.34-189.91-57.281 106.17 109.22 406.24 424.26 577.81-228.26 48.725-503.13 107.6-484.87 254.56 18.257 146.96 374.43 137.57 561.64 129.3-147.39 97.239-247.5 194.48-109.33 250.76 138.17 56.287 369.69 2.146 521.47-56.815-117.09 152.61-136.44 245.3-38.35 282.95 98.091 37.654 323.58-45.095 543.43-173.86-132.94 306.57 78.494 355.53 303.05 242.44-59.71 153.54 59.528 189.04 220.21 161.62-97.984 237.95 193.73 276.32 539.42 292.94" stroke="url(#linearGradient4158)" stroke-width="39" fill="url(#linearGradient4146)"/><path id="path4130" fill="url(#linearGradient4158)" d="m1819.5 1376.3c-43.673-0.1925-85.493 10.99-120.49 36.848-54.438 40.226-80.201 111.81-62.508 182.72 15.895 63.701 67.015 126.06 160.48 165.73-50.496 21.576-86.469 47.105-109.71 74.66-28.045 33.256-37.428 69.953-30.65 102.77 12.308 59.594 74.442 102.89 152.91 103.51-23.868 51.33-21.904 99.23 5.2891 130.44 26.002 29.843 71.706 40.937 129.38 28.791-5.8548 11.219-10.392 22-12.666 32.566-15.576 72.36 52.439 109.59 129.67 112.32-67.015-26.264-115.13-54.641-103.4-106.11 3.3503-14.69 12.138-32.415 26.992-53.022l24.775-34.369-40.092 13.699c-67.755 23.152-113.17 12.653-134.31-11.609-21.14-24.263-22.806-67.094 8.8496-120.23l13.746-23.072-26.717 2.7324c-79.199 8.0986-137.95-32.453-148-81.106-5.024-24.326 1.0591-51.692 24.85-79.902 23.79-28.211 65.743-56.682 131-79.5l37.396-13.076-37.6-12.478c-108.36-35.965-160.83-98.444-176.01-159.28-15.179-60.831 6.9479-120.91 52.358-154.47 52.763-38.988 126.49-39.793 198.11-13.658 71.624 26.134 139.78 79.209 178.43 143.15 127.52 210.93 215.94 447.18 104.08 725.39-41.521 103.27-62.024 202.19-48.727 290.71 13.297 88.521 67.798 178.06 176.72 227.72-94.728-69.131-137.77-150.22-150.02-231.73-12.244-81.512 6.6444-176.07 47.076-276.63 115.69-287.75 23.287-535.54-106.03-749.43-42.447-70.209-114.87-126.29-192.28-154.54-33.87-12.359-68.96-19.389-102.93-19.539z"/><path id="path4136" d="m3737.4 2847.5c208.49-7.3267 340.86-14.833 297.41-200.24 265.54 149.12 423.68-6.2747 291.51-248.34 226.44 115.92 481.24 210.98 569.66 161.07 88.417-49.911 3.9421-188.4-62.343-277.9 264.19 85.114 526.71 89.636 564.44 8.9706 37.731-80.665-41.657-146.4-150.59-214.14 230.52 3.289 535.81 6.1105 558.14-132.93 22.334-139.04-240.51-226.15-485.66-252 357.03-170.29 481.66-548.4 416.24-604.93-65.418-56.528-290.16 211.08-518.34 205.62 278.5-193.2 391.6-527.59 282.2-780.7-46-106.31-189.2-127.11-216 28.73-45.8 266.23-90.1 439.86-392.7 539.97-235.7 77.9-505.2 109.7-771.3 131.3-216.3 17.584-277.86 248.54-356 456" stroke="url(#linearGradient4156)" stroke-width="39" fill="url(#linearGradient4148)"/><path id="path4138" d="m4056 2088c204.4 3.8219 234.26-220.6 10-264 280.35-135.22 193.94-422.51-24-384" stroke="url(#linearGradient4156)" stroke-width="27" fill="none"/></g><g transform="translate(-64.489 13.398)"><path id="path4217" fill="url(#linearGradient4225)" d="m3790.1 1231.3c63.576 546.6 11.808 1101.4-135.76 1663.1-67.771 479.43-153.45 956.63-56.568 1456.6 95.928-22.533 155.51 41.268 209.3 118.79 49.756 88.817 100.2 177.52 118.79 271.53-20.641 167.37-109.07 204.59-263.04 115.97-146.57-133.64-264.58-291.76-336.58-489.32l-73.539-1598.1 118.79-1714z"/><path id="path4215" fill="#d43093" d="m3331.9 2091.1c54.158 269.19 54.725 535.95-56.569 797.62l-87.681-33.941 45.255-593.97z"/><path id="path4205" fill="url(#linearGradient4213)" d="m3807.1 1361.4c42.021 514.01 7.628 1024-152.74 1527.4-72.797 510.74-156.71 1024.9 130.11 1425.5 287.63 299.4 574.02 491.22 854.18 141.42 24.873-140.02 23.88-282.39-33.941-429.92-103.6-194.78-243.59-337.57-452.55-381.84-165.24-16.277-209.13 88.798-209.3 237.59-60.138-138-84.232-304.84-107.48-472.35-7.526-257.63 46.654-493.22 144.65-713.16 160.05-383.62 183.7-773.73 120-1168z"/><path id="path4195" fill="url(#linearGradient4203)" d="m3878.1 1390.1c102.76 334.16 58.269 768.96-86.142 1244-152.27 500.89-247.72 1196.1-41.657 1515.5 217.09 336.5 563.74 639.14 878.38 306.02-78.726 249.55-288.31 574.5-732.56 384.67 59.362-67.882 19.021-135.76 0-203.65-38.478-98.485-89.031-188.92-172.53-257.39-60.811-36.112-121.62-46.574-182.43 0-138.69-530.87 5.2881-1151.2 115.97-1705.5 91.992-460.76 137.01-940.38 59.397-1394.4z"/><path id="path4179" fill="#852fbb" d="m4120.9 1531.1-37.758 9.7618c63.062 243.94 32.969 767.28-111.11 1111.6-138.34 330.6-210.3 698.88-111.01 1048.8 22.49 79.271 56.496 192.69 104.36 298.07 47.867 105.39 108.85 203.62 191.16 251.14 41.219 23.798 85 25.39 119.16 8.2832 34.159-17.107 57.67-52.428 61.342-95.645 3.5761-42.09-6.6826-94.394-23.107-141.43-16.425-47.038-36.339-88.378-67.361-107.56-30.696-18.984-68.714-6.5213-87.564 20.539s-5.8389 85.547 34.901 101.63c-21.26-33.916-11.714-66.686-2.8991-79.34 8.8148-12.654 22.591-17.365 35.049-9.6601 12.13 7.5023 36.034 44.235 51.055 87.25 15.02 43.015 23.832 92.746 21.068 125.27-2.6679 31.4-18.291 53.231-39.945 64.076s-50.364 11.191-82.195-7.1875c-68.906-39.783-128.77-131.38-175.15-233.49s-80.021-213.87-102.35-292.59c-95.97-338.28-26.744-697.63 109.47-1023.2 148.67-355.28 179.97-876.93 112.89-1136.4z"/><path id="path4181" d="m3952.7 3918.8c-31.324-158.41 38.366-337.98 255.31-262.85 270.98 93.844 432.48 341.68 444 612 13.996 328.54-290.06 802.49-762 568" stroke="#852fbb" stroke-width="39" fill="none"/><path id="path4183" d="m3208 2112c61.109 246-12.908 506-18 752" stroke="#7532a4" stroke-width="39" fill="none"/><path id="path4185" fill="#69288f" d="m3621.4 4324.7c-28.144 0.1903-52.861 8.3152-71.611 24.336-30 25.633-40.602 69.212-29.135 117.98 21.472 91.312 65.111 165.61 128.7 212.41 32.478 23.906 62.873 32.3 86.881 19.164s30.32-42.399 25.568-70.775c-8.261-49.338-26.496-117.19-67.441-170.34-11.08-14.382-22.378-25.029-39.356-25.035-8.4889 0-18.506 3.0436-22.303 9.6192-11.316 19.599 12.758 88.22 36.082 103.68-10.177-30.04-13.381-48.971-12.878-62.064 0.3214-8.3712 3.8454-7.2184 7.5606-2.3994 34.387 44.604 52.236 107.38 59.871 152.98 3.1967 19.092-1.783 27.913-5.8223 30.123-4.0392 2.2101-18.447 3.2146-45.043-16.361-54.564-40.162-93.99-105.47-113.85-189.93-9.1985-39.118-0.7078-64.696 16.504-79.402s47.268-20.806 88.941-8.3769c34.75 10.364 96.309 70.253 144.84 143.35 48.526 73.1 86.762 159.63 91.652 215.99 5.0088 57.73-14.097 102.86-44.92 127.67-30.823 24.805-74.12 31.666-126.91 6.9824-160.26-74.936-300.72-310.04-371.79-486.43l-36.174 14.574c73.096 181.43 211.51 423.05 391.44 507.19 63.322 29.609 125.24 22.383 167.88-11.928 42.636-34.311 65.232-93.324 59.324-161.42-6.0269-69.465-47.054-157.42-98.016-234.19-50.962-76.768-109.11-142.14-166.18-159.16-18.804-5.608-36.924-8.3505-53.811-8.2363z"/></g><g transform="translate(-64.489 13.398)"><path id="path4232" d="m2812 3660 16 1696 88 140 312 8 52-64-128-1812z" stroke="#f5a5c8" stroke-width="39" fill="#f2c5e0"/><path id="path4234" fill="#f2e28d" d="m3029.2 5008.6c-110.4-10.643-93.644 78.593-35.355 195.16-113.13-7.7982-101.15 64.027-7.0711 188.09l-145.66-32.527c8.6371 91.835 25.86 175.43 127.28 178.19l268.7-1.4142z"/><path id="path4228" d="m2846 5360c9.3782 72.91 7.6464 156.36 86 170 86.776 15.107 210.67 11.165 316 2" stroke="#d1aa3a" stroke-width="39" fill="none"/><path id="path4230" d="m2847 5355c51.667 16.038 103.33 32.346 155 38-100.12-76.541-134.16-223.62 1-177-46.549-64.716-98.654-223.02 18-204" stroke="#d1aa3a" stroke-width="27" fill="none"/><path id="path4351" d="m2372 3258c42.011 175.33 157.74 400.17 254 476l66-456z" stroke="#f5a5c8" stroke-width="39" fill="#f2c5e0"/></g><g transform="translate(-64.489 13.398)"><path id="path4353" fill="#fdcced" d="m3218.8 2260.8-545.89-56.568-2.8284 557.2-251.73 446.89c-14.775 192.61 67.763 306.16 172.53 401.64 93.116 85.24 193.69 125.75 294.16 166.88l164.05 8.4853c118.71-42.521 246.8-74.108 322.44-166.88 154.58-123.52 146.12-293.62 147.08-461.03-63.458-284.04-195.86-330.62-325.27-387.49z"/><path id="path4263-9" fill="#fdcced" d="m3051.9 3785.3c-28.322 443.58-47.563 1378.3-14.607 1645.7 15.53 126.01 38.012 144.32 68.347 153.2 162.33 37.646 314.38 36.695 455.38-5.6568 57.026-23.374 47.584-75.235 31.113-130.11-182.17-494.11-282.7-1282.7-226.27-1946"/><path id="path4261-5" fill="#fdcced" d="m2582.4 3530.8c24.132 686.51-68.477 1337.7-305.47 1979.9-25.117 58.496-10.754 91.867 22.628 113.14 158.39 35.613 316.78 40.019 475.18 16.971 39.406-16.131 50.286-57.211 58.326-99.48 97.89-599.56 56.919-1269.6 53.498-1768.5"/><path id="path4851" fill="#f5a5c8" d="m3333.6 3716.8c-21.483 614.63 77.685 1292.2 241.71 1737.6 7.9855 26.664 11.511 51.345 9.4548 68.611-2.0415 17.142-7.6081 27.631-30.412 37.166-136.91 40.904-284.69 41.959-443.7 5.1738-12.584-3.6891-18.408-5.7495-27.51-22.936-9.2249-17.419-17.113-52.299-24.752-114.29-16.085-130.52-21.508-431.39-17.281-753.64 4.2271-322.25 16.123-666.71 30.246-887.91l-38.922-2.4844c-14.199 222.38-26.085 567.04-30.32 889.88-4.2349 322.84 0.6983 622.02 17.57 758.92 7.8905 64.026 15.51 102.31 28.992 127.77 13.482 25.459 34.092 37.176 51.482 42.264l0.5313 0.1543 0.539 0.125c165.01 38.267 320.77 37.463 465.39-5.9766l0.9082-0.2734 0.877-0.3594c33.545-13.75 51.734-40.829 55.086-68.978 3.3523-28.149-2.4965-56.705-10.924-84.779l-0.1738-0.5742-0.2071-0.5645c-161.47-437.96-260.92-1113.7-239.61-1723.5 2.5321-72.441-0.2645-193.96-23.724-243.27-4.459 48.692-12.7 168.85-15.253 241.9z"/><path id="path4853" fill="#f5a5c8" d="m2566.5 3717.5c2.3931 616.27-93.346 1204.9-307.93 1786.4v0.01c-13.292 31.317-17.186 58.488-11.236 82.053 6.0104 23.805 22.16 41.842 41.68 54.279l2.875 1.832 3.3262 0.7481c160.77 36.148 321.68 40.608 482.26 17.242l2.3672-0.3437 2.2129-0.9063c24.492-10.026 40.928-28.847 51.033-49.371s14.708-42.93 18.812-64.512l0.047-0.25 0.041-0.2519c98.402-602.69 57.417-1273.9 54.002-1771.7l-38.998 0.2675c3.4273 499.67 43.869 1168.5-53.447 1764.9-3.9262 20.61-8.2749 39.804-15.447 54.371-6.8698 13.953-15.181 23.462-28.891 29.611-154.07 22.116-307.8 17.855-461.68-16.256-12.201-8.3188-19.356-17.178-22.381-29.156-3.2375-12.822-1.8618-31.288 9.6347-58.062l0.1993-0.4648 0.1757-0.4766c216.24-585.99 312.75-1179.6 310.34-1800-0.2414-62.156 1.5248-152.58 0.028-190.09-26.497 39.487-39.271 128.5-39.032 190.25z"/><path id="path4237" fill="#f5a5c8" d="m3212.7 2244.9c-38.411 240.3-50.244 605.31 1.472 729.69-8.2836-135.61-0.7268-487.27 37.04-723.54z"/><path id="path4243" d="m3194 2766c164.83 56.65 287.22 195.55 321.36 374.88 34.139 179.34-26.986 405.7-155.36 479.12" stroke="#f5a5c8" stroke-width="39" fill="none"/><path id="path4245" d="m2419.3 3198.1c-6.3029 176.94 85.155 365.89 170.69 416.93" stroke="#f5a5c8" stroke-width="39" fill="none"/><path id="path4247" fill="#f5a5c8" d="m2749.3 3707.4c42.843 63.226 141.18 97.666 223.06 99.007 81.579 1.3364 160.55-22.309 203.99-73.078-60.56 20.231-128.08 35.315-203.35 34.082-74.976-1.2281-160.54-24.237-223.7-60.011z"/><path id="path4255" fill="#fde67c" d="m3587.9 5596.9c-157.95 41.718-320.33 46.897-482.25 8.4853-54.694-12.975-58.038-16.77-63.104-132.1 56.445 12.4 117.41 15.65 176.49 17.663-192.1-141.52-120.55-266.97 23-165-57.53-110.78-156.7-308.24-87-349 69.7-40.757 125.46 118.92 149 195 12.758-77.004 21.981-219.18 83-213 61.019 6.181 44.077 236.4 16 363 128.04-120.89 168.74 42.565 15 162 61.483-7.4019 114.96-21.826 173.24-43.992 47.525 125.6 36.192 146.49-3.3755 156.94z"/><path id="path4253" fill="#d1aa3a" d="m3382.7 4945.3c-0.6212 0.012-1.2387 0.037-1.8535 0.074-17.214 1.0404-31.884 11.631-41.779 25.648-11.309 16.02-18.746 36.85-24.719 59.852-6.8976 26.565-11.552 55.907-15.525 83.459-10.884-30.053-24.176-62.492-40.308-90.436-13.338-23.103-28.216-43.119-46.557-55.539s-42.342-15.575-63.76-3.0508c-22.73 13.291-31.018 39.546-30.586 68.006 0.4323 28.46 8.5285 61.368 20.41 96.244 18.29 53.687 45.775 111.66 70.644 160.93-21.044-9.9491-40.378-14.895-57.615-15.16-27.958-0.4296-51.536 13.969-59.244 37.648-7.7081 23.68-1.2972 52.992 18 85.115 14.628 24.35 37.051 50.607 68.418 77.646-45.393-2.307-90.594-6.6228-132.81-15.623-7.581-1.6164-15.264-2.7096-22.896-4.0644 0.1725 6.0352 0.2613 12.073 0.5175 18.106 2.457 57.846 3.2179 88.241 14.904 112.14 5.8433 11.95 15.873 21.294 26.842 26.697 10.969 5.4035 22.5 8.0943 36.338 11.377 165.15 39.178 330.98 33.854 491.73-8.6055 11.22-2.9636 22.535-6.9653 32.127-15.803 9.592-8.8374 15.452-22.302 16.611-36.986 2.3198-29.368-8.3564-67.01-32.652-131.36-1.5281-4.0472-2.9665-8.1277-4.4497-12.192-6.091 2.1198-12.189 4.2198-18.273 6.3595-43.298 15.227-82.548 28.41-124.21 37.178 53.355-53.862 74.504-111.36 67.48-152.4-2.1062-12.308-7.0869-23.441-15.51-31.637-8.4228-8.1958-20.197-12.824-32.852-12.947-17.439-0.1706-36.537 7.0416-57.615 21.734 10.627-59.234 18.314-130.46 18.412-192.39 0.06-37.751-2.5729-71.848-9.6797-98.34-3.5534-13.246-8.1679-24.691-15.051-33.918-6.8829-9.2269-16.98-16.34-28.818-17.539-1.9173-0.1943-3.8101-0.2681-5.6738-0.2305zm-0.6621 26.947c1.1556-0.032 2.356 0.019 3.6133 0.1464 3.4161 0.3461 6.1381 1.7795 9.8984 6.8204 3.7603 5.0408 7.6149 13.585 10.615 24.77 6.0007 22.369 8.8157 54.899 8.7579 91.301-0.1157 72.804-11.302 161.58-25.09 223.75l-9.5195 42.92 31.967-30.18c30.647-28.935 55.053-38.933 68.582-38.801 6.7644 0.066 10.842 1.9485 14.287 5.3008 3.4452 3.3524 6.3501 8.8052 7.7246 16.838 5.4982 32.131-19.089 100.65-93.144 158.19l-38.469 29.887 48.365-5.8243c56.507-6.8027 105.39-21.786 157.36-39.764 20.187 55.272 26.864 87.882 25.725 102.3-0.6103 7.7263-1.9992 9.3838-4.1582 11.373s-7.0969 4.5175-15.66 6.7793c-155.14 40.977-314.08 46.01-472.77 8.3652-13.509-3.2047-22.906-5.8546-28.106-8.416-5.1994-2.5613-6.5763-3.807-9.039-8.8437-4.3609-8.9184-7.6247-32.842-10.068-78.092 51.024 8.9745 104.25 11.632 155.64 13.383l43.547 1.4844-35.08-25.846c-46.935-34.578-77.239-67.892-94.068-95.906s-19.581-50.228-15.471-62.854c4.1098-12.626 13.329-19.314 33.156-19.01 19.828 0.3047 49.166 10.217 83.557 34.645l45.547 32.352-25.748-49.58c-28.715-55.294-67.635-132.02-90.414-198.89-11.39-33.432-18.612-64.456-18.969-87.945-0.3568-23.49 5.0964-37.202 17.217-44.289 13.432-7.8545 22.539-6.3333 34.992 2.0996s26.056 25.449 38.312 46.68c24.514 42.461 44.316 100.84 55.984 138.56l16.879 54.561 9.336-56.344c6.5122-39.306 12.039-93.716 23.15-136.51 5.5554-21.396 12.662-39.762 20.642-51.068 6.9833-9.8928 12.825-14.125 20.914-14.346z" transform="translate(-.000049167)"/><path id="path4259-2" fill="#fde67c" d="m2663 5546c194.02-111.29 156.4-279.09-18.385-168.29 68.848-108.3 178.98-327.49 96.166-350.73-82.809-23.237-125.84 117.93-155.56 189.5-9.854-74.375-3.5161-217.53-73.539-212.13-70.023 5.3983-51.873 247.09-29.698 352.14-74.906-88.088-186.22-5.966-18.556 162.88-59.465-9.156-117.64-23.462-174.45-43.255-51.914 115.44-53.486 135.86 3.5 156.15 150.85 53.704 319.87 47.567 469.52 22.627 56.865-9.477 66.675-16.842 74.953-128.69-47.215 10.371-121.47 17.913-173.95 19.799z"/><path id="path4257" fill="#d1aa3a" d="m2514.7 4990.8c-1.35 0.01-2.7138 0.06-4.0918 0.166-12.624 0.9732-23.709 7.7757-31.586 17.146-7.8767 9.3707-13.327 21.208-17.566 34.828-8.478 27.241-11.995 62.096-12.73 99.924-1.1619 59.741 4.9374 126.3 13.137 178.28-12.025-7.5269-24.395-12.097-36.494-13.449-22.7-2.5365-44.93 7.5277-55.59 27.639s-10.208 47.611 2.7031 80.037c9.8513 24.741 27.158 52.768 53.797 83.811-45.095-8.7893-89.476-20.415-132.89-35.74-5.8785-2.075-11.628-4.5-17.441-6.75-1.5951 3.834-3.0887 7.7118-4.7852 11.502-26.002 58.093-41.132 91.805-40.803 121.97 0.1647 15.082 6.4016 29.939 16.908 39.725 10.507 9.7853 23.392 15.396 38.639 20.824 155.63 55.405 327.78 48.736 479.26 23.49 14.53-2.4216 27.007-4.682 38.836-9.6133 11.829-4.9312 22.864-13.48 30.207-25.266 14.685-23.572 17.998-55.148 22.152-111.61 0.4583-6.2281 0.8685-12.46 1.3027-18.689-7.8822 1.3548-15.82 2.4188-23.646 4.0644-32.266 6.7843-78.491 12.818-121.17 16.314 27.884-20.873 49.417-42.805 64.693-64.348 22.404-31.593 32.223-62.41 27.854-88.631-4.3699-26.22-26.225-45.966-55.902-48.201-19.337-1.4567-41.962 3.1481-67.836 14.371 29.183-50.336 60.356-111.61 80.578-167.48 13.181-36.413 21.881-70.318 21.607-98.814-0.1367-14.248-2.5239-27.396-8.8789-38.604-6.3549-11.208-17.181-19.883-30.564-23.639-24.419-6.8519-47.696-1.1984-66.352 11.611-18.656 12.81-33.58 32.024-46.559 53.635-15.028 25.022-27.266 53.306-37.908 79.734-2.0197-26.513-4.4138-54.956-9.334-80.969-4.3711-23.11-10.548-44.304-21.791-60.826-9.8374-14.457-25.27-25.033-43.746-26.312-1.3197-0.091-2.6559-0.1345-4.0058-0.1289zm0.3457 26.963c11.468-0.2973 17.988 4.2376 25.086 14.668 7.5708 11.126 13.553 29.353 17.582 50.654 8.0581 42.602 8.9633 96.567 14.088 135.25l6.5957 49.777 19.256-46.373c15.18-36.559 33.287-89.086 56.978-128.53 11.846-19.724 25.063-35.917 38.695-45.277 13.632-9.3605 26.788-12.639 43.774-7.8731 7.3186 2.0537 11.167 5.3109 14.371 10.961 3.2036 5.6501 5.261 14.284 5.3691 25.545 0.2161 22.521-7.3919 54.539-19.998 89.365-25.212 69.652-69.692 151.19-103.65 204.61l-32.424 51.002 51.043-32.358c42.209-26.757 75.179-35.581 95.65-34.039 20.472 1.5422 28.667 9.9281 31.299 25.719 2.6316 15.791-3.596 40.865-23.244 68.572s-52.193 57.927-99.266 84.928l-47.352 27.16 54.555-1.959c45.198-1.624 105.41-7.256 152.42-15.457-3.9395 42.763-9.0631 65.438-14.766 74.592-3.2529 5.2214-5.8512 7.282-12.113 9.8925-6.2621 2.6105-16.336 4.8238-30.238 7.1407-147.81 24.634-313.7 30.24-459.77-21.764-13.246-4.7157-21.535-9.2648-25.139-12.621-3.6037-3.3563-4.4139-4.6225-4.4902-11.611-0.143-13.091 10.125-43.9 32.631-94.906 52.039 17.038 105.18 29.617 159.35 37.957l40.525 6.2402-28.891-29.094c-41.004-41.292-64.372-76.844-75.404-104.55s-9.5069-46.888-3.9336-57.402c5.5732-10.514 14.738-15.017 28.736-13.453 13.999 1.5641 32.306 10.809 49.293 30.785l34.49 40.561-10.996-52.094c-10.809-51.205-20.853-137.58-19.438-210.39 0.7079-36.402 4.3977-69.548 11.518-92.426 3.5599-11.439 8.0061-20.188 12.453-25.478 4.447-5.2904 8.1123-7.2232 12.994-7.5996 0.8102-0.062 1.5968-0.1032 2.3614-0.123z" transform="translate(-.000049167)"/></g><g transform="translate(-64.489 13.398)"><path id="path4366" fill="#fde67c" d="m2859 3171c-70.34-48.524-145.67-73.755-224-85l-25 168c130.09 25.984 264.26 102.85 405 262l66-114c33.827-64.565 40.488-126.77 13-186-15.873-44.976-21.908-94.564-120-101-55.539-4.274-99.304 7.1505-115 56z"/><path id="path4356" d="m3100.1 3224c150.84-56.608 262.41-150.66 356.91-256.1 34.929 54.815 62.992 120.99 68.589 190.92-53.51 64.803-175.86 161.44-330.93 210.72-54.207 17.227-113.69 41.122-142.69 84.487" stroke="#d1aa3a" stroke-width="27" fill="#fde67c"/><path id="path4358" fill="#d1aa3a" d="m2953.8 3100.7c-32.328 0.9531-62.652 11.177-82.642 32.191-25.058 26.341-34.982 61.448-34.68 93.381 0.302 31.932 9.897 61.615 30.443 78.211 36.612 29.572 90.844 23.283 111.29-14.615 24.778-45.931-14.592-84.09-47.242-58.974 38.061-4.9368 33.074 29.101 23.82 45.544-12.192 21.663-45.596 27.481-70.902 7.041-10.412-8.4105-20.163-31.377-20.41-57.463-0.2467-26.086 8.0774-54.368 27.244-74.516 17.571-18.47 54.629-27.757 91.646-22.037s72.441 25.358 89.277 58.471c36.252 71.298 26.458 156.21 2.0664 198.94-23.452 41.084-40.614 73.819-59.502 108.45-46.577-56.16-103.73-109.3-168.24-153.88-76.059-52.558-156.44-83.233-240.03-98.346l-4.8028 26.57c80.299 14.517 156.69 43.686 229.49 93.988 68.232 47.149 128.28 104.34 175.25 164.11l12.555 15.975 9.8633-17.762c23.429-42.195 41.77-78.243 68.875-125.73 30.135-52.79 39.449-144.13-1.4473-224.56-21.738-42.753-65.57-66.171-109.22-72.916-10.913-1.6864-21.913-2.3978-32.69-2.0801z"/><path id="path4360" d="m2860.9 3172.4c-47.003-37.307-98.675-55.937-151.27-70.858" stroke="#d1aa3a" stroke-width="27" fill="none"/></g><g transform="translate(-64.489 13.398)"><path id="path4397" fill="url(#linearGradient4405)" d="m2449.4 2348.5c64.036 240.16 89.856 476.3 11.314 701.45-68.664-24.843-128.91-25.822-152.74 76.368 1.7124 76.018 12.675 147.83 96.167 186.68 104.15 28.18 192.75-5.8592 274.36-67.882 72.739-328.69 36.56-635.6-229.1-896.61z"/><path id="path4387" fill="url(#linearGradient4395)" d="m2356.1 999.34c-174.4 238.78-139.27 453.39-124.45 670.34 181.59 413.74 394.46 741.45 605.28 1074.8-15.529-198.93-89.394-397.87-200.82-596.8l-169.71-924.9z"/><path id="path4377" fill="url(#linearGradient4385)" d="m2240.1 1282.2c10.877 315.44 99.016 591.37 251.73 823.07 130.73 198.34 273.68 402.82 345.07 588.31 8.9148 122.17 2.2959 241.74-33.941 356.38-42.874 124.5-134.42 205.39-203.65 251.73 130.36-309.02 67.855-644.39-132.94-913.58-57.003-187.18-123.09-365.29-195.16-537.4-40.718-189.5-85.668-379.01-31.113-568.51z"/><path id="path4369" d="m2347.6 1004.8c-203.8 306.97-139.25 707.58-2.4853 1043.1 166.7 409 211.81 763.33 113.62 1009.2" stroke="#852fbb" stroke-width="39" fill="none"/><path id="path4371" fill="#852fbb" d="m2643.6 2142.4-31.277 23.297c81.914 109.96 165.47 296.23 196.88 489.17 31.418 192.93 11.034 391.24-108.11 531.56-54.161 63.788-117.97 102.05-178.24 113.62-60.265 11.571-116.63-2.4714-161.46-45.127-19.389-18.45-32.207-57.832-33.082-96.918-0.8747-39.086 11.065-76.597 25.025-89.774 16.764-15.822 37.774-20.717 58.627-18.275 20.852 2.442 40.602 13.095 51.01 25.58 23.994 28.783 22.432 54.522 6.4023 72.561-7.4223 8.3529-15.984 11.175-25.045 11.148-9.0607-0.026-17.892-0.6463-24.373-6.7323-10.202-9.5797-20.142-31.073 9.2299-49.207-44.168 1.6645-59.786 52.006-33.57 76.795 12.562 11.878 29.946 18.09 48.6 18.144 18.654 0.055 39.223-7.263 54.311-24.242 28.991-32.625 27.582-83.638-5.5977-123.44-18.179-21.807-46.097-35.79-76.432-39.342-30.334-3.5524-64.03 4.1994-89.932 28.646-28.706 27.093-38.28 72.803-37.246 119.01 1.0341 46.207 13.548 94.189 45.19 124.3 53.812 51.207 124.9 68.767 195.7 55.174 70.8-13.594 141.67-57.262 200.61-126.68 129.4-152.4 149.4-363.32 116.87-563.07-32.528-199.75-117.25-389.61-204.1-506.2z"/></g><g transform="translate(-64.489 13.398)"><path id="path4412" d="m3447.2 1288.8c199.58-134.67 269.72-400.1 150.66-645.61-37.342-77.003-71.47-63.531-114.76-22.01-117.45 112.65-202.79 266.23-207.41 416.45" stroke="#f5a5c8" stroke-width="39" fill="#fdcced"/></g><g transform="translate(-64.489 13.398)"><path id="path4437" d="m3609.1 1171.9c157.64 362.59 65.932 771.78-135.76 1009.7-201.7 237.97-682.86 264.34-886.95 9.3137-204.1-255.02-281.7-662.68-122.79-1112.4 351.23-222.51 741.8-119.03 1145.5 93.338z" stroke="#f5a5c8" stroke-width="39" fill="#fdcced"/><path id="path4439" fill="#f5a5c8" d="m2889.2 2006.3c18.165-39.218 128.95-36.689 142.84-1.4142-32.612-13.019-111.22-10.16-142.84 1.4142z"/><path id="path4441" fill="#f5a5c8" d="m3071 2072c2.5971 32.003-2.3506 59.761-42 68 36.22 25.814 78.681-12.12 42-68z"/><path id="path4443" fill="#f5a5c8" d="m2888 2141c-23.382-12.173-43.293-32.795-40-67-22.579 36.006-19.882 82.625 40 67z"/><path id="path4445" fill="#f5a5c8" d="m3107 2147c-15.554 69.124-72.76 114.58-143 115-70.24 0.4243-115.58-49.139-141-98 4.9966 56.977 55.724 118.94 144 120 88.276 1.0643 140.81-61.117 140-137z"/></g><g transform="translate(-64.489 13.398)"><path id="path4448-7" fill="#fff" d="m3606 1342c-104.23 0.5714-207.91 2.7046-290 66-74.357 55.077-127.81 317.37-98 454 2.1603 53.92 6.8739 106.56 2 164 33.333-21.827 66.667-24.527 100-24 98.741 6.4454 192.49-8.0805 254-158 73.866-220 45.951-392.19 32-502z"/><path id="path4450-7" fill="#fff" d="m2449.4 1347.2c165.68-20.575 309.96-0.7843 345.07 224.86 27.784 113.61 46.837 227.22 11.314 340.83-2.9917 47.621-0.2583 86.654 4.2426 123.04-26.677-20.75-58.182-33.452-96.166-35.355-67.639 4.0889-134.11-15.185-197.99-86.267-96.938-191.53-96.485-401.87-66.468-567.1z"/><ellipse id="path4463" style="color:#000000" d="m 3713.6991,1497.7803 c 0,182.2622 -77.4453,330.0149 -172.9789,330.0149 -95.5336,0 -172.9789,-147.7527 -172.9789,-330.0149 0,-182.2622 77.4453,-330.0149 172.9789,-330.0149 95.5336,0 172.9789,147.7527 172.9789,330.0149 z" clip-path="url(#clipPath4491)" rx="172.98" ry="330.01" transform="matrix(.99801 .063078 -.064542 .99792 0 0)" cy="1497.8" cx="3540.7" fill="url(#linearGradient4593)"/><ellipse id="path4465" style="color:#000000" d="m 2665.3371,1908.9506 c 0,174.4984 -75.6597,315.9574 -168.9907,315.9574 -93.3309,0 -168.9906,-141.459 -168.9906,-315.9574 0,-174.4985 75.6597,-315.9575 168.9906,-315.9575 93.331,0 168.9907,141.459 168.9907,315.9575 z" clip-path="url(#clipPath4483)" rx="168.99" ry="315.96" transform="matrix(.99707 -.076547 .10223 .99476 0 0)" cy="1909" cx="2496.3" fill="url(#linearGradient4585)"/><path id="path4503" clip-path="url(#clipPath4545)" fill="#dec6ef" d="m2607 1843-78 9-24-98 97 3z"/><path id="path4505" clip-path="url(#clipPath4541)" fill="#c095de" d="m2592 1775-85 14-5-98 81 10z"/><path id="path4507" clip-path="url(#clipPath4575)" fill="#dec6ef" d="m3346 1892-73 28-19-100 67-3z"/><path id="path4509" clip-path="url(#clipPath4571)" fill="#c095de" d="m3321 1830-66 13-9-92 74-1z"/><ellipse id="path4467" style="color:#000000" d="m 2626.333,2040.9088 c 0,137.8638 -56.6348,249.6245 -126.4973,249.6245 -69.8625,0 -126.4973,-111.7607 -126.4973,-249.6245 0,-137.8638 56.6348,-249.6245 126.4973,-249.6245 69.8625,0 126.4973,111.7607 126.4973,249.6245 z" clip-path="url(#clipPath4479)" rx="126.5" ry="249.62" transform="matrix(.99384 -.11082 .10584 .99438 0 0)" cy="2040.9" cx="2499.8"/><ellipse id="path4515" style="color:#000000" d="m 3018.5377,643.02197 c 0,65.82409 -20.5638,119.18505 -45.9305,119.18505 -25.3668,0 -45.9306,-53.36096 -45.9306,-119.18505 0,-65.82408 20.5638,-119.18505 45.9306,-119.18505 25.3667,0 45.9305,53.36097 45.9305,119.18505 z" rx="45.931" ry="119.19" transform="matrix(.94357 .33118 -.31624 .94868 0 0)" cy="643.02" cx="2972.6" fill="#fff"/><ellipse id="path4517" style="color:#000000" d="m 3010.0186,1008.4528 c 0,25.4251 -8.9429,46.0363 -19.9744,46.0363 -11.0316,0 -19.9744,-20.6112 -19.9744,-46.0363 0,-25.42509 8.9428,-46.03622 19.9744,-46.03622 11.0315,0 19.9744,20.61113 19.9744,46.03622 z" rx="19.974" ry="46.036" transform="matrix(.97114 .23853 -.24864 .96860 0 0)" cy="1008.5" cx="2990" fill="#fff"/><ellipse id="path4469" style="color:#000000" d="m 3731.0927,1407.4315 c 0,142.157 -62.3608,257.398 -139.2868,257.398 -76.926,0 -139.2868,-115.241 -139.2868,-257.398 0,-142.157 62.3608,-257.398 139.2868,-257.398 76.926,0 139.2868,115.241 139.2868,257.398 z" clip-path="url(#clipPath4487)" rx="139.29" ry="257.4" transform="matrix(.99576 .092033 -.092957 .99567 0 0)" cy="1407.4" cx="3591.8"/><ellipse id="path4511" style="color:#000000" d="m 3831.252,1122.0935 c 0,70.3105 -22.5208,127.3083 -50.3016,127.3083 -27.7808,0 -50.3015,-56.9978 -50.3015,-127.3083 0,-70.3104 22.5207,-127.30832 50.3015,-127.30832 27.7808,0 50.3016,56.99792 50.3016,127.30832 z" rx="50.302" ry="127.31" transform="matrix(.99124 .13206 -.29054 .95686 0 0)" cy="1122.1" cx="3781" fill="#fff"/><ellipse id="path4513" style="color:#000000" d="m 3752.0531,1042.5504 c 0,26.8086 -9.8369,48.5412 -21.9713,48.5412 -12.1344,0 -21.9713,-21.7326 -21.9713,-48.5412 0,-26.8085 9.8369,-48.54115 21.9713,-48.54115 12.1344,0 21.9713,21.73265 21.9713,48.54115 z" rx="21.971" ry="48.541" transform="matrix(.98457 .17502 -.18945 .98189 0 0)" cy="1042.6" cx="3730.1" fill="#fff"/></g><g transform="translate(-64.489 13.398)"><path id="path4901" d="m2329.1 1250.5c14.903 70.87 67.146 129.54 123.34 121.23 128.14-18.953 182.64-14.422 230.85 16.293 48.208 30.715 76.884 83.498 99.629 168.38 29.389 109.68 40.319 239.62 22.262 323.59-9.6965 45.087-13.313 90.333-10.094 133.04-28.073-16.737-58.286-30.142-103.91-26.252-93.932 8.0097-169.16-63.141-195.81-134.76-49.174-132.15-82.442-330.3-27.507-495.11l-19.922-6.6406c-57.284 171.87-22.283 374.62 27.747 509.08 29.554 79.425 112.05 157.34 217.28 148.36 49.934-4.2579 75.16 12.808 109.1 34.281l18.998 12.022-2.9766-22.285c-6.1401-45.97-3.2573-96.654 7.6368-147.31 19.333-89.893 7.601-221.07-22.508-333.44-23.264-86.824-53.854-145.76-108.63-180.66-54.775-34.898-99.909-53.528-246.08-33.474-42.648 5.851-81.261-27.101-119.39-86.339z"/><path id="path4598" d="m3389.7 1348.6c-59.761 22.496-112.12 66.226-138.97 123.12-64.551 136.78-72.341 301.86-44.964 419.62 9.6098 41.336 10.656 86.834 3.3282 131.81l-3.6407 22.34 19.406-11.648c33.685-20.217 75.298-26.986 130.07-21.434 93.208 9.4488 197.66-59.103 233.1-175.39 47.63-156.28 64.415-315.73 25.164-478.52l-20.414 4.9218c38.2 158.43 22.035 313.69-24.836 467.48-32.742 107.43-129.57 168.86-210.9 160.61-48.707-4.9376-89.722-0.5178-124.53 14.908 4.5151-40.885 2.5467-81.773-6.3027-119.84-25.728-110.67-20.714-274.87 44.065-407.21 24.709-50.479 71.135-78.539 126.91-99.839s127-20.805 198.4-12.29l1.0468-32.286c-69.54-8.6121-148.99-8.1687-206.94 13.643z"/><path id="path4610" d="m2441.5 1402.9c-53.805 15.863-82.436-6.984-98.5-52.379 0.4642 50.76 42.37 101.92 95.207 82.036z" stroke="#000" stroke-width="1px"/><path id="path4612" d="m2431.5 1624.5c-30.952-16.172-56.941 14.846-61.5 49.5 15.985-24.546 36.402-35.794 67-16.5z" stroke="#000" stroke-width="1px"/><path id="path4614" d="m2446.5 1717.5c-33.791-7.2907-54.693 22.307-52.5 48 12.234-19.039 24.902-32.453 58-19z" stroke="#000" stroke-width="1px"/><path id="path4616" d="m2467 1812c-36.745-0.279-42.799 41.358-33.5 60 5.953-24.315 21.665-41.236 46-30.5z" stroke="#000" stroke-width="1px"/><path id="path4618" d="m3573.5 1853.5c25.048 2.9901 37.497 21.67 44 37 9.0239-25.46-13.398-68.381-35-70.5z" stroke="#000" stroke-width="1px"/><path id="path4620" d="m3597.5 1767c30.45-9.1036 50.138 5.2746 66 28-2.3428-31.133-19.754-61.879-57-59.5z" stroke="#000" stroke-width="1px"/><path id="path4622" d="m3616.5 1678c31.142-12.112 52.335-1.8376 67.5 22-0.845-29.216-23.948-71.308-63.5-53z" stroke="#000" stroke-width="1px"/><path id="path4624" d="m3617 1431.2c46.577 14.842 73.681-5.5377 91-37.243-6.5151 41.78-16.222 81.1-85.5 74.5z" stroke="#000" stroke-width="1px"/></g><g transform="translate(-64.489 13.398)"><path id="path4639" fill="url(#linearGradient4647)" d="m2967 688.21c489.12 212.04 844.9 524.09 1154 871.16-61.157-224.49-146.78-471.34-427.09-653.37-242.3-135.67-484.6-210.33-726.9-217.79z"/><path id="path4629" fill="url(#linearGradient4637)" d="m2517.3 736.3c402.39 91.773 1141.7 391.59 1428.4 820.24l217.79 172.53-48.083-195.16c-231.7-335.9-584.5-719.52-1091.8-845.69-179.48 0.43647-334.11-3.4315-506.29 48.083z"/><path id="path4627" d="m2472 744.78c371.52-107.05 795.37-77.287 1171 135.76 375.6 213.05 463.44 564.48 509.12 842.87-224.09-218.08-527.15-363.72-873.98-452.55-283.63-72.642-547.97-176.2-731.15-370.52" stroke="#852fbb" stroke-width="39" fill="none"/></g><g transform="translate(-64.489 13.398)"><path id="path4672" fill="#fde67c" d="m2872 249c-53.4 95.933-52.273 207.45-51 319-37.667-50.733-75.321-101.48-126-134-64.104-29.225-111.21-16.733-146 26-21.82 68.564-26.48 133.7 18 189 56.228 41.825 105.41 27.299 151-16l42 76 320-16-18-243-117-204z"/><path id="path4650" d="m2711 631c76.251 76.785 76.356 167.18 79 265h310l-24-246" stroke="#d1aa3a" stroke-width="39" fill="#fde67c"/><path id="path4652" fill="#d1aa3a" d="m2874.9 217.3c-57.464 93.852-67.882 203.45-64.898 311.66-27.133-38.183-60.978-77.588-99.102-102.31-27.283-17.691-61.031-24.821-92.496-20.865-31.465 3.9556-61.435 19.673-77.348 48.773-29.585 54.104-29.933 130.45 8.0059 188.92 20.289 31.269 54.055 42.839 84.598 42.047 30.543-0.79188 59.049-12.062 75.108-31.34 13.046-15.662 22.277-31.118 25.476-48.049 3.1991-16.931 0.1929-34.894-9.9961-51.789-25.24-41.851-89.942-38.392-86.564 8.8992 20.877-36.209 54.75-10.007 62.998 4.2766 7.5551 13.084 9.0021 23.169 7.0313 33.6-1.9709 10.431-8.2753 22.077-19.691 35.781-8.4038 10.088-31.445 21.017-55.061 21.629-23.616 0.6123-46.621-7.2072-61.248-29.75-31.895-49.155-31.309-116.75-6.9668-161.27 11.051-20.21 32.074-31.803 57.025-34.939 24.952-3.1368 53.047 2.8601 74.438 16.73 45.235 29.332 89.105 88.199 117.92 134.64l28.043 45.197-3.0937-53.1c-7.1027-121.87-2.4787-244.49 58.848-344.65z"/><path id="path4658" d="m3046.9 467.6c40.354-61.159 126.24-64.366 173.24-16.971 47.001 47.395 31.598 166.81-16.971 197.99-48.568 31.176-94.25 21.083-131.52-14.142" stroke="#d1aa3a" stroke-width="27" fill="#fde67c"/><path id="path4921" fill="#d1aa3a" d="m3052.2 515.73 14.873 22.535c12.902-8.5149 21.605-13.406 33.354-12.074 25.843 2.9301 29.997 17.291 26.417 51.765 22.937-27.398 14.083-78.057-25.844-78.763-16.09-0.28463-32.557 5.8174-48.799 16.537z"/><ellipse id="path4668" stroke="#69288f" style="color:#000000" d="m 2964.9656,181.91422 c 0,42.86829 -39.5333,77.61991 -88.3001,77.61991 -48.7668,0 -88.3001,-34.75162 -88.3001,-77.61991 0,-42.8683 39.5333,-77.61992 88.3001,-77.61992 48.7668,0 88.3001,34.75162 88.3001,77.61992 z" rx="88.3" ry="77.62" cy="181.91" cx="2876.7" stroke-width="27" fill="#9d5cba"/><ellipse id="path4670" style="color:#000000" d="m 2935.5778,157.37314 c 0,16.09497 -22.5363,29.14253 -50.3363,29.14253 -27.8001,0 -50.3364,-13.04756 -50.3364,-29.14253 0,-16.09498 22.5363,-29.14253 50.3364,-29.14253 27.8,0 50.3363,13.04755 50.3363,29.14253 z" fill-opacity=".50196" rx="50.336" ry="29.143" cy="157.37" cx="2885.2" fill="#fff"/></g><g transform="translate(-64.489 13.398)" stroke="#f5a5c8"><path id="path4675" d="m3161 1032.9-148.7-903.57c-15.09-91.675-76.791-90.703-89.681 6.3432l-113.97 858.01" stroke-width="39" fill="#fdcced"/><path id="path4677" d="m2912.6 199.51c36.11 16.947 75.303 20.281 113.72 7.9857" stroke-width="27" fill="none"/><path id="path4679" d="m2896 325c45.478 21.138 94.525 29.187 148 21" stroke-width="27" fill="none"/><path id="path4681" d="m2886 428c54.271 48.338 113.42 47.299 173 24" stroke-width="27" fill="none"/><path id="path4683" d="m2869 546c55.739 52.783 145.96 63.132 215 15" stroke-width="27" fill="none"/><path id="path4685" d="m2854 669c61.773 82.68 155.22 89.35 252 48" stroke-width="27" fill="none"/><path id="path4687" d="m3129 885c-84.302 49.067-199.06 60.069-301-16" stroke-width="27" fill="none"/></g><g transform="translate(-64.489 13.398)"><path id="path4721" fill="url(#linearGradient4729)" d="m3965.5 1570.7c-276.8-396.6-874-699.07-1419.9-828.75l2.8284 166.88c202.07 189.34 429.66 259.55 653.37 347.9 304.16 50.545 541.73 173.73 763.68 313.96z"/><path id="path4627-19" d="m4152.1 1723.4c-224.1-218.1-527.1-363.7-874-452.5-283.6-72.7-547.9-176.2-731.1-370.55" stroke="#69288f" stroke-width="39" fill="none"/><path id="path4627-1" fill="#852fbb" d="m3652.6 863.59-19.242 33.922c343.83 195.03 440.23 506.47 489.62 772.07 4.2388 22.799 10.349 45.21 15.523 67.814l42.428 41.291-9.586-58.422c-45.901-279.74-136.27-639.73-518.74-856.68z"/></g><g transform="translate(-64.489 13.398)"><path id="path4412-6-8" fill="#fdcced" d="m2428.5 1310.7c-167.2-173.24-183.43-460.18-15.9-675.56 52.543-67.551 83.122-47.275 116.83 2.3432 91.449 134.62 148.63 309.66 121.9 457.56"/><path id="path4412-6" fill="#f5a5c8" d="m2475.6 572.59c-12.692-0.58727-25.822 3.4269-37.774 10.99-13.659 8.6438-26.658 21.631-40.646 39.615-172.76 222.11-160.96 575.96 38.037 693.89-153.14-176.22-169.54-461.3-7.2517-669.95 12.283-15.791 22.81-25.603 30.715-30.605 7.9052-5.0025 12.312-5.4886 16.412-4.8594 8.2012 1.2585 22.171 13.23 38.178 36.793 89.125 131.2 145.74 300.68 135.06 455.68 62.855-146.23-9.027-339.55-102.8-477.59-17.7-26.055-35.873-49.029-64.523-53.426-1.7907-0.27478-3.595-0.45321-5.4082-0.53711z"/><path id="path4750" fill="#f5a5c8" d="m2470.6 863.58c-39.248 87.862-43.646 189.78 0 261.63-69.172-57.59-71.715-186.63 0-261.63z"/></g></svg>