<?xml version="1.0" encoding="UTF-8"?><svg xmlns="http://www.w3.org/2000/svg" xmlns:xlink="http://www.w3.org/1999/xlink" version="1.1" viewBox="0 0 4869.2974 4869.2866" width="4869.2974" height="4869.2866"><defs id="defs4"><linearGradient id="linearGradient4019"><stop id="stop4021" stop-color="#2cc0b3" offset="0"/><stop id="stop4023" stop-color="#247382" offset="1"/></linearGradient><clipPath id="clipPath3987" clipPathUnits="userSpaceOnUse"><path id="path3989" d="m3476 1613c16.502-201.25-79.493-361.06-204.21-478.37l-226.08-33.654c-85.237 73.885-99.053 204.87-51.889 317.31 78.96 188.24 278.39 201.99 482.18 194.71z" stroke="#f00" stroke-width="1px" fill="#0f0"/></clipPath><clipPath id="clipPath3991" clipPathUnits="userSpaceOnUse"><path id="path3993" d="m3473 1635.2c11.705-207.54-91.601-369.45-223.42-486.86l-234.23-28.631c-86.017 78.296-96.809 213.45-45.156 327.91 86.477 191.62 292.67 200.48 502.81 187.57z" stroke="#f00" stroke-width="1.0309px" fill="#0f0"/></clipPath><clipPath id="clipPath3995" clipPathUnits="userSpaceOnUse"><path id="path3997" d="m3456.4 1584.3c15.82-191.5-76.208-343.01-195.77-454.63l-216.74-32.024c-81.715 70.307-94.96 194.95-49.745 301.94 75.697 179.13 266.89 191.64 462.25 184.71z" stroke="#f00" stroke-width=".95512px" fill="#0f0"/></clipPath><clipPath id="clipPath3999" clipPathUnits="userSpaceOnUse"><path id="path4001" d="m3474.2 1612.4c16.502-201.25-77.737-360.46-202.45-477.76l-226.08-33.654c-85.237 73.885-99.053 204.87-51.889 317.31 78.96 188.24 276.63 201.39 480.42 194.11z" stroke="#f00" stroke-width="1px" fill="#0f0"/></clipPath><linearGradient id="linearGradient4025" y2="1345.8" xlink:href="#linearGradient4019" gradientUnits="userSpaceOnUse" x2="3756.5" y1="1497" x1="3766.7"/><linearGradient id="linearGradient4027" y2="1299.2" xlink:href="#linearGradient4019" gradientUnits="userSpaceOnUse" x2="3330.6" y1="1627.5" x1="3320.6"/><filter id="filter6183-76-91-6-7-11-2-38-97-47-9-0-9" height="1.216" width="1.216" y="-0.108" x="-0.108" color-interpolation-filters="sRGB"><feGaussianBlur id="feGaussianBlur6185-18-50-8-1-38-53-50-62-66-0-6-83" stdDeviation="2.7000000000000002"/></filter><filter id="filter4303" height="1.3486" width="1.3522" y="-.17432" x="-.17609" color-interpolation-filters="sRGB"><feGaussianBlur id="feGaussianBlur4305" stdDeviation="2.8376424"/></filter><filter id="filter4544" height="1.468" width="1.4728" y="-.23402" x="-.23639" color-interpolation-filters="sRGB"><feGaussianBlur id="feGaussianBlur4546" stdDeviation="3.8094378"/></filter><filter id="filter6183-76-91-6-7-11-2-38-97-47-9-0-9-2" height="1.216" width="1.216" y="-0.108" x="-0.108" color-interpolation-filters="sRGB"><feGaussianBlur id="feGaussianBlur6185-18-50-8-1-38-53-50-62-66-0-6-83-6" stdDeviation="2.7000000000000002"/></filter></defs><g transform="translate(-535.26 -48.838)"><path id="path3768" d="m3222.8 886.54c542.98-70.543 1177 450.25 1482.2 751.54 216.13 213.38 103.33 397.31-13.256 481.09-266.72 191.65-0.6027 410.3 135.64 492.01 309.9 185.86 277.32 363.9 48.419 534.31-344.7 256.63-398.78 676.81 36.982 695.45 158.84 6.7969 250.28-101.59 351.45-239.23-257.7 855.28-947.34 757.04-1202.8 493.18-260.81-269.37-455.16-764.89-687.05-977.9z" fill-opacity=".50196" stroke="#885ad9" stroke-miterlimit="9" stroke-width="37" fill="#885ad9"/><path id="path3770" fill="#3056c4" d="m3307.7 908.65c381.32 73.368 754.86 174.01 1048.1 562.5 183.9 243.66 240.6 446.95-4.8077 596.15-302.11 183.68-117.12 266.47 38.462 365.38 521.01 331.25 344.89 712.9 139.42 923.08-82.609 84.504-89.538 209.49-9.6154 307.69 116.13 142.69 175.49 253.36 168.27 408.65-6.1517 132.37-174.98 170.79-341.35 144.23-153.83-24.557-266.44-273.74-322.12-423.08-111.29-298.5-281.94-559.93-524.04-750l-139.42-697.12z"/></g><g stroke-opacity=".50196" fill-rule="evenodd" transform="translate(-535.26 -48.838)" stroke="#fff" stroke-width=".88889px" fill="#fff"><path id="path4805-0-1-9-36-3-15-74-2-92-95-30-8-57" d="m1345.7 1785.6-3.4942-23.949-24.178-3.158 24.178-3.6351 2.9393-23.482 3.9753 23.482 23.142 3.6351-23.142 3.7226z" transform="matrix(-.78749 .81784 .81784 .78749 3403.3 -393.74)" filter="url(#filter4303)"/><path id="path4805-0-1-9-36-3-15-74-2-92-95-30-8-57-2" d="m1345.7 1785.6-3.4942-23.949-24.178-3.158 24.178-3.6351 2.9393-23.482 3.9753 23.482 23.142 3.6351-23.142 3.7226z" transform="matrix(-.78749 .81784 .81784 .78749 3148.4 -550.97)" filter="url(#filter4303)"/><path id="path4805-0-1-9-36-3-15-74-2-92-95-30-8-57-9" d="m1345.7 1785.6-3.4942-23.949-24.178-3.158 24.178-3.6351 2.9393-23.482 3.9753 23.482 23.142 3.6351-23.142 3.7226z" transform="matrix(-.78749 .81784 .81784 .78749 3117.3 -384.09)" filter="url(#filter4303)"/><path id="path4805-0-1-9-36-3-15-74-2-92-95-30-8-57-0" d="m1345.7 1785.6-3.4942-23.949-24.178-3.158 24.178-3.6351 2.9393-23.482 3.9753 23.482 23.142 3.6351-23.142 3.7226z" transform="matrix(-.78749 .81784 .81784 .78749 3108.8 -262.47)" filter="url(#filter4303)"/><path id="path4805-0-1-9-36-3-15-74-2-92-95-30-8-57-27" d="m1345.7 1785.6-3.4942-23.949-24.178-3.158 24.178-3.6351 2.9393-23.482 3.9753 23.482 23.142 3.6351-23.142 3.7226z" transform="matrix(-.78749 .81784 .81784 .78749 3250.2 -146.5)" filter="url(#filter4303)"/><path id="path4805-0-1-9-36-3-15-74-2-92-95-30-8-57-8" d="m1345.7 1785.6-3.4942-23.949-24.178-3.158 24.178-3.6351 2.9393-23.482 3.9753 23.482 23.142 3.6351-23.142 3.7226z" transform="matrix(-.78749 .81784 .81784 .78749 3946 221.19)" filter="url(#filter4303)"/><path id="path4805-0-1-9-36-3-15-74-2-92-95-30-8-57-6" d="m1345.7 1785.6-3.4942-23.949-24.178-3.158 24.178-3.6351 2.9393-23.482 3.9753 23.482 23.142 3.6351-23.142 3.7226z" transform="matrix(-.78749 .81784 .81784 .78749 3940.3 238.16)" filter="url(#filter4303)"/><path id="path4805-0-1-9-36-3-15-74-2-92-95-30-8-57-90" d="m1345.7 1785.6-3.4942-23.949-24.178-3.158 24.178-3.6351 2.9393-23.482 3.9753 23.482 23.142 3.6351-23.142 3.7226z" transform="matrix(-.78749 .81784 .81784 .78749 3991.3 9.0605)" filter="url(#filter4303)"/><path id="path4805-0-1-9-36-3-15-74-2-92-95-30-8-57-5" d="m1345.7 1785.6-3.4942-23.949-24.178-3.158 24.178-3.6351 2.9393-23.482 3.9753 23.482 23.142 3.6351-23.142 3.7226z" transform="matrix(-.78749 .81784 .81784 .78749 3445.4 -1065.7)" filter="url(#filter4303)"/><path id="path4805-0-1-9-36-3-15-74-2-92-95-30-8-57-4" d="m1345.7 1785.6-3.4942-23.949-24.178-3.158 24.178-3.6351 2.9393-23.482 3.9753 23.482 23.142 3.6351-23.142 3.7226z" transform="matrix(-.78749 .81784 .81784 .78749 3943.2 1338.4)" filter="url(#filter4303)"/><path id="path4805-0-1-9-36-3-15-74-2-92-95-30-8-57-68" d="m1345.7 1785.6-3.4942-23.949-24.178-3.158 24.178-3.6351 2.9393-23.482 3.9753 23.482 23.142 3.6351-23.142 3.7226z" transform="matrix(-.78749 .81784 .81784 .78749 3620.7 1259.2)" filter="url(#filter4303)"/><path id="path4805-0-1-9-36-3-15-74-2-92-95-30-8-57-64" d="m1345.7 1785.6-3.4942-23.949-24.178-3.158 24.178-3.6351 2.9393-23.482 3.9753 23.482 23.142 3.6351-23.142 3.7226z" transform="matrix(-.39375 .40892 .40892 .39375 3456.5 787.68)" filter="url(#filter4544)"/><path id="path4805-0-1-9-36-3-15-74-2-92-95-30-8-57-64-9" d="m1345.7 1785.6-3.4942-23.949-24.178-3.158 24.178-3.6351 2.9393-23.482 3.9753 23.482 23.142 3.6351-23.142 3.7226z" transform="matrix(-.39375 .40892 .40892 .39375 3497.5 941.82)" filter="url(#filter4544)"/><path id="path4805-0-1-9-36-3-15-74-2-92-95-30-8-57-64-7" d="m1345.7 1785.6-3.4942-23.949-24.178-3.158 24.178-3.6351 2.9393-23.482 3.9753 23.482 23.142 3.6351-23.142 3.7226z" transform="matrix(-.39375 .40892 .40892 .39375 3248.6 810.3)" filter="url(#filter4544)"/><path id="path4805-0-1-9-36-3-15-74-2-92-95-30-8-57-64-4" d="m1345.7 1785.6-3.4942-23.949-24.178-3.158 24.178-3.6351 2.9393-23.482 3.9753 23.482 23.142 3.6351-23.142 3.7226z" transform="matrix(-.39375 .40892 .40892 .39375 3323.6 782.02)" filter="url(#filter4544)"/><path id="path4805-0-1-9-36-3-15-74-2-92-95-30-8-57-64-8" d="m1345.7 1785.6-3.4942-23.949-24.178-3.158 24.178-3.6351 2.9393-23.482 3.9753 23.482 23.142 3.6351-23.142 3.7226z" transform="matrix(-.39375 .40892 .40892 .39375 4186.7 1057.5)" filter="url(#filter4544)"/><path id="path4805-0-1-9-36-3-15-74-2-92-95-30-8-57-64-3" d="m1345.7 1785.6-3.4942-23.949-24.178-3.158 24.178-3.6351 2.9393-23.482 3.9753 23.482 23.142 3.6351-23.142 3.7226z" transform="matrix(-.39375 .40892 .40892 .39375 4186.7 861.52)" filter="url(#filter4544)"/><path id="path4805-0-1-9-36-3-15-74-2-92-95-30-8-57-64-6" d="m1345.7 1785.6-3.4942-23.949-24.178-3.158 24.178-3.6351 2.9393-23.482 3.9753 23.482 23.142 3.6351-23.142 3.7226z" transform="matrix(-.39375 .40892 .40892 .39375 3962.7 873.52)" filter="url(#filter4544)"/><path id="path4805-0-1-9-36-3-15-74-2-92-95-30-8-57-64-2" d="m1345.7 1785.6-3.4942-23.949-24.178-3.158 24.178-3.6351 2.9393-23.482 3.9753 23.482 23.142 3.6351-23.142 3.7226z" transform="matrix(-.39375 .40892 .40892 .39375 3698.7 857.52)" filter="url(#filter4544)"/><path id="path4805-0-1-9-36-3-15-74-2-92-95-30-8-57-64-49" d="m1345.7 1785.6-3.4942-23.949-24.178-3.158 24.178-3.6351 2.9393-23.482 3.9753 23.482 23.142 3.6351-23.142 3.7226z" transform="matrix(-.39375 .40892 .40892 .39375 3494.7 1569.5)" filter="url(#filter4544)"/><path id="path4805-0-1-9-36-3-15-74-2-92-95-30-8-57-64-99" d="m1345.7 1785.6-3.4942-23.949-24.178-3.158 24.178-3.6351 2.9393-23.482 3.9753 23.482 23.142 3.6351-23.142 3.7226z" transform="matrix(-.39375 .40892 .40892 .39375 3586.7 1585.5)" filter="url(#filter4544)"/><path id="path4805-0-1-9-36-3-15-74-2-92-95-30-8-57-64-0" d="m1345.7 1785.6-3.4942-23.949-24.178-3.158 24.178-3.6351 2.9393-23.482 3.9753 23.482 23.142 3.6351-23.142 3.7226z" transform="matrix(-.39375 .40892 .40892 .39375 4114.7 1329.5)" filter="url(#filter4544)"/><path id="path4805-0-1-9-36-3-15-74-2-92-95-30-8-57-64-34" d="m1345.7 1785.6-3.4942-23.949-24.178-3.158 24.178-3.6351 2.9393-23.482 3.9753 23.482 23.142 3.6351-23.142 3.7226z" transform="matrix(-.39375 .40892 .40892 .39375 4042.7 1421.5)" filter="url(#filter4544)"/><path id="path4805-0-1-9-36-3-15-74-2-92-95-30-8-57-64-91" d="m1345.7 1785.6-3.4942-23.949-24.178-3.158 24.178-3.6351 2.9393-23.482 3.9753 23.482 23.142 3.6351-23.142 3.7226z" transform="matrix(-.39375 .40892 .40892 .39375 4218.7 1377.5)" filter="url(#filter4544)"/><path id="path4805-0-1-9-36-3-15-74-2-92-95-30-8-57-64-86" d="m1345.7 1785.6-3.4942-23.949-24.178-3.158 24.178-3.6351 2.9393-23.482 3.9753 23.482 23.142 3.6351-23.142 3.7226z" transform="matrix(-.39375 .40892 .40892 .39375 3858.7 2221.5)" filter="url(#filter4544)"/></g><g transform="translate(-535.26 -48.838)"><path id="path3795" fill="#3a3b6e" d="m3783.7 2492.8c52.053 143.12 106.4 285.77 127.4 435.1l-362.98 9.6154-69.712 146.63c179.1 56.034 365.22 84 550.48 115.38 69.634 8.8766 128.79-4.7083 153.85-91.346 28.118-218.75 10.742-437.5 2.4039-656.25l-151.44-225.96z"/><path id="path3774" d="m4180.3 2495.2c28.943 199.52 32.044 400 2.4039 598.56-12.621 84.547-73.029 120.03-173.08 105.77-146.16-20.832-360.58-54.287-540.87-112.98" stroke="#1a1c45" stroke-width="37" fill="none"/><path id="path3776" d="m3908.7 2932.7-322.12 2.4039" stroke="#1a1c45" stroke-width="37" fill="none"/><path id="path3778" fill="#1a1c45" d="m3815.5 2552.4-32.938 16.906c73.161 142.39 116.33 355.87 148.12 473.1 4.5931-117.34-38.817-341.38-115.18-490.01z"/><path id="path3784" d="m3797.7 2599.1c-36.403-32.311-64.422-112.68-47.729-176.06 32.16-122.12 91.54-212.45 259.62-331.73 91.039-64.607 111.04-1.3764 120.19 40.865 32.584 150.39 53.97 275.69 79.327 408.65-44.954-29.482-99.076-40.63-120.19-117.79-15.507 8.6728-30.94 17.382-55.288 21.635 63.422-267.8-235.11-59.324-235.92 154.43z" filter="url(#filter6183-76-91-6-7-11-2-38-97-47-9-0-9-2)" stroke="#5361ba" stroke-width="37" fill="#647dce"/><path id="path3786" filter="url(#filter6183-76-91-6-7-11-2-38-97-47-9-0-9)" fill="#5361ba" d="m4048.9 2424c41.483-20.64 71.132-53.395 83.289-94.338 6.3592 57.881-21.897 96.717-56.942 118.13z"/><path id="path3791" d="m2821.6 3167.6c-53.744 48.243-110.31 93.666-176.78 129.18 40.898 469.77 370.06 660.98 564.33 1060.7l-258.37 129.18-190.37-74.79c-177.61-189.05-364.57-697.9-353.55-1135.5 67.201-29.883 120.27-77.43 115.58-197.17z" stroke="#1a1c45" stroke-width="44" fill="#3a3b6e"/><path id="path3793" d="m3108.2 4180.3c46.07 62.904 83.712 130.41 125 201.92 24.463 42.372 5.3905 61.307-31.25 74.519-136.62 49.266-258.55 21.883-397.17 28.554-29.619-28.56-74.556-62.19-93.629-114.22 61.366 16.259 116.21 15.803 173.49 27.971z" stroke="#5361ba" stroke-width="44" fill="#647dce"/><path id="path4805-0-1-9-36-3-15-74-2-92-95-87-0-8" d="m1345.7 1785.6-3.4942-23.949-24.178-3.158 24.178-3.6351 2.9393-23.482 3.9753 23.482 23.142 3.6351-23.142 3.7226z" stroke-opacity=".50196" fill-rule="evenodd" transform="matrix(-1.5856 .029974 .029974 1.5856 6130.6 -470.41)" filter="url(#filter6183-76-91-6-7-11-2-38-97-47-9-0-9)" stroke="#fff" stroke-width=".88889px" fill="#fff"/><path id="path4805-0-1-9-36-3-15-74-2-92-95-87-4-4" d="m1345.7 1785.6-3.4942-23.949-24.178-3.158 24.178-3.6351 2.9393-23.482 3.9753 23.482 23.142 3.6351-23.142 3.7226z" stroke-opacity=".50196" fill-rule="evenodd" transform="matrix(-1.5856 .029974 .029974 1.5856 5919.1 -578.59)" filter="url(#filter6183-76-91-6-7-11-2-38-97-47-9-0-9)" stroke="#fff" stroke-width=".88889px" fill="#fff"/><path id="path4805-0-1-9-36-3-15-74-2-92-95-87-3-0" d="m1345.7 1785.6-3.4942-23.949-24.178-3.158 24.178-3.6351 2.9393-23.482 3.9753 23.482 23.142 3.6351-23.142 3.7226z" stroke-opacity=".50196" fill-rule="evenodd" transform="matrix(-1.5856 .029974 .029974 1.5856 5984 -496.85)" filter="url(#filter6183-76-91-6-7-11-2-38-97-47-9-0-9)" stroke="#fff" stroke-width=".88889px" fill="#fff"/></g><g transform="translate(-535.26 -48.838)"><path id="path3798" d="m2400.1 2701.9c-327.29-317.99-769.94-410.64-1196.6-312.76-363.66 83.421-497.46 340.97-421.34 687.19 45.351 206.3 248.13 344.08 76.782 449.57-224.84 138.41-224.7 295.13-97.279 454.03 272.52 339.83 117.13 397.16-78.29 414.95 159.3 135.1 319.39 152.95 520.13 41.961 189.23-104.63 363.44-103.96 523.53-21.564l330.72-1059.5z" fill-opacity=".50196" stroke="#885ad9" stroke-miterlimit="7" stroke-width="37" fill="#885ad9"/><path id="path3800" fill="#3056c4" d="m2325.3 2725.7c-242.2-184.2-625.69-301-972.27-193.77-254.3 78.677-414.6 287.53-302.56 557.53 114.38 275.66 28.509 457.31-129.18 554.13-146.1 89.702-116.14 194.66-44.194 268.56 98.859 101.55 154.56 204.94 156.38 326.36 1.4625 97.348 80.673 190.45 163.18 149.58 180.06-89.193 352.42-119.05 533.73-74.79l299.16-1026.7c-15.058-167.45-10.401-472.67 186.98-431.74z"/></g><g stroke-opacity=".50196" fill-rule="evenodd" transform="translate(-535.26 -48.838)" stroke="#fff" stroke-width=".88889px" fill="#fff"><path id="path4805-0-1-9-36-3-15-74-2-92-95-30-8-57-98" d="m1345.7 1785.6-3.4942-23.949-24.178-3.158 24.178-3.6351 2.9393-23.482 3.9753 23.482 23.142 3.6351-23.142 3.7226z" transform="matrix(-.78749 .81784 .81784 .78749 1369.3 444.64)" filter="url(#filter4303)"/><path id="path4805-0-1-9-36-3-15-74-2-92-95-30-8-57-51" d="m1345.7 1785.6-3.4942-23.949-24.178-3.158 24.178-3.6351 2.9393-23.482 3.9753 23.482 23.142 3.6351-23.142 3.7226z" transform="matrix(-.78749 .81784 .81784 .78749 1513.5 492.72)" filter="url(#filter4303)"/><path id="path4805-0-1-9-36-3-15-74-2-92-95-30-8-57-40" d="m1345.7 1785.6-3.4942-23.949-24.178-3.158 24.178-3.6351 2.9393-23.482 3.9753 23.482 23.142 3.6351-23.142 3.7226z" transform="matrix(-.78749 .81784 .81784 .78749 1649.3 622.83)" filter="url(#filter4303)"/><path id="path4805-0-1-9-36-3-15-74-2-92-95-30-8-57-21" d="m1345.7 1785.6-3.4942-23.949-24.178-3.158 24.178-3.6351 2.9393-23.482 3.9753 23.482 23.142 3.6351-23.142 3.7226z" transform="matrix(-.78749 .81784 .81784 .78749 1092.1 1612.8)" filter="url(#filter4303)"/><path id="path4805-0-1-9-36-3-15-74-2-92-95-30-8-57-903" d="m1345.7 1785.6-3.4942-23.949-24.178-3.158 24.178-3.6351 2.9393-23.482 3.9753 23.482 23.142 3.6351-23.142 3.7226z" transform="matrix(-.78749 .81784 .81784 .78749 831.9 1395)" filter="url(#filter4303)"/><path id="path4805-0-1-9-36-3-15-74-2-92-95-30-8-57-50" d="m1345.7 1785.6-3.4942-23.949-24.178-3.158 24.178-3.6351 2.9393-23.482 3.9753 23.482 23.142 3.6351-23.142 3.7226z" transform="matrix(-.78749 .81784 .81784 .78749 656.35 1593.4)" filter="url(#filter4303)"/><path id="path4805-0-1-9-36-3-15-74-2-92-95-30-8-57-7" d="m1345.7 1785.6-3.4942-23.949-24.178-3.158 24.178-3.6351 2.9393-23.482 3.9753 23.482 23.142 3.6351-23.142 3.7226z" transform="matrix(-.78749 .81784 .81784 .78749 877.15 1553.4)" filter="url(#filter4303)"/><path id="path4805-0-1-9-36-3-15-74-2-92-95-30-8-57-64-490" d="m1345.7 1785.6-3.4942-23.949-24.178-3.158 24.178-3.6351 2.9393-23.482 3.9753 23.482 23.142 3.6351-23.142 3.7226z" transform="matrix(-.39375 .40892 .40892 .39375 1388.9 2278.3)" filter="url(#filter4544)"/><path id="path4805-0-1-9-36-3-15-74-2-92-95-30-8-57-64-5" d="m1345.7 1785.6-3.4942-23.949-24.178-3.158 24.178-3.6351 2.9393-23.482 3.9753 23.482 23.142 3.6351-23.142 3.7226z" transform="matrix(-.39375 .40892 .40892 .39375 1270.1 2218.9)" filter="url(#filter4544)"/><path id="path4805-0-1-9-36-3-15-74-2-92-95-30-8-57-64-42" d="m1345.7 1785.6-3.4942-23.949-24.178-3.158 24.178-3.6351 2.9393-23.482 3.9753 23.482 23.142 3.6351-23.142 3.7226z" transform="matrix(-.39375 .40892 .40892 .39375 1462.5 2170.8)" filter="url(#filter4544)"/><path id="path4805-0-1-9-36-3-15-74-2-92-95-30-8-57-64-421" d="m1345.7 1785.6-3.4942-23.949-24.178-3.158 24.178-3.6351 2.9393-23.482 3.9753 23.482 23.142 3.6351-23.142 3.7226z" transform="matrix(-.39375 .40892 .40892 .39375 1739.7 1972.8)" filter="url(#filter4544)"/><path id="path4805-0-1-9-36-3-15-74-2-92-95-30-8-57-64-95" d="m1345.7 1785.6-3.4942-23.949-24.178-3.158 24.178-3.6351 2.9393-23.482 3.9753 23.482 23.142 3.6351-23.142 3.7226z" transform="matrix(-.39375 .40892 .40892 .39375 1751 2006.7)" filter="url(#filter4544)"/><path id="path4805-0-1-9-36-3-15-74-2-92-95-30-8-57-64-41" d="m1345.7 1785.6-3.4942-23.949-24.178-3.158 24.178-3.6351 2.9393-23.482 3.9753 23.482 23.142 3.6351-23.142 3.7226z" transform="matrix(-.39375 .40892 .40892 .39375 1666.1 1944.5)" filter="url(#filter4544)"/><path id="path4805-0-1-9-36-3-15-74-2-92-95-30-8-57-64-82" d="m1345.7 1785.6-3.4942-23.949-24.178-3.158 24.178-3.6351 2.9393-23.482 3.9753 23.482 23.142 3.6351-23.142 3.7226z" transform="matrix(-.39375 .40892 .40892 .39375 1739.7 1848.3)" filter="url(#filter4544)"/><path id="path4805-0-1-9-36-3-15-74-2-92-95-30-8-57-64-83" d="m1345.7 1785.6-3.4942-23.949-24.178-3.158 24.178-3.6351 2.9393-23.482 3.9753 23.482 23.142 3.6351-23.142 3.7226z" transform="matrix(-.39375 .40892 .40892 .39375 1784.9 1845.5)" filter="url(#filter4544)"/><path id="path4805-0-1-9-36-3-15-74-2-92-95-30-8-57-64-69" d="m1345.7 1785.6-3.4942-23.949-24.178-3.158 24.178-3.6351 2.9393-23.482 3.9753 23.482 23.142 3.6351-23.142 3.7226z" transform="matrix(-.39375 .40892 .40892 .39375 1810.4 1738)" filter="url(#filter4544)"/><path id="path4805-0-1-9-36-3-15-74-2-92-95-30-8-57-64-60" d="m1345.7 1785.6-3.4942-23.949-24.178-3.158 24.178-3.6351 2.9393-23.482 3.9753 23.482 23.142 3.6351-23.142 3.7226z" transform="matrix(-.39375 .40892 .40892 .39375 1804.7 1639)" filter="url(#filter4544)"/><path id="path4805-0-1-9-36-3-15-74-2-92-95-30-8-57-64-26" d="m1345.7 1785.6-3.4942-23.949-24.178-3.158 24.178-3.6351 2.9393-23.482 3.9753 23.482 23.142 3.6351-23.142 3.7226z" transform="matrix(-.39375 .40892 .40892 .39375 1711.4 1653.2)" filter="url(#filter4544)"/><path id="path4805-0-1-9-36-3-15-74-2-92-95-30-8-57-64-32" d="m1345.7 1785.6-3.4942-23.949-24.178-3.158 24.178-3.6351 2.9393-23.482 3.9753 23.482 23.142 3.6351-23.142 3.7226z" transform="matrix(-.39375 .40892 .40892 .39375 1705.7 1585.3)" filter="url(#filter4544)"/><path id="path4805-0-1-9-36-3-15-74-2-92-95-30-8-57-64-38" d="m1345.7 1785.6-3.4942-23.949-24.178-3.158 24.178-3.6351 2.9393-23.482 3.9753 23.482 23.142 3.6351-23.142 3.7226z" transform="matrix(-.39375 .40892 .40892 .39375 1751 1622.1)" filter="url(#filter4544)"/><path id="path4805-0-1-9-36-3-15-74-2-92-95-30-8-57-64-601" d="m1345.7 1785.6-3.4942-23.949-24.178-3.158 24.178-3.6351 2.9393-23.482 3.9753 23.482 23.142 3.6351-23.142 3.7226z" transform="matrix(-.39375 .40892 .40892 .39375 1708.5 1503.3)" filter="url(#filter4544)"/><path id="path4805-0-1-9-36-3-15-74-2-92-95-30-8-57-64-46" d="m1345.7 1785.6-3.4942-23.949-24.178-3.158 24.178-3.6351 2.9393-23.482 3.9753 23.482 23.142 3.6351-23.142 3.7226z" transform="matrix(-.39375 .40892 .40892 .39375 1612.4 1557)" filter="url(#filter4544)"/><path id="path4805-0-1-9-36-3-15-74-2-92-95-30-8-57-64-47" d="m1345.7 1785.6-3.4942-23.949-24.178-3.158 24.178-3.6351 2.9393-23.482 3.9753 23.482 23.142 3.6351-23.142 3.7226z" transform="matrix(-.39375 .40892 .40892 .39375 1066.5 1466.5)" filter="url(#filter4544)"/><path id="path4805-0-1-9-36-3-15-74-2-92-95-30-8-57-64-387" d="m1345.7 1785.6-3.4942-23.949-24.178-3.158 24.178-3.6351 2.9393-23.482 3.9753 23.482 23.142 3.6351-23.142 3.7226z" transform="matrix(-.39375 .40892 .40892 .39375 1335.2 1845.5)" filter="url(#filter4544)"/><path id="path4805-0-1-9-36-3-15-74-2-92-95-30-8-57-64-23" d="m1345.7 1785.6-3.4942-23.949-24.178-3.158 24.178-3.6351 2.9393-23.482 3.9753 23.482 23.142 3.6351-23.142 3.7226z" transform="matrix(-.39375 .40892 .40892 .39375 1374.8 1882.3)" filter="url(#filter4544)"/><path id="path4805-0-1-9-36-3-15-74-2-92-95-30-8-57-64-58" d="m1345.7 1785.6-3.4942-23.949-24.178-3.158 24.178-3.6351 2.9393-23.482 3.9753 23.482 23.142 3.6351-23.142 3.7226z" transform="matrix(-.39375 .40892 .40892 .39375 1646.3 2080.3)" filter="url(#filter4544)"/><path id="path4805-0-1-9-36-3-15-74-2-92-95-30-8-57-64-08" d="m1345.7 1785.6-3.4942-23.949-24.178-3.158 24.178-3.6351 2.9393-23.482 3.9753 23.482 23.142 3.6351-23.142 3.7226z" transform="matrix(-.39375 .40892 .40892 .39375 1601.1 1805.9)" filter="url(#filter4544)"/><path id="path4805-0-1-9-36-3-15-74-2-92-95-30-8-57-64-491" d="m1345.7 1785.6-3.4942-23.949-24.178-3.158 24.178-3.6351 2.9393-23.482 3.9753 23.482 23.142 3.6351-23.142 3.7226z" transform="matrix(-.39375 .40892 .40892 .39375 823.24 2682.7)" filter="url(#filter4544)"/><path id="path4805-0-1-9-36-3-15-74-2-92-95-30-8-57-64-422" d="m1345.7 1785.6-3.4942-23.949-24.178-3.158 24.178-3.6351 2.9393-23.482 3.9753 23.482 23.142 3.6351-23.142 3.7226z" transform="matrix(-.39375 .40892 .40892 .39375 959.01 2903.3)" filter="url(#filter4544)"/><path id="path4805-0-1-9-36-3-15-74-2-92-95-30-8-57-64-02" d="m1345.7 1785.6-3.4942-23.949-24.178-3.158 24.178-3.6351 2.9393-23.482 3.9753 23.482 23.142 3.6351-23.142 3.7226z" transform="matrix(-.39375 .40892 .40892 .39375 1227.7 2606.4)" filter="url(#filter4544)"/><path id="path4805-0-1-9-36-3-15-74-2-92-95-30-8-57-64-39" d="m1345.7 1785.6-3.4942-23.949-24.178-3.158 24.178-3.6351 2.9393-23.482 3.9753 23.482 23.142 3.6351-23.142 3.7226z" transform="matrix(-.39375 .40892 .40892 .39375 1029.7 2677.1)" filter="url(#filter4544)"/><path id="path4805-0-1-9-36-3-15-74-2-92-95-30-8-57-64-028" d="m1345.7 1785.6-3.4942-23.949-24.178-3.158 24.178-3.6351 2.9393-23.482 3.9753 23.482 23.142 3.6351-23.142 3.7226z" transform="matrix(-.39375 .40892 .40892 .39375 916.58 2770.4)" filter="url(#filter4544)"/><path id="path4805-0-1-9-36-3-15-74-2-92-95-30-8-57-64-1" d="m1345.7 1785.6-3.4942-23.949-24.178-3.158 24.178-3.6351 2.9393-23.482 3.9753 23.482 23.142 3.6351-23.142 3.7226z" transform="matrix(-.39375 .40892 .40892 .39375 1066.5 2852.4)" filter="url(#filter4544)"/><path id="path4805-0-1-9-36-3-15-74-2-92-95-30-8-57-64-20" d="m1345.7 1785.6-3.4942-23.949-24.178-3.158 24.178-3.6351 2.9393-23.482 3.9753 23.482 23.142 3.6351-23.142 3.7226z" transform="matrix(-.39375 .40892 .40892 .39375 1202.3 2705.3)" filter="url(#filter4544)"/><path id="path4805-0-1-9-36-3-15-74-2-92-95-30-8-57-64-837" d="m1345.7 1785.6-3.4942-23.949-24.178-3.158 24.178-3.6351 2.9393-23.482 3.9753 23.482 23.142 3.6351-23.142 3.7226z" transform="matrix(-.39375 .40892 .40892 .39375 1188.1 2631.8)" filter="url(#filter4544)"/><path id="path4805-0-1-9-36-3-15-74-2-92-95-30-8-57-64-48" d="m1345.7 1785.6-3.4942-23.949-24.178-3.158 24.178-3.6351 2.9393-23.482 3.9753 23.482 23.142 3.6351-23.142 3.7226z" transform="matrix(-.39375 .40892 .40892 .39375 1182.5 2827)" filter="url(#filter4544)"/><path id="path4805-0-1-9-36-3-15-74-2-92-95-30-8-57-64-78" d="m1345.7 1785.6-3.4942-23.949-24.178-3.158 24.178-3.6351 2.9393-23.482 3.9753 23.482 23.142 3.6351-23.142 3.7226z" transform="matrix(-.39375 .40892 .40892 .39375 1103.3 2713.8)" filter="url(#filter4544)"/><path id="path4805-0-1-9-36-3-15-74-2-92-95-30-8-57-64-66" d="m1345.7 1785.6-3.4942-23.949-24.178-3.158 24.178-3.6351 2.9393-23.482 3.9753 23.482 23.142 3.6351-23.142 3.7226z" transform="matrix(-.39375 .40892 .40892 .39375 967.49 2807.2)" filter="url(#filter4544)"/><path id="path4805-0-1-9-36-3-15-74-2-92-95-30-8-57-64-230" d="m1345.7 1785.6-3.4942-23.949-24.178-3.158 24.178-3.6351 2.9393-23.482 3.9753 23.482 23.142 3.6351-23.142 3.7226z" transform="matrix(-.39375 .40892 .40892 .39375 902.44 2863.7)" filter="url(#filter4544)"/><path id="path4805-0-1-9-36-3-15-74-2-92-95-30-8-57-64-72" d="m1345.7 1785.6-3.4942-23.949-24.178-3.158 24.178-3.6351 2.9393-23.482 3.9753 23.482 23.142 3.6351-23.142 3.7226z" transform="matrix(-.39375 .40892 .40892 .39375 1301.2 2728)" filter="url(#filter4544)"/></g><g transform="translate(-535.26 -48.838)"><path id="path3804" fill="#444784" d="m3389.4 1824.8-591.97 22.401c27.352 196.04 52.743 488.66 48.044 684.71l-30.596 78.19-401.15 540.53 601.72 152.98 197.17 3.3996c196.25-24.646 313.08-155.19 394.35-333.16 40.559-83.677 40.393-265.21 6.7991-431.74l-163.18-363.75c-80.101-95.462-83.012-219.87-61.192-353.55z"/><path id="path3765" d="m3389.4 1818c-12.837 117.85-25.656 234.34 47.594 353.55 75.856 123.46 164.18 276.51 178.77 398.98 24.323 153.6 38.805 280.08-8.7905 406.71-84.008 191.27-220.71 305.13-418.14 329.76h-145.6c-171.02-62.904-381.99-56.037-568.31-156.38" stroke="#1a1c45" stroke-width="37" fill="none"/><path id="path3802" d="m2822.1 2045.7c20.344 178.17 28.492 351.46 16.827 516.83" stroke="#1a1c45" stroke-width="37" fill="none"/></g><g transform="translate(-535.26 -48.838)"><path id="path3869" fill="#444784" d="m3110.6 3171.1-91.346 161.06 161.06 14.423 48.077-163.46z"/><path id="path3807" d="m3204.3 3293.7c-1.604 5.8561-3.184 11.702-4.7402 17.539-131.38 492.73-92.851 914.62 21.321 1216.8 30.81 81.55 48.771 182.13 83.52 254.38l-13.598 67.991h-462.77l-40.367-78.19c-104.35-368.07 31.17-976.89 246.04-1465.6 2.0346-4.6273 4.0763-9.2439 6.1249-13.849" stroke="#1a1c45" stroke-width="37" fill="#444784"/><path id="path3809" d="m2826.9 2581.7c-28.549 39.422-100.55 58.966-170.67 55.288-158.45-8.3089-324.65-25.391-435.1 146.63-68.666 106.95-58.746 258.08-105.77 362.98-44.741 99.811-118.16 154.63-211.54 185.1-174.65 381.03-261.05 773.58-198.66 1199.5 9.2555 43.685 48.11 51.598 78.47 69.776l350.96 14.423 57.692-413.46c-96.42-282.05-171.75-556.89-52.885-838.94 160.57-88.038 345.84-168.56 466.35-295.67" stroke="#1a1c45" stroke-width="37" fill="#444784"/><path id="path3811" d="m3201.9 4439.9c36.134 124.95 79.913 244.52 137.02 355.77 27.393 53.366 9.3379 85.114-33.654 91.346-151.14 21.91-396.83 11.95-444.71-4.8077-44.813-15.684-70.328-77.961-83.005-145.11 145.83 33.652 323.79 44.364 234.45-179.41 47.703 13.782 95.109 25.782 149.04 76.923-17.521-78.745 0.7736-141.57 40.865-194.71z" stroke="#5361ba" stroke-width="37" fill="#7b97f4"/><path id="path3813" d="m2189.9 4173.1c36.838 120.35 55.564 237.01 60.096 350.96 2.8814 72.437-18.762 92.002-64.904 100.96-130.89 25.414-264.06 23.078-394.23-2.4038-49.58-9.7058-80.144-47.741-86.978-100.96 124.85 37.219 398.93-9.537 288.9-146.63 32.051-8.0896 64.102-2.2796 96.154 16.827 10.708-79.252 32.47-158.5 100.96-218.75z" stroke="#5361ba" stroke-width="37" fill="#7b97f4"/><path id="path3815" fill="#050505" d="m2497.6 2629.8c29.297 45.214 0.1694 80.691-4.8077 120.19l-125 240.38c-14.075 39.053-56.668 55.382-91.346 64.904-25.115 129.37-103.35 140.7-185.1 144.23l52.885-144.23c15.017-89.744 35.545-179.49 69.712-269.23 72.692-88.515 153.94-162.76 283.65-156.25z"/><path id="path3817" style="color:#000000" d="m2379.8 3126.2c0 23.233-15.067 42.067-33.654 42.067-18.586 0-33.654-18.834-33.654-42.067s15.067-42.067 33.654-42.067c18.586 0 33.654 18.834 33.654 42.067z" fill-rule="evenodd" transform="matrix(.77387 .49399 -.48677 .92615 2045.8 -924.61)" fill="#050505"/><path id="path3819" style="color:#000000" d="m2417.1 3120.8c0 14.936-9.417 27.043-21.034 27.043s-21.034-12.108-21.034-27.043c0-14.936 9.4171-27.043 21.034-27.043s21.034 12.108 21.034 27.043z" fill-rule="evenodd" transform="matrix(.95963 .28127 -.28127 .95963 967.31 -541.93)" fill="#050505"/><path id="path3821" style="color:#000000" d="m2156.3 3277c0 23.565-15.606 42.668-34.856 42.668s-34.856-19.103-34.856-42.668 15.606-42.668 34.856-42.668 34.856 19.103 34.856 42.668z" fill-rule="evenodd" transform="matrix(.91220 .40976 -.40976 .91220 1531.5 -571.9)" fill="#050505"/><path id="path3823" style="color:#000000" d="m2038.5 3352.8c0 13.608-8.879 24.639-19.832 24.639s-19.832-11.031-19.832-24.639 8.879-24.639 19.832-24.639 19.832 11.031 19.832 24.639z" fill-rule="evenodd" transform="matrix(.94827 .31746 -.31746 .94827 1171.2 -462.59)" fill="#050505"/><path id="path3825" d="m2317.3 2758.4c-95.633 87.047-49.844 227.83 31.104 206.94z" stroke="#000" stroke-width="1px" fill="#fff"/><path id="path3809-1" d="m2656.2 2637c-158.45-8.3089-324.65-25.391-435.1 146.63-68.666 106.95-58.746 258.08-105.77 362.98-44.741 99.811-118.16 154.63-211.54 185.1" stroke="#1a1c45" stroke-width="37" fill="none"/><path id="path3807-7" fill="#1a1c45" d="m3186.4 3288.8c-1.615 5.8964-3.183 11.78-4.75 17.656l35.75 9.5625c1.5455-5.796 3.0946-11.622 4.6876-17.438 11.597-42.341 25.67-109.24 7.9986-150.76-11.662 35.4-31.928 98.052-43.686 140.98zm-163.5-3.5c-2.0594 4.6297-4.111 9.2549-6.1562 13.906l33.875 14.906c2.024-4.6032 4.0246-9.2 6.0625-13.781 16.288-36.617 41.44-90.554 53.563-121.3-38.358 19.738-70.882 69.26-87.344 106.27z"/></g><g transform="translate(-535.26 -48.838)"><path id="path3872" d="m2885.7 3210.2c-5.3031 2.2979-10.807 4.5439-16.515 6.7364-111.46 42.809-279.14 30.273-397.75-79.89-110.25-102.4-151.44-207.26-159.78-334.86-4.8432-74.152 45.377-121.81 137.68-122.38 99.749-0.6155 176.28 23.823 260.7 78.858" stroke="#1a1c45" stroke-width="37" fill="#444784"/><path id="path3874" d="m2733.2 2768c-128.22-18.706-226.88-15.51-54.087 188.7-245.57-77.999-278.06 16.704-50.481 140.62-199.49-56.468-137.59 62.845-51.683 103.37" stroke="#1a1c45" stroke-miterlimit="9" stroke-width="21" fill="none"/><path id="path3879" d="m2376.2 2688.7c71.247 47.11 138.44 73.034 214.35 93.604" stroke="#1a1c45" stroke-width="21" fill="none"/><path id="path3881" d="m2326.1 2750.3c110.81 69.738 227.55 138.28 330.61 186.98" stroke="#1a1c45" stroke-width="21" fill="none"/><path id="path3883" d="m2372 3001.9c59.492 33.615 138.53 68.249 197.17 79.89" stroke="#1a1c45" stroke-width="21" fill="none"/><path id="path3885" d="m2701.8 2732.5c40.632 23.978 82.721 50.699 104.96 93.488-33.85-35.448-76.15-51.247-127.91-54.393z" stroke="#1a1c45" stroke-miterlimit="24" fill="#1a1c45"/><path id="path3872-4" fill="#1a1c45" d="m2951.8 2936.9c42.521 34.009 40.272 109.48 32.661 149.75-7.6109 40.271-36.526 76.45-106.09 106.59-5.0538 2.1898-10.305 4.3342-15.781 6.4374l13.25 34.563c5.9406-2.2818 11.698-4.6254 17.25-7.0313 76.428-33.116 117.58-79.884 127.75-133.69 10.168-53.804-15.666-134.82-69.036-156.63z"/></g><g transform="translate(-535.26 -48.838)"><path id="path3910" d="m2838.9 2512c-6.5341 29.686-34.202 72.494-57.692 88.942 105.53 19.325 198.89 99.421 275.74 188.5 72.226 83.715 117.97 198.67 207.43 252.52 93.206 56.102 205.97 53.425 298.08-23.334 145.58-121.32 94.912-337.35 46.79-495.02-61.464 130.96-250.15 190.12-412.17 120.6-92.649-39.749-211.89-176.92-358.17-132.21z" stroke="#786bc2" stroke-width="37" fill="#050505"/><path id="path3912" fill="#fff" d="m3389.4 2715.5c-94.561 81.614 51.973 224.47 117.28 71.391 52.071 89.002 23.032 191.26-86.689 215.87-54.754 12.283-161.59-22.661-177.07-123.88-14.772-96.568 38.771-170.8 146.47-163.38z"/></g><g transform="translate(-535.26 -48.838)"><path id="path3938" fill="#444784" d="m2807.7 1858.2 389.42 57.692 192.31-43.269c88.942-17.288 177.88-4.6832 266.83 2.4038l83.257-56.98c-133.59 10.082-150.43-61.283-147.88-146.18 69.858 32.741 139.65 57.412 209.07 35.695 22.097-62.325 27.124-130.34 20.397-202.27l-33.996-8.4989c-4.8027-54.348-1.3332-110.07-23.797-161.48l-222.44-229.51-716.35-86.538c-135.58 276.23-124.6 556.31-16.827 838.94z"/><path id="path3936" d="m3751.4 1716-50.993 103.69c-86.688-1.9903-114.87-58.205-108.79-146.18 52.068 34.415 105.45 46.586 159.78 42.494z" stroke="#000" stroke-width="1px" fill="#fff"/><path id="path3932" d="m3702.1 1812.1 48.444-95.188" stroke="#b9dce6" stroke-width="21" fill="none"/><path id="path3934" d="m3597.6 1741.5c42.5 26.386 95.392 34.899 124.08 27.196" stroke="#b9dce6" stroke-width="17" fill="none"/><path id="path3915" fill="#1a1c45" d="m3692.1 1390.5-34.5 13.406c22.675 58.39 69.326 101.81 136.54 114.52 7.4405 1.4077 13.192 1.901 13.414 11.034 1.2805 52.829-2.1262 102.02-16.206 150.8-2.6156 9.0621-6.0728 12.893-16.528 17.185-16.73 6.8668-45.267 6.1014-70.746 2.6385-36.458-4.9552-74.723-20.809-105.84-41.312l-18.031-12.462-2.375 16.312c-9.4653 64.487 10.103 121.12 42.575 145.15 19.788 14.641 46.641 17.194 72.175 17.626-14.08 11.922-29.187 23.24-43.156 32.562-114.44-18.976-232.11-23.77-329.69 17.344-98.247 41.395-257.69 21.102-327.6-14.183 43.117 53.953 232.95 94.201 341.95 48.277 88.543-37.307 202.96-33.292 316.62-13.812 4.501 0.7755 9.2797-0.1916 13.125-2.6562 29.372-18.875 66.213-43.265 87.844-72.844l16.546-22.625c-18.249 3.1549-38.118 3.937-51.046 5.25-25.361 2.5758-60.562-0.3851-81.75-16.062-23.178-17.15-38.029-47.481-34.219-97.156 30.428 17.662 65.517 29.607 100.03 35.656 30.943 5.4236 70.424 4.3064 95.349-1.7371 12.648-3.0667 21.972-12.926 24.107-18.318 26.99-68.186 26.737-131.8 23.013-202.6-0.5172-9.8318-8.7163-17.237-17.719-17.625-72.281-3.1122-111.54-36.841-133.88-94.368z"/><path id="path3928" d="m3716.3 1605.2c-2.6753 40.524-42.617 39.186-57.091 0.6009 20.832 13.007 37.861 13.636 57.091-0.6009z" stroke="#1a1c45" stroke-miterlimit="24" fill="#1a1c45"/><path id="path3930" d="m3783.1 1567.3c15.621-0.1455 23.278-4.2041 30.048-18.029 9.1119 23.441-15.218 42.011-30.048 18.029z" stroke="#1a1c45" stroke-miterlimit="24" fill="#1a1c45"/></g><g transform="translate(-535.26 -48.838)" stroke="#000" stroke-miterlimit="24"><path id="path4054" d="m2972.4 1266.8c-65.381 37.288-142.66 50.084-213.94 30.048 57.61 31.721 149.76 33.908 217.55 1.2019z"/><path id="path4056" d="m2972.1 1320c-51.448 35.804-112.91 52.705-169.98 52.693 55.822 11.986 125.17 3.9071 174.23-31.446z"/><path id="path4058" d="m2981.4 1368.4c-36.716 29.668-78.04 47.05-121.53 58.642 47.939-0.7934 88.282-9.369 128.33-36.545z"/></g><g transform="translate(-535.26 -48.838)"><path id="path3965" fill="url(#linearGradient4025)" d="m3685.1 1421.9 79.327-92.548c21.106 56.659 28.383 114.37 18.029 158.65-36.694-9.3099-73.194-19.2-97.356-66.106z"/><path id="path3963" clip-path="url(#clipPath3999)" fill="#fff" d="m2932.1 1199.3c188.29-34.594 384.29 38.737 513.33 144.48 33.194 92.921 42.932 185.84 49.294 278.76-148.97 23.664-294.05-14.984-438.54-62.892-100.63-112.04-122.33-234.83-124.08-360.35z"/><path id="path3957" style="color:#000000" d="m3449.5 1458.5c0 130.44-62.422 236.18-139.42 236.18-77.001 0-139.42-105.74-139.42-236.18s62.422-236.18 139.42-236.18c77.001 0 139.42 105.74 139.42 236.18z" clip-path="url(#clipPath3995)" fill-rule="evenodd" transform="matrix(1.0431 0 0 1.0509 -129.46 -52.591)" fill="url(#linearGradient4027)"/><path id="path3959" style="color:#000000" d="m3432.7 1518.6c0 104.55-42.78 189.3-95.553 189.3-52.772 0-95.553-84.754-95.553-189.3s42.78-189.3 95.553-189.3c52.772 0 95.553 84.754 95.553 189.3z" clip-path="url(#clipPath3991)" fill-rule="evenodd" transform="matrix(.96826 .024977 -.024904 .97110 153.94 -61.698)"/><path id="path3961" d="m3742 1361.5c27.334 47.84 31.345 91.872 20.493 126.7l-83.36-56.664z"/><path id="path3967" clip-path="url(#clipPath3987)" fill="#919de9" d="m3413.5 1317.3-69.712-175.48-318.51-74.519-46.875 126.2c161.58-11.678 305.56 32.935 435.1 123.8z"/><path id="path4029" style="color:#000000" d="m3290.9 1409.9c0 45.802-13.184 82.933-29.447 82.933s-29.447-37.13-29.447-82.933c0-45.802 13.184-82.933 29.447-82.933s29.447 37.13 29.447 82.933z" fill-rule="evenodd" transform="matrix(1.1731 .26089 -.35570 .96684 -42.534 -808.94)" fill="#fff"/><path id="path4031" style="color:#000000" d="m3375 1480.2c0 19.582-6.9956 35.457-15.625 35.457s-15.625-15.874-15.625-35.457c0-19.582 6.9956-35.457 15.625-35.457s15.625 15.874 15.625 35.457z" fill-rule="evenodd" transform="matrix(.94593 .32437 -.32437 .94593 620.9 -1010.8)" fill="#fff"/><path id="path4033" d="m3764.3 1328.5c13.617 50.497 28.544 100.25 20.397 163.18" stroke="#1a1c45" stroke-width="29" fill="none"/><path id="path3915-9" fill="#1a1c45" d="m3692.1 1390.5-34.5 13.406c22.675 58.39 69.326 101.81 136.54 114.52 7.4405 1.4077 13.192 1.901 13.414 11.034l36.144-26.97c-0.5172-9.8318-8.7163-17.237-17.719-17.625-72.281-3.1122-111.54-36.841-133.88-94.368z"/></g><g transform="translate(-535.26 -48.838)"><path id="path4061" stroke-linejoin="round" d="m3069.8 937.54 426.64-73.09c-17.862-56.56-33.352-113.63-62.892-166.58-20.349-36.472-52.12-43.826-58.703-10.199-7.5272 38.456-26.424 22.013-46.683-13.598-28.89-50.781-42.661-93.475-67.991-139.38-39.103-70.866-86.593-46.708-84.989 18.698 1.8825 76.732 6.5035 153 3.3996 229.47-3.0101 74.161-31.279 58.074-49.294 47.594-40.063-23.307-59.844-5.0202-64.592 37.395z" stroke="#786bc2" stroke-width="37" fill="#050505"/></g><g transform="translate(-535.26 -48.838)" stroke="#1a1c45"><path id="path4063" d="m3601.8 962.95c24.87-261.13 39.268-546.16 69.591-823.52 8.3966-76.805-15.078-109.71-46.377-9.6154-81.42 260.39-166.28 518.02-257.21 769.23z" stroke-width="37" fill="#444784"/><path id="path4065" d="m3607 173.08c18.83 33.291 37.66 42.052 56.49 54.087" stroke-width="21" fill="none"/><path id="path4067" d="m3579.3 264.42c16.496 37.451 43.118 60.148 73.317 64.904" stroke-width="21" fill="none"/><path id="path4069" d="m3555.3 348.56c30.048 57.815 62.5 74.012 91.346 86.538" stroke-width="21" fill="none"/><path id="path4071" d="m3476 593.75c29.532 79.1 93.676 135.29 144.23 137.02" stroke-width="21" fill="none"/><path id="path4073" d="m3431.5 723.56c29.832 86.328 107.52 136.98 179.09 141.83" stroke-width="21" fill="none"/><path id="path3877" d="m3511.4 477.89c36.751 67.888 77.053 93.093 120.77 103.89" stroke-width="21" fill="none"/></g><g transform="translate(-535.26 -48.838)" stroke="#885ad9" stroke-miterlimit="7" stroke-width="37" fill="#3056c4"><path id="path4076" d="m2746 1351.9c8.2142 127.34 94.793 299.37 95.335 455.83 0.4839 139.73-3.2531 308.8-19.231 447.12-140.36-278.36-329.58-833.17-112.98-1134.6"/><path id="path4078" d="m2851 1033.7c169.87 89.955 339.55 118.04 509.62 137.02 326.02 36.38 327.56 194.46 228.37 295.67 223.53-53.605 272.75-234.53 153.85-437.5-154.9-264.43-645.78-223.18-913.46-33.654z"/></g><g transform="translate(-535.26 -48.838)"><path id="path4099" fill="#444784" d="m2910 1105.8-161.48 181.88 22.097 47.594 8.4989 90.088c-91.051-125.87-114.34-285.62-90.088-469.14 18.102-43.286 27.501-105.85 88.388-54.393 58.273 59.032 109.28 122.69 132.58 203.97z"/><path id="path4091" fill="#1a1c45" d="m2736.8 863.91c-21.046 1.4916-40.179 18.142-51.875 46-40.185 95.715-39.817 191.8-18.969 280.81 20.351 86.892 77.994 221.53 118.5 243.11-21.994-39.724-63.396-170.12-82.468-251.55-19.537-83.416-19.692-170.52 17.062-258.06 8.7181-20.765 15.355-23.053 20.344-23.406 4.9885-0.35356 14.434 3.7472 23.125 11.688 61.104 55.829 121.33 142.92 150.69 196.2-5.4889-60.897-60.036-163.5-125.73-223.51-12.767-11.665-29.642-22.773-50.688-21.281z"/><path id="path4093" d="m2758.4 1002.4c-47.39 62.578-29.502 158.76 9.6155 210.34-18.934-60.73-38.494-138.09-9.6155-210.34z" stroke="#1a1c45" stroke-miterlimit="24" fill="#1a1c45"/></g><g transform="translate(-535.26 -48.838)" stroke="#000" stroke-miterlimit="24"><path id="path4102" d="m3457.9 1359.4c-93.19-81.409-273.8-150.72-435.1-152.64-44.069-0.5251-88.101 31.301-132.21 32.452-64.587 1.6847-107.55-26.163-138.22-68.51 43.511 27.801 85.985 43.019 135.82 32.452 37.962-8.05 85.74-31.721 128.61-34.856 171.65-12.554 375.55 86.822 441.11 191.11z"/><path id="path4104" d="m2930.4 1199.3c-45.516-8.7603-110.64-64.171-121.53-115.58 35.869 45.921 90.488 94.87 166.58 101.14z"/><path id="path4106" d="m2908.3 1011.5c35.868 56.016 88.49 125.45 158.08 164.03l-39.095 4.2494c-53.156-29.474-108.02-108.9-118.98-168.28z"/></g><g stroke-opacity=".50196" fill-rule="evenodd" transform="translate(-535.26 -48.838)" stroke="#fff" stroke-width=".88889px" fill="#fff"><path id="path4805-0-1-9-36-3-15-74-2-92-95-87" d="m1345.7 1785.6-3.4942-23.949-24.178-3.158 24.178-3.6351 2.9393-23.482 3.9753 23.482 23.142 3.6351-23.142 3.7226z" transform="matrix(-1.5856 .029974 .029974 1.5856 5707.5 46.414)" filter="url(#filter6183-76-91-6-7-11-2-38-97-47-9-0-9)"/><path id="path4805-0-1-9-36-3-15-74-2-92-95-87-1" d="m1345.7 1785.6-3.4942-23.949-24.178-3.158 24.178-3.6351 2.9393-23.482 3.9753 23.482 23.142 3.6351-23.142 3.7226z" transform="matrix(-1.5856 .029974 .029974 1.5856 5753.2 63.241)" filter="url(#filter6183-76-91-6-7-11-2-38-97-47-9-0-9)"/><path id="path4805-0-1-9-36-3-15-74-2-92-95-87-5" d="m1345.7 1785.6-3.4942-23.949-24.178-3.158 24.178-3.6351 2.9393-23.482 3.9753 23.482 23.142 3.6351-23.142 3.7226z" transform="matrix(-1.5856 .029974 .029974 1.5856 5547.7 -31.495)" filter="url(#filter6183-76-91-6-7-11-2-38-97-47-9-0-9)"/><path id="path4805-0-1-9-36-3-15-74-2-92-95-87-2" d="m1345.7 1785.6-3.4942-23.949-24.178-3.158 24.178-3.6351 2.9393-23.482 3.9753 23.482 23.142 3.6351-23.142 3.7226z" transform="matrix(-1.5856 .029974 .029974 1.5856 5530.7 -21.296)" filter="url(#filter6183-76-91-6-7-11-2-38-97-47-9-0-9)"/><path id="path4805-0-1-9-36-3-15-74-2-92-95-87-8" d="m1345.7 1785.6-3.4942-23.949-24.178-3.158 24.178-3.6351 2.9393-23.482 3.9753 23.482 23.142 3.6351-23.142 3.7226z" transform="matrix(-1.5856 .029974 .029974 1.5856 5078.5 1705.7)" filter="url(#filter6183-76-91-6-7-11-2-38-97-47-9-0-9)"/><path id="path4805-0-1-9-36-3-15-74-2-92-95-87-29" d="m1345.7 1785.6-3.4942-23.949-24.178-3.158 24.178-3.6351 2.9393-23.482 3.9753 23.482 23.142 3.6351-23.142 3.7226z" transform="matrix(-1.5856 .029974 .029974 1.5856 5078.5 1749.9)" filter="url(#filter6183-76-91-6-7-11-2-38-97-47-9-0-9)"/><path id="path4805-0-1-9-36-3-15-74-2-92-95-87-86" d="m1345.7 1785.6-3.4942-23.949-24.178-3.158 24.178-3.6351 2.9393-23.482 3.9753 23.482 23.142 3.6351-23.142 3.7226z" transform="matrix(-1.5856 .029974 .029974 1.5856 5245.1 1872.3)" filter="url(#filter6183-76-91-6-7-11-2-38-97-47-9-0-9)"/><path id="path4805-0-1-9-36-3-15-74-2-92-95-87-23" d="m1345.7 1785.6-3.4942-23.949-24.178-3.158 24.178-3.6351 2.9393-23.482 3.9753 23.482 23.142 3.6351-23.142 3.7226z" transform="matrix(-1.5856 .029974 .029974 1.5856 4136.9 1709.1)" filter="url(#filter6183-76-91-6-7-11-2-38-97-47-9-0-9)"/><path id="path4805-0-1-9-36-3-15-74-2-92-95-87-7" d="m1345.7 1785.6-3.4942-23.949-24.178-3.158 24.178-3.6351 2.9393-23.482 3.9753 23.482 23.142 3.6351-23.142 3.7226z" transform="matrix(-1.5856 .029974 .029974 1.5856 4058.7 1685.3)" filter="url(#filter6183-76-91-6-7-11-2-38-97-47-9-0-9)"/><path id="path4805-0-1-9-36-3-15-74-2-92-95-87-27" d="m1345.7 1785.6-3.4942-23.949-24.178-3.158 24.178-3.6351 2.9393-23.482 3.9753 23.482 23.142 3.6351-23.142 3.7226z" transform="matrix(-1.5856 .029974 .029974 1.5856 4276.2 1562.9)" filter="url(#filter6183-76-91-6-7-11-2-38-97-47-9-0-9)"/></g></svg>