<?xml version="1.0" encoding="UTF-8"?><svg xmlns="http://www.w3.org/2000/svg" xmlns:xlink="http://www.w3.org/1999/xlink" version="1.1" viewBox="75 142.2 1145.1 1145.1" width="1145.1" height="1145.1"><path id="path7431" d="m874 573.3l48.1-14.8 64-7.8 74.2 20.5 51.3 35 48.8 62.2 4.2 28.6-43.5-40.3-34.3-12.7 11.7 22.3 24 44.9 19.8 65.1 12.4 65.4 10.6 94 14.5 78.5 21.6 47.7-30.4-35.4-37.8-67.9-259.2-385.3z" fill="#662E8A"/><path id="path7429" d="m842.2 589.2l41-18.4c213.5-25.4 234.8 220 240.1 252.1 8.9 54.8 7.8 111.3 10.6 166.5l6.7 40.7 19.4 58 27.2 51.3 11.3 15.9-23 0.7-40-33.9-61.5-129-31-304.2-97.6-80.6-120.9-2.1 17.7-17z" fill="#0193CF"/><path id="path7427" d="m846.4 586.4c57-5 101.8-1.5 135.1 16.5 133.1 71.6 117.6 298.6 118.6 332 5 163.9 62.2 203 84.7 217.6-33.8 9-86.9-21-105-43.5l-25.5-206.8-60.8-195.5-161.2-56.7s-71.4 8.5-75 10.6c-3.5 2.1 50.2-53.7 50.2-53.7l38.9-20.5z" fill="#7AC240"/><path id="path7425" d="m761.5 652.9c49.7-31.5 92-42.3 125.6-43.9 60.4-2.8 94.5 27.6 108.3 44 78.2 87.4 68.3 255.6 72.2 323.8 5.2 90.3 17.8 122.9 32.5 153.5l-64-72.5-31-23.5-16-138-100.6-194.4-64-12-74.5 24.5-22.5-16 34-45.5z" fill="#F5EB7E"/><path id="path7423" d="m1066.5 1098.4c-21.8-58.5-31.1-126-33-158.5-5.2-90.1-27.3-275.2-142.1-297.1-41.5-7.9-81.7-4.3-155.4 62.6l16.5 11.5 35-19 38.5 1.5 41 16 42.5 56 26 69 10 83 1.5 51.5 21-46 4.5 81 18 74.5 33 69.5 16.5 18-7-56-1.5-63.5 35 46z" fill="#F67634"/><path id="path7404" d="m748.5 712.6c38.2-32.6 71.7-40.9 102.9-36.1 84.2 13 138.5 120.9 150.6 202.6 21.8 147.5 14.2 118.8 25.8 160.7l0.7 53.9 12 81.3-26.9-40-20.5-48.4-15.9-70-7.8-87-19.1 43.5-3.5-36.8 1.1-27.9-7.8-52-20.5-60.1-21.2-45.3-33.6-37.8-42.8-16.2-51.3 9.5-22.2 6.1z" fill="#F13E32"/><path id="path7388" d="m433 911.4l3 55.5-2.5 59.5-7 70.5-18 88.5-1.5 26 5.5 10 19 7.5 211 5-69.5-298 46.5 2 40.5 96.5 10 68.5 0.5 51-7 46 7.5 13c-7.3 7.3 15.8-0.4 23.8 6.3l41.3-4 19.5 17.3 11.5-133.5-63.5-172-39.6-21.6-63 16.5-168-10.5z" fill="#91BEE7"/><path id="path7380" d="m207.9 422.7l-1.4 23.3-3.5 43.1 3.9 24.4-23.7 4.6-2.1 12.7 8.8 31.8 19.4 21.2 43.8 35 47.4 15.6 55.9 2.8 37.8-3.2-2.5 18.4-17.7 63.6-2.5 48.1 4.9 52.3 16.3 46.3 23.7 31.8 45.8 32.4 48.5 15.3 4.5 27 4.8 41.5 1 82-2.8 52.8-12.3 82.5-1.3 16.3 5.8 13 6.8 8.8 14.5 3.5 28.5 3.8 37.5 1 30.3-4 8-10.8 6.5-10.5-0.5-17 1.5-63.3-4.5-57.5-8-46.3-8.8-44-19.2-56.6-8.3-16.5 32.8-9.3 37-14 48 96.8 17 44 9 53.5 6.5 39.5-6.5 43-2.7 28.5c-13 2.2 2.5 12.4 2.3 18.1l15.2 5.8 27.6 0.8 32.1-2.6 39.4-3.9 8.5-2.3 6-9.8 2.8-7.5 2.3-13-12.3-76.3-17.5-54.3-19.5-58.3-25.3-59.8-6.5-12.8-12.5-3.8-17.3-3.5 9-54 5-37 4.3-52-7-37.8 1.5-20.8-7.5-11.5-10.8-7-6-11.3-28.8-23-31.5-13.8-41.5-6.5-45.8 11.5-18.3 2.3 6-232 14.5-22.5 23-59 4-52.5-7-40-16-38-9.5-9-12-1.5-14 7.5-28.5 31.5-309.2 91.1-27.1 61.3z" fill="#9DD9F8"/><path id="path7274" d="m972.5 892.9c-5.3 38.5-14.4 70.8-26 92.3 2.9-26.3 3.4-69.1-4.6-112-20-107.3-80-224.7-192.4-156.7" stroke="#0193CF" stroke-miterlimit="8" stroke-width="10" fill="none"/><path id="path7402" d="m971.2 893.3l-0.4 40.7 16.6-4.9-0.7-38.9-15.5 3.1z" fill="#F13E32"/><path id="path7272" d="m732.4 697.7c14-19.7 29.5-38.4 46.6-55.5 18.1-18 38.1-34.3 60-47.6 22-13.4 45.8-23.8 70.8-30.1 25.4-6.5 51.9-8.7 78-6.2 25.7 2.4 51 9.4 74.3 20.6 22.7 10.9 43.6 25.8 60.8 44.3 15.3 16.5 27.7 35.8 35 57.1-17.8-18.5-40.1-31.7-64.6-39.2-10.6-3.2-21.5-5.4-32.5-6.5 10.5 6.6 19.7 14.8 27.4 24.6 7.8 9.9 14 21 19.3 32.4 10.6 23.2 17.6 48 23.5 72.8 6 25.3 10.9 50.8 15.6 76.3 2.3 12.7 4.8 25.4 6.9 38.2 2.1 12.5 4 25.1 5.8 37.7 2.4 16.1 4.8 32.3 7.6 48.4 3.7 21.9 7.9 43.9 14.3 65.2-7.9-9.2-15.2-19-21.3-29.5-6.2-10.6-11.2-21.9-16.2-33.1-4.7-10.5-9.6-20.9-14.6-31.2-2.4 25.9-1.2 52.1 3.1 77.8 3.8 22.6 9.9 44.8 18.2 66.2 4.7 11.9 10 23.6 16.2 34.8 6.1 11.1 12.9 21.8 21 31.6 1 1.2 2 2.4 3 3.5-12.6 0.7-25.3 1-37.8-1.2-12.6-2.2-24.6-6.9-35.5-13.4-21.6-12.9-39.2-31.7-54.9-51.1-13-16.2-25-33.3-36.1-50.8-0.7 24.7-0.9 49.5 0.4 74.2 0.9 15.8 2.4 31.6 6 47-14.4-21.5-26.2-44.6-34.7-69-8.6-24.5-13.9-50-17.1-75.7s-4.5-51.6-5.1-77.4c-0.6-25.2-0.4-50.4-1.7-75.6-0.3-6.1-0.7-12.3-1.3-18.4-0.5-5.5-0.9-11-2-16.4-1.1 5.3-1.6 10.7-2.2 16.1-0.6 6.1-1.1 12.2-1.6 18.3-0.8 12.5-1.3 25-1.5 37.4-0.4 25.6 0.2 51.3 1.7 76.9 1.6 26 4.4 52 9.9 77.5 5.5 25.4 13.7 50.2 25.1 73.6 11.3 23.3 25.7 45 41.9 65.2 2.6 3.3 5.3 6.5 8 9.6-0.9-5.8-1.5-11.6-2.6-17.3-1.2-5.7-2.9-11.3-4.5-16.9-3.3-11.5-5.4-23.3-6.7-35.2-2.2-20.4-2.6-41.1-2.6-61.6 14.7 20.7 30.6 40.9 49.4 58 9.3 8.5 19.3 16.2 30.3 22.3 11 6.2 23 10.5 35.4 12.7 10.4 1.8 21.1 2.1 31.6 1.8 10.8-0.4 21.6-1.2 32.3-2-4.9-3.4-9.5-7.3-13.6-11.6-4.3-4.5-8.2-9.3-11.8-14.3-7.4-10.2-13.7-21.2-19.3-32.6-11.3-22.8-19.5-47.1-25-71.9-3.5-15.9-5.8-32.1-6.7-48.3 5.1 11.1 10.5 22.1 17.1 32.4 6.7 10.4 14.4 20.2 22.7 29.4 12.9 14.4 26.8 28.2 42 40.3-6.8-9-13.5-18.3-18.9-28.3-5.6-10.4-9.2-21.9-12.3-33.3-6.8-24.7-11-50-15-75.3-3.9-25.1-7.2-50.3-11.7-75.3-4.7-25.5-9.2-51.1-14.5-76.5-5.2-25.3-11-50.6-19.1-75.2-7.7-23.3-17.5-46.6-32.9-65.9 24 8.2 45.2 22.6 61.5 41.9 7.1 8.4 13.3 17.5 18.5 27.3-0.8-25.7-8.4-50.8-21.3-73-12.7-21.8-30.2-40.7-50.3-55.9-20.5-15.5-43.7-27.3-68.2-34.9-24.8-7.7-50.9-11.2-76.8-10.4-26.1 0.9-51.9 6.1-76.4 15-24.1 8.8-46.8 21.2-67.6 36.1-20.6 14.8-39.5 32-56.5 50.7-12.3 13.5-23.6 27.8-34.1 42.6 2.5 1.9 5.2 3.8 7.9 5.8z" fill="#0193CF"/><path id="path7268" d="m562.5 710.6c20.4-12 42-22.7 65.3-27.6 24.2-5.2 50-4.9 73.3 4.2 23.4 9.2 42.2 26.8 54.3 48.6 12.6 22.6 18.1 48.5 19.1 74.2 0.5 12.7-0.1 25.5-1.5 38.1-1.4 12.2-3.7 24.3-6 36.3-2.2 11.6-4.8 23.2-7.3 34.8-2.5 11.4-5.4 23.4-3.8 35.1 0.6 4.9 2.1 10.2 4.9 14.3 0.3-2.4 0.4-4.8 0.6-7.2 0.3-2.7 0.6-5.4 1-8.1 0.9-5.6 2.2-11.2 3.5-16.8 2.7-11.5 5.3-22.9 7.7-34.4 2.6-12.2 4.9-24.5 7-36.8 4.3-25 5.6-50.7 2.2-75.9-3.4-25.1-11.6-49.9-26.4-70.7-14.2-19.9-34.2-35.1-57.4-42.9-23.5-7.8-48.8-7.8-72.8-2.7-23.5 4.9-45.3 15.3-65.9 27.2-0.9 0.5-1.9 1.1-2.8 1.7 1.7 2.9 3.3 5.7 5 8.6z" fill="#6AAADD"/><g id="g7252" transform="matrix(.86332 -.10713 .26616 1.1729 -151.29 -67.301)"><path id="path3059" d="m774.4 776.3c-0.3 2.1-0.7 4.2-1 6.3 0.5 3 1 5.9 1.5 8.9 1.7 2.3 3.5 4.5 5.2 6.7 2.1 0.4 4.2 0.8 6.2 1.1 2.1-0.8 4.1-1.7 6.1-2.7 1.7-1.9 3.3-4 4.8-6.1 0.9-3 1.8-6 2.6-9.2 0-2.3 0.1-4.7 0.1-7-0.3-2.2-0.6-4.4-0.8-6.7l-1.8-4.5c-0.3-0.3-0.5-0.7-0.8-1-0.4-0.5-0.8-1.1-1.2-1.7-1-0.4-2.1-0.9-3.3-1.4 0.7-1.2 1.5-2.4 2.2-3.6 0.1-0.2 0.2-0.5 0.3-0.7 0.8-1.9 1.6-3.9 2.3-5.9 0-2.9 0-5.8 0.2-8.7-0.6-0.6-1.3-1.2-2-1.9l-2.1-2.1c-1-0.3-2.1-0.7-3.2-1.2-1.4 0-2.8 0-4.3-0.1-2.1 0.8-4.2 1.6-6.4 2.3l-4.5-3.3c-2.7-0.6-5.5-1.3-8.4-1.9-3.5 2-7 4-10.4 6-0.6 1-1.1 2.1-1.7 3.1-1 1.8-2 3.7-2.9 5.5v5.6c1 2.1 2 4.1 3 6.2 0.3 0.3 0.7 0.5 1 0.8 1.6 1.1 3.1 2.3 4.7 3.4 1.1 0.4 2.1 0.7 3.2 1.1-1.1 1.3-2.2 2.7-3.3 4-0.3 0.4-0.6 0.7-0.9 1.1-1.2 3.1-2.5 6.1-3.6 9.2 0.3 1.8 0.7 3.6 1 5.4 1.2 0.9 2.3 1.8 3.5 2.7 1.8-0.3 3.6-0.5 5.5-0.8 2.3-1.7 4.6-3.3 6.9-5 0.7-1.3 1.5-2.6 2.3-3.9z" fill="#F1FBFF"/><path id="path3874" d="m758.4 761.9l-3-2.7c-0.6-0.5-1.1-1-1.7-1.5-0.8-1.5-1.5-3-2.3-4.5-0.4 0.7-0.9 1.5-1.3 2.2-0.8 1.5-1.6 2.9-2.4 4.4-1.6 3.1-3 6.2-4.3 9.4-5.1 12.8-7.9 26.5-9.1 39.6-0.2 2.7-0.4 5.4-0.5 8-0.4 9.9 0.1 19.1 1.2 27.2 4.5-9.1 9.9-16.2 15.8-20.5-0.6 4.8-0.7 9.7-0.4 14.5s1 9.5 2 14.2c1.3 6.3 3.2 12.4 5.2 18.6 1.5 4.5 3 9 4.6 13.7 0.1 0.3 0.2 0.7 0.3 1 0-0.2-0.1-0.5-0.1-0.7-0.4-4.9-1.1-9.6-2-14.3-0.3-1.3-0.5-2.7-0.8-4-0.5-5-1.2-10-2.1-15.1-0.4-2.2-0.8-4.5-1.2-6.7 0.3-10.5 0.4-21.3 0.6-32.2v-1.5c-0.9 0.6-1.7 1.2-2.6 1.8-4 2.8-7.8 5.8-11.4 8.9 0.5-2.4 1-4.9 1.6-7.3 0.6-2.7 1.2-5.3 1.8-8 2.9-12.9 6.2-25.7 10-38.3 0.9-2.2 1.5-4.2 2.1-6.2z" fill="#F13E32"/><path id="path3872" d="m758 761.3c1.7 0.8 3.4 1.6 5.1 2.5-1.2 1.3-2.3 2.6-3.5 3.9l-0.3 0.3c-1 2-2 4-3 6.1-0.3 2-0.6 3.9-0.9 5.9 0.5 1.4 1.1 2.9 1.6 4.3 1.2 0.7 2.5 1.3 3.7 2-2.1 6.2-4.2 12.5-6.2 18.8-0.7 2.1-1.3 4.3-2 6.4 3.8-2.6 7.7-5 11.6-7.4 0.1-0.1 0.2-0.2 0.4-0.2v0.2c-0.4 2.6-0.8 5.1-1.3 7.7-0.7 4.1-1.3 8.1-1.9 12.1-0.2 4.3-0.5 8.5-0.7 12.7 0.4 4.8 0.7 9.6 1 14.4 0.2 3.8 0.3 7.6 0.4 11.3 0.3 2.7 0.5 5.4 0.6 8.1 0 0.9 0.1 1.7 0.1 2.6 0.1 3.4 0.2 6.7 0.1 10.2v2.4c-1-5.1-2-9.9-3.1-14.9-1.3-6.2-2.6-12.5-3.6-19-1-6.4-1.7-13-1.7-19.5s0.5-13 1.8-19.3c-5.3 4.6-10.4 9.4-15.1 14.5 0.2-4.1 0.5-8.3 1-12.5 0.3-2.6 0.6-5.3 1-7.9 1.9-12.8 5.3-25.8 11.5-38.8 0.7-1.5 1.5-3 2.2-4.5 0.4-1 0.7-1.6 1.2-2.4z" fill="#F5EB7E"/><path id="path3870" d="m762.8 885.4c0.2-5.1 0.3-10 0.2-15.2-0.1-6.4-0.2-12.9-0.2-19.5 0-6.8 0.2-13.6 0.8-20.3 0.6-6.6 1.7-13.1 3.4-19.2 0.8-2.7 1.6-5.3 2.6-7.8 1.1-2.7 2.3-5.3 3.7-7.7-4.2 2.7-8.4 5.4-12.6 8.2 3.1-5.1 6.3-10.1 11-14.9 1.8-1.9 1.6-1.6 2.4-2.4-0.8-3.5-0.3-7.1 0.4-10.6-1.9 2.8-3.8 5.1-6.1 6.9s-5 2.9-8.3 3.2c-2.6 6.4-4.8 12.8-6.6 19.1-0.8 2.7-1.5 5.3-2.1 7.9 0 0.2-0.1 0.3-0.1 0.5 0.3-0.2 0.5-0.4 0.8-0.6 3.8-2.8 7.7-5.4 11.7-8-0.6 2.3-1.2 4.5-1.6 6.8-1.3 6.6-2 13.2-2.2 19.8s0.1 13 0.6 19.4c0.5 6.5 1.2 12.9 1.7 19.3 0.1 5 0.4 9.9 0.5 15.1z" fill="#0193CF"/><path id="path3876" d="m767.3 731.6c-0.6 0-1.2 0.1-1.8 0.2-2.4 0.4-4.7 1.3-6.8 2.7s-3.8 3.1-5.2 5c-0.4 0.5-0.7 1.1-1.1 1.7-2 3.5-2.6 7.6-1.6 11.4 0.6 2.2 1.8 4.5 3.8 6.5 1.9 1.9 4.4 3.6 7.7 4.8-0.8 0.8-1.6 1.8-2.2 2.6-0.3 0.4-0.5 0.7-0.7 1-2.8 4.2-4.2 7.8-4.4 10.8-0.3 3.5 0.8 6 2.9 7.2s5 1.1 8-0.4c2.5-1.2 5.2-3.5 7.7-6.7-1 5.4-0.1 11.9 2.6 16.1 2 3.1 4.6 4.7 7.2 5.2s5.4-0.1 7.8-1.7 4.5-3.9 6.1-6.8 2.5-6.1 2.9-9.2c0.5-3.6 0.4-7.7-0.1-11.4-0.3-1.8-0.6-3.6-1.1-5.1s-1-2.9-1.8-4c-1.1-1.5-2.4-2.6-4.4-3 1-1.5 1.7-2.9 2.4-4.3 0.9-2 1.6-4 2-5.7s0.7-3.3 0.8-4.7c0.2-2.8-0.3-4.8-1.4-6.3-0.7-1-1.7-1.7-2.9-2.3s-2.7-0.9-4.3-1.1c-3.2-0.3-7 0.3-10.1 2.4-1.6-1.7-3.5-3.1-5.6-3.9-2.2-0.6-4.4-1-6.4-1zm11 5.8c-1.1 0.9-2.1 1.9-3 3-0.9 1.2-1.6 2.5-1.8 3.8-0.4 2.6 1 5.5 4.3 7.1-2.3 2.2-3.9 4.5-4.9 6.7-1.4 3.2-1.6 6.2-1 8.7 1.3 5.3 6.1 8.7 10.6 7.2 1.1-0.3 2-1 2.7-1.9 1.5-2.1 1.5-4.6 1-6.8-0.3-1.3-0.8-2.5-1.4-3.4 0.4 1.3 0.6 2.4 0.8 3.5 0.3 2.6 0 4.4-0.8 5.7s-2 1.9-3.4 1.9c-2.8 0-6.2-2.3-7.4-6.3-0.7-2.4-0.7-5.3 0.8-8.7 1-2.3 2.6-4.7 5-7.3-0.8-0.2-1.6-0.6-2.3-1-1.7-1.1-2.4-2.6-2.4-4.3s0.8-3.5 2-5c1.5-1.9 3.7-3.5 6-4.1 2.9-0.8 4.8-0.7 6.7-0.4 2.1 0.3 3.7 1.2 4.8 2.5 1.4 1.7 2 4.1 2 6.9s-0.6 6.2-2.1 9.4v0.1c-0.9 1.9-1.8 3.1-2.8 4.5 0.1 0.1 0.3 0.2 0.4 0.2 1.7 0.8 3 1.7 4 2.9 1 1.1 1.7 2.4 2.2 3.9s0.9 3.1 1.2 4.9c0.3 2.7 0.4 5.3 0.3 8.1-0.1 0.7-0.1 1.4-0.2 2.1-0.3 2.3-1 4.5-1.9 6.5s-2 3.9-3.4 5.4c-2.7 3-6 4.8-8.8 5-3.9 0.2-7.7-2.8-10.1-8.9-1-2.6-1.3-5.5-1.1-8.2 0.2-2.8 0.8-5.4 1.6-7.5-2.7 4.8-5.7 8-8.6 9.8s-5.7 2.1-7.7 1.3-3.3-2.8-3.3-5.8 1.4-6.9 4.7-11.4c1-1.3 2.2-2.7 3.5-4.2-3.3-1-6-2.5-8-4.3-2.4-2.2-3.8-5-4-8.1s0.7-6.5 3-9.9l0.6-0.9c1.5-2 3.3-3.5 5.2-4.6s4-1.7 6.1-1.9c2.1-0.2 4.1 0 6 0.7 1.8 0.6 3.5 1.7 4.9 3.1z" fill="#0193CF"/></g><path id="path7254" d="m388.2 635.4c0.5 11.3-1.6 22.4-4.4 33.3-3.1 12.1-7 24-9.8 36.3-2.8 12.5-5 25.2-6.2 38s-1.4 25.8-0.7 38.6c1.4 25.5 6.4 50.8 17.5 74 10.8 22.6 27 42.2 47.1 57.3 20.3 15.2 44 25.6 68.4 32 0.7 0.2 1.5 0.4 2.2 0.6 24.6 6.2 50.3 8.5 75.6 7.3 25.2-1.2 51.2-5.8 73.9-17.2 11-5.5 21.1-12.7 28.8-22.3 7.8-9.6 13-21.1 15.7-33.2 2.1-9.6 2.7-19.4 2.1-29.2-0.6-8.8-1.9-17.8-4.5-26.3 0.2 11.3 0.4 22.6-1 33.8-1.5 12.3-4.8 24.4-10.7 35.3-5.9 11-14.6 20.3-25 27.1-10.2 6.7-21.6 11.3-33.3 14.7-24.6 7-50.8 8.6-76.3 6.8-14.4-1-28.8-3.2-42.8-6.7-24.6-6.2-48.4-16.5-68.7-32-19.9-15.3-35.5-35.4-45.2-58.4-9.9-23.3-13.7-48.7-14.1-73.9-0.4-25.7 3.2-51.6 10-76.4 3.3-11.9 7.1-23.7 9.4-35.8 1.1-5.7 1.8-11.6 2-17.4 0-0.5 0.1-6.8 0-6.8-0.9 0-1.8 0.1-2.8 0.1-2.4 0.2-4.8 0.3-7.2 0.4z" fill="#6AAADD"/><path id="path7382" d="m684.5 818l-10.3 67.5 30.4-16.6 25.1-26.2 25.5-37.1 18-48.9-6.5-21.6-27.2-9.6-57.1 0.4 13.3 84.6-11.2 7.5z" fill="#9DD9F8"/><path id="path7384" d="m745.3 727.9l22.3 53.8 4.8-23.3 0.3-17.5-12.8-11.8h-14.3l-0.3-1.2z" fill="#9DD9F8"/><path id="path7258" d="m526.4 785.9c-2.4 4.7-4.3 9.8-5.8 14.8-1.8 5.7-3.1 11.6-3.9 17.6-1.6 12.3-1 25 2.9 36.9 0.6 1.8 1.2 3.5 1.9 5.2 4.8 11.5 12.6 21.5 22.4 29.1 9.7 7.6 21.2 12.9 33.1 16.1 24.6 6.7 51.4 5.4 75.8-1.6 12.1-3.5 24.2-8.4 34.7-15.4 10.2-6.7 19-15.6 27.3-24.5 17.6-18.7 33.7-39.4 46.2-61.9 6.2-11.1 11.7-23 14.4-35.5 2.5-11.8 2.1-25.2-6.4-34.6-7.1-7.7-17.7-10.9-27.8-12-25.9-2.8-52.4 0.2-77.7 6-24.7 5.7-48.9 14.1-71.7 25.1-1.3 0.6-2.6 1.2-3.9 1.9 5.9 1.5 11.6 3.6 17.1 6.1 5.2 2.3 10.4 5 14.4 9 4.1 4 6.4 9.3 8.6 14.6 0.6 1.4 1.1 2.7 1.6 4.1 0.1 0.3 0.2 0.6 0.4 1 0.2 0.5 0.4 0.3 0.9 0.3 0.8 0 1.5-0.1 2.3-0.1 2.7 0 5.4 0.2 8 0.6 6 0.8 12 2.3 17.5 4.7 5.4 2.3 10.7 5.5 14.3 10.3 7.7 10.1 3.6 23.2-1.9 33.2-1.5 2.7-3.1 5.3-4.8 7.9l-0.6 0.9c-0.3 0.4-0.5 0.4-0.2 0.9 0.4 0.6 0.8 1.2 1.1 1.8 0.7 1.2 1.2 2.5 1.5 3.9 1.4 5.6 0.2 11.6-2.1 16.8-4.7 11-14 19.9-24.3 25.6-2.3 1.3-4.7 2.4-7.2 3.4-0.5 0.2-0.8 0.1-0.7 0.6 0.2 0.5 0.4 1.1 0.6 1.6 0.9 2.5 1.8 5 2.8 7.4 10.7-4 20.5-10.7 28-19.3 8-9.1 14.3-21.1 13.4-33.5-0.1-1.4-0.3-2.8-0.6-4.1-0.1-0.7-0.3-1.4-0.5-2.1s-0.8-1.7-0.5-2.3c1.7-2.7 3.2-5.5 4.6-8.3 2.6-5.4 4.7-11.3 5.3-17.3 0.7-5.9-0.1-11.8-2.5-17.2-2.3-5.1-6-9.4-10.4-12.8-9.7-7.5-22.4-11.1-34.4-12.4-0.7-0.1-1.5-0.1-2.3-0.2-0.4 0-0.6 0.1-0.7-0.4-0.1-0.3-0.3-0.6-0.4-0.9-0.6-1.4-1.2-2.8-1.9-4.2-1.2-2.5-2.6-4.9-4.2-7.2-3.4-4.7-7.9-8.3-12.9-11.2-1.1-0.7-2.3-1.3-3.5-1.9 23.7-9.6 48.5-16.9 73.9-20.7 17.3-2.5 34.9-3.5 52.3-1.6 5.8 0.6 11.9 2 16.9 5.1 4.8 3 8 7.6 9.2 13.1 1.2 5.9 0.4 12.1-0.9 17.9-1.4 6.1-3.6 12-6.2 17.7-5.2 11.6-11.8 22.6-19 33.1-7.2 10.6-15.1 20.7-23.5 30.3-8.1 9.4-16.7 18.5-26.2 26.5-4.6 3.9-9.5 7.4-14.8 10.2-5.6 3-11.4 5.6-17.3 7.7-23.6 8.5-50 10.9-74.5 5.3-11.3-2.6-22.3-7-31.7-13.9-9.4-6.8-16.8-16-21.4-26.7-4.9-11.4-6.8-23.9-7-36.3-0.2-11.5 1.4-22.7 2.7-34.1 0.2 0.1 0.2 0 0.2-0.1z" fill="#6AAADD"/><path id="path7378" d="m517.2 823.3l10.3-86.6 45.3-92.6 33.2-19.4-1.4 42.8-17.3 67.2-18.7 88.7-3.9 36.8-2.5 41.7-11.7-13.1-23-41.7-10.3-23.8z" fill="#662E8A"/><path id="path7374" d="m583.3 457.5l12.7-12.1 8.5 33.5 5 86.5-4 63c-24.6 48.3-38.9 65.7-55.5 90-41.6 78.3-24.4 94.8-23.1 123.8l-15.3-57.5-5.7-36.1-21.9 24.5-26.5 60.8-4.2 18-3.2-52 3.2-60.5 10.3-19.8 53.7-68.6 41.4-68.9 24.6-124.6z" fill="#0193CF"/><path id="path7372" d="m588 458.9c9.1 129.1-77.5 236.4-127.5 273.5l15.5-46.5 32-45.5-28.5-4.5-25.5-8-4.5-2.5 33-15 38.5-37 27-38.5 20-50s11.8-20.5 10.8-20.5 2.5-2 2.5-2l6.7-3.5z" fill="#7AC240"/><path id="path7135" d="m460.3 518c-30.7 47.1-84.4 69.3-119.9 49.7-35.5-19.7-39.4-73.8-8.7-120.9v-0.1c30.7-47.1 84.4-69.3 119.9-49.7 35.5 19.7 39.4 73.9 8.7 121z" fill="#fff"/><defs><path id="SVGID_1_" d="m460.3 518c-30.7 47.1-84.4 69.3-119.9 49.7-35.5-19.7-39.4-73.8-8.7-120.9v-0.1c30.7-47.1 84.4-69.3 119.9-49.7 35.5 19.7 39.4 73.9 8.7 121z"/></defs><clipPath id="SVGID_2_"><use overflow="visible" xlink:href="#SVGID_1_"/></clipPath><linearGradient id="path7135-2_1_" y2="1031.1" gradientUnits="userSpaceOnUse" x2="721.92" gradientTransform="matrix(.6672 .3856 .4122 -.8114 -512.96 954.33)" y1="887.47" x1="760.47"><stop stop-color="#C6006F" offset="0"/><stop stop-color="#570030" offset="1"/></linearGradient><path id="path7135-2" d="m428.7 502.9c-21 41.4-62.4 61-92.3 43.7-30-17.3-37.2-64.9-16.2-106.3v-0.1c21-41.4 62.4-61 92.3-43.7 30 17.3 37.3 64.9 16.2 106.4v0z" fill="url(#path7135-2_1_)" clip-path="url(#SVGID_2_)"/><path id="path7316" d="m272.9 392.3l52.3-26.5 11-2.5-17.7 36.4-3.9 30.1 33.9-35 52.3-44.5 44.2-20.2 50.9-14.1 17.7-0.4 21.6-36.8 7.8-7.4-50.5-46.4-22.6-8.8-57.3 21.9-126.2 82.7-3.5 26.5-10 45z" fill="#F5EB7E"/><defs><path id="SVGID_3_" d="m428.7 502.9c-21 41.4-62.4 61-92.3 43.7-30-17.3-37.2-64.9-16.2-106.3v-0.1c21-41.4 62.4-61 92.3-43.7 30 17.3 37.3 64.9 16.2 106.4v0z"/></defs><clipPath id="SVGID_4_"><use overflow="visible" xlink:href="#SVGID_3_"/></clipPath><path id="path7194" d="m373.6 498.1l59.8 36.6-29.6 17.3-29.1-46.1-1.1-7.8z" fill="#F0AED0" clip-path="url(#SVGID_4_)"/><defs><path id="SVGID_5_" d="m428.7 502.9c-21 41.4-62.4 61-92.3 43.7-30-17.3-37.2-64.9-16.2-106.3v-0.1c21-41.4 62.4-61 92.3-43.7 30 17.3 37.3 64.9 16.2 106.4v0z"/></defs><clipPath id="SVGID_6_"><use overflow="visible" xlink:href="#SVGID_5_"/></clipPath><path id="path7192" d="m374.8 500.2l52.3 33 16.4-23.6-63-12.1-5.7 2.7z" fill="#D64A99" clip-path="url(#SVGID_6_)"/><defs><path id="SVGID_7_" d="m460.3 518c-30.7 47.1-84.4 69.3-119.9 49.7s-39.4-73.8-8.7-120.9v-0.1c30.7-47.1 84.4-69.3 119.9-49.7s39.4 73.9 8.7 121z"/></defs><clipPath id="SVGID_8_"><use overflow="visible" xlink:href="#SVGID_7_"/></clipPath><path id="path7187" d="m410.7 470.6c-5.9 35.1-30.4 63.5-54.7 63.6-24.4 0-39.3-28.4-33.5-63.5v-0.1c5.9-35.1 30.4-63.5 54.7-63.6 24.4 0.1 39.4 28.5 33.5 63.6z" clip-path="url(#SVGID_8_)"/><path id="path7210" d="m224.5 510.2c9.3-4.6 16.6-13.9 21.9-26l10.1-24.2 6.7-27.1 1.2-24.7-1.2-7.9-27 12.7-28.3 6.9-0.7 11.8-1.7 33.4-0.7 18.3-0.4 9.8 0.6 10.1 1 6.1 0.6 3.7 17.9-2.9z" fill="#fff"/><defs><path id="SVGID_9_" d="m224.8 510.3c9.6-5 16.5-14.2 21.6-26.1l10.1-24.2 6.7-27.1 1.2-24.7-1.2-7.9-27 12.7-28.3 6.9-0.7 11.8-1.7 33.4-0.7 18.3-0.4 9.8 0.6 10.1 1 6.1 0.6 3.7 18.2-2.8z"/></defs><clipPath id="SVGID_10_"><use overflow="visible" xlink:href="#SVGID_9_"/></clipPath><linearGradient id="path7212_1_" y2="659.75" gradientUnits="userSpaceOnUse" x2="264.78" gradientTransform="matrix(1.0732 0 .1852 -.9977 -166.6 1050.8)" y1="580.37" x1="265.3"><stop stop-color="#C6006F" offset="0"/><stop stop-color="#570030" offset="1"/></linearGradient><path id="path7212" d="m261 439.1c-6.3 34.1-24.7 61.7-41 61.7s-24.4-27.6-18.1-61.7 24.7-61.7 41-61.7c16.3-0.1 24.4 27.6 18.1 61.7z" fill="url(#path7212_1_)" clip-path="url(#SVGID_10_)"/><defs><path id="SVGID_11_" d="m224.8 510.3c9.6-5 16.5-14.2 21.6-26.1l10.1-24.2 6.7-27.1 1.2-24.7-1.2-7.9-27 12.7-28.3 6.9-0.7 11.8-1.7 33.4-0.7 18.3-0.4 9.8 0.6 10.1 1 6.1 0.6 3.7 18.2-2.8z"/></defs><clipPath id="SVGID_12_"><use overflow="visible" xlink:href="#SVGID_11_"/></clipPath><path id="path7214" d="m248.6 436.6c-3.8 25.5-15.9 46.2-27 46.3s-17-20.7-13.2-46.2c3.8-25.5 15.9-46.2 27-46.3s17 20.7 13.2 46.2z" clip-path="url(#SVGID_12_)"/><path id="path7146" d="m237.1 499.8c0.1 0 0.1-0.1 0 0 0.1-0.1 0.1-0.1 0.2-0.1s0.1-0.1 0.1-0.1 0.1-0.1 0.2-0.1 0.1-0.1 0.2-0.2 0.2-0.1 0.2-0.2l0.3-0.3 0.3-0.3s0.2-0.2 0.4-0.4l0.4-0.4s0.3-0.3 0.4-0.5 0.3-0.3 0.5-0.5c0.2-0.2 0.3-0.4 0.5-0.6s0.4-0.5 0.6-0.7c0.2-0.2 0.4-0.5 0.6-0.8s0.4-0.6 0.7-0.9c0.2-0.3 0.5-0.7 0.7-1 0.2-0.4 0.5-0.7 0.8-1.1s0.5-0.8 0.8-1.3c0.3-0.4 0.6-0.9 0.9-1.4s0.6-1 0.9-1.6c0.3-0.5 0.6-1.1 1-1.7s0.7-1.2 1-1.9c0.3-0.7 0.7-1.4 1.1-2.1s0.7-1.5 1.1-2.3 0.8-1.6 1.2-2.5l1.2-2.7s0.8-1.9 1.2-3c0.4-1 0.8-2.1 1.2-3.2s0.8-2.3 1.2-3.5 0.8-2.5 1.2-3.8c0.4-1.2 0.8-2.5 1.2-3.8s0.8-2.7 1.1-4.1 0.7-2.9 1.1-4.4 0.7-3.1 1-4.7c0.3-1.6 0.7-3.3 1-5s0.6-3.5 0.9-5.4c0.3-1.8 0.5-3.7 0.8-5.7s0.4-4 0.6-6c0.1-1.4 0.2-2.7 0.3-4s0.2-2.5 0.2-3.7c0.1-1.2 0.1-2.3 0.1-3.4s0.1-2.1 0.1-3.1v-2.8-2.5-2.3c0-0.7 0-1.4-0.1-2 0-0.6 0-1.2-0.1-1.7s0-1-0.1-1.5c0-0.4 0-0.8-0.1-1.2s0-0.7-0.1-1v-0.7-0.5-0.3-0.1l-7 0.5v0.1s0 0.2 0 0.3v0.5s0 0.4 0 0.7c0 0.3 0 0.6 0.1 0.9 0 0.3 0 0.7 0.1 1.2s0 0.9 0.1 1.4c0 0.5 0 1.1 0.1 1.7s0 1.2 0.1 1.9 0 1.4 0 2.2v2.5 2.7c0 1 0 2-0.1 3 0 1-0.1 2.1-0.1 3.3s-0.1 2.3-0.2 3.6c-0.1 1.2-0.2 2.5-0.3 3.8-0.2 2-0.4 3.9-0.6 5.8s-0.4 3.7-0.7 5.5c-0.2 1.8-0.5 3.5-0.8 5.2s-0.6 3.3-0.9 4.9-0.6 3.1-0.9 4.6-0.6 2.9-1 4.3c-0.3 1.4-0.6 2.7-1 4-0.3 1.3-0.7 2.5-1 3.8s-0.7 2.5-1 3.7-0.7 2.3-1 3.5c-0.3 1.1-0.7 2.2-1 3.2s-0.7 2-1 3c-0.3 0.9-0.6 1.9-0.9 2.7-0.3 0.9-0.6 1.7-0.9 2.5s-0.6 1.6-0.9 2.3-0.5 1.4-0.8 2.1-0.5 1.3-0.8 1.9c-0.2 0.6-0.5 1.2-0.7 1.8s-0.5 1.1-0.7 1.6-0.4 1-0.6 1.5-0.4 0.9-0.6 1.3-0.4 0.8-0.5 1.2c-0.2 0.4-0.3 0.8-0.5 1.1s-0.3 0.7-0.4 1c-0.1 0.3-0.3 0.6-0.4 0.9s-0.2 0.6-0.4 0.8-0.2 0.5-0.3 0.7c-0.1 0.2-0.2 0.4-0.3 0.7-0.1 0.2-0.2 0.4-0.2 0.6-0.1 0.2-0.2 0.4-0.2 0.5-0.1 0.2-0.1 0.3-0.2 0.5-0.1 0.1-0.1 0.3-0.2 0.4s-0.1 0.2-0.1 0.3-0.1 0.2-0.1 0.3-0.1 0.2-0.1 0.2c0 0.1-0.1 0.1-0.1 0.2s0 0.1-0.1 0.1c0.2-0.1 0.2 0 0.1 0.1 0.1-0.1 0.1-0.1 0 0z"/><path id="path7126" d="m240.2 497.2c-3.7 3.6-7.5 6.7-12.3 8.8-5.4 2.4-11.4 3.4-17.3 3.9-10.8 1.1-25.6 0.5-31.6 11.5-2.7 5-3.4 11.2-3 16.7 0.4 6.1 2 12 4.4 17.6 4.7 11.2 12 21.1 20.2 29.9 16.6 17.7 37.6 31.3 59.8 40.7 23.3 9.8 48.2 14.8 73.4 16 25.1 1.2 50.5-1.1 74.9-7.2 10.4-2.6 20.9-5.8 30.6-10.5-11.3 2.1-22.6 4.4-34 6-12.4 1.7-24.9 2.7-37.5 3-25.1 0.7-50.6-1.2-75.1-7.2-23.8-5.8-46.5-16.2-66.1-31-9.2-6.9-17.7-14.8-24.9-23.9-7.4-9.3-14.3-20.6-15.6-32.7-0.3-2.9-0.2-5.9 0.4-8.8 0.6-2.5 1.4-4.9 3.6-6.4 1.8-1.3 4.1-1.9 6.2-2.5 3.1-0.8 6.3-1.2 9.4-1.8 11.5-2 23.6-5.3 30.8-15.3 1.6-1.9 2.9-4.3 3.7-6.8z" fill="#6AAADD"/><path id="path7167" d="m207.6 514c-3.9-15.7-4.7-60.8 4-104.6" stroke="#6AAADD" stroke-width="7" fill="none"/><defs><path id="SVGID_13_" d="m224.8 510.3c9.6-5 16.5-14.2 21.6-26.1l10.1-24.2 6.7-27.1 1.2-24.7-1.2-7.9-27 12.7-28.3 6.9-0.7 11.8-1.7 33.4-0.7 18.3-0.4 9.8 0.6 10.1 1 6.1 0.6 3.7 18.2-2.8z"/></defs><clipPath id="SVGID_14_"><use overflow="visible" xlink:href="#SVGID_13_"/></clipPath><path id="path7218" d="m257.7 408.3c0 10.7-5.7 19.4-12.8 19.4s-12.8-8.7-12.8-19.4c0-10.7 5.7-19.4 12.8-19.4s12.8 8.7 12.8 19.4z" fill="#FFF9FF" clip-path="url(#SVGID_14_)"/><path id="path7136" d="m213 586.7c36.3-2.9 36.5-19.5 41.4-34.3 5 29.9-19.7 44.4-33.5 40.6-3.5-1-6.3-3.1-7.9-6.3z" fill="#6AAADD"/><path id="path7138" d="m212.6 545.6c10.7 4.8 18.1 4.1 20.6-8.3 0.7 4.5 1.4 32-20.6 8.3z" fill="#6AAADD"/><path id="path7386" d="m514 914.4l-2 48 92 5.5-29-57-61 3.5z" fill="#9DD9F8"/><path id="path7142" d="m575.3 457.7c-5.1 33.6-35.5 138.6-131.4 167.5 31.7 12.7 43.5 12 63.5 12.5-59.8 79.8-62.8 143.4-54.9 220.3 7.6-24.9 14.5-77.4 54-112.1 3.2 48.6 16.6 122.9 57.1 159.1-1.1-49.5 9.2-99.3 18.6-146.8 7.1-35.9 20.1-75 25.9-137.6 3.2-34.7 0.1-140.1-11.2-174.9" stroke="#0193CF" stroke-miterlimit="9.4" stroke-width="10" fill="none"/><path id="path7150" d="m311.9 523.8c-0.3-11.6 0.3-23 2.7-34.3 2.6-12.1 7-23.8 13-34.7 11.9-21.7 30.1-40 52.5-50.6 17.7-8.4 38.4-12.3 57.7-7.5 12 3 23 9.6 30.4 19.5 7.2 9.6 10.6 21.4 11.4 33.3 0.5 7.8 0 15.7-1.2 23.4 5.8-0.4 11.7-0.5 17.5-0.8 5.6-0.2 11.4-0.4 16.9-1.3 1.4-0.2 5.1-0.6 5.3-2.5 0.1-1.4-1.4-1.9-2.4-2.2-2.6-0.7-5.3-0.8-8-0.9-2.9-0.1-5.8-0.2-8.6-0.1-4.2 0-8.5 0.2-12.7 0.4 1.1-12.2 0.3-24.7-3.7-36.4-3.9-11.5-11.1-21.8-21-29-6.6-4.8-14.3-8.2-22.2-10.2-24.1-6-50 0.3-71.1 12.6-21.4 12.4-38.4 31.5-48.7 54-9.4 20.7-13.2 45-7.8 67.3z"/><path id="path7154" d="m482.8 443.1c11.4-2.8 22.8-5.9 33.9-9.7 1.3-0.4 11.3-3.5 10-5.5-0.4-0.7-1.8-0.6-2.5-0.6-1.4 0-2.7 0.2-4 0.4-2.7 0.4-5.5 0.9-8.2 1.5-10.3 2.1-20.6 4.6-30.8 7.1 0.5 2.2 1 4.5 1.6 6.8z"/><path id="path7156" d="m473.5 415.4c4.6-3.4 9.1-6.9 13.6-10.6 4.3-3.5 8.5-7.1 12.3-11.1 0.8-0.8 3.6-3.4 2.6-4.7-0.9-1.2-3.6 0.6-4.5 1.1-4.8 2.7-9.3 6-13.8 9.2-1.1 0.8-14.3 10.4-14.3 10.5 1.4 1.8 2.7 3.7 4.1 5.6z"/><path id="path7190" d="m422.5 449.3c0.6 20.2-9.9 36.6-23.3 36.6s-24.8-16.4-25.4-36.6v-0.1c-0.6-20.2 9.9-36.6 23.3-36.6 13.4 0.1 24.8 16.4 25.4 36.7z" fill="#FFF9FF"/><defs><path id="SVGID_15_" d="m224.8 510.3c9.6-5 16.5-14.2 21.6-26.1l10.1-24.2 6.7-27.1 1.2-24.7-1.2-7.9-27 12.7-28.3 6.9-0.7 11.8-1.7 33.4-0.7 18.3-0.4 9.8 0.6 10.1 1 6.1 0.6 3.7 18.2-2.8z"/></defs><clipPath id="SVGID_16_"><use overflow="visible" xlink:href="#SVGID_15_"/></clipPath><path id="path7216" d="m236.3 445c0.4 4.6-2 8.3-5.5 8.3s-6.6-3.7-7.1-8.3c-0.4-4.6 2-8.3 5.5-8.3 3.5-0.1 6.7 3.6 7.1 8.3z" fill="#FFF9FF" clip-path="url(#SVGID_16_)"/><path id="path7314" d="m276.5 392.4c90.4-132.4 152.8-160.4 218.5-162.5l-23-23-30.5-18-99.5 13.5-137.5 34-27.5 19-29.5 36-7.5 27.5 41-31 34-17.5-24.5 37-13 34.5-23 39-30.5 42-25.5 14.5 16 1.5 43-3 41-11.5 50-16.5 28-15.5z" fill="#F67634"/><path id="path7301" d="m161.2 274.5c100.4-53.7 199.5-69 298-72.1l-30.1-21.9-61.9-19.1-49.5-6.7-65.1 7.1-54.1 24.7-3.9 7.1 38.5-3.5 48.8-4.2-37.8 19.1-50.2 28.3-32.7 41.2z" fill="#F13E32"/><path id="path7130" d="m515.4 316.3c-45.1-2.4-122.7 21.3-202.5 115 7.9-38.6 14.3-54.5 27.2-74.7-26.6 15.7-151 94.7-246.1 80.1 12.7-5 36.5-6.1 72.2-77.3 9.7-19.4 23.7-60.8 53.5-95" stroke="#0193CF" stroke-miterlimit="7.2" stroke-width="10" fill="none"/><path id="path7390" d="m517.6 308.5l-12.4 29 54.4 139.7 20.5-11.7 14.5-18-77-139z" fill="#9DD9F8"/><path id="path7318" d="m210.4 270.7l19.8-8.5-2.5-8.8-19.8 3.5 2.5 13.8z" fill="#F67634"/><path id="path7132_1_" d="m261.6 248.8c-5.3 0.5-10.5 1.7-15.6 3.1-5.8 1.5-11.5 3.3-17.2 5.4-11.5 4.2-22.6 9.5-33.3 15.6-17.2 9.8-33.2 21.7-48.4 34.3 11.2-22.9 26.3-43.8 44.9-61.2 18.5-17.3 40.1-31 63.1-41.4 9.5-4.3 19.3-8.1 29.2-11.5 9.1-3.2 18.4-6 27.6-9-1-3.2-2.1-6.3-3.1-9.5-10.6 3.5-21.2 6.6-31.7 10.4-11.7 4.2-23.2 8.9-34.4 14.4-22.7 11.2-43.8 25.6-61.8 43.4-18.1 17.9-32.8 39-43.7 62-5.8 12.1-10.6 24.6-13.7 37.7 16.5-16.6 34.3-32 53.4-45.6 19.8-14.2 41.1-26 63-36.8 3.8-1.9 7.7-3.8 11.5-5.7 3.4-1.9 6.9-3.6 10.2-5.6z" fill="#0193CF"/><path id="path7320" d="m267.6 184.7l40 3.2 19.8-9.9-9.9-13.4-49.9 20.1z" fill="#F13E32"/><path id="path7134" d="m321.1 188.4c-5.2-1.7-10.6-2.7-15.9-3.7-6-1.1-12-1.9-18.1-2.5-12.5-1.2-25.1-1.5-37.6-0.9-13.7 0.7-27.3 2.3-40.7 4.8 23.2-11.2 47.8-19.4 73.2-23.3 25.6-3.9 51.7-3.4 77.1 1.5 25.2 4.8 49.4 13.9 72.1 25.8 22.5 11.8 43.4 26.4 62.8 42.6 8.8 7.3 17.2 15 25.5 23 4 3.9 7.9 7.8 11.9 11.8 3.3 3.3 6.5 6.8 10.1 9.8 1.6-1.9 3.1-3.7 4.7-5.6 0.6-0.7 1.2-1.4 1.7-2.1 0 0-4.2-4-4.5-4.3-8.3-8.2-16.5-16.5-25-24.5-18.2-16.9-37.8-32.5-58.8-45.9-9.6-6.1-19.4-11.7-29.6-16.7-23-11.4-47.5-20-72.8-24.4-25.5-4.5-51.6-4.7-77.1-0.8-25.3 3.9-49.9 12-73.1 22.9-20.2 9.5-39.7 20.8-56.6 35.5 9.7-3.1 19.5-6.2 29.4-8.7 12-3.1 24.1-5.6 36.3-7.7 24.7-4.1 49.7-5.9 74.7-6.2 5.4-0.1 10.7-0.1 16.1-0.1 4.8-0.1 9.5 0 14.2-0.3z" fill="#0193CF"/><path id="path7128" d="m508.5 330.7c2.6-4.4 4.9-9 7.4-13.4 3-5.2 6.2-10.4 9.5-15.4 6.8-10.3 14.1-20.2 22-29.6 2.6-3.1 5.3-6.2 8-9.1 7.9-8.6 16.6-17.4 27-23.1 4-2.2 10.3-5.2 14.8-2.5 2.3 1.4 4.2 3.7 5.9 5.7 1.9 2.3 3.6 4.7 5.2 7.3 6.4 10.5 10.3 22.6 12.8 34.6 2.6 12.4 3.9 25.1 4.1 37.8 0.4 24.9-3.1 49.8-10.5 73.5-7.4 23.8-19 46.8-36.5 64.9-6.3 6.5-13.3 12-20.6 17.2 11-3.3 21-10.2 29.4-17.8 9.2-8.4 16.8-18.5 23-29.3 12.4-21.6 19.4-46.1 22.8-70.7 3.5-25.1 3.4-51.1-1.7-75.9-0.2-0.9-0.4-1.7-0.5-2.6-2.6-12.2-6.6-24.3-12.8-35.1-3-5.2-6.6-10.1-10.9-14.3-1.9-1.8-3.9-3.6-6.3-4.7-2.5-1.1-5.2-1.6-7.9-1.6-8.9 0.1-17.3 5.4-24.2 10.6-7.5 5.7-14.3 12.3-20.6 19.4-8.1 9.2-15.4 19.1-21.8 29.6-6.3 10.4-12 21.5-15.5 33.2-0.9 3.6-1.9 7.4-2.1 11.3z" fill="#6AAADD"/><path id="path7140" d="m555.3 417c16.5-34.6 34.2-68.6 36.9-115.1 7.4 72.1-33.2 109.6-36.9 115.1z" fill="#6AAADD"/><path id="path7262" d="m630.6 772.8l107.8-46.7" stroke="#6AAADD" stroke-width="7" fill="none"/><path id="path7264" d="m770.5 744.5l-96.2 53.3" stroke="#6AAADD" stroke-width="7" fill="none"/><path id="path7266" d="m675 854.6l83.3-58.1" stroke="#6AAADD" stroke-width="7" fill="none"/><path id="path7278" d="m759.6 947.6c32.4 3.7 33.7 1.7 43.4 26.1 45.5 114.3 83.9 227.5 62.6 262.4-8.9 14.5-55.4 14.1-105.8 12.9-30.9-0.8-27.3-14.9-22.9-38.5 10.7-56.9 19.3-123.1-72.9-286.9" stroke="#6AAADD" stroke-width="10" fill="none"/><path id="path7280" d="m623.8 944.3c68.3 132.6 46.6 198.7 38.9 242.5-5 28.6 5.5 31.4 71.7 27.8" stroke="#6AAADD" stroke-width="10" fill="none"/><path id="path7293" d="m513.4 919.8c-1.9 4.8-2.8 10-3.5 15.1-0.8 5.9-1.2 11.9-1.3 17.8-0.2 12.5 1.1 25 2.2 37.4 2.2 25.2 3.8 50.5 4.1 75.9 0.4 25.8-0.6 51.7-2.9 77.4s-5.8 51.3-9.9 76.8c-1.6 9.8-4 19.8-2 29.6 1 4.7 2.9 9.1 5.9 12.9 3.2 4 7.3 7 11.9 9.1 11.2 5.4 24.2 6.4 36.4 7 12.4 0.6 24.9 0.6 37.4 0.3 6.1-0.1 12.2-0.4 18.2-1.1 5.9-0.6 11.8-1.6 17.4-3.6 5.6-2.1 10.7-5.6 13.9-10.7s4.5-11.1 5.2-17c0.7-6.2 0.8-12.5 0.9-18.8s0.2-12.5 0.2-18.8c0.1-12.8-0.2-25.6-0.7-38.4-1.1-26-3.4-52-7-77.7-3.6-25.4-8.5-50.6-15.1-75.3-3.3-12.2-7-24.4-11.2-36.3-4.1-11.7-8.8-23.3-14.4-34.4-3.2-6.3-6.8-12.5-10.7-18.4-3.4-5.1-7.1-10.5-11.6-14.7 1.4 5 3.5 9.9 5.5 14.8 2.2 5.6 4.5 11.2 6.8 16.7 4.6 11.4 9.1 22.8 13.3 34.3 8.7 23.9 15.4 48.6 20.5 73.5 5.2 25.3 8.9 51 11.3 76.7 2.4 25.6 3.5 51.2 3.5 76.9 0 6.3-0.1 12.6-0.2 18.8-0.1 6-0.1 12-0.7 18-0.5 5.3-1.2 11.1-4.4 15.5-3.3 4.5-8.9 6.4-14.2 7.5-5.9 1.3-12 1.8-18 2.1-6.4 0.3-12.8 0.4-19.1 0.4-12.5 0-25.2 0.1-37.6-1.3-6.2-0.7-12.5-1.7-18.3-4-5.1-2-10-5-12.8-9.9s-3.2-10.9-2.7-16.5c0.6-6.2 1.9-12.4 2.9-18.6 4.1-25.6 7.6-51.3 9.8-77.2 2.2-25.8 3.1-51.7 2.7-77.6-0.4-25.6-2-51.1-4.3-76.6-1.1-11.8-2.6-23.6-3.9-35.4-0.7-5.8-1.3-11.7-1.8-17.6-0.7-4.7-0.9-9.7-1.7-14.6z" fill="#6AAADD"/><path id="path7295" d="m435.9 910c7.8 161.5-29.8 273.3-30 299-0.2 27.8 59 23.6 101.8 20.7" stroke="#6AAADD" stroke-width="10" fill="none"/><path id="path7346" d="m371.1 486.2c0.9 6.1-2.8 11-8.2 11s-10.5-4.9-11.4-11 2.8-11 8.2-11c5.4 0.1 10.5 5 11.4 11z" fill="#FFF9FF"/></svg>