<?xml version="1.0" encoding="UTF-8"?><svg xmlns="http://www.w3.org/2000/svg" xmlns:xlink="http://www.w3.org/1999/xlink" version="1.1" viewBox="0 0 2186.783 2186.7751" width="2186.783" height="2186.7751"><defs id="defs6"><linearGradient id="linearGradient3951"><stop id="stop3953" stop-color="#7e4a99" offset="0"/><stop id="stop3955" stop-color="#4b1566" offset="1"/></linearGradient><radialGradient id="radialGradient3913" gradientUnits="userSpaceOnUse" cy="912.37" cx="478.23" gradientTransform="matrix(1.2428 -.60504 1.2639 2.5961 -1191.7 -1243.8)" r="66.114"><stop id="stop3953-6" stop-color="#7e4a99" offset="0"/><stop id="stop3955-8" stop-color="#4b1566" offset="1"/></radialGradient><radialGradient id="radialGradient3923" xlink:href="#linearGradient3951" gradientUnits="userSpaceOnUse" cy="794.48" cx="350.49" gradientTransform="matrix(-.025365 1.2849 -1.8143 -.035817 1866.8 357.27)" r="140.15"/><radialGradient id="radialGradient3925" xlink:href="#linearGradient3951" gradientUnits="userSpaceOnUse" cy="1153.9" cx="1355" gradientTransform="matrix(1.7234 .82182 -0.672 1.4092 -268.9 -1580.5)" r="284.69"/><radialGradient id="radialGradient3935" xlink:href="#linearGradient3951" gradientUnits="userSpaceOnUse" cy="334.06" cx="869.91" gradientTransform="matrix(1.134 -1.7435 1.4097 .91687 -580.19 1594)" r="170.25"/></defs><g transform="translate(-169.15 -92.029)" fill="#73d4fd"><path id="path4123" d="m1182.5 1252.2-38.5 94.25 48 74 41-90.25z" stroke="#000" stroke-width="1px"/><path id="path4233" d="m1255.5 1372.5-41.25 92 48.75 75 37.75-90.25z"/><path id="path4235" d="m1153.2 1437.5-42.75 95 49.5 78.25 43-99.25z"/></g><g transform="translate(-169.15 -92.029)" fill="#2c8fb7"><path id="path4029" d="m1187.8 1319.1c-5.5343 0.01-9.8767 3.3707-12.5 7.8124-2.6233 4.4418-3.8349 10.011-3.9062 15.594-0.071 5.5831 0.9989 11.166 3.4687 15.594 2.4698 4.4277 6.6968 7.776 12.094 7.7187 5.3891-0.057 9.6457-3.3972 12.281-7.8125 2.6356-4.4153 3.9601-9.9669 4.125-15.531 0.1649-5.5644-0.8256-11.152-3.2813-15.594-2.4556-4.4414-6.7541-7.79-12.281-7.7812zm0.031 5c3.6377-0.01 6.0234 1.8385 7.875 5.1874 1.8517 3.349 2.7999 8.1856 2.6563 13.031-0.1436 4.8457-1.3906 9.6959-3.4375 13.125s-4.6056 5.3386-8.0312 5.375c-3.4178 0.036-5.7751-1.7525-7.6563-5.125s-2.9059-8.2273-2.8437-13.094c0.062-4.8665 1.2032-9.7437 3.2187-13.156 2.0155-3.4126 4.5883-5.338 8.2187-5.3437z"/><path id="path4029-4" d="m1258.4 1438.6c-5.5343 0.01-9.8767 3.3707-12.5 7.8124-2.6233 4.4418-3.8662 10.042-3.9375 15.625-0.071 5.5832 1.0302 11.135 3.5 15.563 2.4698 4.4277 6.6968 7.776 12.094 7.7187 5.3891-0.057 9.6145-3.3972 12.25-7.8125 2.6356-4.4153 3.9602-9.9669 4.125-15.531 0.1649-5.5644-0.8256-11.152-3.2812-15.594-2.4556-4.4414-6.7229-7.79-12.25-7.7812zm0 5c3.6377-0.01 6.0234 1.8697 7.875 5.2187s2.8311 8.1543 2.6875 13-1.3906 9.6959-3.4375 13.125-4.6056 5.3386-8.0312 5.375c-3.4178 0.036-5.7751-1.7525-7.6563-5.125s-2.9371-8.2273-2.875-13.094c0.062-4.8665 1.2345-9.7437 3.25-13.156 2.0155-3.4126 4.557-5.338 8.1875-5.3437z"/><path id="path4029-9" d="m1157.3 1504c-5.2068-0.03-9.2579 3.4094-11.687 7.8438-2.4296 4.4343-3.5981 10.016-3.7188 15.594-0.1207 5.5775 0.8003 11.167 3.0625 15.594 2.2622 4.4272 6.2857 7.8246 11.5 7.6876 5.1877-0.1364 9.1987-3.556 11.625-7.9688s3.6045-9.9224 3.7187-15.438c0.1143-5.5151-0.8324-11.034-3.0937-15.438-2.2613-4.403-6.2262-7.845-11.406-7.875zm-0.031 5c3.1098 0.018 5.2431 1.7962 6.9688 5.1562 1.7256 3.3601 2.6629 8.1832 2.5624 13.031-0.1004 4.8481-1.2047 9.7207-3.0937 13.156-1.889 3.4355-4.248 5.324-7.375 5.4062-3.1004 0.082-5.1846-1.6308-6.9063-5-1.7216-3.3692-2.6377-8.2685-2.5312-13.188 0.1065-4.919 1.2049-9.8652 3.0938-13.312 1.8888-3.4473 4.1982-5.2679 7.2812-5.25z"/><path id="path4056" d="m1156.5 1433.2-5 0.1876 3 73.75 5-0.1876-3-73.75z"/><path id="path4058" d="m1188.2 1478.1-23.5 35.25 4.1876 2.75 23.5-35.25-4.1876-2.75z"/><path id="path4060" d="m1205.2 1511.1-36.5 9 1.1876 4.875 36.5-9-1.1876-4.875z"/><path id="path4062" d="m1170.3 1534.5-3.5624 3.5 26 26.25 3.5624-3.5-26-26.25z"/><path id="path4064" d="m1161.5 1548.2-5 0.1876 3 70 5-0.1876-3-70z"/><path id="path4066" d="m1146.4 1542.7-19.5 31.75 4.25 2.625 19.5-31.75-4.25-2.625z"/><path id="path4068" d="m1144.2 1524.8-35.5 5 0.6876 4.9376 35.5-5-0.6876-4.9376z"/><path id="path4070" d="m1125.8 1489.5-3.5624 3.5 23 23.5 3.5624-3.5-23-23.5z"/><path id="path4072" d="m1257.8 1366.1-5 0.25 3.5 74.25 5-0.25-3.5-74.25z"/><path id="path4074" d="m1263 1482.9-5 0.25 3.75 67 5-0.25-3.75-67z"/><path id="path4076" d="m1270.8 1469.6-3.1876 3.875 23 19 3.1876-3.875-23-19z"/><path id="path4078" d="m1307.3 1447.5-36.25 7 0.9376 4.9376 36.25-7-0.9376-4.9376z"/><path id="path4080" d="m1291 1412.7-24.5 31.5 3.9376 3.0624 24.5-31.5-3.9376-3.0624z"/><path id="path4082" d="m1225.3 1423.8-3.5624 3.5 23.25 23.5 3.5624-3.5-23.25-23.5z"/><path id="path4084" d="m1244.8 1458.5-33 3.25 0.5 5 33-3.25-0.5-5z"/><path id="path4086" d="m1247.4 1479.1-15.75 22.75 4.125 2.875 15.75-22.75-4.125-2.875z"/><path id="path4088" d="m1192 1363.4-5 0.1876 2.75 64.5 5-0.1876-2.75-64.5z"/><path id="path4090" d="m1187 1242.5-5 0.125 1.7812 77.969 5-0.125-1.7812-77.969z"/><path id="path4092" d="m1219.6 1300.3-23.25 26 3.75 3.3124 23.25-26-3.75-3.3124z"/><path id="path4094" d="m1237.1 1329-36.5 6.5 0.875 4.9376 36.5-6.5-0.875-4.9376z"/><path id="path4096" d="m1200.6 1352.6-3.1876 3.875 23.25 19 3.1876-3.875-23.25-19z"/><path id="path4098" d="m1175.8 1358.7-17.75 23 3.9376 3.0624 17.75-23-3.9376-3.0624z"/><path id="path4100" d="m1174.2 1339.2-30.5 3.25 0.5 5 30.5-3.25-0.5-5z"/><path id="path4102" d="m1155.4 1306.9-3.375 3.6876 22 20 3.375-3.6876-22-20z"/></g><g transform="translate(-169.15 -92.029)"><path id="path3937" fill="#5e51a3" d="m1935.2 1653.2 45.021 37.738 48.332 18.538 43.697 93.353 23.173 85.408 78.125 43.697 17.214 2.6483-5.9587-21.186-31.78-50.318 76.801-48.332 37.076 96.663 13.904 25.159 30.456 21.848-23.173 63.559-31.118 32.442-32.442 6.6207-42.373-15.228-50.318-50.318-32.442-39.062-0.6621 55.614-11.917 50.98-20.524 35.752-87.394-41.049-76.139-28.469-76.801-11.917 45.021-132.42z"/><path id="path3939" fill="#5e51a3" d="m1713 956.01c5.1497 4.6816 66.478 82.396 66.478 82.396l41.666 86.609 17.322 74.437 6.0861 98.313-18.726 72.564-28.558 56.179-45.411 46.816-60.392 32.771-75.842 23.408-26.685 3.7452 35.58 85.205 23.408 94.1 5.618 93.164-11.704 83.332 72.565-32.303 89.418-57.584 89.418-74.905 35.58-89.886 32.303-81.46 12.172-74.905 5.6179-78.182-12.64-89.886-25.281-88.014-37.453-87.078-53.37-80.523-64.138-60.861-55.711-37.921z"/><path id="path3941" fill="url(#radialGradient3925)" d="m1275.8 1234.8 17.876-75.477 42.373-80.111 41.711-44.359 72.828-60.249 81.435-35.09 77.463-13.242 62.235 7.2828 63.559 46.345 50.318 68.194 35.09 81.435 18.538 66.87 3.9724 94.677-11.255 66.87-24.497 58.263-45.683 48.994-53.628 34.428-17.214 7.9449 17.214-60.249 1.9862-86.732-16.552-74.815-47.67-79.449-54.952-39.062-48.332-10.593-69.518 5.9587-58.925 27.145-60.911 35.752-48.994 35.752-30.456-31.78z"/><path id="path3865" fill="#5e51a3" d="m277.89 774.66-4.2426 52.326 8.4853 103.24 33.941 105.36 53.74 107.48 84.146 90.51 84.146 60.811-35.355-127.99-40.305-98.995l-61.53-95.46-36.18-23.94-28.75-33.25-3.5-17.5 5.5-27.25 7.75-12.5z"/><path id="path3869" fill="url(#radialGradient3913)" d="m446.65 677.3-6.0104 46.669 15.91 45.962 30.759-25.809-0.7071 38.891 12.728 30.759 22.627 25.102 32.527 4.2426 16.971-21.213 1.4142-42.073-18.385-65.761-27.224-51.265-28.638-22.981-28.638 1.7678-16.617 17.678z"/><path id="path3915" fill="url(#radialGradient3923)" d="m436.99 717.38-14.142 57.983-27.931 44.548-42.426 34.648-19.445 22.627-1.7678 26.87 24.749 35.709 40.305 27.224 59.751 13.081 66.822-14.849 53.033-24.749 34.648-25.456-40.659-9.8995-45.608-29.345-42.426-47.023-26.516-60.811z"/><path id="path3927" fill="url(#radialGradient3935)" d="m583 434-8.5-55.5 9.5-83.5 21.5-71 33.5-54.5 48.5-50 59-16.5 61.5-2.5 53.5 22.5 34 39.5 14 37 4.5 49.5-11.5 66-33.5 70-43 55.5-67-23-10.5-8-33.085-2.8896-23.865-10.783-20.86-24.749-11.137-14.672-19.269 63.993l-28.29 0.1z"/><path id="path3940" fill="#f0f2f3" d="m280.54 492.6-58.5-6-11 66 3 76.5 21 73.5 40.5 65 69 90 42.5-37.5 35.5-42 14-73 2.5-26.5-42.5-40.5-89.5-89z"/><path id="path3982" d="m994.55 639.6c19.926 7.7473 46.212 12.99 73.204 12.396 12.472-0.27428 9.6981 0.69929 0.097 3.0085-27.434 6.5983-56.113 2.7327-71.252-2.6654z"/><path id="path3984" d="m1001.8 658.34c18.175 10.407 43.25 18.812 68.267 22.059 15.16 1.9676 12.029 2.9008-0.1965 4.3857-7.9115 0.96093-15.341 0.95406-22.981 0.38562-4.961-7.0547-10.458-8.659-16.059-2.679-11.253-2.7951-21.218-7.3083-29.207-12.838z"/><path id="path4104" fill="#f0f2f3" d="m1183.3 1236.5-3.875 9.2812-40.656 97.594-1 2.3438 1.3438 2.1874 48.781 79.906 5 8.1563 3.8438-8.75 41.031-93 1-2.3126-1.25-2.2187-49.156-84.5-5.0625-8.6875zm1.4687 22.438 42.813 73.594-36.125 81.906-42.5-69.562 35.812-85.938z"/><path id="path4110" fill="#f0f2f3" d="m1254.7 1357.3-4 8.9063-42.781 95.5-1.0937 2.4374 1.4374 2.2813 52 81.25 5.25 8.1875 3.5938-9 38.188-95.062 0.9063-2.2813-1.2188-2.0937-47.375-81.656-4.9062-8.4687zm1.125 21.906 41.281 71.156-33.625 83.75-45.344-70.812 37.688-84.094z"/><path id="path4116" fill="#f0f2f3" d="m1152.9 1425.4-3.8437 8.3126-44.188 95.812-1.125 2.4376 1.4376 2.3124 52.687 84.125 5.1876 8.3126 3.6562-9.0938 41.375-102.16 0.9688-2.4063-1.375-2.1875-49.875-77.781-4.9063-7.6876zm1.4375 20.781 43.531 67.938-36.75 90.688-46.031-73.531 39.25-85.094z"/><path id="path4237" fill="#f0f2f3" d="m1121.6 1332.7 22.75 46-7.25 62-72.25 81.5 45.75 88 55.75 60-4.5-57.75-52-80.5 42.25-91.5 50.25 73.75-43 106 4.25 51.5 46.25 37.25 106.25-40.5 23.5-82.25-77.25-44.75-49.665-75.851-68.589-118.44 38.891-93.692 12.021 13.435 37.83 67.529-39.598 89.096-7.071 13.435 24.395 42.073 35.709-91.217 10.96-18.031 46.316 82.024-41.366 97.934 74.6 43.841 26.163-98.641v-119.15l-24.395-64.347-39.598-62.932-71.418-44.194-79.196-10.96-77.782 19.445-64.347 30.759 65.761 46.316 47.376 43.487 2.1213 1.0606z"/><path id="path4257" fill="#f0f2f3" d="m1201.4 1698.1 48.083 58.69 31.113 72.125 21.213 70.711 11.314 96.874-0.7071 108.89-16.971 76.368-24.749 38.184 0.7071 29.698 16.971 11.314 43.841 4.9498 88.388 4.2426 73.539-4.2426 26.87-15.556 25.456-40.305-4.9497-92.631-30.406-181.73-49.498-131.52-60.811-118.09-39.598-7.7782-32.527 3.5356-13.435-16.264-53.033-13.435-57.276 45.255z"/><path id="path4259" fill="#f0f2f3" d="m581 435 21 102 35 125 8 84 2 88-13.432 44.604-36.062 43.487-56.215 38.184-66.822 19.445-63.286-2.8284 24.042 39.244 56.569 113.84 32.527 104.65 31.82 125.16 50.558 126.93 62.932 74.953 72.125 53.033 79.196 28.284 102.88 12.728 91.924-1.0607 69.65-6.0104 54.094-6.7175-47.023-56.568-26.87-62.225 57.276-59.397 23.334-64.347-11.314-46.669-53.033-57.983l-236.9-148.7-26.75-14.25 5.5-35.75 35-69.25 59-37.25 53.25-51 63-76.25 15.5-57 11.75-51-7-45.75-4.5-25.75-19-6.25-28.5 9.5-12-51.5-32.25-74.5-55-66.25-47.25-41.75-66.75-30.25-33-1-131-0.75z"/><path id="path4261" fill="#e2e4e6" d="m684.48 1575.8 1.4142 142.13 1.4142 181.02-11.314 105.36-29.698 95.46-17.678 51.619 12.728 26.163 53.033 7.0711 103.24 4.2426 67.882-4.2426 24.749-14.142 19.799-31.113 5.6568-118.09-7.0711-125.86-21.213-118.09-37.477-130.81-60.811-13.435-80.61-35.355z"/><path id="path4263" d="m992.07 1660 39.244 69.65 19.799 67.175 3.182 56.568-6.7175 86.974-23.688 69.296-28.638 69.65-32.527 52.679-27.577 28.991-0.70711 20.506 15.91 12.374 147.43 6.3639 65.761-9.8995 38.184-25.456 21.567-34.295 20.153-74.6 7.4246-111.02-3.182-125.51-16.617-80.964-36.77-45.962-29.698-23.688-23.335 3.182-11.667-11.314-0.3536-13.788-124.8 6.0104z" stroke="#000" stroke-width="1px" fill="#e2e4e6"/></g><g transform="translate(-169.15 -92.029)"><path id="path3838" fill="#4b1566" d="m267.28 770.88c-16.617 273.6 125.27 447.04 269.12 532.59l7.6875-12.906c-139.95-83.3-278.12-250.7-261.84-518.82l-14.97-0.9z"/><path id="path3844" fill="#4b1566" d="m388.44 962.81c-19.347 41.029-39.073 91.035-49.188 126.66l6.75 1.9374c9.9302-34.972 29.588-84.89 48.781-125.59l-6.3438-3z"/><path id="path19" fill="#4b1566" d="m1616.8 920.44c-65.41-0.48331-136.4 24.089-197.31 67.938-74.973 53.968-134.8 137.59-148.78 240.97l14.844 2c13.361-98.811 70.604-178.89 142.69-230.78 72.084-51.888 158.88-75.135 229.84-61 0.01 0.002 0.022-0.002 0.031 0 36.671 8.6096 77.8 45.908 110.88 98.75 33.149 52.961 58.424 121.06 65.688 189.25 7.2638 68.19-3.3976 136.24-41.094 190.22-37.696 53.982-102.56 94.665-206.47 107.56l-10.656 1.3124 4.9063 9.5626c44.054 85.784 83.313 227.46 52.688 350.84l-3.5312 14.312 13.656-5.5625c280.01-114.04 363.32-342.11 336.47-548.06-26.838-205.86-161.64-391.27-319.41-422.84-0.074-0.0149-0.1446-0.0477-0.2187-0.0625-14.306-2.8494-29.124-4.2947-44.219-4.4062zm113.94 46.031c117.14 63.456 213.24 216.11 235.03 383.22 25.734 197.38-50.31 413.14-314.09 526.56 24.812-120.64-10.516-251.9-52.344-337.53 101.08-14.717 167.55-56.515 206.53-112.34 40.318-57.737 51.258-129.63 43.719-200.41-7.5388-70.771-33.483-140.65-67.875-195.59-15.531-24.814-32.76-46.467-50.969-63.906z"/><path id="path3858" fill="#4b1566" d="m1534.5 1148.6c-3.7628-0.041-7.5823 0.065-11.438 0.2812-61.683 3.4579-134.33 38.599-221.5 105.97l9.1875 11.875c85.966-66.436 156.56-99.702 213.16-102.88 56.6-3.173 100.08 22.36 135.78 77.562 41.22 63.739 64.022 146.61 24.219 262.72l14.188 4.875c41.101-119.89 17.307-209.07-25.813-275.75-35.294-54.574-81.339-84.036-137.78-84.656z"/><path id="path3872" fill="#4b1566" d="m2186.8 1779.2c-29.151 1.1585-48.842 11.264-59.656 25.25s-12.437 31.255-7.0937 45.031c5.3436 13.776 18.492 24.459 35 23.656 16.508-0.8026 34.686-12.161 52.781-37.25l-12.188-8.75c-16.551 22.949-31.338 30.546-41.312 31.031-9.9749 0.4849-16.832-5.202-20.281-14.094-3.449-8.8917-2.6407-20.596 4.9687-30.437 7.6095-9.8414 22.36-18.435 48.375-19.469 21.756-0.8645 36.58 7.3925 47.094 20.719s16.245 32.186 16.875 51.5c0.5865 17.99 4.1108 37.881 12.719 55.781 7.762 16.141 19.922 30.67 37.469 39.812-10.47 41.745-24.652 66.974-39.562 79.812-15.609 13.44-31.852 14.89-50.188 8.7812-36.671-12.218-78.147-58.672-103.78-102.09l-12.937 7.625c26.765 45.337 68.126 94.111 111.97 108.72 21.922 7.3038 45.352 5.0461 64.75-11.656s34.858-46.501 45.844-93.562l1.4376-6.1563-5.8126-2.4374c-17.051-7.1997-28.283-19.947-35.687-35.344-7.4042-15.397-10.717-33.387-11.25-49.75-0.7139-21.896-6.9807-43.732-20.063-60.312-13.082-16.581-33.428-27.441-59.469-26.406z"/><path id="path3878" fill="#4b1566" d="m2251.3 1865.2c-5.3553 26.713-14.103 43.25-24.156 52.469-10.053 9.2184-21.555 11.971-35.656 10.312-28.202-3.3169-64.945-26.878-98.531-54.531l-9.5626 11.594c34.4 28.324 71.814 53.786 106.31 57.844 17.25 2.0288 34.225-1.9288 47.594-14.188s22.984-31.959 28.719-60.562l-14.719-2.9375z"/><path id="path3886" fill="#4b1566" d="m2236.2 1915.7c-13.622-17.594-21.569-59.083-32.773-78.125l-23.173 19.862-43.035 7.2828s-12.91-21.518-14.235-22.18c-1.3242-0.6621 3.3103-22.511 3.3103-22.511l7.945-15.89 22.18-9.9311 29.131-6.2897 34.759 4.6345 26.814 27.145 11.586 34.759-2.6483 33.435z"/><path id="path3888" fill="#4b1566" d="m2143.7 1855.6-8.5 12.4c17.086 11.668 44.306 37.638 48.312 66.094l14.9-2.1c-5.0692-36-35.442-63.263-54.687-76.406z"/><path id="path3894" fill="#4c1667" d="m1584.8 997.72c-108.64-0.13013-226.01 92.946-302.22 241.97-0.056 0.1093-0.1316 0.2031-0.1875 0.3125l6.0625 3.5c73.992-113.61 193.3-179.71 293.25-158.72 49.977 10.493 95.407 42.52 128.72 101.91 33.311 59.387 54.349 146.21 54.75 265.59l7-0.031c-0.404-120.2-21.538-208.14-55.656-268.97-34.119-60.826-81.416-94.465-133.38-105.38-89.683-18.83-192.36 29.434-267.16 117.19 77.122-123.3 183.41-195.53 278.91-190.06 53.675 3.0732 104.21 30.33 145.28 87.375 41.07 57.046 72.464 143.95 86.812 265.69l6.9376-0.8126c-14.442-122.53-46.013-210.56-88.063-268.97-42.05-58.407-94.765-87.087-150.56-90.281-3.4874-0.19967-6.9928-0.3083-10.5-0.3125z"/><path id="path3900" fill="#4b1566" d="m1949.7 1257.1c-12.78 100.54-43.244 184.89-95 249.84-51.756 64.957-124.84 110.69-223.5 133.91l1.625 6.8125c99.911-23.506 174.58-70.156 227.34-136.38 52.761-66.219 83.575-151.88 96.469-253.31l-6.9375-0.875z"/><path id="path3902" fill="#4b1566" d="m1968.4 1332.1c-25.387 258.22-199.13 406.6-317.03 451.19l2.4688 6.5625c120.5-45.7 295.8-196.1 321.5-457.1l-6.9688-0.6875z"/><path id="path3912" fill="#4b1566" d="m1987 1690.3-6.9062 1.2813c12.584 67.047 23.473 133.18 18.906 192-4.567 58.821-24.331 110.14-73.25 148.88l4.3438 5.5c50.57-40.045 71.242-93.769 75.906-153.84 4.6645-60.075-6.3977-126.67-19-193.81z"/><path id="path3914" fill="#4b1566" d="m1990.7 1696.8-6.3438 2.9375c35.033 75.97 59.128 147.22 65.719 210.69 6.5905 63.467-4.2118 119-38.844 164.44l5.5625 4.25c35.877-47.076 46.966-104.73 40.25-169.41-6.7157-64.672-31.126-136.54-66.344-212.91z"/><path id="path3924" fill="#4b1566" d="m2100 1907.9-5.3437 4.5c36.796 43.714 71.487 71.701 104.44 78.812 16.475 3.5556 32.529 1.7151 47.531-6.0937 15.002-7.8089 28.913-21.439 41.813-41.219l-5.8438-3.8438c-12.444 19.082-25.577 31.76-39.188 38.844-13.61 7.0843-27.747 8.7268-42.844 5.4688-30.194-6.5162-64.225-33.299-100.56-76.469z"/><path id="path3930" fill="#4b1566" d="m2289.4 1948.5c-18.283 42.292-41.282 61.641-67.062 66.813-25.781 5.1716-55.189-4.0376-85.812-21.188l-3.4062 6.0938c31.349 17.556 62.262 27.621 90.594 21.938 28.332-5.6835 53.262-27.314 72.094-70.875l-6.4062-2.7813z"/><path id="path4006" fill="#bce4f7" d="m768.27 620.16c-67.13-94.65-117.25-83.99-160.16-80.61l19.092 91.217 18.738 100.06 2.8284 50.912 31.82 1.4142 56.922 0.70711 41.366-13.435 17.324-31.466 6.0104-49.851-14.496-35.355z"/><path id="path4008" fill="#bce4f7" d="m917.57 509.12c-62.461-25.689-71.152 9.2121-37.475 84.817l30.475 50.933 36 44 24.5 4.5 33.25-7.5-18.5-60.5-34.5-72.5-46-55.25z"/></g><g transform="translate(-169.15 -92.029)"><path id="path3775" fill="#c2c5c6" d="m408.56 966.16-20.97-3.39 8.91 12.29c97.218 131.31 109.02 237.21 151.12 381 42.093 143.75 108.13 228.4 205.41 270.94 97.277 42.542 224.32 43.299 389.28 23.719l-1.7813-14.906c-163.98 19.5-288.52 18.1-381.44-22.6-92.91-40.6-155.67-120.1-197.03-261.4-41.75-142.6-54.29-251.7-153.47-385.64z"/><path id="path3781" fill="#c2c5c6" d="m687.97 1572.8-15 0.5938c6.3522 153.94 26.004 375.7-32.312 522.31-12.412 31.207-20.101 50.899-16.219 67.469 1.941 8.285 7.8161 15.027 15.812 19.062 7.9964 4.0356 18.069 6.2183 31.094 7.8437 64.098 7.9994 122.25 6.984 183.53 3.0938 28.403-1.8029 46.026-16.524 54.938-34.781 8.9111-18.257 10.299-39.526 10.594-57.094 3.8529-229.44-13.384-295.13-63.062-456.44l-14.34 4.3c49.633 161.16 66.246 223.13 62.406 451.78-0.28344 16.879-1.9605 36.199-9.0625 50.75s-18.432 24.882-42.438 26.406c-60.854 3.8628-117.85 4.8421-180.69-3-12.255-1.5294-20.997-3.7083-26.219-6.3437-5.2218-2.6354-6.9833-4.8876-7.9688-9.0937-1.9708-8.4123 3.2797-27.651 15.562-58.531 60.636-152.45 39.697-375.22 33.375-528.44z"/><path id="path3787" fill="#c2c5c6" d="m991.81 1650.8-11.75 9.3126c45.335 57.112 71.872 129.88 67.406 210.53-3.2173 58.097-20.197 117.07-41.031 166.06-20.834 48.993-45.85 88.215-63.312 106-9.4588 9.6337-18.386 20.661-17.844 33.75 0.27097 6.5443 4.0403 13.189 10.344 17.312 6.3035 4.1235 14.744 6.4436 26.188 7.5312 55.635 5.2879 98.361 5.6644 166.03 3.0938 22.695-0.8621 44.688-6.8163 63.281-20.688 18.594-13.871 33.451-35.498 42.625-66.375 21.175-71.271 47.93-234.74 0.6875-384l-19.508-11.745 5.1954 16.276c45.788 144.67 19.605 306.68-0.75 375.19-8.467 28.499-21.506 46.903-37.219 58.625-15.712 11.722-34.403 16.941-54.875 17.719-67.382 2.5596-109.05 2.1945-164.03-3.0312-10.017-0.9521-16.284-3.1141-19.406-5.1563-3.1218-2.0422-3.473-3.2147-3.5625-5.375-0.1789-4.3206 5.3062-14.216 13.562-22.625 20.057-20.428 44.997-60.354 66.375-110.62 21.378-50.271 38.872-110.66 42.219-171.09 4.6751-84.426-23.198-160.94-70.625-220.69z"/><path id="path3793" fill="#c2c5c6" d="m1152.3 1188.4c-46.757 0.9372-96.659 16.032-145.09 46.844l-8.5599 5.2356 16.622 7.4206c106.05-67.466 215.18-55.712 281.16 14.219 65.977 69.931 89.721 200.04 18.094 373.25-5.1514 12.457-8.5416 25.763-3.0312 37.5 2.7551 5.8683 8.053 10.739 15 13.438 6.9469 2.6983 15.464 3.5671 26.094 2.8125 11.586-0.8225 21.468-2.7513 29.719-0.7188 8.2505 2.0326 16.297 7.3657 25.375 25.094 72.02 140.65 103.3 185.93 129.81 456.72 1.869 19.088-0.2645 41.592-9.5626 58.969-9.298 17.376-24.912 30.209-53.687 32.062-57.978 3.7342-92.076 4.1609-169.16-3.7188-13.701-1.4006-22.458-4.7925-25.531-9.0624-1.5366-2.135-2.4214-4.7878-2.0312-9.5938s2.3162-11.558 6.3438-20.188c17.922-38.398 34.824-73.358 37.312-126.56 11.571-247.4-67.22-359.15-123.5-405.94-70.442-58.558-97.002-102.55-127.22-166l-13.562 6.4687c30.544 64.137 59.302 111.3 131.19 171.06 52.593 43.721 129.51 149.65 118.09 393.69-2.3562 50.379-17.93 82.422-35.906 120.94-4.5056 9.6535-7.0839 17.878-7.6875 25.312-0.6036 7.4343 1.0052 14.304 4.8125 19.594 7.6145 10.579 21.028 13.641 36.156 15.188 77.588 7.9316 113.37 7.5356 171.66 3.7813 33.121-2.1333 54.61-18.769 65.938-39.938 11.327-21.168 13.33-46.285 11.25-67.531-26.612-271.79-59.521-321.83-131.34-462.09-10.283-20.081-22.528-29.702-35.156-32.812-12.628-3.111-24.237-0.376-34.375 0.3437-9.1838 0.652-15.585-0.2867-19.594-1.8437-4.0087-1.5571-5.6974-3.4022-6.8437-5.8438-2.2927-4.8832-1.1582-14.671 3.2813-25.406 73.093-176.75 50.11-313.91-21-389.28-40-42.397-94.946-64.611-155.06-63.406z"/><path id="path3799" fill="#c2c5c6" d="m1120.1 1644.9c-0.6867 7.294-0.1863 13.596 2 19.031 2.1863 5.4348 6.2845 9.7674 11.156 12.281 9.7434 5.0277 21.397 4.2125 34.687 2.125l-2.3124-14.812c-12.189 1.9145-21.386 1.4665-25.5-0.6562-2.0569-1.0614-3.136-2.1504-4.0938-4.5313s-1.5707-6.3008-1.0312-12.031l-14.906-1.4062z"/><path id="path3757" fill="#c2c5c6" d="m909.36 1415.2c-13.712 26.754-32.094 51.724-51.905 76.225-2.9884 3.6959-2.99 5.0286 1.7974 1.5548 26.602-19.303 48.19-43.184 66.825-72.152z"/><path id="path3759" fill="#c2c5c6" d="m798.53 1118.4c-7.7447-0.2651-14.587 2.4803-19.656 6.5937-10.139 8.2269-14.446 20.705-18.031 29.438-33.56 81.739-23.423 143.49 12.219 187.16 35.642 43.671 94.993 69.198 158.72 84.219 21.156 4.9868 49.314 6.1464 69.685 3.0613 25.803-3.9077 26.323-4.7309 1.1179-6.9578-10.43-0.9215-46.25-5.7681-67.366-10.697-62.008-14.474-118.29-39.618-150.53-79.125-32.244-39.507-42.157-93.571-9.9688-171.97 3.6844-8.9738 8.0841-19.03 13.594-23.5 2.7548-2.2352 5.4865-3.3636 9.7188-3.2187 4.2322 0.1449 10.207 1.8816 18.219 6.8437 114.68 71.028 166.19 97.682 250.72 154.34 33.372 22.371 52.922 45.004 62.375 66.812s9.1707 43.007 1.9062 64.125c-14.529 42.235-58.72 83.245-109.03 114.91-12.653 7.9624-58.783 34.468-75.429 41.512-6.1678 2.6098-8.5628 5.8079 0.49292 4.1192 31.249-5.8275 54.592-15.263 82.905-32.913 52.029-32.435 98.718-74.693 115.25-122.75 8.2658-24.028 8.5967-49.729-2.3437-74.969s-32.776-49.816-67.781-73.281c-85.059-57.02-136.76-83.802-251.16-154.66-9.4895-5.8774-17.88-8.8286-25.625-9.0937z"/><path id="path3765" fill="#c2c5c6" d="m857.67 1020.9c-25.522 37.566-47.197 64.957-46.354 112.71l15-0.25c-0.79849-45.228 19.86-68.336 47.406-109.47l-9.0446-6.0677c-1.939-1.2735-4.6068-0.4544-7.0074 3.0798z"/><path id="path3771" fill="#c2c5c6" d="m238.94 480.75c-5.1199-0.0274-10.237 0.11289-15.531 0.375l-5.72 0.29-1.22 5.59c-32.67 148.43 11.12 259.18 130.41 380.28l10.68-10.53c-115.84-117.6-156.95-219.6-127.56-360.81 17.739-0.55989 33.453 0.48327 56.625 5.3438l3.0938-14.688c-20.03-4.2-35.41-5.76-50.77-5.84z"/><path id="path3778" fill="#c2c5c6" d="m284.44 639.6c13.413 50.508 46.391 102.45 91.643 133.18 17.46 11.482 14.222 8.365 2.8805-3.8328-37.96-40.883-66.348-84.829-89.85-130.34-8.6678-19.14-9.1659-16.035-4.6731 0.99575z"/><path id="path3780" fill="#c2c5c6" d="m1052.9 786.07c-14.505 37.884-62.686 38.554-83.431 15.556-4.4842-4.9713-4.3941-1.61-3.1081 1.861 10.025 27.058 64.581 40.687 86.071 4.1182z"/><path id="path3782" fill="#c2c5c6" d="m639.88 412c-20.573 0.26766-42.131 4.6236-60.812 13.875l6.6562 13.469c16.21-8.04 35.78-12.11 54.33-12.35l-0.1875-15z"/><path id="path3864" fill="#4b1566" d="m1785 1808.8 71.504-64.221 80.111-113.22c71.409 426.11-240.04 513.47-151.62 177.44z"/><path id="path3866" fill="#4b1566" d="m1936.7 1639.5-12.094 8.875c17.514 23.848 47.288 54.067 97.5 68.062 39.206 73.8 62.774 150.4 69.312 217.69 6.3106 64.937-3.3897 120.87-28.531 157.44-76.834-45.132-151.85-74.059-226.88-77.75-21.77-1.071-35.499-9.6307-45.219-23.188s-14.989-32.67-16.719-53.906c-3.46-42.473 7.2362-92.889 17.313-120.75l-14.094-5.0938c-10.857 30.018-21.89 81.225-18.156 127.06 1.867 22.919 7.4117 44.621 19.469 61.438 12.057 16.816 31.068 28.177 56.688 29.438 73.57 3.6196 148.23 32.634 225.91 79.062l5.75 3.4062 4.0626-5.2812c31.479-40.898 42.163-102.82 35.312-173.31-6.8502-70.491-31.451-149.83-72.406-226.09l-1.5312-2.875-3.1876-0.8438c-48.296-12.521-75.79-40.622-92.5-63.375z"/><path id="path3867" fill="#5e51a3" d="m681.5 117-87 41-120 81.5-107.5 94-63 70-22 49.5 1 47 27 48 129 136.5 17.5-34.5 27-8 32 8.5 27 43.5 28.5 67.5 2 40.5-7 31.5-29 11-26.5-14-17.5-31.5-5-49.5-30 23.5 20.5 54.5 37.5 44 52 32.5 39 13.5 24.5-38 15.5-52-1.5-89-18.5-116-39.5-141-12-103 13-98.5 24.5-66 32-53 40-40z"/><path id="path3960" d="m764.45 619.31c70.189 113.13 7.6592 178.25-112.39 153.24l-0.7071 21.213c117.46 28.014 219.43-52.303 116.18-177.01-8.7654-10.587-10.309-9.0871-3.0822 2.5618z"/><path id="path3980" fill="#c2c5c6" d="m1009.1 748.9c-3.0602 15.545-15.558 17.238-28.124 6.2101-5.0244-4.4093-5.3706-5.2177 1.8201-2.2371 9.932 4.1168 17.96 2.5918 23.408-5.5399 3.6927-5.5111 4.4954-6.5597 2.8956 1.5669z"/><path id="path3986" d="m956.44 690.42c-25.634-23.475-51.412-57.991-69.443-87.932-9.5574-15.87-9.3034-12.806-3.6825 1.2742 12.719 31.86 38.338 65.627 54.52 81.736z"/></g><g transform="translate(-169.15 -92.029)" fill="#4b1566"><path id="path3800" d="m774.19 92.031c-36.927 0.17298-79.86 10.581-128.12 33.438-91.332 43.252-242.89 145.26-335.09 258.38-23.23 28.498-34.891 55.035-36.625 80.75-1.7336 25.715 6.5236 50.02 21.156 73.844 29.265 47.647 83.896 94.784 143.22 155.22l10.688-10.531c-59.793-60.914-113.96-108.3-141.12-152.53-13.584-22.116-20.447-43.076-18.969-65s11.367-45.398 33.281-72.281c89.87-110.27 241.04-212.21 329.89-254.29 62.323-29.514 114.05-36.855 153.72-29.125 39.667 7.73 67.589 30.127 83.656 62.094 32.135 63.933 15.154 167.94-66.812 262.59l11.344 9.8125c84.84-97.96 104.79-207.59 68.84-279.12-17.98-35.76-50.36-61.56-94.16-70.092-10.95-2.134-22.59-3.214-34.9-3.157z"/><path id="path3817" d="m783.53 92.219c-93.87-1.985-155.88 61.491-187.59 142.4-31.714 80.913-34.843 179.81-12.812 254.5 50.223 170.27 64.307 273.05 55.312 337.56-8.9948 64.517-39.38 91.351-83.156 114.34-87.345 45.876-151.53 35.884-191.38-5.7188-9.624-10.048-16.552-18.665-20.531-26.156-3.9795-7.4916-5.1435-13.525-3.9375-20.125 2.4121-13.2 16.75-30.708 48.281-56.188 33.162-26.797 49.853-57.115 54.25-117.81 0.98231-13.559 5.126-28.14 11.406-40.094 6.2802-11.954 14.695-21.064 23.25-24.812 8.5553-3.7485 17.354-3.3966 28.875 5.3438s24.97 26.636 38.406 57.156c20.41 46.361 24.723 78.593 21.281 97.75-3.4416 19.157-12.57 25.136-23.531 25.125-21.922-0.0222-55.96-33.289-42.844-92.344 2.6505-11.934 5.6495-23.745 9.5603-35.121-6.0758 9.7686-14.127 19.214-22.529 28.527-6.6709 7.3946-28.688 26.312-28.688 26.312l7.1501 13.533s9.2343-7.6848 16.725-14.377c-3.0783 53.348 29.252 88.437 60.625 88.469 17.773 0.018 33.974-13.524 38.281-37.5 4.3074-23.976-1.2024-58.455-22.312-106.41-14.034-31.877-28.296-51.891-43.062-63.094s-30.824-12.839-43.938-7.0938c-13.113 5.7455-23.198 17.603-30.531 31.562-7.3337 13.959-11.921 30.244-13.062 46-4.2387 58.508-17.755 82.142-48.75 107.19-32.297 26.098-49.901 44.778-53.625 65.156-1.8619 10.189 0.37753 20.29 5.4688 29.875 5.0912 9.5845 12.906 18.994 22.969 29.5 44.704 46.674 118.26 56.384 209.19 8.625 45.709-24.008 81.449-56.831 91.031-125.56 9.5824-68.731-5.3136-172.78-55.781-343.88-20.89-70.821-17.928-167.47 12.375-244.78 30.303-77.312 86.252-134.72 173.31-132.88z"/><path id="path3823" d="m467.62 637.84c-19.451 11.489-28.429 35.137-29.781 62.531-1.3519 27.395 4.7871 59.41 17.438 90.719 25.301 62.617 77.275 123.07 150.78 131.12l1.625-14.938c-66.12-7.24-114.61-62.67-138.49-121.77-11.941-29.552-17.586-59.859-16.375-84.406 1.2114-24.547 9.143-42.46 22.438-50.312l-7.625-12.938z"/><path id="path3829" d="m656.19 149.06-1.375 6.875c57.369 11.654 97.264 45.981 127.47 92.062 30.205 46.082 50.465 103.86 67.875 161.5l6.6875-2c-17.48-57.83-37.84-116.19-68.73-163.31-30.88-47.12-72.54-83.06-131.93-95.13z"/><path id="path3831" d="m619.84 201.59-1.6875 6.8125c88.701 21.965 149.69 122.38 170.41 220.81l6.875-1.4375c-21.09-100.18-82.82-203.2-175.6-226.18z"/><path id="path3841" d="m405.03 813.38-6.7812 1.75c19.687 75.679 69.604 122.96 149.41 139.38l1.4062-6.8438c-77.81-16.01-124.89-60.69-144.04-134.29z"/><path id="path3843" d="m363.97 851.09-6.72 1.97c21.543 73.823 59.646 105.67 113.09 126.72l2.5938-6.5c-52.3-20.6-87.88-49.94-108.96-122.19z"/><path id="path3845" d="m439.5 274.91-7 0.1875c1.5656 63.487 22.95 132 43.938 198.09 20.987 66.09 41.55 129.78 42.062 182.84l7-0.0625c-0.53-54.81-21.43-118.85-42.41-184.91-20.97-66.06-42.06-134.12-43.59-196.15z"/><path id="path3847" d="m547.94 188.31c-78.97 143.75-32.646 270.5 6.5312 383.34 19.589 56.42 37.345 109.5 37.25 159.62-0.0954 50.127-17.634 97.387-69.531 143.59l4.625 5.25c53.097-47.275 71.808-97.065 71.906-148.84 0.0986-51.778-18.022-105.48-37.625-161.94-39.21-112.91-84.62-236.42-7.04-377.64l-6.125-3.375z"/></g><g transform="translate(-169.15 -92.029)"><path id="path3938" fill="#f0f2f3" d="m636 430 34.5-130 25.5-84 30-56.5 13-4.5 11 11.5 10.5 62 2 106.5-8 111-43 16z"/></g><g transform="translate(-169.15 -92.029)" fill="#c2c5c6"><path id="path3789" d="m758.81 412.53-1.7188 14.906c125.61 14.336 214.1 139.26 240.25 258.19l14.66-3.22c-27.19-123.68-118.7-254.53-253.19-269.88z"/><path id="path3796" d="m1037.2 668.56c-5.69-0.18812-11.683 1.3572-18.344 4.4062-13.613 6.2319-25.695 10.845-36.844 12.531-20.055 2.7377-32.731 1.3569-44.388-0.20978 10.743 12.645 31.605 17.216 46.638 15.022 13.497-2.0415 26.751-7.2359 40.844-13.688 5.2709-2.413 9.1205-3.1755 11.594-3.0938 2.4732 0.0818 3.6492 0.67814 5.0313 1.9688 2.7641 2.5812 5.5596 9.8692 7.0312 19.75 13.31 89.37-13.305 149.98-62.938 209.44-56.51 67.702-137.91 114.02-211.48 144.36-11.86 4.3357-9.8591 4.4849 0.44084 2.7061 74.027-12.865 167.56-70.298 222.54-137.44 50.628-61.826 80.18-127.96 66.281-221.28-1.6468-11.056-4.0325-21.41-11.625-28.5-3.7963-3.545-9.0913-5.7806-14.781-5.9688z"/><path id="path3802" d="m706.91 203.78-6.53 2.6c5.3964 13.606 11.454 25.799 20.438 34.219 8.983 8.4194 21.124 12.673 36.781 10.094l-1.1562-6.9062c-13.969 2.3007-23.211-1.1276-30.844-8.2812-7.6325-7.1536-13.432-18.469-18.688-31.719z"/><path id="path3804" d="m685.31 273.94-6.4375 2.75c8.7092 20.411 20.171 35.639 33.625 44.906 13.454 9.2673 28.975 12.409 44.844 8.625l-1.625-6.8125c-14.057 3.3522-27.227 0.71908-39.25-7.5625s-22.825-22.381-31.156-41.906z"/><path id="path3806" d="m663.16 352.28-6.125 3.375c11.743 21.309 22.998 36.133 38.062 45.406 15.065 9.2729 33.585 12.7 59.188 12.094l-0.17-6.97c-24.9 0.5895-41.824-2.753-55.375-11.094-13.55-8.3408-24.101-21.959-35.594-42.812z"/><path id="path3820" d="m736.69 147.22c-10.593 0.64655-17.835 9.1112-25.562 21.5-7.7272 12.389-15.757 30.012-24.25 53.219-16.987 46.413-35.749 115.07-55.188 206.31l-0.75 3.625c4.3052 6.5835 18.712 16.216 29.97 18.269 4.4886 0.81825 6.0936 0.84854 1.841-2.8918-6.3807-5.6735-12.092-11.805-15.561-19.471 19.057-88.906 37.445-156.05 53.781-200.69 8.2846-22.636 16.089-39.557 22.875-50.438 6.7864-10.88 12.732-14.407 13.75-14.469 0.50913-0.0311 0.77079-0.16532 2.1875 1.3438s3.3827 4.7409 5.1875 9.625c3.6096 9.7683 6.6796 25.891 8.5938 47.719 3.8282 43.655 3.3648 110.33-3.0938 199.5-0.57988 8.0065-1.5111 19.751-0.51847 27.218 1.2259 9.2213 6.7633 9.9876 10.311 0.2531 3.3963-9.3179 4.5682-17.912 5.1758-26.408 6.4103-89.642 7.0172-156.78 3.0625-201.88-1.9774-22.548-5.0081-39.554-9.4688-51.625-2.2303-6.0357-4.769-10.913-8.3125-14.688-3.5435-3.7744-8.7349-6.3545-14.031-6.0312z"/></g></svg>