<?xml version="1.0" encoding="UTF-8" standalone="no"?>
<!-- Created with Inkscape (http://www.inkscape.org/) -->

<svg
   xmlns:dc="http://purl.org/dc/elements/1.1/"
   xmlns:cc="http://creativecommons.org/ns#"
   xmlns:rdf="http://www.w3.org/1999/02/22-rdf-syntax-ns#"
   xmlns:svg="http://www.w3.org/2000/svg"
   xmlns="http://www.w3.org/2000/svg"
   xmlns:xlink="http://www.w3.org/1999/xlink"
   xmlns:sodipodi="http://sodipodi.sourceforge.net/DTD/sodipodi-0.dtd"
   xmlns:inkscape="http://www.inkscape.org/namespaces/inkscape"
   width="5792.5825"
   height="5792.5669"
   id="svg2"
   version="1.1"
   inkscape:version="0.48.4 r9939"
   sodipodi:docname="Silver Spoon.svg"
   inkscape:export-filename="C:\Temp\Vector\Vector All the Ponies\Silver Spoon.png"
   inkscape:export-xdpi="90"
   inkscape:export-ydpi="90">
  <title
     id="title3767">Silver Spoon</title>
  <defs
     id="defs4">
    <linearGradient
       id="linearGradient4078">
      <stop
         style="stop-color:#b08cd4;stop-opacity:1;"
         offset="0"
         id="stop4080" />
      <stop
         style="stop-color:#64338e;stop-opacity:1;"
         offset="1"
         id="stop4082" />
    </linearGradient>
    <clipPath
       clipPathUnits="userSpaceOnUse"
       id="clipPath3878">
      <path
         style="opacity:0.5;fill:#00ff00;fill-opacity:1;stroke:#ff0000;stroke-width:1px;stroke-linecap:butt;stroke-linejoin:miter;stroke-opacity:1"
         d="m 2913.2799,3676.4471 c -68.0144,26.2349 -128.5326,63.1893 -176.7767,128.6935 -24.2142,32.8772 -106.5979,34.4015 -132.6934,0.7573 -31.9006,-41.1285 -65.4833,-81.4238 -115.9655,-110.3086 l -78.0244,136.4213 -7.0711,202.2325 475.1758,11.3138 41.0122,-181.0194 z"
         id="path3880"
         inkscape:connector-curvature="0"
         sodipodi:nodetypes="csscccccc" />
    </clipPath>
    <clipPath
       clipPathUnits="userSpaceOnUse"
       id="clipPath3882">
      <path
         style="opacity:0.5;fill:#00ff00;fill-opacity:1;stroke:#ff0000;stroke-width:1px;stroke-linecap:butt;stroke-linejoin:miter;stroke-opacity:1"
         d="m 2913.2799,3676.4471 c -68.0144,26.2349 -128.5326,63.1893 -176.7767,128.6935 -24.2142,32.8772 -106.5979,34.4015 -132.6934,0.7573 -31.9006,-41.1285 -65.4833,-81.4238 -115.9655,-110.3086 l -78.0244,136.4213 -7.0711,202.2325 475.1758,11.3138 41.0122,-181.0194 z"
         id="path3884"
         inkscape:connector-curvature="0"
         sodipodi:nodetypes="csscccccc" />
    </clipPath>
    <clipPath
       clipPathUnits="userSpaceOnUse"
       id="clipPath3886">
      <path
         style="opacity:0.5;fill:#00ff00;fill-opacity:1;stroke:#ff0000;stroke-width:1px;stroke-linecap:butt;stroke-linejoin:miter;stroke-opacity:1"
         d="m 2913.2799,3676.4471 c -68.0144,26.2349 -128.5326,63.1893 -176.7767,128.6935 -24.2142,32.8772 -106.5979,34.4015 -132.6934,0.7573 -31.9006,-41.1285 -65.4833,-81.4238 -115.9655,-110.3086 l -78.0244,136.4213 -7.0711,202.2325 475.1758,11.3138 41.0122,-181.0194 z"
         id="path3888"
         inkscape:connector-curvature="0"
         sodipodi:nodetypes="csscccccc" />
    </clipPath>
    <clipPath
       clipPathUnits="userSpaceOnUse"
       id="clipPath4038">
      <path
         style="opacity:0.5;fill:#00ff00;fill-opacity:1;stroke:#ff0000;stroke-width:1.04457796px;stroke-linecap:butt;stroke-linejoin:miter;stroke-opacity:1"
         d="m 5026.2407,2856.3209 c -142.0453,129.7573 -403.6055,226.7929 -626.1736,216.5932 -119.4882,-118.2009 -256.8588,-215.0007 -293.32,-432.5658 73.5291,-89.117 220.1204,-192.6819 326.3874,-251.326 227.6462,111.7035 431.9097,265.5063 593.1062,467.2986 z"
         id="path4040"
         inkscape:connector-curvature="0"
         sodipodi:nodetypes="ccccc" />
    </clipPath>
    <clipPath
       clipPathUnits="userSpaceOnUse"
       id="clipPath4042">
      <path
         style="opacity:0.5;fill:#00ff00;fill-opacity:1;stroke:#ff0000;stroke-width:1.02691102px;stroke-linecap:butt;stroke-linejoin:miter;stroke-opacity:1"
         d="m 5144.5391,2476.216 c 5.6649,191.9447 -88.1701,451.2181 -236.1836,610.2735 -162.293,10.5803 -320.1504,48.6869 -503.0368,-68.5354 -19.0603,-113.9256 -2.6089,-291.8746 21.3914,-409.9682 225.8044,-95.4755 467.7806,-145.5905 717.829,-131.7699 z"
         id="path4044"
         inkscape:connector-curvature="0"
         sodipodi:nodetypes="ccccc" />
    </clipPath>
    <clipPath
       clipPathUnits="userSpaceOnUse"
       id="clipPath4046">
      <path
         style="opacity:0.5;fill:#00ff00;fill-opacity:1;stroke:#ff0000;stroke-width:0.97251809px;stroke-linecap:butt;stroke-linejoin:miter;stroke-opacity:1"
         d="m 5056.274,2376.0318 c 19.8461,180.5399 -49.2633,432.1717 -177.1444,593.4583 -152.587,22.3907 -298.9036,70.3949 -480.6031,-26.1366 -26.6157,-105.9556 -24.5028,-274.9917 -10.736,-388.1711 206.203,-107.2918 431.115,-173.053 668.4835,-179.1506 z"
         id="path4048"
         inkscape:connector-curvature="0"
         sodipodi:nodetypes="ccccc" />
    </clipPath>
    <clipPath
       clipPathUnits="userSpaceOnUse"
       id="clipPath4050">
      <path
         style="opacity:0.5;fill:#00ff00;fill-opacity:1;stroke:#ff0000;stroke-width:1px;stroke-linecap:butt;stroke-linejoin:miter;stroke-opacity:1"
         d="m 5063.6569,2484 c -34.1748,188.7414 -174.2979,422.093 -344,546 -152.4303,-24.1962 -306.4071,-20.5546 -451.6569,-174 5.7501,-115.3646 57.5267,-285.7258 104,-396 228.6667,-45.2347 462.9902,-42.7097 691.6569,24 z"
         id="path4052"
         inkscape:connector-curvature="0"
         sodipodi:nodetypes="ccccc" />
    </clipPath>
    <clipPath
       clipPathUnits="userSpaceOnUse"
       id="clipPath4054">
      <path
         style="opacity:0.5;fill:#00ff00;fill-opacity:1;stroke:#ff0000;stroke-width:0.91243815px;stroke-linecap:butt;stroke-linejoin:miter;stroke-opacity:1"
         d="m 3504.9969,1987.6758 c 99.0002,71.2551 188.1794,151.321 233.0807,271.1111 -69.7147,147.3172 -173.9999,271.9368 -322.6044,367.4583 -149.728,-15.0759 -331.5036,-66.4865 -433.6245,-196.535 151.9425,-162.9891 306.2153,-338.1321 523.1482,-442.0344 z"
         id="path4056"
         inkscape:connector-curvature="0"
         sodipodi:nodetypes="ccccc" />
    </clipPath>
    <clipPath
       clipPathUnits="userSpaceOnUse"
       id="clipPath4058">
      <path
         style="opacity:0.5;fill:#00ff00;fill-opacity:1;stroke:#ff0000;stroke-width:0.98685312px;stroke-linecap:butt;stroke-linejoin:miter;stroke-opacity:1"
         d="m 3571.4042,2237.8786 c 12.7898,145.9265 12.765,289.426 -45.0349,421.9832 -152.6029,47.0951 -311.2604,44.8907 -477.6798,-20.5155 -86.7377,-150.3679 -167.9683,-358.0419 -140.0462,-551.4754 217.6526,17.3103 445.6628,27.5606 662.7609,150.0077 z"
         id="path4060"
         inkscape:connector-curvature="0"
         sodipodi:nodetypes="ccccc" />
    </clipPath>
    <clipPath
       clipPathUnits="userSpaceOnUse"
       id="clipPath4062">
      <path
         style="opacity:0.5;fill:#00ff00;fill-opacity:1;stroke:#ff0000;stroke-width:1.03623915px;stroke-linecap:butt;stroke-linejoin:miter;stroke-opacity:1"
         d="m 3736.1661,2116.4369 c 19.7915,148.3217 25.6859,294.9432 -31.076,433.8994 -162.3596,57.4036 -333.2721,64.8039 -515.1495,8.1002 -99.5923,-148.3606 -195.6198,-355.6086 -173.5382,-554.9472 235.054,4.4448 480.9685,1.046 719.7637,112.9476 z"
         id="path4064"
         inkscape:connector-curvature="0"
         sodipodi:nodetypes="ccccc" />
    </clipPath>
    <clipPath
       clipPathUnits="userSpaceOnUse"
       id="clipPath4066">
      <path
         style="opacity:0.5;fill:#00ff00;fill-opacity:1;stroke:#ff0000;stroke-width:1px;stroke-linecap:butt;stroke-linejoin:miter;stroke-opacity:1"
         d="m 3570,2288 c -14.9573,145.7344 -42.3794,286.6746 -126,406 -162.948,17.5527 -322.5919,-14.4553 -478,-110 -58.7987,-164.006 -101.1004,-383.2621 -36,-568 216.2783,57.9417 444.3539,110.8974 640,272 z"
         id="path4068"
         inkscape:connector-curvature="0"
         sodipodi:nodetypes="ccccc" />
    </clipPath>
    <linearGradient
       inkscape:collect="always"
       xlink:href="#linearGradient4078"
       id="linearGradient4084"
       x1="3495.0613"
       y1="2400.3323"
       x2="3508.0859"
       y2="1946.4741"
       gradientUnits="userSpaceOnUse" />
    <linearGradient
       inkscape:collect="always"
       xlink:href="#linearGradient4078"
       id="linearGradient4086"
       x1="4653.5596"
       y1="2834.8545"
       x2="4558.2935"
       y2="2400.6079"
       gradientUnits="userSpaceOnUse" />
  </defs>
  <sodipodi:namedview
     id="base"
     pagecolor="#ffffff"
     bordercolor="#666666"
     borderopacity="1.0"
     inkscape:pageopacity="0.0"
     inkscape:pageshadow="2"
     inkscape:zoom="0.099833333"
     inkscape:cx="2869.6009"
     inkscape:cy="2846.5338"
     inkscape:document-units="px"
     inkscape:current-layer="layer2"
     showgrid="false"
     fit-margin-top="0"
     fit-margin-left="43.42"
     fit-margin-right="43.42"
     fit-margin-bottom="0"
     inkscape:window-width="1920"
     inkscape:window-height="1028"
     inkscape:window-x="1272"
     inkscape:window-y="217"
     inkscape:window-maximized="1" />
  <metadata
     id="metadata7">
    <rdf:RDF>
      <cc:Work
         rdf:about="">
        <dc:format>image/svg+xml</dc:format>
        <dc:type
           rdf:resource="http://purl.org/dc/dcmitype/StillImage" />
        <dc:title>Silver Spoon</dc:title>
      </cc:Work>
    </rdf:RDF>
  </metadata>
  <g
     inkscape:groupmode="layer"
     id="layer17"
     inkscape:label="Background"
     sodipodi:insensitive="true"
     style="display:none"
     transform="translate(-80.399074,-53.96628)">
    <rect
       style="color:#000000;fill:#000000;fill-opacity:1;fill-rule:nonzero;stroke:#00ff00;stroke-width:1;stroke-linecap:butt;stroke-linejoin:miter;stroke-miterlimit:4;stroke-opacity:1;stroke-dasharray:none;stroke-dashoffset:0;marker:none;visibility:visible;display:inline;overflow:visible;enable-background:accumulate"
       id="rect4215"
       width="5962.3242"
       height="6064.1479"
       x="-33.941124"
       y="-7.5792017" />
  </g>
  <g
     inkscape:groupmode="layer"
     id="layer2"
     inkscape:label="Shadow"
     style="opacity:0.2;display:none"
     sodipodi:insensitive="true"
     transform="translate(-80.399074,-53.96628)">
    <path
       sodipodi:type="arc"
       style="color:#000000;fill:#000000;fill-opacity:1;fill-rule:nonzero;stroke:none;stroke-width:1px;marker:none;visibility:visible;display:inline;overflow:visible;enable-background:accumulate"
       id="path3765"
       sodipodi:cx="2634.3906"
       sodipodi:cy="5454.0903"
       sodipodi:rx="2273.7896"
       sodipodi:ry="285.4758"
       d="m 4908.1802,5454.0903 c 0,157.664 -1018.0103,285.4758 -2273.7896,285.4758 -1255.7793,0 -2273.78953,-127.8118 -2273.78953,-285.4758 0,-157.6639 1018.01023,-285.4758 2273.78953,-285.4758 1255.7793,0 2273.7896,127.8119 2273.7896,285.4758 z"
       transform="matrix(0.98670009,0.01296565,-0.01481443,1.1577975,-34.414,-689.45563)" />
  </g>
  <g
     inkscape:groupmode="layer"
     id="layer3"
     inkscape:label="Rear Legs"
     sodipodi:insensitive="true"
     style="display:inline"
     transform="translate(-80.399074,-53.96628)">
    <path
       style="fill:#99a5b0;fill-opacity:1;stroke:#7c929a;stroke-width:59;stroke-linecap:butt;stroke-linejoin:miter;stroke-miterlimit:4;stroke-opacity:1;stroke-dasharray:none"
       d="m 3270.4508,4352.2538 c 26.5547,389.071 103.3146,750.1078 220.3672,1086.8113 46.0153,132.3636 122.3369,202.9648 210.3506,220.3673 198.7921,39.3061 388.2866,35.5676 570.9516,15.025 160.612,-18.0625 119.6023,-106.8858 70.1169,-175.2922 -235.9022,-326.1007 -622.5201,-916.4687 -651.0852,-1387.3121 z"
       id="path3773"
       inkscape:connector-curvature="0"
       sodipodi:nodetypes="csssscc" />
    <path
       style="fill:#99a5b0;fill-opacity:1;stroke:#7c929a;stroke-width:59;stroke-linecap:butt;stroke-linejoin:miter;stroke-miterlimit:4;stroke-opacity:1;stroke-dasharray:none"
       d="m 2068.4474,4196.995 c -9.6741,327.4659 -13.5909,798.2734 37.0751,1147.9199 19.515,134.6729 71.6473,192.6851 143.2254,214.3505 178.2116,53.9415 340.1231,50.8752 510.8514,55.0919 84.6598,2.0909 147.3939,-50.4884 135.2254,-135.2254 -59.9386,-417.3891 -74.2434,-831.3857 -95.1586,-1247.0785 z"
       id="path3775"
       inkscape:connector-curvature="0"
       sodipodi:nodetypes="csssscc" />
  </g>
  <g
     inkscape:groupmode="layer"
     id="layer5"
     inkscape:label="Tail"
     sodipodi:insensitive="true"
     style="display:inline"
     transform="translate(-80.399074,-53.96628)">
    <path
       style="fill:#d9e3e9;fill-opacity:1;stroke:none"
       d="m 1906.3599,3335.6216 c -7.3398,-318.35 -176.5798,-598.2459 -463.8621,-712.7636 -320.9488,-127.9379 -717.2304,-102.7605 -969.94946,171.7646 -249.03808,270.5265 -174.59923,581.0506 -53.94113,795.5575 80.64047,143.3632 198.05688,312.1021 248.90159,463.862 41.5704,124.0782 71.99253,264.5187 -16.97056,418.6073 -76.93628,133.2575 -263.16067,84.9459 -316.78384,-16.9706 -79.54197,-151.1779 -31.69651,-309.2414 -16.97057,-463.8621 -166.92388,180.6107 -233.157259,553.3086 -67.88225,763.6753 292.23571,371.966 795.95412,211.5227 950.35152,11.3138 151.9506,-197.0361 185.6038,-515.3234 147.0782,-729.7343 -33.1392,-184.4333 -58.4727,-315.2118 -16.9706,-509.1168 61.5609,-287.6235 377.7728,-133.4462 395.9798,-28.2843 z"
       id="path3778-1"
       inkscape:connector-curvature="0"
       sodipodi:nodetypes="csssssscsssscc" />
    <path
       style="fill:#e9eff2;fill-opacity:1;stroke:none"
       d="m 1855.4482,3397.847 c -70.4833,-258.4063 -151.265,-542.8437 -408.9504,-669.8519 -293.507,-144.664 -647.4471,-142.199 -847.15552,58.2254 -405.12435,406.5769 -86.803,924.4028 45.5391,1182.9688 39.0402,156.5063 78.18073,329.0126 33.94113,485.5189 170.09109,-173.6707 146.48193,-442.6635 56.56854,-694.8225 -79.42,-222.7306 -211.16815,-516.9855 -5.65685,-707.1068 225.66533,-208.7661 536.0484,-159.5297 761.0479,-26.6274 167.8822,99.1644 200.7382,299.943 241.1859,467.8621 z"
       id="path3782"
       inkscape:connector-curvature="0"
       sodipodi:nodetypes="cssccssscc" />
    <path
       style="fill:none;stroke:#b9cad6;stroke-width:59;stroke-linecap:butt;stroke-linejoin:miter;stroke-miterlimit:7;stroke-opacity:1;stroke-dasharray:none"
       d="m 1906.3599,3335.6216 c -7.3398,-318.35 -176.5798,-598.2459 -463.8621,-712.7636 -320.9488,-127.9379 -717.2304,-102.7605 -969.94946,171.7646 -249.03807,270.5265 -174.59923,581.0506 -53.94113,795.5575 80.64047,143.3632 198.05688,312.1021 248.90159,463.862 41.5704,124.0782 71.99253,264.5187 -16.97056,418.6073 -76.93628,133.2575 -263.16067,84.9459 -316.78384,-16.9706 -79.54197,-151.1779 -31.69651,-309.2414 -16.97057,-463.8621 -166.92387,180.6107 -233.157254,553.3086 -67.88225,763.6753 292.23571,371.966 795.95412,211.5227 950.35152,11.3138 151.9506,-197.0361 185.6038,-515.3234 147.0782,-729.7343 -33.1392,-184.4333 -58.4727,-315.2118 -16.9706,-509.1168 61.5609,-287.6235 377.7728,-133.4462 395.9798,-28.2843 z"
       id="path3778"
       inkscape:connector-curvature="0"
       sodipodi:nodetypes="csssssscsssscc" />
  </g>
  <g
     inkscape:groupmode="layer"
     id="layer4"
     inkscape:label="Body + Forward Legs"
     style="display:inline"
     sodipodi:insensitive="true"
     transform="translate(-80.399074,-53.96628)">
    <path
       style="fill:#a9b5c0;fill-opacity:1;stroke:none"
       d="m 2008,4360 c 189.566,206.5966 448.8651,192.3716 700,204 l 520,-12 c 216.825,-37.3101 427.7415,-105.344 592,-416 98.5514,-163.6955 181.9458,-331.1802 196,-516 l 84,-432 -892,-284 c 24.8047,253.867 -122.3525,393.6004 -380,460 l -304,-80 z"
       id="path3836"
       inkscape:connector-curvature="0"
       sodipodi:nodetypes="cccccccccc" />
    <path
       style="fill:none;stroke:#7c929a;stroke-width:59;stroke-linecap:butt;stroke-linejoin:miter;stroke-miterlimit:4;stroke-opacity:1;stroke-dasharray:none"
       d="m 4106.8447,3170.2838 c -67.244,240.4007 -58.2361,503.8548 -170.2838,741.2354 -174.1635,368.977 -301.7329,566.3907 -699.0541,647.8318"
       id="path3771"
       inkscape:connector-curvature="0"
       sodipodi:nodetypes="csc" />
    <path
       style="fill:none;stroke:#7c929a;stroke-width:59;stroke-linecap:butt;stroke-linejoin:miter;stroke-miterlimit:4;stroke-opacity:1;stroke-dasharray:none"
       d="m 3190.4658,2877.4165 c 72.2376,386.5722 -197.4306,393.249 -379.0092,497.8031"
       id="path3802"
       inkscape:connector-curvature="0"
       sodipodi:nodetypes="cc" />
    <path
       style="fill:#a9b5c0;fill-opacity:1;stroke:#7c929a;stroke-width:59;stroke-linecap:butt;stroke-linejoin:miter;stroke-miterlimit:4;stroke-opacity:1;stroke-dasharray:none"
       d="m 2619.1235,3386.5334 c -141.4214,-228.6078 -485.2378,-282.3517 -718.4205,-124.4508 -350.861,237.5874 -375.7036,853.2581 -231.931,1228.2236 -103.2797,-28.3456 -209.3984,-28.0502 -269.8721,121.8234 -114.0971,282.77 -205.7948,571.6592 -267.5291,867.4398 -21.355,102.3158 17.7553,182.4904 107.4803,214.9605 183.9493,66.5685 351.9536,79.8996 526.0874,79.1959 200.4504,-0.81 153.5825,-114.9257 124.4508,-223.6467 -89.1165,-332.5875 51.9527,-850.2473 209.3036,-1111.3709"
       id="path3804"
       inkscape:connector-curvature="0"
       sodipodi:nodetypes="cscsssssc" />
    <path
       style="font-size:medium;font-style:normal;font-variant:normal;font-weight:normal;font-stretch:normal;text-indent:0;text-align:start;text-decoration:none;line-height:normal;letter-spacing:normal;word-spacing:normal;text-transform:none;direction:ltr;block-progression:tb;writing-mode:lr-tb;text-anchor:start;baseline-shift:baseline;color:#000000;fill:#7c929a;fill-opacity:1;stroke:none;stroke-width:59;marker:none;visibility:visible;display:inline;overflow:visible;enable-background:accumulate;font-family:Sans;-inkscape-font-specification:Sans"
       d="m 1977.9801,4170.9564 c -27.7328,185.438 63.6588,313.851 274.1761,377.0748 158.2589,47.5292 343.7598,44.172 470.625,49.4376 l 2.4376,-58.9376 c -129.85,-5.3893 -310.4258,-4.9855 -456.2813,-47.0624 -182.6028,-52.6779 -253.2246,-157.9505 -290.9574,-320.5124 z"
       id="path3806"
       inkscape:connector-curvature="0"
       sodipodi:nodetypes="csccsc" />
    <path
       style="fill:#a9b5c0;fill-opacity:1;stroke:#7c929a;stroke-width:59;stroke-linecap:butt;stroke-linejoin:miter;stroke-miterlimit:4;stroke-opacity:1;stroke-dasharray:none"
       d="m 3248.3963,4504.097 c -1.543,6.3012 -3.058,12.6102 -4.5452,18.9261 C 3155.4667,4898.3763 3165.2142,5298.2595 3224,5556 c 32.5414,142.6746 0.039,224.0411 -112,244 -172.6545,30.7569 -364.332,13.8957 -560,-4 -110.6541,-10.1203 -153.8773,-59.8852 -140,-200 32.7828,-330.998 206.3799,-725.0197 313.1537,-1048.9382 2.9281,-8.883 5.806,-17.7133 8.6293,-26.4881"
       id="path3812"
       inkscape:connector-curvature="0"
       sodipodi:nodetypes="cssssssc" />
    <path
       style="font-size:medium;font-style:normal;font-variant:normal;font-weight:normal;font-stretch:normal;text-indent:0;text-align:start;text-decoration:none;line-height:normal;letter-spacing:normal;word-spacing:normal;text-transform:none;direction:ltr;block-progression:tb;writing-mode:lr-tb;text-anchor:start;baseline-shift:baseline;color:#000000;fill:#7c929a;fill-opacity:1;stroke:none;stroke-width:59;marker:none;visibility:visible;display:inline;overflow:visible;enable-background:accumulate;font-family:Sans;-inkscape-font-specification:Sans"
       d="m 3219.75,4497.0938 c -1.5639,6.3867 -3.1179,12.7558 -4.625,19.1562 l 57.4375,13.5312 c 1.4673,-6.2314 2.9779,-12.4405 4.5,-18.6562 20.811,-84.986 43.9313,-196.7053 59.7786,-262.7454 -44.9639,56.9964 -95.7073,161.3887 -117.0911,248.7142 z m -514.0625,14.4374 c -2.8004,8.7038 -5.6549,17.4606 -8.5625,26.2813 l 56.0312,18.5 c 2.9487,-8.9453 5.8726,-17.8729 8.7188,-26.7187 30.1044,-93.5635 41.5445,-185.5745 38.2603,-259.1514 -18.8405,72.0872 -64.8262,149.0261 -94.4478,241.0888 z"
       id="path3812-7"
       inkscape:connector-curvature="0"
       sodipodi:nodetypes="sccscssccscs" />
  </g>
  <g
     inkscape:groupmode="layer"
     id="layer16"
     inkscape:label="Cutie Mark"
     style="display:inline"
     sodipodi:insensitive="true"
     transform="translate(-80.399074,-53.96628)">
    <g
       id="g4195"
       transform="matrix(-0.33603495,-0.01147741,-0.04393026,0.30330174,2764.8918,2632.8044)">
      <path
         sodipodi:nodetypes="ccccccccccccccccccccccccccccc"
         inkscape:connector-curvature="0"
         id="path3851-1"
         d="m 2168.5724,2487.5229 c 33.964,-57.1043 60.2908,-45.4742 82.8572,0 33.9142,96.1905 25.2283,209.5238 31.4286,305.7143 49.9699,-76.4644 117.3259,-86.2821 190,-75.7143 71.8016,41.2287 104.2575,112.0227 132.8571,185.7143 27.5,95.0446 16.7302,172.5489 -47.1429,225.7143 -73.3445,41.901 -140.9412,85.718 -202.8571,131.4286 55.6505,-2.3839 72.8139,22.173 91.4286,45.7142 12.3867,41.77 5.5575,85.8906 -12.8572,131.4286 -35.626,38.4263 -79.1363,47.2863 -130,28.5714 -49.0739,105.5731 -80.7736,199.5634 -107.1428,290 -24.6337,157.7917 -48.7983,315.4801 -58.5715,470 0.1356,119.4154 18.9125,223.9177 57.1429,312.8572 47.8292,160.8531 31.898,313.7459 -7.1429,455.7143 -41.1027,85.3709 -80.4636,171.9611 -158.5714,231.4285 -93.0641,82.954 -141.3371,41.8714 -185.7143,-10 -46.128,-96.5857 -68.618,-195.3204 -72.8571,-295.7142 1.1094,-168.9691 61.1292,-308.483 145.7143,-435.7143 71.7395,-84.1183 117.7827,-182.0731 140,-292.8572 35.7145,-157.619 34.4658,-315.2381 37.1428,-472.8571 -9.6909,-99.8842 -36.5519,-194.8627 -72.8571,-287.1429 -60.4959,8.6306 -108.8969,-19.0237 -154.2857,-55.7143 -28.2542,-65.1191 -15.3768,-114.8139 17.1428,-157.1428 26.0693,-28.9435 55.9354,-31.3093 85.7143,-34.2857 -55.7143,-40.9395 -111.4286,-80.0961 -167.1428,-135.7143 -72.6059,-58.707 -87.3658,-137.6601 -84.2858,-222.8572 5.711,-96.168 54.8326,-158.0644 132.8572,-197.1428 95.3576,-43.9355 186.0619,-21.173 270,98.5714 3.8722,-78.3083 16.6714,-157.8918 47.1428,-240 z"
         style="fill:#d6fdf9;fill-opacity:1;stroke:none" />
      <path
         sodipodi:nodetypes="cssssssc"
         inkscape:connector-curvature="0"
         id="path3765-5"
         d="m 2015.2455,3427.988 c 71.3122,144.7765 81.09,277.404 80.8122,412.1422 -0.2891,140.2188 -21.7235,422.4671 -117.1777,549.523 -153.2042,203.925 -247.8973,456.6184 -177.7868,711.1474 66.7581,242.3587 185.9922,191.6186 294.7614,59.9159 112.618,-136.3629 184.1699,-411.9016 83.3822,-663.4375 -78.2352,-195.2517 -16.8264,-459.4311 8.5715,-643.3533 16.781,-121.5224 48.7829,-260.8446 118.6062,-383.4098"
         style="fill:none;stroke:#98d6e6;stroke-width:29;stroke-linecap:butt;stroke-linejoin:miter;stroke-miterlimit:4;stroke-opacity:1;stroke-dasharray:none" />
      <path
         sodipodi:nodetypes="cssc"
         inkscape:connector-curvature="0"
         id="path3767"
         d="m 2134.2867,3243.2372 c -20.7255,111.3669 -63.8133,217.6965 -187.1428,180 -68.421,-20.9133 -123.3561,-89.621 -77.1429,-184.2857 28.7894,-58.9731 84.7588,-56.1653 120,-37.1429"
         style="fill:none;stroke:#98d6e6;stroke-width:29;stroke-linecap:butt;stroke-linejoin:miter;stroke-miterlimit:4;stroke-opacity:1;stroke-dasharray:none" />
      <path
         sodipodi:nodetypes="czc"
         inkscape:connector-curvature="0"
         id="path3771-2"
         d="m 2115.7153,2886.0943 c -5.8887,-140.8115 32.8821,-438.4353 100,-437.1428 67.1179,1.2925 75.4291,300.6181 57.1429,460"
         style="fill:none;stroke:#98d6e6;stroke-width:29;stroke-linecap:butt;stroke-linejoin:miter;stroke-miterlimit:4;stroke-opacity:1;stroke-dasharray:none" />
      <path
         sodipodi:nodetypes="ssssssssscsssssssssccss"
         inkscape:connector-curvature="0"
         id="path3773-7"
         d="m 1937.6751,2592.8622 c -57.1671,-1.7649 -117.0895,22.1162 -167.0312,77.8437 -80.9198,90.2945 -96.2657,254.4457 -0.031,362.1875 59.792,66.9418 118.9966,110.1431 181.9687,152.9375 18.7297,12.7283 38.254,38.0207 48.125,63.6875 9.871,25.6669 9.9927,49.6909 -2,64.625 -8.5802,10.6848 -17.5475,13.8442 -27.875,13.5625 -10.3275,-0.2816 -22.1005,-5.0917 -31.7187,-12.875 -5.1997,-4.2076 -8.4072,-16.155 -5.8125,-24.4062 1.2973,-4.1256 -0.6359,-32.1838 36.0287,-16.3924 -28.9953,-37.7467 -60.6466,-2.057 -63.7162,7.7049 -6.1394,19.5238 -1.5255,42.0247 15.2812,55.625 13.8264,11.1886 30.8951,18.8465 49.125,19.3438 18.2299,0.4972 37.5357,-7.2581 51.2813,-24.3751 21.0501,-26.2131 18.4986,-61.9382 6.4687,-93.2187 -12.0299,-31.2805 -33.6363,-60.1296 -58.875,-77.2813 -62.4639,-42.4491 -119.061,-83.7676 -176.6562,-148.25 -85.2864,-95.4847 -70.2794,-245.1099 0,-323.5312 55.5334,-61.967 119.5257,-77.7156 177.625,-63.75 58.0992,13.9656 110.5554,59.014 138.2812,122.7187 l 26.5938,-11.5625 c -31.0594,-71.3638 -90.1394,-123.0092 -158.0938,-139.3437 -12.7415,-3.0627 -25.7764,-4.8427 -38.9688,-5.25 z"
         style="font-size:medium;font-style:normal;font-variant:normal;font-weight:normal;font-stretch:normal;text-indent:0;text-align:start;text-decoration:none;line-height:normal;letter-spacing:normal;word-spacing:normal;text-transform:none;direction:ltr;block-progression:tb;writing-mode:lr-tb;text-anchor:start;baseline-shift:baseline;color:#000000;fill:#98d6e6;fill-opacity:1;stroke:none;stroke-width:29;marker:none;visibility:visible;display:inline;overflow:visible;enable-background:accumulate;font-family:Sans;-inkscape-font-specification:Sans" />
      <path
         sodipodi:nodetypes="cssc"
         inkscape:connector-curvature="0"
         id="path3781"
         d="m 2087.9765,3163.328 c -66.5798,-58.1411 -163.2814,-116.8983 -214.1524,-204.0508 -32.8766,-56.3245 -43.1228,-146.0835 10.1016,-193.9493 44.8155,-40.3036 109.5556,-32.4131 141.4213,-8.0812"
         style="fill:none;stroke:#98d6e6;stroke-width:29;stroke-linecap:butt;stroke-linejoin:miter;stroke-miterlimit:4;stroke-opacity:1;stroke-dasharray:none" />
      <path
         sodipodi:nodetypes="csssc"
         inkscape:connector-curvature="0"
         id="path3809"
         d="m 2247.1439,3241.8086 c -34.3686,74.8478 -14.8309,179.3368 25.2251,207.6004 44.2885,31.25 98.8313,29.6658 127.632,15.2567 55.7087,-27.8711 65.6705,-107.0894 40,-164.2856 -15.5453,-34.6365 -65.1136,-52.8318 -105.9904,-25.5901"
         style="fill:none;stroke:#98d6e6;stroke-width:29;stroke-linecap:butt;stroke-linejoin:miter;stroke-miterlimit:4;stroke-opacity:1;stroke-dasharray:none" />
      <path
         sodipodi:nodetypes="sccsssssssscscscsssssssss"
         inkscape:connector-curvature="0"
         id="path3811"
         d="m 2422.0814,2696.1747 c -50.8491,-0.6929 -104.6621,26.1626 -153.375,86.5312 l 22.5937,18.2188 c 47.8995,-59.3606 95.5412,-79.0363 138.4375,-75.3438 42.8963,3.6926 83.3987,31.8232 114.0625,75.9375 32.8671,47.2842 52.0629,108.4881 54.7813,165.9688 2.7183,57.4807 -11.1969,110.62 -40.75,143.1562 -33.8506,37.2675 -86.2772,60.7812 -130.3125,84.0625 -67.2604,35.5603 -112.1322,67.5268 -133.4688,112.2813 -7.3729,15.465 -10.2924,34.2346 -9.125,52.5 1.1674,18.2654 6.1721,36.6777 20.2188,49 13.3079,11.6742 30.9815,17.7365 48.7187,17.7188 17.7373,-0.018 36.7871,-7.0176 47.5938,-23.9063 10.8783,-17.0007 -5.7252,-64.3521 -46.7324,-62.0116 28.6933,13.4521 26.4443,39.9019 22.2949,46.3866 -4.4999,7.0324 -12.5673,10.5206 -23.1875,10.5313 -10.6203,0.011 -22.5454,-4.3443 -29.5625,-10.5 -4.8392,-4.2451 -9.5412,-15.5277 -10.4063,-29.0626 -0.8651,-13.5348 1.8546,-28.6745 6.375,-38.1562 16.7383,-35.1094 55.2879,-64.5137 120.8125,-99.1563 42.5327,-22.4868 98.6505,-46.5907 138.25,-90.1875 36.8595,-40.5801 51.223,-101.1663 48.25,-164.0312 -2.9729,-62.865 -23.4429,-128.6536 -59.9375,-181.1563 -34.2051,-49.2089 -81.5963,-83.6518 -135.375,-88.2812 -3.3611,-0.2893 -6.7663,-0.4538 -10.1562,-0.5 z"
         style="font-size:medium;font-style:normal;font-variant:normal;font-weight:normal;font-stretch:normal;text-indent:0;text-align:start;text-decoration:none;line-height:normal;letter-spacing:normal;word-spacing:normal;text-transform:none;direction:ltr;block-progression:tb;writing-mode:lr-tb;text-anchor:start;baseline-shift:baseline;color:#000000;fill:#98d6e6;fill-opacity:1;stroke:none;stroke-width:29;marker:none;visibility:visible;display:inline;overflow:visible;enable-background:accumulate;font-family:Sans;-inkscape-font-specification:Sans" />
      <path
         sodipodi:nodetypes="ssssscsssssssccssss"
         inkscape:connector-curvature="0"
         id="path3817"
         d="m 2396.2064,2811.3309 c -24.9496,0.6397 -49.3138,12.0024 -69.2188,31.5625 -35.5851,34.9687 -33.2415,77.2317 -19.8437,102.7813 8.8158,16.8117 24.5713,28.1974 41.5937,33.4687 17.0224,5.2714 36.2945,4.0206 51.7188,-7.4062 22.0488,-16.3345 23.508,-76.1817 -14.4989,-81.6988 16.2787,18.7686 5.1437,52.0886 -3.5324,58.98 -5.4856,4.3573 -14.891,5.6067 -25.125,2.4375 -10.234,-3.1691 -19.9697,-10.6702 -24.4687,-19.25 -8.5287,-16.2641 -12.8173,-41.8117 14.4687,-68.625 17.8004,-17.492 37.7063,-24.888 56.7813,-23 19.075,1.8881 38.555,13.0327 55.3437,37.9063 29.3424,43.4726 25.5205,120.0925 -4.9375,174.8437 -30.0177,53.9598 -109.6525,100.6959 -179,115.75 l 6.1563,28.3125 c 76.563,-16.6205 161.4287,-63.9475 198.1562,-129.9687 35.2909,-63.4388 41.8728,-148.5361 3.6563,-205.1563 -20.5054,-30.3799 -47.9242,-47.7309 -76.5313,-50.5625 -3.5759,-0.3539 -7.1545,-0.4663 -10.7187,-0.375 z"
         style="font-size:medium;font-style:normal;font-variant:normal;font-weight:normal;font-stretch:normal;text-indent:0;text-align:start;text-decoration:none;line-height:normal;letter-spacing:normal;word-spacing:normal;text-transform:none;direction:ltr;block-progression:tb;writing-mode:lr-tb;text-anchor:start;baseline-shift:baseline;color:#000000;fill:#98d6e6;fill-opacity:1;stroke:none;stroke-width:29;marker:none;visibility:visible;display:inline;overflow:visible;enable-background:accumulate;font-family:Sans;-inkscape-font-specification:Sans" />
      <path
         sodipodi:nodetypes="sscscs"
         inkscape:connector-curvature="0"
         id="path3823"
         d="m 2034.4564,4527.6434 c -6.3426,0.2144 -12.6709,0.9261 -19,2.125 -50.6334,9.5915 -117.4776,76.7983 -129.6977,148.1417 38.2875,-64.017 96.0301,-112.2458 135.0727,-119.6417 39.0426,-7.3958 96.4364,9.1534 123.5128,35.9737 -19.3906,-47.931 -65.4899,-68.0993 -109.8878,-66.5987 z"
         style="font-size:medium;font-style:normal;font-variant:normal;font-weight:normal;font-stretch:normal;text-indent:0;text-align:start;text-decoration:none;line-height:normal;letter-spacing:normal;word-spacing:normal;text-transform:none;direction:ltr;block-progression:tb;writing-mode:lr-tb;text-anchor:start;baseline-shift:baseline;color:#000000;fill:#98d6e6;fill-opacity:1;stroke:none;stroke-width:29;marker:none;visibility:visible;display:inline;overflow:visible;enable-background:accumulate;font-family:Sans;-inkscape-font-specification:Sans" />
      <path
         sodipodi:nodetypes="csscssc"
         inkscape:connector-curvature="0"
         id="path3769"
         d="m 2172.8582,3434.6658 c 19.1131,-52.3555 60.7568,-137.806 112.2019,-205.6518 41.5735,-54.827 67.449,-124.0936 82.0838,-191.4911 24.583,-113.2121 -110.5423,-256.7887 -160,-94.2857 -31.5722,-137.0647 -220.0684,-106.7542 -211.4286,57.1429 3.1725,60.1817 43.5838,126.2851 88.4889,194.3332 50.6304,76.7241 79.3952,161.8825 88.654,239.9525 z"
         style="fill:#eb77d5;fill-opacity:1;stroke:none" />
      <path
         transform="matrix(0.8063823,-0.59139461,0.59139461,0.8063823,1349.9088,2767.9158)"
         d="m 550.00001,595 c 0,22.48588 -10.87309,40.71429 -24.28572,40.71429 -13.41263,0 -24.28571,-18.22841 -24.28571,-40.71429 0,-22.48588 10.87308,-40.71429 24.28571,-40.71429 13.41263,0 24.28572,18.22841 24.28572,40.71429 z"
         sodipodi:ry="40.714287"
         sodipodi:rx="24.285715"
         sodipodi:cy="595"
         sodipodi:cx="525.71429"
         id="path3805"
         style="color:#000000;fill:#ffffff;fill-opacity:0.50196078;fill-rule:nonzero;stroke:none;stroke-width:1px;marker:none;visibility:visible;display:inline;overflow:visible;enable-background:accumulate"
         sodipodi:type="arc" />
      <path
         transform="matrix(0.77871311,-0.62738019,0.62738019,0.77871311,1353.9332,2905.3484)"
         d="m 712.85716,645.71429 c 0,22.09139 -11.83247,40 -26.42857,40 -14.5961,0 -26.42857,-17.90861 -26.42857,-40 0,-22.09139 11.83247,-40 26.42857,-40 14.5961,0 26.42857,17.90861 26.42857,40 z"
         sodipodi:ry="40"
         sodipodi:rx="26.428572"
         sodipodi:cy="645.71429"
         sodipodi:cx="686.42859"
         id="path3807"
         style="color:#000000;fill:#ffffff;fill-opacity:0.50196078;fill-rule:nonzero;stroke:none;stroke-width:1px;marker:none;visibility:visible;display:inline;overflow:visible;enable-background:accumulate"
         sodipodi:type="arc" />
      <path
         sodipodi:nodetypes="ccccc"
         inkscape:connector-curvature="0"
         id="path3847-6"
         d="m 2350.6161,2844.1198 44.4468,55.5584 c 7.512,20.5398 9.9778,41.0795 4.0406,61.6193 -23.907,8.2659 -47.8139,15.1257 -71.7209,-3.0305 -32.0976,-61.0343 -8.4543,-93.2909 23.2335,-114.1472 z"
         style="fill:#d6fdf9;fill-opacity:1;stroke:none" />
      <path
         sodipodi:nodetypes="ssssscssssssccsss"
         inkscape:connector-curvature="0"
         id="path3817-7"
         d="m 2396.2064,2811.3309 c -24.9496,0.6396 -49.3138,12.0024 -69.2188,31.5625 -35.5851,34.9686 -33.2415,77.2316 -19.8437,102.7813 8.8158,16.8117 24.5713,28.1973 41.5937,33.4687 17.0224,5.2714 36.2945,4.0206 51.7188,-7.4062 22.0488,-16.3345 23.508,-76.1817 -14.4989,-81.6988 16.2787,18.7686 5.1437,52.0886 -3.5324,58.98 -5.4856,4.3572 -14.891,5.6067 -25.125,2.4375 -10.234,-3.1692 -19.9697,-10.6703 -24.4687,-19.25 -8.5287,-16.2642 -12.8173,-41.8117 14.4687,-68.625 17.8004,-17.492 37.7063,-24.8881 56.7813,-23 19.075,1.8881 38.555,13.0327 55.3437,37.9063 29.3424,43.4726 25.5205,120.0924 -4.9375,174.8437 l 25.3125,14.0938 c 35.2909,-63.4388 41.8728,-148.5361 3.6563,-205.1563 -20.5054,-30.3799 -47.9242,-47.7309 -76.5313,-50.5625 -3.5759,-0.3539 -7.1545,-0.4664 -10.7187,-0.375 z"
         style="font-size:medium;font-style:normal;font-variant:normal;font-weight:normal;font-stretch:normal;text-indent:0;text-align:start;text-decoration:none;line-height:normal;letter-spacing:normal;word-spacing:normal;text-transform:none;direction:ltr;block-progression:tb;writing-mode:lr-tb;text-anchor:start;baseline-shift:baseline;color:#000000;fill:#98d6e6;fill-opacity:1;stroke:none;stroke-width:29;marker:none;visibility:visible;display:inline;overflow:visible;enable-background:accumulate;font-family:Sans;-inkscape-font-specification:Sans" />
      <path
         sodipodi:nodetypes="ccccc"
         inkscape:connector-curvature="0"
         id="path3849-1"
         d="m 2064.743,2828.9675 c 5.6068,19.8663 7.7859,39.7327 0,59.599 -23.6099,23.7382 -48.8056,33.9971 -77.7818,12.1218 -11.1328,-15.7533 -26.4464,-29.6775 4.0406,-63.6396 z"
         style="fill:#d6fdf9;fill-opacity:1;stroke:none" />
      <path
         sodipodi:nodetypes="sccsssssscssssss"
         inkscape:connector-curvature="0"
         id="path3781-1"
         d="m 1959.4876,2722.5497 c -28.8003,0.027 -59.9112,9.2122 -85.25,32 l 19.375,21.5625 c 19.4767,-17.5158 43.1662,-24.5415 65.9063,-24.5625 22.74,-0.021 44.262,7.4685 57.0312,17.2187 17.5435,13.3958 29.9295,38.2445 34.0313,62.875 4.1017,24.6306 -0.9882,47.8883 -9.5938,57.1563 -9.2426,9.9541 -17.6572,12.2974 -25.5937,11.6875 -7.9365,-0.6099 -15.3102,-5.4977 -21.2813,-11.4688 -14.5285,-14.5284 -9.456,-51.647 21.2261,-49.1983 -47.8892,-40.4084 -71.1361,34.7021 -43.4761,67.7921 10.0643,12.04 24.6954,20.5043 41.3125,21.7812 16.6172,1.277 34.7659,-5.4466 49.0625,-20.8437 18.6898,-20.1284 22.0174,-51.1521 16.9375,-81.6563 -5.0798,-30.5041 -19.4778,-61.6442 -45.0312,-81.1562 -19.0965,-14.5816 -45.856,-23.2141 -74.6563,-23.1875 z"
         style="font-size:medium;font-style:normal;font-variant:normal;font-weight:normal;font-stretch:normal;text-indent:0;text-align:start;text-decoration:none;line-height:normal;letter-spacing:normal;word-spacing:normal;text-transform:none;direction:ltr;block-progression:tb;writing-mode:lr-tb;text-anchor:start;baseline-shift:baseline;color:#000000;fill:#98d6e6;fill-opacity:1;stroke:none;stroke-width:29;marker:none;visibility:visible;display:inline;overflow:visible;enable-background:accumulate;font-family:Sans;-inkscape-font-specification:Sans" />
    </g>
  </g>
  <g
     inkscape:groupmode="layer"
     id="layer7"
     inkscape:label="Necklace"
     sodipodi:insensitive="true"
     style="display:inline"
     transform="translate(-80.399074,-53.96628)">
    <path
       sodipodi:type="arc"
       style="color:#000000;fill:#c0fbfd;fill-opacity:1;fill-rule:nonzero;stroke:#91d7ed;stroke-width:48.21202087;stroke-miterlimit:4;stroke-opacity:1;stroke-dasharray:none;marker:none;visibility:visible;display:inline;overflow:visible;enable-background:accumulate"
       id="path3911-5"
       sodipodi:cx="3454"
       sodipodi:cy="3514"
       sodipodi:rx="110"
       sodipodi:ry="118"
       d="m 3564,3514 c 0,65.1696 -49.2487,118 -110,118 -60.7513,0 -110,-52.8304 -110,-118 0,-65.1696 49.2487,-118 110,-118 60.7513,0 110,52.8304 110,118 z"
       transform="matrix(0.91263546,0,0,0.91263546,915.03528,592.4827)" />
    <path
       sodipodi:type="arc"
       style="color:#000000;fill:#c0fbfd;fill-opacity:1;fill-rule:nonzero;stroke:#91d7ed;stroke-width:48.21202087;stroke-miterlimit:4;stroke-opacity:1;stroke-dasharray:none;marker:none;visibility:visible;display:inline;overflow:visible;enable-background:accumulate"
       id="path3911-45"
       sodipodi:cx="3454"
       sodipodi:cy="3514"
       sodipodi:rx="110"
       sodipodi:ry="118"
       d="m 3564,3514 c 0,65.1696 -49.2487,118 -110,118 -60.7513,0 -110,-52.8304 -110,-118 0,-65.1696 49.2487,-118 110,-118 60.7513,0 110,52.8304 110,118 z"
       transform="matrix(0.91263546,0,0,0.91263546,782.09925,640.56596)" />
    <path
       sodipodi:type="arc"
       style="color:#000000;fill:#c0fbfd;fill-opacity:1;fill-rule:nonzero;stroke:#91d7ed;stroke-width:48.21202087;stroke-miterlimit:4;stroke-opacity:1;stroke-dasharray:none;marker:none;visibility:visible;display:inline;overflow:visible;enable-background:accumulate"
       id="path3911-82"
       sodipodi:cx="3454"
       sodipodi:cy="3514"
       sodipodi:rx="110"
       sodipodi:ry="118"
       d="m 3564,3514 c 0,65.1696 -49.2487,118 -110,118 -60.7513,0 -110,-52.8304 -110,-118 0,-65.1696 49.2487,-118 110,-118 60.7513,0 110,52.8304 110,118 z"
       transform="matrix(0.91263546,0,0,0.91263546,601.07996,561.36999)" />
    <path
       sodipodi:type="arc"
       style="color:#000000;fill:#c0fbfd;fill-opacity:1;fill-rule:nonzero;stroke:#91d7ed;stroke-width:48.21202087;stroke-miterlimit:4;stroke-opacity:1;stroke-dasharray:none;marker:none;visibility:visible;display:inline;overflow:visible;enable-background:accumulate"
       id="path3911-8"
       sodipodi:cx="3454"
       sodipodi:cy="3514"
       sodipodi:rx="110"
       sodipodi:ry="118"
       d="m 3564,3514 c 0,65.1696 -49.2487,118 -110,118 -60.7513,0 -110,-52.8304 -110,-118 0,-65.1696 49.2487,-118 110,-118 60.7513,0 110,52.8304 110,118 z"
       transform="matrix(0.91263546,0,0,0.91263546,439.85956,451.06133)" />
    <path
       sodipodi:type="arc"
       style="color:#000000;fill:#c0fbfd;fill-opacity:1;fill-rule:nonzero;stroke:#91d7ed;stroke-width:48.21202087;stroke-miterlimit:4;stroke-opacity:1;stroke-dasharray:none;marker:none;visibility:visible;display:inline;overflow:visible;enable-background:accumulate"
       id="path3911-4"
       sodipodi:cx="3454"
       sodipodi:cy="3514"
       sodipodi:rx="110"
       sodipodi:ry="118"
       d="m 3564,3514 c 0,65.1696 -49.2487,118 -110,118 -60.7513,0 -110,-52.8304 -110,-118 0,-65.1696 49.2487,-118 110,-118 60.7513,0 110,52.8304 110,118 z"
       transform="matrix(0.91263546,0,0,0.91263546,-9.8603407,-193.82005)" />
    <path
       sodipodi:type="arc"
       style="color:#000000;fill:#c0fbfd;fill-opacity:1;fill-rule:nonzero;stroke:#91d7ed;stroke-width:48.21202087;stroke-miterlimit:4;stroke-opacity:1;stroke-dasharray:none;marker:none;visibility:visible;display:inline;overflow:visible;enable-background:accumulate"
       id="path3911-9"
       sodipodi:cx="3454"
       sodipodi:cy="3514"
       sodipodi:rx="110"
       sodipodi:ry="118"
       d="m 3564,3514 c 0,65.1696 -49.2487,118 -110,118 -60.7513,0 -110,-52.8304 -110,-118 0,-65.1696 49.2487,-118 110,-118 60.7513,0 110,52.8304 110,118 z"
       transform="matrix(0.91263546,0,0,0.91263546,29.737635,-21.286)" />
    <path
       sodipodi:type="arc"
       style="color:#000000;fill:#c0fbfd;fill-opacity:1;fill-rule:nonzero;stroke:#91d7ed;stroke-width:48.21202087;stroke-miterlimit:4;stroke-opacity:1;stroke-dasharray:none;marker:none;visibility:visible;display:inline;overflow:visible;enable-background:accumulate"
       id="path3911-0"
       sodipodi:cx="3454"
       sodipodi:cy="3514"
       sodipodi:rx="110"
       sodipodi:ry="118"
       d="m 3564,3514 c 0,65.1696 -49.2487,118 -110,118 -60.7513,0 -110,-52.8304 -110,-118 0,-65.1696 49.2487,-118 110,-118 60.7513,0 110,52.8304 110,118 z"
       transform="matrix(0.91263546,0,0,0.91263546,157.01685,165.3902)" />
    <path
       sodipodi:type="arc"
       style="color:#000000;fill:#c0fbfd;fill-opacity:1;fill-rule:nonzero;stroke:#91d7ed;stroke-width:48.21202087;stroke-miterlimit:4;stroke-opacity:1;stroke-dasharray:none;marker:none;visibility:visible;display:inline;overflow:visible;enable-background:accumulate"
       id="path3911"
       sodipodi:cx="3454"
       sodipodi:cy="3514"
       sodipodi:rx="110"
       sodipodi:ry="118"
       d="m 3564,3514 c 0,65.1696 -49.2487,118 -110,118 -60.7513,0 -110,-52.8304 -110,-118 0,-65.1696 49.2487,-118 110,-118 60.7513,0 110,52.8304 110,118 z"
       transform="matrix(0.91263546,0,0,0.91263546,296.58556,320.86949)" />
  </g>
  <g
     inkscape:groupmode="layer"
     id="layer6"
     inkscape:label="Lower Mane"
     style="display:inline"
     sodipodi:insensitive="true"
     transform="translate(-80.399074,-53.96628)">
    <path
       style="fill:#d9e3e9;fill-opacity:1;stroke:none;display:inline"
       d="m 2814.285,3929.5914 c 12.9973,172.534 -115.8917,371.5524 -226.2742,511.9453 -134.7431,171.3766 -203.3739,315.374 -214.9604,497.8031 -58.9496,-140.2308 -93.9576,-354.2446 -62.2254,-526.0874 29.784,-161.2926 193.7295,-313.9555 200.8183,-483.6611 l 69.2965,-110.3086 c -32.1325,-97.1093 -46.9396,-214.0177 -1.4143,-311.127 -88.8146,-188.0952 -24.3573,-296.489 73.5391,-387.4945 -45.7852,-180.4782 -53.4088,-343.5872 98.995,-472.3473 -29.6019,-97.4162 -61.2961,-193.9599 -2.8284,-328.0976 l 217.7889,395.9798 c 6.1975,181.794 5.2256,361.9848 -107.4802,528.9159 114.9572,174.7283 2.6864,409.3579 -121.6224,596.7981 z"
       id="path3845-4"
       inkscape:connector-curvature="0"
       sodipodi:nodetypes="cscscccccccccc" />
    <path
       style="fill:#e9eff2;fill-opacity:1;stroke:none"
       d="m 2627.6088,3977.6746 c -29.3443,141.607 -100.2216,253.7195 -183.8478,356.3818 -86.4573,106.1377 -99.9703,194.9113 -144.2497,291.328 16.8083,100.9887 29.4667,204.744 67.8822,291.328 31.7509,-166.5358 91.2448,-324.5353 220.6173,-461.0336 138.7564,-157.789 206.5997,-330.6053 217.7889,-480.8326 z"
       id="path3890"
       inkscape:connector-curvature="0"
       sodipodi:nodetypes="csccccc" />
    <path
       style="fill:none;stroke:#b9cad6;stroke-width:59;stroke-linecap:butt;stroke-linejoin:miter;stroke-miterlimit:7;stroke-opacity:1;stroke-dasharray:none"
       d="m 2814.285,3929.5914 c 12.9973,172.534 -115.8917,371.5524 -226.2742,511.9453 -134.7431,171.3766 -203.3739,315.374 -214.9604,497.8031 -58.9496,-140.2308 -93.9576,-354.2446 -62.2254,-526.0874 29.784,-161.2926 193.7295,-313.9555 200.8183,-483.6611 l 69.2965,-110.3086 c -32.1325,-97.1093 -46.9396,-214.0177 -1.4143,-311.127 -88.8146,-188.0952 -24.3573,-296.489 73.5391,-387.4945 -45.7852,-180.4782 -53.4088,-343.5872 98.995,-472.3473 -29.6019,-97.4162 -61.2961,-193.9599 -2.8284,-328.0976 l 217.7889,395.9798 c 6.1975,181.794 5.2256,361.9848 -107.4802,528.9159 114.9572,174.7283 2.6864,409.3579 -121.6224,596.7981 z"
       id="path3845"
       inkscape:connector-curvature="0"
       sodipodi:nodetypes="cscscccccccccc" />
    <path
       style="fill:none;stroke:#b9cad6;stroke-width:39;stroke-linecap:butt;stroke-linejoin:miter;stroke-miterlimit:4;stroke-opacity:1;stroke-dasharray:none"
       d="m 2882.1673,3223.8987 c -263.4036,176.9787 -264.8482,393.1423 -152.7351,615.183"
       id="path3847"
       inkscape:connector-curvature="0"
       sodipodi:nodetypes="cc" />
    <path
       style="fill:none;stroke:#b9cad6;stroke-width:39;stroke-linecap:butt;stroke-linejoin:miter;stroke-miterlimit:4;stroke-opacity:1;stroke-dasharray:none"
       d="m 2969.8485,2713.3677 c -251.7452,159.5284 -365.7479,432.5208 -237.5879,642.0529"
       id="path3849"
       inkscape:connector-curvature="0"
       sodipodi:nodetypes="cc" />
    <path
       style="fill:none;stroke:#b9cad6;stroke-width:39;stroke-linecap:butt;stroke-linejoin:miter;stroke-miterlimit:4;stroke-opacity:1;stroke-dasharray:none"
       d="m 2842.5693,2461.6377 c -88.3502,149.0211 -78.1399,296.4885 -70.5391,436.9209"
       id="path3851"
       inkscape:connector-curvature="0"
       sodipodi:nodetypes="cc" />
    <path
       style="fill:none;stroke:#b9cad6;stroke-width:39;stroke-linecap:butt;stroke-linejoin:miter;stroke-miterlimit:4;stroke-opacity:1;stroke-dasharray:none"
       d="m 2590.8392,3194.2003 c -50.67,111.7205 -26.8769,280.7713 65.0539,379.0092"
       id="path3853"
       inkscape:connector-curvature="0"
       sodipodi:nodetypes="cc" />
    <path
       style="fill:#eb77d6;fill-opacity:1;stroke:none"
       d="m 2776.1012,3707.5598 -264.4579,43.8406 c -30.8436,32.2949 -24.3915,68.7338 -22.6274,104.6518 -53.0081,61.4246 -25.32,101.9279 22.6274,137.1788 92.3953,11.1778 184.7905,28.8815 277.1858,-7.0711 75.3884,-40.5932 46.3926,-94.051 43.8407,-144.2498 96.4636,-90.9114 10.578,-108.883 -56.5686,-134.3503 z"
       id="path3874"
       inkscape:connector-curvature="0"
       sodipodi:nodetypes="ccccccc"
       clip-path="url(#clipPath3886)" />
    <path
       style="font-size:medium;font-style:normal;font-variant:normal;font-weight:normal;font-stretch:normal;text-indent:0;text-align:start;text-decoration:none;line-height:normal;letter-spacing:normal;word-spacing:normal;text-transform:none;direction:ltr;block-progression:tb;writing-mode:lr-tb;text-anchor:start;baseline-shift:baseline;color:#000000;fill:#bf5ead;fill-opacity:1;stroke:none;stroke-width:59;marker:none;visibility:visible;display:inline;overflow:visible;enable-background:accumulate;font-family:Sans;-inkscape-font-specification:Sans"
       d="m 2763.4375,3678.125 -4.7187,0.8438 -175.25,31.875 c -34.4237,2.8826 -62.9269,12.8478 -84.0626,29.5624 -21.6286,17.1046 -34.9023,42.2195 -35.1874,68.25 -0.5703,52.0612 61.707,107.1033 147.8761,90.563 -89.5181,-21.5254 -120.8602,-76.4283 -76.0949,-112.5317 9.8122,-7.9136 27.5582,-15.3284 54.1562,-17.2813 l 1.5626,-0.094 1.5624,-0.2813 170.9376,-31.0937 c 43.0558,6.72 67.2434,19.026 75.8124,27.5937 8.8668,8.8654 8.5609,10.7321 2.9688,22.625 -11.1842,23.7859 -58.1398,80.2054 -162.8495,110.3926 93.2802,-0.9255 189.9322,-29.2843 216.2557,-85.2676 13.1618,-27.9916 9.3579,-65.4583 -14.6562,-89.4687 -24.0141,-24.0104 -60.874,-37.5277 -113.5938,-45.0313 l -4.7187,-0.6562 z"
       id="path3855"
       inkscape:connector-curvature="0"
       sodipodi:nodetypes="cccsscsccccsscssccc"
       clip-path="url(#clipPath3882)" />
    <path
       style="fill:none;stroke:#bf5ead;stroke-width:59;stroke-linecap:butt;stroke-linejoin:miter;stroke-miterlimit:4;stroke-opacity:1;stroke-dasharray:none"
       d="m 2832.6698,3844.7385 c 33.5918,78.8684 7.1519,131.8157 -56.5686,148.4925 -80.0699,20.9558 -172.3678,10.1981 -246.0731,-5.6569 -61.5031,-13.2302 -93.4162,-75.3987 -38.1838,-137.1787"
       id="path3861"
       inkscape:connector-curvature="0"
       sodipodi:nodetypes="cssc"
       clip-path="url(#clipPath3878)" />
  </g>
  <g
     inkscape:groupmode="layer"
     id="layer8"
     inkscape:label="Head"
     sodipodi:insensitive="true"
     style="display:inline"
     transform="translate(-80.399074,-53.96628)">
    <path
       style="fill:#a9b5c0;fill-opacity:1;stroke:#7c929a;stroke-width:59;stroke-linecap:butt;stroke-linejoin:miter;stroke-miterlimit:4;stroke-opacity:1;stroke-dasharray:none"
       d="m 3365.8283,829.63522 -379.0092,791.95958 c -304.3901,377.3538 -194.0013,941.7386 101.8233,1295.4196 340.8733,407.5401 953.2028,469.6358 1414.2136,339.4113 480.3436,-135.6856 907.1246,-616.4548 780.6459,-1114.4003 L 5181.6785,971.05658"
       id="path3974"
       inkscape:connector-curvature="0"
       sodipodi:nodetypes="cssc" />
    <path
       style="fill:#7c929a;fill-opacity:1;stroke:none"
       d="m 3733.5238,2719.0245 c 87.6812,-42.7587 223.4457,-14.2971 280.0143,56.5686 -73.5391,-36.0018 -186.6762,-65.2923 -280.0143,-56.5686 z"
       id="path3976"
       inkscape:connector-curvature="0"
       sodipodi:nodetypes="ccc" />
    <path
       style="fill:#7c929a;fill-opacity:1;stroke:none"
       d="m 3988.0822,2922.6713 c 38.0348,75.6365 -5.524,105.3339 -56.5685,76.3675 29.9991,-11.5272 56.3297,-27.64 56.5685,-76.3675 z"
       id="path3978"
       inkscape:connector-curvature="0"
       sodipodi:nodetypes="ccc" />
    <path
       style="fill:#7c929a;fill-opacity:1;stroke:none"
       d="m 3705.2395,2854.789 c -6.5259,32.0555 5.3333,64.1111 21.2132,96.1666 -61.1877,-4.8808 -80.7003,-55.8223 -21.2132,-96.1666 z"
       id="path3980"
       inkscape:connector-curvature="0"
       sodipodi:nodetypes="ccc" />
    <path
       style="fill:#7c929a;fill-opacity:1;stroke:none"
       d="m 3609.073,2922.6713 c 39.2406,288.6915 307.7083,355.2146 455.3768,90.5097 -72.8548,325.796 -501.3468,230.4481 -455.3768,-90.5097 z"
       id="path3982"
       inkscape:connector-curvature="0"
       sodipodi:nodetypes="ccc" />
  </g>
  <g
     inkscape:groupmode="layer"
     id="layer10"
     inkscape:label="Left Ear"
     sodipodi:insensitive="true"
     style="display:inline"
     transform="translate(-80.399074,-53.96628)">
    <path
       style="fill:#a9b5c0;fill-opacity:1;stroke:none"
       d="m 4978.0317,1647.0507 231.9311,664.6803 c 130.5059,-27.355 239.5402,-104.8103 347.8965,-183.8477 134.7043,-197.032 234.3825,-424.7118 248.9016,-726.9058 39.5173,-317.7021 -85.9313,-376.8091 -325.2692,-257.3869 z"
       id="path3998"
       inkscape:connector-curvature="0"
       sodipodi:nodetypes="cccccc" />
    <path
       style="font-size:medium;font-style:normal;font-variant:normal;font-weight:normal;font-stretch:normal;text-indent:0;text-align:start;text-decoration:none;line-height:normal;letter-spacing:normal;word-spacing:normal;text-transform:none;direction:ltr;block-progression:tb;writing-mode:lr-tb;text-anchor:start;baseline-shift:baseline;color:#000000;fill:#7c929a;fill-opacity:1;stroke:none;stroke-width:59;marker:none;visibility:visible;display:inline;overflow:visible;enable-background:accumulate;font-family:Sans;-inkscape-font-specification:Sans"
       d="m 5680.25,1062.75 c -66.5876,-1.1824 -139.0339,30.222 -212.0938,62.2188 l -5.0312,2.2187 -3.9062,3.875 -512,508 41.5624,41.875 507.9688,-504 c 80.3189,-34.8853 157.1681,-61.0882 201.6562,-53.4375 22.6997,3.9037 37.3916,12.7709 50.5,36.5938 13.1085,23.8228 22.4252,64.86 21.5938,127.5 -3.7657,283.7285 -53.972,513.3635 -150.9375,684.875 -96.9655,171.5114 -225.485,274.8157 -431.2562,343.6351 258.0909,-21.6902 378.8607,-131.1111 482.5999,-314.6039 103.7393,-183.4928 154.7417,-422.857 158.5938,-713.0938 0.9095,-68.5297 -8.2153,-119.1469 -28.9062,-156.75 -20.691,-37.603 -55.1513,-59.9433 -92.1876,-66.3124 -9.259,-1.5923 -18.6437,-2.4249 -28.1562,-2.5938 z"
       id="path3990"
       inkscape:connector-curvature="0"
       sodipodi:nodetypes="sccccccsssscsssss" />
    <path
       style="fill:#7c929a;fill-opacity:1;stroke:none"
       d="m 5591.8004,1531.0851 c 25.9514,216.4669 -68.7677,410.1882 -229.1026,528.9159 120.9932,-151.5133 204.0131,-324.1228 229.1026,-528.9159 z"
       id="path3996"
       inkscape:connector-curvature="0"
       sodipodi:nodetypes="ccc" />
  </g>
  <g
     inkscape:groupmode="layer"
     id="layer11"
     inkscape:label="Eyes"
     style="display:inline"
     sodipodi:insensitive="true"
     transform="translate(-80.399074,-53.96628)">
    <path
       style="fill:#ffffff;fill-opacity:1;stroke:none"
       d="m 4225.6701,2243.8488 56.5686,786.3027 548.7148,39.598 407.2935,-673.1657 z"
       id="path4027"
       inkscape:connector-curvature="0"
       clip-path="url(#clipPath4050)" />
    <path
       style="fill:#ffffff;fill-opacity:1;stroke:none"
       d="m 2834.084,1836.5553 5.6568,774.989 678.8225,186.6762 135.7645,-735.3911 z"
       id="path4025"
       inkscape:connector-curvature="0"
       clip-path="url(#clipPath4066)" />
    <path
       sodipodi:type="arc"
       style="color:#000000;fill:url(#linearGradient4086);fill-opacity:1;fill-rule:nonzero;stroke:none;stroke-width:1px;marker:none;visibility:visible;display:inline;overflow:visible;enable-background:accumulate"
       id="path4013"
       sodipodi:cx="4618.8213"
       sodipodi:cy="2591.7454"
       sodipodi:rx="291.328"
       sodipodi:ry="379.00925"
       d="m 4910.1493,2591.7454 c 0,209.321 -130.432,379.0092 -291.328,379.0092 -160.896,0 -291.328,-169.6882 -291.328,-379.0092 0,-209.3211 130.432,-379.0093 291.328,-379.0093 160.896,0 291.328,169.6882 291.328,379.0093 z"
       transform="matrix(0.95577916,0.30702706,-0.29435783,1.0116769,930.37919,-1472.1894)"
       clip-path="url(#clipPath4046)" />
    <path
       sodipodi:type="arc"
       style="color:#000000;fill:url(#linearGradient4084);fill-opacity:1;fill-rule:nonzero;stroke:none;stroke-width:1px;marker:none;visibility:visible;display:inline;overflow:visible;enable-background:accumulate"
       id="path4015"
       sodipodi:cx="3456.3379"
       sodipodi:cy="2119.3979"
       sodipodi:rx="313.95541"
       sodipodi:ry="410.12192"
       d="m 3770.2933,2119.3979 c 0,226.5041 -140.5626,410.122 -313.9554,410.122 -173.3928,0 -313.9554,-183.6179 -313.9554,-410.122 0,-226.504 140.5626,-410.1219 313.9554,-410.1219 173.3928,0 313.9554,183.6179 313.9554,410.1219 z"
       transform="matrix(0.92436074,0.22850051,-0.22418693,0.95206608,590.9122,-580.7037)"
       clip-path="url(#clipPath4062)" />
    <path
       sodipodi:type="arc"
       style="color:#000000;fill:#000000;fill-opacity:1;fill-rule:nonzero;stroke:none;stroke-width:1px;marker:none;visibility:visible;display:inline;overflow:visible;enable-background:accumulate"
       id="path4017"
       sodipodi:cx="4630.1353"
       sodipodi:cy="2605.8875"
       sodipodi:rx="246.07317"
       sodipodi:ry="347.89655"
       d="m 4876.2084,2605.8875 c 0,192.1379 -110.1707,347.8965 -246.0731,347.8965 -135.9025,0 -246.0732,-155.7586 -246.0732,-347.8965 0,-192.138 110.1707,-347.8966 246.0732,-347.8966 135.9024,0 246.0731,155.7586 246.0731,347.8966 z"
       transform="matrix(0.92584079,0.21278515,-0.20536947,0.97703137,809.17191,-1030.0222)"
       clip-path="url(#clipPath4042)" />
    <path
       sodipodi:type="arc"
       style="color:#000000;fill:#000000;fill-opacity:1;fill-rule:nonzero;stroke:none;stroke-width:1px;marker:none;visibility:visible;display:inline;overflow:visible;enable-background:accumulate"
       id="path4019"
       sodipodi:cx="3333.3013"
       sodipodi:cy="2219.8071"
       sodipodi:rx="210.71782"
       sodipodi:ry="309.71277"
       d="m 3544.0191,2219.8071 c 0,171.0497 -94.3416,309.7128 -210.7178,309.7128 -116.3763,0 -210.7178,-138.6631 -210.7178,-309.7128 0,-171.0496 94.3415,-309.7127 210.7178,-309.7127 116.3762,0 210.7178,138.6631 210.7178,309.7127 z"
       transform="matrix(1.0088701,0.18809617,-0.19092137,0.98219777,394.1759,-581.80684)"
       clip-path="url(#clipPath4058)" />
    <path
       sodipodi:type="arc"
       style="color:#000000;fill:#ffffff;fill-opacity:1;fill-rule:nonzero;stroke:none;stroke-width:1px;marker:none;visibility:visible;display:inline;overflow:visible;enable-background:accumulate"
       id="path4021"
       sodipodi:cx="4556.5962"
       sodipodi:cy="2478.6082"
       sodipodi:rx="203.64676"
       sodipodi:ry="101.82338"
       d="m 4760.243,2478.6082 c 0,56.2355 -91.1758,101.8233 -203.6468,101.8233 -112.471,0 -203.6468,-45.5878 -203.6468,-101.8233 0,-56.2355 91.1758,-101.8234 203.6468,-101.8234 112.471,0 203.6468,45.5879 203.6468,101.8234 z"
       transform="matrix(0.737542,-0.59359519,0.54401229,0.80476378,-197.28039,3168.8887)"
       clip-path="url(#clipPath4038)" />
    <path
       sodipodi:type="arc"
       style="color:#000000;fill:#ffffff;fill-opacity:1;fill-rule:nonzero;stroke:none;stroke-width:1px;marker:none;visibility:visible;display:inline;overflow:visible;enable-background:accumulate"
       id="path4023"
       sodipodi:cx="3224.407"
       sodipodi:cy="2195.7656"
       sodipodi:rx="132.93608"
       sodipodi:ry="178.1909"
       d="m 3357.3431,2195.7656 c 0,98.4121 -59.5175,178.1909 -132.9361,178.1909 -73.4186,0 -132.9361,-79.7788 -132.9361,-178.1909 0,-98.4121 59.5175,-178.1909 132.9361,-178.1909 73.4186,0 132.9361,79.7788 132.9361,178.1909 z"
       transform="matrix(0.4811498,1.0340897,-0.87840971,0.60850954,3629.5651,-2546.0009)"
       clip-path="url(#clipPath4054)" />
    <path
       sodipodi:type="arc"
       style="color:#000000;fill:#ffffff;fill-opacity:1;fill-rule:nonzero;stroke:none;stroke-width:1px;marker:none;visibility:visible;display:inline;overflow:visible;enable-background:accumulate"
       id="path4070"
       sodipodi:cx="4682.4609"
       sodipodi:cy="2586.0884"
       sodipodi:rx="43.840622"
       sodipodi:ry="59.396969"
       d="m 4726.3016,2586.0884 c 0,32.804 -19.6282,59.3969 -43.8407,59.3969 -24.2125,0 -43.8406,-26.5929 -43.8406,-59.3969 0,-32.8041 19.6281,-59.397 43.8406,-59.397 24.2125,0 43.8407,26.5929 43.8407,59.397 z"
       transform="matrix(0.91639693,0.06870807,-0.08492339,0.98473448,599.06671,-270.22697)" />
    <path
       sodipodi:type="arc"
       style="color:#000000;fill:#ffffff;fill-opacity:1;fill-rule:nonzero;stroke:none;stroke-width:1px;marker:none;visibility:visible;display:inline;overflow:visible;enable-background:accumulate"
       id="path4072"
       sodipodi:cx="4527.6045"
       sodipodi:cy="2643.364"
       sodipodi:rx="20.506096"
       sodipodi:ry="30.405592"
       d="m 4548.1106,2643.364 c 0,16.7926 -9.1809,30.4056 -20.5061,30.4056 -11.3252,0 -20.5061,-13.613 -20.5061,-30.4056 0,-16.7925 9.1809,-30.4056 20.5061,-30.4056 11.3252,0 20.5061,13.6131 20.5061,30.4056 z" />
    <path
       sodipodi:type="arc"
       style="color:#000000;fill:#ffffff;fill-opacity:1;fill-rule:nonzero;stroke:none;stroke-width:1px;marker:none;visibility:visible;display:inline;overflow:visible;enable-background:accumulate"
       id="path4074"
       sodipodi:cx="3312.0881"
       sodipodi:cy="2330.1157"
       sodipodi:rx="21.213203"
       sodipodi:ry="29.698484"
       d="m 3333.3013,2330.1157 c 0,16.402 -9.4974,29.6985 -21.2132,29.6985 -11.7157,0 -21.2132,-13.2965 -21.2132,-29.6985 0,-16.402 9.4975,-29.6985 21.2132,-29.6985 11.7158,0 21.2132,13.2965 21.2132,29.6985 z"
       transform="translate(-4.2426407,5.6568542)" />
    <path
       sodipodi:type="arc"
       style="color:#000000;fill:#ffffff;fill-opacity:1;fill-rule:nonzero;stroke:none;stroke-width:1px;marker:none;visibility:visible;display:inline;overflow:visible;enable-background:accumulate"
       id="path4076"
       sodipodi:cx="3468.3586"
       sodipodi:cy="2283.4468"
       sodipodi:rx="38.890873"
       sodipodi:ry="55.154327"
       d="m 3507.2495,2283.4468 c 0,30.4609 -17.412,55.1543 -38.8909,55.1543 -21.4788,0 -38.8908,-24.6934 -38.8908,-55.1543 0,-30.4609 17.412,-55.1544 38.8908,-55.1544 21.4789,0 38.8909,24.6935 38.8909,55.1544 z"
       transform="matrix(0.96185554,0.4451944,-0.4225043,1.0135109,1086.4581,-1577.7736)" />
  </g>
  <g
     inkscape:groupmode="layer"
     id="layer9"
     inkscape:label="Eye Clipping"
     style="opacity:0.5;display:none"
     sodipodi:insensitive="true"
     transform="translate(-80.399074,-53.96628)">
    <path
       style="fill:#00ff00;fill-opacity:1;stroke:#ff0000;stroke-width:1px;stroke-linecap:butt;stroke-linejoin:miter;stroke-opacity:1"
       d="m 5063.6569,2484 c -34.1748,188.7414 -174.2979,422.093 -344,546 -152.4303,-24.1962 -306.4071,-20.5546 -451.6569,-174 5.7501,-115.3646 57.5267,-285.7258 104,-396 228.6667,-45.2347 462.9902,-42.7097 691.6569,24 z"
       id="path3985"
       inkscape:connector-curvature="0"
       sodipodi:nodetypes="ccccc" />
    <path
       style="fill:#00ff00;fill-opacity:1;stroke:#ff0000;stroke-width:1px;stroke-linecap:butt;stroke-linejoin:miter;stroke-opacity:1"
       d="m 3570,2288 c -14.9573,145.7344 -42.3794,286.6746 -126,406 -162.948,17.5527 -322.5919,-14.4553 -478,-110 -58.7987,-164.006 -101.1004,-383.2621 -36,-568 216.2783,57.9417 444.3539,110.8974 640,272 z"
       id="path3987"
       inkscape:connector-curvature="0"
       sodipodi:nodetypes="ccccc" />
  </g>
  <g
     inkscape:groupmode="layer"
     id="layer13"
     inkscape:label="Top Mane"
     sodipodi:insensitive="true"
     style="display:inline"
     transform="translate(-80.399074,-53.96628)">
    <path
       style="fill:#d9e3e9;fill-opacity:1;stroke:none"
       d="m 3343.2009,631.64534 c 275.429,-430.78591 1503.0384,-891.49252 2155.2614,-175.36247 306.1717,336.17143 222.6892,728.94463 28.2843,1018.23373 -370.5298,551.3761 -1346.121,449.8781 -1981.8401,15.3137 250.7886,21.2574 365.096,-57.4519 484.7148,-202.2742 -199.67,75.3741 -467.9462,79.7831 -596.8813,-69.9411 -135.4743,-157.3177 -242.384,-346.91192 -89.5391,-585.96966 z"
       id="path4092-1"
       inkscape:connector-curvature="0"
       sodipodi:nodetypes="sssccss" />
    <path
       style="fill:#e9eff2;fill-opacity:1;stroke:none"
       d="m 3965.4548,207.38126 c 1018.1507,214.20011 459.0206,1348.63164 33.9411,1499.06634 114.9469,53.0247 236.438,86.4168 362.0387,107.4803 619.9942,-68.3501 977.6557,-1162.37673 390.323,-1719.683729 -285.565,-22.168334 -551.0172,6.991539 -786.3028,113.137089 z"
       id="path4094"
       inkscape:connector-curvature="0"
       sodipodi:nodetypes="ccccc" />
    <path
       style="fill:none;stroke:#b9cad6;stroke-width:59;stroke-linecap:butt;stroke-linejoin:miter;stroke-miterlimit:7;stroke-opacity:1;stroke-dasharray:none"
       d="m 3343.2009,631.64532 c 275.429,-430.78591 1503.0384,-891.49252 2155.2614,-175.36247 306.1717,336.17143 222.6892,728.94465 28.2843,1018.23375 -370.5298,551.3761 -1346.121,449.8781 -1981.8401,15.3137 250.7886,21.2574 365.096,-57.4519 484.7148,-202.2742 -199.67,75.3741 -467.9462,79.7831 -596.8813,-69.9411 -135.4743,-157.3177 -242.384,-346.91194 -89.5391,-585.96968 z"
       id="path4092"
       inkscape:connector-curvature="0"
       sodipodi:nodetypes="sssccss" />
  </g>
  <g
     inkscape:groupmode="layer"
     id="layer14"
     inkscape:label="Right Ear"
     sodipodi:insensitive="true"
     style="display:inline"
     transform="translate(-80.399074,-53.96628)">
    <path
       style="fill:#a9b5c0;fill-opacity:1;stroke:none"
       d="m 2944.3926,1796.9573 367.6956,-418.6072 c 8.133,-87.8574 -2.4718,-185.0837 -8.4853,-280.0143 -30.2972,-195.44745 -85.7726,-385.29975 -183.8478,-565.68543 -77.3447,-95.17487 -150.8149,-89.61235 -220.6173,11.31371 -201.6376,362.49113 -299.9023,716.87462 -118.7939,1049.34642 54.6829,75.2532 109.3658,143.477 164.0487,203.6468 z"
       id="path4123"
       inkscape:connector-curvature="0"
       sodipodi:nodetypes="ccccccc" />
    <path
       style="font-size:medium;font-style:normal;font-variant:normal;font-weight:normal;font-stretch:normal;text-indent:0;text-align:start;text-decoration:none;line-height:normal;letter-spacing:normal;word-spacing:normal;text-transform:none;direction:ltr;block-progression:tb;writing-mode:lr-tb;text-anchor:start;baseline-shift:baseline;color:#000000;fill:#7c929a;fill-opacity:1;stroke:none;stroke-width:59;marker:none;visibility:visible;display:inline;overflow:visible;enable-background:accumulate;font-family:Sans;-inkscape-font-specification:Sans"
       d="m 3011.5,440.8125 c -3.5484,0.15222 -7.0888,0.47767 -10.5938,1 -56.0792,8.35726 -98.3943,55.13031 -134.2187,115.0625 -120.735,201.98261 -205.9459,439.95825 -211.625,667.2812 -5.6791,227.323 114.6197,473.5818 296.2962,575.9476 -130.3235,-141.6341 -242.6302,-360.9367 -237.2962,-574.4476 5.334,-213.5108 86.7547,-443.64136 203.25,-638.5312 31.7052,-53.04088 66.6254,-83.11412 92.2813,-86.9375 12.8279,-1.91169 25.0678,0.39643 41.375,11.84375 16.3071,11.44732 35.6195,32.88141 55.5937,66.90625 141.0601,240.28747 197.5209,572.4869 203.0016,802.0607 53.4807,-234.4262 -3.6447,-579.00569 -152.1266,-831.9357 -22.7909,-38.82299 -46.4027,-66.94881 -72.5625,-85.3125 -22.8898,-16.06823 -48.5364,-24.00307 -73.375,-22.9375 z"
       id="path4115"
       inkscape:connector-curvature="0"
       sodipodi:nodetypes="sssscssssscsss" />
    <path
       style="fill:#7c929a;fill-opacity:1;stroke:none"
       d="M 2946.1421,910.82844 C 2875.2069,1049.4607 2857.2806,1267.6678 2892,1476 c -93.2401,-182.417 -41.0604,-429.4786 54.1421,-565.17156 z"
       id="path4121"
       inkscape:connector-curvature="0"
       sodipodi:nodetypes="ccc" />
  </g>
  <g
     inkscape:groupmode="layer"
     id="layer12"
     inkscape:label="Eyelashes"
     sodipodi:insensitive="true"
     style="display:inline"
     transform="translate(-80.399074,-53.96628)">
    <path
       style="fill:#000000;fill-opacity:1;stroke:none"
       d="m 4328,2476 c 223.3333,-35.0841 448.4563,-41.5876 670,16 92.3039,23.9933 187.1181,-4.778 252,-62 -71.7356,38.9089 -146.0471,35.7015 -224,20 -203.175,-40.924 -475.7005,-72.5155 -698,26 z"
       id="path4089"
       inkscape:connector-curvature="0"
       sodipodi:nodetypes="cscsc" />
    <path
       style="fill:#000000;fill-opacity:1;stroke:none"
       d="m 4887.5221,2430.525 c 60.1806,-27.2803 116.9918,-62.3472 148.4924,-107.4803 -17.6897,50.4352 -60.6619,94.3437 -108.8944,120.2082 z"
       id="path4125"
       inkscape:connector-curvature="0"
       sodipodi:nodetypes="cccc" />
    <path
       style="fill:#000000;fill-opacity:1;stroke:none"
       d="m 5014.8013,2454.5666 c 73.3717,-15.3392 130.7127,-39.7045 169.7056,-82.0244 -23.128,46.0178 -44.0896,80.207 -98.9949,94.7523 z"
       id="path4127"
       inkscape:connector-curvature="0"
       sodipodi:nodetypes="cccc" />
    <path
       style="fill:#000000;fill-opacity:1;stroke:none"
       d="m 3586,2308 c -127.4056,-88.6797 -394.2424,-240.2714 -646,-266 -74.5566,-7.6194 -144.5999,-81.1668 -140,-162 33.2857,70.5317 73.3332,108.0815 138,116 248.6708,30.4498 557.0595,180.0298 648,312 z"
       id="path4129"
       inkscape:connector-curvature="0"
       sodipodi:nodetypes="cscsc" />
    <path
       style="fill:#000000;fill-opacity:1;stroke:none"
       d="m 2978,2014 c -69.4249,-33.2244 -101.2216,-95.116 -122,-150 -0.4458,55.4616 2.5241,93.9526 43.6152,140.9289 z"
       id="path4131"
       inkscape:connector-curvature="0"
       sodipodi:nodetypes="cccc" />
    <path
       style="fill:#000000;fill-opacity:1;stroke:none"
       d="m 3063.1866,2037.3736 c -40.079,-50.4764 -61.5653,-110.1954 -77.7818,-172.534 30.914,68.4529 69.4361,120.374 124.4508,176.7766 z"
       id="path4133"
       inkscape:connector-curvature="0"
       sodipodi:nodetypes="cccc" />
    <path
       style="fill:#000000;fill-opacity:1;stroke:none"
       d="m 3872,1830 c -42.0918,65.9225 -86.9942,92.8658 -176,54 l -600,-262 c -51.8838,-22.6559 -73.8784,16.5092 -28,36 l 612,260 c 91.8089,39.0038 131.0536,34.1747 156.0366,8.4054 21.1175,-21.7821 34.4678,-58.5258 35.9634,-96.4054 z"
       id="path4135"
       inkscape:connector-curvature="0"
       sodipodi:nodetypes="csssssc" />
    <path
       style="fill:#000000;fill-opacity:1;stroke:none"
       d="m 4214.3564,1921.4081 c 9.2403,86.0064 45.3865,125.8156 135.7645,127.2792 l 698.6215,11.3137 c 91.5339,1.4823 80.2997,52.8389 0,50.9117 l -707.1068,-16.9706 c -45.8457,-1.1003 -102.1626,2.2394 -127.2792,-57.9827 -15.9627,-38.2738 -13.0499,-76.0542 0,-114.5513 z"
       id="path4137"
       inkscape:connector-curvature="0"
       sodipodi:nodetypes="csssssc" />
  </g>
  <g
     inkscape:groupmode="layer"
     id="layer15"
     inkscape:label="Glasses"
     sodipodi:insensitive="true"
     transform="translate(-80.399074,-53.96628)">
    <path
       style="fill:#ffffff;fill-opacity:0.56470588;stroke:none"
       d="M 3832.5188,2311.731 C 3619.675,2035.6752 3201.539,1903.3288 2797.3144,1898.7807 c -58.2451,369.8594 45.1781,627.5408 356.3818,741.0479 321.6963,77.6614 545.6825,-36.189 678.8226,-328.0976 z"
       id="path4153"
       inkscape:connector-curvature="0"
       sodipodi:nodetypes="cccc" />
    <path
       style="fill:#ffffff;fill-opacity:0.56470588;stroke:none"
       d="m 4157.7879,2373.9564 c 430.4794,-160.951 774.8821,-50.4296 1108.7434,93.3381 -76.9836,290.3394 -211.1089,528.7318 -616.5971,520.4306 -400.4465,-90.9368 -479.9139,-336.1905 -492.1463,-613.7687 z"
       id="path4151"
       inkscape:connector-curvature="0"
       sodipodi:nodetypes="cccc" />
    <path
       style="fill:#ffffff;fill-opacity:0.25098039;stroke:none"
       d="m 5195.8206,2433.3534 c -18.5734,125.6662 -108.4263,354.2967 -260.2153,500.6316 -197.7667,88.7628 -389.8983,62.0055 -576.9991,-67.8823 116.853,-158.2161 286.8798,-393.2346 362.0387,-568.5138 158.3919,28.3248 316.7838,70.1718 475.1757,135.7645 z"
       id="path4147"
       inkscape:connector-curvature="0"
       sodipodi:nodetypes="ccccc" />
    <path
       style="fill:#ffffff;fill-opacity:0.25098039;stroke:none"
       d="m 3360.1714,1995.2903 c 9.6276,226.2686 43.3503,442.8991 79.196,658.6804 -214.7169,36.8164 -430.7677,-18.4867 -568.5139,-231.931 -42.2876,-171.5912 -56.6407,-341.1825 -50.9117,-514.7737 180.0765,-6.3442 360.1531,41.9748 540.2296,88.0243 z"
       id="path4149"
       inkscape:connector-curvature="0"
       sodipodi:nodetypes="ccccc" />
    <path
       id="path4144"
       style="fill:#bdfef8;fill-opacity:1;fill-rule:evenodd;stroke:#2aa9cd;stroke-width:44;stroke-linecap:butt;stroke-linejoin:round;stroke-miterlimit:4;stroke-opacity:1;stroke-dasharray:none"
       d="m 4158,2386 c 368.7519,-185.9813 860.2722,-41.6944 1108,86 -66.6135,272.9313 -263.7551,539.5241 -582,516 -344.6914,-25.479 -542.739,-301.1217 -526,-602 z m -326,-66 c -199.8812,-295.6991 -680.7969,-407.5026 -1038,-418 -46.4115,320.2202 -1.7119,598.2221 336,734 295.2711,118.7145 581.0272,-50.3392 702,-316 z m 1561.8105,189.721 84.8529,5.6568 c 10.2053,-34.1067 17.1331,-71.4909 19.7989,-113.1371 -372.8401,-191.8829 -981.6413,-392.5875 -1397.243,-107.4802 -75.8283,-71.3864 -136.8795,-56.8517 -197.9899,-39.598 -197.3525,-411.9428 -808.819,-513.4654 -1301.0764,-520.4306 -15.6506,33.7526 -18.2786,71.846 -11.3138,113.1371 20.7418,14.5803 47.1405,27.2764 67.8823,39.598 -64.5797,316.9591 68.4721,739.0648 469.5189,865.4987 344.195,108.5109 628.8996,-77.6295 800.4448,-408.7077 41.1087,-10.9496 78.5983,-5.8418 114.5514,11.3137 32.7306,562.5761 341.7804,758.0399 683.0651,739.6337 403.9229,-21.7845 574.3063,-314.4628 667.5088,-585.4844 z"
       inkscape:connector-curvature="0"
       sodipodi:nodetypes="ccscccscccccccccsccsc" />
  </g>
</svg>
