<?xml version="1.0" encoding="UTF-8"?><svg xmlns="http://www.w3.org/2000/svg" xmlns:xlink="http://www.w3.org/1999/xlink" version="1.1" viewBox="0 0 5583.7534 5583.7389"><defs id="defs4"><linearGradient id="linearGradient4406"><stop id="stop4408" stop-color="#bc4081" offset="0"/><stop id="stop4410" stop-color="#5c2040" offset="1"/></linearGradient><clipPath id="clipPath4101" clipPathUnits="userSpaceOnUse"><path id="path4103-7" d="m428.3 862.62 8.0812-288.9-38.386 6.0609 52.528-222.23-60.609 36.365 42.426-155.56 88.893 56.569zm234.36-437.92c7.67-127.84-30.61-256.86-189.91-279.29l-36.36-121.22 153.14-15.352 121.62 152.73z" stroke="#000" stroke-width="1px" fill="none"/></clipPath><clipPath id="clipPath4274" clipPathUnits="userSpaceOnUse"><path id="path4276" opacity=".5" d="m1047.2 1994.5c-64.594-240.86-83.178-522.43 4.2642-775.68 28.257-81.837 74.569-90.26 118.75 1.4239 92.105 191.13 97.034 540.9-29.528 708.06z" stroke="#f00" stroke-width="1.0766px" fill="#0f0"/></clipPath><clipPath id="clipPath4351" clipPathUnits="userSpaceOnUse"><path id="path4353" opacity=".5" d="m1461.5 2150.1c-9.8882-325.47 53.637-588.35 249.69-722.75 195.32-133.9 652.43-187.35 519.52 357.78-98.831 405.36-427.74 485.48-769.22 364.97z" stroke="#f00" stroke-width="1.0663px" fill="#0f0"/></clipPath><clipPath id="clipPath4380" clipPathUnits="userSpaceOnUse"><path id="path4382" opacity=".5" d="m1047.2 1994.5c-64.594-240.86-83.178-522.43 4.2642-775.68 28.257-81.837 74.569-90.26 118.75 1.4239 92.105 191.13 100.03 540.9-26.528 708.06z" stroke="#f00" stroke-width="1.0766px" fill="#0f0"/></clipPath><clipPath id="clipPath4310" clipPathUnits="userSpaceOnUse"><path id="path4312" opacity=".5" d="m1755.1 1918c-56.525-320.68-31.41-589.96 143.31-751.12 174.07-160.56 618.76-279.1 565.52 279.46-39.595 415.35-353.59 541.87-708.83 471.65z" stroke="#f00" stroke-width="1.0663px" fill="#0f0"/></clipPath><clipPath id="clipPath4314" clipPathUnits="userSpaceOnUse"><path id="path4316" opacity=".5" d="m1755.1 1918c-56.525-320.68-31.41-589.96 143.31-751.12 174.07-160.56 618.76-279.1 565.52 279.46-39.595 415.35-353.59 541.87-708.83 471.65z" stroke="#f00" stroke-width="1.0663px" fill="#0f0"/></clipPath><clipPath id="clipPath4350" clipPathUnits="userSpaceOnUse"><path id="path4352" opacity=".5" d="m1047.2 1994.5c-64.594-240.86-83.178-522.43 4.2642-775.68 28.257-81.837 74.569-90.26 118.75 1.4239 92.105 191.13 97.034 540.9-29.528 708.06z" stroke="#f00" stroke-width="1.0766px" fill="#0f0"/></clipPath><clipPath id="clipPath4390" clipPathUnits="userSpaceOnUse"><ellipse id="ellipse4392" style="color:#000000" rx="309.82" ry="388.16" transform="matrix(.98963 .14361 -.14361 .98963 0 0)" cy="1554.6" cx="2042.6" fill="#f00"/></clipPath><clipPath id="clipPath4394" clipPathUnits="userSpaceOnUse"><ellipse id="ellipse4396" style="color:#000000" rx="309.82" ry="388.16" transform="matrix(.98963 .14361 -.14361 .98963 0 0)" cy="1554.6" cx="2042.6" fill="#f00"/></clipPath><clipPath id="clipPath4398" clipPathUnits="userSpaceOnUse"><ellipse id="ellipse4400" style="color:#000000" rx="162" ry="396" cy="1760" cx="1201.8" fill="#f00"/></clipPath><clipPath id="clipPath4402" clipPathUnits="userSpaceOnUse"><ellipse id="ellipse4404" style="color:#000000" rx="162" ry="396" cy="1760" cx="1201.8" fill="#f00"/></clipPath><linearGradient id="linearGradient4412" y2="1335.7" xlink:href="#linearGradient4406" gradientUnits="userSpaceOnUse" x2="2000.6" y1="1865.1" x1="2077.4"/><linearGradient id="linearGradient4420" y2="1481.3" xlink:href="#linearGradient4406" gradientUnits="userSpaceOnUse" x2="1119.8" y1="1917.3" x1="1119.8"/></defs><g transform="translate(-299.09 128.55)"><path id="path4409" d="m1126.3 1088.8c30.748 489 25.015 923.18-249.08 1242.9 484.58-156.3 561.28-700.5 559.98-1196.8z" stroke="#326a78" stroke-width="49" fill="#4ca1bb"/><path id="path4411" fill="#4ca1bb" d="m2003.9 580.57c91.918-399.2 380.74-727.71 880-680 499.26 47.707 800 517.18 800 960s-203.34 893.74-417.1 1271.1c-213.77 377.32-537.59 822.32-358.9 1032.9 178.69 210.62 383.81 61.245 480-128 34.387 418.39-166.11 577.89-520 504 182.64 141.05 365.86 111.94 512-8-181.28 377.03-562.88 437.78-926.95 242.37 88.248 126.37 197.06 190.66 350.95 229.63-680.33 19.983-871.77-628.31-728-1e3s411.21-561.48 568.75-854.39 345.8-643.55 391.25-1009.6c45.454-366.07-206.88-965.05-640-496z"/><path id="path4443" d="m2107.9 516.57c319.75-659.57 1059.4-589.22 1368-280" stroke="#286270" stroke-width="31" fill="none"/><path id="path4447-1" fill="#242661" d="m2911.9 3564.6c-261.6-97.352-341.57-395.13-252-656 89.237-259.89 249.02-488.34 393.26-739.28 168.34-292.86 407.77-586.93 466.74-988.72 58.969-401.8-19.462-741.01-296-928s-789.8-127.19-1040 280l60 12c213.65-214.71 469.82-321.54 756-188s350.72 457.31 336 736-199.91 616.15-397.94 958.22c-189.53 327.4-422.73 661.35-480.69 1002.8-57.961 341.48 153.26 716.66 546.63 798.95 182.13-37.16 288.37-140.32 348-284-146.67 89.037-293.33 93.592-440-3.9999z"/><path id="path4445" d="m2183.9 532.57c222.2-391.19 763.46-466.99 1040-280s354.97 526.2 296 928c-58.969 401.8-302.4 699.86-470.74 992.72-144.24 250.93-300.02 475.38-389.26 735.28-89.572 260.87-9.604 558.65 252 656" stroke="#26616f" stroke-width="31" fill="none"/><path id="path4447" d="m2243.9 544.57c213.65-214.71 485.82-325.54 772-192s330.72 493.31 316 772-195.91 584.15-393.94 926.22c-189.53 327.4-422.73 661.35-480.69 1002.8-57.961 341.48 161.26 724.66 554.63 806.95" stroke="#26616f" stroke-width="31" fill="none"/><path id="path4483-8" fill="#242661" d="m2687.9 3986.6c-281.82-142.44-626.13-622.96-444-962s449.3-779.98 620-1092 283.9-643.53 280-936c-3.8956-292.47-126.95-567.31-398-594-141.35-13.921-308.26 63.701-390 206l68 36c74.411-107.72 185.62-160.23 324-172 168.5 74.171 261.96 247.38 292 460 6.94 343.4-56.705 660.16-304 940-97.283 399.55-400.46 668.07-604 1e3 -333.45 614.51 172.51 1128.4 556 1114z"/><path id="path4411-1" d="m2003.9 580.57c91.918-399.2 380.74-727.71 880-680 499.26 47.707 800 517.18 800 960s-203.34 893.74-417.1 1271.1c-213.77 377.32-537.59 822.32-358.9 1032.9 178.69 210.62 383.81 61.245 480-128 34.387 418.39-166.11 577.89-520 504 182.64 141.05 365.86 111.94 512-8-181.28 377.03-560.88 445.78-924.95 250.37 83.844 117.45 202.5 176.71 348.95 221.63-680.33 19.983-871.77-628.31-728-1e3s411.21-561.48 568.75-854.39 345.8-643.55 391.25-1009.6c45.454-366.07-206.88-965.05-640-496z" stroke="#26616f" stroke-miterlimit="9" stroke-width="49" fill="none"/><path id="path4483" d="m2687.9 3986.6c-281.82-142.44-626.13-622.96-444-962s449.3-779.98 620-1092 283.9-643.53 280-936c-3.8956-292.47-126.95-567.31-398-594-141.35-13.921-308.26 63.701-390 206" stroke="#26616f" stroke-width="31" fill="none"/></g><g transform="translate(-299.09 128.55)"><path id="path4123-5-9" fill="#b6d1de" d="m1609.1 1650.3c312.6-293.54 323.14-733.85 154-1060-38.741-74.704-75.292-100.59-142-48-164.05 129.34-257.67 284.19-296 464"/><path id="path4123-0" fill="#2b5f73" d="m1679.5 490.35c-6.7444 0.25543-13.544 1.3341-20.221 3.2266-17.806 5.0466-35.07 15.097-53.369 29.523-167.96 132.42-271.36 291.18-286.5 461.43 64.863-153.74 156.69-296.69 316.84-422.95 15.055-11.87 27.374-18.305 36.394-20.861 9.02-2.5565 14.408-2.021 20.557 0.52343 12.297 5.0888 29.678 24.794 48.131 60.377 85.846 165.54 124.19 361.62 98.23 551.14-23.874 174.3-83.664 341.01-242.72 500.95 188.95-112.06 266.02-309.98 291.27-494.3 27.452-200.42-12.909-406.1-103.28-580.35-20.288-39.121-40.554-69.712-72.894-83.096-10.106-4.1823-21.193-6.041-32.434-5.6152z"/></g><g transform="translate(-299.09 128.55)"><path id="path4705-8" fill="#b6d1de" d="m3148 3792 13-170-344-12 137 271z"/><path id="path4453-1-2" fill="#c93d94" d="m1784.7 4770.8-67.761 131.52c-47.199 91.613 666.02 146.24 683.24 73.68l34.667-146.06c33.08-139.38-581.09-193.17-650.15-59.14z"/><path id="path4453-2-2-1" d="m1784.7 4770.8-67.761 131.52c-47.199 91.613 666.02 146.24 683.24 73.68l34.667-146.06c33.08-139.38-581.09-193.17-650.15-59.14z" fill-opacity=".37647" stroke="#782153" stroke-width="31"/><path id="path4081-4" d="m2166.6 3531.4c-36.81 483.98-170.67 1080.8-480.83 1516-94.706 132.9-33.174 165.66 84.853 178.19 83.157 8.8301 224.88 7.4856 313.96 0 152.35-12.802 219.13-115.89 254.56-240.42 130.15-457.46 200.03-940.7 101.82-1417" stroke="#2b5f73" stroke-width="49" fill="#b6d1de"/><path id="path4083-0" d="m3153.7 3754.9c81.371-4.6764 141.57 31.589 161.22 110.31 90.544 362.74 119.57 930.42-62.225 1349.2-19.577 45.094-62.049 63.267-93.338 65.054-131.54 7.5109-237.93 2.9171-362.04-14.142-76.454-15.978-132.97-43.499-67.882-141.42 276.58-521.39 226.21-1042.2 96.166-1524.5" stroke="#2b5f73" stroke-width="49" fill="#b6d1de"/><path id="path4085-8" fill="#2b5f73" d="m3177.6 3568.1c-36.883 83.78-54.035 203.01-23.685 277.25-3.5919-78.493 33.22-177.29 68.533-257.51z"/><path id="path4511-5-2-9" d="m2403.1 4859 111.75 68.358-132.04 43.08" stroke="#25a0b5" stroke-width="19" fill="#bde5ef"/><path id="path4511-7-9" d="m1790.5 4815-145.71-4.0054 111.14 105.22" stroke="#25a0b5" stroke-width="19" fill="#a0d7e4"/><path id="path4453-3-9-6" d="m1784.7 4770.8c28.258 89.024 652 103.35 650.15 59.14l-34.667 146.06c-17.22 72.555-730.44 17.933-683.24-73.68l67.761-131.52" stroke="#782153" stroke-width="31" fill="#c93d94"/><circle id="path4488-1-6" style="color:#000000" d="m 2126,4926 c 0,25.4051 -20.5949,46 -46,46 -25.4051,0 -46,-20.5949 -46,-46 0,-25.4051 20.5949,-46 46,-46 25.4051,0 46,20.5949 46,46 z" cx="2080" stroke="#25a0b5" cy="4926" r="46" stroke-width="19" fill="#a0d7e4"/><path id="path4226-8" d="m1862.7 4846.6c57.392 17.307 30.475 105.28-26.561 88.082l-46.573-59.136z" stroke="#25a0b5" stroke-width="19" fill="#a0d7e4"/><path id="path4226-78" d="m2310 4884c-59.945 0-59.573 92 0 92l61.663-43.172z" stroke="#25a0b5" stroke-width="19" fill="#a0d7e4"/></g><g transform="translate(-299.09 128.55)"><path id="path4646" fill="#4ca1bb" d="m3541.2 2909.2c55.359-191.16 196.06-345.82 362.04-384.67 165.98-38.844 349.6-8.8114 367.7 226.27 18.096 235.09-156.71 490.7-322.44 927.72s107.46 1369.5 814.59 1142.7c-129.36-22.199-261.2-46.266-351.13-138.19 397.75 119.37 792.74 14.078 939.89-419.16-109.63 94.716-265.91 136.19-401.8 96.804 333.79-63.067 375.89-235 363.98-492.03-73.2 125.67-131.7 198.32-238.44 233.47-106.74 35.152-224.38 27.596-295.93-141.42-71.547-169.02 81.786-464.52 221.02-853.5s109.06-817.7-141.42-1052.2c-250.48-234.47-1191.4-276.02-1397.2 673.17z"/><path id="path72" d="m3507.7 2699.9c206-533.23 602.21-630.48 880.17-594.54 277.96 35.938 467.62 198.48 492.1 440.88 24.481 242.41-55.755 486.69-153.27 694.56-97.511 207.88-230.52 429.19-207.8 676.69 22.716 247.49 254.81 470.94 514.15 461.18" stroke="#26616f" stroke-width="31" fill="none"/><path id="path4177" d="m5003.5 4674.1c-406.15-17.438-667.72-274.95-721.25-565.69s59.62-523.94 209.3-752.36 254.96-494.04 243.24-712.76c-11.71-218.72-126.66-382.02-401.64-407.29-274.98-25.278-587.51 61.281-803.27 492.15" stroke="#26616f" stroke-width="31" fill="none"/><path id="path4179-4" fill="#242661" d="m3564 2772c102.42-266.56 372.01-384.45 583.1-361.96 211.09 22.492 293.2 125.61 291.04 342.58-2.1525 216.97-139.82 492.07-273.33 737.53-133.5 245.47-162.43 542.17-75.137 785.27 87.291 243.1 231.92 390.19 416 484.55l248.9 49.882c-304.76 94.716-551.31-7.046-735.39-319.61-117.4-308.47-206.23-622.13 2.8284-989.95 104.7-233.4 221.06-469.98 246.07-681.65 24.756-252.84-106.32-325.49-322.44-299.81-136.69 51.215-273.99 100.96-359.21 277.19z"/><path id="path4179" d="m3564 2772c102.42-266.56 372.01-384.45 583.1-361.96 211.09 22.492 293.2 125.61 291.04 342.58-2.1525 216.97-139.82 492.07-273.33 737.53-133.5 245.47-162.43 542.17-75.137 785.27 87.291 243.1 231.92 390.19 416 484.55" stroke="#26616f" stroke-width="31" fill="none"/><path id="path4177-7" fill="#242661" d="m5003.5 4674.1c-406.15-17.438-667.72-274.95-721.25-565.69s59.62-523.94 209.3-752.36 254.96-494.04 243.24-712.76c-11.71-218.72-126.66-382.02-401.64-407.29-274.98-25.278-587.51 61.281-803.27 492.15l-22.225-28.284c206-533.23 602.21-630.48 880.17-594.54 277.96 35.938 467.62 198.48 492.1 440.88 24.481 242.41-55.755 486.69-153.27 694.56-97.511 207.88-230.52 429.19-207.8 676.69 22.716 247.49 254.81 470.94 514.15 461.18 119.27-0.1594 224.39-37.142 317-106.63-53.599 167.56-164.94 303.85-346.51 402.1z"/><path id="path78" d="m3507.7 2699.9c206-533.23 602.21-630.48 880.17-594.54 277.96 35.938 467.62 198.48 492.1 440.88 24.481 242.41-55.755 486.69-153.27 694.56-97.511 207.88-230.52 429.19-207.8 676.69 22.716 247.49 254.81 470.94 514.15 461.18" stroke="#26616f" stroke-width="31" fill="none"/><path id="path80" d="m5003.5 4674.1c-406.15-17.438-667.72-274.95-721.25-565.69s59.62-523.94 209.3-752.36 254.96-494.04 243.24-712.76c-11.71-218.72-126.66-382.02-401.64-407.29-274.98-25.278-587.51 61.281-803.27 492.15" stroke="#26616f" stroke-width="31" fill="none"/><path id="path4646-8" d="m3541.2 2909.2c55.359-191.16 196.06-345.82 362.04-384.67 165.98-38.844 349.6-8.8114 367.7 226.27 18.096 235.09-156.71 490.7-322.44 927.72s107.46 1369.5 814.59 1142.7c-129.36-22.199-261.2-46.266-351.13-138.19 397.75 119.37 792.74 14.078 939.89-419.16-109.63 94.716-265.91 136.19-401.8 96.804 333.79-63.067 375.89-235 363.98-492.03-73.2 125.67-131.7 198.32-238.44 233.47-106.74 35.152-224.38 27.596-295.93-141.42-71.547-169.02 81.786-464.52 221.02-853.5s109.06-817.7-141.42-1052.2c-250.48-234.47-1191.4-276.02-1397.2 673.17z" stroke="#26616f" stroke-miterlimit="9" stroke-width="49" fill="none"/></g><g transform="translate(-299.09 128.55)"><path id="path4453-0" fill="#d558a6" d="m2572.7 4925.2-4.6404 138.22c-3.4601 103.06 772.04 68.603 765.69-5.5388l-12.276-143.24c-12.206-142.42-743.71-140.23-748.77 10.56z"/><path id="path4453-2-5" d="m2572.7 4925.2-4.6404 138.22c-3.4601 103.06 772.04 68.603 765.69-5.5388l-12.276-143.24c-12.206-142.42-743.71-140.23-748.77 10.56z" fill-opacity=".37647" stroke="#782153" stroke-width="31"/><path id="path4098-0-8" fill="#d0e3eb" d="m3599 3812c2.4545-96.291 32.266-198.28 61.014-291.92 66.909-217.95 67.582-463.69-5.6568-647.71s-180.8-269.38-373.35-288.5c-192.55-19.122-479.43 35.225-631.61 137.53l-5.4-629.4-684 288c-136.54 256.36-206.31 683.66-72 984s390.85 415.8 656 440l366.45-3.8847c114.06-22.283 201.39-63.02 266.31-119.23l127.24 253.12 524 78c-33.457-125.88-84.797-227.07-229.03-199.98z"/><path id="path4094-1-3" fill="#d0e3eb" d="m2489 3658.7c158.86 321.59 208.2 1186.3 93.338 1510.4-65.936 186.04-39.344 229.01 118.79 251.73 111.89 16.073 281.02 9.6155 404.47 0 190.48-14.836 172.32-134.3 172.53-254.56 1.2499-710.99-261.04-1108.7-463.86-1578.3"/><path id="path4092-6" d="m2544 3804c-265.15-24.196-521.69-139.66-656-440s-64.535-727.64 72-984" stroke="#2b5f73" stroke-width="49" fill="none"/><path id="path4094-15" fill="#2b5f73" d="m2791.6 3576.7c39.924 97.836 75.835 189.13 114.5 271.65 175.12 373.72 348.59 740.36 347.57 1317.8-0.1079 61.376 2.9068 118.82-13.062 157.51-7.9847 19.345-19.62 34.467-40.359 47.004s-51.462 22.155-96.514 25.664c-122.57 9.5469-291.54 15.622-399.08 0.1738-38.554-5.5383-68.151-12.375-88.402-21.031s-30.45-17.848-36.533-30.178c-12.166-24.661-6.6714-76.606 25.752-168.09 49.241-138.93 67.988-363.34 63.652-604.69-4.3359-241.35-32.477-498.48-81.262-698.73-21.5-88.247-49.766-154.12-87.109-233.45 5.084 84.721 18.56 159.09 39.502 245.04 47.52 195.05 75.598 449.86 79.877 688.01 4.2784 238.15-15.966 460.82-60.846 587.44-33.513 94.555-47.691 157.12-23.51 206.13 12.09 24.508 34.068 41.95 61.219 53.555s60.178 18.656 100.69 24.477c116.24 16.699 285.52 9.8598 409.85 0.1758 50.187-3.9092 88.624-14.788 118.06-32.582 29.435-17.794 48.99-42.836 60.303-70.244 22.625-54.816 16.666-117.23 16.77-176.12 1.0325-587.35-177.12-965.06-352.2-1338.7-38.658-82.495-82.831-153.53-158.87-250.85z"/><path id="path4096-5" fill="#2b5f73" d="m3344.2 3232.3c-16.037 165.78-73.701 329.15-174.37 421.95-61.934 57.098-147.61 99.089-264.07 121.84l9.3945 48.09c123.19-24.066 218.16-69.623 287.89-133.9 113.33-104.48 151.54-290.01 141.16-457.98z"/><path id="path4100-0" d="m3600 3820c105.66-19.742 163.13 4.253 196 104 120.2 364.79 163.98 853.5 124 1282.7-8.3949 90.134-79.753 115.23-164 124.77-115.27 13.052-239.97 13.433-365.66-2.8284-111.66-14.448-129.69-53.82-56-212.69 229-493.72 75.253-1037.2-158.02-1423.4" stroke="#2b5f73" stroke-width="49" fill="#d0e3eb"/><path id="path4098-2" fill="#2b5f73" d="m3129.2 2551.5c-160.62-0.7385-336.87 42.276-494 145.53l18.807 45.248c185.5-112.44 435-152.83 624.57-134.01 93.155 9.2511 162.99 33.991 218.8 77.375 55.808 43.384 98.63 106.41 134.21 195.8 70.449 177.01 70.406 418.41 5 631.46-36.526 118.98-68.109 259.48-31.364 416.37 2.8033-159.89 41.858-283.59 78.206-401.99 68.411-222.84 69.715-472.92-6.3144-663.96-37.662-94.632-85.242-166.29-149.66-216.37-64.421-50.079-144.64-77.578-244.03-87.449-48.882-4.8545-100.68-7.7616-154.22-8.0078z"/><path id="path4615-8" fill="#2b5f73" d="m2660.6 1901.8-48.992 0.8125c3.7564 226.35-6.5199 511.57 4.6621 742.31 6.1409 126.72 31.053 221.17 77.038 304.19-10.583-82.439-22.047-181.72-28.097-306.56-11.016-227.32-0.8192-512.25-4.6114-740.75z"/><path id="path4511-5-9" d="m3308.2 4955.4 145.15 34.094-141.56 61.656" stroke="#25a0b5" stroke-width="19" fill="#bde5ef"/><path id="path4511-1" d="m2607.4 4972-144.53 36 141.79 60" stroke="#25a0b5" stroke-width="19" fill="#bde5ef"/><path id="path4453-3-95" d="m2572.7 4925.2c37.44 85.812 754.11 33.258 748.77-10.56l12.276 143.24c6.3542 74.142-769.15 108.6-765.69 5.5388l4.6404-138.22" stroke="#782153" stroke-width="31" fill="#d558a6"/><circle id="path4488-2-8" style="color:#000000" d="m 3007,5048 c 0,25.4051 -20.5949,46 -46,46 -25.4051,0 -46,-20.5949 -46,-46 0,-25.4051 20.5949,-46 46,-46 25.4051,0 46,20.5949 46,46 z" cx="2961" stroke="#25a0b5" cy="5048" r="46" stroke-width="19" fill="#bde5ef"/><path id="path4226" d="m2705.7 4997.1c59.752 4.8053 52.006 96.479-7.375 91.704l-58.004-47.976z" stroke="#25a0b5" stroke-width="19" fill="#bde5ef"/><path id="path4226-7" d="m3200.2 4981.9c-59.449 7.6928-47.274 98.884 11.806 91.239l55.613-50.728z" stroke="#25a0b5" stroke-width="19" fill="#bde5ef"/></g><g transform="translate(-299.09 128.55)"><g id="g4142" transform="matrix(1.1299 0 0 1 -470.67 0)"><path id="path4076" fill="#970972" d="m3534.5 3334.5c45.947-83.885 107.92-220.25 83.787-360.89-24.137-140.64-98.04-133.81-124.88 48.05-39.61-40.174-153.7-102.57-127.04 51.306 26.662 153.87 118.63 221.41 168.13 261.53z"/><path id="path4078" fill="#55a9bc" d="m3510.9 3416.2c14.067-17.745 19.974-43.609 14.223-90.791-8.5277-69.958-10.477-139.77-14.959-209.75l-13.007 6.2083-6.4662-175.36-16.019 30.313-9.1838-74.285c37.068-2.7231 70.954 68.734 73.278 187.03 43.698-43.569 0.2588-267.43-64.036-271.22l-15.034-69.048-55.399 121.56 44.248 219.11 5.4049-17.025 24.637 128.47 7.7977-9.9444 18.323 104.15c-19.911-12.703-37.027 2.949-47.459 37.543-15.104 50.084 15.022 131.79 53.654 83.059z"/><path id="path4078-1" d="m335.37 947.47c50.934-21.602 80.754-55.791 84.853-121.22 6.0768-97.011 32.105-192.6 50.508-288.9l-42.426 6.0609 60.609-240.42-62.629 38.386 6.0609-103.04c114.06 3.15 184.47 106.91 137.39 268.71 152.93-51.35 123.23-364.78-70.71-381.84l-14.142-96.975-224.25 155.56 34.345 307.09 24.244-22.223 16.162 179.81 28.284-12.122 8.0812 145.46c-54.78-21.016-114.04-2.8327-161.62 42.426-68.897 65.525-14.622 182.56 125.26 123.24z" fill-opacity=".37647" clip-path="url(#clipPath4101)" transform="matrix(.32201 -.043706 .10807 .71839 3300.5 2750.2)"/></g></g><g transform="translate(-299.09 128.55)"><path id="path5239" d="m2009 3172.4c-105.41-62.638-151.64-161.87-199-289.82-5.2664 52.488-6.8443 131.73-1.6924 190.15 49.777 89.947 108.72 150 205.23 167.71" stroke="#0a0d09" stroke-miterlimit="9" stroke-width="31" fill="#2b2b2c"/><path id="path5237" d="m2062.6 3172.4c247.16-96.312 439.43-287.17 589.82-547.99 5.1108 54.69 5.292 101.33 5.7234 150.61-140.67 282.46-384.59 420.13-593.73 459.99" stroke="#0a0d09" stroke-width="31" fill="#2b2b2c"/><path id="path5227" d="m2006.3 3274.9c-12.344-41.191-19.588-87.005-0.9073-123.39 23.287-11.65 51.11-13.712 79.84-2.7218 17.103 42.037 12.106 84.074 5.4437 126.11" stroke="#bd9409" stroke-width="21.774" fill="#e4be0d"/><path id="path5249" fill="#960000" d="m2164.1 3468.9-87.624-50.811-35.191 30.792-36.657-26.393-36.667 58.421 100.07 72.051z"/><path id="path5247" fill="#d70001" d="m2076.5 3418.1 87.624 50.811 2.6686-144.1-65.38-69.383-47.885 84.472 23.95 25.416z"/><path id="path5245" fill="#d70001" d="m1996 3259.4 18.911 81.935-15.152 38.612 4.8876 42.522-36.667 58.421-13.343-116.08z"/><path id="path5243" fill="#e88d8d" d="m2101.4 3255.4-47.885 84.472-38.612 1.4663-18.911-81.935z"/><path id="path5210" d="m2101.4 3255.4-105.41 4.0027-41.363 105.41 13.343 116.08 100.07 72.051 96.068-84.06 2.6686-144.1z" stroke="#670405" stroke-width="21.774" fill="none"/><path id="path5210-6" d="m2053.5 3339.9-38.612 1.4663-15.152 38.612 4.8876 42.522 36.657 26.393 35.191-30.792 0.9776-52.786z" stroke="#670405" stroke-width="9.9799" fill="#ea8a93"/><path id="path5241" d="m1996 3259.4 18.911 81.935m-15.152 38.612-45.123-15.139m50.01 57.662-36.667 58.421m73.325-32.028 26.747 104.08m8.4444-134.87 87.624 50.811m-86.646-103.6 89.315-40.505m-113.26 15.089 47.885-84.472" stroke="#670405" stroke-width="9.9799" fill="none"/></g><g transform="translate(-299.09 128.55)"><path id="path4200" fill="#d0e3eb" d="m2073.2 2434 500.63-248.9c91.332-203.57 114.15-432.84 84.853-681.65l-313.9-554.34c-308.3-204.55-616.6-203.48-924.9-53.74-468.98 248.28-454.38 693.88-401.7 1091.8-92.636 17.174-121.37 74.285-93.338 166.88 121.16 247.04 399.99 341.58 625.08 345.07 181.53-0.3481 356.8-19.481 523.26-65.054z"/><path id="path4103" fill="#2b5f73" d="m987.18 1976.7c-27.221-0.064-50.832 8.2714-67.885 22.936-17.053 14.664-27.008 34.55-31.744 54.996-9.4716 40.891-0.69032 85.427 18.869 119.88 139.79 246.26 380.24 335.04 636.65 345.08 177.36 6.9459 372.12-19.722 551.67-94.784-185.31 40.903-379.19 52.501-549.75 45.822-246.6-9.6576-465.46-90.43-595.96-320.31-13.092-23.062-19.628-59.242-13.746-84.635 2.9408-12.696 8.3291-22.345 15.955-28.902 7.626-6.5576 18.029-11.13 35.824-11.088 90.227 0.2116 151.73-60.24 196.1-166.56-74.422 88.842-120.67 117.74-195.99 117.56z"/><path id="path4105" fill="#2b5f73" d="m1048.3 2308.9c119.58 0.9186 175.07-53.49 193.66-142.93 15.446 100.56-38.65 179.99-145.66 182.93z"/><path id="path4107" fill="#2b5f73" d="m1056.4 2125.7c52.402 10.912 82.392-8.5921 82.024-69.296 37.959 75.985-15.802 134.56-82.024 69.296z"/><path id="path4609" fill="#2b5f73" d="m2680.2 1524.2-48.418 7.5196c20.582 132.5 16.814 280.23-9.7383 410.29s-42.565 213.72-127.25 344.74c118.96-109.4 147.45-198.69 175.26-334.93 27.815-136.25 31.708-288.79 10.146-427.61z"/></g><g transform="translate(-299.09 128.55)"><path id="path4406" d="m1888.3 616.4c13.304-65.365 53.672-120.58 109.57-169.97 164.33-13.498 364.79 43.479 473.66 183.56-48.072 66.36-122.33 108.53-203.22 140.08z" stroke="#1b1b43" stroke-width="49" fill="#1d215b"/><path id="path4402" d="m1536 660c438.43-208.81 838.34-86.517 1156.5 270.01 335.86 425.89 174.47 1159.6-319 1351.9 239.92-301.58 359.7-691.24 299.14-991.68" stroke="#26616f" stroke-width="49" fill="#4ca1bb"/><path id="path4580" d="m2299.4 630.69c-114.76-24.455-225.73-21.99-325 49" stroke="#26616f" stroke-width="31" fill="none"/><path id="path4582" d="m2164 580c-111.99-11.527-223.66 2.1504-320 60" stroke="#26616f" stroke-width="31" fill="none"/></g><g transform="translate(-299.09 128.55)"><path id="path4888-9" fill="#fff" d="m1461.5 2150.1c-9.8882-325.47 53.637-588.35 249.69-722.75 195.32-133.9 652.43-187.35 519.52 357.78-98.831 405.36-427.74 485.48-769.22 364.97z"/><path id="path4890-2" fill="#fff" d="m1047.2 1994.5c-64.594-240.86-83.178-522.43 4.2642-775.68 28.257-81.837 74.569-90.26 118.75 1.4239 92.105 191.13 97.034 540.9-29.528 708.06z"/><ellipse id="path4250" style="color:#000000" d="m 2352.4246,1554.6226 c 0,214.3751 -138.7094,388.1605 -309.8162,388.1605 -171.1068,0 -309.8162,-173.7854 -309.8162,-388.1605 0,-214.3752 138.7094,-388.1606 309.8162,-388.1606 171.1068,0 309.8162,173.7854 309.8162,388.1606 z" clip-path="url(#clipPath4314)" rx="309.82" ry="388.16" transform="matrix(.98963 .14361 -.14361 .98963 0 0)" cy="1554.6" cx="2042.6" fill="url(#linearGradient4412)"/><ellipse id="path4252" style="color:#000000" d="m 1363.799,1760 c 0,218.7048 -72.5299,396 -162,396 -89.4702,0 -162,-177.2952 -162,-396 0,-218.7048 72.5298,-396 162,-396 89.4701,0 162,177.2952 162,396 z" clip-path="url(#clipPath4350)" rx="162" ry="396" cy="1760" cx="1201.8" fill="url(#linearGradient4420)"/><path id="path4330" clip-path="url(#clipPath4394)" fill="#e69bc8" d="m1633.4 2030.9-93.338 65.054-35.355-70.711 110.31-41.012z"/><path id="path4332" clip-path="url(#clipPath4390)" fill="#881f4e" d="m1615 1989.9-108.89 42.426-31.113-117.38 125.87 5.6569z"/><path id="path4354" clip-path="url(#clipPath4402)" fill="#e69bc8" d="m1111.6 1868.3-70.711 32.527-7.0711-69.296 67.882-4.2426z"/><path id="path4356" clip-path="url(#clipPath4398)" fill="#881f4e" d="m1103.1 1831.5-69.296 7.0711-1.4142-90.51 70.711 19.799z"/><ellipse id="path4256" style="color:#000000" d="m 2252.7137,1563.5253 c 0,166.1899 -93.2701,300.9135 -208.3247,300.9135 -115.0545,0 -208.3247,-134.7236 -208.3247,-300.9135 0,-166.19 93.2702,-300.9135 208.3247,-300.9135 115.0546,0 208.3247,134.7235 208.3247,300.9135 z" clip-path="url(#clipPath4310)" rx="208.32" ry="300.91" transform="matrix(.98963 .14361 -.14361 .98963 0 0)" cy="1563.5" cx="2044.4"/><ellipse id="path4290" style="color:#000000" d="m 2440.5961,285.9852 c 0,112.10243 -39.8703,202.97941 -89.0529,202.97941 -49.1826,0 -89.0529,-90.87698 -89.0529,-202.97941 0,-112.10244 39.8703,-202.979417 89.0529,-202.979417 49.1826,0 89.0529,90.876977 89.0529,202.979417 z" rx="89.053" ry="202.98" transform="matrix(.77721 .62924 -.52276 .85248 0 0)" cy="285.99" cx="2351.5" fill="#fff"/><ellipse id="path4292" style="color:#000000" d="m 2177.8747,1484.6512 c 0,43.7388 -22.1608,79.196 -49.4975,79.196 -27.3367,0 -49.4975,-35.4572 -49.4975,-79.196 0,-43.7387 22.1608,-79.1959 49.4975,-79.1959 27.3367,0 49.4975,35.4572 49.4975,79.1959 z" rx="49.497" ry="79.196" transform="rotate(10.763)" cy="1484.7" cx="2128.4" fill="#fff"/><ellipse id="path4254" style="color:#000000" d="m 1272,1762 c 0,166.79 -40.2944,302 -90,302 -49.7056,0 -90,-135.21 -90,-302 0,-166.79 40.2944,-302 90,-302 49.7056,0 90,135.21 90,302 z" clip-path="url(#clipPath4274)" rx="90" ry="302" cy="1762" cx="1182"/><ellipse id="path4294" style="color:#000000" d="m 1460.9002,1322.1699 c 0,71.0754 -15.1959,128.6935 -33.9411,128.6935 -18.7452,0 -33.9411,-57.6181 -33.9411,-128.6935 0,-71.0754 15.1959,-128.6934 33.9411,-128.6934 18.7452,0 33.9411,57.618 33.9411,128.6934 z" rx="33.941" ry="128.69" transform="rotate(12.132)" cy="1322.2" cx="1427" fill="#fff"/><ellipse id="path4296" style="color:#000000" d="m 1176.6257,1715.5645 c 0,18.7451 -6.3317,33.9411 -14.1422,33.9411 -7.8105,0 -14.1421,-15.196 -14.1421,-33.9411 0,-18.7452 6.3316,-33.9412 14.1421,-33.9412 7.8105,0 14.1422,15.196 14.1422,33.9412 z" rx="14.142" ry="33.941" cy="1715.6" cx="1162.5" fill="#fff"/></g><g transform="translate(-299.09 128.55)"><path id="path4123-5" fill="#d0e3eb" d="m2616 1712c312.6-293.54 323.14-733.85 154-1060-38.741-74.704-75.292-100.59-142-48-164.05 129.34-257.67 284.19-296 464"/><path id="path4123" fill="#2b5f73" d="m2686.4 552.01c-6.7444 0.25543-13.544 1.3341-20.221 3.2266-17.806 5.0466-35.07 15.097-53.369 29.523-167.96 132.42-271.36 291.18-286.5 461.43 64.863-153.74 156.69-296.69 316.84-422.95 15.055-11.87 27.374-18.305 36.394-20.861 9.02-2.5565 14.408-2.021 20.557 0.52343 12.297 5.0888 29.678 24.794 48.131 60.377 85.846 165.54 124.19 361.62 98.23 551.14-23.874 174.3-83.664 341.01-242.72 500.95 188.95-112.06 266.02-309.98 291.27-494.3 27.452-200.42-12.909-406.1-103.28-580.35-20.288-39.121-40.554-69.712-72.894-83.096-10.106-4.1823-21.193-6.041-32.434-5.6152z"/><path id="path4125" fill="#2b5f73" d="m2684 910c16.347 166.83-44.085 380.41-112 500 119.36-98.302 163.66-327.8 112-500z"/></g><g transform="translate(-299.09 128.55)"><path id="path4363" clip-path="url(#clipPath4380)" fill="#5eb7c2" d="m1144.1 1927.7c44.56-165.46 30.052-330.93 24.042-496.39-42.767-69.217-105.95-77.179-166.88-91.924 68.354-305.71 136.71-209.02 205.06-93.338 91.327 194.17 113.25 499.45-62.225 681.65z"/><path id="path4291" d="m1046.5 1989.9c-96.675-313.22-35.238-754.51 84.853-910.75" stroke="#2b5f73" stroke-width="31" fill="none"/><path id="path101" fill="#5eb7c2" d="m1461.5 2150.1c20.586-233.14 96.699-410.75 230.42-530.76 187.73-105.15 385.95-157.87 596.31-149.9-93.461-172.36-360.42-299.38-602.45-124.45-243.54 259.48-265.22 530.65-224.27 805.1z" clip-path="url(#clipPath4351)"/><path id="path4311" d="m1461.5 2150.1c90.663-520.85 329.54-557.15 480.42-579.8s259.46 11.256 316.93 70.874c74.17 76.947 182.13 161.78 357.18 170.78-104.65-81.867-247.83-190.86-268-424-121.33-0.7303-228.79 20.042-352 56-251.43 73.38-534.53 190.72-534.53 706.14z"/><path id="path4313" d="m2102.3 2047.5c120.7-109.75 184.78-261.52 183.1-439.4l-53.74-14.142c-5.6621 202.69-41.604 324.14-129.36 453.55z"/><path id="path4315" d="m2325 1472.3c134 107.32 277.57 145.52 418.61 172.53-136.33 25.676-272.67 17.411-401.64-62.225z"/><path id="path4317" d="m2356.1 1534.5c162.95 29.227 312.33-11.439 415.78-87.681-129.51 36.689-278.42 37.776-435.58 2.8285z"/><path id="path4319" d="m2341.9 1475.1c126.88-19.319 214.93-70.27 294.16-178.19-124 67.228-331.76 95.364-511.95 115.97z"/><path id="path4355" d="m1144.1 1927.7c22.217-156.51 26.283-390.93-4.2427-469.52-30.526-78.588-95.802-77.696-130.11-39.598-34.305 38.098-83.594 40.23-152.74 31.113 68.202-19.061 140.9-81.986 175.36-144.25 70.82 7.1152 135.7 38.578 164.05 132.94 28.351 94.358-10.144 333.51-52.326 489.32z"/><path id="path4357" d="m1063.5 1316.8c-83.143 46.735-170.65 50.844-257.39 36.77 88.261 53.222 175.63 57.367 257.39 33.941z" stroke="#000" stroke-width="1px"/><path id="path4359" d="m1069.1 1315.3c-89.226 22.864-172.83-4.8809-254.56-49.497 66.915 73.29 165.96 117.63 241.83 117.38z"/><path id="path4361" d="m1087.5 1319.6c-77.285-21.952-150.39-50.721-216.37-132.94 35.582 104.23 97.296 159.46 162.63 207.89z"/><path id="path4103-8" fill="#2b5f73" d="m987.18 1976.7c-27.221-0.064-50.832 8.2714-67.885 22.936-17.053 14.664-27.008 34.55-31.744 54.996l47.736 11.059c2.9408-12.696 8.3291-22.345 15.955-28.902 7.626-6.5576 18.029-11.13 35.824-11.088 90.227 0.2116 151.73-60.24 196.1-166.56-74.422 88.842-120.67 117.74-195.99 117.56z"/></g><g transform="translate(-299.09 128.55)"><path id="path4399-3" fill="#4ca1bb" d="m2201.9 1177.4-32 80c-256.32 25.54-501.33 125.59-752 274.01-111.86-116.04-219.91-255.9-363.03-340.69 38.929-112.24 80.262-172.67 144-244-88.111 33.736-161.96 108.7-215.03 184.49l-73.657-46.343c330.36-561.56 966.06-519.99 1293.8-260.9l144 228z"/><path id="path4397" fill="#4ca1bb" d="m2069.1 1270.8c221.1 306.1 289.3 736.2 170.9 1181.2 430.4-403.8 450.9-992.9 102-1579.2"/><path id="path4544-0" fill="#242661" d="m1324 1424c52.633-315.89 167.25-607.38 424-788l-84 4c-204.6 118.16-370.9 369.1-448 680z"/><path id="path4546-5" fill="#242661" d="m1544 1456c5.9371-327.96 120.27-666.17 312-808l60 12c-167.9 193.94-225.4 432.8-196 716z"/><path id="path4399" fill="#26616f" d="m1555.3 622.36c-248 27.95-497.4 163.18-666.19 450.14l-12.057 20.496 113.52 71.426 13.377-19.104c25.014-35.725 55.502-69.499 89.805-99.336-22.851 38.407-42.95 81.867-61.992 136.77l-6.5567 18.906 17.217 10.201c137.6 81.525 244.66 219.16 357.88 336.61l13.447 13.949 16.674-9.8711c248.8-147.31 490.37-245.65 741.95-270.71l14.795-1.4746c17.598-53.796 18.253-110.42 13.361-167.96-12.896 53.54-17.708 81.624-47.926 122.44-249.76 27.694-488.26 124.43-730.13 265.67-101.71-107.44-203.64-235.03-337.66-319.94 17.745-45.884 37.731-84.18 59.429-119.13 40.012-64.448 85.611-128.57 146.87-197.13-85.873 37.253-164.15 93.544-233.86 152.46-30.3 25.612-57.339 52.918-79.609 81.614l-33.967-21.373c160.97-260.36 388.77-379.88 617.27-405.85 234.38-26.64 463.64 9.0121 668.67 116.71-194.97-142.3-419.15-194.14-674.21-165.4z"/><path id="path4397-9" fill="#26616f" d="m2342 872.81c144.81 266.47 230.78 625.33 214.46 879.8-14.66 228.68-101.48 436.64-272.25 620.3 90.163-420.52 16.614-823.27-195.16-1116.5l-39.725 28.69c216.11 299.24 283.79 721.67 167.04 1160.6l-22.016 82.762 62.455-58.596c219.13-205.59 331.49-447.95 348.55-714.12 17.063-266.17-78.177-625.41-263.36-882.94z"/><path id="path4538" fill="#26616f" d="m2366.9 1361.5c91 340.23 85.474 768.55-139.49 1081.4l25.168 18.098c233.4-324.5 238.3-763.7 114.3-1099.5z"/><path id="path4544" d="m1664 640c-204.6 118.16-370.9 369.1-448 680m108 104c52.633-315.89 167.25-607.38 424-788" stroke="#26616f" stroke-width="31" fill="none"/><path id="path4546" d="m1544 1456c5.9371-327.96 120.27-666.17 312-808m60 12c-167.9 193.94-225.4 432.8-196 716" stroke="#26616f" stroke-width="31" fill="none"/><path id="path4548" d="m2046 700c-94.2 111.86-118.2 401.5-34 568" stroke="#26616f" stroke-width="31" fill="none"/></g></svg>