<?xml version="1.0" encoding="UTF-8"?><svg xmlns="http://www.w3.org/2000/svg" xmlns:xlink="http://www.w3.org/1999/xlink" version="1.1" viewBox="0 0 5931.1377 5931.1334"><defs id="defs4"><linearGradient id="linearGradient4682"><stop id="stop4684" stop-color="#a6a1e7" offset="0"/><stop id="stop4686" stop-color="#523fb2" offset="1"/></linearGradient><clipPath id="clipPath4269" clipPathUnits="userSpaceOnUse"><path id="path4271" opacity=".5" d="m4156.4 459.68c265.94-13.422 532.23 2.7895 799.32 88.037 38.23 116.59 16.646 270.4-54.004 363.29-139 182.79-369.7 135.29-515.7 10.86-101.4-86.37-244.5-287.76-229.6-462.19z" stroke="#f00" stroke-width="1px" fill="#0f0"/></clipPath><clipPath id="clipPath4273" clipPathUnits="userSpaceOnUse"><path id="path4275" opacity=".5" d="m3961.2 1399.5c262.65 47.846 519.27 124.62 761.86 268.79 12.306 122.26-41.804 267.05-130.76 341.31-175.01 146.08-390.15 47.015-506.09-107.56-80.49-107.31-177.02-336.14-125.01-502.54z" stroke="#f00" stroke-width="1.0001px" fill="#0f0"/></clipPath><clipPath id="clipPath4277" clipPathUnits="userSpaceOnUse"><path id="path4279" opacity=".5" d="m4135.8 735.94c266.36 4.3343 531.86 38.27 795.37 141.17 33.487 118.92 5.6808 271-68.7 359.01-146.33 173.14-374.99 110.37-515.93-23.549-97.843-92.97-232.71-303.52-210.75-476.62z" stroke="#f00" stroke-width="1.0002px" fill="#0f0"/></clipPath><clipPath id="clipPath4281" clipPathUnits="userSpaceOnUse"><path id="path4283" opacity=".5" d="m5170.3 832.86c10.274 91.833 28.772 177.53 52.799 259.11 17.621 47.209 47.085 71.301 74.74 98.924 75.135-192.03 79.189-388.03 68.386-584.84z" stroke="#f00" stroke-width="1.0001px" fill="#0f0"/></clipPath><clipPath id="clipPath4285" clipPathUnits="userSpaceOnUse"><path id="path4287" opacity=".5" d="m5199.6 911.94c13.301 92.036 34.626 178.06 61.347 260.04 19.182 47.501 49.45 72.053 78.024 100.11 68.842-190.99 66.446-387.02 49.161-584.1z" stroke="#f00" stroke-width="1.0003px" fill="#0f0"/></clipPath><clipPath id="clipPath4305" clipPathUnits="userSpaceOnUse"><ellipse id="ellipse4307" opacity=".222" style="color:#000000" rx="109.78" ry="265.32" transform="matrix(.95241 .30483 -.33490 .94225 0 0)" cy="900.2" cx="5232.6" fill="#f00"/></clipPath><clipPath id="clipPath4309" clipPathUnits="userSpaceOnUse"><ellipse id="ellipse4311" opacity=".222" style="color:#000000" rx="109.78" ry="265.32" transform="matrix(.95241 .30483 -.33490 .94225 0 0)" cy="900.2" cx="5232.6" fill="#f00"/></clipPath><clipPath id="clipPath4313" clipPathUnits="userSpaceOnUse"><ellipse id="ellipse4315" opacity=".222" style="color:#000000" rx="261.85" ry="359.36" transform="matrix(.94422 .32932 -.35392 .93527 0 0)" cy="831.39" cx="4331" fill="#f00"/></clipPath><clipPath id="clipPath4317" clipPathUnits="userSpaceOnUse"><ellipse id="ellipse4319" opacity=".222" style="color:#000000" rx="261.85" ry="359.36" transform="matrix(.94422 .32932 -.35392 .93527 0 0)" cy="831.39" cx="4331" fill="#f00"/></clipPath><clipPath id="clipPath4353" clipPathUnits="userSpaceOnUse"><path id="path4355" opacity=".5" d="m5364.5 1268.4c24.051 94.517 55.528 183.44 91.996 268.61 24.872 49.588 58.316 76.552 90.45 106.97 47.644-189.82 22.648-389.44-17.529-591.1z" stroke="#f00" stroke-width="1.011px" fill="#0f0"/></clipPath><clipPath id="clipPath4110" clipPathUnits="userSpaceOnUse"><path id="path4112" d="m488 17c49.24 152.17-33.22 167.41-147 146-216.89-40.82-280.38 149.76-124 274-49.22-103.88 56.55-121.16 164-107 163.78 21.58 261.55-178.61 107-313z" stroke="#f00" stroke-width="1px" fill="none"/></clipPath><clipPath id="clipPath4106" clipPathUnits="userSpaceOnUse"><path id="path4108" d="m366 355c-36.089 29.99-33.575 73.197 0 102 78.071 66.976 139.77 173.73 46 256-27.101 23.776-88.667 29.935-138 12 107.74-61.859 64.865-129.38 16-190-92.232-114.43 5.1522-184.86 76-180z" stroke="#f00" stroke-width="1px" fill="none"/></clipPath><linearGradient id="linearGradient4688" y2="845.98" xlink:href="#linearGradient4682" gradientUnits="userSpaceOnUse" x2="5267.3" y1="1103.9" x1="5261.9"/><linearGradient id="linearGradient4690" y2="776.46" xlink:href="#linearGradient4682" gradientUnits="userSpaceOnUse" x2="4375.1" y1="1120.6" x1="4318.6"/><mask id="mask4707" maskUnits="userSpaceOnUse"><path id="path4709" d="m4657.1 2825.7c135.92-199.58 389.74-619.64 245.71-1071.4l400 311.43-397.14 731.43z" stroke="#fff" stroke-width="34" fill="#fff"/></mask><mask id="mask4711" maskUnits="userSpaceOnUse"><path id="path4713" d="m4657.1 2825.7c135.92-199.58 389.74-619.64 245.71-1071.4l400 311.43-397.14 731.43z" stroke="#fff" stroke-width="34" fill="#fff"/></mask></defs><g transform="translate(9.7936 -96.296)"><path id="path4599" fill="#622688" d="m4834.3 982.86c189.8-245.52 74.7-470.64-125.7-617.15-323.8-191.09-647.6-252.25-971.5-245.71-325.28 34.711-645.49 96.415-925.71 371.43-201.18 240.87-251.26 492.53-240 748.57 78.388 382.51 291.54 603.29 520 805.71z"/><path id="path4456" fill="#7f2fac" d="m4094.3 140c302.86 239.19 288.33 577.54 71.429 748.57l177.14 8.5714c177.2-132.94 444.5-199.07 402.9-494.28-194.8-145.74-418.8-215.47-651.4-262.86z"/><path id="path4458" fill="#9ff2d9" d="m4711.4 385.71c39.157 228.93-180.48 371.59-434.29 502.86l171.43 28.571c225.58-80.89 377.84-251.73 365.71-440z"/><path id="path4432-4" d="m3126.1 2080c232.84 261.84 502.67 751.88 302.45 1111.5-86.831 155.94-262.33 211.62-391.43 122.86-66.844-45.962-102.09-112.2-122.86-200-56.041 121.15-46.081 235.81 0 334.29-17.311 101.62-30.907 238.92 65.511 342.65 187.94 202.2 476.54 75.452 639.02-75.959 239.53-223.21 209.95-598.46 74.286-903.14-233.12-523.55-518.71-663.53-807.39-949.26-329-325.8-418.4-959.02-113.3-1314.4 451.2-525.6 1280.2-504.4 1801.9-257.17 282.5 133.89 486.9 415.26 248.6 708.57" stroke="#501e6f" stroke-width="54" fill="none"/><path id="path4460" d="m3791.4 905.71c239.6-56.57 249.3-292.77 77.2-422.85-202.1-152.67-408.9-143.2-594.3 5.71-352.9 283.42-387.7 978.43-157.2 1237.1" stroke="#501e6f" stroke-width="34" fill="none"/></g><g transform="translate(9.7936 -96.296)"><path id="path4544-1" fill="#deade9" d="m2367.8 4222.1c-184.46-61.574-437.21-117.3-561.64 84.853-185.27 300.99-275.08 655.11-323.25 957.62-13.118 82.386 29.677 168.87 105.06 218.19 110.76 72.469 294.96 110.58 444.47 133.34l521.24-1381.9z"/><path id="path4649" fill="#deade9" d="m2325.7 2957.1-142.86 268.57c-112.99 323.17-24.854 698.5 57.143 954.29l-188.57-14.286c-135.77-218.14-256.04-442.92-234.29-728.57 85.486-258.04 240.47-435.01 508.57-480z"/><path id="path4544" fill="#bd88d1" d="m1974.4 4151c-74.493 18.925-143 63.373-191.27 141.79-188.18 305.72-278.45 663.1-326.92 967.53-15.013 94.289 33.375 190.36 116.94 245.03 118.6 77.604 304.51 114.5 455.19 137.44l8.1269-53.385c-148.33-22.581-330.84-61.907-433.75-129.24-67.196-43.967-104.4-120.87-93.174-191.36 47.861-300.6 137.22-651.46 319.58-947.72 41.277-67.059 95.488-101.53 158.73-117.8 63.243-16.265 162.97-28.646 250.39-11.12-84.008-46.76-191.51-59.555-263.84-41.179z"/><path id="path4539-2" d="m3868.3 3695.7c-68.015 490.8-199.73 1185-64.883 1751.3 39.385 165.41 114.93 286.08-31.495 303.43-132.89 15.745-354.16 28.23-506.72 9.4436-127.74-15.729-172.72-49.569-173.39-193.02-2.8271-602.42 135.71-1152.7 346.74-1699.1" stroke="#bd88d1" stroke-width="54" fill="#deade9"/></g><g transform="translate(9.7936 -96.296)"><path id="path4643" fill="#eebef3" d="m4137.1 3217.1-828.57-348.57-17.143 274.29c-282.95-3.699-520.84-136.37-777.14-200-174.26-24.719-279.43 49.255-302.86 240-161.26 273.24-80.548 812.95 102.86 1188.6l514.29 108.57 45.714-114.29c284.4 43.003 515.99-13 714.29-131.43l411.4-234.3c142.79-230.06 229.84-477.86 137.14-782.86z"/><path id="path4539-9" fill="#eebef3" d="m4032.5 3810c-158.21 551.43-95.419 1197.9 88.403 1750.3 53.688 161.33 152.02 302.23 7.6751 332.31-131 27.297-312.8 47.666-466.43 42.283-128.62-4.5067-218.23-75.319-235.74-217.7-73.572-598.28 63.802-1126.2 226.27-1689"/><path id="path4541-0" fill="#eebef3" d="m3112.9 3588.6c-29.078 369.73-129.52 608.04-314.86 929.06-204.16 353.62-237.22 844.73-59.222 1236.7 79.478 175 59.956 211.34-70.245 228.57-138.78 18.369-290.97 22.608-451.43 11.429-153.42-10.689-245.07-89.322-256.45-255.47-28.929-422.56 64.64-909.75 262.16-1276 55.164-102.27 184.92-87.658 308.57-62.857"/><path id="path4079" fill="#bd88d1" d="m4157.3 3058.1-52.783 11.395c66.412 307.67 71.527 595.24-86.52 847.3l-35.096 138.69c247.97-291.5 251.67-639.41 174.4-997.39z"/><path id="path4081" fill="#bd88d1" d="m3413.4 4294.6c-148.47 55.134-323.94 70.243-523.73 48.803l-19.26 52.201c211.39 24.272 399.89 9.7412 561.79-50.381 183.56-68.167 377.62-215.6 410.96-410.67-106.66 162.08-257.74 296.17-429.76 360.04z"/><path id="path4087" fill="#bd88d1" d="m2124.6 3826c33.231 242.26 107.01 457.81 175.61 563.02l45.234-29.494c-59.407-91.109-135.02-305.23-167.35-540.86-32.322-235.64-47.83-491.12 75.332-709.77-168.27 201.35-162.06 474.85-128.83 717.11z"/><path id="path4089" d="m2068.6 4165.7c-241.3-279.31-418.88-876.7 74.286-1148.6 200.34-110.44 440.06-71.136 654.29 14.286 201.29 80.263 358.72 121.97 528.57 122.86" stroke="#bd88d1" stroke-width="54" fill="none"/><path id="path4539" fill="#bd88d1" d="m3924.2 4266.7c-34.951 435.77 35.372 894.21 171.1 1302.1 27.66 83.118 65.455 159.56 77.371 212.75 5.9579 26.596 4.9838 45.401-0.8554 56.781-5.8392 11.381-17.365 21.283-48.73 27.818-128.74 26.826-309.48 47.006-459.97 41.732-59.584-2.0878-107.38-19.159-142.57-50.365-35.191-31.207-59.179-77.459-67.318-143.65-65.27-530.77 37.074-1006.3 175.86-1504l-65.71 34.936c-132.48 482.48-228.14 952.08-163.75 1475.7 9.3695 76.192 38.943 136.54 85.09 177.46 46.147 40.922 107.47 61.511 176.51 63.93 156.75 5.4922 339.62-15.067 472.88-42.834 40.807-8.5029 71.117-27.492 85.76-56.031s12.797-60.683 5.5039-93.238c-14.586-65.111-52.8-139.78-78.828-218-133.66-401.65-202.76-853.72-168.51-1280.7 12.492-155.74 38.708-287.94 64.731-447.01-64.891 156.1-105.81 283.75-118.56 442.69z"/><path id="path4541" fill="#bd88d1" d="m2774.7 4504.1c-208.94 361.9-242.45 860.51-60.424 1261.3 39.104 86.102 48.593 135.7 42.52 153.62-3.0368 8.9618-7.747 14.25-22.244 20.82s-38.065 12.041-69.478 16.199c-136.77 18.103-287.21 22.326-446.01 11.262-72.504-5.0515-126.83-25.658-164.67-61.982-37.846-36.324-61.345-89.963-66.715-168.4-28.562-417.2 56.241-905.36 258.99-1261.3 56.964-100.01 157.2-105.43 280.51-85.662-121.15-54.98-269.75-46.832-328.04 60.027-202.32 370.94-294.63 862.69-265.34 1290.6 6.005 87.714 34.018 156.47 83.197 203.67 49.179 47.201 117.39 71.255 198.31 76.893 162.11 11.294 316.06 7.0373 456.85-11.598 33.687-4.4587 61.385-9.99 84.684-20.549 23.298-10.559 42.914-28.522 51.098-52.674 16.368-48.303-4.1202-104.38-44.494-193.28-173.96-383.05-141.36-866.65 58.022-1212 186.12-322.37 317.29-609.2 300.79-922.35-52.871 294.97-162.99 575.68-347.55 895.35z"/></g><g transform="translate(9.7936 -96.296)"><g id="g4591" transform="matrix(1.0685 0 0 1.0685 -162.72 -211.95)"><path id="path4076" fill="#fff" d="m2394.9 3657.7 61.788 170.32-71.364 157.65 120.06-107.62 111.68 129.68-52.537-159.25 83.51-156.96-131.73 92.796z"/><path id="path4074" fill="#ad57b2" d="m2529.1 3577.7c-2.8781 123.28 14.555 252.64 116.98 279.99-98.927 14.234-140.94 116.94-153.37 235.98-0.1958-122.1-27.32-241.01-117.99-270.82 99.4-16.474 139.63-123.84 154.39-245.14z"/><path id="path4078" fill="#a2f0d9" d="m2674.3 3442.2c-32.632 33.718-25.459 76.399 11.035 101.4 84.859 58.137 157.75 157.59 73.425 249.52-24.37 26.568-84.908 39.351-135.89 26.859 100.42-73.151 50.488-135.63-4.649-190.62-104.07-103.78-14.877-184.33 56.081-187.17z"/><path id="path4080" fill="#a2f0d9" d="m2759 3093c65.41 145.95-14.918 170.02-130.34 161.05-220.04-17.113-262.53 179.21-93.63 285.81-60.174-97.947 43.106-126.56 151.46-124.11 165.15 3.7326 240.69-205.86 72.51-322.74z"/><path id="path4082" d="m217 437c-87.23-130.88-23.97-230.84 155-196 114.82 22.35 237.06-48.26 116-224l46-5 51 141-32 182z" clip-path="url(#clipPath4110)" transform="matrix(.99413 -.10818 .10818 .99413 2272 3128.9)" fill="#16cbb3"/><path id="path4084" d="m366 355c-115.31 40.406-67.505 109.28-3 190 77.078 96.455 11.456 183.99-89 180l-28.86-1.9-13.14-369.1 132-15z" clip-path="url(#clipPath4106)" transform="matrix(.99413 -.10818 .10818 .99413 2272 3128.9)" fill="#16cbb3"/></g></g><g transform="translate(9.7936 -96.296)"><path id="path4674" fill="#622688" d="m902.86 4825.7c-38.054 246.83 89.502 421.2 220 594.29 258.19 56.65 475.61 38.041 594.29-162.86 109.2-269.41 38.115-529.81-65.714-788.57-111.19-359.7-402.94-701.86-463.49-941.42-60.859-826.77 825.41-818.53 1074.8-699.03-141.42-285.53-340.16-513.75-674.78-606.09-375.5-59.813-705.97 56.031-973.79 416.18-198.8 307.91-62.188 603.41 16.162 901.06 204.99 500.86 798.9 753.25 614.17 1503.1-132.13 0.7623-252.42-45.84-341.65-216.66z"/><!--S-i-g-m-a--><path id="path4672" fill="#7f2fac" d="m657.14 4874.3 151.43 154.29c34.123 240.49 215.68 473.01 522.86 551.43-385.86 44.043-735.04-286.95-674.29-705.71z"/><path id="path4670" fill="#7f2fac" d="m448.51 2965.5c79.489 299.18 150.82 603.03 303.05 860.65 251.02 406.75 665.02 813.51 484.87 1220.3-61.956 13.398-123.91-8.1232-185.87-48.487 3.2746-110.65-128.76-234.84-226.27-355.57-310.63-495.4-510.95-1129-375.78-1676.9z"/><path id="path4537" fill="#7f2fac" d="m2238.5 2791.8c-133.86-135.55-291.97-190.86-460.63-230.31-378.11-88.45-718.62 121.97-767.72 492.95-44.813 338.63 131.82 664.36 400.02 925.3-114.71-207.23-226.3-395.85-226.27-634.38 77.969-389.69 454.39-555.9 690.94-444.47 111.77 45.003 188.47 118.06 246.48 206.07 86.474 56.594 194.54 63.552 210.11-76.772-27.683-75.57-54.518-141.36-92.934-238.4z"/><path id="path4535" fill="#9ff2d9" d="m888.93 4238.3c192.33 231.11 392.04 515.8 335.37 816.2 408.1-89.47 148.44-543.47 0-812.16-129.5-234.4-301.67-418-444.46-622.2-148.4-212.2-279.39-558.7-210.11-893-53.557 95.113-93.209 197.18-125.26 303.05 7.2854 230.14 182.8 893.71 444.47 1208.1z"/><path id="path4533" fill="#9ff2d9" d="m1740 5154.3c-368.57 405.23-693.54 264.97-814.29-82.857l-137.14-60c-25.05 259.31 148.54 488.05 400 571.43 287.82-15.734 469.32-161.42 551.43-428.57z"/><path id="path4514" d="m937.14 4777.1c-107.44-108.2-181.91-235.6-247.28-368.4-164.2-333.6-308.84-791.3-280.75-1165 23.84-317.2 158.77-594.5 402.32-815.1 313.27-283.9 736.77-266.5 984.97-115.6 277.2 168.61 415.66 354.02 512.21 624.12 33.198 92.88 38.926 160.7-48.571 202.86-87.498 42.155-134.29-33.856-200-111.43-166.84-196.95-457.44-209.97-668.85-51.151-254.29 191.03-255.54 469.63-106.44 773.72 113.94 232.38 249.35 387.82 361.41 679.23 127.11 330.55 247.89 801.18-155.13 1064.6-226.92 148.29-435.3 96.64-610.13-40.406-126.32-99.023-283.15-310.32-226.27-606.09 55.311 90.69 115.57 168.54 193.95 202.03 219.21 93.648 278.26-82.341 88.615-273.31z" stroke="#501e6f" stroke-width="54" fill="none"/><path id="path4676" fill="#622688" d="m1149.6 5044.4c-93.321-45.836-180.67-106.61-252.54-206.07-14.621 162.51 39.265 294.57 121.22 414.16z"/><path id="path4527" fill="#501e6f" d="m882.28 4736.8-9.1289 86.098c-22.778 214.82 63.078 426.1 270 536.69-176.65-150.12-215.67-288.94-219.76-448.29 99.869 130.16 258.43 185.7 370.45 122.04-125.12 19.195-278.49-52.345-370.13-220.52z"/></g><g transform="translate(9.7936 -96.296)"><path id="path4678" fill="#eebef3" d="m4654.8 2828.1c250.48-310.02 320.42-644.94 258.6-998.03l-161.62-246.48-999.04-311.13-625.28 315.17c-124.7 222.04-96.83 435.11-40.406 646.5l274.76 723.27c325.94 134.13 651.89 266.96 977.83 274.76-51.871-94.281-93.897-188.56 44.447-282.84-22.265 95.176 20.586 143.84 72.731 185.87 61.956 45.568 123.91 34.29 185.87 16.162 55.579-26.223 107.19-60.382 141.42-129.3 30.549-89.199-71.043-134.35-129.3-193.95z"/><path id="path4109" fill="#fff" d="m4343.7 3215 124.25-52.528c-77.433-46.799-90.558-130.04-87.883-222.23-76.163 61.842-112.9 169.53-36.366 274.76z"/><path id="path4107" fill="#b9dce6" d="m4320.4 3020.1c4.8648 39.628 19.942 66.491 35.355 92.934-23.345-10.271-42.875-29.295-54.548-58.589z"/><path id="path4105" d="m4343.7 3215c41.141-4.192 89.504-27.124 130.31-52.528" stroke="#b9dce6" stroke-width="29" fill="none"/><path id="path4092" fill="#bd88d1" d="m4618 2708c-11.926 113 25.17 163.58 107.69 214.94 37.947 23.617 44.516 43.55 42.1 64.086-2.4158 20.536-19.218 45.925-44.639 66.144-40.945 32.568-81.336 61.864-139.15 90.658-56.557 28.166-111.32 10.243-147.33-31.916-36.179-42.361-50.574-108.46-34.318-163.83l11.723-39.93-36.328 20.303c-49.386 27.601-85.202 77.347-94.799 135-7.5441 45.317 1.6836 95.432 32.524 142.07-248.51 4.7714-588.21-150.76-698.31-228.11 75.764 136.8 434.97 285.49 697.18 282.15 30.76-0.3914 55.894-3.5634 86.817-8.5615-15.171-16.104-33.212-32.764-46.299-49.01-35.822-44.467-45.335-91.114-38.37-132.95 5.5495-33.336 22.174-63.537 45.559-86.418-3.6296 54.687 13.903 110.55 48.774 151.38 44.37 51.952 122.53 80.248 191.63 54.134 69.094-26.115 110.74-58.035 154.32-92.696 32.869-26.144 59.785-60.687 64.656-102.1 4.8715-41.411-17.704-85.44-67.195-116.24-69.515-43.264-109.15-62.887-136.23-169.09z" transform="translate(-.000046667)"/><path id="path4111" fill="#bd88d1" d="m4601.2 2939.2c-45.207 31.893-30.989 90.579 47.477 70.711-43.376-13.928-57.97-37.929-47.477-70.711z"/><path id="path4113" d="m3135.5 1579.6c-127.28 216.01-102.4 497.47-48.487 658.62" stroke="#bd88d1" stroke-width="54" fill="none"/></g><g transform="translate(9.7936 -96.296)"><path id="path4116-5" fill="#fff" d="m3644.6 2050.3c249.97 91.771 488.65 210.95 701.05 393.96-10.47 122.25-90.549 255.33-191.93 313.15-199.45 113.75-393.13-20.266-478.81-191.93-59.481-119.17-112.3-360.51-30.305-515.18z"/><path id="path4118-9" fill="#fff" d="m4646.7 2444.3c-18.155 90.775-26.654 178.33-28.661 263.72 2.3605 50.605 22.966 82.966 40.783 118.11 129.53-158.97 192.9-344.41 242.44-535.38z"/><ellipse id="path4191" style="color:#000000" d="m 4592.8235,831.38824 c 0,198.46986 -117.2329,359.36136 -261.8469,359.36136 -144.6141,0 -261.847,-160.8915 -261.847,-359.36136 0,-198.46981 117.2329,-359.36138 261.847,-359.36138 144.614,0 261.8469,160.89157 261.8469,359.36138 z" clip-path="url(#clipPath4277)" rx="261.85" ry="359.36" transform="matrix(.94422 .32932 -.35392 .93527 0 0)" cy="831.39" cx="4331" fill="url(#linearGradient4690)"/><ellipse id="path4197" style="color:#000000" d="m 5342.3539,900.19763 c 0,146.53237 -49.1522,265.32037 -109.7846,265.32037 -60.6323,0 -109.7845,-118.788 -109.7845,-265.32037 0,-146.53241 49.1522,-265.3204 109.7845,-265.3204 60.6324,0 109.7846,118.78799 109.7846,265.3204 z" clip-path="url(#clipPath4285)" rx="109.78" ry="265.32" transform="matrix(.95241 .30483 -.33490 .94225 0 0)" cy="900.2" cx="5232.6" fill="url(#linearGradient4688)"/><path id="path4289" clip-path="url(#clipPath4317)" fill="#b2acf9" d="m3887.1 2393.8 79.802 59.599 69.701-111.12-97.985-28.284z"/><path id="path4291" clip-path="url(#clipPath4313)" fill="#9489d6" d="m3926.5 2333.1 101.02 27.274 32.325-98.995-104.05 15.152z"/><path id="path4293" clip-path="url(#clipPath4309)" fill="#b2acf9" d="m4684.1 2571.5 21.213 66.67 54.548-75.761-50.508-28.284z"/><path id="path4295" clip-path="url(#clipPath4305)" fill="#9489d6" d="m4708.3 2538.2 39.396 53.538 37.376-78.792-64.65-14.142z"/><ellipse id="path4199" style="color:#000000" d="m 5272.4247,833.07489 c 0,118.27081 -31.868,214.14821 -71.1791,214.14821 -39.3111,0 -71.1791,-95.8774 -71.1791,-214.14821 0,-118.27081 31.868,-214.14824 71.1791,-214.14824 39.3111,0 71.1791,95.87743 71.1791,214.14824 z" clip-path="url(#clipPath4281)" rx="71.179" ry="214.15" transform="matrix(.94766 .31928 -.30372 .95276 0 0)" cy="833.07" cx="5201.2"/><ellipse id="path4323" style="color:#000000" d="m 5281.2187,873.7674 c 0,10.46047 -6.2186,18.94036 -13.8896,18.94036 -7.671,0 -13.8896,-8.47989 -13.8896,-18.94036 0,-10.46048 6.2186,-18.94037 13.8896,-18.94037 7.671,0 13.8896,8.47989 13.8896,18.94037 z" rx="13.89" ry="18.94" transform="rotate(19.135)" cy="873.77" cx="5267.3" fill="#fff"/><ellipse id="path4325" style="color:#000000" d="m 5450.0802,1229.9921 c 0,37.4629 -17.0899,67.8325 -38.1715,67.8325 -21.0816,0 -38.1716,-30.3696 -38.1716,-67.8325 0,-37.4629 17.09,-67.8326 38.1716,-67.8326 21.0816,0 38.1715,30.3697 38.1715,67.8326 z" clip-path="url(#clipPath4353)" rx="38.172" ry="67.833" transform="matrix(.96998 .24319 -.43891 .89853 0 0)" cy="1230" cx="5411.9" fill="#fff"/><ellipse id="path4193" style="color:#000000" d="m 4339.1577,1477.4551 c 0,169.2744 -97.0401,306.4984 -216.7451,306.4984 -119.705,0 -216.7451,-137.224 -216.7451,-306.4984 0,-169.2744 97.0401,-306.4984 216.7451,-306.4984 119.705,0 216.7451,137.224 216.7451,306.4984 z" clip-path="url(#clipPath4273)" rx="216.75" ry="306.5" transform="matrix(.98538 .17037 -.18482 .98277 0 0)" cy="1477.5" cx="4122.4"/><ellipse id="path4195" style="color:#000000" d="m 4549.2109,531.8006 c 0,83.68378 -46.1306,151.52289 -103.0356,151.52289 -56.905,0 -103.0356,-67.83911 -103.0356,-151.52289 0,-83.68378 46.1306,-151.52289 103.0356,-151.52289 56.905,0 103.0356,67.83911 103.0356,151.52289 z" clip-path="url(#clipPath4269)" rx="103.04" ry="151.52" transform="rotate(23.049)" cy="531.8" cx="4446.2" fill="#fff"/><ellipse id="path4321" style="color:#000000" d="m 3706.2496,2267.4863 c 0,25.6631 -16.9598,46.467 -37.8807,46.467 -20.9209,0 -37.8807,-20.8039 -37.8807,-46.467 0,-25.663 16.9598,-46.467 37.8807,-46.467 20.9209,0 37.8807,20.804 37.8807,46.467 z" rx="37.881" ry="46.467" cy="2267.5" cx="3668.4" fill="#fff"/></g><g transform="translate(9.7936 -96.296)"><path id="path4372" d="m4657.1 2825.7c135.92-199.58 389.74-619.64 245.71-1071.4" stroke="#bd88d1" stroke-width="34" fill="none"/><path id="path4358" d="m4620.2 2654.5c6.9654-67.266 9.6383-136.23 19.47-202.14 0.7076-4.7432 1.8781-8.9676 9.0914-17.173 24.657-28.047 114.48-96.864 180.27-126 31.352-13.882 43.247-21.8 58.124-31.585 40.209-26.448 125.67-80.099 130.31-68.69 4.6443 11.408-87.217 70.919-131.32 102.03-11.53 8.1323-26.809 16.54-42.426 23.234-54.471 23.345-127.15 70.413-187.89 114.15-15.207 71.271-24.32 138.8-35.633 206.18z"/><path id="path4360" mask="url(#mask4711)" d="m4850.5 2329.5 11.707 26.533s175.04-75.052 166.88-90.039c-8.1566-14.986-178.59 63.505-178.59 63.505z"/><path id="path4366" mask="url(#mask4707)" d="m4854 2352.6-3.4688 28.793s127.97 12.646 129.01-0.7593c1.0431-13.406-125.54-28.034-125.54-28.034z"/><path id="path4374" d="m4234.9 2690.7c43.032-66.919 76.842-137.11 95.639-215.21 2.7369-11.372-0.5411-18.357-10.235-26.634-203.3-173.6-437.8-289.8-680.3-377.5-37.532 124.5-30.299 268.44-11.547 366.41-40.747-98.408-50.757-262.29-17.024-409.27 2.5202-10.98 13.812-17.872 35.714-8.5714 265.17 112.6 498.79 221.39 700 411.43 8.5185 8.0455 13.392 17.532 9.2857 32.857-21.844 81.528-59.955 160.06-121.49 226.44z"/><path id="path4376" d="m3790.1 2112.4 33.988 0.8789s5.3673-220.67-11.279-221.15c-16.647-0.4821-22.709 220.28-22.709 220.28z"/><path id="path4382" d="m3600 1859.3c-20.829 9.5854 79.557 213.54 79.557 213.54l30.887-14.215s-89.615-208.91-110.44-199.32z"/><path id="path4388" d="m3445 1935c-12.752 15.639 166.38 158.15 166.38 158.15l21.535-26.309s-175.16-147.48-187.91-131.85z"/><path id="path4092-4" fill="#bd88d1" d="m4618 2708c-11.926 113 25.17 163.58 107.69 214.94 37.947 23.617 44.516 43.55 42.1 64.086l53.631 6.3086c4.8715-41.411-17.704-85.44-67.195-116.24-69.515-43.264-109.15-62.887-136.23-169.09z"/></g><g transform="translate(9.7936 -96.296)"><path id="path4410-5" fill="#622688" d="m4314.3 925.71c472.86-13.585 905.2 180.13 1091.4 451.43 118.1 172.05 182.56 477.91-102.86 574.29-180.41-63.779-421.29-171.96-560-345.71"/><path id="path4414" fill="#7f2fac" d="m4482.9 922.86c339.45 192.84 631.51 498.03 502.86 891.43l228.5 105.7c223.34-362.49 46.387-691.89-340-905.71z"/><path id="path4412" fill="#9ff2d9" d="m4762.9 988.57c365.12 199.02 705.92 605.25 362.86 897.14l159.9 54.3c242.27-381.34 19.764-695.42-317.14-885.71z"/><path id="path4410-5-9" d="m4314.3 925.71c472.86-13.585 905.2 180.13 1091.4 451.43 118.1 172.05 182.56 477.91-102.86 574.29-180.41-63.779-421.29-171.96-560-345.71" stroke="#501e6f" stroke-width="54" fill="none"/></g><g transform="translate(9.7936 -96.296)"><path id="path4417-6" fill="#eebef3" d="m4796.2 1925c215.9-157.46 440.85-299.07 634.38-499.02 102.62-106.02 82.407-166.59-66.67-137.38-241.59 47.34-479.6 164.04-703.07 258.6"/><path id="path4417" fill="#bd88d1" d="m5423.8 1254.3c-19.11 0.3706-40.621 3.0619-65.064 7.8515-246.53 48.306-485.93 166.1-708.4 260.23l21.043 49.73c224.47-94.986 461.08-210.6 697.74-256.97 35.428-6.942 62.253-8.0343 78.494-5.5683 16.241 2.4659 18.646 6.3883 19.31 7.9023 0.6646 1.5141 1.7129 9.7034-6.5703 26.041-8.2831 16.338-24.704 38.469-49.156 63.732-190.69 197.01-636.86 489.23-620.51 520.33 16.35 31.106 462.94-279.9 659.31-482.78 26.856-27.746 46.39-52.944 58.52-76.869s18.049-48.932 7.8535-72.162-34.381-35.599-60.65-39.588c-9.8511-1.4958-20.454-2.1091-31.92-1.8867z"/><path id="path4419" d="m5315.4 1296.7c-75.948 67.695-110.2 215.52 24.244 228.29" stroke="#bd88d1" stroke-width="34" fill="none"/><path id="path4421" d="m5141.7 1351.3c-89.137 94.273-151.12 282.19 28.284 313.15" stroke="#bd88d1" stroke-width="34" fill="none"/><path id="path4423" d="m4933.6 1440.2c-140.35 106.41-160.16 352.54 18.183 377.8" stroke="#bd88d1" stroke-width="34" fill="none"/></g><g transform="translate(9.7936 -96.296)"><path id="path4426-0" fill="#622688" d="m3737.6 953.28c133.63 175.52 102.16 344.68 39.916 512.67 340.92 160.98 681.84 248.54 1022.8 295.45 54.592-249.79 35.38-481.66-121.22-691.43-122.56-164.18-611.51-247-941.46-116.69z"/><path id="path4772" fill="#622688" d="m2412.2 1486.6c61.116 393.96 205.57 721.25 428.3 985.91 226.91 207.46 446.3 423.52 525.28 800.04-60.572 63.377-138.8 91.448-242.44 68.69-113.58-249.34-252.86-486.02-452.55-703.07-216.42-343.4-289.72-732.83-258.6-1151.6z"/><path id="path4770" fill="#622688" d="m2571.4 931.43c-44.738 320.57 76.113 576.75 222.86 822.86 138.8 185.79 370.83 354.7 491.43 542.86 172.02 236.4 237.77 504.67 194.29 805.71-120.88-328.65-351.4-547.65-588.57-760-259.27-268.01-391.38-613.73-457.14-1e3z"/><path id="path4768" fill="#622688" d="m3768.6 3028.6c-64.143 297.5-210.34 509.92-480 594.29-153.34 27.652-278.01-30.719-385.71-140-3.7172 146-16.18 294.92 180 374.29 217.57 86.39 376.27-18.537 534.29-125.71 105.79-123.96 256.89-362.94 151.43-702.86z"/><path id="path4766" fill="#7f2fac" d="m3248.6 2208.6c131.01 228.28 235.05 464.27 260 722.86-11.428 219.88-113.34 361.07-300 428.57-129.01-3.6829-245.27-38.67-291.43-245.71-50.057 109.52-46.115 219.05 2.8571 328.57l-5.7143 57.143c116.58 115.9 255.98 146.26 402.86 148.57 421.99-139.29 412.8-432.57 420-720-103.58-315.08-270.74-549.64-488.57-720z"/><path id="path4430" fill="#7f2fac" d="m4125.7 882.86c130.11 164.88 173.5 515.84 20 725.71l340 102.86c69.335-218.8 46.871-540.1-162.86-802.86z"/><path id="path4438" fill="#7f2fac" d="m2474.3 1237.1c34.388 410.8 207.74 818.91 480 1057.1 218.09 190.83 394.42 412.37 540 668.57-11.288 126.67-46.014 235.11-125.71 308.57-69.194-346-299.81-588.7-557.14-814.29-237.71-281.23-345.65-632.34-385.71-1020z"/><path id="path4428" fill="#9ff2d9" d="m4277.1 900c145.66 166.28 264.76 475.94 131.43 785.71l140 34.286c109.95-249.12 18.44-597.09-197.14-805.71z"/><path id="path4436" fill="#9ff2d9" d="m2451.4 1382.9c24.683 393.55 173.45 812.67 460 1071.4 208.88 188.63 446.38 440.05 497.14 745.71l-111.43 111.43c0.867-200.32-84.412-383.03-262.86-548.57-357.5-331.6-560.2-743.1-617.1-1222.8z"/><path id="path4764" fill="#9ff2d9" d="m3681 2834.2c51.181 288.23-40.157 594.67-244.46 686.9s-373.02 76.718-513.16-70.711l-14.142 58.589c117.17 203.47 348.83 268.94 541.44 159.6s282.22-300.96 325.27-531.34c-14.187-105.38-37.978-208.36-94.954-303.05z"/><path id="path4426" d="m3737.6 953.28c133.63 175.52 102.16 344.68 39.916 512.67 340.92 160.98 681.84 248.54 1022.8 295.45 54.592-249.79 35.38-481.66-121.22-691.43-122.56-164.18-611.51-247-941.46-116.69z" stroke="#501e6f" stroke-width="54" fill="none"/><path id="path4434" d="m3125.5 3347.2c-80.9-229.7-276.9-474.9-445.5-707.2-418-576-313.9-1387 16.7-1984.4" stroke="#501e6f" stroke-width="54" fill="none"/><path id="path4432-4-2" d="m3126.1 2080c232.84 261.84 502.67 751.88 302.45 1111.5-86.831 155.94-262.33 211.62-391.43 122.86-66.844-45.962-102.09-112.2-122.86-200-56.041 121.15-46.081 235.81 0 334.29-17.311 101.62-30.907 238.92 65.511 342.65 187.94 202.2 476.54 75.452 639.02-75.959 239.53-223.21 209.95-598.46 74.286-903.14-233.11-523.55-518.71-663.53-807.39-949.26-329-325.8-418.4-959.02-113.3-1314.4" stroke="#501e6f" stroke-width="54" fill="none"/></g><g transform="translate(9.7936 -96.296)"><path id="path4478" fill="#eebef3" d="m3168.6 1828.6c-194.62-429.95 68.896-967.97 348.57-1131.4 119.41-69.789 170.43-77.758 220 51.429 72.354 188.56 76.283 383.81 56.479 565.71"/><path id="path4480" fill="#bd88d1" d="m3494.3 965.71c-74.7 122.59-145.8 395.59-145.7 599.99-52.1-213.7 34.7-494.6 145.7-599.99z"/><path id="path4478-7" fill="#bd88d1" d="m3639.9 620.19c-41.334 0.0583-83.205 22.566-136.38 53.641-147.79 86.375-285.49 266.01-363.88 479.8-78.383 213.79-102.33 603.08 40.187 697.11-88.913-140.25-64.126-474.95 10.514-678.52 74.64-203.58 208.54-374.68 340.42-451.76 58.646-34.275 97.851-48.83 118.29-45.553 10.22 1.6388 18.275 5.9325 28.854 18.615 10.578 12.683 22.219 33.965 34.023 64.729 70.088 182.66 82.171 402.93 77.796 563.89 64.197-159.04 47.241-388.77-27.38-583.24-12.981-33.83-26.308-59.995-42.969-79.971s-38.116-33.552-61.773-37.346c-5.9144-0.94842-11.81-1.399-17.715-1.3906z"/></g></svg>