<?xml version="1.0" encoding="UTF-8"?><svg xmlns="http://www.w3.org/2000/svg" viewBox="-438.862 0 2665.0376 2665.0376" version="1.1"><defs id="defs3340"><clipPath id="clipPath3350"><path id="path3352" d="m0 2132h1429.8v-2132h-1429.8v2132z"/></clipPath><clipPath id="clipPath3374"><path id="path3376" d="m344.68 1290.6c-140-26-248.33-138.92-279.33-246.29s-21-259.89 7-341.13c28-81.243 89-180.58 53.667-225.91-21.64-27.764-68.334-32.999-106.38 36.24-21.295-53.25-22.996-136.25 65.828-188.13 50.793-29.667 264.88-55.203 281.98 207.9 13.5 207.58-77.583 229.66-80.178 421.05-1.5 110.6 201.09 177.63 260.58 100.12l129.49 53.485c-71.635 83.674-171 186.37-292.67 186.38-13.077 0-26.406-1.186-39.993-3.709"/></clipPath><clipPath id="clipPath3398"><path id="path3400" d="m0 2132h1429.8v-2132h-1429.8v2132z"/></clipPath><clipPath id="clipPath3426"><path id="path3428" d="m539.29 1017.7h103.5v-79.815h-103.5v79.815z"/></clipPath><clipPath id="clipPath3430"><path id="path3432" d="m539.29 942.13 5.639 75.606 97.86-4.208-5.639-75.607-97.86 4.209z"/></clipPath><clipPath id="clipPath3470"><path id="path3472" d="m0 2132h1429.8v-2132h-1429.8v2132z"/></clipPath><clipPath id="clipPath3482"><path id="path3484" d="m1276.6 1642.9c-0.499-19 17.011-68.999 34.094-93 19.917-7.625 54.917-1.25 62.417 1 2.75 25.5-12.583 103.27-12.583 103.27-6.645 0.816-17.279 1.702-28.968 1.702-20.266 0-43.696-2.664-54.96-12.97"/></clipPath><linearGradient id="linearGradient3502" gradientUnits="userSpaceOnUse" gradientTransform="matrix(0 -111.68 -130.17 -10.866 1316.4 1637.7)"><stop id="stop3504" stop-color="#392791" offset="0"/><stop id="stop3506" stop-color="#392791" offset=".15714"/><stop id="stop3508" stop-color="#a5a5fa" offset="1"/></linearGradient><clipPath id="clipPath3516"><path id="path3518" d="m1300.4 1636.1c-9.364-2.774-15.191-13.651-16.588-28.235 6.59-20.55 16.815-43.752 26.891-57.909 10.209-3.908 24.379-4.138 36.779-3.131 3.077 11.709 2.559 27.405-2.252 43.646-8.006 27.021-25.16 46.305-40.121 46.304-1.599 0-3.174-0.22-4.709-0.675"/></clipPath><clipPath id="clipPath3532"><path id="path3534" d="m1276.6 1642.9c-0.499-19 17.011-68.999 34.094-93 19.917-7.625 54.917-1.25 62.417 1 2.75 25.5-12.583 103.27-12.583 103.27-6.645 0.816-17.279 1.702-28.968 1.702-20.266 0-43.696-2.664-54.96-12.97"/></clipPath><clipPath id="clipPath3552"><path id="path3554" d="m0 2132h1429.8v-2132h-1429.8v2132z"/></clipPath><clipPath id="clipPath3560"><path id="path3562" d="m1257.6 1727.2h102.93v-91.8h-102.93v91.8z"/></clipPath><clipPath id="clipPath3588"><path id="path3590" d="m1352.3 1661.5c2.616-10.047 4.864-19.891 6.772-29.407 5.519-4.347 69.981-25.154 70.731 3.346v0.321c-0.148 22.884-33.948 26.762-56.857 26.762-11.755-0.001-20.646-1.022-20.646-1.022"/></clipPath><clipPath id="clipPath3600"><path id="path3602" d="m0 2132h1429.8v-2132h-1429.8v2132z"/></clipPath><clipPath id="clipPath3632"><path id="path3634" d="m900.9 1716.8h290.28v-101.92h-290.28v101.92z"/></clipPath><linearGradient id="linearGradient3672" gradientUnits="userSpaceOnUse" gradientTransform="matrix(0 -206.92 -206.92 0 1138.3 1623)"><stop id="stop3674" stop-color="#392791" offset="0"/><stop id="stop3676" stop-color="#392791" offset=".15714"/><stop id="stop3678" stop-color="#a5a5fa" offset="1"/></linearGradient><clipPath id="clipPath3686"><path id="path3688" d="m1062 1519.6c0-26.938 7.598-51.47 20.051-69.879 22.099-0.692 43.366 4.452 61.975 16.131 37.682 23.65 55.976 68.774 53.506 119.17-14.005 23.218-35.306 38.037-59.164 38.037-42.177 0-76.368-46.321-76.368-103.46"/></clipPath><clipPath id="clipPath3702"><path id="path3704" d="m904.45 1614.8c5.52-23.051 15.185-46.38 29.115-68.576 52.847-84.203 147.06-120.22 210.44-80.447 49.367 30.984 65.457 98.82 45.177 167.09-20.441 1.744-42.942 2.531-66.253 2.532-79.138 0.001-167.8-9.069-218.48-20.603"/></clipPath><clipPath id="clipPath3722"><path id="path3724" d="m0 2132h1429.8v-2132h-1429.8v2132z"/></clipPath></defs><g id="g3344" transform="matrix(1.25 0 0 -1.25 0 2665)"><g id="g3346"><g id="g3348" clip-path="url(#clipPath3350)"><g id="g3354" transform="translate(679.89 654.85)"><path id="path3356" d="m0 0c-52.473-4.159-49.799-5.439-85.188-63.883-62.19-102.71-101.06-283.4-116.98-417.31-3.818-32.117-12.263-70.073 77.46-70.073 173.93 0 196.26-7.799 170.43 73.036-18.268 177.29 52.732 430.29 137.28 541.93 0 0-184.55 173.36-196.55 87.362-12-86 31.246-146.21-2.689-186.92" fill="#e7b2f4"/></g><g id="g3358" transform="translate(680.49 647.38)"><path id="path3360" d="m0 0c-4.783-0.382-9.476-0.764-14.141-1.223-4.65-0.462-9.238-0.998-13.562-1.807-4.326-0.812-8.357-1.89-11.788-3.566-1.724-0.842-3.347-1.781-4.865-2.96-0.389-0.273-0.77-0.568-1.137-0.895-0.371-0.319-0.75-0.619-1.119-0.949-0.72-0.701-1.465-1.346-2.163-2.122-2.845-2.972-5.519-6.521-8.095-10.289-2.581-3.764-5.075-7.734-7.551-11.752-4.949-8.043-9.835-16.286-14.802-24.476l-3.563-6.088c-1.204-2.061-2.442-4.131-3.517-6.161-2.225-4.082-4.486-8.121-6.597-12.35l-3.212-6.28-3.071-6.362c-2.089-4.219-3.991-8.539-5.957-12.826-7.741-17.21-14.684-34.829-21.047-52.674-12.722-35.702-23.262-72.253-32.411-109.15-9.128-36.91-16.836-74.199-23.363-111.69-3.259-18.747-6.215-37.549-8.859-56.391-1.32-9.421-2.581-18.85-3.726-28.291l-1.738-14.196c-0.55-4.653-1.01-9.187-1.093-13.545-0.094-4.359 0.205-8.536 1.11-12.336 0.46-1.894 1.068-3.691 1.836-5.378 0.784-1.677 1.727-3.245 2.839-4.705 4.423-5.85 11.891-9.853 20.165-12.432 8.314-2.583 17.372-3.919 26.523-4.664 4.585-0.367 9.214-0.574 13.863-0.665 2.337-0.06 4.624-0.052 7.02-0.063l7.174-0.005 57.334-0.191c19.065-0.004 38.147-0.051 56.897 0.913 9.341 0.522 18.666 1.286 27.34 3.056 4.309 0.895 8.45 2.082 11.917 3.735 1.723 0.829 3.262 1.768 4.526 2.813 1.269 1.046 2.262 2.183 3.042 3.473 1.557 2.542 2.312 5.985 2.361 9.98 0.064 3.975-0.501 8.321-1.331 12.702-1.707 8.802-4.415 17.806-7.262 26.777l-0.239 0.752-0.078 0.763c-2.447 23.936-3.217 47.951-2.822 71.894 0.402 23.947 1.982 47.831 4.49 71.593 2.509 23.762 5.931 47.407 10.134 70.903 4.197 23.497 9.22 46.836 14.962 69.995 5.75 23.158 12.234 46.135 19.504 68.872 7.281 22.734 15.333 45.234 24.302 67.395 8.984 22.153 18.841 43.992 30.01 65.237 11.174 21.231 23.572 41.941 38.185 61.335l0.844-9.995c-6.519 6.066-13.313 12.12-20.102 18.045-6.809 5.934-13.695 11.783-20.656 17.532-13.925 11.491-28.14 22.616-42.754 33.076-7.307 5.225-14.718 10.278-22.255 15.064-7.539 4.776-15.205 9.303-23.027 13.322-7.812 4-15.817 7.566-23.834 9.909-3.997 1.167-7.999 1.988-11.784 2.242-3.782 0.264-7.294-0.142-10.025-1.28-2.725-1.144-4.749-2.98-6.36-5.752-1.587-2.773-2.623-6.377-3.173-10.251-0.614-4.432-1.071-8.676-1.421-13.095-0.344-4.385-0.565-8.783-0.648-13.189-0.339-17.64 1.399-35.33 4.134-53.075 1.351-8.883 2.932-17.79 4.44-26.827 1.479-9.039 2.979-18.206 3.66-27.69 0.096-4.763 0.031-9.573-0.346-14.431-0.369-4.847-1.165-9.759-2.691-14.5-1.518-4.732-3.64-9.324-6.565-13.321-2.934-3.983-6.477-7.439-10.678-9.865 3.343 9.065 5.399 17.184 6.119 25.53 0.345 4.163 0.497 8.337 0.397 12.581-0.068 4.236-0.519 8.53-1.11 12.837-0.772 8.66-2.086 17.49-3.583 26.397-1.485 8.91-3.086 17.92-4.472 27.027-2.805 18.201-4.666 36.864-4.282 55.634 0.088 4.69 0.324 9.382 0.691 14.067 0.364 4.65 0.886 9.455 1.525 14.034 0.747 5.106 2.094 10.455 5.019 15.614 1.459 2.563 3.385 5.028 5.707 7.138 2.309 2.129 5.062 3.792 7.884 4.984 5.709 2.348 11.513 2.745 16.774 2.404 5.298-0.363 10.253-1.431 14.985-2.804 9.46-2.777 18.137-6.698 26.511-10.974 8.364-4.299 16.379-9.039 24.209-13.999 7.824-4.968 15.452-10.171 22.945-15.528 14.98-10.723 29.439-22.042 43.58-33.711 7.069-5.838 14.052-11.77 20.96-17.791 6.919-6.04 13.713-12.09 20.516-18.419l4.925-4.581-4.081-5.413c-13.93-18.472-25.98-38.554-36.87-59.25-10.89-20.712-20.561-42.127-29.386-63.891-8.813-21.776-16.743-43.932-23.919-66.336-7.165-22.409-13.561-45.072-19.233-67.914-5.663-22.844-10.619-45.867-14.755-69.029-4.143-23.161-7.514-46.454-9.981-69.827-2.468-23.372-4.017-46.829-4.411-70.275-0.387-23.441 0.371-46.883 2.746-70.105l-0.316 1.515c2.922-9.237 5.764-18.563 7.708-28.531 0.936-4.999 1.67-10.174 1.595-15.763-0.044-2.789-0.311-5.697-1-8.675-0.683-2.969-1.825-6.02-3.524-8.82-1.686-2.806-3.909-5.294-6.33-7.28-2.424-1.997-5.015-3.529-7.593-4.77-5.177-2.451-10.316-3.833-15.347-4.895-10.067-2.04-19.855-2.791-29.58-3.347-19.426-0.995-38.585-0.936-57.735-0.935l-57.326 0.191-7.159 0.005c-2.381 0.011-4.873 0.004-7.312 0.066-4.904 0.097-9.825 0.315-14.765 0.71-9.873 0.817-19.853 2.222-29.814 5.303-4.967 1.583-9.944 3.566-14.706 6.407-4.741 2.818-9.306 6.52-12.881 11.222-1.786 2.338-3.318 4.888-4.55 7.542-1.216 2.66-2.135 5.412-2.8 8.16-1.307 5.508-1.625 10.946-1.52 16.13 0.103 5.198 0.626 10.184 1.194 15.016l1.746 14.257c1.156 9.53 2.428 19.044 3.759 28.548 2.668 19.007 5.649 37.967 8.936 56.875 6.583 37.813 14.357 75.429 23.58 112.73 9.247 37.286 19.907 74.279 32.846 110.59 6.473 18.153 13.552 36.123 21.489 53.772 2.016 4.399 3.967 8.824 6.117 13.17l3.16 6.546 3.314 6.48c2.158 4.322 4.559 8.625 6.913 12.93 1.166 2.19 2.382 4.221 3.587 6.285l3.679 6.28c4.943 8.15 9.8 16.348 14.865 24.582 2.538 4.115 5.125 8.241 7.947 12.36 2.819 4.11 5.88 8.248 9.64 12.189 3.696 3.935 8.417 7.607 13.599 10.056 5.183 2.508 10.491 3.843 15.538 4.797 5.07 0.945 9.986 1.505 14.84 1.991 4.845 0.477 9.676 0.868 14.418 1.247l1.194-14.943z" fill="#cc96e5"/></g><g id="g3362" transform="translate(1038.3 820.23)"><path id="path3364" d="m0 0c-61-129.12-173-383.55-201.41-587.85-13.383-96.239-16.001-114.43 99.411-115.37 121.33-0.987 171.87-10.491 155 86.08-30.418 174.1 47.58 506.75 96 617.14" fill="#e7b2f4"/></g><g id="g3366" transform="translate(1038.3 820.23)"><path id="path3368" d="m0 0s-2.778-5.921-7.988-17.024c-5.196-11.108-12.749-27.434-22.154-48.305-9.4-20.873-20.645-46.298-33.061-75.667-6.241-14.671-12.701-30.359-19.45-46.921-6.673-16.593-13.664-34.051-20.65-52.388-7.011-18.327-14.179-37.47-21.261-57.405-7.105-19.926-14.248-40.6-21.158-61.996-6.92-21.391-13.763-43.455-20.205-66.168-6.431-22.715-12.55-46.051-18.101-69.943-5.546-23.89-10.53-48.339-14.557-73.26-0.94-6.241-1.882-12.5-2.827-18.777-0.861-6.289-1.725-12.595-2.592-18.917-1.647-12.649-3.285-25.393-3.71-38.269-0.177-6.429-0.05-12.915 1.052-19.291 1.109-6.336 3.266-12.66 7.306-17.777 3.956-5.18 9.578-8.846 15.517-11.418 5.977-2.576 12.332-4.168 18.722-5.397 6.408-1.185 12.888-1.979 19.389-2.55 6.501-0.579 13.023-0.951 19.552-1.208 13.059-0.543 26.145-0.513 39.224-0.7 13.08-0.166 26.16-0.41 39.228-0.504 13.067-0.081 26.132-0.045 39.14 0.765 6.5 0.424 12.987 1.054 19.4 2.128 6.397 1.109 12.758 2.616 18.75 5.116 5.975 2.476 11.58 6.053 15.823 10.956 4.281 4.866 7.065 10.884 8.634 17.112 1.607 6.245 2.101 12.703 2.136 19.106-0.021 6.413-0.504 12.803-1.292 19.134-0.768 6.337-1.922 12.6-2.915 18.868-0.522 3.131-0.903 6.279-1.361 9.41-0.412 3.138-0.759 6.279-1.141 9.411-2.727 25.102-3.495 50.073-3.241 74.594 0.284 24.526 1.531 48.628 3.461 72.156 1.899 23.532 4.437 46.496 7.332 68.792 5.824 44.592 13.131 86.5 20.832 124.98 7.739 38.475 15.921 73.519 23.873 104.4 7.973 30.874 15.719 57.581 22.645 79.401 6.914 21.825 13.047 38.743 17.49 50.173 2.236 5.71 4.027 10.057 5.263 12.974 1.25 2.919 1.89 4.422 1.89 4.422s0.027-0.458 0.081-1.358c0.068-0.906 0.086-2.219 0.101-3.936 0.062-3.448-0.12-8.413-0.563-14.732-0.503-6.303-1.311-13.943-2.971-22.641-0.81-4.356-1.927-8.95-3.019-13.883-0.525-2.473-1.066-5.023-1.624-7.649-0.281-1.313-0.49-2.669-0.988-3.951-0.483-1.288-0.962-2.595-1.368-3.949-6.837-21.538-14.51-47.99-22.417-78.608-7.887-30.624-16.01-65.415-23.691-103.6-7.644-38.192-14.895-79.786-20.665-123.96-2.868-22.087-5.379-44.817-7.255-68.064-1.907-23.245-3.134-47.01-3.412-71.101-0.252-24.079 0.511-48.513 3.151-72.801 0.369-3.016 0.707-6.082 1.1-9.07l0.621-4.435c0.205-1.476 0.401-2.94 0.676-4.541 0.513-3.128 1.026-6.261 1.541-9.397 0.549-3.307 1.027-6.661 1.456-10.045 0.841-6.778 1.384-13.75 1.405-20.993-0.046-7.26-0.572-14.843-2.604-22.805-1.014-3.966-2.419-8.018-4.379-11.988-1.951-3.965-4.477-7.832-7.498-11.282-3.013-3.457-6.496-6.469-10.139-8.936-3.648-2.467-7.435-4.411-11.189-5.983-7.532-3.13-14.891-4.82-22.032-6.066-7.139-1.195-14.091-1.859-20.941-2.307-13.685-0.85-26.997-0.875-40.203-0.796-13.201 0.095-26.283 0.339-39.321 0.505l-19.614 0.212c-6.64 0.086-13.304 0.235-20.01 0.499-6.705 0.264-13.454 0.647-20.286 1.255-6.828 0.601-13.747 1.44-20.828 2.748-7.089 1.373-14.375 3.14-21.914 6.375-3.757 1.628-7.58 3.661-11.269 6.298-3.684 2.615-7.218 5.891-10.133 9.682-2.945 3.767-5.245 7.97-6.862 12.136-1.64 4.175-2.685 8.311-3.378 12.277-1.359 7.951-1.449 15.271-1.267 22.294 0.206 7.024 0.789 13.748 1.477 20.347 0.69 6.6 1.511 13.06 2.358 19.458 0.87 6.353 1.738 12.69 2.604 19.009 0.961 6.384 1.919 12.751 2.874 19.098 4.093 25.324 9.145 50.094 14.754 74.264 5.616 24.168 11.796 47.737 18.286 70.656 6.5 22.916 13.396 45.152 20.367 66.699 6.96 21.552 14.149 42.359 21.297 62.407 7.126 20.057 14.334 39.306 21.382 57.731 7.024 18.434 14.048 35.978 20.754 52.65 6.78 16.641 13.27 32.401 19.538 47.135 12.471 29.499 23.761 55.025 33.198 75.981 1.183 2.618 2.334 5.166 3.452 7.643 0.601 1.219 1.021 2.499 1.564 3.701 0.602 1.175 1.365 2.256 2.027 3.359 2.761 4.365 5.233 8.506 7.678 12.291 4.929 7.549 9.998 13.562 14.357 18.313 4.321 4.77 8.008 8.215 10.626 10.489 1.3 1.139 2.323 1.985 3.039 2.538 0.718 0.559 1.08 0.84 1.08 0.84" fill="#cc96e5"/></g></g></g><g id="g3370"><g id="g3372" clip-path="url(#clipPath3374)"><g id="g3378" transform="translate(74.968 1162.3)"><path id="path3380" d="m0 0 236.99-854.88-452.98-18.08 215.99 872.96z" fill="#9241c3"/></g><g id="g3382" transform="translate(154.53 1188.7)"><path id="path3384" d="m0 0c-37.379-156.98-10.185-252.82 73.815-406.82s170-265.51 109-381.76c-34.939-66.581-165-138.24-272-62.245-23 37-31 80-26.64 147.89l136.64-74.893c31 100 36 180-20 286s-87.746 249.41-74.373 388.7l73.553 103.12z" fill="#aaf8e1"/></g><g id="g3386" transform="translate(368.97 580.9)"><path id="path3388" d="m0 0c-0.962-140.32-83.199-278.32-250.96-224.32-123.9 39.881-61.667 192.33-28.667 218.34-8-192 167.58-179.32 186-22.002 26 222-229.06 340.99-140.05 614.95 61.456 189.15 439.02 270.02 542.64 63.901 103.63-206.13-58.02-159.59-58.02-159.59s-26.884-63.903-72.059-17.751c-45.176 46.153-215.84 70.819-260.51-93.181 4.001-140.01 77.335-219.34 81.63-380.35" fill="#77379f"/></g><g id="g3390" transform="translate(634.9 1097.2)"><path id="path3392" d="m0 0c-50.224 60.667-144.22 120-266.22 87.333-122-32.666-219.95-248.05-29.593-449.69" stroke="#643085" stroke-miterlimit="10" stroke-width="10" fill="#9241c3"/></g></g></g><g id="g3394"><g id="g3396" clip-path="url(#clipPath3398)"><g id="g3402" transform="translate(677.34 1107.9)"><path id="path3404" d="m0 0c-79.333 92.667-192.67 208.67-332.67 182.67s-248.33-138.92-279.33-246.3c-31-107.37-21-259.89 7-341.13 28-81.243 89-180.58 53.667-225.91-21.64-27.764-68.334-33-106.38 36.239-21.291-53.239-22.992-136.24 65.831-188.12 50.794-29.668 264.88-55.204 281.99 207.9 13.5 207.58-66.386 220.5-79.678 411.65-2 144 200.59 187.03 260.08 109.52" stroke="#643085" stroke-miterlimit="10" stroke-width="15" fill="none"/></g><g id="g3406" transform="translate(148.36 437.94)"><path id="path3408" d="m0 0c-45.515 22.48-58.012 67.475-59.012 136.97-27-28-67.538-94.97-30.587-174.75" fill="#77379f"/></g><g id="g3410" transform="translate(148.36 437.94)"><path id="path3412" d="m0 0c-1.618 0.458-3.229 0.917-4.825 1.428-1.574 0.581-3.205 1.13-4.774 1.789-3.134 1.304-6.234 2.779-9.216 4.507-1.492 0.863-2.995 1.732-4.423 2.717-0.718 0.486-1.449 0.962-2.161 1.465l-2.097 1.564c-2.816 2.085-5.419 4.454-7.93 6.938-1.209 1.277-2.414 2.572-3.567 3.911-1.106 1.369-2.263 2.721-3.292 4.152-1.036 1.428-2.115 2.841-3.068 4.325l-1.473 2.209c-0.476 0.745-0.921 1.505-1.383 2.259-0.988 1.48-1.583 3.148-2.352 4.725-0.764 1.587-1.407 3.211-2.082 4.826-1.323 3.237-2.482 6.519-3.549 9.817-0.543 1.648-0.996 3.311-1.496 4.967-0.479 1.658-0.885 3.327-1.33 4.991-0.824 3.335-1.563 6.679-2.214 10.029-0.64 3.351-1.219 6.705-1.708 10.06-0.271 1.677-0.471 3.355-0.693 5.033-0.231 1.678-0.421 3.355-0.599 5.032-0.389 3.354-0.676 6.706-0.954 10.056l-0.369 5.023-0.295 5.018c-0.164 3.343-0.331 6.686-0.421 10.021-0.123 3.339-0.171 6.669-0.24 10.002v0.001l12.898-5.098c-2.566-2.682-5.036-5.491-7.428-8.375-2.346-2.926-4.671-5.88-6.817-8.972-2.191-3.059-4.23-6.225-6.218-9.422-1.937-3.227-3.819-6.489-5.543-9.833-0.858-1.674-1.736-3.338-2.518-5.048l-1.209-2.547c-0.392-0.853-0.753-1.721-1.132-2.58l-1.123-2.584-1.034-2.618-1.027-2.621-0.94-2.651c-0.308-0.885-0.642-1.763-0.929-2.654l-0.842-2.681c-0.274-0.895-0.579-1.783-0.829-2.684l-0.74-2.709c-0.241-0.904-0.509-1.801-0.728-2.71l-0.633-2.733-0.627-2.734-0.522-2.753c-0.794-3.656-1.135-7.381-1.702-11.07-0.289-1.846-0.608-3.694-0.78-5.556-0.184-1.861-0.479-3.722-0.552-5.594-0.098-1.87-0.284-3.745-0.315-5.622l-0.116-5.645 0.083-5.661c0.038-1.891 0.173-3.779 0.251-5.678 0.027-1.907 0.266-3.791 0.409-5.695l0.213-2.863 0.352-2.849 0.353-2.86c0.104-0.959 0.236-1.913 0.401-2.861l0.923-5.73c0.766-3.793 1.459-7.647 2.424-11.447 0.811-3.859 1.982-7.61 2.909-11.511-2.156 3.334-4.361 6.699-6.192 10.256-1.986 3.498-3.594 7.172-5.294 10.848-1.461 3.75-3.036 7.506-4.19 11.402l-0.939 2.908-0.802 2.948c-0.493 1.977-1.081 3.945-1.456 5.954-0.385 2.006-0.832 4.012-1.157 6.036l-0.834 6.103c-0.192 2.044-0.349 4.095-0.503 6.148-0.155 2.055-0.152 4.114-0.233 6.176-0.1 2.064-0.002 4.123 0.003 6.19-0.009 2.07 0.133 4.13 0.249 6.196 0.07 1.031 0.087 2.071 0.248 3.093 0.165 1.02 0.334 2.04 0.479 3.063l0.453 3.066 0.577 3.043 0.579 3.043 0.689 3.017 0.701 3.015c0.242 1.002 0.534 1.991 0.8 2.987l0.817 2.983c0.277 0.992 0.608 1.968 0.91 2.953l0.928 2.947c0.316 0.979 0.68 1.942 1.018 2.914l1.034 2.909 1.124 2.873 1.134 2.869 1.228 2.827c0.414 0.94 0.811 1.889 1.239 2.822l1.32 2.783c0.857 1.867 1.811 3.685 2.749 5.51 1.882 3.648 3.931 7.204 6.044 10.72 2.163 3.485 4.388 6.933 6.777 10.272 2.343 3.37 4.882 6.606 7.459 9.813 2.628 3.172 5.355 6.274 8.229 9.275l12.535 13.092 0.363-18.19c0.068-3.246 0.114-6.496 0.234-9.734 0.087-3.243 0.25-6.472 0.407-9.702l0.285-4.836 0.354-4.821c0.266-3.207 0.54-6.414 0.91-9.596 0.169-1.595 0.349-3.187 0.568-4.769 0.21-1.584 0.398-3.174 0.653-4.745 0.459-3.157 1.002-6.288 1.595-9.401 0.605-3.11 1.287-6.192 2.041-9.246 0.407-1.514 0.776-3.044 1.211-4.546 0.454-1.493 0.862-3.008 1.351-4.484 0.959-2.962 1.992-5.889 3.16-8.743 1.127-2.873 2.489-5.626 3.779-8.391 0.297-0.705 0.579-1.423 0.889-2.122l0.972-2.079c0.619-1.409 1.365-2.736 2.072-4.099 0.694-1.373 1.537-2.642 2.279-3.994l2.457-3.906c1.714-2.559 3.486-5.119 5.429-7.581l1.461-1.855c0.504-0.606 1.032-1.189 1.55-1.789 0.526-0.589 1.018-1.224 1.564-1.8l1.641-1.743c1.08-1.189 2.257-2.277 3.403-3.428 0.568-0.582 1.176-1.116 1.78-1.659l1.809-1.657c1.224-1.079 2.48-2.115 3.74-3.202l3.911-3.135z" fill="#643085"/></g><g id="g3414" transform="translate(496.01 650)"><path id="path3416" d="m0 0c-54-4.695-51.248-6.141-87.667-72.125-64-115.96-104-319.96-120.38-471.14-3.929-36.261-12.62-79.113 79.714-79.113 179 0 201.98-8.805 175.39 82.458-54.722 187.84 26.278 476.84 141.28 611.84l52 399.8c-187 11.52-234.14-114.87-256.94-243.23-23.057-135.58 38.943-224.15 9.943-258.58" fill="#f8c5ff"/></g><g id="g3418" transform="translate(496.67 642.52)"><path id="path3420" d="m0 0c-8.52-0.762-17.036-1.461-25.015-2.769-3.977-0.664-7.778-1.515-11.181-2.737-3.408-1.229-6.362-2.838-9.059-5.01-5.389-4.327-9.959-11.058-14.291-18.107-4.322-7.095-8.43-14.593-12.561-22.09l-6.195-11.292-3.112-5.655-2.988-5.586-3.03-5.684-2.818-5.634-2.807-5.63-2.7-5.746c-7.197-15.338-13.717-31.042-19.763-46.946-6.061-15.901-11.557-32.043-16.733-48.295-5.157-16.259-9.995-32.635-14.476-49.12-4.478-16.485-8.674-33.055-12.631-49.688-3.938-16.639-7.6-33.348-11.076-50.098-3.487-16.748-6.676-33.562-9.719-50.402-3.043-16.841-5.862-33.724-8.472-50.64-2.615-16.914-5.056-33.857-7.272-50.827-1.09-8.488-2.17-16.976-3.162-25.475l-1.464-12.749-1.432-12.803c-0.945-8.46-1.77-16.679-1.291-24.396 0.453-7.712 2.353-14.748 6.385-20.239 3.968-5.536 10.139-9.624 17.244-12.486 7.109-2.882 15.049-4.578 23.129-5.673 8.102-1.081 16.412-1.534 24.768-1.612l25.715-0.063 51.5-0.187c17.122 0.02 34.244 0.066 51.077 0.997 8.396 0.494 16.746 1.211 24.676 2.649 3.95 0.729 7.798 1.644 11.305 2.892 3.513 1.235 6.649 2.83 9.025 4.788 2.37 1.972 3.995 4.253 5.04 7.168 1.054 2.899 1.493 6.407 1.502 10.136 0.002 3.738-0.396 7.678-1.013 11.663-0.616 3.989-1.446 8.03-2.384 12.083-0.941 4.055-1.996 8.123-3.11 12.196l-3.482 12.372c-0.567 2.086-1.167 4.098-1.706 6.245l-1.619 6.429c-0.566 2.149-0.996 4.271-1.495 6.406-0.471 2.135-0.999 4.26-1.41 6.405-3.573 17.115-6.156 34.397-7.81 51.739-1.711 17.339-2.518 34.734-2.645 52.112-0.152 17.38 0.457 34.744 1.641 52.053 1.173 17.312 2.956 34.569 5.301 51.742 4.643 34.354 11.45 68.375 20.073 101.92 4.311 16.771 9.136 33.408 14.387 49.909 5.247 16.504 10.987 32.852 17.211 49.021 6.212 16.173 12.899 32.17 20.144 47.927 3.582 7.895 7.385 15.694 11.23 23.471 3.929 7.737 7.892 15.46 12.103 23.058 16.735 30.424 35.739 59.8 58.435 86.516l-1.727-3.896 51.999 399.8 6.976-8.453c-13.504 0.81-27.018 0.941-40.451 0.239-13.418-0.797-26.767-2.378-39.813-5.19-13.057-2.751-25.793-6.738-37.968-11.945-12.139-5.281-23.678-11.846-34.3-19.683-10.594-7.86-20.263-16.97-28.881-27.04-8.635-10.06-16.205-21.08-22.817-32.7-6.617-11.62-12.341-23.8-17.283-36.35-4.941-12.55-9.195-25.41-12.873-38.48-3.683-13.07-6.86-26.31-9.648-39.67-1.398-6.68-2.711-13.38-3.951-20.1l-0.914-5.049-0.205-1.146-0.205-1.276-0.412-2.551-0.406-2.545-0.35-2.481c-0.23-1.657-0.48-3.298-0.676-4.983-1.736-13.392-2.663-26.882-2.901-40.385-0.232-13.506 0.358-27.026 1.56-40.505 1.215-13.481 3.055-26.92 5.354-40.331 2.294-13.421 5.011-26.804 7.797-40.301 1.387-6.751 2.751-13.54 4.024-20.414 0.638-3.434 1.238-6.897 1.786-10.391 0.284-1.743 0.5-3.511 0.736-5.274 0.177-1.778 0.375-3.555 0.474-5.357 0.434-7.186-0.179-14.662-2.03-21.997-0.977-3.649-2.364-7.263-4.416-10.482-2.037-3.215-4.663-6.027-7.764-7.925 1.313 3.401 2.134 6.66 2.541 9.887 0.372 3.239 0.394 6.423 0.217 9.612-0.297 6.381-1.761 12.763-2.869 19.253-1.146 6.493-2.215 13.137-3.599 19.79-1.341 6.66-2.845 13.354-4.298 20.09-1.454 6.739-2.915 13.507-4.3 20.315-1.377 6.81-2.657 13.659-3.84 20.538-2.352 13.76-4.18 27.669-5.31 41.657-1.136 13.987-1.59 28.053-1.28 42.11 0.31 14.056 1.341 28.108 3.21 42.047 0.211 1.738 0.485 3.503 0.738 5.258l0.385 2.635 0.409 2.56 0.411 2.551 0.206 1.276 0.247 1.398 0.927 5.124c1.26 6.831 2.596 13.655 4.023 20.468 2.844 13.627 6.098 27.205 9.894 40.673 3.792 13.467 8.198 26.811 13.359 39.915 5.162 13.1 11.178 25.935 18.205 38.271 7.021 12.335 15.124 24.149 24.447 35.014 9.304 10.872 19.817 20.788 31.36 29.351 11.565 8.537 24.133 15.684 37.273 21.395 13.172 5.639 26.873 9.912 40.789 12.846 13.912 2.996 28.019 4.662 42.112 5.497 14.099 0.738 28.192 0.597 42.204-0.245l8.013-0.481-1.037-7.972-52-399.8-0.286-2.199-1.442-1.697c-21.81-25.666-40.35-54.263-56.7-83.997-4.116-7.425-7.995-14.986-11.842-22.561-3.766-7.619-7.493-15.26-11.007-23.006-7.106-15.454-13.674-31.164-19.778-47.057-6.116-15.889-11.761-31.965-16.921-48.197-5.165-16.231-9.913-32.598-14.153-49.096-8.483-32.993-15.176-66.452-19.733-100.18-2.303-16.861-4.052-33.792-5.201-50.752-1.16-16.959-1.756-33.949-1.606-50.92 0.123-16.969 0.911-33.922 2.575-50.769 1.606-16.853 4.113-33.593 7.559-50.105 0.396-2.072 0.907-4.116 1.36-6.174 0.478-2.046 0.901-4.134 1.431-6.138l1.524-6.063c0.503-2.018 1.129-4.123 1.688-6.18l3.498-12.427c1.151-4.211 2.254-8.456 3.254-12.767 0.997-4.313 1.901-8.689 2.597-13.187 0.692-4.499 1.187-9.126 1.188-13.98-0.025-4.839-0.53-10.001-2.394-15.202-0.927-2.585-2.22-5.145-3.866-7.473-1.631-2.341-3.618-4.409-5.735-6.168-4.278-3.503-8.985-5.73-13.55-7.353-4.59-1.626-9.132-2.678-13.621-3.511-8.978-1.622-17.779-2.35-26.521-2.87-17.47-0.964-34.717-0.999-51.94-1.022l-51.55 0.187-25.81 0.064c-8.814 0.084-17.688 0.555-26.614 1.744-8.913 1.221-17.927 3.073-26.765 6.635-2.205 0.892-4.396 1.886-6.545 3.04-2.151 1.139-4.269 2.412-6.304 3.87-4.075 2.884-7.873 6.459-10.905 10.669-3.052 4.19-5.304 8.933-6.751 13.737-1.46 4.812-2.171 9.666-2.466 14.382-0.566 9.456 0.413 18.407 1.355 26.995l1.431 12.8 1.475 12.845c1 8.561 2.088 17.111 3.186 25.658 2.231 17.091 4.688 34.15 7.322 51.182 2.629 17.033 5.467 34.034 8.532 50.996s6.277 33.9 9.792 50.781c3.504 16.884 7.196 33.731 11.169 50.52 3.993 16.785 8.23 33.517 12.756 50.181 4.531 16.663 9.426 33.238 14.654 49.72 5.247 16.476 10.827 32.865 17.001 49.064 6.159 16.202 12.817 32.246 20.211 48.005l2.78 5.911 2.94 5.899 2.948 5.884 3.03 5.683 3.088 5.772 3.099 5.631 6.197 11.295c4.159 7.542 8.299 15.117 12.911 22.693 2.325 3.784 4.766 7.576 7.595 11.313 2.828 3.722 6.094 7.435 10.094 10.658 3.984 3.235 8.688 5.764 13.363 7.428 4.688 1.677 9.312 2.667 13.799 3.423 8.977 1.462 17.602 2.142 26.182 2.917l1.324-14.947z" fill="#cc96e5"/></g><g id="g3422"><g id="g3434"><g id="g3436" clip-path="url(#clipPath3426)"><g id="g3438"><g id="g3440" clip-path="url(#clipPath3430)"><g id="g3442" transform="translate(627.48 967.74)"><path id="path3444" d="m0 0c-27.715 0.671-55.431 1.333-83.138 2.004-2.181-9.218-3.865-18.439-5.055-27.61 27.649-0.668 55.306-1.337 82.964-2.005 1.249 9.177 2.99 18.396 5.229 27.611" fill="#696969"/></g><g id="g3446" transform="translate(642.79 1013.5)"><path id="path3448" d="m0 0c-27.806 0.675-55.613 1.35-83.419 2.025-3.821-9.067-7.159-18.217-10.002-27.406 27.749-0.664 55.498-1.336 83.246-2.009 2.901 9.187 6.288 18.335 10.175 27.39" fill="#696969"/></g></g></g></g></g></g><g id="g3450" transform="translate(726.09 1259.8)"><path id="path3452" d="m0 0 375.25 22.761c27.333-126 124.96-183.77 110.57-394.74-10.566-154.92-147.69-219.8-206.51-236.21-126.18-35.213-392.56-30.713-365.23 185.23" fill="#f8c5ff"/></g><g id="g3454" transform="translate(725.64 1267.3)"><path id="path3456" d="m0 0 375.25 22.761 6.353 0.386 1.43-6.282 0.001-0.002c5.335-24.68 14.044-48.549 24.72-71.728 10.619-23.218 22.991-45.888 34.611-69.208 11.666-23.28 22.46-47.327 30.812-72.324 8.397-24.974 14.352-50.805 17.84-76.899 3.483-26.102 4.655-52.431 4.026-78.63-0.106-3.273-0.174-6.55-0.312-9.821-0.158-3.27-0.274-6.544-0.467-9.81l-0.298-4.9-0.148-2.45-0.085-1.323-0.099-1.209-0.395-4.836c-0.119-1.597-0.344-3.331-0.512-4.99-0.328-3.376-0.821-6.645-1.262-9.949-0.239-1.648-0.529-3.288-0.792-4.932-0.259-1.645-0.541-3.287-0.871-4.921-1.182-6.558-2.735-13.05-4.445-19.496-6.936-25.773-18.23-50.399-33.136-72.524-14.905-22.145-33.313-41.761-53.839-58.556-20.551-16.797-43.164-30.88-67.008-42.308-11.934-5.701-24.18-10.75-36.77-14.99-6.277-2.125-12.75-4.008-19.113-5.652-6.391-1.657-12.812-3.145-19.254-4.492-25.775-5.343-51.884-8.539-78.099-9.888-26.212-1.317-52.558-0.76-78.745 2.187-26.162 2.98-52.24 8.326-77.289 17.439-12.503 4.575-24.742 10.086-36.374 16.831-11.635 6.719-22.661 14.688-32.568 23.982-4.956 4.641-9.616 9.62-13.921 14.904-1.075 1.32-2.144 2.649-3.186 3.998-1.025 1.363-2.007 2.758-2.942 4.184-1.91 2.825-3.678 5.743-5.382 8.69-3.385 5.909-6.386 12.028-8.908 18.324-2.555 6.282-4.638 12.736-6.23 19.286-1.611 6.545-2.73 13.183-3.395 19.835-0.655 6.653-0.946 13.313-0.747 19.941 0.374 13.253 2.368 26.349 6.075 38.923 0.483-13.096 1.036-25.935 2.572-38.543 1.51-12.594 3.866-24.956 7.621-36.794 3.682-11.846 8.701-23.2 15.313-33.54 3.288-5.183 7.074-10.002 10.837-14.828 3.869-4.749 8.068-9.238 12.558-13.442 8.972-8.417 19.049-15.721 29.818-21.938 10.761-6.242 22.207-11.406 34-15.721 23.625-8.601 48.607-13.757 73.834-16.626 25.254-2.843 50.827-3.393 76.299-2.112 25.469 1.309 50.886 4.427 75.796 9.592 6.223 1.301 12.412 2.736 18.547 4.326 6.164 1.595 12.122 3.33 18.104 5.352 11.937 4.02 23.662 8.85 35.077 14.304 22.82 10.935 44.447 24.417 63.979 40.384 19.514 15.968 36.887 34.511 50.897 55.324 14.009 20.803 24.58 43.853 31.1 68.066 1.605 6.058 3.069 12.161 4.181 18.339 0.311 1.538 0.576 3.084 0.82 4.635 0.247 1.55 0.522 3.096 0.747 4.65 0.413 3.109 0.886 6.239 1.181 9.303 0.157 1.56 0.36 3.034 0.482 4.664l0.395 4.836 0.099 1.209 0.068 1.098 0.145 2.394 0.29 4.787c0.189 3.192 0.302 6.385 0.457 9.577 0.135 3.193 0.2 6.385 0.304 9.578 0.613 25.536-0.534 51.073-3.897 76.282-3.371 25.207-9.097 50.038-17.194 74.127-8.06 24.116-18.5 47.421-30.013 70.397-11.457 23.005-23.908 45.799-34.829 69.661-10.967 23.804-20.135 48.84-25.739 74.79l-0.001 0.003 7.784-5.896-375.25-22.739-0.91 14.972z" fill="#cc96e5"/></g><g id="g3458" transform="translate(885.34 718.91)"><path id="path3460" d="m0 0c-61-129.12-173-383.55-201.41-587.85-13.383-96.239-16.001-114.43 99.411-115.37 121.33-0.987 171.87-10.491 155 86.08-30.418 174.1 47.58 506.75 96 617.14" fill="#f8c5ff"/></g><g id="g3462" transform="translate(885.34 718.91)"><path id="path3464" d="m0 0s-2.778-5.921-7.988-17.024c-5.196-11.108-12.749-27.434-22.154-48.305-9.4-20.873-20.645-46.298-33.061-75.667-6.241-14.671-12.701-30.359-19.45-46.921-6.673-16.593-13.664-34.051-20.65-52.388-7.011-18.327-14.179-37.47-21.261-57.405-7.105-19.926-14.248-40.6-21.158-61.996-6.92-21.391-13.763-43.455-20.205-66.168-6.431-22.715-12.55-46.051-18.101-69.943-5.546-23.89-10.53-48.339-14.557-73.26-0.94-6.241-1.882-12.5-2.827-18.777-0.861-6.289-1.725-12.595-2.592-18.917-1.647-12.649-3.285-25.393-3.71-38.269-0.177-6.429-0.049-12.915 1.052-19.291 1.108-6.336 3.266-12.66 7.306-17.777 3.956-5.18 9.578-8.846 15.516-11.418 5.978-2.576 12.333-4.168 18.723-5.398 6.408-1.183 12.888-1.978 19.389-2.549 6.501-0.579 13.023-0.952 19.552-1.208 13.059-0.543 26.145-0.513 39.224-0.7 13.08-0.166 26.16-0.41 39.228-0.504 13.067-0.081 26.132-0.045 39.14 0.765 6.5 0.424 12.987 1.054 19.4 2.128 6.397 1.109 12.758 2.616 18.75 5.116 5.975 2.476 11.58 6.053 15.823 10.956 4.281 4.866 7.065 10.884 8.634 17.112 1.607 6.245 2.101 12.703 2.136 19.107-0.021 6.411-0.504 12.802-1.292 19.133-0.768 6.337-1.922 12.599-2.915 18.869-0.522 3.13-0.903 6.278-1.361 9.409-0.412 3.138-0.759 6.279-1.141 9.411-2.727 25.102-3.495 50.073-3.241 74.594 0.284 24.526 1.531 48.628 3.461 72.156 1.899 23.532 4.437 46.496 7.332 68.792 5.824 44.592 13.131 86.5 20.832 124.98 7.739 38.475 15.921 73.519 23.873 104.4 7.973 30.874 15.719 57.581 22.645 79.401 6.914 21.825 13.047 38.743 17.49 50.173 2.236 5.71 4.027 10.057 5.263 12.974 1.25 2.919 1.89 4.422 1.89 4.422s0.027-0.458 0.081-1.358c0.068-0.906 0.086-2.219 0.101-3.936 0.062-3.448-0.12-8.413-0.563-14.732-0.503-6.303-1.311-13.943-2.971-22.641-0.81-4.356-1.927-8.95-3.019-13.883-0.525-2.473-1.066-5.023-1.624-7.649-0.281-1.313-0.49-2.669-0.988-3.951-0.483-1.288-0.962-2.595-1.368-3.949-6.837-21.538-14.51-47.99-22.417-78.608-7.887-30.624-16.01-65.415-23.691-103.6-7.644-38.192-14.895-79.786-20.665-123.96-2.868-22.087-5.379-44.817-7.255-68.064-1.907-23.245-3.134-47.01-3.412-71.101-0.252-24.079 0.511-48.513 3.151-72.801 0.369-3.016 0.707-6.082 1.1-9.07l0.621-4.435c0.205-1.476 0.401-2.94 0.676-4.541 0.513-3.128 1.026-6.261 1.541-9.397 0.549-3.307 1.027-6.66 1.456-10.045 0.841-6.778 1.384-13.75 1.405-20.993-0.046-7.26-0.572-14.843-2.604-22.805-1.014-3.966-2.419-8.018-4.379-11.987-1.951-3.966-4.477-7.833-7.498-11.283-3.013-3.456-6.496-6.469-10.139-8.936-3.648-2.467-7.435-4.411-11.189-5.983-7.532-3.13-14.891-4.821-22.032-6.066-7.139-1.195-14.091-1.859-20.941-2.307-13.685-0.85-26.997-0.875-40.203-0.796-13.201 0.095-26.283 0.34-39.321 0.505l-19.614 0.213c-6.64 0.085-13.304 0.234-20.01 0.498-6.705 0.263-13.454 0.647-20.286 1.255-6.828 0.601-13.747 1.44-20.828 2.748-7.089 1.373-14.375 3.14-21.914 6.374-3.757 1.629-7.58 3.662-11.269 6.299-3.684 2.615-7.218 5.891-10.133 9.682-2.945 3.767-5.245 7.97-6.862 12.136-1.64 4.175-2.685 8.311-3.378 12.278-1.359 7.95-1.449 15.27-1.267 22.293 0.206 7.024 0.789 13.748 1.477 20.347 0.69 6.6 1.511 13.06 2.358 19.458 0.87 6.353 1.738 12.69 2.604 19.009 0.961 6.384 1.919 12.751 2.874 19.098 4.093 25.324 9.145 50.094 14.754 74.264 5.616 24.168 11.796 47.737 18.286 70.656 6.5 22.916 13.396 45.152 20.367 66.699 6.96 21.552 14.149 42.359 21.297 62.407 7.126 20.057 14.334 39.306 21.382 57.731 7.024 18.434 14.048 35.978 20.754 52.65 6.78 16.641 13.27 32.401 19.538 47.135 12.471 29.499 23.761 55.025 33.198 75.981 1.183 2.618 2.334 5.166 3.452 7.643 0.601 1.219 1.021 2.499 1.564 3.701 0.602 1.175 1.365 2.256 2.027 3.359 2.761 4.365 5.233 8.506 7.678 12.291 4.929 7.549 9.998 13.562 14.357 18.313 4.321 4.77 8.008 8.215 10.626 10.489 1.3 1.139 2.323 1.985 3.039 2.538 0.718 0.559 1.08 0.84 1.08 0.84" fill="#cc96e5"/></g></g></g><g id="g3466"><g id="g3468" clip-path="url(#clipPath3470)"><g id="g3474" transform="translate(830.84 1144.7)"><path id="path3476" d="m0 0 246.04 98.18 298.04 350s-27.165 121.77-47.311 158.67-85.47 175.04-229.86 170.02c-144.4-5.03-565.28 91.87-266.91-776.87" fill="#f8c5ff"/></g></g></g><g id="g3478"><g id="g3480" clip-path="url(#clipPath3482)"><g id="g3486" transform="translate(1310.7 1549.9)"><path id="path3488" d="m0 0c-17.083 24-37.333 72.5-30.333 89s54.416 15.631 64.333 15.003 11.542-5.628 24.08-9.088c3.556-24.495 9.925-73.77 6.587-94.912-10-2.5-33.563-11.813-64.667 0" fill="#fff"/></g></g></g><g id="g3490"><g id="g3492"><g id="g3498"><g id="g3500"><path id="path3510" fill="url(#linearGradient3502)" d="m1305.1 1636.7c-7.0631 0.1585-13.275-4.8343-16.306-10.926-2.9787-5.5316-4.379-11.767-4.9898-17.979 6.2331-18.917 13.854-37.552 24.528-54.431 1.4353-4.1854 5.8299-4.6889 9.5708-5.5401 9.722-1.9456 19.727-1.8256 29.571-1.0688 2.1894 8.6352 2.2868 17.671 1.3581 26.489-2.0907 17.068-8.2196 33.858-18.674 47.603-6.1445 7.7081-14.539 15.583-24.989 15.834"/></g></g></g></g><g id="g3512"><g id="g3514" clip-path="url(#clipPath3516)"><g id="g3520" transform="translate(1333.7 1567.4)"><path id="path3522" d="m0 0 20.333-3.167v-12.559l-21.166 10.226" fill="#c5c1ff"/></g><g id="g3524" transform="translate(1334 1570.2)"><path id="path3526" d="m0 0 18.33 2.5 1.003-9.833-19.333 2.833" fill="#968ffa"/></g></g></g><g id="g3528"><g id="g3530" clip-path="url(#clipPath3532)"><g id="g3536" transform="translate(1333.7 1584.4)"><path id="path3538" d="m0 0c5.604-21.796 0.953-41.83-10.391-44.747-11.343-2.916-25.081 12.389-30.686 34.185-5.604 21.796-0.952 41.83 10.391 44.746 11.343 2.917 25.082-12.388 30.686-34.184"/></g><g id="g3540" transform="translate(1324.3 1561.6)"><path id="path3542" d="m0 0c-0.592-3.634-2.748-6.307-4.816-5.97s-3.265 3.555-2.673 7.189c0.592 3.635 2.748 6.307 4.816 5.971 2.068-0.337 3.265-3.556 2.673-7.19" fill="#fff"/></g><g id="g3544" transform="translate(1318.6 1592.7)"><path id="path3546" d="m0 0c0-16.154-6.604-29.25-14.75-29.25s-14.75 13.096-14.75 29.25 6.604 29.25 14.75 29.25 14.75-13.096 14.75-29.25" fill="#fff"/></g></g></g><g id="g3548"><g id="g3550" clip-path="url(#clipPath3552)"><g id="g3556"><g id="g3564"><g id="g3566" opacity=".10001" clip-path="url(#clipPath3560)"><g id="g3568" transform="translate(1278.9 1635.5)"><path id="path3570" d="m0 0c-13.306 17.244-23.994 71.511-20.757 88.838 18.308-2.522 66.424-5.041 81.301 2.959 8.544-14 20.211-58.798 21.044-73.066-30.167 4.066-78.343-4.861-81.588-18.731"/></g></g></g></g><g id="g3572" transform="translate(1310.7 1549.9)"><path id="path3574" d="m0 0c-1.28 1.646-2.525 3.321-3.723 5.04-1.193 1.718-2.349 3.463-3.472 5.231-1.121 1.769-2.205 3.562-3.271 5.367-1.056 1.811-2.09 3.635-3.098 5.474-4.018 7.365-7.679 14.934-11.031 22.652-1.671 3.861-3.266 7.76-4.774 11.702-1.5 3.945-2.95 7.919-4.276 11.958-1.324 4.04-2.539 8.135-3.55 12.351-0.521 2.1-0.946 4.256-1.329 6.448-0.157 1.118-0.356 2.208-0.455 3.372-0.139 1.133-0.185 2.338-0.113 3.536l0.144 2.403 1.479 1.155h0.001c3.248 2.86 6.862 4.893 10.499 6.473 3.649 1.57 7.356 2.701 11.061 3.587 7.418 1.749 14.842 2.571 22.224 2.979 7.384 0.394 14.735 0.346 22.053 0 7.323-0.356 14.599-0.982 21.891-1.986l-0.854-6.948c-7.036 0.722-14.172 1.09-21.272 1.188-7.105 0.089-14.204-0.113-21.217-0.733-7.004-0.627-13.952-1.663-20.531-3.461-3.282-0.904-6.464-2.012-9.4-3.401-2.928-1.388-5.6-3.08-7.704-5.075l-0.001-0.001 1.624 3.557c0.076-1.736-0.021-3.637 0.101-5.565 0.128-1.944 0.294-3.916 0.565-5.907 0.51-3.979 1.234-7.997 2.078-12.004 0.848-4.008 1.813-8.013 2.904-11.989 1.083-3.98 2.26-7.943 3.517-11.884 2.525-7.88 5.377-15.674 8.608-23.319 0.812-1.91 1.651-3.809 2.513-5.698 0.873-1.883 1.766-3.759 2.698-5.617 0.935-1.852 1.904-3.691 2.916-5.51 1.012-1.814 2.084-3.604 3.195-5.371"/></g><g id="g3576" transform="translate(1224.1 1761.7)"><path id="path3578" d="m0 0s1.06-1.831 2.914-5.036c0.932-1.594 2.091-3.515 3.434-5.687 1.345-2.171 2.93-4.567 4.763-7.036 1.862-2.44 4.003-4.936 6.524-7.093 2.518-2.165 5.409-3.928 8.623-5.193 3.221-1.26 6.795-2.011 10.57-2.455 1.901-0.201 3.823-0.34 5.792-0.43 0.487-0.06 0.96-0.176 1.458-0.207l1.489-0.095c0.994-0.059 1.978-0.145 2.992-0.161 4.005-0.181 8.102-0.114 12.131-0.033 2.026 0.078 4.036 0.155 6.021 0.231 1.995 0.111 3.965 0.221 5.903 0.328 3.882 0.246 7.645 0.529 11.217 0.815 3.577 0.313 6.96 0.608 10.082 0.881 6.248 0.57 11.467 1.097 15.12 1.464 3.653 0.372 5.741 0.584 5.741 0.584l1.198-15.955s-2.109-0.097-5.8-0.266c-3.692-0.166-8.966-0.404-15.317-0.63-3.179-0.101-6.623-0.21-10.266-0.325-3.651-0.09-7.507-0.165-11.51-0.196h-6.11c-2.074 0.035-4.174 0.072-6.29 0.108-4.254 0.15-8.579 0.318-12.968 0.759-2.197 0.187-4.383 0.525-6.609 0.746-2.195 0.4-4.386 0.991-6.549 1.588-4.33 1.237-8.6 2.992-12.375 5.4-3.797 2.37-6.961 5.418-9.354 8.554-2.412 3.141-4.14 6.328-5.554 9.277-1.373 2.968-2.461 5.71-3.352 8.154-0.903 2.439-1.606 4.583-2.172 6.353-1.113 3.536-1.748 5.556-1.748 5.556"/></g><g id="g3580" transform="translate(1375.3 1549.9)"><path id="path3582" d="m0 0c1.333 66-28.74 229.03-130.67 311.33" stroke="#cc96e5" stroke-miterlimit="10" stroke-width="15" fill="none"/></g></g></g><g id="g3584"><g id="g3586" clip-path="url(#clipPath3588)"><g id="g3592" transform="translate(1352.3 1648.7)"><path id="path3594" d="m0 0s53.033-2.708 52.117-9.73c-0.758-5.807-50.75 2.14-50.75 2.14"/></g></g></g><g id="g3596"><g id="g3598" clip-path="url(#clipPath3600)"><g id="g3604" transform="translate(1307.9 1652.7)"><path id="path3606" d="m0 0s31.489 46.302 38.489 44.468c7-1.833-20.841-43.146-20.841-43.146"/></g><g id="g3608" transform="translate(1332.8 1658.7)"><path id="path3610" d="m0 0s44.39 17.23 48 12.417c5.25-7-34-17.917-34-17.917"/></g><g id="g3612" transform="translate(1038.3 1238.9)"><path id="path3614" d="m0 0c169 13 278.52 79.547 330.29 150.72 51.766 71.175 51.407 132.92 38.71 150.61-20.333 28.334-52.333-7-96.667 9.667" fill="#f8c5ff"/></g><g id="g3616" transform="translate(1038.3 1238.9)"><path id="path3618" d="m0 0s2.467 0.396 7.092 1.137c2.314 0.354 5.168 0.791 8.523 1.304 3.342 0.577 7.173 1.279 11.465 1.987 8.575 1.492 18.969 3.459 30.805 5.945 11.818 2.582 25.114 5.579 39.416 9.513 3.595 0.904 7.221 1.986 10.925 3.048 1.851 0.533 3.719 1.071 5.604 1.614 1.874 0.576 3.765 1.157 5.671 1.743 3.816 1.161 7.704 2.305 11.599 3.636 3.902 1.306 7.887 2.552 11.864 3.996 3.985 1.419 8.049 2.782 12.085 4.37 4.055 1.538 8.161 3.084 12.243 4.815 2.049 0.844 4.108 1.693 6.178 2.546 2.048 0.901 4.107 1.807 6.175 2.718 1.034 0.455 2.07 0.911 3.108 1.368 1.04 0.454 2.108 0.849 3.14 1.333 2.08 0.927 4.17 1.859 6.268 2.795 16.777 7.51 33.554 16.45 49.848 26.677 16.254 10.277 31.972 21.949 46.366 35.028 7.183 6.551 14.058 13.419 20.507 20.6 6.446 7.213 12.348 14.703 17.873 22.537 11.032 15.622 20.393 32.048 27.439 48.703 3.526 8.325 6.481 16.702 8.806 25.025 2.276 8.329 3.942 16.602 4.849 24.665 0.446 4.032 0.681 8.003 0.755 11.892 0.02 3.88-0.152 7.67-0.572 11.3-0.421 3.624-1.098 7.106-2.099 10.201-0.278 0.742-0.519 1.519-0.807 2.228l-0.449 1.035-0.219 0.517-0.248 0.462-0.483 0.926c-0.164 0.295-0.348 0.533-0.513 0.805l-0.25 0.398c0.067-0.084-0.236 0.328 0.135-0.162l-0.109 0.139-0.218 0.277-0.867 1.106-0.432 0.55c-0.136 0.165-0.31 0.416-0.4 0.481l-0.627 0.626-0.606 0.646-0.75 0.634-0.735 0.641-0.773 0.522c-0.258 0.17-0.5 0.372-0.764 0.523l-0.8 0.421c-0.509 0.324-1.082 0.515-1.632 0.743-0.53 0.267-1.151 0.369-1.722 0.559-0.559 0.218-1.233 0.212-1.828 0.369-0.603 0.159-1.282 0.218-1.917 0.344-2.633 0.367-5.543 0.331-8.487 0.104-2.951-0.243-5.927-0.644-8.889-1.098-5.917-0.892-11.725-1.725-17.182-2.089-5.466-0.375-10.58-0.276-15.146 0.152-9.178 0.872-16.013 3.32-20.383 5.26-1.096 0.503-2.061 0.925-2.87 1.35-0.799 0.442-1.471 0.813-2.012 1.113-1.066 0.608-1.617 0.922-1.617 0.922s0.629-0.09 1.846-0.265c0.6-0.093 1.346-0.208 2.232-0.344 0.887-0.116 1.923-0.204 3.074-0.344 4.625-0.475 11.366-0.793 19.665 0.239 4.155 0.504 8.687 1.393 13.618 2.567 4.945 1.181 10.266 2.697 16.261 4.18 2.994 0.734 6.188 1.467 9.636 2.064 3.449 0.593 7.195 1.079 11.363 0.942 1.055-0.081 2.099-0.076 3.189-0.253 0.543-0.089 1.084-0.203 1.626-0.314 0.541-0.103 1.087-0.222 1.637-0.393 1.095-0.328 2.207-0.586 3.287-1.063 1.089-0.435 2.187-0.863 3.218-1.461l1.569-0.854c0.513-0.3 0.988-0.653 1.482-0.984l1.466-1.024c0.457-0.368 0.897-0.754 1.345-1.136l1.335-1.162c0.438-0.436 0.872-0.899 1.304-1.356l1.285-1.393c0.245-0.259 0.33-0.398 0.49-0.594l0.432-0.55 0.868-1.106 0.217-0.277 0.109-0.139c0.438-0.587 0.196-0.275 0.328-0.457l0.517-0.791c0.335-0.527 0.701-1.064 1.001-1.596l0.847-1.599 0.418-0.805 0.351-0.801 0.694-1.611c0.435-1.075 0.78-2.145 1.169-3.229 1.386-4.312 2.2-8.653 2.715-13.029 0.508-4.376 0.701-8.786 0.676-13.229-0.08-4.432-0.35-8.901-0.845-13.385-1.009-8.963-2.836-17.992-5.301-27.011-2.514-9.003-5.688-17.99-9.451-26.873-7.524-17.775-17.406-35.09-29.006-51.518-5.782-8.202-12.139-16.272-18.93-23.865-6.82-7.595-14.063-14.83-21.609-21.711-15.12-13.738-31.536-25.918-48.445-36.609-16.947-10.639-34.34-19.899-51.678-27.662-4.346-1.915-8.604-3.937-12.983-5.549-2.173-0.841-4.336-1.679-6.489-2.513-2.169-0.782-4.328-1.56-6.475-2.335-4.278-1.593-8.572-2.979-12.796-4.396-4.21-1.46-8.434-2.691-12.576-3.978-4.13-1.326-8.272-2.401-12.328-3.532-4.048-1.159-8.078-2.132-12.03-3.121-1.976-0.497-3.935-0.988-5.886-1.433-1.957-0.42-3.896-0.837-5.817-1.25-3.85-0.809-7.61-1.654-11.328-2.322-14.805-2.936-28.511-4.765-40.645-6.216-12.154-1.36-22.761-2.191-31.515-2.677-4.378-0.242-8.287-0.388-11.68-0.549-3.394-0.079-6.28-0.147-8.62-0.201l-7.182-0.115" fill="#cc96e5"/></g><g id="g3620" transform="translate(1388.2 1409.6)"><path id="path3622" d="m0 0s-0.403-0.098-1.16-0.283c-0.379-0.088-0.846-0.197-1.396-0.325-0.279-0.064-0.579-0.133-0.898-0.206-0.35-0.07-0.722-0.145-1.114-0.224-0.786-0.147-1.657-0.31-2.604-0.488-0.928-0.145-1.93-0.302-3.002-0.47-2.154-0.284-4.597-0.536-7.277-0.718-2.685-0.148-5.606-0.197-8.707-0.068-3.098 0.069-6.377 0.47-9.743 0.997-3.369 0.545-6.832 1.377-10.265 2.51-3.442 1.104-6.842 2.595-10.1 4.326-3.243 1.77-6.326 3.846-9.094 6.191-2.764 2.34-5.325 4.828-7.403 7.543-0.558 0.644-1.036 1.342-1.514 2.027-0.47 0.69-0.974 1.342-1.394 2.04-0.843 1.393-1.678 2.738-2.35 4.121-0.338 0.689-0.693 1.355-0.999 2.031-0.289 0.681-0.573 1.352-0.853 2.012-0.575 1.308-0.982 2.626-1.403 3.869-0.451 1.231-0.7 2.473-1.004 3.619-0.315 1.142-0.491 2.258-0.699 3.286-0.198 1.033-0.348 2.002-0.438 2.906-0.104 0.901-0.204 1.722-0.266 2.468-0.112 1.493-0.125 2.67-0.141 3.468-0.008 0.797-0.012 1.222-0.012 1.222s0.19-0.382 0.548-1.098c0.342-0.711 0.844-1.752 1.483-3.078 0.708-1.291 1.402-2.899 2.433-4.625 0.91-1.771 2.11-3.67 3.396-5.688 0.691-0.985 1.314-2.054 2.112-3.058 0.375-0.512 0.757-1.032 1.145-1.561 0.396-0.52 0.834-1.019 1.255-1.537 1.664-2.088 3.598-4.096 5.679-6.016 2.065-1.942 4.392-3.69 6.845-5.276 2.453-1.592 5.12-2.911 7.875-3.987 2.74-1.106 5.561-2.022 8.435-2.62 2.87-0.593 5.722-1.072 8.533-1.307 2.811-0.22 5.543-0.316 8.154-0.263 1.3-0.015 2.577 0.093 3.804 0.135 1.231 0.097 2.42 0.191 3.561 0.281 2.286 0.218 4.379 0.499 6.233 0.784 0.927 0.149 1.794 0.288 2.597 0.416 0.773 0.148 1.484 0.283 2.125 0.405 0.321 0.057 0.625 0.112 0.911 0.162 0.312 0.065 0.605 0.126 0.877 0.183 0.552 0.117 1.021 0.217 1.402 0.298 0.763 0.154 1.17 0.237 1.17 0.237l3.263-14.641z" fill="#cc96e5"/></g><g id="g3624" transform="translate(1299 1519.7)"><path id="path3626" d="m0 0c8.333-18.535 22.667-42.66 40 0-15.139-10.936-21.082-14.949-40 0" fill="#cc96e5"/></g><g id="g3628"><g id="g3636"><g id="g3638" opacity=".10001" clip-path="url(#clipPath3632)"><g id="g3640" transform="translate(1191.2 1632.9)"><path id="path3642" d="m0 0c-5.754 19.37-14.435 38.776-26.115 57.386-5.923 9.438-12.366 18.271-19.228 26.46l-243.1-31.171c-3.334-22.146-2.144-46.29 3.713-70.747"/></g></g></g></g><g id="g3644" transform="translate(912.84 1619.7)"><path id="path3646" d="m0 0s-64.167 17.833-66.667 10.667c-2.5-7.167 71.167-29.667 71.167-29.667"/></g><g id="g3648" transform="translate(915.51 1608.9)"><path id="path3650" d="m0 0s-85.5-7.333-84.667-16c0.834-8.667 87.334 1.833 87.334 1.833"/></g><g id="g3652" transform="translate(924.47 1589.5)"><path id="path3654" d="m0 0s-65.622-19.837-63.674-29.236c1.947-9.399 67.358 12.513 67.358 12.513"/></g><g id="g3656" transform="translate(904.45 1614.8)"><path id="path3658" d="m0 0c5.52-23.05 15.185-46.379 29.116-68.575 52.846-84.203 147.06-120.22 210.44-80.447 49.368 30.984 65.457 98.819 45.177 167.09-89.85 7.664-219.13-3.137-284.74-18.07" fill="#fff"/></g></g></g><g id="g3660"><g id="g3662"><g id="g3668"><g id="g3670"><path id="path3680" fill="url(#linearGradient3672)" d="m1062 1519.6c-0.01-24.532 6.3001-49.39 20.049-69.879 31.565-1.4066 63.76 11.307 84.586 35.324 23.953 27.054 32.738 64.552 30.894 99.979-11.902 20.098-32.311 37.011-56.485 37.945-20.787 1.0259-40.532-10.154-53.347-26.036-17.724-21.505-25.673-49.852-25.702-77.414"/></g></g></g></g><g id="g3682"><g id="g3684" clip-path="url(#clipPath3686)"><g id="g3690" transform="translate(1067.6 1458.7)"><path id="path3692" d="m0 0 45.25 23.75 2.5-21.667-33-25.083" fill="#c5c1ff"/></g><g id="g3694" transform="translate(1058.8 1480.7)"><path id="path3696" d="m0 0 48 11.75 4-14-40-23.25" fill="#968ffa"/></g></g></g><g id="g3698"><g id="g3700" clip-path="url(#clipPath3702)"><g id="g3706" transform="translate(1205.7 1510.9)"><path id="path3708" d="m0 0c0-45.84-23.58-83-52.667-83s-52.666 37.16-52.666 83 23.579 83 52.666 83c29.084 0 52.664-37.16 52.664-83"/></g><g id="g3710" transform="translate(1165.8 1500.6)"><path id="path3712" d="m0 0c-3.282-7.557-9.75-12.029-14.446-9.989-4.697 2.04-5.844 9.819-2.562 17.376 3.282 7.556 9.749 12.029 14.446 9.989s5.844-9.819 2.562-17.376" fill="#fff"/></g><g id="g3714" transform="translate(1153 1542)"><path id="path3716" d="m0 0c-8.14-23.817-26.322-39.165-40.61-34.281-14.289 4.883-19.274 28.149-11.134 51.965 8.139 23.817 26.321 39.165 40.61 34.282 14.289-4.884 19.274-28.15 11.134-51.966" fill="#fff"/></g></g></g><g id="g3718"><g id="g3720" clip-path="url(#clipPath3722)"><g id="g3726" transform="translate(1127.4 1457.4)"><path id="path3728" d="m0 0c3.88 1.776 7.702 3.646 11.331 5.853 0.928 0.515 1.813 1.102 2.705 1.675 0.886 0.579 1.797 1.135 2.659 1.73 1.765 1.216 3.469 2.433 5.133 3.743 6.682 5.181 12.688 11.166 17.895 17.748 5.193 6.595 9.601 13.767 13.174 21.316 3.596 7.539 6.356 15.45 8.405 23.519 2.054 8.072 3.335 16.323 4.008 24.607 0.683 8.284 0.727 16.615 0.184 24.901-0.549 8.287-1.637 16.532-3.233 24.672-0.799 4.071-1.726 8.115-2.773 12.126-0.525 2.006-1.081 4.002-1.66 5.992-0.572 1.992-1.242 3.954-1.763 5.96v0.002l5.242-4.27-8.844 0.683-8.861 0.559-8.876 0.445-8.886 0.342-8.894 0.247-8.901 0.154c-5.936 0.062-11.874 0.091-17.815 0.06-5.94-0.037-11.881-0.105-17.823-0.236-5.942-0.125-11.884-0.283-17.825-0.506-5.941-0.201-11.882-0.467-17.821-0.759-5.939-0.289-11.876-0.635-17.811-1.001-5.935-0.376-11.867-0.795-17.798-1.241-5.928-0.464-11.855-0.951-17.776-1.486-11.843-1.072-23.67-2.304-35.467-3.724-5.898-0.708-11.788-1.47-17.668-2.281-5.881-0.809-11.747-1.689-17.603-2.609-5.848-0.953-11.69-1.933-17.497-3.033-5.818-1.064-11.584-2.288-17.328-3.558l-2.663 11.701c5.921 1.31 11.844 2.565 17.779 3.651 5.932 1.123 11.873 2.121 17.817 3.089 5.946 0.934 11.895 1.826 17.85 2.646 5.956 0.821 11.915 1.592 17.878 2.308 11.927 1.435 23.868 2.679 35.822 3.761 5.977 0.541 11.958 1.032 17.94 1.5 5.984 0.45 11.969 0.873 17.957 1.252 5.989 0.37 11.98 0.718 17.974 1.01 5.993 0.295 11.989 0.564 17.988 0.766 5.997 0.226 11.999 0.385 18.001 0.512 6.003 0.132 12.008 0.201 18.015 0.238 6.007 0.031 12.016 0.002 18.026-0.061l9.017-0.156 9.02-0.25 9.021-0.347 9.023-0.453 9.024-0.569 9.024-0.697 4.1-0.317 1.142-3.953 0.001-0.002c0.679-2.082 1.168-4.219 1.692-6.344 0.505-2.131 0.984-4.266 1.431-6.409 0.889-4.286 1.649-8.598 2.273-12.928 1.25-8.66 1.957-17.398 2.03-26.141 0.084-8.742-0.451-17.489-1.653-26.141-1.22-8.648-3.114-17.202-5.781-25.507-2.666-8.301-6.06-16.37-10.285-23.975-4.201-7.614-9.232-14.756-14.999-21.211-5.789-6.433-12.295-12.202-19.439-16.988-1.771-1.212-3.618-2.352-5.44-3.435-0.93-0.554-1.875-1.047-2.81-1.572-0.938-0.518-1.868-1.048-2.837-1.505-3.799-1.975-7.765-3.596-11.744-5.104"/></g><g id="g3730" transform="translate(1167.7 1758.9)"><path id="path3732" d="m0 0c1.686-2.813 2.65-6.137 3.105-9.496 0.443-3.378 0.37-6.855-0.194-10.312-0.586-3.449-1.659-6.892-3.327-10.146-0.835-1.624-1.838-3.187-2.963-4.68-1.16-1.467-2.427-2.88-3.864-4.137-2.848-2.544-6.249-4.52-9.832-5.931-1.802-0.663-3.645-1.248-5.517-1.587l-2.55-0.33-2.372-0.328-18.976-2.623-18.975-2.622c-6.332-0.854-12.637-1.787-18.944-2.714l-37.848-5.546-75.743-11.184-75.777-11.298-11.957-1.782 5.805 10.598 28.117 51.334 10.524-5.765-28.116-51.333-6.153 8.816 75.794 11.299 75.859 11.201 37.965 5.562c6.328 0.93 12.656 1.865 18.98 2.718l18.975 2.623 18.975 2.622 2.372 0.328 0.593 0.082 0.4 0.054 0.24 0.042 0.959 0.154c0.653 0.046 1.271 0.168 1.916 0.236 0.631 0.103 1.253 0.238 1.878 0.372 2.461 0.622 4.821 1.629 6.94 3.106 1.085 0.706 2.074 1.566 3.073 2.447 0.941 0.94 1.917 1.892 2.759 2.99 0.878 1.069 1.689 2.22 2.437 3.439 0.767 1.21 1.444 2.498 2.041 3.838 0.64 1.327 1.164 2.721 1.627 4.15 0.494 1.425 0.856 2.899 1.167 4.401 0.624 3.015 0.896 6.133 0.613 9.402"/></g><g id="g3734" transform="translate(632.84 1579.4)"><path id="path3736" d="m0 0 91.5-102.15s38.722-103.69 67.361-152.52c-56.36 5.17-202.7 110.98-158.86 254.67" fill="#77379f"/></g><g id="g3738" transform="translate(772.68 1673.2)"><path id="path3740" d="m0 0-54-152c0.667-98.667 87.333-183.33 92.667-266l75.998-133.42" stroke="#cc96e5" stroke-miterlimit="10" stroke-width="15" fill="#f8c5ff"/></g><g id="g3742" transform="translate(721.26 1396.9)"><path id="path3744" d="m0 0-49.966 114.14c14.835 113.93 101.06 299.59 101.06 299.59l318.78 207.72c-54.78 108.59-144.78 131.59-318.78 79.59-127.09-37.98-220.98-103.3-272.55-195.13l-0.005 0.011c-0.014-0.03-0.028-0.062-0.042-0.093-19.01-33.876-32.271-71.353-39.303-112.4-26.104-152.38-49.498-327.38 59.397-499.88 71.02-112.5 155.34-219.04 176.07-283.19-36.706 5.878-61.253 38.027-79.241 70.69-20-30-10-74 5.333-96-40-120 78.334-172 132.33-160 54 12 202 58 159.08 257.92-28.83 134.36-110.02 231.82-192.16 317.06l0.003-0.008" fill="#77379f"/></g><g id="g3746" transform="translate(614.18 960.59)"><path id="path3748" d="m0 0c55.169-102.68 246.17-158.68 299.25 119.24l-33.939 101.53s-11.419-192.12-87.78-217.45c-76.36-25.331-171.45 20.653-171.45 20.653l-6.08-23.973z" fill="#aaf8e1"/></g><g id="g3750" transform="translate(620.03 975.58)"><path id="path3752" d="m0 0c63.312-82.668 299.6-93.465 258.45 207.93 0 0-35.803 92.157-133.11 180.51 37.966-67.109 123.48-257.77 19.473-339.44 0 0-95.84-60.673-148.17 53.327 0 0-22.457-34.664 3.355-102.33" fill="#9241c3"/></g><g id="g3754" transform="translate(460.45 1790.3)"><path id="path3756" d="m0 0c4.896-163.72 56.133-301.8 157.06-401.14 100.93-99.337 175.43-188.27 202.13-260.25 0 0-12.795-66.575-32.818-84.613 0 0-119.29 213.3-186.44 272.63-67.157 59.31-185.83 259.75-139.93 473.37" fill="#9241c3"/></g><g id="g3758" transform="translate(443.31 1671.3)"><path id="path3760" d="m0 0c4.7-85.337 32.143-205.42 99.033-309.74 94-146.6 217-214.6 205-346.6 0 0 41.723 19.937 44.361 40.469-37.028 165.86-131.03 212.53-203.36 293.53-45.212 50.64-149.15 205.91-133.42 414.48l-11.61-92.14z" fill="#aaf8e1"/></g><g id="g3762" transform="translate(940.34 1954.3)"><path id="path3764" d="m0 0s37.329 11.161 60 8.325c21 59.33 43.955 106.94-18.773 154.38 0 0-77.455 18.535-161.21-6.12l97.48-53.17 22.5-103.41z" fill="#9241c3"/></g><g id="g3766" transform="translate(904.28 1937.4)"><path id="path3768" d="m0 0c17.729 67.157 11.729 217.16-296.23 82.116 0 0 187.06 121.75 300.63 79.041 78-29.333 34.547-144.32 34.547-144.32l-38.947-16.84z" fill="#aaf8e1"/></g><g id="g3770" transform="translate(1091.1 2018.3)"><path id="path3772" d="m0 0c-54.779 108.59-144.78 131.59-318.78 79.593-174-52-285.79-155.24-311.9-307.62-26.104-152.38-49.497-327.38 59.398-499.88 71.502-113.27 156.5-220.5 176.5-284.5" stroke="#643085" stroke-miterlimit="10" stroke-width="15" fill="none"/></g><g id="g3774" transform="translate(499.79 1902.8)"><path id="path3776" d="m0 0c-22.03-47.619-29.599-158.42 34.151-285.99 79.4-158.89 324.51-280.92 379.48-536.97 42.919-199.91-104.08-249.25-159.08-257.91-55-8.667-172.33 40-132.33 160-15.333 22-25.333 66-5.333 96 25.333-46 63.667-91 130.67-63 67 28 122.83 146.91-26.087 381.95" stroke="#643085" stroke-miterlimit="10" stroke-width="15" fill="none"/></g><g id="g3778" transform="translate(819.18 1866.7)"><path id="path3780" d="m0 0c-29.836 46.526-91.836 70.526-163.84 44.526-72-26-148.71-179.49-9.022-338.08" stroke="#643085" stroke-miterlimit="10" stroke-width="10" fill="none"/></g><g id="g3782" transform="translate(1005.4 1962.2)"><path id="path3784" d="m0 0c47.948 37.225 148.45 107.62 257.95 93.673 109.5-13.948 176.5-94.448 145.5-173.45-41-22-167-55.5-267.5-8l-135.95 87.777z" fill="#77379f"/></g><g id="g3786" transform="translate(1357.4 1864)"><path id="path3788" d="m0 0 42.696 12.43c-10.289 65.003-40.289 204-290.54 159.5l-32.72-26.025c78.47 6.53 248.47-8.97 280.56-145.9" fill="#9241c3"/></g><g id="g3790" transform="translate(1047.2 1992.3)"><path id="path3792" d="m0 0c75.865-2.415 247.15-5.16 263.88-138.29l54.887 11.777c-5.65 94.595-72.15 183.1-269.65 155.6l-49.12-29.09z" fill="#aaf8e1"/></g><g id="g3794" transform="translate(1005.4 1962.2)"><path id="path3796" d="m0 0c47.948 37.225 148.45 107.62 257.95 93.673 109.5-13.948 176.5-94.448 145.5-173.45-41-22-167-55.5-267.5-8l-135.95 87.777z" stroke="#643085" stroke-miterlimit="10" stroke-width="15" fill="none"/></g><g id="g3798" transform="translate(1013.2 1845.3)"><path id="path3800" d="m0 0c23.11 85.015 112.89 260.93 141.74 259.81 47.297-1.83 2.696-234.75-6.136-273.55-1.291-5.674-7.158-15.842-45.659-15.43" fill="#f8c5ff"/></g><g id="g3802" transform="translate(1013.2 1845.3)"><path id="path3804" d="m0 0s0.087 0.62 0.256 1.822c0.166 1.204 0.448 2.985 0.846 5.302 0.819 4.627 2.134 11.408 4.27 19.923 1.039 4.267 2.329 8.949 3.763 14.041 1.493 5.071 3.117 10.558 5.033 16.356 3.762 11.625 8.714 24.471 14.339 38.39 1.421 3.475 2.871 7.023 4.349 10.638 1.603 3.559 3.307 7.152 5.02 10.816 3.446 7.318 7.083 14.849 10.913 22.547 7.664 15.395 16.072 31.474 25.342 47.84 4.639 8.18 9.494 16.433 14.639 24.681 5.153 8.246 10.566 16.499 16.507 24.614 2.976 4.056 6.081 8.077 9.446 12.019 3.386 3.936 6.947 7.812 11.344 11.454 2.226 1.809 4.634 3.592 7.855 5.088 1.627 0.727 3.47 1.412 5.813 1.679l0.882 0.081 0.938 0.017 0.47-0.003 0.53-0.035 0.464-0.036c0.179-0.017 0.255-0.015 0.518-0.046l0.85-0.117 0.847-0.138c0.28-0.049 0.49-0.108 0.739-0.165 1.911-0.442 3.793-1.174 5.47-2.142 1.679-0.964 3.161-2.126 4.446-3.362 1.295-1.238 2.378-2.555 3.318-3.884 0.954-1.331 1.757-2.679 2.462-4.026 1.423-2.696 2.476-5.384 3.345-8.045 0.87-2.663 1.555-5.304 2.129-7.928 1.14-5.246 1.848-10.424 2.362-15.561 1-10.268 1.206-20.37 1.1-30.339-0.257-19.93-1.791-39.324-3.695-58.011-1.931-18.684-4.308-36.649-6.82-53.635-2.481-16.99-5.045-33.011-7.53-47.784-2.51-14.773-5.167-28.24-7.894-40.165-0.349-1.494-0.692-2.964-1.03-4.409-0.175-0.726-0.348-1.446-0.519-2.159-0.157-0.626-0.377-1.636-0.804-2.842-0.777-2.124-1.924-4.151-3.311-5.739-1.364-1.618-2.895-2.867-4.406-3.85-3.051-1.944-6.022-2.915-8.753-3.545-2.737-0.628-5.268-0.936-7.631-1.127-4.718-0.35-8.787-0.197-12.291 0.078-3.503 0.296-6.43 0.72-8.793 1.097-2.361 0.425-4.154 0.773-5.359 1.031-1.203 0.271-1.824 0.411-1.824 0.411s0.621 0.137 1.825 0.403c1.202 0.234 2.982 0.621 5.279 1.146 2.294 0.524 5.111 1.16 8.341 2.031 3.224 0.859 6.881 1.953 10.664 3.458 1.876 0.772 3.777 1.667 5.54 2.726 1.758 1.056 3.376 2.281 4.519 3.49 0.578 0.596 1.019 1.185 1.345 1.707 0.301 0.55 0.533 0.985 0.663 1.541 0.04 0.13 0.138 0.515 0.292 1.295 0.141 0.692 0.283 1.391 0.426 2.095 0.279 1.42 0.562 2.863 0.85 4.33 2.243 11.831 4.774 25.178 7.535 39.739 2.76 14.582 5.496 30.432 8.028 47.24 2.487 16.814 4.836 34.579 6.737 52.974 1.875 18.387 3.371 37.434 3.617 56.647 0.105 9.595-0.106 19.245-1.028 28.69-0.47 4.713-1.119 9.379-2.09 13.838-0.976 4.427-2.272 8.751-4.084 12.17-0.446 0.855-0.921 1.645-1.419 2.331-0.491 0.7-1 1.307-1.506 1.781-1.027 0.979-1.919 1.475-2.912 1.696-0.055 0.012-0.142 0.044-0.169 0.044-0.024 0-0.048 0.003-0.072 0.009-0.023 0.006-0.046 0.016-0.069 0.03-0.044 0.013-0.279 0.024-0.409 0.036l-0.464 0.036c0.056-0.001-0.452 0.03 0.066 0.001l0.005-0.008s0.008 0.002 0.007 0.007c-0.014-0.008-0.029-0.011-0.044-0.01-0.13 0.004-0.662-0.139-1.289-0.43-1.29-0.582-2.951-1.705-4.548-3.029-3.241-2.67-6.431-6.069-9.455-9.602-3.034-3.553-5.94-7.309-8.751-11.142-5.622-7.676-10.868-15.666-15.878-23.685-5.01-8.04-9.766-16.12-14.32-24.15-9.102-16.07-17.398-31.93-24.96-47.13-3.781-7.59-7.372-15.03-10.774-22.25-1.684-3.62-3.34-7.18-4.965-10.67-1.718-3.455-3.404-6.842-5.056-10.159-6.524-13.314-12.158-25.676-17.346-36.566-5.157-10.904-9.574-20.463-13.147-28.381-3.547-7.926-6.306-14.195-8.124-18.505-1.831-4.317-2.808-6.619-2.808-6.619" fill="#cc96e5"/></g><g id="g3806" transform="translate(1047.5 1951.6)"><path id="path3808" d="m0 0c23.131-41.572 63.605-100.89 113.84-47.13" stroke="#cc96e5" stroke-miterlimit="10" stroke-width="8" fill="none"/></g><g id="g3810" transform="translate(1080.7 2005.3)"><path id="path3812" d="m0 0c8.34-37.387 32.817-93.44 89.748-44.981" stroke="#cc96e5" stroke-miterlimit="10" stroke-width="8" fill="none"/></g><g id="g3814" transform="translate(1109.9 2056.2)"><path id="path3816" d="m0 0c8.718-24.02 29.927-65.257 65.891-36.521" stroke="#cc96e5" stroke-miterlimit="10" stroke-width="8" fill="none"/></g><g id="g3818" transform="translate(772.34 1801.4)"><path id="path3820" d="m0 0c33.5 40.5 86.667 13.167 101.33-18.167 14.67-31.333 3.67-74-20.997-93.333 124.67 5.33 254.67 57.5 295.67 130.5-40 193-250.5 191.5-376-19" fill="#77379f"/></g><g id="g3822" transform="translate(913.65 1942.3)"><path id="path3824" d="m0 0c98.233-23.548 159.6-80.51 184.09-170.89l-42.39-28.49-168 182.49 26.3 16.89z" fill="#9241c3"/></g><g id="g3826" transform="translate(843.93 1892.7)"><path id="path3828" d="m0 0c70.604-34.368 122.48-87.254 132.05-181.99l83.701 31.987c-4.33 65.914-65.3 163.42-175.48 183.34l-40.27-33.34z" fill="#aaf8e1"/></g><g id="g3830" transform="translate(772.34 1801.4)"><path id="path3832" d="m0 0c33.5 40.5 86.667 13.167 101.33-18.167 14.67-31.333 3.67-74-20.997-93.333 124.67 5.33 254.67 57.5 295.67 130.5-40 193-250.5 191.5-376-19z" stroke="#643085" stroke-miterlimit="10" stroke-width="15" fill="none"/></g><g id="g3834" transform="translate(801.34 1763.9)"><path id="path3836" d="m0 0c-39 81-115 126-142 135.88-16.73 6.122-21.473 3.895-33-16.381-56-98.5-26-351.5 135-420.5" fill="#f8c5ff"/></g><g id="g3838" transform="translate(801.34 1763.9)"><path id="path3840" d="m0 0s-1.66 2.345-4.637 6.81c-3.116 4.347-7.492 10.773-13.619 18.513-6.078 7.757-13.769 16.846-23.036 26.761-4.62 4.967-9.664 10.126-15.199 15.325-1.398 1.286-2.786 2.613-4.238 3.909-1.461 1.288-2.95 2.575-4.329 4.012-2.909 2.718-5.901 5.481-9.038 8.214-12.522 10.944-26.988 21.877-43.277 31.657-4.077 2.423-8.257 4.787-12.544 7.008-4.28 2.213-8.695 4.308-13.093 6.024l-1.538 0.593-1.822 0.636-0.913 0.319c-0.313 0.112-0.53 0.163-0.8 0.248l-1.543 0.471c-2.071 0.56-4.036 0.907-5.353 0.846-1.326-0.08-1.99-0.32-3.179-1.149-0.291-0.265-0.585-0.42-0.903-0.742-0.318-0.326-0.641-0.646-0.972-0.962-0.659-0.803-1.345-1.517-2.016-2.49-0.336-0.466-0.679-0.903-1.015-1.392l-1.004-1.514c-0.678-0.979-1.324-2.11-1.989-3.17-0.664-1.065-1.303-2.225-1.959-3.336l-0.416-0.712-0.482-0.89-0.965-1.782-0.967-1.785c-0.311-0.587-0.558-1.129-0.841-1.696-0.55-1.127-1.101-2.255-1.652-3.385-1.052-2.372-2.153-4.727-3.103-7.176-3.983-9.699-7.027-20.016-9.512-30.571-4.85-21.171-7.143-43.413-7.454-65.681-0.338-22.28 1.307-44.624 4.606-66.348 3.292-21.728 8.24-42.848 14.593-62.756 3.175-9.955 6.701-19.607 10.532-28.888 0.986-2.307 1.907-4.63 2.93-6.889 1.02-2.262 2.053-4.501 3.028-6.75 1.008-2.235 2.009-4.455 3.005-6.662 1.046-2.182 2.085-4.351 3.117-6.505 4.225-8.568 8.745-16.695 13.45-24.347 4.732-7.631 9.498-14.901 14.523-21.549 4.985-6.674 9.972-12.927 15.001-18.638 5.085-5.648 9.975-10.993 14.953-15.627 2.42-2.396 4.907-4.552 7.245-6.719 2.398-2.092 4.745-4.077 7.019-5.965 2.319-1.825 4.498-3.657 6.675-5.277 2.188-1.602 4.248-3.184 6.262-4.601 8.01-5.754 14.745-9.683 19.318-12.418 2.337-1.264 4.118-2.275 5.323-2.949 1.206-0.676 1.828-1.025 1.828-1.025s-0.672 0.236-1.974 0.694-3.242 1.129-5.758 2.059c-4.939 2.04-12.324 4.885-21.171 9.705-2.241 1.154-4.501 2.54-6.933 3.907-2.415 1.393-4.853 2.992-7.451 4.59-2.529 1.692-5.149 3.481-7.84 5.381-1.324 0.98-2.672 1.977-4.044 2.991-0.683 0.512-1.386 1.012-2.07 1.546-0.676 0.544-1.356 1.094-2.043 1.647-1.373 1.111-2.768 2.24-4.184 3.386-1.378 1.192-2.778 2.401-4.198 3.629-1.438 1.212-2.833 2.506-4.248 3.822-1.399 1.33-2.867 2.634-4.263 4.042-5.697 5.531-11.347 11.694-16.926 18.391-11.135 13.422-21.651 29.202-31.239 46.707-1.17 2.204-2.349 4.422-3.535 6.655-1.134 2.259-2.275 4.533-3.423 6.821-2.201 4.621-4.219 9.394-6.24 14.219-3.993 9.673-7.66 19.715-10.959 30.057-6.6 20.683-11.724 42.565-15.134 65.071-3.416 22.505-5.123 45.642-4.774 68.811 0.329 23.161 2.696 46.382 7.838 68.84 2.639 11.211 5.887 22.249 10.231 32.843 1.037 2.662 2.244 5.263 3.405 7.868 0.615 1.31 1.285 2.633 1.927 3.944 0.324 0.647 0.65 1.335 0.973 1.945l0.967 1.785 0.965 1.782 0.482 0.89 0.597 1.037c0.714 1.211 1.374 2.407 2.128 3.622 0.761 1.215 1.446 2.412 2.284 3.637l1.212 1.824c0.42 0.61 0.893 1.229 1.338 1.84 0.85 1.217 1.964 2.469 3.015 3.689l1.849 1.837c0.625 0.606 1.435 1.194 2.158 1.772 1.546 1.135 3.364 2.183 5.377 2.89 1.985 0.72 4.107 1.086 6.051 1.156 3.923 0.126 7.113-0.624 10.036-1.39l2.168-0.661c0.346-0.109 0.753-0.226 1.048-0.331l0.913-0.319 1.822-0.636 2.057-0.785c5.154-2.016 9.909-4.288 14.53-6.673 4.611-2.388 9.049-4.898 13.365-7.464 17.207-10.334 32.314-21.762 45.452-33.24 3.288-2.865 6.427-5.762 9.477-8.613 3.074-2.83 5.748-5.931 8.435-8.86 5.278-5.951 10.216-11.648 14.446-17.334 8.652-11.214 14.872-21.93 19.564-30.876 4.698-8.917 7.64-16.32 9.594-21.335 1.805-5.054 2.696-7.785 2.696-7.785" fill="#cc96e5"/></g><g id="g3842" transform="translate(661.34 1769.4)"><path id="path3844" d="m0 0s0.174-0.803 0.499-2.309c0.153-0.753 0.341-1.682 0.562-2.775 0.246-1.078 0.53-2.317 0.848-3.704 0.3-1.379 0.659-2.905 1.077-4.565 0.412-1.657 0.813-3.45 1.342-5.35 0.507-1.902 0.992-3.928 1.615-6.044 0.29-1.06 0.587-2.148 0.891-3.261 0.325-1.108 0.657-2.241 0.997-3.399 1.317-4.632 2.889-9.609 4.552-14.856 1.705-5.239 3.538-10.743 5.542-16.398 0.999-2.828 2.027-5.697 3.086-8.594 0.516-1.453 1.071-2.902 1.633-4.357 0.544-1.461 1.091-2.928 1.64-4.402 1.15-2.927 2.309-5.877 3.472-8.839 0.588-1.477 1.178-2.957 1.768-4.439l1.847-4.416c1.189-2.963 2.478-5.881 3.72-8.808 1.33-2.883 2.515-5.824 3.855-8.66 1.297-2.859 2.618-5.676 3.924-8.461 1.29-2.794 2.693-5.482 3.969-8.188 1.358-2.654 2.665-5.291 4.014-7.824 0.668-1.273 1.328-2.533 1.98-3.777 0.679-1.228 1.35-2.441 2.011-3.638 2.629-4.805 5.277-9.248 7.796-13.316 2.553-4.037 4.97-7.713 7.265-10.862 1.136-1.585 2.207-3.076 3.263-4.393 1.052-1.323 1.973-2.603 2.905-3.653 0.915-1.072 1.732-2.041 2.434-2.902 0.749-0.811 1.387-1.501 1.904-2.061 1.036-1.14 1.589-1.75 1.589-1.75s-0.714 0.405-2.054 1.164c-0.668 0.395-1.491 0.882-2.459 1.454-0.935 0.617-1.999 1.348-3.192 2.18-1.228 0.796-2.432 1.842-3.822 2.917-1.41 1.06-2.79 2.344-4.309 3.69-3.028 2.703-6.215 5.983-9.553 9.695-1.647 1.869-3.295 3.873-5.003 5.951-1.637 2.12-3.374 4.3-5.018 6.623-0.827 1.162-1.666 2.339-2.515 3.53-0.812 1.215-1.634 2.444-2.465 3.686-0.415 0.623-0.833 1.248-1.253 1.877-0.398 0.641-0.798 1.285-1.2 1.932-0.801 1.298-1.61 2.607-2.425 3.928-1.579 2.667-3.176 5.392-4.686 8.199-0.761 1.402-1.526 2.813-2.295 4.23-0.725 1.439-1.454 2.885-2.186 4.336-1.479 2.899-2.869 5.862-4.247 8.849-1.318 3.01-2.697 6.01-3.947 9.062-2.526 6.095-4.834 12.275-6.933 18.415-1.025 3.079-2.044 6.132-2.932 9.187-0.453 1.524-0.904 3.039-1.351 4.543-0.44 1.505-0.813 3.021-1.217 4.511-1.616 5.964-2.9 11.808-4 17.364-1.044 5.575-1.9 10.864-2.457 15.786-0.294 2.456-0.544 4.814-0.704 7.067-0.191 2.245-0.321 4.383-0.393 6.393-0.099 2.006-0.14 3.889-0.129 5.63-0.015 1.736-0.014 3.333 0.066 4.786 0.055 1.446 0.101 2.733 0.183 3.846 0.1 1.11 0.184 2.054 0.253 2.82 0.159 1.523 0.243 2.34 0.243 2.34" fill="#cc96e5"/></g></g></g></g></svg>