<?xml version="1.0" encoding="UTF-8"?><svg xmlns="http://www.w3.org/2000/svg" version="1.1" viewBox="0 0 6321.4902 6321.4873" width="6321.4902" height="6321.4873"><defs id="defs4"><clipPath id="clipPath4122" clipPathUnits="userSpaceOnUse"><path id="path4124" opacity=".5" style="color:#000000" d="m3321.3 1647.3c58.196 234.08-38.46 462.26-215.89 509.64-177.43 47.39-368.44-103.95-426.63-338.03-58.196-234.08 38.46-462.26 215.89-509.64 177.43-47.39 368.44 103.95 426.63 338.03z" stroke="#f00" stroke-width=".94440px" fill="#0f0"/></clipPath><clipPath id="clipPath4126" clipPathUnits="userSpaceOnUse"><path id="path4128" opacity=".5" style="color:#000000" d="m3261.8 1603c120.1 208.44 81.612 448.01-85.971 535.09-167.58 87.076-400.8-11.312-520.9-219.76-120.1-208.44-81.612-448.01 85.971-535.09 167.58-87.076 400.8 11.312 520.9 219.76z" stroke="#f00" stroke-width=".95606px" fill="#0f0"/></clipPath><linearGradient id="linearGradient4142" y2="1475.7" gradientUnits="userSpaceOnUse" x2="3120.5" y1="1890.9" x1="3194.8"><stop id="stop4138" stop-color="#edea8c" offset="0"/><stop id="stop4140" stop-color="#8e6c4a" offset="1"/></linearGradient></defs><g transform="translate(1130.7 -37.964)" stroke="#2a2c2c" stroke-width="49" fill="#434343"><path id="path3767" d="m3201 4041.2c134.07 1009.7 295.73 1558.8 499.59 1946 68.72 130.54 30.644 191.56-51.459 197.02-185.79 12.36-416.9 14.378-640.76-16.298-52.744-7.2275-92.253-84.117-110.36-134.79-225.7-631.7-150.7-1096.7-217.3-1814.1"/><path id="path3791" d="m2354.8 4332.6c-390.83 424.94-422.58 1268.9-301.16 1686.9 29.357 101.06 25.82 160.12-62.259 165.62-170.58 10.643-305.32 12.753-479.65 3.1948-58.567-3.2111-94.868-44.46-105.01-133.12-77.537-678.05 150.48-1355.2 448.91-1975"/></g><g transform="translate(1130.7 -37.964)"><path id="path3777-0" d="m2706.6 3560.9c158.71 375.07-244.35 673.87-603.51 550.02-419.43-144.63-563.27-704.49-555.09-1042.6 3.687-152.32 159.88-249.42 390.39-176.6 299.34 94.562 652.49 395.67 768.2 669.13z" stroke="#2a2c2c" stroke-width="49" fill="#434343"/></g><g transform="translate(1130.7 -37.964)"><path id="path3770-1" fill="#abd8d7" d="m1184.5 3375c-446.28 173.2-674.5 547.4-692 879.5-251.85-95.9-334.55-435.4-462-710.5 46.87-132.4 150.59-274.4 223.65-370.6-118.46 76.4-177.39 130.8-267.62 249-30.824-63.8-59.172-131.1-76.434-202.2 528.33-642.3 1202.4-347.1 1427.2-116.5z"/><path id="path3772" fill="#80adac" d="m352 4177.4 31 1.25c3.38-85.809 29.475-222.76 48.963-282.38-42.85 54.6-76.43 191.6-79.96 281.2z"/><path id="path3774" fill="#80adac" d="m283.54 4094.5 31 0.3124c1.143-122.78 58.998-325.88 107.79-416.1-75.896 73.786-137.59 286.86-138.79 415.79z"/><path id="path3802" fill="#dcf1ef" d="m1182.8 2978.7c-462.56 123.4-843.38 367.8-946.78 1022.8-56.16-97.4-108.42-206.5-157.35-325.6 125.08-287.1 303.59-657.4 792.16-827.4 103.99 15.567 207.99 72.143 311.98 130.22z"/><path id="path3770" d="m1184.5 3375c-446.28 173.2-674.5 547.4-692 879.5-251.85-95.9-334.55-435.4-462-710.5 46.87-132.4 150.59-274.4 223.65-370.6-118.46 76.4-177.39 130.8-267.62 249-30.824-63.8-59.172-131.1-76.434-202.2 528.33-642.3 1202.4-347.1 1427.2-116.5z" stroke="#80adac" stroke-miterlimit="9" stroke-width="49" fill="none"/></g><g transform="translate(1130.7 -37.964)"><path id="path3793-9" fill="#abd8d7" d="m2297.8 2854.3c-178.4-109.2-420.9-318.1-526.8-623.8l129.92-95.282-156.42 30.282-30-133c58.569-26.809 125.15-44.275 191.5-62-83.221-29.827-166.95-42.446-251.5-27-6.2298-87.274-58.891-190.35-49-270.5 28.808-233.44 47.331-464.47 101.5-698.5-79.374-4.8531-151.2 8.7066-220 23 92.369-91.433 209.52-171.77 331.5-251.5-139.63 2.8111-292.13 32.855-421.76 70.755 239.5-235.57 554.94-448.39 917.76-578.25 87.673 43.233 246.75 162.62 319.4 225.89-39.1-60.34-151.8-195.1-199.4-252.4 315.3-108.12 673.3-176.97 1032.5-139 41.596 97.555 70.345 197.68 99.5 297.72 24.369-88.075 41.311-176.15 55.5-264.22 63.61-13.974 128.06-8.6439 193 8-3.7958 286.51-52.66 866.06-245.34 1238.3-309.6-293.5-720-511.47-1255.2-206.3z"/><path id="path3795" fill="#80adac" d="m1825.4 2352.5 18.25 25.062c28.087-24.62 88.912-65.168 141.56-80.035-70.118-8.1528-130.81 32.378-159.81 54.973z"/><path id="path3797" fill="#80adac" d="m2714.1 121.5-25.25 18c46.001 64.484 101.36 138.83 132.63 211.54-3.2-78.84-59.9-163.19-107.3-229.54z"/><path id="path3801" fill="#80adac" d="m3718.9 98.938-30.875 3.125c5.1518 51.209-0.2563 106.11-12.95 156.78 39.1-37.574 49.505-103.44 43.825-159.9z"/><path id="path3893" fill="#dcf1ef" d="m2204.2 2297.8c-105.61 29.655-235.67 117.89-302.48 188.54l198.04 229.24c42.825-47.422 98.304-85.401 157.35-120.72z"/><path id="path3895" fill="#dcf1ef" d="m1953.3 1494.8c-109.42-2.8362-218.84-0.807-328.26 21.703l78.673-542.57-208.89 21.703c84.764-93.522 200.29-176.79 330.97-255.01-134.74 13.853-269.48 28.893-404.22 67.821 177.08-214.05 449.75-357.67 721.62-501.88 218.19 189.67 438.47 404.1 562.03 701.83-139.36 15.718-255.1 66.873-363.99 128.3z"/><path id="path3897" fill="#dcf1ef" d="m2902.8 94.95c130.8 260.88 281.51 637.04 322.83 1006.5 111.23 68.316 222.45 150.58 333.68 249.58-70.6-397.99-204.8-871.17-390.7-1285.9z"/><path id="path3799" fill="#80adac" d="m3008.1 78.094-23.781 19.875c39.102 46.784 87.495 109.97 115.72 161.14 4.2497-60.095-50.866-131.87-91.941-181.01z"/><path id="path3793" d="m2297.8 2854.3c-178.4-109.2-420.9-318.1-526.8-623.8l129.92-95.282-156.42 30.282-30-133c58.569-26.809 125.15-44.275 191.5-62-83.221-29.827-166.95-42.446-251.5-27-6.2298-87.274-58.891-190.35-49-270.5 28.808-233.44 47.331-464.47 101.5-698.5-79.374-4.8531-151.2 8.7066-220 23 92.369-91.433 209.52-171.77 331.5-251.5-139.63 2.8111-292.13 32.855-421.76 70.755 239.5-235.62 555-448.43 917.8-578.3 87.673 43.233 246.75 162.62 319.4 225.89-39.1-60.33-151.8-195.09-199.4-252.39 315.3-108.12 673.3-176.97 1032.5-139 41.596 97.555 70.345 197.68 99.5 297.72 24.369-88.075 41.311-176.15 55.5-264.22 63.61-13.974 128.06-8.6439 193 8-3.7958 286.51-52.66 866.06-245.34 1238.3-309.6-293.5-720-511.47-1255.2-206.3" stroke="#80adac" stroke-miterlimit="9" stroke-width="49" fill="none"/></g><g transform="translate(1130.7 -37.964)"><path id="path3931-2" fill="#555" d="m1902.9 4340c-219.19 386.25-398.44 1212-184.43 1832.6 38.718 112.27-7.3653 147.15-109.34 152.74-193.78 10.632-434.24 11.459-619.01-3.66-66.697-5.4577-88.941-55.09-85.736-146.37 19.636-559.35 93.774-1053.7 233.12-1538 21.571-74.973 65.542-88.682 143.87-70.784 26.889 6.1441 54.771 9.6767 82.157-28.132"/><path id="path3929-4" fill="#555" d="m2770 4050.4c57.767 878.05 130.34 1365.1 434.09 2131.4 28.523 71.96-15.348 132.48-65.119 136.87-216.31 19.078-507.38 22.154-741.66 5.4258-59.109-4.2205-79.173-71.844-86.322-133.36-82.752-712-87.696-1337.3 38.774-2102.7"/><path id="path3954" fill="#555" d="m2094.8 1807.9 774.98 23.019 276.23 728.95c91.168 240.42 167.5 480.85 222.52 721.27 31.503 246.28 68.202 493.15-26.856 725.11-134.45 228.18-339.76 307.54-544.79 387.49l-491.08 99.75c-135.93-20.383-271.87-62.596-407.8-147.92-81.976 123.15-136.72 264.44-175.36 416.48l-621.52 23.019c32.574-107.4 41.749-265.18 145.79-218.68 38.042-6.4839 95.097 29.813 107.42-34.529-23.274-166.42-120.1-280.34-164.97-483.41-65.219-222.92-88.688-453.67-38.366-698.25 56.893-197.69 177.48-356.77 471.9-410.51 255.6-29.076 465.6 33.061 671.4 103.59-29.525-315.09-110.36-619.91-172.64-928.45-17.57-102.31-37.303-204.62-26.856-306.92z"/><path id="path3788" fill="#2a2c2c" d="m2072 1796.5c-10.582 249.19 70.46 513.72 110.41 724.59 31.215 164.79 59.348 275.66 89.938 484.84-142.48-49.69-303.5-93.194-465.84-99.437-177.06-6.8091-356.27 31.339-509.41 154.97-120.55 97.317-176.27 257.22-193 427.78-16.726 170.56 5.4467 353.3 45.719 502.19 41.061 151.8 87.225 290.41 146.69 426.88 33.657 77.239 64.477 156.06 60.219 242.17 43.699-55.841 22.741-174.47-15.282-261.73-58.318-133.84-103.7-270-144.31-420.12-38.804-143.46-60.259-321.66-44.281-484.59s69.283-309.09 175-394.44c142.5-115.04 307.92-150.62 476.78-144.12 168.86 6.4939 340.29 55.794 489.47 110.09l38.25 13.906-5.5938-40.312c-33.163-238.6-63.293-353.37-96.219-527.19-40.777-215.26-119.66-476.43-109.59-713.41z"/><path id="path3919" d="m3133 2535.5c87.738 225 172.68 453.62 220 676.5 52.687 248.17 83.455 590.53-11.211 781.12-81.247 163.57-242.9 302.47-536.25 401.6" stroke="#2a2c2c" stroke-width="49" fill="none"/><path id="path3790" fill="#2a2c2c" d="m1555 3806.2c-2.2187 392.17 403.61 677.86 736.15 714.12l5.3125-48.688c-313.65-34.202-643.33-278.78-741.46-665.43z"/><path id="path3929" fill="#2a2c2c" d="m2746.8 4034.5c10.084 137.93 18.033 294.1 29.223 419.83 57.326 644.06 150.46 1093.5 405.28 1736.4 23.618 59.585-13.104 100.64-44.5 103.41-214.62 18.929-505.12 22.017-737.75 5.4063-20.479-1.4623-31.896-11.713-42.75-32.219s-17.61-50.361-21-79.531c-65.672-565.05-82.159-1074.3-22.781-1643 15.282-146.37 24.084-333.13 53.549-453.69-64.531 115.39-86.911 301.21-102.3 448.6-59.789 572.67-43.079 1086.3 22.875 1653.8 3.7594 32.346 10.602 67.073 26.344 96.812 15.742 29.74 43.932 55.398 82.562 58.156 235.93 16.846 527.57 13.758 745.56-5.4688 68.147-6.0103 119.15-85.947 85.719-170.28-253.45-639.42-344.91-1081.3-402-1722.7-11.144-125.21-24.816-279.1-78.036-415.48z"/><path id="path3931" d="m1902.9 4340c-219.19 386.25-398.44 1212-184.43 1832.6 38.718 112.27-7.3653 147.15-109.34 152.74-193.78 10.632-434.24 11.459-619.01-3.66-66.697-5.4577-88.941-55.09-85.736-146.37 19.636-559.35 93.774-1053.7 233.12-1538 21.571-74.973 65.542-88.682 143.87-70.784 26.889 6.1441 50.771 11.677 78.157-26.132" stroke="#2a2c2c" stroke-width="49" fill="none"/></g><g transform="translate(1130.7 -37.964)"><path id="path3965" fill="#eff097" d="m1256.1 3674.6 64.43 191.93 20.346-33.232 52.222 180.4-20.346-347.25-27.807 44.084-14.921-54.257c-21.568 15.324-45.156 24.592-73.925 18.312z"/><path id="path3977" fill="#adaaae" d="m1551.8 3576.9 33.911 90.202-175.66-35.945c-25.398-6.1116-47.621-2.6979-65.787 12.886-30.27 33.8-66.037 41.029-107.16 22.381-39.482-27.621-59.083-72.53-56.97-136.32 4.0734-42.058 17.689-82.457 63.074-117.33 29.391-21.946 56.064-21.234 80.029 2.0346 27.019 31.649 46.323 81.647 34.589 131.57 61.341-33.056 102.3-10.741 90.202 27.128 34.589-5.4682 69.178 0.3968 103.77 3.3911z"/><path id="path3957" fill="#b5b5b2" d="m1282.4 3391.6c-5.9139 0.1733-11.765 1.4007-17.406 3.4375-22.565 8.1471-42.631 28.803-60.75 51.594-21.193 26.657-29.935 63.901-28.594 101.09 1.3414 37.193 12.762 74.5 33.25 101.69 20.772 27.565 49.154 34.298 73.469 31.688 24.314-2.6104 44.636-13.386 53.813-22.562 10.867-10.867 19.939-18.299 30.25-22 10.311-3.7012 22.332-4.0202 40.125 0.5312 60.58 15.497 120.8 23.829 180.78 34.813l2-10.844c-60.292-11.042-120.23-19.329-180.03-34.625-19.101-4.8861-33.84-4.7967-46.594-0.2188-12.754 4.578-23.07 13.32-34.312 24.563-6.0985 6.0984-25.65 17.09-47.219 19.406-21.569 2.3157-45.048-2.8571-63.5-27.344-18.737-24.864-29.762-60.313-31.031-95.5-1.2691-35.187 7.2084-69.971 26.188-93.844 17.628-22.173 37.11-41.307 55.906-48.094 9.3984-3.3933 18.456-3.914 27.875-0.625 9.419 3.2889 19.4 10.58 29.688 23.656 20.46 26.004 28.598 60.752 28.687 92.188 0.09 31.436-8.445 59.619-18.094 70.781-10.271 11.881-26.649 19.159-41 19.375-14.351 0.2159-25.457-5.6972-30.562-20.5-10.601-30.739-19.278-71.946-0.75-98.344 10.008-14.259 15.025-15.413 28.456-2.0152-8.2724-20.852-24.334-22.977-37.456-4.266-20.099 28.659-12.447 76.923-0.75 107.84 7.2317 19.116 23.408 28.549 41.219 28.281 17.811-0.2681 36.664-8.6993 49.187-23.188 13.146-15.208 20.845-44.704 20.75-78s-8.5584-70.335-31.062-98.937c-11.194-14.228-22.774-23.09-34.688-27.25-5.9566-2.08-11.93-2.9546-17.844-2.7813z"/><path id="path3963" d="m1359.8 3549.1c35.78-32.324 104.11-24.74 85.455 26.45 37.528-9.9423 74.377-1.9437 111.23 2.7129" stroke="#b5b5b2" stroke-width="11" fill="none"/><path id="path3967" fill="#b5b5b2" d="m1431.2 3669.8c-2.557 0.079-4.9046 2.173-5.2736 4.7044-0.3691 2.5315 1.2829 5.2088 3.711 6.0143 17.82 6.3589 36.094 9.6723 51.813 9.4063 18.396-0.3113 45.21 0.3752 60.048 5.069-13.308-10.905-41.014-16.394-60.204-16.069-13.99 0.2368-31.229-2.8191-47.938-8.7813-0.6863-0.2566-1.4242-0.3743-2.1562-0.3437z"/><path id="path3973" d="m1402.5 3509.4c24.077 4.4437 48.153-0.4654 72.23-1.6955" stroke="#b5b5b2" stroke-linecap="round" stroke-width="11" fill="none"/><path id="path3975" d="m1383.2 3451.8c18.312-4.1733 36.624-3.8523 54.935 1.0173" stroke="#b5b5b2" stroke-linecap="round" stroke-width="11" fill="none"/></g><g transform="translate(1130.7 -37.964)"><path id="path3777-8-1" fill="#555" d="m2551 3306.5c251.12 320.63-43.391 715.42-439 688.5-442.64-30.123-727.65-533.02-808-861.5-36.203-148 24.229-258.56 265.5-243.5 404.04 25.228 798.41 182.72 981.5 416.5z"/><path id="path3777-8" d="m1526.2 2864.1c-100.11 0.1222-169.62 24.275-211.59 69.875-47.973 52.114-53.652 126.89-34.469 205.31 41.08 167.93 133.48 378.15 272.84 552.12 139.37 173.97 327.13 312.34 557.31 328 206.31 14.04 387.17-81.663 483.97-224.62 96.801-142.96 85.701-354.58-14.06-455.5 50.802 110.68 60.074 300.17-26.502 428.03s-250.79 216.1-440.09 203.22c-13.92-0.9473-27.676-2.4101-41.281-4.3125-46.119-25.177-104.56-70.342-145.12-124.38-41.67-55.511-64.256-117.84-44.812-181.75l3.1875-10.438-5.6562-9.3437c-64.964-107.53-70.516-195.92-36.688-256.56 33.829-60.642 110.76-100.3 229.22-100.28h21.375l2.9062-21.156c7.6776-55.934 37.074-87.876 81.594-105.94 43.577-17.68 149.61-21.172 203.88-7.1151-33.005-38.695-73.586-77.006-129.45-105.58-195.27-99.885-436.63-162.84-681.78-178.15-15.56-0.9716-30.48-1.455-44.781-1.4375zm0.2188 49c13.073-0.02 26.902 0.401 41.5 1.3125 243.51 15.204 483.74 79.521 673.72 178.81-28.903 1.7595-56.505 7.5205-81.719 17.75-51.924 21.066-92.849 63.547-107.69 123.94-119.52 4.4759-209.36 48.932-251.78 124.97-43.608 78.174-33.435 183.27 32.281 296.59-19.582 78.846 9.9653 154.41 55.281 214.78 17.018 22.671 36.262 43.526 56.406 62.25-138.22-51.973-256.68-152.21-353.22-272.72-133.88-167.13-224.16-372.58-263.44-533.12-17.019-69.574-10.604-124.1 22.906-160.5 29.322-31.853 84.238-53.925 175.75-54.062z" fill="#2a2c2c"/><path id="path3781-4" d="m1373 3332.5c159.83 135.17 333.67 271.95 479.5 375.5" stroke="#2a2c2c" stroke-width="31" fill="none"/><path id="path3783-5" d="m1836.5 3347.5c-174.4-108.2-349.3-217.2-531.5-338.5" stroke="#2a2c2c" stroke-width="31" fill="none"/><path id="path3785-5" d="m2088 3200c-203.7-97.422-406.07-190.87-613.5-299.5" stroke="#2a2c2c" stroke-width="31" fill="none"/></g><g transform="translate(1130.7 -37.964)"><path id="path4041" fill="#555" d="m3633.2 1151.8c-463.7-308.68-910.9-386.35-1331.3-88.2l-153.46 844.04 333.78 525.61c209.84 156.44 448.76 160.16 686.74 168.81 256.45-13.908 513.72-57.58 771.15-107.42l203.34-575.48c-117.21-77.948-210.44-194.27-291.58-329.94-65.222-149.63-101.01-313.97-218.68-437.37z"/><path id="path3809" fill="#2a2c2c" d="m3650.3 1131.2-33.062 36.188c67.151 61.372 105.6 157.09 134.94 248.88 65.641 205.38 218.93 421.17 363.43 524.91-65.083 180.09-130.73 353.05-199.71 532.84-214.14 48.555-431.8 75.601-650.62 97.906-272.19 27.745-587.26-21.202-802.8-153.93 175.79 185.7 526.21 231.39 807.8 202.68 223.84-22.816 447.78-50.617 669.25-101.75l12.719-2.9375 4.6562-12.188c72.469-189.24 142.55-372.21 211.18-563.46l6.4687-18-15.906-10.656c-134.66-90.047-296.06-310.97-359.78-510.35-30.032-93.966-69.846-198.18-148.56-270.12z"/><path id="path3811" fill="#2a2c2c" d="m4027.3 2261.4c-122.33-18.077-274.69-36.323-419.57 35.644 92.918-105 299.71-90.422 426.32-73.926z"/><path id="path3813" fill="#2a2c2c" d="m3746 1983.2c-39.398 49.409-6.8104 114.98 52.25 51.75-45.878 3.5314-57.15-6.6894-52.25-51.75z"/></g><g transform="translate(1130.7 -37.964)"><path id="path3793-9-7" fill="#abd8d7" d="m3788.6 516.22c-31.5 276.52-95.9 598.78-218.9 836.58-309.6-293.5-720-511.47-1255.2-206.3-10.4-489.4 912.8-625.72 1474.1-630.28z"/><path id="path3895-1" fill="#dcf1ef" d="m1953.3 1494.8-10.851-488.31 544.95-356.31c86.298 105.98 161.95 223.59 217.83 358.23-139.36 15.718-255.1 66.873-363.99 128.3z"/><path id="path3897-1" fill="#dcf1ef" d="m3085.2 521.59c64.896 182.76 118.28 382.26 140.38 579.83 111.23 68.316 222.45 150.58 333.68 249.58-48.366-272.89-126.68-581.13-231.05-881.63z"/><path id="path3793-5" d="m3797.1 434.48c-27.6 292.71-92 656.72-227.4 918.32-309.6-293.5-720-511.47-1255.2-206.3" stroke="#80adac" stroke-miterlimit="9" stroke-width="49" fill="none"/></g><g transform="translate(1130.7 -37.964)"><path id="path4112" clip-path="url(#clipPath4126)" fill="#fff" d="m3195.7 2197.4c234.67-180.92 189.12-416.67 94.95-661.94-209.55-214.09-440.28-251.23-686.35-160.06-74.387 207.88-73.203 412.47 18.99 613.11 190.8 242.74 381.61 200.21 572.41 208.89z"/><path id="path4110" style="color:#000000" d="m3331.4 1677.9c0 149.08-85.628 269.93-191.26 269.93s-191.26-120.85-191.26-269.93 85.628-269.93 191.26-269.93 191.26 120.85 191.26 269.93z" clip-path="url(#clipPath4122)" transform="matrix(1.0142 -.23718 .26094 .94945 -536.55 826.71)" fill="url(#linearGradient4142)"/><path id="path4130" style="color:#000000" d="m3244.6 1672.5c0 120.61-64.07 218.38-143.1 218.38-79.034 0-143.1-97.774-143.1-218.38s64.069-218.38 143.1-218.38c79.034 0 143.1 97.774 143.1 218.38z" transform="matrix(.94726 -.35520 .33775 .92320 -399.95 1230.7)"/><path id="path4132" style="color:#000000" d="m3075 1620.3c0 64.051-36.741 115.97-82.064 115.97s-82.064-51.924-82.064-115.97c0-64.051 36.741-115.97 82.064-115.97s82.064 51.924 82.064 115.97z" transform="matrix(1.0379 .081982 -.078909 .96765 31.249 -200.41)" fill="#fff"/><path id="path4134" style="color:#000000" d="m3159.1 1760c0 19.103-13.968 34.589-31.198 34.589s-31.198-15.486-31.198-34.589 13.968-34.589 31.198-34.589 31.198 15.486 31.198 34.589z" transform="matrix(.97774 .20984 -.20984 .97774 438.96 -622.61)" fill="#fff"/></g><g transform="translate(1130.7 -37.964)"><path id="path4147" d="m2878.6 1332.3c-84.917-0.1374-167.3 33.311-230.34 109.88-92.019 111.75-95.624 263.02-46.687 397.69 48.936 134.67 146.46 266.87 290.22 296.62-119.04-65.205-209.72-183.41-255.44-309.25-45.724-125.83-41.425-262.11 40.469-361.56 82.206-99.83 194.54-116.33 305.59-78.281 111.05 38.046 224.82 112.54 301.6 258.28-26.802-161.19-167.78-251.53-289.64-293.28-38.081-13.046-77.182-20.031-115.78-20.094z"/></g><g transform="translate(1130.7 -37.964)"><path id="path3804-2" fill="#555" d="m2343.5 1279.5c-0.8949-210.26 0.5543-422.64-116-598-57.67-86.764-114.12-97.309-190.5-0.5-289.8 367.3-173.9 917.7 142.5 1264"/><path id="path3804" fill="#2a2c2c" d="m2132.3 587.94c-39.919 1.7616-76.803 30.017-114.56 77.875-299.16 379.17-196.76 1005.3 181 1303.1-293.63-339.13-423.05-917.2-142.56-1272.7 36.105-45.761 63.261-60.149 81.969-59.312 18.708 0.83674 41.858 17.493 68.906 58.188 111.45 167.68 132.11 433.55 139.35 610.12 30.256-178.31 23.119-454.22-98.536-637.25-30.622-46.07-64.502-78.075-107.53-80-2.6893-0.12028-5.37-0.11744-8.0312 0z"/><path id="path3806" fill="#2a2c2c" d="m2041.5 1122c-5.6194 178.1 80.63 364.23 150.5 478.5-115.66-96.411-204.01-292.18-150.5-478.5z"/></g></svg>