<?xml version="1.0" encoding="UTF-8"?><svg xmlns="http://www.w3.org/2000/svg" xmlns:xlink="http://www.w3.org/1999/xlink" version="1.1" viewBox="0 0 6628.9332 6628.9151" width="6628.9332" height="6628.9151"><defs id="defs4"><linearGradient id="linearGradient4211"><stop style="stop-color:#b591d6;" offset="0" id="stop4213" /><stop style="stop-color:#4a009d" offset="1" id="stop4215" /></linearGradient><clipPath clipPathUnits="userSpaceOnUse" id="clipPath4251"><path style="opacity:0.5;color:#000000;fill:#00ff00;fill-rule:nonzero;stroke:#ff0000;stroke-width:1.00018156;stroke-miterlimit:4;marker:none" d="m 3412.2998,1365.9763 c -17.4973,36.7937 -39.4934,71.05 -64.3306,100.1873 -24.8373,29.1373 -52.4962,53.1328 -80.8922,70.178 -28.3962,17.0451 -57.507,27.1266 -85.1388,29.4845 -27.6316,2.3581 -53.7627,-3.0092 -76.4235,-15.6975 -22.6608,-12.6881 -41.8336,-32.6872 -56.0735,-58.4897 -14.24,-25.8027 -23.5358,-57.3887 -27.187,-92.3777 -3.6512,-34.9889 -1.6549,-73.3531 5.8385,-112.2017 7.4935,-38.8484 20.4781,-78.1504 37.9754,-114.944 l 384.207,78.9167 c -7.4934,38.8484 -20.478,78.1504 -37.9753,114.9441 z" id="path4253" /></clipPath><clipPath clipPathUnits="userSpaceOnUse" id="clipPath4255"><path style="opacity:0.5;color:#000000;fill:#00ff00;fill-rule:nonzero;stroke:#ff0000;stroke-width:1.00095713;stroke-miterlimit:4;marker:none" d="m 3553.2955,1044.7264 c -12.5811,38.4263 -29.9417,74.7391 -50.7735,106.2016 -20.8319,31.4625 -45.1185,58.0502 -71.0296,77.7592 -25.9113,19.709 -53.4265,32.5238 -80.4722,37.4787 -27.0457,4.9549 -53.6006,2.046 -77.6635,-8.5077 -24.0629,-10.5535 -45.6146,-28.7434 -63.0312,-53.1986 -17.4166,-24.4554 -30.6842,-55.1569 -38.8031,-89.7909 -8.1189,-34.634 -11.0825,-73.1731 -8.6676,-112.713 2.415,-39.53997 10.2065,-80.04952 22.7877,-118.47575 l 390.4406,42.77067 c -2.4149,39.53989 -10.2065,80.04948 -22.7876,118.47578 z" id="path4257" /></clipPath><clipPath clipPathUnits="userSpaceOnUse" id="clipPath4259"><path style="opacity:0.5;color:#000000;fill:#00ff00;fill-rule:nonzero;stroke:#ff0000;stroke-width:1.00028396;stroke-miterlimit:4;marker:none" d="m 3554.0889,681.07702 c -12.2953,39.70319 -29.3759,77.7821 -49.9548,111.36702 -20.579,33.58496 -44.64,62.64959 -70.3697,85.00343 -25.7298,22.35378 -53.1079,37.97927 -80.0712,45.69873 -26.9632,7.71953 -53.4906,7.52705 -77.5827,-0.56309 -24.092,-8.09004 -45.7298,-24.07126 -63.2828,-46.73909 -17.5529,-22.66802 -31.0072,-52.00494 -39.3488,-85.79982 -8.3416,-33.79488 -11.564,-72.02107 -9.4244,-111.79797 2.1397,-39.77683 9.6398,-81.0729 21.9351,-120.77599 l 390.0343,2.83073 c -2.1397,39.77681 -9.6398,81.0729 -21.935,120.77605 z" id="path4261" /></clipPath><clipPath clipPathUnits="userSpaceOnUse" id="clipPath4263"><path style="opacity:0.5;color:#000000;fill:#00ff00;fill-rule:nonzero;stroke:#ff0000;stroke-width:1.00005937;stroke-miterlimit:4;marker:none" d="m 3570.8495,769.60871 c -11.3344,39.40027 -27.494,77.05703 -47.2608,110.13234 -19.767,33.07534 -43.1257,61.54331 -68.3158,83.25841 -25.1902,21.71504 -52.1919,36.66022 -78.9702,43.70904 -26.7783,7.0489 -53.3122,6.1961 -77.6021,-2.4945 -24.2898,-8.69044 -46.3163,-25.2116 -64.4196,-48.31822 -18.1034,-23.1068 -32.2692,-52.78101 -41.4301,-86.78625 -9.1609,-34.00525 -13.3095,-72.31472 -12.1332,-112.04154 1.1764,-39.72675 7.6766,-80.83941 19.0111,-120.2396 l 390.1317,12.54065 c -1.1762,39.72673 -7.6766,80.83942 -19.011,120.23967 z" id="path4265" /></clipPath><clipPath clipPathUnits="userSpaceOnUse" id="clipPath4267"><path style="opacity:0.5;color:#000000;fill:#00ff00;fill-rule:nonzero;stroke:#ff0000;stroke-width:1;stroke-miterlimit:4;marker:none" d="m 3123.289,1871.7898 c -23.9619,33.4731 -51.9079,63.7542 -81.732,88.5612 -29.8242,24.807 -61.503,44.1205 -92.649,56.4849 -31.1461,12.3643 -61.7348,17.7699 -89.461,15.8092 -27.7261,-1.9606 -52.568,-11.2859 -72.6533,-27.2732 -20.0853,-15.9872 -35.3982,-38.6237 -44.7848,-66.2034 -9.3866,-27.5799 -12.8394,-60.0814 -10.0983,-95.0551 2.7411,-34.9737 11.674,-72.392 26.1255,-109.4352 14.4516,-37.0431 34.4103,-73.6818 58.3722,-107.1548 l 365.2528,137.1115 c -14.4515,37.0431 -34.4103,73.6818 -58.3721,107.1549 z" id="path4269" /></clipPath><clipPath clipPathUnits="userSpaceOnUse" id="clipPath4271"><path style="opacity:0.5;fill:#00ff00;stroke:#ff0000;stroke-width:1.00006258px;stroke-linecap:butt;stroke-linejoin:miter" d="m 2818.7138,196.85658 c -17.7025,38.00645 -59.7432,207.11552 28.0337,296.13326 69.7656,-100.11113 115.1572,-218.53954 140.9784,-339.02267 z" id="path4273" /></clipPath><clipPath clipPathUnits="userSpaceOnUse" id="clipPath4275"><path style="opacity:0.5;fill:#00ff00;stroke:#ff0000;stroke-width:1.00208449px;stroke-linecap:butt;stroke-linejoin:miter" d="m 2833.452,191.1084 c -14.7366,38.20273 -43.5884,208.09978 51.1075,297.27685 61.9482,-100.68192 98.1002,-219.69923 114.5256,-340.73417 z" id="path4277" /></clipPath><clipPath clipPathUnits="userSpaceOnUse" id="clipPath4279"><path style="opacity:0.5;fill:#00ff00;stroke:#ff0000;stroke-width:1.00002289px;stroke-linecap:butt;stroke-linejoin:miter" d="m 2806.9771,269.69116 c -19.6408,37.51666 -70.3275,205.39754 12.8342,296.61505 74.8577,-98.22183 126.2949,-215.37706 158.2783,-335.09214 z" id="path4281" /></clipPath><clipPath clipPathUnits="userSpaceOnUse" id="clipPath4283"><path style="opacity:0.5;fill:#00ff00;stroke:#ff0000;stroke-width:1px;stroke-linecap:butt;stroke-linejoin:miter" d="m 2436.69,1424.3875 c -33.2512,25.9523 -148.28,157.7047 -110.3087,275.7717 108.325,-58.1053 203.1785,-143.303 281.4285,-239.0021 z" id="path4285" /></clipPath><clipPath clipPathUnits="userSpaceOnUse" id="clipPath4317"><ellipse style="color:#000000;fill:#ff0000;fill-rule:nonzero;stroke:none;stroke-width:1px;marker:none" id="ellipse4319" cx="3423.136" cy="732.08203" rx="197.09084" ry="263.85184" transform="matrix(0.94702144,0.32117035,-0.33573175,0.94195764,0,0)" clip-path="none" /></clipPath><clipPath clipPathUnits="userSpaceOnUse" id="clipPath4321"><ellipse style="color:#000000;fill:#ff0000;fill-rule:nonzero;stroke:none;stroke-width:1px;marker:none" id="ellipse4323" cx="3423.136" cy="732.08203" rx="197.09084" ry="263.85184" transform="matrix(0.94702144,0.32117035,-0.33573175,0.94195764,0,0)" clip-path="none" /></clipPath><clipPath clipPathUnits="userSpaceOnUse" id="clipPath4347"><ellipse style="color:#000000;fill:#ff0000;fill-rule:nonzero;stroke:none;stroke-width:1px;marker:none" id="ellipse4349" cx="2905.3132" cy="392.36487" rx="107.73763" ry="167.24594" transform="matrix(0.90758727,0.41986348,-0.41116187,0.91156235,0,0)" clip-path="none" /></clipPath><clipPath clipPathUnits="userSpaceOnUse" id="clipPath4351"><ellipse style="color:#000000;fill:#ff0000;fill-rule:nonzero;stroke:none;stroke-width:1px;marker:none" id="ellipse4353" cx="2905.3132" cy="392.36487" rx="107.73763" ry="167.24594" transform="matrix(0.90758727,0.41986348,-0.41116187,0.91156235,0,0)" clip-path="none" /></clipPath><linearGradient xlink:href="#linearGradient4211" id="linearGradient4217" x1="3391.0632" y1="936.34515" x2="3384.623" y2="678.28168" gradientUnits="userSpaceOnUse" /><linearGradient xlink:href="#linearGradient4211" id="linearGradient4225" x1="2872.4424" y1="492.57117" x2="2919.7019" y2="266.52911" gradientUnits="userSpaceOnUse" /></defs><g transform="translate(1162.414,-43.500004)"><path style="fill:#9a7643;stroke:#7b5e2d;stroke-width:49;stroke-linecap:butt;stroke-linejoin:miter;stroke-miterlimit:4;stroke-dasharray:none" d="m 3122.8965,5790.3443 c 16.3953,132.3855 32.061,308.3928 61.4194,463.0557 13.5939,71.6142 -10.5403,99.8991 -64.5706,120.0532 -178.9721,66.7592 -358.3073,60.0259 -514.8698,-7.3374 L 2580,5736.0001" id="path4104" /><path style="fill:#a1570a;stroke:#784001;stroke-width:49;stroke-linecap:butt;stroke-linejoin:miter;stroke-miterlimit:4;stroke-dasharray:none" d="m 3105.9601,5514.2049 c 4.9269,106.6958 12.1082,211.5919 24.2077,314.7013 -191.6193,60.5006 -406.5877,80.8957 -562.7966,6.7244 l 43.267,-314.2663" id="path4096" /><path style="fill:none;stroke:#784001;stroke-width:31;stroke-linecap:butt;stroke-linejoin:miter;stroke-miterlimit:4;stroke-dasharray:none" d="m 3003.1697,5577.5572 c -5.2602,96.2794 -4.1629,188.3205 -1.902,279.5858" id="path4098" /><path style="fill:none;stroke:#784001;stroke-width:31;stroke-linecap:butt;stroke-linejoin:miter;stroke-miterlimit:4;stroke-dasharray:none" d="m 2850.0632,5590.8708 c -4.5041,96.6822 -7.2145,193.3643 -6.6568,290.0465" id="path4100" /><path style="fill:none;stroke:#784001;stroke-width:31;stroke-linecap:butt;stroke-linejoin:miter;stroke-miterlimit:4;stroke-dasharray:none" d="m 2696.0057,5583.2631 c -13.1648,94.4296 -19.4833,190.2284 -19.9704,287.1935" id="path4102" /><path style="fill:#4d583b;stroke:none" d="m 3176,3928.0001 c -78.8705,544 -72.1634,1088 -68,1632 -169.3333,29.8077 -338.6667,43.3375 -508,20 30.4194,-523.1753 139.5025,-1054.2169 276,-1588 z" id="path4256" /><path style="fill:#9a7643;stroke:none" d="m 2114.9618,4029.3747 c -290.7164,704.7171 -275.6664,1460.3954 -205.4099,2225.2747 20.5054,110.578 -5.8087,170.6076 -79.8817,184.4885 -133.2235,24.9655 -270.5244,37.654 -422.2316,1.902 -69.8282,-16.456 -84.6379,-89.078 -79.8816,-188.2924 28.7048,-598.7703 177.8093,-1353.3365 266.2722,-1793.5334 16.1737,-80.4815 100.8003,-44.5415 159.1106,-29.6432 L 1648,3980.0001 z" id="path4067-2" /><path style="fill:none;stroke:#7b5e2d;stroke-width:49;stroke-linecap:butt;stroke-linejoin:miter;stroke-miterlimit:4;stroke-dasharray:none" d="m 2114.9618,4029.3747 c -290.7164,704.7171 -284.6171,1461.2703 -205.4099,2225.2746 11.5973,111.8636 -5.8087,170.6076 -79.8817,184.4885 -133.2235,24.9655 -270.5244,37.654 -422.2316,1.902 -69.8282,-16.456 -84.6379,-89.078 -79.8816,-188.2924 28.7048,-598.7703 177.8093,-1353.3364 266.2722,-1793.5333 16.1737,-80.4815 100.8003,-44.5415 159.1106,-29.6432" id="path4067" /><path style="fill:#7b5e2d;stroke:none" d="m 1690.2754,4019.6719 -48.3438,7.9922 c 26.9298,162.8953 67.2125,393.5429 135.6445,475.5417 -18.9851,-103.5943 -60.4117,-320.8852 -87.3007,-483.5339 z" id="path4071" /><path style="fill:#394128;stroke:none" d="m 3157.875,3937.6602 c -96.353,529.9523 -80.9939,1072.9344 -73.1777,1613.1191 -149.9612,31.1322 -302.1362,30.4011 -455.9688,11.5195 23.4235,-554.9294 146.7566,-1057.472 273.0723,-1560.4941 l -47.5254,-11.9336 c -127.3724,507.2303 -252.8503,1017.5761 -275.0742,1583.8926 l 24.4824,0.9609 -2.0606,15.3613 c 171.4013,22.9904 342.2305,24.6191 511.1817,-13.6992 6.8733,-1.5589 14.1753,-3.3498 21.0948,-4.6885 0.097,-3.8149 0.01,-6.9566 -0.046,-10.7724 -7.6183,-544.2559 -23.5371,-1087.7568 72.2324,-1614.5 z" transform="translate(-3.3076923e-5,0)" id="path4077" /></g><g transform="translate(1162.414,-43.500004)"><path style="fill:#faf5a5;stroke:none" d="m 1512,3014 c -116.6804,-150.034 -145.3811,-308.8184 -140,-454 14.1365,-381.4042 -144.2719,-715.0072 -626.00001,-764 -481.72811,-48.9928 -808.05803,514.3924 -650.000021,938 2.02171,-105.1814 32.906781,-236.3192 56.000001,-284 -8.96982,258.3233 93.28206,570.2393 242,794 -8.68849,-51.377 -24.39859,-176.7972 -22,-216 51.58822,172.5707 171.1806,366.3984 268.00002,454.0001 -48.48481,-182.7273 -78.49548,-423.1913 -34,-568.0001 12.56838,89.4316 44.09981,199.9002 72,264 C 702.69854,2609.0473 1231.6434,2805.4047 1384,3072 z" id="path4138-1" /><path style="fill:#fdfdfd;stroke:none" d="M 1414.2136,3023.8631 C 1312.9809,2915.0255 1221.839,2733.8511 1179.4542,2610.9127 1077.9252,2316.4248 438.0165,2218.368 357.79601,2926.2823 l 24.04162,298.3991 C 266.30632,3031.003 132.16145,2760.7446 147.07818,2466.6629 c -38.65339,82.5904 -52.716093,170.099 -53.740117,260.2153 -43.090549,-181.0175 -81.73889,-349.9473 62.225397,-605.2834 202.87615,-239.0795 534.37535,-379.5234 834.38601,-107.4802 178.13523,161.5292 233.64793,371.6203 288.49963,576.9991 42.8376,160.3948 102.64,292.7903 178.1909,384.6661 z" id="path4140" /><path style="fill:none;stroke:#ecc254;stroke-width:49;stroke-linecap:butt;stroke-linejoin:miter;stroke-miterlimit:9;stroke-dasharray:none" d="m 1512,3014 c -116.6804,-150.034 -145.3811,-308.8184 -140,-454 14.1365,-381.4042 -144.2719,-715.0072 -626.00002,-764 -481.7281,-48.9928 -808.058018,514.3924 -650.000012,938 2.02171,-105.1814 32.906782,-236.3192 56.000002,-284 -8.96982,258.3233 93.28206,570.2393 242,794 -8.68849,-51.377 -24.39859,-176.7972 -22,-216 51.58822,172.5707 171.1806,366.3984 268.00001,454.0001 -48.48481,-182.7273 -78.49548,-423.1913 -34,-568.0001 12.56838,89.4316 44.09981,199.9002 72,264 C 702.69853,2609.0473 1231.6434,2805.4047 1384,3072 z" id="path4138" /></g><g transform="translate(1162.414,-43.500004)"><path style="fill:#faf5a5;stroke:#ecc254;stroke-width:49;stroke-linecap:butt;stroke-linejoin:miter;stroke-miterlimit:4;stroke-dasharray:none" d="m 4034,1638 c 23.4378,290.4888 -123.3328,533.677 -342,632 l 76,-570 z" id="path4144" /></g><g transform="translate(1162.414,-43.500004)"><path style="fill:#b28b4e;stroke:none" d="M 1852,3832.0001 C 1733.4815,4018.461 1640.8358,4225.1588 1569.0417,4442.328 1361.0494,5071.4817 1328.0648,5788.5218 1348,6356.0001 c 4.2984,122.36 -33.7705,151.8208 -140,156 -119.9508,4.719 -245.11138,-10.1927 -376.00001,-28 -92.42969,-12.575 -118.86759,-71.3729 -92.00001,-216 113.17888,-609.2372 259.70168,-1222.1364 420.00002,-1832 34.65,-131.8276 113.4174,-62.1626 176,-44 z" id="path4123-1" /><path style="fill:#b28b4e;stroke:none" d="m 1142.6846,4505.959 c 25.6785,-165.5064 96.1081,-181.8427 189.5046,-121.6224 -48.1181,-331.683 -169.5153,-872.5122 16.9705,-1335.0177 28.2254,-117.8184 110.4972,-169.58 274.3575,-121.6224 141.1936,7.8022 284.5122,21.979 418.6072,8.4853 l 90.5096,1238.8512 c -150.8494,4.6448 -296.042,-7.6244 -446.8914,-48.0833 -73.0726,168.6462 -120.7925,330.9543 -164.0488,492.1464 z" id="path4453" /><path style="fill:none;stroke:#7b5e2d;stroke-width:49;stroke-linecap:butt;stroke-linejoin:miter;stroke-miterlimit:4;stroke-dasharray:none" d="m 2134,4172.0001 c -127.3333,8.885 -298.6667,-5.321 -448,-44" id="path4251" /><path style="fill:#7b5e2d;stroke:none" d="m 1515.7168,2889.627 c -36.7166,-0.1104 -71.7055,7.3027 -102.9258,27.2031 -41.627,26.5338 -73.9467,73.2662 -98.1406,144.3984 -92.7212,272.6079 -100.1831,584.0963 -67.3594,893.0684 18.989,178.7461 63.5379,462.7046 115.5941,532.0134 -13.9438,-84.6913 -48.1392,-360.8987 -66.8675,-537.1912 -32.3731,-304.7308 -24.2788,-609.5555 65.0234,-872.1113 22.037,-64.7905 48.7319,-100.1453 78.0879,-118.8574 29.356,-18.7121 63.9811,-22.7839 107.8926,-17.4473 165.0968,20.0645 330.4667,29.3112 496.0664,22.7891 l -1.9277,-48.9629 c -162.498,6.3999 -325.2308,-2.6577 -488.2266,-22.4668 -12.5474,-1.5249 -24.9779,-2.3988 -37.2168,-2.4355 z" id="path4220" /><path style="fill:#ec7e11;stroke:none" d="m 2129.8056,2922.0397 c -77.7414,474.1419 5.2748,1023.9945 121.6224,1258.6502 l -138.5929,0 c -124.0424,-405.2438 -167.0899,-819.487 -87.6813,-1247.3365 z" id="path4232" /><path id="path4210" style="fill:none;stroke:#b25904;stroke-width:31;stroke-linecap:butt;stroke-linejoin:miter;stroke-miterlimit:4;stroke-dasharray:none" d="m 2203,4064.0001 -115,3 m 77,-152 -117,7 m 84,-161 -120,13 m 96,-217 -113,23 m 105,-196 -107,17 M 2003,3216 l 101,-17 m -90,-143 103,-19" /><path style="fill:none;stroke:#b25904;stroke-width:49;stroke-linecap:butt;stroke-linejoin:miter;stroke-miterlimit:4;stroke-dasharray:none" d="m 2248.5996,4178.1041 c -41.4836,-0.3334 -82.9672,-0.6667 -124.4508,-1.0001 -147.4755,-338.0235 -166.3343,-823.7759 -96.8737,-1240.2151 42.8978,0.7912 82.2601,0.8334 125.1579,0" id="path4196" /><path style="fill:#ec7e11;stroke:none" d="m 3539,3217 96,129.0001 -239,286 z" id="path4228" /><path style="fill:none;stroke:#b25904;stroke-width:49;stroke-linecap:butt;stroke-linejoin:miter;stroke-miterlimit:4;stroke-dasharray:none" d="m 3538,3208 88,132.0001 c -86.1691,157.1642 -216.2033,287.434 -344.9706,402" id="path4127" /><path id="path4125" style="fill:#b28b4e;stroke:#7b5e2d;stroke-width:49;stroke-linecap:butt;stroke-linejoin:miter;stroke-miterlimit:4;stroke-dasharray:none" d="m 3016,2414 c -30.318,100.5635 -44.5145,213.6659 -119.6176,279.3965 M 3016,2414 3844,1680 c -78.3866,646.76 -214.8116,1431.5073 -512,2084.0001 l -208,168 -227.6176,-1238.6036" /><path style="fill:#71825a;stroke:none" d="m 2788.8291,2861.2286 c -160.7498,45.7487 -430.0214,61.5177 -656.195,74.9532 -76.3808,419.0988 -11.149,934.6509 111.7228,1243.0938 55.6257,-0.7803 111.2515,-2.5398 166.8772,-7.071 l 335.1687,-48.0833 c 170.8641,-20.606 334.2927,-78.3896 497.8031,-135.7645 l 161.2204,-367.6956 -138.5929,135.7645 50.9116,-345.0681 z" id="path4143-3" /><path style="fill:#b28b4e;stroke:#7b5e2d;stroke-width:49;stroke-linecap:butt;stroke-linejoin:miter;stroke-miterlimit:4;stroke-dasharray:none" d="m 2653.212,6016.9063 c 2.2044,157.937 22.9494,319.9528 43.7447,483.0938 6.1074,47.9129 35.5699,93.4588 -62.7642,119.8225 -133.241,35.7224 -305.7147,47.5623 -502.1132,-26.6272 -52.0168,-19.6493 -83.7335,-55.2799 -81.7836,-131.2342 4.7479,-184.9483 16.1386,-318.3146 24.7253,-475.486" id="path4121" /><path style="fill:#ec7e11;stroke:none" d="m 2092,5724.0001 -32,332 c 198.6667,47.8813 397.3333,31.8671 596,-16 l -12,-316 z" id="path4236" /><path style="fill:none;stroke:#b25904;stroke-width:49;stroke-linecap:butt;stroke-linejoin:miter;stroke-miterlimit:4;stroke-dasharray:none" d="m 2103.0782,5710.557 c -26.6684,108.862 -34.7816,222.9091 -40.036,338.9091 191.0989,37.7704 388.3089,62.4512 597.091,-9.4141 1.0322,-104.8666 -4.2885,-206.3213 -12.4488,-318.736" id="path4113" /><path style="fill:none;stroke:#b25904;stroke-width:31;stroke-linecap:butt;stroke-linejoin:miter;stroke-miterlimit:4;stroke-dasharray:none" d="m 2205.5992,5756.2828 c -12.1568,115.4758 -20.9445,214.1057 -29.5873,312.0116" id="path4115" /><path style="fill:none;stroke:#b25904;stroke-width:31;stroke-linecap:butt;stroke-linejoin:miter;stroke-miterlimit:4;stroke-dasharray:none" d="m 2368.3294,5765.697 c -3.8622,104.1273 -9.9791,207.901 -17.4834,312.0115" id="path4117" /><path style="fill:none;stroke:#b25904;stroke-width:31;stroke-linecap:butt;stroke-linejoin:miter;stroke-miterlimit:4;stroke-dasharray:none" d="m 2521.6454,5771.0765 c 2.6322,99.0726 1.8503,198.1453 -2.6898,297.2179" id="path4119" /><path style="fill:#ec7e11;stroke:none" d="m 3524.2202,3493.3821 108.8944,111.7228 -9.8994,-251.73 z" id="path4223" /><path id="path4109-6" style="fill:#71825a;stroke:none" d="M 2799.6617,3829.6706 C 2689.789,4472.7849 2612.9185,5112.597 2651.31,5762.0458 c -185.7565,25.4371 -371.5131,19.5428 -557.2696,-19.0194 92.4134,-629.3815 208.8464,-1250.7564 407.0161,-1844.8858 z" /><path style="fill:#98a985;stroke:none" d="m 2588.0108,3845.5212 202.2326,1.4143 -94.2434,657.0646 -236,12 z" id="path4238" /><path style="fill:#ec7e11;stroke:none" d="m 2585.1824,3856.8349 158.3919,302.6418 -292.7422,363.4528 243.2447,-19.799 -161.2203,-366.2812 254.5584,-294.1565 z" id="path4230" /><path style="fill:#ffffff;stroke:none" d="m 2200.5163,3146.8996 33.9411,287.0855 165.463,-2.8284 c 9.7851,-99.4023 20.7732,-199.2948 -39.598,-270.1149 -53.2687,-25.5268 -106.5374,-22.9465 -159.8061,-14.1422 z" id="path4134" /><path style="fill:#7b5e2d;stroke:none" d="m 1545.7793,4434.6387 c -209.4913,633.688 -242.2576,1353.0711 -222.2637,1922.2207 2.0577,58.5749 -6.5907,88.7118 -21.7402,104.4902 -15.1495,15.7784 -43.7683,24.1647 -94.7383,26.1699 -117.2561,4.613 -241.10266,-10.0225 -371.73437,-27.7949 -41.46987,-5.6419 -60.23037,-17.6641 -71.53906,-43.9023 -11.30868,-26.2383 -12.7371,-73.0391 0.32422,-143.3477 113.02426,-608.4049 259.40191,-1220.7356 419.60741,-1830.2461 7.9475,-30.2366 17.9371,-45.9072 25.8672,-52.9316 7.9301,-7.0244 14.2317,-8.302 25.5078,-7.166 22.5522,2.2718 62.4002,24.747 99.1016,35.3984 l 8.6562,-49.0586 c -25.8812,-7.5112 -61.708,-30.9494 -102.8476,-35.0937 -20.5699,-2.0722 -44.3684,2.8178 -62.9082,19.2402 -18.5399,16.4223 -31.3901,41.4771 -40.7676,77.1543 -160.39117,610.2167 -307.05911,1223.6844 -420.39259,1833.7539 -13.80626,74.3185 -15.44923,129.2302 2.85156,171.6914 18.30079,42.4612 58.97379,66.1275 109.9336,73.0605 131.14555,17.8423 257.62013,33.0282 380.26563,28.2032 55.2595,-2.174 98.7905,-10.6066 128.1582,-41.1934 29.3677,-30.5868 37.604,-76.3614 35.3633,-140.1465 -19.8765,-565.807 13.325,-1280.5036 219.8183,-1905.123 71.2767,-215.6041 179.151,-478.4537 253.1788,-623.5567 -111.9722,116.897 -227.3907,389.4434 -299.7022,608.1778 z" id="path4123" /><path style="fill:none;stroke:#b25904;stroke-width:49;stroke-linecap:butt;stroke-linejoin:miter;stroke-miterlimit:4;stroke-dasharray:none" d="m 3528.2635,3492.719 105.4939,111.6242 -4.2219,-265.7573" id="path4129" /><path style="fill:none;stroke:#4d5f40;stroke-width:49;stroke-linecap:butt;stroke-linejoin:miter;stroke-miterlimit:4;stroke-dasharray:none" d="m 3422.3968,3572.578 c -31.1127,132.0718 -112.3534,275.3523 -185.2619,412.9503 -137.3023,57.8106 -314.1118,120.1055 -482.2469,145.6641" id="path4141" /><path style="fill:#4d5f40;stroke:none" d="m 2782.123,2837.6641 c -155.2473,44.1827 -424.7488,60.6698 -650.9414,74.0605 -3.3465,0.1981 -6.6979,0.3047 -10.0468,0.457 -1.25,7.0736 -2.4627,14.1538 -3.75,21.2207 -77.0247,422.8429 -11.6932,939.36 112.5722,1251.6094 2.4064,6.0467 4.6003,12.1758 6.9004,18.2637 2.6146,0.166 5.2241,0.5257 7.8438,0.498 55.9155,-0.5907 112.0899,-2.5535 168.5215,-7.1504 l -3.9786,-48.8378 c -52.3702,4.2659 -104.9736,6.043 -157.8164,6.871 -114.6243,-301.4451 -175.5846,-791.5699 -107.248,-1194.6171 224.0421,-13.2917 487.5491,-28.6276 651.3555,-75.2461 z" transform="translate(-3.3076923e-5,0)" id="path4143" /><path style="fill:#fbfdfa;stroke:#bab597;stroke-width:31;stroke-linecap:butt;stroke-linejoin:miter;stroke-miterlimit:4;stroke-dasharray:none" d="m 2402,3432.0001 c 4.9614,-83.8228 6.2255,-143.8879 -1.4894,-189.2569 C 2385.1916,3152.6561 2330.5279,3128.3984 2203,3146 l 32,287.0001" id="path4214" /><path style="fill:none;stroke:#bab597;stroke-width:19;stroke-linecap:butt;stroke-linejoin:miter;stroke-miterlimit:4;stroke-dasharray:none" d="m 2301,3144 24,290.0001" id="path4216" /><path style="fill:none;stroke:#bab597;stroke-width:19;stroke-linecap:butt;stroke-linejoin:miter;stroke-miterlimit:4;stroke-dasharray:none" d="m 2300.9255,3179.4266 -87.6813,1.4142 m 4.2427,31.1127 89.0954,-2.1213 m 1.4142,33.9411 -87.6812,4.9498 m 4.9497,43.1335 86.9742,-3.5356 m 2.1213,37.4767 -86.267,7.7782 m 6.3639,31.8198 84.1457,-2.8284 m 0.7071,31.8198 -84.1457,7.071" id="path4218" /><path style="fill:none;stroke:#4d5f40;stroke-width:31;stroke-linecap:butt;stroke-linejoin:miter;stroke-miterlimit:4;stroke-dasharray:none" d="m 2790.2434,3849.7639 -199.4042,1.4142 -134.3502,664.6804 241.8305,-15.5564" id="path4222" /><path style="fill:none;stroke:#4d5f40;stroke-width:19;stroke-linecap:butt;stroke-linejoin:miter;stroke-miterlimit:4;stroke-dasharray:none" d="m 2583.7682,3849.7639 155.5635,306.8844 -281.4285,362.0386" id="path4224" /><path style="fill:none;stroke:#4d5f40;stroke-width:19;stroke-linecap:butt;stroke-linejoin:miter;stroke-miterlimit:4;stroke-dasharray:none" d="m 2780.3439,3849.7639 -247.4874,285.6712 156.9777,371.9381" id="path4226" /><path style="fill:#4d5f40;stroke:none" d="m 2707.7539,4255.9941 c -70.2577,495.5027 -110.1178,991.4363 -81.6934,1493.5743 -168.7273,20.0272 -337.2154,16.0097 -505.705,-17.0157 73.0416,-495.419 161.1871,-985.2953 292.5254,-1460.2246 34.071,-123.2036 61.1465,-246.8173 85.8432,-364.4422 -54.4992,107.2351 -98.7918,227.4225 -133.0718,351.3817 -133.3915,482.3544 -222.275,978.9868 -295.8515,1480.1992 -0.6582,4.4835 -1.2819,8.9721 -1.9228,13.4581 7.65,1.7549 15.2728,3.6332 22.9501,5.2646 187.5641,39.8571 375.1767,43.7216 562.5059,19.2246 8.0261,-1.0496 16.093,-1.7595 24.1395,-2.6393 -0.5687,-4.7251 -1.4224,-9.4245 -1.7059,-14.1752 -29.9866,-502.419 9.8718,-999.6112 80.5,-1497.7266 20.2624,-142.9039 52.9803,-407.5034 40.1136,-455.2941 -14.281,37.0621 -68.2849,304.947 -88.6273,448.4152 z" transform="translate(-3.3076923e-5,0)" id="path41" /><path style="fill:none;stroke:#4d5f40;stroke-width:31;stroke-linecap:butt;stroke-linejoin:miter;stroke-miterlimit:4;stroke-dasharray:none" d="m 2156.6757,3426.914 c 115.9655,9.3856 231.931,15.0238 347.8965,-12.7279 24.0201,129.3765 -4.3717,358.0723 -135.7644,364.8671 -131.3928,6.7948 -210.5417,-191.5283 -212.1321,-352.1392 z" id="path4212" /><path style="fill:#b25904;stroke:none" d="m 3251.6586,3805.0248 c 112.1985,-93.6721 271.6084,-335.3631 262.6621,-437.5077 -77.5345,120.6795 -164.0253,241.3591 -248.9016,362.0386 z" id="path4461" /><path style="fill:none;stroke:#b25904;stroke-width:49;stroke-linecap:butt;stroke-linejoin:miter;stroke-miterlimit:4;stroke-dasharray:none" d="m 3626,3340.0001 c -86.1691,157.1642 -216.2033,287.434 -344.9706,402" id="path4127-1" /><path style="fill:#4d5f40;stroke:none" d="m 3293.4707,3415.1152 c -16.8849,123.6716 -37.6106,277.9292 -41.8121,389.9096 45.296,-108.6369 73.2602,-258.0304 90.3609,-383.2826 z" id="path4455" /><path style="fill:#ec7e11;stroke:#b25904;stroke-width:49;stroke-linecap:butt;stroke-linejoin:miter;stroke-miterlimit:4;stroke-dasharray:none" d="m 2908,2660 c 156.8738,251.5211 318.4785,511.2536 444,768.0001 l -268,174 L 2764,2814 z" id="path4131" /><path style="fill:none;stroke:#b25904;stroke-width:31;stroke-linecap:butt;stroke-linejoin:miter;stroke-miterlimit:4;stroke-dasharray:none" d="m 3011.1575,2826.0528 -185.3928,140.0428" id="path4133" /><path style="fill:none;stroke:#b25904;stroke-width:31;stroke-linecap:butt;stroke-linejoin:miter;stroke-miterlimit:4;stroke-dasharray:none" d="m 3148.0758,3052.7807 -227.2999,147.2799" id="path4135" /><path style="fill:none;stroke:#b25904;stroke-width:31;stroke-linecap:butt;stroke-linejoin:miter;stroke-miterlimit:4;stroke-dasharray:none" d="m 3275.9372,3279.7497 -259.3008,156.3676" id="path4137" /></g><g transform="translate(1162.414,-43.500004)"><path style="fill:#ec7e11;stroke:none" d="m 1518,3274.0001 87,300 114,-134 -39,-149 -233,262 -45,-149 z" id="path4264" /><path style="fill:none;stroke:#ffffff;stroke-width:14;stroke-linecap:round;stroke-linejoin:miter;stroke-miterlimit:4;stroke-dasharray:none" d="m 1435.0125,3280.4216 85.2671,285.0854 225.6884,-267.1148" id="path4259" /><path style="fill:none;stroke:#ffffff;stroke-width:14;stroke-linecap:round;stroke-linejoin:miter;stroke-miterlimit:4;stroke-dasharray:none" d="m 1683,3576.0001 -95,-301 -218,266" id="path4262" /></g><g transform="translate(1162.414,-43.500004)"><path style="fill:#b28b4e;stroke:none" d="m 2684,1236 c -219.243,134.0038 -384.3694,296.8697 -444,516 -118.6667,50.7893 -237.3333,67.4972 -356,76 l 168,636 c 160.6724,-53.9714 336.6978,-59.1776 508,-60 l 452,56 c 483.2265,17.5939 625.7556,-393.8386 836,-720 l -92,-468 c -287.6803,-118.5443 -738.1674,-196.3387 -1072,-36 z" id="path4451" /><path style="fill:#7b5e2d;stroke:none" d="m 1887.5273,1805.8379 -27.3457,2.084 5.1426,26.9375 c 42.4958,222.6456 96.7219,433.6718 161.9942,633.7461 l 7.0019,21.4609 21.9609,-5.2266 c 230.3602,-54.8166 513.2157,-70.7803 664.5313,-33.9687 170.9493,41.5879 312.9651,44.3244 431.4336,-7.2656 118.4684,-51.5901 227.801,-210.7649 266.8433,-339.998 -56.9578,122.7669 -181.7091,249.4794 -286.4058,295.0722 -104.6967,45.5928 -234.9277,44.8086 -400.2891,4.5801 -162.2992,-39.4836 -433.1024,-23.4043 -665.2285,28.9062 -58.9794,-183.6989 -108.6291,-376.8104 -148.4199,-579.873 316.8593,-30.5249 706.2846,-240.6702 781.9647,-540.4701 -166.3199,282.2001 -496.7437,469.8895 -813.1835,494.015 z" id="path4147" /><path style="fill:#7b5e2d;stroke:none" d="m 2030.8107,1913.7054 c 39.0366,170.3353 120.4839,164.0039 166.8772,18.3848 -73.0076,97.4993 -107.5408,99.0645 -166.8772,-18.3848 z" id="path4153" /><path style="fill:#7b5e2d;stroke:none" d="m 2234.7402,2209.7695 c -65.8837,36.2167 -147.5815,37.9168 -251.9414,-3.582 l -11.455,28.8047 c 109.9103,43.706 203.1722,43.2569 278.3281,1.9433 75.1558,-41.3135 174.2797,-155.4062 153.3834,-237.6979 -33.6243,71.8576 -102.4314,174.3153 -168.3151,210.5319 z" id="path4155" /><path style="fill:#7b5e2d;stroke:none" d="m 2092,2329 c 5.2524,42.1079 14.1006,79.4215 25,114 l -15,5 c -9.761,-39.6666 -13.4751,-77.212 -10,-119 z" id="path4161" /><path style="fill:#7b5e2d;stroke:none" d="m 2064.3002,2332.3526 c 3.7424,42.2689 11.2497,79.8752 20.9049,114.8216 l -15.1694,4.46 c -8.3354,-39.9905 -10.7036,-77.6447 -5.7355,-119.2816 z" id="path4161-1" /><path style="fill:#7b5e2d;stroke:none" d="m 2128.077,2333.7445 c 8.5393,41.5662 20.2872,78.0707 33.8654,111.6877 l -14.5615,6.1612 c -12.8425,-38.7787 -19.4903,-75.9171 -19.3039,-117.8489 z" id="path4161-6" /><path style="fill:#7b5e2d;stroke:none" d="m 2171.3717,2363.5999 c 5.5287,25.6947 12.2702,49.4363 19.9018,71.7443 l -11.7885,2.374 c -5.2355,-23.8604 -7.9863,-48.0508 -8.1133,-74.1183 z" id="path4161-3" /><path style="fill:none;stroke:#7b5e2d;stroke-width:49;stroke-linecap:butt;stroke-linejoin:miter;stroke-miterlimit:4;stroke-dasharray:none" d="m 2245.7711,1739.7572 c 85.7029,-266.5117 243.7894,-368.7478 395.9798,-480.8327" id="path4190" /></g><g transform="translate(1162.414,-43.500004)"><path style="fill:#ffffff;stroke:none" d="m 2437,1417 c -113.2905,94.8991 -149.3344,192.7692 -124,293 105.1337,-68.3752 213.1841,-131.7123 290,-249 z" id="path4241" clip-path="url(#clipPath4283)" /><path style="fill:#ffffff;stroke:none" d="m 2815.6992,1594.0932 374.7666,176.7766 c -84.5423,200.6546 -218.3353,315.1204 -438.4062,278.6001 -87.7856,-175.5738 -55.8783,-325.0327 63.6396,-455.3767 z" id="path4231" clip-path="url(#clipPath4267)" /><ellipse style="color:#000000;fill:url(#linearGradient4217);fill-rule:nonzero;stroke:none;stroke-width:1px;marker:none" id="path4225" cx="3423.136" cy="732.08203" rx="197.09084" ry="263.85184" transform="matrix(0.94702144,0.32117035,-0.33573175,0.94195764,0,0)" clip-path="url(#clipPath4263)" d="m 3620.2268,732.08203 c 0,145.72135 -88.2406,263.85184 -197.0908,263.85184 -108.8503,0 -197.0908,-118.13049 -197.0908,-263.85184 0,-145.72134 88.2405,-263.85184 197.0908,-263.85184 108.8502,0 197.0908,118.1305 197.0908,263.85184 z" /><ellipse style="color:#000000;fill:url(#linearGradient4225);fill-rule:nonzero;stroke:none;stroke-width:1px;marker:none" id="path4235" cx="2905.3132" cy="392.36484" rx="107.73763" ry="167.24594" transform="matrix(0.90758727,0.41986348,-0.41116187,0.91156235,0,0)" clip-path="url(#clipPath4279)" d="m 3013.0509,392.36484 c 0,92.36738 -48.2358,167.24594 -107.7377,167.24594 -59.5018,0 -107.7376,-74.87856 -107.7376,-167.24594 0,-92.36739 48.2358,-167.24594 107.7376,-167.24594 59.5019,0 107.7377,74.87855 107.7377,167.24594 z" /><path style="fill:#d5b5f5;stroke:none" d="m 2884,1905 -88,29 -17,-91 93,-6 z" id="path4287" clip-path="url(#clipPath4321)" /><path style="fill:#ac54f5;stroke:none" d="m 2869,1845 -94,12 6,-80 86,22 z" id="path4289" clip-path="url(#clipPath4317)" /><path style="fill:#d5b5f5;stroke:none" d="m 2396,1612 -47,-6 6,-43 54,4 z" id="path4291" clip-path="url(#clipPath4351)" /><path style="fill:#ac54f5;stroke:none" d="m 2409,1576 -55,-8 11,-36 53,20 z" id="path4293" clip-path="url(#clipPath4347)" /><ellipse style="color:#000000;fill:#000000;fill-rule:nonzero;stroke:none;stroke-width:1px;marker:none" id="path4227" cx="3421.7979" cy="636.65094" rx="147.86601" ry="207.1393" transform="matrix(0.9387336,0.34464363,-0.31281878,0.94981283,0,0)" clip-path="url(#clipPath4259)" d="m 3569.6639,636.65094 c 0,114.39988 -66.2019,207.1393 -147.866,207.1393 -81.6642,0 -147.8661,-92.73942 -147.8661,-207.1393 0,-114.39988 66.2019,-207.1393 147.8661,-207.1393 81.6641,0 147.866,92.73942 147.866,207.1393 z" /><ellipse style="color:#000000;fill:#ffffff;fill-rule:nonzero;stroke:none;stroke-width:1px;marker:none" id="path4229" cx="3449.623" cy="931.42957" rx="54.396942" ry="77.124542" transform="matrix(0.96904298,0.24689208,-0.30630708,0.95193276,0,0)" clip-path="url(#clipPath4255)" d="m 3504.02,931.42957 c 0,42.5947 -24.3544,77.12453 -54.397,77.12453 -30.0426,0 -54.3969,-34.52983 -54.3969,-77.12453 0,-42.59471 24.3543,-77.12455 54.3969,-77.12455 30.0426,0 54.397,34.52984 54.397,77.12455 z" /><ellipse style="color:#000000;fill:#ffffff;fill-rule:nonzero;stroke:none;stroke-width:1px;marker:none" id="path4233" cx="3359.5371" cy="1400.5305" rx="37.092003" ry="50.426701" transform="matrix(0.98793384,0.15487648,-0.18143615,0.98340273,0,0)" clip-path="url(#clipPath4251)" d="m 3396.6291,1400.5305 c 0,27.8499 -16.6066,50.4267 -37.092,50.4267 -20.4853,0 -37.092,-22.5768 -37.092,-50.4267 0,-27.8499 16.6067,-50.4267 37.092,-50.4267 20.4854,0 37.092,22.5768 37.092,50.4267 z" /><ellipse style="color:#000000;fill:#000000;fill-rule:nonzero;stroke:none;stroke-width:1px;marker:none" id="path4237" cx="2938.1423" cy="290.97156" rx="68.314369" ry="124.41695" transform="matrix(0.89538176,0.44529934,-0.5249967,0.85110426,0,0)" clip-path="url(#clipPath4275)" d="m 3006.4567,290.97156 c 0,68.71358 -30.5854,124.41694 -68.3144,124.41694 -37.729,0 -68.3143,-55.70336 -68.3143,-124.41694 0,-68.71358 30.5853,-124.41695 68.3143,-124.41695 37.729,0 68.3144,55.70337 68.3144,124.41695 z" /><ellipse style="color:#000000;fill:#ffffff;fill-rule:nonzero;stroke:none;stroke-width:1px;marker:none" id="path4239" cx="2935.1208" cy="238.48334" rx="32.870621" ry="54.147083" transform="matrix(0.8964101,0.44322561,-0.45735613,0.88928363,0,0)" clip-path="url(#clipPath4271)" d="m 2967.9915,238.48334 c 0,29.90461 -14.7167,54.14708 -32.8707,54.14708 -18.1539,0 -32.8706,-24.24247 -32.8706,-54.14708 0,-29.90461 14.7167,-54.14709 32.8706,-54.14709 18.154,0 32.8707,24.24248 32.8707,54.14709 z" /></g><g transform="translate(1162.414,-43.500004)"><path style="fill:#000000;stroke:#000000;stroke-width:1px;stroke-linecap:butt;stroke-linejoin:miter" d="m 2830,1462 c -41.7126,60.3189 -14.0437,93.5127 24,125 118.3954,97.9913 251.8682,149.6591 500,201 -216.8752,14.6163 -428.4726,-40.9815 -579,-189 -57.9529,-56.987 -10.1547,-128.0692 9,-147 z" id="path4356" /><path style="fill:#000000;stroke:#000000;stroke-width:1px;stroke-linecap:butt;stroke-linejoin:miter" d="m 2617,1431 -207,-44 c 34.4934,72.1588 117.0666,84.1522 191,81 z" id="path4358" /><path style="fill:#000000;stroke:#000000;stroke-width:1px;stroke-linecap:butt;stroke-linejoin:miter" d="m 2391.6692,1472.2555 c 12.0088,-21.5798 32.5694,-50.1975 50.6776,-57.0604 l 16.2635,14.8493 c -24.4552,7.6458 -46.2413,23.2989 -66.9411,42.2111 z" id="path4360" /><path style="fill:#000000;stroke:#000000;stroke-width:1px;stroke-linecap:butt;stroke-linejoin:miter" d="m 3133.5484,1856.8973 c 15.3634,-27.2931 25.8139,-58.308 31.4616,-90.2701 l 21.9202,4.2427 c -10.3928,30.7904 -24.5023,61.024 -53.3818,86.0274 z" id="path4362" /></g><g transform="translate(1162.414,-43.500004)"><path style="fill:#d7f9f5;fill-opacity:0.37647059;stroke:none" d="m 2696,1414 642,184 c -87.5477,286.8398 -177.2023,570.6148 -494,524 -320.2397,-130.6475 -198.7989,-533.393 -148,-708 z" id="path4449" /><path style="fill:#d7f9f5;fill-opacity:0.37647059;stroke:none" d="m 2156,1256 498,150 c -110.91,156.0269 -261.7944,265.9295 -442,342 -74.873,-130.2762 -87.7279,-297.7633 -56,-492 z" id="path4447" /><path style="fill:none;stroke:#fdfdf8;stroke-width:71;stroke-linecap:butt;stroke-linejoin:miter;stroke-miterlimit:4;stroke-dasharray:none" d="m 2156.6757,1264.5814 c -34.3515,206.9982 -24.8088,369.3776 56.5686,489.318" id="path4388" /><path style="fill:#7b5e2d;stroke:none" d="m 1887.5273,1805.8379 -27.3457,2.084 5.1426,26.9375 53.4219,17.4336 c 316.8593,-30.5249 706.2846,-240.6702 781.9647,-540.4701 -166.3199,282.2001 -496.7437,469.8895 -813.1835,494.015 z" id="path4147-2" /><path style="fill:#fdfdf8;stroke:none" d="m 2085.8999,1173.1044 -5.5266,117.9016 1320.8749,383.2525 11.1834,-112.2468 z" id="path4380" /><path style="fill:none;stroke:#fdfdf8;stroke-width:84;stroke-linecap:butt;stroke-linejoin:miter;stroke-miterlimit:4;stroke-dasharray:none" d="m 2716.7043,1417.3165 c -133.6615,203.0215 -133.3579,604.7142 84.8528,690.1362 296.7796,116.1789 531.4903,-291.858 523.259,-511.9453" id="path4386" /></g><g transform="translate(1162.414,-43.500004)"><path style="fill:#faf5a5;stroke:none" d="m 4124,1180 c 43.7571,-433.60183 -74.4835,-763.03103 -310,-995.99999 24.6291,53.33334 40.6884,110.66667 44,164.00001 -107.05,-124.39161 -257.579,-215.57889 -404,-250.00001 71.0528,56.89433 184.3114,143.89035 216,196 C 3013.4818,22.485965 2604.2017,271.7489 2434,796.00003 c 66.3866,-83.90888 169.7153,-157.71831 242,-202 -99.553,136 -177.7621,330.38542 -264,477.99997 -67.2733,115.1526 -197.8862,217.4699 -342,268 346.4234,34.1172 768.4431,-81.7846 992,-166 -49.2896,42.6667 -78.4713,79.3333 -112,122 103.3136,-19.1954 269.9494,-53.646 384,-44 -63.4445,22.6444 -162.9118,70.0843 -200,108 318.0054,-34.4831 490.2052,63.9267 638,212 z" id="path4391-0" /><path style="fill:#fdfdfd;stroke:none" d="m 3978,1326 c 44.8112,-364.8765 -64.7475,-727.17929 -330,-873.99999 29.7956,45.33333 60.1742,90.66667 64,136 -366.173,-349.23432 -814.0248,-90.38693 -1056,294 54.7487,-24.08207 114.5835,-53.25021 164,-72 C 2720.5297,913.82879 2563.5789,1060.807 2372,1136 c -87.4876,76.2048 -173.4363,153.692 -292,204 216.9712,16.9931 410.877,-15.9887 596,-68 99.5919,-36.1496 202.1215,-106.4238 288,-190 113.7568,-88.30629 224.9202,-181.98572 354,-208.99999 -3.7778,12.04044 -6.3148,25.66667 -6,37 C 3664.6667,600.76377 3926,1192 3890,1430 z" id="path4393" /><path style="fill:none;stroke:#ecc254;stroke-width:49;stroke-linecap:butt;stroke-linejoin:miter;stroke-miterlimit:9;stroke-dasharray:none" d="m 4124,1180 c 43.7571,-433.60185 -74.4835,-763.03105 -310,-996 24.6291,53.33334 40.6884,110.66667 44,164.00001 C 3750.95,223.6084 3600.421,132.42112 3454,98 c 71.0528,56.89433 184.3114,143.89035 216,196 -656.5182,-271.514044 -1065.7983,-22.25111 -1236,502.00001 66.3866,-83.90888 169.7153,-157.71831 242,-202 -99.553,136 -193.7621,350.38542 -264,477.99999 -64.3054,116.8359 -197.8862,217.4699 -342,268 346.4234,34.1172 768.4431,-81.7846 992,-166 -49.2896,42.6667 -78.4713,79.3333 -112,122 103.3136,-19.1954 269.9494,-53.646 384,-44 -63.4445,22.6444 -162.9118,70.0843 -200,108 318.0054,-34.4831 490.2052,63.9267 638,212 z" id="path4391" /></g><g transform="translate(1162.414,-43.500004)"><path style="fill:#b28b4e;stroke:#7b5e2d;stroke-width:49;stroke-linecap:butt;stroke-linejoin:miter;stroke-miterlimit:4;stroke-dasharray:none" d="m 2958.5347,1103.361 c -60.1718,-185.60209 -127.4705,-370.55102 -156.9776,-581.24172 -23.2452,-165.97846 46.7142,-188.01589 125.865,-74.95332 110.828,158.31162 210.7033,316.31484 305.4701,473.76154" id="path4396" /><path style="fill:none;stroke:#7b5e2d;stroke-width:31;stroke-linecap:butt;stroke-linejoin:miter;stroke-miterlimit:4;stroke-dasharray:none" d="m 2965.6058,493.83501 c -26.7039,127.25986 -79.7032,162.81723 -141.4213,156.9777" id="path4398" /><path style="fill:none;stroke:#7b5e2d;stroke-width:31;stroke-linecap:butt;stroke-linejoin:miter;stroke-miterlimit:4;stroke-dasharray:none" d="m 3046.216,614.04316 c -18.7011,115.08513 -56.8509,206.02713 -183.8477,186.67619" id="path4400" /><path style="fill:none;stroke:#7b5e2d;stroke-width:31;stroke-linecap:butt;stroke-linejoin:miter;stroke-miterlimit:4;stroke-dasharray:none" d="m 2921.7652,981.7387 c 130.3913,19.8171 192.7845,-69.64842 217.7889,-219.20311" id="path4402" /><path style="fill:#ecc254;stroke:none" d="m 3296.5318,881.32953 c -104.6152,74.22156 -295.3546,195.98907 -432.7493,316.78387 77.8578,-151.5583 305.5059,-280.24336 432.7493,-316.78387 z" id="path4404" /></g><g transform="translate(1162.414,-43.500004)"><path style="fill:#b28b4e;stroke:none" d="m 3634,1688 614,-767.99999 c 14.2847,232.52039 3.9408,450.55339 -72,629.99999 -136.1231,244.2534 -307.2617,284.7805 -502,188 z" id="path4415" /><path style="fill:#7b5e2d;stroke:none" d="m 4260.8594,865.13281 -38.6231,47.38672 c -111.9289,137.32057 -227.2766,273.37367 -337.9258,412.22657 -90.9822,114.1732 -241.0144,275.4985 -240.9696,374.7533 50.9564,-57.7228 188.8196,-230.6854 279.29,-344.2162 97.2084,-121.9862 198.3895,-242.3591 298.1328,-363.77539 17.7573,346.59799 -51.9538,604.55799 -190.4688,710.85739 -84.5583,64.892 -235.1883,94.6322 -355.8464,30.468 66.0181,130.9973 286.9712,84.1552 385.6785,8.4051 171.1385,-131.3355 235.8093,-429.9386 205.5234,-815.16018 z" id="path4407" /><path style="fill:#7b5e2d;stroke:none" d="m 3812.7198,1676.1175 c 165.5805,-30.9346 220.232,-145.8154 247.4873,-281.4285 -60.3902,114.3361 -134.5806,215.8578 -247.4873,281.4285 z" id="path4413" /></g></svg>