<?xml version="1.0" encoding="UTF-8"?><svg xmlns="http://www.w3.org/2000/svg" xmlns:xlink="http://www.w3.org/1999/xlink" version="1.1" viewBox="0 0 5807.604 5807.6011" width="5807.604" height="5807.6011"><defs id="defs4"><linearGradient id="linearGradient4131"><stop id="stop4133" stop-color="#E6A3DB" offset="0"/><stop id="stop4135" stop-color="#CB6CC1" offset="0.33"/><stop id="stop4135" stop-color="#72368E" offset="1.66"/><stop id="stop4135" stop-color="#3A1E54" offset="1"/></linearGradient><clipPath id="clipPath4115" clipPathUnits="userSpaceOnUse"><path id="path4117" opacity=".5" d="m4576.8 1401.4c-27.262 211.09-11.505 400.55 113.88 534.87l139.2 52.998c100.85-216.51 67.972-384.54 48.479-557.42-113.69 37.936-209.57 10.842-301.57-30.456z" stroke="#f00" stroke-width=".95529px" fill="#0f0"/></clipPath><clipPath id="clipPath4119" clipPathUnits="userSpaceOnUse"><path id="path4121" opacity=".5" d="m4536.5 1410.8c-30.105 233.51-12.997 441.42 124.43 584.1l152.66 52.576c110.84-242.52 74.926-426.13 53.705-615.64-124.75 46.472-229.91 20.617-330.79-21.035z" stroke="#f00" stroke-width="1.0498px" fill="#0f0"/></clipPath><clipPath id="clipPath4123" clipPathUnits="userSpaceOnUse"><path id="path4125" opacity=".5" d="m4475 1454.9c30.838 220.58 99.144 407.43 262.94 508.35l155.26 15.025c41.993-246.38-37.681-406.87-105.18-575.96-104.34 69.699-208.68 68.848-313.02 52.588z" stroke="#f00" stroke-width="1px" fill="#0f0"/></clipPath><linearGradient id="linearGradient4137" y2="1839.7" xlink:href="#linearGradient4131" gradientUnits="userSpaceOnUse" x2="4141.6" y1="2254.6" x1="4162.4"/><linearGradient id="linearGradient4139" y2="1587.4" xlink:href="#linearGradient4131" gradientUnits="userSpaceOnUse" x2="4772.1" y1="1966.1" x1="4790.5"/><mask id="mask4193" maskUnits="userSpaceOnUse"><path id="path4195" d="m4742 1247.3c57.743 103.25 97.841 223.51 122.64 349.58l218.85-6.7216-80.134-408.18z" stroke="#fff" stroke-width="49" fill="#fff"/></mask><mask id="mask4197" maskUnits="userSpaceOnUse"><path id="path4199" d="m4742 1247.3c57.743 103.25 97.841 223.51 122.64 349.58l218.85-6.7216-80.134-408.18z" stroke="#fff" stroke-width="49" fill="#fff"/></mask><clipPath id="clipPath4238" clipPathUnits="userSpaceOnUse"><path id="path4240" opacity=".5" d="m4215.5 1673.8c126.51 164.72 160.42 475.53-37.351 622.52-316.07 234.92-686.18-281.91-533.07-616.6 187.37 46.393 377.81 39.057 570.42-5.9247z" stroke="#f00" stroke-width="1.0125px" fill="#0f0"/></clipPath><clipPath id="clipPath4242" clipPathUnits="userSpaceOnUse"><path id="path4244" opacity=".5" d="m4049.2 1617.7c173.34 109.35 311.77 386.54 180.3 591.59-210.11 327.71-729.27-24.672-703.67-388.75 188.59-21.693 361.48-94.396 523.37-202.84z" stroke="#f00" stroke-width="1px" fill="#0f0"/></clipPath><clipPath id="clipPath4269" clipPathUnits="userSpaceOnUse"><path id="path4271" opacity=".5" d="m4180.5 1624.5c123.4 155.98 161.83 458.9-22.95 611.12-295.31 243.27-657.02-247.28-518.4-581.41 178.79 37.574 359.43 22.409 541.35-29.707z" stroke="#f00" stroke-width=".97655px" fill="#0f0"/></clipPath></defs><g transform="translate(76.17 -103.07)"><path id="path3805" fill="#60a7d8" d="m3996 3456 446 14-210 384-402-72z"/><path id="path3770" d="m3015.1 4036.8c-265.84 453.61-453.85 963.93-222.35 1461.4 52.566 112.95-10.742 113.45-93.209 123.26-124.66 14.829-255.08 14.944-379.63 2.0167-69.438-7.207-120.76-68.252-171.29-134.25-326.12-697.9 132.12-1193.8 480.8-1717.9" stroke="#3489b6" stroke-width="49" fill="#60a7d8"/><path id="path3775" fill="#3489b6" d="m2506 4104c28.571 56.68 52.279 114.06 44 176 35.251-56.75 27.085-125.34 4-198z"/><path id="path3777" d="m4052 3464c98.667 5.6689 197.33 9.2307 296 0" stroke="#3489b6" stroke-width="49" fill="none"/><path id="path3779" d="m3880.6 3796.7c170.78 33.261 340.09 64.32 503.46 82.024 78.357 8.4911 135.17-27.187 192.33-62.225 242.69-148.76 578.42-388.99 760.85-701.45 30.205-51.735 46.54-124.95-84.853-155.56-126.06-29.37-257.35-41.39-384.67-25.456-132.44 16.575-168.95 69.855-212.13 138.59-79.181 126.04-187.17 259.6-302.37 384.91-5.446 5.9243-10.908 11.83-16.384 17.716" stroke="#3489b6" stroke-width="49" fill="#60a7d8"/><path id="path3781" fill="#3489b6" d="m4814 3058c92.667 50.359 265.33 116.11 398 58-132.67-5.4935-265.33-25.848-398-58z"/><path id="path3779-1" fill="#3489b6" d="m4335.2 3440.9c-5.4124 5.8878-10.838 11.774-16.281 17.625-39.212 42.147-84.816 91.762-118.25 132.97 44.344-13.944 114.44-56.94 154.13-99.598 5.5089-5.921 10.989-11.883 16.469-17.844z"/></g><g transform="translate(76.17 -103.07)"><path id="path3808" fill="#ddeef7" d="m2625.5 3024.5c-170.32-269.19-592.96-637.88-1022.4-723.62-460.63-91.964-938.31 82.974-1144.9 717.96 131.33-131.12 275.14-237.44 463.86-254.56-329.95 341.22-435.41 824.62-384.67 1235.3 38.123 308.52 127.01 581.95 73.601 889.81-43.688 251.83-315.62 306.9-483.52 195.62 263.62 578.83 979.34 102.59 1065.1-489.64 71.876 172.26 17.067 438.42-28 576.83 209.05-154.56 318.32-513.21 333.96-773.21 25.526-424.15 60.108-786.71 279.47-1082 147.87-199.07 362.46-309.52 620.45-201.92z"/><path id="path3812" fill="#bde5f3" d="m2480 3100c-228.77-308.6-918.56-661.81-1332-272-313.32 295.41-308.91 687.82-320 1068-12.024 412.31 119.67 1154.9-304 1176-122.04 78.89-251.33 78.081-384 40 83.471 162.66 209.9 233.26 368 236 483.31-98.753 592.82-446.51 680-724 49.17 159.12 49.48 332.89-8 524 241.38-260.52 198.96-682.76 208-988 14.232-480.78-16.606-1174.8 808-1092l212 60z"/><path id="path3810" fill="#bde5f3" d="m2504 3084c-213.29-346.38-594.44-706.12-1200-804 425.17-15.266 911.09 175.37 1336 744z"/><path id="path3808-7" d="m2625.5 3024.5c-170.32-269.19-592.96-637.88-1022.4-723.62-460.63-91.964-938.31 82.974-1144.9 717.96 131.33-131.12 275.14-237.44 463.86-254.56-329.95 341.22-435.41 824.62-384.67 1235.3 38.123 308.52 127.01 581.95 73.601 889.81-43.688 251.83-315.62 306.9-483.52 195.62 263.62 578.83 979.34 102.59 1065.1-489.64 71.876 172.26 17.067 438.42-28 576.83 209.05-154.56 318.32-513.21 333.96-773.21 25.526-424.15 60.108-786.71 279.47-1082 147.87-199.07 362.46-309.52 620.45-201.92z" stroke="#94d1ed" stroke-miterlimit="9" stroke-width="49" fill="none"/></g><g transform="translate(76.17 -103.07)"><path id="path3888" fill="#6daedf" d="m4092 2548-788-176 20 744c-82.667-2.052-165.33-22.964-248-100-168.37-91.648-331.13-87.822-492-52-134.47 65.365-271.35 113.86-384 332-100.87 174.03-98.239 354.53-80 536 25.072 133.33 51.591 266.67 40 400l486.83-156.69c71.504 30.47 210.49 80.22 284.85 86.097l0.8134 43.665 381.81-14.578 22.645-57.255c310-110.6 584.1-319.2 691.1-581.2 55.81-161.8 64.117-343.95 68-528l-40-288c-6.5654-62.667-2.3967-125.33 36-188z"/><path id="path3773" d="m4096.8 2534.2c-52.085 70.28-53.643 211.44-20.604 361.02 39.555 179.08 22.93 390.86-32.552 574.02-89.222 294.56-262.64 547.66-718.13 672.63" stroke="#3489b6" stroke-width="49" fill="none"/><path id="path3832" d="m3348.9 3132c-159.33-17.05-312.83-159.79-469.52-183.85-258.48-39.692-451.62 47.292-596.8 229.1-164.71 206.28-179.22 442.39-163.39 667.26 0.671 9.5312 1.3965 19.042 2.1673 28.53" stroke="#3489b6" stroke-width="49" fill="none"/><path id="path3834" d="m2166.6 4206.8c-138.67 14.489-156.83 43.409-214.96 152.74-206.32 388.03-296.21 809-322.44 1204.9-7.0944 107.07 5.8018 197.22 141.42 214.96 148.99 19.491 297.11 17.526 446.89 8.4853 122.11-7.3709 130.09-69.224 90.51-166.88-137.5-339.23-69.539-1067.5 333.75-1555.6" stroke="#3489b6" stroke-width="49" fill="#6daedf"/><path id="path3836" fill="#3489b6" d="m2635.4 4073.8c76.062 78.757 184.4 102.23 303 117.69l6.3126-48.594c-115.93-15.111-210.93-37.759-274.06-103.12-63.129-65.366-100.09-230.19-114.73-412.1-24.644 192.09 3.4202 367.37 79.482 446.13z"/><path id="path3838" d="m2947 4153.8c-1.917 5.3061-3.823 10.619-5.7179 15.938-167.51 470.22-248.26 990.91-189.25 1510.6 10.844 95.514 49.652 182.61 161.22 195.16 161.24 18.14 324.32 10.889 486.49-5.6568 137.68-14.047 115.98-107.91 84.853-181.02-181.5-426.33-195.77-979.46-162.65-1500.9 0.6303-9.9238 1.2778-19.836 1.9416-29.736" stroke="#3489b6" stroke-width="49" fill="#6daedf"/><path id="path3832-4" fill="#3489b6" d="m2143.6 3842.8-48.875 3.4376c0.6776 9.6263 1.4101 19.213 2.1874 28.781 11.078 136.35 77.092 331.56 56.676 407.82 65.584-61.745 2.6676-282.55-7.8327-411.79-0.7643-9.4072-1.4919-18.814-2.1562-28.25z"/><path id="path3838-0" fill="#3489b6" d="m2924 4145.5c-1.9294 5.3402-3.8428 10.678-5.75 16.031l46.156 16.438c1.8826-5.2846 3.7827-10.54 5.6875-15.813 24.53-67.894 59.358-182.81 76.244-224.54-49.582 31.81-97.489 139.1-122.34 207.88zm375.5 11.125c-0.6657 9.9278-1.3054 19.859-1.9376 29.812l48.875 3.125c0.6285-9.8945 1.2756-19.785 1.9376-29.656 3.998-59.622-5.5255-147.09-29.959-191.48-6.0483 44.706-14.896 128.24-18.916 188.2z"/></g><g transform="translate(76.17 -103.07)"><g id="g3916" transform="matrix(.19845 .18899 -.13605 .33423 2338.3 1893.3)"><path id="path3778" fill="#79cce5" d="m2201.2 2414.6c-147.24 175-357.54 519.23-313.42 747.18 47.175 243.72 237.67 415.65 527.45 379.46 160.67-20.062 323.26-108.56 471.5-39.303 108.55 50.72 144.4 146.3 124.92 243.57-194.13-46.971-226.58 31.923-315.24 120.37-84.056 83.854-539.92 363.33-804.27 15.717-157.98-207.74-230.36-476.76-175.18-757.46 65.123-331.27 278.12-641.54 484.24-709.54z"/><path id="path3776" fill="#518ec9" d="m2419.8 3219.2c84.239 307.89 282.99 734.28 520.63 1019.1 11.408 13.672 18.196 12.528 25.534 8.0508 14.234-8.6833 27.479-18.578 37.387-27.506 7.5918-6.8407 12.152-16.654 4.4358-27.417-223.24-311.39-436.69-687.24-524.11-993.14z"/><path id="path3774" fill="#71a6d2" d="m2341.4 3093.8c8.9011 63.217 38.507 161.05 105.06 149.92 18.603-3.1113 35.657-4.2799 50.761-10.624 35.224-14.796 23.808-98.621 3.5414-158.18l-96.799-49.58z"/><path id="path3772" fill="#bde5f3" d="m2345 2403.7 101.26 299.17 208.2-92.576-148.12 229.76 187.09 276.21-286.28-68.664-147.83 296.66-6.4708-360.35-221.07-80.844 227.83-124.16z"/><path id="path3768" d="m2355.5 2724.7 29.692 127.93 51.494-53.035-43.766 76.216 92.578 110.58-97.282-82.271-47.506 133.16 25.963-153.09-102.74-17.847 100.78-2.6778z" stroke="#71a6d2" stroke-miterlimit="24" fill="#71a6d2"/><path id="path3780" d="m253.76 787.98-12.257-45.692-47.843-7.7305 45.692-12.257 7.7305-47.843 12.257 45.692 47.843 7.7305-45.692 12.257z" fill-rule="evenodd" transform="matrix(.60604 -.79543 .79543 .60604 1087.4 2900.3)" fill="#ddeef7"/><path id="path3780-1" d="m253.76 787.98-12.257-45.692-47.843-7.7305 45.692-12.257 7.7305-47.843 12.257 45.692 47.843 7.7305-45.692 12.257z" fill-rule="evenodd" transform="matrix(.60604 -.79543 .79543 .60604 1223.2 3398.9)" fill="#ddeef7"/><path id="path3780-1-7" d="m253.76 787.98-12.257-45.692-47.843-7.7305 45.692-12.257 7.7305-47.843 12.257 45.692 47.843 7.7305-45.692 12.257z" fill-rule="evenodd" transform="matrix(.86004 -.51023 .51023 .86004 1772.9 3270.4)" fill="#ddeef7"/><path id="path3780-1-4" d="m253.76 787.98-12.257-45.692-47.843-7.7305 45.692-12.257 7.7305-47.843 12.257 45.692 47.843 7.7305-45.692 12.257z" fill-rule="evenodd" transform="matrix(.60604 -.79543 .79543 .60604 2089.2 3365.4)" fill="#ddeef7"/><path id="path3780-1-0" d="m253.76 787.98-12.257-45.692-47.843-7.7305 45.692-12.257 7.7305-47.843 12.257 45.692 47.843 7.7305-45.692 12.257z" fill-rule="evenodd" transform="matrix(.60604 -.79543 .79543 .60604 1400 3642.1)" fill="#ddeef7"/></g></g><g transform="translate(76.17 -103.07)"><path id="path3957-9" fill="#ddeef7" d="m3236.6 1070.9c64.3-326.5 374.2-654.84 850.2-855.54 310.2-130.75 649.4-144.03 901.5 160.27 236.55 285.52 244.32 652.65 262.94 1014.2 6.7061 130.24 21.547 274.81 67.613 413.19 19.534 58.679 79.923 119.62 125.21-0.0001 25.519-67.407 19.011-106.84 10.017-162.77 53.226 90.15 96.813 180.89 60.1 287.98-31.422 91.66-169.74 161.34-230.38 5.0083-77.744-200.4-128.72-425.74-190.32-623.54-155.75-500.12-576.48-525.78-811.35-287.98l-951.59 275.46z"/><path id="path3959" fill="#bde5f3" d="m3495.8 1066.8c15.209-425.81 320.58-652.19 613.52-853.92-445.69 175.36-749.62 454.86-881.47 843.91l127.71 155.26z"/><path id="path3961" fill="#bde5f3" d="m3633.6 971.62c87.784-573.89 968.76-506.16 1222-350.58 110.4 67.815 242.65 142.39 343.07 250.42 39.102 169.45 48.306 338.9 47.579 508.35 8.4335 143 16.6 286.22 57.596 403.17 68.567 144.59 112.95 83.608 155.26 5.0084v-127.71c45.654 78.534 81.929 159.63 55.092 257.93-71.172 159.82-150.89 140.16-235.39 20.033l-200.4-708.8c-124.4-561.2-470-605.88-801.4-505.79l-305.5 285.49z"/><path id="path3957" d="m3236.6 1070.9c64.256-326.53 374.15-654.87 850.2-855.57 310.14-130.75 649.4-144.03 901.5 160.27 236.55 285.52 244.32 652.65 262.94 1014.2 6.7061 130.24 21.547 274.81 67.613 413.19 19.534 58.679 79.923 119.62 125.21-0.0001 25.519-67.407 19.011-106.84 10.017-162.77 53.226 90.15 96.813 180.89 60.1 287.98-31.422 91.66-169.74 161.34-230.38 5.0083-77.744-200.4-128.72-425.74-190.32-623.54-155.75-500.12-576.48-525.78-811.35-287.98l-951.59 275.46z" stroke="#94d1ed" stroke-miterlimit="9" stroke-width="49" fill="none"/></g><g transform="translate(76.17 -103.07)"><path id="path3954" fill="#6daedf" d="m4313.5 921.58c95.619 25.723 191.24 65.331 286.86 131.03 173.37 194.29 330.73 564.2 293.94 913.69 19.456 25.403 32.853 56.863 38.956 95.619 0.5687 68.725-21.995 132.31-81.453 187.7l-138.12 8.5497c-158.97 11.935-156.22 72.77-159.36 136.65l240.82-56.663c-64.904 71.374-125.2 143.85-290.4 191.24-182.31 48.146-368.67 63.777-557.65 58.56l-614.56 86.639-74.37-849.94 106.24-679.96c95.953-78.334 191.88-156.68 339.98-208.94 95.619-34.542 191.24-35.361 286.86 3.5414z"/><path id="path3942" fill="#fff" d="m4796.7 2266.3-33.806 80.134-206.59 47.579 33.806-95.159c61.888-38.758 135.13-32.083 206.59-32.554z"/><path id="path3940" fill="#B0D8E7" d="m4580.8 2324.9 60.312 11.984-66.509 9.2648z"/><path id="path3938" d="m4804 2261.1-48.695 86.765" stroke="#B0D8E7" stroke-width="31" fill="none"/><path id="path3930" fill="#3489b6" d="m4651.1 1901.6c47.243 83.112 145.29 89.173 215.54 92.345 14.072 0.6355 20.718 6.2851 27.625 18.406 6.9067 12.121 10.948 30.786 11.188 47.969 0.6223 44.631-12.915 87.759-37.625 129.69-19.326 32.793-37.385 52.067-85.156 52.479-37.152 0.3206-76.157-0.1671-117.03 6.8854-96.082 16.578-135.91 57.998-129.2 141.54l2.5 31.125 29.656-9.8438c61.718-20.486 129.43-34.947 184.91-44.729-72.747 73.251-216.44 139.45-361.74 170.73-173.96 37.45-412.75 39.09-551.12 28.417 121.93 47.76 380.89 58.325 561.43 19.458s339.09-110.03 412-226.53l26.125-41.75-49.031 4.3437c-70.412 6.2272-140.07 23.338-214 46.719 1.4863-55.962 64.245-77.207 95.771-82.677 34.71-6.0222 71.802-0.5547 110.17-0.8857 59.8-0.5159 101.7-27.581 126.94-70.406 28.239-47.915 45.174-100.19 44.406-155.25-0.3284-23.551-4.8378-49.121-17.625-71.562s-36.933-41.661-67.969-43.063c-67.548-3.0506-145.48 11.597-217.76-43.408z"/><path id="path3936" fill="#3489b6" d="m4636.5 2094.7c-15.798 60.911 68.138 80.94 95.159 15.025-32.84 14.031-65.587 26.494-95.159-15.025z"/><path id="path3944" fill="#3489b6" d="m3284.7 1857.3-48.531 6.6563c55.431 404.47 88.177 791.17 74.892 1195.3-2.5366 77.169-63.103 175.64-89.199 237.67 48.274-33.585 135.1-142.71 138.17-236.04 13.38-407.04-19.569-796.74-75.329-1203.6z"/><path id="path3950" d="m3373.1 1146.9c138-134.9 412-305.73 616-197.82" stroke="#3489b6" stroke-width="49" fill="none"/><path id="path3952" d="m4337.2 931.55c416.96 82.891 568.71 594.59 558.43 1041.7" stroke="#3489b6" stroke-width="49" fill="none"/></g><g transform="translate(76.17 -103.07)"><path id="path4000" fill="#ddeef7" d="m4658.8 868.46-14.166-120.41-357.69 21.249 28.332 219.57c95.412-67.91 196.89-127 343.52-120.41z"/><path id="path3957-4" d="m4684.2 881.95c-144.02-24.248-293.08 29.37-402.1 139.75" stroke="#94d1ed" stroke-miterlimit="9" stroke-width="49" fill="none"/><path id="path4014" fill="#6daedf" d="m4304.6 1167.7-247.9-3.5415-106.24-76.141c62.093-291.18 122.29-582.77 221.34-865.88 74.146-118.45 110.33-78.149 132.8 19.478z"/><path id="path4002" fill="#3489b6" d="m4252.4 132.69c-3.2478-0.27315-6.5302-0.24074-9.8124 0.0937-26.258 2.6759-47.191 19.783-65.063 42.438-17.871 22.655-32.965 52.374-43.969 87.094-85.345 269.29-153.1 545.32-203.69 821.32-1.4572 7.8946 1.1941 16.52 7.0312 22.031 37.169 35.095 78.445 54.202 122.36 62.527-36.359-25.612-62.355-44.232-78.768-88.496 49.958-269.61 116.37-539.39 199.78-802.57 9.498-29.969 22.588-54.917 35.719-71.562 13.131-16.646 26.048-23.469 31.562-24.031 5.5147-0.56198 9.3752-0.51071 17.969 15.875 8.5936 16.386 16.649 48.247 18.625 96.594 11.813 289.08-13.71 869.81 17.075 871.58 30.785 1.7691 43.764-583.11 31.894-873.58-2.148-52.564-9.9676-90.261-24.188-117.38-12.442-23.724-33.796-40.025-56.531-41.938z"/><path id="path4008" d="m4026.7 737.48c68.672 67.773 182.37 116.9 281.72 107.68" stroke="#3489b6" stroke-width="31" fill="none"/><path id="path4010" d="m4080.6 528.38c61.816 34.911 166.53 80.458 231.64 62.604" stroke="#3489b6" stroke-width="31" fill="none"/><path id="path4012" d="m4151.9 298c37.118 33.659 101.18 68.352 155.26 70.117" stroke="#3489b6" stroke-width="31" fill="none"/></g><g transform="translate(76.17 -103.07)"><path id="path4017-8" fill="#ddeef7" d="m3250.4 1863.1c-23.25 351.8 59.357 651.67 201.19 942.43 105.03 215.31 251.84 544.34 94.299 740.38-141.88 176.55-401.15 106.5-538.4-2.5041 101.81 6.5575 189.55 26.555 262.94-70.117 75.95-100.05 39.179-316.47-105.18-488.31-145.55-173.27-281.89-362.31-340.1-589.85-86.409-337.79-30.465-747.08 181.55-979.84z"/><path id="path4019" fill="#bde5f3" d="m3187.3 2996.9c219.98 163.02 396.43 591.67-10.624 626.83-62.979-12.041-109.1-46.558-152.28-84.994 100.57 4.709 201.68 12.059 276.23-113.33 31.362-155.04-32.482-293.28-113.33-428.51z"/><path id="path4021" fill="#bde5f3" d="m3159 1686.5c-239 145.61-274.28 671.68-7.0829 1016.4 145.27 187.42 341.61 356.03 462.71 550.82-46.139-252.58-173.77-459.89-275.02-681.85-73.983-238.67-104.91-480.65-92.077-725.99z"/><path id="path4017" d="m3250.4 1863.1c-23.25 351.8 59.357 651.67 201.19 942.43 105.03 215.31 251.84 544.34 94.299 740.38-141.88 176.55-401.15 106.5-538.4-2.5041 101.81 6.5575 189.55 26.555 262.94-70.117 75.95-100.05 39.179-316.47-105.18-488.31-145.55-173.27-281.89-362.31-340.1-589.85-86.409-337.79-30.465-747.08 181.55-979.84z" stroke="#94d1ed" stroke-miterlimit="9" stroke-width="49" fill="none"/></g><g transform="translate(76.17 -103.07)"><path id="path4050" fill="#6daedf" d="m3470.8 1287.1c-79.049-183.24-216.87-297.9-375.63-388.15-66.321-44.463-101.66-2.1688-135.23 45.075-70.141 201.17-33.915 402.34 0 603.51 95.81 269.33 241.15 379.34 383.14 450.75z"/><path id="path4042" fill="#3489b6" d="m3044.5 858.5c-8.2456-0.16563-16.432 0.79648-24.594 3.125-32.646 9.3141-55.425 38.478-72.625 80.719-84.602 207.78-70.891 437.63 1.7812 632.84 72.672 195.22 259.17 424.75 392.64 418.62-111.94-63.722-277.75-250.42-346.73-435.71-68.978-185.29-81.408-402.95-2.2813-597.28 14.544-35.719 28.451-48.58 40.656-52.062 12.205-3.4821 31.992 0.73233 61.656 18.719 145.82 88.415 310.26 253.12 374.82 359.84-8.0542-126.17-197.48-309.62-349.42-401.74-25.985-15.756-51.17-26.566-75.906-27.062z"/><path id="path4048" fill="#3489b6" d="m3086.4 1203.1c-19.261 204.95 74.978 377.43 212.49 488.72-98.482-126.97-182.65-293.01-212.49-488.72z"/></g><g transform="translate(76.17 -103.07)"><path id="path4202" d="m3537.1 1836.8c-75.806 41.616-172.16 65.644-308.01 17.529 74.496 70.776 213.97 95.165 315.53 38.815z"/><path id="path4204" d="m3542.2 1906.9c-79.876 45.669-171.45 77.359-287.98 76.377 107.84 32.519 213.5 49.939 308.01-10.017z"/></g><g transform="translate(76.17 -103.07)"><path id="path4092" clip-path="url(#clipPath4123)" fill="#fff" d="m4417.4 1447.4 503.34-135.23c27.772 352.21 30.773 640.94-47.579 721.2-281.06-26.448-435.13-218.97-455.76-585.98z"/><path id="path4090" clip-path="url(#clipPath4242)" fill="#fff" d="m3456.4 1760.9 630.38-219.57c209.52 141.09 471.75 592.27-24.79 828.7-245.47-24.952-565.73-49.671-605.59-609.13z"/><path id="path4082" style="color:#000000" d="m4327.2 2042.2c0 156.97-91.374 284.22-204.09 284.22s-204.09-127.25-204.09-284.22 91.374-284.22 204.09-284.22 204.09 127.25 204.09 284.22z" clip-path="url(#clipPath4238)" transform="matrix(.92111 -.34594 .34489 .92956 -410.96 1520.1)" fill="url(#linearGradient4137)"/><path id="path4084" style="color:#000000" d="m4910.7 1785.5c0 161.81-66.148 292.99-147.75 292.99-81.598 0-147.75-131.18-147.75-292.99s66.148-292.99 147.75-292.99c81.598 0 147.75 131.18 147.75 292.99z" clip-path="url(#clipPath4119)" transform="matrix(.93026 -.21726 .25199 .91660 -100.65 1147.4)" fill="url(#linearGradient4139)"/><path id="path4086" style="color:#000000" d="m4279.8 1992c0 113.93-66.593 206.29-148.74 206.29s-148.74-92.359-148.74-206.29 66.593-206.29 148.74-206.29 148.74 92.359 148.74 206.29z" clip-path="url(#clipPath4269)" transform="matrix(.98501 -.32223 .33203 .95595 -607.98 1411.8)"/><path id="path4088" style="color:#000000" d="m4887.2 1744.1c0 97.305-42.81 176.19-95.619 176.19s-95.619-78.881-95.619-176.19c0-97.305 42.81-176.19 95.619-176.19s95.619 78.881 95.619 176.19z" clip-path="url(#clipPath4115)" transform="matrix(1.0101 -.27631 .27653 1.0092 -535.33 1305.2)"/><path id="path4127" style="color:#000000" d="m4778 1732.9c0 55.321-30.271 100.17-67.613 100.17s-67.613-44.846-67.613-100.17c0-55.321 30.271-100.17 67.613-100.17 37.341 0 67.613 44.846 67.613 100.17z" transform="matrix(.93363 .040890 -.046075 1.052 396.89 -288.07)" fill="#fff"/><path id="path4129" style="color:#000000" d="m4069.1 1952.1c0 62.588-29.333 113.33-65.516 113.33-36.184 0-65.517-50.738-65.517-113.33 0-62.588 29.333-113.33 65.517-113.33s65.516 50.738 65.516 113.33z" transform="matrix(1.0739 .11180 -.11621 1.0332 -56.529 -529.22)" fill="#fff"/></g><g transform="translate(76.17 -103.07)"><path id="path3952-5" d="m4583.5 1050.3c231.78 195.46 320.1 578.4 312.17 923.01" stroke="#3489b6" stroke-width="49" fill="none"/><path id="path4142" d="m4055.1 1599-14.469 22.781c65.071 41.278 129.38 111.18 170.69 190.19 41.312 79.012 65.224 170.11 65.336 278.42 21.361-110.38 2.1896-207.55-41.398-290.92-43.588-83.365-110.3-156.16-180.16-200.47z"/><path id="path4144" d="m4101 1332.4c15.868 33.053 29.196 67.817 43.231 99.16 17.938 40.059 2.0639 58.615-18.959 77.089-166.89 146.65-359.66 263.51-596.21 280.6-73.88 5.3354-147.32 29.096-224.36-10.409 58.249 78.682 141.45 68.791 219.05 59.167 281-34.847 493.95-149.91 647.35-303.31 41.815-41.815 32.588-71.571 15.722-104.9-21.417-42.324-46.024-80.852-85.817-97.389z"/><path id="path4146" d="m4459.9 1449.9c-9.3149 205.43 81.558 382.98 249.17 497.08-116.85-131.22-214.5-296.4-201.59-490.82z"/><path id="path4148" d="m4353.5 1288.4c23.322 54.631 61.109 128.47 100.17 137.73 156.11 37.014 345.34-5.812 388.15-136.48 16.656 52.103 9.4331 104.53-47.579 137.73-94.8 55.203-211.27 59.271-318.03 43.823-30.394-4.398-64.136-2.3824-85.142-47.579-21.369-45.978-36.126-90.985-37.563-135.23z"/><path id="path4150" mask="url(#mask4197)" d="m4784.5 1443.1c63.319-25.598 104.27-63.256 131.92-113.33-2.8457 68.193-36.244 121.28-107.13 155.82z"/><path id="path4152" mask="url(#mask4193)" d="m4806.8 1488.4c63.174 3.1452 126.02 7.0273 175.15-24.942-26.946 52.736-86.232 79.33-160.1 74.522z"/><path id="path3930-4" fill="#3489b6" d="m4651.1 1901.6c47.243 83.112 145.29 89.173 215.54 92.345 14.072 0.6355 20.718 6.2851 27.625 18.406 6.9067 12.121 10.948 30.786 11.188 47.969l49-0.6876c-0.3284-23.551-4.8378-49.121-17.625-71.562s-36.933-41.661-67.969-43.063c-67.548-3.0506-145.48 11.597-217.76-43.408z"/></g></svg>