<?xml version="1.0" encoding="UTF-8"?><svg xmlns="http://www.w3.org/2000/svg" version="1.1" viewBox="0 0 5857.9585 5857.962" width="5857.9585" height="5857.962"><defs id="defs4"><clipPath id="clipPath4317" clipPathUnits="userSpaceOnUse"><path id="path4319" opacity=".5" d="m2161.2 3660.8 539.23 227.52c-81.663 174.69-257.42 273.56-401.85 220.91-151.11-55.09-209.82-290.52-137.38-448.43z" stroke="#f00" stroke-width="1.0002px" fill="#0f0"/></clipPath><clipPath id="clipPath4321" clipPathUnits="userSpaceOnUse"><path id="path4323" opacity=".5" d="m2753.4 3302.8 572.13 148.17c-51.621 183.67-209.12 305.9-360.97 274.37-158.87-32.979-256.44-256.71-211.15-422.54z" stroke="#f00" stroke-width="1px" fill="#0f0"/></clipPath><clipPath id="clipPath4071" clipPathUnits="userSpaceOnUse"><path id="path4073" d="m72.731 424.21-38.386 175.77 210.12 127.28c19.44-146.18 61.17-283.18 179.8-377.8 111.44-88.88 264.98 23.09 204.05 171.73-44.4 108.33-131.72 205.13-264.66 290.92l202.04 149.5 137.38-123.23-86.88-52.53c116.05-36.23 208.41-106.33 262.64-197.99 121.27-205 9.87-397.26-145.46-484.88-155.33-87.608-332.84-66.076-452.55 103.04-59.72 84.38-93.41 181.47-101.01 282.84z" stroke="#f00" stroke-width="1px" fill="none"/></clipPath><clipPath id="clipPath4235" clipPathUnits="userSpaceOnUse"><path id="path4237" d="m4527.6 699.79c117.79 333.97 290.12 664.64 315.23 1019.9-227.71 160.16-303.61 319.55-288.96 695.36l1.5452 126.71 503.75 9.2715 197.79-445.03-15.452-395.58c-121-396.4-325.2-716.39-543.9-1023.1z" stroke="#f00" stroke-width="1px" fill="none"/></clipPath><clipPath id="clipPath4263" clipPathUnits="userSpaceOnUse"><path id="path4265" d="m4527.6 699.79c117.79 333.97 290.12 664.64 315.23 1019.9-227.71 160.16-303.61 319.55-288.96 695.36l1.5452 126.71 503.75 9.2715 197.79-445.03-15.452-395.58c-121-396.4-325.2-716.39-543.9-1023.1z" stroke="#000" stroke-width="1px" fill="none"/></clipPath><linearGradient id="linearGradient4273" y2="3562.6" gradientUnits="userSpaceOnUse" x2="3221.7" y1="3570.8" x1="2817.6"><stop id="stop4269" stop-color="#c1ff79" offset="0"/><stop id="stop4271" stop-color="#29a935" offset="1"/></linearGradient></defs><g transform="translate(286.48 -40.033)"><path id="path4086" d="m3132.2 5137.8c91.125 108.76 97.02 263.63 118.98 415.67 9.6394 66.723-6.2638 94.484-58.72 112.8-98.163 34.283-188.52 59.672-301.32 49.448l-225.1-747.7 324-32z" stroke="#93816c" stroke-width="29" fill="#c4b0a7"/><path id="path4090" d="m1581.1 5400.1c-0.5023 60.46-3.3887 125.35-6.5559 186.84-2.5908 50.306-18.951 53.577-50.262 57.911-110.58 15.304-230.01 25.204-346.37 26.224l-107.9-409.1 408-48z" stroke="#93816c" stroke-width="29" fill="#c4b0a7"/><path id="path4178" fill="#7b4127" d="m1702.7 3584.5-339.41-251.73c-346.7 724.1-760.44 1457.5-260.2 2064.7 60.034 30.196 104.5 13.682 149.91 0-52.432 242.52 153.85 83.568 243.24-73.539 62.115 84.142 129.28 179.23 59.397-22.627-24.002-85.796-109.67-171.59-183.85-257.39-202.46-249.02-159.16-685.33 87.681-1052.2 101.98-139.25 245.87-303.86 243.24-407.29z"/><path id="path4176" fill="#7b4127" d="m3066 3776.9-316.78-33.941c-33.008 495.92-139.9 991.84 31.113 1487.8 61.823-37.577 81.6-85.666 115.97-130.11-19.722 154.13-37.256 302.83 127.28 0 114.02 83.938 212.32 149.36 118.79-11.314-60.04-104.95-120.44-209.54-121.62-373.35-1.2324-333.41 16.361-643.29 45.255-939.04z"/><path id="path4082" d="m3062.7 3815c-36.467 322.91-41.116 618.41-40.176 917.88 0.4501 143.43 59.473 265.42 129.8 380.13 82.078 133.88-59.224 56.815-136.39-25.451" stroke="#59271a" stroke-width="29" fill="none"/><path id="path4084" fill="#59271a" d="m2938.3 4987.1-38.416 74.494c-35.832 69.485-73.224 115.67-107.55 143.77l18.367 22.441c24.273-19.867 48.962-46.998 73.246-82.475-3.4798 17.298-6.8994 34.522-9.4903 50.545-3.3521 20.73-5.4884 39.441-4.3242 55.352 0.5821 7.9554 1.912 15.33 5.3203 22.234 3.4084 6.904 9.8548 13.461 18.082 15.996 16.336 5.0336 31.212-3.7126 44.365-15.725s26.12-29.293 38.715-50.867c25.189-43.149 57.408-135.05 52.273-191.97-14.66 54.093-54.165 137.69-77.316 177.35-11.575 19.828-23.436 35.133-33.227 44.074-9.7906 8.9412-15.975 9.5171-16.272 9.4258-0.089-0.027 0.2515 0.6384-0.6172-1.1211-0.8686-1.7596-1.9859-5.8203-2.4023-11.512-0.8329-11.383 0.8309-28.814 4.0312-48.605 6.4006-39.582 18.497-88.909 24.061-130.34z"/><path id="path4088" d="m1717.7 3567.7c-26.989 144.23-169.29 294.03-270.98 439.25-126.45 180.57-352.77 706.57-56.818 1053.3 76.318 89.419 159.65 184.45 185.75 284.09 38.351 146.38-26.376 86.39-71.023-39.336-161.72 279.37-331.01 282.43-230.55 67.745-49.938 34.644-95.573 69.048-168.27 24.038" stroke="#59271a" stroke-width="29" fill="none"/></g><g transform="translate(286.48 -40.033)"><path id="path4095" d="m922.2 2387.7c-130.17-258.8-469.14-397.9-692.74-196.7-19.712 80.134-18.895 157.34 2.1853 231.64 58.275-41.253 116.55-65.826 174.83-72.115-77.461 57.54-143.94 134.84-192.31 244.76 27.606 132.65 59.108 261.41 98.339 382.43-3.4219-197.21 64.719-371.64 218.53-467.66-158.53 211.03-163.33 423.07-76.486 684 5.5394-283.37 166.47-551.59 316.87-548.51" stroke="#271a17" stroke-miterlimit="9" stroke-width="29" fill="#33231f"/><path id="path4097" d="m898.16 2427c-309.62-152.7-561.32-3.9-642.48 356.2" stroke="#271a17" stroke-width="19" fill="none"/><path id="path4099" d="m791.08 2573.4c-208.81-49.4-390.75 209.7-336.53 620.7" stroke="#271a17" stroke-width="19" fill="none"/><path id="path4101" fill="#271a17" d="m207.9 2284.4 12.529 14.283c42.295-37.103 107.85-60.57 158.21-63.072-52.406-11.773-125.31 8.9393-170.74 48.789z"/></g><g transform="translate(286.48 -40.033)"><path id="path4135" d="m97.351 5707.9c349.74 146.79 756.4 100.69 1119.8 58.267 22.095-2.5798 37.236-9.6695 39.161-42.814 5.1734-89.055 9.1777-153.16 3.0905-241.24l-105.5-143.1-1029.6 233.9z" stroke="#c0c3ad" stroke-width="29" fill="#fbffda"/><path id="path4180" d="m2848 5282c94.132 70.288 112.58 238.89 136 420 8.9665 69.335-12.406 83.579-71.172 112.83-170.42 84.826-817.23 91.145-1162.8 18.485l306-515.31 658-214z" stroke="#c0c3ad" stroke-width="29" fill="#fbffda"/><path id="path4168-0" fill="#914e33" d="m2749.3 5232.3c89.271 93.678 211.97 155.3 134.4 30.843-80.004-128.35-125.32-248.51-128.53-375.75-11.335-449.84 28.589-850.43 79.171-1265l-481.1 143.16c-257.75 702.47-450.71 1354.5-642.05 2005.4 3.529 140.09 139.13 29.25 291.33-113.14-58.767 235.66 153.63-41.965 291.33-178.19-71.288 294.37 155.41-7.2324 336.58-217.79-55.17 270.62-6.8881 235.19 118.87-29.45z"/><path id="path4112-3" fill="#914e33" d="m3833 908.22c-448.9 203.98-1143.9 659.98-1577.8 1158.2-28.53 32.763-77.449 40.961-139.86 43.706-363.89 16.006-759.98 5.2562-1027.1 131.12-377.09 177.68-420.51 526.42-423.95 895.98-1.7244 185.02 22.677 370.88-13.112 555.07-12.917 66.478-34.965 125.42-52.448 179.2l866.35-357.69c238.72 221.13 514.59 356.81 828.73 404.47l509.12 11.314c260.83-22.492 511.18-70.712 690.14-294.16 148.51-223.32 82.384-500.31 59.397-766.5 167.37-371.3 357.49-711.08 622.25-947.52z"/><path id="path4133-5" fill="#914e33" d="m624.28 3788.7c-93.353 0.3348-180.55 90.788-239.51 237.97-206.06 514.39-255.84 929.37-319.87 1583.9-4.9771 50.88-0.60787 102.29 60.265 109.71 241.25 29.403 414.94-52.712 560.93-180.79-28.772 45.852-154.5 156.19-40.361 133.82 116.86-22.899 216.35-90.955 310.78-161.64-87.716 134.58-125.85 196.65-64.594 179.22 133.17-37.892 260.58-170.78 297.93-261.12 52.324 150.23 113.84 168.42 58.72 10.817-36.501-104.37-100.13-166.23-160.71-234.88-95.852-108.62-152.97-245.43-151.43-407.95 3.712-393.5 142.6-630.29 352.16-867.53 131.89-149.3 178.76-266.49 163.95-504.66"/><path id="path4112" fill="#59271a" d="m3827 895.02c-451.2 204.98-1146.6 661.18-1582.7 1161.9-23.926 27.476-68.085 36.038-129.56 38.742-363.14 15.973-760.23 4.1343-1032.6 132.49-191.66 90.307-300 225.62-359.49 384.05-59.487 158.43-71.054 339.6-72.781 524.9-1.7371 186.38 22.359 371.26-12.846 552.44-12.634 65.021-34.376 113.99-42.365 197.73 24.462-78.514 57.631-124.26 70.832-192.19 36.372-187.19 11.665-374.05 13.377-557.7 1.7173-184.25 13.579-362.23 70.934-514.98 57.354-152.75 159.27-280.64 344.7-368.02 261.83-123.37 656.92-113.71 1021.6-129.75 63.345-2.7864 117.02-10.62 150.16-48.67 431.74-495.8 1126.2-951.6 1572.9-1154.5z"/><path id="path4133" fill="#59271a" d="m1277.7 3920.7c-210.63 238.44-352.05 480.13-355.79 876.99-1.5658 165.99 57.104 306.67 155.06 417.68 61.05 69.18 122.53 128.97 157.89 230.07 13.53 38.69 19.645 66.432 20.652 82.07 0.057 0.8896-0.056 1.2912-0.039 2.0996-4.0463-4.6027-8.9058-11.19-14.223-20.022-11.547-19.179-24.91-47.711-37.73-84.522l-12.533-35.984-14.559 35.213c-17.411 42.11-57.588 97.052-109.49 145.13-51.9 48.077-115.55 89.524-179.01 107.58-5.1609 1.4684-8.7103 1.9522-11.191 2.1171 0.54843-3.238 2.1071-8.4566 4.9336-15.096 11.721-27.532 43.143-77.134 86.969-144.38l44.697-68.58-65.535 49.055c-94.092 70.429-191.82 136.86-304.88 159.01-13.41 2.6278-22.781 3.0236-27.559 2.4024-1.3362-0.1738-1.3489-0.2048-1.8496-0.3047 0.11366-0.7676 0.19141-1.5707 0.81055-3.2344 1.6128-4.3338 5.1398-10.717 9.9629-17.807 9.6462-14.18 24.266-31.391 38.312-47.83 14.047-16.439 27.425-31.839 35.754-45.111l52.738-84.045-74.584 65.438c-144.01 126.35-312.4 206.21-549.61 177.3-26.485-3.2279-36.646-13.416-43.123-29.562-6.4769-16.146-6.8673-39.786-4.4648-64.346 64.013-654.38 113.53-1067.3 318.89-1579.9 28.943-72.251 64.723-130.06 103.68-169.22 38.956-39.16 80.418-59.492 122.43-59.643l-0.10546-29c-51.343 0.1842-100.16 25.244-142.88 68.19-42.722 42.946-80.025 103.96-110.04 178.89-206.76 516.14-256.8 933.21-320.84 1587.9-2.5747 26.32-3.2695 53.83 6.4121 77.965s32.141 43.362 66.529 47.553c195.04 23.77 348.06-24.836 476.99-110.95-0.0213 0.031-0.0471 0.064-0.0684 0.096-5.5577 8.1699-10.178 15.98-13.164 24.004-2.9862 8.0241-4.9313 17.326-0.39062 26.748 4.5406 9.4223 14.788 14.351 24.869 15.662 10.082 1.3108 21.75 0.2626 36.875-2.7012 94.615-18.54 177.22-65.484 254.2-119.05-21.976 34.772-38.771 63.118-47.711 84.117-3.49 8.1974-5.952 15.433-7.0352 22.539-1.0832 7.1058-0.96811 14.963 3.8164 22.098 4.7845 7.1351 13.432 10.48 20.809 10.943 7.377 0.4634 14.731-0.9151 23.287-3.3496 69.704-19.834 136.35-63.775 190.78-114.2 43.275-40.087 78.6-84.061 101.38-124.66 9.5735 23.605 19.218 43.294 28.381 58.512 6.4901 10.78 12.706 19.428 18.867 26.113 6.1617 6.6849 11.842 11.955 20.805 14.117 4.4813 1.0812 10.314 0.8453 15.188-1.748 4.8739-2.5933 8.0489-6.8518 9.8965-10.873 3.6951-8.0424 3.9538-16.219 3.291-26.51-1.3256-20.582-8.1891-49.667-22.217-89.779-37.645-107.65-103.42-171.58-163.52-239.69-93.746-106.23-149.31-239.18-147.81-398.21 3.6804-390.15 140.03-622.04 348.53-858.06 133.25-150.85 197.79-343.64 156.96-535.04 2.874 193.21-48.17 368.08-178.7 515.84z"/><path id="path4156" fill="#59271a" d="m1464.9 3487.8-5.7711 38.745c208.78 244.62 625.12 364.85 831.22 394.23l4.0918-28.709c-205.97-29.36-636.96-158.04-829.54-404.27z"/><path id="path4162" fill="#59271a" d="m2277.9 3920.6c-217.15 613.36-429.46 1307.4-569.2 1824-6.6266 24.495-8.8557 44.456-6.3828 61.211 2.4729 16.754 10.798 30.954 23.826 38.352s28.549 7.9018 44.713 4.6524c16.164-3.2495 33.599-10.367 52.264-20.639 63.303-34.836 112.38-79.948 158-126.69-0.024 0.079-0.061 0.1708-0.084 0.25-5.9362 20.112-10.042 36.137-0.3359 51.113 4.8533 7.4883 14.704 11.862 23.236 11.738 8.5323-0.1237 16.608-2.914 25.799-7.373 18.382-8.9182 41.361-25.417 71.588-51.25 63.771-54.502 118.81-120.37 171.68-182.48-5.7395 15.118-10.327 29.838-12.301 42.754-1.6512 10.805-2.2308 21.065 3.2324 31.086 2.7316 5.0103 7.5521 9.6023 13.23 11.928 5.6784 2.3254 11.675 2.6015 17.564 1.8027 23.559-3.1948 51.78-21.103 98.996-59.375 87.186-70.67 156.73-162.52 214.69-252.48-9.6858 43.807-18.819 85.249-21.551 114.57-1.0984 11.79-1.4066 21.609 0.6894 30.734 1.048 4.5625 2.7111 9.2595 6.6328 13.562 3.9218 4.303 10.703 7.2106 16.582 7.1055 11.758-0.2102 19.345-6.3733 28.887-14.895 9.5414-8.5212 20.55-20.688 34.023-37.482 52.531-65.481 91.879-189 85.788-265.49-15.33 73.108-59.454 186.32-108.41 247.35-12.898 16.078-23.223 27.304-30.721 34-1.8278 1.6324-3.501 2.8965-4.9726 3.9082-0.2324-4.0829-0.2637-9.2427 0.375-16.098 3.8557-41.387 24.486-120.63 38.178-192.39l15.385-80.635-42.078 70.484c-65.297 109.38-146.24 229.71-251.76 315.24-45.846 37.161-75.252 51.896-84.631 53.168-1.3835 0.1876-1.2236 0.1-1.5801 0.057-0.2468-1.2581-0.8957-5.1273 0.1172-11.756 4.7867-31.325 37.864-97.259 56.092-129.86l57.779-103.34-81.01 86.348c-77.193 82.28-151.1 184.39-239.75 260.16-29.278 25.022-51.368 40.395-65.404 47.205-5.7255 2.7778-9.5497 3.7481-11.816 4.1094-0.025-3.679-0.1186-12.725 3.5898-25.289 5.1306-17.383 14.923-40.853 28.436-68.205l42.17-85.359-65.668 68.936c-62.709 65.827-121.29 131.58-204.65 177.45-16.874 9.286-32.039 15.213-43.998 17.617s-20.08 1.1694-24.678-1.4414c-4.5976-2.6108-7.8815-6.6924-9.4571-17.367-1.5755-10.675-0.2946-27.292 5.6875-49.404 139.6-516.04 351.98-1210.3 568.96-1823 29.362-82.92 53.345-162.16 77.895-228.13-41.009 59.689-76.105 136.18-105.65 219.62z"/><path id="path4168" fill="#59271a" d="m2784.5 3931.2c-32.017 308.72-52.354 618.8-43.842 956.63 3.2873 130.46 49.866 253.35 130.72 383.06 9.3852 15.056 15.553 27.076 18.945 35.822 2.1593 5.5679 2.8213 9.1306 3.1133 11.578-2.2289-0.2677-5.261-0.8191-9.4785-2.3359-27.183-9.7761-90.734-51.993-134.18-97.58l-9.1419 31.988c44.268 43.18 99.522 80.66 133.5 92.881 9.2728 3.3348 17.746 5.4426 27.004 3.916 9.2582-1.5266 19.136-10.444 21.051-20.322 1.915-9.8786-0.4403-19.272-4.8379-30.611-4.3975-11.339-11.364-24.619-21.373-40.676-79.156-126.99-123.21-244.41-126.34-368.45-8.4722-336.23 11.754-644.92 43.695-952.91 10.691-103.08 27.331-243.18 11.386-331.41-6.6726 84.829-29.514 225.09-40.23 328.42z"/><path id="path4189" d="m2797.2 3928.3c275.23-11.927 484.87-65.639 664.34-257.87 179.46-192.23 126.92-595.49 92.313-783.09 123.24-348.56 369.64-720.62 589.5-960.79" stroke="#59271a" stroke-width="29" fill="none"/></g><g transform="translate(286.48 -40.033)"><g id="g4166" transform="matrix(.57761 0 0 .57761 62.736 1423.8)"><path id="path4074" fill="#c1ee9d" d="m1354.4 2333.2-38.386 175.77 210.11 127.28c19.445-146.18 61.178-283.18 179.81-377.8 111.44-88.881 264.97 23.09 204.05 171.73-44.403 108.34-131.72 205.13-264.66 290.92l202.03 149.5 137.38-123.24-86.873-52.528c116.05-36.226 208.41-106.33 262.64-197.99 121.28-205 9.872-397.26-145.46-484.87-155.33-87.612-332.84-66.081-452.55 103.04-59.726 84.379-93.413 181.46-101.02 282.84z"/><circle id="path4076" style="color:#000000" d="m 1550.3956,2377.6067 c 0,14.5052 -11.7588,26.264 -26.264,26.264 -14.5052,0 -26.264,-11.7588 -26.264,-26.264 0,-14.5052 11.7588,-26.264 26.264,-26.264 14.5052,0 26.264,11.7588 26.264,26.264 z" cy="2377.6" cx="1524.1" r="26.264" fill="#65c096"/><circle id="path4076-5" style="color:#000000" d="m 1679.6951,2145.2715 c 0,14.5052 -11.7588,26.2639 -26.2639,26.2639 -14.5052,0 -26.264,-11.7587 -26.264,-26.2639 0,-14.5052 11.7588,-26.264 26.264,-26.264 14.5051,0 26.2639,11.7588 26.2639,26.264 z" cy="2145.3" cx="1653.4" r="26.264" fill="#65c096"/><circle id="path4076-7" style="color:#000000" d="m 1889.8068,2100.825 c 0,14.5051 -11.7588,26.2639 -26.264,26.2639 -14.5051,0 -26.2639,-11.7588 -26.2639,-26.2639 0,-14.5052 11.7588,-26.264 26.2639,-26.264 14.5052,0 26.264,11.7588 26.264,26.264 z" cy="2100.8" cx="1863.5" r="26.264" fill="#65c096"/><circle id="path4076-53" style="color:#000000" d="m 2037.2891,2193.7588 c 0,14.5052 -11.7588,26.264 -26.264,26.264 -14.5051,0 -26.2639,-11.7588 -26.2639,-26.264 0,-14.5052 11.7588,-26.264 26.2639,-26.264 14.5052,0 26.264,11.7588 26.264,26.264 z" cy="2193.8" cx="2011" r="26.264" fill="#65c096"/><circle id="path4076-1" style="color:#000000" d="m 2077.6951,2397.8098 c 0,14.5052 -11.7588,26.264 -26.2639,26.264 -14.5052,0 -26.264,-11.7588 -26.264,-26.264 0,-14.5052 11.7588,-26.264 26.264,-26.264 14.5051,0 26.2639,11.7588 26.2639,26.264 z" cy="2397.8" cx="2051.4" r="26.264" fill="#65c096"/><circle id="path4076-8" style="color:#000000" d="m 1893.8475,2613.9824 c 0,14.5052 -11.7588,26.264 -26.264,26.264 -14.5052,0 -26.264,-11.7588 -26.264,-26.264 0,-14.5052 11.7588,-26.2639 26.264,-26.2639 14.5052,0 26.264,11.7587 26.264,26.2639 z" cy="2614" cx="1867.6" r="26.264" fill="#65c096"/><path id="path4117" d="m18.183 523.21 266.68 155.56 125.26 88.893 220.21 161.62 88.893-78.792-143.44-89.904c108.86-45.35 206.9-127.93 258.61-219.2 76.66-135.33 39.05-298.89-32.33-405.07l147.48 104.05 4.04 715.18-400.02 22.23-539.42-367.7z" clip-path="url(#clipPath4071)" transform="translate(1281.7 1908.9)" fill="#65c096"/></g></g><g transform="translate(286.48 -40.033)"><path id="path4190" fill="#f0dc82" d="m4351.5 426.58c-59.5-120.73-134.7-235.17-231.9-340.82-83.9-82.064-96.1 9.372-110.3 96.17l-203.65-35.355c-38.724-14.35-70.439-7.6699-79.196 67.882-14.175 118.5-19.687 231.23-22.627 342.24 107.73-36.558 219.9-48.737 335.17-43.841 111.64-15.696 215.98-44.173 312.54-86.267z"/><path id="path4193" fill="#6a86a6" d="m4302 336.07c-145.74 42.543-291.7 89.004-429.92 142.84l7.0711 36.77 168.29-8.4853c105.59-6.4708 204.11-36.482 298.4-80.61z"/><path id="path4196" d="m4243.9 464.6-63.374-101.62-56.818 22.946 55.726 99.432-36.597 12.003-80.353-142.16 131.35-49.448 89.624 149.89z" stroke="#a9babc" stroke-width="19" fill="#fafffe"/><path id="path4192" d="m4455.9 652.54c100.91-141.87 217.93-326.24 241.46-482.92-142.45 159.77-410.9 337.68-696 338.69-252.08 0.89194-463.84 92.968-657.78 238.2 241.38 68.041 479.03 91.358 714.6 89.598z" stroke="#b19655" stroke-width="29" fill="#f0dc82"/><path id="path4198" d="m4352.1 429.64c-54.4-118-140-236.88-228.4-339.82-67.4-78.423-114.9-15.41-114.7 84.13" stroke="#b19655" stroke-width="29" fill="none"/><path id="path4200" fill="#b19655" d="m4023.8 165.97c-5.2776 1.1933-14.045 1.3014-26.629-0.84765-63.666-10.873-139.37-23.683-198.1-36.998-23.704-5.3742-45.541-4.2387-61.184 9.6172s-22.347 35.725-26.328 66.008c-15.482 117.76-21.069 232.05-19.791 346.24l28.998-0.32421c-1.2652-113.03 4.2617-225.88 19.545-342.13 3.6172-27.515 10.214-42.244 16.805-48.082 6.5905-5.8376 15.918-7.4906 35.543-3.041 60.049 13.615 136 26.437 199.63 37.303 14.808 2.5288 27.093 3.4366 37.746 0.58203 36.559-9.7958 35.041-52.821 27.228-90.14-7.813 33.704-16.515 57.986-33.462 61.817z"/></g><g transform="translate(286.48 -40.033)"><path id="path4207-4" fill="#914e33" d="m3761.1 1453.9c-13.695 101.99-36.608 306.94 44.812 445.03 30.005 50.89 70.878 58.064 134.44 60.265 243.79 8.4404 571.28 193.8 638.19 394.04 12.236 36.62 44.765 64.108 72.627 67.991 86.151 12.007 165.91 18.366 247.24 21.634 33.995 1.3656 66.185-13.143 91.17-41.722 54.961-62.865 112.51-117.9 168.43-183.88 67.742-79.922 66.249-186.51 61.81-291.51-12.128-286.84-267.52-822.78-522.29-1164.1l-351.6-131.42-588.3 527.47"/><path id="path4207" fill="#59271a" d="m4709.2 752.93-23.24 17.346c126.6 169.61 253.79 388.27 350.57 599.85 96.786 211.58 162.96 416.7 168.85 556.21 4.4275 104.72 5.1792 206.53-58.383 281.52-55.324 65.272-112.79 120.23-168.29 183.72-22.524 25.763-50.16 37.963-79.672 36.777-80.957-3.2522-160.19-9.571-245.82-21.506-20.124-2.8047-50.398-26.862-60.877-58.225-35.279-105.59-136.46-203.23-259.05-276.78-122.59-73.553-267.05-122.81-392.38-127.15-31.342-1.0852-55.943-3.5485-75.096-10.916-19.152-7.3676-33.661-19.002-47.352-42.223-77.627-131.66-64.89-330.06-50.909-448.48-30.818 118.69-59.283 318.69 25.929 463.21 16.314 27.67 37.245 45.066 61.92 54.559 24.675 9.4921 52.289 11.717 84.506 12.832 118.45 4.101 259.64 51.741 378.47 123.04 118.83 71.296 214.85 166.45 246.47 261.11 13.992 41.878 48.778 72.796 84.377 77.758 86.669 12.079 166.96 18.478 248.66 21.76 38.477 1.5456 75.222-15.272 102.67-46.666 54.42-62.246 112.05-117.36 168.58-184.05 71.921-84.853 69.687-196.22 65.236-301.5-6.2292-147.33-73.82-353.6-171.46-567.04-97.637-213.44-225.53-433.41-353.71-605.13z"/><path id="path4207-4-6" clip-path="url(#clipPath4263)" fill="#fff" d="m3761.1 1453.9c-13.695 101.99-36.608 306.94 44.812 445.03 30.005 50.89 70.878 58.064 134.44 60.265 243.79 8.4404 571.28 193.8 638.19 394.04 12.236 36.62 44.765 64.108 72.627 67.991 86.151 12.007 165.91 18.366 247.24 21.634 33.995 1.3656 66.185-13.143 91.17-41.722 54.961-62.865 112.51-117.9 168.43-183.88 67.742-79.922 66.249-186.51 61.81-291.51-12.128-286.84-267.52-822.78-522.29-1164.1"/><path id="path4211" fill="#c2bead" d="m4750.9 2403.4c-1.6201 27.288-7.5055 52.06-15.452 74.945 18.24-20.879 26.264-49.092 27.814-74.172 0.7611-12.314-11.8-10.244-12.362-0.7727z"/><path id="path4211-7" fill="#c2bead" d="m4817.2 2406.4c0.3608 26.626-3.7173 51.109-9.9895 73.904 16.69-21.572 22.653-49.548 22.382-74.025-0.1329-12.018-12.518-9.1204-12.393 0.1214z"/><path id="path4211-8" fill="#c2bead" d="m4879.7 2412.3c-0.2702 26.446-4.9276 50.666-11.739 73.159 17.198-21.048 23.823-48.694 24.132-73.003 0.1519-11.936-12.3-9.3352-12.393-0.1558z"/><circle id="path4234" style="color:#000000" d="m 4733.936,2363.6379 c 0,5.4312 -4.4028,9.834 -9.8339,9.834 -5.4312,0 -9.834,-4.4028 -9.834,-9.834 0,-5.4311 4.4028,-9.8339 9.834,-9.8339 5.4311,0 9.8339,4.4028 9.8339,9.8339 z" cx="4724.1" stroke="#c2bead" cy="2363.6" r="9.8339" stroke-width="4" fill="none"/><circle id="path4234-9" style="color:#000000" d="m 4750.3256,2333.0437 c 0,5.4311 -4.4028,9.8339 -9.8339,9.8339 -5.4311,0 -9.8339,-4.4028 -9.8339,-9.8339 0,-5.4311 4.4028,-9.8339 9.8339,-9.8339 5.4311,0 9.8339,4.4028 9.8339,9.8339 z" cx="4740.5" stroke="#c2bead" cy="2333" r="9.8339" stroke-width="4" fill="none"/><circle id="path4234-98" style="color:#000000" d="m 4788.0224,2347.2483 c 0,5.4311 -4.4028,9.8339 -9.8339,9.8339 -5.4311,0 -9.8339,-4.4028 -9.8339,-9.8339 0,-5.4311 4.4028,-9.8339 9.8339,-9.8339 5.4311,0 9.8339,4.4028 9.8339,9.8339 z" cx="4778.2" stroke="#c2bead" cy="2347.2" r="9.8339" stroke-width="4" fill="none"/><circle id="path4234-6" style="color:#000000" d="m 4935.8079,2395.8713 c 0,4.679 -3.793,8.472 -8.472,8.472 -4.6789,0 -8.4719,-3.793 -8.4719,-8.472 0,-4.6789 3.793,-8.4719 8.4719,-8.4719 4.679,0 8.472,3.793 8.472,8.4719 z" cx="4927.3" stroke="#c2bead" cy="2395.9" r="8.4719" stroke-width="4" fill="none"/><circle id="path4234-1" style="color:#000000" d="m 4961.4856,2370.1941 c 0,4.6789 -3.793,8.4719 -8.4719,8.4719 -4.6789,0 -8.472,-3.793 -8.472,-8.4719 0,-4.6789 3.7931,-8.4719 8.472,-8.4719 4.6789,0 8.4719,3.793 8.4719,8.4719 z" cx="4953" stroke="#c2bead" cy="2370.2" r="8.4719" stroke-width="4" fill="none"/><path id="path4269" fill="#c2bead" d="m5082.3 2294.5c-84.35-24.371-258.92-17.361-326.82-3.0905 64.128-37.707 247.24-42.124 340.73-13.907z"/><path id="path4271" fill="#c2bead" d="m5009.7 2057.3c-13.826-24.487-24.999-49.437-23.179-78.035 2.66-41.784-51.957-47.845-48.675-0.7726 2.8284 40.565 25.607 74.326 71.854 78.808z"/><path id="path4273" fill="#59271a" d="m4594.6 1638.1c-24.792 92.694-168.11 139.38-263.33 87.413 97.667 11.834 198.08-22.412 263.33-87.413z"/><path id="path4207-5" clip-path="url(#clipPath4235)" fill="#c2bead" d="m4709.2 752.93-23.24 17.346c126.6 169.61 253.79 388.27 350.57 599.85 96.786 211.58 162.96 416.7 168.85 556.21 4.4275 104.72 5.1792 206.53-58.383 281.52-55.324 65.272-112.79 120.23-168.29 183.72-22.524 25.763-50.16 37.963-79.672 36.777-80.957-3.2522-160.19-9.571-245.82-21.506-20.124-2.8047-50.398-26.862-60.877-58.225-35.279-105.59-136.46-203.23-259.05-276.78-122.59-73.553-267.05-122.81-392.38-127.15-31.342-1.0852-55.943-3.5485-75.096-10.916-19.152-7.3676-33.661-19.002-47.352-42.223-77.627-131.66-64.89-330.06-50.909-448.48-30.818 118.69-59.283 318.69 25.929 463.21 16.314 27.67 37.245 45.066 61.92 54.559 24.675 9.4921 52.289 11.717 84.506 12.832 118.45 4.101 259.64 51.741 378.47 123.04 118.83 71.296 214.85 166.45 246.47 261.11 13.992 41.878 48.778 72.796 84.377 77.758 86.669 12.079 166.96 18.478 248.66 21.76 38.477 1.5456 75.222-15.272 102.67-46.666 54.42-62.246 112.05-117.36 168.58-184.05 71.921-84.853 69.687-196.22 65.236-301.5-6.2292-147.33-73.82-353.6-171.46-567.04-97.637-213.44-225.53-433.41-353.71-605.13z"/></g><g transform="translate(286.48 -40.033)"><path id="path4295-0" fill="#fff" d="m4058.1 1437.1 568.18-163.9c49.448 184.14-23.642 369.37-170.45 419.58-153.6 52.531-351.94-90.093-397.73-255.68z"/><ellipse id="path4307" style="color:#000000" d="m 3253.0004,3571.1753 c 0,100.5427 -106.6596,182.0487 -238.2309,182.0487 -131.5712,0 -238.2308,-81.506 -238.2308,-182.0487 0,-100.5427 106.6596,-182.0487 238.2308,-182.0487 131.5713,0 238.2309,81.506 238.2309,182.0487 z" clip-path="url(#clipPath4321)" rx="238.23" ry="182.05" transform="matrix(.86073 -.50906 .51114 .85949 0 0)" cy="3571.2" cx="3014.8" fill="url(#linearGradient4273)"/><ellipse id="path4309" style="color:#000000" d="m 2571.0407,3984.3762 c 0,80.6558 -89.9957,146.0402 -201.0109,146.0402 -111.0153,0 -201.0109,-65.3844 -201.0109,-146.0402 0,-80.6558 89.9956,-146.0402 201.0109,-146.0402 111.0152,0 201.0109,65.3844 201.0109,146.0402 z" clip-path="url(#clipPath4317)" rx="201.01" ry="146.04" transform="matrix(.78033 -.62536 .64786 .76176 0 0)" cy="3984.4" cx="2370"/><ellipse id="path4331" style="color:#000000" d="m 4702.3359,-237.77049 c 0,35.98586 -34.6452,65.15817 -77.3823,65.15817 -42.737,0 -77.3822,-29.17231 -77.3822,-65.15817 0,-35.98587 34.6452,-65.15818 77.3822,-65.15818 42.7371,0 77.3823,29.17231 77.3823,65.15818 z" rx="77.382" ry="65.158" transform="matrix(.93026 .36691 -.31165 .95020 0 0)" cy="-237.77" cx="4625" fill="#fff"/><ellipse id="path4333" style="color:#000000" d="m 4615.9141,53.56052 c 0,12.702549 -12.3122,23 -27.5,23 -15.1879,0 -27.5,-10.297451 -27.5,-23 0,-12.702549 12.3121,-23 27.5,-23 15.1878,0 27.5,10.297451 27.5,23 z" rx="27.5" ry="23" transform="matrix(.94288 .33312 -.33312 .94288 0 0)" cy="53.561" cx="4588.4" fill="#fff"/></g><g transform="translate(286.48 -40.033)"><path id="path4336" d="m3973.9 1446.2c-33.929 9.9585-26.814 30.299 5.6569 22.627 231.01-54.58 465.37-102.48 683.07-189.5 63.58-25.418 33.034-75.832-19.799-50.912-213.17 100.55-443.72 151.69-668.92 217.79z"/><path id="path4338" d="m4061.6 1442c56.702 173.85 209.34 295.38 395.98 244.66 186.64-50.722 204.16-257.61 165.46-414.36" stroke="#000" stroke-width="14" fill="none"/></g><g transform="translate(286.48 -40.033)"><path id="path4345-8" fill="#33231f" d="m3781.6 906c-316.94 126.02-767.25 437.86-1103.1 752.36-29.232 201.13 57.896 363.89 124.45 509.12 62.114 135.54 110.3 274.28 132.94 414.26 28.118-172.79 63.131-320.18 124.79-459.03 61.635-138.79 122.48-266.47 140.64-430.66 19.48 158.69 1.6405 324.06-2.5174 489.95-2.9096 116.09 4.291 232 57.172 348 19.548-101.36 68.763-204.91 126.24-292.38 145.6-221.6 160.2-417.9 135.8-661.7-11.346-113.48-19.76-226.56-5.7438-324.81 41.799 164.45 91.365 314.46 145.74 458.81 5.3086-219.9 21.252-555.15 152-756z"/><path id="path4341" d="m3781.6 906c-316.94 126.02-767.25 429.37-1103.1 743.88-29.232 201.13 57.896 372.38 124.45 517.6 62.114 135.54 110.3 274.28 132.94 414.26 28.118-172.79 63.131-320.18 124.79-459.03 61.635-138.79 122.48-266.47 141.99-418.61" stroke="#271a17" stroke-miterlimit="9" stroke-width="29" fill="none"/><path id="path4343" d="m3471 1062.3c41 222.1 109 440.7 187 647.7 5.3086-219.9 21.252-555.15 152-756" stroke="#271a17" stroke-miterlimit="9" stroke-width="29" fill="none"/><path id="path4345" d="m3222.8 1221.4c-52 145-38.5 329.7-22.8 458.6 20.826 170.74 2.9863 336.11-1.1716 502-2.9096 116.09 4.291 232 57.172 348 19.548-101.36 68.763-204.91 126.24-292.38 145.6-221.5 160.2-417.8 135.8-661.6-11.346-113.48-19.76-226.56-8.6344-336.34" stroke="#271a17" stroke-width="29" fill="none"/><path id="path4347" d="m2842 1510c-4.0689 106.47 4.1095 208.79 34 304 35.989 114.63 29.842 247.46 2 342-14.926 50.684-16.852 105.49-14 162" stroke="#271a17" stroke-width="19" fill="none"/><path id="path4349" d="m2958 2464c-15.635-110.12 2.8765-257.25 24-354 28.54-130.71 22.878-261.62-14-394-25.185-90.405-35.71-182.67-36-274" stroke="#271a17" stroke-width="19" fill="none"/><path id="path4351" d="m3326.4 1151.2c-78.211 213.54-67.95 412.13-25.598 606.11 29.537 135.28 34.084 274.39-5.6569 410.12-33.166 113.27-36.53 224.39-36.77 336.58" stroke="#271a17" stroke-width="19" fill="none"/><path id="path4353" d="m3762 910c-183.4 112.4-171.4 479-138 696" stroke="#271a17" stroke-width="19" fill="none"/></g><g transform="translate(286.48 -40.033)"><path id="path4356" d="m3900 1154c-235.2-200.13-312.2-659.48-128-856 171.38 127.52 239.72 341.34 256 532" stroke="#59271a" stroke-width="29" fill="#914e33"/><path id="path4358" fill="#59271a" d="m3830 510c113.5 123.06 145.05 320.76 116 444-7.0746-122.16-34.802-313.72-116-444z"/></g><g transform="translate(286.48 -40.033)"><path id="path4369" d="m4420.5 611.5 237.93 181.36c95.206 51.211 157.53 172.13 208.82 274.36 8.018-127.37-34.18-245.16-84.368-362.04 142.5 75.386 237.86 203.81 339.41 325.27-25.434-172.14-95.407-343.74-298.84-449.72 88.368-3.4796 180.74 26.433 257.1 44.77-130.71-156.76-499.34-227.21-660.05-14z" stroke="#271a17" stroke-width="29" fill="#33231f"/><path id="path4361" d="m4695.2 1426.4c-57.19-241.73-147.21-496.73-285.67-707.11 12.497 226.06-44.99 454.12-237.59 656.2 29.986-117.71 35.632-217.17 45.255-319.61-58.81 127.59-119.09 267.68-255.73 379.7-6.6169-100.92-6.8533-213.05 2.3432-308.7-36.605 85.878-63.181 206.77-72.711 307.19-48.405-193.97-37.199-421.4 80.024-612.94 164.58-268.93 368.08-270.52 540.23-195.16 276.18 120.9 242.75 568.25 183.85 800.44z" stroke="#271a17" stroke-miterlimit="9" stroke-width="29" fill="#33231f"/><path id="path4363" d="m4196 612c-140.1 203.36-194.3 535.4-230 806" stroke="#271a17" stroke-width="19" fill="none"/><path id="path4365" d="m4280 592c296.2 77.82 399.7 465.6 394 742" stroke="#271a17" stroke-width="19" fill="none"/><path id="path4367" fill="#2d1e1b" d="m4146.5 1174.7c83.165-168.18 112.89-347.6 147.08-526.09-12.061 186.75-38.984 340.09-71.711 497.18l-25.294-21.47z"/><path id="path4371" d="m4450 608c231.08-39.891 483.99 33.197 596 330" stroke="#271a17" stroke-width="19" fill="none"/></g></svg>