<?xml version="1.0" encoding="UTF-8" standalone="no"?>
<!-- Created with Inkscape (http://www.inkscape.org/) -->

<svg
   xmlns:dc="http://purl.org/dc/elements/1.1/"
   xmlns:cc="http://creativecommons.org/ns#"
   xmlns:rdf="http://www.w3.org/1999/02/22-rdf-syntax-ns#"
   xmlns:svg="http://www.w3.org/2000/svg"
   xmlns="http://www.w3.org/2000/svg"
   xmlns:xlink="http://www.w3.org/1999/xlink"
   xmlns:sodipodi="http://sodipodi.sourceforge.net/DTD/sodipodi-0.dtd"
   xmlns:inkscape="http://www.inkscape.org/namespaces/inkscape"
   width="5857.9585"
   height="5857.9619"
   id="svg2"
   version="1.1"
   inkscape:version="0.48.4 r9939"
   viewBox="0 0 5857.9585 5857.962"
   sodipodi:docname="Trouble Shoes.svg">
  <title
     id="title4092">Trouble Shoes</title>
  <defs
     id="defs4">
    <linearGradient
       inkscape:collect="always"
       id="linearGradient4267">
      <stop
         style="stop-color:#c1ff79;stop-opacity:1"
         offset="0"
         id="stop4269" />
      <stop
         style="stop-color:#29a935;stop-opacity:1"
         offset="1"
         id="stop4271" />
    </linearGradient>
    <clipPath
       clipPathUnits="userSpaceOnUse"
       id="clipPath4317">
      <path
         style="opacity:0.5;fill:#00ff00;fill-opacity:1;stroke:#ff0000;stroke-width:1.00021279px;stroke-linecap:butt;stroke-linejoin:miter;stroke-opacity:1"
         d="m 2161.2198,3660.7533 539.2304,227.5215 c -81.6628,174.6858 -257.4208,273.5649 -401.8455,220.9104 -151.1058,-55.0902 -209.8163,-290.5178 -137.3849,-448.4319 z"
         id="path4319"
         inkscape:connector-curvature="0"
         sodipodi:nodetypes="ccsc" />
    </clipPath>
    <clipPath
       clipPathUnits="userSpaceOnUse"
       id="clipPath4321">
      <path
         style="opacity:0.5;fill:#00ff00;fill-opacity:1;stroke:#ff0000;stroke-width:1px;stroke-linecap:butt;stroke-linejoin:miter;stroke-opacity:1"
         d="m 2753.3989,3302.7669 572.1266,148.1665 c -51.6211,183.6653 -209.1239,305.8957 -360.972,274.3749 -158.8727,-32.9788 -256.442,-256.7061 -211.1546,-422.5414 z"
         id="path4323"
         inkscape:connector-curvature="0"
         sodipodi:nodetypes="ccsc" />
    </clipPath>
    <clipPath
       clipPathUnits="userSpaceOnUse"
       id="clipPath4071">
      <path
         style="fill:none;stroke:#ff0000;stroke-width:1px;stroke-linecap:butt;stroke-linejoin:miter;stroke-opacity:1"
         d="M 72.730983,424.21305 34.345187,599.97959 244.45692,727.25881 C 263.90145,581.08087 305.63479,444.08027 424.26407,349.46176 535.69949,260.58106 689.23516,372.55122 628.31488,521.18769 583.9118,629.52464 496.59483,726.31696 363.65492,812.11163 L 565.68542,961.6142 703.06618,838.37559 616.19305,785.84766 C 732.24473,749.62173 824.60395,679.51939 878.83272,587.85776 1000.1162,382.85511 888.70471,190.59699 733.37074,102.98454 578.03678,15.372106 400.52796,36.903738 280.82241,206.0201 221.09642,290.39916 187.40946,387.48505 179.80715,488.86281 z"
         id="path4073"
         inkscape:connector-curvature="0"
         sodipodi:nodetypes="cccssccccszscc" />
    </clipPath>
    <clipPath
       clipPathUnits="userSpaceOnUse"
       id="clipPath4235">
      <path
         style="fill:none;stroke:#ff0000;stroke-width:1px;stroke-linecap:butt;stroke-linejoin:miter;stroke-opacity:1;display:inline"
         d="m 4527.5829,699.79207 c 117.7902,333.97243 290.1208,664.63943 315.2311,1019.86513 -227.7058,160.165 -303.6074,319.5462 -288.9618,695.3625 l 1.5452,126.7105 503.7516,9.2715 197.792,-445.032 -15.4525,-395.584 C 5120.4894,1314.1161 4916.2896,994.1138 4697.5605,687.43007 z"
         id="path4237"
         inkscape:connector-curvature="0"
         sodipodi:nodetypes="ccccccccc" />
    </clipPath>
    <clipPath
       clipPathUnits="userSpaceOnUse"
       id="clipPath4263">
      <path
         style="fill:none;stroke:#000000;stroke-width:1px;stroke-linecap:butt;stroke-linejoin:miter;stroke-opacity:1"
         d="m 4527.5829,699.7921 c 117.7901,333.9724 290.1207,664.6394 315.231,1019.8651 -227.7058,160.165 -303.6073,319.5462 -288.9617,695.3625 l 1.5452,126.7105 503.7515,9.2715 197.792,-445.032 -15.4525,-395.584 C 5120.4893,1314.1161 4916.2895,994.11382 4697.5604,687.4301 z"
         id="path4265"
         inkscape:connector-curvature="0"
         sodipodi:nodetypes="ccccccccc" />
    </clipPath>
    <linearGradient
       inkscape:collect="always"
       xlink:href="#linearGradient4267"
       id="linearGradient4273"
       x1="2817.5715"
       y1="3570.8325"
       x2="3221.7239"
       y2="3562.5586"
       gradientUnits="userSpaceOnUse" />
  </defs>
  <sodipodi:namedview
     id="base"
     pagecolor="#ffffff"
     bordercolor="#666666"
     borderopacity="1.0"
     inkscape:pageopacity="0.0"
     inkscape:pageshadow="2"
     inkscape:zoom="0.125"
     inkscape:cx="2775.1583"
     inkscape:cy="3013.9137"
     inkscape:document-units="px"
     inkscape:current-layer="layer3"
     showgrid="false"
     fit-margin-top="0"
     fit-margin-left="335.29"
     fit-margin-right="335.29"
     fit-margin-bottom="0"
     inkscape:snap-global="false"
     inkscape:window-width="1920"
     inkscape:window-height="1028"
     inkscape:window-x="1272"
     inkscape:window-y="217"
     inkscape:window-maximized="1"
     inkscape:object-nodes="true"
     inkscape:object-paths="true" />
  <metadata
     id="metadata7">
    <rdf:RDF>
      <cc:Work
         rdf:about="">
        <dc:format>image/svg+xml</dc:format>
        <dc:type
           rdf:resource="http://purl.org/dc/dcmitype/StillImage" />
        <dc:title>Trouble Shoes</dc:title>
      </cc:Work>
    </rdf:RDF>
  </metadata>
  <g
     inkscape:groupmode="layer"
     id="layer2"
     inkscape:label="Background"
     sodipodi:insensitive="true"
     style="display:none"
     transform="translate(286.47676,-40.032534)">
    <rect
       style="color:#000000;fill:#000000;fill-opacity:1;fill-rule:nonzero;stroke:#00ff00;stroke-width:1.00282037;stroke-linecap:butt;stroke-linejoin:miter;stroke-miterlimit:4;stroke-opacity:1;stroke-dasharray:none;stroke-dashoffset:0;marker:none;visibility:visible;display:inline;overflow:visible;enable-background:accumulate"
       id="rect4074"
       width="5382.854"
       height="6102.854"
       x="-22.855778"
       y="-45.712872" />
  </g>
  <g
     inkscape:groupmode="layer"
     id="layer3"
     inkscape:label="Shadow"
     style="opacity:0.2;display:none"
     sodipodi:insensitive="true"
     transform="translate(286.47676,-40.032534)">
    <ellipse
       style="color:#000000;fill:#000000;fill-opacity:1;fill-rule:nonzero;stroke:none;stroke-width:1px;marker:none;visibility:visible;display:inline;overflow:visible;enable-background:accumulate"
       id="path4077"
       cx="1820"
       cy="5720"
       rx="1882.8572"
       ry="228.57143"
       sodipodi:cx="1820"
       sodipodi:cy="5720"
       sodipodi:rx="1882.8572"
       sodipodi:ry="228.57143"
       d="m 3702.8572,5720 c 0,126.2365 -842.9839,228.5714 -1882.8572,228.5714 -1039.87331,0 -1882.857178,-102.3349 -1882.857178,-228.5714 0,-126.2365 842.983868,-228.5714 1882.857178,-228.5714 1039.8733,0 1882.8572,102.3349 1882.8572,228.5714 z" />
  </g>
  <g
     inkscape:groupmode="layer"
     id="layer4"
     inkscape:label="Rear Legs"
     style="display:inline"
     sodipodi:insensitive="true"
     transform="translate(286.47676,-40.032534)">
    <path
       style="fill:#c4b0a7;fill-opacity:1;stroke:#93816c;stroke-width:29;stroke-linecap:butt;stroke-linejoin:miter;stroke-miterlimit:4;stroke-opacity:1;stroke-dasharray:none"
       d="m 3132.222,5137.7505 c 91.1254,108.7625 97.0195,263.6346 118.9843,415.6723 9.6394,66.723 -6.2638,94.4835 -58.7196,112.8033 -98.1633,34.2828 -188.5205,59.6717 -301.3237,49.448 L 2666,4968.0001 l 324,-32 z"
       id="path4086"
       inkscape:connector-curvature="0"
       sodipodi:nodetypes="cssc" />
    <path
       style="fill:#c4b0a7;fill-opacity:1;stroke:#93816c;stroke-width:29;stroke-linecap:butt;stroke-linejoin:miter;stroke-miterlimit:4;stroke-opacity:1;stroke-dasharray:none"
       d="m 1581.0744,5400.1315 c -0.5023,60.4603 -3.3887,125.3474 -6.5559,186.8443 -2.5908,50.3061 -18.9512,53.5772 -50.2622,57.9108 -110.5757,15.3043 -230.0116,25.2037 -346.3722,26.2238 L 1070,5262.0001 l 408,-48 z"
       id="path4090"
       inkscape:connector-curvature="0"
       sodipodi:nodetypes="cssc" />
    <path
       style="fill:#7b4127;fill-opacity:1;stroke:none"
       d="m 1702.7131,3584.5233 -339.4112,-251.73 C 1016.6067,4056.9 602.85717,4790.2556 1103.0866,5397.5451 c 60.0341,30.1957 104.4982,13.6815 149.9066,0 -52.4324,242.515 153.8487,83.5683 243.2447,-73.5391 62.1147,84.1417 129.2836,179.2338 59.397,-22.6274 -24.0024,-85.7956 -109.6736,-171.5913 -183.8477,-257.3869 -202.4634,-249.0242 -159.1631,-685.3301 87.6812,-1052.1749 101.9774,-139.2471 245.8653,-303.8641 243.2447,-407.2935 z"
       id="path4178"
       inkscape:connector-curvature="0"
       sodipodi:nodetypes="ccccccccc" />
    <path
       style="fill:#7b4127;fill-opacity:1;stroke:none"
       d="m 3066.015,3776.8564 -316.7838,-33.9411 c -33.0081,495.9175 -139.8972,991.8351 31.1127,1487.7526 61.8232,-37.5772 81.6002,-85.6659 115.9655,-130.1076 -19.7217,154.1272 -37.2557,302.829 127.2792,0 114.0184,83.9385 212.3222,149.3563 118.7939,-11.3137 -60.0395,-104.9521 -120.4418,-209.5413 -121.6223,-373.3524 -1.2324,-333.4093 16.3611,-643.2861 45.2548,-939.0378 z"
       id="path4176"
       inkscape:connector-curvature="0"
       sodipodi:nodetypes="cccccccc" />
    <path
       style="fill:none;stroke:#59271a;stroke-width:29;stroke-linecap:butt;stroke-linejoin:miter;stroke-miterlimit:4;stroke-opacity:1;stroke-dasharray:none"
       d="m 3062.6857,3815.0164 c -36.4673,322.9055 -41.1162,618.4147 -40.1765,917.8786 0.4501,143.4297 59.4729,265.4195 129.801,380.1315 82.0778,133.8769 -59.2243,56.8148 -136.3916,-25.4514"
       id="path4082"
       inkscape:connector-curvature="0"
       sodipodi:nodetypes="cssc" />
    <path
       style="font-style:normal;font-variant:normal;font-weight:normal;font-stretch:normal;text-indent:0;text-align:start;text-decoration:none;line-height:normal;letter-spacing:normal;word-spacing:normal;text-transform:none;direction:ltr;block-progression:tb;writing-mode:lr-tb;text-anchor:start;baseline-shift:baseline;color:#000000;fill:#59271a;fill-opacity:1;stroke:none;stroke-width:29;marker:none;visibility:visible;display:inline;overflow:visible;enable-background:accumulate;font-family:sans-serif;-inkscape-font-specification:sans-serif"
       d="m 2938.3242,4987.0742 -38.416,74.4942 c -35.8319,69.4848 -73.2244,115.6731 -107.5527,143.7695 l 18.3672,22.4414 c 24.2733,-19.8667 48.9619,-46.9979 73.2461,-82.4746 -3.4798,17.2975 -6.8994,34.5222 -9.4903,50.5449 -3.3521,20.7299 -5.4884,39.4408 -4.3242,55.3516 0.5821,7.9554 1.912,15.3304 5.3203,22.2343 3.4084,6.904 9.8548,13.4611 18.082,15.9961 16.3362,5.0336 31.2123,-3.7126 44.3653,-15.7246 13.153,-12.012 26.1201,-29.2926 38.7148,-50.8672 25.1894,-43.149 57.4081,-135.0522 52.2729,-191.968 -14.6601,54.0932 -54.1651,137.6901 -77.3158,177.347 -11.5754,19.8284 -23.4361,35.1329 -33.2266,44.0742 -9.7906,8.9412 -15.9751,9.5171 -16.2715,9.4258 -0.089,-0.027 0.2515,0.6384 -0.6172,-1.1211 -0.8686,-1.7596 -1.9859,-5.8203 -2.4023,-11.5118 -0.8329,-11.3828 0.8309,-28.8143 4.0312,-48.6054 6.4006,-39.5824 18.4966,-88.909 24.0606,-130.336 z"
       id="path4084"
       inkscape:connector-curvature="0"
       sodipodi:nodetypes="cscccsssssscssccsssc" />
    <path
       style="fill:none;stroke:#59271a;stroke-width:29;stroke-linecap:butt;stroke-linejoin:miter;stroke-miterlimit:4;stroke-opacity:1;stroke-dasharray:none"
       d="m 1717.6566,3567.746 c -26.9887,144.2274 -169.2874,294.0262 -270.9789,439.248 -126.4472,180.5745 -352.7692,706.5652 -56.8182,1053.3212 76.3175,89.4187 159.6475,184.4534 185.7517,284.0908 38.3508,146.3815 -26.3758,86.3903 -71.0227,-39.3357 -161.723,279.3685 -331.0105,282.4331 -230.5506,67.7448 -49.9376,34.6445 -95.5732,69.0484 -168.2692,24.0384"
       id="path4088"
       inkscape:connector-curvature="0"
       sodipodi:nodetypes="csssccc" />
  </g>
  <g
     inkscape:groupmode="layer"
     id="layer5"
     inkscape:label="Tail"
     style="display:inline"
     sodipodi:insensitive="true"
     transform="translate(286.47676,-40.032534)">
    <path
       style="fill:#33231f;fill-opacity:1;stroke:#271a17;stroke-width:29;stroke-linecap:butt;stroke-linejoin:miter;stroke-miterlimit:9;stroke-opacity:1;stroke-dasharray:none"
       d="M 922.20234,2387.6765 C 792.02517,2128.8504 453.06479,1989.8184 229.4579,2190.9983 c -19.71221,80.1345 -18.89497,157.3362 2.18531,231.6432 58.27503,-41.2528 116.55006,-65.8259 174.82509,-72.1153 -77.46093,57.5399 -143.94343,134.841 -192.3076,244.7551 27.60628,132.6501 59.10751,261.4052 98.33912,382.4299 -3.42188,-197.2115 64.71948,-371.6421 218.53136,-467.6571 -158.53201,211.0292 -163.32862,423.0706 -76.48597,684.0032 5.53936,-283.3658 166.4711,-551.5931 316.87049,-548.5138"
       id="path4095"
       inkscape:connector-curvature="0"
       sodipodi:nodetypes="ccccccccc" />
    <path
       style="fill:none;stroke:#271a17;stroke-width:19;stroke-linecap:butt;stroke-linejoin:miter;stroke-miterlimit:4;stroke-opacity:1;stroke-dasharray:none"
       d="M 898.16389,2427.0122 C 588.54055,2274.3129 336.84283,2423.0863 255.68166,2783.2183"
       id="path4097"
       inkscape:connector-curvature="0"
       sodipodi:nodetypes="cc" />
    <path
       style="fill:none;stroke:#271a17;stroke-width:19;stroke-linecap:butt;stroke-linejoin:miter;stroke-miterlimit:4;stroke-opacity:1;stroke-dasharray:none"
       d="M 791.08352,2573.4282 C 582.2675,2524.0031 400.33471,2783.139 454.54521,3194.0573"
       id="path4099"
       inkscape:connector-curvature="0"
       sodipodi:nodetypes="cc" />
    <path
       style="font-style:normal;font-variant:normal;font-weight:normal;font-stretch:normal;text-indent:0;text-align:start;text-decoration:none;line-height:normal;letter-spacing:normal;word-spacing:normal;text-transform:none;direction:ltr;block-progression:tb;writing-mode:lr-tb;text-anchor:start;baseline-shift:baseline;color:#000000;fill:#271a17;fill-opacity:1;stroke:none;stroke-width:19;marker:none;visibility:visible;display:inline;overflow:visible;enable-background:accumulate;font-family:sans-serif;-inkscape-font-specification:sans-serif"
       d="m 207.89648,2284.3809 12.5293,14.2832 c 42.29451,-37.1029 107.85302,-60.5705 158.20589,-63.0721 -52.40627,-11.773 -125.30965,8.9393 -170.73519,48.7889 z"
       id="path4101"
       inkscape:connector-curvature="0"
       sodipodi:nodetypes="cccc" />
  </g>
  <g
     inkscape:groupmode="layer"
     id="layer6"
     inkscape:label="Body + Fwd Legs"
     style="display:inline"
     sodipodi:insensitive="true"
     transform="translate(286.47676,-40.032534)">
    <path
       style="fill:#fbffda;fill-opacity:1;stroke:#c0c3ad;stroke-width:29;stroke-linecap:butt;stroke-linejoin:miter;stroke-miterlimit:4;stroke-opacity:1;stroke-dasharray:none"
       d="m 97.350715,5707.9478 c 349.741625,146.7858 756.399365,100.6946 1119.776185,58.267 22.0947,-2.5798 37.2359,-9.6695 39.1614,-42.8145 5.1734,-89.0548 9.1777,-153.1585 3.0905,-241.2377 L 1154,5339.0001 124.45075,5572.9076 z"
       id="path4135"
       inkscape:connector-curvature="0"
       sodipodi:nodetypes="cssc" />
    <path
       style="fill:#fbffda;fill-opacity:1;stroke:#c0c3ad;stroke-width:29;stroke-linecap:butt;stroke-linejoin:miter;stroke-miterlimit:4;stroke-opacity:1;stroke-dasharray:none"
       d="m 2848,5282.0001 c 94.132,70.2877 112.5789,238.8914 136,420 8.9665,69.3354 -12.4059,83.5787 -71.1716,112.8284 -170.4244,84.8262 -817.2255,91.1453 -1162.8284,18.4853 l 306,-515.3137 658,-214 z"
       id="path4180"
       inkscape:connector-curvature="0"
       sodipodi:nodetypes="csscccc" />
    <path
       style="fill:#914e33;fill-opacity:1;stroke:none"
       d="m 2749.3121,5232.3311 c 89.2706,93.6782 211.9724,155.2964 134.3968,30.8434 -80.0045,-128.3496 -125.3215,-248.5065 -128.5279,-375.7544 -11.335,-449.8379 28.5888,-850.4335 79.1708,-1265.0413 l -481.1004,143.1638 c -257.7549,702.4694 -450.7076,1354.5372 -642.053,2005.3549 3.529,140.0902 139.1265,29.2504 291.328,-113.1371 -58.7673,235.6553 153.6296,-41.9647 291.328,-178.1909 -71.2885,294.3692 155.4084,-7.2324 336.5828,-217.7889 -55.1705,270.62 -6.8881,235.1921 118.8749,-29.4495 z"
       id="path4168-0"
       inkscape:connector-curvature="0"
       sodipodi:nodetypes="cssccccccc" />
    <path
       style="fill:#914e33;fill-opacity:1;stroke:none"
       d="M 3833.0402,908.21916 C 3384.0849,1112.188 2689.1453,1568.1592 2255.2437,2066.4354 c -28.5305,32.7634 -77.4492,40.961 -139.8601,43.7063 -363.8869,16.0062 -759.9758,5.2562 -1027.0974,131.1188 -377.09267,177.6789 -420.50657,526.4219 -423.95087,895.9787 -1.72437,185.0164 22.67671,370.8822 -13.11188,555.0697 -12.91713,66.4785 -34.96502,125.4231 -52.44753,179.1957 l 866.34928,-357.692 c 238.7166,221.1325 514.5882,356.8086 828.7292,404.4651 l 509.1169,11.3137 c 260.8292,-22.4918 511.1764,-70.7124 690.1362,-294.1564 148.5117,-223.3231 82.3837,-500.3061 59.397,-766.5038 167.3676,-371.2954 357.4938,-711.079 622.254,-947.5231 z"
       id="path4112-3"
       inkscape:connector-curvature="0"
       sodipodi:nodetypes="cssssscccccccc" />
    <path
       style="fill:#914e33;fill-opacity:1;stroke:none"
       d="m 624.28104,3788.7472 c -93.35252,0.3348 -180.5543,90.7881 -239.51379,237.9685 -206.06151,514.3906 -255.84098,929.3676 -319.866787,1583.8814 -4.977132,50.8795 -0.607868,102.2938 60.264757,109.7128 241.25466,29.4032 414.94183,-52.7116 560.92582,-180.7943 -28.77229,45.8517 -154.50298,156.1882 -40.36148,133.8216 116.8591,-22.8991 216.35171,-90.9551 310.78025,-161.6361 -87.71618,134.5804 -125.84787,196.6476 -64.5942,179.2184 133.16649,-37.8916 260.57529,-170.7777 297.92699,-261.1167 52.3242,150.2307 113.8354,168.4215 58.7195,10.8168 -36.5007,-104.3744 -100.1298,-166.2348 -160.706,-234.8781 -95.85211,-108.617 -152.96755,-245.434 -151.43454,-407.946 3.71201,-393.505 142.59774,-630.2925 352.16174,-867.5254 131.891,-149.3047 178.757,-266.4851 163.9518,-504.6567"
       id="path4133-5"
       inkscape:connector-curvature="0"
       sodipodi:nodetypes="cssscscscssssc" />
    <path
       style="font-style:normal;font-variant:normal;font-weight:normal;font-stretch:normal;text-indent:0;text-align:start;text-decoration:none;line-height:normal;letter-spacing:normal;word-spacing:normal;text-transform:none;direction:ltr;block-progression:tb;writing-mode:lr-tb;text-anchor:start;baseline-shift:baseline;color:#000000;fill:#59271a;fill-opacity:1;stroke:none;stroke-width:29;marker:none;visibility:visible;display:inline;overflow:visible;enable-background:accumulate;font-family:sans-serif;-inkscape-font-specification:sans-serif"
       d="M 3827.043,895.01758 C 3375.8088,1100.0218 2680.3686,1556.1593 2244.3086,2056.9141 c -23.9265,27.4762 -68.0853,36.0379 -129.5625,38.7421 -363.1407,15.9734 -760.2315,4.1343 -1032.6406,132.4883 -191.66123,90.3071 -300.00135,225.6245 -359.48831,384.0547 -59.48696,158.4303 -71.05421,339.6007 -72.78125,524.9043 -1.7371,186.3816 22.35913,371.2563 -12.84571,552.4395 -12.63397,65.0212 -34.37642,113.9885 -42.36485,197.7256 24.46182,-78.5143 57.63137,-124.2586 70.83165,-192.1944 36.37234,-187.1918 11.66531,-374.048 13.37695,-557.6992 1.71726,-184.2532 13.57937,-362.2322 70.9336,-514.9824 57.35423,-152.7502 159.26775,-280.6439 344.69922,-368.0156 261.834,-123.3712 656.9215,-113.711 1021.5547,-129.75 63.3446,-2.7864 117.0236,-10.6195 150.1582,-48.67 431.7432,-495.7976 1126.181,-951.6036 1572.8574,-1154.53708 z"
       id="path4112"
       inkscape:connector-curvature="0"
       sodipodi:nodetypes="csssssscsssssscc" />
    <path
       style="font-style:normal;font-variant:normal;font-weight:normal;font-stretch:normal;text-indent:0;text-align:start;text-decoration:none;line-height:normal;letter-spacing:normal;word-spacing:normal;text-transform:none;direction:ltr;block-progression:tb;writing-mode:lr-tb;text-anchor:start;baseline-shift:baseline;color:#000000;fill:#59271a;fill-opacity:1;stroke:none;stroke-width:29;marker:none;visibility:visible;display:inline;overflow:visible;enable-background:accumulate;font-family:sans-serif;-inkscape-font-specification:sans-serif"
       d="m 1277.7168,3920.6699 c -210.629,238.4385 -352.05125,480.1268 -355.79492,876.9883 -1.56578,165.9857 57.10409,306.674 155.06252,417.6777 61.0497,69.1799 122.5339,128.9673 157.8906,230.0703 13.5302,38.69 19.6451,66.4317 20.6523,82.0704 0.057,0.8896 -0.056,1.2912 -0.039,2.0996 -4.0463,-4.6027 -8.9058,-11.1905 -14.2227,-20.0215 -11.547,-19.1788 -24.9097,-47.7113 -37.7304,-84.5215 l -12.5332,-35.9844 -14.5586,35.2129 c -17.4108,42.1097 -57.5884,97.0523 -109.4883,145.1289 -51.9,48.0767 -115.54533,89.5242 -179.00783,107.5821 -5.16089,1.4684 -8.7103,1.9522 -11.19141,2.1171 0.54843,-3.238 2.10706,-8.4566 4.93359,-15.0957 11.7214,-27.5315 43.14262,-77.1338 86.96875,-144.375 l 44.6973,-68.58 -65.53519,49.0547 c -94.09156,70.4287 -191.81598,136.8584 -304.8789,159.0136 -13.41031,2.6278 -22.78101,3.0236 -27.5586,2.4024 -1.33618,-0.1738 -1.34888,-0.2048 -1.84961,-0.3047 0.11366,-0.7676 0.19141,-1.5707 0.81055,-3.2344 1.61281,-4.3338 5.13981,-10.7166 9.96289,-17.8066 9.64616,-14.18 24.26574,-31.3913 38.3125,-47.8301 14.04676,-16.4388 27.42531,-31.8388 35.75391,-45.1113 l 52.73828,-84.045 -74.58399,65.4375 c -144.00753,126.3487 -312.40063,206.2107 -549.60742,177.3008 -26.48463,-3.2279 -36.646155,-13.4161 -43.123045,-29.5625 -6.47689,-16.1463 -6.867309,-39.7861 -4.464844,-64.3457 64.012729,-654.38 113.534319,-1067.2604 318.894529,-1579.9004 28.94342,-72.2513 64.7232,-130.0568 103.67969,-169.2168 38.95649,-39.1599 80.41842,-59.4919 122.42773,-59.6426 l -0.10546,-29 c -51.3432,0.1842 -100.15846,25.244 -142.88086,68.1895 -42.72241,42.9455 -80.02494,103.9577 -110.04102,178.8867 -206.76281,516.1413 -256.799,933.2138 -320.83789,1587.8613 -2.574666,26.32 -3.269506,53.8295 6.412109,77.9649 9.681615,24.1354 32.141306,43.3616 66.529301,47.5527 195.03774,23.7705 348.05828,-24.8357 476.98632,-110.9453 -0.0213,0.031 -0.0471,0.064 -0.0684,0.096 -5.55768,8.1699 -10.17791,15.9799 -13.16406,24.0039 -2.98615,8.0241 -4.93126,17.3257 -0.39062,26.7481 4.54063,9.4223 14.78762,14.3512 24.86914,15.6621 10.08152,1.3108 21.74993,0.2626 36.875,-2.7012 94.61482,-18.5402 177.21888,-65.4845 254.20117,-119.0488 -21.97563,34.7718 -38.77086,63.1184 -47.71094,84.1172 -3.49002,8.1974 -5.95198,15.4333 -7.03515,22.539 -1.08318,7.1058 -0.96811,14.9626 3.8164,22.0977 4.78452,7.1351 13.43157,10.48 20.8086,10.9433 7.37702,0.4634 14.73141,-0.9151 23.28711,-3.3496 69.704,-19.8338 136.34527,-63.7751 190.77937,-114.1992 43.2753,-40.0874 78.6005,-84.061 101.375,-124.664 9.5735,23.6046 19.2184,43.2935 28.3808,58.5117 6.4901,10.7796 12.7055,19.4284 18.8672,26.1133 6.1617,6.6849 11.842,11.9547 20.8047,14.1171 4.4813,1.0812 10.3136,0.8453 15.1875,-1.748 4.8739,-2.5933 8.0489,-6.8518 9.8965,-10.8731 3.6951,-8.0424 3.9538,-16.2186 3.291,-26.5097 -1.3256,-20.5822 -8.1891,-49.6669 -22.2168,-89.7793 -37.6447,-107.6458 -103.4188,-171.5808 -163.5215,-239.6875 -93.7458,-106.2302 -149.30886,-239.1766 -147.80862,-398.2149 3.68035,-390.1485 140.03232,-622.0352 348.53132,-858.0625 133.2548,-150.8486 197.7948,-343.6369 156.9626,-535.044 2.874,193.208 -48.1699,368.0838 -178.697,515.8445 z"
       id="path4133"
       inkscape:connector-curvature="0"
       sodipodi:nodetypes="ssssccssccsccsccssccsssscssssssccsssssccsssscssscsscsssssssssscs" />
    <path
       style="font-style:normal;font-variant:normal;font-weight:normal;font-stretch:normal;text-indent:0;text-align:start;text-decoration:none;line-height:normal;letter-spacing:normal;word-spacing:normal;text-transform:none;direction:ltr;block-progression:tb;writing-mode:lr-tb;text-anchor:start;baseline-shift:baseline;color:#000000;fill:#59271a;fill-opacity:1;stroke:none;stroke-width:29;marker:none;visibility:visible;display:inline;overflow:visible;enable-background:accumulate;font-family:sans-serif;-inkscape-font-specification:sans-serif"
       d="m 1464.8965,3487.8457 -5.7711,38.7454 c 208.7824,244.6195 625.1227,364.8549 831.2223,394.2331 l 4.0918,-28.709 c -205.9729,-29.3601 -636.9564,-158.0437 -829.543,-404.2695 z"
       id="path4156"
       inkscape:connector-curvature="0"
       sodipodi:nodetypes="ccccc" />
    <path
       style="font-style:normal;font-variant:normal;font-weight:normal;font-stretch:normal;text-indent:0;text-align:start;text-decoration:none;line-height:normal;letter-spacing:normal;word-spacing:normal;text-transform:none;direction:ltr;block-progression:tb;writing-mode:lr-tb;text-anchor:start;baseline-shift:baseline;color:#000000;fill:#59271a;fill-opacity:1;stroke:none;stroke-width:29;marker:none;visibility:visible;display:inline;overflow:visible;enable-background:accumulate;font-family:sans-serif;-inkscape-font-specification:sans-serif"
       d="m 2277.8904,3920.6361 c -217.1539,613.3564 -429.4634,1307.4328 -569.199,1823.9674 -6.6266,24.4953 -8.8557,44.4564 -6.3828,61.211 2.4729,16.7545 10.7983,30.9535 23.8262,38.3515 13.0279,7.398 28.5491,7.9018 44.7129,4.6524 16.1637,-3.2495 33.5986,-10.3672 52.2636,-20.6387 63.3029,-34.8361 112.3824,-79.9482 158,-126.6895 -0.024,0.079 -0.061,0.1708 -0.084,0.25 -5.9362,20.1124 -10.0424,36.1367 -0.3359,51.1133 4.8533,7.4883 14.7041,11.862 23.2363,11.7383 8.5323,-0.1237 16.608,-2.914 25.7989,-7.373 18.3817,-8.9182 41.3608,-25.4168 71.5879,-51.25 63.7714,-54.5016 118.8107,-120.3744 171.6796,-182.4786 -5.7395,15.1175 -10.3271,29.8383 -12.3007,42.7539 -1.6512,10.8053 -2.2308,21.0654 3.2324,31.086 2.7316,5.0103 7.5521,9.6023 13.2304,11.9277 5.6784,2.3254 11.6747,2.6015 17.5645,1.8027 23.5591,-3.1948 51.7802,-21.1031 98.9961,-59.375 87.1857,-70.6702 156.7288,-162.5207 214.6855,-252.4843 -9.6858,43.8069 -18.8192,85.2492 -21.5507,114.5683 -1.0984,11.7895 -1.4066,21.6094 0.6894,30.7344 1.048,4.5625 2.7111,9.2595 6.6328,13.5625 3.9218,4.303 10.7033,7.2106 16.5821,7.1055 11.7575,-0.2102 19.3452,-6.3733 28.8867,-14.8946 9.5414,-8.5212 20.5502,-20.688 34.0234,-37.4824 52.5313,-65.4807 91.8791,-188.9995 85.7885,-265.4926 -15.3301,73.1082 -59.4537,186.3223 -108.4096,247.3461 -12.8984,16.078 -23.2228,27.3039 -30.7207,34 -1.8278,1.6324 -3.501,2.8965 -4.9726,3.9082 -0.2324,-4.0829 -0.2637,-9.2427 0.375,-16.0976 3.8557,-41.3867 24.486,-120.6262 38.1777,-192.3926 l 15.3848,-80.6348 -42.0782,70.4844 c -65.2972,109.3831 -146.2401,229.7123 -251.7558,315.2402 -45.8458,37.1613 -75.2523,51.8962 -84.6309,53.168 -1.3835,0.1876 -1.2236,0.1 -1.5801,0.057 -0.2468,-1.2581 -0.8957,-5.1273 0.1172,-11.7559 4.7867,-31.325 37.8644,-97.2592 56.0918,-129.8613 l 57.7793,-103.3438 -81.0097,86.3477 c -77.1929,82.2797 -151.0957,184.3887 -239.75,260.1562 -29.2784,25.0224 -51.3684,40.3954 -65.4043,47.2051 -5.7255,2.7778 -9.5497,3.7481 -11.8164,4.1094 -0.025,-3.679 -0.1186,-12.725 3.5898,-25.2891 5.1306,-17.3829 14.9227,-40.8531 28.4355,-68.2051 l 42.17,-85.3593 -65.668,68.9355 c -62.7086,65.8271 -121.2897,131.5782 -204.6484,177.4512 -16.8742,9.286 -32.0394,15.2131 -43.9981,17.6172 -11.9587,2.404 -20.0801,1.1694 -24.6777,-1.4414 -4.5976,-2.6108 -7.8815,-6.6924 -9.4571,-17.3672 -1.5755,-10.6748 -0.2946,-27.2915 5.6875,-49.4043 139.6006,-516.0352 351.9837,-1210.2809 568.9581,-1823.0308 29.3619,-82.92 53.3446,-162.1622 77.8946,-228.1291 -41.0093,59.6886 -76.105,136.1756 -105.6478,219.6199 z"
       id="path4162"
       inkscape:connector-curvature="0"
       sodipodi:nodetypes="ssssssccsssscssscscsssssscsccccccsscsscssscsscssssssscs" />
    <path
       style="font-style:normal;font-variant:normal;font-weight:normal;font-stretch:normal;text-indent:0;text-align:start;text-decoration:none;line-height:normal;letter-spacing:normal;word-spacing:normal;text-transform:none;direction:ltr;block-progression:tb;writing-mode:lr-tb;text-anchor:start;baseline-shift:baseline;color:#000000;fill:#59271a;fill-opacity:1;stroke:none;stroke-width:29;marker:none;visibility:visible;display:inline;overflow:visible;enable-background:accumulate;font-family:sans-serif;-inkscape-font-specification:sans-serif"
       d="m 2784.5273,3931.1523 c -32.0172,308.7153 -52.3545,618.7968 -43.8418,956.6329 3.2873,130.4574 49.8656,253.3473 130.7188,383.0586 9.3852,15.0564 15.5534,27.076 18.9453,35.8222 2.1593,5.5679 2.8213,9.1306 3.1133,11.5781 -2.2289,-0.2677 -5.261,-0.8191 -9.4785,-2.3359 -27.1834,-9.7761 -90.734,-51.9934 -134.1758,-97.5801 l -9.1419,31.9885 c 44.2675,43.1801 99.5217,80.6598 133.5032,92.8807 9.2728,3.3348 17.7458,5.4426 27.0039,3.916 9.2582,-1.5266 19.1358,-10.4437 21.0508,-20.3223 1.915,-9.8786 -0.4403,-19.2721 -4.8379,-30.6113 -4.3975,-11.3392 -11.3643,-24.619 -21.373,-40.6758 -79.1558,-126.988 -123.2124,-244.4109 -126.3379,-368.4492 -8.4722,-336.227 11.7536,-644.9234 43.6953,-952.9102 10.6911,-103.0849 27.3306,-243.1752 11.3865,-331.4139 -6.6726,84.8293 -29.5139,225.093 -40.2303,328.4217 z"
       id="path4168"
       inkscape:connector-curvature="0"
       sodipodi:nodetypes="sssscsccssssssscs" />
    <!--S(i)g(m)a-->
    <path
       style="fill:none;stroke:#59271a;stroke-width:29;stroke-linecap:butt;stroke-linejoin:miter;stroke-miterlimit:4;stroke-opacity:1;stroke-dasharray:none"
       d="m 2797.2015,3928.3227 c 275.2311,-11.9268 484.8748,-65.6387 664.3354,-257.867 179.4606,-192.2283 126.9175,-595.4933 92.3134,-783.0923 123.2369,-348.5612 369.6408,-720.6197 589.5044,-960.788"
       id="path4189"
       inkscape:connector-curvature="0"
       sodipodi:nodetypes="czcc" />
  </g>
  <g
     inkscape:groupmode="layer"
     id="layer15"
     inkscape:label="Cutie Mark"
     sodipodi:insensitive="true"
     transform="translate(286.47676,-40.032534)">
    <g
       id="g4166"
       transform="matrix(0.57761449,0,0,0.57761449,62.736246,1423.7971)">
      <path
         sodipodi:nodetypes="cccssccccszscc"
         inkscape:connector-curvature="0"
         id="path4074"
         d="m 1354.426,2333.1599 -38.3858,175.7666 210.1117,127.2792 c 19.4446,-146.1779 61.1779,-283.1785 179.8072,-377.7971 111.4354,-88.8807 264.9711,23.0895 204.0508,171.726 -44.4031,108.3369 -131.7201,205.1292 -264.66,290.9239 l 202.0305,149.5026 137.3808,-123.2386 -86.8731,-52.528 c 116.0517,-36.2259 208.4109,-106.3282 262.6396,-197.9899 121.2835,-205.0026 9.872,-397.2607 -145.4619,-484.8732 -155.334,-87.6124 -332.8428,-66.0808 -452.5484,103.0356 -59.726,84.379 -93.4129,181.4649 -101.0152,282.8427 z"
         style="fill:#c1ee9d;fill-opacity:1;stroke:none" />
      <circle
         r="26.263966"
         cy="2377.6067"
         cx="1524.1316"
         id="path4076"
         style="color:#000000;fill:#65c096;fill-opacity:1;fill-rule:nonzero;stroke:none;stroke-width:1px;marker:none;visibility:visible;display:inline;overflow:visible;enable-background:accumulate"
         d="m 1550.3956,2377.6067 c 0,14.5052 -11.7588,26.264 -26.264,26.264 -14.5052,0 -26.264,-11.7588 -26.264,-26.264 0,-14.5052 11.7588,-26.264 26.264,-26.264 14.5052,0 26.264,11.7588 26.264,26.264 z"
         sodipodi:cx="1524.1316"
         sodipodi:cy="2377.6067"
         sodipodi:rx="26.263966"
         sodipodi:ry="26.263966" />
      <circle
         r="26.263966"
         cy="2145.2715"
         cx="1653.4312"
         id="path4076-5"
         style="color:#000000;fill:#65c096;fill-opacity:1;fill-rule:nonzero;stroke:none;stroke-width:1px;marker:none;visibility:visible;display:inline;overflow:visible;enable-background:accumulate"
         d="m 1679.6951,2145.2715 c 0,14.5052 -11.7588,26.2639 -26.2639,26.2639 -14.5052,0 -26.264,-11.7587 -26.264,-26.2639 0,-14.5052 11.7588,-26.264 26.264,-26.264 14.5051,0 26.2639,11.7588 26.2639,26.264 z"
         sodipodi:cx="1653.4312"
         sodipodi:cy="2145.2715"
         sodipodi:rx="26.263966"
         sodipodi:ry="26.263966" />
      <circle
         r="26.263966"
         cy="2100.825"
         cx="1863.5428"
         id="path4076-7"
         style="color:#000000;fill:#65c096;fill-opacity:1;fill-rule:nonzero;stroke:none;stroke-width:1px;marker:none;visibility:visible;display:inline;overflow:visible;enable-background:accumulate"
         d="m 1889.8068,2100.825 c 0,14.5051 -11.7588,26.2639 -26.264,26.2639 -14.5051,0 -26.2639,-11.7588 -26.2639,-26.2639 0,-14.5052 11.7588,-26.264 26.2639,-26.264 14.5052,0 26.264,11.7588 26.264,26.264 z"
         sodipodi:cx="1863.5428"
         sodipodi:cy="2100.825"
         sodipodi:rx="26.263966"
         sodipodi:ry="26.263966" />
      <circle
         r="26.263966"
         cy="2193.7588"
         cx="2011.0251"
         id="path4076-53"
         style="color:#000000;fill:#65c096;fill-opacity:1;fill-rule:nonzero;stroke:none;stroke-width:1px;marker:none;visibility:visible;display:inline;overflow:visible;enable-background:accumulate"
         d="m 2037.2891,2193.7588 c 0,14.5052 -11.7588,26.264 -26.264,26.264 -14.5051,0 -26.2639,-11.7588 -26.2639,-26.264 0,-14.5052 11.7588,-26.264 26.2639,-26.264 14.5052,0 26.264,11.7588 26.264,26.264 z"
         sodipodi:cx="2011.0251"
         sodipodi:cy="2193.7588"
         sodipodi:rx="26.263966"
         sodipodi:ry="26.263966" />
      <circle
         r="26.263966"
         cy="2397.8098"
         cx="2051.4312"
         id="path4076-1"
         style="color:#000000;fill:#65c096;fill-opacity:1;fill-rule:nonzero;stroke:none;stroke-width:1px;marker:none;visibility:visible;display:inline;overflow:visible;enable-background:accumulate"
         d="m 2077.6951,2397.8098 c 0,14.5052 -11.7588,26.264 -26.2639,26.264 -14.5052,0 -26.264,-11.7588 -26.264,-26.264 0,-14.5052 11.7588,-26.264 26.264,-26.264 14.5051,0 26.2639,11.7588 26.2639,26.264 z"
         sodipodi:cx="2051.4312"
         sodipodi:cy="2397.8098"
         sodipodi:rx="26.263966"
         sodipodi:ry="26.263966" />
      <circle
         r="26.263966"
         cy="2613.9824"
         cx="1867.5835"
         id="path4076-8"
         style="color:#000000;fill:#65c096;fill-opacity:1;fill-rule:nonzero;stroke:none;stroke-width:1px;marker:none;visibility:visible;display:inline;overflow:visible;enable-background:accumulate"
         d="m 1893.8475,2613.9824 c 0,14.5052 -11.7588,26.264 -26.264,26.264 -14.5052,0 -26.264,-11.7588 -26.264,-26.264 0,-14.5052 11.7588,-26.2639 26.264,-26.2639 14.5052,0 26.264,11.7587 26.264,26.2639 z"
         sodipodi:cx="1867.5835"
         sodipodi:cy="2613.9824"
         sodipodi:rx="26.263966"
         sodipodi:ry="26.263966" />
      <path
         clip-path="url(#clipPath4071)"
         sodipodi:nodetypes="ccccccscccccc"
         inkscape:connector-curvature="0"
         id="path4117"
         d="m 18.182746,523.208 266.680274,155.56349 125.25891,88.89342 220.21326,161.62441 88.89342,-78.7919 -143.44166,-89.90358 C 684.63588,715.23708 782.6809,632.66444 834.386,541.39074 911.04854,406.0603 873.43928,242.49797 802.06112,136.31958 L 949.54339,240.36529 953.584,955.55329 553.56359,977.77664 14.142136,610.08112 z"
         style="fill:#65c096;fill-opacity:1;stroke:none"
         transform="translate(1281.695,1908.9469)" />
    </g>
  </g>
  <g
     inkscape:groupmode="layer"
     id="layer7"
     inkscape:label="Hat"
     style="display:inline"
     sodipodi:insensitive="true"
     transform="translate(286.47676,-40.032534)">
    <path
       style="fill:#f0dc82;fill-opacity:1;stroke:none"
       d="M 4351.5351,426.58436 C 4292.0308,305.85346 4216.797,191.41434 4119.6041,85.758885 4035.6986,3.6957681 4023.4556,95.131508 4009.2954,181.92541 l -203.6467,-35.35534 c -38.7244,-14.34991 -70.4389,-7.66987 -79.196,67.88225 -14.1753,118.50181 -19.6868,231.22773 -22.6274,342.23969 107.7331,-36.55753 219.8985,-48.73697 335.1686,-43.84062 111.6428,-15.69647 215.983,-44.17251 312.5412,-86.26703 z"
       id="path4190"
       inkscape:connector-curvature="0"
       sodipodi:nodetypes="cccccccc" />
    <path
       style="fill:#6a86a6;fill-opacity:1;stroke:none"
       d="m 4302.0376,336.07469 c -145.7437,42.54253 -291.7032,89.00402 -429.9209,142.83557 l 7.0711,36.76956 168.2914,-8.48528 c 105.5861,-6.47083 204.1102,-36.48187 298.3991,-80.61018 z"
       id="path4193"
       inkscape:connector-curvature="0"
       sodipodi:nodetypes="cccccc" />
    <path
       style="fill:#fafffe;fill-opacity:1;stroke:#a9babc;stroke-width:19;stroke-linecap:butt;stroke-linejoin:miter;stroke-miterlimit:4;stroke-opacity:1;stroke-dasharray:none"
       d="m 4243.8792,464.60046 -63.3741,-101.61709 -56.8182,22.9458 55.7255,99.43177 -36.5968,12.00339 -80.353,-142.16301 131.3463,-49.44801 89.6244,149.88927 z"
       id="path4196"
       inkscape:connector-curvature="0"
       sodipodi:nodetypes="ccccccccc" />
    <path
       style="fill:#f0dc82;fill-opacity:1;stroke:#b19655;stroke-width:29;stroke-linecap:butt;stroke-linejoin:miter;stroke-miterlimit:4;stroke-opacity:1;stroke-dasharray:none"
       d="m 4455.8546,652.53744 c 100.9117,-141.86933 217.9252,-326.23789 241.4579,-482.91588 -142.4515,159.77373 -410.9007,337.67638 -696.0032,338.68518 -252.0774,0.89194 -463.8394,92.96804 -657.7794,238.19919 241.3804,68.04086 479.0339,91.35794 714.5976,89.59786 z"
       id="path4192"
       inkscape:connector-curvature="0"
       sodipodi:nodetypes="ccsccc" />
    <path
       style="fill:none;stroke:#b19655;stroke-width:29;stroke-linecap:butt;stroke-linejoin:miter;stroke-miterlimit:4;stroke-opacity:1;stroke-dasharray:none"
       d="M 4352.0522,429.63544 C 4297.7014,311.63628 4212.1285,192.75656 4123.6869,89.819157 4056.3085,11.397216 4008.7973,74.409525 4008.9579,173.95373"
       id="path4198"
       inkscape:connector-curvature="0"
       sodipodi:nodetypes="csc" />
    <path
       style="font-style:normal;font-variant:normal;font-weight:normal;font-stretch:normal;text-indent:0;text-align:start;text-decoration:none;line-height:normal;letter-spacing:normal;word-spacing:normal;text-transform:none;direction:ltr;block-progression:tb;writing-mode:lr-tb;text-anchor:start;baseline-shift:baseline;color:#000000;fill:#b19655;fill-opacity:1;stroke:none;stroke-width:29;marker:none;visibility:visible;display:inline;overflow:visible;enable-background:accumulate;font-family:sans-serif;-inkscape-font-specification:sans-serif"
       d="m 4023.8242,165.9707 c -5.2776,1.19333 -14.0447,1.30145 -26.6289,-0.84765 -63.666,-10.87278 -139.3721,-23.68302 -198.0996,-36.99805 -23.7037,-5.37425 -45.5408,-4.23871 -61.1836,9.61719 -15.6428,13.85589 -22.3471,35.72509 -26.3281,66.00781 -15.4816,117.76492 -21.0692,232.04862 -19.791,346.24023 l 28.998,-0.32421 c -1.2652,-113.02985 4.2617,-225.87915 19.5449,-342.13477 3.6172,-27.51515 10.2143,-42.24439 16.8047,-48.08203 6.5905,-5.83764 15.9177,-7.49058 35.543,-3.04102 60.0489,13.61465 136.0019,26.43661 199.6289,37.30274 14.8076,2.52881 27.0928,3.43655 37.7461,0.58203 36.5587,-9.7958 35.0406,-52.82063 27.2276,-90.13975 -7.813,33.70358 -16.515,57.98551 -33.462,61.81748 z"
       id="path4200"
       inkscape:connector-curvature="0"
       sodipodi:nodetypes="sssssccssssscs" />
  </g>
  <g
     inkscape:groupmode="layer"
     id="layer8"
     inkscape:label="Head"
     style="display:inline"
     sodipodi:insensitive="true"
     transform="translate(286.47676,-40.032534)">
    <path
       style="fill:#914e33;fill-opacity:1;stroke:none"
       d="m 3761.1388,1453.8741 c -13.695,101.9865 -36.6075,306.9398 44.8123,445.0321 30.005,50.8903 70.8782,58.0642 134.4367,60.2648 243.7895,8.4404 571.2841,193.7982 638.1883,394.0387 12.2356,36.6204 44.7654,64.1079 72.6268,67.991 86.1507,12.0071 165.9092,18.3663 247.24,21.6335 33.9947,1.3656 66.1848,-13.1434 91.1698,-41.7218 54.9606,-62.8651 112.5074,-117.9043 168.4322,-183.8847 67.7415,-79.9219 66.2492,-186.5119 61.81,-291.507 -12.1277,-286.8422 -267.5241,-822.7841 -522.2945,-1164.11862 L 4345.8783,630.23112 3757.5655,1157.7328"
       id="path4207-4"
       inkscape:connector-curvature="0"
       sodipodi:nodetypes="cssssssssc" />
    <path
       style="font-style:normal;font-variant:normal;font-weight:normal;font-stretch:normal;text-indent:0;text-align:start;text-decoration:none;line-height:normal;letter-spacing:normal;word-spacing:normal;text-transform:none;direction:ltr;block-progression:tb;writing-mode:lr-tb;text-anchor:start;baseline-shift:baseline;color:#000000;fill:#59271a;fill-opacity:1;stroke:none;stroke-width:29;marker:none;visibility:visible;display:inline;overflow:visible;enable-background:accumulate;font-family:sans-serif;-inkscape-font-specification:sans-serif"
       d="m 4709.1797,752.92969 -23.2402,17.3457 c 126.5985,169.61325 253.7887,388.27491 350.5742,599.85161 96.7855,211.5766 162.955,416.697 168.8535,556.207 4.4275,104.7183 5.1792,206.5267 -58.3828,281.5176 -55.3242,65.2717 -112.7857,120.233 -168.2871,183.7168 -22.5237,25.7631 -50.1598,37.9628 -79.6719,36.7773 -80.9567,-3.2522 -160.1882,-9.571 -245.8203,-21.5059 -20.124,-2.8047 -50.3982,-26.8621 -60.877,-58.2246 -35.2794,-105.5894 -136.4639,-203.2304 -259.0547,-276.7832 -122.5907,-73.5528 -267.0461,-122.8129 -392.3847,-127.1523 -31.3421,-1.0852 -55.9434,-3.5485 -75.0957,-10.916 -19.1524,-7.3676 -33.6607,-19.0021 -47.3516,-42.2227 -77.6273,-131.6599 -64.8903,-330.0641 -50.9094,-448.4837 -30.8181,118.6869 -59.2834,318.6895 25.9289,463.2142 16.3142,27.6697 37.2448,45.0665 61.92,54.5586 24.6751,9.4921 52.2894,11.7166 84.5058,12.832 118.4509,4.101 259.6369,51.7408 378.4668,123.0371 118.83,71.2964 214.846,166.4544 246.4707,261.1055 13.9924,41.8783 48.7782,72.7963 84.377,77.7578 86.6693,12.0794 166.9552,18.4775 248.6601,21.7598 38.4773,1.5456 75.2217,-15.2724 102.668,-46.6661 54.4198,-62.2464 112.0507,-117.3636 168.5762,-184.0527 71.921,-84.8529 69.6872,-196.2242 65.2363,-301.4961 -6.2292,-147.3322 -73.8198,-353.6044 -171.457,-567.0429 -97.6373,-213.4385 -225.5332,-433.41356 -353.7051,-605.13481 z"
       id="path4207"
       inkscape:connector-curvature="0"
       sodipodi:nodetypes="ccssssssssssscsssssssssssc" />
    <path
       style="fill:#ffffff;fill-opacity:1;stroke:none;display:inline"
       d="m 3761.1388,1453.8741 c -13.695,101.9865 -36.6075,306.9399 44.8123,445.0321 30.005,50.8903 70.8782,58.0642 134.4367,60.2648 243.7895,8.4404 571.2841,193.7982 638.1883,394.0387 12.2356,36.6204 44.7654,64.1079 72.6268,67.991 86.1507,12.0071 165.9093,18.3663 247.2401,21.6335 33.9947,1.3656 66.1848,-13.1434 91.1698,-41.7218 54.9606,-62.8651 112.5074,-117.9043 168.4322,-183.8847 67.7415,-79.9219 66.2492,-186.5119 61.81,-291.507 -12.1277,-286.8422 -267.5241,-822.7841 -522.2946,-1164.11859"
       id="path4207-4-6"
       inkscape:connector-curvature="0"
       sodipodi:nodetypes="cssssssssc"
       clip-path="url(#clipPath4263)" />
    <path
       style="fill:#c2bead;fill-opacity:1;stroke:none"
       d="m 4750.8715,2403.4303 c -1.6201,27.288 -7.5055,52.0603 -15.4525,74.9447 18.2404,-20.879 26.2645,-49.0915 27.8145,-74.172 0.7611,-12.314 -11.7996,-10.2442 -12.362,-0.7727 z"
       id="path4211"
       inkscape:connector-curvature="0"
       sodipodi:nodetypes="scss" />
    <path
       style="fill:#c2bead;fill-opacity:1;stroke:none"
       d="m 4817.1548,2406.3897 c 0.3608,26.6264 -3.7173,51.1094 -9.9895,73.9038 16.6897,-21.5722 22.6528,-49.5485 22.3821,-74.0252 -0.1329,-12.0175 -12.5178,-9.1204 -12.3926,0.1214 z"
       id="path4211-7"
       inkscape:connector-curvature="0"
       sodipodi:nodetypes="scss" />
    <path
       style="fill:#c2bead;fill-opacity:1;stroke:none"
       d="m 4879.6636,2412.3357 c -0.2702,26.4464 -4.9276,50.6656 -11.7388,73.1591 17.198,-21.0477 23.8229,-48.6935 24.1321,-73.0033 0.1519,-11.9357 -12.2995,-9.3352 -12.3933,-0.1558 z"
       id="path4211-8"
       inkscape:connector-curvature="0"
       sodipodi:nodetypes="scss" />
    <circle
       style="color:#000000;fill:none;stroke:#c2bead;stroke-width:4;stroke-miterlimit:4;stroke-opacity:1;stroke-dasharray:none;marker:none;visibility:visible;display:inline;overflow:visible;enable-background:accumulate"
       id="path4234"
       cx="4724.1021"
       cy="2363.6379"
       r="9.8339119"
       sodipodi:cx="4724.1021"
       sodipodi:cy="2363.6379"
       sodipodi:rx="9.8339119"
       sodipodi:ry="9.8339119"
       d="m 4733.936,2363.6379 c 0,5.4312 -4.4028,9.834 -9.8339,9.834 -5.4312,0 -9.834,-4.4028 -9.834,-9.834 0,-5.4311 4.4028,-9.8339 9.834,-9.8339 5.4311,0 9.8339,4.4028 9.8339,9.8339 z" />
    <circle
       style="color:#000000;fill:none;stroke:#c2bead;stroke-width:4;stroke-miterlimit:4;stroke-opacity:1;stroke-dasharray:none;marker:none;visibility:visible;display:inline;overflow:visible;enable-background:accumulate"
       id="path4234-9"
       cx="4740.4917"
       cy="2333.0437"
       r="9.8339119"
       sodipodi:cx="4740.4917"
       sodipodi:cy="2333.0437"
       sodipodi:rx="9.8339119"
       sodipodi:ry="9.8339119"
       d="m 4750.3256,2333.0437 c 0,5.4311 -4.4028,9.8339 -9.8339,9.8339 -5.4311,0 -9.8339,-4.4028 -9.8339,-9.8339 0,-5.4311 4.4028,-9.8339 9.8339,-9.8339 5.4311,0 9.8339,4.4028 9.8339,9.8339 z" />
    <circle
       style="color:#000000;fill:none;stroke:#c2bead;stroke-width:4;stroke-miterlimit:4;stroke-opacity:1;stroke-dasharray:none;marker:none;visibility:visible;display:inline;overflow:visible;enable-background:accumulate"
       id="path4234-98"
       cx="4778.1885"
       cy="2347.2483"
       r="9.8339119"
       sodipodi:cx="4778.1885"
       sodipodi:cy="2347.2483"
       sodipodi:rx="9.8339119"
       sodipodi:ry="9.8339119"
       d="m 4788.0224,2347.2483 c 0,5.4311 -4.4028,9.8339 -9.8339,9.8339 -5.4311,0 -9.8339,-4.4028 -9.8339,-9.8339 0,-5.4311 4.4028,-9.8339 9.8339,-9.8339 5.4311,0 9.8339,4.4028 9.8339,9.8339 z" />
    <circle
       style="color:#000000;fill:none;stroke:#c2bead;stroke-width:4;stroke-miterlimit:4;stroke-opacity:1;stroke-dasharray:none;marker:none;visibility:visible;display:inline;overflow:visible;enable-background:accumulate"
       id="path4234-6"
       cx="4927.3359"
       cy="2395.8713"
       r="8.4719248"
       sodipodi:cx="4927.3359"
       sodipodi:cy="2395.8713"
       sodipodi:rx="8.4719248"
       sodipodi:ry="8.4719248"
       d="m 4935.8079,2395.8713 c 0,4.679 -3.793,8.472 -8.472,8.472 -4.6789,0 -8.4719,-3.793 -8.4719,-8.472 0,-4.6789 3.793,-8.4719 8.4719,-8.4719 4.679,0 8.472,3.793 8.472,8.4719 z" />
    <circle
       style="color:#000000;fill:none;stroke:#c2bead;stroke-width:4;stroke-miterlimit:4;stroke-opacity:1;stroke-dasharray:none;marker:none;visibility:visible;display:inline;overflow:visible;enable-background:accumulate"
       id="path4234-1"
       cx="4953.0137"
       cy="2370.1941"
       r="8.4719248"
       sodipodi:cx="4953.0137"
       sodipodi:cy="2370.1941"
       sodipodi:rx="8.4719248"
       sodipodi:ry="8.4719248"
       d="m 4961.4856,2370.1941 c 0,4.6789 -3.793,8.4719 -8.4719,8.4719 -4.6789,0 -8.472,-3.793 -8.472,-8.4719 0,-4.6789 3.7931,-8.4719 8.472,-8.4719 4.6789,0 8.4719,3.793 8.4719,8.4719 z" />
    <path
       style="fill:#c2bead;fill-opacity:1;stroke:none"
       d="m 5082.3277,2294.4902 c -84.3496,-24.3709 -258.9181,-17.3611 -326.8204,-3.0905 64.1279,-37.7074 247.24,-42.1243 340.7276,-13.9072 z"
       id="path4269"
       inkscape:connector-curvature="0"
       sodipodi:nodetypes="cccc" />
    <path
       style="fill:#c2bead;fill-opacity:1;stroke:none"
       d="m 5009.7009,2057.2943 c -13.8255,-24.4868 -24.9993,-49.4371 -23.1788,-78.0351 2.66,-41.784 -51.9574,-47.8452 -48.6753,-0.7726 2.8284,40.5654 25.6074,74.3263 71.8541,78.8077 z"
       id="path4271"
       inkscape:connector-curvature="0"
       sodipodi:nodetypes="cssc" />
    <path
       style="fill:#59271a;fill-opacity:1;stroke:none"
       d="m 4594.622,1638.1139 c -24.7923,92.6938 -168.1103,139.3816 -263.3303,87.4126 97.6666,11.8343 198.0755,-22.4124 263.3303,-87.4126 z"
       id="path4273"
       inkscape:connector-curvature="0"
       sodipodi:nodetypes="ccc" />
    <path
       style="font-style:normal;font-variant:normal;font-weight:normal;font-stretch:normal;text-indent:0;text-align:start;text-decoration:none;line-height:normal;letter-spacing:normal;word-spacing:normal;text-transform:none;direction:ltr;block-progression:tb;writing-mode:lr-tb;text-anchor:start;baseline-shift:baseline;color:#000000;fill:#c2bead;fill-opacity:1;stroke:none;stroke-width:29;marker:none;visibility:visible;display:inline;overflow:visible;enable-background:accumulate;font-family:sans-serif;-inkscape-font-specification:sans-serif"
       d="m 4709.1798,752.92971 -23.2402,17.3457 c 126.5985,169.61325 253.7887,388.27489 350.5742,599.85159 96.7855,211.5766 162.955,416.697 168.8535,556.207 4.4275,104.7183 5.1792,206.5267 -58.3828,281.5176 -55.3242,65.2717 -112.7857,120.233 -168.2871,183.7168 -22.5237,25.7631 -50.1598,37.9628 -79.6719,36.7773 -80.9567,-3.2522 -160.1882,-9.571 -245.8203,-21.5059 -20.124,-2.8047 -50.3982,-26.8621 -60.877,-58.2246 -35.2794,-105.5894 -136.4639,-203.2304 -259.0547,-276.7832 -122.5907,-73.5528 -267.0461,-122.8129 -392.3847,-127.1523 -31.3421,-1.0852 -55.9434,-3.5485 -75.0957,-10.916 -19.1524,-7.3676 -33.6608,-19.0021 -47.3517,-42.2227 -77.6273,-131.6599 -64.8903,-330.0641 -50.9094,-448.4837 -30.8181,118.6869 -59.2834,318.6895 25.9289,463.2142 16.3142,27.6697 37.2448,45.0665 61.9201,54.5586 24.6751,9.4921 52.2894,11.7166 84.5058,12.832 118.4509,4.101 259.6369,51.7408 378.4668,123.0371 118.83,71.2964 214.846,166.4544 246.4707,261.1055 13.9924,41.8783 48.7782,72.7963 84.377,77.7578 86.6693,12.0794 166.9552,18.4775 248.6601,21.7598 38.4773,1.5456 75.2217,-15.2724 102.668,-46.6661 54.4198,-62.2464 112.0507,-117.3636 168.5762,-184.0527 71.921,-84.8529 69.6872,-196.2242 65.2363,-301.4961 -6.2292,-147.3322 -73.8198,-353.6044 -171.457,-567.0429 -97.6373,-213.4385 -225.5332,-433.41354 -353.7051,-605.13479 z"
       id="path4207-5"
       inkscape:connector-curvature="0"
       sodipodi:nodetypes="ccssssssssssscsssssssssssc"
       clip-path="url(#clipPath4235)" />
  </g>
  <g
     inkscape:groupmode="layer"
     id="layer10"
     inkscape:label="Eye"
     style="display:inline"
     sodipodi:insensitive="true"
     transform="translate(286.47676,-40.032534)">
    <path
       style="fill:#ffffff;fill-opacity:1;stroke:none"
       d="m 4058.1275,1437.065 568.1816,-163.8985 c 49.4477,184.1375 -23.6424,369.3723 -170.4545,419.5802 -153.6036,52.5306 -351.9415,-90.0932 -397.7271,-255.6817 z"
       id="path4295-0"
       inkscape:connector-curvature="0"
       sodipodi:nodetypes="ccsc" />
    <ellipse
       style="color:#000000;fill:url(#linearGradient4273);fill-opacity:1;fill-rule:nonzero;stroke:none;stroke-width:1px;marker:none;visibility:visible;display:inline;overflow:visible;enable-background:accumulate"
       id="path4307"
       cx="3014.7695"
       cy="3571.1753"
       rx="238.23085"
       ry="182.04871"
       transform="matrix(0.86073096,-0.50906012,0.51114471,0.85949467,0,0)"
       clip-path="url(#clipPath4321)"
       sodipodi:cx="3014.7695"
       sodipodi:cy="3571.1753"
       sodipodi:rx="238.23085"
       sodipodi:ry="182.04871"
       d="m 3253.0004,3571.1753 c 0,100.5427 -106.6596,182.0487 -238.2309,182.0487 -131.5712,0 -238.2308,-81.506 -238.2308,-182.0487 0,-100.5427 106.6596,-182.0487 238.2308,-182.0487 131.5713,0 238.2309,81.506 238.2309,182.0487 z" />
    <ellipse
       style="color:#000000;fill:#000000;fill-opacity:1;fill-rule:nonzero;stroke:none;stroke-width:1px;marker:none;visibility:visible;display:inline;overflow:visible;enable-background:accumulate"
       id="path4309"
       cx="2370.0298"
       cy="3984.3762"
       rx="201.01088"
       ry="146.04021"
       transform="matrix(0.7803334,-0.62536373,0.64785996,0.76175946,0,0)"
       clip-path="url(#clipPath4317)"
       sodipodi:cx="2370.0298"
       sodipodi:cy="3984.3762"
       sodipodi:rx="201.01088"
       sodipodi:ry="146.04021"
       d="m 2571.0407,3984.3762 c 0,80.6558 -89.9957,146.0402 -201.0109,146.0402 -111.0153,0 -201.0109,-65.3844 -201.0109,-146.0402 0,-80.6558 89.9956,-146.0402 201.0109,-146.0402 111.0152,0 201.0109,65.3844 201.0109,146.0402 z" />
    <ellipse
       style="color:#000000;fill:#ffffff;fill-opacity:1;fill-rule:nonzero;stroke:none;stroke-width:1px;marker:none;visibility:visible;display:inline;overflow:visible;enable-background:accumulate"
       id="path4331"
       cx="4624.9536"
       cy="-237.77049"
       rx="77.382263"
       ry="65.158173"
       transform="matrix(0.93025757,0.36690715,-0.31165263,0.9501961,0,0)"
       sodipodi:cx="4624.9536"
       sodipodi:cy="-237.77049"
       sodipodi:rx="77.382263"
       sodipodi:ry="65.158173"
       d="m 4702.3359,-237.77049 c 0,35.98586 -34.6452,65.15817 -77.3823,65.15817 -42.737,0 -77.3822,-29.17231 -77.3822,-65.15817 0,-35.98587 34.6452,-65.15818 77.3822,-65.15818 42.7371,0 77.3823,29.17231 77.3823,65.15818 z" />
    <ellipse
       style="color:#000000;fill:#ffffff;fill-opacity:1;fill-rule:nonzero;stroke:none;stroke-width:1px;marker:none;visibility:visible;display:inline;overflow:visible;enable-background:accumulate"
       id="path4333"
       cx="4588.4141"
       cy="53.56052"
       rx="27.5"
       ry="23"
       transform="matrix(0.94288397,0.33312133,-0.33312133,0.94288397,0,0)"
       sodipodi:cx="4588.4141"
       sodipodi:cy="53.56052"
       sodipodi:rx="27.5"
       sodipodi:ry="23"
       d="m 4615.9141,53.56052 c 0,12.702549 -12.3122,23 -27.5,23 -15.1879,0 -27.5,-10.297451 -27.5,-23 0,-12.702549 12.3121,-23 27.5,-23 15.1878,0 27.5,10.297451 27.5,23 z" />
  </g>
  <g
     inkscape:groupmode="layer"
     id="layer9"
     inkscape:label="Eye Clipping"
     style="opacity:0.5;display:none"
     sodipodi:insensitive="true"
     transform="translate(286.47676,-40.032534)">
    <path
       style="fill:#00ff00;fill-opacity:1;stroke:#ff0000;stroke-width:1px;stroke-linecap:butt;stroke-linejoin:miter;stroke-opacity:1"
       d="m 4058.1275,1437.065 568.1816,-163.8985 c 49.4477,184.1375 -23.6424,369.3723 -170.4545,419.5802 -153.6036,52.5306 -351.9415,-90.0932 -397.7271,-255.6817 z"
       id="path4295"
       inkscape:connector-curvature="0"
       sodipodi:nodetypes="ccsc" />
  </g>
  <g
     inkscape:groupmode="layer"
     id="layer11"
     inkscape:label="Eyelashes"
     sodipodi:insensitive="true"
     style="display:inline"
     transform="translate(286.47676,-40.032534)">
    <path
       style="fill:#000000;stroke:none"
       d="m 3973.9401,1446.2323 c -33.9291,9.9585 -26.8145,30.2994 5.6569,22.6274 231.0104,-54.5803 465.3719,-102.476 683.0651,-189.5046 63.58,-25.4177 33.0338,-75.8324 -19.799,-50.9117 -213.1715,100.5511 -443.7183,151.6897 -668.923,217.7889 z"
       id="path4336"
       inkscape:connector-curvature="0"
       sodipodi:nodetypes="sssss" />
    <path
       style="fill:none;stroke:#000000;stroke-width:14;stroke-linecap:butt;stroke-linejoin:miter;stroke-miterlimit:4;stroke-opacity:1;stroke-dasharray:none"
       d="m 4061.6214,1441.9897 c 56.7024,173.8524 209.342,295.3814 395.9798,244.6589 186.6379,-50.7225 204.1554,-257.6092 165.4629,-414.3645"
       id="path4338"
       inkscape:connector-curvature="0"
       sodipodi:nodetypes="czc" />
  </g>
  <g
     inkscape:groupmode="layer"
     id="layer12"
     inkscape:label="Lower Mane"
     style="display:inline"
     sodipodi:insensitive="true"
     transform="translate(286.47676,-40.032534)">
    <path
       id="path4345-8"
       style="fill:#33231f;fill-opacity:1;stroke:none;display:inline"
       d="m 3781.6071,906.00273 c -316.9402,126.02367 -767.2499,437.85677 -1103.0866,752.36167 -29.2322,201.1348 57.8964,363.8917 124.4508,509.1167 62.1141,135.5361 110.3013,274.2837 132.9361,414.2641 28.1182,-172.7877 63.1312,-320.1768 124.7939,-459.0336 61.6347,-138.7937 122.4766,-266.4701 140.6445,-430.6625 19.4797,158.6921 1.6405,324.0569 -2.5174,489.9508 -2.9096,116.0901 4.291,232 57.1716,348 19.5477,-101.3585 68.7627,-204.9104 126.2427,-292.3847 C 3527.814,2016.0814 3542.3733,1819.7713 3518,1576 c -11.3463,-113.4807 -19.7597,-226.5586 -5.7438,-324.8056 41.7989,164.451 91.3646,314.4617 145.7438,458.8056 5.3086,-219.905 21.2525,-555.1531 152,-756.00002 z"
       inkscape:connector-curvature="0"
       sodipodi:nodetypes="ccscscscsscccc" />
    <path
       style="fill:none;stroke:#271a17;stroke-width:29;stroke-linecap:butt;stroke-linejoin:miter;stroke-miterlimit:9;stroke-opacity:1;stroke-dasharray:none"
       d="m 3781.6071,906.00277 c -316.9402,126.02363 -767.2499,429.37143 -1103.0866,743.87633 -29.2322,201.1348 57.8964,372.3771 124.4508,517.6021 62.1141,135.5361 110.3013,274.2837 132.9361,414.2641 28.1182,-172.7877 63.1312,-320.1768 124.7939,-459.0336 61.6347,-138.7937 122.4766,-266.4702 141.9903,-418.6135"
       id="path4341"
       inkscape:connector-curvature="0"
       sodipodi:nodetypes="ccscsc" />
    <path
       style="fill:none;stroke:#271a17;stroke-width:29;stroke-linecap:butt;stroke-linejoin:miter;stroke-miterlimit:9;stroke-opacity:1;stroke-dasharray:none"
       d="M 3471.0075,1062.3125 C 3511.9603,1284.438 3580.0326,1503.0436 3658,1710 c 5.3086,-219.905 21.2525,-555.1531 152,-755.99998"
       id="path4343"
       inkscape:connector-curvature="0"
       sodipodi:nodetypes="ccc" />
    <path
       style="fill:none;stroke:#271a17;stroke-width:29;stroke-linecap:butt;stroke-linejoin:miter;stroke-miterlimit:4;stroke-opacity:1;stroke-dasharray:none"
       d="M 3222.8034,1221.3715 C 3170.8243,1366.4163 3184.2737,1551.0652 3200,1680 c 20.8255,170.7412 2.9863,336.1061 -1.1716,502 -2.9096,116.0901 4.291,232 57.1716,348 19.5477,-101.3585 68.7627,-204.9104 126.2427,-292.3847 C 3527.814,2016.0815 3542.3733,1819.7713 3518,1576 c -11.3463,-113.4807 -19.7597,-226.5586 -8.6344,-336.3371"
       id="path4345"
       inkscape:connector-curvature="0"
       sodipodi:nodetypes="csscssc" />
    <path
       style="fill:none;stroke:#271a17;stroke-width:19;stroke-linecap:butt;stroke-linejoin:miter;stroke-miterlimit:4;stroke-opacity:1;stroke-dasharray:none"
       d="m 2842,1510 c -4.0689,106.4674 4.1095,208.7921 34,304 35.989,114.6329 29.8421,247.4588 2,342 -14.9262,50.6837 -16.8523,105.4937 -14,162"
       id="path4347"
       inkscape:connector-curvature="0"
       sodipodi:nodetypes="cssc" />
    <path
       style="fill:none;stroke:#271a17;stroke-width:19;stroke-linecap:butt;stroke-linejoin:miter;stroke-miterlimit:4;stroke-opacity:1;stroke-dasharray:none"
       d="m 2958,2464 c -15.6349,-110.1217 2.8765,-257.2548 24,-354 28.5396,-130.7107 22.8785,-261.619 -14,-394 -25.185,-90.4054 -35.7096,-182.6666 -36,-274"
       id="path4349"
       inkscape:connector-curvature="0"
       sodipodi:nodetypes="cssc" />
    <path
       style="fill:none;stroke:#271a17;stroke-width:19;stroke-linecap:butt;stroke-linejoin:miter;stroke-miterlimit:4;stroke-opacity:1;stroke-dasharray:none"
       d="m 3326.3724,1151.2475 c -78.2113,213.5393 -67.9501,412.1322 -25.5979,606.1118 29.5371,135.2842 34.0844,274.3926 -5.6569,410.1219 -33.1656,113.2712 -36.5304,224.3886 -36.7696,336.5829"
       id="path4351"
       inkscape:connector-curvature="0"
       sodipodi:nodetypes="cssc" />
    <path
       style="fill:none;stroke:#271a17;stroke-width:19;stroke-linecap:butt;stroke-linejoin:miter;stroke-miterlimit:4;stroke-opacity:1;stroke-dasharray:none"
       d="M 3762,910.00002 C 3578.6122,1022.3723 3590.5569,1388.9666 3624,1606"
       id="path4353"
       inkscape:connector-curvature="0"
       sodipodi:nodetypes="cc" />
  </g>
  <g
     inkscape:groupmode="layer"
     id="layer13"
     inkscape:label="Ear"
     style="display:inline"
     sodipodi:insensitive="true"
     transform="translate(286.47676,-40.032534)">
    <path
       style="fill:#914e33;fill-opacity:1;stroke:#59271a;stroke-width:29;stroke-linecap:butt;stroke-linejoin:miter;stroke-miterlimit:4;stroke-opacity:1;stroke-dasharray:none"
       d="M 3900,1154 C 3664.7713,953.87394 3587.793,494.51772 3772,298 c 171.376,127.5245 239.7223,341.34442 256,532.00001"
       id="path4356"
       inkscape:connector-curvature="0"
       sodipodi:nodetypes="ccc" />
    <path
       style="fill:#59271a;fill-opacity:1;stroke:none"
       d="m 3830,510.00001 c 113.5,123.05555 145.0467,320.76221 116,444.00001 -7.0746,-122.16338 -34.802,-313.72138 -116,-444.00001 z"
       id="path4358"
       inkscape:connector-curvature="0"
       sodipodi:nodetypes="ccc" />
  </g>
  <g
     inkscape:groupmode="layer"
     id="layer14"
     inkscape:label="Upper Mane"
     style="display:inline"
     sodipodi:insensitive="true"
     transform="translate(286.47676,-40.032534)">
    <path
       style="fill:#33231f;fill-opacity:1;stroke:#271a17;stroke-width:29;stroke-linecap:butt;stroke-linejoin:miter;stroke-miterlimit:4;stroke-opacity:1;stroke-dasharray:none"
       d="m 4420.4884,611.5032 237.9311,181.36248 c 95.2055,51.2106 157.534,172.12758 208.8183,274.35742 8.018,-127.36783 -34.1805,-245.1639 -84.3675,-362.03866 142.5031,75.38619 237.8613,203.81052 339.4112,325.26906 -25.4344,-172.13653 -95.4068,-343.73777 -298.8427,-449.71986 88.3675,-3.47959 180.7351,26.43283 257.1026,44.76956 -130.7081,-156.76157 -499.3381,-227.21095 -660.053,-14 z"
       id="path4369"
       inkscape:connector-curvature="0"
       sodipodi:nodetypes="cccccccc" />
    <path
       style="fill:#33231f;fill-opacity:1;stroke:#271a17;stroke-width:29;stroke-linecap:butt;stroke-linejoin:miter;stroke-miterlimit:9;stroke-opacity:1;stroke-dasharray:none"
       d="m 4695.1891,1426.4334 c -57.1898,-241.7332 -147.2108,-496.72651 -285.6712,-707.10683 12.4967,226.05681 -44.9898,454.11523 -237.5879,656.19513 29.9859,-117.7131 35.6318,-217.1713 45.2548,-319.6123 -58.81,127.5852 -119.0906,267.6762 -255.73,379.6955 -6.6169,-100.9217 -6.8533,-213.05 2.3432,-308.7006 -36.6053,85.8778 -63.1812,206.7702 -72.7107,307.1859 -48.4046,-193.9706 -37.199,-421.3954 80.0244,-612.94025 164.5822,-268.93001 368.0813,-270.52302 540.2296,-195.16147 276.1808,120.90396 242.7451,568.25252 183.8478,800.44492 z"
       id="path4361"
       inkscape:connector-curvature="0"
       sodipodi:nodetypes="cccccccssc" />
    <path
       style="fill:none;stroke:#271a17;stroke-width:19;stroke-linecap:butt;stroke-linejoin:miter;stroke-miterlimit:4;stroke-opacity:1;stroke-dasharray:none"
       d="M 4196,612.00001 C 4055.9004,815.36034 4001.7034,1147.3827 3966,1418"
       id="path4363"
       inkscape:connector-curvature="0"
       sodipodi:nodetypes="cc" />
    <path
       style="fill:none;stroke:#271a17;stroke-width:19;stroke-linecap:butt;stroke-linejoin:miter;stroke-miterlimit:4;stroke-opacity:1;stroke-dasharray:none"
       d="M 4280,592.00001 C 4576.1778,669.82023 4679.6819,1057.5872 4674,1334"
       id="path4365"
       inkscape:connector-curvature="0"
       sodipodi:nodetypes="cc" />
    <path
       style="fill:#2d1e1b;fill-opacity:1;stroke:none"
       d="m 4146.4742,1174.7033 c 83.1646,-168.1754 112.8936,-347.60042 147.0782,-526.08741 -12.0614,186.7503 -38.984,340.09188 -71.7107,497.17571 l -25.2943,-21.4705 z"
       id="path4367"
       inkscape:connector-curvature="0"
       sodipodi:nodetypes="ccccc" />
    <path
       style="fill:none;stroke:#271a17;stroke-width:19;stroke-linecap:butt;stroke-linejoin:miter;stroke-miterlimit:4;stroke-opacity:1;stroke-dasharray:none"
       d="m 4450,608.00001 c 231.0755,-39.89093 483.9934,33.19717 596,330.00001"
       id="path4371"
       inkscape:connector-curvature="0"
       sodipodi:nodetypes="cc" />
  </g>
  <!-- Created by Sigma
       http://90sigma.deviantart.com/ -->
</svg>
