<?xml version="1.0" encoding="UTF-8"?><svg xmlns="http://www.w3.org/2000/svg" xmlns:xlink="http://www.w3.org/1999/xlink" version="1.1" viewBox="-35.27628 0 878.74738 878.74738"><defs id="defs4"><linearGradient id="linearGradient7828"><stop id="stop7830" stop-color="#781d77" offset="0"/><stop id="stop7832" stop-color="#f867ca" offset="1"/></linearGradient><linearGradient id="linearGradient41707" y2="391.46" xlink:href="#linearGradient7828" gradientUnits="userSpaceOnUse" x2="190.28" y1="266.82" x1="265.81"/><linearGradient id="linearGradient41709" y2="349.51" xlink:href="#linearGradient7828" gradientUnits="userSpaceOnUse" x2="88.652" y1="222.36" x1="107.02"/><clipPath id="clipPath7852" clipPathUnits="userSpaceOnUse"><use id="use7854" xlink:href="#path7838" height="1" width="1" y="0" x="0"/></clipPath><clipPath id="clipPath7858" clipPathUnits="userSpaceOnUse"><use id="use7860" xlink:href="#path7824" height="1" width="1" y="0" x="0"/></clipPath><linearGradient id="linearGradient7782" y2="399.74" gradientUnits="userSpaceOnUse" x2="139.79" y1="399.74" x1="121.75"><stop id="stop7770" stop-color="#a7d8e5" offset="0"/></linearGradient></defs><g transform="translate(55.28 -51.584)"><path id="path7324-7" fill="#1568c5" d="m412.14 476.58s27.274-120.21 175.77-146.47l-15.152 16.162s97.985-28.284 159.6 42.426c-11.448-5.7957-22.897-9.0674-34.345-10.102 0 0 70.711 37.376 45.457 189.91l-13.132-29.294s-28.284 71.721-89.904 131.32c0 0-1.0102-27.274-7.0711-48.487 0 0-51.518 45.457-103.04 63.64 0 0 46.467-47.477 57.579-93.944 0 0-30.305 27.274-69.701 52.528 96.337-128.66 30.446-207.22-60.609-146.47"/><path id="path7460" fill="#00e7e6" d="m448.57 485.93c100.51-101.49 245.6-38.966 140.71 103.57 0 0-37.857 82.857-55 91.429 0 0 60-19.286 97.857-58.571 150.16-145.04-28.7-313.61-195-140z"/><path id="path7456" fill="#00e7e6" d="m415 474.51s32.143-122.86 166.43-142.86l-7.1429 13.571s103.57-22.143 150.71 37.143l-35-7.1429s-145-87.14-265 100.71z"/><path id="path7324" d="m412.14 476.58s27.274-120.21 175.77-146.47l-15.152 16.162s97.985-28.284 159.6 42.426c-11.448-5.7957-22.897-9.0674-34.345-10.102 0 0 70.711 37.376 45.457 189.91-2.4272-10.09-6.4335-21.605-13.132-29.294 0 0-28.284 71.721-89.904 131.32 0 0-1.0102-27.274-7.0711-48.487 0 0-51.518 45.457-103.04 63.64 0 0 46.467-47.477 57.579-93.944 0 0-30.305 27.274-69.701 52.528 96.337-128.66 30.446-207.22-60.609-146.47" stroke="#0f3f78" stroke-miterlimit="15" stroke-width="8" fill="none"/></g><g transform="translate(55.28 -51.584)" stroke="#c4a3b1" stroke-width="8"><path id="path7339" d="m410.48 567.89s16.74-2.0203 22.101 4.9387c5.3604 6.959 37.636 173.15 23.009 252.54-3.2854 17.833-13.252 34.867-65.609 34.886-52.357 0.0195-41.291-9.5595-29.785-37.672 40.259-98.356-20.55-242.68-20.55-242.68" fill="#e2eae2"/><path id="path7342-7-3" d="m264.6 581.81s30.911 121.15 16.73 256.71c-3.0394 29.053-33.031 31.476-89.732 30.305-56.701-1.1709-35.139-20.005-22.829-47.376 41.531-92.348 32.407-193.23 27.664-239.76" fill="#e2eae2"/></g><g transform="translate(55.28 -51.584)"><path id="path7717-6" fill="#1568c5" d="m38.571 218.08s-79.286 99.286-88.571 210l68.571-76.43s-52.857 137.86 33.571 243.57c0 0 0-105 14.286-128.57 0 0 12.857 50.714 33.571 62.143 0 0-2.1428-44.286 9.2857-71.429l16.429 30.714 27.857-34.286s14.286 46.429 49.286 50.714c0 0 1.4286-14.643-10.714-36.429 0 0 14.286 13.571 32.5 12.143"/><path id="path7721" fill="#00e7e6" d="m45.714 213.08s-82.143 85.714-95 210.71l66.429-70.714s-27.857 90-10 146.43c0 0 26.429-138.57 65.714-172.14l93.573-157.15z"/><path id="path7717" d="m38.571 218.08s-79.286 99.286-88.571 210c20.027-29.957 42.605-55.806 68.571-76.429 0 0-52.857 137.86 33.571 243.57 0 0 0-105 14.286-128.57 0 0 12.857 50.714 33.571 62.143 0 0-2.1429-44.286 9.2857-71.429l16.429 30.714 27.857-34.286s14.286 46.429 49.286 50.714c0 0 1.4286-14.643-10.714-36.429 0 0 14.286 13.571 32.5 12.143" stroke="#0f3f78" stroke-miterlimit="7" stroke-width="8" fill="none"/></g><g transform="translate(55.28 -51.584)"><path id="path7331-1" fill="#fffde9" d="m323.75 400.31c-11.112 30.81-13.096 105.86-13.096 105.86 44.527-18.875 104.44-60.807 149.7-7.1176 36.782 43.083 24.269 98.528 7.2647 151.25 0 0 19.361-0.26702 24.721 6.692 5.3604 6.959 44.32 81.754 26.334 216.29-2.8751 21.506-30.598 33.098-82.955 33.117-52.357 0.0195-48.443-12.096-31.924-37.587 58.655-90.518 12.495-197.8-1.6862-228.21-32.704 25.38-75.208 27.984-75.208 27.984 7.2011 45.531 18.622 152.7 9.5729 228.62-2.6087 21.887-29.682 30.577-86.383 29.406-56.701-1.1709-31.952-33.356-26.744-45.891 29.319-70.562 32.179-180.23 27.258-227.23-61.923-29.286-103.49-99.917-47.573-216.31"/><path id="path7329" d="m203.04 437.18c-55.92 116.39-10.81 188.79 50.93 217.61" stroke="#c4a3b1" stroke-width="8" fill="none"/><path id="path7331" fill="#c4a3b1" d="m312.22 509.85s0.0267-0.0113 0.0818-0.0347 0.1386-0.0589 0.25219-0.1073c0.1136-0.0484 0.25729-0.10983 0.43281-0.18523s0.38287-0.16478 0.62381-0.26934c0.24094-0.10457 0.51548-0.22431 0.82542-0.36057s0.65528-0.28904 1.0379-0.45984c0.38259-0.1708 0.80243-0.35962 1.2614-0.56808 0.459-0.20847 0.95715-0.43659 1.4964-0.68611 0.53926-0.24952 1.1196-0.52043 1.7431-0.81455 0.62351-0.29411 1.2902-0.61143 2.002-0.95374 0.71187-0.34231 1.469-0.70962 2.2734-1.1036 0.80448-0.394 1.6563-0.81468 2.5578-1.2635 0.90147-0.44884 1.8526-0.92584 2.8556-1.4321 0.50149-0.25312 1.016-0.51355 1.5437-0.78137 0.52775-0.26782 1.0688-0.54302 1.6233-0.82566 0.55458-0.28263 1.1227-0.5727 1.7047-0.87019 0.58201-0.29748 1.1779-0.60239 1.7879-0.91466 0.61003-0.31226 1.2342-0.63188 1.8729-0.95872 0.63865-0.32684 1.2918-0.6609 1.9596-1.002 0.56288-0.28745 1.1542-0.58903 1.7726-0.90374 0.61846-0.31471 1.2641-0.64254 1.9357-0.98236 0.67161-0.33982 1.3692-0.69163 2.0915-1.0541 0.72231-0.36248 1.4694-0.73564 2.2399-1.118 0.77052-0.38236 1.5645-0.77392 2.3807-1.173 0.81619-0.39911 1.6546-0.80578 2.5138-1.2182 0.85927-0.41239 1.7394-0.83049 2.6391-1.2523 0.89971-0.42183 1.819-0.84738 2.7564-1.2745 0.93742-0.42712 1.893-0.8558 2.8654-1.2837 0.97235-0.42794 1.9615-0.85513 2.9659-1.2792 1.0044-0.42402 2.0241-0.84487 3.0577-1.26 1.0335-0.41514 2.0809-0.82459 3.1405-1.2257 2.1193-0.80229 4.2878-1.5714 6.493-2.2862 1.1026-0.35742 2.2144-0.70128 3.3337-1.029s2.2462-0.6393 3.3791-0.93225c0.86735-0.22428 1.7382-0.43765 2.6118-0.63903 0.87363-0.20138 1.75-0.39078 2.6285-0.5672 0.87849-0.17641 1.759-0.33985 2.641-0.48937 0.88192-0.14953 1.7652-0.28514 2.6492-0.40598 0.88397-0.12084 1.7686-0.22691 2.6533-0.31742 0.88469-0.0905 1.7694-0.16547 2.6535-0.22418 0.88413-0.0587 1.7677-0.10115 2.65-0.12672 0.88235-0.0256 1.7635-0.0343 2.6429-0.0256 0.87941 0.009 1.7571 0.0348 2.6324 0.0787 0.87536 0.0439 1.7484 0.10566 2.6187 0.18555 0.87025 0.0799 1.7377 0.17794 2.6018 0.29434s1.7249 0.25116 2.5818 0.40438c0.85694 0.15321 1.7101 0.32488 2.5588 0.51497 0.84878 0.19009 1.6932 0.3986 2.5328 0.62536 0.83959 0.22676 1.6743 0.47177 2.5037 0.73471 0.82937 0.26295 1.6534 0.54384 2.4714 0.8422 0.81806 0.29837 1.6302 0.61421 2.4358 0.94691 0.80564 0.3327 1.6048 0.68226 2.3968 1.0479 0.79205 0.36564 1.577 0.74736 2.3542 1.1442 0.77724 0.39685 1.5468 0.80883 2.3079 1.2348 0.76115 0.426 1.5139 0.86602 2.2577 1.3188 0.74375 0.45275 1.4784 0.91824 2.2034 1.395 0.72497 0.47677 1.4402 0.96482 2.145 1.4625 0.70479 0.49772 1.3991 1.0051 2.0823 1.5204 0.68316 0.51528 1.3551 1.0384 2.0152 1.5676 0.66006 0.52914 1.3082 1.0642 1.9437 1.6032 0.63547 0.53901 1.2583 1.0819 1.8677 1.6266 0.6094 0.54463 1.2054 1.091 1.7872 1.6368 0.58184 0.54577 1.1495 1.091 1.7023 1.6332 0.55279 0.54222 1.0907 1.0815 1.613 1.6153 1.0445 1.0676 2.0266 2.1136 2.9403 3.1176l0.00001 0.00001 0.00002 0.00002c0.44629 0.49041 0.90669 1.0064 1.3779 1.5472 0.47118 0.54078 0.95314 1.1063 1.4426 1.6957 0.48943 0.58942 0.98635 1.2027 1.4875 1.839 0.50119 0.6363 1.0067 1.2956 1.5133 1.977 0.50667 0.68137 1.0145 1.3848 1.5207 2.1094 0.50617 0.72459 1.0106 1.4703 1.5107 2.2362 0.50005 0.76588 0.99568 1.5519 1.4844 2.3571 0.48872 0.80518 0.97054 1.6295 1.4432 2.4719 0.47265 0.84242 0.93612 1.7029 1.3884 2.5804 0.45229 0.87751 0.8934 1.772 1.3216 2.6823 0.42818 0.91035 0.84342 1.8365 1.2442 2.7774 0.40081 0.94085 0.7872 1.8964 1.1579 2.8653 0.37072 0.96893 0.72577 1.9513 1.0642 2.9457 0.33842 0.99447 0.66021 2.0011 0.96463 3.0184 0.30443 1.0174 0.59149 2.0455 0.86072 3.0831 0.26924 1.0375 0.52063 2.0844 0.75395 3.1393s0.44857 2.1176 0.64572 3.1868 0.37621 2.1449 0.53737 3.2254 0.30443 2.166 0.43019 3.2547 0.23401 2.1807 0.32534 3.2744c0.0913 1.0937 0.16574 2.189 0.22395 3.2844 0.0582 1.0954 0.10025 2.1908 0.127 3.2845 0.0267 1.0937 0.0382 2.1858 0.0354 3.2745-0.003 1.0887-0.0199 2.1741-0.0501 3.2544s-0.0736 2.1556-0.1288 3.2242-0.12239 2.1305-0.20014 3.184c-0.1555 2.107-0.35344 4.1805-0.58293 6.2075-0.11474 1.0135-0.23736 2.0154-0.36648 3.0042-0.12912 0.98874-0.26473 1.9643-0.40547 2.9253-0.14073 0.96094-0.28659 1.9072-0.43623 2.8374-0.14965 0.93018-0.30307 1.8443-0.45898 2.7409-0.16291 0.93688-0.32855 1.8547-0.49548 2.7519-0.16694 0.89721-0.33519 1.7738-0.50342 2.6284-0.16822 0.8546-0.33643 1.6872-0.50339 2.4964-0.16695 0.80922-0.33266 1.5951-0.49597 2.3562-0.16331 0.76118-0.32423 1.4977-0.48172 2.2083-0.15749 0.71059-0.31155 1.3953-0.46125 2.0528-0.1497 0.65755-0.29504 1.288-0.43517 1.8901-0.14013 0.60215-0.27507 1.176-0.40406 1.7204-0.19345 0.81655-0.38561 1.622-0.57601 2.4166-0.1904 0.79454-0.37905 1.5781-0.56555 2.3508-0.1865 0.77269-0.37086 1.5345-0.55271 2.2855-0.18185 0.75103-0.3612 1.4913-0.53774 2.2208-0.17654 0.72956-0.35028 1.4484-0.52095 2.1568-0.17067 0.70832-0.33826 1.4061-0.50257 2.0934-0.3286 1.3746-0.644 2.7074-0.94482 3.9995s-0.58708 2.5434-0.85792 3.7552-0.52627 2.3841-0.76587 3.5181-0.46339 2.2299-0.67131 3.2889c-0.20791 1.059-0.39997 2.0812-0.57644 3.0679-0.17646 0.98677-0.33733 1.9381-0.48314 2.8556-0.14581 0.91743-0.27655 1.8009-0.39297 2.6519-0.11641 0.851-0.2185 1.6695-0.30717 2.457-0.0887 0.78744-0.16393 1.5438-0.22681 2.2705-0.0629 0.7267-0.11339 1.4237-0.15268 2.0924-0.0393 0.6687-0.0673 1.3091-0.0854 1.9224-0.0361 1.2267-0.0322 2.3454 0.001 3.3663 0.0337 1.0209 0.097 1.9439 0.17989 2.7788 0.0414 0.41745 0.0877 0.81288 0.13766 1.1875 0.0499 0.37459 0.10352 0.72834 0.15957 1.0624 0.0561 0.33407 0.11457 0.64847 0.17446 0.94433 0.0599 0.29586 0.12113 0.57319 0.18273 0.83309s0.12353 0.50237 0.18487 0.72848c0.0613 0.22611 0.12209 0.43585 0.18141 0.63025 0.0593 0.1944 0.11719 0.37346 0.17287 0.53813 0.0557 0.16467 0.10919 0.31495 0.15984 0.45174 0.0506 0.13679 0.0984 0.2601 0.14281 0.37073 0.0444 0.11063 0.0853 0.2086 0.12235 0.29464 0.037 0.086 0.0702 0.16016 0.0989 0.22301 0.0288 0.0629 0.0532 0.11445 0.073 0.15535s0.0349 0.0711 0.045 0.0911 0.0153 0.0298 0.0153 0.0298 0.003-0.0108 0.007-0.0327c0.005-0.0219 0.0121-0.0549 0.0214-0.0992 0.009-0.0444 0.0208-0.10009 0.0342-0.16752 0.0135-0.0674 0.0289-0.14655 0.0463-0.2377 0.0174-0.0911 0.0368-0.19433 0.0582-0.3099 0.0214-0.11558 0.0448-0.24355 0.0702-0.38433 0.0255-0.14079 0.053-0.29439 0.0829-0.46129s0.062-0.34709 0.0966-0.54113 0.0718-0.40193 0.11184-0.62431c0.04-0.22239 0.0829-0.45926 0.12899-0.71137 0.0461-0.25211 0.0954-0.51945 0.1485-0.80289 0.053-0.28344 0.10979-0.58296 0.17077-0.89956 0.061-0.3166 0.12619-0.65027 0.19621-1.0021 0.07-0.35185 0.14488-0.72187 0.22521-1.1113 0.0803-0.38943 0.16611-0.79829 0.25809-1.2279 0.092-0.42964 0.19012-0.88007 0.29519-1.3528 0.10507-0.47272 0.21707-0.96771 0.33678-1.4866 0.1197-0.51889 0.24711-1.0617 0.38302-1.6301 0.13591-0.56841 0.28032-1.1624 0.43402-1.7839 0.1537-0.62145 0.31669-1.2703 0.48972-1.9485 0.17303-0.67816 0.35611-1.3856 0.54992-2.1243 0.1938-0.73867 0.39834-1.5086 0.61419-2.3116 0.21585-0.80306 0.44301-1.6393 0.68191-2.5107 0.2389-0.87138 0.48955-1.7779 0.75216-2.7216 0.26261-0.94365 0.53719-1.9244 0.82371-2.9443 0.28651-1.0199 0.58497-2.0788 0.89501-3.1789 0.31005-1.1 0.63168-2.2412 0.96417-3.4253s0.67584-2.4113 1.0289-3.6834c0.35301-1.2721 0.7157-2.5891 1.0863-3.9529 0.18532-0.68191 0.37261-1.3755 0.56161-2.081 0.189-0.70552 0.37971-1.423 0.5718-2.1525 0.1921-0.72957 0.38558-1.4713 0.5801-2.2253 0.19452-0.75402 0.39006-1.5204 0.58624-2.2992 0.19617-0.77887 0.39296-1.5703 0.58992-2.3743 0.19696-0.80407 0.39408-1.6208 0.59085-2.4504 0.1312-0.55313 0.26855-1.1367 0.41133-1.7496 0.14278-0.61296 0.29098-1.2553 0.44379-1.9261 0.15281-0.67076 0.31022-1.3699 0.4713-2.0964 0.16109-0.72648 0.32585-1.4803 0.49324-2.2603 0.1674-0.78001 0.33743-1.5862 0.50895-2.4175 0.17152-0.83124 0.34453-1.6875 0.51777-2.5676 0.17324-0.88004 0.34672-1.7838 0.51906-2.7101 0.17235-0.92626 0.34356-1.875 0.51219-2.8447 0.16139-0.92806 0.3204-1.8754 0.4757-2.8408 0.1553-0.96535 0.30689-1.9487 0.45336-2.9487s0.28783-2.0167 0.42262-3.0486c0.1348-1.0319 0.26303-2.0791 0.38322-3.1401 0.1202-1.061 0.23235-2.1357 0.33498-3.2228 0.10264-1.087 0.19574-2.1863 0.27785-3.2963 0.0821-1.11 0.1532-2.2306 0.21185-3.3603 0.0586-1.1297 0.10483-2.2684 0.13717-3.4144 0.0323-1.1461 0.0508-2.2995 0.0541-3.4585 0.003-1.159-0.009-2.3236-0.0368-3.4921-0.0283-1.1684-0.0729-2.3407-0.13506-3.515-0.0621-1.1743-0.14177-2.3506-0.23981-3.5271-0.098-1.1765-0.21449-2.3532-0.3501-3.5281-0.13561-1.175-0.29038-2.3483-0.46485-3.518-0.17446-1.1698-0.36862-2.336-0.58277-3.4968s-0.44829-2.3162-0.70247-3.4644c-0.25418-1.1481-0.52839-2.289-0.8224-3.4209-0.29402-1.1318-0.60784-2.2546-0.94094-3.3665s-0.68548-2.2129-1.0563-3.3014c-0.37084-1.0884-0.76014-2.1643-1.1668-3.2259-0.40663-1.0616-0.83059-2.109-1.2704-3.1405-0.43986-1.0315-0.89561-2.0471-1.3655-3.0454-0.46992-0.99827-0.95399-1.9792-1.4502-2.9412-0.49621-0.96207-1.0045-1.9053-1.5227-2.8284-0.51816-0.92309-1.0461-1.826-1.5814-2.7075-0.53523-0.88149-1.0777-1.7416-1.6246-2.579-0.54691-0.83746-1.0982-1.6523-1.651-2.4435-0.55275-0.79117-1.1069-1.5586-1.6593-2.3014-0.55237-0.74278-1.1029-1.4609-1.6484-2.1533-0.54542-0.69244-1.0857-1.3592-1.6174-1.9995-1.0633-1.2805-2.0922-2.455-3.0584-3.5166-0.00001 0-0.00001-0.00001-0.00001-0.00001l-0.00002-0.00002c-0.97267-1.0688-2.0205-2.185-3.1387-3.3279-0.5591-0.57145-1.1358-1.1496-1.7294-1.7319-0.59367-0.58228-1.2043-1.1687-1.8314-1.7568-0.62705-0.58809-1.2705-1.1778-1.9297-1.7668-0.65921-0.58898-1.3342-1.1772-2.0244-1.7623-0.69015-0.58511-1.3954-1.1671-2.1153-1.7438-0.71984-0.57665-1.4542-1.148-2.2025-1.7118-0.74826-0.56381-1.5104-1.1201-2.2858-1.667-0.77536-0.54684-1.5639-1.0842-2.365-1.6101-0.8011-0.52597-1.6147-1.0406-2.4401-1.5421-0.82542-0.5015-1.6626-0.9899-2.5109-1.4636-0.84827-0.47373-1.7076-0.9328-2.5772-1.3758-0.86957-0.44299-1.7494-0.8699-2.6387-1.2795-0.88926-0.4096-1.788-0.80189-2.6952-1.1758-0.90727-0.37392-1.8231-0.72948-2.7466-1.0658-0.92352-0.33633-1.8547-0.65341-2.7927-0.95058-0.93795-0.29716-1.8827-0.5744-2.8332-0.83123-0.95051-0.25683-1.9068-0.49325-2.868-0.70894-0.96116-0.2157-1.9272-0.41067-2.897-0.58481-0.96987-0.17413-1.9436-0.32743-2.9202-0.45995-0.97663-0.13252-1.9561-0.24427-2.9376-0.33548-0.98143-0.0912-1.9648-0.16189-2.9491-0.21244-0.98431-0.0505-1.9696-0.081-2.9549-0.0919-0.98529-0.0109-1.9706-0.002-2.9551 0.0254-0.98445 0.0275-1.968 0.0739-2.9499 0.13829-0.98184 0.0644-1.9619 0.14677-2.9395 0.24619-0.97753 0.0994-1.9525 0.2159-2.9241 0.34835-0.97161 0.13245-1.9399 0.28089-2.904 0.44417-0.96417 0.16328-1.9242 0.3414-2.8795 0.53317-1.9105 0.38354-3.8018 0.82168-5.6684 1.3044-1.219 0.31523-2.4276 0.64945-3.6242 0.9998s-2.3813 0.71683-3.5527 1.0966c-1.1714 0.37973-2.3295 0.77271-3.473 1.1761-1.1435 0.40337-2.2724 0.81713-3.3853 1.2385-1.113 0.42135-2.21 0.85028-3.2899 1.2841-1.0799 0.43379-2.1427 0.87246-3.187 1.3134-1.0444 0.44092-2.0704 0.8841-3.0768 1.3271-1.0064 0.44297-1.9934 0.88574-2.9595 1.326-0.96619 0.44024-1.9117 0.87797-2.8353 1.311-0.92363 0.43306-1.8254 0.86147-2.7043 1.2832-0.87884 0.42179-1.7347 0.83695-2.5666 1.2437-0.83186 0.40678-1.6397 0.80517-2.4224 1.1936-0.78275 0.38842-1.5404 0.76687-2.2719 1.134-0.73152 0.36709-1.4369 0.72281-2.1151 1.066-0.67822 0.34314-1.3293 0.67371-1.9521 0.99064-0.62286 0.31693-1.2175 0.62022-1.783 0.90898-0.67094 0.34262-1.3261 0.67771-1.9659 1.0051-0.63979 0.3274-1.2642 0.64712-1.8737 0.95908-0.60945 0.31195-1.2039 0.61613-1.7838 0.91253s-1.1452 0.58501-1.6964 0.86588c-0.55113 0.28086-1.0881 0.55398-1.6112 0.81944-0.52312 0.26546-1.0324 0.52326-1.5283 0.77353-0.99171 0.50053-1.9296 0.97092-2.8166 1.4125-0.88701 0.44163-1.7231 0.85451-2.511 1.2404-0.7879 0.38587-1.5276 0.74473-2.2218 1.0785-0.69414 0.33378-1.3427 0.64249-1.9482 0.9281-0.60549 0.28561-1.1679 0.54813-1.6896 0.78952-0.5217 0.2414-1.0027 0.46166-1.4452 0.66265-0.44253 0.20099-0.84661 0.38272-1.2144 0.5469-0.36776 0.16418-0.69921 0.31081-0.99638 0.44146-0.29716 0.13064-0.56004 0.2453-0.79057 0.34534-0.23053 0.10005-0.42871 0.18548-0.59636 0.2575-0.16766 0.072-0.30481 0.13062-0.41319 0.17683-0.10838 0.0462-0.188 0.08-0.24054 0.10234-0.0525 0.0223-0.078 0.0331-0.078 0.0331l3.19 7.33z"/><path id="path7339-6-9" d="m468.03 652.5s19.709-2.0907 25.069 4.8683c5.3604 6.959 42.627 82.494 24 218.89-2.4536 17.966-27.467 29.633-79.824 29.652-52.357 0.0195-48.206-12.71-32.895-38.945 68.543-117.45-4.5681-227.27-4.5681-227.27" stroke="#c4a3b1" stroke-width="8" fill="none"/><path id="path7484" fill="#c4a3b1" d="m321.1 400.03s-0.00001 0.00004-0.00007 0.00031c-0.00007 0.00027-0.00018 0.00077-0.00049 0.002-0.00032 0.001-0.00083 0.004-0.002 0.008-0.00097 0.004-0.002 0.0103-0.005 0.0202-0.001 0.005-0.002 0.0108-0.004 0.0178s-0.004 0.0153-0.006 0.0251c-0.002 0.01-0.005 0.0211-0.008 0.0343s-0.006 0.0282-0.0104 0.0456c-0.004 0.0174-0.008 0.037-0.0136 0.0594-0.005 0.0224-0.0109 0.0475-0.0173 0.0759-0.006 0.0284-0.0137 0.06-0.0217 0.0954s-0.017 0.0746-0.0269 0.11824c-0.01 0.0436-0.0208 0.0917-0.0328 0.14474-0.012 0.0531-0.0251 0.11124-0.0396 0.17518-0.0144 0.0639-0.0301 0.13364-0.0473 0.2099-0.0171 0.0763-0.0357 0.15905-0.0559 0.2492-0.0202 0.0902-0.042 0.18768-0.0656 0.29342-0.0236 0.10575-0.049 0.21973-0.0763 0.34286-0.0274 0.12313-0.0567 0.25541-0.0882 0.39781-0.0315 0.14241-0.0652 0.29494-0.10119 0.45861-0.036 0.16368-0.0744 0.3385-0.11536 0.52553-0.0409 0.18703-0.0845 0.38627-0.13072 0.59883-0.0926 0.42512-0.19614 0.90348-0.31241 1.4444-0.11626 0.54094-0.24519 1.1445-0.38834 1.8204-0.14314 0.67593-0.3005 1.4243-0.47347 2.2552-0.0692 0.33236-0.14837 0.71393-0.23737 1.1451-0.0445 0.21558-0.0915 0.44356-0.14084 0.68394-0.0494 0.24039-0.10117 0.49318-0.15535 0.75836-0.0542 0.26518-0.11072 0.54273-0.16958 0.83257-0.0589 0.28984-0.12004 0.59198-0.18346 0.90623-0.0634 0.31425-0.12906 0.64063-0.19685 0.97889-0.0678 0.33825-0.13771 0.68838-0.20966 1.05-0.0719 0.36167-0.14591 0.73488-0.22177 1.1192-0.0758 0.38431-0.15359 0.77972-0.23306 1.1857-0.0795 0.40597-0.16067 0.8225-0.24342 1.249-0.0827 0.42645-0.16705 0.86283-0.25271 1.3084-0.0857 0.44555-0.17269 0.90028-0.26087 1.3633-0.0882 0.46306-0.1775 0.93444-0.26775 1.4132-0.0903 0.47877-0.18143 0.96493-0.2733 1.4574-0.0919 0.4925-0.18444 0.99135-0.27745 1.4954-0.093 0.50406-0.18646 1.0133-0.28011 1.5266-0.0936 0.51329-0.1875 1.0306-0.28128 1.5506-0.0938 0.52002-0.18751 1.0428-0.28091 1.5669-0.0934 0.52413-0.18649 1.0496-0.27899 1.5751-0.0925 0.52548-0.18444 1.0509-0.27553 1.5749-0.0911 0.52398-0.18137 1.0465-0.27056 1.566-0.17837 1.0391-0.35242 2.0662-0.52025 3.0693-0.16784 1.003-0.32945 1.9819-0.48312 2.9241-0.15367 0.94219-0.29939 1.8477-0.43563 2.704-0.13623 0.85628-0.26299 1.6633-0.37888 2.4088-0.1159 0.7455-0.22095 1.4294-0.31392 2.0398-0.14527 0.95372-0.28696 1.9044-0.42493 2.851-0.13798 0.9466-0.27225 1.8892-0.4027 2.8267-0.13046 0.93757-0.2571 1.8702-0.37985 2.797-0.12275 0.92681-0.2416 1.8478-0.35652 2.7623-0.11491 0.91448-0.22588 1.8224-0.33287 2.7232-0.10699 0.90075-0.21001 1.7943-0.30903 2.6801-0.099 0.88578-0.19406 1.7638-0.28512 2.6335-0.091 0.86969-0.17812 1.7311-0.26123 2.5837-0.0831 0.85264-0.16226 1.6965-0.23749 2.5313-0.0752 0.83475-0.14654 1.6604-0.21399 2.4765-0.0674 0.81613-0.13102 1.6228-0.19081 2.4196-0.0598 0.79688-0.11576 1.584-0.16803 2.3611-0.0523 0.77712-0.10081 1.5442-0.14574 2.3012-0.0449 0.75693-0.0862 1.5037-0.124 2.2401-0.0755 1.4728-0.137 2.9043-0.18527 4.2936-0.0483 1.3894-0.0834 2.7366-0.10633 4.0416-0.023 1.305-0.0338 2.5677-0.0336 3.7883 0.00018 1.2206 0.0114 2.3992 0.0324 3.5364s0.0519 2.2329 0.0913 3.2881 0.0875 2.0698 0.14291 3.0451c0.0554 0.97523 0.11821 1.9111 0.18715 2.8088 0.0689 0.89774 0.14404 1.7574 0.22406 2.5804 0.08 0.82301 0.165 1.6094 0.25373 2.3606 0.0887 0.75127 0.18122 1.4674 0.27635 2.1501 0.0951 0.68268 0.19288 1.3319 0.29218 1.9492 0.0993 0.61734 0.20017 1.2028 0.30155 1.7581 0.10138 0.55528 0.2033 1.0804 0.30478 1.5768 0.10149 0.49649 0.20255 0.96439 0.30229 1.4053 0.0998 0.44091 0.19818 0.85482 0.29449 1.2433 0.0963 0.38845 0.19049 0.75144 0.28181 1.0904 0.0913 0.33899 0.17977 0.654 0.2647 0.9464 0.0849 0.2924 0.16633 0.56221 0.24362 0.81071 0.0773 0.24851 0.15045 0.47572 0.21899 0.68283 0.0685 0.20712 0.13244 0.39414 0.19126 0.56218 0.0588 0.16804 0.11255 0.3171 0.16081 0.44817 0.0483 0.13107 0.091 0.24415 0.12805 0.34015 0.037 0.096 0.0682 0.17489 0.0933 0.23749s0.0442 0.10889 0.057 0.13956c0.0128 0.0307 0.0192 0.0457 0.0192 0.0457s0.001-0.0163 0.003-0.0495c0.002-0.0331 0.005-0.0831 0.009-0.15036 0.004-0.0673 0.008-0.15189 0.0133-0.25442 0.005-0.10253 0.0105-0.22297 0.0163-0.36199 0.006-0.13903 0.0121-0.29662 0.0186-0.47353 0.007-0.17691 0.0133-0.37314 0.0204-0.5895 0.007-0.21636 0.0145-0.45285 0.0222-0.7104 0.008-0.25755 0.0158-0.53616 0.0243-0.83683 0.009-0.30067 0.0175-0.62341 0.0272-0.96934 0.01-0.34593 0.0199-0.71504 0.0311-1.1086 0.0112-0.39352 0.0233-0.81143 0.0366-1.2551 0.0133-0.44364 0.0279-0.913 0.044-1.4095 0.0162-0.49648 0.0339-1.0201 0.0537-1.5723 0.0198-0.55221 0.0416-1.133 0.066-1.744 0.0244-0.61098 0.0513-1.2521 0.0814-1.925 0.0301-0.67289 0.0632-1.3775 0.10013-2.1155 0.0369-0.73799 0.0775-1.5093 0.1225-2.3156 0.045-0.80629 0.0944-1.6475 0.14877-2.5252 0.0544-0.87772 0.11389-1.7919 0.17913-2.744 0.0652-0.95212 0.13623-1.9422 0.21369-2.9714 0.0775-1.0293 0.1614-2.0978 0.25251-3.2065 0.0911-1.1088 0.18938-2.2579 0.29551-3.4481 0.10612-1.1902 0.22009-2.4215 0.34252-3.6944 0.12244-1.2729 0.25335-2.5874 0.39327-3.9436 0.13993-1.3562 0.28888-2.754 0.4473-4.193 0.0792-0.7195 0.1608-1.4493 0.24479-2.1893 0.084-0.73996 0.17039-1.4901 0.25924-2.2503 0.0888-0.76016 0.18015-1.5304 0.27393-2.3104 0.0938-0.78 0.19001-1.5698 0.28875-2.3692 0.0987-0.7994 0.19995-1.6084 0.30366-2.4266 0.10371-0.81823 0.2099-1.6457 0.31857-2.4822 0.10867-0.83642 0.21982-1.6818 0.33341-2.5356 0.11358-0.85383 0.22962-1.7162 0.34805-2.5865 0.11843-0.87033 0.23925-1.7487 0.36241-2.6345s0.24864-1.7791 0.37637-2.6792c0.12773-0.90009 0.25769-1.807 0.38979-2.7201 0.1321-0.91305 0.26632-1.8322 0.40254-2.7567 0.13622-0.92451 0.27444-1.8544 0.41448-2.7886 0.14005-0.93429 0.28192-1.873 0.42544-2.8153 0.0919-0.60303 0.19565-1.2788 0.31018-2.0155 0.11453-0.73671 0.2398-1.5344 0.37447-2.3808 0.13467-0.84642 0.27873-1.7416 0.43067-2.6732 0.15195-0.9316 0.31176-1.8996 0.47775-2.8916 0.166-0.99202 0.33816-2.008 0.51461-3.036 0.0882-0.51394 0.17754-1.0309 0.26767-1.5493 0.0901-0.51841 0.18108-1.0383 0.27261-1.5582 0.0915-0.51994 0.18364-1.0399 0.27606-1.5586 0.0924-0.51865 0.18517-1.036 0.27798-1.5506 0.0928-0.51462 0.18569-1.0266 0.27837-1.5345 0.0927-0.50799 0.18518-1.012 0.27723-1.5109 0.0921-0.49887 0.18366-0.99259 0.27459-1.48 0.0909-0.48745 0.18118-0.96862 0.2705-1.4425 0.0893-0.47386 0.17774-0.94041 0.26501-1.3987 0.0873-0.4583 0.1734-0.90836 0.25818-1.3493 0.0848-0.44097 0.16822-0.87285 0.25012-1.2949s0.16226-0.83428 0.2409-1.236c0.0786-0.40176 0.15558-0.79306 0.23064-1.1734 0.0751-0.38029 0.14826-0.74959 0.21945-1.1075 0.0712-0.35786 0.14038-0.70429 0.20745-1.039 0.0671-0.33466 0.13201-0.65756 0.19474-0.96844 0.0627-0.31088 0.12325-0.60976 0.18148-0.89645 0.0582-0.2867 0.11416-0.56122 0.16773-0.82348 0.0536-0.26227 0.10481-0.51227 0.15364-0.74998 0.0488-0.23771 0.0953-0.46313 0.13925-0.67628 0.088-0.42629 0.16628-0.80349 0.23466-1.132 0.17097-0.82126 0.32644-1.5606 0.4678-2.2282 0.14137-0.66753 0.26862-1.2632 0.38331-1.7968 0.11468-0.5336 0.21679-1.0051 0.30794-1.4238 0.0456-0.20935 0.0884-0.40549 0.1287-0.58953 0.0403-0.18403 0.078-0.35596 0.11345-0.51683 0.0354-0.16088 0.0685-0.31071 0.0994-0.45051s0.0597-0.26957 0.0865-0.39027 0.0517-0.23234 0.0748-0.33582c0.0231-0.10349 0.0444-0.19883 0.0641-0.28689 0.0197-0.0881 0.0379-0.16883 0.0546-0.24314 0.0167-0.0743 0.032-0.14215 0.046-0.20429 0.014-0.0621 0.0268-0.11856 0.0384-0.16999 0.0116-0.0514 0.0222-0.0979 0.0317-0.13995 0.01-0.0421 0.0181-0.0798 0.0259-0.11384 0.008-0.034 0.0146-0.0643 0.0208-0.0914 0.006-0.0271 0.0116-0.051 0.0165-0.0722 0.005-0.0212 0.009-0.0397 0.0128-0.056 0.004-0.0163 0.007-0.0303 0.01-0.0426 0.003-0.0122 0.005-0.0226 0.007-0.0316s0.004-0.0164 0.005-0.0227c0.001-0.006 0.003-0.0115 0.004-0.0157 0.002-0.009 0.003-0.0136 0.004-0.0168 0.00075-0.003 0.001-0.005 0.001-0.005 0.00017-0.00074 0.00019-0.0008 0.00018-0.00078 0 0.00003-0.00003 0.00013-0.00003 0.00013l-7.79-1.82z"/><path id="path7329-5" fill="#c4a3b1" d="m324.01 672s0.0357-0.001 0.10928-0.003c0.0736-0.002 0.18508-0.006 0.33665-0.0112 0.15157-0.005 0.34321-0.012 0.57704-0.0209 0.23383-0.009 0.50986-0.0199 0.83013-0.0339 0.32028-0.0139 0.6848-0.0307 1.0955-0.0515 0.41074-0.0208 0.8677-0.0455 1.3727-0.0756 0.50505-0.0301 1.0582-0.0655 1.6611-0.10802 0.60296-0.0425 1.2557-0.0921 1.9599-0.1509 0.70418-0.0588 1.4598-0.12682 2.2681-0.20664 0.80833-0.0798 1.6694-0.17144 2.5844-0.27791 0.91494-0.10647 1.8837-0.2278 2.9072-0.36757 1.0234-0.13977 2.1015-0.29798 3.2346-0.4788 0.56654-0.0904 1.1468-0.18648 1.7409-0.28878 0.59403-0.1023 1.2018-0.21085 1.8233-0.32624 0.62149-0.1154 1.2567-0.23765 1.9056-0.36741 0.64885-0.12976 1.3114-0.26704 1.9874-0.41253 0.67604-0.14549 1.3656-0.29919 2.0686-0.46186 0.70294-0.16267 1.4193-0.33429 2.1488-0.51567s1.4722-0.37252 2.2277-0.57424c0.75558-0.20173 1.5241-0.41405 2.3051-0.63786 2.044-0.58568 4.0312-1.2112 5.9614-1.8721 1.9302-0.66093 3.8036-1.3573 5.6202-2.0849 1.8167-0.7276 3.5766-1.4864 5.2806-2.2725 1.7039-0.78607 3.3517-1.5994 4.9443-2.4362 1.5926-0.83676 3.1299-1.697 4.613-2.577 1.4831-0.88003 2.9121-1.7799 4.2882-2.6961 1.3761-0.91623 2.6993-1.8488 3.9711-2.7945s2.4923-1.9045 3.663-2.8733c1.317-1.0898 2.571-2.1922 3.7647-3.303s2.3272-2.2301 3.4032-3.3539 2.0945-2.2521 3.0585-3.3813c0.96402-1.1292 1.8736-2.2592 2.7318-3.3868 0.85822-1.1275 1.6651-2.2525 2.4239-3.3719 0.75882-1.1194 1.4696-2.2331 2.1355-3.3384 0.66599-1.1053 1.2872-2.2021 1.8671-3.2879 0.57984-1.0858 1.1183-2.1606 1.6187-3.222 0.50041-1.0615 0.96279-2.1096 1.3904-3.1425 0.42765-1.0329 0.82057-2.0504 1.182-3.0509 0.36144-1.0005 0.6914-1.9839 0.99303-2.9487 0.30162-0.96481 0.57492-1.911 0.82292-2.8373 0.24799-0.92628 0.47069-1.8327 0.67098-2.718 0.20029-0.88536 0.37818-1.7497 0.53641-2.5921 0.15824-0.8424 0.29681-1.6628 0.41832-2.4606 0.12151-0.79775 0.22595-1.5728 0.31574-2.3246 0.0898-0.75174 0.16494-1.4802 0.22769-2.1848 0.0628-0.70466 0.11312-1.3856 0.15317-2.0423 0.0401-0.65677 0.0698-1.2894 0.0911-1.8977s0.0343-1.1922 0.0406-1.7517c0.006-0.55946 0.006-1.0944 0.00048-1.6049-0.005-0.51045-0.016-0.99638-0.0301-1.4578-0.0142-0.46145-0.032-0.89843-0.0522-1.311-0.0202-0.41262-0.0428-0.80087-0.0667-1.165-0.0239-0.36408-0.0491-0.70399-0.0746-1.02-0.0255-0.31599-0.0513-0.60806-0.0766-0.8765-0.0253-0.26845-0.05-0.51328-0.0735-0.73485-0.0235-0.22156-0.0458-0.41986-0.0663-0.5953s-0.0392-0.32801-0.0555-0.45816c-0.0164-0.13015-0.0305-0.23787-0.042-0.32364-0.0115-0.0858-0.0203-0.14959-0.0263-0.19196-0.006-0.0424-0.009-0.0633-0.009-0.0633s-0.002 0.021-0.006 0.0636-0.0105 0.10667-0.0189 0.19275c-0.008 0.0861-0.0188 0.19412-0.0314 0.3245-0.0126 0.13039-0.0273 0.28311-0.0444 0.45847-0.0171 0.17535-0.0365 0.37335-0.0586 0.59419-0.0221 0.22085-0.0469 0.46455-0.0747 0.73125-0.0279 0.26669-0.0588 0.55639-0.0934 0.86914-0.0346 0.31276-0.0728 0.64857-0.11536 1.0074-0.0426 0.35884-0.0894 0.74073-0.14142 1.1455-0.052 0.4048-0.10913 0.83253-0.17233 1.283-0.0632 0.45044-0.13246 0.9236-0.20887 1.4192-0.0764 0.49558-0.15996 1.0136-0.25186 1.5536-0.0919 0.54001-0.19215 1.102-0.30209 1.6856-0.10994 0.58356-0.22957 1.1886-0.36036 1.8146-0.13079 0.62599-0.27275 1.2729-0.42747 1.94-0.15472 0.66713-0.32221 1.3545-0.50419 2.0612-0.18199 0.70674-0.37847 1.4329-0.5913 2.1775-0.21283 0.74462-0.44201 1.5077-0.68951 2.2883-0.24751 0.78058-0.51333 1.5786-0.79957 2.393-0.28623 0.81437-0.59288 1.6451-0.92213 2.4909-0.32926 0.84581-0.68112 1.7067-1.0579 2.5814-0.37677 0.87469-0.77846 1.7632-1.2075 2.664-0.42901 0.90082-0.88535 1.814-1.3715 2.738-0.48616 0.92398-1.0021 1.8588-1.5506 2.8027-0.54842 0.94396-1.1293 1.8971-1.7452 2.8577-0.61598 0.96056-1.2671 1.9286-1.9561 2.9021-0.68901 0.97354-1.4159 1.9526-2.1836 2.9353-0.76769 0.98265-1.5761 1.9688-2.4283 2.9564-0.85214 0.98758-1.748 1.9766-2.6904 2.9646-0.94249 0.98802-1.9316 1.9751-2.9704 2.9586-1.0388 0.98352-2.1273 1.9635-3.2683 2.9372-1.1411 0.97366-2.3348 1.941-3.5841 2.8989-1.1106 0.85156-2.265 1.6957-3.4654 2.5299-1.2004 0.83429-2.4466 1.6588-3.7406 2.4708-1.294 0.81208-2.6358 1.6118-4.027 2.3963-1.3913 0.78451-2.832 1.5538-4.3239 2.305-1.4919 0.75113-3.0348 1.4841-4.6303 2.1955-1.5954 0.71147-3.2433 1.4015-4.9448 2.0665-1.7015 0.66505-3.4566 1.3051-5.2661 1.9165-1.8095 0.61134-3.6735 1.1939-5.5924 1.7438-0.73325 0.2101-1.4551 0.40954-2.1651 0.59911-0.71004 0.18956-1.4083 0.36927-2.0945 0.53988-0.68617 0.1706-1.3603 0.33211-2.022 0.48525-0.66176 0.15313-1.3112 0.29789-1.9481 0.43496-0.63692 0.13707-1.2613 0.26646-1.8731 0.3888-0.61175 0.12234-1.2108 0.23763-1.7972 0.3465-1.1727 0.21773-2.2942 0.40976-3.3644 0.58054-1.0702 0.17077-2.0889 0.32028-3.0564 0.45242-0.96751 0.13213-1.8838 0.24688-2.7494 0.34761-0.86561 0.10073-1.6806 0.18744-2.4458 0.263-0.76522 0.0756-1.4807 0.13998-2.1477 0.19567-0.66696 0.0557-1.2854 0.10268-1.8567 0.14296-0.57133 0.0403-1.0956 0.0738-1.5743 0.10237-0.47871 0.0285-0.91192 0.052-1.3014 0.0717-0.38942 0.0197-0.73508 0.0357-1.0388 0.0489s-0.5655 0.0237-0.78728 0.0321c-0.22178 0.008-0.40355 0.0149-0.54732 0.0198-0.14376 0.005-0.24952 0.008-0.31933 0.0106-0.0698 0.002-0.10367 0.003-0.10367 0.003l0.24 8z"/><path id="path7342-7-3-6-1" d="m326.41 662.98c8.2988 46.112 20.738 137.65 10.783 232.81-3.0394 29.053-33.031 31.476-89.732 30.305-56.701-1.1709-27.139-34.505-22.829-47.376 26.389-78.818 31.052-163.21 29.253-216.64" stroke="#c4a3b1" stroke-width="8" fill="none"/><path id="path7342-7-3-6-1-4" fill="#c4a3b1" d="m316.23 632.89s2.8822 11.892 6.5156 32.297l7.875-1.4062c-3.66-20.6-14.39-30.89-14.39-30.89zm-60.274-1.5619s-6.8979 12.842-6.0233 32.89l8-0.25c-0.88-19.22-1.98-32.64-1.98-32.64z"/></g><g transform="translate(.29794 -3.3689e-7)"><g id="layer1-0" transform="matrix(.023410 -.0038064 .0084681 .052080 480.81 476.28)"><path id="rect3768-9-1" d="m-512.83-35.203 452.18 1091.9 237.61-33.3c119.1-16.7 225.17-37.43 297.42-86.86 214.58-146.8-202.72-354.67-456.24-83.96l-283.49-684.58 1130.8-157.08 359.15 867.29 256.34-36.031c111.71-15.702 210.26-37.35 278.7-84.174 214.58-146.8-202.72-354.67-456.25-83.964l-376.5-909.23z"/></g></g><g transform="translate(55.28 -51.584)"><path id="path7784" fill="#fff" d="m100.12 395.99s14 27 25.375 30.25 16.625-34.75 8.5-42.5c-8.12-7.75-33.88 12.25-33.88 12.25z"/><path id="path7778" fill="url(#linearGradient7782)" d="m138.23 392.24c0.007 0.003 0.0108 0.007 0.01 0.0142-0.00078 0.007-0.007 0.018-0.02 0.0355-0.007 0.009-0.0154 0.0191-0.0263 0.0314-0.0109 0.0124-0.024 0.0267-0.0397 0.0434-0.0156 0.0167-0.0338 0.0357-0.0548 0.0572-0.0209 0.0215-0.0446 0.0456-0.0712 0.0725s-0.0562 0.0564-0.0889 0.0889-0.0684 0.0678-0.10735 0.10611c-0.0389 0.0383-0.081 0.0795-0.12626 0.12363-0.0453 0.0441-0.0937 0.0912-0.14525 0.14108-0.0516 0.0499-0.10624 0.10262-0.16394 0.15803-0.0577 0.0554-0.11839 0.11352-0.18192 0.17409-0.0635 0.0606-0.1299 0.12364-0.19886 0.18891-0.069 0.0653-0.14052 0.13275-0.21437 0.20213-0.0739 0.0694-0.15001 0.14066-0.22812 0.21349-0.0781 0.0728-0.15817 0.14718-0.2398 0.2227-0.16324 0.15104-0.33276 0.30671-0.50494 0.46364-0.17218 0.15692-0.347 0.31509-0.52037 0.47096-0.17336 0.15587-0.34526 0.30944-0.51133 0.45724-0.16607 0.14779-0.32629 0.2898-0.47621 0.42278-0.14991 0.13297-0.28951 0.25691-0.41441 0.36883-0.12489 0.11193-0.23508 0.21185-0.3264 0.2971-0.0913 0.0852-0.16375 0.15582-0.21351 0.2093-0.12367 0.13294-0.24718 0.26467-0.37034 0.39503-0.12315 0.13036-0.24594 0.25935-0.3682 0.38685-0.2594 0.27052-0.51637 0.53427-0.76976 0.79057-0.25339 0.25631-0.50321 0.50519-0.74888 0.74648-0.24568 0.24129-0.48722 0.475-0.7245 0.70132-0.23727 0.22631-0.47029 0.44525-0.69926 0.6572-0.22896 0.21196-0.45389 0.41694-0.67524 0.61549-0.22136 0.19855-0.43915 0.39068-0.65404 0.57696-0.2149 0.18628-0.42691 0.36673-0.63686 0.54192s-0.41784 0.34513-0.62463 0.51035c-0.20678 0.16522-0.41246 0.32572-0.61808 0.48194-0.20562 0.15621-0.41118 0.30814-0.6178 0.45609-0.20663 0.14794-0.41432 0.2919-0.62428 0.43199-0.20995 0.1401-0.42216 0.27634-0.63788 0.4086-0.21573 0.13227-0.43496 0.26058-0.65901 0.38454-0.22405 0.12395-0.45292 0.24356-0.68797 0.35806-0.23505 0.11451-0.47628 0.22392-0.72511 0.32702-0.12442 0.0515-0.25073 0.10151-0.37913 0.14968-0.1284 0.0482-0.25888 0.0945-0.39163 0.13886 0.27977 0.009 0.55708 0.008 0.83197 0.00058 0.2749-0.008 0.54739-0.0231 0.81782-0.0447 0.27044-0.0217 0.53883-0.0497 0.80574-0.0835 0.26692-0.0337 0.53237-0.0732 0.79709-0.11787 0.26472-0.0447 0.52871-0.0947 0.79281-0.14988 0.2641-0.0552 0.52831-0.11553 0.79353-0.18117 0.26522-0.0656 0.53145-0.13658 0.7996-0.2131 0.26816-0.0765 0.53823-0.15863 0.81112-0.24678 0.27289-0.0881 0.54859-0.18234 0.82793-0.28312s0.56231-0.20815 0.84965-0.32273 0.57904-0.23636 0.87568-0.36597c0.29663-0.12962 0.59819-0.26706 0.90506-0.41291 0.30686-0.14585 0.61902-0.3001 0.93657-0.46318 0.31756-0.16309 0.64051-0.33503 0.9686-0.516s0.66134-0.371 0.99905-0.5699c0.16885-0.0994 0.33882-0.20112 0.50975-0.30493 0.17094-0.1038 0.34285-0.20976 0.51555-0.31775 0.1628-0.10179 0.3263-0.20539 0.49032-0.31068 0.16403-0.10529 0.32858-0.21226 0.49343-0.32074 0.0663-0.0437 0.15525-0.10844 0.26284-0.1914 0.10758-0.083 0.23382-0.1841 0.37434-0.30011s0.29532-0.24691 0.45981-0.3891 0.33867-0.29567 0.51792-0.45658c0.17925-0.16092 0.36357-0.32926 0.54851-0.50099 0.18495-0.17173 0.37049-0.34685 0.55256-0.5213 0.091-0.0872 0.18121-0.17429 0.27006-0.2607 0.0888-0.0864 0.17636-0.17216 0.26214-0.25679 0.0858-0.0846 0.16979-0.16814 0.25169-0.25009 0.0819-0.0819 0.16167-0.16232 0.23899-0.24073 0.0773-0.0784 0.1522-0.15486 0.22434-0.22897 0.0721-0.0741 0.14158-0.14589 0.20807-0.21503 0.0665-0.0691 0.13005-0.13565 0.19053-0.19926 0.0605-0.0636 0.11787-0.12433 0.17209-0.18197 0.0542-0.0576 0.10529-0.1122 0.15316-0.16356 0.0479-0.0514 0.0926-0.0995 0.13412-0.14443 0.0416-0.0449 0.08-0.0866 0.11535-0.125 0.0354-0.0384 0.0677-0.0736 0.0972-0.10568 0.0295-0.0321 0.0561-0.061 0.0802-0.0869 0.024-0.0259 0.0454-0.0489 0.0644-0.0691s0.0357-0.0376 0.0503-0.0525 0.0272-0.0274 0.0382-0.0376c0.0218-0.0205 0.0369-0.0323 0.0482-0.0381 0.0113-0.006 0.0188-0.006 0.0254-0.003l-3.69-3.38z"/><path id="path7776" d="m99.047 395.96s18.203 28.907 31.703 33.157" stroke="#a7d8e5" stroke-width="5" fill="none"/><path id="path7806-3" fill="#fffde9" d="m96.565 350.33c-13.948 2.2908-26.494-0.0908-20.298 23.205 9.2353 34.725 50.452 24.494 59.115 9.0022 5.7546 9.7648 4.295 33.837-15.679 46.556 36.054 14.512 98.632 16.289 136.88 0.50508l82.707-24.384 41.429-106.43-81.429-105s-75.714-52.857-155-0.71428c-63.911 49.77-66.84 101.54-47.725 157.25z"/><path id="path7572" d="m278.24 269.25 4.0926 5.679s21.749-15.256 19.402-18.296c-2.34-3.04-23.49 12.62-23.49 12.62z"/><path id="path7570" d="m293.04 289.03 2.0173 6.703s25.534-7.3312 24.307-10.971c-1.23-3.64-26.33 4.27-26.33 4.27z"/><path id="path7564" d="m287.84 310.66v7s26.564 0.33863 26.438-3.5c-0.13-3.84-26.44-3.5-26.44-3.5z"/><path id="path7560" d="m149.5 191.21s-71.721 31.315-61.619 160.61" stroke="#c4a3b1" stroke-width="8" fill="none"/><path id="path7820" fill="#666" d="m119.29 193.79c15.77 13.264 22.599 59.474 10.906 106.79 12.217 2.3146 22.144 7.1983 33.023 12.857 29.544-90.957 196.02-114.24 117.5 41.071-52.422 103.69-144.1 77.07-126.43-15.357-9.8393-6.7142-20.243-11.17-31.429-12.5-4.28 30.52-49.662 18.98-49.624 37.04-14.564-28.3-14.85-111.06 14.9-160.87z"/><path id="path7810" fill="#c4a3b1" d="m98.624 370.83c13.658 15.188 14.342-5.5287 14.342-5.5287-2.76 10.18-14.346 5.53-14.346 5.53z"/><path id="path7822" d="m119.29 308.08c16.683 1.37 32.917 7.6701 48.929 16.429 14.801-77.972 177.35-127.66 106.79 21.786-43.165 91.42-131.22 86.199-112.14-11.429-13.457-9.9108-28.577-15.939-46.071-16.429l-12.857 30.536-28.214 6.9643c-16.3-35.87 6.135-159.46 29.981-158.22 37.02 1.92 13.58 110.36 13.58 110.36z"/><path id="path7824" fill="url(#linearGradient41707)" d="m273.93 269.15c-17.493-13.949-55.645 10.287-74.286 29.286-20.377 20.769-33.801 72.972-11.786 91.786 20.976 17.925 57.987-17.609 72.857-47.143 10.19-20.25 27.16-62.81 13.21-73.93z"/><path id="path7826" opacity=".5" d="m217.14 278.43c8.9286-12.143 33.214-15 33.214-15-24.021 41.932-5.2324 45.472-4.5414 57.894 1.2344 22.191-47.153 46.863-35.816 79.249 0 0-27.857 11.786-36.071-25 18.191-34.09 46.246-59.783 45.357-67.857-1.03-9.37-6.92-17.36-2.14-29.28z" clip-path="url(#clipPath7858)" fill="#fff"/><path id="path7838" fill="url(#linearGradient41709)" d="m107.86 219.15c9.8141 49.161 0.98345 92.495-19.643 132.14-8.923-41.51-3.438-88.6 19.643-132.14z"/><path id="path7836" opacity=".5" d="m113.57 239.51-29.643 25.357-2.8571 61.786s24.758-17.989 20.357-28.929c-4.92-12.24-6.998-31.8 15.36-44.65z" clip-path="url(#clipPath7852)" fill="#fff"/><path id="path7806" fill="#c4a3b1" d="m117.57 339.02s-0.019 0.0136-0.057 0.0417-0.0951 0.0707-0.17124 0.12819c-0.0762 0.0575-0.1715 0.12973-0.28609 0.2166-0.1146 0.0869-0.24848 0.18832-0.40184 0.30355-0.15335 0.11523-0.32619 0.24423-0.51877 0.38563-0.19257 0.1414-0.40487 0.29519-0.63719 0.45948s-0.48467 0.33907-0.75734 0.52199c-0.27268 0.18292-0.5657 0.37398-0.8794 0.57048-0.3137 0.19651-0.64807 0.39845-1.0035 0.60295-0.35545 0.2045-0.73196 0.41154-1.13 0.6182-0.39807 0.20667-0.81768 0.41295-1.2595 0.61607-0.44181 0.20312-0.90582 0.40308-1.393 0.59739-0.48713 0.19431-0.99738 0.38298-1.532 0.56393-0.53463 0.18095-1.0936 0.35419-1.6786 0.51812-0.58497 0.16394-1.1959 0.31856-1.8346 0.46284-0.31933 0.0721-0.64559 0.14171-0.97899 0.20862-0.33339 0.0669-0.67393 0.13119-1.0218 0.1928-0.51229 0.0907-1.0405 0.17567-1.585 0.25503-0.54453 0.0793-1.1054 0.15311-1.6829 0.22187-0.57751 0.0688-1.1716 0.13251-1.7823 0.19237-0.30533 0.0299-0.61479 0.0589-0.92834 0.0871s-0.63119 0.0556-0.95286 0.0826c-0.32166 0.0269-0.64735 0.0533-0.97698 0.0795-0.32962 0.0262-0.66318 0.0522-1.0006 0.0784-0.33738 0.0262-0.67859 0.0525-1.0235 0.0794-0.3449 0.0269-0.69348 0.0544-1.0456 0.0831s-0.70778 0.0584-1.0668 0.09c-0.35902 0.0315-0.7214 0.0648-1.087 0.10059-0.36556 0.0358-0.7343 0.074-1.106 0.11563-0.37172 0.0416-0.74641 0.0866-1.1239 0.1359-0.37678 0.0492-0.75634 0.10286-1.1384 0.162-0.38206 0.0591-0.76663 0.12377-1.1534 0.19526-0.3868 0.0715-0.77584 0.14981-1.1668 0.23671-0.39101 0.0869-0.78401 0.18239-1.1787 0.28869-0.16125 0.0434-0.3253 0.0892-0.49202 0.13755-0.16672 0.0484-0.33612 0.0994-0.50806 0.15336-0.17194 0.054-0.34643 0.11096-0.52331 0.17133-0.17688 0.0604-0.35616 0.12411-0.53765 0.1917-0.1815 0.0676-0.36521 0.13904-0.55093 0.21482-0.18572 0.0758-0.37345 0.15591-0.56292 0.24093-0.18947 0.085-0.38069 0.17493-0.57332 0.27031-0.19263 0.0954-0.38668 0.19624-0.58173 0.30317s-0.39111 0.21994-0.58767 0.33965-0.39362 0.24611-0.59056 0.37981c-0.19694 0.13371-0.39376 0.27471-0.58973 0.42359-0.19597 0.14889-0.39108 0.30564-0.58446 0.47079-0.19339 0.16514-0.38506 0.33867-0.57404 0.52101s-0.37525 0.37348-0.55777 0.57373c-0.18252 0.20024-0.36126 0.40958-0.53514 0.62816-0.17388 0.21857-0.34288 0.44638-0.50592 0.68335-0.17662 0.2567-0.34625 0.52416-0.50772 0.80207s-0.31478 0.56627-0.45902 0.8647c-0.14423 0.29843-0.27939 0.60692-0.40478 0.92509s-0.24102 0.64602-0.34638 0.98324c-0.10537 0.33723-0.20048 0.68383-0.28502 1.0397-0.08454 0.35582-0.1585 0.72087-0.2217 1.0952s-0.11563 0.75792-0.15718 1.1511c-0.04156 0.39315-0.07224 0.79584-0.09199 1.2086-0.01975 0.41275-0.02855 0.83555-0.02636 1.2691 0.0022 0.43356 0.01539 0.87789 0.03968 1.3339 0.02429 0.45597 0.05969 0.92359 0.10635 1.4038 0.04666 0.48025 0.10458 0.97314 0.17402 1.4797s0.15039 1.0268 0.24321 1.5618c0.09281 0.53495 0.19748 1.0846 0.31444 1.65 0.23391 1.1307 0.51694 2.3242 0.85303 3.588 0.29859 1.1227 0.62923 2.215 0.9919 3.2754 0.36267 1.0603 0.75737 2.0886 1.1838 3.0831 0.4264 0.99455 0.88449 1.9554 1.3735 2.8808 0.489 0.92545 1.0089 1.8155 1.5584 2.6687 0.54947 0.8532 1.1285 1.6695 1.7352 2.4477 0.60669 0.77815 1.241 1.5181 1.9006 2.219 0.65952 0.70084 1.3442 1.3625 2.0512 1.9845 0.70693 0.62196 1.4361 1.2042 2.1842 1.7466 0.74807 0.54236 1.515 1.0448 2.2974 1.5078 0.78235 0.46298 1.5801 0.88645 2.3896 1.2713 0.80948 0.38482 1.6307 0.731 2.4602 1.0399 0.82948 0.30888 1.6672 0.58047 2.5098 0.81656 0.84264 0.2361 1.6902 0.4367 2.5396 0.60397 0.84944 0.16726 1.7008 0.30119 2.5513 0.40419 0.85051 0.103 1.7002 0.17508 2.5467 0.21875 0.84649 0.0437 1.6898 0.0589 2.5277 0.0483 1.0553-0.0134 2.102-0.068 3.1363-0.15901 1.0342-0.091 2.0559-0.21844 3.0615-0.37774 1.0056-0.15929 1.9951-0.35045 2.9654-0.56903 0.97026-0.21858 1.9213-0.4646 2.8502-0.73377 0.92892-0.26918 1.8358-0.56153 2.7181-0.87297 0.88233-0.31143 1.7402-0.64196 2.5715-0.98771 0.83134-0.34576 1.6362-0.70673 2.413-1.0793 0.77682-0.37257 1.5256-0.75673 2.2453-1.1491 0.71971-0.39237 1.4104-0.79293 2.0713-1.1985 0.66096-0.40562 1.2922-0.81629 1.8937-1.2291 0.60145-0.41282 1.1731-0.82779 1.7151-1.2422 0.52843-0.40402 1.0288-0.80754 1.5016-1.2082 0.0863 0.25796 0.16987 0.51758 0.25055 0.77864 0.16883 0.54626 0.32487 1.0988 0.4661 1.6556 0.14122 0.55683 0.26763 1.118 0.37751 1.6816 0.10988 0.56364 0.20324 1.1298 0.27873 1.6968 0.0755 0.56706 0.13311 1.135 0.17185 1.7026 0.0387 0.56759 0.0586 1.1348 0.0588 1.7005 0.00024 0.5657-0.0191 1.1299-0.0585 1.6918-0.0394 0.56189-0.0989 1.1215-0.17864 1.6781-0.0797 0.5566-0.17978 1.1102-0.30013 1.6604-0.12034 0.55013-0.26099 1.0968-0.42182 1.6394-0.16083 0.54267-0.34184 1.0814-0.54272 1.6156-0.20088 0.53422-0.42163 1.064-0.66174 1.5886-0.24011 0.52468-0.49958 1.0443-0.7776 1.5581-0.21652 0.40018-0.4443 0.79685-0.68279 1.1897-0.23849 0.3928-0.4877 0.78174-0.74698 1.1664-0.25928 0.38468-0.52863 0.7651-0.80728 1.1409-0.27865 0.37577-0.5666 0.74688-0.86297 1.113-0.29636 0.36606-0.60115 0.72708-0.91337 1.0826-0.31222 0.35558-0.63188 0.70572-0.95789 1.0501-0.32602 0.34434-0.65839 0.68289-0.99596 1.0153-0.33758 0.33242-0.68036 0.65871-1.0271 0.97858-0.34677 0.31987-0.69754 0.63332-1.051 0.94009-0.35349 0.30677-0.70971 0.60686-1.0674 0.90007-0.35767 0.29321-0.71678 0.57953-1.076 0.85881-0.35926 0.27927-0.71866 0.55149-1.0769 0.81655-0.35827 0.26506-0.71541 0.52295-1.0702 0.77359-0.35475 0.25065-0.70711 0.49406-1.0559 0.73021-0.34875 0.23614-0.6939 0.46502-1.0343 0.68664-0.34039 0.22163-0.67603 0.43601-1.0058 0.64319-2.0039 1.2589-4.363 2.573-6.9168 3.7375 2.5072 1.2181 5.0284 2.3449 7.551 3.3603 1.5784 0.63532 3.1918 1.2415 4.8331 1.819 1.6413 0.57752 3.3107 1.1264 5.0012 1.6473 1.6904 0.5209 3.402 1.0138 5.1276 1.4794 1.7256 0.46557 3.4654 0.90383 5.2124 1.3156 1.747 0.41175 3.5011 0.797 5.2558 1.1567 1.7546 0.35967 3.5098 0.69377 5.2588 1.0034 1.749 0.30961 3.4919 0.59475 5.2225 0.85664 1.7306 0.2619 3.4488 0.50055 5.1486 0.71737s3.3814 0.4118 5.0389 0.58649c1.6576 0.17469 3.2912 0.3291 4.8956 0.46491s3.1797 0.25303 4.721 0.35348c1.5413 0.10044 3.0486 0.18412 4.5174 0.25294 1.4689 0.0688 2.8993 0.12279 4.2874 0.16392 1.388 0.0411 2.7337 0.0694 4.0332 0.0869 1.2996 0.0175 2.5531 0.0242 3.7572 0.0223 1.2042-0.002 2.359-0.0126 3.4616-0.0298 1.6248-0.0254 3.2146-0.0702 4.7684-0.13251 1.5539-0.0623 3.0718-0.14195 4.5532-0.23708 1.4814-0.0951 2.9263-0.2057 4.3343-0.32985 1.4081-0.12414 2.7793-0.26185 4.1138-0.41133 1.3345-0.14947 2.6322-0.31071 3.8933-0.48201 1.2612-0.17129 2.4858-0.35263 3.6743-0.5424 1.1886-0.18977 2.341-0.38796 3.4581-0.59303 1.117-0.20507 2.1987-0.41702 3.2456-0.63438 1.047-0.21737 2.0593-0.44015 3.0378-0.66697 0.97856-0.22683 1.9234-0.45769 2.8354-0.6913 0.91204-0.2336 1.7913-0.46995 2.6389-0.70783 0.84759-0.23788 1.6635-0.47729 2.4488-0.7171 0.78535-0.2398 1.5401-0.48 2.2655-0.71954s1.4214-0.47842 2.0892-0.71566c0.66782-0.23724 1.3074-0.47284 1.9201-0.70591 0.61264-0.23306 1.1983-0.46358 1.7582-0.69074 0.5599-0.22715 1.094-0.45094 1.6036-0.67061 0.50957-0.21967 0.99458-0.43522 1.4562-0.64596 0.46164-0.21075 0.89991-0.41669 1.316-0.61721 0.41607-0.20052 0.80993-0.39561 1.1827-0.58474 0.37279-0.18913 0.72451-0.37229 1.0563-0.54899 0.33175-0.17669 0.64352-0.34693 0.93638-0.51028s0.5668-0.3198 0.82283-0.46899 0.49414-0.29111 0.71531-0.42544 0.42538-0.26107 0.61354-0.37993 0.36028-0.22985 0.5172-0.33273c0.15691-0.10288 0.29863-0.19765 0.42594-0.2841 0.12731-0.0865 0.24021-0.1646 0.33945-0.23427 0.0992-0.0697 0.1848-0.13085 0.25738-0.18343 0.0726-0.0526 0.13217-0.0965 0.1794-0.13177 0.0472-0.0352 0.0821-0.0617 0.10515-0.0794 0.0231-0.0177 0.0344-0.0266 0.0344-0.0266s-0.057 0.007-0.17364 0.0229c-0.11662 0.0162-0.29284 0.042-0.53162 0.0797-0.23877 0.0377-0.5401 0.0872-0.90746 0.15028-0.18368 0.0315-0.38388 0.0665-0.60109 0.10497-0.21722 0.0385-0.45144 0.0805-0.70323 0.12617-0.25178 0.0457-0.52112 0.095-0.8086 0.14804-0.28748 0.053-0.59311 0.10982-0.91753 0.17035-0.32441 0.0605-0.66761 0.12479-1.0303 0.1928-0.36269 0.068-0.74485 0.13974-1.1472 0.21515-0.4024 0.0754-0.82503 0.15448-1.2687 0.2371-0.44366 0.0826-0.90836 0.16881-1.395 0.25838-0.4866 0.0896-0.99509 0.18253-1.5264 0.27866-0.5313 0.0961-1.0854 0.19544-1.6633 0.29764-0.57788 0.10221-1.1795 0.20731-1.806 0.31499-0.62642 0.10768-1.2776 0.21793-1.9546 0.33036s-1.3798 0.22704-2.1095 0.34337c-0.72968 0.11634-1.4862 0.2344-2.2707 0.35367s-1.5969 0.23975-2.4384 0.36084c-0.84146 0.12109-1.7119 0.2428-2.6125 0.36446-0.90057 0.12166-1.8312 0.24327-2.7929 0.36411-0.96174 0.12083-1.9546 0.24087-2.9795 0.35933-1.0249 0.11845-2.0818 0.2353-3.1717 0.34967-1.0899 0.11436-2.2127 0.22624-3.3693 0.33465-1.1565 0.10841-2.3468 0.21336-3.5713 0.31379-1.2246 0.10043-2.4835 0.19634-3.7771 0.2866-1.2937 0.0903-2.6221 0.17486-3.9856 0.25258-1.3635 0.0777-2.762 0.14856-4.1954 0.21122-1.4335 0.0627-2.902 0.11714-4.4052 0.16203-1.5032 0.0449-3.0411 0.0802-4.6131 0.10448-1.0668 0.0165-2.1842 0.0266-3.3496 0.0283-1.1654 0.002-2.3786-0.005-3.6364-0.0219-1.2578-0.017-2.5603-0.0444-3.9039-0.0842-1.3435-0.0398-2.7281-0.0919-4.1496-0.15831-1.4216-0.0664-2.8801-0.14713-4.3712-0.24398-1.4911-0.0968-3.0147-0.20983-4.566-0.34068-1.5513-0.13084-3.1302-0.27955-4.7314-0.44772-1.6012-0.16816-3.2247-0.35579-4.8647-0.5643s-3.2965-0.43792-4.9632-0.68946c-1.6668-0.25154-3.3438-0.52523-5.0246-0.8221s-3.3652-0.61692-5.0464-0.96097-3.3592-0.7121-5.0266-1.1047c-1.6675-0.39259-3.3244-0.80974-4.9634-1.2517-1.639-0.44195-3.26-0.90871-4.8554-1.4002-0.71614-0.22063-1.4271-0.44624-2.1322-0.6768 0.23264-0.18502 0.46557-0.37304 0.69857-0.56407 0.82642-0.67756 1.6535-1.393 2.4703-2.1464 0.4084-0.37671 0.81421-0.76291 1.216-1.1586 0.40184-0.39567 0.79971-0.80081 1.1922-1.2154 0.39252-0.41453 0.77969-0.83847 1.1601-1.2717 0.38044-0.43321 0.75417-0.8757 1.1198-1.3273 0.36566-0.45158 0.72326-0.91227 1.0715-1.3818 0.34822-0.46954 0.68706-0.94794 1.0153-1.4349 0.32821-0.48692 0.64578-0.98237 0.95151-1.4859 0.30574-0.50356 0.59964-1.0152 0.8806-1.5345 0.36076-0.66675 0.70015-1.346 1.016-2.0364 0.31591-0.69041 0.6083-1.392 0.87541-2.1029 0.26712-0.71098 0.50894-1.4314 0.72422-2.1592 0.21527-0.72784 0.40397-1.4631 0.56541-2.2036 0.16144-0.74044 0.29561-1.4861 0.40239-2.2344 0.10679-0.74839 0.1862-1.4996 0.2387-2.251 0.0525-0.75147 0.0781-1.5033 0.0779-2.2529-0.00024-0.74964-0.0263-1.4971-0.0767-2.2401-0.0504-0.74297-0.12505-1.4814-0.222-2.213-0.0969-0.73162-0.21617-1.4564-0.35527-2.1723-0.1391-0.71583-0.29806-1.4227-0.47416-2.1185-0.1761-0.69581-0.36934-1.3806-0.57672-2.0523-0.20737-0.67176-0.42888-1.3305-0.66132-1.9743-0.23244-0.64383-0.4758-1.2727-0.72672-1.8848-0.25093-0.61212-0.50941-1.2074-0.77199-1.7842-0.26258-0.5767-0.52924-1.1348-0.79646-1.6724-0.986-1.9837-2.2691-4.0578-3.8069-6.0977-0.99656 2.422-2.0671 4.3017-2.9409 5.4333-0.18699 0.24214-0.39381 0.49704-0.62277 0.76363-0.22897 0.26658-0.48009 0.54485-0.75543 0.83334s-0.57491 0.58721-0.90039 0.89431-0.67688 0.62258-1.0554 0.94426c-0.37856 0.32167-0.78427 0.64953-1.2179 0.98104-0.43358 0.33152-0.89504 0.66668-1.3845 1.0027-0.48948 0.33598-1.007 0.67277-1.552 1.0073-0.54508 0.33452-1.1177 0.66676-1.717 0.99343-0.59921 0.32667-1.225 0.64776-1.8757 0.9598s-1.3263 0.61504-2.0248 0.90541c-0.6984 0.29037-1.4196 0.5681-2.1608 0.82957-0.74121 0.26147-1.5024 0.50666-2.2805 0.73193-0.77802 0.22528-1.5728 0.43062-2.3806 0.61246-0.80783 0.18184-1.6287 0.34016-2.4584 0.4715-0.8297 0.13135-1.6682 0.23572-2.5111 0.30987-0.84287 0.0742-1.69 0.11807-2.5369 0.12885-0.67238 0.009-1.3445-0.004-2.0141-0.0382-0.66957-0.0345-1.3366-0.091-1.9987-0.17073-0.66213-0.0797-1.3194-0.18254-1.9698-0.30943-0.65036-0.1269-1.2938-0.27786-1.9286-0.45383-0.63476-0.17598-1.2608-0.37696-1.8767-0.60401-0.61592-0.22704-1.2217-0.48014-1.8161-0.76046-0.59441-0.28032-1.1775-0.58787-1.7482-0.92397-0.57069-0.33609-1.129-0.70072-1.6741-1.0953-0.54504-0.39462-1.0768-0.81921-1.5943-1.2753-0.51755-0.45609-1.0209-0.94366-1.509-1.4642-0.48809-0.52057-0.96094-1.0742-1.4173-1.6622-0.45639-0.58799-0.89634-1.2104-1.3184-1.8684-0.42208-0.65803-0.82629-1.3517-1.211-2.0819-0.38475-0.73018-0.75004-1.4969-1.0942-2.3006-0.34412-0.80367-0.66708-1.6443-0.96717-2.5219-0.15005-0.43879-0.29438-0.88679-0.4328-1.344-0.13842-0.45716-0.27094-0.92348-0.39736-1.3988-0.30126-1.1327-0.54933-2.1815-0.7494-3.1511-0.10003-0.48483-0.18807-0.94989-0.26484-1.3958-0.07677-0.44586-0.14227-0.87252-0.19731-1.2805-0.05505-0.40796-0.09964-0.79722-0.13469-1.1683-0.03505-0.37105-0.06057-0.72389-0.07754-1.0591-0.01697-0.33516-0.0254-0.65265-0.02635-0.95307-0.000948-0.30043 0.0056-0.5838 0.01851-0.85088 0.01292-0.26707 0.03224-0.51786 0.05686-0.7533 0.02462-0.23545 0.05455-0.45555 0.08877-0.66146 0.03421-0.2059 0.0727-0.39762 0.11454-0.57648s0.08703-0.34488 0.13478-0.49954c0.04775-0.15467 0.09806-0.29799 0.15033-0.43158s0.10649-0.25746 0.1623-0.37325c0.0558-0.1158 0.11318-0.22354 0.172-0.32482 0.05882-0.10129 0.11908-0.19613 0.18092-0.28601 0.05709-0.083 0.11553-0.16171 0.17561-0.2372 0.06008-0.0755 0.12179-0.14769 0.18548-0.21737 0.06369-0.0697 0.12935-0.13683 0.1973-0.20197 0.06795-0.0651 0.13819-0.12827 0.21096-0.18976 0.07277-0.0615 0.14806-0.12136 0.22603-0.17982 0.07797-0.0585 0.15862-0.11552 0.24198-0.17132s0.16944-0.11034 0.25819-0.16368c0.08874-0.0534 0.18015-0.1055 0.27407-0.15648 0.09392-0.051 0.19036-0.10078 0.28909-0.14939 0.09873-0.0486 0.19975-0.0961 0.30279-0.14229 0.20607-0.0924 0.42022-0.18008 0.63974-0.26272 0.21952-0.0826 0.44438-0.16029 0.67162-0.23297 0.22724-0.0727 0.45683-0.1404 0.68586-0.20338 0.28028-0.0771 0.56999-0.15093 0.86758-0.22175 0.2976-0.0708 0.60308-0.1386 0.915-0.20382 0.31192-0.0652 0.63027-0.1279 0.95378-0.18867 0.32351-0.0608 0.65218-0.11963 0.98484-0.17724 0.33326-0.0577 0.67053-0.11416 1.0107-0.16991 0.34018-0.0557 0.68327-0.11079 1.0283-0.16568 0.34503-0.0549 0.692-0.10963 1.04-0.16473 0.34802-0.0551 0.69711-0.11056 1.0465-0.16685 0.34936-0.0563 0.699-0.1134 1.0482-0.17176 0.34921-0.0584 0.698-0.11796 1.0457-0.17917 0.34773-0.0612 0.69441-0.12403 1.0395-0.18876 0.34506-0.0647 0.6885-0.13138 1.0298-0.2002 0.34132-0.0688 0.68052-0.13981 1.0171-0.21318 0.33662-0.0734 0.67067-0.14911 1.0017-0.22738 0.33106-0.0783 0.65915-0.15908 0.98389-0.24252 0.32474-0.0834 0.64614-0.16952 0.96387-0.25829 0.31773-0.0888 0.63179-0.18024 0.9419-0.27443 0.3101-0.0942 0.61626-0.19108 0.9182-0.29067 0.60389-0.19918 1.1909-0.40916 1.7595-0.62932 0.38605-0.1495 0.76358-0.30368 1.1322-0.46222 0.36864-0.15853 0.72837-0.32143 1.0789-0.48826 0.35055-0.16684 0.69193-0.33761 1.0239-0.51184 0.33201-0.17422 0.65464-0.35189 0.96781-0.53245 0.31316-0.18057 0.61686-0.36403 0.91107-0.54979s0.57894-0.37382 0.85426-0.56356 0.54122-0.38116 0.79785-0.57363c0.25663-0.19246 0.50398-0.38598 0.74228-0.5799 0.2383-0.19393 0.46753-0.38827 0.68796-0.58241 0.22044-0.19413 0.43208-0.38806 0.63524-0.5812 0.40631-0.38626 0.77865-0.76928 1.1199-1.1446 0.34127-0.37537 0.65149-0.74307 0.93385-1.0993 0.28235-0.35622 0.53685-0.70095 0.76674-1.031 0.22988-0.33004 0.43517-0.64539 0.61898-0.94347s0.34615-0.57889 0.48994-0.84042 0.26903-0.50379 0.37837-0.72529c0.10933-0.2215 0.20276-0.42225 0.28263-0.60124 0.0799-0.17898 0.14617-0.3362 0.20096-0.47106 0.0548-0.13485 0.0981-0.24736 0.13156-0.33726 0.0335-0.0899 0.0572-0.15721 0.0726-0.20198-0.03-0.06-0.02-0.08-0.02-0.08z"/></g><g transform="translate(55.28 -51.584)"><path id="path7746-9" fill="#1568c5" d="m387.14 210.93s63.571 90.714 22.143 236.43l-10-40.714s-27.857 78.571-50.714 97.857l7.8571-56.429s-24.286 50.714-58.571 61.429c0 0 45-67.143 55-106.43 0 0-27.143 30-59.286 35.714 0 0 66.429-94.286 75.714-152.14"/><path id="path7748" fill="#00e7e6" d="m377.14 279.51s12.143 67.143-20.714 119.29c0 0-23.571 59.286-53.571 105.71 0 0 35-15 51.429-51.429l-2.8571 48.571s40.714-62.143 47.143-95c0.01 0 28.58-85-12.85-170.72z"/><path id="path7746" d="m387.14 210.93s63.571 90.714 22.143 236.43l-10-40.714s-27.857 78.571-50.714 97.857l7.8571-56.429s-24.286 50.714-58.571 61.429c0 0 45-67.143 55-106.43 0 0-27.143 30-59.286 35.714 0 0 66.429-94.286 75.714-152.14" stroke="#0f3f78" stroke-miterlimit="7" stroke-width="8" fill="none"/></g><g transform="translate(55.28 -51.584)"><path id="path7775-3" fill="#1568c5" d="m310 219.5s-51.429-1.4286-91.429 12.857c0 0 10.714-25 35-42.857 0 0-104.79-40.384-270 58.571 0 0 18.571-48.571 87.857-87.857 0 0-20.714-2.8571-42.857 2.8572 0 0 40-60 118.57-72.143 0 0-24.286-18.571-65-35 112.05-5.234 221.27 50.02 266.43 99.29"/><path id="path7779" fill="#00e7e6" d="m335 165.93s-90.714-75-191.43-75.714c0 0-75.714 16.429-112.14 71.071l45.714-3.2143c-0.001 0 157.15-22.15 239.29 40.71z"/><path id="path7775" d="m310 219.51s-51.429-1.4286-91.429 12.857c0 0 10.714-25 35-42.857 0 0-100.08-41.708-270 58.571 0 0 18.571-48.571 87.857-87.857 0 0-20.714-2.8571-42.857 2.8572 0 0 40-60 118.57-72.143 0 0-24.286-18.571-65-35 112.05-5.2379 221.27 50.021 266.43 99.286" stroke="#0f3f78" stroke-miterlimit="14" stroke-width="8" fill="none"/></g><g transform="translate(55.28 -51.584)"><path id="path7623-6" fill="#fffde9" d="m145.97 213.94s-115.16-231.32 49.497-25.254l-11.112 12.122"/><path id="path7623" fill="#c4a3b1" d="m145.97 213.94s-0.005-0.0456-0.0181-0.13853c-0.007-0.0465-0.0151-0.10481-0.0261-0.17529-0.011-0.0705-0.0244-0.1531-0.0406-0.24818-0.0162-0.0951-0.0353-0.20263-0.0577-0.32301s-0.048-0.25359-0.0774-0.40005-0.0625-0.30617-0.0999-0.47958c-0.0374-0.17342-0.0789-0.36054-0.12518-0.56189-0.0463-0.20134-0.0972-0.4169-0.15343-0.64724-0.0562-0.23035-0.11761-0.47546-0.18477-0.73597-0.0672-0.26051-0.14007-0.5364-0.21927-0.82834-0.0792-0.29193-0.16469-0.59991-0.25703-0.92464-0.18468-0.64945-0.39674-1.3658-0.64077-2.1553-0.24403-0.78944-0.52003-1.6519-0.83262-2.5941-0.3126-0.94217-0.66179-1.964-1.0521-3.0724-0.39029-1.1084-0.82168-2.3034-1.2983-3.5917-0.2383-0.64414-0.4879-1.3116-0.74924-2.0032-0.26134-0.69158-0.53442-1.4073-0.81965-2.1478-0.28523-0.74053-0.58259-1.5059-0.89242-2.2968-0.30984-0.79087-0.63213-1.6072-0.96714-2.4497-0.335-0.84242-0.68271-1.7109-1.0432-2.6058-0.36055-0.89492-0.73394-1.8163-1.1202-2.7644-0.38625-0.94808-0.78535-1.9229-1.1972-2.9244-0.41183-1.0016-0.83638-2.0299-1.2734-3.0848-0.43698-1.0549-0.88639-2.1364-1.3477-3.244-0.46135-1.1076-0.93464-2.2413-1.4192-3.4003-0.48452-1.159-0.98028-2.3434-1.4863-3.552-0.50604-1.2085-1.0224-2.4413-1.5477-3.6966-0.21793-0.52073-0.44415-1.0632-0.67791-1.6261-0.23377-0.56297-0.47508-1.1464-0.72316-1.7492-0.32931-0.80007-0.67054-1.634-1.0217-2.4986-0.35115-0.8646-0.71223-1.7598-1.0811-2.6822-0.36883-0.92236-0.74541-1.8718-1.1274-2.8446-0.382-0.97273-0.7694-1.9687-1.1597-2.9838-0.39033-1.0151-0.78357-2.0493-1.1771-3.0981-0.39355-1.0488-0.7874-2.1122-1.1788-3.1854-0.39143-1.0732-0.78044-2.1563-1.1642-3.244-0.3838-1.0878-0.76239-2.1803-1.1329-3.2722-0.3705-1.0919-0.73294-2.1833-1.0844-3.2686s-0.69195-2.1644-1.0185-3.2319c-0.32659-1.0674-0.63928-2.1231-0.93515-3.1612-0.29588-1.0382-0.57495-2.0588-0.83438-3.056-0.25943-0.99722-0.49921-1.971-0.71673-2.9154-0.21751-0.9444-0.41274-1.8594-0.58345-2.7387-0.0854-0.43965-0.16457-0.87038-0.23745-1.2914-0.0729-0.42099-0.1394-0.83223-0.1994-1.2329-0.06-0.40066-0.11346-0.79072-0.16028-1.1693-0.0468-0.37859-0.087-0.7457-0.12047-1.1004-0.0289-0.30588-0.0528-0.60253-0.0717-0.88931-0.0189-0.28679-0.0329-0.56371-0.0421-0.83009-0.009-0.26639-0.0134-0.52224-0.0131-0.76685 0.00034-0.24461 0.005-0.47797 0.0146-0.69934 0.009-0.22137 0.0229-0.43074 0.0403-0.62733 0.0174-0.19658 0.0386-0.38038 0.0627-0.55062 0.0242-0.17023 0.0514-0.32689 0.0805-0.46929 0.0291-0.14239 0.0601-0.27051 0.0917-0.3839 0.0164-0.0588 0.0328-0.11367 0.0492-0.16453 0.0164-0.0509 0.0327-0.0977 0.0485-0.14058 0.0159-0.0429 0.0314-0.0817 0.0463-0.11663 0.0149-0.0349 0.0291-0.0659 0.0424-0.0931s0.0256-0.0506 0.0367-0.0706c0.0111-0.0199 0.0209-0.0363 0.0293-0.0496 0.008-0.0133 0.0153-0.0234 0.0206-0.0307 0.005-0.007 0.009-0.0121 0.0109-0.0146 0.002-0.002 0.002-0.003 0.00074-0.001-0.001 0.001-0.005 0.004-0.009 0.008-0.005 0.004-0.0106 0.009-0.0179 0.0149-0.007 0.006-0.0156 0.0119-0.0247 0.0182-0.009 0.006-0.0189 0.0126-0.0289 0.0186s-0.0201 0.0115-0.0297 0.0165c-0.01 0.005-0.0188 0.009-0.0268 0.0126-0.008 0.003-0.0148 0.006-0.0198 0.008s-0.009 0.003-0.009 0.003c-0.00042 0.00012 0.002-0.00057 0.008-0.002 0.006-0.001 0.0152-0.003 0.0284-0.005s0.0301-0.003 0.0512-0.005c0.0211-0.001 0.0462-0.003 0.0756-0.003 0.0294-0.00033 0.063 0.00012 0.10078 0.002 0.0378 0.002 0.0798 0.004 0.12599 0.009 0.0462 0.004 0.0965 0.01 0.15075 0.0174 0.0543 0.007 0.11254 0.0167 0.1746 0.028 0.062 0.0112 0.12789 0.0245 0.1973 0.0399 0.0694 0.0154 0.14237 0.033 0.21867 0.053 0.0763 0.0199 0.15593 0.0422 0.23866 0.0668 0.16546 0.0493 0.34333 0.10813 0.53191 0.17689 0.18859 0.0688 0.38791 0.14743 0.59649 0.2359 0.25135 0.1066 0.51613 0.22746 0.79198 0.36197 0.27585 0.13452 0.56277 0.28267 0.85869 0.44354s0.60084 0.33445 0.91291 0.5196 0.6313 0.38187 0.956 0.58887 0.65487 0.42428 0.98896 0.65046c0.33408 0.22618 0.67207 0.46126 1.0125 0.70378 0.34042 0.24252 0.68327 0.49249 1.0271 0.74838 0.34384 0.25589 0.68866 0.5177 1.0331 0.78388 0.69782 0.5393 1.394 1.0965 2.0771 1.6584 0.68317 0.56182 1.3534 1.1282 1.9997 1.6856 0.88882 0.76653 1.8114 1.584 2.7672 2.4523 0.95575 0.86831 1.9447 1.7875 2.9663 2.7575 1.0217 0.97004 2.0761 1.9909 3.163 3.0626s2.2063 2.1942 3.3578 3.3675c2.3032 2.3466 4.7352 4.8962 7.2946 7.6485 2.5594 2.7522 5.2461 5.7071 8.0585 8.8637s5.7506 6.5151 8.8128 10.074c3.0622 3.559 6.2484 7.3186 9.5568 11.277s6.739 8.1157 10.29 12.47c3.3312 4.0846 6.7684 8.3422 10.31 12.771-0.011 0.0693-0.0231 0.13988-0.0364 0.21144-0.0343 0.18499-0.0764 0.37694-0.12635 0.5739-0.05 0.19696-0.10793 0.39894-0.17377 0.60421-0.0658 0.20527-0.13955 0.41385-0.22086 0.62419-0.0813 0.21035-0.17019 0.42246-0.26614 0.63498-0.0959 0.21253-0.19895 0.42546-0.30829 0.6376-0.10934 0.21213-0.22501 0.42347-0.34613 0.63297-0.12112 0.20949-0.24769 0.41714-0.3787 0.62203-0.131 0.20489-0.26645 0.40703-0.40523 0.60564s-0.2809 0.3937-0.42519 0.58461c-0.1443 0.19092-0.29077 0.37767-0.43824 0.55973-0.14748 0.18206-0.29596 0.35942-0.44427 0.53168-0.14831 0.17225-0.29646 0.3394-0.44331 0.50111-0.14686 0.1617-0.29242 0.31797-0.43563 0.46854-0.1432 0.15057-0.28404 0.29546-0.42154 0.43446s-0.27164 0.27212-0.40155 0.39921c-0.12991 0.1271-0.25558 0.24817-0.37622 0.36312-0.12065 0.11494-0.23626 0.22376-0.34618 0.32638-0.10991 0.10261-0.21413 0.19903-0.31209 0.28917-0.098 0.0902-0.18966 0.17403-0.27468 0.2516-0.085 0.0776-0.16334 0.14882-0.23467 0.21371-0.0713 0.0649-0.13565 0.12342-0.19279 0.17554-0.0571 0.0521-0.10707 0.0978-0.14975 0.1371-0.0427 0.0393-0.0781 0.0721-0.10627 0.0983-0.0282 0.0263-0.0491 0.0461-0.063 0.0593s-0.0207 0.0198-0.0207 0.0198 0.009-0.00069 0.0286-0.002c0.0191-0.002 0.0478-0.004 0.0862-0.008s0.0865-0.009 0.14439-0.0161c0.0579-0.007 0.12542-0.0154 0.20268-0.026 0.0773-0.0106 0.16421-0.0231 0.26073-0.0382 0.0965-0.015 0.20262-0.0325 0.31811-0.0528 0.11548-0.0203 0.24036-0.0435 0.37434-0.0701 0.13399-0.0266 0.27709-0.0564 0.42894-0.0902 0.15186-0.0337 0.31246-0.0713 0.48138-0.1133 0.16891-0.042 0.34612-0.0883 0.53109-0.13955 0.18498-0.0513 0.3777-0.10743 0.57754-0.16908 0.19984-0.0616 0.40679-0.12879 0.6201-0.20197 0.21331-0.0732 0.43298-0.15242 0.65817-0.23827 0.22519-0.0858 0.45588-0.17833 0.69114-0.27797 0.23525-0.0996 0.47506-0.20645 0.71835-0.32094 0.24329-0.1145 0.49008-0.23668 0.73917-0.367 0.2491-0.13033 0.50051-0.26879 0.75296-0.41576 0.25244-0.14697 0.50592-0.30245 0.75905-0.46667s0.50591-0.33719 0.75687-0.51895c0.25096-0.18177 0.50009-0.37233 0.74586-0.57153 0.24576-0.19919 0.48816-0.40702 0.72559-0.62299 0.23743-0.21598 0.46989-0.44011 0.69578-0.67155s0.4452-0.47019 0.65637-0.71495 0.4142-0.49554 0.60763-0.75051c0.0967-0.12749 0.19104-0.25601 0.28279-0.38528 0.0918-0.12928 0.18095-0.25931 0.26743-0.38978 0.0865-0.13046 0.17025-0.26135 0.25117-0.39231 0.0809-0.13096 0.15899-0.26198 0.23411-0.39266 0.0751-0.13068 0.14728-0.26102 0.21639-0.39056 0.0691-0.12954 0.13519-0.25829 0.19816-0.38574 0.063-0.12745 0.12284-0.2536 0.17957-0.37791 0.0567-0.12432 0.11035-0.24679 0.16084-0.36683 0.0505-0.12004 0.0979-0.23764 0.14217-0.35218 0.0443-0.11453 0.0855-0.22599 0.12378-0.33369 0.0382-0.1077 0.0735-0.21164 0.10594-0.31109 0.0324-0.0995 0.062-0.1944 0.0889-0.28408 0.0269-0.0897 0.0512-0.17408 0.073-0.25238s0.0412-0.15048 0.0585-0.21567c0.0173-0.0652 0.0324-0.12341 0.0457-0.17368 0.0133-0.0503 0.0249-0.0926 0.035-0.12604 0.0904-0.29812 0.0422-0.86912-0.10766-1.6311-0.24712-0.31123-0.49495-0.62315-0.74348-0.93577-3.7942-4.7724-7.472-9.3519-11.032-13.736-3.5597-4.3842-7.0012-8.573-10.323-12.565-1.661-1.9959-3.292-3.9426-4.8931-5.8398-1.601-1.8972-3.1721-3.7451-4.713-5.5434s-3.0517-3.547-4.5323-5.2462c-1.4806-1.6991-2.931-3.3487-4.3513-4.9485-1.4202-1.5999-2.8103-3.1501-4.1701-4.6507s-2.6895-2.9515-3.989-4.3529-2.5689-2.7532-3.8082-4.0556-2.4486-2.5554-3.628-3.7591c-1.1794-1.2038-2.3289-2.3583-3.4488-3.4639s-2.2101-2.1623-3.271-3.1704-2.0925-1.9676-3.0953-2.879c-1.0028-0.91139-1.9768-1.7747-2.9227-2.5904-0.68783-0.59311-1.4052-1.1994-2.143-1.8061-0.36891-0.30337-0.74294-0.60685-1.121-0.90891-0.3781-0.30206-0.76025-0.6027-1.1455-0.9004-0.38026-0.29388-0.76349-0.5849-1.1488-0.87167-0.38533-0.28677-0.77275-0.56929-1.1615-0.84623-0.38872-0.27694-0.77875-0.54829-1.1694-0.81278-0.39067-0.26449-0.78198-0.52212-1.1734-0.77168-0.39146-0.24956-0.78306-0.49104-1.1745-0.72329-0.39145-0.23225-0.78277-0.45526-1.1739-0.66791-0.39114-0.21264-0.78213-0.41491-1.1733-0.60564-0.39114-0.19073-0.78242-0.36992-1.1746-0.53625-0.32544-0.13803-0.65148-0.2672-0.97874-0.3866s-0.65573-0.22903-0.98626-0.3277-0.66313-0.1864-0.9989-0.2615c-0.16788-0.03755-0.33656-0.07195-0.50617-0.1029-0.16961-0.03096-0.34014-0.05849-0.51172-0.08226-0.17158-0.02378-0.3442-0.04381-0.51793-0.05972s-0.34858-0.02771-0.52454-0.03499c-0.17597-0.0073-0.35305-0.01002-0.53117-0.0078-0.17813 0.0022-0.35729 0.0094-0.53731 0.02209-0.18001 0.01266-0.36087 0.03077-0.54226 0.05481-0.1814 0.02404-0.36332 0.05401-0.54531 0.09037-0.18199 0.03635-0.36405 0.07908-0.54557 0.12856-0.18151 0.04948-0.36248 0.10571-0.54214 0.16892-0.1644 0.05784-0.32771 0.12153-0.48924 0.19108s-0.32128 0.14496-0.47855 0.2261c-0.15727 0.08113-0.31206 0.16798-0.46368 0.26026s-0.30009 0.18999-0.4448 0.29274c-0.14471 0.10274-0.28567 0.21051-0.4224 0.32283s-0.26923 0.22918-0.39716 0.35005-0.25129 0.24573-0.36988 0.37404c-0.11859 0.1283-0.23241 0.26004-0.34139 0.39466-0.10899 0.13462-0.21314 0.27211-0.31252 0.41197-0.0994 0.13985-0.19398 0.28206-0.28396 0.42616-0.09 0.14411-0.17534 0.29011-0.25631 0.43762-0.081 0.14752-0.15756 0.29655-0.23002 0.44682-0.0725 0.15026-0.14082 0.30176-0.20534 0.4543-0.0645 0.15254-0.12522 0.30613-0.18238 0.46066-0.0571 0.15453-0.11077 0.31001-0.1611 0.46641-0.0503 0.1564-0.0974 0.31372-0.14139 0.47195-0.0848 0.30507-0.15842 0.61352-0.22219 0.92553-0.0638 0.312-0.11774 0.62756-0.16308 0.94701-0.0453 0.31945-0.082 0.6428-0.11098 0.97042-0.029 0.32762-0.0502 0.65951-0.0643 0.99602-0.0141 0.3365-0.0212 0.67762-0.0217 1.0236-0.00051 0.346 0.006 0.69686 0.0177 1.0528 0.0122 0.35592 0.0306 0.71688 0.0547 1.083 0.0242 0.36611 0.0542 0.73737 0.0897 1.1138 0.0412 0.43655 0.0898 0.88005 0.14553 1.3304 0.0557 0.45039 0.11843 0.90769 0.18784 1.3717 0.0694 0.46402 0.14552 0.93476 0.22795 1.412 0.0824 0.47721 0.17121 0.96088 0.26599 1.4507 0.0948 0.4898 0.19558 0.98574 0.30205 1.4874 0.10648 0.50167 0.21865 1.0091 0.33619 1.5218 0.23508 1.0254 0.49163 2.0719 0.76709 3.1355 0.27547 1.0636 0.56983 2.1442 0.88042 3.2374s0.63741 2.1988 0.97766 3.3122c0.34024 1.1134 0.69391 2.2344 1.0581 3.3584 0.36421 1.1239 0.73896 2.2506 1.1213 3.3753 0.38236 1.1247 0.77232 2.2473 1.167 3.363 0.39466 1.1157 0.79401 2.2246 1.1952 3.3219 0.4012 1.0973 0.80427 2.1831 1.2065 3.2529 0.40219 1.0698 0.80353 2.1235 1.2014 3.157 0.39789 1.0334 0.79233 2.0466 1.1809 3.0355 0.38857 0.98885 0.77127 1.9534 1.1458 2.8899 0.37456 0.9365 0.74099 1.845 1.0972 2.7219 0.35618 0.87696 0.70212 1.7224 1.0358 2.5332 0.25141 0.6108 0.49589 1.2019 0.73266 1.7721 0.23677 0.57021 0.46584 1.1195 0.68646 1.6467 0.53186 1.2708 1.0615 2.5151 1.5874 3.7315 0.52582 1.2164 1.0478 2.4048 1.5644 3.5644 0.51667 1.1596 1.0281 2.2903 1.533 3.3916 0.50497 1.1013 1.0035 2.1732 1.4947 3.2155 0.49119 1.0423 0.97503 2.0549 1.4508 3.0379 0.47575 0.98304 0.94342 1.9365 1.4024 2.8607 0.45902 0.92415 0.90938 1.819 1.3507 2.685 0.44129 0.86604 0.87351 1.7033 1.2964 2.5123 0.42285 0.80906 0.83632 1.59 1.2402 2.3435 0.40391 0.75351 0.79826 1.4796 1.1829 2.1793 0.38467 0.69963 0.75967 1.3728 1.125 2.0204 0.36529 0.64761 0.72088 1.2697 1.0668 1.8672 0.6918 1.1952 1.3448 2.2923 1.9597 3.3 0.61489 1.0077 1.1917 1.926 1.7314 2.7637 0.53974 0.83768 1.0424 1.5947 1.5093 2.2797 0.46685 0.68494 0.89786 1.2978 1.2942 1.8465 0.19815 0.27436 0.38763 0.53268 0.56857 0.77591 0.18093 0.24322 0.35332 0.47134 0.51727 0.68526 0.16395 0.21391 0.31948 0.41362 0.46667 0.59996s0.28604 0.35932 0.41665 0.51972c0.1306 0.1604 0.25296 0.30823 0.36713 0.44422 0.11416 0.136 0.22014 0.26017 0.31798 0.3732 0.0978 0.11303 0.18753 0.21492 0.26911 0.30631 0.0816 0.0914 0.15503 0.1723 0.22037 0.2433 0.0654 0.071 0.12258 0.1321 0.17168 0.18385 0.0491 0.0517 0.0901 0.0942 0.12292 0.1277 0.05 0.06 0.09 0.1 0.09 0.1z"/><path id="path7629" d="m135.36 119.49s2.0203 23.739-18.688 28.284" stroke="#c4a3b1" stroke-width="4" fill="none"/><path id="path7631" d="m159.6 145.75s0.50508 32.83-27.779 38.891" stroke="#c4a3b1" stroke-width="4" fill="none"/></g><g transform="translate(55.28 -51.584)"><path id="path7634-3" fill="#fffde9" d="m343.57 320.22c63.673-59.287 49.219-132.15 40.357-155-28.865-74.422-85.08 37.204-81.786 68.571"/><path id="path7634" fill="#c4a3b1" d="m343.57 320.22s0.0553-0.0301 0.16721-0.0944c0.1119-0.0643 0.28041-0.16295 0.50635-0.30017 0.22595-0.13723 0.50936-0.31308 0.8505-0.53218 0.17058-0.10955 0.35558-0.22992 0.55498-0.3617 0.1994-0.13179 0.4132-0.27499 0.64133-0.43021 0.22813-0.15523 0.47059-0.32249 0.72726-0.5024 0.25666-0.17991 0.52753-0.37249 0.81243-0.57835 0.2849-0.20587 0.58383-0.42504 0.89654-0.65815 0.31272-0.23312 0.63923-0.48018 0.97923-0.74186s0.6935-0.53797 1.0601-0.82955c0.36663-0.29158 0.74638-0.59844 1.1388-0.92127 0.39244-0.32283 0.79758-0.66163 1.2149-1.0171 0.41732-0.35545 0.84682-0.72755 1.2879-1.117 0.44111-0.38944 0.89381-0.79622 1.3574-1.221 0.46363-0.42481 0.93819-0.86765 1.4229-1.3292 0.48475-0.46155 0.97967-0.94181 1.484-1.4415 0.50428-0.49965 1.0179-1.0187 1.54-1.5578 0.52205-0.53909 1.0525-1.0982 1.5904-1.678 0.53789-0.57984 1.0832-1.1804 1.6348-1.8022 0.55162-0.62183 1.1096-1.265 1.6726-1.93 0.56305-0.66506 1.1312-1.352 1.7032-2.0614 0.57201-0.7094 1.1479-1.4412 1.7262-2.196 0.57832-0.75479 1.1591-1.5325 1.7409-2.3337 0.58179-0.80114 1.1646-1.6257 1.7469-2.474 0.58227-0.8483 1.164-1.7204 1.7436-2.6165 0.5796-0.89613 1.157-1.8163 1.7306-2.7608 0.5736-0.94447 1.1434-1.9132 1.7075-2.9064 0.56416-0.99314 1.1227-2.0107 1.6739-3.0526 0.55116-1.0419 1.0949-2.1082 1.6294-3.1988 0.333-0.67944 0.67473-1.39 1.0228-2.1302 0.34806-0.74013 0.70245-1.5098 1.0608-2.3074 0.35835-0.79763 0.72064-1.6232 1.0846-2.475 0.36394-0.85181 0.72953-1.7298 1.0945-2.6324 0.36502-0.90254 0.72945-1.8296 1.0912-2.7792 0.36176-0.94968 0.72084-1.922 1.0753-2.9151 0.35444-0.99311 0.70423-2.007 1.0476-3.0397 0.34334-1.0327 0.68023-2.0842 1.009-3.1525 0.3288-1.0683 0.64951-2.1534 0.96068-3.2531 0.31117-1.0998 0.6128-2.2142 0.90363-3.3413 0.29084-1.127 0.57088-2.2666 0.83907-3.4166s0.52453-2.3103 0.76817-3.4788 0.47458-2.3452 0.69217-3.5278c0.21758-1.1826 0.42182-2.3711 0.61227-3.5632 0.19044-1.1922 0.36709-2.388 0.52969-3.5852s0.31116-2.3959 0.44561-3.5936c0.11575-1.0312 0.22105-2.0618 0.31596-3.0903 0.0949-1.0285 0.17945-2.055 0.25377-3.078 0.0743-1.023 0.13843-2.0426 0.19258-3.0573 0.0542-1.0147 0.0984-2.0246 0.13293-3.0284 0.0346-1.0037 0.0596-2.0013 0.0753-2.9914 0.0157-0.99007 0.0223-1.9727 0.0201-2.9466-0.002-0.97389-0.0132-1.9391-0.0323-2.8943-0.0192-0.95528-0.0466-1.9007-0.0817-2.835-0.0351-0.9344-0.0778-1.8578-0.12764-2.7692-0.0498-0.91136-0.1067-1.8107-0.17001-2.697-0.0633-0.88634-0.13308-1.7597-0.20861-2.6192-0.0755-0.85951-0.15686-1.7052-0.24329-2.5362-0.0864-0.831-0.17798-1.6474-0.27396-2.4484-0.096-0.801-0.19639-1.5866-0.30054-2.3563-0.10416-0.76968-0.21206-1.5234-0.32302-2.2606-0.11096-0.73723-0.22499-1.458-0.3414-2.1618-0.11641-0.70382-0.23521-1.3907-0.35575-2.0603-0.12053-0.66963-0.24279-1.322-0.36615-1.9569-0.12336-0.63488-0.24781-1.2522-0.37276-1.852-0.12495-0.59974-0.25038-1.1818-0.37574-1.7463-0.12536-0.56442-0.25063-1.1112-0.3753-1.6403-0.12468-0.52912-0.24874-1.0406-0.37171-1.5347-0.12298-0.49405-0.24486-0.97065-0.36522-1.43-0.12037-0.4594-0.23921-0.9016-0.35614-1.327-0.11694-0.42536-0.23197-0.83387-0.34477-1.226-0.1128-0.3921-0.22337-0.7678-0.33143-1.1276s-0.21361-0.7037-0.31643-1.0323c-0.10281-0.3286-0.20289-0.64189-0.30006-0.94051-0.19433-0.59723-0.37695-1.1358-0.54692-1.6212-0.16996-0.48539-0.32728-0.91768-0.47145-1.3026l-0.00001-0.00001v-0.00002c-0.26321-0.70274-0.54251-1.4245-0.83829-2.1596-0.29578-0.73517-0.60803-1.4838-0.93718-2.2403-0.32914-0.75653-0.67517-1.521-1.0385-2.288-0.36334-0.76706-0.74399-1.5367-1.1424-2.3038-0.39844-0.76709-0.81468-1.5316-1.2493-2.2886-0.4346-0.757-0.88757-1.5065-1.3596-2.2436-0.47201-0.73717-0.96305-1.462-1.4739-2.1699-0.51085-0.70791-1.0415-1.3989-1.5927-2.0683-0.55123-0.66945-1.123-1.3174-1.7161-1.9393-0.59305-0.62194-1.2074-1.2179-1.8432-1.7833-0.31793-0.28273-0.64123-0.55784-0.96991-0.82478s-0.66273-0.52571-1.0021-0.77576c-0.33936-0.25004-0.68403-0.49137-1.0339-0.72344s-0.70495-0.45487-1.0651-0.6679c-0.36011-0.21302-0.72526-0.41626-1.0952-0.60921s-0.74468-0.37562-1.1239-0.54751c-0.37923-0.1719-0.76295-0.33304-1.1508-0.48298-0.38784-0.14993-0.77979-0.28867-1.1754-0.41583-0.39562-0.12715-0.79492-0.24272-1.1974-0.3464-0.40246-0.10367-0.8081-0.19544-1.2164-0.27507-0.40825-0.0796-0.81912-0.14713-1.232-0.20235-0.41291-0.0552-0.82786-0.0982-1.2443-0.12884h-0.00001c-0.6659-0.049-1.3355-0.0666-2.0066-0.0533-0.67113 0.0133-1.3438 0.0575-2.0162 0.13156-0.67238 0.074-1.3444 0.17792-2.0147 0.31025-0.67029 0.13233-1.3388 0.29309-2.0043 0.48071-0.66555 0.18762-1.3282 0.40209-1.987 0.64172-0.6588 0.23964-1.3138 0.50444-1.9644 0.79272-0.65056 0.28829-1.2967 0.60005-1.938 0.93363-0.64126 0.33358-1.2776 0.68899-1.9089 1.0646-1.2624 0.75126-2.5041 1.5834-3.7232 2.4841-0.60954 0.45036-1.2134 0.91787-1.8114 1.401-0.598 0.48316-1.1901 0.98197-1.776 1.4949-0.58591 0.51293-1.1656 1.04-1.7388 1.5796-0.57318 0.53959-1.1398 1.0917-1.6995 1.6548-1.1194 1.1262-2.2111 2.2962-3.2718 3.4969-1.0792 1.2216-2.1263 2.4749-3.1385 3.7461s-1.9894 2.5604-2.9292 3.8538c-0.93971 1.2934-1.8419 2.5909-2.7044 3.8793-0.43128 0.6442-0.85266 1.2861-1.264 1.9242-0.41128 0.63803-0.81246 1.2722-1.2034 1.9008-0.39091 0.62867-0.77154 1.2519-1.1418 1.8681-0.37022 0.6162-0.73004 1.2254-1.0794 1.8262-0.34931 0.60074-0.68812 1.193-1.0164 1.7754-0.32823 0.58239-0.64589 1.1549-0.95294 1.7161-0.30706 0.56125-0.60351 1.1112-0.88935 1.6487-0.28584 0.53743-0.56107 1.0623-0.8257 1.5734-0.26464 0.51106-0.51869 1.0083-0.76218 1.4906-0.24349 0.48226-0.47643 0.94952-0.69886 1.4006-0.59226 1.2012-1.1556 2.3891-1.6912 3.561s-1.0435 2.3277-1.5249 3.4653c-0.48147 1.1376-0.93653 2.2569-1.3666 3.3562-0.43004 1.0992-0.83506 2.1784-1.2165 3.2362-0.38143 1.0577-0.73928 2.094-1.075 3.1077-0.33573 1.0137-0.64935 2.0049-0.94233 2.9728-0.29298 0.96792-0.56532 1.9126-0.81852 2.8335-0.25321 0.92089-0.48726 1.818-0.70365 2.6912-0.21639 0.87311-0.41511 1.7222-0.59763 2.5472-0.18252 0.82502-0.34883 1.626-0.50038 2.4029-0.15154 0.77696-0.28831 1.5299-0.41171 2.2592-0.12341 0.72925-0.23344 1.4348-0.33146 2.1169-0.098 0.68214-0.18403 1.3409-0.25934 1.9768-0.0753 0.63586-0.13992 1.2488-0.1951 1.8394-0.0552 0.59057-0.10093 1.1588-0.13845 1.7052-0.0375 0.54643-0.0668 1.0711-0.089 1.5746-0.0222 0.50354-0.0374 0.98596-0.0466 1.448-0.009 0.46199-0.0124 0.90355-0.0106 1.3254 0.002 0.42184 0.008 0.82395 0.0192 1.2071 0.0107 0.38313 0.0254 0.74725 0.0431 1.0931 0.0177 0.34586 0.0386 0.67346 0.0616 0.98352 0.0231 0.31006 0.0484 0.60259 0.0751 0.87829 0.0268 0.27571 0.055 0.53459 0.0839 0.77736 0.029 0.24276 0.0587 0.4694 0.0885 0.68059s0.0597 0.40693 0.089 0.58787c0.0294 0.18094 0.0582 0.34708 0.086 0.49902 0.0278 0.15195 0.0545 0.2897 0.0797 0.41384 0.0252 0.12413 0.0489 0.23465 0.0705 0.33208 0.0217 0.0974 0.0413 0.18178 0.0586 0.25354 0.0173 0.0718 0.0322 0.13091 0.0444 0.17793 0.0122 0.047 0.0216 0.0819 0.028 0.10501 0.006 0.0231 0.01 0.0345 0.01 0.0345s0.0179-0.0439 0.052-0.13475c0.0171-0.0454 0.0383-0.10253 0.0634-0.17174 0.0251-0.0692 0.0542-0.15053 0.0871-0.24432 0.0329-0.0938 0.0697-0.20006 0.11019-0.31922 0.0405-0.11916 0.0849-0.25121 0.13297-0.39657 0.0481-0.14536 0.1-0.30403 0.15567-0.47646 0.0557-0.17243 0.11519-0.35861 0.17858-0.55904 0.0634-0.20042 0.13068-0.41507 0.202-0.64447 0.0713-0.22939 0.14667-0.47352 0.22624-0.73292 0.0796-0.25941 0.16338-0.53408 0.25165-0.82459 0.0883-0.29051 0.18101-0.59686 0.27853-0.91964 0.0975-0.32277 0.19981-0.66198 0.30725-1.0182 0.10744-0.35626 0.22002-0.72958 0.33816-1.1206s0.24186-0.79974 0.37162-1.2268c0.12976-0.42708 0.26558-0.87254 0.408-1.337 0.14241-0.4645 0.29143-0.94804 0.44766-1.4513s0.31966-1.0262 0.49098-1.5696c0.17131-0.54337 0.3505-1.1071 0.5383-1.6919 0.18779-0.58478 0.38419-1.1906 0.58998-1.818 0.20578-0.62742 0.42096-1.2765 0.64634-1.9477 0.22539-0.67119 0.461-1.3646 0.70769-2.0805 0.2467-0.71595 0.50449-1.4545 0.7743-2.216 0.2698-0.76149 0.55161-1.5459 0.84638-2.3535 0.29476-0.80758 0.60249-1.6383 0.92414-2.4922 0.32165-0.85388 0.65723-1.7309 1.0077-2.631 0.35048-0.90006 0.71587-1.8231 1.0972-2.7688 0.38129-0.94565 0.77846-1.9139 1.1925-2.904 0.41403-0.99012 0.84493-2.0021 1.2936-3.035 0.44871-1.0329 0.91522-2.0867 1.4004-3.1599 0.48523-1.0732 0.98917-2.166 1.5127-3.2764 0.52351-1.1104 1.0666-2.2385 1.63-3.3819 0.2116-0.42943 0.43314-0.87413 0.66465-1.333 0.23151-0.45885 0.47299-0.93185 0.72444-1.4178 0.25145-0.48596 0.51287-0.98489 0.78425-1.4955 0.27138-0.51064 0.55271-1.033 0.84395-1.5657 0.29124-0.53275 0.59239-1.0759 0.90336-1.6281 0.31096-0.55217 0.63175-1.1134 0.96223-1.6821 0.33048-0.56877 0.67066-1.1451 1.0204-1.7275 0.3497-0.58241 0.70891-1.1709 1.0774-1.7639 0.36851-0.59298 0.74631-1.1905 1.1331-1.7908 0.38683-0.60037 0.78266-1.2036 1.1872-1.8081 0.40452-0.60446 0.81772-1.2101 1.2392-1.8153 0.42149-0.60516 0.85126-1.2098 1.2889-1.8122 0.43759-0.60238 0.88301-1.2025 1.3357-1.7986 0.45272-0.59608 0.91274-1.1881 1.3795-1.7743 0.46673-0.5862 0.94016-1.1665 1.4196-1.7392 0.47948-0.5727 0.96501-1.1378 1.4558-1.6934 0.48246-0.5461 0.97004-1.0831 1.462-1.6093 0.49198-0.52618 0.98836-1.0416 1.4884-1.5445 0.49998-0.50295 1.0036-0.99345 1.5099-1.4699 0.50634-0.47648 1.0154-0.93894 1.5262-1.3858 0.51084-0.4469 1.0234-0.87824 1.5367-1.2926 0.51329-0.41432 1.0273-0.81164 1.5408-1.1906 0.51351-0.37897 1.0266-0.73961 1.5379-1.0808 0.51135-0.34115 1.021-0.66281 1.5277-0.96406 0.50674-0.30125 1.0106-0.58209 1.5103-0.84186 0.49972-0.25977 0.99535-0.49848 1.4858-0.71576 0.49048-0.21728 0.97582-0.41314 1.4552-0.58751 0.47933-0.17437 0.95264-0.32726 1.4194-0.45888 0.4667-0.13162 0.92679-0.24198 1.38-0.3315 0.45318-0.0895 0.89946-0.15821 1.3389-0.20663 0.43944-0.0484 0.87205-0.0766 1.2983-0.085 0.42622-0.008 0.84608 0.003 1.2604 0.0333 0.25909 0.0191 0.51603 0.0457 0.77109 0.0798 0.25505 0.0341 0.50822 0.0758 0.75979 0.12495 0.50312 0.0984 0.99986 0.22692 1.4921 0.38633 0.24613 0.0797 0.49114 0.16712 0.73519 0.26238 0.24404 0.0952 0.48714 0.19832 0.7294 0.30932 0.24225 0.111 0.48367 0.22991 0.72432 0.35682 0.24064 0.12691 0.4805 0.26182 0.71959 0.40475 0.23909 0.14294 0.4774 0.29391 0.71489 0.45291s0.47415 0.32604 0.7099 0.50105c0.23574 0.17502 0.47056 0.35803 0.70433 0.54892 0.23376 0.19089 0.46647 0.38967 0.69796 0.59618s0.46175 0.42075 0.69061 0.64252c0.22885 0.22177 0.4563 0.45106 0.68213 0.68761s0.45005 0.48036 0.67245 0.73111 0.44298 0.50844 0.66153 0.7727c0.21855 0.26425 0.43507 0.53507 0.64936 0.81203 0.2143 0.27697 0.42636 0.56007 0.636 0.84885 0.20963 0.28877 0.41685 0.58322 0.62148 0.88282 0.20462 0.29961 0.40664 0.60437 0.60591 0.91373 0.39854 0.61872 0.78605 1.2559 1.1615 1.9066 0.37542 0.65075 0.73875 1.3151 1.0892 1.9877 0.35049 0.67262 0.68815 1.3535 1.0125 2.0371 0.32433 0.68358 0.63532 1.3698 0.93268 2.0529 0.29737 0.6831 0.5811 1.3631 0.85104 2.034s0.52609 1.3327 0.76836 1.9796v0.00001c0.00001 0 0.00001 0.00001 0.00001 0.00001 0.0622 0.16612 0.12773 0.34369 0.19651 0.53349 0.0688 0.1898 0.14085 0.39183 0.21613 0.60684 0.0753 0.21501 0.15379 0.44301 0.23541 0.68471 0.0816 0.2417 0.16636 0.49709 0.25407 0.76686 0.0877 0.26977 0.17842 0.55391 0.2719 0.85303 0.0935 0.29913 0.18976 0.61324 0.28859 0.9429 0.0988 0.32966 0.20021 0.67486 0.30388 1.0361 0.10366 0.36123 0.20961 0.73851 0.3175 1.1322 0.1079 0.39373 0.21776 0.80391 0.32921 1.2309 0.11144 0.42697 0.22448 0.87074 0.33869 1.3316 0.11422 0.46082 0.22962 0.93868 0.34574 1.4338 0.11613 0.49509 0.23299 1.0074 0.35009 1.537 0.11709 0.52959 0.23443 1.0765 0.35147 1.6406 0.11704 0.56416 0.23379 1.1456 0.34969 1.7442 0.11589 0.59857 0.23093 1.2143 0.34451 1.8469 0.11358 0.63263 0.22571 1.2822 0.33575 1.9483 0.11004 0.66611 0.218 1.3488 0.32322 2.0476 0.10522 0.69881 0.20771 1.4138 0.30679 2.1443 0.0991 0.73054 0.19476 1.4767 0.28635 2.2377 0.0916 0.76107 0.17911 1.5371 0.26186 2.3273 0.0827 0.79021 0.16072 1.5946 0.23326 2.4124 0.0725 0.81777 0.13964 1.6489 0.20064 2.4925 0.061 0.84358 0.1159 1.6996 0.16406 2.5671 0.0482 0.86749 0.0896 1.7464 0.12369 2.6358 0.0341 0.88933 0.0609 1.7891 0.0797 2.6981 0.0189 0.90902 0.0299 1.8273 0.0325 2.7537 0.003 0.92641-0.003 1.8609-0.0178 2.8024-0.0146 0.94143-0.0381 1.8898-0.0707 2.8438s-0.0745 1.9137-0.12582 2.8777c-0.0513 0.96405-0.11217 1.9325-0.1827 2.904-0.0705 0.97152-0.15079 1.9461-0.24089 2.9225-0.0901 0.97636-0.19003 1.9545-0.29987 2.933-0.12759 1.1366-0.26853 2.2738-0.42276 3.4094s-0.32175 2.2696-0.50231 3.3999-0.37416 2.2568-0.58036 3.3776c-0.2062 1.1207-0.42501 2.2356-0.6558 3.3425-0.2308 1.1069-0.47357 2.2058-0.72752 3.2947s-0.51907 2.1678-0.79436 3.2346c-0.27528 1.0668-0.56074 2.1215-0.85518 3.1621s-0.59786 2.0672-0.90889 3.0778-0.62967 2.0051-0.95438 2.9818c-0.32471 0.97668-0.65549 1.9355-0.99063 2.8745-0.33515 0.93907-0.67466 1.8584-1.0167 2.7563-0.34203 0.89789-0.68657 1.7743-1.0316 2.6276-0.34508 0.85324-0.69069 1.6833-1.0347 2.4886-0.34405 0.80526-0.68655 1.5857-1.0253 2.3398-0.33877 0.75404-0.6738 1.4817-1.0028 2.1814-0.32906 0.69972-0.65214 1.3715-0.96698 2.0139-1.0107 2.0622-2.0292 4.0462-3.0471 5.9536s-2.0352 3.7381-3.044 5.4939c-1.0087 1.7558-2.0088 3.4367-2.9929 5.0446-0.49202 0.80393-0.98004 1.5896-1.4632 2.3573-0.48313 0.76769-0.9614 1.5174-1.434 2.2493-0.47256 0.73193-0.93942 1.4461-1.3998 2.1428-0.46038 0.69668-0.91428 1.3758-1.361 2.0378-0.4467 0.6619-0.88619 1.3066-1.3178 1.9342-0.43162 0.62763-0.85536 1.2382-1.2706 1.8321-0.41524 0.59383-0.822 1.1709-1.2197 1.7314s-0.78634 1.1044-1.1654 1.6321c-0.37909 0.52764-0.74863 1.039-1.1082 1.5342-0.35955 0.49521-0.7091 0.97431-1.0483 1.4375-0.33917 0.46323-0.66798 0.91056-0.98609 1.3422-0.31812 0.43165-0.62555 0.84762-0.92203 1.2481-0.29648 0.40049-0.58201 0.7855-0.85641 1.1552-0.2744 0.36972-0.53766 0.72415-0.78965 1.0635-0.252 0.33932-0.49272 0.66354-0.7221 0.97283-0.22939 0.3093-0.44743 0.60367-0.65413 0.88328-0.2067 0.27962-0.40204 0.54448-0.58609 0.79475-0.18405 0.25028-0.3568 0.48596-0.51835 0.70723-0.16155 0.22126-0.31191 0.42809-0.45124 0.62066-0.13933 0.19256-0.26762 0.37086-0.3851 0.53503-0.11748 0.16418-0.22415 0.31424-0.32026 0.45033-0.0961 0.13609-0.18169 0.2582-0.25704 0.3665-0.0753 0.10829-0.14045 0.20276-0.1957 0.28355-0.0553 0.0808-0.10064 0.1479-0.13658 0.20147-0.0359 0.0536-0.0624 0.0936-0.0799 0.12025-0.02 0.09-0.03 0.1-0.03 0.1z"/><path id="path8080" d="m419.12 142.71s-0.0113 0.0448-0.0323 0.13707c-0.021 0.0922-0.0515 0.23187-0.0902 0.42127s-0.0855 0.42856-0.13918 0.71963c-0.0537 0.29107-0.1144 0.63406-0.18118 1.0309-0.0668 0.39684-0.13966 0.84752-0.21824 1.3538-0.0786 0.50625-0.16285 1.0681-0.25286 1.687-0.09 0.61889-0.18575 1.2948-0.28781 2.0291-0.051 0.36713-0.10365 0.74884-0.15799 1.1453-0.0543 0.39642-0.1104 0.80755-0.16834 1.2335-0.058 0.42597-0.11778 0.86676-0.17971 1.3225-0.0619 0.45574-0.12596 0.92642-0.19236 1.4121-0.0664 0.48571-0.13514 0.98646-0.20656 1.5023-0.0714 0.51585-0.1455 1.0468-0.22261 1.593-0.0771 0.54615-0.15725 1.1075-0.24084 1.684-0.0836 0.57656-0.17061 1.1683-0.26156 1.7754-0.0909 0.60706-0.18581 1.2294-0.28514 1.867-0.0993 0.63762-0.20313 1.2905-0.312 1.9588-0.10886 0.66824-0.2228 1.3518-0.3425 2.0507-0.11969 0.69888-0.24514 1.4131-0.37712 2.1426-0.13197 0.72953-0.27047 1.4744-0.41634 2.2346-0.14588 0.7602-0.29912 1.5357-0.46069 2.3266-0.16157 0.79084-0.33146 1.597-0.51073 2.4185-0.17926 0.82149-0.3679 1.6583-0.56707 2.5104-0.19917 0.85213-0.40888 1.7196-0.63041 2.6024-0.22153 0.88278-0.45489 1.7809-0.70149 2.6943-0.2466 0.91344-0.49618 1.8042-0.74782 2.6732-0.25165 0.86901-0.50535 1.7163-0.76028 2.5429-0.25492 0.82656-0.51105 1.6324-0.7676 2.4183-0.25655 0.78594-0.51352 1.552-0.77016 2.299-0.25665 0.74702-0.51297 1.475-0.76828 2.1847-0.25531 0.70968-0.50961 1.4011-0.76225 2.0748-0.25265 0.67379-0.50365 1.33-0.7524 1.9692-0.24876 0.63924-0.49528 1.2615-0.73901 1.8674-0.24373 0.60591-0.48467 1.1954-0.72233 1.7691s-0.47204 1.1316-0.70267 1.6741c-0.23064 0.54252-0.45753 1.0697-0.68027 1.582-0.22274 0.51227-0.44133 1.0097-0.65539 1.4926s-0.4236 0.9513-0.62829 1.4056c-0.20468 0.45429-0.40452 0.89448-0.59921 1.3209-0.1947 0.42641-0.38426 0.83905-0.56843 1.2382-0.18417 0.39918-0.36297 0.7849-0.53617 1.1574-0.1732 0.37256-0.34082 0.73194-0.50268 1.0784-0.16187 0.34647-0.31798 0.68003-0.46822 1.0009-0.30048 0.64178-0.57743 1.2329-0.83034 1.7751-0.25291 0.54217-0.48179 1.0354-0.68674 1.4811-0.20496 0.44573-0.386 0.84398-0.54383 1.196-0.15783 0.35204-0.29247 0.65788-0.40518 0.91867-0.11272 0.26079-0.20352 0.47653-0.27421 0.64829-0.0707 0.17177-0.1213 0.29955-0.15411 0.3844-0.0328 0.0848-0.0478 0.12675-0.0478 0.12675s0.0367-0.0252 0.1102-0.0789 0.18388-0.13583 0.33101-0.25c0.14712-0.11416 0.33102-0.26033 0.55126-0.44231 0.22024-0.18199 0.47683-0.39979 0.76894-0.65749s0.61975-0.55529 0.98155-0.89714c0.1809-0.17093 0.37034-0.35292 0.56808-0.54655s0.40379-0.3989 0.61789-0.6164c0.21409-0.2175 0.43622-0.44722 0.66608-0.68977 0.22987-0.24256 0.46746-0.49794 0.71242-0.76677s0.49729-0.55111 0.75658-0.84748c0.25928-0.29637 0.52553-0.60682 0.79827-0.93201 0.27273-0.32518 0.55196-0.6651 0.83716-1.0204 0.28519-0.35532 0.57635-0.72603 0.8729-1.1128 0.29655-0.38679 0.59848-0.78964 0.90514-1.2093 0.30666-0.41961 0.61806-0.85598 0.93348-1.3098 0.31541-0.45382 0.63485-0.92509 0.95752-1.4145 0.32267-0.48942 0.64858-0.99698 0.97686-1.5234 0.32829-0.52641 0.65896-1.0717 0.99108-1.6365 0.33212-0.56482 0.6657-1.1492 0.99973-1.7538 0.33402-0.60463 0.6685-1.2295 1.0024-1.8754 0.33385-0.64584 0.66709-1.3126 0.99855-2.0011 0.33146-0.68844 0.66114-1.3985 0.98783-2.1309s0.65038-1.4871 0.96978-2.2648c0.31941-0.7777 0.63451-1.5784 0.94397-2.4027 0.30945-0.82432 0.61324-1.6723 0.90995-2.5445s0.58633-1.7687 0.86736-2.69c0.28104-0.92133 0.55349-1.8675 0.81581-2.8392 0.26232-0.97163 0.50358-1.9282 0.72564-2.8692 0.22206-0.94098 0.42491-1.8663 0.61032-2.7756 0.18541-0.90928 0.35338-1.8025 0.50555-2.6792 0.15217-0.87673 0.28855-1.737 0.41069-2.5805 0.12214-0.84351 0.23004-1.6703 0.32517-2.48 0.0951-0.80977 0.17747-1.6026 0.2484-2.3782 0.0709-0.77565 0.13045-1.5342 0.17984-2.2754 0.0494-0.74127 0.0886-1.4653 0.11895-2.1721 0.0303-0.70677 0.0517-1.3963 0.0652-2.0685 0.0135-0.67224 0.0193-1.3272 0.0182-1.965-0.001-0.63778-0.009-1.2583-0.0226-1.8618-0.0137-0.60346-0.0332-1.1898-0.0577-1.7592-0.0244-0.56937-0.0538-1.1218-0.0873-1.6573-0.0335-0.53557-0.071-1.0543-0.11192-1.5565-0.0409-0.50214-0.0851-0.98765-0.13191-1.4568-0.0468-0.46911-0.0962-0.92181-0.14758-1.3583-0.0513-0.43652-0.10465-0.85689-0.15926-1.2613-0.0546-0.40445-0.11054-0.793-0.16722-1.1659-0.11337-0.74583-0.22969-1.4291-0.34489-2.0523-0.1152-0.62314-0.22928-1.1862-0.33875-1.6916-0.10948-0.50545-0.21434-0.95334-0.3116-1.3464-0.0973-0.39306-0.18692-0.73129-0.26641-1.0175-0.0795-0.28622-0.14881-0.52043-0.20574-0.70549-0.0569-0.18507-0.10149-0.32098-0.13175-0.41064-0.04-0.09-0.05-0.13-0.05-0.13z" transform="translate(-55.28 51.584)" fill="#c4a3b1"/></g></svg>