<?xml version="1.0" encoding="UTF-8"?><svg xmlns="http://www.w3.org/2000/svg" version="1.1" viewBox="0 0 5695.0752 5695.0679"><defs id="defs4"><clipPath id="clipPath1088" clipPathUnits="userSpaceOnUse"><path id="path1090" opacity=".5" d="m3644 1678c-46.939 197.81-93.254 396.18-390 365-114.15 0.273-279.51-5.9344-405 44-5.586-163.35 171.72-337.13 407-322 140.2-8.6234 269.13-38.38 388-87z" stroke="#f00" stroke-width="1px" fill="#0f0"/></clipPath><linearGradient id="linearGradient1102" y2="1784.7" gradientUnits="userSpaceOnUse" x2="2939.8" y1="2144.2" x1="3018.1"><stop id="stop1098" stop-color="#08525f" offset="0"/><stop id="stop1100" stop-color="#073742" offset="1"/></linearGradient><clipPath id="clipPath1124" clipPathUnits="userSpaceOnUse"><path id="path1126" opacity=".5" d="m3480.9 1459.8c43.622 187.93 88.021 376.08-179.31 476.5-97.594 47.194-249.69 121.19-334.91 219.42-74-136.23 10.933-368.43 218.82-456.19 116.4-67.266 214.2-147.65 295.39-239.73z" stroke="#f00" stroke-width=".95283px" fill="#0f0"/></clipPath><clipPath id="clipPath1128" clipPathUnits="userSpaceOnUse"><path id="path1130" opacity=".5" d="m3353.4 1513c53.264 189.55 107.25 379.36-130.39 462.03-86.012 40.644-220.02 104.44-291.09 196.58-77.412-140.12-16.108-365.41 168.01-439.3 101.81-59.386 185.66-133 253.47-219.3z" stroke="#f00" stroke-width=".90660px" fill="#0f0"/></clipPath></defs><g transform="translate(406.26 -119.35)"><path id="path3986-7" fill="#938b9c" d="m4213 3899.6c-105.12 640.38-149.51 1219.7 106.24 1494.3 114.17 122.58 15.514 147.07-90.565 153.26-128.27 7.4883-256.6 1.5855-384.9-5.2249-84.405-523.53-31.703-1068.3 153.26-1633.7z"/><path id="path3978-8" fill="#938b9c" d="m2262.4 3352.7c-174.78 278.35-60.867 733.27 34.833 1081.6-162.72 2.4282-302.28-25.884-344.85 107.98-112.56 353.99-123.13 703.93-118.43 1050.2 0.8538 62.935 33.185 99.679 88.824 104.5 137.65 11.923 276.91 12.51 414.51 0 113.77-10.344 78.243-52.993 50.508-109.72-178.19-364.48-111.41-748.71 357.04-1165.2z"/><path id="path4000" fill="#5e5b6a" d="m4192.1 5184.7c-133.61 70.877-248.78 149.66-359.61 230.3l-19.704-176.11c103.1-73.386 249.68-141.28 348.52-161.33z"/><path id="path3980" fill="#5e5b6a" d="m1948.9 4538.8c162.27 56.991 318.99 144.5 471.99 252.54l-55.732 111.47c-142.02-78.017-288.84-147.64-449.34-193.32z"/><path id="path3982" fill="#5e5b6a" d="m2305.9 5106.5c-172.41 4.0802-333.12 31.569-468.5 109.72l6.9666 212.48c152.89-60.306 307.49-110.33 465.02-142.81z"/><path id="path3984" fill="#2b2536" d="m2349.5 5489.7c-145.06 22.206-267.12 90.42-365.74 205.51 124.24 12.359 248.47 12.062 372.71-3.4833 88.964-8.6108 54.48-56.5 47.024-95.79z"/><path id="path3998" fill="#2b2536" d="m4259.9 5314c-155.09 30.148-289.98 103.58-422.41 182.27l8.6207 46.798 428.57 8.6206c110.05-29.802 125.2-77.026 59.113-139.16z"/><path id="path4002" fill="#5e5b6a" d="m4160.1 4230.3c-67.052-18.634-173.81-15.571-246.31 2.463l73.892-279.56h213.05z"/><path id="path897" fill="#5e5b6a" d="m2229.3 4209.6c160.28 40.381 344.1 160.59 465.02 247.31l-85.34-341.36c-138.17-56.895-276.34-125.3-414.51-142.81z"/><path id="path3986" d="m4213 3899.6c-105.12 640.38-149.51 1219.7 106.24 1494.3 114.17 122.58 15.514 147.07-90.565 153.26-128.27 7.4883-256.6 1.5855-384.9-5.2249-84.405-523.53-31.703-1068.3 153.26-1633.7z" stroke="#35313a" stroke-width="44" fill="none"/><path id="path3978" d="m2262.4 3352.7c-174.78 278.35-60.867 733.27 34.833 1081.6-162.72 2.4282-302.28-25.884-344.85 107.98-112.56 353.99-123.13 703.93-118.43 1050.2 0.8538 62.935 33.185 99.679 88.824 104.5 137.65 11.923 276.91 12.51 414.51 0 113.77-10.344 78.243-52.993 50.508-109.72-178.19-364.48-111.41-748.71 357.04-1165.2z" stroke="#35313a" stroke-width="44" fill="none"/><g id="g899" fill="#968a48"><path id="path3996" d="m4144.3 4494.2c41.145-31.005 47.508-77.043 11.932-99.018-28.435-17.564-85.47-24.271-178.37-14.601l-16.01 108.37"/><path id="path3994" d="m4141.6 4625.6c43.308-44.741 42.478-112.14 16.353-132.41-34.36-26.651-114.92-18.243-208.47 0.6345l-6.1577 130.54"/><path id="path3992" d="m4138.1 4741.5c41.938-35.215 42.025-96.518 15.035-114.8-36.433-24.684-124.78-14.794-235.66 1.3679l-20.936 115.76"/><path id="path3990" d="m4160.1 4878.1c36.497-45.866 27.897-108.41-11.423-132.73-44.87-27.748-141.82-17.149-271.83 2.1849v121.92"/><path id="path3988" d="m3863 4995.1c81.712 2.0229 208.44-3.1624 279.9-21.257 54.73-13.858 51.597-100.39 6.3692-111.19-64.652-15.434-206.43-0.4707-293.45 3.2313z"/></g><path id="path1188" fill-opacity=".37647" fill="#fff" d="m4060.2 4377.9c8.4599 203.65 3.5669 407.29-2.8284 610.94l62.225-7.0711c3.3242-200.22 3.1727-401.31-8.4853-605.28z"/><path id="path3996-9" d="m4144.3 4494.2c41.145-31.005 47.508-77.043 11.932-99.018-28.435-17.564-85.47-24.271-178.37-14.601l-16.01 108.37" stroke="#8a6918" stroke-width="29" fill="none"/><path id="path3994-1" d="m4141.6 4625.6c43.308-44.741 42.478-112.14 16.353-132.41-34.36-26.651-114.92-18.243-208.47 0.6345l-6.1577 130.54" stroke="#8a6918" stroke-width="29" fill="none"/><path id="path3992-7" d="m4138.1 4741.5c41.938-35.215 42.025-96.518 15.035-114.8-36.433-24.684-124.78-14.794-235.66 1.3679l-20.936 115.76" stroke="#8a6918" stroke-width="29" fill="none"/><path id="path3990-7" d="m4160.1 4878.1c36.497-45.866 27.897-108.41-11.423-132.73-44.87-27.748-141.82-17.149-271.83 2.1849v121.92" stroke="#8a6918" stroke-width="29" fill="none"/><path id="path3988-4" d="m3863 4995.1c81.712-7.5212 208.44-12.474 279.9-21.257 56.036-6.8874 51.597-100.39 6.3692-111.19-64.652-15.434-206.43-0.4707-293.45 3.2313z" stroke="#8a6918" stroke-width="29" fill="none"/></g><g transform="translate(406.26 -119.35)"><path id="path932" fill="#6e6773" d="m1140.4 3202c7.7949 44.868 14.542 89.632-41.872 128.08 28.631 16.047 60.765 30.843 0 78.818 72.632 25.375 82.362 63.331 56.65 108.37-168.19 239.66-46.76 418.69 59.113 600.99 197.66 267.13 362.28 557.51 384.24 948.28-275.25 222.67-584.39 324.84-918.72 337.44 180.01-271.28 141.76-548.3 110.84-825.12-33.966 294.6-75.021 586.51-295.57 810.34-149.51-15.926-243.37-112.25-334.98-211.82 381.6-245.22 342.72-598.42 374.38-933.5-25.062-323.62-31.59-641.07 214.29-874.38 111.2-94.51 241.02-151.79 391.63-167.49z"/><path id="path930" fill="#d4ced5" d="m1098.5 3332.5c-198.3 72.881-369.6 167.56-399.01 376.85-30.762 149.88-24.012 295.08-2.463 438.42 66.768 579.92-133.76 898.35-364.53 1187.2l165.02 64.039c186.33-228.42 265.69-508.2 288.18-815.27 35.838 285.15 55.936 568.26-108.37 827.59l300.49-41.872c220.68-412.5 177.18-721.3 100.98-987.6-86.71-250.3-264.16-516.2-177.32-736.5 39.358-87.125 104.39-166.55 209.36-233.99 25.372-39.671 34.071-71.764-12.315-78.818z"/><path id="path928" fill="#d4ced5" d="m1142.9 3202c12.256 50.067-1.5827 93.611-41.872 130.54 49.541 13.463 25.701 48.94 12.315 81.281 44.554 21.988 55.365 53.616 54.187 88.67 79.114-78.735 178.03-83.202 283.25-64.04 151.89 55.839 303.78 77.885 455.66 81.281l337.44-36.946 61.576-246.31c-195.14 38.926-389.65 86.812-591.13 36.946-190.48-32.682-380.95-92.732-571.43-71.429z"/><path id="path4007" d="m334.98 5335c358.44-434.43 411.89-798.69 353.45-1270.9-58.833-475.4 90.484-624.73 406.4-730.3" stroke="#35313a" stroke-width="29" fill="none"/><path id="path4009" d="m1101 3417.5c-356.36 246.86-210.02 523.76-87.438 791.87 177.21 387.61 162.21 810.61-36.946 1162.6" stroke="#35313a" stroke-width="29" fill="none"/><path id="path4011" fill="#35313a" d="m1236.9 4404.9c126.58 178.2 223.4 480.6 169.97 773.5l28.531 5.1875c55.158-302.39-43.384-610.4-174.84-795.47-144.39-203.27-300.24-492.27-231.97-746.29-109.07 242.29 62.365 557.61 208.31 763.07z"/><path id="path4013" fill="#35313a" d="m1236.3 4603.6c15.575 111.81 17.576 477.96-109.52 714.92l24.688 13.25c131.33-244.86 125.9-615.84 84.829-728.17z"/><path id="path4023" d="m1135.5 3205.7c23.177 47.619 12.317 85.386-40.64 128.08 70.72 7.4778 33.784 58.22 6.1576 83.744 44.965 9.6901 79.582 38.04 62.808 105.91" stroke="#35313a" stroke-width="29" fill="none"/><path id="path4025" fill="#6e6773" d="m1323.9 3213.1c-24.524 78.611-15.037 147.51 6.1577 213.05l-82.512 17.241c-17.034-79.228-44.164-158.46-11.084-237.68z"/><path id="path4027" fill="#6e6773" d="m1592.4 3480.3c-19.412-75.173-8.3112-145.65 14.778-214.29l89.902 18.473c-13.177 72.978-15.851 143.33-16.01 213.05z"/><path id="path4029" fill="#6e6773" d="m1923.6 3514.8c-16.245-73.892-14.164-147.78-11.084-221.67l77.586-3.6946c-3.4901 72.701 0.6186 146.92 13.547 222.91z"/><path id="path4005" d="m2325.1 3218c-239.81 70.608-481.51 111.12-748.77 34.483-642.09-184.13-999.98 144.39-1044.3 573.89-36.963 357.9 140.42 995.16-375.62 1352.2 92.987 119.54 209.16 189.15 344.83 216.75 224.17-246.63 268.2-592.94 282.02-848.52 55.357 222.7 56.339 586.82-105.91 858.37 346.59-6.874 652.51-114.02 919.95-348.52-6.4017-343.38-170.87-603.43-339.9-860.84-132.29-201.46-253.8-394.17-140.39-610.84 69.13-132.07 191.77-199.71 411.33-125.62 253.57 85.565 447.18 71.052 716.75 22.167" stroke="#35313a" stroke-miterlimit="9" stroke-width="44" fill="none"/></g><g transform="translate(406.26 -119.35)"><path id="path934" fill="#d4ced5" d="m4522.2 2931c88.615 427.05 193.83 845.39-418.81 1110.4l-31.259 134.41-435.11 88.19 42.818-124.07c-143.85 9.8068-290.25-0.1063-443.35-36.523l-39.409-1133c147.47 72.644 284.9 105.1 413.79 103.45z"/><path id="path4032-3" fill="#d4ced5" d="m3630.5 3076.1c-136.99 20.144-276.33-39.131-418.72-95.812-310.55-123.62-620.34-96.391-827.59 115.76-262.09 268.29-215.75 556.39-111.14 831.79 96.395 253.78 258.26 448.43 451.04 596.78-126.93 28.578-189.35 17.432-169.15 113.41 60.704 288.32 171.4 610 177.65 870.82 2.0936 87.431 18.925 182.41 132.36 182.87 134.15 0.5524 269.09 7.878 397.09-10.45 73.304-10.496 57.593-65.046 1.7417-142.81-262.34-365.28-308.66-760.09-113.21-1191.3 33.778-74.518 68.364-167.78 94.746-271.38 1.2969-5.0929 2.574-10.211 3.8301-15.353"/><path id="path4078-5" fill="#d4ced5" d="m3692.4 4107.7c-2.5085 5.8449-4.9975 11.722-7.4668 17.629-169.52 405.57-246.58 957.96-224.36 1434.8 3.7827 81.192 42.076 118.42 82.024 147.08 132.3 94.923 298.59 91.934 461.03 77.782 209.46-18.248 68.843-139.02 36.77-213.55-198.88-462.14-68.986-987.16 43.737-1453.8 1.1553-4.7828 2.3089-9.5594 3.4603-14.33"/><path id="path4034" fill="#6e6773" d="m2373.2 3105.9 38.177 142.86-129.31-6.1576z"/><path id="path4036" fill="#6e6773" d="m2428.6 3059.1 177.34 66.502 1.2315-173.65z"/><path id="path4038" fill="#6e6773" d="m2635.5 2938.4 203.2 117 75.123-153.94z"/><path id="path4040" fill="#6e6773" d="m2923.6 2913.8 205.66 224.14 119.46-141.63z"/><path id="path4042" fill="#6e6773" d="m3251.2 3003.7 368.23 764.78c-32.871-228.06-58.992-457.09-68.966-688.42z"/><path id="path4044" fill="#6e6773" d="m3569 3083.7c173.23 228.69 410.56 449 586.21 559.11-144.64-189.03-292.38-373.41-431.03-571.43z"/><path id="path4070" fill="#6e6773" d="m2472 4282c232.87-33.92 496.23-11.522 712-24l-94 229c-147.04-9.3752-343.32-59.988-463-38z"/><path id="path4072" fill="#6e6773" d="m3031 4917c-128.32-1.2534-266.49-1.6716-405 37l-31-127c141.64-35.785 287.36-49.881 437-43z"/><path id="path4074" fill="#6e6773" d="m2706 5225c100.92-69.978 231.11-114.63 354-116l38 128c-123.96 21.81-249.72 58.966-379 126z"/><path id="path4076" fill="#222028" d="m3221 5480c-127.39 30.788-240.54 83.858-307 210l341-7c78.967-12.041 55.286-55.907 47-95z"/><path id="path4080" fill="#6e6773" d="m4058.8 4237.9c-144-25.104-282.09 3.0211-418.61 45.255l43.841-120.21c133.71-57.151 263.29-128.79 418.61-110.31z"/><path id="path4082" fill="#6e6773" d="m3932.9 4936.5c-108.05 2.645-204.65 70.89-271.53 135.76 91.924-4.4212 183.85-13.712 275.77 7.0711z"/><path id="path4084" fill="#6e6773" d="m3825.4 5225c-122.42-26.371-243.38-38.166-362.04-26.87l-1.4142 135.76c141.63 20.007 250.93-48.88 363.45-108.89z"/><path id="path4086" fill="#222028" d="m4002.2 5479.6c-189.25 48.05-311.86 146.88-422.85 254.56 140.89 58.69 289.55 74.761 445.48 50.912 130.15-25.289 85.319-89.463 50.912-151.32z"/><path id="path4032" d="m3630.5 3076.1c-136.99 20.144-276.33-39.131-418.72-95.812-310.55-123.62-620.34-96.391-827.59 115.76-262.09 268.29-215.75 556.39-111.14 831.79 96.395 253.78 258.26 448.43 451.04 596.78-126.93 28.578-189.35 17.432-169.15 113.41 60.704 288.32 171.4 610 177.65 870.82 2.0936 87.431 18.925 182.41 132.36 182.87 134.15 0.5524 269.09 7.878 397.09-10.45 73.304-10.496 57.593-65.046 1.7417-142.81-262.34-365.28-308.66-760.09-113.21-1191.3 33.778-74.518 68.364-167.78 94.746-271.38 1.2969-5.0929 2.574-10.211 3.8301-15.353" stroke="#35313a" stroke-width="44" fill="none"/><path id="path4032-6" fill="#35313a" d="m3229.8 3383.4c64.106 205.07 48.383 465.89-1.917 671.79-1.239 5.0715-2.5018 10.132-3.7813 15.156l42.625 10.844c1.3143-5.1615 2.6017-10.319 3.875-15.531 51.688-211.58 70.092-489.32-40.802-682.26z"/><path id="path4068" d="m3683 4128c-151.54 12.012-298.46 0.9663-442-27" stroke="#35313a" stroke-width="44" fill="none"/><path id="path4078" d="m3692.4 4107.7c-2.5085 5.8449-4.9975 11.722-7.4668 17.629-169.52 405.57-246.58 957.96-224.36 1434.8 3.7827 81.192 42.076 118.42 82.024 147.08 132.3 94.923 298.59 91.934 461.03 77.782 209.46-18.248 68.843-139.02 36.77-213.55-198.88-462.14-68.986-987.16 43.737-1453.8 1.1553-4.7828 2.3089-9.5594 3.4603-14.33" stroke="#35313a" stroke-width="44" fill="none"/><path id="path4088" d="m4099.8 4042.7c345.46-153.75 615.18-383.77 424.26-1077.6" stroke="#35313a" stroke-width="44" fill="none"/><path id="path4078-9" fill="#35313a" d="m3672.2 4099.1c-2.5362 5.9094-5.0353 11.841-7.5313 17.812l40.594 16.969c2.4427-5.8441 4.8941-11.657 7.375-17.438 29.476-68.678 52.64-143.78 103.16-197.07-82.476 36.706-113.47 109.51-143.6 179.73zm394.03-0.8437c-1.1509 4.7684-2.3136 9.5302-3.4688 14.312l42.781 10.344c1.1555-4.7834 2.3169-9.5714 3.4688-14.344 13.53-56.056 23.767-139.3 8.3515-190.36-12.415 45.944-37.613 124.03-51.133 180.05z"/></g><g transform="translate(406.26 -119.35)"><path id="path863" fill="#6e6773" d="m3092 3378 54 79 40-92z"/><path id="path865" fill="#6e6773" d="m3191 3564 4 87 69-51z"/><path id="path867" fill="#6e6773" d="m3181 3736-35 57 110 3z"/><path id="path869" fill="#6e6773" d="m3084 3874 45 124-110-46z"/><path id="path871" fill="#6e6773" d="m2879 3974-104-3 61 112z"/><path id="path873" fill="#6e6773" d="m2588 3893 76 57-105 58z"/><path id="path875" fill="#6e6773" d="m2483 3721 46 78-106 6z"/><path id="path877" fill="#6e6773" d="m2474 3580 18-98-116 9z"/><path id="path879" fill="#6e6773" d="m2519 3392 66-72-106-26z"/><path id="path881" fill="#6e6773" d="m2693 3252 100-10-63-107z"/><path id="path883" fill="#6e6773" d="m2925 3241 98 75 9-118z"/><path id="path885" d="m2990 3394c143.4 117 156.65 272.48 35 412-95.225 109.21-271.21 109.66-390 16-123.83-97.635-146.06-227.45-57-348 87.439-118.36 296.06-82.737 353-19 86.474 96.789 84.84 202.79 14 278-70.751 75.119-193.73 101.55-270 23-53.73-55.341-84.299-141.84-21-215 58.424-67.526 181.02-66.995 235-6 42.486 48.004 36.468 106.92-2 149-31.309 34.248-84.001 51.508-140 15-46.061-30.029-48.24-81.826-18-119 29.212-35.911 73.109-34.805 98-6" stroke="#6e6773" stroke-width="29" fill="none"/><path id="path885-0" fill="#6e6773" d="m2577.3 3389.8c86.67-76.041 281.14-84.408 403.51 15.438 69.431 56.65 105.94 121.09 111.59 187.53 5.649 66.437-19.474 136.14-78.375 203.69l21.875 19.062c62.75-71.966 91.82-149.78 85.406-225.22-6.4141-75.434-46.858-148.92-122.19-207.56-129.03-100.44-369.49-104.9-421.82 7.0622zm201.8 148.4c-22.128 0.7632-44.479 11.823-61.375 32.594-17.308 21.277-25.778 47.405-22.75 73.031 3.0275 25.626 17.956 50.241 44.094 67.281l15.812-24.312c-19.923-12.989-29.108-29.302-31.125-46.375s3.5369-35.415 16.469-51.313c12.316-15.141 26.529-21.477 39.875-21.937 13.346-0.4603 25.262 5.8088 35.906 16.25 25.086 24.608 16.104 53.467-33.925 42.833 57.971 59.367 98.236-11.3 55.863-61.771-14.892-17.738-36.716-27.044-58.844-26.281z"/></g><g transform="translate(406.26 -119.35)"><path id="path924" fill="#dfb621" d="m3387 2492c226.99 65.248 436.1 56.734 642 35l-215-336z"/><path id="path914" fill="#dfb621" d="m3380 2485c-6.1083 48.031-7.2015 107.25 15 163 373.22 84.347 748.47 37.944 1024-63-7.7731-39.318-35.561-81.348-62-118-322.92 63.6-646.23 119.08-977 18z"/><path id="path916" fill="#dfb621" d="m3427 2657c-3.8492 58.839-4.6505 113.99 39 157 353.17 61.567 688.55 3.8359 994-91 1.0163-46.937-12.175-97.232-48-137"/><path id="path918" fill="#dfb621" d="m4456 2727c37.987 48.662 35.892 87.838 50 126-305.2 119.79-662.86 166.85-1014 106-23.795-44.667-35.999-93.333-20-138"/><path id="path920" fill="#dfb621" d="m4502 2857c25.86 43.183 40.794 89.488 48 138-244.86 138.21-680.68 189.76-1029 87-11.034-38.667-15.704-81.333-11-120"/><path id="path922" fill-opacity=".37647" fill="#fff" d="m4155 2508c118.96 201.92 116.18 389.29 138 587l136-45c-19.06-190.79-59.74-382.87-149-565z"/><path id="path920-7" stroke-linejoin="round" d="m4502 2857c25.86 43.183 40.794 89.488 48 138-244.86 138.21-680.68 189.76-1029 87-11.034-38.667-15.704-81.333-11-120" stroke="#8a6918" stroke-width="29" fill="none"/><path id="path918-0" stroke-linejoin="round" d="m4456 2727c28.987 39.662 44.892 89.838 50 126-305.2 119.79-662.86 166.85-1014 106-23.795-44.667-35.999-93.333-20-138" stroke="#8a6918" stroke-width="29" fill="none"/><path id="path916-4" stroke-linejoin="round" d="m3427 2657c-3.8492 58.839-4.6505 113.99 39 157 353.17 61.567 688.55 3.8359 994-91 1.0163-46.937-12.175-97.232-48-137" stroke="#8a6918" stroke-width="29" fill="none"/><path id="path914-3" stroke-linejoin="round" d="m3380 2485c-6.1083 48.031-7.2015 107.25 15 163 373.22 84.347 748.47 37.944 1024-63-7.7731-39.318-35.561-81.348-62-118-322.92 63.6-646.23 119.08-977 18z" stroke="#8a6918" stroke-width="29" fill="none"/></g><g transform="translate(406.26 -119.35)"><path id="path1060" fill="#d4ced5" d="m4326.2 2360-501.59-66.182c-186.83 125.26-377.91 235.17-609.57 198.55-206.67-59.468-413.35-69.383-620.02-17.416-101.84-127.23-196.49-268.85-289.11-414.51 115.48-109.22 233.37-214.98 285.63-414.51 27.703-175.38 125.7-329.65 236.86-477.21 303.41-353.18 698.74-262.53 1100.7-212.48l188.1 996.22c109.22 135.85 164.06 271.7 209 407.54z"/><path id="path929" fill="#6e6773" d="m3164 2070c97.015 135.76 154.6 276.25 185 420l109-17c-52.378-149.13-145.29-313.04-294-403z"/><path id="path931" fill="#6e6773" d="m3249 2021c133.94 123.28 236.72 266.39 312 427l86-47c-74.078-142.06-213.72-328.77-398-380z"/><path id="path933" fill="#6e6773" d="m3421 2033c140.35 84.001 227.14 199.1 285 331l75-53c-77.868-129.17-188.82-244.52-360-278z"/><path id="path1044" fill="#6e6773" d="m2832.5 2438.4c-6.5982-215.09-57.61-400.56-182.27-536.95l145.32-233.99c-55.423-53.745-112.91-93.069-174.88-100.99-22.563 81.484-33.954 161.1-93.596 248.77-59.222 98.614-133.01 172.96-211.82 238.92 83.38 147.81 164.14 297.81 285.71 413.79z"/><path id="path927" stroke-linejoin="round" d="m3837 2277c-173.56 152.21-415.92 260.8-647 207-215.11-50.082-402.68-51.186-588-16-114.31-119.36-209.67-257.67-292-409 150.5-136.21 260.24-272.41 292-443 32.537-174.76 118.55-312.27 222-440" stroke="#35313a" stroke-width="44" fill="none"/><path id="path935" fill="#35313a" d="m2529 2125c31.101-3.8183 55.609-17.058 74-35 13.834 50.545-42.547 69.923-74 35z"/><path id="path937" fill="#35313a" d="m2509.5 2338.6c114.79 20.676 164.02-23.058 217.79-116.62-9.7607 109.9-80.076 170.53-200.11 150.61z"/><path id="path963" d="m4105 1941c124.91 135.39 176.98 281.19 229 427" stroke="#35313a" stroke-width="44" fill="none"/></g><g transform="translate(406.26 -119.35)"><path id="path946" clip-path="url(#clipPath1088)" fill="#fff" d="m2846 2131 836-37-36-469-850 182z"/><path id="path942" style="color:#000000" d="m3137 1927c0 148.01-67.605 268-151 268s-151-119.99-151-268 67.605-268 151-268 151 119.99 151 268z" clip-path="url(#clipPath1128)" transform="matrix(1.059 .45021 -.54523 .91706 917.54 -1219.3)" fill="url(#linearGradient1102)"/><path id="path944" style="color:#000000" d="m3143 1913.5c0 110.73-42.085 200.5-94 200.5s-94-89.767-94-200.5 42.085-200.5 94-200.5 94 89.767 94 200.5z" clip-path="url(#clipPath1124)" transform="matrix(.93472 .47097 -.46673 .94322 1071.6 -1338.4)"/><path id="path1094" style="color:#000000" d="m3129.7 1909.8c0 46.651-15.595 84.47-34.833 84.47s-34.833-37.818-34.833-84.47c0-46.651 15.595-84.47 34.833-84.47s34.833 37.818 34.833 84.47z" transform="matrix(.89478 .63982 -.58166 .81343 1488.7 -1639.6)" fill="#fff"/></g><g transform="translate(406.26 -119.35)"><path id="path952" d="m2846 2026c71.438-139.46 195.46-222.4 379-238 123.24-10.472 246.67-26.54 370-65-6.4051 105-40.713 223.58-127.15 270.76-84.296 46.019-183.78 37.962-396.85 52.287 175.94 0.5662 345.1 18.913 431.36-30.144 127.15-72.314 174.25-252.54 177.64-402.9-42.749 34.605-117.3 65.698-200 87-100.55 25.898-208.82 20.524-307 40-189.88 37.665-296.72 142.3-327 286z"/></g><g transform="translate(406.26 -119.35)"><path id="path1179" fill="#fff" d="m2462.7 342.15 487.66 777.77c202.6-159.2 432.7-174.06 672.2-139.31l-111.4-839.47c-332.07-19.513-698.98 37.117-1048.5 201.03z"/><path id="path1177" fill="#fff" d="m4051.1 935.3 184.61 700.14 484.18-3.4832c44.3-453.1-101.4-823.98-400.6-1128.5z"/><path id="path1175" fill="#6e6773" d="m4096.3 1928c94.813 135.47 186.3 272.59 226.41 435.41 208.84-164.83 372.86-383.45 397.09-769.81l-487.66 3.4833z"/><path id="path1155" fill="#6e6773" d="m3413.6 144.6c108.6 249.34 327.08 1103.6-27.866 1337.6 157.07-45.138 308.51-112.81 456.31-195.06l254.3-313.48c109.7-111.96 194.6-258.43 257.8-435.41-256.1-261.69-582.6-363.34-940.5-393.61z"/><path id="path1153" fill="#6e6773" d="m2483.6 325.73c319.96 294.51 585.34 754.11 529.46 1159.9-62.203-79.287-125.11-141.51-205.51-229.9-295.59-192.57-622.88-339.14-992.74-383.16 68.909-122.63 190.65-230.16 323.95-334.4 190.33 68.598 339.59 178.26 484.18 292.6-82.731-133.49-174.85-265.8-330.91-390.13z"/><path id="path1133" d="m3880.4 1046.8c-336.4-136.92-808.2-129.21-1065.9 205.5-294.5-203.8-647.2-345.17-999.7-390.14 97.1-129.22 206.2-230.29 317-327.43 207.4 68.95 382.5 210.24 519 330.91-93.3-154.63-207.9-303.48-362.3-424.96 582.3-367.84 1309.3-390.83 1807.8-101.02 821.5 477.51 801.4 1721.7 160.3 2058.6" stroke="#35313a" stroke-miterlimit="9" stroke-width="44" fill="none"/><path id="path1135" fill="#35313a" d="m3045.5 157.97-26.594 11.594c70.807 162.19 152.11 486.3 165.68 603.61 23.3-124.06-66.8-449.58-139.1-615.2z"/><path id="path1141" fill="#35313a" d="m3907 237.38-28.875 2.5625c18.927 212.5-72.674 514.7-116.24 627.11 69.6-94.86 164.6-410.74 145.1-629.67z"/><path id="path1143" fill="#35313a" d="m4006.3 284.56-28.938 2.2188c16.222 213.29-89.264 457.77-147.39 563.43 88.169-91.143 193.08-345.39 176.33-565.65z"/><path id="path963-7" d="m4105 1941c124.91 135.39 176.98 281.19 229 427" stroke="#35313a" stroke-width="44" fill="none"/></g><g transform="translate(406.26 -119.35)"><path id="path1181" fill="#d4ced5" d="m4088.7 2051.7c146.99-144.84 162.89-358.34 174.88-573.89 4.9252-215.73-86.917-408.7-192.12-598.52-50.254-61.803-100.19-128.15-162.56-17.241-67.856 155.77-121.07 313.98-110.84 482.76z"/><path id="path1183" d="m4049.3 1933.5c68.599-158.53-34.363-150.29-108.37-66.502-134.16 151.88-226.05 471 12.315 669.95 145.56 121.5 457.87 132.12 600.99-115.76 104.32-180.69-13.933-473.08-169.95-588.67-114.03-84.481-144.56 9.7057-105.91 41.872 81.763 68.043 174.36 250.91 115.76 359.61-59.15 109.72-182.25 112.92-290.64 34.483-124.05-89.766-96.636-236.88-54.187-334.98z" stroke="#8a6918" stroke-width="44" fill="#dfb621"/><path id="path955" fill="#35313a" d="m3982 781.91c-18.15-1.09-37.019 6.1946-52.656 19.75-17.872 15.492-33.841 38.547-50.844 71.188-73.358 140.82-116.11 392.6-79.922 477.63-2.8114-94.966 48.398-321.94 118.92-457.32 15.59-29.927 29.766-48.814 40.688-58.281 10.922-9.4672 16.25-10.149 23.031-8.8125 13.563 2.6728 40.674 29.166 70.719 72.469 286.95 413.57 217.24 918.46 36.546 1158.9 244.3-186.59 295.84-756.94-0.4213-1183.9-31.19-44.954-57.48-82.516-98.312-90.562-2.552-0.50292-5.1571-0.84429-7.75-1z"/><path id="path957" fill="#35313a" d="m4037 1094c59.533 120.18 84.615 316.75 7 444 43.716-137.38 26.976-316.63-7-444z"/></g></svg>