<?xml version="1.0" encoding="UTF-8" standalone="no"?>
<!-- Created with Inkscape (http://www.inkscape.org/) -->

<svg
   xmlns:dc="http://purl.org/dc/elements/1.1/"
   xmlns:cc="http://creativecommons.org/ns#"
   xmlns:rdf="http://www.w3.org/1999/02/22-rdf-syntax-ns#"
   xmlns:svg="http://www.w3.org/2000/svg"
   xmlns="http://www.w3.org/2000/svg"
   xmlns:sodipodi="http://sodipodi.sourceforge.net/DTD/sodipodi-0.dtd"
   xmlns:inkscape="http://www.inkscape.org/namespaces/inkscape"
   id="svg3117"
   version="1.1"
   inkscape:version="0.48.4 r9939"
   width="146.97459"
   height="146.96877"
   sodipodi:docname="muffin.svg"
   inkscape:export-filename="C:\Users\Chris\Dropbox\Vectors\Background\Food\Muffin\Muffin 1.png"
   inkscape:export-xdpi="1200"
   inkscape:export-ydpi="1200">
  <metadata
     id="metadata3123">
    <rdf:RDF>
      <cc:Work
         rdf:about="">
        <dc:format>image/svg+xml</dc:format>
        <dc:type
           rdf:resource="http://purl.org/dc/dcmitype/StillImage" />
        <dc:title />
      </cc:Work>
    </rdf:RDF>
  </metadata>
  <defs
     id="defs3121" />
  <sodipodi:namedview
     pagecolor="#ffffff"
     bordercolor="#666666"
     borderopacity="1"
     objecttolerance="10"
     gridtolerance="10"
     guidetolerance="10"
     inkscape:pageopacity="0"
     inkscape:pageshadow="2"
     inkscape:window-width="1280"
     inkscape:window-height="1002"
     id="namedview3119"
     showgrid="false"
     inkscape:zoom="3.0594153"
     inkscape:cx="34.09999"
     inkscape:cy="74.444017"
     inkscape:window-x="-8"
     inkscape:window-y="-2"
     inkscape:window-maximized="1"
     inkscape:current-layer="layer2"
     fit-margin-top="9.79"
     fit-margin-left="0"
     fit-margin-right="0"
     fit-margin-bottom="9.79" />
  <g
     inkscape:groupmode="layer"
     id="layer2"
     inkscape:label="Muffin"
     style="display:inline"
     transform="translate(0.74336967,2.95176)">
    <path
       style="fill:#b88e36;fill-opacity:1;stroke:#936f27;stroke-width:4;stroke-linecap:butt;stroke-linejoin:miter;stroke-miterlimit:4;stroke-opacity:1;stroke-dasharray:none"
       d="m 25.004777,78.744548 12.510678,45.813292 c 1.07405,3.9331 4.886693,7.33616 8.718001,7.33616 l 56.739734,0 c 5.07953,0 7.2677,-2.4358 7.91323,-7.19967 l 6.29283,-46.440042 z"
       id="path3935"
       inkscape:connector-curvature="0"
       sodipodi:nodetypes="csssscc" />
    <path
       style="fill:none;stroke:#936f27;stroke-width:4;stroke-linecap:butt;stroke-linejoin:miter;stroke-miterlimit:4;stroke-opacity:1;stroke-dasharray:none"
       d="M 59.341294,131.62558 51.37748,98.420031"
       id="path3937"
       inkscape:connector-curvature="0"
       sodipodi:nodetypes="cc" />
    <path
       style="fill:none;stroke:#936f27;stroke-width:4;stroke-linecap:butt;stroke-linejoin:miter;stroke-miterlimit:4;stroke-opacity:1;stroke-dasharray:none"
       d="M 73.216604,131.81842 73.955347,95.332833"
       id="path3939"
       inkscape:connector-curvature="0"
       sodipodi:nodetypes="cc" />
    <path
       style="fill:none;stroke:#936f27;stroke-width:4;stroke-linecap:butt;stroke-linejoin:miter;stroke-miterlimit:4;stroke-opacity:1;stroke-dasharray:none"
       d="M 96.832227,132.227 96.190932,99.014973"
       id="path3941"
       inkscape:connector-curvature="0"
       sodipodi:nodetypes="cc" />
    <path
       style="fill:#dec16d;fill-opacity:1;stroke:#cfad4c;stroke-width:4;stroke-linecap:butt;stroke-linejoin:miter;stroke-miterlimit:4;stroke-opacity:1;stroke-dasharray:none"
       d="M 82.049307,90.60092 C 97.312244,105.39718 125.48175,107.61907 128.73652,79.969179 156.82234,68.181453 141.07559,47.232118 125.7319,44.144834 128.14919,13.009394 98.657031,-5.0705733 65.87057,22.187978 42.712498,4.4832914 13.749982,21.477914 17.334361,50.154079 -9.5706607,55.565173 -0.76851035,91.187255 29.352851,82.742677 42.795317,105.36681 69.094218,100.90314 82.049307,90.60092 z"
       id="path3127"
       inkscape:connector-curvature="0"
       sodipodi:nodetypes="ccccccc" />
    <path
       sodipodi:type="arc"
       style="color:#000000;fill:#d6955a;fill-opacity:1;fill-rule:nonzero;stroke:#936f27;stroke-width:0;stroke-linecap:butt;stroke-linejoin:bevel;stroke-miterlimit:4;stroke-opacity:1;stroke-dasharray:none;stroke-dashoffset:0;marker:none;visibility:visible;display:inline;overflow:visible;enable-background:accumulate"
       id="path3943-1"
       sodipodi:cx="82.049309"
       sodipodi:cy="55.181049"
       sodipodi:rx="3.9291217"
       sodipodi:ry="5.4892139"
       d="m 85.978431,55.181049 c 0,3.031609 -1.759128,5.489214 -3.929122,5.489214 -2.169994,0 -3.929122,-2.457605 -3.929122,-5.489214 0,-3.031609 1.759128,-5.489214 3.929122,-5.489214 2.169994,0 3.929122,2.457605 3.929122,5.489214 z"
       transform="matrix(1.3336321,0.69993452,-0.74589649,1.1056306,-12.852069,-47.085608)" />
    <path
       sodipodi:type="arc"
       style="color:#000000;fill:#d6955a;fill-opacity:1;fill-rule:nonzero;stroke:#936f27;stroke-width:0;stroke-linecap:butt;stroke-linejoin:bevel;stroke-miterlimit:4;stroke-opacity:1;stroke-dasharray:none;stroke-dashoffset:0;marker:none;visibility:visible;display:inline;overflow:visible;enable-background:accumulate"
       id="path3943-1-7-4"
       sodipodi:cx="82.049309"
       sodipodi:cy="55.181049"
       sodipodi:rx="3.9291217"
       sodipodi:ry="5.4892139"
       d="m 85.978431,55.181049 c 0,3.031609 -1.759128,5.489214 -3.929122,5.489214 -2.169994,0 -3.929122,-2.457605 -3.929122,-5.489214 0,-3.031609 1.759128,-5.489214 3.929122,-5.489214 2.169994,0 3.929122,2.457605 3.929122,5.489214 z"
       transform="matrix(1.5207188,0.06787199,-0.23555655,1.1866454,6.3002207,-7.3046378)" />
    <path
       sodipodi:type="arc"
       style="color:#000000;fill:#d6955a;fill-opacity:1;fill-rule:nonzero;stroke:#936f27;stroke-width:0;stroke-linecap:butt;stroke-linejoin:bevel;stroke-miterlimit:4;stroke-opacity:1;stroke-dasharray:none;stroke-dashoffset:0;marker:none;visibility:visible;display:inline;overflow:visible;enable-background:accumulate"
       id="path3943-1-7-4-0"
       sodipodi:cx="82.049309"
       sodipodi:cy="55.181049"
       sodipodi:rx="3.9291217"
       sodipodi:ry="5.4892139"
       d="m 85.978431,55.181049 c 0,3.031609 -1.759128,5.489214 -3.929122,5.489214 -2.169994,0 -3.929122,-2.457605 -3.929122,-5.489214 0,-3.031609 1.759128,-5.489214 3.929122,-5.489214 2.169994,0 3.929122,2.457605 3.929122,5.489214 z"
       transform="matrix(1.5617772,0.54805789,-0.6323555,1.0424928,8.1499271,-75.825735)" />
    <path
       sodipodi:type="arc"
       style="color:#000000;fill:#b38d3b;fill-opacity:1;fill-rule:nonzero;stroke:#936f27;stroke-width:0;stroke-linecap:butt;stroke-linejoin:bevel;stroke-miterlimit:4;stroke-opacity:1;stroke-dasharray:none;stroke-dashoffset:0;marker:none;visibility:visible;display:inline;overflow:visible;enable-background:accumulate"
       id="path3943-1-7-4-0-9"
       sodipodi:cx="82.049309"
       sodipodi:cy="55.181049"
       sodipodi:rx="3.9291217"
       sodipodi:ry="5.4892139"
       d="m 85.978431,55.181049 c 0,3.031609 -1.759128,5.489214 -3.929122,5.489214 -2.169994,0 -3.929122,-2.457605 -3.929122,-5.489214 0,-3.031609 1.759128,-5.489214 3.929122,-5.489214 2.169994,0 3.929122,2.457605 3.929122,5.489214 z"
       transform="matrix(1.3619048,0.77132697,-0.81148478,1.1235631,-22.646588,-82.528141)" />
    <path
       sodipodi:type="arc"
       style="color:#000000;fill:#b38d3b;fill-opacity:1;fill-rule:nonzero;stroke:#936f27;stroke-width:0;stroke-linecap:butt;stroke-linejoin:bevel;stroke-miterlimit:4;stroke-opacity:1;stroke-dasharray:none;stroke-dashoffset:0;marker:none;visibility:visible;display:inline;overflow:visible;enable-background:accumulate"
       id="path4065"
       sodipodi:cx="85.920647"
       sodipodi:cy="58.012325"
       sodipodi:rx="6.0670261"
       sodipodi:ry="7.4537749"
       d="m 91.987673,58.012325 c 0,4.116607 -2.7163,7.453775 -6.067026,7.453775 -3.350726,0 -6.067026,-3.337168 -6.067026,-7.453775 0,-4.116606 2.7163,-7.453775 6.067026,-7.453775 3.350726,0 6.067026,3.337169 6.067026,7.453775 z"
       transform="matrix(0.78098241,0.52138698,-0.51453257,0.75827953,42.382993,-31.749384)" />
  </g>
</svg>
