<?xml version="1.0" encoding="UTF-8" standalone="no"?>
<!-- Created with Inkscape (http://www.inkscape.org/) -->

<svg
   xmlns:dc="http://purl.org/dc/elements/1.1/"
   xmlns:cc="http://creativecommons.org/ns#"
   xmlns:rdf="http://www.w3.org/1999/02/22-rdf-syntax-ns#"
   xmlns:svg="http://www.w3.org/2000/svg"
   xmlns="http://www.w3.org/2000/svg"
   xmlns:sodipodi="http://sodipodi.sourceforge.net/DTD/sodipodi-0.dtd"
   xmlns:inkscape="http://www.inkscape.org/namespaces/inkscape"
   id="svg4456"
   height="92.861397"
   width="92.846397"
   version="1.1"
   inkscape:version="0.48.4 r9939"
   sodipodi:docname="twilicorn_crown.svg">
  <sodipodi:namedview
     pagecolor="#ffffff"
     bordercolor="#666666"
     borderopacity="1"
     objecttolerance="10"
     gridtolerance="10"
     guidetolerance="10"
     inkscape:pageopacity="0"
     inkscape:pageshadow="2"
     inkscape:window-width="640"
     inkscape:window-height="480"
     id="namedview34"
     showgrid="false"
     fit-margin-top="17.3"
     fit-margin-bottom="17.3"
     fit-margin-left="0"
     fit-margin-right="0"
     inkscape:zoom="2.9532945"
     inkscape:cx="46.419705"
     inkscape:cy="47.147446"
     inkscape:window-x="0"
     inkscape:window-y="0"
     inkscape:window-maximized="0"
     inkscape:current-layer="svg4456" />
  <defs
     id="defs4458">
    <linearGradient
       id="linearGradient4523-1"
       gradientTransform="matrix(0.00574852,0.00637138,-0.00636769,0.00579141,370.234,596.78811)">
      <stop
         id="stop4525-7"
         stop-color="#fff2ac"
         offset="0" />
    </linearGradient>
    <clipPath
       id="clipPath4529"
       clipPathUnits="userSpaceOnUse">
      <path
         id="path4531"
         style="color:#000000;fill:url(#linearGradient4523-1);enable-background:accumulate"
         d="m 422.13,352.85 c -4.0671,11.675 -29.777,17.322 -40.892,-3.4378 -7.7313,-14.44 3.8504,-30.187 18.52,-29.86 14.051,0.31379 26.453,-1.8341 32.75,-7.0272 48.45,-39.962 114.33,-87.81 159.44,-57.676 6.4654,4.3181 -0.6655,12.034 3.5402,21.199 -28.122,-5.5094 -88.861,16.076 -143.49,49.781 -6.6639,4.1115 -21.656,11.484 -37.552,10.001 5.9716,2.2169 10.774,8.1387 7.6805,17.02 z"
         inkscape:connector-curvature="0" />
    </clipPath>
  </defs>
  <metadata
     id="metadata4461">
    <rdf:RDF>
      <cc:Work
         rdf:about="">
        <dc:format>image/svg+xml</dc:format>
        <dc:type
           rdf:resource="http://purl.org/dc/dcmitype/StillImage" />
        <dc:title />
      </cc:Work>
    </rdf:RDF>
  </metadata>
  <g
     id="layer1"
     transform="translate(-371.42271,-529.29088)">
    <g
       id="g5170"
       transform="matrix(2.1404595,0,0,2.1404595,-423.59158,-604.33931)">
      <g
         id="g5165">
        <path
           id="path4541"
           style="color:#000000;fill:#f8df74;enable-background:accumulate"
           d="m 403.93,563.92 c -0.86987,1.147 -3.9162,0.84625 -4.3983,-1.8545 -0.33535,-1.8786 1.5121,-3.206 3.1225,-2.641 1.5425,0.54112 2.9914,0.75008 3.8745,0.40158 1.547,-0.61047 3.2086,-1.2337 4.8984,-1.7736 l 0.97087,3.1043 c -1.3833,0.22246 -2.7923,0.50505 -4.1924,0.84586 -0.88488,0.2154 -2.8081,0.49202 -4.5359,-0.26351 0.58788,0.43884 0.93805,1.2872 0.26022,2.1809 z"
           inkscape:connector-curvature="0" />
        <path
           id="path4548"
           style="opacity:0.7;color:#000000;fill:#ffffff;enable-background:accumulate"
           d="m 407.96,562.08 1.0248,-3.1304 -3.4396,1.0837 -0.98587,1.9131 c 0.74177,0.24989 1.8004,0.33369 3.4006,0.13358 z"
           inkscape:connector-curvature="0" />
        <path
           id="path4518"
           style="text-indent:0;text-align:start;text-transform:none;direction:ltr;block-progression:tb;baseline-shift:baseline;color:#000000;fill:#e1aa4a;enable-background:accumulate"
           d="m 411.64,557.64 -0.31344,0.099 c -1.7001,0.54321 -3.3658,1.1672 -4.9165,1.7791 -0.72942,0.28785 -2.1409,0.12622 -3.6482,-0.40255 -1.833,-0.64302 -3.9255,0.89676 -3.5492,3.005 0.26153,1.4651 1.2513,2.3231 2.2837,2.622 1.0324,0.29887 2.1398,0.10375 2.6933,-0.62618 0.4507,-0.59428 0.49738,-1.2352 0.30515,-1.7676 1.5045,0.35723 3.0106,0.15797 3.7869,-0.031 1.3915,-0.33874 2.7951,-0.6223 4.17,-0.84341 l 0.37146,-0.0609 -0.11417,-0.35508 -0.97025,-3.1043 z m -0.42408,0.82788 0.76262,2.4371 c -1.2736,0.21386 -2.5646,0.46362 -3.8499,0.77648 -0.83436,0.2031 -2.6828,0.4536 -4.217,-0.16648 -0.35451,-0.30966 -0.79485,-0.52349 -1.2495,-0.60786 -0.61324,-0.11381 -1.2077,0.14283 -1.4039,0.62331 -0.24685,0.60431 0.3611,1.3222 0.94637,0.86514 -0.40073,-0.0381 -0.44881,-0.37959 -0.3594,-0.58924 0.0705,-0.16527 0.33234,-0.33051 0.69689,-0.26286 0.48786,0.0905 0.99827,0.40615 1.2488,0.79798 0.25049,0.39183 0.30398,0.82528 -0.11741,1.3809 -0.31628,0.41704 -1.1681,0.6388 -1.9969,0.39886 -0.8288,-0.23994 -1.6033,-0.88107 -1.8238,-2.1168 -0.29434,-1.6489 1.3075,-2.7602 2.6954,-2.2733 1.5777,0.55346 3.0655,0.80337 4.1023,0.39421 1.4472,-0.57108 2.9937,-1.1447 4.5655,-1.6574 z"
           inkscape:connector-curvature="0" />
      </g>
      <g
         id="g5153">
        <path
           id="path4520"
           style="color:#000000;fill:#fff2ac;enable-background:accumulate"
           d="m 378.57,563.61 c -1.3778,1.7424 -6.0683,1.1833 -6.7278,-2.9985 -0.45871,-2.9087 2.433,-4.899 4.9,-3.977 2.3629,0.88301 4.5916,1.2507 5.965,0.74057 10.568,-3.9252 24.555,-8.1607 30.425,-0.37903 0.84112,1.1151 -0.82252,2.0043 -0.65025,3.809 -4.4413,-2.5963 -16.009,-2.5174 -27.256,-0.0196 -1.3719,0.30469 -4.3477,0.67138 -6.9544,-0.51922 0.88136,0.7291 1.3461,2.0184 0.29793,3.3439 z"
           inkscape:connector-curvature="0" />
        <path
           id="path4539"
           style="color:#000000;fill:#ffffff;enable-background:accumulate"
           d="m 377.43,556.85 -2.6035,-0.40031 c -1.2714,1.3364 -2.3016,2.8371 -2.7736,4.718 l 1.5463,2.4656 c 0.59164,-2.6563 2.0653,-4.7286 3.8308,-6.7834 z"
           inkscape:connector-curvature="0" />
        <g
           id="g4522"
           transform="matrix(0.16948572,0.05905204,-0.05897772,0.16981878,327.83655,478.76698)"
           clip-path="url(#clipPath4529)"
           style="fill:#ffffff">
          <path
             id="path4073"
             style="color:#000000;enable-background:accumulate"
             d="m 442.22,340.44 4.0195,-39.129 27.022,-20.203 -9.5964,45.709 z"
             inkscape:connector-curvature="0" />
          <path
             id="path4071-1"
             style="color:#000000;enable-background:accumulate"
             d="m 556.67,285.5 6.88,-39.13 c -21.464,-3.2784 -33.713,1.4481 -51.15,10.249 l -20.598,56.734 c 20.213,-9.6903 38.573,-18.746 64.87,-27.853 z"
             inkscape:connector-curvature="0" />
          <path
             id="path4075-8"
             style="color:#000000;enable-background:accumulate"
             d="m 585.31,281.26 10.76,-21.22 -0.58135,21.042 z"
             inkscape:connector-curvature="0" />
        </g>
        <path
           id="path4056"
           style="text-indent:0;text-align:start;text-transform:none;direction:ltr;block-progression:tb;baseline-shift:baseline;color:#000000;fill:#ecb75b;enable-background:accumulate"
           d="m 407.5,552.87 c -2.3652,-0.65586 -5.0478,-0.73791 -7.8545,-0.44629 -5.6134,0.58325 -11.771,2.6358 -17.065,4.6018 -1.1947,0.44371 -3.3821,0.12963 -5.7046,-0.73832 -2.7219,-1.0172 -5.9018,1.2137 -5.4012,4.3884 0.35068,2.2237 1.8103,3.5372 3.3543,4.0183 1.544,0.48107 3.2058,0.20018 4.0353,-0.8487 0.74512,-0.94227 0.78429,-1.948 0.43355,-2.7699 2.3515,0.67069 4.7827,0.35059 6.0113,0.0777 5.5978,-1.2432 11.28,-1.8847 16.1,-1.8921 4.8203,-0.007 8.7892,0.64555 10.886,1.8715 l 0.63186,0.36888 -0.0738,-0.7277 c -0.0747,-0.78272 0.2446,-1.3654 0.54007,-1.9654 0.14774,-0.29996 0.29504,-0.59757 0.3405,-0.94623 0.0455,-0.34866 -0.0445,-0.74254 -0.30498,-1.0878 -1.5204,-2.0156 -3.5641,-3.2482 -5.9292,-3.9041 z m -0.2221,0.70788 c 2.2385,0.61592 4.1403,1.7735 5.5548,3.6487 0.16009,0.21223 0.18243,0.3488 0.15791,0.53688 -0.0245,0.18808 -0.12505,0.42888 -0.26654,0.7162 -0.22096,0.44865 -0.52241,1.0167 -0.60083,1.73 -2.3971,-1.172 -6.1783,-1.7056 -10.715,-1.6987 -4.8855,0.007 -10.613,0.65853 -16.262,1.9131 -1.3128,0.29155 -4.1999,0.62502 -6.5922,-0.40509 -0.5237,-0.48436 -1.1864,-0.82597 -1.8726,-0.96774 -0.89435,-0.18478 -1.714,0.19554 -2.0419,0.85316 -0.48442,0.97146 0.49077,1.8914 1.253,1.4182 -0.72377,-0.1238 -0.72895,-0.74997 -0.58525,-1.0844 0.13556,-0.31542 0.61231,-0.58081 1.2208,-0.45509 0.78365,0.16191 1.5863,0.68413 1.9831,1.3334 0.3968,0.6493 0.46045,1.3848 -0.2336,2.2625 -0.54841,0.69351 -1.9198,1.008 -3.2304,0.59969 -1.3106,-0.40834 -2.5284,-1.4636 -2.8372,-3.4217 -0.41676,-2.6428 2.1922,-4.3963 4.4043,-3.5697 2.4032,0.89808 4.6739,1.318 6.226,0.74151 5.2749,-1.9591 11.394,-3.9876 16.883,-4.558 2.7448,-0.28519 5.3149,-0.20906 7.5535,0.40685 z"
           inkscape:connector-curvature="0" />
        <path
           id="path4058"
           style="text-indent:0;text-align:start;text-transform:none;direction:ltr;block-progression:tb;baseline-shift:baseline;color:#000000;fill:#ecb75b;enable-background:accumulate"
           d="m 394.33,545.27 c -0.98372,-0.30849 -2.0658,-0.30296 -3.047,0.14007 -0.98116,0.44303 -1.8486,1.3229 -2.4064,2.6893 -0.73569,1.802 -1.3243,3.7322 -2.1376,5.3172 -0.81333,1.585 -1.8305,2.8067 -3.4341,3.289 -0.96453,0.29013 -1.6677,0.19464 -2.1838,-0.0887 -0.51612,-0.28329 -0.85913,-0.77418 -1.0518,-1.348 -0.19266,-0.57387 -0.22839,-1.2241 -0.12043,-1.7731 0.10797,-0.54906 0.36153,-0.98109 0.66086,-1.1678 0.86478,-0.53929 1.6081,-0.36445 2.1502,0.0829 0.5421,0.44734 0.82653,1.1919 0.6828,1.7608 -0.18598,0.73615 -0.67216,0.94342 -1.1288,0.87384 -0.45661,-0.0696 -0.87639,-0.43755 -0.87219,-1.113 -0.57948,0.66199 -0.0552,1.507 0.79244,1.6503 0.70381,0.11902 1.4913,-0.32468 1.7317,-1.2765 0.20851,-0.82536 -0.17491,-1.7425 -0.86535,-2.3123 -0.69043,-0.56973 -1.7407,-0.76955 -2.7775,-0.12298 -0.48663,0.30347 -0.77443,0.87284 -0.90134,1.5182 -0.12691,0.64541 -0.0893,1.3804 0.13628,2.0523 0.22557,0.67191 0.64599,1.2891 1.3032,1.6498 0.65723,0.36074 1.5324,0.44662 2.5984,0.12599 1.7848,-0.53686 2.9127,-1.9082 3.7586,-3.5567 0.84591,-1.6485 1.4351,-3.5882 2.1576,-5.3578 0.51483,-1.261 1.2788,-2.0164 2.1278,-2.3997 0.84897,-0.38334 1.7941,-0.39748 2.6672,-0.12365 1.7464,0.54766 3.5822,2.2994 3.3181,4.3838 -0.26372,2.0819 -1.9649,3.0019 -3.5774,3.0691 -0.80623,0.0336 -1.5562,-0.18993 -2.0559,-0.64494 -0.49979,-0.45501 -0.78167,-1.1332 -0.62287,-2.1385 0.11687,-0.73993 0.4451,-1.1515 0.83545,-1.3627 0.39034,-0.21126 0.8709,-0.21857 1.2832,-0.0705 0.41228,0.1481 0.74457,0.44619 0.87245,0.82154 0.12788,0.37536 0.0745,0.85169 -0.37349,1.4344 0.8754,-0.0835 1.0231,-1.1741 0.87947,-1.6092 -0.18511,-0.5606 -0.65932,-0.96153 -1.2015,-1.1563 -0.54218,-0.19477 -1.1701,-0.18265 -1.7129,0.11112 -0.54278,0.29377 -0.97449,0.8787 -1.1118,1.7483 -0.18086,1.145 0.15537,2.0492 0.78677,2.624 0.6314,0.57481 1.5273,0.82513 2.446,0.7868 1.8374,-0.0766 3.787,-1.184 4.0855,-3.5406 0.29904,-2.3607 -1.7244,-4.3492 -3.6918,-4.9662 z"
           inkscape:connector-curvature="0" />
        <path
           id="path4062-7"
           style="text-indent:0;text-align:start;text-transform:none;direction:ltr;block-progression:tb;baseline-shift:baseline;color:#000000;fill:#ecb75b;enable-background:accumulate"
           d="m 414.05,555.18 c -0.15654,0.10424 -0.32924,0.23798 -0.49495,0.41649 -0.17464,0.18815 -0.35327,0.5264 -0.42143,0.7871 -0.0616,0.23565 0.0955,0.40573 0.2504,0.35501 0.16262,-0.0533 0.41707,-0.29942 0.54383,-0.62771 -0.33139,0.4429 -0.58013,0.4542 -0.29957,-0.0516 0.0968,-0.17457 0.23745,-0.32631 0.39591,-0.44731 0.17635,-0.13464 0.32032,-0.18632 0.37062,-0.14997 0.0498,0.036 0.0213,0.16704 -0.11806,0.41568 -0.19124,0.34121 -0.56869,0.98544 -1.2578,1.2453 l 0.12684,0.3357 c 0.83007,-0.31306 1.2505,-1.0616 1.4444,-1.4064 0.1461,-0.25995 0.20379,-0.47635 0.2087,-0.65221 0.0113,-0.4064 -0.42673,-0.43463 -0.74886,-0.22012 z"
           inkscape:connector-curvature="0" />
        <path
           id="path4053-1"
           style="text-indent:0;text-align:start;text-transform:none;direction:ltr;block-progression:tb;baseline-shift:baseline;color:#000000;fill:#ecb75b;enable-background:accumulate"
           d="m 411.78,546.2 c -0.33596,-0.119 -0.69274,-0.15341 -1.0466,-0.11482 -1.4156,0.15438 -2.789,1.489 -3.0979,3.6203 -0.30739,2.1211 0.7507,3.6627 1.9995,4.1411 0.6244,0.23919 1.3092,0.21175 1.8555,-0.16258 0.54632,-0.37433 0.93027,-1.0776 1.0223,-2.0888 0.10764,-1.1826 -0.308,-1.9669 -0.89759,-2.2878 -0.51864,-0.2823 -1.2054,-0.15387 -1.5683,0.31023 -0.4307,0.55074 -0.41004,1.4773 0.44176,1.6514 -0.52188,-0.4609 -0.38459,-0.96167 -0.0968,-1.3111 0.25199,-0.30598 0.69917,-0.37867 0.99074,-0.21996 0.38303,0.20849 0.74252,0.76022 0.64663,1.8137 -0.083,0.91167 -0.40578,1.4533 -0.80832,1.7291 -0.40255,0.27582 -0.90719,0.3082 -1.4115,0.11502 -1.0086,-0.38636 -1.9742,-1.686 -1.6942,-3.6183 0.28372,-1.9578 1.5248,-3.0851 2.6704,-3.2101 0.57278,-0.0625 1.1232,0.10895 1.571,0.57115 0.44775,0.46221 0.79508,1.2285 0.88607,2.3552 0.13426,1.6627 -0.40089,3.0665 -0.78634,4.2473 -0.19272,0.59036 -0.35198,1.1241 -0.35119,1.6266 8e-4,0.50251 0.19286,0.98201 0.65292,1.334 l 0.29414,-0.38533 c -0.35491,-0.27154 -0.45868,-0.55705 -0.4593,-0.95125 -6.2e-4,-0.39419 0.13825,-0.89316 0.32791,-1.4741 0.37931,-1.1619 0.94908,-2.6501 0.80478,-4.4372 -0.0975,-1.2076 -0.47415,-2.0879 -1.0205,-2.6519 -0.27318,-0.282 -0.58903,-0.4829 -0.925,-0.60189 z"
           inkscape:connector-curvature="0" />
      </g>
      <g
         id="g5106">
        <path
           id="path4054"
           style="color:#000000;fill:#fff2ac;stroke:#ecb75b;stroke-width:0.46700001;stroke-linecap:butt;stroke-linejoin:miter;stroke-miterlimit:4;stroke-dasharray:none;stroke-dashoffset:0;enable-background:accumulate"
           d="m 403.43,557.62 -2.2592,-5.4403 -4.7259,1.5725 3.1402,-5.0124 -5.3088,-3.8425 6.778,0.29099 1.9199,-7.2524 1.9669,7.3638 5.5981,0.31312 -4.124,3.4995 2.7104,5.001 -3.9864,-1.7 z"
           stroke-miterlimit="4"
           inkscape:connector-curvature="0" />
        <path
           id="path4055-2"
           style="color:#000000;fill:#f8338f;enable-background:accumulate"
           d="m 403.36,555.75 -1.7754,-4.348 -3.6584,1.2175 2.6301,-4.07 -4.0268,-2.8343 5.0611,0.21728 1.4336,-5.4153 1.4687,5.4985 4.18,0.23381 -3.0794,2.613 2.2083,4.0445 -3.0727,-1.4775 z"
           inkscape:connector-curvature="0" />
        <path
           id="path4083-4"
           style="opacity:0.85;color:#000000;fill:#fcaad2;enable-background:accumulate"
           d="m 403.34,555.56 -0.0971,-6.0444 -1.3961,-1.4624 -3.664,4.3907 3.4516,-0.99537 z"
           inkscape:connector-curvature="0" />
        <path
           id="path4085-5"
           style="color:#000000;fill:#fb98c8;enable-background:accumulate"
           d="m 396.49,545.7 5.379,2.3758 c 0.39186,-1.2919 0.94603,-2.6927 1.3076,-3.9932 l -0.16794,-3.7857 -1.4884,5.6524 z"
           inkscape:connector-curvature="0" />
        <path
           id="path4089-5"
           style="color:#000000;fill:#c72298;enable-background:accumulate"
           d="m 405.48,548.88 -0.92709,-0.67394 4.0374,-1.9666 z"
           inkscape:connector-curvature="0" />
        <path
           id="path4064-4"
           style="color:#000000;fill:#fdddee;stroke:#842261;stroke-width:0.26609352;stroke-linecap:butt;stroke-linejoin:miter;stroke-miterlimit:4;stroke-dasharray:none;stroke-dashoffset:0;enable-background:accumulate"
           d="m 403.26,549.98 -1.2768,-1.9312 1.1856,-3.8222 1.2448,3.9589 z"
           stroke-miterlimit="4"
           inkscape:connector-curvature="0" />
        <path
           id="path4070-0"
           style="color:#000000;fill:none;stroke:#842261;stroke-width:0.26609352;stroke-linecap:butt;stroke-linejoin:miter;stroke-miterlimit:4;stroke-dasharray:none;stroke-dashoffset:0;enable-background:accumulate"
           d="m 403.36,555.75 -1.7754,-4.348 -3.6584,1.2175 2.6301,-4.07 -4.0268,-2.8343 5.0611,0.21728 1.4336,-5.4153 1.4687,5.4985 4.18,0.23381 -3.0794,2.613 2.2083,4.0445 -3.0727,-1.4775 z"
           stroke-miterlimit="4"
           inkscape:connector-curvature="0" />
      </g>
    </g>
  </g>
</svg>
